<?xml version="1.0" encoding="UTF-8" standalone="no"?>
<svg xmlns:xlink="http://www.w3.org/1999/xlink" height="454.5px" width="226.95px" xmlns="http://www.w3.org/2000/svg">
  <g transform="matrix(1.0, 0.0, 0.0, 1.0, 115.25, 190.3)">
    <path d="M47.5 -108.4 Q36.2 -129.95 23.6 -150.85 L15.65 -163.65 52.95 -112.35 52.95 -110.6 54.15 -110.7 54.3 -110.5 53.7 -110.0 Q51.2 -109.9 48.9 -109.0 L47.5 -108.4 M1.2 -183.3 L1.2 -181.75 0.9 -182.75 Q0.9 -181.35 1.15 -180.0 4.5 -162.45 8.75 -144.95 17.65 -108.4 24.6 -71.4 L18.4 -72.45 Q-22.25 -78.45 -63.25 -77.25 L-63.35 -79.5 Q-64.2 -92.35 -70.7 -103.55 -73.25 -110.45 -79.8 -114.35 L-81.85 -115.5 Q-58.35 -137.95 -33.5 -159.05 -22.25 -168.6 -10.1 -176.6 L-2.5 -181.7 Q-2.5 -181.4 -2.25 -181.75 L-2.1 -182.0 0.65 -183.8 1.2 -183.3 M-97.25 -79.9 L-90.7 -74.55 -94.0 -74.1 Q-104.8 -72.5 -115.25 -69.15 L-115.25 -80.4 -106.7 -90.25 Q-103.7 -84.6 -98.35 -80.65 L-97.25 -79.9 M-8.6 -72.7 L-6.7 -72.6 8.25 -70.6 -8.6 -72.7 M90.5 -38.75 L67.2 -78.35 Q68.85 -79.9 69.95 -82.15 L71.0 -84.6 Q86.9 -62.0 93.25 -35.45 L90.5 -38.75 M60.5 -77.5 Q62.9 -82.7 61.85 -88.15 60.3 -96.6 55.2 -103.4 52.8 -106.55 49.25 -105.15 L49.0 -105.7 Q55.45 -108.45 61.35 -104.55 70.6 -98.4 68.9 -87.55 67.7 -79.95 60.5 -77.5 M-115.25 201.45 L-115.25 146.75 Q-112.2 133.5 -106.6 121.05 L-106.15 120.15 Q-96.9 135.0 -87.2 149.4 -73.4 169.95 -55.5 187.2 L-68.45 195.85 Q-71.95 195.8 -75.45 195.9 -95.65 196.35 -115.25 201.45 M-115.25 53.05 L-115.25 9.4 -113.7 9.15 -113.45 7.3 -112.65 7.45 -115.25 53.05 M-115.25 -56.15 L-115.25 -61.7 Q-99.85 -65.75 -84.1 -68.1 L-82.95 -68.3 Q-77.5 -63.9 -70.5 -63.45 -69.1 -64.2 -67.8 -65.05 -64.7 -67.05 -62.95 -70.4 L-58.85 -70.65 Q-62.4 -68.35 -64.1 -64.5 -66.55 -58.95 -66.6 -52.7 L-65.7 -51.9 Q-63.4 -50.4 -60.6 -49.8 -22.1 -40.45 11.6 -20.0 12.15 -15.25 11.85 -10.5 9.7 22.05 13.35 54.15 L13.85 54.15 15.05 56.3 15.75 57.3 16.65 58.1 17.5 58.75 Q18.0 14.35 19.5 -30.15 L19.15 -30.5 Q20.3 -45.5 11.25 -56.5 10.3 -49.25 8.05 -42.05 7.3 -39.75 5.15 -39.5 -6.6 -38.75 -15.2 -47.75 -23.8 -56.65 -21.35 -70.1 -9.7 -69.65 1.6 -68.0 L7.25 -67.2 6.8 -67.15 8.5 -67.0 25.9 -63.7 Q30.9 -39.6 30.5 -15.0 30.15 8.7 28.6 32.35 L26.3 65.4 10.05 63.15 9.9 -17.4 Q-13.1 -28.9 -37.4 -37.1 -61.35 -45.2 -86.1 -49.85 L-88.75 -50.35 -91.55 -50.95 -101.95 -1.1 -107.6 -1.45 Q-112.05 -3.6 -112.65 -8.65 -115.55 -33.35 -112.3 -58.2 L-115.25 -56.15 M86.75 -62.8 L86.75 -65.6 Q86.95 -75.4 78.6 -80.75 85.95 -80.2 89.95 -74.05 94.1 -67.7 93.35 -60.35 L90.7 -55.1 90.25 -55.7 87.5 -61.25 86.75 -62.8 M89.25 -35.25 Q97.45 -29.25 95.85 -19.95 L95.6 -18.55 88.9 -18.45 89.25 -35.25 M87.75 36.15 L95.8 46.05 84.6 99.25 79.65 100.3 Q81.25 94.2 82.45 87.85 L83.75 82.3 Q88.6 64.25 91.05 45.65 L87.8 38.8 Q87.15 37.4 87.75 36.15 M15.55 56.95 L15.55 56.5 16.15 56.35 15.55 56.95 M-5.75 -176.95 L-9.9 -173.65 Q-12.35 -171.4 -14.4 -168.8 -21.0 -160.5 -26.2 -151.35 -34.7 -136.45 -42.2 -120.75 -51.5 -101.3 -57.1 -80.75 L-56.35 -80.05 -20.9 -78.35 -20.4 -84.35 Q-18.3 -108.25 -13.7 -132.05 -9.3 -154.6 -5.75 -176.95 M-82.0 -111.05 Q-79.25 -107.0 -78.55 -102.2 -78.4 -101.15 -78.75 -100.0 -79.2 -98.35 -78.2 -98.0 L-79.4 -93.6 Q-88.05 -81.2 -101.2 -88.6 -104.0 -90.2 -105.15 -93.35 -99.0 -86.4 -90.9 -91.05 L-90.0 -91.7 Q-82.6 -92.4 -82.95 -100.4 L-83.4 -105.7 Q-84.1 -110.45 -87.4 -114.25 L-83.6 -112.4 -82.0 -110.5 -82.0 -111.05 M-77.4 -102.45 Q-77.6 -108.1 -81.15 -112.4 L-78.25 -110.25 Q-72.15 -105.8 -72.3 -98.45 L-77.4 -102.45 M-97.2 -83.45 L-97.35 -83.6 -97.2 -83.5 -97.2 -83.45 M-56.75 -70.75 L-56.8 -70.65 -56.8 -70.75 -56.75 -70.75 M-102.9 0.85 L-102.9 0.55 -102.3 0.55 -102.9 0.85" fill="#9999cc" fill-rule="evenodd" stroke="none"/>
    <path d="M47.5 -108.4 L48.9 -109.0 Q51.2 -109.9 53.7 -110.0 L54.55 -109.95 54.3 -110.5 54.15 -110.7 52.95 -112.35 15.65 -163.65 1.2 -183.3 0.65 -183.8 -2.1 -182.0 -2.5 -181.7 -10.1 -176.6 Q-22.25 -168.6 -33.5 -159.05 -58.35 -137.95 -81.85 -115.5 L-79.8 -114.35 Q-73.25 -110.45 -70.7 -103.55 -67.3 -85.25 -84.6 -78.95 -91.1 -76.55 -97.25 -79.9 L-98.35 -80.65 Q-103.7 -84.6 -106.7 -90.25 L-115.25 -80.4 -115.25 -86.6 -109.55 -93.15 Q-110.45 -109.6 -95.95 -117.0 -90.9 -119.5 -85.15 -118.9 -48.75 -156.35 -5.65 -185.75 L1.55 -190.3 Q21.0 -166.35 38.3 -140.9 L59.0 -110.5 Q67.9 -107.0 70.9 -98.0 L73.0 -90.6 Q73.75 -87.45 75.6 -84.6 88.55 -86.75 94.8 -74.35 97.35 -69.25 97.1 -63.3 96.8 -55.9 93.25 -49.5 101.75 -32.15 98.2 -13.65 93.6 10.15 91.65 34.35 L99.9 44.4 88.0 101.3 86.1 101.7 79.0 102.85 76.8 102.8 75.6 110.15 Q74.5 115.7 71.8 120.95 L72.3 121.1 Q71.9 122.65 70.7 123.55 64.8 127.95 59.65 133.2 77.8 139.7 86.65 157.75 91.45 167.6 91.75 178.5 91.9 183.05 91.0 187.6 L95.65 195.1 Q98.1 199.15 99.35 203.8 L95.8 207.6 Q108.7 232.85 110.75 261.1 L111.7 260.8 110.95 262.7 101.7 264.2 107.15 261.6 100.65 234.85 93.05 210.15 92.95 209.85 92.6 210.3 88.2 213.55 Q72.7 223.1 55.05 228.05 L50.65 229.4 46.0 264.2 41.95 264.2 41.55 256.65 Q40.85 255.95 40.1 255.4 21.95 242.1 -0.75 238.7 -24.95 232.5 -50.1 232.0 -75.3 230.9 -99.85 235.7 -107.8 237.4 -115.25 240.6 L-115.25 229.85 -109.05 227.85 Q-92.75 211.2 -72.9 197.95 -94.45 199.3 -115.25 205.35 L-115.25 201.45 Q-95.65 196.35 -75.45 195.9 -71.95 195.8 -68.45 195.85 L-55.5 187.2 Q-37.3 173.45 -16.1 165.75 L-12.25 164.45 Q-50.4 150.25 -84.95 128.35 -94.75 122.15 -103.45 114.5 L-106.15 120.15 -106.6 121.05 Q-112.2 133.5 -115.25 146.75 L-115.25 132.65 -107.7 111.5 -115.25 105.35 -115.25 101.55 Q-99.5 113.75 -78.95 113.3 -70.85 113.15 -62.65 113.55 -38.2 114.8 -14.25 117.35 10.25 120.2 34.9 124.1 L56.35 127.4 55.05 128.4 10.6 123.2 -23.4 119.35 -71.8 115.95 -97.05 115.3 -73.55 130.15 Q-53.8 142.15 -33.5 153.05 -18.3 161.3 -1.6 160.1 1.65 159.85 4.85 158.85 29.45 151.25 50.65 136.9 55.1 133.9 57.75 129.05 L56.7 128.5 58.4 127.35 59.15 127.75 Q62.55 125.7 65.4 122.95 70.55 118.0 72.35 110.8 74.05 104.25 73.3 97.65 73.1 96.1 72.2 94.65 L70.15 91.75 14.1 81.5 -44.3 77.1 -92.25 75.25 -99.45 75.05 -99.7 84.0 -102.95 86.9 -115.25 83.4 -115.25 53.05 -112.65 7.45 -113.45 7.3 -115.25 6.9 -115.25 4.45 Q-113.2 4.85 -112.65 5.25 L-102.9 0.85 -102.3 0.55 -102.9 0.55 -115.25 -0.4 -115.25 -2.0 -114.35 -1.95 -107.6 -1.45 -101.95 -1.1 -91.55 -50.95 -88.75 -50.35 -86.1 -49.85 Q-61.35 -45.2 -37.4 -37.1 -13.1 -28.9 9.9 -17.4 L10.05 63.15 26.3 65.4 44.5 67.9 61.7 -14.1 63.65 -14.25 Q78.25 -16.45 92.9 -17.0 L94.3 -15.85 Q79.7 -13.1 64.65 -10.95 L63.9 -6.75 Q76.25 -6.9 88.45 -8.6 L80.3 49.8 Q82.7 51.9 83.0 54.9 L83.4 61.45 Q83.7 78.25 75.5 92.05 L76.6 94.15 Q78.15 97.55 77.05 101.1 L79.65 100.3 84.6 99.25 95.8 46.05 87.75 36.15 Q90.15 11.45 94.65 -12.85 L95.45 -17.4 95.6 -18.55 95.85 -19.95 Q97.45 -29.25 89.25 -35.25 71.55 -52.75 47.35 -58.9 L25.9 -63.7 8.5 -67.0 7.25 -67.2 1.6 -68.0 Q-9.7 -69.65 -21.35 -70.1 L-26.05 -70.3 Q-41.4 -71.45 -56.75 -70.75 L-56.8 -70.75 -58.85 -70.65 -62.95 -70.4 -82.95 -68.3 -84.1 -68.1 Q-99.85 -65.75 -115.25 -61.7 L-115.25 -65.6 Q-93.35 -70.8 -71.0 -72.7 -46.75 -75.3 -22.25 -73.75 L-8.6 -72.7 8.25 -70.6 25.25 -67.8 41.9 -64.3 Q64.95 -58.75 83.95 -44.8 L84.5 -44.4 Q88.05 -41.5 90.5 -38.75 L93.25 -35.45 Q86.9 -62.0 71.0 -84.6 L69.95 -82.15 Q68.85 -79.9 67.2 -78.35 57.05 -65.6 42.4 -72.45 37.55 -74.75 35.3 -79.65 28.5 -94.35 41.75 -104.65 44.45 -106.7 47.5 -108.4 M49.0 -105.7 L45.3 -102.4 40.7 -95.25 Q41.1 -97.8 42.2 -99.75 L44.15 -103.05 44.9 -104.25 44.5 -103.95 40.15 -99.85 Q32.15 -92.05 37.35 -82.05 44.55 -68.15 58.05 -74.15 L56.95 -74.0 Q45.25 -74.8 42.0 -86.05 L41.15 -89.25 42.35 -89.05 45.95 -82.85 Q48.75 -78.25 53.85 -77.8 L60.5 -77.5 Q67.7 -79.95 68.9 -87.55 70.6 -98.4 61.35 -104.55 55.45 -108.45 49.0 -105.7 M10.2 264.2 L-115.25 264.2 -115.25 262.1 Q-90.9 259.1 -66.35 257.85 -41.6 256.6 -16.8 259.35 -3.1 261.0 10.2 264.2 M78.6 -80.75 L77.6 -80.75 86.1 -64.05 87.5 -61.25 90.25 -55.7 91.3 -53.3 93.35 -60.35 Q94.1 -67.7 89.95 -74.05 85.95 -80.2 78.6 -80.75 M7.0 -16.7 Q-15.2 -26.85 -38.05 -35.0 -60.7 -43.1 -84.55 -47.4 L-89.1 -48.15 -87.8 -46.7 -86.4 -44.9 -85.2 -43.15 -83.95 -40.95 -83.65 -40.2 -83.9 -39.85 -85.9 -42.4 -86.55 -43.15 -87.2 -44.05 -88.3 -45.95 -89.2 -48.05 Q-95.05 -30.55 -97.9 -11.6 L-99.85 1.95 -109.3 6.7 Q-112.55 40.3 -113.85 74.25 L-114.2 81.1 -102.55 84.15 Q-101.55 56.35 -97.8 29.05 -94.05 1.85 -87.2 -24.55 L-83.15 -39.25 Q-53.15 -31.4 -23.7 -21.35 -10.75 -16.9 1.8 -11.5 L1.95 -10.65 3.0 67.8 8.05 64.15 Q8.45 27.85 7.35 -8.4 L7.0 -14.4 3.05 -12.0 2.9 -13.05 7.0 -16.7 M56.9 25.0 L52.95 42.95 Q57.3 43.55 61.45 44.75 69.1 47.1 77.05 48.55 81.9 21.5 85.15 -5.85 L78.0 -5.2 63.45 -4.7 62.45 0.0 61.4 4.35 60.45 8.75 58.95 15.4 58.0 20.0 56.9 25.0 M38.2 73.9 L44.05 69.65 10.3 65.5 2.8 69.55 Q17.5 70.95 32.1 73.25 L38.2 73.9 M1.35 69.75 L1.35 69.65 0.6 38.35 -37.75 35.45 Q-61.7 34.55 -85.75 34.85 L-95.95 35.15 -99.45 71.15 -81.95 71.35 8.2 78.5 Q41.3 82.0 73.05 90.75 75.5 85.9 77.25 80.65 L78.4 76.15 Q80.3 65.2 80.5 54.0 76.3 51.4 71.45 50.35 L52.2 46.5 47.65 70.05 43.0 73.25 Q40.55 74.95 38.1 74.95 20.45 75.05 3.0 71.9 L2.8 71.8 1.55 71.6 1.35 69.75 M60.35 137.25 L56.05 136.9 55.95 136.35 Q47.1 143.15 37.3 148.9 L38.0 149.2 38.0 149.8 38.05 150.05 38.4 149.8 Q43.4 166.7 45.4 184.2 L45.8 188.95 48.25 189.15 49.05 189.4 51.0 190.1 53.75 191.4 46.25 192.1 47.65 223.65 49.05 225.55 Q70.6 220.4 88.9 208.4 L94.95 203.25 Q92.3 196.2 87.65 190.8 L81.6 194.3 Q72.2 199.15 61.4 198.3 L63.2 197.85 Q72.7 195.35 81.65 191.35 90.1 187.15 88.0 177.35 85.25 164.5 77.85 153.25 71.1 143.0 60.35 137.25 M-47.05 228.65 Q-41.0 230.4 -37.25 225.5 -34.25 221.6 -30.45 218.3 -11.5 201.85 9.85 188.85 24.45 179.95 40.1 173.05 L35.65 155.6 35.15 154.15 Q34.5 152.5 34.2 150.7 16.9 161.9 -3.35 165.05 -12.6 166.55 -20.9 170.95 -37.25 179.55 -53.15 189.35 -73.1 202.05 -91.3 217.25 -100.85 225.1 -108.25 234.75 -85.0 229.3 -61.15 228.75 L-47.05 228.65 M40.6 175.9 L3.5 197.2 -3.95 202.4 Q5.05 203.9 13.75 206.35 20.35 208.05 26.35 211.05 35.6 215.45 44.4 220.8 43.75 220.05 43.8 218.95 L43.75 214.55 Q43.4 210.75 43.5 206.95 43.8 196.95 42.45 186.9 41.7 181.3 40.6 175.9 M-31.8 229.45 Q-7.1 231.35 16.1 239.85 29.65 244.9 42.65 251.45 44.75 245.3 45.3 238.7 45.85 232.1 45.1 225.7 27.45 214.1 7.2 208.1 0.0 205.95 -7.45 205.05 -21.75 215.8 -34.85 227.85 L-36.2 229.0 -31.8 229.45 M0.15 -10.0 L-5.75 -12.0 Q-28.55 -20.2 -51.5 -27.6 -66.35 -32.4 -81.4 -36.4 L-83.45 -28.95 Q-91.35 1.2 -95.4 32.1 L-88.2 31.85 Q-47.85 30.45 -7.85 34.1 L0.5 34.85 0.15 -10.0 M-78.2 -98.0 Q-79.2 -98.35 -78.75 -100.0 -78.4 -101.15 -78.55 -102.2 -79.25 -107.0 -82.0 -111.05 L-83.6 -112.4 -87.4 -114.25 -87.9 -114.35 -88.4 -114.8 Q-89.85 -114.7 -91.35 -115.3 L-96.2 -114.1 -100.45 -111.35 -102.15 -109.1 -102.25 -109.0 Q-106.15 -102.45 -105.4 -94.85 L-105.15 -93.35 Q-104.0 -90.2 -101.2 -88.6 -88.05 -81.2 -79.4 -93.6 L-79.45 -93.4 Q-83.8 -81.15 -97.2 -83.5 L-97.35 -83.6 -97.2 -83.45 Q-88.35 -76.9 -79.9 -83.2 -72.0 -89.1 -72.3 -98.45 -72.15 -105.8 -78.25 -110.25 L-81.15 -112.4 Q-77.6 -108.1 -77.4 -102.45 L-77.7 -98.0 -78.2 -98.0" fill="#000000" fill-rule="evenodd" stroke="none"/>
    <path d="M15.65 -163.65 L23.6 -150.85 Q36.2 -129.95 47.5 -108.4 44.45 -106.7 41.75 -104.65 28.5 -94.35 35.3 -79.65 37.55 -74.75 42.4 -72.45 57.05 -65.6 67.2 -78.35 L90.5 -38.75 Q88.05 -41.5 84.5 -44.4 L83.45 -45.35 83.95 -44.8 Q64.95 -58.75 41.9 -64.3 L25.25 -67.8 8.25 -70.6 -6.7 -72.6 -8.6 -72.7 -22.25 -73.75 Q-46.75 -75.3 -71.0 -72.7 -93.35 -70.8 -115.25 -65.6 L-115.25 -69.15 Q-104.8 -72.5 -94.0 -74.1 L-90.7 -74.55 -97.25 -79.9 Q-91.1 -76.55 -84.6 -78.95 -67.3 -85.25 -70.7 -103.55 -64.2 -92.35 -63.35 -79.5 L-63.25 -77.25 Q-22.25 -78.45 18.4 -72.45 L24.6 -71.4 Q17.65 -108.4 8.75 -144.95 4.5 -162.45 1.15 -180.0 0.9 -181.35 0.9 -182.75 L1.2 -181.75 1.2 -183.3 15.65 -163.65 M49.0 -105.7 L49.25 -105.15 Q52.8 -106.55 55.2 -103.4 60.3 -96.6 61.85 -88.15 62.9 -82.7 60.5 -77.5 L53.85 -77.8 54.35 -78.1 Q42.7 -86.9 45.3 -102.4 L49.0 -105.7 M44.5 -103.95 L44.15 -103.05 42.2 -99.75 Q41.1 -97.8 40.7 -95.25 40.65 -92.55 40.75 -90.0 40.85 -87.8 42.0 -86.05 45.25 -74.8 56.95 -74.0 L58.05 -74.15 Q44.55 -68.15 37.35 -82.05 32.15 -92.05 40.15 -99.85 L44.5 -103.95 M86.1 -64.05 L77.6 -80.75 78.6 -80.75 Q86.95 -75.4 86.75 -65.6 L86.75 -62.8 86.1 -64.05 M93.35 -60.35 L91.3 -53.3 90.25 -55.7 90.7 -55.1 93.35 -60.35 M25.9 -63.7 L47.35 -58.9 Q71.55 -52.75 89.25 -35.25 L88.9 -18.45 95.6 -18.55 95.45 -17.4 92.9 -17.0 Q78.25 -16.45 63.65 -14.25 L61.7 -14.1 44.5 67.9 26.3 65.4 28.6 32.35 Q30.15 8.7 30.5 -15.0 30.9 -39.6 25.9 -63.7 M-62.95 -70.4 Q-64.7 -67.05 -67.8 -65.05 -69.1 -64.2 -70.5 -63.45 -77.5 -63.9 -82.95 -68.3 L-62.95 -70.4 M40.6 175.9 Q41.7 181.3 42.45 186.9 43.8 196.95 43.5 206.95 43.4 210.75 43.75 214.55 L43.8 218.95 Q43.75 220.05 44.4 220.8 35.6 215.45 26.35 211.05 20.35 208.05 13.75 206.35 5.05 203.9 -3.95 202.4 L3.5 197.2 40.6 175.9 M-78.2 -98.0 L-77.7 -98.0 -77.4 -102.45 -72.3 -98.45 Q-72.0 -89.1 -79.9 -83.2 -88.35 -76.9 -97.2 -83.45 L-97.2 -83.5 Q-83.8 -81.15 -79.45 -93.4 L-79.4 -93.6 -78.2 -98.0 M-106.15 120.15 L-103.45 114.5 Q-94.75 122.15 -84.95 128.35 -50.4 150.25 -12.25 164.45 L-16.1 165.75 Q-37.3 173.45 -55.5 187.2 -73.4 169.95 -87.2 149.4 -96.9 135.0 -106.15 120.15" fill="#7272b8" fill-rule="evenodd" stroke="none"/>
    <path d="M-2.1 -182.0 L-2.25 -181.75 Q-2.5 -181.4 -2.5 -181.7 L-2.1 -182.0 M45.3 -102.4 Q42.7 -86.9 54.35 -78.1 L53.85 -77.8 Q48.75 -78.25 45.95 -82.85 L42.35 -89.05 41.15 -89.25 42.0 -86.05 Q40.85 -87.8 40.75 -90.0 40.65 -92.55 40.7 -95.25 L45.3 -102.4 M44.15 -103.05 L44.5 -103.95 44.9 -104.25 44.15 -103.05 M-115.25 9.4 L-115.25 6.9 -113.45 7.3 -113.7 9.15 -115.25 9.4 M-115.25 4.45 L-115.25 0.65 -114.75 0.55 -115.25 -0.25 -115.25 -0.4 -102.9 0.55 -102.9 0.85 -112.65 5.25 Q-113.2 4.85 -115.25 4.45 M-115.25 -3.25 L-115.25 -56.15 -112.3 -58.2 Q-115.55 -33.35 -112.65 -8.65 -112.05 -3.6 -107.6 -1.45 L-114.35 -1.95 -115.25 -3.25 M-21.35 -70.1 Q-23.8 -56.65 -15.2 -47.75 -6.6 -38.75 5.15 -39.5 7.3 -39.75 8.05 -42.05 10.3 -49.25 11.25 -56.5 20.3 -45.5 19.15 -30.5 L19.5 -30.15 Q18.0 14.35 17.5 58.75 L16.65 58.1 15.75 57.3 15.05 56.3 13.85 54.15 13.35 54.15 Q9.7 22.05 11.85 -10.5 12.15 -15.25 11.6 -20.0 -22.1 -40.45 -60.6 -49.8 -63.4 -50.4 -65.7 -51.9 L-66.6 -52.7 Q-66.55 -58.95 -64.1 -64.5 -62.4 -68.35 -58.85 -70.65 L-56.8 -70.75 -56.8 -70.65 -56.75 -70.75 Q-41.4 -71.45 -26.05 -70.3 L-21.35 -70.1 M2.75 -31.55 L1.55 -31.25 12.1 -23.25 Q15.3 -9.65 13.85 4.4 L13.85 47.45 14.7 39.0 15.15 38.55 Q20.85 -2.75 13.05 -43.5 L12.9 -42.35 Q11.25 -33.75 2.75 -31.55 M15.55 56.95 L16.15 56.35 15.55 56.5 15.55 56.95 M-5.75 -176.95 Q-9.3 -154.6 -13.7 -132.05 -18.3 -108.25 -20.4 -84.35 L-20.9 -78.35 -56.35 -80.05 -57.1 -80.75 Q-51.5 -101.3 -42.2 -120.75 -34.7 -136.45 -26.2 -151.35 -21.0 -160.5 -14.4 -168.8 -12.35 -171.4 -9.9 -173.65 L-5.75 -176.95 M-105.15 -93.35 L-105.4 -94.85 Q-106.15 -102.45 -102.25 -109.0 -104.45 -104.95 -105.15 -100.2 -105.75 -95.9 -102.6 -92.85 -96.3 -104.4 -87.1 -113.1 L-87.35 -113.85 -96.2 -114.1 -91.35 -115.3 Q-89.85 -114.7 -88.4 -114.8 L-87.9 -114.35 -87.4 -114.25 Q-84.1 -110.45 -83.4 -105.7 L-82.95 -100.4 Q-82.6 -92.4 -90.0 -91.7 L-90.9 -91.05 Q-99.0 -86.4 -105.15 -93.35 M-42.8 -99.45 Q-46.05 -90.7 -48.85 -81.7 L-28.75 -81.0 Q-26.9 -97.95 -24.1 -114.55 -19.6 -140.9 -11.6 -166.4 L-23.95 -143.9 Q-34.35 -122.1 -42.8 -99.45 M-52.45 -69.8 Q-53.25 -70.0 -53.6 -69.15 -57.75 -60.35 -56.75 -56.75 L-25.65 -45.45 Q-29.9 -57.8 -29.45 -68.9 L-52.45 -69.8" fill="#c7c8e2" fill-rule="evenodd" stroke="none"/>
    <path d="M-115.25 0.65 L-115.25 -0.25 -114.75 0.55 -115.25 0.65 M-115.25 -2.0 L-115.25 -3.25 -114.35 -1.95 -115.25 -2.0 M2.75 -31.55 Q11.25 -33.75 12.9 -42.35 L13.05 -43.5 Q20.85 -2.75 15.15 38.55 L14.7 39.0 13.85 47.45 13.85 4.4 Q15.3 -9.65 12.1 -23.25 L1.55 -31.25 2.75 -31.55 M58.95 15.4 L60.45 8.75 Q68.0 7.85 65.2 14.25 64.35 16.2 62.25 16.4 60.4 16.45 58.95 15.4 M-102.25 -109.0 L-102.15 -109.1 -100.45 -111.35 -96.2 -114.1 -87.35 -113.85 -87.1 -113.1 Q-96.3 -104.4 -102.6 -92.85 -105.75 -95.9 -105.15 -100.2 -104.45 -104.95 -102.25 -109.0 M-42.8 -99.45 Q-34.35 -122.1 -23.95 -143.9 L-11.6 -166.4 Q-19.6 -140.9 -24.1 -114.55 -26.9 -97.95 -28.75 -81.0 L-48.85 -81.7 Q-46.05 -90.7 -42.8 -99.45 M-52.45 -69.8 L-29.45 -68.9 Q-29.9 -57.8 -25.65 -45.45 L-56.75 -56.75 Q-57.75 -60.35 -53.6 -69.15 -53.25 -70.0 -52.45 -69.8 M-42.05 -6.1 Q-39.8 -6.1 -38.2 -4.45 -36.6 -2.8 -36.6 -0.5 -36.6 1.85 -38.2 3.5 -39.8 5.15 -42.05 5.15 -44.35 5.15 -45.9 3.5 -47.5 1.85 -47.5 -0.5 -47.5 -2.8 -45.9 -4.45 -44.35 -6.1 -42.05 -6.1" fill="#ffffff" fill-rule="evenodd" stroke="none"/>
    <path d="M95.45 -17.4 L94.65 -12.85 Q90.15 11.45 87.75 36.15 87.15 37.4 87.8 38.8 L91.05 45.65 Q88.6 64.25 83.75 82.3 L82.45 87.85 Q81.25 94.2 79.65 100.3 L77.05 101.1 Q78.15 97.55 76.6 94.15 L75.5 92.05 Q83.7 78.25 83.4 61.45 L83.0 54.9 Q82.7 51.9 80.3 49.8 L88.45 -8.6 Q76.25 -6.9 63.9 -6.75 L64.65 -10.95 Q79.7 -13.1 94.3 -15.85 L92.9 -17.0 95.45 -17.4 M7.0 -16.7 L2.9 -13.05 3.05 -12.0 7.0 -14.4 7.35 -8.4 Q8.45 27.85 8.05 64.15 L3.0 67.8 1.95 -10.65 1.8 -11.5 Q-10.75 -16.9 -23.7 -21.35 -53.15 -31.4 -83.15 -39.25 L-87.2 -24.55 Q-94.05 1.85 -97.8 29.05 -101.55 56.35 -102.55 84.15 L-114.2 81.1 -113.85 74.25 Q-112.55 40.3 -109.3 6.7 L-99.85 1.95 -97.9 -11.6 Q-95.05 -30.55 -89.2 -48.05 L-88.3 -45.95 -87.2 -44.05 -86.55 -43.15 -85.9 -42.4 -83.9 -39.85 -83.65 -40.2 -83.95 -40.95 -85.2 -43.15 -86.4 -44.9 -87.8 -46.7 -89.1 -48.15 -84.55 -47.4 Q-60.7 -43.1 -38.05 -35.0 -15.2 -26.85 7.0 -16.7 M38.2 73.9 L32.1 73.25 Q17.5 70.95 2.8 69.55 L10.3 65.5 44.05 69.65 38.2 73.9" fill="#5555aa" fill-rule="evenodd" stroke="none"/>
    <path d="M62.45 0.0 L63.45 -4.7 78.0 -5.2 85.15 -5.85 Q81.9 21.5 77.05 48.55 69.1 47.1 61.45 44.75 57.3 43.55 52.95 42.95 L56.9 25.0 Q61.75 27.15 66.45 25.05 73.15 22.2 73.7 14.8 74.7 2.15 62.45 0.0 M0.15 -10.0 L0.5 34.85 -7.85 34.1 Q-47.85 30.45 -88.2 31.85 L-95.4 32.1 Q-91.35 1.2 -83.45 -28.95 L-81.4 -36.4 Q-66.35 -32.4 -51.5 -27.6 -28.55 -20.2 -5.75 -12.0 L0.15 -10.0 M-41.85 -15.8 Q-47.9 -15.85 -52.2 -11.35 -56.5 -6.85 -56.45 -0.6 -56.5 5.6 -52.2 10.05 -47.9 14.55 -41.85 14.6 -35.75 14.55 -31.35 10.05 -27.1 5.6 -27.1 -0.6 -27.1 -6.85 -31.35 -11.35 -35.75 -15.85 -41.85 -15.8" fill="#000033" fill-rule="evenodd" stroke="none"/>
    <path d="M58.0 20.0 L58.95 15.4 Q60.4 16.45 62.25 16.4 64.35 16.2 65.2 14.25 68.0 7.85 60.45 8.75 L61.4 4.35 Q65.05 4.05 67.35 6.55 70.05 9.5 69.3 13.55 67.55 23.25 58.0 20.0 M-42.05 -6.1 Q-44.35 -6.1 -45.9 -4.45 -47.5 -2.8 -47.5 -0.5 -47.5 1.85 -45.9 3.5 -44.35 5.15 -42.05 5.15 -39.8 5.15 -38.2 3.5 -36.6 1.85 -36.6 -0.5 -36.6 -2.8 -38.2 -4.45 -39.8 -6.1 -42.05 -6.1 M-44.25 -10.75 Q-38.8 -11.65 -34.85 -7.8 -31.05 -4.0 -32.2 1.35 -34.7 13.3 -46.35 9.3 -49.35 8.35 -50.55 5.6 -55.65 -6.4 -44.25 -10.75" fill="#7070fe" fill-rule="evenodd" stroke="none"/>
    <path d="M62.45 0.0 Q74.7 2.15 73.7 14.8 73.15 22.2 66.45 25.05 61.75 27.15 56.9 25.0 L58.0 20.0 Q67.55 23.25 69.3 13.55 70.05 9.5 67.35 6.55 65.05 4.05 61.4 4.35 L62.45 0.0 M-41.85 -15.8 Q-35.75 -15.85 -31.35 -11.35 -27.1 -6.85 -27.1 -0.6 -27.1 5.6 -31.35 10.05 -35.75 14.55 -41.85 14.6 -47.9 14.55 -52.2 10.05 -56.5 5.6 -56.45 -0.6 -56.5 -6.85 -52.2 -11.35 -47.9 -15.85 -41.85 -15.8 M-44.25 -10.75 Q-55.65 -6.4 -50.55 5.6 -49.35 8.35 -46.35 9.3 -34.7 13.3 -32.2 1.35 -31.05 -4.0 -34.85 -7.8 -38.8 -11.65 -44.25 -10.75" fill="#01025c" fill-rule="evenodd" stroke="none"/>
    <path d="M-115.25 256.75 L-115.25 240.6 Q-107.8 237.4 -99.85 235.7 -75.3 230.9 -50.1 232.0 -24.95 232.5 -0.75 238.7 L-5.6 255.15 -12.0 253.9 Q-34.5 249.7 -57.45 251.6 L-66.45 251.85 Q-91.25 251.55 -115.25 256.75 M-115.25 229.85 L-115.25 205.35 Q-94.45 199.3 -72.9 197.95 -92.75 211.2 -109.05 227.85 L-115.25 229.85 M1.35 69.65 L1.2 69.55 1.35 69.75 1.55 71.6 2.8 71.8 2.95 71.9 1.0 72.75 Q-23.35 73.05 -47.75 70.4 -68.4 68.55 -88.9 65.75 L-89.35 64.4 -91.05 64.45 Q-90.2 54.8 -87.1 45.55 -85.8 41.7 -85.75 37.6 L-85.75 34.85 Q-61.7 34.55 -37.75 35.45 L0.6 38.35 1.35 69.65 M14.1 81.5 Q16.5 83.35 18.2 85.8 18.85 86.75 18.9 87.8 19.65 101.0 14.2 113.95 -21.7 110.85 -57.8 109.8 -78.8 109.15 -96.65 99.55 -94.8 98.9 -93.25 97.6 -92.25 96.75 -91.9 95.45 -89.45 85.65 -92.25 75.25 L-44.3 77.1 14.1 81.5 M-71.8 115.95 L-23.4 119.35 10.6 123.2 Q1.4 143.85 -11.6 143.9 -27.6 143.9 -52.35 129.1 -63.0 122.7 -71.8 115.95 M-53.15 189.35 Q-42.65 198.9 -30.8 206.55 L-27.35 208.8 -47.75 227.85 -47.05 228.65 -61.15 228.75 Q-85.0 229.3 -108.25 234.75 -100.85 225.1 -91.3 217.25 -73.1 202.05 -53.15 189.35 M-34.85 227.85 L-31.8 229.45 -36.2 229.0 -34.85 227.85 M1.95 224.75 L1.15 230.05 Q-10.4 226.9 -22.2 225.95 L-25.25 225.55 -14.35 216.45 1.95 224.75" fill="#336699" fill-rule="evenodd" stroke="none"/>
    <path d="M41.95 264.2 L10.2 264.2 Q-3.1 261.0 -16.8 259.35 -41.6 256.6 -66.35 257.85 -90.9 259.1 -115.25 262.1 L-115.25 256.75 Q-91.25 251.55 -66.45 251.85 L-57.45 251.6 Q-34.5 249.7 -12.0 253.9 L-5.6 255.15 -0.75 238.7 Q21.95 242.1 40.1 255.4 40.85 255.95 41.55 256.65 L41.95 264.2 M-115.25 101.55 L-115.25 83.4 -102.95 86.9 -99.7 84.0 -99.45 75.05 -92.25 75.25 Q-89.45 85.65 -91.9 95.45 -92.25 96.75 -93.25 97.6 -94.8 98.9 -96.65 99.55 -78.8 109.15 -57.8 109.8 -21.7 110.85 14.2 113.95 19.65 101.0 18.9 87.8 18.85 86.75 18.2 85.8 16.5 83.35 14.1 81.5 L70.15 91.75 72.2 94.65 Q73.1 96.1 73.3 97.65 74.05 104.25 72.35 110.8 70.55 118.0 65.4 122.95 62.55 125.7 59.15 127.75 L58.4 127.35 56.7 128.5 57.75 129.05 Q55.1 133.9 50.65 136.9 29.45 151.25 4.85 158.85 1.65 159.85 -1.6 160.1 -18.3 161.3 -33.5 153.05 -53.8 142.15 -73.55 130.15 L-97.05 115.3 -71.8 115.95 Q-63.0 122.7 -52.35 129.1 -27.6 143.9 -11.6 143.9 1.4 143.85 10.6 123.2 L55.05 128.4 56.35 127.4 34.9 124.1 Q10.25 120.2 -14.25 117.35 -38.2 114.8 -62.65 113.55 -70.85 113.15 -78.95 113.3 -99.5 113.75 -115.25 101.55 M1.35 69.65 L1.35 69.75 1.2 69.55 1.35 69.65 M3.0 71.9 Q20.45 75.05 38.1 74.95 40.55 74.95 43.0 73.25 L47.65 70.05 52.2 46.5 71.45 50.35 Q76.3 51.4 80.5 54.0 80.3 65.2 78.4 76.15 L77.25 80.65 Q75.5 85.9 73.05 90.75 41.3 82.0 8.2 78.5 L-81.95 71.35 -99.45 71.15 -95.95 35.15 -85.75 34.85 -85.75 37.6 Q-85.8 41.7 -87.1 45.55 -90.2 54.8 -91.05 64.45 L-89.35 64.4 -88.9 65.75 Q-68.4 68.55 -47.75 70.4 -23.35 73.05 1.0 72.75 L2.95 71.9 3.0 71.9 M-53.15 189.35 Q-37.25 179.55 -20.9 170.95 -12.6 166.55 -3.35 165.05 16.9 161.9 34.2 150.7 34.5 152.5 35.15 154.15 L35.65 155.6 40.1 173.05 Q24.45 179.95 9.85 188.85 -11.5 201.85 -30.45 218.3 -34.25 221.6 -37.25 225.5 -41.0 230.4 -47.05 228.65 L-47.75 227.85 -27.35 208.8 -30.8 206.55 Q-42.65 198.9 -53.15 189.35 M-34.85 227.85 Q-21.75 215.8 -7.45 205.05 0.0 205.95 7.2 208.1 27.45 214.1 45.1 225.7 45.85 232.1 45.3 238.7 44.75 245.3 42.65 251.45 29.65 244.9 16.1 239.85 -7.1 231.35 -31.8 229.45 L-34.85 227.85 M1.95 224.75 L-14.35 216.45 -25.25 225.55 -22.2 225.95 Q-10.4 226.9 1.15 230.05 L1.95 224.75" fill="#24486c" fill-rule="evenodd" stroke="none"/>
    <path d="M-115.25 132.65 L-115.25 105.35 -107.7 111.5 -115.25 132.65 M38.0 149.8 L38.0 149.2 37.3 148.9 Q47.1 143.15 55.95 136.35 L56.05 136.9 60.35 137.25 59.05 139.6 Q63.1 145.45 67.45 151.05 81.65 169.1 81.65 191.35 72.7 195.35 63.2 197.85 L61.4 198.3 Q72.2 199.15 81.6 194.3 L88.9 208.4 Q70.6 220.4 49.05 225.55 L47.65 223.65 46.25 192.1 53.75 191.4 51.0 190.1 49.05 189.4 48.25 189.15 45.8 188.95 45.4 184.2 Q43.4 166.7 38.4 149.8 L38.0 149.8" fill="#5e5e5e" fill-rule="evenodd" stroke="none"/>
    <path d="M88.9 208.4 L81.6 194.3 87.65 190.8 Q92.3 196.2 94.95 203.25 L88.9 208.4 M81.65 191.35 Q81.65 169.1 67.45 151.05 63.1 145.45 59.05 139.6 L60.35 137.25 Q71.1 143.0 77.85 153.25 85.25 164.5 88.0 177.35 90.1 187.15 81.65 191.35" fill="#7b7b7b" fill-rule="evenodd" stroke="none"/>
    <path d="M92.6 210.3 L93.05 210.15 100.65 234.85 93.0 222.95 Q89.55 217.35 88.2 213.55 L92.6 210.3" fill="#3c3c3c" fill-rule="evenodd" stroke="none"/>
    <path d="M101.7 264.2 L46.0 264.2 50.65 229.4 55.05 228.05 Q72.7 223.1 88.2 213.55 89.55 217.35 93.0 222.95 L100.65 234.85 107.15 261.6 101.7 264.2" fill="#1e1e1e" fill-rule="evenodd" stroke="none"/>
  </g>
</svg>
