<?xml version="1.0" encoding="UTF-8" standalone="no"?>
<svg xmlns:xlink="http://www.w3.org/1999/xlink" height="471.95px" width="237.55px" xmlns="http://www.w3.org/2000/svg">
  <g transform="matrix(1.0, 0.0, 0.0, 1.0, 120.25, 215.25)">
    <path d="M91.05 -187.25 Q95.2 -184.65 94.4 -179.95 93.05 -172.35 88.6 -165.65 90.05 -160.2 87.1 -155.45 84.25 -150.9 79.15 -150.3 73.2 -151.2 67.55 -153.95 65.05 -155.2 62.45 -154.8 L52.15 -154.45 Q46.95 -154.15 45.2 -158.95 43.35 -164.25 43.25 -169.8 43.15 -174.35 41.6 -178.45 39.6 -183.6 42.85 -187.75 45.8 -191.4 50.25 -193.45 53.6 -194.9 56.15 -197.35 61.5 -202.65 68.7 -202.3 77.55 -200.15 80.75 -191.4 86.3 -190.3 91.05 -187.25 M87.05 -180.1 L85.75 -182.75 75.0 -185.55 71.65 -194.4 Q71.35 -195.25 70.45 -195.5 64.15 -194.9 60.95 -187.2 55.1 -186.75 49.45 -184.95 L49.0 -184.7 Q47.45 -178.85 53.5 -174.65 L49.45 -163.0 Q49.1 -161.9 50.4 -161.6 58.2 -159.8 65.55 -165.75 L77.7 -157.15 Q79.25 -157.2 79.75 -158.65 81.8 -164.9 78.85 -172.05 L80.15 -172.65 Q85.15 -175.3 87.05 -180.1 M72.55 -105.5 L74.8 -102.25 Q86.05 -102.9 89.45 -93.6 91.1 -89.05 88.4 -84.9 86.3 -81.6 85.7 -77.7 88.9 -65.2 76.65 -61.65 74.75 -61.2 72.9 -62.1 66.15 -65.1 59.35 -64.0 L53.55 -62.45 55.25 -70.05 62.85 -74.9 Q69.1 -68.8 76.45 -67.95 L77.6 -69.0 Q78.9 -70.15 78.35 -72.0 L75.2 -82.8 Q82.95 -86.25 81.85 -93.0 L81.3 -93.6 Q75.65 -95.4 69.8 -95.75 L67.9 -99.25 72.55 -105.5 M55.3 171.55 Q60.65 168.05 65.55 171.9 L66.9 173.1 Q74.6 170.7 76.0 177.7 76.75 181.3 76.5 185.15 80.25 193.05 72.5 195.5 L65.5 195.8 63.7 190.7 64.15 190.2 71.8 192.4 73.05 191.85 73.25 190.65 Q72.9 186.55 69.9 183.9 72.15 181.4 72.95 178.3 L72.05 177.35 Q68.95 175.15 65.05 177.45 L60.4 173.15 60.15 173.2 Q57.95 174.25 58.0 177.05 L55.3 171.55 M-1.05 -60.25 Q-0.45 -64.95 0.6 -69.25 0.85 -70.2 2.05 -70.65 9.35 -73.45 16.6 -74.2 17.95 -74.45 19.35 -73.65 23.5 -71.15 23.7 -66.3 32.0 -63.0 29.0 -55.9 28.1 -53.7 26.1 -52.2 L19.65 -54.85 23.55 -56.35 Q24.4 -56.65 24.65 -57.4 26.2 -62.6 19.4 -63.8 L18.1 -70.45 Q14.2 -71.25 11.4 -67.0 L4.65 -67.7 Q4.05 -67.6 3.5 -67.0 L3.45 -65.6 Q3.6 -62.85 5.1 -60.75 L4.0 -59.3 -1.05 -60.25 M49.95 -61.45 Q41.5 -62.85 41.1 -72.9 40.75 -82.3 36.6 -90.75 36.05 -91.85 36.95 -92.9 41.95 -98.85 48.3 -103.55 L54.85 -108.45 Q62.55 -114.55 70.4 -108.1 L66.25 -102.35 65.8 -103.35 Q64.95 -104.85 63.15 -105.25 57.9 -102.0 55.65 -95.5 L45.75 -92.8 Q44.7 -92.45 44.55 -91.75 43.25 -85.55 49.8 -82.25 L48.35 -76.4 Q47.55 -73.3 47.65 -70.15 47.75 -67.05 51.15 -67.7 50.4 -64.6 49.95 -61.45 M8.9 -149.35 L9.8 -148.55 Q12.75 -145.8 13.1 -141.85 15.8 -140.4 18.05 -138.1 19.8 -136.2 19.25 -133.85 18.1 -128.9 13.8 -125.4 13.9 -122.8 12.0 -120.95 5.7 -114.8 -0.25 -121.9 -1.7 -123.55 -3.9 -123.5 -14.9 -123.25 -11.9 -133.75 -11.2 -136.25 -11.7 -138.95 -12.5 -143.5 -9.1 -145.65 L-5.1 -148.1 Q2.1 -151.85 8.9 -149.35 M7.4 -146.0 L6.6 -146.3 0.75 -142.5 Q-3.8 -144.55 -7.1 -142.6 L-7.45 -141.8 -7.5 -141.3 Q-7.55 -138.6 -5.5 -136.25 L-10.0 -129.95 Q-9.45 -127.7 -6.95 -127.65 L0.25 -129.1 5.35 -122.8 Q7.1 -120.85 7.85 -123.65 8.75 -127.1 9.05 -130.7 L10.45 -131.2 11.85 -131.6 Q13.6 -132.4 15.05 -133.7 L15.05 -134.0 14.95 -134.9 Q13.25 -138.7 8.75 -139.3 L7.4 -146.0 M74.3 141.85 L77.6 146.3 Q74.5 150.65 74.35 155.4 76.3 156.85 78.55 155.9 L85.55 152.85 Q89.25 156.15 93.4 158.7 94.75 159.5 95.2 158.0 96.4 153.75 94.95 149.1 98.65 147.75 100.6 144.4 101.45 143.0 99.9 142.3 96.45 140.7 92.8 139.6 L90.35 132.9 89.45 132.3 88.95 132.35 Q85.55 133.35 83.15 137.9 L75.45 138.9 74.55 139.8 74.3 141.85 M69.65 140.3 Q69.5 139.2 70.1 138.55 74.9 133.45 81.55 130.2 L83.8 129.4 Q93.25 125.45 97.0 135.85 101.7 136.8 104.85 140.45 105.9 141.65 105.75 143.15 105.15 148.85 101.4 153.9 101.8 156.05 101.15 158.0 98.7 165.55 91.65 163.05 87.45 161.5 83.25 160.7 L73.7 159.7 Q73.0 159.5 72.75 158.8 70.35 151.15 70.3 143.0 L69.65 140.3 M-93.5 -201.4 Q-90.65 -205.55 -87.2 -209.35 -85.0 -213.8 -80.4 -214.95 -74.15 -216.35 -70.55 -211.05 -67.15 -211.35 -64.0 -210.3 -61.8 -209.75 -61.1 -207.85 -59.15 -202.45 -61.2 -196.25 -58.35 -190.6 -62.65 -186.15 -64.15 -184.65 -65.9 -185.1 -73.35 -187.15 -79.3 -183.55 -85.75 -179.65 -88.15 -186.75 -89.95 -192.15 -93.3 -196.7 -95.05 -199.15 -93.5 -201.4 M-88.55 -202.0 Q-90.55 -200.55 -88.8 -198.65 -87.1 -196.8 -84.75 -195.55 L-85.55 -187.75 Q-85.6 -187.25 -85.15 -186.8 L-82.25 -186.75 -75.65 -192.15 Q-71.25 -189.65 -66.45 -188.9 -65.05 -189.5 -65.1 -191.15 L-65.3 -191.95 -68.45 -198.5 Q-65.25 -201.05 -64.75 -204.7 -64.65 -205.45 -65.2 -205.9 -67.5 -207.45 -70.55 -206.75 L-73.2 -206.25 -77.25 -211.35 -77.75 -211.7 Q-79.2 -212.0 -79.8 -210.6 L-82.3 -204.75 -88.55 -202.0 M-75.4 -88.65 Q-77.2 -84.6 -70.85 -83.5 L-70.25 -73.75 Q-70.15 -72.5 -69.0 -72.75 -62.6 -74.3 -59.05 -81.05 L-47.25 -78.9 Q-46.65 -79.15 -46.55 -79.9 -45.95 -85.7 -51.25 -90.25 -48.4 -93.3 -48.0 -97.45 -47.9 -98.3 -48.3 -98.6 -52.65 -102.2 -58.5 -98.95 L-65.05 -104.7 -65.9 -104.65 -66.7 -103.9 Q-69.45 -100.05 -69.45 -95.3 -73.3 -92.7 -75.2 -89.1 L-75.3 -88.8 -75.45 -88.75 -75.4 -88.65 M-56.15 -105.25 Q-50.55 -106.6 -45.5 -104.65 -44.35 -104.2 -43.8 -103.2 -40.1 -96.85 -41.9 -88.9 -38.1 -83.5 -41.15 -77.35 -42.75 -74.05 -46.25 -74.1 -56.05 -75.15 -63.05 -69.7 -64.8 -68.35 -66.75 -68.25 -74.1 -67.85 -76.2 -76.25 -76.8 -78.7 -78.7 -80.25 -87.0 -86.95 -79.95 -94.75 -78.6 -96.25 -78.0 -98.05 -74.85 -107.85 -65.6 -109.7 -60.1 -109.5 -56.15 -105.25" fill="#ffffff" fill-opacity="0.09019608" fill-rule="evenodd" stroke="none"/>
    <path d="M87.05 -180.1 Q85.15 -175.3 80.15 -172.65 L78.85 -172.05 Q81.8 -164.9 79.75 -158.65 79.25 -157.2 77.7 -157.15 L65.55 -165.75 Q58.2 -159.8 50.4 -161.6 49.1 -161.9 49.45 -163.0 L53.5 -174.65 Q47.45 -178.85 49.0 -184.7 L49.45 -184.95 Q55.1 -186.75 60.95 -187.2 64.15 -194.9 70.45 -195.5 71.35 -195.25 71.65 -194.4 L75.0 -185.55 85.75 -182.75 87.05 -180.1 M84.15 -180.3 L73.05 -182.75 69.1 -192.95 62.35 -184.45 51.0 -182.9 Q51.05 -181.55 51.85 -180.75 L56.9 -175.3 51.85 -163.2 52.75 -162.95 65.9 -169.2 77.65 -159.9 78.2 -160.5 75.7 -173.5 82.65 -177.75 Q83.7 -178.4 84.0 -179.55 L84.15 -180.3 M66.25 -102.35 L64.4 -99.8 63.05 -102.3 57.4 -93.0 46.25 -90.1 53.0 -83.25 49.5 -70.65 50.4 -70.5 52.1 -71.6 51.15 -67.7 Q47.75 -67.05 47.65 -70.15 47.55 -73.3 48.35 -76.4 L49.8 -82.25 Q43.25 -85.55 44.55 -91.75 44.7 -92.45 45.75 -92.8 L55.65 -95.5 Q57.9 -102.0 63.15 -105.25 64.95 -104.85 65.8 -103.35 L66.25 -102.35 M1.2 -140.65 L-5.85 -141.3 -3.45 -136.15 -8.2 -129.8 -7.75 -129.55 1.0 -131.05 2.5 -129.05 6.65 -123.9 6.85 -123.95 7.4 -132.1 Q10.6 -132.7 13.35 -134.45 L13.4 -134.6 13.4 -134.75 7.2 -137.95 6.45 -144.6 1.2 -140.65 M7.4 -146.0 L8.75 -139.3 Q13.25 -138.7 14.95 -134.9 L15.05 -134.0 15.05 -133.7 Q13.6 -132.4 11.85 -131.6 L10.45 -131.2 9.05 -130.7 Q8.75 -127.1 7.85 -123.65 7.1 -120.85 5.35 -122.8 L0.25 -129.1 -6.95 -127.65 Q-9.45 -127.7 -10.0 -129.95 L-5.5 -136.25 Q-7.55 -138.6 -7.5 -141.3 L-7.45 -141.8 -7.1 -142.6 Q-3.8 -144.55 0.75 -142.5 L6.6 -146.3 7.4 -146.0 M67.9 -99.25 L69.8 -95.75 Q75.65 -95.4 81.3 -93.6 L81.85 -93.0 Q82.95 -86.25 75.2 -82.8 L78.35 -72.0 Q78.9 -70.15 77.6 -69.0 L76.45 -67.95 Q69.1 -68.8 62.85 -74.9 L55.25 -70.05 56.35 -74.2 62.8 -78.35 75.5 -70.65 75.95 -71.25 71.9 -83.8 Q77.0 -87.0 79.6 -91.45 74.1 -92.85 68.2 -92.65 L66.1 -96.6 67.9 -99.25 M17.95 -55.45 L18.05 -56.6 Q21.8 -57.0 24.05 -59.2 L17.8 -62.45 17.1 -69.05 11.8 -65.1 4.8 -65.75 7.2 -60.65 5.9 -58.9 4.0 -59.3 5.1 -60.75 Q3.6 -62.85 3.45 -65.6 L3.5 -67.0 Q4.05 -67.6 4.65 -67.7 L11.4 -67.0 Q14.2 -71.25 18.1 -70.45 L19.4 -63.8 Q26.2 -62.6 24.65 -57.4 24.4 -56.65 23.55 -56.35 L19.65 -54.85 17.95 -55.45 M74.3 141.85 L74.55 139.8 75.45 138.9 83.15 137.9 Q85.55 133.35 88.95 132.35 L89.45 132.3 90.35 132.9 92.8 139.6 Q96.45 140.7 99.9 142.3 101.45 143.0 100.6 144.4 98.65 147.75 94.95 149.1 96.4 153.75 95.2 158.0 94.75 159.5 93.4 158.7 89.25 156.15 85.55 152.85 L78.55 155.9 Q76.3 156.85 74.35 155.4 74.5 150.65 77.6 146.3 L74.3 141.85 M79.9 145.95 L75.95 154.1 76.55 154.25 85.9 150.55 93.6 157.4 94.05 157.05 92.8 148.0 98.9 143.95 91.4 141.5 89.0 134.3 84.05 139.9 76.15 140.8 79.9 145.95 M58.0 177.05 Q57.95 174.25 60.15 173.2 L60.4 173.15 65.05 177.45 Q68.95 175.15 72.05 177.35 L72.95 178.3 Q72.15 181.4 69.9 183.9 72.9 186.55 73.25 190.65 L73.05 191.85 71.8 192.4 64.15 190.2 63.7 190.7 63.05 188.9 63.65 188.3 71.9 190.7 72.05 190.25 67.95 183.8 71.15 178.35 64.6 179.45 60.35 174.85 59.05 179.2 58.0 177.05 M-88.55 -202.0 L-82.3 -204.75 -79.8 -210.6 Q-79.2 -212.0 -77.75 -211.7 L-77.25 -211.35 -73.2 -206.25 -70.55 -206.75 Q-67.5 -207.45 -65.2 -205.9 -64.65 -205.45 -64.75 -204.7 -65.25 -201.05 -68.45 -198.5 L-65.3 -191.95 -65.1 -191.15 Q-65.05 -189.5 -66.45 -188.9 -71.25 -189.65 -75.65 -192.15 L-82.25 -186.75 -85.15 -186.8 Q-85.6 -187.25 -85.55 -187.75 L-84.75 -195.55 Q-87.1 -196.8 -88.8 -198.65 -90.55 -200.55 -88.55 -202.0 M-78.2 -209.9 L-80.95 -203.25 -87.65 -200.0 -82.8 -196.55 -83.85 -188.0 -83.25 -188.05 -76.1 -194.35 -67.05 -190.65 -66.85 -191.1 -70.7 -198.9 -67.75 -202.25 -67.2 -202.95 -66.8 -203.65 -66.5 -204.4 -73.95 -204.2 -78.2 -209.9 M-75.3 -88.8 L-75.2 -89.1 Q-73.3 -92.7 -69.45 -95.3 -69.45 -100.05 -66.7 -103.9 L-65.9 -104.65 -65.05 -104.7 -58.5 -98.95 Q-52.65 -102.2 -48.3 -98.6 -47.9 -98.3 -48.0 -97.45 -48.4 -93.3 -51.25 -90.25 -45.95 -85.7 -46.55 -79.9 -46.65 -79.15 -47.25 -78.9 L-59.05 -81.05 Q-62.6 -74.3 -69.0 -72.75 -70.15 -72.5 -70.25 -73.75 L-70.85 -83.5 Q-77.2 -84.6 -75.4 -88.65 -74.75 -87.7 -73.5 -87.2 L-68.6 -85.1 -68.4 -74.4 -67.65 -74.55 -59.9 -83.7 -48.2 -80.9 -48.05 -81.45 -54.05 -90.25 Q-51.5 -93.1 -50.4 -96.7 L-50.05 -98.25 -59.05 -96.25 -65.25 -102.4 -67.5 -93.8 -75.3 -88.8" fill="#ffffff" fill-opacity="0.30980393" fill-rule="evenodd" stroke="none"/>
    <path d="M84.15 -180.3 L84.0 -179.55 Q83.7 -178.4 82.65 -177.75 L75.7 -173.5 78.2 -160.5 77.65 -159.9 65.9 -169.2 52.75 -162.95 51.85 -163.2 56.9 -175.3 51.85 -180.75 Q51.05 -181.55 51.0 -182.9 L62.35 -184.45 69.1 -192.95 73.05 -182.75 84.15 -180.3 M64.4 -99.8 Q57.0 -88.15 53.05 -74.85 L52.1 -71.6 50.4 -70.5 49.5 -70.65 53.0 -83.25 46.25 -90.1 57.4 -93.0 63.05 -102.3 64.4 -99.8 M1.2 -140.65 L6.45 -144.6 7.2 -137.95 13.4 -134.75 13.4 -134.6 13.35 -134.45 Q10.6 -132.7 7.4 -132.1 L6.85 -123.95 6.65 -123.9 2.5 -129.05 1.0 -131.05 -7.75 -129.55 -8.2 -129.8 -3.45 -136.15 -5.85 -141.3 1.2 -140.65 M66.1 -96.6 L68.2 -92.65 Q74.1 -92.85 79.6 -91.45 77.0 -87.0 71.9 -83.8 L75.95 -71.25 75.5 -70.65 62.8 -78.35 56.35 -74.2 Q59.0 -84.5 64.35 -93.7 L66.1 -96.6 M5.9 -58.9 L7.2 -60.65 4.8 -65.75 11.8 -65.1 17.1 -69.05 17.8 -62.45 24.05 -59.2 Q21.8 -57.0 18.05 -56.6 L17.95 -55.45 5.9 -58.9 M85.0 48.5 Q79.55 56.4 70.85 50.55 68.4 48.95 68.3 45.95 68.0 36.9 76.85 36.6 81.35 37.3 83.8 41.0 86.2 44.5 85.0 48.5 M79.9 145.95 L76.15 140.8 84.05 139.9 89.0 134.3 91.4 141.5 98.9 143.95 92.8 148.0 94.05 157.05 93.6 157.4 85.9 150.55 76.55 154.25 75.95 154.1 79.9 145.95 M59.05 179.2 L60.35 174.85 64.6 179.45 71.15 178.35 67.95 183.8 72.05 190.25 71.9 190.7 63.65 188.3 63.05 188.9 59.05 179.2 M-78.2 -209.9 L-73.95 -204.2 -66.5 -204.4 -66.8 -203.65 -67.2 -202.95 -67.75 -202.25 -70.7 -198.9 -66.85 -191.1 -67.05 -190.65 -76.1 -194.35 -83.25 -188.05 -83.85 -188.0 -82.8 -196.55 -87.65 -200.0 -80.95 -203.25 -78.2 -209.9 M-75.4 -88.65 L-75.45 -88.75 -75.3 -88.8 -67.5 -93.8 -65.25 -102.4 -59.05 -96.25 -50.05 -98.25 -50.4 -96.7 Q-51.5 -93.1 -54.05 -90.25 L-48.05 -81.45 -48.2 -80.9 -59.9 -83.7 -67.65 -74.55 -68.4 -74.4 -68.6 -85.1 -73.5 -87.2 Q-74.75 -87.7 -75.4 -88.65 M-87.1 -0.8 L-81.95 -2.7 Q-78.95 -3.15 -76.45 -2.0 -69.25 1.25 -72.8 8.3 -76.05 14.7 -82.95 12.2 -93.6 8.55 -87.1 -0.8" fill="#ffffff" fill-rule="evenodd" stroke="none"/>
    <path d="M91.25 -118.3 Q95.5 -119.55 97.0 -123.75 99.0 -129.4 95.75 -134.75 94.85 -135.15 94.0 -135.65 86.7 -139.45 80.95 -133.55 80.35 -131.1 79.4 -128.75 78.5 -126.35 79.55 -123.95 78.35 -125.45 77.7 -127.15 75.35 -133.5 80.75 -137.95 89.5 -145.25 98.3 -138.8 100.95 -136.85 101.6 -133.6 104.35 -120.4 91.6 -118.25 L91.25 -118.3 M-120.25 106.85 L-120.25 65.3 -113.15 68.45 Q-111.75 74.6 -111.3 81.05 L-111.25 84.05 -110.15 85.7 -110.15 90.6 -109.1 92.25 Q-107.35 103.55 -104.05 114.55 -103.8 115.4 -103.8 116.3 L-102.75 117.95 Q-100.0 129.2 -91.2 137.25 -88.0 140.2 -86.25 144.5 L-78.3 150.75 -78.1 151.6 -78.45 152.6 -75.9 155.6 Q-96.25 140.35 -111.6 120.0 -116.35 113.7 -120.25 106.85 M-120.25 62.05 L-120.25 2.5 Q-109.3 -18.15 -91.1 -33.0 -71.45 -49.1 -46.7 -54.55 -23.0 -59.65 1.0 -55.15 25.7 -50.35 46.05 -35.4 66.45 -20.4 78.75 1.65 83.15 9.5 85.7 18.05 79.6 17.1 73.5 18.25 68.3 19.0 63.7 21.45 57.15 0.85 39.5 -12.45 29.5 -20.0 18.05 -24.7 -5.2 -34.3 -30.55 -34.05 -55.0 -33.85 -75.45 -20.15 -101.75 -20.75 -113.6 2.55 -125.05 25.0 -113.35 46.75 L-113.3 64.35 -120.25 62.05 M66.35 96.6 Q73.45 99.1 81.0 98.9 L83.85 98.55 Q72.6 123.5 52.25 141.7 44.5 148.6 35.6 153.75 L37.05 152.35 Q53.9 132.35 62.6 108.1 L62.85 107.75 70.9 108.6 Q74.8 108.95 77.85 106.8 L64.4 104.7 Q65.9 101.25 65.8 97.45 L66.35 96.6 M2.3 169.35 L0.2 170.15 Q1.1 169.25 2.3 169.35 M0.25 171.45 L10.45 169.65 11.55 175.2 11.3 175.7 12.8 182.4 Q16.5 205.8 14.65 229.5 14.15 236.25 13.8 243.1 L13.4 243.25 12.1 242.7 11.55 239.45 11.85 239.1 12.35 238.0 12.45 236.7 12.35 236.2 Q10.8 233.45 11.55 230.4 L10.45 228.8 Q10.65 224.0 10.35 219.3 8.9 194.75 0.25 171.45 M-108.2 227.15 L-107.2 220.7 -107.05 219.95 -107.05 219.85 -104.85 206.1 -104.8 206.05 Q-102.9 199.5 -101.3 192.85 L-101.15 191.3 -95.7 173.65 -96.55 173.8 -95.65 171.15 -86.65 154.25 -85.45 153.9 -86.7 153.9 -85.95 152.75 -86.35 152.0 -74.95 157.85 Q-92.7 175.05 -98.4 198.45 L-98.95 200.6 -99.8 202.5 Q-101.4 212.65 -105.5 222.2 -107.4 226.5 -107.6 231.1 L-108.2 227.15 M14.3 87.2 L13.95 89.5 12.35 90.35 Q8.4 87.95 7.1 83.7 4.2 73.9 5.3 63.5 L4.65 64.1 2.8 64.1 Q-6.65 74.85 -17.4 84.35 L-18.45 84.6 -19.8 84.05 -20.45 82.35 -9.9 71.45 Q-1.6 63.25 6.95 55.35 L10.95 89.2 14.3 87.2 M-23.95 75.4 Q-26.75 81.45 -28.55 87.85 L-29.8 88.8 Q-33.7 91.75 -35.9 87.35 L-34.55 87.55 -33.25 85.0 -32.05 84.85 -32.05 82.7 -30.85 80.4 -26.05 71.2 -23.95 75.4 M21.15 83.1 L22.55 82.2 24.0 99.1 28.7 100.6 Q29.1 101.35 28.65 102.25 L28.35 102.9 Q23.45 103.7 20.1 99.9 L20.1 84.35 21.15 83.65 21.15 83.1 M17.25 227.25 L15.95 226.8 17.3 227.15 17.25 227.25 M-66.75 -145.15 Q-57.2 -149.5 -61.0 -160.3 -62.7 -161.8 -64.9 -162.55 -67.7 -163.45 -70.55 -162.55 -81.15 -159.6 -76.7 -148.85 L-76.05 -148.1 Q-74.0 -145.95 -71.0 -145.1 -77.2 -146.6 -80.3 -152.45 -81.45 -154.65 -81.2 -156.8 -79.6 -169.95 -65.8 -168.2 -59.25 -167.35 -57.5 -160.95 -53.8 -147.7 -66.75 -145.15" fill="#f2e002" fill-rule="evenodd" stroke="none"/>
    <path d="M91.6 -118.25 Q104.35 -120.4 101.6 -133.6 100.95 -136.85 98.3 -138.8 89.5 -145.25 80.75 -137.95 75.35 -133.5 77.7 -127.15 78.35 -125.45 79.55 -123.95 L79.85 -123.55 Q81.8 -120.7 85.0 -119.1 L87.25 -118.35 90.9 -118.2 91.6 -118.25 M70.4 -108.1 L78.95 -118.2 Q69.15 -128.3 77.85 -139.6 82.45 -145.6 90.1 -145.5 103.75 -145.35 105.65 -131.75 107.4 -118.9 95.45 -115.15 88.1 -112.75 81.25 -116.35 L72.55 -105.5 67.9 -99.25 66.1 -96.6 64.35 -93.7 Q59.0 -84.5 56.35 -74.2 L55.25 -70.05 53.55 -62.45 Q51.4 -49.45 51.6 -36.05 60.35 -28.05 68.45 -19.45 84.3 -2.65 91.1 19.45 104.65 24.7 112.0 37.65 117.5 47.3 117.3 58.45 117.1 68.75 112.2 77.8 104.7 91.75 89.75 97.2 88.2 101.4 86.1 105.55 70.8 135.65 42.85 154.6 L43.1 154.95 Q50.6 162.3 55.3 171.55 L58.0 177.05 59.05 179.2 63.05 188.9 63.7 190.7 65.5 195.8 66.1 198.2 Q56.7 209.45 55.85 223.0 55.6 226.7 56.25 230.45 58.5 243.4 59.4 256.7 L54.95 256.7 Q54.55 239.9 50.6 223.85 50.2 222.15 49.4 220.6 38.75 223.0 28.2 226.55 L17.6 230.0 16.3 256.7 -116.75 256.7 Q-115.75 246.3 -113.65 236.25 -110.5 221.2 -108.4 205.8 -114.3 202.8 -120.25 199.85 L-120.25 195.9 -108.0 202.05 -103.9 186.6 -103.1 184.25 Q-98.4 165.75 -89.0 149.35 L-103.55 136.5 -108.0 138.6 Q-115.2 141.7 -120.25 147.55 L-120.25 142.45 Q-115.6 138.05 -109.5 135.0 L-106.35 133.6 Q-114.1 125.2 -120.25 115.5 L-120.25 106.85 Q-116.35 113.7 -111.6 120.0 -96.25 140.35 -75.9 155.6 L-68.55 161.4 -74.95 157.85 -86.35 152.0 Q-89.85 155.8 -94.45 167.95 L-95.65 171.15 -96.55 173.8 -99.05 181.45 Q-102.8 193.4 -104.75 205.75 L-104.75 205.8 -104.85 206.1 -107.05 219.85 -107.1 220.05 -107.2 220.7 -108.2 227.15 -110.25 242.15 Q-83.85 240.75 -57.4 242.3 L-11.95 245.35 Q0.95 246.2 13.4 249.55 L13.8 243.1 Q14.15 236.25 14.65 229.5 16.5 205.8 12.8 182.4 L11.55 175.2 10.45 169.65 0.25 171.45 -3.9 171.55 0.2 170.15 2.3 169.35 Q18.5 163.35 33.65 154.95 L35.6 153.75 Q44.5 148.6 52.25 141.7 72.6 123.5 83.85 98.55 L81.0 98.9 Q73.45 99.1 66.35 96.6 46.75 86.6 44.35 64.55 41.4 37.05 63.7 21.45 68.3 19.0 73.5 18.25 79.6 17.1 85.7 18.05 83.15 9.5 78.75 1.65 66.45 -20.4 46.05 -35.4 25.7 -50.35 1.0 -55.15 -23.0 -59.65 -46.7 -54.55 -71.45 -49.1 -91.1 -33.0 -109.3 -18.15 -120.25 2.5 L-120.25 -7.7 Q-109.4 -23.95 -94.3 -36.35 L-89.95 -39.85 Q-95.25 -68.9 -90.85 -98.0 -87.75 -118.55 -79.15 -137.35 L-76.65 -142.7 Q-81.55 -145.5 -83.8 -150.75 -86.4 -156.95 -83.6 -162.9 -79.5 -171.5 -69.8 -172.55 -56.1 -173.3 -53.4 -160.15 -50.55 -146.3 -63.4 -141.65 -68.4 -139.8 -73.45 -141.5 -82.1 -125.45 -85.95 -107.65 -90.6 -86.0 -89.15 -63.8 -88.45 -52.9 -87.05 -41.95 -68.95 -54.25 -47.5 -58.95 -27.35 -63.2 -6.85 -61.0 L-1.05 -60.25 4.0 -59.3 5.9 -58.9 17.95 -55.45 19.65 -54.85 26.1 -52.2 Q38.45 -47.2 48.2 -38.8 L49.95 -61.45 Q50.4 -64.6 51.15 -67.7 L52.1 -71.6 53.05 -74.85 Q57.0 -88.15 64.4 -99.8 L66.25 -102.35 70.4 -108.1 M-120.25 65.3 L-120.25 62.05 -113.3 64.35 Q-89.8 72.35 -65.45 77.2 -51.05 80.2 -36.35 82.05 L-26.15 64.8 -18.9 75.3 Q-6.4 59.55 9.5 47.0 L14.45 81.85 26.0 75.45 27.2 95.7 Q41.05 100.75 55.55 103.35 L64.4 104.7 77.85 106.8 Q74.8 108.95 70.9 108.6 L62.85 107.75 60.2 107.35 Q44.15 105.0 28.7 100.6 L24.0 99.1 22.55 82.2 21.15 83.1 14.3 87.2 10.95 89.2 6.95 55.35 Q-1.6 63.25 -9.9 71.45 L-20.45 82.35 -23.95 75.4 -26.05 71.2 -30.85 80.4 -32.05 82.7 -33.25 85.0 -34.55 87.55 -35.9 87.35 Q-60.1 83.55 -84.0 77.65 -98.75 73.85 -113.15 68.45 L-120.25 65.3 M103.65 84.35 Q79.9 95.35 58.8 79.2 51.45 73.55 46.8 65.75 50.95 89.95 75.1 95.35 84.7 97.55 93.2 92.7 98.55 89.9 102.55 85.65 L103.65 84.35 M84.05 34.3 Q80.35 31.6 75.75 32.45 62.65 35.0 65.65 48.75 67.9 58.85 78.0 57.5 84.35 57.0 88.3 52.6 94.35 41.8 84.05 34.3 M61.6 196.55 Q55.1 174.0 39.85 156.2 27.65 162.7 14.95 167.8 L15.7 175.2 Q18.0 192.75 18.45 210.45 L17.75 226.75 51.2 215.7 Q55.35 205.9 61.95 197.65 L61.6 196.55 M17.25 227.25 L17.55 227.45 Q17.95 227.55 17.3 227.15 L15.95 226.8 17.25 227.25 M-66.75 -145.15 Q-53.8 -147.7 -57.5 -160.95 -59.25 -167.35 -65.8 -168.2 -79.6 -169.95 -81.2 -156.8 -81.45 -154.65 -80.3 -152.45 -77.2 -146.6 -71.0 -145.1 L-66.75 -145.15 M-84.1 -7.5 Q-95.25 -4.15 -94.1 6.9 -93.5 12.5 -88.65 15.25 -80.35 19.95 -72.5 14.8 -67.7 11.75 -67.9 5.95 -68.4 -9.15 -82.8 -7.85 L-82.85 -7.8 -82.8 -7.85 -84.1 -7.5 M-75.45 -20.15 Q-70.9 -19.9 -66.4 -18.6 -44.9 -12.35 -37.75 8.75 -31.6 26.95 -41.0 43.6 -51.0 61.35 -71.3 64.55 -98.0 68.75 -113.35 46.75 -125.05 25.0 -113.6 2.55 -101.75 -20.75 -75.45 -20.15 M-46.8 46.3 Q-57.0 53.5 -69.45 54.15 -100.25 56.7 -116.85 30.4 -113.35 44.7 -101.9 53.45 -83.25 67.65 -61.85 59.0 -52.65 54.65 -46.8 46.3" fill="#000000" fill-rule="evenodd" stroke="none"/>
    <path d="M79.55 -123.95 Q78.5 -126.35 79.4 -128.75 80.35 -131.1 80.95 -133.55 86.7 -139.45 94.0 -135.65 94.85 -135.15 95.75 -134.75 99.0 -129.4 97.0 -123.75 95.5 -119.55 91.25 -118.3 L90.9 -118.2 87.25 -118.35 86.8 -118.75 86.8 -119.3 85.25 -119.85 85.0 -119.1 Q81.8 -120.7 79.85 -123.55 L79.55 -123.95 M-71.0 -145.1 Q-74.0 -145.95 -76.05 -148.1 L-76.7 -148.85 Q-81.15 -159.6 -70.55 -162.55 -67.7 -163.45 -64.9 -162.55 -62.7 -161.8 -61.0 -160.3 -57.2 -149.5 -66.75 -145.15 L-71.0 -145.1" fill="#e2aa01" fill-rule="evenodd" stroke="none"/>
    <path d="M91.25 -118.3 L91.6 -118.25 90.9 -118.2 91.25 -118.3 M85.0 -119.1 L85.25 -119.85 86.8 -119.3 86.8 -118.75 87.25 -118.35 85.0 -119.1 M-75.45 -20.15 Q-55.0 -33.85 -30.55 -34.05 -5.2 -34.3 18.05 -24.7 29.5 -20.0 39.5 -12.45 57.15 0.85 63.7 21.45 41.4 37.05 44.35 64.55 46.75 86.6 66.35 96.6 L65.8 97.45 Q65.9 101.25 64.4 104.7 L55.55 103.35 Q41.05 100.75 27.2 95.7 L26.0 75.45 14.45 81.85 9.5 47.0 Q-6.4 59.55 -18.9 75.3 L-26.15 64.8 -36.35 82.05 Q-51.05 80.2 -65.45 77.2 -89.8 72.35 -113.3 64.35 L-113.35 46.75 Q-98.0 68.75 -71.3 64.55 -51.0 61.35 -41.0 43.6 -31.6 26.95 -37.75 8.75 -44.9 -12.35 -66.4 -18.6 -70.9 -19.9 -75.45 -20.15 M35.6 153.75 L33.65 154.95 Q18.5 163.35 2.3 169.35 1.1 169.25 0.2 170.15 L-3.9 171.55 0.25 171.45 Q8.9 194.75 10.35 219.3 10.65 224.0 10.45 228.8 L11.55 230.4 Q10.8 233.45 12.35 236.2 L12.45 236.7 12.35 238.0 11.85 239.1 11.55 239.45 12.1 242.7 13.4 243.25 13.8 243.1 13.4 249.55 Q0.95 246.2 -11.95 245.35 L-57.4 242.3 Q-83.85 240.75 -110.25 242.15 L-108.2 227.15 -107.6 231.1 Q-107.4 226.5 -105.5 222.2 -101.4 212.65 -99.8 202.5 L-98.95 200.6 -98.4 198.45 Q-92.7 175.05 -74.95 157.85 L-68.55 161.4 -75.9 155.6 -78.45 152.6 -78.1 151.6 -78.3 150.75 -86.25 144.5 Q-88.0 140.2 -91.2 137.25 -100.0 129.2 -102.75 117.95 L-103.8 116.3 Q-103.8 115.4 -104.05 114.55 -107.35 103.55 -109.1 92.25 L-110.15 90.6 -110.15 85.7 -111.25 84.05 -111.3 81.05 Q-111.75 74.6 -113.15 68.45 -98.75 73.85 -84.0 77.65 -60.1 83.55 -35.9 87.35 -33.7 91.75 -29.8 88.8 L-28.55 87.85 Q-26.75 81.45 -23.95 75.4 L-20.45 82.35 -19.8 84.05 -18.45 84.6 -17.4 84.35 Q-6.65 74.85 2.8 64.1 L4.65 64.1 5.3 63.5 Q4.2 73.9 7.1 83.7 8.4 87.95 12.35 90.35 L13.95 89.5 14.3 87.2 21.15 83.1 21.15 83.65 20.1 84.35 20.1 99.9 Q23.45 103.7 28.35 102.9 L28.65 102.25 Q29.1 101.35 28.7 100.6 44.15 105.0 60.2 107.35 L62.85 107.75 62.6 108.1 Q53.9 132.35 37.05 152.35 L35.6 153.75 M11.55 175.2 L12.8 182.4 11.3 175.7 11.55 175.2 M-107.2 220.7 L-107.1 220.05 -107.05 219.95 -107.2 220.7 M-104.75 205.8 L-104.75 205.75 Q-102.8 193.4 -99.05 181.45 L-96.55 173.8 -95.7 173.65 -101.15 191.3 -101.3 192.85 Q-102.9 199.5 -104.8 206.05 L-104.75 205.8 M-95.65 171.15 L-94.45 167.95 Q-89.85 155.8 -86.35 152.0 L-85.95 152.75 -86.7 153.9 -85.45 153.9 -86.65 154.25 -95.65 171.15 M-82.85 -7.8 L-84.1 -7.5 -82.8 -7.85 -82.85 -7.8 M-32.05 82.7 L-32.05 84.85 -33.25 85.0 -32.05 82.7 M-43.95 179.1 Q-28.15 182.35 -12.55 178.75 -7.4 177.5 -2.6 175.05 -40.0 183.05 -72.85 163.75 -60.85 175.5 -43.95 179.1 M-57.4 162.45 L-48.85 167.95 Q-43.6 170.75 -37.8 171.9 -27.05 173.65 -17.05 169.0 L-17.25 168.6 Q-38.2 171.5 -57.4 162.45" fill="#f0bf01" fill-rule="evenodd" stroke="none"/>
    <path d="M85.0 48.5 Q86.2 44.5 83.8 41.0 81.35 37.3 76.85 36.6 68.0 36.9 68.3 45.95 68.4 48.95 70.85 50.55 79.55 56.4 85.0 48.5 M103.65 84.35 L102.55 85.65 Q98.55 89.9 93.2 92.7 84.7 97.55 75.1 95.35 50.95 89.95 46.8 65.75 51.45 73.55 58.8 79.2 79.9 95.35 103.65 84.35 M84.05 34.3 Q94.35 41.8 88.3 52.6 84.35 57.0 78.0 57.5 67.9 58.85 65.65 48.75 62.65 35.0 75.75 32.45 80.35 31.6 84.05 34.3 M-84.1 -7.5 L-82.85 -7.8 -82.8 -7.85 Q-68.4 -9.15 -67.9 5.95 -67.7 11.75 -72.5 14.8 -80.35 19.95 -88.65 15.25 -93.5 12.5 -94.1 6.9 -95.25 -4.15 -84.1 -7.5 M-87.1 -0.8 Q-93.6 8.55 -82.95 12.2 -76.05 14.7 -72.8 8.3 -69.25 1.25 -76.45 -2.0 -78.95 -3.15 -81.95 -2.7 L-87.1 -0.8 M-46.8 46.3 Q-52.65 54.65 -61.85 59.0 -83.25 67.65 -101.9 53.45 -113.35 44.7 -116.85 30.4 -100.25 56.7 -69.45 54.15 -57.0 53.5 -46.8 46.3" fill="#4d4d4d" fill-rule="evenodd" stroke="none"/>
    <path d="M-120.25 178.3 L-120.25 147.55 Q-115.2 141.7 -108.0 138.6 L-103.55 136.5 -89.0 149.35 Q-98.4 165.75 -103.1 184.25 L-120.25 178.3 M18.45 210.45 Q18.0 192.75 15.7 175.2 L14.95 167.8 Q27.65 162.7 39.85 156.2 55.1 174.0 61.6 196.55 L56.25 197.8 Q56.95 197.35 56.05 197.35 36.7 200.15 18.6 207.4 L18.5 210.45 18.45 210.45" fill="#666666" fill-rule="evenodd" stroke="none"/>
    <path d="M-120.25 180.95 L-120.25 178.3 -103.1 184.25 -103.9 186.6 -120.25 180.95 M18.5 210.45 L18.6 207.4 Q36.7 200.15 56.05 197.35 56.95 197.35 56.25 197.8 48.45 201.0 40.25 203.05 29.05 205.9 18.5 210.45" fill="#8c8c8c" fill-rule="evenodd" stroke="none"/>
    <path d="M-120.25 195.9 L-120.25 180.95 -103.9 186.6 -108.0 202.05 -120.25 195.9 M61.6 196.55 L61.95 197.65 Q55.35 205.9 51.2 215.7 L17.75 226.75 18.45 210.45 18.5 210.45 Q29.05 205.9 40.25 203.05 48.45 201.0 56.25 197.8 L61.6 196.55 M17.3 227.15 Q17.95 227.55 17.55 227.45 L17.25 227.25 17.3 227.15" fill="#444444" fill-rule="evenodd" stroke="none"/>
    <path d="M-43.95 179.1 Q-60.85 175.5 -72.85 163.75 -40.0 183.05 -2.6 175.05 -7.4 177.5 -12.55 178.75 -28.15 182.35 -43.95 179.1 M-57.4 162.45 Q-38.2 171.5 -17.25 168.6 L-17.05 169.0 Q-27.05 173.65 -37.8 171.9 -43.6 170.75 -48.85 167.95 L-57.4 162.45" fill="#a37901" fill-rule="evenodd" stroke="none"/>
    <path d="M54.95 256.7 L16.3 256.7 17.6 230.0 28.2 226.55 Q38.75 223.0 49.4 220.6 50.2 222.15 50.6 223.85 54.55 239.9 54.95 256.7 M-116.75 256.7 L-120.25 256.7 -120.25 199.85 Q-114.3 202.8 -108.4 205.8 -110.5 221.2 -113.65 236.25 -115.75 246.3 -116.75 256.7" fill="#333333" fill-rule="evenodd" stroke="none"/>
  </g>
</svg>
