<?xml version="1.0" encoding="UTF-8" standalone="no"?>
<svg xmlns:xlink="http://www.w3.org/1999/xlink" height="448.75px" width="226.0px" xmlns="http://www.w3.org/2000/svg">
  <g transform="matrix(1.0, 0.0, 0.0, 1.0, 119.25, 191.6)">
    <path d="M93.1 -107.6 Q92.1 -105.1 90.7 -102.8 76.5 -79.2 49.2 -82.15 L18.3 -137.7 -48.9 -88.3 Q-88.85 -98.85 -95.05 -141.1 -77.1 -158.45 -52.8 -164.7 -29.05 -170.7 -4.65 -170.0 14.05 -169.5 32.0 -164.5 55.35 -157.8 72.55 -140.65 86.65 -126.55 93.1 -107.6 M-119.25 224.55 L-119.25 215.95 Q-114.65 197.5 -104.3 181.65 L-98.7 172.45 -90.1 172.45 -90.05 173.5 Q-85.1 189.7 -78.05 205.15 -74.1 200.65 -69.0 197.75 -64.5 195.1 -59.5 193.4 L-47.1 209.2 -48.85 211.7 Q-43.4 217.6 -46.4 224.2 L-49.55 231.0 Q-50.9 234.0 -48.05 235.9 -40.8 240.8 -45.75 248.6 -47.25 250.9 -48.55 253.35 -64.05 252.75 -78.9 248.7 -102.55 242.25 -119.25 224.55 M45.7 193.0 L48.95 184.25 50.1 184.3 Q53.65 184.95 56.6 186.9 L55.85 188.75 52.1 187.05 52.5 188.7 54.15 190.5 Q64.45 202.8 69.2 218.45 65.4 229.95 56.25 238.05 L54.15 239.85 48.8 231.95 50.8 229.3 Q59.8 216.55 46.05 208.85 L47.1 207.5 Q52.75 199.4 45.7 193.0" fill="#702cb4" fill-rule="evenodd" stroke="none"/>
    <path d="M93.1 -107.6 Q86.65 -126.55 72.55 -140.65 55.35 -157.8 32.0 -164.5 14.05 -169.5 -4.65 -170.0 -29.05 -170.7 -52.8 -164.7 -77.1 -158.45 -95.05 -141.1 -102.55 -133.65 -109.05 -125.6 L-113.35 -120.1 -69.15 -72.3 -48.9 -88.3 18.3 -137.7 49.2 -82.15 66.05 -52.25 Q82.0 -73.55 97.0 -95.45 L96.15 -95.8 93.1 -107.6 M-119.25 -117.75 L-119.25 -127.05 -116.9 -124.3 Q-115.1 -127.35 -112.8 -130.2 -96.1 -150.5 -72.65 -162.25 -66.85 -165.1 -60.3 -167.0 -36.05 -174.3 -10.65 -175.1 -10.65 -179.15 -9.05 -183.0 -8.2 -185.05 -6.8 -186.75 -5.45 -188.4 -3.6 -189.3 3.65 -192.6 11.7 -191.15 15.85 -190.4 19.35 -188.1 25.55 -183.9 25.1 -176.4 L24.7 -174.35 24.0 -171.55 Q32.75 -168.85 41.25 -165.4 47.85 -162.65 54.05 -159.3 72.65 -148.95 84.45 -131.35 L89.45 -124.05 Q97.3 -112.95 99.5 -99.45 L102.45 -104.45 104.25 -103.55 99.5 -69.1 Q92.35 -16.35 83.85 36.4 83.4 39.35 85.8 41.0 L87.2 40.95 Q88.7 40.6 89.5 39.35 L90.8 36.65 91.5 36.25 Q93.75 42.1 93.1 48.15 92.1 57.75 87.0 65.8 84.1 70.4 79.05 72.15 81.45 73.8 83.25 76.05 92.05 87.1 90.55 101.2 87.55 101.75 84.95 99.85 82.75 98.3 80.3 97.5 78.7 105.85 80.5 113.9 81.55 118.65 83.25 123.3 86.35 131.8 93.5 137.0 91.85 138.85 89.75 139.95 87.1 141.25 84.3 142.0 L79.1 141.75 Q85.3 150.2 90.95 159.15 94.7 165.1 96.65 171.85 97.1 173.45 96.9 175.05 96.25 179.55 94.25 183.8 98.95 192.75 102.45 202.3 L96.95 205.7 Q98.9 211.2 100.25 216.75 101.95 224.05 104.0 231.3 107.65 244.0 106.45 257.15 L103.85 257.15 Q104.35 250.35 103.15 243.45 99.95 225.25 94.35 207.45 L73.5 215.75 73.85 215.4 73.4 215.8 74.65 220.75 Q78.7 239.05 73.4 257.15 L68.25 256.95 68.3 256.65 Q76.05 237.7 69.2 218.45 64.45 202.8 54.15 190.5 L52.5 188.7 52.1 187.05 55.85 188.75 56.6 186.9 Q60.5 170.1 46.0 163.25 L44.55 162.65 43.25 171.6 Q50.5 177.55 46.15 185.9 L43.9 190.4 45.7 193.0 Q52.75 199.4 47.1 207.5 L46.05 208.85 Q59.8 216.55 50.8 229.3 L48.8 231.95 54.15 239.85 Q55.05 241.55 55.35 243.5 56.5 250.8 52.2 256.75 L51.9 257.15 30.0 256.95 30.5 255.2 Q31.75 251.45 34.4 248.6 36.4 246.45 38.65 244.6 42.35 241.5 45.85 244.9 L52.25 250.2 52.65 248.4 Q53.3 245.15 52.2 241.9 49.55 235.2 43.3 232.45 L42.45 232.25 Q52.7 226.8 49.65 216.25 49.2 214.8 47.65 214.4 44.3 216.2 43.55 219.9 L43.25 222.65 Q39.0 231.7 30.7 229.0 27.9 228.15 27.2 225.25 26.0 220.25 27.0 214.7 L27.75 207.7 Q28.75 200.55 35.9 197.35 37.2 196.7 38.25 195.55 L40.3 193.15 37.75 190.55 Q44.7 185.95 43.5 178.75 43.15 176.75 41.55 175.45 36.4 190.85 21.4 196.9 L13.8 200.2 Q13.45 202.15 12.35 203.85 L11.45 205.05 12.8 205.8 16.2 213.1 Q16.35 221.65 9.25 226.5 13.85 228.45 14.1 233.55 19.5 234.05 23.3 238.45 21.65 244.3 19.15 249.55 L19.8 251.55 19.95 256.95 17.0 256.95 17.05 256.55 Q17.55 253.95 16.6 251.6 14.3 247.7 9.4 246.65 7.05 249.4 3.75 249.5 9.45 245.0 10.8 237.7 11.15 235.9 10.5 234.45 7.3 227.55 -0.15 227.05 1.05 226.35 2.3 225.85 5.65 224.55 8.55 222.65 13.3 219.55 13.3 214.1 11.1 209.35 7.8 205.2 L6.4 203.4 7.35 202.35 9.1 203.5 11.45 200.95 11.45 200.75 8.2 201.65 Q3.65 186.15 -9.5 178.9 -11.2 177.95 -13.15 177.5 L-20.5 184.7 -19.7 188.3 -19.95 187.9 Q-19.75 200.75 -33.25 202.25 -37.35 202.8 -39.0 199.25 -39.2 201.95 -40.2 204.35 -41.25 206.95 -43.1 209.3 L-44.25 211.65 Q-39.95 222.3 -46.8 232.05 -39.15 237.55 -42.1 246.95 L-43.55 251.3 -47.1 256.95 -53.0 256.95 -52.3 254.85 -48.85 253.9 -48.55 253.35 Q-47.25 250.9 -45.75 248.6 -40.8 240.8 -48.05 235.9 -50.9 234.0 -49.55 231.0 L-46.4 224.2 Q-43.4 217.6 -48.85 211.7 L-47.1 209.2 Q-42.4 206.0 -41.65 200.8 -41.5 199.8 -41.85 198.85 -43.15 195.4 -45.05 192.15 -48.2 191.1 -47.45 187.65 L-46.9 186.3 Q-49.65 180.85 -53.3 176.0 -61.8 179.0 -69.15 183.9 -74.2 180.0 -77.45 174.75 -85.95 161.1 -89.15 145.25 -92.5 159.3 -98.7 172.45 L-104.3 181.65 Q-114.65 197.5 -119.25 215.95 L-119.25 200.75 -118.95 199.9 Q-115.75 191.35 -110.9 183.5 L-115.75 181.85 -119.25 180.5 -119.25 178.4 -110.0 181.9 Q-97.4 166.1 -93.85 146.1 -99.25 148.8 -103.8 153.05 -106.45 155.55 -108.65 158.4 L-113.1 157.7 -119.25 147.05 -119.25 139.55 Q-116.7 144.95 -113.25 149.7 L-110.95 152.85 Q-101.2 144.5 -89.4 140.1 L-86.5 139.95 Q-82.9 157.65 -73.45 173.05 -71.45 176.35 -68.65 179.15 -60.4 173.7 -51.5 173.45 -50.55 173.45 -49.6 174.8 -44.35 182.35 -41.5 190.95 -32.85 188.6 -25.55 183.6 -18.15 178.4 -11.65 172.25 -3.45 174.5 1.9 181.3 7.6 188.45 10.45 197.1 27.65 193.25 35.55 178.1 40.3 169.05 43.0 159.05 46.95 159.0 50.45 161.1 56.3 164.6 59.6 170.65 61.1 173.45 61.8 176.7 72.2 166.3 74.85 151.35 75.9 145.4 73.85 140.0 73.4 138.7 72.3 137.85 L72.5 137.4 71.55 135.95 71.95 135.25 Q76.05 136.9 80.4 138.0 83.25 138.7 85.95 137.65 L87.75 136.85 Q76.25 123.35 76.65 105.25 76.8 99.7 77.2 94.15 78.95 93.95 80.7 94.15 82.35 94.45 83.95 95.1 L87.55 96.4 Q82.6 74.5 62.2 64.15 55.1 60.5 47.4 58.85 L52.05 66.45 Q54.9 72.4 54.15 78.95 L54.0 81.15 Q53.05 74.25 50.5 67.75 40.75 50.3 21.65 54.65 L23.9 57.75 Q25.05 59.3 25.55 61.0 27.15 65.15 28.05 69.6 29.1 74.6 28.75 79.55 L25.0 65.3 Q23.55 61.95 21.2 58.9 L21.05 58.75 Q11.5 47.7 -3.85 49.1 L-8.75 49.25 Q-5.75 51.2 -3.9 54.4 -2.65 56.55 -2.2 59.0 -1.35 64.75 -2.4 70.45 L-2.6 71.8 -4.35 62.1 -5.6 57.9 Q-8.05 50.7 -15.6 48.95 -23.45 47.0 -31.25 49.65 L-31.0 49.8 Q-28.5 51.0 -27.65 53.75 L-25.55 64.0 -29.65 55.65 Q-32.65 50.65 -38.4 49.1 L-39.0 48.9 Q-72.6 47.75 -102.3 63.65 L-105.5 63.0 -106.75 56.15 Q-108.75 59.35 -111.95 61.15 -112.75 61.65 -113.65 61.95 -115.45 51.9 -119.25 42.35 L-119.25 39.0 -109.9 39.25 Q-110.4 38.1 -110.35 37.0 -109.7 24.1 -97.55 18.1 L-102.2 14.2 -98.0 13.65 Q-92.85 13.4 -88.3 15.65 -80.7 19.5 -75.45 13.55 L-75.15 13.3 -73.95 12.5 -73.75 9.5 -74.1 6.4 -73.45 6.2 Q-63.55 6.75 -58.6 15.7 L-53.9 8.05 -48.25 14.9 Q-47.3 16.0 -46.0 16.4 -37.45 19.25 -37.25 10.05 L-35.2 10.25 Q-24.45 11.15 -22.75 22.4 -14.65 18.55 -11.75 9.9 -2.3 20.35 -6.2 34.4 L-3.3 34.25 -2.05 33.9 -1.95 38.15 Q-2.25 39.4 -3.15 40.35 L-8.15 45.2 Q3.65 44.75 14.8 48.6 L12.3 39.6 11.2 36.3 12.85 36.25 Q15.25 36.35 17.15 37.7 L18.2 35.3 Q20.2 26.35 23.7 18.1 28.8 24.65 32.1 32.3 41.15 30.3 45.9 23.0 53.15 29.5 57.05 38.2 57.3 38.8 57.8 38.85 64.25 40.05 67.45 32.6 L70.4 36.8 Q71.25 40.3 74.65 40.95 76.4 41.35 78.1 40.9 L80.45 39.4 Q85.4 -2.85 91.95 -44.8 L97.7 -82.15 99.5 -93.7 Q83.85 -68.4 66.25 -44.45 L65.9 -44.85 43.5 -84.95 25.25 -118.05 Q19.7 -127.65 17.05 -131.15 L12.3 -127.9 Q-7.75 -113.9 -26.8 -98.5 -45.8 -83.2 -65.55 -68.65 L-68.55 -66.55 Q-85.1 -79.65 -98.95 -95.5 -108.95 -106.85 -119.25 -117.75 M-23.3 256.95 L-41.15 256.95 -41.75 256.0 Q-43.1 253.85 -43.1 251.3 -37.6 236.8 -23.15 234.0 -9.8 231.6 -9.35 244.45 -9.2 248.35 -13.1 249.95 -16.1 251.3 -18.9 253.15 L-23.3 256.95 M-116.65 257.15 L-119.25 257.15 -119.25 242.85 -116.65 257.15 M21.15 -180.4 Q19.55 -184.1 15.9 -185.9 4.6 -191.5 -4.5 -184.0 -7.25 -180.05 -5.8 -175.7 L20.1 -172.95 20.65 -173.75 Q22.75 -176.85 21.15 -180.4 M-10.2 16.05 L-10.8 15.15 Q-15.4 22.45 -22.95 26.1 L-24.05 26.55 Q-26.0 19.9 -31.3 15.75 L-34.5 13.6 Q-35.25 19.9 -40.65 20.7 -42.4 21.0 -44.25 20.2 -49.9 17.75 -53.5 12.65 L-54.35 15.15 -54.9 16.7 Q-55.8 18.9 -57.65 20.4 -61.1 17.25 -64.15 13.65 -66.6 10.8 -70.4 10.1 -70.85 14.85 -74.1 18.3 -76.8 21.25 -80.8 20.55 L-80.8 19.65 Q-85.1 20.25 -88.65 17.95 -92.0 15.75 -95.8 16.45 L-95.0 19.7 -99.7 22.15 Q-103.05 23.9 -105.45 27.2 L-105.5 27.4 -106.2 28.75 -107.7 34.75 -107.1 35.15 -107.0 36.35 Q-103.35 40.1 -97.5 40.4 L-51.3 44.85 Q-39.85 46.45 -28.2 45.5 L-15.15 44.15 Q-9.0 43.1 -5.55 38.05 L-10.35 37.9 Q-5.65 26.5 -10.2 16.05 M-70.1 47.6 L-64.1 46.55 -108.45 43.0 -116.2 42.35 -113.3 48.1 -111.05 57.6 -106.9 50.55 Q-105.15 52.05 -104.55 54.15 L-102.45 60.4 Q-87.3 51.5 -70.1 47.6 M-12.25 203.75 L-7.3 200.85 Q-5.95 200.15 -4.45 199.65 -0.75 203.5 1.1 208.45 2.05 210.9 2.3 213.5 L2.5 214.2 Q1.0 220.75 -4.25 224.05 -8.15 226.55 -11.2 222.9 -19.0 213.5 -12.25 203.75 M86.35 61.0 L87.3 58.85 Q90.6 50.7 89.3 41.95 L88.25 43.75 83.9 43.75 82.5 41.4 Q80.25 43.7 77.0 44.05 73.9 44.35 71.4 42.55 68.7 40.6 67.1 37.35 L66.0 38.7 Q62.0 43.2 55.85 42.95 55.05 40.4 53.9 38.0 50.95 32.1 45.8 28.15 38.55 33.3 30.3 36.6 L29.5 33.95 Q28.05 29.5 25.8 25.4 L23.7 23.0 Q24.25 26.25 24.0 29.3 23.25 38.4 15.7 40.75 L19.8 50.0 Q50.5 51.55 75.5 69.4 L77.7 68.55 Q83.25 66.1 86.35 61.0 M77.8 146.6 L77.45 146.05 77.4 146.75 76.5 153.35 Q74.85 162.6 71.05 171.0 68.0 177.65 61.4 180.35 61.5 183.35 61.1 186.5 60.85 188.65 59.9 190.7 L60.95 192.15 61.7 192.05 Q71.35 191.65 79.85 186.6 L84.8 186.75 84.65 188.5 84.0 188.8 Q77.5 191.85 70.55 193.1 L62.9 194.95 Q68.35 202.95 71.9 211.8 85.95 207.8 98.4 200.3 L96.7 197.55 91.9 187.45 90.2 187.35 Q91.05 181.1 92.5 174.8 92.9 173.0 92.35 171.15 89.55 161.8 83.35 154.15 L77.8 146.6" fill="#000000" fill-rule="evenodd" stroke="none"/>
    <path d="M49.2 -82.15 Q76.5 -79.2 90.7 -102.8 92.1 -105.1 93.1 -107.6 L96.15 -95.8 97.0 -95.45 Q82.0 -73.55 66.05 -52.25 L49.2 -82.15 M-95.05 -141.1 Q-88.85 -98.85 -48.9 -88.3 L-69.15 -72.3 -113.35 -120.1 -109.05 -125.6 Q-102.55 -133.65 -95.05 -141.1 M68.25 256.95 L52.2 256.75 Q56.5 250.8 55.35 243.5 55.05 241.55 54.15 239.85 L56.25 238.05 Q65.4 229.95 69.2 218.45 76.05 237.7 68.3 256.65 L68.25 256.95 M-53.0 256.95 L-116.65 257.15 -119.25 242.85 -119.25 224.55 Q-102.55 242.25 -78.9 248.7 -64.05 252.75 -48.55 253.35 L-48.85 253.9 -52.3 254.85 -53.0 256.95 M-47.1 209.2 L-59.5 193.4 Q-64.5 195.1 -69.0 197.75 -74.1 200.65 -78.05 205.15 -85.1 189.7 -90.05 173.5 L-90.1 172.45 -98.7 172.45 Q-92.5 159.3 -89.15 145.25 -85.95 161.1 -77.45 174.75 -74.2 180.0 -69.15 183.9 -61.8 179.0 -53.3 176.0 -49.65 180.85 -46.9 186.3 L-47.45 187.65 Q-48.2 191.1 -45.05 192.15 -43.15 195.4 -41.85 198.85 -41.5 199.8 -41.65 200.8 -42.4 206.0 -47.1 209.2 M45.7 193.0 L43.9 190.4 46.15 185.9 Q50.5 177.55 43.25 171.6 L44.55 162.65 46.0 163.25 Q60.5 170.1 56.6 186.9 53.65 184.95 50.1 184.3 L48.95 184.25 45.7 193.0" fill="#58248e" fill-rule="evenodd" stroke="none"/>
    <path d="M70.4 36.8 L67.45 32.6 Q64.25 40.05 57.8 38.85 57.3 38.8 57.05 38.2 53.15 29.5 45.9 23.0 41.15 30.3 32.1 32.3 28.8 24.65 23.7 18.1 20.2 26.35 18.2 35.3 L17.15 37.7 Q15.25 36.35 12.85 36.25 L11.2 36.3 12.3 39.6 -1.95 38.15 -2.05 33.9 -3.3 34.25 -6.2 34.4 Q-2.3 20.35 -11.75 9.9 -14.65 18.55 -22.75 22.4 -24.45 11.15 -35.2 10.25 L-37.25 10.05 Q-37.45 19.25 -46.0 16.4 -47.3 16.0 -48.25 14.9 L-53.9 8.05 -58.6 15.7 Q-63.55 6.75 -73.45 6.2 L-74.1 6.4 -73.75 9.5 -73.95 12.5 -75.15 13.3 -75.5 13.55 Q-87.7 -6.85 -90.7 -30.5 -93.5 -52.4 -94.25 -74.45 L-71.8 -54.45 Q-51.05 -69.9 -31.6 -86.7 -8.9 -106.35 12.55 -127.3 L23.2 -107.5 40.5 -74.85 57.0 -43.95 62.85 -30.85 62.7 -30.4 Q72.8 -43.1 81.5 -56.85 L91.9 -72.65 Q89.15 -43.6 84.2 -15.1 L70.4 36.8 M-4.5 -184.0 Q4.6 -191.5 15.9 -185.9 19.55 -184.1 21.15 -180.4 20.65 -177.75 18.1 -176.75 3.25 -171.15 -4.5 -184.0" fill="#ffcc00" fill-rule="evenodd" stroke="none"/>
    <path d="M-119.25 39.0 L-119.25 -117.75 Q-108.95 -106.85 -98.95 -95.5 -85.1 -79.65 -68.55 -66.55 L-65.55 -68.65 Q-45.8 -83.2 -26.8 -98.5 -7.75 -113.9 12.3 -127.9 L12.55 -127.3 Q-8.9 -106.35 -31.6 -86.7 -51.05 -69.9 -71.8 -54.45 L-94.25 -74.45 Q-93.5 -52.4 -90.7 -30.5 -87.7 -6.85 -75.5 13.55 L-75.45 13.55 Q-80.7 19.5 -88.3 15.65 -92.85 13.4 -98.0 13.65 L-102.2 14.2 -97.55 18.1 Q-109.7 24.1 -110.35 37.0 -110.4 38.1 -109.9 39.25 L-119.25 39.0 M66.25 -44.45 Q83.85 -68.4 99.5 -93.7 L97.7 -82.15 91.95 -44.8 Q85.4 -2.85 80.45 39.4 L78.1 40.9 Q76.4 41.35 74.65 40.95 71.25 40.3 70.4 36.8 L84.2 -15.1 Q89.15 -43.6 91.9 -72.65 L81.5 -56.85 Q72.8 -43.1 62.7 -30.4 L62.85 -30.85 65.75 -43.7 66.25 -44.45 M12.3 39.6 L14.8 48.6 Q3.65 44.75 -8.15 45.2 L-3.15 40.35 Q-2.25 39.4 -1.95 38.15 L12.3 39.6 M-4.5 -184.0 Q3.25 -171.15 18.1 -176.75 20.65 -177.75 21.15 -180.4 22.75 -176.85 20.65 -173.75 L20.1 -172.95 -5.8 -175.7 Q-7.25 -180.05 -4.5 -184.0" fill="#d9a406" fill-rule="evenodd" stroke="none"/>
    <path d="M12.3 -127.9 L17.05 -131.15 Q19.7 -127.65 25.25 -118.05 L23.2 -107.5 12.55 -127.3 12.3 -127.9 M43.5 -84.95 L65.9 -44.85 65.75 -43.7 62.85 -30.85 57.0 -43.95 40.5 -74.85 43.5 -84.95" fill="#ffef35" fill-rule="evenodd" stroke="none"/>
    <path d="M-119.25 91.7 L-119.25 54.95 -112.45 64.55 -107.1 61.7 Q-106.0 67.3 -101.5 65.95 -93.4 63.35 -85.5 60.1 -66.35 52.45 -45.55 52.4 -38.5 52.4 -32.35 55.85 -30.95 56.6 -29.65 55.65 L-25.55 64.0 -27.65 53.75 Q-26.85 52.7 -25.5 52.35 -14.95 51.85 -6.05 57.7 -5.1 59.55 -4.35 62.1 L-2.6 71.8 -2.4 70.45 Q-1.35 64.75 -2.2 59.0 2.05 52.4 10.6 56.4 17.4 59.6 22.35 65.45 L25.0 65.3 28.75 79.55 Q29.1 74.6 28.05 69.6 27.15 65.15 25.55 61.0 35.1 62.05 43.35 67.1 44.55 67.85 45.9 68.4 L50.5 67.75 Q53.05 74.25 54.0 81.15 L54.15 78.95 Q54.9 72.4 52.05 66.45 L52.95 66.6 53.05 66.8 53.15 66.6 Q70.65 69.4 80.25 84.45 L82.2 87.2 81.6 87.75 Q80.25 88.15 79.15 87.5 76.25 85.55 73.95 82.75 69.35 99.25 73.65 115.35 75.35 121.65 78.6 126.95 L77.9 128.45 75.45 128.2 Q74.5 128.15 73.75 127.6 72.15 126.45 70.6 125.8 71.1 140.6 69.1 154.85 68.7 157.6 66.8 159.5 64.75 161.55 62.05 162.55 56.0 151.35 45.75 144.0 L43.5 142.55 Q45.1 154.15 37.8 164.05 L31.65 172.1 Q25.95 179.45 17.9 183.65 L16.8 183.5 Q9.85 178.75 6.2 170.75 3.95 165.85 0.9 161.4 -2.25 156.85 -6.05 152.95 -23.25 162.4 -37.5 175.9 L-53.05 152.55 Q-57.4 155.45 -62.0 157.75 L-63.9 158.65 Q-73.7 140.1 -76.1 119.0 -90.3 129.0 -106.35 134.45 -107.0 134.75 -107.5 134.25 -111.45 130.1 -112.7 124.2 -116.2 107.8 -117.2 90.9 L-119.25 91.7 M25.25 -118.05 L43.5 -84.95 40.5 -74.85 23.2 -107.5 25.25 -118.05 M-105.45 27.2 Q-103.05 23.9 -99.7 22.15 L-95.0 19.7 -95.8 16.45 Q-92.0 15.75 -88.65 17.95 -85.1 20.25 -80.8 19.65 L-80.8 20.55 Q-76.8 21.25 -74.1 18.3 -70.85 14.85 -70.4 10.1 -66.6 10.8 -64.15 13.65 -61.1 17.25 -57.65 20.4 -55.8 18.9 -54.9 16.7 L-54.35 15.15 -53.5 12.65 Q-49.9 17.75 -44.25 20.2 -42.4 21.0 -40.65 20.7 -35.25 19.9 -34.5 13.6 L-31.3 15.75 Q-26.0 19.9 -24.05 26.55 L-22.95 26.1 Q-15.4 22.45 -10.8 15.15 L-10.2 16.05 Q-10.5 19.9 -11.9 23.55 -13.1 26.7 -14.85 29.8 -18.25 35.85 -24.8 37.1 L-24.65 38.4 -25.75 38.55 -27.8 38.15 Q-30.95 36.65 -31.75 33.05 -36.4 36.3 -42.1 38.05 L-42.55 37.95 -43.3 37.55 -43.9 36.9 Q-45.0 35.6 -45.7 33.95 -50.4 38.3 -57.85 36.8 -65.0 35.4 -72.2 35.55 -90.3 35.85 -106.2 28.75 L-105.5 27.4 -105.3 27.2 -105.45 27.2 M-43.1 209.3 Q-35.5 213.35 -27.35 213.35 -27.05 213.35 -12.25 203.75 -19.0 213.5 -11.2 222.9 -8.15 226.55 -4.25 224.05 1.0 220.75 2.5 214.2 L2.3 213.5 3.95 216.95 13.3 214.1 Q13.3 219.55 8.55 222.65 5.65 224.55 2.3 225.85 1.05 226.35 -0.15 227.05 7.3 227.55 10.5 234.45 11.15 235.9 10.8 237.7 9.45 245.0 3.75 249.5 7.05 249.4 9.4 246.65 14.3 247.7 16.6 251.6 L-18.9 253.15 Q-16.1 251.3 -13.1 249.95 -9.2 248.35 -9.35 244.45 -9.8 231.6 -23.15 234.0 -37.6 236.8 -43.1 251.3 L-43.55 251.3 -42.1 246.95 Q-39.15 237.55 -46.8 232.05 -39.95 222.3 -44.25 211.65 L-43.1 209.3 M25.8 25.4 Q28.05 29.5 29.5 33.95 L30.3 36.6 Q38.55 33.3 45.8 28.15 50.95 32.1 53.9 38.0 55.05 40.4 55.85 42.95 62.0 43.2 66.0 38.7 L67.1 37.35 Q68.7 40.6 71.4 42.55 73.9 44.35 77.0 44.05 80.25 43.7 82.5 41.4 L83.9 43.75 88.25 43.75 89.3 41.95 Q90.6 50.7 87.3 58.85 L86.35 61.0 83.85 61.2 Q71.1 61.5 63.0 53.45 59.9 51.6 56.25 51.55 44.85 51.3 44.05 40.75 41.4 42.95 37.9 43.3 30.4 44.35 24.0 40.4 L23.85 40.6 Q24.75 32.95 25.8 25.4 M16.2 213.1 L18.6 212.2 Q23.7 210.1 27.75 207.7 L27.0 214.7 Q26.0 220.25 27.2 225.25 27.9 228.15 30.7 229.0 39.0 231.7 43.25 222.65 L43.55 219.9 Q44.3 216.2 47.65 214.4 49.2 214.8 49.65 216.25 52.7 226.8 42.45 232.25 L43.3 232.45 Q49.55 235.2 52.2 241.9 49.25 243.5 45.85 244.9 42.35 241.5 38.65 244.6 36.4 246.45 34.4 248.6 27.7 250.25 19.8 251.55 L19.15 249.55 Q21.65 244.3 23.3 238.45 19.5 234.05 14.1 233.55 13.85 228.45 9.25 226.5 16.35 221.65 16.2 213.1" fill="#ffffff" fill-rule="evenodd" stroke="none"/>
    <path d="M30.0 256.95 L19.95 256.95 19.8 251.55 Q27.7 250.25 34.4 248.6 31.75 251.45 30.5 255.2 L30.0 256.95 M17.0 256.95 L-23.3 256.95 -18.9 253.15 16.6 251.6 Q17.55 253.95 17.05 256.55 L17.0 256.95 M-41.15 256.95 L-47.1 256.95 -43.55 251.3 -43.1 251.3 Q-43.1 253.85 -41.75 256.0 L-41.15 256.95 M-119.25 139.55 L-119.25 91.7 -117.2 90.9 Q-116.2 107.8 -112.7 124.2 -111.45 130.1 -107.5 134.25 -107.0 134.75 -106.35 134.45 -90.3 129.0 -76.1 119.0 -73.7 140.1 -63.9 158.65 L-62.0 157.75 Q-57.4 155.45 -53.05 152.55 L-37.5 175.9 Q-23.25 162.4 -6.05 152.95 -2.25 156.85 0.9 161.4 3.95 165.85 6.2 170.75 9.85 178.75 16.8 183.5 L17.9 183.65 Q25.95 179.45 31.65 172.1 L37.8 164.05 Q45.1 154.15 43.5 142.55 L45.75 144.0 Q56.0 151.35 62.05 162.55 64.75 161.55 66.8 159.5 68.7 157.6 69.1 154.85 71.1 140.6 70.6 125.8 72.15 126.45 73.75 127.6 74.5 128.15 75.45 128.2 L77.9 128.45 78.6 126.95 Q75.35 121.65 73.65 115.35 69.35 99.25 73.95 82.75 76.25 85.55 79.15 87.5 80.25 88.15 81.6 87.75 L82.2 87.2 80.25 84.45 Q70.65 69.4 53.15 66.6 L52.95 66.6 52.05 66.45 47.4 58.85 Q55.1 60.5 62.2 64.15 82.6 74.5 87.55 96.4 L83.95 95.1 Q82.35 94.45 80.7 94.15 78.95 93.95 77.2 94.15 76.8 99.7 76.65 105.25 76.25 123.35 87.75 136.85 L85.95 137.65 Q83.25 138.7 80.4 138.0 76.05 136.9 71.95 135.25 L71.55 135.95 72.5 137.4 72.3 137.85 Q73.4 138.7 73.85 140.0 75.9 145.4 74.85 151.35 72.2 166.3 61.8 176.7 61.1 173.45 59.6 170.65 56.3 164.6 50.45 161.1 46.95 159.0 43.0 159.05 40.3 169.05 35.55 178.1 27.65 193.25 10.45 197.1 7.6 188.45 1.9 181.3 -3.45 174.5 -11.65 172.25 -18.15 178.4 -25.55 183.6 -32.85 188.6 -41.5 190.95 -44.35 182.35 -49.6 174.8 -50.55 173.45 -51.5 173.45 -60.4 173.7 -68.65 179.15 -71.45 176.35 -73.45 173.05 -82.9 157.65 -86.5 139.95 L-89.4 140.1 Q-101.2 144.5 -110.95 152.85 L-113.25 149.7 Q-116.7 144.95 -119.25 139.55 M-119.25 54.95 L-119.25 42.35 Q-115.45 51.9 -113.65 61.95 -112.75 61.65 -111.95 61.15 -108.75 59.35 -106.75 56.15 L-105.5 63.0 -102.3 63.65 Q-72.6 47.75 -39.0 48.9 L-38.4 49.1 Q-32.65 50.65 -29.65 55.65 -30.95 56.6 -32.35 55.85 -38.5 52.4 -45.55 52.4 -66.35 52.45 -85.5 60.1 -93.4 63.35 -101.5 65.95 -106.0 67.3 -107.1 61.7 L-112.45 64.55 -119.25 54.95 M-105.45 27.2 L-105.3 27.2 -105.5 27.4 -105.45 27.2 M-106.2 28.75 Q-90.3 35.85 -72.2 35.55 -65.0 35.4 -57.85 36.8 -50.4 38.3 -45.7 33.95 -45.0 35.6 -43.9 36.9 L-43.3 37.55 -42.55 37.95 -42.1 38.05 Q-36.4 36.3 -31.75 33.05 -30.95 36.65 -27.8 38.15 L-25.75 38.55 -24.65 38.4 -24.8 37.1 Q-18.25 35.85 -14.85 29.8 -13.1 26.7 -11.9 23.55 -10.5 19.9 -10.2 16.05 -5.65 26.5 -10.35 37.9 L-5.55 38.05 Q-9.0 43.1 -15.15 44.15 L-28.2 45.5 Q-39.85 46.45 -51.3 44.85 L-97.5 40.4 Q-103.35 40.1 -107.0 36.35 L-107.1 35.15 -107.7 34.75 -106.2 28.75 M-2.2 59.0 Q-2.65 56.55 -3.9 54.4 -5.75 51.2 -8.75 49.25 L-3.85 49.1 Q11.5 47.7 21.05 58.75 L21.15 59.05 21.2 58.9 Q23.55 61.95 25.0 65.3 L22.35 65.45 Q17.4 59.6 10.6 56.4 2.05 52.4 -2.2 59.0 M-5.6 57.9 L-6.05 57.7 Q-14.95 51.85 -25.5 52.35 -26.85 52.7 -27.65 53.75 -28.5 51.0 -31.0 49.8 L-31.25 49.65 Q-23.45 47.0 -15.6 48.95 -8.05 50.7 -5.6 57.9 M-43.1 209.3 Q-41.25 206.95 -40.2 204.35 -39.2 201.95 -39.0 199.25 -37.35 202.8 -33.25 202.25 -19.75 200.75 -19.95 187.9 L-19.7 188.3 -20.5 184.7 -13.15 177.5 Q-11.2 177.95 -9.5 178.9 3.65 186.15 8.2 201.65 L11.45 200.75 11.45 200.95 9.1 203.5 7.35 202.35 6.4 203.4 7.8 205.2 Q11.1 209.35 13.3 214.1 L3.95 216.95 2.3 213.5 Q2.05 210.9 1.1 208.45 -0.75 203.5 -4.45 199.65 -5.95 200.15 -7.3 200.85 L-12.25 203.75 Q-27.05 213.35 -27.35 213.35 -35.5 213.35 -43.1 209.3 M86.35 61.0 Q83.25 66.1 77.7 68.55 L75.5 69.4 Q50.5 51.55 19.8 50.0 L15.7 40.75 Q23.25 38.4 24.0 29.3 24.25 26.25 23.7 23.0 L25.8 25.4 Q24.75 32.95 23.85 40.6 L24.0 40.4 Q30.4 44.35 37.9 43.3 41.4 42.95 44.05 40.75 44.85 51.3 56.25 51.55 59.9 51.6 63.0 53.45 71.1 61.5 83.85 61.2 L86.35 61.0 M25.55 61.0 Q25.05 59.3 23.9 57.75 L21.65 54.65 Q40.75 50.3 50.5 67.75 L45.9 68.4 Q44.55 67.85 43.35 67.1 35.1 62.05 25.55 61.0 M16.2 213.1 L12.8 205.8 11.45 205.05 12.35 203.85 Q13.45 202.15 13.8 200.2 L21.4 196.9 Q36.4 190.85 41.55 175.45 43.15 176.75 43.5 178.75 44.7 185.95 37.75 190.55 L40.3 193.15 38.25 195.55 Q37.2 196.7 35.9 197.35 28.75 200.55 27.75 207.7 23.7 210.1 18.6 212.2 L16.2 213.1 M52.2 241.9 Q53.3 245.15 52.65 248.4 L52.25 250.2 45.85 244.9 Q49.25 243.5 52.2 241.9" fill="#d0d0d0" fill-rule="evenodd" stroke="none"/>
    <path d="M-113.3 48.1 L-116.2 42.35 -108.45 43.0 -64.1 46.55 -70.1 47.6 Q-89.45 47.05 -108.95 47.85 L-113.3 48.1" fill="#e7945c" fill-rule="evenodd" stroke="none"/>
    <path d="M-113.3 48.1 L-108.95 47.85 Q-89.45 47.05 -70.1 47.6 -87.3 51.5 -102.45 60.4 L-104.55 54.15 Q-105.15 52.05 -106.9 50.55 L-111.05 57.6 -113.3 48.1" fill="#ffcc99" fill-rule="evenodd" stroke="none"/>
    <path d="M-119.25 200.75 L-119.25 189.6 -115.75 181.85 -110.9 183.5 Q-115.75 191.35 -118.95 199.9 L-119.25 200.75 M-119.25 178.4 L-119.25 177.45 Q-117.1 178.95 -114.45 178.35 L-113.8 178.05 -104.95 165.65 Q-110.5 167.65 -115.1 171.3 L-119.25 161.95 -119.25 147.05 -113.1 157.7 -108.65 158.4 Q-106.45 155.55 -103.8 153.05 -99.25 148.8 -93.85 146.1 -97.4 166.1 -110.0 181.9 L-119.25 178.4 M77.4 146.75 L77.8 146.6 83.35 154.15 Q85.15 163.5 78.6 171.1 74.8 175.5 71.6 180.45 L68.35 185.6 Q74.0 186.95 79.85 186.6 71.35 191.65 61.7 192.05 L60.95 192.15 59.9 190.7 Q60.85 188.65 61.1 186.5 61.5 183.35 61.4 180.35 68.0 177.65 71.05 171.0 74.85 162.6 76.5 153.35 L77.4 146.75 M96.7 197.55 L98.4 200.3 Q85.95 207.8 71.9 211.8 68.35 202.95 62.9 194.95 L70.55 193.1 76.3 205.65 96.7 197.55" fill="#5e5e5e" fill-rule="evenodd" stroke="none"/>
    <path d="M-119.25 189.6 L-119.25 180.5 -115.75 181.85 -119.25 189.6 M-119.25 177.45 L-119.25 161.95 -115.1 171.3 Q-110.5 167.65 -104.95 165.65 L-113.8 178.05 -114.45 178.35 Q-117.1 178.95 -119.25 177.45 M77.4 146.75 L77.45 146.05 77.8 146.6 77.4 146.75 M83.35 154.15 Q89.55 161.8 92.35 171.15 92.9 173.0 92.5 174.8 91.05 181.1 90.2 187.35 L91.9 187.45 96.7 197.55 76.3 205.65 70.55 193.1 Q77.5 191.85 84.0 188.8 L84.65 188.5 84.8 186.75 79.85 186.6 Q74.0 186.95 68.35 185.6 L71.6 180.45 Q74.8 175.5 78.6 171.1 85.15 163.5 83.35 154.15" fill="#7b7b7b" fill-rule="evenodd" stroke="none"/>
    <path d="M103.85 257.15 L73.4 257.15 Q78.7 239.05 74.65 220.75 L73.4 215.8 73.85 215.4 73.5 215.75 94.35 207.45 Q99.95 225.25 103.15 243.45 104.35 250.35 103.85 257.15" fill="#3c3c3c" fill-rule="evenodd" stroke="none"/>
  </g>
</svg>
