<?xml version="1.0" encoding="UTF-8" standalone="no"?>
<svg xmlns:xlink="http://www.w3.org/1999/xlink" height="458.8px" width="229.05px" xmlns="http://www.w3.org/2000/svg">
  <g transform="matrix(1.0, 0.0, 0.0, 1.0, 113.25, 192.2)">
    <path d="M-113.25 -94.3 L-113.25 -111.0 -109.7 -102.8 -104.85 -111.95 -101.2 -110.25 -102.45 -116.85 -102.05 -116.35 -102.05 -117.35 -93.4 -130.1 -89.4 -127.45 -89.15 -135.0 -88.25 -135.15 -85.25 -130.95 -85.55 -140.1 -81.45 -144.05 Q-72.3 -152.85 -61.8 -160.15 L-58.65 -155.25 -56.7 -163.35 -40.85 -170.25 -41.25 -169.95 -40.1 -170.35 -37.9 -164.55 -35.95 -171.65 -32.1 -172.75 -24.35 -174.6 Q-20.3 -175.7 -16.45 -174.1 -3.6 -168.55 9.55 -163.5 9.8 -162.85 9.7 -162.2 5.95 -143.05 2.5 -123.75 L3.95 -123.05 Q5.95 -122.0 7.3 -120.2 7.85 -119.55 7.9 -118.7 8.05 -113.75 6.5 -109.15 L10.7 -108.0 Q17.75 -105.95 24.3 -102.75 30.1 -116.2 34.85 -129.9 44.55 -157.95 47.55 -187.35 49.3 -188.25 51.55 -188.7 L65.0 -192.2 68.4 -189.5 Q74.95 -184.35 80.75 -178.1 L80.3 -175.8 86.1 -168.85 94.45 -158.3 Q109.25 -138.65 114.7 -114.7 106.2 -131.35 95.95 -146.95 87.7 -159.5 78.75 -171.75 L73.95 -144.75 Q84.2 -135.25 92.35 -123.95 102.7 -109.55 110.9 -93.9 L115.3 -110.85 Q116.8 -85.65 104.15 -62.75 L96.45 -49.3 Q88.6 -35.8 78.45 -24.05 84.0 -9.25 86.5 6.3 96.15 12.3 104.25 20.4 L106.15 22.3 Q100.75 52.55 92.7 82.15 82.8 87.45 80.1 98.65 79.3 102.05 77.85 105.25 74.25 113.25 69.25 120.5 60.55 119.55 54.9 125.9 L50.8 130.6 Q73.75 147.7 78.8 175.25 79.7 180.1 78.5 185.05 83.25 191.7 85.6 199.3 L86.1 201.2 82.8 204.8 Q97.0 232.8 96.85 264.3 83.0 266.8 68.75 266.5 81.8 264.9 94.4 260.75 L86.3 226.05 80.1 206.6 Q65.65 217.75 48.25 223.0 L43.7 224.8 Q41.1 226.1 38.5 225.2 L38.85 228.6 Q40.55 247.55 40.9 266.5 L39.0 266.5 36.3 239.05 Q34.6 239.5 33.1 240.3 27.4 243.15 21.8 240.6 L21.05 240.9 22.3 242.75 Q28.45 253.0 26.2 264.35 L33.05 266.5 -113.25 266.6 -113.25 262.8 -104.8 261.4 -105.2 260.4 Q-105.3 258.5 -104.9 256.65 L-104.05 252.45 Q-102.55 245.15 -101.0 241.2 L-101.15 241.25 Q-101.45 241.1 -101.4 240.2 L-102.55 240.35 -106.35 239.75 -113.25 238.6 -113.25 237.15 -110.75 237.8 -102.95 237.9 -105.65 233.8 Q-106.9 231.15 -106.25 228.35 -102.55 211.95 -97.85 195.8 L-96.35 191.8 -96.85 191.8 Q-102.05 191.35 -106.95 189.85 L-108.15 189.35 -113.25 222.15 -113.25 196.4 -110.2 179.8 -113.25 181.15 -113.25 178.5 -111.65 177.6 -109.85 178.25 Q-105.45 153.3 -94.1 130.7 L-94.6 130.7 -113.25 117.65 -113.25 111.85 -93.95 124.75 Q-95.75 110.95 -97.95 97.15 -99.7 86.3 -100.05 75.35 -100.35 66.9 -98.85 58.55 -100.25 56.15 -100.1 53.55 -98.15 21.85 -81.3 -4.95 -78.95 -8.65 -75.25 -11.25 L-75.1 -10.8 -67.9 -20.7 Q-60.8 -30.3 -52.9 -38.95 L-52.55 -39.35 Q-40.1 -52.45 -26.25 -64.15 L-25.15 -65.05 Q-6.3 -79.95 16.35 -88.25 L20.7 -89.9 Q35.3 -79.75 47.55 -67.05 55.2 -58.75 61.9 -49.8 58.95 -63.35 51.4 -75.1 45.8 -83.9 37.2 -90.0 L37.05 -90.1 Q23.2 -97.25 9.1 -103.8 6.45 -105.0 3.6 -105.6 -19.15 -110.95 -42.1 -105.85 -66.2 -100.65 -84.25 -84.1 -88.55 -80.2 -91.1 -75.5 L-91.25 -74.45 -90.35 -74.0 -90.5 -73.5 -87.05 -66.3 -84.3 -60.2 Q-101.65 -49.7 -113.25 -33.35 L-113.25 -39.2 -104.4 -49.5 -106.9 -52.3 -113.25 -44.8 -113.25 -48.4 Q-110.05 -51.95 -107.85 -53.45 L-113.25 -60.25 -113.25 -64.8 -101.65 -50.8 Q-94.6 -56.75 -86.9 -61.9 -90.55 -66.95 -93.6 -72.45 -95.65 -76.05 -98.35 -79.4 -106.55 -89.7 -113.2 -101.15 -103.25 -80.45 -88.85 -62.95 -92.3 -64.6 -95.55 -68.05 -106.5 -79.8 -113.25 -94.3 M-113.25 88.9 L-113.25 82.4 Q-105.05 58.85 -105.75 33.9 L-105.8 31.75 -113.25 32.2 -113.25 30.45 -105.75 30.0 Q-104.8 19.0 -107.1 8.05 -109.75 -4.75 -113.25 -17.4 L-113.25 -25.55 Q-103.75 -2.45 -103.2 22.8 -102.65 47.35 -107.5 71.45 -109.35 80.65 -113.25 88.9 M39.0 -92.05 L49.65 -82.1 Q58.15 -96.3 63.6 -112.1 74.45 -143.75 77.0 -177.0 75.3 -178.65 73.85 -180.45 69.95 -185.05 64.6 -188.05 L50.65 -184.7 50.65 -183.5 Q50.7 -173.35 48.25 -163.25 L46.4 -154.85 Q41.0 -130.8 31.55 -108.15 L27.1 -99.85 39.0 -92.05 M-30.55 -128.1 L-28.45 -127.9 Q-14.35 -127.5 -0.95 -123.7 1.1 -142.8 7.05 -160.95 L4.3 -161.55 Q-8.95 -165.75 -21.65 -171.45 L-23.35 -171.1 -24.1 -170.95 -24.3 -170.9 -32.45 -168.9 -33.2 -168.7 -35.1 -168.0 -37.35 -161.25 -37.55 -160.75 Q-39.65 -161.8 -39.75 -165.3 L-40.1 -166.55 -43.75 -165.2 -45.8 -164.35 Q-51.35 -162.5 -55.8 -159.15 L-56.45 -148.4 -57.05 -147.85 -60.9 -155.25 -61.1 -155.5 -61.4 -156.0 -64.15 -153.95 -65.75 -152.8 -82.95 -137.65 -83.95 -136.4 -83.95 -130.0 -84.2 -127.5 -85.75 -127.95 -86.15 -128.35 -87.45 -130.05 -88.0 -124.3 -91.45 -126.15 -91.95 -126.3 -93.65 -123.8 -94.2 -123.15 -98.5 -116.05 -99.35 -114.6 -100.15 -113.2 -98.45 -105.9 -102.75 -108.55 -108.15 -98.15 -99.3 -85.35 Q-87.9 -97.65 -74.2 -107.25 -54.1 -121.4 -30.55 -128.1 M-28.6 -110.8 Q-13.15 -111.7 2.0 -108.75 L3.6 -117.6 Q1.6 -120.05 -1.6 -121.0 -14.05 -124.55 -26.9 -125.1 L-29.05 -125.2 -30.75 -110.55 -28.6 -110.8 M73.7 -143.3 Q71.85 -130.55 67.7 -118.35 89.85 -97.15 102.35 -69.15 106.95 -80.35 110.45 -92.05 L109.25 -94.15 Q97.1 -115.45 81.15 -134.15 L73.7 -143.3 M52.05 -81.5 L51.45 -80.4 Q57.2 -72.25 61.0 -63.2 64.15 -55.65 63.65 -47.45 L76.6 -27.6 83.6 -36.3 Q70.8 -60.9 52.05 -81.5 M67.5 -117.6 Q65.5 -110.05 62.55 -102.85 L60.85 -98.75 Q77.95 -81.25 89.6 -59.8 L93.6 -52.55 Q98.55 -59.55 101.7 -67.6 90.5 -89.1 75.6 -107.85 L67.5 -117.6 M60.0 -96.65 L52.9 -82.95 Q72.15 -62.8 84.9 -38.25 L92.65 -50.3 89.95 -55.2 Q78.7 -75.45 63.6 -92.85 L60.0 -96.65 M50.7 -58.7 Q43.85 -67.8 34.55 -74.85 L19.6 -86.05 Q-3.65 -76.45 -23.6 -61.35 L-28.3 -57.55 Q-39.3 -48.4 -49.15 -37.95 L-52.55 -34.25 -69.35 -14.95 -54.75 -18.75 -51.7 -19.35 -37.95 -21.2 -38.85 -23.0 Q-40.4 -26.25 -41.0 -29.9 L-41.0 -30.0 Q-37.4 -28.5 -35.05 -25.0 L-31.2 -19.3 -29.1 -21.95 -12.45 -21.95 7.4 -19.9 Q3.05 -31.9 -3.9 -42.7 L-2.4 -42.45 11.1 -24.15 14.65 -18.8 15.25 -18.6 15.35 -15.0 16.1 -14.85 22.0 -18.0 21.95 -17.35 Q36.45 -14.25 50.5 -9.65 47.15 -25.35 37.2 -38.0 L39.2 -36.45 52.1 -23.15 58.45 -12.1 61.8 -6.05 61.95 -4.05 65.7 -4.0 82.65 3.95 Q78.75 -12.6 71.05 -27.6 62.55 -44.1 50.7 -58.7 M12.25 -19.4 L12.05 -19.6 Q8.9 -26.65 3.4 -31.95 L8.65 -19.75 12.25 -19.4 M18.65 -13.5 L16.8 -12.5 21.3 -0.25 Q30.8 26.75 34.5 55.2 L36.05 55.2 Q36.95 49.85 36.2 44.45 31.95 14.7 20.95 -13.05 L18.65 -13.5 M31.5 46.35 Q27.8 22.15 18.7 -0.7 15.8 -7.95 11.9 -14.75 -1.7 -17.25 -15.6 -17.8 L-26.05 -17.6 -27.15 -17.55 -27.4 -17.55 -28.4 -18.75 -28.6 -18.15 Q-19.55 0.8 -14.45 21.3 L-14.7 23.75 -15.45 23.9 -17.8 17.55 -33.4 -17.1 -56.75 -13.05 -59.55 -12.5 -75.85 -7.7 Q-86.6 6.15 -91.5 23.1 -96.1 38.9 -95.8 55.3 L-94.4 57.05 Q-78.35 50.55 -60.85 48.85 -19.45 44.45 21.3 52.45 L32.2 54.6 31.5 46.35 M23.55 -12.9 L22.25 -14.6 22.7 -12.65 21.65 -12.9 23.6 -9.7 31.9 18.35 Q35.25 30.95 37.2 41.85 L37.95 48.1 39.7 56.3 Q61.95 60.8 79.65 74.2 83.15 76.9 84.45 80.9 L89.55 77.65 Q97.75 52.2 100.6 25.55 87.0 8.35 66.5 -0.05 L69.2 9.6 69.9 14.25 70.5 30.7 70.5 37.55 69.1 43.85 68.35 43.85 66.3 29.7 Q63.45 12.0 55.55 -4.15 40.5 -8.95 25.15 -12.2 L24.85 -12.7 23.55 -12.9 M65.3 -0.55 L63.35 -1.3 Q61.4 -2.45 59.1 -1.55 67.3 15.85 68.95 35.1 70.3 16.9 65.3 -0.55 M52.4 -9.05 L60.2 -6.25 Q57.15 -14.7 51.4 -21.25 L47.45 -25.35 52.4 -9.05 M-33.0 -110.45 L-32.35 -124.8 Q-44.0 -121.5 -54.7 -115.7 -78.55 -102.75 -97.55 -83.2 L-93.95 -78.9 Q-82.35 -90.55 -68.0 -98.3 -51.5 -107.35 -33.0 -110.45 M-19.1 -89.65 L-18.55 -89.1 Q-17.75 -83.35 -23.3 -81.75 -25.25 -81.2 -26.55 -82.7 -25.25 -84.45 -23.15 -85.3 -20.15 -86.4 -20.45 -89.5 L-19.1 -89.65 M-41.55 -90.35 Q-40.65 -87.05 -42.95 -84.0 L-43.45 -83.45 -45.65 -83.45 -48.95 -84.55 Q-47.5 -86.15 -45.15 -85.65 L-43.85 -85.55 Q-43.5 -87.5 -42.75 -89.15 -42.25 -90.2 -41.55 -90.35 M-29.35 -17.4 L-32.6 -17.15 Q-24.25 -4.35 -18.95 9.9 L-19.35 8.1 Q-22.35 -5.45 -29.35 -17.4 M-34.4 -21.85 Q-34.2 -23.05 -34.65 -24.05 L-35.0 -24.75 -37.4 -24.5 -37.55 -22.1 -36.75 -21.4 -34.4 -21.85 M32.25 65.5 Q31.85 61.9 29.2 59.45 L28.4 58.7 28.9 58.45 Q-10.5 48.25 -50.85 51.55 -69.05 53.25 -86.65 57.65 -90.6 58.55 -93.7 60.75 -96.05 62.5 -96.45 65.45 -98.45 80.15 -93.65 94.1 -62.1 86.7 -29.7 89.65 L-13.25 90.9 Q11.25 93.25 35.35 98.65 L34.95 88.1 32.25 65.5 M-81.75 137.4 L-90.5 131.9 -95.1 142.95 -81.75 137.4 M-97.4 151.7 Q-99.45 161.6 -100.35 171.6 L-97.45 173.85 -92.35 177.25 Q-86.3 180.1 -80.05 182.5 -75.9 184.15 -71.55 185.3 L-67.6 185.9 -79.95 185.4 Q-91.55 182.6 -100.2 174.25 L-100.55 173.8 -100.65 174.7 -101.65 180.6 -101.85 181.95 -101.05 182.35 -97.0 187.65 -96.7 188.1 -93.65 188.4 -45.7 188.65 -43.75 189.35 -43.6 190.1 -43.55 189.05 Q-43.0 178.2 -40.3 167.75 L-43.5 156.6 Q-62.4 150.3 -78.9 139.15 L-96.35 145.95 -97.4 151.7 M-101.45 186.2 Q-105.05 182.15 -103.8 176.6 -102.8 172.35 -102.4 168.0 L-101.7 159.3 Q-106.9 172.1 -107.75 186.2 L-108.0 188.1 -98.45 189.95 -101.45 186.2 M-75.2 191.0 L-94.85 191.75 -96.25 197.35 -104.25 229.3 -98.65 229.7 -94.2 230.65 -103.1 230.35 -104.35 230.0 -104.4 230.7 -104.45 231.15 -98.95 237.3 Q-87.7 232.5 -75.25 232.5 L-47.75 232.3 -47.55 227.6 -44.5 199.45 -43.85 192.1 -59.05 190.8 -75.2 191.0 M-84.0 201.55 L-80.8 200.6 -80.3 197.1 -78.6 196.05 Q-77.5 200.95 -81.8 203.3 -83.7 204.3 -84.5 203.1 L-84.0 201.55 M-36.7 158.95 L-40.25 157.7 -39.2 164.55 -36.7 158.95 M-43.9 227.9 L-44.05 232.25 Q-25.5 232.35 -7.15 234.3 6.15 235.3 18.5 240.0 L18.3 239.6 19.95 240.1 25.4 234.4 22.65 234.9 17.65 235.35 12.6 235.05 11.6 234.75 10.8 234.45 25.45 233.3 25.3 228.35 Q24.35 213.75 19.95 199.7 L18.1 198.95 18.35 198.6 2.35 198.1 Q-19.6 194.05 -41.8 193.0 L-42.45 200.55 -43.9 227.9 M34.8 115.7 L33.0 120.8 35.05 103.3 28.95 101.95 Q-31.65 87.85 -93.25 96.7 -94.65 112.35 -89.5 127.45 -48.55 154.3 -0.7 164.6 9.85 159.9 19.1 153.0 40.65 137.0 57.6 116.0 58.45 114.95 57.8 114.1 50.3 104.75 37.6 104.15 L36.8 109.55 34.8 115.7 M-0.15 169.3 Q-17.25 166.55 -33.6 160.65 -40.85 174.3 -41.45 189.8 -10.7 191.7 19.5 197.1 L19.9 194.85 21.25 194.7 Q23.55 192.25 25.35 189.3 27.5 185.7 28.4 181.8 L24.85 183.75 Q7.65 192.7 -11.25 187.9 10.05 190.2 28.55 179.65 27.2 169.7 23.8 160.1 L21.25 159.55 19.1 158.4 Q9.95 164.75 -0.15 169.3 M-16.55 209.05 L-19.3 212.35 -21.25 210.95 -20.35 209.8 -18.95 209.65 Q-17.35 207.8 -18.1 204.95 L-17.6 205.35 -17.55 206.35 -17.2 206.1 -16.55 206.4 -16.55 209.05 M-37.65 234.55 L-39.1 234.5 -44.1 234.45 -44.35 240.85 -44.5 246.5 -44.7 256.75 -3.5 259.55 Q10.1 261.05 23.35 263.85 L24.2 259.85 18.5 259.1 24.0 258.3 19.0 241.6 4.35 238.65 2.25 238.25 Q-11.2 236.0 -25.1 235.05 L-37.65 234.55 M-60.3 207.35 L-59.1 206.55 Q-58.35 208.3 -59.6 209.95 -61.85 213.0 -65.3 211.45 L-64.35 210.6 -63.85 210.6 Q-60.45 210.65 -60.3 207.35 M-78.95 246.05 Q-77.75 246.05 -76.9 244.95 -76.1 243.8 -76.1 242.25 L-75.1 241.6 -74.45 241.95 -74.65 245.5 -75.2 245.7 Q-77.0 246.55 -78.95 246.05 M-90.85 236.65 Q-94.45 237.25 -97.3 239.25 L-97.65 239.55 Q-98.45 246.5 -100.7 253.35 L-101.35 255.7 -100.35 255.25 -97.55 255.95 -98.9 256.45 -100.35 256.75 -101.45 256.65 -102.8 261.1 Q-75.35 257.85 -47.65 256.7 L-48.05 248.7 -48.0 240.9 -47.85 234.45 -52.5 234.5 -77.7 235.25 -90.85 236.65 M36.05 60.2 Q36.3 60.95 36.15 60.25 L36.05 60.2 M38.8 93.1 L38.75 99.6 Q49.1 102.0 58.5 106.75 63.75 109.3 62.1 114.5 L63.05 114.9 64.2 114.15 64.55 114.45 Q66.8 114.15 67.95 112.05 75.05 98.95 81.05 85.5 77.6 77.95 70.3 73.7 55.3 65.0 38.6 60.9 L39.45 66.25 39.25 66.7 39.45 67.8 39.75 69.6 39.3 70.65 Q40.6 79.5 39.6 88.35 L39.45 89.4 38.8 93.1 M35.15 60.0 L31.9 59.1 Q36.65 76.9 37.35 95.35 L38.6 80.75 Q39.65 69.6 35.15 60.0 M35.45 98.7 Q35.25 96.85 35.4 98.7 L35.45 98.7 M46.85 135.55 Q37.2 145.15 25.5 152.05 33.75 172.9 36.8 195.3 L43.1 195.6 40.2 196.1 Q39.45 196.35 38.75 196.7 38.05 197.0 37.4 197.45 L38.15 220.2 Q59.45 218.6 77.3 206.15 80.35 204.05 82.05 200.7 L83.25 200.1 75.45 188.2 Q63.8 194.35 50.35 195.2 64.35 193.0 73.75 183.5 74.8 182.5 75.2 180.95 77.5 171.85 72.95 163.7 63.4 146.65 48.4 134.15 L47.5 135.5 46.85 135.55 M23.85 195.35 L22.7 196.55 22.95 198.0 32.35 196.45 Q32.8 188.3 30.45 180.7 29.95 189.2 23.85 195.35 M22.6 154.5 L21.0 156.1 23.3 157.85 22.6 154.5 M23.1 199.05 L26.1 213.95 Q28.15 224.55 28.4 235.55 L23.75 239.45 36.2 237.8 34.05 208.85 Q33.7 203.3 32.55 198.05 29.35 199.5 25.8 199.35 L23.1 199.05" fill="#000000" fill-rule="evenodd" stroke="none"/>
    <path d="M114.7 -114.7 L115.8 -112.85 115.3 -110.85 110.9 -93.9 Q102.7 -109.55 92.35 -123.95 84.2 -135.25 73.95 -144.75 L78.75 -171.75 Q87.7 -159.5 95.95 -146.95 106.2 -131.35 114.7 -114.7 M-113.25 -39.2 L-113.25 -44.8 -106.9 -52.3 -104.4 -49.5 -113.25 -39.2 M-23.35 -171.1 L-21.65 -171.45 Q-8.95 -165.75 4.3 -161.55 L7.05 -160.95 Q1.1 -142.8 -0.95 -123.7 -14.35 -127.5 -28.45 -127.9 L-30.55 -128.1 -30.15 -130.85 -29.65 -130.0 Q-24.1 -149.75 -22.75 -170.6 L-23.35 -171.1 M-24.3 -170.9 L-24.1 -170.95 -24.3 -170.75 -24.3 -170.9 M67.5 -117.6 L75.6 -107.85 Q90.5 -89.1 101.7 -67.6 98.55 -59.55 93.6 -52.55 L89.6 -59.8 Q77.95 -81.25 60.85 -98.75 L62.55 -102.85 Q65.5 -110.05 67.5 -117.6 M52.05 -81.5 Q70.8 -60.9 83.6 -36.3 L76.6 -27.6 63.65 -47.45 Q64.15 -55.65 61.0 -63.2 57.2 -72.25 51.45 -80.4 L52.05 -81.5" fill="#1e1e1e" fill-rule="evenodd" stroke="none"/>
    <path d="M39.0 266.5 L33.05 266.5 26.2 264.35 Q28.45 253.0 22.3 242.75 L21.05 240.9 21.8 240.6 Q27.4 243.15 33.1 240.3 34.6 239.5 36.3 239.05 L39.0 266.5 M-113.25 262.8 L-113.25 258.7 Q-109.9 257.55 -104.9 256.65 -105.3 258.5 -105.2 260.4 L-104.8 261.4 -113.25 262.8 M-113.25 237.15 L-113.25 233.4 -105.65 233.8 -102.95 237.9 -110.75 237.8 -113.25 237.15 M-113.25 111.85 L-113.25 99.85 -103.55 106.05 -102.75 105.45 Q-100.95 89.05 -104.35 72.75 L-105.85 77.15 Q-109.0 86.15 -113.25 94.75 L-113.25 88.9 Q-109.35 80.65 -107.5 71.45 -102.65 47.35 -103.2 22.8 -103.75 -2.45 -113.25 -25.55 L-113.25 -33.35 Q-101.65 -49.7 -84.3 -60.2 L-87.05 -66.3 -85.15 -67.05 Q-73.45 -48.15 -53.0 -39.5 L-52.9 -38.95 Q-60.8 -30.3 -67.9 -20.7 L-75.1 -10.8 -75.25 -11.25 Q-78.95 -8.65 -81.3 -4.95 -98.15 21.85 -100.1 53.55 -100.25 56.15 -98.85 58.55 -100.35 66.9 -100.05 75.35 -99.7 86.3 -97.95 97.15 -95.75 110.95 -93.95 124.75 L-113.25 111.85 M-113.25 82.4 L-113.25 74.9 -108.5 60.3 -107.55 60.05 Q-110.05 55.4 -113.25 51.4 L-113.25 32.2 -105.8 31.75 -105.75 33.9 Q-105.05 58.85 -113.25 82.4 M-113.25 30.45 L-113.25 -17.4 Q-109.75 -4.75 -107.1 8.05 -104.8 19.0 -105.75 30.0 L-113.25 30.45 M-113.25 -48.4 L-113.25 -60.25 -107.85 -53.45 Q-110.05 -51.95 -113.25 -48.4 M-113.25 -64.8 L-113.25 -94.3 Q-106.5 -79.8 -95.55 -68.05 -92.3 -64.6 -88.85 -62.95 -103.25 -80.45 -113.2 -101.15 -106.55 -89.7 -98.35 -79.4 -95.65 -76.05 -93.6 -72.45 -90.55 -66.95 -86.9 -61.9 -94.6 -56.75 -101.65 -50.8 L-113.25 -64.8 M62.1 -162.2 Q64.95 -174.05 65.0 -186.1 L64.55 -186.05 64.6 -188.05 Q69.95 -185.05 73.85 -180.45 75.3 -178.65 77.0 -177.0 74.45 -143.75 63.6 -112.1 58.15 -96.3 49.65 -82.1 L39.0 -92.05 39.7 -93.1 Q39.65 -92.45 40.2 -92.4 L40.8 -92.4 Q54.1 -117.1 59.15 -144.85 L59.7 -147.35 Q61.7 -154.7 62.1 -162.2 M47.55 -67.05 L47.1 -68.05 Q43.4 -79.6 37.2 -89.95 L37.2 -90.0 Q45.8 -83.9 51.4 -75.1 58.95 -63.35 61.9 -49.8 55.2 -58.75 47.55 -67.05 M-26.9 -125.1 Q-14.05 -124.55 -1.6 -121.0 1.6 -120.05 3.6 -117.6 L2.0 -108.75 Q-13.15 -111.7 -28.6 -110.8 -26.55 -115.2 -26.1 -119.9 L-25.45 -120.55 -25.35 -121.1 Q-25.05 -123.55 -26.9 -125.1 M73.7 -143.3 L81.15 -134.15 Q97.1 -115.45 109.25 -94.15 L110.45 -92.05 Q106.95 -80.35 102.35 -69.15 89.85 -97.15 67.7 -118.35 71.85 -130.55 73.7 -143.3 M60.0 -96.65 L63.6 -92.85 Q78.7 -75.45 89.95 -55.2 L92.65 -50.3 84.9 -38.25 Q72.15 -62.8 52.9 -82.95 L60.0 -96.65 M50.7 -58.7 Q62.55 -44.1 71.05 -27.6 78.75 -12.6 82.65 3.95 L65.7 -4.0 64.4 -12.55 Q60.7 -36.6 50.7 -58.7 M-54.75 -18.75 L-69.35 -14.95 -52.55 -34.25 -51.75 -22.2 -54.75 -18.75 M12.25 -19.4 L8.65 -19.75 3.4 -31.95 Q8.9 -26.65 12.05 -19.6 L12.25 -19.4 M18.65 -13.5 L20.95 -13.05 Q31.95 14.7 36.2 44.45 36.95 49.85 36.05 55.2 L34.5 55.2 Q30.8 26.75 21.3 -0.25 L16.8 -12.5 18.65 -13.5 M-19.2 40.5 L-15.75 40.75 Q8.2 42.3 31.5 46.35 L32.2 54.6 21.3 52.45 Q-19.45 44.45 -60.85 48.85 -78.35 50.55 -94.4 57.05 L-95.8 55.3 Q-96.1 38.9 -91.5 23.1 -86.6 6.15 -75.85 -7.7 L-59.55 -12.5 Q-73.65 8.35 -76.75 33.5 L-78.5 47.65 -61.15 43.85 -59.0 43.6 Q-39.35 39.8 -19.2 40.5 M38.2 48.15 L38.9 50.85 39.55 49.8 40.8 49.45 40.8 48.95 49.8 51.9 50.5 51.7 61.15 55.3 62.8 49.0 Q65.15 39.65 66.3 29.7 L68.35 43.85 69.1 43.85 70.5 37.55 Q74.05 25.15 72.55 12.6 L72.2 10.55 71.0 4.8 70.7 2.25 69.95 2.15 69.45 1.35 68.6 2.15 68.5 3.95 68.5 4.15 69.0 7.75 69.2 9.6 66.5 -0.05 Q87.0 8.35 100.6 25.55 97.75 52.2 89.55 77.65 L84.45 80.9 Q83.15 76.9 79.65 74.2 61.95 60.8 39.7 56.3 L37.95 48.1 38.2 48.15 M70.5 30.7 L69.9 14.25 71.0 23.15 70.5 30.7 M52.4 -9.05 L47.45 -25.35 51.4 -21.25 Q57.15 -14.7 60.2 -6.25 L52.4 -9.05 M65.3 -0.55 Q70.3 16.9 68.95 35.1 67.3 15.85 59.1 -1.55 61.4 -2.45 63.35 -1.3 L65.3 -0.55 M-23.3 -81.75 Q-27.0 -79.35 -30.4 -81.05 L-31.15 -82.95 -26.6 -85.6 -26.3 -86.2 Q-23.9 -88.8 -22.0 -91.85 L-21.3 -91.7 Q-19.2 -92.05 -19.05 -90.4 L-19.1 -89.65 -20.45 -89.5 Q-20.15 -86.4 -23.15 -85.3 -25.25 -84.45 -26.55 -82.7 -25.25 -81.2 -23.3 -81.75 M-41.35 -93.1 L-41.6 -91.9 -41.7 -90.85 -41.55 -90.35 Q-42.25 -90.2 -42.75 -89.15 -43.5 -87.5 -43.85 -85.55 L-45.15 -85.65 Q-47.5 -86.15 -48.95 -84.55 L-45.65 -83.45 Q-48.65 -82.9 -51.6 -83.85 L-52.05 -84.05 Q-48.0 -89.3 -43.35 -93.5 L-42.7 -92.8 -41.35 -93.1 M-34.4 -21.85 L-36.75 -21.4 -37.55 -22.1 -37.4 -24.5 -35.0 -24.75 -34.65 -24.05 Q-34.2 -23.05 -34.4 -21.85 M-29.35 -17.4 Q-22.35 -5.45 -19.35 8.1 L-18.95 9.9 Q-24.25 -4.35 -32.6 -17.15 L-29.35 -17.4 M-58.7 84.85 L-24.5 85.1 Q0.65 86.25 25.4 91.0 L34.75 92.55 34.95 88.1 35.35 98.65 Q11.25 93.25 -13.25 90.9 L-29.7 89.65 Q-62.1 86.7 -93.65 94.1 -98.45 80.15 -96.45 65.45 -96.05 62.5 -93.7 60.75 -90.6 58.55 -86.65 57.65 -69.05 53.25 -50.85 51.55 -10.5 48.25 28.9 58.45 L28.4 58.7 29.2 59.45 Q31.85 61.9 32.25 65.5 9.55 60.45 -13.7 57.4 L-20.55 56.65 Q-39.55 54.75 -58.25 57.75 L-60.3 57.95 -90.0 63.5 Q-92.65 69.3 -93.15 76.0 -93.65 82.65 -91.15 88.75 L-58.7 84.85 M-26.7 98.2 L-55.5 97.75 -89.9 98.6 -90.4 111.8 -53.65 128.95 Q-30.25 139.65 -5.15 137.45 -0.6 136.95 3.2 134.7 20.35 124.45 33.55 109.6 28.3 107.55 22.75 106.15 -1.6 99.9 -26.7 98.2 M-81.75 137.4 L-95.1 142.95 -90.5 131.9 -81.75 137.4 M-93.3 156.1 L-97.4 151.7 -96.35 145.95 -78.9 139.15 Q-62.4 150.3 -43.5 156.6 L-40.3 167.75 Q-43.0 178.2 -43.55 189.05 -44.1 188.75 -44.6 188.55 L-45.7 188.65 -93.65 188.4 -97.0 187.65 -101.05 182.35 -101.65 180.6 -100.65 174.7 -100.2 174.25 Q-91.55 182.6 -79.95 185.4 L-67.6 185.9 -71.55 185.3 Q-63.9 185.75 -56.05 185.1 L-54.65 184.9 -54.35 183.65 Q-67.95 176.05 -80.15 166.7 -88.6 160.45 -93.3 156.1 M-97.45 173.85 Q-95.35 174.45 -92.35 177.25 L-97.45 173.85 M-101.45 186.2 L-98.45 189.95 -108.0 188.1 -107.75 186.2 -107.6 186.1 Q-104.55 185.2 -101.45 186.2 M-96.85 191.8 L-96.35 191.8 -97.85 195.8 -98.0 195.65 Q-98.05 193.35 -96.85 191.8 M-96.25 197.35 L-94.85 191.75 -75.2 191.0 -75.3 191.05 -76.55 191.1 Q-83.55 191.15 -89.75 194.1 -93.4 195.8 -96.0 197.65 L-96.25 197.35 M-59.05 190.8 L-43.85 192.1 -44.5 199.45 Q-46.35 195.35 -50.25 194.35 -54.9 193.3 -59.05 190.8 M-47.55 227.6 L-47.75 232.3 -75.25 232.5 Q-87.7 232.5 -98.95 237.3 L-104.45 231.15 -104.4 230.7 -103.1 230.35 -94.2 230.65 -98.65 229.7 -97.35 229.6 Q-72.4 226.75 -47.55 227.6 M-85.3 200.8 Q-81.9 200.9 -82.0 197.25 L-82.1 195.9 -82.1 195.75 Q-81.35 195.75 -80.8 196.15 -80.3 196.55 -80.3 197.1 L-80.8 200.6 -84.0 201.55 -85.5 201.1 -85.95 200.75 -85.3 200.8 M-36.7 158.95 L-39.2 164.55 -40.25 157.7 -36.7 158.95 M-23.7 197.95 L-34.45 197.2 -39.3 197.25 -42.45 200.55 -41.8 193.0 Q-19.6 194.05 2.35 198.1 L18.35 198.6 18.1 198.95 19.95 199.7 Q24.35 213.75 25.3 228.35 L25.45 233.3 10.8 234.45 11.6 234.75 12.6 235.05 17.65 235.35 22.65 234.9 25.4 234.4 19.95 240.1 18.3 239.6 18.5 240.0 Q6.15 235.3 -7.15 234.3 -25.5 232.35 -44.05 232.25 L-43.9 227.9 Q-19.85 228.95 3.95 228.75 6.5 228.75 7.4 226.35 9.95 219.85 9.4 212.9 L6.8 208.9 -23.7 197.95 M-0.15 169.3 Q9.95 164.75 19.1 158.4 L21.25 159.55 23.8 160.1 Q27.2 169.7 28.55 179.65 10.05 190.2 -11.25 187.9 7.65 192.7 24.85 183.75 L28.4 181.8 Q27.5 185.7 25.35 189.3 23.55 192.25 21.25 194.7 L19.9 194.85 19.5 197.1 Q-10.7 191.7 -41.45 189.8 -40.85 174.3 -33.6 160.65 -17.25 166.55 -0.15 169.3 M36.8 109.55 L37.6 104.15 Q50.3 104.75 57.8 114.1 58.45 114.95 57.6 116.0 40.65 137.0 19.1 153.0 9.85 159.9 -0.7 164.6 -48.55 154.3 -89.5 127.45 -94.65 112.35 -93.25 96.7 -31.65 87.85 28.95 101.95 L35.05 103.3 33.0 120.8 34.8 115.7 33.6 120.15 Q39.0 117.25 41.1 111.35 41.4 110.5 41.2 109.75 40.65 107.25 37.55 106.75 L36.8 109.55 M-20.35 209.8 L-24.35 208.8 -23.6 208.9 -19.1 206.05 -19.2 203.9 -18.2 204.35 -18.1 204.95 Q-17.35 207.8 -18.95 209.65 L-20.35 209.8 M4.35 238.65 L19.0 241.6 24.0 258.3 18.5 259.1 24.2 259.85 23.35 263.85 Q10.1 261.05 -3.5 259.55 L-44.7 256.75 -44.5 246.5 -41.7 252.3 -13.75 254.1 -4.65 253.45 Q6.35 251.4 4.35 238.65 M-44.35 240.85 L-44.1 234.45 -39.1 234.5 Q-39.45 235.9 -40.95 237.25 -43.1 239.2 -44.35 240.85 M-64.35 210.6 L-66.95 210.0 -67.0 208.7 Q-64.35 209.3 -62.1 208.1 -61.7 207.95 -61.5 207.4 L-61.3 206.95 -62.5 204.85 Q-60.85 205.1 -60.45 206.7 L-60.3 207.35 Q-60.45 210.65 -63.85 210.6 L-64.35 210.6 M-78.95 246.05 Q-82.45 246.6 -83.45 243.35 -80.55 244.0 -78.45 241.9 -77.3 240.8 -77.8 239.35 L-76.1 240.25 -76.1 242.25 Q-76.1 243.8 -76.9 244.95 -77.75 246.05 -78.95 246.05 M-100.7 253.35 L-99.0 255.4 -68.7 254.1 Q-57.8 253.5 -48.05 248.7 L-47.65 256.7 Q-75.35 257.85 -102.8 261.1 L-101.45 256.65 -100.35 256.75 -98.9 256.45 -97.55 255.95 -100.35 255.25 -101.35 255.7 -100.7 253.35 M-48.0 240.9 L-52.5 234.5 -47.85 234.45 -48.0 240.9 M-106.35 239.75 L-102.55 240.35 -101.4 240.2 Q-101.45 241.1 -101.15 241.25 L-101.0 241.2 Q-102.55 245.15 -104.05 252.45 L-106.35 239.75 M35.15 60.0 Q39.65 69.6 38.6 80.75 L37.35 95.35 Q36.65 76.9 31.9 59.1 L35.15 60.0 M39.45 67.8 L39.25 66.7 39.45 66.25 38.6 60.9 Q55.3 65.0 70.3 73.7 77.6 77.95 81.05 85.5 75.05 98.95 67.95 112.05 66.8 114.15 64.55 114.45 L64.2 114.15 63.05 114.9 62.1 114.5 Q63.75 109.3 58.5 106.75 49.1 102.0 38.75 99.6 L38.8 93.1 46.3 93.95 Q52.9 84.9 56.0 74.1 49.25 70.85 41.95 68.6 L41.55 67.85 40.95 68.3 39.45 67.8 M35.45 98.7 L35.4 98.7 Q35.25 96.85 35.45 98.7 M22.6 154.5 L23.3 157.85 21.0 156.1 22.6 154.5 M23.85 195.35 Q29.95 189.2 30.45 180.7 32.8 188.3 32.35 196.45 L22.95 198.0 22.7 196.55 23.85 195.35 M23.1 199.05 L25.8 199.35 Q29.35 199.5 32.55 198.05 33.7 203.3 34.05 208.85 L36.2 237.8 23.75 239.45 28.4 235.55 Q28.15 224.55 26.1 213.95 L23.1 199.05" fill="#374433" fill-rule="evenodd" stroke="none"/>
    <path d="M-113.25 258.7 L-113.25 238.6 -106.35 239.75 -104.05 252.45 -104.9 256.65 Q-109.9 257.55 -113.25 258.7 M-113.25 233.4 L-113.25 222.15 -108.15 189.35 -106.95 189.85 Q-102.05 191.35 -96.85 191.8 -98.05 193.35 -98.0 195.65 L-97.85 195.8 Q-102.55 211.95 -106.25 228.35 -106.9 231.15 -105.65 233.8 L-113.25 233.4 M-113.25 99.85 L-113.25 94.75 Q-109.0 86.15 -105.85 77.15 L-104.35 72.75 Q-100.95 89.05 -102.75 105.45 L-103.55 106.05 -113.25 99.85 M-113.25 74.9 L-113.25 51.4 Q-110.05 55.4 -107.55 60.05 L-108.5 60.3 -113.25 74.9 M39.7 -93.1 L39.0 -92.05 27.1 -99.85 31.55 -108.15 Q36.1 -109.25 42.75 -114.3 46.7 -117.35 49.9 -120.6 L39.7 -93.1 M64.6 -188.05 L64.55 -186.05 63.1 -184.3 Q63.0 -181.95 62.1 -176.85 L61.35 -174.05 Q58.55 -166.0 49.8 -163.6 L48.25 -163.25 Q50.7 -173.35 50.65 -183.5 L50.65 -184.7 64.6 -188.05 M-87.05 -66.3 L-90.5 -73.5 -90.35 -74.0 -91.25 -74.45 -91.1 -75.5 Q-88.55 -80.2 -84.25 -84.1 -66.2 -100.65 -42.1 -105.85 -19.15 -110.95 3.6 -105.6 6.45 -105.0 9.1 -103.8 23.2 -97.25 37.05 -90.1 L37.2 -89.95 Q43.4 -79.6 47.1 -68.05 L47.55 -67.05 Q35.3 -79.75 20.7 -89.9 L16.35 -88.25 Q-6.3 -79.95 -25.15 -65.05 -29.95 -77.0 -37.85 -87.25 L-39.4 -84.7 Q-40.4 -83.15 -41.55 -81.7 -42.35 -80.75 -43.4 -80.3 L-44.8 -80.85 Q-49.0 -82.65 -53.6 -82.35 -53.7 -84.65 -52.3 -86.65 -50.2 -89.75 -47.4 -92.2 -45.8 -93.6 -46.1 -95.85 -56.35 -92.45 -64.9 -85.75 L-65.15 -81.15 -63.45 -78.55 Q-52.45 -60.7 -52.55 -39.35 L-52.9 -38.95 -53.0 -39.5 Q-73.45 -48.15 -85.15 -67.05 L-87.05 -66.3 M-23.6 -61.35 Q-3.65 -76.45 19.6 -86.05 L34.55 -74.85 Q43.85 -67.8 50.7 -58.7 60.7 -36.6 64.4 -12.55 L65.7 -4.0 61.95 -4.05 61.8 -6.05 62.2 -5.75 63.7 -6.05 Q57.85 -27.4 38.0 -37.6 L39.2 -36.45 37.2 -38.0 Q47.15 -25.35 50.5 -9.65 36.45 -14.25 21.95 -17.35 L22.0 -18.0 16.1 -14.85 15.35 -15.0 15.25 -18.6 14.65 -18.8 11.1 -24.15 13.15 -21.9 14.05 -20.75 15.65 -18.5 16.8 -18.45 14.9 -22.9 14.25 -24.25 Q8.3 -35.7 -2.9 -43.2 L-1.95 -42.2 -2.4 -42.45 -3.9 -42.7 Q3.05 -31.9 7.4 -19.9 L-12.45 -21.95 Q-14.45 -41.1 -22.3 -58.5 L-23.6 -61.35 M58.45 -12.1 L52.1 -23.15 55.55 -18.15 57.45 -14.4 58.45 -12.1 M-51.7 -19.35 L-54.75 -18.75 -51.75 -22.2 -51.7 -19.35 M-52.55 -34.25 L-49.15 -37.95 -42.35 -35.4 Q-41.7 -33.6 -42.9 -32.15 -46.9 -27.05 -51.75 -22.2 L-52.55 -34.25 M-15.6 -17.8 Q-1.7 -17.25 11.9 -14.75 15.8 -7.95 18.7 -0.7 27.8 22.15 31.5 46.35 8.2 42.3 -15.75 40.75 L-19.2 40.5 -17.8 17.55 -15.45 23.9 -14.7 23.75 -14.45 21.3 -14.15 22.45 -13.65 22.4 Q-12.45 13.85 -17.1 5.85 L-15.6 -17.8 M-59.55 -12.5 L-56.75 -13.05 -58.9 1.35 Q-63.35 33.95 -61.15 43.85 L-78.5 47.65 -76.75 33.5 Q-73.65 8.35 -59.55 -12.5 M22.7 -12.65 L23.6 -9.7 21.65 -12.9 22.7 -12.65 M37.2 41.85 L38.2 48.15 37.95 48.1 37.2 41.85 M39.55 49.8 Q39.7 24.9 31.65 0.95 29.05 -6.75 23.55 -12.9 L24.85 -12.7 25.15 -12.2 Q40.5 -8.95 55.55 -4.15 63.45 12.0 66.3 29.7 65.15 39.65 62.8 49.0 L61.15 55.3 50.5 51.7 49.8 51.9 40.8 48.95 40.8 49.45 39.55 49.8 M70.5 37.55 L70.5 30.7 71.0 23.15 71.05 25.7 71.65 25.55 Q73.5 18.05 72.2 10.55 L72.55 12.6 Q74.05 25.15 70.5 37.55 M-33.0 -110.45 Q-51.5 -107.35 -68.0 -98.3 -82.35 -90.55 -93.95 -78.9 L-97.55 -83.2 Q-78.55 -102.75 -54.7 -115.7 -44.0 -121.5 -32.35 -124.8 L-33.0 -110.45 M-23.3 -81.75 Q-17.75 -83.35 -18.55 -89.1 L-19.1 -89.65 -19.05 -90.4 -15.5 -89.65 Q-17.55 -92.3 -19.0 -95.55 -24.45 -95.9 -27.75 -91.6 L-23.85 -92.75 -22.0 -91.85 Q-23.9 -88.8 -26.3 -86.2 L-26.6 -85.6 -31.15 -82.95 -30.4 -81.05 Q-27.0 -79.35 -23.3 -81.75 M-41.35 -93.1 Q-39.05 -94.05 -39.2 -96.35 L-39.9 -96.7 Q-42.2 -96.95 -44.05 -95.85 L-43.35 -93.5 Q-48.0 -89.3 -52.05 -84.05 L-51.6 -83.85 Q-48.65 -82.9 -45.65 -83.45 L-43.45 -83.45 -42.95 -84.0 Q-40.65 -87.05 -41.55 -90.35 L-41.7 -90.85 -41.0 -91.2 -41.6 -91.9 -41.35 -93.1 M-60.3 57.95 L-58.7 84.85 -91.15 88.75 Q-93.65 82.65 -93.15 76.0 -92.65 69.3 -90.0 63.5 L-60.3 57.95 M-24.5 85.1 L-20.55 56.65 -13.7 57.4 Q9.55 60.45 32.25 65.5 L34.95 88.1 34.75 92.55 25.4 91.0 Q0.65 86.25 -24.5 85.1 M-26.7 98.2 Q-1.6 99.9 22.75 106.15 28.3 107.55 33.55 109.6 20.35 124.45 3.2 134.7 -0.6 136.95 -5.15 137.45 -30.25 139.65 -53.65 128.95 L-90.4 111.8 -89.9 98.6 -55.5 97.75 Q-54.35 112.35 -43.25 120.3 -39.3 123.05 -35.3 120.55 -31.65 118.35 -30.6 113.85 L-26.7 98.2 M-93.3 156.1 Q-96.65 163.6 -98.5 171.4 -90.2 176.6 -80.75 179.05 L-81.0 177.25 Q-81.8 171.9 -80.15 166.7 -67.95 176.05 -54.35 183.65 L-54.65 184.9 -56.05 185.1 Q-63.9 185.75 -71.55 185.3 -75.9 184.15 -80.05 182.5 -86.3 180.1 -92.35 177.25 -95.35 174.45 -97.45 173.85 L-100.35 171.6 Q-99.45 161.6 -97.4 151.7 L-93.3 156.1 M-107.75 186.2 Q-106.9 172.1 -101.7 159.3 L-102.4 168.0 Q-102.8 172.35 -103.8 176.6 -105.05 182.15 -101.45 186.2 -104.55 185.2 -107.6 186.1 L-107.75 186.2 M-101.05 182.35 L-101.85 181.95 -101.65 180.6 -101.05 182.35 M-100.65 174.7 L-100.55 173.8 -100.2 174.25 -100.65 174.7 M-93.65 188.4 L-96.7 188.1 -97.0 187.65 -93.65 188.4 M-45.7 188.65 L-44.6 188.55 Q-44.1 188.75 -43.55 189.05 L-43.6 190.1 -43.75 189.35 -45.7 188.65 M-96.25 197.35 L-96.0 197.65 Q-93.4 195.8 -89.75 194.1 -96.4 205.35 -99.3 218.0 -100.05 221.3 -99.05 224.55 L-78.05 224.35 Q-82.35 214.65 -79.1 204.25 L-79.8 204.9 -82.35 205.4 -84.4 205.3 Q-85.9 204.85 -85.95 203.5 -86.0 202.15 -85.5 201.1 L-84.0 201.55 -84.5 203.1 Q-83.7 204.3 -81.8 203.3 -77.5 200.95 -78.6 196.05 L-80.3 197.1 Q-80.3 196.55 -80.8 196.15 -81.35 195.75 -82.1 195.75 L-82.0 194.85 -80.6 194.65 -80.15 196.0 -77.85 195.1 -77.1 197.95 -76.65 195.75 -75.3 191.05 -75.2 191.0 -59.05 190.8 Q-54.9 193.3 -50.25 194.35 -46.35 195.35 -44.5 199.45 L-47.55 227.6 Q-72.4 226.75 -97.35 229.6 L-98.65 229.7 -104.25 229.3 -96.25 197.35 M-104.4 230.7 L-104.35 230.0 -103.1 230.35 -104.4 230.7 M-82.1 195.9 L-82.0 197.25 Q-81.9 200.9 -85.3 200.8 L-82.3 197.45 -82.1 195.9 M-77.1 197.95 L-77.1 198.0 -77.1 197.95 M-23.7 197.95 L6.8 208.9 9.4 212.9 Q9.95 219.85 7.4 226.35 6.5 228.75 3.95 228.75 -19.85 228.95 -43.9 227.9 L-42.45 200.55 -39.3 197.25 -34.45 197.2 Q-41.75 210.9 -40.55 225.75 L-25.2 226.1 Q-26.3 224.75 -26.55 223.1 -28.6 210.55 -23.7 197.95 M34.8 115.7 L36.8 109.55 37.55 106.75 Q40.65 107.25 41.2 109.75 41.4 110.5 41.1 111.35 39.0 117.25 33.6 120.15 L34.8 115.7 M-16.55 209.05 Q-16.15 210.9 -17.45 212.5 L-18.05 213.25 -16.55 213.25 Q-13.45 210.65 -14.2 206.45 -14.35 205.55 -14.7 204.95 L-15.9 204.25 -16.4 204.65 -16.55 206.4 -17.2 206.1 -17.55 206.35 -17.6 205.35 -18.1 204.95 -18.2 204.35 -19.2 203.9 -19.1 206.05 -23.6 208.9 -24.35 208.8 -20.35 209.8 -21.25 210.95 -19.3 212.35 -16.55 209.05 M-39.1 234.5 L-37.65 234.55 Q-41.8 241.05 -42.95 248.6 -34.4 251.45 -25.35 250.9 L-25.85 249.4 Q-28.6 241.9 -25.1 235.05 -11.2 236.0 2.25 238.25 L4.35 238.65 Q6.35 251.4 -4.65 253.45 L-13.75 254.1 -41.7 252.3 -44.5 246.5 -44.35 240.85 Q-43.1 239.2 -40.95 237.25 -39.45 235.9 -39.1 234.5 M-56.1 206.5 Q-56.8 202.45 -60.5 202.7 L-61.5 202.95 Q-57.2 206.65 -58.15 212.35 -55.5 210.05 -56.1 206.5 M-60.3 207.35 L-60.45 206.7 Q-60.85 205.1 -62.5 204.85 L-61.3 206.95 -61.5 207.4 Q-61.7 207.95 -62.1 208.1 -64.35 209.3 -67.0 208.7 L-66.95 210.0 -64.35 210.6 -65.3 211.45 Q-61.85 213.0 -59.6 209.95 -58.35 208.3 -59.1 206.55 L-60.3 207.35 M-74.2 240.3 L-73.05 245.0 -71.65 244.2 -72.75 240.1 -74.2 240.3 M-76.1 242.25 L-76.1 240.25 -77.8 239.35 Q-77.3 240.8 -78.45 241.9 -80.55 244.0 -83.45 243.35 -82.45 246.6 -78.95 246.05 -77.0 246.55 -75.2 245.7 L-74.65 245.5 -74.45 241.95 -75.1 241.6 -76.1 242.25 M-90.85 236.65 Q-95.95 243.95 -98.15 252.5 L-78.2 251.15 -79.55 247.7 -82.7 246.4 Q-85.55 245.0 -85.25 242.1 L-80.3 241.95 -77.7 235.25 -52.5 234.5 -48.0 240.9 -48.05 248.7 Q-57.8 253.5 -68.7 254.1 L-99.0 255.4 -100.7 253.35 Q-98.45 246.5 -97.65 239.55 L-97.3 239.25 Q-94.45 237.25 -90.85 236.65 M38.8 93.1 L39.45 89.4 Q39.55 91.7 40.75 92.15 L40.9 91.85 Q44.25 80.05 41.65 68.45 L40.6 68.25 39.75 69.6 39.45 67.8 40.95 68.3 41.55 67.85 41.95 68.6 Q49.25 70.85 56.0 74.1 52.9 84.9 46.3 93.95 L38.8 93.1" fill="#51684d" fill-rule="evenodd" stroke="none"/>
    <path d="M64.55 -186.05 L65.0 -186.1 Q64.95 -174.05 62.1 -162.2 L61.9 -164.8 Q56.0 -152.45 56.5 -138.95 L59.15 -144.85 Q54.1 -117.1 40.8 -92.4 L40.2 -92.4 Q39.65 -92.45 39.7 -93.1 L49.9 -120.6 Q52.1 -126.05 52.9 -131.85 55.8 -153.15 61.35 -174.05 L62.1 -176.85 Q63.0 -181.95 63.1 -184.3 L64.55 -186.05 M61.8 -6.05 L58.45 -12.1 57.45 -14.4 59.5 -11.6 60.8 -12.35 56.25 -20.4 55.4 -20.25 55.55 -18.15 52.1 -23.15 39.2 -36.45 38.0 -37.6 Q57.85 -27.4 63.7 -6.05 L62.2 -5.75 61.8 -6.05 M11.1 -24.15 L-2.4 -42.45 -1.95 -42.2 -2.9 -43.2 Q8.3 -35.7 14.25 -24.25 L13.1 -25.5 8.4 -29.05 13.15 -21.9 11.1 -24.15 M14.9 -22.9 L16.8 -18.45 15.65 -18.5 14.05 -20.75 14.45 -20.6 14.95 -20.75 Q15.2 -21.9 14.9 -22.9 M-17.1 5.85 Q-12.45 13.85 -13.65 22.4 L-14.15 22.45 -14.45 21.3 Q-19.55 0.8 -28.6 -18.15 L-28.4 -18.75 -27.4 -17.55 -27.25 -17.3 Q-27.35 -15.55 -26.55 -13.95 -23.6 -8.1 -21.35 -2.05 L-20.05 -2.15 -17.1 5.85 M22.7 -12.65 L22.25 -14.6 23.55 -12.9 Q29.05 -6.75 31.65 0.95 39.7 24.9 39.55 49.8 L38.9 50.85 38.2 48.15 37.2 41.85 Q35.25 30.95 31.9 18.35 L23.6 -9.7 22.7 -12.65 M69.9 14.25 L69.2 9.6 69.0 7.75 Q69.55 11.1 71.05 13.4 L71.3 12.3 Q71.65 8.55 71.0 4.8 L72.2 10.55 Q73.5 18.05 71.65 25.55 L71.05 25.7 71.0 23.15 69.9 14.25 M24.45 -9.85 L31.55 10.6 Q32.35 7.3 31.0 2.0 29.35 -4.5 25.55 -10.1 L24.45 -9.85 M-77.85 195.1 L-76.8 194.6 -76.65 195.75 -77.1 197.95 -77.85 195.1 M-16.55 206.4 L-16.4 204.65 -15.9 204.25 -14.7 204.95 Q-14.35 205.55 -14.2 206.45 -13.45 210.65 -16.55 213.25 L-18.05 213.25 -17.45 212.5 Q-16.15 210.9 -16.55 209.05 L-16.55 206.4 M-56.1 206.5 Q-55.5 210.05 -58.15 212.35 -57.2 206.65 -61.5 202.95 L-60.5 202.7 Q-56.8 202.45 -56.1 206.5 M-74.2 240.3 L-72.75 240.1 -71.65 244.2 -73.05 245.0 -74.2 240.3 M69.95 2.15 Q69.35 2.15 68.95 2.75 68.55 3.25 68.5 3.95 L68.6 2.15 69.45 1.35 69.95 2.15 M39.45 89.4 L39.6 88.35 Q40.6 79.5 39.3 70.65 L39.75 69.6 40.6 68.25 41.65 68.45 Q44.25 80.05 40.9 91.85 L40.75 92.15 Q39.55 91.7 39.45 89.4" fill="#94a78b" fill-rule="evenodd" stroke="none"/>
    <path d="M61.35 -174.05 Q55.8 -153.15 52.9 -131.85 52.1 -126.05 49.9 -120.6 46.7 -117.35 42.75 -114.3 36.1 -109.25 31.55 -108.15 41.0 -130.8 46.4 -154.85 L48.25 -163.25 49.8 -163.6 Q58.55 -166.0 61.35 -174.05 M-52.55 -39.35 Q-52.45 -60.7 -63.45 -78.55 L-65.15 -81.15 -64.9 -85.75 Q-56.35 -92.45 -46.1 -95.85 -45.8 -93.6 -47.4 -92.2 -50.2 -89.75 -52.3 -86.65 -53.7 -84.65 -53.6 -82.35 -49.0 -82.65 -44.8 -80.85 L-43.4 -80.3 Q-42.35 -80.75 -41.55 -81.7 -40.4 -83.15 -39.4 -84.7 L-37.85 -87.25 Q-29.95 -77.0 -25.15 -65.05 L-26.25 -64.15 Q-40.1 -52.45 -52.55 -39.35 M-26.9 -125.1 Q-25.05 -123.55 -25.35 -121.1 L-25.45 -120.55 -26.1 -119.9 Q-26.55 -115.2 -28.6 -110.8 L-30.75 -110.55 -29.05 -125.2 -26.9 -125.1 M-12.45 -21.95 L-29.1 -21.95 -31.2 -19.3 -35.05 -25.0 Q-37.4 -28.5 -41.0 -30.0 L-41.0 -29.9 Q-40.4 -26.25 -38.85 -23.0 L-37.95 -21.2 -51.7 -19.35 -51.75 -22.2 Q-46.9 -27.05 -42.9 -32.15 -41.7 -33.6 -42.35 -35.4 L-49.15 -37.95 Q-39.3 -48.4 -28.3 -57.55 L-23.6 -61.35 -22.3 -58.5 Q-14.45 -41.1 -12.45 -21.95 M-15.6 -17.8 L-17.1 5.85 -20.05 -2.15 -20.55 -3.95 Q-21.95 -11.4 -26.05 -17.6 L-15.6 -17.8 M-17.8 17.55 L-19.2 40.5 Q-39.35 39.8 -59.0 43.6 L-61.15 43.85 Q-63.35 33.95 -58.9 1.35 L-56.75 -13.05 -33.4 -17.1 -17.8 17.55 M-41.6 -91.9 L-41.0 -91.2 -41.7 -90.85 -41.6 -91.9 M-27.4 -17.55 L-27.15 -17.55 -27.25 -17.3 -27.4 -17.55 M-58.7 84.85 L-60.3 57.95 -58.25 57.75 Q-39.55 54.75 -20.55 56.65 L-24.5 85.1 -58.7 84.85 M-55.5 97.75 L-26.7 98.2 -30.6 113.85 Q-31.65 118.35 -35.3 120.55 -39.3 123.05 -43.25 120.3 -54.35 112.35 -55.5 97.75 M-80.15 166.7 Q-81.8 171.9 -81.0 177.25 L-80.75 179.05 Q-90.2 176.6 -98.5 171.4 -96.65 163.6 -93.3 156.1 -88.6 160.45 -80.15 166.7 M-89.75 194.1 Q-83.55 191.15 -76.55 191.1 L-75.3 191.05 -76.65 195.75 -76.8 194.6 -77.85 195.1 -80.15 196.0 -80.6 194.65 -82.0 194.85 -82.1 195.75 -82.1 195.9 -82.3 197.45 -85.3 200.8 -85.95 200.75 -85.5 201.1 Q-86.0 202.15 -85.95 203.5 -85.9 204.85 -84.4 205.3 L-82.35 205.4 -79.8 204.9 -79.1 204.25 Q-82.35 214.65 -78.05 224.35 L-99.05 224.55 Q-100.05 221.3 -99.3 218.0 -96.4 205.35 -89.75 194.1 M-34.45 197.2 L-23.7 197.95 Q-28.6 210.55 -26.55 223.1 -26.3 224.75 -25.2 226.1 L-40.55 225.75 Q-41.75 210.9 -34.45 197.2 M-37.65 234.55 L-25.1 235.05 Q-28.6 241.9 -25.85 249.4 L-25.35 250.9 Q-34.4 251.45 -42.95 248.6 -41.8 241.05 -37.65 234.55 M-77.7 235.25 L-80.3 241.95 -85.25 242.1 Q-85.55 245.0 -82.7 246.4 L-79.55 247.7 -78.2 251.15 -98.15 252.5 Q-95.95 243.95 -90.85 236.65 L-77.7 235.25" fill="#718d69" fill-rule="evenodd" stroke="none"/>
    <path d="M62.1 -162.2 Q61.7 -154.7 59.7 -147.35 L59.15 -144.85 56.5 -138.95 Q56.0 -152.45 61.9 -164.8 L62.1 -162.2 M13.15 -21.9 L8.4 -29.05 13.1 -25.5 14.25 -24.25 14.9 -22.9 Q15.2 -21.9 14.95 -20.75 L14.45 -20.6 14.05 -20.75 13.15 -21.9 M24.45 -9.85 L25.55 -10.1 Q29.35 -4.5 31.0 2.0 32.35 7.3 31.55 10.6 L24.45 -9.85 M55.55 -18.15 L55.4 -20.25 56.25 -20.4 60.8 -12.35 59.5 -11.6 57.45 -14.4 55.55 -18.15 M-27.15 -17.55 L-26.05 -17.6 Q-21.95 -11.4 -20.55 -3.95 L-20.05 -2.15 -21.35 -2.05 Q-23.6 -8.1 -26.55 -13.95 -27.35 -15.55 -27.25 -17.3 L-27.15 -17.55 M71.0 4.8 Q71.65 8.55 71.3 12.3 L71.05 13.4 Q69.55 11.1 69.0 7.75 L68.5 4.15 68.5 3.95 Q68.55 3.25 68.95 2.75 69.35 2.15 69.95 2.15 L70.7 2.25 71.0 4.8" fill="#ffffff" fill-rule="evenodd" stroke="none"/>
    <path d="M-24.1 -170.95 L-23.35 -171.1 -22.75 -170.6 Q-24.1 -149.75 -29.65 -130.0 L-30.15 -130.85 Q-30.75 -148.45 -25.95 -165.4 L-24.3 -170.75 -24.1 -170.95 M-22.0 -91.85 L-23.85 -92.75 -27.75 -91.6 Q-24.45 -95.9 -19.0 -95.55 -17.55 -92.3 -15.5 -89.65 L-19.05 -90.4 Q-19.2 -92.05 -21.3 -91.7 L-22.0 -91.85 M-43.35 -93.5 L-44.05 -95.85 Q-42.2 -96.95 -39.9 -96.7 L-39.2 -96.35 Q-39.05 -94.05 -41.35 -93.1 L-42.7 -92.8 -43.35 -93.5" fill="#a8baa3" fill-rule="evenodd" stroke="none"/>
    <path d="M-30.55 -128.1 Q-54.1 -121.4 -74.2 -107.25 -87.9 -97.65 -99.3 -85.35 L-108.15 -98.15 -102.75 -108.55 -98.45 -105.9 -100.15 -113.2 -99.35 -114.6 -98.15 -109.55 -98.4 -109.3 Q-96.7 -104.45 -94.65 -99.65 L-92.85 -100.45 -94.4 -104.7 -93.8 -104.45 Q-95.25 -110.65 -98.5 -116.05 L-94.2 -123.15 Q-92.6 -117.7 -89.1 -113.1 L-86.0 -108.85 -88.3 -114.65 -87.85 -115.45 -85.35 -111.4 Q-83.45 -108.7 -81.7 -105.8 L-80.85 -107.35 Q-83.7 -116.1 -88.0 -124.3 L-87.45 -130.05 -86.15 -128.35 Q-85.9 -122.4 -83.2 -117.0 L-82.3 -115.05 -83.7 -119.9 -81.0 -116.45 -80.65 -117.05 -80.75 -117.5 -77.45 -111.25 -76.65 -112.8 Q-79.25 -125.4 -82.95 -137.65 L-65.75 -152.8 -65.85 -143.2 -68.75 -145.6 -68.75 -145.05 Q-66.05 -142.65 -65.9 -139.1 -65.7 -133.3 -62.25 -128.75 -61.05 -141.5 -64.15 -153.95 L-61.4 -156.0 -61.1 -155.5 -62.1 -155.45 Q-63.3 -139.3 -57.1 -124.5 -56.45 -140.2 -60.9 -155.25 L-57.05 -147.85 -56.45 -148.4 -55.8 -159.15 Q-51.35 -162.5 -45.8 -164.35 -44.95 -149.85 -42.05 -135.6 L-41.4 -135.8 -41.55 -147.35 -40.9 -142.5 -40.3 -142.5 Q-39.75 -145.0 -39.95 -147.45 -40.45 -153.2 -41.55 -158.85 L-42.0 -158.7 -43.75 -165.2 -40.1 -166.55 -39.75 -165.3 Q-40.15 -155.55 -38.35 -145.75 L-37.85 -142.6 -37.35 -142.6 -37.35 -161.25 -35.1 -168.0 -33.2 -168.7 Q-36.0 -162.45 -34.65 -155.5 L-33.95 -155.75 -33.7 -159.3 -33.15 -160.05 Q-30.65 -164.2 -32.45 -168.9 L-24.3 -170.9 -24.3 -170.75 -25.95 -165.4 Q-30.75 -148.45 -30.15 -130.85 L-30.55 -128.1 M-93.65 -123.8 L-91.95 -126.3 -91.45 -126.15 Q-90.6 -120.65 -88.0 -115.7 L-91.05 -120.0 -90.4 -120.3 -93.65 -123.8 M-85.75 -127.95 L-84.2 -127.5 -83.95 -130.0 -81.75 -120.4 -83.7 -125.45 -84.25 -125.45 -84.3 -123.9 -85.75 -127.95 M-68.35 -132.3 L-67.4 -132.25 Q-67.1 -135.0 -68.1 -137.6 -68.9 -139.8 -70.45 -141.7 L-68.35 -132.3" fill="#333333" fill-rule="evenodd" stroke="none"/>
    <path d="M-99.35 -114.6 L-98.5 -116.05 Q-95.25 -110.65 -93.8 -104.45 L-94.4 -104.7 -92.85 -100.45 -94.65 -99.65 Q-96.7 -104.45 -98.4 -109.3 L-98.15 -109.55 -99.35 -114.6 M-94.2 -123.15 L-93.65 -123.8 -90.4 -120.3 -91.05 -120.0 -88.0 -115.7 Q-90.6 -120.65 -91.45 -126.15 L-88.0 -124.3 Q-83.7 -116.1 -80.85 -107.35 L-81.7 -105.8 Q-83.45 -108.7 -85.35 -111.4 L-87.85 -115.45 -88.3 -114.65 -86.0 -108.85 -89.1 -113.1 Q-92.6 -117.7 -94.2 -123.15 M-86.15 -128.35 L-85.75 -127.95 -84.3 -123.9 -84.25 -125.45 -83.7 -125.45 -81.75 -120.4 -83.95 -130.0 -83.95 -136.4 -82.95 -137.65 Q-79.25 -125.4 -76.65 -112.8 L-77.45 -111.25 -80.75 -117.5 -80.65 -117.05 -81.0 -116.45 -83.7 -119.9 -82.3 -115.05 -83.2 -117.0 Q-85.9 -122.4 -86.15 -128.35 M-65.75 -152.8 L-64.15 -153.95 Q-61.05 -141.5 -62.25 -128.75 -65.7 -133.3 -65.9 -139.1 -66.05 -142.65 -68.75 -145.05 L-68.75 -145.6 -65.85 -143.2 -65.75 -152.8 M-61.1 -155.5 L-60.9 -155.25 Q-56.45 -140.2 -57.1 -124.5 -63.3 -139.3 -62.1 -155.45 L-61.1 -155.5 M-45.8 -164.35 L-43.75 -165.2 -42.0 -158.7 -41.55 -158.85 Q-40.45 -153.2 -39.95 -147.45 -39.75 -145.0 -40.3 -142.5 L-40.9 -142.5 -41.55 -147.35 -41.4 -135.8 -42.05 -135.6 Q-44.95 -149.85 -45.8 -164.35 M-39.75 -165.3 Q-39.65 -161.8 -37.55 -160.75 L-37.35 -161.25 -37.35 -142.6 -37.85 -142.6 -38.35 -145.75 Q-40.15 -155.55 -39.75 -165.3 M-33.2 -168.7 L-32.45 -168.9 Q-30.65 -164.2 -33.15 -160.05 L-33.7 -159.3 -33.95 -155.75 -34.65 -155.5 Q-36.0 -162.45 -33.2 -168.7 M-68.35 -132.3 L-70.45 -141.7 Q-68.9 -139.8 -68.1 -137.6 -67.1 -135.0 -67.4 -132.25 L-68.35 -132.3" fill="#626262" fill-rule="evenodd" stroke="none"/>
    <path d="M-113.25 196.4 L-113.25 181.15 -110.2 179.8 -113.25 196.4 M-113.25 178.5 L-113.25 167.55 -112.3 164.9 Q-105.5 145.05 -113.25 125.5 L-113.25 117.65 -94.6 130.7 -94.1 130.7 Q-105.45 153.3 -109.85 178.25 L-111.65 177.6 -113.25 178.5 M46.85 135.55 L47.5 135.5 48.4 134.15 Q63.4 146.65 72.95 163.7 77.5 171.85 75.2 180.95 74.8 182.5 73.75 183.5 64.35 193.0 50.35 195.2 63.8 194.35 75.45 188.2 L83.25 200.1 82.05 200.7 Q80.35 204.05 77.3 206.15 59.45 218.6 38.15 220.2 L37.4 197.45 Q38.05 197.0 38.75 196.7 39.45 196.35 40.2 196.1 L43.1 195.6 36.8 195.3 Q33.75 172.9 25.5 152.05 37.2 145.15 46.85 135.55" fill="#444444" fill-rule="evenodd" stroke="none"/>
    <path d="M-113.25 167.55 L-113.25 125.5 Q-105.5 145.05 -112.3 164.9 L-113.25 167.55" fill="#666666" fill-rule="evenodd" stroke="none"/>
    <path d="M68.75 266.5 L40.9 266.5 Q40.55 247.55 38.85 228.6 L38.5 225.2 Q41.1 226.1 43.7 224.8 L48.25 223.0 Q65.65 217.75 80.1 206.6 L86.3 226.05 94.4 260.75 Q81.8 264.9 68.75 266.5" fill="#262626" fill-rule="evenodd" stroke="none"/>
  </g>
</svg>
