<?xml version="1.0" encoding="UTF-8" standalone="no"?>
<svg xmlns:xlink="http://www.w3.org/1999/xlink" height="480.0px" width="225.05px" xmlns="http://www.w3.org/2000/svg">
  <g transform="matrix(1.0, 0.0, 0.0, 1.0, 116.25, 211.8)">
    <path d="M-116.25 -121.6 L-116.25 -127.65 Q-98.5 -141.5 -77.5 -149.9 -54.3 -159.05 -29.4 -161.6 -6.95 -163.6 15.3 -160.0 L20.7 -159.1 Q26.15 -176.45 29.4 -194.6 L31.3 -205.8 34.4 -207.65 45.1 -211.8 Q51.95 -194.45 56.7 -176.45 60.6 -161.8 63.55 -146.85 75.2 -142.05 83.75 -133.1 88.25 -128.35 87.65 -121.75 87.0 -115.0 87.1 -108.2 87.45 -74.55 86.1 -40.95 85.2 -17.6 83.8 5.7 L87.35 8.35 91.45 11.6 93.75 13.75 94.55 14.6 Q94.85 30.55 92.45 46.45 91.6 52.1 86.75 55.15 81.75 58.25 75.9 58.65 L75.85 59.1 75.5 59.5 74.25 70.65 79.7 73.9 80.5 76.9 80.1 77.25 Q77.25 95.05 72.7 112.25 68.8 126.9 60.25 139.25 L58.2 142.1 Q66.1 147.5 72.6 154.45 83.8 166.6 88.9 182.05 91.7 190.5 89.8 199.3 92.3 202.95 94.5 207.1 96.0 210.0 97.0 213.25 97.35 214.3 97.1 215.35 96.7 217.15 95.15 218.25 L94.1 219.0 Q101.5 234.05 105.5 250.3 107.65 259.15 108.8 268.2 L104.1 268.2 97.55 240.2 91.75 221.75 Q82.9 228.55 72.25 232.3 58.0 237.5 42.85 240.05 42.45 245.95 44.0 251.65 46.3 259.9 44.0 268.2 L37.15 268.2 Q32.65 263.9 27.1 261.1 5.3 249.85 -19.1 246.25 -43.3 242.35 -67.8 242.35 -92.95 242.3 -116.25 250.65 L-116.25 245.55 Q-111.4 243.15 -106.15 242.1 -84.0 237.4 -61.3 236.75 L-60.95 236.75 -57.65 236.75 Q-33.3 238.05 -9.4 243.55 12.35 248.4 31.45 260.0 L40.55 265.75 41.0 263.45 41.0 263.25 41.1 262.15 Q40.5 237.5 37.9 212.65 L37.7 208.5 37.7 207.95 Q35.95 186.65 28.25 166.45 27.25 163.85 26.6 161.1 2.65 165.85 -20.8 158.55 -32.55 154.85 -43.1 148.3 L-45.05 147.3 Q-51.75 143.35 -58.0 138.8 -76.45 125.4 -93.7 110.55 L-99.85 122.95 Q-110.25 144.15 -111.55 167.65 -112.15 179.0 -113.15 190.1 L-116.25 222.8 -116.25 171.05 Q-114.55 148.9 -106.9 127.65 -103.1 117.1 -98.05 107.1 L-107.25 99.5 -116.25 100.3 -116.25 96.55 -111.15 95.9 -116.25 91.4 -116.25 78.05 Q-95.6 83.4 -85.8 65.1 -81.5 57.05 -81.25 48.1 -80.85 35.1 -84.85 22.75 L-88.35 15.45 -91.6 11.05 -92.15 10.65 Q-103.3 2.4 -116.25 7.5 L-116.25 4.35 Q-115.75 4.25 -115.3 4.0 -109.4 2.6 -103.25 3.15 L-98.55 4.25 Q-91.55 6.25 -87.75 12.2 -83.85 18.25 -81.65 24.9 L-81.5 26.3 -79.8 32.9 Q-54.25 26.75 -27.9 26.0 -0.45 25.1 26.8 28.6 46.7 30.9 65.2 37.7 77.05 42.05 78.55 54.4 L79.1 54.0 80.0 54.35 Q81.9 53.7 83.45 52.5 L85.4 50.85 87.0 48.9 87.9 47.25 88.2 45.7 88.6 46.45 Q91.3 31.55 89.6 16.75 89.35 14.6 87.45 13.4 80.0 8.7 72.15 5.05 72.85 -16.1 71.85 -37.25 L71.7 -40.7 70.15 -67.1 70.0 -69.65 Q68.0 -94.25 64.95 -118.8 62.25 -140.45 56.7 -161.65 L56.15 -164.0 51.25 -181.95 51.15 -182.45 Q48.3 -193.7 44.05 -204.25 L43.7 -205.5 43.65 -205.7 43.35 -206.8 35.35 -203.1 Q31.1 -181.75 25.35 -160.65 L25.1 -159.8 25.1 -159.45 24.4 -157.35 23.55 -154.7 22.25 -150.25 19.55 -141.3 18.75 -138.6 19.65 -141.3 15.15 -126.25 Q7.9 -102.45 -0.15 -79.0 L-0.25 -78.6 -1.15 -76.1 -1.25 -75.7 -2.3 -72.8 Q-10.95 -49.3 -20.65 -26.2 L-26.15 -13.05 -26.55 -13.05 -29.9 -12.65 -28.0 -17.35 -13.0 -55.4 -5.2 -77.05 Q4.05 -103.05 12.0 -129.5 L17.7 -148.35 Q18.6 -151.3 18.85 -154.4 9.7 -157.45 0.0 -157.85 -25.3 -159.0 -50.1 -153.9 L-52.6 -153.4 Q-75.85 -146.8 -96.6 -134.8 -106.8 -128.85 -116.25 -121.6 M-116.25 226.85 L-116.25 223.25 -116.15 223.3 Q-115.15 225.1 -116.25 226.85 M83.1 -112.6 Q85.1 -122.25 80.25 -129.9 77.85 -133.65 74.2 -136.2 69.8 -139.35 64.65 -140.85 L67.6 -122.7 71.55 -90.25 71.85 -88.45 72.45 -81.35 72.65 -79.9 Q73.95 -65.0 74.7 -50.25 L74.8 -48.15 75.1 -41.1 75.2 -39.2 75.6 -6.95 75.55 -3.25 75.55 -2.9 75.5 -0.4 75.4 3.15 79.85 4.35 80.45 -12.5 82.3 -62.25 Q83.15 -87.45 83.1 -112.6 M-30.2 -12.65 L-29.05 -15.1 -30.0 -12.65 -30.2 -12.65 M27.95 40.2 L30.7 38.5 31.55 39.05 31.4 39.2 Q26.75 47.4 16.8 45.75 9.45 44.4 2.3 42.35 -8.5 49.25 -20.8 51.2 -24.2 51.7 -27.45 50.7 -39.2 47.05 -47.35 37.65 L-56.85 35.85 Q-23.1 27.05 9.55 40.25 17.7 43.45 25.7 41.1 L27.95 40.2 M-70.4 60.0 Q-46.4 57.25 -22.2 57.05 2.0 56.8 26.0 59.8 49.4 62.35 71.85 69.6 L72.05 69.65 71.9 69.3 71.85 63.2 72.4 58.3 Q70.25 59.5 68.15 59.5 59.05 59.4 53.45 51.1 L50.95 50.75 Q43.0 49.4 42.8 40.75 L43.55 40.45 45.6 44.05 46.15 45.05 47.05 45.4 51.5 45.85 Q60.15 45.55 68.7 43.95 70.4 43.65 71.8 44.5 L72.75 45.1 71.85 44.3 Q63.25 38.5 53.05 36.1 12.05 26.65 -30.0 27.8 -50.05 29.0 -69.55 33.05 -74.85 34.25 -79.5 36.25 L-79.45 37.15 Q-77.6 49.4 -80.6 61.35 L-70.4 60.0 M-24.95 61.25 L-60.1 62.7 Q-69.15 63.7 -78.05 65.65 L-82.15 66.6 Q-91.65 83.6 -111.7 82.4 L-115.7 82.1 -115.7 85.5 Q-83.6 115.15 -47.3 139.2 -42.1 142.7 -36.6 145.8 L-33.35 147.55 Q-11.55 160.4 13.65 159.95 31.65 159.65 46.25 149.1 L47.95 147.75 50.75 145.25 53.0 142.65 Q58.05 136.95 61.4 130.2 71.15 108.3 74.5 84.45 L75.35 77.05 67.35 72.55 62.45 70.9 Q55.15 68.75 47.6 67.45 24.4 63.4 0.85 61.75 L-23.2 61.2 -24.95 61.25 M57.3 146.35 L55.65 145.0 50.55 149.55 Q42.05 156.75 31.2 159.9 31.75 163.9 33.0 167.7 38.7 185.45 39.8 203.85 L41.4 204.05 Q43.4 204.25 45.4 205.15 L48.1 206.5 40.05 206.7 42.7 237.3 46.55 236.5 Q68.0 232.9 85.95 221.35 89.55 219.15 92.7 216.3 L94.0 215.2 Q92.15 208.2 87.9 202.1 78.4 206.9 67.9 208.3 L61.4 209.55 75.15 204.9 76.2 204.55 Q83.15 203.2 86.3 197.15 L86.65 196.7 Q88.9 179.75 77.5 166.5 68.2 155.75 57.3 146.35 M54.0 140.85 Q53.85 140.9 53.8 141.1 L53.6 140.6 54.0 140.85 M91.45 220.9 Q90.35 221.35 91.5 221.05 L91.45 220.9" fill="#000000" fill-rule="evenodd" stroke="none"/>
    <path d="M-26.15 -13.05 L-20.65 -26.2 Q-10.95 -49.3 -2.3 -72.8 L9.95 -73.15 -10.75 -13.85 -24.45 -13.2 -23.8 -13.8 -25.65 -12.9 -26.2 -12.95 -26.15 -13.05 M-0.15 -79.0 Q7.9 -102.45 15.15 -126.25 L19.65 -141.3 19.55 -141.3 22.25 -150.25 23.85 -154.95 24.05 -154.4 34.05 -156.3 26.6 -127.6 Q20.2 -103.4 12.15 -79.65 L0.6 -78.7 -0.15 -79.0 M25.35 -160.65 Q31.1 -181.75 35.35 -203.1 L43.35 -206.8 43.65 -205.7 43.35 -205.4 43.05 -203.15 Q40.85 -182.7 35.7 -162.75 L35.3 -162.3 25.6 -159.95 25.35 -160.65" fill="#cac957" fill-rule="evenodd" stroke="none"/>
    <path d="M43.65 -205.7 L43.7 -205.5 43.35 -205.4 43.65 -205.7" fill="#ff0000" fill-rule="evenodd" stroke="none"/>
    <path d="M-29.9 -12.65 L-26.55 -13.05 -26.2 -12.95 -25.65 -12.9 -23.8 -13.8 -24.45 -13.2 -10.75 -13.85 9.95 -73.15 -2.3 -72.8 -1.25 -75.7 0.0 -76.1 Q5.55 -76.1 10.85 -77.25 L11.3 -77.9 10.9 -78.1 11.4 -78.3 12.15 -79.65 Q20.2 -103.4 26.6 -127.6 L34.05 -156.3 24.05 -154.4 23.85 -154.95 23.55 -154.7 24.4 -157.35 24.55 -157.35 33.15 -159.05 34.75 -159.1 34.95 -160.05 35.8 -162.3 35.7 -162.75 Q40.85 -182.7 43.05 -203.15 L43.35 -205.4 43.7 -205.5 44.05 -204.25 45.3 -200.3 Q43.75 -181.9 39.55 -163.95 L38.65 -160.2 36.75 -152.1 Q31.05 -127.95 23.8 -104.15 L16.15 -79.55 14.8 -75.4 Q7.35 -52.1 -1.3 -29.25 -4.85 -19.8 -9.05 -10.5 L-30.05 -8.9 -30.45 -9.1 -51.95 -5.95 Q-69.7 -2.8 -87.2 1.8 L-87.25 1.85 Q-92.6 3.65 -98.1 4.3 L-98.55 4.25 -103.25 3.15 Q-97.0 0.3 -90.15 -1.05 L-74.8 -4.75 -48.1 -10.2 -44.8 -10.7 -30.2 -12.65 -30.0 -12.65 -29.9 -12.65 M21.15 -103.25 Q26.0 -114.45 28.0 -123.05 30.8 -130.5 36.15 -156.35 40.35 -176.35 42.2 -189.9 36.45 -160.95 27.2 -128.3 24.5 -118.6 21.15 -103.25" fill="#e7e6b1" fill-rule="evenodd" stroke="none"/>
    <path d="M-116.25 78.05 L-116.25 75.4 -110.0 74.9 -106.6 73.25 Q-94.05 66.15 -92.75 50.6 -91.6 36.8 -95.75 23.55 L-84.85 22.75 Q-80.85 35.1 -81.25 48.1 -81.5 57.05 -85.8 65.1 -95.6 83.4 -116.25 78.05 M12.0 -129.5 Q4.05 -103.05 -5.2 -77.05 L-13.0 -55.4 -28.0 -17.35 -29.05 -15.1 -30.2 -12.65 -44.8 -10.7 -43.25 -46.05 -43.05 -49.35 Q-40.25 -70.85 -40.35 -92.75 -40.45 -106.9 -41.0 -121.15 -29.2 -126.2 -16.3 -127.2 L12.0 -129.5 M-87.2 1.8 L-87.2 2.05 -87.25 1.85 -87.2 1.8 M71.2 -122.3 Q70.7 -123.4 70.6 -124.65 70.25 -128.85 73.95 -129.2 79.7 -123.9 72.0 -122.35 L71.2 -122.3 M67.6 -122.7 L68.25 -122.8 Q69.4 -121.35 71.15 -121.05 78.95 -119.95 77.75 -127.25 79.2 -125.0 79.0 -122.45 78.75 -119.75 77.15 -117.35 L83.1 -112.6 Q83.15 -87.45 82.3 -62.25 L80.45 -12.5 79.85 4.35 75.4 3.15 75.5 -0.4 Q78.65 -3.6 76.55 -7.65 L75.9 -8.65 75.7 -7.55 75.6 -6.95 75.2 -39.2 Q79.45 -40.35 78.8 -45.0 78.25 -48.85 74.7 -50.25 73.95 -65.0 72.65 -79.9 77.85 -78.05 79.3 -83.35 79.85 -85.5 78.65 -87.4 75.95 -91.7 71.55 -90.25 L67.6 -122.7 M75.55 -2.9 L75.55 -3.25 75.7 -5.85 76.1 -4.15 75.55 -2.9 M75.1 -41.1 L74.8 -48.15 75.6 -47.55 Q79.7 -43.95 75.1 -41.1 M72.45 -81.35 L71.85 -88.45 72.5 -88.85 Q80.6 -87.3 75.7 -82.05 74.35 -80.6 72.45 -81.35 M-38.0 -142.45 Q-35.9 -145.25 -36.15 -148.75 L-35.6 -149.0 Q-31.0 -143.9 -38.0 -142.45 M-46.7 -119.45 Q-45.95 -109.2 -45.85 -98.65 -45.7 -78.7 -46.15 -58.85 -46.75 -34.55 -48.1 -10.2 L-74.8 -4.75 -75.5 -29.0 Q-76.35 -66.75 -72.95 -104.6 L-71.0 -106.55 Q-60.7 -116.45 -46.7 -119.45 M-41.05 -141.45 Q-32.55 -138.2 -32.55 -147.45 L-32.7 -148.4 Q-30.3 -145.55 -30.6 -142.2 -30.8 -139.55 -33.25 -138.5 -38.3 -136.25 -41.05 -141.45 M-35.65 -108.2 Q-33.3 -108.05 -31.85 -106.85 -30.45 -105.65 -30.6 -104.05 -30.8 -102.5 -32.5 -101.5 -34.2 -100.5 -36.3 -100.6 L-35.65 -108.2 M-38.75 -104.2 Q-38.75 -106.55 -37.55 -107.55 L-37.45 -107.6 -38.75 -104.2 M-38.85 -107.7 Q-39.55 -106.75 -39.85 -105.6 -40.8 -102.0 -38.15 -100.0 -36.05 -98.45 -33.3 -99.25 -31.05 -99.75 -30.1 -102.05 -28.6 -105.65 -31.25 -108.5 -35.55 -111.95 -38.85 -107.7 M-35.85 -59.1 Q-36.95 -62.8 -34.95 -65.9 L-34.3 -66.75 Q-31.0 -65.9 -31.05 -62.6 -31.05 -61.7 -31.65 -60.9 -33.2 -58.8 -35.85 -59.1 M-38.1 -63.8 L-38.2 -61.35 -38.25 -61.45 -38.1 -63.8 M-32.55 -68.1 Q-35.55 -69.55 -38.1 -67.3 -40.9 -63.55 -38.6 -59.4 -38.2 -58.65 -37.35 -58.25 -34.1 -56.65 -31.55 -58.55 -29.4 -60.15 -29.35 -62.9 -29.25 -66.5 -32.55 -68.1 M-40.0 -17.75 Q-33.15 -13.75 -31.75 -21.45 -31.35 -23.6 -33.25 -24.85 -40.15 -29.6 -41.8 -21.15 -41.85 -18.85 -40.0 -17.75 M-38.65 -17.85 L-38.7 -18.0 Q-39.15 -22.15 -36.25 -25.25 -33.9 -24.7 -32.95 -22.5 -32.7 -21.85 -32.9 -21.3 -34.3 -16.85 -38.65 -17.85 M-78.05 65.65 Q-80.4 74.4 -85.9 81.55 -87.6 83.7 -90.15 85.05 -99.6 90.1 -109.95 87.4 -90.95 103.85 -69.4 116.95 L-50.5 127.8 Q-55.65 98.0 -51.35 68.1 -38.1 65.2 -24.55 64.55 -19.35 78.9 -22.6 94.25 -24.05 101.0 -24.6 107.95 -26.1 126.7 -33.9 143.2 -34.75 145.05 -36.6 145.8 -42.1 142.7 -47.3 139.2 -83.6 115.15 -115.7 85.5 L-115.7 82.1 -111.7 82.4 Q-91.65 83.6 -82.15 66.6 L-78.05 65.65 M0.85 61.75 Q24.4 63.4 47.6 67.45 55.15 68.75 62.45 70.9 66.35 76.75 65.65 84.0 63.45 107.9 58.0 131.5 56.85 136.55 54.0 140.85 L53.6 140.6 Q46.15 135.75 44.15 145.25 43.55 148.05 46.25 149.1 31.65 159.65 13.65 159.95 -11.55 160.4 -33.35 147.55 L-32.3 146.2 Q-22.6 129.15 -22.15 108.45 L-20.8 102.3 -21.8 105.85 -21.2 100.8 Q-15.5 82.55 -18.25 63.75 -8.55 62.0 1.15 62.7 L0.85 61.75 M67.35 72.55 L75.35 77.05 74.5 84.45 Q71.15 108.3 61.4 130.2 66.25 105.5 68.25 80.45 68.6 76.4 67.35 72.55 M50.75 145.25 L47.95 147.75 Q42.65 144.8 48.15 141.25 51.4 139.2 52.45 142.9 L50.75 145.25 M-11.2 74.15 L-11.15 73.95 Q-13.95 69.85 -11.1 65.55 -9.0 65.55 -7.5 66.85 -6.05 68.1 -6.05 69.9 -6.1 71.65 -7.6 72.9 -9.1 74.15 -11.2 74.15 M-15.95 68.05 L-15.7 73.55 Q-10.1 78.6 -5.95 72.5 -3.7 69.15 -6.45 66.45 -12.15 60.7 -15.95 68.05 M-99.85 15.7 L-103.0 11.7 -102.1 11.35 -91.6 11.05 -88.35 15.45 -99.85 15.7 M-14.15 103.65 Q-11.65 103.75 -10.05 105.1 -8.45 106.4 -8.6 108.15 -8.75 109.9 -10.55 111.1 -12.35 112.25 -14.65 112.15 L-16.15 108.4 -14.15 103.65 M-8.55 111.3 Q-5.85 106.65 -9.7 103.0 -14.35 99.7 -17.8 104.15 -19.1 105.9 -19.2 108.1 -19.4 111.5 -16.75 112.95 -12.8 114.95 -9.4 112.2 L-8.55 111.3 M-22.15 136.8 Q-28.75 142.1 -22.9 147.75 -19.6 149.35 -17.05 146.8 -11.2 140.85 -18.6 136.65 -20.5 135.5 -22.15 136.8 M-21.15 146.45 L-22.2 144.0 -20.65 138.0 Q-18.3 138.05 -16.75 139.4 -15.25 140.7 -15.35 142.45 -15.5 144.2 -17.2 145.4 -18.95 146.55 -21.15 146.45 M51.8 107.95 Q55.25 106.7 57.35 109.9 59.25 112.75 56.6 114.9 53.8 117.15 50.75 115.1 50.15 114.75 49.95 114.1 48.95 110.35 51.8 107.95 M58.7 108.1 Q57.1 105.6 54.2 105.45 49.25 105.95 48.15 111.15 47.7 113.3 48.5 115.15 49.4 117.25 51.8 117.9 55.45 118.9 57.8 116.3 61.1 112.6 58.7 108.1 M60.35 80.8 Q59.2 82.1 57.25 82.1 52.25 81.45 53.6 76.4 54.6 72.7 58.2 73.65 61.85 75.2 61.3 79.0 61.15 79.95 60.35 80.8 M59.35 72.3 Q57.75 71.1 56.0 72.3 48.55 77.75 55.05 83.65 57.85 84.8 59.9 83.1 66.5 77.55 59.35 72.3" fill="#678d32" fill-rule="evenodd" stroke="none"/>
    <path d="M-116.25 75.4 L-116.25 25.25 Q-112.95 23.05 -109.3 21.45 -106.7 20.3 -104.0 21.45 L-103.15 20.65 Q-106.15 11.65 -115.45 10.65 L-116.25 11.15 -116.25 7.5 Q-103.3 2.4 -92.15 10.65 L-91.6 11.05 -102.1 11.35 -103.0 11.7 -108.45 9.0 -104.7 12.3 -104.65 12.35 Q-89.45 33.4 -97.1 59.45 -99.5 67.65 -106.4 72.75 L-106.6 73.25 -110.0 74.9 -116.25 75.4 M-116.25 4.35 L-116.25 -121.6 Q-106.8 -128.85 -96.6 -134.8 -75.85 -146.8 -52.6 -153.4 L-51.85 -151.5 Q-46.6 -135.95 -46.7 -119.45 -60.7 -116.45 -71.0 -106.55 L-72.95 -104.6 Q-76.35 -66.75 -75.5 -29.0 L-74.8 -4.75 -90.15 -1.05 Q-97.0 0.3 -103.25 3.15 -109.4 2.6 -115.3 4.0 -115.75 4.25 -116.25 4.35 M-50.1 -153.9 Q-25.3 -159.0 0.0 -157.85 9.7 -157.45 18.85 -154.4 18.6 -151.3 17.7 -148.35 L12.0 -129.5 -16.3 -127.2 Q-29.2 -126.2 -41.0 -121.15 -40.45 -106.9 -40.35 -92.75 -40.25 -70.85 -43.05 -49.35 L-43.1 -49.3 Q-42.55 -74.0 -43.1 -98.5 -43.35 -109.6 -43.1 -120.8 -42.65 -138.5 -50.1 -153.9 M73.95 -129.2 Q70.25 -128.85 70.6 -124.65 70.7 -123.4 71.2 -122.3 68.3 -123.75 69.1 -127.1 70.1 -131.15 73.95 -129.2 M67.6 -122.7 L64.65 -140.85 Q69.8 -139.35 74.2 -136.2 77.85 -133.65 80.25 -129.9 85.1 -122.25 83.1 -112.6 L77.15 -117.35 Q78.75 -119.75 79.0 -122.45 79.2 -125.0 77.75 -127.25 76.3 -131.15 72.3 -130.9 65.8 -130.35 68.25 -122.8 L67.6 -122.7 M-38.0 -142.45 L-38.4 -142.4 -38.75 -142.3 -39.5 -142.3 Q-43.8 -147.25 -37.45 -149.25 -36.45 -149.6 -35.6 -149.0 L-36.15 -148.75 Q-35.9 -145.25 -38.0 -142.45 M-32.7 -148.4 Q-39.6 -155.25 -42.3 -146.1 -43.1 -143.45 -41.05 -141.45 -38.3 -136.25 -33.25 -138.5 -30.8 -139.55 -30.6 -142.2 -30.3 -145.55 -32.7 -148.4 M-37.45 -107.6 L-35.65 -108.2 -36.3 -100.6 Q-37.3 -100.6 -38.0 -101.65 -38.75 -102.7 -38.75 -104.2 L-37.45 -107.6 M-110.3 -117.8 L-109.85 -1.35 -87.85 -8.05 Q-89.6 -45.35 -87.6 -82.7 -86.65 -100.5 -84.05 -118.05 L-81.3 -134.8 Q-95.8 -130.15 -107.45 -120.25 L-110.3 -117.8 M-34.3 -66.75 L-34.95 -65.9 Q-36.95 -62.8 -35.85 -59.1 -37.15 -59.25 -37.8 -60.35 L-38.2 -61.3 -38.2 -61.35 -38.1 -63.8 Q-38.1 -65.0 -36.95 -65.85 -35.85 -66.75 -34.3 -66.75 M-38.65 -17.85 Q-41.5 -20.0 -39.8 -23.4 -38.65 -25.65 -36.25 -25.25 -39.15 -22.15 -38.7 -18.0 L-38.65 -17.85 M-78.05 65.65 Q-69.15 63.7 -60.1 62.7 L-24.95 61.25 -26.75 61.3 Q-25.55 62.75 -24.55 64.55 -38.1 65.2 -51.35 68.1 -55.65 98.0 -50.5 127.8 L-69.4 116.95 Q-90.95 103.85 -109.95 87.4 -99.6 90.1 -90.15 85.05 -87.6 83.7 -85.9 81.55 -80.4 74.4 -78.05 65.65 M-23.2 61.2 L0.85 61.75 1.15 62.7 Q-8.55 62.0 -18.25 63.75 -15.5 82.55 -21.2 100.8 L-20.35 89.95 Q-20.0 84.4 -19.25 79.0 -17.8 68.85 -23.2 61.2 M-74.1 69.9 L-74.85 71.85 Q-77.85 80.6 -84.05 87.15 -88.85 92.2 -95.65 93.9 L-63.25 110.75 Q-66.2 90.9 -63.15 71.15 L-62.8 69.35 -74.1 69.9 M-11.2 74.15 Q-14.7 74.0 -14.8 70.3 -14.9 66.15 -11.1 65.55 -13.95 69.85 -11.15 73.95 L-11.2 74.15 M-95.75 23.55 L-99.85 15.7 -88.35 15.45 -84.85 22.75 -95.75 23.55 M-14.15 103.65 L-16.15 108.4 -14.65 112.15 Q-17.35 111.55 -17.5 108.35 -17.65 104.45 -14.15 103.65 M-22.15 108.45 L-21.8 105.85 -20.8 102.3 -22.15 108.45 M-21.15 146.45 Q-24.3 146.15 -24.4 142.7 -24.5 138.65 -20.65 138.0 L-22.2 144.0 -21.15 146.45" fill="#9ac455" fill-rule="evenodd" stroke="none"/>
    <path d="M51.25 -181.95 L56.15 -164.0 56.7 -161.65 Q62.25 -140.45 64.95 -118.8 68.0 -94.25 70.0 -69.65 L69.75 -68.3 70.15 -67.1 71.7 -40.7 71.55 -37.75 71.85 -37.25 Q72.85 -16.1 72.15 5.05 80.0 8.7 87.45 13.4 89.35 14.6 89.6 16.75 91.3 31.55 88.6 46.45 L88.2 45.7 87.95 45.2 87.95 44.7 Q78.3 30.0 61.2 25.5 37.9 19.6 13.85 17.95 -10.55 16.2 -34.75 17.6 -58.55 19.0 -81.65 24.9 -83.85 18.25 -87.75 12.2 -91.55 6.25 -98.55 4.25 L-98.1 4.3 Q-92.6 3.65 -87.25 1.85 L-87.2 2.05 -87.2 1.8 Q-69.7 -2.8 -51.95 -5.95 L-30.45 -9.1 -30.05 -8.9 -9.05 -10.5 Q-4.85 -19.8 -1.3 -29.25 7.35 -52.1 14.8 -75.4 L16.85 -70.65 Q20.75 -62.1 25.3 -54.3 L26.15 -52.95 Q45.1 -48.65 64.15 -46.55 L69.7 -58.1 69.5 -60.1 69.05 -64.75 Q65.5 -60.25 63.05 -54.95 L61.3 -51.7 26.85 -56.25 Q23.35 -65.7 18.9 -74.65 L16.15 -79.55 23.8 -104.15 Q31.05 -127.95 36.75 -152.1 L38.9 -145.1 39.95 -144.1 57.3 -141.25 58.95 -146.9 59.05 -146.0 59.35 -146.5 59.0 -147.3 58.15 -150.4 55.75 -143.75 58.05 -150.95 57.05 -154.6 54.4 -146.05 44.4 -146.9 39.9 -147.8 38.65 -160.2 39.55 -163.95 Q43.75 -181.9 45.3 -200.3 L51.25 -181.95 M-51.3 171.95 L-50.7 172.05 -52.35 184.75 -51.3 171.95 M-60.95 236.75 L-61.3 236.75 -61.05 236.6 -60.95 236.75 M-55.0 195.55 L-55.35 196.85 -56.05 196.95 -55.0 195.55 M-58.45 215.6 L-62.95 228.35 Q-63.0 222.0 -59.3 216.85 L-58.45 215.6 M-63.05 228.8 L-63.25 229.45 -63.25 228.8 -63.05 228.8 M-53.1 197.25 L-53.6 197.2 -53.65 196.65 Q-51.15 193.3 -49.95 188.9 -49.95 193.15 -53.1 197.25 M-56.05 207.25 L-56.7 207.65 -56.85 207.25 -56.05 207.25 M-59.85 228.9 L-60.15 229.2 -59.7 226.35 -59.85 228.9" fill="#95952f" fill-rule="evenodd" stroke="none"/>
    <path d="M-1.15 -76.1 L-0.25 -78.6 0.6 -78.7 12.15 -79.65 11.4 -78.3 10.9 -78.1 11.3 -77.9 10.85 -77.25 Q5.55 -76.1 0.0 -76.1 L-1.15 -76.1 M25.1 -159.45 L25.1 -159.8 25.6 -159.95 35.3 -162.3 35.7 -162.75 35.8 -162.3 34.95 -160.05 33.15 -159.05 24.55 -157.35 25.1 -159.45 M38.65 -160.2 L39.9 -147.8 44.4 -146.9 54.4 -146.05 57.05 -154.6 58.05 -150.95 55.75 -143.75 Q47.55 -145.1 39.05 -145.1 L38.9 -145.1 36.75 -152.1 38.65 -160.2 M16.15 -79.55 L18.9 -74.65 Q23.35 -65.7 26.85 -56.25 L61.3 -51.7 63.05 -54.95 Q65.5 -60.25 69.05 -64.75 L69.5 -60.1 61.75 -48.95 25.3 -54.3 Q20.75 -62.1 16.85 -70.65 L14.8 -75.4 16.15 -79.55 M27.95 40.2 Q10.5 40.6 -5.7 33.2 L-6.95 32.5 Q27.6 32.5 60.25 42.45 58.45 44.2 55.85 45.05 L52.6 45.55 51.5 45.85 47.05 45.4 45.6 44.05 43.55 40.45 42.8 40.75 42.0 40.25 42.1 41.35 Q41.9 43.45 42.3 45.6 43.8 53.35 51.95 53.8 L53.05 55.25 Q60.25 66.2 71.85 63.2 L71.9 69.3 71.85 69.6 Q49.4 62.35 26.0 59.8 2.0 56.8 -22.2 57.05 -46.4 57.25 -70.4 60.0 -69.65 57.9 -69.3 55.55 -68.15 48.15 -69.45 40.75 -60.95 39.15 -52.2 40.55 -51.4 40.7 -50.9 41.2 -42.5 50.2 -30.45 53.7 L-25.9 54.2 Q-10.85 53.15 2.55 45.95 L21.4 47.9 Q25.85 48.45 29.0 45.15 29.85 45.25 30.45 44.6 32.35 42.35 33.35 39.55 L31.55 39.3 31.55 39.05 30.7 38.5 27.95 40.2 M71.8 44.5 L71.85 44.3 72.75 45.1 71.8 44.5" fill="#747425" fill-rule="evenodd" stroke="none"/>
    <path d="M-26.55 -13.05 L-26.15 -13.05 -26.2 -12.95 -26.55 -13.05 M-1.25 -75.7 L-1.15 -76.1 0.0 -76.1 -1.25 -75.7 M-0.25 -78.6 L-0.15 -79.0 0.6 -78.7 -0.25 -78.6 M19.65 -141.3 L18.75 -138.6 19.55 -141.3 19.65 -141.3 M25.1 -159.8 L25.35 -160.65 25.6 -159.95 25.1 -159.8 M34.95 -160.05 L34.75 -159.1 33.15 -159.05 34.95 -160.05 M55.75 -143.75 L58.15 -150.4 59.0 -147.3 58.95 -146.9 57.3 -141.25 39.95 -144.1 38.9 -145.1 39.05 -145.1 Q47.55 -145.1 55.75 -143.75 M69.5 -60.1 L69.7 -58.1 64.15 -46.55 Q45.1 -48.65 26.15 -52.95 L25.3 -54.3 61.75 -48.95 69.5 -60.1 M-59.55 207.2 L-59.5 207.4 -59.55 207.4 -59.55 207.2 M-62.95 228.35 L-63.05 228.8 -63.25 228.8 -62.95 228.35" fill="#bfc644" fill-rule="evenodd" stroke="none"/>
    <path d="M21.15 -103.25 Q24.5 -118.6 27.2 -128.3 36.45 -160.95 42.2 -189.9 40.35 -176.35 36.15 -156.35 30.8 -130.5 28.0 -123.05 26.0 -114.45 21.15 -103.25" fill="#ffffff" fill-rule="evenodd" stroke="none"/>
    <path d="M-52.6 -153.4 L-50.1 -153.9 Q-42.65 -138.5 -43.1 -120.8 -43.35 -109.6 -43.1 -98.5 -42.55 -74.0 -43.1 -49.3 L-43.25 -46.05 -44.8 -10.7 -48.1 -10.2 Q-46.75 -34.55 -46.15 -58.85 -45.7 -78.7 -45.85 -98.65 -45.95 -109.2 -46.7 -119.45 -46.6 -135.95 -51.85 -151.5 L-52.6 -153.4 M73.95 -129.2 Q70.1 -131.15 69.1 -127.1 68.3 -123.75 71.2 -122.3 L72.0 -122.35 Q79.7 -123.9 73.95 -129.2 M68.25 -122.8 Q65.8 -130.35 72.3 -130.9 76.3 -131.15 77.75 -127.25 78.95 -119.95 71.15 -121.05 69.4 -121.35 68.25 -122.8 M75.5 -0.4 L75.55 -2.9 76.1 -4.15 75.7 -5.85 75.7 -7.55 75.9 -8.65 76.55 -7.65 Q78.65 -3.6 75.5 -0.4 M75.2 -39.2 L75.1 -41.1 Q79.7 -43.95 75.6 -47.55 L74.8 -48.15 74.7 -50.25 Q78.25 -48.85 78.8 -45.0 79.45 -40.35 75.2 -39.2 M72.65 -79.9 L72.45 -81.35 Q74.35 -80.6 75.7 -82.05 80.6 -87.3 72.5 -88.85 L71.85 -88.45 71.55 -90.25 Q75.95 -91.7 78.65 -87.4 79.85 -85.5 79.3 -83.35 77.85 -78.05 72.65 -79.9 M-35.6 -149.0 Q-36.45 -149.6 -37.45 -149.25 -43.8 -147.25 -39.5 -142.3 L-38.75 -142.3 -38.4 -142.4 -38.0 -142.45 Q-31.0 -143.9 -35.6 -149.0 M-41.05 -141.45 Q-43.1 -143.45 -42.3 -146.1 -39.6 -155.25 -32.7 -148.4 L-32.55 -147.45 Q-32.55 -138.2 -41.05 -141.45 M-35.65 -108.2 L-37.45 -107.6 -37.55 -107.55 Q-38.75 -106.55 -38.75 -104.2 -38.75 -102.7 -38.0 -101.65 -37.3 -100.6 -36.3 -100.6 -34.2 -100.5 -32.5 -101.5 -30.8 -102.5 -30.6 -104.05 -30.45 -105.65 -31.85 -106.85 -33.3 -108.05 -35.65 -108.2 M-38.85 -107.7 Q-35.55 -111.95 -31.25 -108.5 -28.6 -105.65 -30.1 -102.05 -31.05 -99.75 -33.3 -99.25 -36.05 -98.45 -38.15 -100.0 -40.8 -102.0 -39.85 -105.6 -39.55 -106.75 -38.85 -107.7 M-35.85 -59.1 Q-33.2 -58.8 -31.65 -60.9 -31.05 -61.7 -31.05 -62.6 -31.0 -65.9 -34.3 -66.75 -35.85 -66.75 -36.95 -65.85 -38.1 -65.0 -38.1 -63.8 L-38.25 -61.45 -38.2 -61.3 -37.8 -60.35 Q-37.15 -59.25 -35.85 -59.1 M-32.55 -68.1 Q-29.25 -66.5 -29.35 -62.9 -29.4 -60.15 -31.55 -58.55 -34.1 -56.65 -37.35 -58.25 -38.2 -58.65 -38.6 -59.4 -40.9 -63.55 -38.1 -67.3 -35.55 -69.55 -32.55 -68.1 M-40.0 -17.75 Q-41.85 -18.85 -41.8 -21.15 -40.15 -29.6 -33.25 -24.85 -31.35 -23.6 -31.75 -21.45 -33.15 -13.75 -40.0 -17.75 M-36.25 -25.25 Q-38.65 -25.65 -39.8 -23.4 -41.5 -20.0 -38.65 -17.85 -34.3 -16.85 -32.9 -21.3 -32.7 -21.85 -32.95 -22.5 -33.9 -24.7 -36.25 -25.25 M-24.55 64.55 Q-25.55 62.75 -26.75 61.3 L-24.95 61.25 -23.2 61.2 Q-17.8 68.85 -19.25 79.0 -20.0 84.4 -20.35 89.95 L-21.2 100.8 -21.8 105.85 -22.15 108.45 Q-22.6 129.15 -32.3 146.2 L-33.35 147.55 -36.6 145.8 Q-34.75 145.05 -33.9 143.2 -26.1 126.7 -24.6 107.95 -24.05 101.0 -22.6 94.25 -19.35 78.9 -24.55 64.55 M62.45 70.9 L67.35 72.55 Q68.6 76.4 68.25 80.45 66.25 105.5 61.4 130.2 58.05 136.95 53.0 142.65 L50.75 145.25 52.45 142.9 Q51.4 139.2 48.15 141.25 42.65 144.8 47.95 147.75 L46.25 149.1 Q43.55 148.05 44.15 145.25 46.15 135.75 53.6 140.6 L53.8 141.1 Q53.85 140.9 54.0 140.85 56.85 136.55 58.0 131.5 63.45 107.9 65.65 84.0 66.35 76.75 62.45 70.9 M-11.1 65.55 Q-14.9 66.15 -14.8 70.3 -14.7 74.0 -11.2 74.15 -9.1 74.15 -7.6 72.9 -6.1 71.65 -6.05 69.9 -6.05 68.1 -7.5 66.85 -9.0 65.55 -11.1 65.55 M-15.95 68.05 Q-12.15 60.7 -6.45 66.45 -3.7 69.15 -5.95 72.5 -10.1 78.6 -15.7 73.55 L-15.95 68.05 M-99.85 15.7 L-95.75 23.55 Q-91.6 36.8 -92.75 50.6 -94.05 66.15 -106.6 73.25 L-106.4 72.75 Q-99.5 67.65 -97.1 59.45 -89.45 33.4 -104.65 12.35 L-104.5 12.4 -104.7 12.3 -108.45 9.0 -103.0 11.7 -99.85 15.7 M-8.55 111.3 L-9.4 112.2 Q-12.8 114.95 -16.75 112.95 -19.4 111.5 -19.2 108.1 -19.1 105.9 -17.8 104.15 -14.35 99.7 -9.7 103.0 -5.85 106.65 -8.55 111.3 M-14.65 112.15 Q-12.35 112.25 -10.55 111.1 -8.75 109.9 -8.6 108.15 -8.45 106.4 -10.05 105.1 -11.65 103.75 -14.15 103.65 -17.65 104.45 -17.5 108.35 -17.35 111.55 -14.65 112.15 M-22.15 136.8 Q-20.5 135.5 -18.6 136.65 -11.2 140.85 -17.05 146.8 -19.6 149.35 -22.9 147.75 -28.75 142.1 -22.15 136.8 M-20.65 138.0 Q-24.5 138.65 -24.4 142.7 -24.3 146.15 -21.15 146.45 -18.95 146.55 -17.2 145.4 -15.5 144.2 -15.35 142.45 -15.25 140.7 -16.75 139.4 -18.3 138.05 -20.65 138.0 M59.35 72.3 Q66.5 77.55 59.9 83.1 57.85 84.8 55.05 83.65 48.55 77.75 56.0 72.3 57.75 71.1 59.35 72.3 M60.35 80.8 Q61.15 79.95 61.3 79.0 61.85 75.2 58.2 73.65 54.6 72.7 53.6 76.4 52.25 81.45 57.25 82.1 59.2 82.1 60.35 80.8 M58.7 108.1 Q61.1 112.6 57.8 116.3 55.45 118.9 51.8 117.9 49.4 117.25 48.5 115.15 47.7 113.3 48.15 111.15 49.25 105.95 54.2 105.45 57.1 105.6 58.7 108.1 M51.8 107.95 Q48.95 110.35 49.95 114.1 50.15 114.75 50.75 115.1 53.8 117.15 56.6 114.9 59.25 112.75 57.35 109.9 55.25 106.7 51.8 107.95" fill="#425720" fill-rule="evenodd" stroke="none"/>
    <path d="M-116.25 25.25 L-116.25 11.15 -115.45 10.65 Q-106.15 11.65 -103.15 20.65 L-104.0 21.45 Q-106.7 20.3 -109.3 21.45 -112.95 23.05 -116.25 25.25 M-110.3 -117.8 L-107.45 -120.25 Q-95.8 -130.15 -81.3 -134.8 L-84.05 -118.05 Q-86.65 -100.5 -87.6 -82.7 -89.6 -45.35 -87.85 -8.05 L-109.85 -1.35 -110.3 -117.8 M-74.1 69.9 L-62.8 69.35 -63.15 71.15 Q-66.2 90.9 -63.25 110.75 L-95.65 93.9 Q-88.85 92.2 -84.05 87.15 -77.85 80.6 -74.85 71.85 L-74.1 69.9" fill="#d7e4b4" fill-rule="evenodd" stroke="none"/>
    <path d="M-116.25 227.65 L-116.25 226.85 Q-115.15 225.1 -116.15 223.3 L-116.25 223.25 -116.25 222.8 -113.15 190.1 -111.5 199.05 -110.15 198.9 -110.05 199.6 -109.25 198.95 Q-106.45 196.6 -102.8 196.4 -111.45 203.2 -112.3 214.15 L-112.45 217.25 -112.05 217.7 -111.85 219.1 -107.25 215.75 -116.25 227.65 M87.9 47.25 L87.0 48.9 85.4 50.85 83.45 52.5 Q81.9 53.7 80.0 54.35 L79.1 54.0 78.55 54.4 Q77.05 42.05 65.2 37.7 46.7 30.9 26.8 28.6 -0.45 25.1 -27.9 26.0 -54.25 26.75 -79.8 32.9 L-81.5 26.3 -81.65 24.9 Q-58.55 19.0 -34.75 17.6 -10.55 16.2 13.85 17.95 37.9 19.6 61.2 25.5 78.3 30.0 87.95 44.7 L87.95 45.2 87.9 47.25 M51.5 45.85 L52.6 45.55 55.85 45.05 Q58.45 44.2 60.25 42.45 27.6 32.5 -6.95 32.5 L-5.7 33.2 Q10.5 40.6 27.95 40.2 L25.7 41.1 Q17.7 43.45 9.55 40.25 -23.1 27.05 -56.85 35.85 L-47.35 37.65 Q-39.2 47.05 -27.45 50.7 -24.2 51.7 -20.8 51.2 -8.5 49.25 2.3 42.35 9.45 44.4 16.8 45.75 26.75 47.4 31.4 39.2 L31.55 39.3 33.35 39.55 Q32.35 42.35 30.45 44.6 29.85 45.25 29.0 45.15 25.85 48.45 21.4 47.9 L2.55 45.95 Q-10.85 53.15 -25.9 54.2 L-30.45 53.7 Q-42.5 50.2 -50.9 41.2 -51.4 40.7 -52.2 40.55 -60.95 39.15 -69.45 40.75 -68.15 48.15 -69.3 55.55 -69.65 57.9 -70.4 60.0 L-80.6 61.35 Q-77.6 49.4 -79.45 37.15 L-79.5 36.25 Q-74.85 34.25 -69.55 33.05 -50.05 29.0 -30.0 27.8 12.05 26.65 53.05 36.1 63.25 38.5 71.85 44.3 L71.8 44.5 Q70.4 43.65 68.7 43.95 60.15 45.55 51.5 45.85 M71.85 63.2 Q60.25 66.2 53.05 55.25 L51.95 53.8 Q43.8 53.35 42.3 45.6 41.9 43.45 42.1 41.35 L42.0 40.25 42.8 40.75 Q43.0 49.4 50.95 50.75 L53.45 51.1 Q59.05 59.4 68.15 59.5 70.25 59.5 72.4 58.3 L71.85 63.2 M45.6 44.05 L47.05 45.4 46.15 45.05 45.6 44.05 M-50.7 172.05 L-50.5 170.05 Q-49.65 158.25 -45.05 147.3 L-43.1 148.3 -48.05 174.0 Q-48.25 180.6 -49.5 187.05 L-49.95 188.9 Q-51.15 193.3 -53.65 196.65 L-53.6 197.2 -53.1 197.25 Q-37.6 198.9 -22.0 198.05 L-21.8 198.45 Q-25.15 199.8 -28.55 200.05 -41.25 201.8 -54.2 200.55 L-56.05 207.25 -56.85 207.25 -56.7 207.65 -54.45 211.1 Q-34.4 215.3 -15.05 222.05 -9.0 224.05 -2.75 225.1 L-2.8 225.65 Q-6.6 225.65 -16.5 223.6 L-30.9 220.8 -54.8 216.15 -55.35 216.7 Q-58.65 221.0 -59.7 226.35 L-60.15 229.2 Q-60.15 231.45 -58.6 234.75 L-57.65 236.75 -60.95 236.75 -61.05 236.6 -63.25 229.5 -63.25 229.45 -63.05 228.8 -62.95 228.35 -58.45 215.6 Q-80.3 210.7 -101.45 218.2 L-103.45 218.5 -84.05 210.6 Q-71.9 208.8 -59.6 210.3 L-59.5 207.4 -59.55 207.2 -58.45 200.1 Q-69.9 198.95 -80.6 194.55 L-86.65 191.9 -56.05 196.95 -55.35 196.85 -55.0 195.55 Q-53.4 190.8 -52.35 184.75 L-50.7 172.05 M37.7 207.95 L37.7 208.5 37.5 208.1 37.7 207.95 M37.9 212.65 Q40.5 237.5 41.1 262.15 L41.0 263.25 40.9 263.35 41.0 263.45 40.55 265.75 31.45 260.0 37.85 259.75 Q42.85 248.15 31.8 240.2 L18.85 231.25 36.1 240.0 36.4 217.95 Q25.3 206.35 22.25 190.1 26.6 204.1 37.9 212.65" fill="#4e4718" fill-rule="evenodd" stroke="none"/>
    <path d="M-116.25 171.05 L-116.25 152.8 Q-110.0 135.35 -105.35 117.45 L-108.5 114.5 Q-111.9 111.4 -116.25 110.15 L-116.25 100.3 -107.25 99.5 -98.05 107.1 Q-103.1 117.1 -106.9 127.65 -114.55 148.9 -116.25 171.05 M85.95 221.35 Q68.0 232.9 46.55 236.5 L42.7 237.3 40.05 206.7 48.1 206.5 45.4 205.15 Q43.4 204.25 41.4 204.05 L39.8 203.85 Q38.7 185.45 33.0 167.7 31.75 163.9 31.2 159.9 42.05 156.75 50.55 149.55 L55.65 145.0 57.3 146.35 Q53.55 149.65 57.2 153.9 69.05 167.5 75.85 183.95 80.2 194.4 76.2 204.5 75.7 204.65 75.15 204.9 L61.4 209.55 67.9 208.3 Q64.45 210.25 60.5 210.6 L63.8 211.4 Q72.3 213.25 80.45 210.8 L85.95 221.35" fill="#484848" fill-rule="evenodd" stroke="none"/>
    <path d="M-116.25 245.55 L-116.25 235.7 Q-92.55 227.65 -67.5 228.65 L-63.25 228.8 -63.25 229.45 -63.25 229.5 -61.05 236.6 -61.3 236.75 Q-84.0 237.4 -106.15 242.1 -111.4 243.15 -116.25 245.55 M-99.85 122.95 L-93.7 110.55 Q-76.45 125.4 -58.0 138.8 -51.75 143.35 -45.05 147.3 -49.65 158.25 -50.5 170.05 L-50.7 172.05 -51.3 171.95 Q-60.05 166.75 -67.75 160.25 -86.85 144.25 -99.85 122.95 M-43.1 148.3 Q-32.55 154.85 -20.8 158.55 2.65 165.85 26.6 161.1 27.25 163.85 28.25 166.45 35.95 186.65 37.7 207.95 L37.5 208.1 37.7 208.5 37.9 212.65 Q26.6 204.1 22.25 190.1 25.3 206.35 36.4 217.95 L36.1 240.0 18.85 231.25 31.8 240.2 Q42.85 248.15 37.85 259.75 L31.45 260.0 Q12.35 248.4 -9.4 243.55 -33.3 238.05 -57.65 236.75 L-58.6 234.75 Q-60.15 231.45 -60.15 229.2 L-59.85 228.9 Q-35.9 230.2 -12.1 233.6 L6.45 234.4 7.95 233.35 -30.9 220.8 -16.5 223.6 Q-6.6 225.65 -2.8 225.65 L-0.8 225.5 -2.75 225.1 Q-9.0 224.05 -15.05 222.05 -34.4 215.3 -54.45 211.1 L-56.7 207.65 -56.05 207.25 Q-43.1 209.35 -30.6 213.05 L-26.6 214.05 Q-15.9 216.15 -5.2 215.6 L7.75 214.65 Q3.8 208.65 -2.05 204.65 -5.15 202.55 -8.45 200.95 L-11.05 199.05 -2.85 199.3 -2.1 195.95 Q-26.65 188.45 -48.05 174.0 L-43.1 148.3 M41.0 263.25 L41.0 263.45 40.9 263.35 41.0 263.25 M-59.5 207.4 L-59.6 210.3 Q-71.9 208.8 -84.05 210.6 -82.95 209.45 -81.3 209.2 -70.55 207.6 -59.55 207.4 L-59.5 207.4" fill="#7a7a27" fill-rule="evenodd" stroke="none"/>
    <path d="M-116.25 152.8 L-116.25 110.15 Q-111.9 111.4 -108.5 114.5 L-105.35 117.45 Q-110.0 135.35 -116.25 152.8 M57.3 146.35 Q68.2 155.75 77.5 166.5 88.9 179.75 86.65 196.7 L86.3 197.15 Q83.15 203.2 76.2 204.55 L76.2 204.5 Q80.2 194.4 75.85 183.95 69.05 167.5 57.2 153.9 53.55 149.65 57.3 146.35 M67.9 208.3 Q78.4 206.9 87.9 202.1 92.15 208.2 94.0 215.2 L92.7 216.3 Q89.55 219.15 85.95 221.35 L80.45 210.8 Q72.3 213.25 63.8 211.4 L60.5 210.6 Q64.45 210.25 67.9 208.3" fill="#666666" fill-rule="evenodd" stroke="none"/>
    <path d="M-116.25 235.7 L-116.25 227.65 -107.25 215.75 -111.85 219.1 -112.05 217.7 -112.45 217.25 -112.3 214.15 Q-111.45 203.2 -102.8 196.4 -106.45 196.6 -109.25 198.95 L-110.05 199.6 -110.15 198.9 -111.5 199.05 -113.15 190.1 Q-112.15 179.0 -111.55 167.65 -110.25 144.15 -99.85 122.95 -86.85 144.25 -67.75 160.25 -60.05 166.75 -51.3 171.95 L-52.35 184.75 Q-53.4 190.8 -55.0 195.55 L-56.05 196.95 -86.65 191.9 -80.6 194.55 Q-69.9 198.95 -58.45 200.1 L-59.55 207.2 -59.55 207.4 Q-70.55 207.6 -81.3 209.2 -82.95 209.45 -84.05 210.6 L-103.45 218.5 -101.45 218.2 Q-80.3 210.7 -58.45 215.6 L-59.3 216.85 Q-63.0 222.0 -62.95 228.35 L-63.25 228.8 -67.5 228.65 Q-92.55 227.65 -116.25 235.7 M-53.1 197.25 Q-49.95 193.15 -49.95 188.9 L-49.5 187.05 Q-48.25 180.6 -48.05 174.0 -26.65 188.45 -2.1 195.95 L-2.85 199.3 -11.05 199.05 -8.45 200.95 Q-5.15 202.55 -2.05 204.65 3.8 208.65 7.75 214.65 L-5.2 215.6 Q-15.9 216.15 -26.6 214.05 L-30.6 213.05 Q-43.1 209.35 -56.05 207.25 L-54.2 200.55 Q-41.25 201.8 -28.55 200.05 -25.15 199.8 -21.8 198.45 L-22.0 198.05 Q-37.6 198.9 -53.1 197.25 M-30.9 220.8 L7.95 233.35 6.45 234.4 -12.1 233.6 Q-35.9 230.2 -59.85 228.9 L-59.7 226.35 Q-58.65 221.0 -55.35 216.7 L-54.8 216.15 -30.9 220.8" fill="#aeae37" fill-rule="evenodd" stroke="none"/>
    <path d="M-2.75 225.1 L-0.8 225.5 -2.8 225.65 -2.75 225.1" fill="#24486c" fill-rule="evenodd" stroke="none"/>
    <path d="M37.15 268.2 L-116.25 268.2 -116.25 250.65 Q-92.95 242.3 -67.8 242.35 -43.3 242.35 -19.1 246.25 5.3 249.85 27.1 261.1 32.65 263.9 37.15 268.2" fill="#547128" fill-rule="evenodd" stroke="none"/>
    <path d="M104.1 268.2 L44.0 268.2 Q46.3 259.9 44.0 251.65 42.45 245.95 42.85 240.05 58.0 237.5 72.25 232.3 82.9 228.55 91.75 221.75 L97.55 240.2 104.1 268.2 M91.45 220.9 L91.5 221.05 Q90.35 221.35 91.45 220.9" fill="#1e1e1e" fill-rule="evenodd" stroke="none"/>
  </g>
</svg>
