<?xml version="1.0" encoding="UTF-8" standalone="no"?>
<svg xmlns:xlink="http://www.w3.org/1999/xlink" height="476.85px" width="220.85px" xmlns="http://www.w3.org/2000/svg">
  <g transform="matrix(1.0, 0.0, 0.0, 1.0, 112.25, 206.45)">
    <path d="M53.35 -127.45 Q71.2 -121.8 86.55 -111.1 L85.4 -114.75 Q80.6 -128.65 70.7 -139.55 63.15 -147.45 54.7 -154.15 40.65 -165.35 25.5 -175.05 21.65 -177.55 18.45 -180.65 9.5 -189.1 12.15 -202.35 5.45 -199.8 -1.05 -196.85 -23.0 -187.05 -44.65 -176.7 -67.0 -166.05 -88.7 -153.7 L-94.35 -150.15 Q-106.5 -142.45 -112.25 -129.85 L-112.25 -137.35 -102.85 -146.9 Q-96.1 -153.6 -87.95 -158.25 -75.05 -165.7 -61.65 -172.45 -23.3 -192.0 17.35 -206.45 14.25 -199.95 15.25 -192.9 16.3 -185.45 22.45 -181.4 38.1 -171.05 53.35 -159.85 64.85 -151.4 74.3 -140.8 86.5 -127.15 88.75 -109.45 L93.0 -105.7 Q100.05 -99.35 104.85 -91.05 112.5 -77.85 104.45 -65.9 L106.15 -60.3 Q108.05 -53.95 108.1 -47.5 108.15 -41.85 105.9 -37.45 104.65 -35.1 102.05 -35.3 106.55 -30.75 105.95 -24.35 104.5 -9.25 100.45 5.3 98.35 12.9 90.65 13.9 L90.35 15.7 91.15 17.75 90.6 18.1 Q90.85 23.95 93.9 28.7 L98.25 35.25 97.2 36.0 96.3 36.6 95.2 37.2 94.0 37.5 91.5 38.25 93.15 41.3 Q94.8 44.35 95.45 47.55 97.15 56.2 92.3 63.5 89.45 67.75 84.35 68.65 L86.1 76.25 Q88.55 86.35 89.65 96.7 L89.2 97.05 87.8 98.0 86.75 98.55 83.15 100.1 80.25 101.3 Q80.65 115.5 78.7 129.45 L77.6 129.25 75.05 128.8 74.25 128.55 73.55 128.2 71.6 127.6 69.65 126.7 68.7 145.0 88.25 175.75 Q98.1 191.5 88.85 206.25 L99.55 222.1 94.25 228.65 Q103.95 246.4 107.15 266.0 L104.1 266.75 Q87.1 271.3 69.35 270.2 L103.7 265.45 102.25 258.2 Q98.8 243.9 92.3 230.65 89.6 234.85 85.55 237.85 70.15 249.15 51.0 247.1 L50.65 249.3 52.85 253.5 Q57.0 261.8 60.35 270.2 L57.05 270.2 50.15 254.05 Q43.5 236.6 34.45 220.25 L26.35 220.8 32.0 254.8 32.85 258.65 34.4 270.2 32.25 270.2 30.65 259.95 15.45 256.65 Q13.55 257.8 11.1 257.6 7.7 257.45 5.3 255.15 L4.45 253.9 -15.85 250.2 -16.4 254.95 Q-14.45 257.75 -11.9 264.0 L-9.55 270.2 -12.95 270.2 -17.4 256.8 Q-40.9 257.3 -64.4 256.35 L-72.45 256.2 -78.05 270.2 -80.75 270.2 -79.75 267.75 -77.15 260.2 Q-75.3 254.35 -74.7 248.3 -93.8 250.1 -111.95 256.4 L-112.25 257.45 -112.25 253.7 -112.25 240.4 -109.4 230.45 -109.2 229.45 -109.5 229.55 -104.2 207.6 -112.25 208.0 -112.25 202.0 -107.8 189.8 -100.8 169.85 Q-95.75 155.75 -91.9 141.35 L-91.15 138.45 -91.95 135.7 -112.25 122.85 -112.25 119.35 Q-107.35 123.1 -101.9 126.05 -65.2 145.75 -36.85 176.25 L-34.5 175.0 Q-19.25 165.85 -11.8 149.85 -10.95 151.2 -11.05 153.1 -11.2 155.95 -12.75 158.25 L-16.05 162.9 18.5 204.6 Q21.4 203.65 23.35 201.15 34.7 186.5 40.0 168.7 46.8 145.95 41.0 122.15 41.85 122.15 42.5 123.0 43.1 123.8 43.1 124.95 49.3 141.6 45.7 158.95 L45.6 159.4 Q50.5 163.3 53.8 168.8 54.5 169.95 55.55 170.8 59.4 165.75 61.8 159.55 67.0 146.1 66.75 131.85 66.65 124.9 66.85 118.05 L68.75 120.35 Q69.3 121.3 69.45 122.4 L75.35 124.7 76.8 108.95 Q76.9 98.15 76.45 87.35 76.0 76.2 74.9 65.0 L72.55 71.0 74.55 81.45 Q71.85 87.3 66.9 91.5 61.4 96.1 55.35 99.6 50.3 102.5 44.65 104.15 43.4 96.1 40.7 88.45 L40.1 86.7 Q25.85 83.25 11.4 81.35 -9.5 78.85 -30.05 82.8 L-41.35 98.6 Q-57.3 97.5 -71.9 91.0 -81.3 86.8 -87.25 78.35 L-82.5 102.55 -90.9 107.2 Q-96.15 103.6 -101.8 101.0 L-105.75 99.3 -112.25 80.1 -112.25 71.6 -111.6 73.7 -103.95 96.5 -94.55 102.05 -92.55 102.95 -90.2 103.75 -85.25 101.45 Q-88.3 87.95 -90.1 74.3 -93.05 51.45 -94.25 28.55 -95.4 6.5 -92.05 -15.35 L-98.5 -13.1 -112.25 -4.6 -112.25 -10.15 -99.7 -17.15 Q-81.0 -28.1 -59.85 -28.45 L-61.45 -28.95 Q-78.35 -32.6 -92.8 -42.35 L-103.6 -46.9 -112.0 -49.4 -103.7 -46.65 -112.25 -48.2 -112.25 -49.7 -105.2 -48.25 Q-101.75 -47.6 -98.6 -46.05 -74.05 -34.4 -47.55 -28.95 -38.55 -27.15 -29.6 -24.75 6.55 -14.9 43.25 -19.85 L43.4 -20.35 Q48.4 -21.0 52.9 -23.75 57.2 -26.5 59.45 -31.2 66.3 -45.35 57.5 -59.45 45.25 -76.4 28.05 -88.45 22.9 -92.0 17.7 -96.0 13.45 -99.15 8.3 -100.15 -5.5 -102.7 -19.7 -102.45 -43.0 -102.0 -66.1 -98.05 -89.4 -94.3 -112.25 -88.25 L-112.25 -92.1 Q-88.3 -99.3 -63.55 -103.15 -49.65 -105.5 -35.5 -104.7 L-21.35 -104.8 Q-4.55 -104.95 12.25 -102.8 L50.15 -94.5 67.2 -88.1 Q86.05 -80.1 102.25 -67.6 L103.35 -70.4 Q106.25 -77.2 104.7 -84.3 93.9 -105.4 72.45 -115.8 49.9 -126.7 25.1 -131.1 1.85 -135.3 -21.7 -135.05 -44.25 -134.8 -66.65 -131.4 -90.75 -128.0 -112.25 -116.65 L-112.25 -121.15 Q-101.5 -125.85 -87.75 -129.55 L-76.7 -132.25 Q-60.3 -135.85 -40.25 -138.25 L-7.25 -137.9 -6.2 -137.85 30.85 -133.25 38.1 -131.7 Q46.1 -129.85 53.35 -127.45 M-111.45 248.6 L-112.25 253.7 Q-96.15 247.9 -79.05 246.3 L-74.75 246.45 -74.85 241.2 Q-75.55 232.1 -74.75 222.9 L-74.55 220.75 Q-90.7 222.7 -105.95 228.15 L-111.45 248.6 M60.3 -60.95 L62.4 -56.4 Q84.45 -52.45 100.6 -36.85 L101.7 -37.95 Q106.1 -42.65 105.25 -49.2 104.95 -56.05 102.85 -62.5 L102.65 -62.9 101.25 -63.55 101.15 -64.25 Q64.5 -90.95 19.8 -98.9 L18.6 -99.2 19.65 -98.35 Q40.35 -85.75 55.7 -67.05 L60.3 -60.95 M55.3 -5.85 Q68.75 -6.1 80.3 1.2 L82.95 2.85 Q72.8 -12.35 54.4 -17.1 L48.3 -18.7 Q23.2 -10.65 -3.0 -16.05 L-48.0 -24.45 -58.55 -25.15 Q-74.75 -23.4 -89.55 -16.45 -90.9 -10.25 -91.25 -3.65 L-91.4 0.05 Q-91.8 24.85 -90.2 49.55 L-89.8 56.7 -87.1 70.7 Q-86.7 72.45 -85.7 73.9 -78.3 84.8 -65.75 90.2 -53.5 95.55 -41.35 94.55 L-41.4 93.7 -39.45 90.75 Q-36.05 84.75 -31.95 79.55 L-31.65 79.15 Q-19.15 77.1 -6.5 77.05 18.05 76.95 41.3 83.75 43.45 85.45 44.2 88.5 L44.45 89.35 45.55 93.3 46.9 100.55 50.5 99.3 51.65 98.9 56.15 96.2 Q61.35 92.85 66.0 88.85 68.1 87.45 69.5 85.55 L69.95 85.1 Q71.35 83.65 71.5 81.75 71.9 79.4 71.0 76.95 69.95 74.25 69.75 73.2 L69.65 72.85 69.85 71.4 Q73.1 60.5 77.55 50.0 L79.95 43.8 79.05 42.3 76.55 38.1 76.5 38.05 76.5 38.1 76.4 38.45 Q70.85 56.1 59.35 69.75 57.85 71.5 55.5 72.0 39.55 74.95 22.9 74.05 L-1.35 72.25 -46.7 68.8 Q-53.2 68.3 -58.2 64.3 -62.0 61.25 -64.5 57.15 -72.1 44.7 -76.55 30.75 L-82.6 33.85 -82.6 31.65 Q-75.75 21.75 -64.0 24.5 L-62.1 25.1 -66.75 26.45 Q-64.55 31.0 -59.7 32.15 0.35 46.0 61.75 40.25 66.3 39.55 69.4 36.25 70.4 35.2 71.6 34.35 L65.75 33.05 65.55 32.4 Q73.85 28.25 78.55 36.8 L80.9 41.1 Q84.85 30.25 85.8 18.75 L81.4 18.6 Q82.75 21.0 82.25 23.65 81.45 24.05 80.6 24.4 L79.95 24.0 Q70.45 19.0 60.2 16.7 L60.55 18.7 Q61.05 23.3 58.75 27.3 L58.25 28.0 64.6 27.15 68.0 25.85 66.75 27.0 Q53.85 35.5 40.35 26.6 39.3 25.95 38.7 24.75 L40.5 24.6 43.9 25.35 43.75 19.75 Q40.45 20.9 38.8 18.0 37.85 16.35 37.2 14.55 31.8 3.1 43.8 -2.45 49.3 -4.9 55.3 -5.85 M-66.3 -14.6 L-63.2 -15.8 -64.95 -19.05 Q-59.5 -20.8 -53.75 -21.15 -39.15 -22.2 -27.6 -13.2 -21.7 -8.3 -17.1 -2.2 L-16.1 -3.6 Q-15.8 -3.05 -15.8 -2.5 -15.7 8.85 -25.6 15.8 -30.1 17.8 -34.45 15.6 L-35.5 14.95 Q-39.0 12.0 -42.1 8.45 -41.1 14.1 -44.4 19.3 L-44.25 20.2 -40.8 21.25 -40.7 21.9 Q-58.2 25.25 -70.7 12.55 L-68.4 12.8 -58.65 17.45 Q-60.0 11.15 -56.2 6.1 -54.65 4.0 -52.1 3.05 L-47.25 2.9 -51.95 -2.25 -71.0 5.35 -72.3 5.85 Q-73.3 3.3 -71.0 0.9 L-70.45 0.25 -69.25 -1.45 -73.7 -1.5 Q-74.0 -5.55 -71.6 -9.0 -69.35 -12.3 -66.3 -14.6 M63.65 -31.1 Q60.15 -24.95 54.05 -21.45 L52.25 -20.4 Q75.85 -16.9 86.85 3.7 88.75 7.25 88.3 11.5 95.5 10.0 97.55 3.1 100.15 -5.8 102.0 -14.85 106.6 -25.4 98.85 -33.4 90.55 -41.95 79.75 -47.15 71.75 -51.0 63.3 -53.8 66.75 -42.5 63.65 -31.1 M85.05 8.6 L84.45 6.6 83.4 6.8 85.05 8.6 M38.1 8.7 Q38.15 12.3 40.15 15.25 L41.25 16.75 Q51.8 14.55 62.05 15.6 66.6 16.05 71.0 17.6 75.35 19.1 79.7 20.75 L79.2 16.5 Q82.45 15.6 85.95 15.6 L85.95 14.8 85.9 13.9 Q82.75 9.3 78.3 6.0 L82.8 4.45 Q69.35 -4.1 53.85 -2.85 43.7 -1.95 39.15 6.05 38.45 7.25 38.1 8.7 M89.15 18.45 L88.05 18.55 Q88.45 27.15 85.65 35.3 L86.25 35.7 Q87.95 36.2 89.6 35.7 L93.35 35.35 94.55 34.35 Q88.6 27.75 89.15 18.45 M92.35 57.4 Q95.9 47.45 88.2 40.75 86.5 39.3 84.15 39.75 L84.05 43.05 84.0 44.05 84.0 45.5 Q85.15 44.65 86.5 44.6 L88.0 44.8 89.0 46.1 Q89.65 47.3 89.25 48.25 L88.6 48.1 87.05 46.35 83.9 48.6 83.85 49.95 85.55 49.9 87.2 53.9 86.0 54.3 83.8 50.7 83.75 53.1 84.05 65.2 85.3 64.8 Q90.3 62.7 92.35 57.4 M84.8 96.0 L85.55 95.15 80.35 50.5 Q78.5 55.25 78.6 60.25 79.05 79.25 80.2 98.3 L81.85 97.65 Q83.65 97.35 84.8 96.0 M46.0 22.45 Q47.15 30.7 55.5 27.05 58.25 25.75 58.4 22.55 L56.2 24.45 53.45 23.95 52.0 22.6 51.25 24.65 48.25 24.75 Q46.65 24.0 46.2 22.35 L46.15 22.25 46.0 22.45 M59.55 43.1 L54.9 43.6 54.75 43.65 42.45 44.3 Q19.6 45.25 -3.1 43.6 -28.3 41.45 -53.15 36.6 L-57.35 35.8 Q-57.2 38.2 -57.35 40.65 -57.75 47.55 -51.0 48.4 L-38.5 48.8 -37.95 43.8 Q-28.45 42.35 -19.25 44.45 L-19.9 49.55 Q2.5 53.15 25.2 51.65 L26.1 50.2 39.95 49.9 40.6 50.5 Q46.6 52.8 53.6 51.35 L56.1 51.15 Q58.3 47.7 59.55 43.45 L59.75 43.1 59.55 43.1 M28.1 19.65 L27.25 19.95 Q20.85 20.05 15.9 16.1 L15.3 15.8 Q4.5 21.2 -6.55 16.5 4.25 18.4 12.35 12.85 16.45 10.15 16.55 5.2 L17.25 5.55 Q16.45 17.75 28.75 18.3 L28.1 19.65 M21.1 70.3 L35.9 70.6 49.25 70.35 Q54.15 70.25 57.85 67.7 L61.55 60.85 58.15 60.55 Q55.2 60.35 52.65 62.0 46.25 67.3 37.65 66.45 L17.75 65.3 2.75 64.45 2.95 63.85 1.95 66.45 Q-7.55 67.0 -16.25 64.2 L-16.85 62.5 Q-31.7 62.25 -45.95 59.0 L-46.05 58.35 Q-49.45 52.55 -57.5 54.0 L-58.95 54.15 Q-59.5 58.3 -57.25 61.55 -56.1 63.25 -54.45 63.95 -50.35 65.75 -45.8 66.15 L-15.85 68.8 20.45 70.3 21.1 70.3 M37.2 197.8 L35.4 188.55 31.7 194.85 Q26.85 202.6 19.7 208.55 L17.85 210.1 -2.5 185.15 8.1 217.7 9.25 221.15 17.15 222.0 17.15 226.75 23.65 228.85 22.65 218.2 36.6 217.2 44.45 233.65 41.95 221.4 37.2 197.8 M84.25 176.7 Q77.5 163.35 67.9 151.7 L67.6 151.35 Q65.1 160.9 59.6 169.4 L55.75 175.35 44.85 163.0 Q42.7 172.25 39.05 180.95 L38.05 183.2 42.15 204.45 47.8 231.0 50.3 243.0 Q80.05 247.8 95.4 222.05 L95.2 220.95 94.3 220.5 94.05 220.0 87.35 208.75 84.2 213.75 82.25 214.35 81.95 212.9 82.2 212.4 Q84.05 208.65 86.05 205.0 93.65 191.1 84.25 176.7 M75.1 215.7 L74.8 216.9 Q68.45 217.85 62.4 215.6 53.5 212.15 44.5 209.4 L44.2 209.8 44.3 207.35 46.0 207.2 48.4 207.8 Q61.25 213.25 75.1 215.7 M13.5 248.1 L15.05 224.65 8.2 224.5 7.1 247.25 7.1 247.6 7.05 248.65 6.9 250.2 6.8 253.6 Q11.8 256.6 13.25 251.55 13.7 250.05 13.25 248.8 L13.5 248.1 M4.05 246.1 L5.25 226.4 -12.05 223.85 -13.9 241.8 -14.05 246.85 3.85 250.7 4.05 246.1 M29.2 251.85 L25.25 233.1 Q21.4 230.5 17.05 229.05 L16.15 248.45 16.15 254.1 30.3 257.45 29.2 251.85 M-10.55 215.75 L-11.45 220.6 6.9 224.0 5.0 217.9 -7.75 178.8 -17.9 165.5 Q-21.0 169.85 -24.95 173.4 L-26.5 174.75 -29.7 177.15 Q-23.7 194.15 -19.6 211.75 L-10.25 214.35 -10.55 215.75 M-20.45 5.45 L-18.05 -0.15 Q-30.4 -16.4 -49.9 -18.95 -55.45 -19.4 -61.1 -18.0 L-58.65 -14.35 Q-64.45 -11.35 -69.3 -6.9 L-71.95 -4.35 -66.8 -3.7 Q-66.8 -1.15 -68.35 1.2 L-69.25 2.5 Q-62.0 -1.65 -53.45 -3.6 L-52.95 -3.55 -53.3 -3.85 -53.9 -4.65 -53.65 -5.7 Q-46.25 -2.8 -42.0 4.75 -40.7 7.05 -38.6 8.85 -34.25 12.55 -28.85 14.25 -23.45 10.9 -20.45 5.45 M-6.35 15.9 Q-5.85 15.95 -6.35 15.95 L-6.35 15.9 M-50.15 19.65 L-47.45 19.7 Q-45.95 18.5 -44.8 16.9 -44.05 15.9 -44.3 14.8 -46.75 17.0 -50.15 16.3 -51.35 16.1 -51.8 15.0 L-52.7 14.7 -53.45 15.75 Q-54.75 15.65 -55.55 14.65 L-56.65 12.85 Q-57.9 14.85 -56.55 17.25 L-56.0 18.3 -53.45 19.2 -50.15 19.65 M-100.25 179.1 L-100.65 180.05 -108.9 200.6 -110.6 204.75 -101.1 205.2 -105.0 224.65 -92.85 220.15 -89.85 213.15 -88.15 209.55 Q-79.4 191.8 -72.75 173.2 L-65.65 153.25 -88.05 137.85 Q-90.65 151.35 -94.8 164.35 -97.2 171.9 -100.25 179.1 M-30.05 188.35 L-32.75 178.9 Q-35.7 180.35 -37.95 180.2 L-39.4 180.6 -43.15 175.15 -46.9 185.55 -56.9 209.15 -30.4 210.35 -21.65 211.45 -30.05 188.35 M-45.9 172.6 L-45.75 172.0 Q-53.35 162.9 -62.65 155.55 L-70.05 172.85 -87.35 212.65 -90.3 219.55 Q-82.55 218.2 -74.85 217.6 L-74.55 211.1 -74.5 209.85 -59.5 209.2 Q-58.45 204.0 -56.0 199.05 -49.65 186.3 -45.9 172.6 M-16.4 237.25 L-14.1 218.85 Q-14.0 218.05 -14.45 217.6 -19.05 212.95 -26.35 212.95 -48.9 211.35 -71.6 213.05 L-72.15 236.85 -71.85 244.5 -71.95 243.8 -71.45 252.95 -66.5 253.05 -65.3 253.1 -48.35 253.9 -26.8 253.9 -27.3 254.1 -26.8 254.1 -18.7 254.1 -17.2 245.15 -16.4 237.25 M-31.75 219.05 L-22.8 219.8 -22.95 220.5 -25.2 245.15 -42.45 245.35 Q-54.0 246.0 -65.15 244.2 L-65.0 220.5 -65.0 220.0 -54.75 219.2 -50.35 218.85 Q-41.05 217.85 -31.75 219.05 M-43.95 236.75 Q-38.05 237.5 -36.6 231.95 L-36.5 231.3 -35.4 231.6 Q-35.65 240.95 -43.55 237.05 L-44.1 236.65 -62.45 236.8 -62.4 241.95 Q-44.6 244.2 -27.05 242.3 L-26.65 235.45 -27.85 234.85 Q-29.45 231.65 -27.3 229.15 L-26.65 228.55 -26.85 222.7 Q-44.4 220.95 -62.0 223.0 L-62.1 227.6 Q-51.0 226.4 -40.75 229.9 -39.7 230.2 -39.7 231.4 -39.75 235.6 -43.95 236.6 L-44.0 236.65 -43.95 236.75 M-4.55 232.55 Q-6.8 233.8 -5.3 236.05 -4.25 237.6 -2.3 236.55 -1.6 236.2 -1.3 235.45 -1.3 234.9 -1.45 234.35 L-1.55 233.85 Q-2.55 232.15 -4.55 232.55 M-7.65 233.65 Q-6.6 230.6 -3.45 230.5 -0.55 231.6 -0.3 234.75 0.0 238.15 -3.35 238.85 -7.9 238.5 -7.75 233.8 L-7.65 233.65 M-41.4 233.15 L-41.15 232.6 Q-41.55 232.05 -42.05 231.9 -51.4 228.0 -62.2 229.35 L-62.05 235.2 -61.45 235.4 Q-60.25 235.45 -59.7 234.9 -52.6 235.6 -45.5 235.2 -42.65 235.25 -41.4 233.15" fill="#000000" fill-rule="evenodd" stroke="none"/>
    <path d="M70.7 -139.55 Q80.6 -128.65 85.4 -114.75 L86.55 -111.1 Q71.2 -121.8 53.35 -127.45 62.95 -128.25 67.2 -131.7 70.65 -134.5 70.7 -139.55 M-76.7 -132.25 L-87.75 -129.55 Q-101.5 -125.85 -112.25 -121.15 L-112.25 -129.85 Q-106.5 -142.45 -94.35 -150.15 L-88.7 -153.7 Q-90.55 -149.55 -90.55 -144.8 -90.55 -136.65 -76.7 -132.25 M-98.5 -13.1 L-92.05 -15.35 Q-95.4 6.5 -94.25 28.55 -93.05 51.45 -90.1 74.3 -88.3 87.95 -85.25 101.45 L-90.2 103.75 -92.55 102.95 -94.55 102.05 -103.95 96.5 -111.6 73.7 -112.25 71.4 -112.25 52.7 Q-106.4 56.4 -98.95 58.15 -97.0 76.2 -92.15 93.7 L-90.5 99.3 -90.4 99.9 -90.15 99.2 Q-95.05 74.55 -97.8 49.65 -100.15 28.3 -99.95 6.7 -99.85 -0.55 -99.0 -7.9 L-98.65 -10.95 -98.8 -9.95 -98.5 -13.1 M84.8 96.0 Q83.65 97.35 81.85 97.65 L80.2 98.3 Q79.05 79.25 78.6 60.25 78.5 55.25 80.35 50.5 L85.55 95.15 84.8 96.0" fill="#796d4a" fill-rule="evenodd" stroke="none"/>
    <path d="M53.35 -127.45 Q46.1 -129.85 38.1 -131.7 L30.85 -133.25 -6.2 -137.85 -7.25 -137.9 -40.25 -138.25 Q-60.3 -135.85 -76.7 -132.25 -90.55 -136.65 -90.55 -144.8 -90.55 -149.55 -88.7 -153.7 -67.0 -166.05 -44.65 -176.7 -23.0 -187.05 -1.05 -196.85 5.45 -199.8 12.15 -202.35 9.5 -189.1 18.45 -180.65 21.65 -177.55 25.5 -175.05 40.65 -165.35 54.7 -154.15 63.15 -147.45 70.7 -139.55 70.65 -134.5 67.2 -131.7 62.95 -128.25 53.35 -127.45" fill="#544934" fill-rule="evenodd" stroke="none"/>
    <path d="M-112.25 -116.65 Q-90.75 -128.0 -66.65 -131.4 -44.25 -134.8 -21.7 -135.05 1.85 -135.3 25.1 -131.1 49.9 -126.7 72.45 -115.8 93.9 -105.4 104.7 -84.3 96.45 -80.2 87.5 -82.7 L67.2 -88.1 50.15 -94.5 12.25 -102.8 Q-4.55 -104.95 -21.35 -104.8 L-35.5 -104.7 Q-49.65 -105.5 -63.55 -103.15 -88.3 -99.3 -112.25 -92.1 L-112.25 -116.65 M-112.25 -88.25 Q-89.4 -94.3 -66.1 -98.05 -43.0 -102.0 -19.7 -102.45 -5.5 -102.7 8.3 -100.15 13.45 -99.15 17.7 -96.0 22.9 -92.0 28.05 -88.45 45.25 -76.4 57.5 -59.45 47.3 -44.2 28.55 -40.45 5.15 -35.85 -18.65 -41.55 -42.35 -47.2 -65.9 -53.95 -88.65 -60.5 -112.25 -60.9 L-112.25 -88.25 M-112.25 -48.2 L-103.7 -46.65 -103.6 -46.9 -92.8 -42.35 Q-91.4 -38.3 -94.65 -35.65 -102.55 -29.3 -112.25 -26.45 L-112.25 -48.2 M60.3 -60.95 L55.7 -67.05 Q40.35 -85.75 19.65 -98.35 L19.8 -98.9 Q64.5 -90.95 101.15 -64.25 L101.25 -63.55 102.65 -62.9 102.85 -62.5 Q104.95 -56.05 105.25 -49.2 100.35 -48.85 95.9 -50.35 L60.3 -60.95 M102.0 -14.85 Q98.3 -12.85 95.05 -16.0 81.8 -29.0 63.65 -31.1 66.75 -42.5 63.3 -53.8 71.75 -51.0 79.75 -47.15 90.55 -41.95 98.85 -33.4 106.6 -25.4 102.0 -14.85" fill="#685953" fill-rule="evenodd" stroke="none"/>
    <path d="M104.7 -84.3 Q106.25 -77.2 103.35 -70.4 L102.25 -67.6 Q86.05 -80.1 67.2 -88.1 L87.5 -82.7 Q96.45 -80.2 104.7 -84.3 M57.5 -59.45 Q66.3 -45.35 59.45 -31.2 57.2 -26.5 52.9 -23.75 48.4 -21.0 43.4 -20.35 L43.25 -19.85 Q6.55 -14.9 -29.6 -24.75 -38.55 -27.15 -47.55 -28.95 -74.05 -34.4 -98.6 -46.05 -101.75 -47.6 -105.2 -48.25 L-112.25 -49.7 -112.25 -60.9 Q-88.65 -60.5 -65.9 -53.95 -42.35 -47.2 -18.65 -41.55 5.15 -35.85 28.55 -40.45 47.3 -44.2 57.5 -59.45 M-92.8 -42.35 Q-78.35 -32.6 -61.45 -28.95 L-59.85 -28.45 Q-81.0 -28.1 -99.7 -17.15 L-112.25 -10.15 -112.25 -26.45 Q-102.55 -29.3 -94.65 -35.65 -91.4 -38.3 -92.8 -42.35 M105.25 -49.2 Q106.1 -42.65 101.7 -37.95 L100.6 -36.85 Q84.45 -52.45 62.4 -56.4 L60.3 -60.95 95.9 -50.35 Q100.35 -48.85 105.25 -49.2 M102.0 -14.85 Q100.15 -5.8 97.55 3.1 95.5 10.0 88.3 11.5 88.75 7.25 86.85 3.7 75.85 -16.9 52.25 -20.4 L54.05 -21.45 Q60.15 -24.95 63.65 -31.1 81.8 -29.0 95.05 -16.0 98.3 -12.85 102.0 -14.85" fill="#8e7971" fill-rule="evenodd" stroke="none"/>
    <path d="M55.3 -5.85 Q41.9 -10.9 27.95 -8.15 20.3 -6.65 12.6 -7.85 -5.9 -11.15 -24.55 -13.4 L-22.9 -13.0 -27.6 -13.2 Q-39.15 -22.2 -53.75 -21.15 -59.5 -20.8 -64.95 -19.05 L-63.2 -15.8 -66.3 -14.6 -69.35 -13.9 Q-82.65 -10.65 -91.4 0.05 L-91.25 -3.65 Q-90.9 -10.25 -89.55 -16.45 -74.75 -23.4 -58.55 -25.15 L-48.0 -24.45 -3.0 -16.05 Q23.2 -10.65 48.3 -18.7 L54.4 -17.1 Q72.8 -12.35 82.95 2.85 L80.3 1.2 Q68.75 -6.1 55.3 -5.85 M-25.6 15.8 Q-31.25 20.9 -39.05 21.15 L-40.8 21.25 -44.25 20.2 -44.4 19.3 Q-41.1 14.1 -42.1 8.45 -39.0 12.0 -35.5 14.95 L-34.45 15.6 Q-30.1 17.8 -25.6 15.8 M-68.4 12.8 L-71.0 5.35 -51.95 -2.25 -47.25 2.9 -52.1 3.05 Q-54.65 4.0 -56.2 6.1 -60.0 11.15 -58.65 17.45 L-68.4 12.8 M-71.0 0.9 L-70.85 0.45 -70.45 0.25 -71.0 0.9 M37.2 14.55 Q37.85 16.35 38.8 18.0 40.45 20.9 43.75 19.75 L43.9 25.35 40.5 24.6 Q36.95 22.15 37.1 17.55 L37.2 14.55 M66.75 27.0 L68.0 25.85 64.6 27.15 58.75 27.3 Q61.05 23.3 60.55 18.7 L60.2 16.7 Q70.45 19.0 79.95 24.0 L78.65 24.75 Q75.25 26.4 66.75 27.0 M-82.6 31.65 L-82.6 33.85 -76.55 30.75 Q-72.1 44.7 -64.5 57.15 -62.0 61.25 -58.2 64.3 -53.2 68.3 -46.7 68.8 L-1.35 72.25 22.9 74.05 Q39.55 74.95 55.5 72.0 57.85 71.5 59.35 69.75 70.85 56.1 76.4 38.45 L76.45 38.4 76.55 38.1 79.05 42.3 78.45 43.8 Q79.3 43.3 79.8 44.05 78.7 46.65 77.55 50.0 73.1 60.5 69.85 71.4 L69.65 72.85 69.55 73.15 69.75 73.2 Q69.95 74.25 71.0 76.95 71.9 79.4 71.5 81.75 70.75 83.85 69.5 85.55 68.1 87.45 66.0 88.85 L64.95 89.45 Q60.05 92.05 56.15 96.2 L51.65 98.9 50.5 99.3 48.1 99.65 46.9 100.55 45.55 93.3 45.5 90.5 44.45 89.35 44.2 88.5 Q43.45 85.45 41.3 83.75 L42.25 83.9 43.8 84.6 Q46.3 86.1 47.1 88.9 56.75 87.35 63.5 80.15 64.5 79.15 64.9 77.95 68.1 68.15 70.8 58.0 67.25 66.7 62.45 74.8 62.15 75.3 61.75 74.9 37.75 73.85 13.45 74.75 L12.75 74.45 12.5 73.4 -35.05 71.0 -56.6 68.6 Q-61.55 68.0 -65.05 64.15 -75.75 52.35 -80.35 36.4 L-85.75 39.5 -85.85 38.7 Q-85.2 34.95 -82.6 31.65 M-31.95 79.55 Q-36.05 84.75 -39.45 90.75 L-41.4 93.7 -41.35 94.55 Q-53.5 95.55 -65.75 90.2 -78.3 84.8 -85.7 73.9 -86.7 72.45 -87.1 70.7 L-89.8 56.7 Q-76.55 79.7 -50.35 83.3 -40.05 84.85 -31.95 78.35 L-31.95 79.55 M85.05 8.6 L83.4 6.8 84.45 6.6 85.05 8.6 M84.05 43.05 L84.15 39.75 Q86.5 39.3 88.2 40.75 95.9 47.45 92.35 57.4 88.45 59.75 85.5 56.45 84.3 55.05 83.75 53.1 L83.8 50.7 86.0 54.3 87.2 53.9 85.55 49.9 83.85 49.95 83.9 48.6 87.05 46.35 88.6 48.1 89.25 48.25 Q89.65 47.3 89.0 46.1 L88.0 44.8 86.5 44.6 Q85.15 44.65 84.0 45.5 L84.0 44.05 84.35 43.35 84.05 43.05 M14.6 24.15 L8.55 28.2 9.95 27.95 Q15.15 26.05 20.2 26.1 L20.35 28.2 21.1 27.95 25.25 27.85 23.6 29.8 27.7 29.45 Q28.95 27.1 31.45 27.5 L30.0 29.05 31.95 28.45 33.3 29.1 29.05 30.55 22.45 31.75 17.15 31.6 Q15.0 31.6 13.95 31.05 L15.25 29.1 Q12.6 28.7 10.35 30.15 6.6 32.6 2.65 31.4 L2.65 30.7 -7.45 29.5 Q-11.5 29.95 -15.05 28.2 L-13.9 27.45 -14.3 27.3 Q-10.85 23.3 -5.7 21.35 L-7.9 23.4 -5.95 22.75 -3.75 23.5 Q1.4 21.75 6.8 22.75 L2.45 26.2 12.5 23.15 14.6 24.15 M35.9 70.6 L21.1 70.3 Q25.45 69.35 32.0 70.1 L35.9 70.6 M-53.3 -3.85 L-52.95 -3.55 -53.45 -3.6 -53.3 -3.85 M-3.35 19.8 Q-11.6 23.75 -20.2 26.45 L-25.55 28.2 Q-22.5 24.45 -17.95 22.3 -10.9 18.9 -3.35 19.8 M-28.4 24.55 Q-25.95 22.6 -21.3 20.65 -16.75 18.6 -14.6 18.6 L-22.6 22.4 Q-25.6 23.8 -28.4 24.55 M-63.6 14.5 Q-62.75 15.5 -59.45 15.95 L-63.6 14.5" fill="#886955" fill-rule="evenodd" stroke="none"/>
    <path d="M-27.6 -13.2 L-22.9 -13.0 -24.55 -13.4 Q-5.9 -11.15 12.6 -7.85 20.3 -6.65 27.95 -8.15 41.9 -10.9 55.3 -5.85 49.3 -4.9 43.8 -2.45 31.8 3.1 37.2 14.55 L37.1 17.55 Q36.95 22.15 40.5 24.6 L38.7 24.75 Q39.3 25.95 40.35 26.6 53.85 35.5 66.75 27.0 75.25 26.4 78.65 24.75 L79.95 24.0 80.6 24.4 Q81.45 24.05 82.25 23.65 82.75 21.0 81.4 18.6 L85.8 18.75 Q84.85 30.25 80.9 41.1 L78.55 36.8 Q73.85 28.25 65.55 32.4 L65.75 33.05 71.6 34.35 Q70.4 35.2 69.4 36.25 66.3 39.55 61.75 40.25 0.35 46.0 -59.7 32.15 -64.55 31.0 -66.75 26.45 L-62.1 25.1 -64.0 24.5 Q-75.75 21.75 -82.6 31.65 -85.2 34.95 -85.85 38.7 L-85.75 39.5 -80.35 36.4 Q-75.75 52.35 -65.05 64.15 -61.55 68.0 -56.6 68.6 L-35.05 71.0 12.5 73.4 12.75 74.45 13.45 74.75 Q37.75 73.85 61.75 74.9 62.15 75.3 62.45 74.8 67.25 66.7 70.8 58.0 68.1 68.15 64.9 77.95 64.5 79.15 63.5 80.15 56.75 87.35 47.1 88.9 46.3 86.1 43.8 84.6 L42.25 83.9 41.3 83.75 Q18.05 76.95 -6.5 77.05 -19.15 77.1 -31.65 79.15 L-31.95 79.55 -31.95 78.35 Q-40.05 84.85 -50.35 83.3 -76.55 79.7 -89.8 56.7 L-90.2 49.55 Q-91.8 24.85 -91.4 0.05 -82.65 -10.65 -69.35 -13.9 L-66.3 -14.6 Q-69.35 -12.3 -71.6 -9.0 -74.0 -5.55 -73.7 -1.5 L-69.25 -1.45 -70.45 0.25 -70.85 0.45 -71.0 0.9 Q-73.3 3.3 -72.3 5.85 L-71.0 5.35 -68.4 12.8 -70.7 12.55 Q-58.2 25.25 -40.7 21.9 L-40.8 21.25 -39.05 21.15 Q-31.25 20.9 -25.6 15.8 -15.7 8.85 -15.8 -2.5 -15.8 -3.05 -16.1 -3.6 L-17.1 -2.2 Q-21.7 -8.3 -27.6 -13.2 M64.6 27.15 L58.25 28.0 58.75 27.3 64.6 27.15 M79.05 42.3 L79.95 43.8 77.55 50.0 Q78.7 46.65 79.8 44.05 79.3 43.3 78.45 43.8 L79.05 42.3 M69.65 72.85 L69.75 73.2 69.55 73.15 69.65 72.85 M71.5 81.75 Q71.35 83.65 69.95 85.1 L69.5 85.55 Q70.75 83.85 71.5 81.75 M66.0 88.85 Q61.35 92.85 56.15 96.2 60.05 92.05 64.95 89.45 L66.0 88.85 M50.5 99.3 L46.9 100.55 48.1 99.65 50.5 99.3 M45.55 93.3 L44.45 89.35 45.5 90.5 45.55 93.3 M84.05 43.05 L84.35 43.35 84.0 44.05 84.05 43.05 M83.75 53.1 Q84.3 55.05 85.5 56.45 88.45 59.75 92.35 57.4 90.3 62.7 85.3 64.8 L84.05 65.2 83.75 53.1 M76.45 38.4 L76.5 38.1 76.55 38.1 76.45 38.4 M28.1 19.65 L28.75 18.3 Q16.45 17.75 17.25 5.55 L16.55 5.2 Q16.45 10.15 12.35 12.85 4.25 18.4 -6.55 16.5 4.5 21.2 15.3 15.8 L15.9 16.1 Q20.85 20.05 27.25 19.95 L28.1 19.65 M14.6 24.15 L12.5 23.15 2.45 26.2 6.8 22.75 Q1.4 21.75 -3.75 23.5 L-5.95 22.75 -7.9 23.4 -5.7 21.35 Q-10.85 23.3 -14.3 27.3 L-13.9 27.45 -15.05 28.2 Q-11.5 29.95 -7.45 29.5 L2.65 30.7 2.65 31.4 Q6.6 32.6 10.35 30.15 12.6 28.7 15.25 29.1 L13.95 31.05 Q15.0 31.6 17.15 31.6 L22.45 31.75 29.05 30.55 33.3 29.1 31.95 28.45 30.0 29.05 31.45 27.5 Q28.95 27.1 27.7 29.45 L23.6 29.8 25.25 27.85 21.1 27.95 20.35 28.2 20.2 26.1 Q15.15 26.05 9.95 27.95 L8.55 28.2 14.6 24.15 M-3.35 19.8 Q-10.9 18.9 -17.95 22.3 -22.5 24.45 -25.55 28.2 L-20.2 26.45 Q-11.6 23.75 -3.35 19.8 M-6.35 15.9 L-6.35 15.95 Q-5.85 15.95 -6.35 15.9 M-28.4 24.55 Q-25.6 23.8 -22.6 22.4 L-14.6 18.6 Q-16.75 18.6 -21.3 20.65 -25.95 22.6 -28.4 24.55 M-63.6 14.5 L-59.45 15.95 Q-62.75 15.5 -63.6 14.5" fill="#a58269" fill-rule="evenodd" stroke="none"/>
    <path d="M-112.25 80.1 L-105.75 99.3 -101.8 101.0 Q-96.15 103.6 -90.9 107.2 L-82.5 102.55 -87.25 78.35 Q-81.3 86.8 -71.9 91.0 -57.3 97.5 -41.35 98.6 L-30.05 82.8 Q-9.5 78.85 11.4 81.35 25.85 83.25 40.1 86.7 L40.7 88.45 Q43.4 96.1 44.65 104.15 50.3 102.5 55.35 99.6 61.4 96.1 66.9 91.5 71.85 87.3 74.55 81.45 L72.55 71.0 74.9 65.0 Q76.0 76.2 76.45 87.35 76.9 98.15 76.8 108.95 L71.65 117.8 70.85 116.95 Q68.15 114.7 64.85 113.35 65.05 130.2 56.25 144.5 51.7 135.2 45.0 127.2 L43.1 124.95 Q43.1 123.8 42.5 123.0 41.85 122.15 41.0 122.15 38.35 143.05 21.2 155.2 L18.8 156.85 -9.45 128.7 Q-18.8 141.45 -32.1 150.7 -63.65 130.75 -97.55 114.8 -105.7 110.95 -112.25 104.6 L-112.25 80.1 M38.1 8.7 Q38.45 7.25 39.15 6.05 43.7 -1.95 53.85 -2.85 69.35 -4.1 82.8 4.45 L78.3 6.0 Q82.75 9.3 85.9 13.9 L85.95 14.8 Q76.85 8.85 66.75 5.25 68.65 6.9 68.95 9.4 L65.65 10.1 Q51.45 13.35 38.1 8.7 M89.15 18.45 Q88.6 27.75 94.55 34.35 L93.35 35.35 89.6 35.7 Q87.95 36.2 86.25 35.7 L85.65 35.3 Q88.45 27.15 88.05 18.55 L89.15 18.45 M21.4 93.9 Q24.3 92.65 27.7 92.15 L34.05 92.4 31.55 90.8 Q14.3 80.75 -5.2 86.2 -4.6 93.5 -6.3 100.5 -7.35 104.65 -10.65 107.3 L-8.85 107.35 Q-5.1 106.8 -2.0 104.95 1.7 102.65 3.85 98.9 L19.2 113.3 Q21.65 109.2 22.2 104.55 22.9 99.05 21.4 93.9 M-66.8 -3.7 L-71.95 -4.35 -69.3 -6.9 Q-64.45 -11.35 -58.65 -14.35 L-61.1 -18.0 Q-55.45 -19.4 -49.9 -18.95 -30.4 -16.4 -18.05 -0.15 L-20.45 5.45 Q-27.35 8.6 -33.9 3.75 -41.6 -2.1 -47.85 -9.7 L-44.85 -12.15 Q-48.15 -12.05 -52.45 -10.6 -60.05 -7.9 -66.8 -3.7" fill="#241f1c" fill-rule="evenodd" stroke="none"/>
    <path d="M76.8 108.95 L75.35 124.7 69.45 122.4 Q69.3 121.3 68.75 120.35 L66.85 118.05 Q66.65 124.9 66.75 131.85 67.0 146.1 61.8 159.55 59.4 165.75 55.55 170.8 54.5 169.95 53.8 168.8 50.5 163.3 45.6 159.4 L45.7 158.95 Q49.3 141.6 43.1 124.95 L45.0 127.2 Q51.7 135.2 56.25 144.5 65.05 130.2 64.85 113.35 68.15 114.7 70.85 116.95 L71.65 117.8 76.8 108.95 M41.0 122.15 Q46.8 145.95 40.0 168.7 34.7 186.5 23.35 201.15 21.4 203.65 18.5 204.6 L-16.05 162.9 -12.75 158.25 Q-11.2 155.95 -11.05 153.1 -10.95 151.2 -11.8 149.85 -19.25 165.85 -34.5 175.0 L-36.85 176.25 Q-65.2 145.75 -101.9 126.05 -107.35 123.1 -112.25 119.35 L-112.25 104.6 Q-105.7 110.95 -97.55 114.8 -63.65 130.75 -32.1 150.7 -18.8 141.45 -9.45 128.7 L18.8 156.85 21.2 155.2 Q38.35 143.05 41.0 122.15 M85.95 14.8 L85.95 15.6 Q82.45 15.6 79.2 16.5 L79.7 20.75 Q75.35 19.1 71.0 17.6 66.6 16.05 62.05 15.6 51.8 14.55 41.25 16.75 L40.15 15.25 Q38.15 12.3 38.1 8.7 51.45 13.35 65.65 10.1 L68.95 9.4 Q68.65 6.9 66.75 5.25 76.85 8.85 85.95 14.8 M21.4 93.9 Q22.9 99.05 22.2 104.55 21.65 109.2 19.2 113.3 L3.85 98.9 Q1.7 102.65 -2.0 104.95 -5.1 106.8 -8.85 107.35 L-10.65 107.3 Q-7.35 104.65 -6.3 100.5 -4.6 93.5 -5.2 86.2 14.3 80.75 31.55 90.8 L34.05 92.4 27.7 92.15 Q24.3 92.65 21.4 93.9 M-66.8 -3.7 Q-60.05 -7.9 -52.45 -10.6 -48.15 -12.05 -44.85 -12.15 L-47.85 -9.7 Q-41.6 -2.1 -33.9 3.75 -27.35 8.6 -20.45 5.45 -23.45 10.9 -28.85 14.25 -34.25 12.55 -38.6 8.85 -40.7 7.05 -42.0 4.75 -46.25 -2.8 -53.65 -5.7 L-53.9 -4.65 -53.3 -3.85 -53.45 -3.6 Q-62.0 -1.65 -69.25 2.5 L-68.35 1.2 Q-66.8 -1.15 -66.8 -3.7" fill="#5b4d46" fill-rule="evenodd" stroke="none"/>
    <path d="M-112.25 -4.6 L-98.5 -13.1 -98.8 -9.95 -99.4 -6.05 Q-102.0 13.5 -100.65 33.3 -106.15 32.05 -112.25 28.25 L-112.25 -4.6" fill="#5f533a" fill-rule="evenodd" stroke="none"/>
    <path d="M-100.65 33.3 Q-102.0 13.5 -99.4 -6.05 L-98.8 -9.95 -98.65 -10.95 -99.0 -7.9 Q-99.85 -0.55 -99.95 6.7 -100.15 28.3 -97.8 49.65 -95.05 74.55 -90.15 99.2 L-90.5 99.3 -92.15 93.7 Q-97.0 76.2 -98.95 58.15 L-100.65 33.3" fill="#ded8cb" fill-rule="evenodd" stroke="none"/>
    <path d="M46.2 22.35 Q46.65 24.0 48.25 24.75 L51.25 24.65 52.0 22.6 53.45 23.95 56.2 24.45 58.4 22.55 Q58.25 25.75 55.5 27.05 47.15 30.7 46.0 22.45 L46.2 22.35 M54.75 27.05 L55.0 26.05 49.65 26.9 50.45 27.7 54.75 27.05 M-50.15 19.65 L-48.55 19.2 Q-51.65 17.45 -54.65 17.75 L-53.45 19.2 -56.0 18.3 -56.55 17.25 Q-57.9 14.85 -56.65 12.85 L-55.55 14.65 Q-54.75 15.65 -53.45 15.75 L-52.7 14.7 -51.8 15.0 Q-51.35 16.1 -50.15 16.3 -46.75 17.0 -44.3 14.8 -44.05 15.9 -44.8 16.9 -45.95 18.5 -47.45 19.7 L-50.15 19.65" fill="#8e018f" fill-rule="evenodd" stroke="none"/>
    <path d="M54.75 27.05 L50.45 27.7 49.65 26.9 55.0 26.05 54.75 27.05 M-90.15 99.2 L-90.4 99.9 -90.5 99.3 -90.15 99.2 M-53.45 19.2 L-54.65 17.75 Q-51.65 17.45 -48.55 19.2 L-50.15 19.65 -53.45 19.2" fill="#ffffff" fill-rule="evenodd" stroke="none"/>
    <path d="M54.85 43.65 Q54.8 48.2 53.6 51.35 46.6 52.8 40.6 50.5 L39.95 49.9 26.1 50.2 25.2 51.65 Q2.5 53.15 -19.9 49.55 L-19.25 44.45 Q-28.45 42.35 -37.95 43.8 L-38.5 48.8 -51.0 48.4 Q-54.55 43.35 -53.25 37.25 L-53.15 36.6 Q-28.3 41.45 -3.1 43.6 19.6 45.25 42.45 44.3 L54.75 43.65 54.85 43.65 M35.9 70.6 L32.0 70.1 Q25.45 69.35 21.1 70.3 L20.45 70.3 -15.85 68.8 -45.8 66.15 Q-50.35 65.75 -54.45 63.95 -55.65 59.9 -51.2 58.4 -48.7 57.65 -46.05 58.35 L-45.95 59.0 Q-31.7 62.25 -16.85 62.5 L-16.25 64.2 Q-7.55 67.0 1.95 66.45 L2.95 63.85 2.75 64.45 17.75 65.3 37.65 66.45 Q46.25 67.3 52.65 62.0 54.45 62.4 56.1 63.25 59.1 64.8 57.85 67.7 54.15 70.25 49.25 70.35 L35.9 70.6" fill="#fefdb4" fill-rule="evenodd" stroke="none"/>
    <path d="M59.55 43.1 L59.55 43.45 Q58.3 47.7 56.1 51.15 L53.6 51.35 Q54.8 48.2 54.85 43.65 L54.9 43.6 59.55 43.1 M-53.15 36.6 L-53.25 37.25 Q-54.55 43.35 -51.0 48.4 -57.75 47.55 -57.35 40.65 -57.2 38.2 -57.35 35.8 L-53.15 36.6 M-54.45 63.95 Q-56.1 63.25 -57.25 61.55 -59.5 58.3 -58.95 54.15 L-57.5 54.0 Q-49.45 52.55 -46.05 58.35 -48.7 57.65 -51.2 58.4 -55.65 59.9 -54.45 63.95 M52.65 62.0 Q55.2 60.35 58.15 60.55 L61.55 60.85 57.85 67.7 Q59.1 64.8 56.1 63.25 54.45 62.4 52.65 62.0" fill="#e6e677" fill-rule="evenodd" stroke="none"/>
    <path d="M46.0 22.45 L46.15 22.25 46.2 22.35 46.0 22.45" fill="#f402f4" fill-rule="evenodd" stroke="none"/>
    <path d="M-112.25 122.85 L-91.95 135.7 -91.15 138.45 -91.9 141.35 Q-95.75 155.75 -100.8 169.85 L-112.25 174.0 -112.25 122.85 M-107.8 189.8 L-112.25 202.0 -112.25 191.8 Q-109.6 190.9 -107.8 189.8 M38.05 183.2 L39.05 180.95 Q42.7 172.25 44.85 163.0 L55.75 175.35 59.6 169.4 Q65.1 160.9 67.6 151.35 L67.9 151.7 Q77.5 163.35 84.25 176.7 80.9 190.55 66.7 192.95 64.55 193.25 62.5 193.0 49.45 190.8 38.05 183.2 M82.2 212.4 L81.95 212.9 82.25 214.35 84.2 213.75 87.35 208.75 94.05 220.0 Q79.8 233.8 59.75 233.9 53.2 234.65 47.8 231.0 L42.15 204.45 46.0 207.2 44.3 207.35 44.2 209.8 44.5 209.4 Q53.5 212.15 62.4 215.6 68.45 217.85 74.8 216.9 L75.1 215.7 74.95 214.95 82.2 212.4 M-46.9 185.55 L-43.15 175.15 -39.4 180.6 -37.95 180.2 Q-35.7 180.35 -32.75 178.9 L-30.05 188.35 -31.5 187.65 Q-38.95 183.6 -46.9 185.55" fill="#484848" fill-rule="evenodd" stroke="none"/>
    <path d="M-100.8 169.85 L-107.8 189.8 Q-109.6 190.9 -112.25 191.8 L-112.25 174.0 -100.8 169.85 M-78.05 270.2 L-72.45 256.2 -64.4 256.35 Q-40.9 257.3 -17.4 256.8 L-12.95 270.2 -78.05 270.2 M84.25 176.7 Q93.65 191.1 86.05 205.0 84.05 208.65 82.2 212.4 L74.95 214.95 75.1 215.7 Q61.25 213.25 48.4 207.8 L46.0 207.2 42.15 204.45 38.05 183.2 Q49.45 190.8 62.5 193.0 64.55 193.25 66.7 192.95 80.9 190.55 84.25 176.7 M94.05 220.0 L94.3 220.5 95.2 220.95 95.4 222.05 Q80.05 247.8 50.3 243.0 L47.8 231.0 Q53.2 234.65 59.75 233.9 79.8 233.8 94.05 220.0 M-46.9 185.55 Q-38.95 183.6 -31.5 187.65 L-30.05 188.35 -21.65 211.45 -30.4 210.35 -56.9 209.15 -46.9 185.55" fill="#666666" fill-rule="evenodd" stroke="none"/>
    <path d="M60.35 270.2 Q57.0 261.8 52.85 253.5 L50.65 249.3 51.0 247.1 Q70.15 249.15 85.55 237.85 89.6 234.85 92.3 230.65 98.8 243.9 102.25 258.2 L103.7 265.45 69.35 270.2 60.35 270.2" fill="#333333" fill-rule="evenodd" stroke="none"/>
    <path d="M8.1 217.7 L8.5 215.6 Q15.05 215.25 19.15 219.6 19.95 220.45 19.45 221.45 L20.1 221.85 Q21.2 219.5 20.8 216.9 20.55 215.45 20.8 213.9 L36.05 215.75 Q37.75 215.7 39.2 217.65 L41.95 221.4 44.45 233.65 36.6 217.2 22.65 218.2 23.65 228.85 17.15 226.75 17.15 222.0 9.25 221.15 8.1 217.7 M5.0 217.9 L6.9 224.0 -11.45 220.6 -10.55 215.75 5.0 217.9 M-108.9 200.6 Q-107.65 199.4 -106.8 199.65 -102.65 199.0 -98.65 199.45 L-97.95 200.7 -99.95 213.9 -89.85 213.15 -92.85 220.15 -105.0 224.65 -101.1 205.2 -110.6 204.75 -108.9 200.6 M-87.35 212.65 L-79.05 211.2 -74.55 211.1 -74.85 217.6 Q-82.55 218.2 -90.3 219.55 L-87.35 212.65" fill="#554844" fill-rule="evenodd" stroke="none"/>
    <path d="M-112.25 208.0 L-104.2 207.6 -109.5 229.55 -109.25 229.65 -109.4 230.45 -112.25 240.4 -112.25 231.2 -111.8 221.8 -112.25 221.8 -112.25 208.0 M-111.45 248.6 L-105.95 228.15 Q-90.7 222.7 -74.55 220.75 L-74.75 222.9 Q-75.55 232.1 -74.85 241.2 -91.95 241.4 -108.0 247.25 L-111.45 248.6 M32.0 254.8 L26.35 220.8 34.45 220.25 Q43.5 236.6 50.15 254.05 44.7 242.1 36.15 232.95 35.05 231.85 33.55 231.35 L31.45 233.0 31.95 253.5 32.0 254.8 M7.1 247.25 L8.2 224.5 15.05 224.65 13.5 248.1 Q11.15 249.6 7.9 248.8 L7.1 248.7 7.05 248.65 7.1 247.6 Q7.1 247.45 7.25 247.45 L7.1 247.25 M-13.9 241.8 L-12.05 223.85 5.25 226.4 4.05 246.1 -13.9 241.8 M16.15 248.45 L17.05 229.05 Q21.4 230.5 25.25 233.1 L29.2 251.85 Q24.55 249.9 19.5 249.05 L16.15 248.45 M-43.95 236.6 Q-39.75 235.6 -39.7 231.4 -39.7 230.2 -40.75 229.9 -51.0 226.4 -62.1 227.6 L-62.0 223.0 Q-44.4 220.95 -26.85 222.7 L-26.65 228.55 -27.3 229.15 Q-29.45 231.65 -27.85 234.85 L-26.65 235.45 -27.05 242.3 Q-44.6 244.2 -62.4 241.95 L-62.45 236.8 -44.1 236.65 -43.55 237.05 Q-35.65 240.95 -35.4 231.6 L-36.5 231.3 -36.6 231.95 Q-38.05 237.5 -43.95 236.75 L-43.95 236.6 M-7.65 233.65 L-7.75 233.8 Q-7.9 238.5 -3.35 238.85 0.0 238.15 -0.3 234.75 -0.55 231.6 -3.45 230.5 -6.6 230.6 -7.65 233.65 M-4.55 232.55 Q-2.55 232.15 -1.55 233.85 L-1.45 234.35 Q-1.3 234.9 -1.3 235.45 -1.6 236.2 -2.3 236.55 -4.25 237.6 -5.3 236.05 -6.8 233.8 -4.55 232.55" fill="#604d39" fill-rule="evenodd" stroke="none"/>
    <path d="M-109.5 229.55 L-109.2 229.45 -109.25 229.65 -109.5 229.55 M-112.25 253.7 L-111.45 248.6 -108.0 247.25 Q-91.95 241.4 -74.85 241.2 L-74.75 246.45 -79.05 246.3 Q-96.15 247.9 -112.25 253.7 M34.4 270.2 L32.85 258.65 31.95 253.5 31.45 233.0 33.55 231.35 Q35.05 231.85 36.15 232.95 44.7 242.1 50.15 254.05 L57.05 270.2 34.4 270.2 M7.1 248.7 L7.9 248.8 Q11.15 249.6 13.5 248.1 L13.25 248.8 Q13.7 250.05 13.25 251.55 11.8 256.6 6.8 253.6 L6.9 250.2 7.1 248.7 M-13.9 241.8 L4.05 246.1 3.85 250.7 -14.05 246.85 -13.9 241.8 M16.15 248.45 L19.5 249.05 Q24.55 249.9 29.2 251.85 L30.3 257.45 16.15 254.1 16.15 248.45 M-112.25 221.8 L-111.8 221.8 -112.25 231.2 -112.25 221.8" fill="#886c4d" fill-rule="evenodd" stroke="none"/>
    <path d="M37.2 197.8 L31.7 194.85 35.4 188.55 37.2 197.8 M-26.5 174.75 L-24.95 173.4 Q-21.0 169.85 -17.9 165.5 L-7.75 178.8 -26.5 174.75 M-100.6 180.05 L-100.25 179.1 Q-97.2 171.9 -94.8 164.35 -90.65 151.35 -88.05 137.85 L-65.65 153.25 -72.75 173.2 Q-86.45 174.3 -99.1 179.3 -99.9 179.6 -100.6 180.05 M-45.9 172.6 Q-56.25 171.8 -66.75 172.6 L-70.05 172.85 -62.65 155.55 Q-53.35 162.9 -45.75 172.0 L-45.9 172.6" fill="#4a403e" fill-rule="evenodd" stroke="none"/>
    <path d="M-112.25 257.45 L-111.95 256.4 Q-93.8 250.1 -74.7 248.3 -75.3 254.35 -77.15 260.2 L-79.75 267.75 -80.75 270.2 -112.25 270.2 -112.25 257.45 M-9.55 270.2 L-11.9 264.0 Q-14.45 257.75 -16.4 254.95 L-15.85 250.2 4.45 253.9 5.3 255.15 Q7.7 257.45 11.1 257.6 13.55 257.8 15.45 256.65 L30.65 259.95 32.25 270.2 -9.55 270.2 M31.7 194.85 L37.2 197.8 41.95 221.4 39.2 217.65 Q37.75 215.7 36.05 215.75 L20.8 213.9 Q20.55 215.45 20.8 216.9 21.2 219.5 20.1 221.85 L19.45 221.45 Q19.95 220.45 19.15 219.6 15.05 215.25 8.5 215.6 L8.1 217.7 -2.5 185.15 17.85 210.1 19.7 208.55 Q26.85 202.6 31.7 194.85 M-10.55 215.75 L-10.25 214.35 -19.6 211.75 Q-23.7 194.15 -29.7 177.15 L-26.5 174.75 -7.75 178.8 5.0 217.9 -10.55 215.75 M-100.65 180.05 L-100.6 180.05 Q-99.9 179.6 -99.1 179.3 -86.45 174.3 -72.75 173.2 -79.4 191.8 -88.15 209.55 L-89.85 213.15 -99.95 213.9 -97.95 200.7 -98.65 199.45 Q-102.65 199.0 -106.8 199.65 -107.65 199.4 -108.9 200.6 L-100.65 180.05 M-70.05 172.85 L-66.75 172.6 Q-56.25 171.8 -45.9 172.6 -49.65 186.3 -56.0 199.05 -58.45 204.0 -59.5 209.2 L-74.5 209.85 -74.55 211.1 -79.05 211.2 -87.35 212.65 -70.05 172.85" fill="#6f5e55" fill-rule="evenodd" stroke="none"/>
    <path d="M-17.2 245.15 L-18.7 254.1 -26.8 254.1 -26.8 253.9 -48.35 253.9 -65.3 253.1 -64.65 253.05 -66.5 253.05 -71.45 252.95 -71.95 243.8 -71.85 244.5 -72.15 236.85 -66.8 248.9 Q-44.2 249.9 -21.6 249.1 L-16.8 237.7 -16.65 237.7 -17.2 245.15 M-22.95 220.5 L-22.8 219.8 -31.75 219.05 -35.05 218.45 -54.75 219.2 -65.0 220.0 -65.0 220.5 -65.25 219.75 Q-63.1 217.4 -60.15 216.8 -41.0 213.7 -22.15 219.2 L-21.95 219.9 -22.55 220.0 -22.95 220.5 M-41.4 233.15 Q-42.65 235.25 -45.5 235.2 -52.6 235.6 -59.7 234.9 L-60.25 234.85 -59.1 234.55 Q-51.05 230.8 -41.4 233.15" fill="#e3ac2d" fill-rule="evenodd" stroke="none"/>
    <path d="M-72.15 236.85 L-71.6 213.05 Q-48.9 211.35 -26.35 212.95 -19.05 212.95 -14.45 217.6 -14.0 218.05 -14.1 218.85 L-16.4 237.25 -16.6 237.45 -16.8 237.7 -21.6 249.1 Q-44.2 249.9 -66.8 248.9 L-72.15 236.85 M-22.95 220.5 L-22.55 220.0 -21.95 219.9 -22.15 219.2 Q-41.0 213.7 -60.15 216.8 -63.1 217.4 -65.25 219.75 L-65.0 220.5 -65.15 244.2 Q-54.0 246.0 -42.45 245.35 L-25.2 245.15 -22.95 220.5 M-54.75 219.2 L-35.05 218.45 -31.75 219.05 Q-41.05 217.85 -50.35 218.85 L-54.75 219.2 M-59.7 234.9 Q-60.25 235.45 -61.45 235.4 L-62.05 235.2 -62.2 229.35 Q-51.4 228.0 -42.05 231.9 -41.55 232.05 -41.15 232.6 L-41.4 233.15 Q-51.05 230.8 -59.1 234.55 L-60.25 234.85 -59.7 234.9" fill="#8e6913" fill-rule="evenodd" stroke="none"/>
    <path d="M-16.8 237.7 L-16.6 237.45 -16.65 237.7 -16.8 237.7" fill="#bc9318" fill-rule="evenodd" stroke="none"/>
    <path d="M-98.95 58.15 Q-106.4 56.4 -112.25 52.7 L-112.25 28.25 Q-106.15 32.05 -100.65 33.3 L-98.95 58.15" fill="#6f6144" fill-rule="evenodd" stroke="none"/>
  </g>
</svg>
