<?xml version="1.0" encoding="UTF-8" standalone="no"?>
<svg xmlns:xlink="http://www.w3.org/1999/xlink" height="483.7px" width="222.2px" xmlns="http://www.w3.org/2000/svg">
  <g transform="matrix(1.0, 0.0, 0.0, 1.0, 117.25, 225.2)">
    <path d="M-11.75 -156.95 Q0.95 -156.05 12.8 -152.35 L16.85 -151.0 Q12.15 -157.3 5.85 -161.75 L2.75 -163.85 Q-2.4 -184.65 -5.65 -205.85 L-6.95 -211.55 -10.75 -196.1 Q-14.0 -181.8 -17.85 -167.55 -23.15 -165.7 -27.85 -162.7 -31.5 -160.4 -34.5 -157.25 L-34.9 -156.8 -34.7 -156.1 -11.75 -156.95 M-117.25 -95.3 Q-110.15 -118.75 -90.65 -134.45 -70.7 -150.5 -45.6 -155.8 -41.4 -156.5 -37.95 -159.05 -29.6 -165.05 -20.75 -170.15 L-6.1 -225.2 4.2 -166.4 Q15.3 -157.45 25.45 -147.5 27.1 -145.9 29.3 -144.85 59.15 -130.65 77.1 -103.15 87.1 -87.8 89.25 -69.15 103.5 -61.2 104.65 -45.85 105.45 -34.95 104.05 -24.15 103.7 -21.4 102.35 -18.85 98.2 -11.1 90.7 -6.5 92.05 5.3 88.05 16.25 86.8 19.65 84.1 21.85 L83.75 22.2 84.45 22.65 Q91.5 36.65 85.5 52.4 L84.5 54.9 83.2 55.8 Q97.1 61.9 104.4 75.05 105.3 89.0 100.2 101.95 91.7 105.0 82.6 105.2 85.8 117.85 81.3 129.35 L79.75 132.4 Q85.4 142.0 78.25 149.5 76.8 151.05 74.75 151.5 L71.45 151.65 71.0 152.15 70.75 153.7 Q89.25 169.35 86.95 193.25 86.7 195.7 86.05 198.15 92.55 208.1 96.9 219.25 L92.25 223.95 Q99.7 238.95 102.75 255.45 102.95 256.55 102.55 257.8 L101.0 257.75 101.0 256.75 Q99.9 251.95 98.35 247.35 94.7 236.35 90.6 225.5 84.7 230.1 77.6 232.9 64.9 238.0 51.35 239.55 L53.05 257.75 53.05 258.5 49.4 258.5 49.35 258.05 -117.25 257.2 -117.25 246.95 Q-103.55 242.6 -89.35 240.6 L-89.0 240.5 -71.55 238.0 -65.55 237.9 Q-42.65 237.25 -19.65 238.9 -3.0 240.2 13.25 244.05 L15.95 244.7 49.2 254.3 48.25 238.5 47.7 238.35 48.25 237.95 Q47.35 222.35 44.05 206.95 L43.95 207.1 43.9 207.05 43.85 206.85 Q43.85 190.2 37.7 174.65 L32.4 175.65 32.05 175.95 29.95 176.15 27.55 176.25 Q21.0 177.35 16.4 172.75 L15.35 171.45 14.45 169.6 14.25 170.05 Q13.0 172.1 11.05 173.2 2.5 178.15 -7.8 176.15 L-7.8 176.05 -7.85 176.05 Q-19.45 176.05 -22.15 165.3 -24.2 169.2 -28.6 170.1 -37.4 172.15 -46.55 171.15 -59.8 169.5 -58.35 156.3 -70.8 158.6 -81.4 151.45 L-81.5 151.0 -83.65 149.4 -84.8 141.6 -85.4 142.0 -85.7 142.2 -85.45 142.2 -85.3 142.2 -85.45 142.3 -89.9 143.25 -92.7 142.65 -93.15 143.15 -93.75 142.25 -98.85 148.8 Q-106.7 159.55 -109.3 172.7 -114.2 197.2 -117.25 221.95 L-117.25 205.95 -113.5 184.75 -117.25 181.55 -117.25 180.7 Q-115.3 181.7 -113.4 182.75 -112.4 168.6 -106.2 155.65 -102.45 147.85 -97.15 140.95 L-105.55 138.1 Q-107.15 134.85 -107.5 131.4 L-107.9 127.05 -117.25 123.1 -117.25 120.9 -107.75 124.7 Q-108.05 120.95 -105.5 118.3 L-106.75 116.3 Q-111.15 116.6 -114.1 113.65 -116.55 111.15 -115.35 107.65 -114.3 104.55 -117.25 104.6 L-117.25 102.7 Q-114.4 104.55 -110.8 104.7 L-108.5 105.05 -108.0 97.95 Q-111.65 93.35 -111.85 87.4 L-112.6 87.4 -112.65 80.65 -112.3 79.8 -112.55 79.55 -113.4 64.2 -113.95 64.05 -117.25 65.3 -117.25 63.3 -117.15 63.25 -116.25 63.0 -117.25 62.35 -117.25 58.75 -115.45 60.8 -114.25 60.9 -113.75 61.35 -114.0 46.85 -114.05 45.0 -114.55 45.55 Q-115.7 47.45 -117.25 49.15 L-117.25 45.5 Q-115.2 43.6 -114.45 41.1 L-114.25 40.65 -114.2 39.25 -114.55 27.45 -115.1 8.95 -115.05 -15.0 -115.0 -16.7 -115.0 -17.1 -114.9 -19.85 -117.25 -19.45 -117.25 -21.7 -110.8 -23.85 Q-104.45 -26.05 -98.35 -28.85 -89.3 -33.05 -82.15 -27.05 L-82.85 -26.8 -87.8 -28.9 -87.5 -28.4 -91.85 -27.55 Q-102.4 -25.55 -112.6 -21.3 L-112.55 -15.65 -111.85 22.2 -110.25 77.35 -111.15 81.0 -110.35 82.25 -110.25 84.65 -61.5 82.7 Q-53.35 82.15 -46.5 77.75 L-45.95 77.15 Q-44.4 67.7 -44.25 58.1 -44.25 56.9 -44.8 55.95 -55.5 38.35 -75.75 32.05 -75.5 31.75 -75.7 31.6 L-80.55 29.1 Q-83.75 2.3 -79.7 -24.35 L-80.65 -24.9 -79.35 -25.9 -78.55 -25.75 -75.35 -29.35 -76.4 -29.8 -77.15 -29.45 -77.75 -29.65 -75.7 -29.95 -75.9 -30.75 -75.15 -30.45 -74.9 -53.55 -74.45 -50.8 -74.85 -53.55 -75.05 -55.3 -76.45 -56.45 Q-79.35 -58.65 -81.0 -61.65 L-75.95 -58.95 -75.5 -58.55 -75.25 -57.6 -75.5 -58.95 Q-75.9 -63.4 -71.45 -64.55 -62.65 -67.05 -61.65 -58.5 -50.8 -59.2 -41.45 -63.4 L-40.1 -63.45 Q-38.65 -71.3 -30.6 -71.35 -22.7 -71.35 -23.4 -64.15 L-17.7 -64.45 Q-9.6 -62.45 -1.2 -63.55 -1.4 -67.9 2.8 -69.35 L3.75 -69.65 5.85 -69.95 4.9 -70.0 Q13.85 -72.25 15.5 -62.35 27.15 -60.65 38.1 -56.75 38.65 -58.4 39.6 -59.75 41.6 -62.6 45.0 -62.1 54.9 -61.5 51.1 -51.8 59.15 -47.2 67.45 -43.4 L68.4 -44.55 Q69.85 -46.2 71.95 -47.2 L73.75 -47.9 77.9 -45.7 78.5 -45.8 Q80.1 -43.3 80.6 -40.4 81.3 -36.15 79.7 -32.3 L80.8 -31.75 Q81.95 -33.15 83.6 -33.6 86.1 -34.1 88.1 -32.65 L89.2 -31.8 89.85 -31.8 90.7 -30.05 Q94.25 -21.55 87.1 -15.0 L87.6 -14.7 86.55 -14.35 87.55 -13.6 89.05 -11.95 89.55 -11.05 90.25 -9.35 91.55 -10.35 Q96.15 -14.1 99.4 -19.0 100.95 -20.95 101.75 -23.2 104.4 -30.7 103.4 -38.55 102.5 -45.65 100.3 -52.7 98.75 -57.75 94.7 -61.1 75.75 -77.05 52.35 -85.6 L39.1 -89.45 19.6 -93.0 9.95 -94.4 -2.55 -95.5 Q-25.5 -96.95 -48.35 -94.3 -63.85 -92.5 -78.3 -86.75 L-82.6 -85.0 -83.25 -68.25 -84.3 -63.9 -88.2 -62.65 -96.75 -60.85 -110.15 -56.2 Q-113.9 -54.6 -117.25 -52.7 L-117.25 -56.15 -114.45 -57.45 Q-111.4 -81.3 -101.25 -102.9 L-100.6 -104.1 Q-97.8 -109.3 -94.35 -114.15 -80.3 -134.2 -59.75 -147.55 L-58.1 -148.7 -59.15 -148.4 -69.3 -144.75 -74.05 -142.2 -84.5 -135.95 -88.9 -132.4 -89.2 -132.15 Q-106.95 -116.65 -117.25 -95.3 M50.5 -103.3 L53.2 -88.65 Q69.85 -81.5 85.6 -72.35 82.55 -93.35 69.75 -110.0 61.85 -120.3 51.1 -127.9 46.2 -131.35 41.45 -134.95 L29.35 -141.9 Q41.6 -130.45 47.55 -114.65 49.7 -109.0 50.5 -103.3 M41.8 -120.25 L42.3 -119.95 Q31.45 -145.25 5.15 -151.8 -7.75 -154.9 -20.65 -152.25 -32.95 -134.6 -34.6 -112.6 -35.9 -106.25 -35.05 -100.2 L-34.7 -99.2 -25.2 -99.45 Q-6.35 -99.5 9.55 -97.45 30.55 -95.9 50.2 -89.7 L50.15 -90.05 Q49.55 -106.25 41.8 -120.25 M43.7 -60.25 L42.8 -59.85 Q39.05 -57.5 39.15 -52.55 35.85 -51.7 32.75 -53.0 L32.5 -41.7 37.95 -42.35 Q42.4 -42.55 45.9 -44.9 49.4 -47.15 50.2 -51.8 51.7 -60.4 43.7 -60.25 M10.55 -68.2 L1.25 -67.45 0.25 -54.05 1.45 -52.2 Q5.55 -51.35 8.95 -53.75 17.35 -59.55 11.3 -67.65 L10.55 -68.2 M20.45 -31.5 L22.15 -58.45 15.35 -59.35 14.45 -55.45 Q14.2 -53.95 13.05 -52.6 L12.3 -47.65 12.25 -47.35 11.85 -46.05 Q16.25 -36.6 15.55 -24.9 L15.6 -23.65 15.95 -23.85 16.15 -23.9 18.3 -25.6 18.5 -25.95 Q20.4 -28.3 20.45 -31.5 M34.65 -19.35 L38.4 -19.35 Q39.6 -20.95 39.5 -23.15 39.4 -24.9 38.8 -26.1 L35.1 -28.05 Q33.75 -28.85 32.55 -29.85 29.7 -42.95 31.4 -56.15 L23.35 -58.2 Q23.85 -51.1 22.65 -44.05 21.55 -36.15 22.55 -28.35 23.2 -23.25 27.4 -21.0 30.75 -19.25 34.65 -19.35 M32.75 -55.8 L32.75 -54.6 36.15 -54.85 32.75 -55.8 M33.6 -2.0 Q29.45 -0.1 30.4 5.1 L30.75 7.0 Q42.45 10.45 46.25 -0.6 47.8 -5.2 48.35 -10.2 49.95 -24.0 45.1 -36.45 44.7 -37.5 43.7 -38.15 39.25 -41.1 34.35 -38.4 L32.5 -38.8 32.55 -38.0 Q32.75 -33.55 35.1 -29.8 L38.2 -29.4 39.15 -28.2 Q40.05 -27.3 40.1 -25.95 L40.3 -20.75 Q40.9 -11.05 36.7 -2.45 L35.55 -2.35 35.05 -1.9 33.6 -2.0 M21.15 -26.2 L20.95 -25.2 21.4 -25.15 21.15 -26.2 M5.85 -46.55 L0.5 -44.85 -0.6 -38.95 -0.75 -37.55 -0.45 -37.2 -0.3 -37.05 2.1 -32.95 2.45 -31.4 2.6 -29.1 2.5 -31.5 2.2 -33.1 2.7 -33.1 Q6.5 -22.15 1.2 -12.75 L-0.25 -10.7 Q-2.4 -6.65 -3.3 -2.4 -0.1 -0.1 3.55 -1.1 9.55 -2.6 11.55 -8.55 16.3 -22.8 13.95 -38.15 12.7 -46.3 5.85 -46.55 M17.15 -18.55 L16.25 -19.15 15.65 -18.6 17.15 -18.55 M1.45 -22.55 L1.65 -22.55 1.6 -23.1 Q1.15 -30.5 -0.75 -37.55 L-1.65 -40.6 Q-2.0 -41.75 -1.85 -43.05 L-1.05 -50.7 -1.1 -51.3 Q-1.7 -51.65 -1.65 -52.35 L-1.35 -61.8 Q-5.45 -60.25 -10.0 -60.5 L-10.75 -53.35 Q-12.4 -41.2 -12.25 -29.05 L-11.95 -26.45 -11.2 -25.7 Q-5.65 -21.1 1.45 -22.55 M-10.6 23.3 Q-5.4 26.5 0.6 25.6 L0.2 16.15 -1.0 15.85 Q-3.25 15.4 -3.9 13.1 L-4.05 12.85 Q-4.25 2.65 -4.05 -7.6 -4.05 -8.8 -3.3 -9.55 0.65 -13.75 1.8 -19.05 L1.25 -18.85 2.05 -19.65 1.6 -20.65 1.25 -20.3 1.4 -20.7 0.05 -20.9 -0.25 -20.3 -3.3 -19.6 Q-8.5 -18.9 -11.45 -14.9 -12.05 -14.05 -12.2 -13.05 -14.25 2.7 -13.7 18.55 L-13.7 19.2 -13.4 18.9 Q-13.2 21.05 -11.6 22.5 L-10.6 23.3 M14.8 -11.8 Q14.5 -6.55 11.55 -2.1 L10.85 -1.2 11.1 1.4 Q13.25 3.25 13.5 6.0 L14.5 20.75 14.55 24.9 Q21.2 21.8 20.95 13.65 20.7 4.55 21.05 -4.8 21.4 -13.45 15.5 -17.7 L14.8 -11.8 M35.05 30.85 Q36.75 23.55 31.2 19.55 L30.15 18.95 29.35 19.75 33.3 22.1 27.75 20.5 Q27.05 7.6 31.25 -4.15 L34.05 -4.9 34.2 -4.15 Q38.0 -8.4 37.95 -14.45 37.95 -15.3 37.25 -16.05 L28.95 -15.75 26.75 -14.45 26.65 -14.5 26.65 -14.4 25.1 -13.25 Q23.95 -12.3 23.5 -10.75 L23.35 -10.15 Q20.95 7.7 21.5 25.35 L21.7 26.8 24.2 29.85 24.25 29.9 34.5 31.5 35.0 31.55 35.05 30.85 M61.3 -44.2 L61.65 -44.15 61.3 -44.35 52.9 -48.45 Q54.5 -36.4 53.75 -24.4 L51.05 -21.2 Q49.95 -12.3 57.5 -8.95 61.0 -7.45 64.7 -8.25 L64.9 -10.1 Q64.9 -11.15 64.5 -12.1 L62.15 -17.4 Q60.8 -17.55 60.45 -18.8 56.95 -31.2 61.3 -44.2 M60.8 14.05 L61.25 13.6 Q74.8 14.3 77.45 0.1 80.0 -13.65 72.9 -24.65 72.25 -25.6 70.8 -26.1 66.2 -27.75 61.35 -26.6 L61.0 -25.8 60.5 -26.25 61.05 -20.8 66.6 -18.7 Q69.5 -5.95 62.5 4.1 62.0 4.8 61.1 4.5 59.4 8.95 59.4 13.65 L59.8 13.95 58.1 13.9 Q58.8 15.9 57.85 17.75 L58.6 17.7 59.1 16.15 Q58.0 19.9 60.8 22.25 L61.45 22.2 Q68.05 34.75 61.0 46.4 L59.0 46.55 58.9 46.55 58.5 46.3 58.7 46.75 58.6 46.85 Q56.75 50.85 57.1 55.35 L58.3 55.65 Q62.55 52.6 67.6 53.7 L68.85 52.8 Q70.0 51.85 70.45 50.65 74.5 40.35 75.3 29.0 76.05 18.8 67.05 14.9 L64.65 15.25 62.25 15.25 61.25 14.95 63.0 14.4 60.8 14.05 M72.9 -28.65 Q76.5 -30.2 78.1 -34.2 81.5 -42.8 73.45 -45.5 69.1 -41.15 65.45 -36.25 L61.55 -37.3 60.6 -28.65 69.55 -28.0 Q71.35 -28.0 72.9 -28.65 M75.7 -25.8 L76.6 -25.85 76.3 -26.35 75.85 -26.15 Q74.9 -26.0 75.7 -25.8 M50.5 -48.1 L50.45 -48.65 50.3 -48.1 Q50.3 -45.45 48.85 -43.55 47.4 -41.7 45.35 -41.7 L44.9 -41.2 Q47.4 -39.5 48.15 -36.6 L49.1 -31.15 Q49.35 -27.95 49.85 -24.8 L50.2 -24.55 Q53.2 -30.95 51.8 -38.1 50.85 -43.1 50.5 -48.1 M50.65 -5.95 L50.2 -8.0 50.1 -5.95 Q50.05 1.75 44.7 7.1 L43.35 8.35 Q48.85 16.5 47.55 26.95 L47.5 27.9 47.85 27.1 Q50.8 14.75 50.65 1.9 L50.65 -5.95 M56.9 -7.0 Q54.7 -5.9 53.45 -3.85 L52.8 -2.8 Q52.8 12.6 51.35 27.7 L51.4 27.9 Q53.9 33.65 60.6 33.7 L62.35 33.75 62.25 26.25 61.35 26.2 60.7 24.9 57.6 23.75 Q56.3 14.1 59.45 5.1 L59.7 4.3 Q63.85 0.65 64.5 -5.0 L64.65 -6.45 56.9 -7.0 M52.1 -8.45 L52.45 -6.15 53.5 -7.8 52.1 -8.45 M77.75 -24.15 Q79.4 -20.35 79.5 -16.3 85.95 -14.65 88.9 -20.9 93.0 -29.65 84.8 -31.65 L83.45 -30.75 Q80.85 -28.55 79.6 -25.6 L77.75 -24.15 M82.25 -14.35 L79.6 -14.9 Q80.2 -0.55 76.75 13.2 L75.35 18.55 75.75 19.5 Q86.55 20.45 88.55 9.55 90.65 -1.8 85.55 -12.25 84.45 -13.85 82.25 -14.35 M-25.0 -149.4 L-22.05 -152.95 Q-40.3 -154.15 -56.15 -146.55 -67.2 -141.2 -75.9 -132.4 -94.3 -113.95 -104.1 -89.45 -108.65 -78.0 -111.15 -65.85 L-111.65 -58.5 Q-108.0 -59.6 -104.75 -61.05 -95.7 -65.25 -85.85 -66.2 L-85.5 -73.95 -84.55 -85.35 Q-80.8 -88.5 -76.3 -90.4 -61.8 -96.45 -46.05 -97.85 L-38.9 -98.75 -38.15 -99.35 Q-36.55 -109.9 -35.1 -120.6 -33.0 -136.0 -25.0 -149.4 M-80.85 -25.55 L-81.35 -25.35 -82.95 -26.7 -81.95 -27.1 -81.1 -26.45 -80.5 -26.55 -79.6 -26.0 -80.85 -25.55 M-25.35 -68.45 L-30.1 -68.75 Q-33.0 -69.45 -35.55 -68.4 L-36.45 -67.95 -38.55 -66.65 Q-40.05 -56.5 -30.5 -53.6 L-26.9 -53.4 -25.5 -55.3 -25.35 -68.45 M-33.95 -50.55 L-33.15 -51.3 -34.7 -51.3 -33.95 -50.55 M-38.7 -54.35 L-40.1 -60.8 -41.0 -60.65 -40.9 -60.2 -47.05 -58.95 -46.35 -53.65 Q-46.1 -50.75 -46.35 -47.75 L-47.45 -32.9 Q-47.7 -27.75 -43.25 -25.4 L-43.15 -26.55 -41.35 -37.05 Q-41.45 -41.95 -38.9 -45.95 L-37.8 -47.45 -38.4 -53.4 -38.35 -53.9 -38.7 -54.35 M-23.55 -53.65 L-23.6 -53.4 -24.5 -52.6 -24.55 -47.75 -24.25 -47.4 -24.3 -42.9 -24.25 -42.7 -24.05 -41.65 Q-23.55 -39.2 -25.6 -37.55 L-26.45 -36.4 -27.6 -34.35 -28.3 -31.25 -29.4 -24.35 Q-21.75 -22.5 -16.25 -27.75 -15.5 -28.45 -15.4 -29.35 -13.5 -44.75 -14.7 -60.55 L-23.45 -60.8 -23.55 -53.65 M-13.0 -60.5 L-12.7 -52.85 -11.65 -60.5 -10.2 -61.7 -10.95 -61.7 -12.45 -60.5 -13.0 -60.5 M-56.7 -51.2 L-56.9 -55.5 -60.2 -54.85 Q-62.0 -55.0 -63.1 -56.2 -63.0 -64.9 -71.7 -62.1 -72.35 -61.85 -72.55 -61.2 -76.05 -50.0 -66.1 -46.65 L-65.35 -46.5 -57.1 -45.25 -56.7 -51.2 M-48.85 -53.4 L-48.5 -58.6 -55.05 -57.0 -55.05 -51.85 Q-54.75 -42.9 -57.85 -34.65 L-57.95 -34.15 -59.65 -32.85 -60.25 -32.9 Q-66.9 -31.4 -64.5 -24.8 -53.7 -21.9 -48.85 -30.2 L-48.7 -43.7 -48.85 -53.4 M-72.1 -3.45 Q-67.05 0.65 -60.4 -0.25 L-58.8 -0.65 -59.65 -8.5 -63.9 -9.15 Q-69.8 -22.1 -63.65 -34.15 L-60.4 -34.3 Q-58.05 -37.4 -57.45 -41.45 L-57.3 -42.4 Q-62.65 -44.4 -68.4 -43.15 L-69.95 -41.95 -70.95 -40.6 Q-75.75 -26.9 -75.05 -12.05 L-75.75 -13.2 -76.1 -12.05 Q-75.95 -9.3 -74.4 -8.15 L-74.45 -9.95 -73.35 -5.3 -72.1 -3.45 M-70.65 -44.9 L-69.35 -45.7 -69.85 -46.1 -72.85 -47.9 -72.75 -43.0 -70.65 -44.9 M-76.25 -26.0 L-76.25 -26.15 Q-77.05 -26.05 -76.25 -26.0 M-59.95 -21.75 L-64.0 -21.7 Q-64.5 -17.1 -62.7 -13.0 L-61.3 -10.6 -61.05 -11.05 -58.4 -10.4 Q-54.8 0.6 -56.65 12.65 L-57.45 13.05 -59.35 13.45 -61.7 13.6 -58.1 11.85 -59.1 11.15 -62.65 13.35 -63.5 15.1 Q-64.7 18.55 -64.45 22.35 -62.25 22.25 -60.3 22.4 -55.15 23.35 -51.7 20.05 L-51.9 18.85 Q-52.75 6.45 -51.65 -5.85 L-51.55 -6.5 -51.3 -8.5 Q-47.35 -19.55 -58.65 -21.65 L-59.95 -21.75 M-77.0 -13.25 L-76.95 -15.25 -77.65 -13.3 Q-79.95 2.7 -76.7 18.1 -77.0 8.15 -71.65 0.5 L-71.9 0.05 Q-76.8 -5.8 -77.0 -13.25 M-78.55 -17.9 L-78.45 -17.1 -78.2 -17.85 -78.55 -17.9 M-45.35 -22.55 L-44.9 -22.6 -45.45 -22.85 -45.35 -22.55 M-43.2 -11.4 L-44.05 -19.55 Q-47.55 -17.5 -48.6 -13.2 -51.6 -0.9 -51.25 12.4 L-50.9 12.85 Q-51.5 18.4 -47.4 21.6 L-46.2 22.3 -44.7 9.95 -44.5 8.1 Q-44.7 3.25 -41.65 0.1 L-41.15 -0.35 -40.35 -3.4 Q-42.75 -6.9 -43.2 -11.4 M-44.3 -21.0 L-45.15 -20.4 -43.8 -20.35 -44.3 -21.0 M-29.0 -34.7 L-25.9 -39.1 -26.5 -46.3 -28.25 -46.9 Q-31.2 -48.5 -34.55 -47.7 L-35.45 -47.05 Q-44.85 -30.5 -41.1 -10.75 -38.6 -4.2 -31.65 -3.2 -28.55 -2.75 -26.05 -4.5 -26.3 -7.85 -28.1 -10.75 -35.2 -21.9 -29.6 -34.7 L-29.05 -34.7 -29.6 -32.65 -29.6 -32.6 -29.0 -34.7 M-25.9 -21.75 L-27.65 -22.25 -28.1 -22.8 -29.1 -22.25 -29.45 -22.55 -30.0 -21.85 -29.25 -20.75 -29.85 -20.85 -29.75 -18.9 Q-29.65 -18.1 -29.1 -17.7 -22.8 -12.3 -24.75 -4.6 L-25.45 -3.05 -26.25 6.1 -26.6 10.4 -27.2 11.75 -30.8 13.55 -32.25 22.9 -29.75 23.15 Q-20.85 23.9 -17.7 16.3 L-17.45 16.55 -17.4 16.1 Q-15.3 1.6 -15.75 -13.2 -15.9 -17.65 -19.65 -19.75 L-25.9 -21.75 M-32.3 12.55 L-31.7 11.2 Q-28.15 9.65 -27.7 5.55 L-27.3 1.15 -27.9 1.15 -27.5 0.5 Q-31.95 -1.15 -36.9 -1.25 L-36.65 -0.75 Q-39.2 -0.35 -40.25 1.95 -49.0 20.95 -41.7 39.85 L-40.5 41.15 Q-38.7 42.85 -36.4 43.6 -31.9 44.85 -28.0 42.45 -28.4 37.4 -31.05 33.35 -37.25 23.95 -32.95 12.55 L-32.4 12.5 -33.15 16.7 -32.3 12.55 M-0.6 3.15 L-1.65 3.05 -1.45 2.8 0.85 1.05 -2.45 0.7 -2.55 3.05 -2.6 3.65 -2.7 8.3 -2.5 7.6 -0.9 8.9 -1.1 10.4 1.45 14.8 1.5 15.0 1.75 16.7 1.85 19.05 1.8 16.7 1.6 15.0 2.15 15.0 Q3.55 23.15 1.95 31.05 1.25 34.4 -1.25 36.6 -4.15 40.65 -5.3 45.55 -2.95 46.85 -0.4 46.9 6.65 46.95 9.35 40.6 15.5 26.0 13.2 9.85 11.5 -1.9 0.35 3.15 L-0.6 3.15 M-0.1 14.75 L-2.5 10.7 Q-2.6 12.05 -1.0 13.9 L-0.1 14.75 M-28.8 9.3 L-28.3 9.85 -27.95 8.3 -28.8 9.3 M-24.8 26.2 L-29.8 25.15 -32.75 25.15 -32.75 25.75 -32.0 26.5 -32.5 26.4 Q-31.2 31.55 -27.3 35.6 -26.85 36.1 -26.55 36.9 -25.15 40.9 -27.3 43.85 -26.35 52.55 -29.25 59.8 L-29.6 60.0 -32.75 60.8 -34.0 70.7 -28.1 70.5 Q-21.3 70.0 -19.5 64.25 L-18.9 65.1 Q-17.3 56.05 -17.65 47.1 -17.85 41.95 -17.4 36.9 -16.55 28.0 -24.8 26.2 M-40.1 45.8 L-40.1 46.65 -38.55 46.2 -40.1 45.8 M-4.35 28.25 L-4.7 28.35 Q-9.8 28.8 -12.85 32.45 -13.5 33.25 -13.7 34.4 -17.0 51.4 -16.25 68.6 L-15.55 67.75 Q-15.05 70.15 -13.3 71.8 -7.85 74.95 -1.55 74.3 L-2.05 64.25 Q-4.9 64.2 -5.35 61.4 -7.2 50.65 -5.85 40.0 -5.7 38.8 -4.85 38.15 -0.25 34.55 0.55 29.1 L0.0 29.25 0.85 28.55 0.9 27.9 -4.35 28.25 M-66.05 28.0 Q-66.6 22.0 -65.35 16.05 -64.2 10.6 -58.8 10.4 L-58.8 2.8 -59.3 2.8 -59.85 2.2 -63.15 1.95 -63.6 2.05 Q-66.85 2.55 -69.85 1.25 L-71.05 2.4 Q-75.8 11.25 -75.6 21.9 L-75.6 26.65 -75.7 30.95 -75.4 31.5 -74.75 31.7 -66.0 34.55 -64.95 34.95 -65.1 34.4 -65.8 32.6 Q-66.5 30.4 -66.2 28.0 L-66.05 28.75 -66.05 28.0 M-60.35 33.3 L-62.85 33.45 -62.05 34.35 -61.9 33.65 -60.6 34.15 -58.85 34.7 -57.7 38.45 -54.4 40.45 -54.35 40.5 -53.55 41.0 -51.7 28.3 -52.75 26.7 -56.8 23.95 -64.65 23.65 -64.35 27.9 Q-63.75 31.6 -60.35 33.3 M-78.85 25.95 L-78.7 26.8 -78.2 25.85 -78.85 25.95 M-46.5 27.4 Q-47.2 26.8 -47.95 27.6 L-46.5 27.4 M-60.4 36.4 L-61.7 36.35 -60.3 37.05 -60.4 36.4 M-45.85 47.95 L-44.7 49.45 -42.65 47.4 -42.25 44.3 -44.9 38.75 -46.35 28.2 Q-50.1 30.4 -51.05 34.75 -51.85 38.5 -52.0 42.15 L-45.85 47.95 M-41.55 54.0 Q-38.55 68.0 -44.55 81.5 L-44.85 82.55 -45.75 82.85 -44.8 85.75 Q-44.15 87.2 -43.05 88.35 L-42.3 89.05 -40.65 90.3 -40.15 90.45 -38.35 91.05 -32.9 91.9 -32.75 91.45 -29.8 90.4 -29.75 90.4 -29.7 90.4 -29.75 90.35 -31.65 83.95 -32.1 83.2 -33.55 81.15 Q-37.7 76.2 -36.3 69.5 L-35.55 64.95 -34.4 59.7 -33.75 59.65 -31.15 55.95 -32.15 48.9 Q-39.95 44.45 -43.55 51.35 L-41.55 54.0 M-77.75 96.05 Q-76.95 92.9 -74.85 90.55 L-73.65 89.35 -75.85 86.9 -80.65 87.0 -81.05 95.95 -81.3 101.7 Q-81.45 105.0 -79.7 107.8 L-77.75 96.05 M-61.25 99.3 L-61.65 91.7 -67.6 91.35 Q-70.1 91.3 -72.3 90.15 L-76.35 96.1 -78.25 109.4 -78.25 109.7 -77.95 109.65 -78.0 110.35 -78.75 121.85 Q-78.8 124.3 -78.05 126.55 -76.95 129.7 -74.15 131.6 -72.3 132.4 -70.25 132.8 L-63.8 133.5 -63.1 132.75 -63.45 124.65 Q-67.65 122.8 -68.55 118.5 -69.35 114.75 -69.35 111.0 -69.35 103.55 -63.9 99.9 L-62.8 99.7 -61.35 99.65 -61.25 99.3 M-61.9 89.25 L-61.1 88.65 -61.1 85.75 -73.25 86.7 Q-68.35 90.5 -61.9 89.25 M-55.1 85.0 L-59.2 85.45 -59.05 95.95 Q-58.15 99.4 -60.3 102.4 L-60.7 102.55 -64.7 102.9 -63.95 102.75 Q-62.15 102.3 -60.65 101.1 L-61.35 100.3 Q-66.2 101.7 -66.75 106.75 L-67.35 110.85 -67.4 110.95 -67.3 111.45 Q-62.45 111.8 -57.5 111.3 -56.0 111.05 -55.1 110.0 L-55.25 108.75 -55.35 108.05 -55.45 98.2 -55.35 95.7 -55.05 85.25 -55.0 85.0 -55.1 85.0 M-53.95 95.05 L-54.1 103.4 -52.85 113.85 Q-52.25 115.9 -50.55 117.2 L-49.8 117.6 -49.1 117.85 -49.05 117.3 -48.3 112.3 -47.8 109.0 -47.3 106.25 Q-46.7 101.15 -45.0 96.7 L-44.5 95.9 -44.1 92.55 Q-46.8 88.4 -47.45 83.6 L-53.15 84.7 -53.95 95.05 M-41.15 94.95 L-42.15 95.75 -44.85 101.45 -44.8 100.75 -44.95 101.35 -44.95 101.4 -45.5 102.8 -47.1 111.25 -47.9 128.45 Q-46.75 141.25 -34.55 140.95 L-33.25 140.55 -33.05 140.15 -31.9 139.75 Q-32.9 132.65 -36.5 126.65 -37.35 125.2 -37.5 123.4 -38.35 112.2 -31.65 103.8 L-32.4 96.4 -39.1 94.35 -41.15 94.95 M-41.85 93.9 L-41.85 94.25 -41.35 94.05 -41.85 93.9 M-2.05 53.8 L-3.3 59.2 -0.95 63.0 -0.35 63.0 Q4.1 76.8 -4.4 87.7 -6.6 90.45 -7.35 94.05 L-7.4 94.15 -7.4 94.35 -7.35 94.35 -6.95 94.6 -6.35 94.9 -6.1 95.2 -5.7 95.25 -4.5 95.3 -4.5 95.9 Q6.6 96.25 9.15 85.1 12.55 70.55 9.85 55.85 9.1 51.8 5.45 51.5 L-1.6 52.05 -2.05 53.8 M-17.75 66.6 L-17.45 66.55 -17.5 65.9 -17.75 66.6 M-0.1 69.6 Q0.15 66.75 -0.55 64.55 L-0.25 71.85 -0.1 69.6 M-35.1 66.4 L-35.15 68.35 -34.95 66.8 -34.3 61.1 -35.1 66.4 M-24.2 74.9 L-32.2 72.95 -32.45 72.45 -33.65 73.0 -34.3 72.75 -34.55 73.65 -33.8 74.55 -34.4 74.45 Q-33.55 79.3 -29.85 83.0 -28.85 84.05 -28.8 85.75 -28.6 96.6 -30.4 107.2 L-33.4 108.65 -35.25 118.65 -27.5 118.15 -25.9 117.7 -25.8 118.35 -25.8 117.7 Q-19.75 115.45 -19.65 108.75 L-19.1 92.35 Q-18.6 83.25 -22.55 76.15 -23.1 75.15 -24.2 74.9 M-13.55 122.2 Q-8.95 123.2 -4.3 123.1 L-5.25 112.85 Q-6.2 112.8 -6.5 112.0 -10.5 100.95 -8.15 88.8 -7.8 87.1 -6.5 86.2 -2.0 83.1 -1.6 78.0 L-2.1 78.15 -1.4 77.25 -1.5 76.6 -1.9 76.5 -1.85 76.3 -3.25 76.05 -3.55 76.6 -8.15 77.4 Q-12.45 77.95 -15.05 81.5 L-15.65 82.85 Q-18.75 99.0 -18.75 115.5 L-18.7 115.85 Q-18.1 119.85 -14.55 121.65 L-13.6 122.2 -13.65 122.5 -13.55 122.2 M-106.6 87.9 L-106.55 87.6 -106.85 87.6 -109.8 87.55 Q-109.45 90.1 -108.4 92.25 L-107.5 93.8 -106.6 87.9 M-95.95 98.6 L-91.5 88.2 -90.9 88.3 -89.7 87.4 -104.5 87.6 -105.45 97.35 -105.7 99.3 -105.4 111.35 Q-104.85 113.75 -104.95 115.65 L-104.7 117.05 -98.4 120.6 -98.15 120.25 -97.55 120.25 -97.8 120.75 -90.75 121.45 -90.9 121.5 -90.5 121.45 -90.55 117.8 -90.9 112.1 -93.2 112.25 Q-95.7 110.6 -95.85 107.35 -96.1 102.9 -95.95 98.6 M-91.9 92.1 L-92.75 92.1 -93.85 99.7 Q-89.7 100.8 -85.7 98.8 -84.1 98.0 -83.15 96.65 L-82.7 87.1 -87.3 87.25 -88.2 89.85 -87.85 90.1 -88.3 90.0 Q-89.45 91.35 -91.15 91.05 L-91.9 92.1 M-83.75 101.05 L-83.05 101.75 -83.1 100.75 -83.75 101.05 M-90.2 110.4 L-89.35 111.1 -88.8 111.5 -88.25 119.4 Q-87.55 125.85 -89.85 132.05 L-90.3 131.2 -91.0 131.8 Q-95.45 132.45 -98.4 128.9 -100.7 126.1 -99.35 122.35 -99.1 121.65 -99.85 121.1 L-101.75 120.95 -104.2 119.6 Q-107.4 125.45 -105.8 132.05 -105.5 133.2 -104.7 133.95 -96.3 142.55 -85.0 139.35 L-84.9 132.4 Q-84.9 126.35 -83.1 120.55 -81.8 118.1 -81.95 115.4 -82.35 108.2 -84.65 101.3 L-90.6 101.7 -93.9 100.95 -93.75 104.2 -93.6 105.1 Q-93.1 108.0 -90.9 109.85 L-90.2 110.4 M-81.65 120.6 Q-83.45 134.45 -81.0 147.75 -80.8 148.9 -79.75 149.7 -69.8 157.2 -59.0 153.95 L-58.9 153.3 -58.25 153.05 Q-58.45 138.35 -54.0 124.6 L-53.1 121.55 -52.75 119.65 -53.8 119.65 -55.4 116.9 -56.15 115.9 -57.1 114.95 -59.2 113.3 -67.5 112.9 -65.7 120.85 -62.6 122.7 Q-59.15 132.55 -61.6 143.15 -62.2 145.7 -65.0 145.45 -70.5 145.4 -75.25 142.35 L-76.0 133.65 Q-77.75 132.0 -78.95 129.8 -80.0 127.85 -80.55 125.5 -81.1 123.25 -81.1 120.65 L-81.65 120.6 M-90.45 122.75 L-96.8 122.55 -97.2 128.6 -90.3 129.65 -90.45 122.75 M-108.95 107.2 L-113.25 106.45 -113.25 110.15 -112.35 110.0 Q-110.05 109.25 -108.7 107.45 L-109.3 107.9 -108.95 107.2 M-109.65 113.35 L-110.35 111.8 -113.3 112.55 -110.7 113.6 -107.55 114.2 -107.75 113.25 -108.25 111.05 -109.4 111.5 -107.75 113.25 -109.65 113.35 M-6.75 100.25 L-7.8 107.5 Q0.0 117.9 -3.7 131.55 -4.4 134.2 -6.0 136.4 -8.35 139.55 -8.6 143.5 -0.2 149.35 5.6 140.6 7.4 137.85 7.8 134.55 9.75 118.75 6.35 103.2 2.95 97.65 -3.95 99.55 L-6.75 100.25 M-20.2 113.65 L-19.75 114.35 -19.95 113.15 -20.2 113.65 M-31.05 122.15 L-33.55 121.45 -33.8 121.0 -35.6 122.55 -35.25 122.95 -35.7 122.8 Q-36.05 125.4 -34.55 127.35 L-32.15 130.45 Q-28.35 135.55 -31.4 141.25 -32.15 148.5 -34.7 155.05 -36.75 160.35 -43.8 158.95 -44.9 158.85 -45.25 158.2 -49.3 150.7 -46.35 141.45 -50.05 133.1 -49.5 123.9 -52.75 126.05 -53.7 129.85 -57.5 144.5 -57.1 159.65 -56.95 166.45 -50.65 167.95 L-50.85 168.0 -50.65 168.0 -39.55 168.95 -37.85 168.95 -37.75 168.95 Q-31.3 169.65 -26.0 166.15 -24.2 164.9 -23.9 162.7 L-21.5 146.1 Q-19.9 135.15 -23.65 125.3 -26.5 123.05 -30.0 122.45 L-31.05 122.15 M-16.6 171.95 Q-3.0 178.2 10.0 170.85 13.55 168.8 14.25 164.65 17.35 146.65 10.9 130.05 10.55 129.15 9.6 128.45 9.4 133.15 8.6 137.75 7.8 142.2 4.95 145.85 7.25 155.1 3.35 163.15 3.15 163.65 2.5 163.8 -5.05 166.05 -7.3 160.1 -9.85 153.5 -10.0 146.05 -11.6 143.25 -10.35 139.55 -8.55 134.3 -4.85 129.95 -3.4 128.25 -3.85 125.95 -12.5 125.45 -17.2 131.7 -17.8 132.45 -17.95 133.5 -20.9 151.25 -18.5 168.95 -18.35 170.1 -17.5 171.2 L-16.6 171.95 M-9.3 144.65 L-9.25 144.6 -9.3 144.6 -9.3 144.65 M-62.8 135.8 L-62.95 135.4 Q-68.3 136.35 -73.65 134.45 L-73.5 140.3 Q-71.1 142.5 -67.95 142.7 -61.25 143.55 -62.8 135.8 M-4.25 162.5 Q5.05 162.9 3.45 153.2 L2.7 147.65 0.15 147.9 -8.45 147.75 Q-10.1 155.75 -5.85 161.7 -5.4 162.3 -4.25 162.5 M-38.9 157.55 Q-37.6 157.25 -36.85 156.45 -31.85 151.2 -33.05 142.85 -38.7 144.2 -44.2 142.75 -45.1 147.6 -45.1 152.45 -45.05 158.05 -38.9 157.55 M83.0 52.9 Q87.5 39.35 83.85 26.1 83.55 24.95 82.35 24.0 79.6 21.95 76.3 22.3 78.6 38.25 73.4 53.2 L73.8 56.35 78.5 56.6 82.95 52.9 82.95 53.95 83.0 52.9 M81.6 59.05 L82.8 59.8 84.3 63.0 Q85.35 68.75 85.8 74.55 86.9 88.15 77.5 96.6 L79.35 97.65 Q80.4 98.35 80.75 99.35 L80.9 100.6 82.0 102.25 Q90.85 102.0 98.35 97.4 L98.95 96.8 100.15 87.75 Q100.75 83.2 99.9 79.0 96.75 63.9 81.6 57.15 L80.9 58.15 80.5 58.35 81.6 59.05 M93.5 68.85 Q93.85 68.25 93.8 69.0 L93.8 69.55 93.5 68.85 M71.35 14.3 L73.4 15.8 73.45 13.25 71.45 14.15 71.2 14.2 71.35 14.3 M33.3 46.1 L32.55 46.6 29.95 46.3 28.25 55.5 Q39.6 58.5 43.85 48.0 44.9 45.4 45.4 42.55 48.05 28.1 44.15 14.35 43.35 11.65 41.95 9.15 L31.7 9.5 31.25 10.05 30.6 10.0 30.75 11.3 30.75 11.4 30.4 16.75 30.1 17.15 30.1 18.3 Q37.45 20.05 37.2 29.05 37.05 33.4 36.1 37.65 L36.1 38.5 36.25 37.7 Q36.3 42.1 34.2 45.95 L33.3 46.1 M57.95 35.65 L53.8 34.9 51.6 37.5 Q50.55 39.0 49.65 40.7 51.25 55.45 49.3 69.95 L49.3 70.0 Q51.35 76.2 58.0 76.0 L59.9 75.5 Q60.85 71.95 59.6 68.55 L58.85 66.9 55.75 65.25 55.3 65.25 Q53.8 55.1 57.6 45.8 L56.05 45.45 55.85 45.4 56.1 45.3 Q62.3 42.15 62.25 35.25 61.2 36.0 59.95 35.9 L57.95 35.65 M48.1 42.25 L47.65 40.45 47.6 42.65 Q47.0 50.2 42.15 55.75 L41.15 57.0 Q46.1 64.7 44.85 74.1 44.7 75.1 45.1 75.95 47.95 72.05 48.25 65.05 48.75 53.75 48.2 42.65 L48.1 42.25 M8.2 0.7 L8.6 0.85 8.6 0.5 8.2 0.7 M16.3 28.2 L16.35 27.95 15.85 28.15 16.3 28.2 M19.45 24.9 L19.3 25.35 19.6 25.6 19.45 24.9 M14.95 29.7 L14.25 30.25 15.85 30.35 14.95 29.7 M14.55 31.05 L14.25 30.65 Q14.0 39.95 8.9 47.4 L8.95 50.5 Q13.45 55.85 12.7 63.55 L12.45 67.45 12.45 73.2 Q19.35 68.35 18.7 59.15 18.35 54.1 19.05 49.05 20.15 41.0 17.0 33.9 16.35 32.35 15.05 31.3 L14.55 31.05 M26.45 32.7 L21.75 36.95 Q19.6 46.05 19.45 55.7 L19.15 61.1 19.0 62.5 19.5 61.1 Q17.25 69.1 20.3 75.95 21.6 78.75 24.95 79.4 L32.55 80.0 Q33.95 72.5 28.5 68.15 L27.3 67.7 27.25 68.7 30.6 70.5 27.6 69.95 Q26.2 69.6 26.1 68.4 25.25 56.75 27.85 45.1 L28.4 44.45 30.85 43.9 31.6 43.55 31.7 44.25 32.5 43.4 30.8 43.15 30.05 43.05 30.9 42.55 Q33.8 40.8 34.65 37.55 35.25 35.15 35.05 32.9 L26.45 32.7 M28.65 59.75 L27.75 65.25 Q37.45 72.0 34.85 84.95 33.8 90.05 30.05 93.1 28.55 94.35 26.65 94.1 L26.3 98.0 Q26.15 99.85 26.8 101.6 L26.75 102.0 26.8 102.5 27.0 102.6 27.4 103.25 Q41.45 105.3 43.05 91.5 L44.25 82.4 Q46.1 68.85 39.5 57.6 L29.55 58.0 28.7 58.75 28.65 59.75 M12.35 79.85 Q11.75 87.35 7.75 94.55 L6.65 96.25 6.8 99.9 Q9.45 103.9 8.9 108.9 L9.65 122.3 Q14.75 119.55 14.8 113.6 L14.75 112.15 Q18.2 97.9 14.95 83.85 14.4 81.4 12.35 79.85 M4.4 98.2 L4.4 97.85 3.85 98.05 4.4 98.2 M26.1 81.2 L23.95 80.75 22.95 81.6 21.15 83.1 Q20.35 83.9 20.15 84.85 16.45 101.3 16.85 118.7 L17.1 120.0 Q20.05 129.8 31.35 127.6 31.75 125.0 31.45 122.4 30.85 117.15 26.3 115.3 L25.55 116.0 29.35 118.2 24.85 117.3 Q23.35 105.45 25.5 93.3 L26.35 92.45 Q29.85 93.1 31.55 89.75 33.55 85.85 33.0 81.5 L26.1 81.2 M71.2 56.9 L71.1 54.9 69.15 56.0 70.95 57.05 71.2 57.3 71.2 56.9 M73.15 59.3 Q77.05 76.65 71.3 92.55 L69.95 95.15 75.9 94.85 Q85.0 82.85 83.0 67.2 81.7 59.7 74.05 59.15 L73.15 59.3 M59.5 56.75 L57.05 55.95 56.8 57.25 Q56.6 58.2 56.55 59.2 56.45 61.85 58.5 63.75 L59.1 63.75 Q62.75 70.45 62.35 78.1 61.9 87.5 55.05 90.25 L54.5 92.0 Q53.8 94.55 54.1 97.25 L54.65 97.4 54.15 97.25 Q57.75 97.5 61.35 97.15 67.45 96.9 69.15 91.1 71.75 82.25 73.1 73.05 74.8 61.4 65.05 56.65 L59.5 56.75 M48.35 96.3 L47.95 115.95 50.15 117.85 Q50.75 118.4 51.55 118.5 L58.45 119.6 57.8 111.8 56.9 111.8 56.1 110.6 55.55 110.65 54.55 110.45 53.8 109.95 53.3 109.55 53.15 109.5 Q52.6 106.75 52.5 103.45 52.3 96.8 53.65 90.0 L55.35 88.2 55.3 87.75 56.7 86.45 57.95 84.65 Q59.4 82.0 58.65 78.95 L55.95 79.0 Q45.35 79.25 47.5 89.1 48.25 92.6 48.35 96.3 M45.25 91.6 L44.95 93.7 Q44.5 100.15 39.45 104.05 L39.25 104.2 39.4 104.4 Q44.0 112.7 43.95 122.3 L43.95 124.65 44.45 124.2 44.45 122.8 44.95 122.8 Q47.0 107.15 46.25 91.5 L46.1 89.8 45.6 90.0 45.25 91.6 M70.65 98.15 Q71.4 108.45 72.7 118.9 73.6 126.2 71.95 133.3 74.65 133.35 77.05 132.2 L79.15 131.05 Q84.25 115.3 77.85 101.05 77.25 99.7 75.7 99.05 L72.55 97.75 70.65 98.15 M68.25 100.6 L68.15 98.0 65.75 99.2 68.25 100.6 M54.0 100.75 Q52.85 104.7 55.55 107.5 L56.1 107.9 56.75 107.8 Q64.6 120.9 56.7 132.0 56.45 132.35 55.8 132.4 L54.75 132.05 53.9 141.55 Q63.9 143.4 67.9 135.7 69.3 132.95 69.85 129.75 71.95 117.05 68.2 105.3 67.45 103.0 65.55 101.45 60.25 97.35 54.5 100.1 L54.25 100.0 Q53.55 100.35 54.0 100.75 M48.0 159.6 Q60.45 163.0 68.25 153.55 68.9 152.8 69.15 151.7 70.5 145.65 67.65 140.3 L65.35 141.6 62.85 141.75 Q63.95 146.55 60.85 149.8 58.1 152.8 53.8 151.95 L53.15 151.2 52.65 152.15 Q50.6 141.95 52.75 131.3 56.4 129.4 57.7 125.5 58.45 123.25 58.2 120.85 53.8 122.0 49.2 120.95 45.0 132.95 46.5 145.65 47.25 152.25 47.1 159.05 L48.0 159.6 M44.4 138.6 Q43.95 142.6 42.65 146.4 41.5 149.7 39.0 152.05 L38.35 152.15 38.35 154.55 Q38.35 158.1 37.05 161.45 L34.9 162.55 Q32.65 163.45 30.3 163.8 27.8 164.15 25.1 163.75 L24.8 163.35 Q24.05 162.9 24.0 162.4 23.15 151.95 24.3 141.4 L26.3 139.3 Q27.35 139.15 28.75 137.9 29.9 136.95 30.45 135.5 31.6 132.45 31.4 129.0 L22.95 129.1 20.45 131.45 Q19.25 132.7 18.85 134.25 14.5 151.05 15.9 168.9 L16.5 169.15 Q16.95 170.9 18.3 171.65 28.9 177.2 39.9 170.75 40.8 170.25 41.1 169.45 46.85 155.0 44.95 138.55 L44.4 138.6 M54.2 143.45 L54.2 142.85 53.75 142.8 53.7 143.45 53.4 149.9 54.75 149.95 54.2 143.45 M69.1 139.15 L71.25 141.1 71.45 136.9 70.5 137.1 69.1 139.15 M71.2 150.0 Q82.5 148.1 79.5 136.25 L78.85 133.9 73.2 136.2 Q74.6 139.25 72.55 141.6 L71.0 142.95 71.05 149.75 Q70.95 149.95 71.0 150.05 L71.2 150.0 M55.95 142.95 Q55.55 146.1 56.95 149.05 L57.35 149.75 60.6 148.95 60.75 142.85 55.95 142.95 M42.25 114.4 Q41.6 111.1 39.75 108.15 L38.05 105.15 27.15 105.95 Q25.75 110.15 26.1 114.45 L26.75 114.9 Q32.4 115.15 33.2 121.75 34.1 129.0 31.85 136.1 30.5 140.2 26.45 141.6 L25.6 150.2 26.1 151.05 Q40.0 153.6 41.5 139.8 42.85 127.1 42.25 114.4 M9.65 127.85 L9.85 127.85 9.85 127.65 9.65 127.65 9.65 127.85 M35.8 153.0 Q30.45 154.45 25.25 153.05 24.1 157.15 25.65 160.85 L26.1 161.3 31.3 161.45 Q32.5 160.9 33.65 160.55 35.25 159.95 35.65 158.4 36.5 155.25 35.8 153.0 M69.9 157.95 L69.3 157.55 68.1 159.1 64.15 160.3 Q56.7 162.75 49.15 162.8 L49.1 162.8 48.85 162.65 47.6 162.15 Q48.15 161.8 46.65 161.1 46.45 165.35 45.05 169.3 L44.95 169.55 44.55 169.7 42.65 171.3 42.5 171.7 41.2 172.3 Q42.35 180.25 44.7 188.7 46.4 194.9 46.7 201.35 L46.85 204.5 50.7 204.2 51.25 204.95 Q49.85 206.45 47.1 206.95 49.9 221.45 51.15 236.3 71.2 235.15 87.1 223.6 L92.7 218.5 92.0 216.1 Q88.95 208.2 84.45 200.65 L84.4 200.6 84.35 200.65 79.95 204.1 Q71.05 208.45 61.9 205.7 L59.8 204.8 71.7 204.05 Q86.9 201.35 84.9 185.95 82.65 168.8 69.9 157.95" fill="#000000" fill-rule="evenodd" stroke="none"/>
    <path d="M-5.65 -205.85 Q-2.4 -184.65 2.75 -163.85 L5.85 -161.75 Q12.15 -157.3 16.85 -151.0 L12.8 -152.35 Q0.95 -156.05 -11.75 -156.95 -5.55 -165.75 -5.35 -177.0 -5.05 -191.35 -5.65 -205.85 M57.4 -68.25 Q57.45 -76.7 53.3 -84.1 L52.35 -85.6 Q75.75 -77.05 94.7 -61.1 98.75 -57.75 100.3 -52.7 102.5 -45.65 103.4 -38.55 104.4 -30.7 101.75 -23.2 100.95 -20.95 99.4 -19.0 100.6 -24.0 100.4 -30.0 L100.15 -32.2 Q100.6 -40.75 93.85 -46.7 77.75 -61.05 57.4 -68.25 M-75.75 32.05 Q-55.5 38.35 -44.8 55.95 -44.25 56.9 -44.25 58.1 -44.4 67.7 -45.95 77.15 L-46.5 77.75 -48.55 76.85 -48.55 76.2 -48.85 75.85 -54.05 74.55 Q-50.15 62.0 -51.35 49.15 -62.5 39.1 -75.95 32.3 L-75.75 32.05 M-101.95 -43.7 Q-102.9 -42.8 -104.1 -42.6 L-104.8 -44.35 -102.3 -47.9 Q-99.7 -45.75 -101.95 -43.7 M82.8 59.8 L81.6 59.05 80.9 58.15 81.6 57.15 Q96.75 63.9 99.9 79.0 100.75 83.2 100.15 87.75 L98.95 96.8 98.35 97.4 94.9 97.25 89.9 95.35 Q94.75 82.95 93.8 69.55 L93.8 69.0 Q93.85 68.25 93.5 68.85 L82.8 59.8" fill="#7e5923" fill-rule="evenodd" stroke="none"/>
    <path d="M-117.25 -66.55 L-117.25 -95.3 Q-106.95 -116.65 -89.2 -132.15 L-88.9 -132.4 -89.2 -131.9 -85.0 -129.65 Q-76.55 -137.5 -67.6 -144.55 L-69.3 -144.75 -59.15 -148.4 -59.75 -147.55 Q-80.3 -134.2 -94.35 -114.15 -97.8 -109.3 -100.6 -104.1 L-101.4 -103.05 Q-110.25 -88.2 -115.15 -71.45 L-116.35 -66.8 -117.25 -66.55 M15.85 -140.3 Q16.35 -143.25 13.55 -144.85 0.35 -152.6 -14.95 -147.35 -17.0 -146.6 -18.35 -145.2 -27.0 -136.25 -27.75 -123.2 L-23.55 -123.75 Q-3.65 -126.4 13.3 -136.6 15.4 -137.9 15.85 -140.3 M41.45 -134.95 Q48.65 -126.2 50.85 -115.15 52.05 -109.25 51.0 -103.65 L50.5 -103.3 Q49.7 -109.0 47.55 -114.65 41.6 -130.45 29.35 -141.9 L41.45 -134.95 M-34.6 -112.6 Q-32.95 -134.6 -20.65 -152.25 -7.75 -154.9 5.15 -151.8 31.45 -145.25 42.3 -119.95 L41.8 -120.25 Q33.0 -101.45 11.85 -97.8 L9.55 -97.45 Q-6.35 -99.5 -25.2 -99.45 -32.2 -103.25 -34.45 -110.9 L-34.85 -110.05 -34.6 -112.6 M-111.15 -65.85 Q-108.65 -78.0 -104.1 -89.45 -94.3 -113.95 -75.9 -132.4 -67.2 -141.2 -56.15 -146.55 -40.3 -154.15 -22.05 -152.95 L-25.0 -149.4 Q-31.8 -141.55 -35.05 -131.6 -37.8 -123.35 -38.2 -114.75 -38.7 -104.05 -46.05 -97.85 -61.8 -96.45 -76.3 -90.4 -80.8 -88.5 -84.55 -85.35 L-85.5 -73.95 Q-97.4 -68.75 -110.2 -66.0 L-111.15 -65.85 M-76.0 -125.9 Q-61.1 -121.65 -45.6 -121.7 L-41.5 -121.75 Q-39.3 -133.45 -32.7 -143.4 L-33.55 -145.25 Q-53.6 -150.7 -67.7 -135.45 L-76.0 -125.9" fill="#c4b091" fill-rule="evenodd" stroke="none"/>
    <path d="M-88.9 -132.4 L-84.5 -135.95 Q-79.85 -137.9 -75.75 -141.0 L-74.05 -142.2 -69.3 -144.75 -67.6 -144.55 Q-76.55 -137.5 -85.0 -129.65 L-89.2 -131.9 -88.9 -132.4 M15.85 -140.3 Q15.4 -137.9 13.3 -136.6 -3.65 -126.4 -23.55 -123.75 L-27.75 -123.2 Q-27.0 -136.25 -18.35 -145.2 -17.0 -146.6 -14.95 -147.35 0.35 -152.6 13.55 -144.85 16.35 -143.25 15.85 -140.3 M-76.0 -125.9 L-67.7 -135.45 Q-53.6 -150.7 -33.55 -145.25 L-32.7 -143.4 Q-39.3 -133.45 -41.5 -121.75 L-45.6 -121.7 Q-61.1 -121.65 -76.0 -125.9" fill="#e8ded2" fill-rule="evenodd" stroke="none"/>
    <path d="M-117.25 -56.15 L-117.25 -66.55 -116.35 -66.8 -115.15 -71.45 Q-110.25 -88.2 -101.4 -103.05 L-101.25 -102.9 Q-111.4 -81.3 -114.45 -57.45 L-117.25 -56.15 M41.45 -134.95 Q46.2 -131.35 51.1 -127.9 61.85 -120.3 69.75 -110.0 82.55 -93.35 85.6 -72.35 69.85 -81.5 53.2 -88.65 L50.5 -103.3 51.0 -103.65 Q52.05 -109.25 50.85 -115.15 48.65 -126.2 41.45 -134.95 M-34.6 -112.6 L-34.85 -110.05 -34.45 -110.9 Q-32.2 -103.25 -25.2 -99.45 L-34.7 -99.2 -35.05 -100.2 Q-35.9 -106.25 -34.6 -112.6 M9.55 -97.45 L11.85 -97.8 Q33.0 -101.45 41.8 -120.25 49.55 -106.25 50.15 -90.05 L50.2 -89.7 Q30.55 -95.9 9.55 -97.45 M-111.15 -65.85 L-110.2 -66.0 Q-97.4 -68.75 -85.5 -73.95 L-85.85 -66.2 Q-95.7 -65.25 -104.75 -61.05 -108.0 -59.6 -111.65 -58.5 L-111.15 -65.85 M-46.05 -97.85 Q-38.7 -104.05 -38.2 -114.75 -37.8 -123.35 -35.05 -131.6 -31.8 -141.55 -25.0 -149.4 -33.0 -136.0 -35.1 -120.6 -36.55 -109.9 -38.15 -99.35 L-38.9 -98.75 -46.05 -97.85" fill="#9b7d53" fill-rule="evenodd" stroke="none"/>
    <path d="M-5.65 -205.85 Q-5.05 -191.35 -5.35 -177.0 -5.55 -165.75 -11.75 -156.95 L-34.7 -156.1 -34.9 -156.8 -34.5 -157.25 Q-31.5 -160.4 -27.85 -162.7 -23.15 -165.7 -17.85 -167.55 -14.0 -181.8 -10.75 -196.1 L-6.95 -211.55 -5.65 -205.85 M-117.25 39.05 L-117.25 -0.6 -115.1 8.95 -114.55 27.45 -117.25 39.05 M-117.25 -43.85 L-117.25 -52.7 Q-113.9 -54.6 -110.15 -56.2 L-105.1 -48.3 Q-100.9 -52.4 -99.05 -49.2 L-98.35 -47.5 Q-97.1 -43.1 -100.4 -39.95 L-96.95 -33.35 -109.95 -29.9 -117.25 -43.85 M52.35 -85.6 L53.3 -84.1 Q57.45 -76.7 57.4 -68.25 L45.6 -72.4 45.45 -73.7 Q43.8 -82.1 39.1 -89.45 L52.35 -85.6 M-110.25 77.35 L-111.85 22.2 -97.25 75.35 Q-84.6 76.05 -71.85 75.4 L-66.15 74.8 Q-78.75 53.65 -88.45 30.9 -94.2 17.5 -97.4 3.25 L-102.7 -19.45 -89.5 -24.3 -89.5 -21.8 -89.5 -20.95 Q-91.2 -0.6 -89.9 19.75 L-89.4 27.6 -88.2 28.0 -88.15 28.0 Q-68.05 35.25 -53.6 50.4 L-52.4 51.75 Q-54.2 59.5 -55.25 67.6 L-56.25 74.75 -57.35 75.05 Q-64.95 78.55 -73.5 79.4 L-75.6 79.55 -76.15 79.55 -80.0 79.6 -98.2 79.55 -110.35 79.6 -110.25 77.35 M19.6 -93.0 Q20.95 -91.2 22.95 -86.45 25.0 -81.8 25.9 -77.55 L14.75 -79.6 14.55 -81.25 Q13.4 -88.75 9.95 -94.4 L19.6 -93.0 M-48.35 -94.3 L-42.15 -80.65 Q-58.3 -79.05 -73.9 -74.35 -76.3 -73.6 -77.5 -71.55 L-77.55 -71.2 -83.25 -68.25 -82.6 -85.0 -78.3 -86.75 Q-63.85 -92.5 -48.35 -94.3 M-25.05 -161.45 Q-14.45 -165.0 -11.15 -165.55 L-7.95 -201.35 -15.45 -167.25 -25.05 -161.45 M-96.75 -60.85 L-88.2 -62.65 Q-86.45 -62.0 -86.35 -59.45 -86.15 -54.85 -86.6 -50.2 L-96.75 -60.85 M-99.05 -45.95 L-99.05 -46.65 Q-99.15 -49.7 -101.9 -49.3 -102.8 -49.0 -103.5 -48.3 -106.8 -44.85 -105.95 -40.35 L-105.15 -39.9 -102.15 -39.95 Q-99.9 -42.2 -99.15 -45.4 L-99.05 -45.95 M-115.0 -16.7 L-115.2 -17.0 -115.0 -17.1 -115.0 -16.7 M-114.2 39.25 L-114.25 40.65 -114.5 39.85 -114.2 39.25" fill="#cb9438" fill-rule="evenodd" stroke="none"/>
    <path d="M-117.25 -0.6 L-117.25 -14.25 -115.05 -15.0 -115.1 8.95 -117.25 -0.6 M-117.25 -27.5 L-117.25 -43.85 -109.95 -29.9 -117.25 -27.5 M39.1 -89.45 Q43.8 -82.1 45.45 -73.7 L45.6 -72.4 25.9 -77.55 Q25.0 -81.8 22.95 -86.45 20.95 -91.2 19.6 -93.0 L39.1 -89.45 M-111.85 22.2 L-112.55 -15.65 -102.7 -19.45 -97.4 3.25 Q-94.2 17.5 -88.45 30.9 -78.75 53.65 -66.15 74.8 L-71.85 75.4 Q-84.6 76.05 -97.25 75.35 L-111.85 22.2 M9.95 -94.4 Q13.4 -88.75 14.55 -81.25 L14.75 -79.6 6.65 -80.65 Q-17.8 -84.05 -42.15 -80.65 L-48.35 -94.3 Q-25.5 -96.95 -2.55 -95.5 L9.95 -94.4 M-25.05 -161.45 L-15.45 -167.25 -7.95 -201.35 -11.15 -165.55 Q-14.45 -165.0 -25.05 -161.45 M-110.15 -56.2 L-96.75 -60.85 -86.6 -50.2 Q-86.75 -42.25 -89.4 -35.1 L-89.4 -34.95 -96.95 -33.35 -100.4 -39.95 Q-97.1 -43.1 -98.35 -47.5 L-99.05 -49.2 Q-100.9 -52.4 -105.1 -48.3 L-110.15 -56.2" fill="#e1bf8c" fill-rule="evenodd" stroke="none"/>
    <path d="M-75.5 -58.95 L-75.25 -57.6 -75.5 -58.55 -75.95 -58.95 -75.5 -58.95 M-74.85 -53.55 L-74.45 -50.8 -74.9 -53.55 -74.85 -53.55 M-75.95 32.3 L-77.85 31.15 -75.75 32.05 -75.95 32.3" fill="#ac7c2d" fill-rule="evenodd" stroke="none"/>
    <path d="M-117.25 -25.65 L-117.25 -27.5 -109.95 -29.9 -96.95 -33.35 -89.4 -34.95 -86.35 -35.5 -84.65 -60.5 -84.15 -60.9 -83.75 -60.5 -83.25 -58.1 -85.1 -35.85 -84.65 -35.8 -84.65 -35.1 -82.6 -33.7 Q-79.5 -31.75 -75.9 -30.75 L-75.7 -29.95 -77.75 -29.65 -86.4 -33.6 Q-102.25 -31.35 -117.25 -25.65 M57.4 -68.25 Q77.75 -61.05 93.85 -46.7 100.6 -40.75 100.15 -32.2 96.9 -40.15 90.35 -46.35 82.75 -53.6 73.1 -58.2 L73.0 -58.75 72.85 -59.35 72.65 -59.7 72.15 -59.95 69.5 -60.05 Q57.85 -65.85 45.6 -70.3 35.6 -74.0 25.0 -75.9 1.45 -79.55 -22.45 -80.0 L-34.25 -79.4 Q-55.8 -76.5 -76.85 -70.75 L-77.25 -70.3 -77.55 -71.2 -77.5 -71.55 Q-76.3 -73.6 -73.9 -74.35 -58.3 -79.05 -42.15 -80.65 -17.8 -84.05 6.65 -80.65 L14.75 -79.6 25.9 -77.55 45.6 -72.4 57.4 -68.25 M-80.55 29.1 L-75.7 31.6 Q-75.5 31.75 -75.75 32.05 L-77.85 31.15 -75.95 32.3 Q-62.5 39.1 -51.35 49.15 -50.15 62.0 -54.05 74.55 L-48.85 75.85 -48.55 76.2 -48.55 76.85 -55.0 76.45 Q-57.1 78.35 -60.0 78.3 L-73.5 79.4 Q-64.95 78.55 -57.35 75.05 L-56.25 74.75 -55.25 67.6 Q-54.2 59.5 -52.4 51.75 L-53.6 50.4 Q-68.05 35.25 -88.15 28.0 -87.6 27.65 -88.15 27.9 L-88.2 28.0 -89.4 27.6 -89.9 19.75 Q-91.2 -0.6 -89.5 -20.95 L-89.5 -21.8 -89.4 -22.55 -89.35 -26.7 -88.5 -26.45 -87.8 -25.0 Q-90.2 0.7 -88.5 26.35 L-80.55 29.1 M-110.35 82.25 L-111.15 81.0 -110.25 77.35 -110.35 79.6 -98.2 79.55 -80.0 79.6 -76.15 79.55 -110.35 81.65 -110.35 82.25 M-99.05 -45.95 L-99.15 -45.4 Q-99.9 -42.2 -102.15 -39.95 L-105.15 -39.9 -105.95 -40.35 Q-106.8 -44.85 -103.5 -48.3 -102.8 -49.0 -101.9 -49.3 -99.15 -49.7 -99.05 -46.65 L-99.05 -45.95 M-101.95 -43.7 Q-99.7 -45.75 -102.3 -47.9 L-104.8 -44.35 -104.1 -42.6 Q-102.9 -42.8 -101.95 -43.7 M-91.2 145.8 L-89.9 143.25 -85.45 142.3 -90.15 153.25 Q-93.95 164.7 -96.75 176.6 -97.4 179.25 -97.4 181.85 -97.4 182.35 -96.95 182.2 L-97.15 182.75 Q-93.55 188.95 -86.2 189.75 L-73.65 190.7 -64.05 189.4 -40.3 189.0 -39.85 189.0 -39.6 188.4 -39.85 188.35 Q-40.2 186.25 -39.1 184.6 L-38.65 184.0 -38.0 183.8 -37.35 183.95 -37.25 188.45 Q-15.3 189.05 5.7 195.0 8.95 196.05 12.45 196.25 19.6 196.8 26.2 194.25 L29.55 192.5 27.55 176.25 29.95 176.15 29.95 176.45 Q32.95 192.6 32.95 209.05 L32.9 209.65 32.3 210.15 Q22.0 207.3 12.35 202.25 8.85 200.45 5.25 199.35 -13.85 193.55 -34.0 192.9 -68.1 190.9 -100.5 201.55 L-101.15 200.45 -100.7 201.65 -105.05 203.55 Q-104.55 201.9 -104.35 200.25 -101.25 174.95 -92.8 151.05 L-91.2 145.8 M-85.4 142.0 L-85.45 142.2 -85.7 142.2 -85.4 142.0 M-97.85 186.05 L-98.05 186.6 -100.65 197.65 -82.8 192.5 Q-92.1 192.7 -97.85 186.05 M-43.75 212.65 Q-43.35 209.1 -41.35 206.15 L-40.25 204.7 -41.4 212.7 Q-23.1 212.45 -5.0 214.45 L-5.45 215.6 Q-13.1 217.05 -20.8 215.2 L-27.85 214.65 -39.75 215.35 Q-38.1 218.65 -39.35 222.15 L-39.6 223.2 -23.7 225.6 -12.65 227.4 -11.45 227.6 -2.7 228.85 -3.2 229.7 -11.4 229.3 -39.8 225.0 -39.6 234.35 -39.4 236.45 -40.6 237.15 -41.9 234.55 Q-43.4 230.75 -43.1 226.6 L-42.95 224.85 Q-60.5 224.4 -77.9 227.1 L-79.35 226.05 Q-61.35 220.5 -42.65 222.8 -41.1 218.8 -42.95 215.2 L-69.05 213.8 -43.75 212.9 -43.6 212.9 -43.75 212.65 M6.2 210.5 Q-16.75 201.35 -41.2 201.2 -63.65 201.05 -84.5 208.55 -89.7 210.35 -94.45 213.2 L-90.25 230.95 -89.9 232.1 Q-88.55 235.8 -89.3 239.45 L-90.55 239.6 -98.6 211.95 Q-75.35 198.45 -48.2 198.4 -37.3 198.35 -26.3 199.9 -9.9 202.45 5.4 208.1 8.55 209.25 11.5 210.95 17.1 214.05 20.7 219.45 L21.95 221.45 15.95 244.7 13.25 244.05 Q16.9 233.5 19.05 222.45 L17.95 220.75 Q13.6 213.85 6.2 210.5 M80.75 99.35 Q80.4 98.35 79.35 97.65 87.7 97.4 89.25 90.2 L89.25 89.45 Q92.2 80.25 92.65 70.45 L84.3 63.0 82.8 59.8 93.5 68.85 93.8 69.55 Q94.75 82.95 89.9 95.35 L94.9 97.25 Q95.0 97.6 93.95 97.5 88.75 97.0 83.8 98.2 L83.25 98.9 80.75 99.35 M12.65 198.6 L12.7 198.6 29.75 205.95 29.75 195.15 Q21.65 199.1 12.7 198.35 L12.2 198.35 12.65 198.6" fill="#432f12" fill-rule="evenodd" stroke="none"/>
    <path d="M100.15 -32.2 L100.4 -30.0 Q100.6 -24.0 99.4 -19.0 96.15 -14.1 91.55 -10.35 L90.25 -9.35 89.55 -11.05 89.05 -11.95 87.55 -13.6 86.55 -14.35 87.6 -14.7 87.1 -15.0 Q94.25 -21.55 90.7 -30.05 L89.85 -31.8 89.2 -31.8 88.1 -32.65 Q86.1 -34.1 83.6 -33.6 81.95 -33.15 80.8 -31.75 L79.7 -32.3 Q81.3 -36.15 80.6 -40.4 80.1 -43.3 78.5 -45.8 L77.9 -45.7 73.75 -47.9 71.95 -47.2 Q69.85 -46.2 68.4 -44.55 L67.45 -43.4 Q59.15 -47.2 51.1 -51.8 54.9 -61.5 45.0 -62.1 41.6 -62.6 39.6 -59.75 38.65 -58.4 38.1 -56.75 27.15 -60.65 15.5 -62.35 13.85 -72.25 4.9 -70.0 3.7 -70.1 2.8 -69.55 L3.75 -69.65 2.8 -69.35 Q-1.4 -67.9 -1.2 -63.55 -9.6 -62.45 -17.7 -64.45 L-23.4 -64.15 Q-22.7 -71.35 -30.6 -71.35 -38.65 -71.3 -40.1 -63.45 L-41.45 -63.4 Q-50.8 -59.2 -61.65 -58.5 -62.65 -67.05 -71.45 -64.55 -75.9 -63.4 -75.5 -58.95 L-75.95 -58.95 -81.0 -61.65 -84.3 -63.9 -83.25 -68.25 -77.55 -71.2 -77.25 -70.3 -76.85 -70.75 Q-55.8 -76.5 -34.25 -79.4 L-22.45 -80.0 Q1.45 -79.55 25.0 -75.9 35.6 -74.0 45.6 -70.3 57.85 -65.85 69.5 -60.05 L72.15 -59.95 72.65 -59.7 72.85 -59.35 73.0 -58.75 73.1 -58.2 Q82.75 -53.6 90.35 -46.35 96.9 -40.15 100.15 -32.2 M-46.5 77.75 Q-53.35 82.15 -61.5 82.7 L-110.25 84.65 -110.35 82.25 -110.35 81.65 -76.15 79.55 -75.6 79.55 -73.5 79.4 -60.0 78.3 Q-57.1 78.35 -55.0 76.45 L-48.55 76.85 -46.5 77.75 M98.35 97.4 Q90.85 102.0 82.0 102.25 L80.9 100.6 80.75 99.35 83.25 98.9 83.8 98.2 Q88.75 97.0 93.95 97.5 95.0 97.6 94.9 97.25 L98.35 97.4 M79.35 97.65 L77.5 96.6 Q86.9 88.15 85.8 74.55 85.35 68.75 84.3 63.0 L92.65 70.45 Q92.2 80.25 89.25 89.45 L89.25 90.2 Q87.7 97.4 79.35 97.65" fill="#5e421a" fill-rule="evenodd" stroke="none"/>
    <path d="M-117.25 120.9 L-117.25 104.6 Q-114.3 104.55 -115.35 107.65 -116.55 111.15 -114.1 113.65 -111.15 116.6 -106.75 116.3 L-105.5 118.3 Q-108.05 120.95 -107.75 124.7 L-117.25 120.9 M-117.25 102.7 L-117.25 94.25 Q-115.7 95.0 -114.1 94.65 L-112.3 94.35 -111.85 92.9 -111.75 92.85 -111.8 92.8 -113.2 87.5 Q-115.3 77.2 -114.9 66.65 L-117.25 65.6 -117.25 65.3 -113.95 64.05 -113.4 64.2 -112.55 79.55 -112.3 79.8 -112.65 80.65 -112.6 87.4 -111.85 87.4 Q-111.65 93.35 -108.0 97.95 L-108.5 105.05 -110.8 104.7 Q-114.4 104.55 -117.25 102.7 M-117.25 58.75 L-117.25 49.15 Q-115.7 47.45 -114.55 45.55 L-114.05 45.8 -114.0 46.85 -113.75 61.35 -114.25 60.9 -115.45 60.8 -117.25 58.75 M43.7 -60.25 Q51.7 -60.4 50.2 -51.8 49.4 -47.15 45.9 -44.9 42.4 -42.55 37.95 -42.35 L32.5 -41.7 32.75 -53.0 Q35.85 -51.7 39.15 -52.55 39.05 -57.5 42.8 -59.85 L43.7 -60.25 M10.55 -68.2 L11.3 -67.65 Q17.35 -59.55 8.95 -53.75 5.55 -51.35 1.45 -52.2 L0.25 -54.05 1.25 -67.45 10.55 -68.2 M12.3 -47.65 L13.05 -52.6 Q14.2 -53.95 14.45 -55.45 L15.35 -59.35 22.15 -58.45 20.45 -31.5 18.3 -25.6 16.15 -23.9 15.65 -24.9 16.75 -46.2 12.35 -47.65 12.3 -47.65 M22.65 -44.05 Q23.85 -51.1 23.35 -58.2 L31.4 -56.15 Q29.7 -42.95 32.55 -29.85 33.75 -28.85 35.1 -28.05 L38.8 -26.1 Q39.4 -24.9 39.5 -23.15 39.6 -20.95 38.4 -19.35 L34.65 -19.35 Q36.05 -20.95 35.45 -22.95 L35.0 -24.35 Q26.15 -30.5 27.55 -42.1 L22.65 -44.05 M32.55 -38.0 L32.5 -38.8 34.35 -38.4 Q39.25 -41.1 43.7 -38.15 44.7 -37.5 45.1 -36.45 49.95 -24.0 48.35 -10.2 47.8 -5.2 46.25 -0.6 42.45 10.45 30.75 7.0 L30.4 5.1 Q29.45 -0.1 33.6 -2.0 L33.8 4.65 Q45.95 4.05 46.4 -8.9 46.65 -16.3 46.05 -23.65 L32.55 -38.0 M-0.25 -10.7 Q-0.2 -7.65 1.9 -5.4 L2.45 -4.85 Q10.5 -6.95 11.9 -15.6 14.0 -28.3 9.6 -40.6 8.4 -43.95 5.85 -46.55 12.7 -46.3 13.95 -38.15 16.3 -22.8 11.55 -8.55 9.55 -2.6 3.55 -1.1 -0.1 -0.1 -3.3 -2.4 -2.4 -6.65 -0.25 -10.7 M1.6 -23.1 L1.45 -22.55 Q-5.65 -21.1 -11.2 -25.7 L-11.95 -26.45 Q-7.95 -25.7 -3.9 -26.45 L-2.6 -26.5 -3.75 -31.95 Q-5.0 -39.25 -4.4 -46.6 L-3.9 -52.1 -10.75 -53.35 -10.0 -60.5 Q-5.45 -60.25 -1.35 -61.8 L-1.65 -52.35 Q-1.7 -51.65 -1.1 -51.3 L-1.4 -51.4 -1.05 -50.7 -1.85 -43.05 Q-2.0 -41.75 -1.65 -40.6 L-0.75 -37.55 Q1.15 -30.5 1.6 -23.1 M-3.3 -19.6 L-0.25 -20.3 0.05 -20.9 1.4 -20.7 1.25 -20.3 1.6 -20.65 2.05 -19.65 1.25 -18.85 1.8 -19.05 Q0.65 -13.75 -3.3 -9.55 -4.05 -8.8 -4.05 -7.6 -4.25 2.65 -4.05 12.85 L-3.9 13.1 Q-3.25 15.4 -1.0 15.85 L0.2 16.15 0.6 25.6 Q-5.4 26.5 -10.6 23.3 L-7.7 21.7 Q-6.1 20.75 -5.0 19.25 -5.1 16.2 -6.15 13.15 -11.7 -3.0 -2.75 -17.95 L-3.3 -19.6 M14.5 20.75 Q22.4 7.3 18.55 -8.15 17.75 -11.35 14.8 -11.8 L15.5 -17.7 Q21.4 -13.45 21.05 -4.8 20.7 4.55 20.95 13.65 21.2 21.8 14.55 24.9 L14.5 20.75 M28.95 -15.75 L37.25 -16.05 Q37.95 -15.3 37.95 -14.45 38.0 -8.4 34.2 -4.15 L34.05 -4.9 31.25 -4.15 Q27.05 7.6 27.75 20.5 L33.3 22.1 29.35 19.75 30.15 18.95 31.2 19.55 Q36.75 23.55 35.05 30.85 L34.5 31.5 24.25 29.9 24.25 29.65 Q28.45 30.8 31.95 28.65 L32.35 28.45 Q32.75 27.5 32.65 26.4 32.4 24.2 31.05 22.5 L26.1 21.35 Q25.6 11.7 27.6 2.15 L28.5 -2.0 Q29.35 -5.4 32.65 -5.8 35.35 -7.15 34.45 -10.4 L32.8 -15.0 28.95 -15.75 M23.8 -10.15 L23.9 -8.45 Q25.4 9.25 21.7 26.8 L21.5 25.35 Q20.95 7.7 23.35 -10.15 L23.8 -10.15 M61.3 -44.35 L61.3 -44.2 Q56.95 -31.2 60.45 -18.8 60.8 -17.55 62.15 -17.4 L64.5 -12.1 Q64.9 -11.15 64.9 -10.1 L64.7 -8.25 Q61.0 -7.45 57.5 -8.95 49.95 -12.3 51.05 -21.2 L53.75 -24.4 Q54.5 -36.4 52.9 -48.45 L61.3 -44.35 M59.8 13.95 L59.4 13.65 Q59.4 8.95 61.1 4.5 62.0 4.8 62.5 4.1 69.5 -5.95 66.6 -18.7 L61.05 -20.8 60.5 -26.25 61.0 -25.8 61.35 -26.6 Q66.2 -27.75 70.8 -26.1 72.25 -25.6 72.9 -24.65 80.0 -13.65 77.45 0.1 74.8 14.3 61.25 13.6 L60.8 14.05 59.8 13.95 M61.25 14.95 L62.25 15.25 62.15 21.5 Q66.25 26.0 66.35 32.05 L66.35 32.35 66.55 32.05 66.55 31.1 Q66.2 23.05 64.65 15.25 L67.05 14.9 Q76.05 18.8 75.3 29.0 74.5 40.35 70.45 50.65 70.0 51.85 68.85 52.8 L67.6 53.7 Q62.55 52.6 58.3 55.65 L57.1 55.35 Q56.75 50.85 58.6 46.85 L58.7 46.75 58.7 46.7 59.0 46.55 61.0 46.4 Q68.05 34.75 61.45 22.2 L60.8 22.25 Q58.0 19.9 59.1 16.15 L61.25 14.95 M72.9 -28.65 Q71.35 -28.0 69.55 -28.0 L60.6 -28.65 61.55 -37.3 65.45 -36.25 Q69.1 -41.15 73.45 -45.5 81.5 -42.8 78.1 -34.2 76.5 -30.2 72.9 -28.65 M50.3 -48.1 L50.5 -48.1 Q50.85 -43.1 51.8 -38.1 53.2 -30.95 50.2 -24.55 L49.85 -24.8 Q49.35 -27.95 49.1 -31.15 L48.15 -36.6 Q47.4 -39.5 44.9 -41.2 L45.35 -41.7 Q47.4 -41.7 48.85 -43.55 50.3 -45.45 50.3 -48.1 M50.1 -5.95 L50.65 -5.95 50.65 1.9 Q50.8 14.75 47.85 27.1 L47.55 26.95 Q48.85 16.5 43.35 8.35 L44.7 7.1 Q50.05 1.75 50.1 -5.95 M51.55 27.9 Q55.6 30.2 59.35 27.9 L59.5 27.8 Q53.6 21.05 55.15 10.7 56.0 4.85 60.45 0.9 L56.9 -7.0 64.65 -6.45 64.5 -5.0 Q63.85 0.65 59.7 4.3 L59.45 5.1 Q56.3 14.1 57.6 23.75 L60.7 24.9 61.35 26.2 62.25 26.25 62.35 33.75 60.6 33.7 Q53.9 33.65 51.4 27.9 L51.55 27.9 M77.75 -24.15 L79.6 -25.6 Q80.85 -28.55 83.45 -30.75 L84.8 -31.65 Q93.0 -29.65 88.9 -20.9 85.95 -14.65 79.5 -16.3 79.4 -20.35 77.75 -24.15 M82.25 -14.35 Q84.45 -13.85 85.55 -12.25 90.65 -1.8 88.55 9.55 86.55 20.45 75.75 19.5 L75.35 18.55 76.75 13.2 Q80.2 -0.55 79.6 -14.9 L82.25 -14.35 M-25.35 -68.45 L-25.5 -55.3 -26.9 -53.4 -30.5 -53.6 Q-40.05 -56.5 -38.55 -66.65 L-36.45 -67.95 -35.55 -68.4 Q-33.0 -69.45 -30.1 -68.75 L-25.35 -68.45 M-46.35 -53.65 L-47.05 -58.95 -40.9 -60.2 -41.0 -60.65 -40.1 -60.8 -38.7 -54.35 -38.4 -53.4 -37.8 -47.45 -38.9 -45.95 Q-41.45 -41.95 -41.35 -37.05 L-41.85 -37.05 -42.55 -37.05 Q-39.95 -45.5 -42.15 -53.9 L-46.35 -53.65 M-23.55 -53.4 L-23.55 -53.65 -23.45 -60.8 -14.7 -60.55 Q-13.5 -44.75 -15.4 -29.35 -15.5 -28.45 -16.25 -27.75 -21.75 -22.5 -29.4 -24.35 L-28.3 -31.25 -27.6 -31.25 Q-27.75 -27.55 -24.2 -27.75 -18.7 -28.3 -17.55 -34.0 -15.6 -43.5 -17.2 -53.3 L-23.55 -53.4 M-66.1 -46.65 Q-76.05 -50.0 -72.55 -61.2 -72.35 -61.85 -71.7 -62.1 -63.0 -64.9 -63.1 -56.2 -62.0 -55.0 -60.2 -54.85 L-56.9 -55.5 -56.7 -51.2 -65.65 -46.95 -66.1 -46.65 M-55.05 -51.85 L-55.05 -57.0 -48.5 -58.6 -48.85 -53.4 -49.15 -47.9 Q-49.3 -45.35 -48.7 -43.7 L-48.85 -30.2 Q-53.7 -21.9 -64.5 -24.8 -66.9 -31.4 -60.25 -32.9 L-59.65 -32.85 Q-59.3 -29.95 -56.55 -29.75 -55.35 -29.85 -54.75 -30.65 -47.45 -40.15 -49.95 -53.1 L-55.05 -51.85 M-68.4 -43.15 Q-62.65 -44.4 -57.3 -42.4 L-57.45 -41.45 Q-58.05 -37.4 -60.4 -34.3 L-63.65 -34.15 Q-69.8 -22.1 -63.9 -9.15 L-59.65 -8.5 -58.8 -0.65 -60.4 -0.25 Q-67.05 0.65 -72.1 -3.45 L-71.65 -4.4 Q-70.0 -3.35 -68.25 -3.6 -65.5 -4.15 -64.95 -7.0 -74.5 -25.85 -61.3 -41.6 L-63.05 -41.6 Q-65.8 -41.9 -68.4 -43.15 M-57.45 13.05 L-59.05 15.15 -59.05 19.3 -51.9 18.85 -51.7 20.05 Q-55.15 23.35 -60.3 22.4 -62.25 22.25 -64.45 22.35 -64.7 18.55 -63.5 15.1 L-62.65 13.35 -61.7 13.6 -59.35 13.45 -57.45 13.05 M-51.75 -8.55 Q-52.0 -14.25 -55.6 -18.8 L-56.15 -19.7 -59.95 -21.75 -58.65 -21.65 Q-47.35 -19.55 -51.3 -8.5 L-51.75 -8.55 M-77.65 -13.3 L-77.0 -13.25 Q-76.8 -5.8 -71.9 0.05 L-71.65 0.5 Q-77.0 8.15 -76.7 18.1 -79.95 2.7 -77.65 -13.3 M-43.2 -11.4 Q-42.75 -6.9 -40.35 -3.4 L-41.15 -0.35 -41.65 0.1 Q-44.7 3.25 -44.5 8.1 L-44.95 8.05 Q-45.45 -0.9 -43.85 -9.6 L-43.2 -11.4 M-28.25 -46.9 L-26.5 -46.3 -25.9 -39.1 -29.0 -34.7 -29.05 -34.7 -29.6 -34.7 Q-35.2 -21.9 -28.1 -10.75 -26.3 -7.85 -26.05 -4.5 -28.55 -2.75 -31.65 -3.2 -38.6 -4.2 -41.1 -10.75 -37.05 -8.3 -32.3 -7.9 L-31.4 -8.25 Q-37.7 -15.95 -34.55 -26.75 L-28.25 -46.9 M-24.75 -4.6 Q-22.8 -12.3 -29.1 -17.7 -29.65 -18.1 -29.75 -18.9 L-29.85 -20.85 -29.25 -20.75 -30.0 -21.85 -29.45 -22.55 -29.1 -22.25 -28.1 -22.8 -27.65 -22.25 -25.9 -21.75 Q-27.95 -18.7 -25.7 -16.1 L-24.8 -14.75 Q-22.85 -9.75 -24.45 -4.55 L-24.75 -4.6 M-19.65 -19.75 Q-15.9 -17.65 -15.75 -13.2 -15.3 1.6 -17.4 16.1 L-17.7 16.3 Q-20.85 23.9 -29.75 23.15 L-32.25 22.9 -30.8 13.55 -27.2 11.75 -26.8 12.0 Q-29.7 15.4 -27.95 19.4 L-27.6 20.05 Q-19.7 19.35 -19.75 10.8 -19.75 6.35 -19.2 1.9 -17.95 -9.0 -19.65 -19.75 M-36.65 -0.75 L-36.9 -1.25 Q-31.95 -1.15 -27.5 0.5 L-27.9 1.15 -27.3 1.15 -27.7 5.55 Q-28.15 9.65 -31.7 11.2 L-32.3 12.55 -32.4 12.5 -32.95 12.55 Q-37.25 23.95 -31.05 33.35 -28.4 37.4 -28.0 42.45 -31.9 44.85 -36.4 43.6 -38.7 42.85 -40.5 41.15 L-40.25 40.8 -33.85 40.3 Q-36.2 33.9 -37.6 27.15 -39.75 17.1 -34.55 8.7 L-32.1 4.25 -31.45 2.15 -36.65 -0.75 M-1.45 2.8 L-1.65 3.05 -0.6 3.15 -0.05 3.45 0.35 3.15 Q11.5 -1.9 13.2 9.85 15.5 26.0 9.35 40.6 6.65 46.95 -0.4 46.9 -2.95 46.85 -5.3 45.55 -4.15 40.65 -1.25 36.6 L-1.6 40.3 1.0 40.85 8.2 37.4 Q9.75 34.5 10.25 31.15 12.2 18.6 9.05 6.25 5.0 4.4 0.95 5.9 L0.35 6.7 2.15 14.5 1.45 14.8 -1.1 10.4 -0.9 8.9 -2.5 7.6 -2.7 8.3 -2.6 3.65 -2.45 3.05 -2.45 2.65 -1.45 2.8 M-22.15 33.05 L-24.8 26.2 Q-16.55 28.0 -17.4 36.9 -17.85 41.95 -17.65 47.1 -17.3 56.05 -18.9 65.1 L-19.5 64.25 Q-21.3 70.0 -28.1 70.5 L-34.0 70.7 -32.75 60.8 -29.6 60.0 -29.25 60.0 -29.8 66.4 Q-19.8 65.85 -20.95 55.05 -21.6 49.1 -21.85 43.15 L-21.65 36.85 -21.65 35.7 -22.15 33.05 M-4.35 28.25 L0.9 27.9 0.85 28.55 0.0 29.25 0.55 29.1 Q-0.25 34.55 -4.85 38.15 -5.7 38.8 -5.85 40.0 -7.2 50.65 -5.35 61.4 -4.9 64.2 -2.05 64.25 L-1.55 74.3 Q-7.85 74.95 -13.3 71.8 -11.1 71.8 -9.15 70.8 L-7.6 69.9 Q-7.5 69.2 -7.7 68.65 -15.0 48.0 -4.4 28.55 L-4.35 28.25 M-63.15 1.95 L-59.85 2.2 -59.3 2.8 -58.8 2.8 -58.8 10.4 Q-64.2 10.6 -65.35 16.05 -66.6 22.0 -66.05 28.0 L-66.2 28.0 Q-66.5 30.4 -65.8 32.6 L-65.1 34.4 -66.0 34.55 -74.75 31.7 -75.7 30.95 -75.6 26.65 -71.8 28.7 -69.8 27.55 Q-69.9 14.95 -63.0 5.1 L-63.3 4.65 -71.05 2.4 -69.85 1.25 Q-66.85 2.55 -63.6 2.05 L-63.2 2.55 -63.15 1.95 M-60.6 34.15 L-60.35 33.3 Q-63.75 31.6 -64.35 27.9 L-64.65 23.65 -56.8 23.95 -52.75 26.7 -53.5 27.1 -54.3 26.6 -58.5 26.45 -59.85 28.45 -58.45 34.15 -57.55 34.8 Q-54.7 36.9 -54.2 40.25 L-54.4 40.45 -57.7 38.45 -58.85 34.7 -60.6 34.15 M-44.9 38.75 L-42.25 44.3 -42.65 47.4 -44.7 49.45 -45.85 47.95 Q-46.2 43.5 -45.1 39.2 L-44.9 38.75 M-41.55 54.0 L-41.1 53.9 Q-40.6 54.2 -39.85 55.45 L-39.75 55.55 Q-37.3 59.45 -35.95 63.8 L-35.55 64.95 -36.3 69.5 Q-37.7 76.2 -33.55 81.15 L-36.2 81.05 -36.5 80.3 -40.05 87.75 Q-36.85 89.75 -32.85 88.8 L-33.2 87.4 -32.1 85.9 Q-31.55 85.1 -31.9 84.1 L-31.65 83.95 -29.75 90.35 -29.8 90.4 -32.75 91.45 -32.9 91.9 -38.35 91.05 -40.3 90.35 -40.65 90.3 -42.3 89.05 -43.05 88.35 Q-44.15 87.2 -44.8 85.75 L-45.75 82.85 -44.85 82.55 -44.55 81.5 Q-38.55 68.0 -41.55 54.0 M-81.05 95.95 L-80.65 87.0 -75.85 86.9 -73.65 89.35 -74.85 90.55 Q-76.95 92.9 -77.75 96.05 L-81.05 95.95 M-76.35 96.1 L-72.3 90.15 Q-70.1 91.3 -67.6 91.35 L-61.65 91.7 -61.25 99.3 Q-61.5 99.55 -61.9 99.65 L-62.8 99.7 -63.5 99.65 -63.9 99.9 Q-69.35 103.55 -69.35 111.0 -69.35 114.75 -68.55 118.5 -67.65 122.8 -63.45 124.65 L-63.1 132.75 -63.8 133.5 -70.25 132.8 Q-72.3 132.4 -74.15 131.6 -76.95 129.7 -78.05 126.55 -78.8 124.3 -78.75 121.85 L-71.95 123.8 Q-72.3 114.8 -71.3 105.45 -70.8 100.65 -68.5 96.45 L-76.35 96.1 M-61.9 89.25 Q-68.35 90.5 -73.25 86.7 L-61.1 85.75 -61.1 88.65 -61.9 89.25 M-55.1 85.0 L-55.05 85.25 -55.35 95.7 -55.75 95.7 -59.05 95.95 -59.2 85.45 -55.1 85.0 M-55.8 98.15 L-55.45 98.2 -55.35 108.05 -55.95 109.25 -55.25 109.4 -55.1 110.0 Q-56.0 111.05 -57.5 111.3 -62.45 111.8 -67.3 111.45 L-67.3 111.25 -67.35 110.85 -66.75 106.75 Q-66.2 101.7 -61.35 100.3 L-60.65 101.1 Q-62.15 102.3 -63.95 102.75 L-64.7 102.9 -60.7 102.55 -62.0 103.95 Q-63.6 106.15 -62.1 109.0 L-56.5 109.2 -55.8 98.15 M-53.55 95.3 L-53.95 95.05 -53.15 84.7 -47.45 83.6 Q-46.8 88.4 -44.1 92.55 L-44.5 95.9 -45.0 96.7 Q-46.7 101.15 -47.3 106.25 L-47.7 106.2 Q-47.15 99.75 -48.2 93.5 L-49.75 94.2 -53.55 95.3 M-47.9 128.45 L-42.4 129.0 -42.25 128.4 -41.2 127.85 Q-40.7 119.75 -39.2 111.6 -38.45 107.45 -36.0 103.9 -31.5 97.4 -39.25 95.2 L-39.1 94.35 -32.4 96.4 -31.65 103.8 Q-38.35 112.2 -37.5 123.4 -37.35 125.2 -36.5 126.65 -32.9 132.65 -31.9 139.75 L-33.05 140.15 -33.25 140.55 -34.55 140.95 Q-46.75 141.25 -47.9 128.45 M-2.05 53.8 L-1.6 52.05 5.45 51.5 Q9.1 51.8 9.85 55.85 12.55 70.55 9.15 85.1 6.6 96.25 -4.5 95.9 L-4.5 95.3 -5.7 95.25 -5.9 95.2 -6.35 94.9 -6.95 94.6 -6.85 93.55 Q-3.5 94.6 -0.2 93.4 L0.9 93.0 1.5 93.3 Q6.0 88.9 7.85 83.0 13.0 66.85 3.75 54.1 L-2.05 53.8 M-30.4 107.2 Q-29.4 109.35 -29.8 111.8 L-29.85 112.95 -26.5 112.95 Q-23.2 106.25 -23.0 98.75 -22.65 86.8 -24.2 74.9 -23.1 75.15 -22.55 76.15 -18.6 83.25 -19.1 92.35 L-19.65 108.75 Q-19.75 115.45 -25.8 117.7 L-25.9 117.7 -27.5 118.15 -35.25 118.65 -33.4 108.65 -30.4 107.2 M-8.15 77.4 L-3.55 76.6 -3.25 76.05 -1.85 76.3 -1.9 76.5 -1.5 76.6 -1.4 77.25 -2.1 78.15 -1.6 78.0 Q-2.0 83.1 -6.5 86.2 -7.8 87.1 -8.15 88.8 -10.5 100.95 -6.5 112.0 -6.2 112.8 -5.25 112.85 L-4.3 123.1 Q-8.95 123.2 -13.55 122.2 L-13.6 122.2 -14.55 121.65 Q-18.1 119.85 -18.7 115.85 L-18.6 115.5 -18.1 115.6 Q-16.85 117.7 -14.75 119.0 -12.1 120.7 -8.8 120.2 -8.15 118.65 -8.8 117.25 -11.75 111.1 -11.75 104.3 L-11.8 95.25 Q-11.85 85.9 -5.45 78.7 L-8.15 77.4 M-104.6 97.4 L-105.45 97.35 -104.5 87.6 -89.7 87.4 -90.9 88.3 -91.5 88.2 -95.95 98.6 -98.2 95.95 Q-101.65 95.65 -104.6 97.4 M-91.9 92.1 L-91.15 91.05 Q-89.45 91.35 -88.3 90.0 L-87.85 90.1 -88.2 89.85 -87.3 87.25 -82.7 87.1 -83.15 96.65 Q-84.1 98.0 -85.7 98.8 -89.7 100.8 -93.85 99.7 L-92.75 92.1 -91.9 92.1 M-89.35 111.1 Q-89.35 110.8 -89.6 110.6 L-90.2 110.4 -90.9 109.85 Q-93.1 108.0 -93.6 105.1 L-93.75 104.2 -93.9 100.95 -90.6 101.7 -89.55 107.25 Q-87.8 108.35 -87.55 110.4 L-86.65 119.2 -83.1 120.55 Q-84.9 126.35 -84.9 132.4 L-85.0 139.35 Q-96.3 142.55 -104.7 133.95 -105.5 133.2 -105.8 132.05 -107.4 125.45 -104.2 119.6 L-101.75 120.95 -99.85 121.1 Q-99.1 121.65 -99.35 122.35 -100.7 126.1 -98.4 128.9 -95.45 132.45 -91.0 131.8 L-90.3 131.2 -89.85 132.05 Q-87.55 125.85 -88.25 119.4 L-88.8 111.5 -89.35 111.1 M-90.75 121.45 L-97.8 120.75 -97.55 120.25 -98.15 120.25 -98.4 120.6 -104.7 117.05 -104.95 115.65 Q-104.85 113.75 -105.4 111.35 L-90.55 117.8 -90.5 121.45 -90.75 121.45 M-81.65 120.6 L-81.1 120.65 Q-81.1 123.25 -80.55 125.5 -80.0 127.85 -78.95 129.8 -77.75 132.0 -76.0 133.65 L-75.25 142.35 Q-70.5 145.4 -65.0 145.45 -62.2 145.7 -61.6 143.15 -59.15 132.55 -62.6 122.7 L-65.7 120.85 -67.5 112.9 -59.2 113.3 -57.1 114.95 -56.15 115.9 -55.4 116.9 -53.8 119.65 -52.75 119.65 -53.1 121.55 -54.0 124.6 Q-58.45 138.35 -58.25 153.05 L-58.9 153.3 -59.0 153.95 Q-69.8 157.2 -79.75 149.7 -80.8 148.9 -81.0 147.75 -83.45 134.45 -81.65 120.6 M-108.95 107.2 L-109.3 107.9 -108.7 107.45 Q-110.05 109.25 -112.35 110.0 L-113.25 110.15 -113.25 106.45 -108.95 107.2 M-6.75 100.25 L-3.95 99.55 Q2.95 97.65 6.35 103.2 9.75 118.75 7.8 134.55 7.4 137.85 5.6 140.6 -0.2 149.35 -8.6 143.5 -8.35 139.55 -6.0 136.4 -4.4 134.2 -3.7 131.55 0.0 117.9 -7.8 107.5 L-6.75 100.25 M-50.65 167.95 Q-56.95 166.45 -57.1 159.65 -57.5 144.5 -53.7 129.85 -52.75 126.05 -49.5 123.9 -50.05 133.1 -46.35 141.45 -49.3 150.7 -45.25 158.2 -44.9 158.85 -43.8 158.95 -36.75 160.35 -34.7 155.05 -32.15 148.5 -31.4 141.25 -28.35 135.55 -32.15 130.45 L-34.55 127.35 Q-36.05 125.4 -35.7 122.8 L-35.25 122.95 -35.6 122.55 -33.8 121.0 -33.55 121.45 -31.05 122.15 -31.3 124.4 Q-28.6 126.7 -25.25 128.0 L-23.65 125.3 Q-19.9 135.15 -21.5 146.1 L-23.9 162.7 Q-24.2 164.9 -26.0 166.15 -31.3 169.65 -37.75 168.95 L-37.75 168.9 -37.85 168.95 -39.55 168.95 -50.65 168.0 -50.65 167.95 M-17.5 171.2 Q-18.35 170.1 -18.5 168.95 -20.9 151.25 -17.95 133.5 -17.8 132.45 -17.2 131.7 -12.5 125.45 -3.85 125.95 -3.4 128.25 -4.85 129.95 -8.55 134.3 -10.35 139.55 -11.6 143.25 -10.0 146.05 -9.85 153.5 -7.3 160.1 -5.05 166.05 2.5 163.8 3.15 163.65 3.35 163.15 7.25 155.1 4.95 145.85 7.8 142.2 8.6 137.75 9.4 133.15 9.6 128.45 10.55 129.15 10.9 130.05 17.35 146.65 14.25 164.65 13.55 168.8 10.0 170.85 -3.0 178.2 -16.6 171.95 L-16.85 171.45 Q-17.15 171.2 -17.5 171.2 M-49.05 117.3 L-49.8 117.6 -50.55 117.2 Q-52.25 115.9 -52.85 113.85 L-48.3 112.3 -49.05 117.3 M-64.6 116.95 Q-61.4 121.3 -59.85 126.6 L-57.6 127.0 Q-54.45 122.95 -57.4 118.6 -59.5 115.55 -63.35 115.2 L-64.6 116.95 M82.95 52.9 L78.5 56.6 73.8 56.35 73.4 53.2 Q78.6 38.25 76.3 22.3 79.6 21.95 82.35 24.0 83.55 24.95 83.85 26.1 87.5 39.35 83.0 52.9 L82.95 52.9 M30.75 11.3 L30.6 10.0 31.25 10.05 31.7 9.5 41.95 9.15 Q43.35 11.65 44.15 14.35 48.05 28.1 45.4 42.55 44.9 45.4 43.85 48.0 39.6 58.5 28.25 55.5 L29.95 46.3 32.55 46.6 33.3 46.1 33.1 46.8 31.55 47.25 31.8 53.3 36.35 52.9 Q46.5 40.7 44.25 24.55 42.45 11.8 30.8 11.4 L30.75 11.3 M57.95 35.65 L59.95 35.9 Q61.2 36.0 62.25 35.25 62.3 42.15 56.1 45.3 L57.95 35.65 M56.05 45.45 L57.6 45.8 Q53.8 55.1 55.3 65.25 L55.75 65.25 58.85 66.9 59.6 68.55 Q60.85 71.95 59.9 75.5 L58.0 76.0 Q51.35 76.2 49.3 70.0 L49.35 70.0 50.25 69.9 Q53.4 71.0 56.15 72.4 L56.65 70.9 56.85 68.95 Q51.3 64.55 53.45 56.4 L56.05 45.45 M47.6 42.65 L47.95 42.7 48.2 42.65 Q48.75 53.75 48.25 65.05 47.95 72.05 45.1 75.95 44.7 75.1 44.85 74.1 46.1 64.7 41.15 57.0 L42.15 55.75 Q47.0 50.2 47.6 42.65 M61.95 47.55 Q60.9 49.95 60.2 52.55 L65.75 51.55 66.35 44.35 63.2 45.4 Q62.4 46.4 61.95 47.55 M14.55 31.05 L15.05 31.3 Q16.35 32.35 17.0 33.9 20.15 41.0 19.05 49.05 18.35 54.1 18.7 59.15 19.35 68.35 12.45 73.2 L12.45 67.45 12.7 63.55 Q13.45 55.85 8.95 50.5 L8.9 47.4 Q14.0 39.95 14.25 30.65 L14.55 31.05 M14.1 65.45 Q18.0 60.3 17.1 53.55 16.2 47.1 15.8 40.45 L11.45 47.85 Q16.35 56.05 14.0 65.4 L13.8 65.8 14.1 65.45 M26.45 32.7 L35.05 32.9 Q35.25 35.15 34.65 37.55 33.8 40.8 30.9 42.55 L31.4 41.1 Q33.15 34.55 26.45 32.7 M30.8 43.15 L32.5 43.4 31.7 44.25 31.6 43.55 30.85 43.9 30.8 43.15 M27.6 69.95 L30.6 70.5 27.25 68.7 27.3 67.7 28.5 68.15 Q33.95 72.5 32.55 80.0 L24.95 79.4 Q21.6 78.75 20.3 75.95 17.25 69.1 19.5 61.1 L19.15 61.1 19.45 55.7 Q19.6 46.05 21.75 36.95 22.0 53.0 20.15 69.05 L19.95 70.7 Q21.85 75.95 27.45 76.4 L29.05 76.45 Q29.2 73.05 27.6 69.95 M26.8 101.6 Q37.65 102.35 40.2 90.7 43.7 74.95 37.35 60.7 36.55 59.0 34.65 58.75 31.55 58.3 28.65 59.75 L28.7 58.75 29.55 58.0 39.5 57.6 Q46.1 68.85 44.25 82.4 L43.05 91.5 Q41.45 105.3 27.4 103.25 L27.0 102.6 26.75 102.0 26.8 101.6 M12.35 79.85 Q14.4 81.4 14.95 83.85 18.2 97.9 14.75 112.15 L14.8 113.6 Q14.75 119.55 9.65 122.3 L8.9 108.9 Q9.45 103.9 6.8 99.9 L6.65 96.25 7.75 94.55 Q11.75 87.35 12.35 79.85 M9.2 97.65 Q9.55 105.1 11.8 112.2 12.45 105.55 13.45 99.15 14.25 93.9 12.9 88.6 L9.2 97.65 M25.9 82.25 L26.1 81.2 33.0 81.5 Q33.55 85.85 31.55 89.75 29.85 93.1 26.35 92.45 L25.5 93.3 Q23.35 105.45 24.85 117.3 L29.35 118.2 25.55 116.0 26.3 115.3 Q30.85 117.15 31.45 122.4 31.75 125.0 31.35 127.6 20.05 129.8 17.1 120.0 L16.85 118.7 21.05 117.0 Q22.1 105.3 22.65 93.7 22.7 92.75 23.35 92.4 28.75 89.35 28.85 83.15 L25.9 82.25 M73.15 59.3 L74.05 59.15 Q81.7 59.7 83.0 67.2 85.0 82.85 75.9 94.85 L69.95 95.15 71.3 92.55 Q77.05 76.65 73.15 59.3 M59.5 56.75 Q58.75 58.1 59.5 59.6 60.95 62.5 63.2 64.9 L65.05 56.65 Q74.8 61.4 73.1 73.05 71.75 82.25 69.15 91.1 67.45 96.9 61.35 97.15 57.75 97.5 54.15 97.25 L54.65 97.4 54.1 97.25 Q53.8 94.55 54.5 92.0 L55.05 90.25 Q61.9 87.5 62.35 78.1 62.75 70.45 59.1 63.75 L58.5 63.75 Q56.45 61.85 56.55 59.2 56.6 58.2 56.8 57.25 L57.05 55.95 59.5 56.75 M55.95 79.0 L58.65 78.95 Q59.4 82.0 57.95 84.65 L56.7 86.45 55.3 87.75 55.35 88.2 53.65 90.0 Q52.3 96.8 52.5 103.45 52.6 106.75 53.15 109.5 L53.3 109.55 53.8 109.95 54.55 110.45 55.55 110.65 56.1 110.6 56.9 111.8 57.8 111.8 58.45 119.6 51.55 118.5 Q50.75 118.4 50.15 117.85 L47.95 115.95 48.35 96.3 Q51.0 93.95 51.2 90.2 51.25 88.7 52.35 88.0 57.75 84.55 55.95 79.0 M39.45 104.05 Q44.5 100.15 44.95 93.7 L45.25 91.6 46.25 91.5 Q47.0 107.15 44.95 122.8 L44.45 122.8 44.45 124.2 43.95 124.65 43.95 122.3 Q44.0 112.7 39.4 104.4 L39.45 104.05 M70.65 98.15 L72.55 97.75 75.7 99.05 Q77.25 99.7 77.85 101.05 84.25 115.3 79.15 131.05 L77.05 132.2 Q74.65 133.35 71.95 133.3 73.6 126.2 72.7 118.9 71.4 108.45 70.65 98.15 M54.5 100.1 Q60.25 97.35 65.55 101.45 67.45 103.0 68.2 105.3 71.95 117.05 69.85 129.75 69.3 132.95 67.9 135.7 63.9 143.4 53.9 141.55 L54.75 132.05 55.8 132.4 Q56.45 132.35 56.7 132.0 64.6 120.9 56.75 107.8 L56.1 107.9 55.55 107.5 Q52.85 104.7 54.0 100.75 L54.5 100.1 M47.1 159.05 Q47.25 152.25 46.5 145.65 45.0 132.95 49.2 120.95 53.8 122.0 58.2 120.85 58.45 123.25 57.7 125.5 56.4 129.4 52.75 131.3 50.6 141.95 52.65 152.15 L53.15 151.2 53.8 151.95 Q58.1 152.8 60.85 149.8 63.95 146.55 62.85 141.75 L65.35 141.6 67.65 140.3 Q70.5 145.65 69.15 151.7 68.9 152.8 68.25 153.55 60.45 163.0 48.0 159.6 L47.5 158.8 47.1 159.05 M44.4 138.6 L44.95 138.55 Q46.85 155.0 41.1 169.45 40.8 170.25 39.9 170.75 28.9 177.2 18.3 171.65 16.95 170.9 16.5 169.15 L15.9 168.9 Q14.5 151.05 18.85 134.25 19.25 132.7 20.45 131.45 L22.95 129.1 31.4 129.0 Q31.6 132.45 30.45 135.5 29.9 136.95 28.75 137.9 27.35 139.15 26.3 139.3 L24.3 141.4 Q23.15 151.95 24.0 162.4 24.05 162.9 24.8 163.35 L25.1 163.75 Q27.8 164.15 30.3 163.8 32.65 163.45 34.9 162.55 L37.05 161.45 Q38.35 158.1 38.35 154.55 L38.35 152.15 39.0 152.05 Q41.5 149.7 42.65 146.4 43.95 142.6 44.4 138.6 M71.05 149.75 L71.0 142.95 72.55 141.6 Q74.6 139.25 73.2 136.2 L78.85 133.9 79.5 136.25 Q82.5 148.1 71.2 150.0 L71.05 149.75 M42.25 114.4 Q42.85 127.1 41.5 139.8 40.0 153.6 26.1 151.05 L25.6 150.2 26.45 141.6 Q30.5 140.2 31.85 136.1 34.1 129.0 33.2 121.75 32.4 115.15 26.75 114.9 L26.1 114.45 Q25.75 110.15 27.15 105.95 L38.05 105.15 39.75 108.15 Q41.6 111.1 42.25 114.4 M34.5 109.3 L34.65 107.3 Q31.25 105.55 28.0 107.15 27.7 107.35 27.35 107.5 26.65 108.7 26.65 110.05 L26.6 113.2 27.0 114.1 34.5 109.3 M0.95 102.6 L-3.6 102.25 Q-1.2 112.5 0.85 123.1 L5.55 122.15 Q7.85 112.75 2.5 104.75 L0.95 102.6" fill="#6b6058" fill-rule="evenodd" stroke="none"/>
    <path d="M4.9 -70.0 L5.85 -69.95 3.75 -69.65 2.8 -69.55 Q3.7 -70.1 4.9 -70.0 M-79.35 -25.9 L-80.65 -24.9 -80.85 -25.55 -79.6 -26.0 -79.35 -25.9 M32.75 -55.8 L36.15 -54.85 32.75 -54.6 32.75 -55.8 M21.15 -26.2 L21.4 -25.15 20.95 -25.2 21.15 -26.2 M2.5 -31.5 L2.6 -29.1 2.45 -31.4 2.5 -31.5 M17.15 -18.55 L15.65 -18.6 16.25 -19.15 17.15 -18.55 M-13.4 18.9 L-13.7 19.2 -13.7 18.55 -13.4 18.9 M61.3 -44.2 L61.3 -44.35 61.65 -44.15 61.3 -44.2 M59.8 13.95 L60.8 14.05 63.0 14.4 61.25 14.95 59.1 16.15 58.6 17.7 57.85 17.75 Q58.8 15.9 58.1 13.9 L59.8 13.95 M75.7 -25.8 Q74.9 -26.0 75.85 -26.15 L76.3 -26.35 76.6 -25.85 75.7 -25.8 M50.1 -5.95 L50.2 -8.0 50.65 -5.95 50.1 -5.95 M52.1 -8.45 L53.5 -7.8 52.45 -6.15 52.1 -8.45 M-13.0 -60.5 L-12.45 -60.5 -10.95 -61.7 -10.2 -61.7 -11.65 -60.5 -12.7 -52.85 -13.0 -60.5 M-74.45 -9.95 L-74.4 -8.15 Q-75.95 -9.3 -76.1 -12.05 L-75.75 -13.2 -75.05 -12.05 -74.45 -9.95 M-69.35 -45.7 L-69.6 -45.8 -69.85 -46.1 -69.35 -45.7 M-77.0 -13.25 L-77.65 -13.3 -76.95 -15.25 -77.0 -13.25 M-78.55 -17.9 L-78.2 -17.85 -78.45 -17.1 -78.55 -17.9 M-45.35 -22.55 L-45.45 -22.85 -44.9 -22.6 -45.35 -22.55 M-44.3 -21.0 L-43.8 -20.35 -45.15 -20.4 -44.3 -21.0 M-32.3 12.55 L-33.15 16.7 -32.4 12.5 -32.3 12.55 M1.8 16.7 L1.85 19.05 1.75 16.7 1.8 16.7 M-2.55 3.05 L-2.45 0.7 0.85 1.05 -1.45 2.8 -2.45 2.65 -2.45 3.05 -2.55 3.05 M-0.1 14.75 L-1.0 13.9 Q-2.6 12.05 -2.5 10.7 L-0.1 14.75 M-28.8 9.3 L-27.95 8.3 -28.3 9.85 -28.8 9.3 M-40.1 45.8 L-38.55 46.2 -40.1 46.65 -40.1 45.8 M-78.85 25.95 L-78.2 25.85 -78.7 26.8 -78.85 25.95 M-46.5 27.4 L-47.95 27.6 Q-47.2 26.8 -46.5 27.4 M-0.1 69.6 L-0.25 71.85 -0.55 64.55 Q0.15 66.75 -0.1 69.6 M-17.75 66.6 L-17.5 65.9 -17.45 66.55 -17.75 66.6 M-34.95 66.8 L-35.1 66.4 -34.3 61.1 -34.95 66.8 M-83.75 101.05 L-83.1 100.75 -83.05 101.75 -83.75 101.05 M-109.65 113.35 L-107.75 113.25 -109.4 111.5 -108.25 111.05 -107.75 113.25 -107.55 114.2 -110.7 113.6 -109.65 113.35 M-20.2 113.65 L-19.95 113.15 -19.75 114.35 -20.2 113.65 M-44.85 101.45 L-44.95 101.35 -44.8 100.75 -44.85 101.45 M16.3 28.2 L15.85 28.15 16.35 27.95 16.3 28.2 M14.95 29.7 L15.85 30.35 14.25 30.25 14.95 29.7 M4.4 98.2 L3.85 98.05 4.4 97.85 4.4 98.2 M9.65 127.85 L9.65 127.65 9.85 127.65 9.85 127.85 9.65 127.85" fill="#090909" fill-rule="evenodd" stroke="none"/>
    <path d="M-117.25 94.25 L-117.25 65.6 -114.9 66.65 Q-115.3 77.2 -113.2 87.5 L-111.8 92.8 -111.85 92.9 -112.3 94.35 -114.1 94.65 Q-115.7 95.0 -117.25 94.25 M12.35 -47.65 L16.75 -46.2 15.65 -24.9 15.55 -24.9 Q16.25 -36.6 11.85 -46.05 L12.25 -47.35 12.35 -47.65 M22.65 -44.05 L27.55 -42.1 Q26.15 -30.5 35.0 -24.35 L35.45 -22.95 Q36.05 -20.95 34.65 -19.35 30.75 -19.25 27.4 -21.0 23.2 -23.25 22.55 -28.35 21.55 -36.15 22.65 -44.05 M32.55 -38.0 L46.05 -23.65 Q46.65 -16.3 46.4 -8.9 45.95 4.05 33.8 4.65 L33.6 -2.0 35.05 -1.9 35.55 -2.35 36.7 -2.45 Q40.9 -11.05 40.3 -20.75 L40.1 -25.95 Q40.05 -27.3 39.15 -28.2 L38.2 -29.4 35.1 -29.8 Q32.75 -33.55 32.55 -38.0 M27.3 -32.05 L25.75 -31.8 Q25.5 -30.8 26.5 -29.3 L27.3 -28.1 Q27.9 -29.25 27.75 -30.6 27.7 -31.45 27.3 -32.05 M5.85 -46.55 Q8.4 -43.95 9.6 -40.6 14.0 -28.3 11.9 -15.6 10.5 -6.95 2.45 -4.85 L1.9 -5.4 Q-0.2 -7.65 -0.25 -10.7 L1.2 -12.75 Q6.5 -22.15 2.7 -33.1 L2.2 -33.1 2.1 -33.1 Q2.1 -34.75 1.4 -35.9 0.7 -37.05 -0.3 -37.05 L-0.45 -37.2 -0.6 -38.95 0.5 -44.85 5.85 -46.55 M3.85 -42.9 Q3.45 -41.1 3.85 -39.5 6.05 -30.65 6.95 -21.45 L8.1 -22.25 8.5 -24.5 Q10.2 -35.15 3.85 -42.9 M-10.75 -53.35 L-3.9 -52.1 -4.4 -46.6 Q-5.0 -39.25 -3.75 -31.95 L-2.6 -26.5 -3.9 -26.45 Q-7.95 -25.7 -11.95 -26.45 L-12.25 -29.05 Q-12.4 -41.2 -10.75 -53.35 M-10.6 23.3 L-11.6 22.5 Q-13.2 21.05 -13.4 18.9 L-13.7 18.55 Q-14.25 2.7 -12.2 -13.05 -12.05 -14.05 -11.45 -14.9 -8.5 -18.9 -3.3 -19.6 L-2.75 -17.95 Q-11.7 -3.0 -6.15 13.15 -5.1 16.2 -5.0 19.25 -6.1 20.75 -7.7 21.7 L-10.6 23.3 M17.6 -4.0 L15.35 -4.4 15.05 -3.85 16.05 2.85 16.6 2.65 17.05 1.5 Q18.2 -1.05 17.6 -4.0 M14.8 -11.8 Q17.75 -11.35 18.55 -8.15 22.4 7.3 14.5 20.75 L13.5 6.0 Q13.25 3.25 11.1 1.4 L10.85 -1.2 11.55 -2.1 Q14.5 -6.55 14.8 -11.8 M28.95 -15.75 L32.8 -15.0 34.45 -10.4 Q35.35 -7.15 32.65 -5.8 29.35 -5.4 28.5 -2.0 L27.6 2.15 Q25.6 11.7 26.1 21.35 L31.05 22.5 Q32.4 24.2 32.65 26.4 32.75 27.5 32.35 28.45 L31.95 28.65 Q28.45 30.8 24.25 29.65 L24.2 29.85 21.7 26.8 Q25.4 9.25 23.9 -8.45 L23.8 -10.15 23.5 -10.75 Q23.95 -12.3 25.1 -13.25 L26.65 -14.4 26.75 -14.45 28.95 -15.75 M28.7 -11.1 Q25.2 -9.45 27.1 -6.5 L27.65 -5.75 Q31.9 -6.65 30.75 -11.1 L30.35 -11.5 28.7 -11.1 M62.25 15.25 L64.65 15.25 Q66.2 23.05 66.55 31.1 L66.55 32.05 66.35 32.05 Q66.25 26.0 62.15 21.5 L62.25 15.25 M43.15 -22.05 L42.55 -21.85 41.75 -12.15 42.65 -11.95 Q46.2 -16.9 43.15 -22.05 M51.35 27.7 Q52.8 12.6 52.8 -2.8 L53.45 -3.85 Q54.7 -5.9 56.9 -7.0 L60.45 0.9 Q56.0 4.85 55.15 10.7 53.6 21.05 59.5 27.8 L59.35 27.9 Q55.6 30.2 51.55 27.9 L51.35 27.7 M-43.15 -26.55 L-43.25 -25.4 Q-47.7 -27.75 -47.45 -32.9 L-46.35 -47.75 Q-46.1 -50.75 -46.35 -53.65 L-42.15 -53.9 Q-39.95 -45.5 -42.55 -37.05 L-41.85 -37.05 Q-43.25 -32.4 -43.75 -27.45 -43.9 -26.05 -43.15 -26.55 M-23.6 -53.4 L-23.55 -53.4 -17.2 -53.3 Q-15.6 -43.5 -17.55 -34.0 -18.7 -28.3 -24.2 -27.75 -27.75 -27.55 -27.6 -31.25 L-27.6 -34.35 -26.45 -36.4 Q-26.1 -36.4 -25.85 -36.7 -25.6 -37.05 -25.6 -37.55 -23.55 -39.2 -24.05 -41.65 L-24.25 -42.7 -24.0 -42.9 -24.3 -42.9 -24.25 -47.4 -24.55 -47.75 -24.5 -52.6 -23.6 -53.4 M-19.4 -49.7 L-20.15 -49.7 -23.65 -35.35 -22.75 -35.0 Q-18.2 -41.6 -19.4 -49.7 M-65.65 -46.95 L-56.7 -51.2 -57.1 -45.25 -65.35 -46.5 -65.65 -46.95 M-55.05 -51.85 L-49.95 -53.1 Q-47.45 -40.15 -54.75 -30.65 -55.35 -29.85 -56.55 -29.75 -59.3 -29.95 -59.65 -32.85 L-57.95 -34.15 -57.85 -34.65 Q-54.75 -42.9 -55.05 -51.85 M-68.4 -43.15 Q-65.8 -41.9 -63.05 -41.6 L-61.3 -41.6 Q-74.5 -25.85 -64.95 -7.0 -65.5 -4.15 -68.25 -3.6 -70.0 -3.35 -71.65 -4.4 L-73.35 -5.3 -74.45 -9.95 -75.05 -12.05 Q-75.75 -26.9 -70.95 -40.6 L-69.95 -41.95 -68.4 -43.15 M-66.05 -40.1 L-69.15 -40.2 Q-70.3 -36.25 -71.05 -32.2 -71.5 -29.8 -70.2 -27.75 L-69.05 -28.3 -66.05 -40.1 M-57.45 13.05 L-56.65 12.65 Q-54.8 0.6 -58.4 -10.4 L-61.05 -11.05 -61.3 -10.6 -62.7 -13.0 Q-64.5 -17.1 -64.0 -21.7 L-59.95 -21.75 -56.15 -19.7 -55.6 -18.8 Q-52.0 -14.25 -51.75 -8.55 L-51.55 -6.5 -51.65 -5.85 Q-52.75 6.45 -51.9 18.85 L-59.05 19.3 -59.05 15.15 -57.45 13.05 M-44.7 9.95 L-46.2 22.3 -47.4 21.6 Q-51.5 18.4 -50.9 12.85 L-51.25 12.4 Q-51.6 -0.9 -48.6 -13.2 -47.55 -17.5 -44.05 -19.55 L-43.2 -11.4 -43.85 -9.6 Q-45.45 -0.9 -44.95 8.05 L-44.7 9.95 M-57.1 -17.25 L-58.25 -16.65 -56.65 -12.85 -55.5 -13.25 Q-55.1 -14.3 -55.55 -15.15 -56.1 -16.25 -57.1 -17.25 M-8.5 -45.25 L-8.9 -44.8 Q-11.35 -40.5 -8.95 -36.15 -8.65 -35.7 -7.95 -35.6 L-7.1 -35.5 -6.75 -35.9 Q-5.95 -41.05 -8.5 -45.25 M-46.15 -9.45 L-46.55 -9.65 -47.8 -7.5 Q-50.5 -2.45 -47.5 1.65 L-46.7 0.35 Q-47.85 -4.55 -46.15 -9.45 M-41.1 -10.75 Q-44.85 -30.5 -35.45 -47.05 L-34.55 -47.7 Q-31.2 -48.5 -28.25 -46.9 L-34.55 -26.75 Q-37.7 -15.95 -31.4 -8.25 L-32.3 -7.9 Q-37.05 -8.3 -41.1 -10.75 M-32.5 -44.35 Q-37.2 -44.0 -38.55 -38.95 -39.55 -35.1 -40.05 -31.15 -40.45 -28.1 -39.8 -25.4 L-39.15 -25.65 Q-38.25 -34.5 -33.0 -41.7 -32.1 -42.9 -32.5 -44.35 M-25.9 -21.75 L-19.65 -19.75 Q-17.95 -9.0 -19.2 1.9 -19.75 6.35 -19.75 10.8 -19.7 19.35 -27.6 20.05 L-27.95 19.4 Q-29.7 15.4 -26.8 12.0 L-26.35 11.5 -26.8 11.0 -26.6 10.4 -26.25 6.1 -24.45 -4.55 Q-22.85 -9.75 -24.8 -14.75 L-25.7 -16.1 Q-27.95 -18.7 -25.9 -21.75 M-23.3 -17.25 L-23.5 -16.7 Q-21.15 -13.15 -22.05 -9.35 L-21.15 -9.65 -20.6 -10.7 Q-18.7 -15.25 -23.3 -17.25 M-41.7 39.85 Q-49.0 20.95 -40.25 1.95 -39.2 -0.35 -36.65 -0.75 L-31.45 2.15 -32.1 4.25 -34.55 8.7 Q-39.75 17.1 -37.6 27.15 -36.2 33.9 -33.85 40.3 L-40.25 40.8 -41.7 39.85 M-6.4 -13.65 L-7.2 -13.5 -7.35 -14.85 Q-10.1 -12.8 -10.8 -9.4 -13.7 4.35 -8.85 17.05 L-8.5 16.5 Q-12.8 0.8 -6.4 -13.65 M-21.3 -3.45 L-21.95 -3.45 -25.5 13.6 -23.45 15.55 Q-17.85 7.1 -21.3 -3.45 M-1.25 36.6 Q1.25 34.4 1.95 31.05 3.55 23.15 2.15 15.0 L1.6 15.0 1.5 15.0 1.45 14.8 2.15 14.5 0.35 6.7 0.95 5.9 Q5.0 4.4 9.05 6.25 12.2 18.6 10.25 31.15 9.75 34.5 8.2 37.4 L1.0 40.85 -1.6 40.3 -1.25 36.6 M-36.0 1.25 Q-36.8 1.5 -37.3 2.1 -45.35 11.1 -41.85 23.8 L-40.9 16.45 -40.5 16.75 -40.1 16.4 -40.15 14.6 Q-40.15 7.85 -35.45 2.75 L-35.4 2.0 -36.0 1.25 M-22.55 33.3 Q-23.65 30.3 -26.6 29.4 L-27.25 29.35 -23.4 37.55 Q-24.6 45.65 -24.0 53.75 L-22.95 53.2 -22.25 43.15 -21.85 43.15 Q-21.6 49.1 -20.95 55.05 -19.8 65.85 -29.8 66.4 L-29.25 60.0 -29.25 59.8 Q-26.35 52.55 -27.3 43.85 -25.15 40.9 -26.55 36.9 -26.85 36.1 -27.3 35.6 -31.2 31.55 -32.5 26.4 L-32.0 26.5 -32.75 25.75 -32.75 25.15 -29.8 25.15 -24.8 26.2 -22.15 33.05 -22.55 33.3 M-13.3 71.8 Q-15.05 70.15 -15.55 67.75 L-16.25 68.6 Q-17.0 51.4 -13.7 34.4 -13.5 33.25 -12.85 32.45 -9.8 28.8 -4.7 28.35 L-4.4 28.55 Q-15.0 48.0 -7.7 68.65 -7.5 69.2 -7.6 69.9 L-9.15 70.8 Q-11.1 71.8 -13.3 71.8 M-10.3 32.85 L-11.75 34.35 Q-13.45 40.8 -13.65 47.25 -13.75 50.25 -14.45 53.15 -16.2 60.65 -12.4 66.9 L-11.6 66.65 Q-13.9 49.9 -10.3 32.85 M-71.05 2.4 L-63.3 4.65 -63.0 5.1 Q-69.9 14.95 -69.8 27.55 L-71.8 28.7 -75.6 26.65 -75.6 21.9 Q-75.8 11.25 -71.05 2.4 M-73.2 11.6 L-71.8 11.75 Q-68.65 9.35 -68.35 5.8 -71.35 5.25 -72.9 8.4 -73.7 9.95 -73.2 11.6 M-51.7 28.3 L-53.55 41.0 -54.35 40.5 -54.2 40.25 Q-54.7 36.9 -57.55 34.8 L-58.45 34.15 -59.85 28.45 -58.5 26.45 -54.3 26.6 -53.5 27.1 -51.7 28.3 M-44.9 38.75 L-45.1 39.2 Q-46.2 43.5 -45.85 47.95 L-52.0 42.15 Q-51.85 38.5 -51.05 34.75 -50.1 30.4 -46.35 28.2 L-44.9 38.75 M-39.85 55.45 Q-40.6 54.2 -41.1 53.9 L-41.55 54.0 -43.55 51.35 Q-39.95 44.45 -32.15 48.9 L-31.15 55.95 -33.75 59.65 -34.4 59.7 -35.55 64.95 -35.95 63.8 Q-37.3 59.45 -39.75 55.55 L-39.8 55.45 -39.85 55.45 M-31.9 84.1 Q-31.55 85.1 -32.1 85.9 L-33.2 87.4 -32.85 88.8 Q-36.85 89.75 -40.05 87.75 L-36.5 80.3 -36.2 81.05 -33.55 81.15 -32.1 83.2 -31.9 84.1 M-77.75 96.05 L-79.7 107.8 Q-81.45 105.0 -81.3 101.7 L-81.05 95.95 -77.75 96.05 M-78.75 121.85 L-78.0 110.35 -77.85 109.5 -78.25 109.4 -76.35 96.1 -68.5 96.45 Q-70.8 100.65 -71.3 105.45 -72.3 114.8 -71.95 123.8 L-78.75 121.85 M-59.05 95.95 L-55.75 95.7 -55.8 98.15 -56.5 109.2 -62.1 109.0 Q-63.6 106.15 -62.0 103.95 L-60.7 102.55 -60.3 102.4 Q-58.15 99.4 -59.05 95.95 M-54.1 103.4 L-53.55 95.3 -49.75 94.2 -48.2 93.5 Q-47.15 99.75 -47.7 106.2 L-47.8 109.0 -48.3 112.3 -52.85 113.85 -54.1 103.4 M-44.85 101.45 L-42.15 95.75 -41.15 94.95 -39.25 95.2 Q-31.5 97.4 -36.0 103.9 -38.45 107.45 -39.2 111.6 -40.7 119.75 -41.2 127.85 L-42.25 128.4 -42.4 129.0 -47.9 128.45 -47.1 111.25 Q-45.3 107.85 -45.5 103.2 L-45.5 102.8 -44.95 101.4 -44.85 101.45 M-7.35 94.05 Q-6.6 90.45 -4.4 87.7 4.1 76.8 -0.35 63.0 L-0.95 63.0 -3.3 59.2 -2.05 53.8 3.75 54.1 Q13.0 66.85 7.85 83.0 6.0 88.9 1.5 93.3 L0.9 93.0 -0.2 93.4 Q-3.5 94.6 -6.85 93.55 L-6.95 94.6 -7.35 94.35 -7.4 94.2 -7.35 94.05 M-30.4 107.2 Q-28.6 96.6 -28.8 85.75 -28.85 84.05 -29.85 83.0 -33.55 79.3 -34.4 74.45 L-33.8 74.55 -34.55 73.65 -34.3 72.75 -33.65 73.0 -32.45 72.45 -32.2 72.95 -24.2 74.9 Q-22.65 86.8 -23.0 98.75 -23.2 106.25 -26.5 112.95 L-29.85 112.95 -29.8 111.8 Q-29.4 109.35 -30.4 107.2 M-25.05 86.25 L-24.7 85.15 Q-23.45 79.75 -27.9 76.95 -29.15 81.9 -25.05 86.25 M-38.6 98.7 L-39.25 98.9 Q-44.55 100.8 -41.15 106.1 -38.35 102.9 -38.6 98.7 M-18.75 115.5 Q-18.75 99.0 -15.65 82.85 L-15.05 81.5 Q-12.45 77.95 -8.15 77.4 L-5.45 78.7 Q-11.85 85.9 -11.8 95.25 L-11.75 104.3 Q-11.75 111.1 -8.8 117.25 -8.15 118.65 -8.8 120.2 -12.1 120.7 -14.75 119.0 -16.85 117.7 -18.1 115.6 L-18.6 115.5 -18.75 115.5 M-11.6 81.4 L-11.95 81.0 Q-14.2 82.95 -14.45 85.9 -14.85 91.2 -13.75 96.45 L-13.2 96.4 Q-11.5 89.1 -11.6 81.4 M-104.6 97.4 Q-101.65 95.65 -98.2 95.95 L-95.95 98.6 Q-96.1 102.9 -95.85 107.35 -95.7 110.6 -93.2 112.25 L-90.9 112.1 -90.55 117.8 -105.4 111.35 -105.7 99.3 -104.6 97.4 M-83.1 120.55 L-86.65 119.2 -87.55 110.4 Q-87.8 108.35 -89.55 107.25 L-90.6 101.7 -84.65 101.3 Q-82.35 108.2 -81.95 115.4 -81.8 118.1 -83.1 120.55 M-0.8 104.45 L-1.4 104.5 Q-1.4 106.45 1.15 108.35 L1.75 107.45 1.05 105.15 Q0.35 104.5 -0.8 104.45 M-31.05 122.15 L-30.0 122.45 Q-26.5 123.05 -23.65 125.3 L-25.25 128.0 Q-28.6 126.7 -31.3 124.4 L-31.05 122.15 M-64.6 116.95 L-63.35 115.2 Q-59.5 115.55 -57.4 118.6 -54.45 122.95 -57.6 127.0 L-59.85 126.6 Q-61.4 121.3 -64.6 116.95 M30.8 11.4 Q42.45 11.8 44.25 24.55 46.5 40.7 36.35 52.9 L31.8 53.3 31.55 47.25 33.1 46.8 33.3 46.1 34.2 45.95 Q36.3 42.1 36.25 37.7 L36.1 37.65 Q37.05 33.4 37.2 29.05 37.45 20.05 30.1 18.3 L30.1 17.15 30.4 16.75 30.75 11.4 30.8 11.4 M49.3 69.95 Q51.25 55.45 49.65 40.7 50.55 39.0 51.6 37.5 L53.8 34.9 57.95 35.65 56.1 45.3 55.85 45.4 56.05 45.45 53.45 56.4 Q51.3 64.55 56.85 68.95 L56.65 70.9 56.15 72.4 Q53.4 71.0 50.25 69.9 L49.35 70.0 49.3 69.95 M61.95 47.55 Q62.4 46.4 63.2 45.4 L66.35 44.35 65.75 51.55 60.2 52.55 Q60.9 49.95 61.95 47.55 M40.65 27.9 L40.95 23.95 Q41.9 19.7 38.7 17.6 38.3 17.3 37.8 17.15 39.1 24.2 39.05 31.4 40.55 30.4 40.65 27.9 M6.65 7.6 L4.95 10.15 Q5.95 18.95 5.55 27.9 L6.35 27.7 7.25 25.05 Q10.0 16.05 6.65 7.6 M14.0 65.4 Q16.35 56.05 11.45 47.85 L15.8 40.45 Q16.2 47.1 17.1 53.55 18.0 60.3 14.1 65.45 L14.0 65.4 M21.75 36.95 L26.45 32.7 Q33.15 34.55 31.4 41.1 L30.9 42.55 30.05 43.05 30.8 43.15 30.85 43.9 28.4 44.45 27.85 45.1 Q25.25 56.75 26.1 68.4 26.2 69.6 27.6 69.95 29.2 73.05 29.05 76.45 L27.45 76.4 Q21.85 75.95 19.95 70.7 L20.15 69.05 Q22.0 53.0 21.75 36.95 M28.5 35.9 L27.6 35.65 Q22.2 38.3 25.75 41.65 29.8 39.85 28.5 35.9 M28.65 59.75 Q31.55 58.3 34.65 58.75 36.55 59.0 37.35 60.7 43.7 74.95 40.2 90.7 37.65 102.35 26.8 101.6 26.15 99.85 26.3 98.0 L26.65 94.1 Q28.55 94.35 30.05 93.1 33.8 90.05 34.85 84.95 37.45 72.0 27.75 65.25 L28.65 59.75 M37.25 71.3 L37.65 70.1 Q38.95 63.9 33.3 61.7 32.35 67.6 37.25 71.3 M1.0 59.3 Q4.8 64.95 2.8 71.35 L2.45 75.7 Q6.05 71.25 6.45 65.55 7.0 57.35 -0.1 57.35 L1.0 59.3 M9.2 97.65 L12.9 88.6 Q14.25 93.9 13.45 99.15 12.45 105.55 11.8 112.2 9.55 105.1 9.2 97.65 M22.95 81.6 L25.9 82.25 28.85 83.15 Q28.75 89.35 23.35 92.4 22.7 92.75 22.65 93.7 22.1 105.3 21.05 117.0 L16.85 118.7 Q16.45 101.3 20.15 84.85 20.35 83.9 21.15 83.1 L22.95 81.6 M65.05 56.65 L63.2 64.9 Q60.95 62.5 59.5 59.6 58.75 58.1 59.5 56.75 L65.05 56.65 M55.95 79.0 Q57.75 84.55 52.35 88.0 51.25 88.7 51.2 90.2 51.0 93.95 48.35 96.3 48.25 92.6 47.5 89.1 45.35 79.25 55.95 79.0 M34.5 109.3 L27.0 114.1 26.6 113.2 26.65 110.05 Q26.65 108.7 27.35 107.5 27.7 107.35 28.0 107.15 31.25 105.55 34.65 107.3 L34.5 109.3 M0.95 102.6 L2.5 104.75 Q7.85 112.75 5.55 122.15 L0.85 123.1 Q-1.2 112.5 -3.6 102.25 L0.95 102.6" fill="#a29791" fill-rule="evenodd" stroke="none"/>
    <path d="M27.3 -32.05 Q27.7 -31.45 27.75 -30.6 27.9 -29.25 27.3 -28.1 L26.5 -29.3 Q25.5 -30.8 25.75 -31.8 L27.3 -32.05 M3.85 -42.9 Q10.2 -35.15 8.5 -24.5 L8.1 -22.25 6.95 -21.45 Q6.05 -30.65 3.85 -39.5 3.45 -41.1 3.85 -42.9 M17.6 -4.0 Q18.2 -1.05 17.05 1.5 L16.6 2.65 16.05 2.85 15.05 -3.85 15.35 -4.4 17.6 -4.0 M28.7 -11.1 L30.35 -11.5 30.75 -11.1 Q31.9 -6.65 27.65 -5.75 L27.1 -6.5 Q25.2 -9.45 28.7 -11.1 M43.15 -22.05 Q46.2 -16.9 42.65 -11.95 L41.75 -12.15 42.55 -21.85 43.15 -22.05 M-19.4 -49.7 Q-18.2 -41.6 -22.75 -35.0 L-23.65 -35.35 -20.15 -49.7 -19.4 -49.7 M-66.05 -40.1 L-69.05 -28.3 -70.2 -27.75 Q-71.5 -29.8 -71.05 -32.2 -70.3 -36.25 -69.15 -40.2 L-66.05 -40.1 M-57.1 -17.25 Q-56.1 -16.25 -55.55 -15.15 -55.1 -14.3 -55.5 -13.25 L-56.65 -12.85 -58.25 -16.65 -57.1 -17.25 M-46.15 -9.45 Q-47.85 -4.55 -46.7 0.35 L-47.5 1.65 Q-50.5 -2.45 -47.8 -7.5 L-46.55 -9.65 -46.15 -9.45 M-8.5 -45.25 Q-5.95 -41.05 -6.75 -35.9 L-7.1 -35.5 -7.95 -35.6 Q-8.65 -35.7 -8.95 -36.15 -11.35 -40.5 -8.9 -44.8 L-8.5 -45.25 M-32.5 -44.35 Q-32.1 -42.9 -33.0 -41.7 -38.25 -34.5 -39.15 -25.65 L-39.8 -25.4 Q-40.45 -28.1 -40.05 -31.15 -39.55 -35.1 -38.55 -38.95 -37.2 -44.0 -32.5 -44.35 M-23.3 -17.25 Q-18.7 -15.25 -20.6 -10.7 L-21.15 -9.65 -22.05 -9.35 Q-21.15 -13.15 -23.5 -16.7 L-23.3 -17.25 M-21.3 -3.45 Q-17.85 7.1 -23.45 15.55 L-25.5 13.6 -21.95 -3.45 -21.3 -3.45 M-6.4 -13.65 Q-12.8 0.8 -8.5 16.5 L-8.85 17.05 Q-13.7 4.35 -10.8 -9.4 -10.1 -12.8 -7.35 -14.85 L-7.2 -13.5 -6.4 -13.65 M-36.0 1.25 L-35.4 2.0 -35.45 2.75 Q-40.15 7.85 -40.15 14.6 L-40.1 16.4 -40.5 16.75 -40.9 16.45 -41.85 23.8 Q-45.35 11.1 -37.3 2.1 -36.8 1.5 -36.0 1.25 M-22.25 43.15 L-22.95 53.2 -24.0 53.75 Q-24.6 45.65 -23.4 37.55 L-27.25 29.35 -26.6 29.4 Q-23.65 30.3 -22.55 33.3 L-22.5 34.95 -21.8 35.3 -21.65 35.7 -21.65 36.85 -22.25 43.15 M-10.3 32.85 Q-13.9 49.9 -11.6 66.65 L-12.4 66.9 Q-16.2 60.65 -14.45 53.15 -13.75 50.25 -13.65 47.25 -13.45 40.8 -11.75 34.35 L-10.3 32.85 M-73.2 11.6 Q-73.7 9.95 -72.9 8.4 -71.35 5.25 -68.35 5.8 -68.65 9.35 -71.8 11.75 L-73.2 11.6 M-25.05 86.25 Q-29.15 81.9 -27.9 76.95 -23.45 79.75 -24.7 85.15 L-25.05 86.25 M-38.6 98.7 Q-38.35 102.9 -41.15 106.1 -44.55 100.8 -39.25 98.9 L-38.6 98.7 M-11.6 81.4 Q-11.5 89.1 -13.2 96.4 L-13.75 96.45 Q-14.85 91.2 -14.45 85.9 -14.2 82.95 -11.95 81.0 L-11.6 81.4 M-0.8 104.45 Q0.35 104.5 1.05 105.15 L1.75 107.45 1.15 108.35 Q-1.4 106.45 -1.4 104.5 L-0.8 104.45 M40.65 27.9 Q40.55 30.4 39.05 31.4 39.1 24.2 37.8 17.15 38.3 17.3 38.7 17.6 41.9 19.7 40.95 23.95 L40.65 27.9 M6.65 7.6 Q10.0 16.05 7.25 25.05 L6.35 27.7 5.55 27.9 Q5.95 18.95 4.95 10.15 L6.65 7.6 M28.5 35.9 Q29.8 39.85 25.75 41.65 22.2 38.3 27.6 35.65 L28.5 35.9 M37.25 71.3 Q32.35 67.6 33.3 61.7 38.95 63.9 37.65 70.1 L37.25 71.3 M1.0 59.3 L-0.1 57.35 Q7.0 57.35 6.45 65.55 6.05 71.25 2.45 75.7 L2.8 71.35 Q4.8 64.95 1.0 59.3" fill="#ffffff" fill-rule="evenodd" stroke="none"/>
    <path d="M84.1 21.85 L84.45 22.65 83.75 22.2 84.1 21.85 M-117.25 63.3 L-117.25 63.25 -117.15 63.25 -117.25 63.3 M12.3 -47.65 L12.35 -47.65 12.25 -47.35 12.3 -47.65 M18.3 -25.6 L20.45 -31.5 Q20.4 -28.3 18.5 -25.95 L18.3 -25.6 M15.55 -24.9 L15.65 -24.9 15.95 -23.85 15.6 -23.65 15.55 -24.9 M1.45 -22.55 L1.6 -23.1 1.65 -22.55 1.45 -22.55 M-1.05 -50.7 L-1.4 -51.4 -1.1 -51.3 -1.05 -50.7 M24.25 29.65 L24.25 29.9 24.2 29.85 24.25 29.65 M34.5 31.5 L35.05 30.85 35.0 31.55 34.5 31.5 M26.65 -14.4 L26.65 -14.5 26.75 -14.45 26.65 -14.4 M58.9 46.55 L59.0 46.55 58.7 46.7 58.9 46.55 M50.5 -48.1 L50.3 -48.1 50.45 -48.65 50.5 -48.1 M47.85 27.1 L47.5 27.9 47.55 26.95 47.85 27.1 M-38.7 -54.35 L-38.35 -53.9 -38.4 -53.4 -38.7 -54.35 M-23.55 -53.4 L-23.6 -53.4 -23.55 -53.65 -23.55 -53.4 M-66.1 -46.65 L-65.65 -46.95 -65.35 -46.5 -66.1 -46.65 M-48.7 -43.7 Q-49.3 -45.35 -49.15 -47.9 L-48.85 -53.4 -48.7 -43.7 M-69.6 -45.8 L-71.15 -45.8 -70.65 -44.9 -72.75 -43.0 -72.85 -47.9 -69.85 -46.1 -69.6 -45.8 M-0.6 3.15 L0.35 3.15 -0.05 3.45 -0.6 3.15 M-2.6 3.65 L-2.55 3.05 -2.45 3.05 -2.6 3.65 M-22.55 33.3 L-22.15 33.05 -21.65 35.7 -21.8 35.3 -22.5 34.95 -22.55 33.3 M-21.85 43.15 L-22.25 43.15 -21.65 36.85 -21.85 43.15 M-4.7 28.35 L-4.35 28.25 -4.4 28.55 -4.7 28.35 M-63.15 1.95 L-63.2 2.55 -63.6 2.05 -63.15 1.95 M-75.7 30.95 L-74.75 31.7 -75.4 31.5 -75.7 30.95 M-66.2 28.0 L-66.05 28.0 -66.05 28.75 -66.2 28.0 M-54.35 40.5 L-54.4 40.45 -54.2 40.25 -54.35 40.5 M-40.3 90.35 L-38.35 91.05 -40.15 90.45 -40.3 90.35 M-61.25 99.3 L-61.35 99.65 -61.9 99.65 Q-61.5 99.55 -61.25 99.3 M-62.8 99.7 L-63.9 99.9 -63.5 99.65 -62.8 99.7 M-77.95 109.65 L-78.25 109.7 -78.25 109.4 -77.85 109.5 -77.95 109.65 M-67.35 110.85 L-67.3 111.25 -67.4 110.95 -67.35 110.85 M-55.25 109.4 L-55.95 109.25 -55.35 108.05 -55.25 108.75 -55.25 109.4 M-44.85 101.45 L-44.95 101.4 -44.95 101.35 -44.85 101.45 M-6.1 95.2 L-6.35 94.9 -5.9 95.2 -6.1 95.2 M-29.75 90.4 L-29.75 90.35 -29.7 90.4 -29.75 90.4 M-106.6 87.9 L-106.85 87.6 -106.55 87.6 -106.6 87.9 M-90.2 110.4 L-89.6 110.6 Q-89.35 110.8 -89.35 111.1 L-90.2 110.4 M-49.8 117.6 L-49.05 117.3 -49.1 117.85 -49.8 117.6 M81.6 59.05 L80.5 58.35 80.9 58.15 81.6 59.05 M71.45 14.15 L71.35 14.3 71.2 14.2 71.45 14.15 M30.75 11.3 L30.8 11.4 30.75 11.4 30.75 11.3 M36.25 37.7 L36.1 38.5 36.1 37.65 36.25 37.7 M49.3 70.0 L49.3 69.95 49.35 70.0 49.3 70.0 M47.95 42.7 L48.1 42.25 48.2 42.65 47.95 42.7 M66.55 32.05 L66.35 32.35 66.35 32.05 66.55 32.05 M14.0 65.4 L14.1 65.45 13.8 65.8 14.0 65.4 M26.75 102.0 L27.0 102.6 26.8 102.5 26.75 102.0 M71.2 56.9 L71.2 57.3 70.95 57.05 71.2 56.9 M39.4 104.4 L39.25 104.2 39.45 104.05 39.4 104.4 M71.05 149.75 L71.2 150.0 71.0 150.05 Q70.95 149.95 71.05 149.75" fill="#999999" fill-rule="evenodd" stroke="none"/>
    <path d="M-117.25 63.25 L-117.25 62.35 -116.25 63.0 -117.15 63.25 -117.25 63.25 M15.65 -24.9 L16.15 -23.9 15.95 -23.85 15.65 -24.9 M-0.6 -38.95 L-0.45 -37.2 -0.75 -37.55 -0.6 -38.95 M-0.3 -37.05 Q0.7 -37.05 1.4 -35.9 2.1 -34.75 2.1 -33.1 L2.1 -32.95 -0.3 -37.05 M23.5 -10.75 L23.8 -10.15 23.35 -10.15 23.5 -10.75 M58.7 46.75 L58.5 46.3 58.9 46.55 58.7 46.7 58.7 46.75 M51.35 27.7 L51.55 27.9 51.4 27.9 51.35 27.7 M-33.95 -50.55 L-34.7 -51.3 -33.15 -51.3 -33.95 -50.55 M-41.35 -37.05 L-43.15 -26.55 Q-43.9 -26.05 -43.75 -27.45 -43.25 -32.4 -41.85 -37.05 L-41.35 -37.05 M-24.3 -42.9 L-24.0 -42.9 -24.25 -42.7 -24.3 -42.9 M-25.6 -37.55 Q-25.6 -37.05 -25.85 -36.7 -26.1 -36.4 -26.45 -36.4 L-25.6 -37.55 M-27.6 -34.35 L-27.6 -31.25 -28.3 -31.25 -27.6 -34.35 M-71.65 -4.4 L-72.1 -3.45 -73.35 -5.3 -71.65 -4.4 M-69.35 -45.7 L-70.65 -44.9 -71.15 -45.8 -69.6 -45.8 -69.35 -45.7 M-51.55 -6.5 L-51.75 -8.55 -51.3 -8.5 -51.55 -6.5 M-44.5 8.1 L-44.7 9.95 -44.95 8.05 -44.5 8.1 M-29.0 -34.7 L-29.6 -32.6 -29.6 -32.65 -29.05 -34.7 -29.0 -34.7 M-17.4 16.1 L-17.45 16.55 -17.7 16.3 -17.4 16.1 M-26.25 6.1 L-25.45 -3.05 -24.75 -4.6 -24.45 -4.55 -26.25 6.1 M-40.5 41.15 L-41.7 39.85 -40.25 40.8 -40.5 41.15 M-26.8 12.0 L-27.2 11.75 -26.8 11.0 -26.35 11.5 -26.8 12.0 M-29.25 59.8 L-29.25 60.0 -29.6 60.0 -29.25 59.8 M-66.0 34.55 L-65.1 34.4 -64.95 34.95 -66.0 34.55 M-62.65 13.35 L-59.1 11.15 -58.1 11.85 -61.7 13.6 -62.65 13.35 M-60.6 34.15 L-61.9 33.65 -62.05 34.35 -62.85 33.45 -60.35 33.3 -60.6 34.15 M-52.75 26.7 L-51.7 28.3 -53.5 27.1 -52.75 26.7 M-60.4 36.4 L-60.3 37.05 -61.7 36.35 -60.4 36.4 M-29.8 90.4 L-29.75 90.35 -29.75 90.4 -29.8 90.4 M-31.65 83.95 L-31.9 84.1 -32.1 83.2 -31.65 83.95 M-39.75 55.55 L-39.85 55.45 -39.8 55.45 -39.75 55.55 M-78.0 110.35 L-77.95 109.65 -77.85 109.5 -78.0 110.35 M-55.05 85.25 L-55.1 85.0 -55.0 85.0 -55.05 85.25 M-55.75 95.7 L-55.35 95.7 -55.45 98.2 -55.8 98.15 -55.75 95.7 M-53.95 95.05 L-53.55 95.3 -54.1 103.4 -53.95 95.05 M-47.7 106.2 L-47.3 106.25 -47.8 109.0 -47.7 106.2 M-45.5 102.8 L-45.5 103.2 Q-45.3 107.85 -47.1 111.25 L-45.5 102.8 M-39.25 95.2 L-41.15 94.95 -39.1 94.35 -39.25 95.2 M-41.85 93.9 L-41.35 94.05 -41.85 94.25 -41.85 93.9 M-7.35 94.35 L-7.4 94.35 -7.4 94.15 -7.4 94.2 -7.35 94.35 M-35.1 66.4 L-34.95 66.8 -35.15 68.35 -35.1 66.4 M-25.8 117.7 L-25.8 118.35 -25.9 117.7 -25.8 117.7 M-13.55 122.2 L-13.65 122.5 -13.6 122.2 -13.55 122.2 M-18.7 115.85 L-18.75 115.5 -18.6 115.5 -18.7 115.85 M-114.05 45.0 L-114.05 45.8 -114.55 45.55 -114.05 45.0 M-111.8 92.8 L-111.75 92.85 -111.85 92.9 -111.8 92.8 M-106.85 87.6 L-106.6 87.9 -107.5 93.8 -108.4 92.25 Q-109.45 90.1 -109.8 87.55 L-106.85 87.6 M-105.45 97.35 L-104.6 97.4 -105.7 99.3 -105.45 97.35 M-110.7 113.6 L-113.3 112.55 -110.35 111.8 -109.65 113.35 -110.7 113.6 M15.35 171.45 L14.25 170.05 14.45 169.6 15.35 171.45 M-37.75 168.95 L-37.85 168.95 -37.75 168.9 -37.75 168.95 M71.45 14.15 L73.45 13.25 73.4 15.8 71.35 14.3 71.45 14.15 M48.1 42.25 L47.95 42.7 47.6 42.65 47.65 40.45 48.1 42.25 M8.2 0.7 L8.6 0.5 8.6 0.85 8.2 0.7 M19.45 24.9 L19.6 25.6 19.3 25.35 19.45 24.9 M19.5 61.1 L19.0 62.5 19.15 61.1 19.5 61.1 M25.9 82.25 L22.95 81.6 23.95 80.75 26.1 81.2 25.9 82.25 M70.95 57.05 L69.15 56.0 71.1 54.9 71.2 56.9 70.95 57.05 M45.25 91.6 L45.6 90.0 46.1 89.8 46.25 91.5 45.25 91.6 M68.25 100.6 L65.75 99.2 68.15 98.0 68.25 100.6 M54.5 100.1 L54.0 100.75 Q53.55 100.35 54.25 100.0 L54.5 100.1 M55.95 142.95 L60.75 142.85 60.6 148.95 57.35 149.75 56.95 149.05 Q55.55 146.1 55.95 142.95" fill="#5e5e5e" fill-rule="evenodd" stroke="none"/>
    <path d="M2.1 -33.1 L2.2 -33.1 2.5 -31.5 2.45 -31.4 2.1 -32.95 2.1 -33.1 M1.6 15.0 L1.8 16.7 1.75 16.7 1.5 15.0 1.6 15.0" fill="#cccccc" fill-rule="evenodd" stroke="none"/>
    <path d="M-117.25 45.5 L-117.25 39.05 -114.55 27.45 -114.2 39.25 -114.5 39.85 -114.25 40.65 -114.45 41.1 Q-115.2 43.6 -117.25 45.5 M-117.25 -14.25 L-117.25 -19.45 -114.9 -19.85 -115.0 -17.1 -115.2 -17.0 -115.0 -16.7 -115.05 -15.0 -117.25 -14.25 M-117.25 -21.7 L-117.25 -25.65 Q-102.25 -31.35 -86.4 -33.6 L-77.75 -29.65 -77.15 -29.45 -76.4 -29.8 -75.35 -29.35 -78.55 -25.75 -79.35 -25.9 -79.6 -26.0 -80.5 -26.55 -81.1 -26.45 -81.95 -27.1 -82.95 -26.7 -81.35 -25.35 -80.85 -25.55 -80.65 -24.9 -79.7 -24.35 Q-83.75 2.3 -80.55 29.1 L-88.5 26.35 Q-90.2 0.7 -87.8 -25.0 L-88.5 -26.45 -89.35 -26.7 -89.4 -22.55 -89.5 -21.8 -89.5 -24.3 -102.7 -19.45 -112.55 -15.65 -112.6 -21.3 Q-102.4 -25.55 -91.85 -27.55 L-87.5 -28.4 -87.8 -28.9 -82.85 -26.8 -82.15 -27.05 Q-89.3 -33.05 -98.35 -28.85 -104.45 -26.05 -110.8 -23.85 L-117.25 -21.7 M-81.0 -61.65 Q-79.35 -58.65 -76.45 -56.45 L-75.05 -55.3 -74.85 -53.55 -74.9 -53.55 -75.15 -30.45 -75.9 -30.75 Q-79.5 -31.75 -82.6 -33.7 L-84.65 -35.1 -84.65 -35.8 -85.1 -35.85 -83.25 -58.1 -83.75 -60.5 -84.15 -60.9 -84.65 -60.5 -86.35 -35.5 -89.4 -34.95 -89.4 -35.1 Q-86.75 -42.25 -86.6 -50.2 -86.15 -54.85 -86.35 -59.45 -86.45 -62.0 -88.2 -62.65 L-84.3 -63.9 -81.0 -61.65 M-88.2 28.0 L-88.15 27.9 Q-87.6 27.65 -88.15 28.0 L-88.2 28.0 M-76.25 -26.0 Q-77.05 -26.05 -76.25 -26.15 L-76.25 -26.0" fill="#8c6326" fill-rule="evenodd" stroke="none"/>
    <path d="M-117.25 205.95 L-117.25 181.55 -113.5 184.75 -117.25 205.95 M-117.25 180.7 L-117.25 164.35 Q-105.2 148.1 -112.15 129.65 -112.95 127.45 -115.0 126.15 L-117.25 124.9 -117.25 123.1 -107.9 127.05 -107.5 131.4 Q-107.15 134.85 -105.55 138.1 L-97.15 140.95 Q-102.45 147.85 -106.2 155.65 -112.4 168.6 -113.4 182.75 -115.3 181.7 -117.25 180.7 M-90.45 122.75 L-90.3 129.65 -97.2 128.6 -96.8 122.55 -90.45 122.75 M47.1 159.05 L47.5 158.8 48.0 159.6 47.1 159.05 M53.7 143.45 L54.2 143.45 54.75 149.95 53.4 149.9 53.7 143.45 M35.8 153.0 Q36.5 155.25 35.65 158.4 35.25 159.95 33.65 160.55 32.5 160.9 31.3 161.45 L26.1 161.3 25.65 160.85 Q24.1 157.15 25.25 153.05 30.45 154.45 35.8 153.0 M49.1 162.8 L49.15 162.8 Q56.7 162.75 64.15 160.3 L68.1 159.1 69.3 157.55 69.9 157.95 Q84.1 177.4 74.7 198.9 73.5 201.65 71.7 204.05 L59.8 204.8 61.9 205.7 Q71.05 208.45 79.95 204.1 L80.3 204.75 Q85.65 213.55 87.1 223.6 71.2 235.15 51.15 236.3 49.9 221.45 47.1 206.95 49.85 206.45 51.25 204.95 L50.7 204.2 46.85 204.5 46.7 201.35 Q46.4 194.9 44.7 188.7 42.35 180.25 41.2 172.3 L42.5 171.7 42.65 171.3 44.55 169.7 44.95 169.55 45.05 169.3 Q46.45 165.35 46.65 161.1 48.15 161.8 47.6 162.15 L48.85 162.65 48.85 162.7 49.1 162.8 M84.35 200.65 L84.4 200.6 84.45 200.65 84.35 200.65" fill="#444444" fill-rule="evenodd" stroke="none"/>
    <path d="M-117.25 164.35 L-117.25 124.9 -115.0 126.15 Q-112.95 127.45 -112.15 129.65 -105.2 148.1 -117.25 164.35 M54.2 143.45 L53.7 143.45 53.75 142.8 54.2 142.85 54.2 143.45 M69.9 157.95 Q82.65 168.8 84.9 185.95 86.9 201.35 71.7 204.05 73.5 201.65 74.7 198.9 84.1 177.4 69.9 157.95 M79.95 204.1 L84.35 200.65 84.45 200.65 Q88.95 208.2 92.0 216.1 L92.7 218.5 87.1 223.6 Q85.65 213.55 80.3 204.75 L79.95 204.1" fill="#666666" fill-rule="evenodd" stroke="none"/>
    <path d="M-93.15 143.15 L-91.2 145.8 -92.8 151.05 -93.9 150.05 Q-95.45 148.9 -98.85 148.8 L-93.75 142.25 -93.15 143.15 M11.5 210.95 Q12.1 206.8 12.35 202.25 22.0 207.3 32.3 210.15 L32.9 209.65 32.95 209.05 Q32.95 192.6 29.95 176.45 L30.1 176.45 29.95 176.15 32.05 175.95 32.4 175.65 37.7 174.65 Q43.85 190.2 43.85 206.85 L43.9 207.05 43.95 207.1 44.05 206.95 Q47.35 222.35 48.25 237.95 L47.7 238.35 48.25 238.5 49.2 254.3 15.95 244.7 21.95 221.45 20.7 219.45 Q17.1 214.05 11.5 210.95" fill="#5e5511" fill-rule="evenodd" stroke="none"/>
    <path d="M-117.25 246.95 L-117.25 221.95 Q-114.2 197.2 -109.3 172.7 -106.7 159.55 -98.85 148.8 -95.45 148.9 -93.9 150.05 L-92.8 151.05 Q-101.25 174.95 -104.35 200.25 -104.55 201.9 -105.05 203.55 L-100.7 201.65 -101.15 200.45 -100.5 201.55 Q-68.1 190.9 -34.0 192.9 -13.85 193.55 5.25 199.35 8.85 200.45 12.35 202.25 12.1 206.8 11.5 210.95 8.55 209.25 5.4 208.1 -9.9 202.45 -26.3 199.9 -37.3 198.35 -48.2 198.4 -75.35 198.45 -98.6 211.95 L-90.55 239.6 -89.3 239.45 -89.0 240.5 -89.35 240.6 Q-103.55 242.6 -117.25 246.95 M-91.2 145.8 L-93.15 143.15 -92.7 142.65 -89.9 143.25 -91.2 145.8" fill="#7e7616" fill-rule="evenodd" stroke="none"/>
    <path d="M-85.45 142.2 L-85.4 142.0 -84.8 141.6 -83.65 149.4 -81.5 151.0 -81.4 151.45 Q-70.8 158.6 -58.35 156.3 -59.8 169.5 -46.55 171.15 -37.4 172.15 -28.6 170.1 -24.2 169.2 -22.15 165.3 -19.45 176.05 -7.85 176.05 L-7.85 176.25 -7.8 176.15 Q2.5 178.15 11.05 173.2 13.0 172.1 14.25 170.05 L15.35 171.45 16.4 172.75 Q21.0 177.35 27.55 176.25 L29.55 192.5 26.2 194.25 Q19.6 196.8 12.45 196.25 12.7 191.4 11.35 186.9 L10.7 184.85 2.55 185.35 5.05 185.55 Q-1.0 186.65 -6.3 183.65 -10.9 180.9 -11.9 176.1 -15.8 182.05 -23.8 181.15 -32.35 180.6 -40.7 178.3 -46.95 176.6 -49.95 171.2 -63.05 170.55 -72.45 162.55 -75.6 159.85 -76.15 155.7 L-76.95 156.5 -82.8 156.75 Q-85.25 156.35 -87.3 155.1 L-90.15 153.25 -85.45 142.3 -85.3 142.2 -85.45 142.2 M-97.85 186.05 Q-92.1 192.7 -82.8 192.5 L-100.65 197.65 -98.05 186.6 -97.85 186.05 M-50.65 168.0 L-50.85 168.0 -50.65 167.95 -50.65 168.0 M-17.5 171.2 Q-17.15 171.2 -16.85 171.45 L-16.6 171.95 -17.5 171.2 M-9.3 144.65 L-9.3 144.6 -9.25 144.6 -9.3 144.65 M-62.8 135.8 Q-61.25 143.55 -67.95 142.7 -71.1 142.5 -73.5 140.3 L-73.65 134.45 Q-68.3 136.35 -62.95 135.4 L-62.8 135.8 M-4.25 162.5 Q-5.4 162.3 -5.85 161.7 -10.1 155.75 -8.45 147.75 L0.15 147.9 2.7 147.65 3.45 153.2 Q5.05 162.9 -4.25 162.5 M-38.9 157.55 Q-45.05 158.05 -45.1 152.45 -45.1 147.6 -44.2 142.75 -38.7 144.2 -33.05 142.85 -31.85 151.2 -36.85 156.45 -37.6 157.25 -38.9 157.55 M-23.7 225.6 Q-10.7 227.35 0.1 221.65 0.9 221.3 0.7 220.3 0.05 216.9 -2.25 214.05 L0.05 213.95 2.9 213.0 Q4.8 212.0 6.2 210.5 13.6 213.85 17.95 220.75 L19.05 222.45 Q16.9 233.5 13.25 244.05 -3.0 240.2 -19.65 238.9 -42.65 237.25 -65.55 237.9 L-71.55 238.0 -89.0 240.5 -89.3 239.45 Q-88.55 235.8 -89.9 232.1 L-90.25 230.95 Q-84.95 236.85 -65.75 237.35 L-65.55 237.9 -41.9 234.55 -40.6 237.15 -39.4 236.45 -39.6 234.35 -38.6 234.25 Q-24.95 233.8 -11.3 231.85 L-11.4 229.3 -3.2 229.7 -2.7 228.85 -11.45 227.6 -12.65 227.4 -23.7 225.6 M12.7 198.6 L12.7 198.35 Q21.65 199.1 29.75 195.15 L29.75 205.95 12.7 198.6" fill="#806744" fill-rule="evenodd" stroke="none"/>
    <path d="M-90.15 153.25 L-87.3 155.1 Q-85.25 156.35 -82.8 156.75 L-76.95 156.5 -76.15 155.7 Q-75.6 159.85 -72.45 162.55 -63.05 170.55 -49.95 171.2 -46.95 176.6 -40.7 178.3 -32.35 180.6 -23.8 181.15 -15.8 182.05 -11.9 176.1 -10.9 180.9 -6.3 183.65 -1.0 186.65 5.05 185.55 L2.55 185.35 10.7 184.85 11.35 186.9 Q12.7 191.4 12.45 196.25 8.95 196.05 5.7 195.0 -15.3 189.05 -37.25 188.45 L-37.35 183.95 -38.0 183.8 -38.65 184.0 -39.1 184.6 Q-40.2 186.25 -39.85 188.35 L-40.3 189.0 -64.05 189.4 -73.65 190.7 -86.2 189.75 Q-93.55 188.95 -97.15 182.75 L-96.95 182.2 Q-97.4 182.35 -97.4 181.85 -97.4 179.25 -96.75 176.6 -93.95 164.7 -90.15 153.25 M-7.8 176.15 L-7.85 176.25 -7.85 176.05 -7.8 176.05 -7.8 176.15 M-23.7 225.6 L-39.6 223.2 -39.35 222.15 Q-38.1 218.65 -39.75 215.35 L-27.85 214.65 -20.8 215.2 Q-13.1 217.05 -5.45 215.6 L-5.0 214.45 Q-23.1 212.45 -41.4 212.7 L-40.25 204.7 -41.35 206.15 Q-43.35 209.1 -43.75 212.65 L-43.75 212.9 -69.05 213.8 -42.95 215.2 Q-41.1 218.8 -42.65 222.8 -61.35 220.5 -79.35 226.05 L-77.9 227.1 Q-60.5 224.4 -42.95 224.85 L-43.1 226.6 Q-43.4 230.75 -41.9 234.55 L-65.55 237.9 -65.75 237.35 Q-84.95 236.85 -90.25 230.95 L-94.45 213.2 Q-89.7 210.35 -84.5 208.55 -63.65 201.05 -41.2 201.2 -16.75 201.35 6.2 210.5 4.8 212.0 2.9 213.0 L0.05 213.95 -2.25 214.05 Q0.05 216.9 0.7 220.3 0.9 221.3 0.1 221.65 -10.7 227.35 -23.7 225.6 M-39.6 234.35 L-39.8 225.0 -11.4 229.3 -11.3 231.85 Q-24.95 233.8 -38.6 234.25 L-39.6 234.35 M12.7 198.35 L12.7 198.6 12.65 198.6 12.7 198.35" fill="#ac8f62" fill-rule="evenodd" stroke="none"/>
    <path d="M101.0 256.75 L53.7 257.6 53.05 257.75 51.35 239.55 Q64.9 238.0 77.6 232.9 84.7 230.1 90.6 225.5 94.7 236.35 98.35 247.35 99.9 251.95 101.0 256.75" fill="#262626" fill-rule="evenodd" stroke="none"/>
  </g>
</svg>
