<?xml version="1.0" encoding="UTF-8" standalone="no"?>
<svg xmlns:xlink="http://www.w3.org/1999/xlink" height="419.0px" width="219.65px" xmlns="http://www.w3.org/2000/svg">
  <g transform="matrix(1.0, 0.0, 0.0, 1.0, 114.55, 159.35)">
    <path d="M34.75 -113.95 L33.85 -124.05 47.6 -117.8 Q57.25 -113.15 66.5 -107.65 70.2 -90.85 73.5 -73.8 77.9 -50.8 80.6 -27.5 75.5 -43.35 70.7 -60.5 L61.25 -101.45 56.2 -105.5 Q52.15 -108.35 47.55 -110.1 42.35 -113.7 34.75 -113.95 M13.25 -111.75 L-14.2 -133.5 -9.9 -133.3 Q11.25 -132.5 31.0 -125.15 L13.25 -111.75 M18.65 -83.6 L-8.55 -71.15 -11.3 -103.05 -14.1 -127.65 Q-4.2 -115.8 8.7 -107.65 10.2 -106.75 11.85 -106.0 13.5 -103.6 14.05 -101.0 L16.05 -92.0 16.05 -92.45 Q16.85 -86.85 16.05 -86.35 L16.6 -86.5 17.1 -92.5 18.65 -83.6 M-16.55 -154.4 L-14.1 -154.3 -11.0 -154.15 Q14.2 -153.35 37.35 -143.5 50.85 -137.8 62.6 -129.3 L65.5 -112.6 Q40.2 -128.65 10.4 -133.7 -11.9 -137.7 -34.5 -137.55 -64.45 -137.4 -92.65 -127.45 -103.8 -123.5 -114.55 -118.7 L-114.55 -126.0 Q-112.55 -133.2 -105.55 -135.9 -83.7 -144.65 -60.6 -149.9 -38.95 -154.95 -16.55 -154.4 M-114.55 -115.05 Q-92.6 -124.85 -69.05 -129.95 -48.1 -134.5 -26.45 -133.75 L-18.3 -133.65 -11.15 -69.5 -114.55 -17.0 -114.55 -115.05 M-114.55 -11.6 L-98.25 -20.75 Q-75.75 -28.55 -54.25 -39.1 -31.7 -50.3 -9.6 -62.1 -7.4 -63.3 -5.4 -64.85 -1.15 -39.3 -1.35 -13.5 -1.4 -4.3 -1.8 5.0 L-41.85 3.75 Q-43.4 0.75 -45.6 -1.65 -50.1 -6.65 -56.55 -7.6 -78.05 -9.8 -90.1 6.95 L-114.55 10.75 -114.55 -11.6 M-114.55 50.05 L-72.1 56.7 Q-59.05 58.7 -46.05 61.25 L-42.8 61.6 -8.3 65.95 -15.55 112.9 -29.55 110.75 Q-54.65 105.85 -76.25 92.15 -96.7 79.05 -114.55 62.8 L-114.55 50.05 M-14.35 113.0 L-10.05 93.75 -3.05 52.55 Q-0.95 38.7 0.5 24.55 2.8 1.85 2.35 -20.8 1.9 -45.1 -2.55 -68.9 L-0.5 -69.9 Q12.05 -72.7 24.25 -77.7 L25.0 -78.05 28.15 -55.65 28.95 -41.85 Q28.95 -17.85 27.95 6.15 27.0 29.75 23.9 52.9 22.5 63.5 20.45 74.1 L10.25 114.1 -14.35 113.0 M47.0 75.3 L69.15 77.75 Q58.25 94.35 44.05 103.85 L47.0 75.3 M-95.05 -81.85 L-96.4 -80.85 Q-98.85 -81.9 -101.45 -81.2 -99.45 -79.45 -96.95 -80.45 L-92.25 -80.55 Q-88.6 -83.8 -88.6 -88.75 L-90.3 -87.7 Q-88.2 -92.5 -88.9 -97.8 L-89.3 -98.9 -90.6 -98.9 Q-90.95 -89.8 -96.7 -83.05 L-95.05 -81.85 M-95.5 -49.6 Q-77.6 -54.95 -74.1 -74.05 -73.15 -79.25 -73.7 -84.65 -76.9 -79.45 -76.85 -72.45 -76.8 -69.65 -78.85 -67.4 -87.2 -58.45 -97.4 -52.45 -99.4 -51.3 -101.6 -50.6 -102.75 -50.45 -103.0 -49.25 L-98.9 -49.2 Q-88.85 -45.65 -82.35 -52.75 -80.95 -54.25 -80.55 -56.4 L-81.1 -56.25 -78.45 -58.85 -78.65 -60.15 Q-85.15 -51.1 -95.5 -49.6" fill="#666666" fill-rule="evenodd" stroke="none"/>
    <path d="M80.6 -27.5 Q77.9 -50.8 73.5 -73.8 70.2 -90.85 66.5 -107.65 57.25 -113.15 47.6 -117.8 L33.85 -124.05 34.75 -113.95 37.1 -85.1 Q37.55 -79.15 40.3 -73.65 44.3 -65.75 49.65 -58.5 L72.3 -25.8 83.0 -8.55 80.6 -27.5 M13.25 -111.75 L31.0 -125.15 Q11.25 -132.5 -9.9 -133.3 L-14.2 -133.5 13.25 -111.75 M18.65 -83.6 L26.95 -86.85 Q29.05 -85.4 30.65 -83.6 L36.1 -76.85 Q34.15 -99.15 31.1 -121.15 L15.5 -109.8 11.3 -109.3 -14.15 -128.7 -14.1 -127.65 -11.3 -103.05 -8.55 -71.15 18.65 -83.6 M-114.55 -118.7 Q-103.8 -123.5 -92.65 -127.45 -64.45 -137.4 -34.5 -137.55 -11.9 -137.7 10.4 -133.7 40.2 -128.65 65.5 -112.6 L62.6 -129.3 Q50.85 -137.8 37.35 -143.5 14.2 -153.35 -11.0 -154.15 L-14.1 -154.3 -16.55 -154.4 -33.6 -155.25 Q-50.45 -156.15 -67.0 -152.4 L-66.35 -152.75 Q-80.45 -149.9 -93.9 -144.45 L-114.55 -135.15 -114.55 -138.6 Q-92.15 -150.2 -67.45 -155.55 -48.75 -159.7 -29.5 -159.3 L-1.4 -157.4 Q21.85 -154.7 43.25 -145.5 50.25 -142.6 56.6 -138.4 L65.45 -132.0 70.55 -108.15 81.45 -47.95 Q85.15 -27.45 87.55 -6.95 87.9 -4.2 88.8 -1.5 92.4 9.15 96.9 19.4 100.55 27.8 103.25 36.6 L100.8 39.05 103.8 40.65 Q100.7 53.55 94.2 65.15 L86.15 79.35 75.35 98.15 Q74.25 100.1 73.55 102.2 69.6 113.6 66.3 125.4 65.95 126.65 65.1 127.8 63.8 129.6 61.75 130.7 L61.75 132.55 Q73.55 144.5 81.95 158.9 84.7 163.7 86.85 168.9 90.85 178.55 86.6 187.6 L96.35 210.0 91.65 212.2 Q99.7 228.6 103.0 246.55 L104.35 253.15 105.1 256.45 94.2 257.3 44.1 259.25 -41.75 259.65 -27.25 259.1 -114.55 259.1 -114.55 239.95 Q-102.05 242.75 -89.45 244.6 -56.6 249.65 -23.3 247.5 L-27.5 248.0 0.65 246.4 Q18.3 244.95 35.85 242.55 L30.75 179.3 27.95 148.15 26.25 149.35 Q19.05 154.8 10.9 158.65 L21.6 160.4 20.25 183.85 18.2 181.3 19.05 162.45 15.6 162.2 14.6 177.95 16.45 180.25 14.1 178.85 6.8 178.95 -26.5 176.5 -46.4 174.45 -94.9 168.15 -96.2 168.3 Q-96.65 169.5 -97.85 170.1 -99.0 170.75 -100.1 170.75 L-97.3 167.9 Q-96.85 160.0 -93.3 152.55 L-96.85 152.75 -98.1 156.75 -100.05 163.8 Q-101.2 168.05 -100.3 172.35 L-103.35 173.6 -101.25 157.95 -98.8 149.55 -69.2 150.95 -44.65 153.05 Q-53.8 147.35 -62.4 141.2 L-69.15 136.0 -69.75 136.35 -75.9 133.5 Q-91.15 126.55 -105.5 118.0 L-107.1 123.6 Q-109.65 132.3 -111.35 141.3 L-114.55 160.55 -114.55 132.0 Q-112.45 123.15 -108.7 116.05 L-112.0 114.0 -114.55 112.35 -114.55 106.15 -78.85 127.2 -82.55 123.5 Q-99.9 106.05 -114.55 86.75 L-114.55 78.05 -84.95 114.75 -78.0 122.3 Q-67.15 133.75 -53.7 142.05 L-27.7 157.0 -13.3 164.25 Q4.3 158.2 19.8 147.9 L25.3 143.6 Q42.45 127.65 58.75 110.5 72.3 96.2 81.75 79.0 L69.15 77.75 47.0 75.3 44.5 75.05 Q40.05 99.55 29.4 122.25 L41.4 74.55 Q46.4 50.1 49.4 25.35 L49.75 20.95 Q50.5 6.8 49.7 -7.25 48.25 -32.75 42.6 -57.55 41.2 -63.65 36.9 -68.95 L28.1 -79.5 28.3 -78.3 25.8 -83.4 Q13.15 -75.75 -0.5 -69.9 L-2.55 -68.9 Q1.9 -45.1 2.35 -20.8 2.8 1.85 0.5 24.55 -0.95 38.7 -3.05 52.55 L-10.05 93.75 -14.35 113.0 -16.8 120.8 -15.55 112.9 -8.3 65.95 -42.8 61.6 -46.05 61.25 Q-59.05 58.7 -72.1 56.7 L-114.55 50.05 -114.55 48.1 -7.95 63.85 Q-4.05 40.05 -2.35 16.0 L-42.0 14.4 -50.2 14.4 -79.8 15.15 -90.35 15.9 -94.95 16.25 Q-103.2 16.55 -114.55 18.55 L-114.55 10.75 -90.1 6.95 -79.5 5.5 -48.9 3.9 -41.85 3.75 -1.8 5.0 Q-1.4 -4.3 -1.35 -13.5 -1.15 -39.3 -5.4 -64.85 L-5.65 -67.1 -7.0 -66.7 -62.85 -38.9 -98.25 -20.75 -114.55 -11.6 -114.55 -17.0 -11.15 -69.5 -18.3 -133.65 -26.45 -133.75 Q-48.1 -134.5 -69.05 -129.95 -92.6 -124.85 -114.55 -115.05 L-114.55 -118.7 M81.3 23.95 L98.8 36.15 Q92.45 20.9 85.05 6.05 75.0 -14.15 62.85 -33.2 56.45 -43.25 49.25 -52.95 50.5 -47.15 51.35 -41.25 54.9 -17.5 54.05 6.75 L53.65 11.95 53.55 13.7 Q65.95 17.35 77.95 22.35 L81.3 23.95 M50.8 38.5 Q48.7 54.9 45.3 71.15 L83.4 75.65 89.1 64.1 99.05 41.5 82.1 33.3 74.25 30.15 52.6 23.9 52.5 24.9 50.8 38.5 M72.65 22.65 Q62.5 15.45 56.0 19.4 56.65 21.25 58.05 21.9 61.05 23.3 66.75 23.85 72.4 24.3 72.65 22.65 M43.75 136.15 Q55.45 132.85 62.8 124.5 L65.45 111.0 Q53.8 125.65 39.35 137.8 L43.75 136.15 M61.05 138.05 L57.25 133.35 31.35 145.3 35.45 189.5 43.55 196.5 Q45.8 198.5 47.75 201.0 L45.35 199.85 Q40.3 197.05 35.8 193.15 L38.85 226.55 43.35 225.6 Q69.0 220.45 90.05 205.3 L89.2 203.7 84.4 192.9 83.9 191.6 Q79.4 197.0 71.75 199.95 L71.25 199.45 Q76.25 194.55 79.35 190.25 84.1 183.45 84.1 178.1 84.05 169.2 70.15 149.25 L61.05 138.05 M13.7 161.95 L7.7 160.3 -12.45 169.65 Q-26.6 164.1 -39.5 156.3 L-92.2 152.6 Q-93.65 157.6 -94.7 162.7 -95.05 164.3 -94.95 165.95 L-94.8 166.7 -81.75 168.45 -55.55 171.1 -22.5 175.05 12.75 176.85 13.7 161.95 M-7.45 197.3 Q6.0 198.3 19.05 200.4 L20.0 199.7 20.6 200.65 21.1 200.75 20.9 200.9 Q25.15 213.4 23.95 226.8 L20.85 224.6 19.1 202.3 14.8 202.45 Q15.5 209.1 14.3 215.65 L14.05 216.8 Q13.7 217.85 12.65 218.5 L12.75 219.35 18.9 223.3 18.45 224.1 Q16.2 223.6 14.2 222.3 L11.2 219.9 11.1 219.8 8.25 219.75 -7.75 221.2 -41.55 219.55 -87.2 215.2 Q-92.25 214.85 -96.75 212.75 L-97.7 212.2 Q-101.25 214.9 -105.55 215.95 L-106.45 216.15 Q-103.25 212.9 -99.15 211.0 -100.2 209.7 -100.25 208.05 -100.45 200.45 -97.9 193.1 L-102.85 192.6 -107.45 217.8 -110.1 219.3 Q-108.75 207.3 -106.25 195.45 L-105.3 191.3 -104.9 190.95 -104.8 190.15 -47.2 194.65 -46.9 194.7 -49.5 194.65 -41.9 195.05 -7.45 197.3 M100.35 255.25 L88.9 213.6 Q84.1 216.0 79.4 218.6 60.55 229.0 39.1 229.25 L39.7 249.4 Q39.75 252.05 38.05 254.05 69.15 253.5 100.35 255.25 M12.95 202.4 L11.75 202.2 Q-16.75 197.9 -45.45 197.7 L-95.3 193.35 -96.75 197.95 Q-98.4 202.9 -98.3 208.1 -98.3 209.15 -97.5 209.6 -94.0 211.35 -90.05 211.85 L-77.15 213.55 -45.0 217.0 -9.5 219.35 5.4 218.35 Q9.0 217.9 12.4 216.1 L12.95 202.4 M-53.75 9.2 Q-61.0 2.8 -71.3 7.05 L-73.2 7.9 -73.6 8.5 Q-65.4 12.65 -56.55 10.15 L-53.75 9.2" fill="#000000" fill-rule="evenodd" stroke="none"/>
    <path d="M-14.1 -127.65 L-14.15 -128.7 11.3 -109.3 15.5 -109.8 14.7 -109.25 Q17.15 -101.05 17.1 -92.5 L16.6 -86.5 16.05 -86.35 Q16.85 -86.85 16.05 -92.45 18.1 -102.75 11.1 -108.9 5.75 -113.65 -0.65 -115.45 0.5 -113.55 2.45 -112.1 7.15 -108.85 11.85 -106.0 10.2 -106.75 8.7 -107.65 -4.2 -115.8 -14.1 -127.65 M-98.25 -20.75 L-62.85 -38.9 -7.0 -66.7 -5.65 -67.1 -5.4 -64.85 Q-7.4 -63.3 -9.6 -62.1 -31.7 -50.3 -54.25 -39.1 -75.75 -28.55 -98.25 -20.75 M-48.9 3.9 L-79.5 5.5 Q-73.85 2.1 -67.45 0.9 -57.45 -1.15 -48.9 3.9 M-79.8 15.15 L-50.2 14.4 -57.6 16.8 Q-68.95 20.65 -79.8 15.15 M-0.5 -69.9 Q13.15 -75.75 25.8 -83.4 L28.3 -78.3 Q32.6 -54.65 32.55 -30.7 32.5 -8.3 30.85 13.85 29.05 38.55 25.1 62.9 21.4 85.5 14.3 107.5 8.15 126.35 0.4 144.65 L10.25 114.1 20.45 74.1 Q22.5 63.5 23.9 52.9 27.0 29.75 27.95 6.15 28.95 -17.85 28.95 -41.85 L29.6 -25.65 28.2 14.5 28.75 14.35 29.15 10.45 Q30.35 -0.1 31.2 -10.75 33.25 -35.75 30.25 -60.4 29.15 -69.2 26.4 -77.65 L25.9 -77.1 28.15 -55.65 25.0 -78.05 24.25 -77.7 Q12.05 -72.7 -0.5 -69.9 M-114.55 -135.15 L-93.9 -144.45 -97.45 -142.35 Q-81.55 -145.65 -67.0 -152.4 -50.45 -156.15 -33.6 -155.25 L-16.55 -154.4 Q-38.95 -154.95 -60.6 -149.9 -83.7 -144.65 -105.55 -135.9 -112.55 -133.2 -114.55 -126.0 L-114.55 -135.15 M56.45 -92.1 L57.25 -92.7 Q56.55 -84.85 49.85 -86.6 L49.35 -86.75 51.85 -88.3 56.45 -92.1 M77.95 22.35 Q65.95 17.35 53.55 13.7 L53.65 11.95 60.35 13.0 Q70.55 14.75 77.95 22.35 M52.5 24.9 L52.6 23.9 74.25 30.15 71.05 30.4 Q60.7 31.0 52.5 24.9 M65.85 146.75 L67.0 147.65 Q71.35 151.1 70.55 156.55 L69.65 157.4 67.4 157.65 60.95 148.85 Q60.8 147.3 61.95 146.5 63.8 145.25 65.85 146.75 M63.1 155.75 L64.9 155.35 Q68.4 158.35 68.1 162.3 L67.75 162.35 Q63.6 162.4 62.55 158.0 L63.1 155.75 M-95.05 -81.85 Q-92.15 -83.75 -90.8 -86.9 L-90.3 -87.7 -88.6 -88.75 Q-88.6 -83.8 -92.25 -80.55 L-96.95 -80.45 Q-99.45 -79.45 -101.45 -81.2 -98.85 -81.9 -96.4 -80.85 L-95.05 -81.85 M-98.9 -49.2 L-98.9 -49.55 -95.5 -49.6 Q-85.15 -51.1 -78.65 -60.15 L-78.45 -58.85 -81.1 -56.25 -80.55 -56.4 Q-80.95 -54.25 -82.35 -52.75 -88.85 -45.65 -98.9 -49.2 M-26.8 -56.05 Q-39.95 -49.9 -51.95 -42.7 L-51.95 -42.6 Q-39.4 -47.35 -27.4 -54.25 -26.85 -54.6 -26.7 -55.2 L-26.8 -56.05" fill="#959595" fill-rule="evenodd" stroke="none"/>
    <path d="M80.6 -27.5 L83.0 -8.55 72.3 -25.8 49.65 -58.5 Q44.3 -65.75 40.3 -73.65 37.55 -79.15 37.1 -85.1 L34.75 -113.95 Q42.35 -113.7 47.55 -110.1 52.15 -108.35 56.2 -105.5 L61.25 -101.45 70.7 -60.5 Q75.5 -43.35 80.6 -27.5 M15.5 -109.8 L31.1 -121.15 Q34.15 -99.15 36.1 -76.85 L30.65 -83.6 Q29.05 -85.4 26.95 -86.85 L18.65 -83.6 17.1 -92.5 Q17.15 -101.05 14.7 -109.25 L15.5 -109.8 M-114.55 18.55 Q-103.2 16.55 -94.95 16.25 L-90.35 15.9 Q-83.75 32.5 -65.1 31.3 -55.65 30.35 -48.35 24.3 -43.6 20.3 -42.0 14.4 L-2.35 16.0 Q-4.05 40.05 -7.95 63.85 L-114.55 48.1 -114.55 18.55 M-15.55 112.9 L-16.8 120.8 -14.35 113.0 10.25 114.1 0.4 144.65 Q8.15 126.35 14.3 107.5 21.4 85.5 25.1 62.9 29.05 38.55 30.85 13.85 32.5 -8.3 32.55 -30.7 32.6 -54.65 28.3 -78.3 L28.1 -79.5 36.9 -68.95 Q41.2 -63.65 42.6 -57.55 48.25 -32.75 49.7 -7.25 50.5 6.8 49.75 20.95 L49.4 25.35 Q46.4 50.1 41.4 74.55 L29.4 122.25 Q40.05 99.55 44.5 75.05 L47.0 75.3 44.05 103.85 Q58.25 94.35 69.15 77.75 L81.75 79.0 Q72.3 96.2 58.75 110.5 42.45 127.65 25.3 143.6 L19.8 147.9 Q4.3 158.2 -13.3 164.25 L-27.7 157.0 -53.7 142.05 Q-67.15 133.75 -78.0 122.3 L-84.95 114.75 -114.55 78.05 -114.55 62.8 Q-96.7 79.05 -76.25 92.15 -54.65 105.85 -29.55 110.75 L-15.55 112.9 M56.45 -92.1 Q57.3 -95.0 55.4 -97.35 L54.55 -96.75 Q50.75 -93.4 51.85 -88.3 L49.35 -86.75 49.85 -86.6 Q56.55 -84.85 57.25 -92.7 L56.45 -92.1 M54.05 6.75 Q54.9 -17.5 51.35 -41.25 50.5 -47.15 49.25 -52.95 56.45 -43.25 62.85 -33.2 75.0 -14.15 85.05 6.05 92.45 20.9 98.8 36.15 L81.3 23.95 Q79.45 16.2 73.05 11.55 64.55 5.4 54.05 6.75 M82.1 33.3 L99.05 41.5 89.1 64.1 83.4 75.65 45.3 71.15 Q48.7 54.9 50.8 38.5 L51.05 38.6 Q68.2 46.45 82.1 33.3" fill="#4d4d4d" fill-rule="evenodd" stroke="none"/>
    <path d="M51.85 -88.3 Q50.75 -93.4 54.55 -96.75 L55.4 -97.35 Q57.3 -95.0 56.45 -92.1 L51.85 -88.3 M-90.3 -87.7 L-90.8 -86.9 Q-92.15 -83.75 -95.05 -81.85 L-96.7 -83.05 Q-90.95 -89.8 -90.6 -98.9 L-89.3 -98.9 -88.9 -97.8 Q-88.2 -92.5 -90.3 -87.7 M-95.5 -49.6 L-98.9 -49.55 -98.9 -49.2 -103.0 -49.25 Q-102.75 -50.45 -101.6 -50.6 -99.4 -51.3 -97.4 -52.45 -87.2 -58.45 -78.85 -67.4 -76.8 -69.65 -76.85 -72.45 -76.9 -79.45 -73.7 -84.65 -73.15 -79.25 -74.1 -74.05 -77.6 -54.95 -95.5 -49.6" fill="#3c3c3c" fill-rule="evenodd" stroke="none"/>
    <path d="M11.85 -106.0 Q7.15 -108.85 2.45 -112.1 0.5 -113.55 -0.65 -115.45 5.75 -113.65 11.1 -108.9 18.1 -102.75 16.05 -92.45 L16.05 -92.0 14.05 -101.0 Q13.5 -103.6 11.85 -106.0 M-93.9 -144.45 Q-80.45 -149.9 -66.35 -152.75 L-67.0 -152.4 Q-81.55 -145.65 -97.45 -142.35 L-93.9 -144.45 M28.15 -55.65 L25.9 -77.1 26.4 -77.65 Q29.15 -69.2 30.25 -60.4 33.25 -35.75 31.2 -10.75 30.35 -0.1 29.15 10.45 L28.75 14.35 28.2 14.5 29.6 -25.65 28.95 -41.85 28.15 -55.65 M72.65 22.65 Q72.4 24.3 66.75 23.85 61.05 23.3 58.05 21.9 56.65 21.25 56.0 19.4 62.5 15.45 72.65 22.65 M-26.8 -56.05 L-26.7 -55.2 Q-26.85 -54.6 -27.4 -54.25 -39.4 -47.35 -51.95 -42.6 L-51.95 -42.7 Q-39.95 -49.9 -26.8 -56.05 M-53.75 9.2 L-56.55 10.15 Q-65.4 12.65 -73.6 8.5 L-73.2 7.9 -71.3 7.05 Q-61.0 2.8 -53.75 9.2" fill="#ffffff" fill-rule="evenodd" stroke="none"/>
    <path d="M-41.85 3.75 L-48.9 3.9 Q-57.45 -1.15 -67.45 0.9 -73.85 2.1 -79.5 5.5 L-90.1 6.95 Q-78.05 -9.8 -56.55 -7.6 -50.1 -6.65 -45.6 -1.65 -43.4 0.75 -41.85 3.75" fill="#6f6f6f" fill-rule="evenodd" stroke="none"/>
    <path d="M-90.35 15.9 L-79.8 15.15 Q-68.95 20.65 -57.6 16.8 L-50.2 14.4 -42.0 14.4 Q-43.6 20.3 -48.35 24.3 -55.65 30.35 -65.1 31.3 -83.75 32.5 -90.35 15.9 M-114.55 86.75 Q-99.9 106.05 -82.55 123.5 L-78.85 127.2 -114.55 106.15 -114.55 86.75 M81.3 23.95 L77.95 22.35 Q70.55 14.75 60.35 13.0 L53.65 11.95 54.05 6.75 Q64.55 5.4 73.05 11.55 79.45 16.2 81.3 23.95 M50.8 38.5 L52.5 24.9 Q60.7 31.0 71.05 30.4 L74.25 30.15 82.1 33.3 Q68.2 46.45 51.05 38.6 L50.8 38.5 M43.75 136.15 L39.35 137.8 Q53.8 125.65 65.45 111.0 L62.8 124.5 Q55.45 132.85 43.75 136.15" fill="#595959" fill-rule="evenodd" stroke="none"/>
    <path d="M-112.0 114.0 L-108.7 116.05 Q-112.45 123.15 -114.55 132.0 L-114.55 120.65 -112.0 114.0 M-111.35 141.3 Q-109.65 132.3 -107.1 123.6 L-105.5 118.0 Q-91.15 126.55 -75.9 133.5 L-69.75 136.35 -69.15 136.0 -62.4 141.2 Q-53.8 147.35 -44.65 153.05 L-69.2 150.95 -98.8 149.55 -101.25 157.95 -111.35 141.3 M20.25 183.85 L21.6 160.4 10.9 158.65 Q19.05 154.8 26.25 149.35 L27.95 148.15 30.75 179.3 Q25.95 185.45 20.5 189.1 10.1 196.0 -7.45 197.3 L-41.9 195.05 -46.9 194.7 -47.2 194.65 Q-61.25 191.95 -71.3 187.15 -79.65 183.05 -86.9 176.15 L-53.9 178.85 -22.15 181.3 20.25 183.85 M89.2 203.7 L90.05 205.3 Q69.0 220.45 43.35 225.6 L38.85 226.55 35.8 193.15 Q40.3 197.05 45.35 199.85 L47.75 201.0 Q45.8 198.5 43.55 196.5 L35.45 189.5 31.35 145.3 57.25 133.35 61.05 138.05 Q58.6 140.15 53.65 143.25 45.35 148.4 45.35 150.6 45.35 164.05 59.6 192.3 65.05 198.65 76.9 191.7 L79.35 190.25 Q76.25 194.55 71.25 199.45 L71.75 199.95 Q79.4 197.0 83.9 191.6 L84.4 192.9 76.45 198.55 Q71.75 201.85 71.75 203.9 L72.7 205.65 76.5 206.05 Q80.8 206.0 89.2 203.7" fill="#444444" fill-rule="evenodd" stroke="none"/>
    <path d="M-114.55 112.35 L-112.0 114.0 -114.55 120.65 -114.55 112.35 M-114.55 160.55 L-111.35 141.3 -101.25 157.95 -103.35 173.6 Q-102.8 174.55 -99.5 175.05 L-86.9 176.15 Q-79.65 183.05 -71.3 187.15 -61.25 191.95 -47.2 194.65 L-104.8 190.15 -104.9 190.95 -105.3 191.3 -106.25 195.45 Q-108.75 207.3 -110.1 219.3 L-110.05 219.6 Q-109.75 220.45 -108.15 221.0 L-88.85 223.45 -59.4 225.8 16.05 229.15 Q22.15 229.15 23.6 227.7 L23.95 226.8 Q25.15 213.4 20.9 200.9 L21.1 200.75 20.6 200.65 20.0 199.7 19.05 200.4 Q6.0 198.3 -7.45 197.3 10.1 196.0 20.5 189.1 25.95 185.45 30.75 179.3 L35.85 242.55 Q18.3 244.95 0.65 246.4 L-27.5 248.0 -23.3 247.5 Q-56.6 249.65 -89.45 244.6 -102.05 242.75 -114.55 239.95 L-114.55 160.55 M65.85 146.75 Q63.8 145.25 61.95 146.5 60.8 147.3 60.95 148.85 L67.4 157.65 69.65 157.4 70.55 156.55 Q71.35 151.1 67.0 147.65 L65.85 146.75 M89.2 203.7 Q80.8 206.0 76.5 206.05 L72.7 205.65 71.75 203.9 Q71.75 201.85 76.45 198.55 L84.4 192.9 89.2 203.7 M79.35 190.25 L76.9 191.7 Q65.05 198.65 59.6 192.3 45.35 164.05 45.35 150.6 45.35 148.4 53.65 143.25 58.6 140.15 61.05 138.05 L70.15 149.25 Q84.05 169.2 84.1 178.1 84.1 183.45 79.35 190.25 M63.1 155.75 L62.55 158.0 Q63.6 162.4 67.75 162.35 L68.1 162.3 Q68.4 158.35 64.9 155.35 L63.1 155.75 M-41.9 195.05 L-49.5 194.65 -46.9 194.7 -41.9 195.05" fill="#626262" fill-rule="evenodd" stroke="none"/>
    <path d="M100.35 255.25 Q69.15 253.5 38.05 254.05 39.75 252.05 39.7 249.4 L39.1 229.25 Q60.55 229.0 79.4 218.6 84.1 216.0 88.9 213.6 L100.35 255.25" fill="#262626" fill-rule="evenodd" stroke="none"/>
    <path d="M-100.3 172.35 Q-101.2 168.05 -100.05 163.8 L-98.1 156.75 -96.85 152.75 -93.3 152.55 Q-96.85 160.0 -97.3 167.9 L-100.1 170.75 Q-99.0 170.75 -97.85 170.1 -96.65 169.5 -96.2 168.3 L-94.9 168.15 -46.4 174.45 -26.5 176.5 6.8 178.95 14.1 178.85 16.45 180.25 14.6 177.95 15.6 162.2 19.05 162.45 18.2 181.3 18.15 182.1 10.8 182.4 -29.5 179.65 -100.35 172.85 -100.3 172.35 M-107.45 217.8 L-102.85 192.6 -97.9 193.1 Q-100.45 200.45 -100.25 208.05 -100.2 209.7 -99.15 211.0 -103.25 212.9 -106.45 216.15 L-105.55 215.95 Q-101.25 214.9 -97.7 212.2 L-96.75 212.75 Q-92.25 214.85 -87.2 215.2 L-41.55 219.55 -7.75 221.2 8.25 219.75 11.1 219.8 11.2 219.9 14.2 222.3 Q16.2 223.6 18.45 224.1 L18.9 223.3 12.75 219.35 12.65 218.5 Q13.7 217.85 14.05 216.8 L14.3 215.65 Q15.5 209.1 14.8 202.45 L19.1 202.3 20.85 224.6 20.9 225.35 Q8.05 226.6 -5.05 226.0 L-59.25 223.5 Q-83.7 221.8 -107.45 217.8" fill="#484848" fill-rule="evenodd" stroke="none"/>
    <path d="M-103.35 173.6 L-100.3 172.35 -100.35 172.85 -29.5 179.65 10.8 182.4 18.15 182.1 18.2 181.3 20.25 183.85 -22.15 181.3 -53.9 178.85 -86.9 176.15 -99.5 175.05 Q-102.8 174.55 -103.35 173.6 M13.7 161.95 L12.75 176.85 -22.5 175.05 -55.55 171.1 -81.75 168.45 -94.8 166.7 -94.95 165.95 Q-95.05 164.3 -94.7 162.7 -93.65 157.6 -92.2 152.6 L-39.5 156.3 Q-26.6 164.1 -12.45 169.65 L7.7 160.3 13.7 161.95 M23.95 226.8 L23.6 227.7 Q22.15 229.15 16.05 229.15 L-59.4 225.8 -88.85 223.45 -108.15 221.0 Q-109.75 220.45 -110.05 219.6 L-110.1 219.3 -107.45 217.8 Q-83.7 221.8 -59.25 223.5 L-5.05 226.0 Q8.05 226.6 20.9 225.35 L20.85 224.6 23.95 226.8 M12.95 202.4 L12.4 216.1 Q9.0 217.9 5.4 218.35 L-9.5 219.35 -45.0 217.0 -77.15 213.55 -90.05 211.85 Q-94.0 211.35 -97.5 209.6 -98.3 209.15 -98.3 208.1 -98.4 202.9 -96.75 197.95 L-95.3 193.35 -45.45 197.7 Q-16.75 197.9 11.75 202.2 L12.95 202.4" fill="#2b2b2b" fill-rule="evenodd" stroke="none"/>
  </g>
</svg>
