<?xml version="1.0" encoding="UTF-8" standalone="no"?>
<svg xmlns:xlink="http://www.w3.org/1999/xlink" height="461.95px" width="220.25px" xmlns="http://www.w3.org/2000/svg">
  <g transform="matrix(1.0, 0.0, 0.0, 1.0, 113.25, 197.3)">
    <path d="M-113.25 -59.75 Q-112.75 -67.3 -111.65 -75.05 -107.2 -106.15 -93.95 -134.95 -92.3 -138.6 -89.8 -141.5 -77.5 -156.0 -61.0 -165.55 -35.65 -180.3 -8.05 -190.3 3.15 -194.3 14.8 -197.3 57.35 -177.3 86.55 -140.1 88.15 -138.05 88.6 -135.35 92.85 -110.5 95.35 -85.6 96.0 -78.9 93.1 -73.0 98.3 -66.35 101.9 -58.85 105.7 -50.9 106.6 -42.2 108.9 -20.25 97.9 -0.55 93.75 6.95 88.4 13.75 L86.15 63.2 88.05 64.1 Q96.5 68.85 95.75 78.7 95.15 87.0 89.7 93.05 87.6 95.35 84.7 96.4 84.3 107.6 83.5 118.95 82.8 129.05 76.2 136.85 72.65 141.15 68.0 143.9 L67.65 144.95 67.0 147.45 66.15 150.2 65.75 151.1 65.2 152.05 64.35 153.45 Q71.05 156.0 76.05 161.2 87.95 173.4 89.95 190.4 L90.85 196.95 Q92.25 206.95 95.05 216.85 L91.65 218.75 Q94.3 227.25 96.15 235.85 98.0 244.45 98.25 253.05 L98.35 257.3 71.05 257.3 69.5 264.65 63.85 264.65 Q70.7 240.3 64.1 215.75 62.8 210.9 60.35 206.45 59.2 204.3 57.85 202.35 L43.7 199.2 32.0 197.1 Q30.95 206.35 36.9 213.8 38.05 215.25 38.2 217.4 38.5 222.6 37.6 227.6 L37.15 231.0 Q34.9 248.05 29.95 264.65 L26.55 264.65 28.05 261.15 Q34.85 243.5 35.7 224.45 36.45 221.2 36.15 218.0 35.9 214.8 34.05 212.45 28.4 205.2 30.2 196.75 L21.85 194.95 20.45 197.95 Q16.45 204.8 16.45 212.75 L16.5 213.3 19.35 209.5 Q24.6 223.7 23.75 239.0 23.0 251.85 23.45 264.65 L20.55 264.65 Q22.65 238.75 19.9 213.05 L19.55 212.8 17.0 215.75 Q15.65 215.0 15.0 213.55 14.45 212.15 14.6 210.35 15.4 201.45 19.55 193.55 18.15 193.1 17.9 191.5 17.25 187.4 17.85 183.15 19.15 173.95 27.1 170.0 21.75 166.8 15.7 165.6 -9.6 160.55 -29.4 177.1 -41.5 187.25 -48.6 201.35 -62.1 228.1 -55.9 256.6 L-55.25 256.7 -54.9 258.4 Q-53.65 261.6 -52.05 264.65 L-65.45 264.65 Q-69.25 250.05 -74.0 235.85 -74.9 233.1 -76.1 230.45 -94.0 236.6 -113.25 233.9 L-113.25 229.75 Q-91.8 233.85 -72.75 223.45 -74.65 218.6 -75.2 213.4 L-75.6 209.65 -91.15 206.55 -113.25 202.15 -113.25 201.2 -90.65 203.35 -75.65 204.75 Q-68.95 190.85 -69.4 175.5 -69.6 167.7 -73.55 161.0 L-75.3 158.85 Q-90.7 141.75 -113.25 146.25 L-113.25 142.3 -109.75 141.45 Q-111.45 140.7 -113.25 140.3 L-113.25 136.0 Q-105.65 139.1 -97.9 140.8 -87.1 143.05 -78.4 149.9 -72.0 155.05 -68.35 162.3 L-58.3 167.55 -58.85 165.7 Q-58.95 162.25 -56.2 159.9 L-54.65 158.8 -72.05 150.3 Q-68.85 150.8 -64.8 152.1 L-48.2 157.7 Q-42.55 159.5 -36.9 160.9 L-37.05 156.95 Q-36.95 154.4 -35.8 152.35 -59.25 147.25 -76.55 130.85 -79.4 128.1 -81.7 124.95 -91.05 112.1 -91.7 96.1 -92.5 75.8 -91.7 55.5 -90.75 31.9 -85.15 8.95 -79.9 -12.5 -68.5 -31.3 -55.8 -51.9 -34.85 -64.0 -17.6 -74.0 2.15 -76.6 23.15 -79.7 43.95 -75.5 68.95 -70.2 85.3 -50.3 91.2 -43.2 93.85 -34.55 L94.3 -31.45 Q90.75 -39.5 84.7 -46.05 59.5 -73.3 22.1 -74.4 53.9 -69.9 74.4 -45.55 93.35 -23.05 88.9 5.8 L89.9 4.75 Q100.55 -9.15 104.0 -26.9 104.7 -30.2 104.3 -33.6 101.5 -56.0 86.45 -73.3 70.3 -91.9 46.85 -99.95 4.1 -111.1 -37.3 -94.9 -52.3 -88.95 -63.8 -77.6 -76.75 -64.85 -84.7 -48.55 L-83.1 -53.45 Q-68.75 -89.8 -31.45 -102.15 L-30.45 -108.1 -32.75 -109.1 -35.2 -108.95 -36.7 -108.1 Q-38.15 -107.2 -39.7 -106.45 L-41.45 -105.65 -43.9 -105.2 -43.2 -106.2 Q-41.75 -108.1 -39.8 -109.5 -37.35 -111.4 -34.3 -111.7 L-34.75 -114.4 Q-35.0 -116.85 -34.8 -119.25 -34.6 -122.1 -34.0 -125.05 L-45.6 -121.0 -45.7 -121.75 Q-45.6 -124.8 -42.55 -126.05 L-33.55 -129.55 -34.85 -139.15 -35.45 -141.8 -36.65 -145.65 -38.6 -148.0 Q-11.85 -168.95 22.75 -165.1 22.6 -167.85 21.4 -170.2 20.45 -172.15 20.3 -174.15 20.0 -177.45 18.0 -179.8 17.3 -180.7 17.65 -181.9 L18.2 -181.85 Q21.4 -178.45 23.6 -174.15 25.85 -169.65 26.1 -164.5 L29.9 -163.8 Q40.3 -162.2 49.75 -157.65 60.45 -151.8 69.2 -143.2 L69.85 -142.55 69.55 -142.2 68.7 -120.15 Q73.65 -116.95 77.0 -112.6 L76.15 -111.85 69.6 -115.5 70.5 -107.2 Q75.15 -104.85 77.15 -99.9 77.9 -98.15 77.3 -96.35 L71.15 -103.55 69.45 -102.75 72.85 -97.3 Q73.4 -96.25 73.2 -95.05 72.9 -93.35 71.75 -92.2 82.35 -85.5 90.55 -76.15 92.3 -86.3 90.65 -96.6 L87.3 -117.35 83.8 -136.8 Q73.2 -148.5 61.9 -159.7 57.75 -163.9 53.25 -167.6 L47.3 -172.3 Q30.2 -184.95 15.9 -190.65 -2.5 -186.45 -11.4 -183.05 -22.1 -179.1 -30.55 -175.6 -37.8 -172.75 -57.5 -162.3 -77.15 -151.95 -86.9 -139.45 -99.5 -107.05 -106.3 -85.05 -110.35 -72.15 -113.25 -59.75 M50.25 -152.45 Q40.65 -158.15 29.8 -161.15 L26.8 -161.9 26.6 -158.7 26.1 -155.4 25.7 -153.75 23.9 -156.0 Q22.8 -157.65 22.85 -159.5 L22.75 -162.65 Q9.75 -163.15 -2.9 -161.05 L-8.35 -159.75 Q-21.75 -155.4 -33.55 -147.75 -31.7 -143.65 -31.6 -139.15 -31.5 -134.4 -31.8 -129.6 L-25.3 -130.65 -22.8 -130.65 Q-21.75 -130.55 -21.1 -129.95 L-31.95 -125.9 -31.45 -112.85 -28.85 -113.1 -28.45 -112.4 -30.25 -110.3 -28.2 -109.6 -28.15 -109.2 Q-28.15 -108.1 -28.3 -106.95 L-28.75 -105.1 -29.75 -102.65 Q8.35 -115.0 46.7 -103.4 58.8 -99.6 69.7 -93.45 L67.55 -106.05 65.45 -106.95 65.2 -107.35 65.2 -108.25 67.85 -108.15 67.8 -109.9 Q67.55 -115.1 63.65 -118.55 L57.2 -123.9 58.95 -124.25 60.85 -123.85 63.2 -123.15 65.8 -122.0 Q64.9 -127.05 65.1 -131.9 65.3 -136.15 66.75 -140.25 L62.9 -143.55 Q56.95 -148.5 50.25 -152.45 M-81.85 14.8 Q-86.65 37.45 -87.85 60.7 -88.95 82.6 -84.85 104.05 -83.65 110.4 -80.35 116.05 -68.05 137.3 -44.1 144.55 L-37.6 146.65 Q-14.5 152.4 9.25 153.8 33.2 154.5 55.35 145.0 67.9 139.55 74.95 128.3 79.1 121.7 79.45 114.05 L81.75 64.0 Q82.85 40.5 85.25 17.1 86.85 1.25 84.6 -14.35 83.65 -20.8 81.05 -26.85 70.8 -50.7 47.15 -61.9 25.5 -72.25 1.7 -70.35 -23.65 -68.0 -43.45 -51.7 -62.1 -36.35 -72.05 -14.4 -78.45 -0.25 -81.85 14.8 M55.6 71.75 Q53.85 67.9 55.15 64.1 59.2 52.05 71.15 56.85 75.7 59.9 76.3 65.2 76.95 70.65 72.6 74.05 63.2 81.5 55.6 71.75 M72.9 40.05 Q63.2 36.2 54.55 43.8 L46.0 50.95 Q47.05 43.35 54.6 38.8 60.4 35.3 67.0 34.45 L73.4 34.95 Q77.8 37.05 78.8 41.75 L77.25 43.6 75.4 42.4 Q73.95 41.5 72.9 40.05 M86.15 66.85 L84.7 93.0 Q96.8 84.9 90.1 70.85 88.85 68.2 86.15 66.85 M30.0 80.0 Q42.9 85.7 49.4 97.2 L48.8 97.95 Q47.05 98.25 45.95 96.95 41.6 91.8 35.95 87.8 13.45 73.9 -11.35 85.35 L-26.95 92.65 -28.5 92.95 -28.65 91.0 Q-9.3 76.15 15.15 76.7 22.85 76.9 30.0 80.0 M63.2 63.6 Q70.0 62.1 65.5 57.65 60.65 56.85 60.5 61.8 60.4 64.3 63.2 63.6 M2.8 169.75 Q-3.15 171.7 -2.55 178.3 L-3.0 178.8 Q-3.95 176.55 -3.45 174.05 -2.65 170.1 1.45 168.75 L2.8 169.75 M9.45 177.8 Q9.45 177.05 8.9 176.5 8.3 175.95 7.5 175.95 6.7 175.95 6.15 176.5 5.55 177.05 5.55 177.8 5.55 178.55 6.15 179.1 6.7 179.65 7.5 179.65 8.3 179.65 8.9 179.1 9.45 178.55 9.45 177.8 M4.35 176.2 Q4.7 175.4 5.6 174.8 12.35 174.45 11.3 180.95 10.85 183.65 8.05 183.0 1.75 181.9 4.35 176.2 M21.2 178.7 Q20.05 182.7 20.05 186.9 L20.1 189.6 Q23.15 194.5 29.2 194.95 35.45 195.35 41.6 196.75 50.0 198.55 58.2 196.95 L58.25 195.15 Q51.2 182.5 38.35 174.5 29.9 169.3 23.2 176.35 L21.2 178.7 M64.75 158.3 L61.9 157.15 57.5 160.6 59.25 171.3 58.7 171.85 58.15 171.9 Q55.95 173.75 53.4 174.85 L49.45 176.45 50.0 179.2 Q57.55 185.45 60.8 194.25 61.85 197.15 60.9 199.95 L63.45 203.95 Q69.5 202.5 75.75 201.8 L78.1 202.1 64.95 206.9 68.85 220.75 Q78.9 219.6 88.2 215.75 L90.75 214.6 Q87.25 199.2 84.1 183.95 83.25 179.8 81.45 175.9 L79.5 171.9 Q74.3 162.65 64.75 158.3 M52.6 159.55 Q58.35 156.7 61.3 151.55 62.45 149.5 62.1 147.3 26.0 162.95 -12.8 156.45 L-10.05 160.9 Q9.75 156.0 27.8 165.35 38.2 163.75 48.2 160.4 46.6 163.75 42.95 165.0 38.15 166.85 33.05 167.55 38.55 169.45 43.35 173.3 L45.45 175.0 Q50.05 173.8 53.95 171.15 L55.1 170.2 Q55.3 164.9 52.55 160.3 L52.6 159.55 M88.5 219.65 L69.5 223.95 Q72.4 239.0 71.25 254.25 L94.8 253.25 94.75 251.8 Q94.85 249.3 94.4 246.95 91.75 233.2 88.5 219.65 M-32.7 30.45 Q-38.3 31.2 -42.5 26.1 -43.9 24.5 -46.25 24.2 -55.85 22.8 -62.9 31.05 -64.3 32.7 -66.2 33.1 -59.8 19.85 -46.1 20.85 -43.85 20.65 -41.8 21.75 -36.35 24.7 -32.5 29.5 L-32.7 30.45 M-46.75 49.1 Q-49.75 43.5 -54.45 48.6 -54.65 49.15 -54.5 49.65 -52.0 56.1 -47.1 51.0 -46.2 50.05 -46.75 49.1 M-59.55 60.8 Q-62.5 55.2 -59.2 49.85 -55.25 43.4 -47.6 44.6 -35.25 46.2 -36.65 58.4 -39.5 65.9 -47.3 66.8 -54.1 67.5 -58.65 62.2 L-59.25 61.35 -59.55 60.8 M-54.45 165.0 L-54.7 166.3 Q-49.1 176.15 -40.55 183.65 -29.45 170.2 -13.45 163.45 -14.4 159.75 -17.35 157.6 -18.3 156.95 -19.35 157.15 L-20.25 157.35 -20.9 162.95 -22.1 162.95 -27.75 156.2 Q-29.4 154.35 -31.85 155.15 L-33.15 155.8 -32.7 167.35 Q-38.3 165.9 -44.3 163.15 -48.25 161.3 -52.35 162.1 -54.05 163.15 -54.45 165.0 M-68.9 195.4 L-71.2 202.85 -51.9 198.7 -44.15 185.5 -52.8 177.85 -65.2 178.75 Q-65.95 187.3 -68.9 195.4 M-65.75 169.85 L-64.95 175.6 -55.95 174.45 -65.75 169.85 M-53.9 202.95 L-63.3 204.7 -54.7 204.75 -53.9 202.95 M-56.4 209.05 L-71.4 209.0 -70.75 216.8 Q-66.35 217.0 -62.25 218.75 L-59.55 219.95 -56.4 209.05 M-72.5 229.6 L-65.0 253.25 -64.1 252.45 -62.45 252.85 -62.4 253.5 -62.5 254.4 -62.8 255.3 -63.9 257.45 -62.85 261.8 -59.0 257.95 Q-60.4 251.9 -60.8 245.65 -61.5 235.3 -59.0 225.1 L-69.95 221.0 -68.5 227.4 -72.5 229.6" fill="#000000" fill-rule="evenodd" stroke="none"/>
    <path d="M47.3 -172.3 L53.25 -167.6 Q57.75 -163.9 61.9 -159.7 73.2 -148.5 83.8 -136.8 L87.3 -117.35 90.65 -96.6 Q92.3 -86.3 90.55 -76.15 82.35 -85.5 71.75 -92.2 72.9 -93.35 73.2 -95.05 73.4 -96.25 72.85 -97.3 L69.45 -102.75 71.15 -103.55 77.3 -96.35 Q77.9 -98.15 77.15 -99.9 75.15 -104.85 70.5 -107.2 L69.6 -115.5 76.15 -111.85 77.0 -112.6 Q73.65 -116.95 68.7 -120.15 L69.55 -142.2 69.85 -142.55 69.2 -143.2 Q60.45 -151.8 49.75 -157.65 L47.3 -172.3 M46.85 -99.95 Q70.3 -91.9 86.45 -73.3 101.5 -56.0 104.3 -33.6 104.7 -30.2 104.0 -26.9 102.9 -26.05 101.65 -26.0 100.15 -26.05 93.85 -34.55 91.2 -43.2 85.3 -50.3 68.95 -70.2 43.95 -75.5 23.15 -79.7 2.15 -76.6 -17.6 -74.0 -34.85 -64.0 -55.8 -51.9 -68.5 -31.3 -62.3 -45.0 -52.05 -55.8 -34.55 -74.15 -9.65 -78.85 15.1 -83.35 40.35 -81.8 44.6 -82.05 48.7 -83.85 53.35 -85.9 53.05 -91.0 52.65 -96.9 46.85 -99.95 M50.7 -112.3 Q29.15 -118.15 6.8 -117.35 -9.9 -116.7 -26.2 -113.0 -12.9 -119.0 1.65 -120.1 24.95 -122.25 47.6 -115.95 55.3 -113.5 58.6 -109.95 57.65 -110.2 54.15 -111.35 L50.7 -112.3 M52.6 159.55 L52.55 160.3 Q55.3 164.9 55.1 170.2 L53.95 171.15 Q50.05 173.8 45.45 175.0 L43.35 173.3 Q38.55 169.45 33.05 167.55 38.15 166.85 42.95 165.0 46.6 163.75 48.2 160.4 38.2 163.75 27.8 165.35 9.75 156.0 -10.05 160.9 L-12.8 156.45 Q26.0 162.95 62.1 147.3 62.45 149.5 61.3 151.55 58.35 156.7 52.6 159.55 M-108.7 50.45 L-107.75 50.2 Q-93.55 67.7 -97.2 89.55 -97.6 91.9 -98.85 93.75 -104.15 101.75 -113.25 97.2 L-113.25 89.35 Q-110.65 88.3 -109.95 85.6 -105.5 68.15 -108.7 50.45 M-113.25 82.2 L-112.15 81.45 -113.25 86.7 -113.25 82.2 M-110.4 117.4 Q-100.4 125.55 -92.8 135.8 L-93.0 136.2 Q-102.2 132.25 -110.65 126.15 -113.85 122.6 -111.1 118.4 L-110.4 117.4" fill="#5b482d" fill-rule="evenodd" stroke="none"/>
    <path d="M50.25 -152.45 Q56.95 -148.5 62.9 -143.55 L66.75 -140.25 Q65.3 -136.15 65.1 -131.9 64.9 -127.05 65.8 -122.0 L63.2 -123.15 60.85 -123.85 58.95 -124.25 57.2 -123.9 63.65 -118.55 Q67.55 -115.1 67.8 -109.9 L67.85 -108.15 65.2 -108.25 65.2 -107.35 65.45 -106.95 67.55 -106.05 69.7 -93.45 Q58.8 -99.6 46.7 -103.4 50.95 -106.55 50.7 -111.55 L50.7 -112.3 54.15 -111.35 Q57.65 -110.2 58.6 -109.95 55.3 -113.5 47.6 -115.95 52.1 -131.7 50.55 -148.25 L50.25 -152.45" fill="#a3783a" fill-rule="evenodd" stroke="none"/>
    <path d="M-113.25 -59.75 Q-110.35 -72.15 -106.3 -85.05 -99.5 -107.05 -86.9 -139.45 -77.15 -151.95 -57.5 -162.3 -37.8 -172.75 -30.55 -175.6 -22.1 -179.1 -11.4 -183.05 -2.5 -186.45 15.9 -190.65 30.2 -184.95 47.3 -172.3 L49.75 -157.65 Q40.3 -162.2 29.9 -163.8 L26.1 -164.5 Q25.85 -169.65 23.6 -174.15 21.4 -178.45 18.2 -181.85 L17.65 -181.9 Q17.3 -180.7 18.0 -179.8 20.0 -177.45 20.3 -174.15 20.45 -172.15 21.4 -170.2 22.6 -167.85 22.75 -165.1 -11.85 -168.95 -38.6 -148.0 L-36.65 -145.65 -35.45 -141.8 -34.85 -139.15 -33.55 -129.55 -42.55 -126.05 Q-45.6 -124.8 -45.7 -121.75 L-45.6 -121.0 -34.0 -125.05 Q-34.6 -122.1 -34.8 -119.25 -35.0 -116.85 -34.75 -114.4 L-34.3 -111.7 Q-37.35 -111.4 -39.8 -109.5 -41.75 -108.1 -43.2 -106.2 L-43.9 -105.2 -41.45 -105.65 -39.7 -106.45 Q-38.15 -107.2 -36.7 -108.1 L-35.2 -108.95 -32.75 -109.1 -30.45 -108.1 -31.45 -102.15 Q-68.75 -89.8 -83.1 -53.45 L-84.7 -48.55 Q-76.75 -64.85 -63.8 -77.6 -52.3 -88.95 -37.3 -94.9 4.1 -111.1 46.85 -99.95 52.65 -96.9 53.05 -91.0 53.35 -85.9 48.7 -83.85 44.6 -82.05 40.35 -81.8 15.1 -83.35 -9.65 -78.85 -34.55 -74.15 -52.05 -55.8 -62.3 -45.0 -68.5 -31.3 -79.9 -12.5 -85.15 8.95 -90.75 31.9 -91.7 55.5 -92.5 75.8 -91.7 96.1 -91.05 112.1 -81.7 124.95 -79.4 128.1 -76.55 130.85 -59.25 147.25 -35.8 152.35 -36.95 154.4 -37.05 156.95 L-36.9 160.9 Q-42.55 159.5 -48.2 157.7 L-64.8 152.1 Q-68.85 150.8 -72.05 150.3 L-54.65 158.8 -56.2 159.9 Q-58.95 162.25 -58.85 165.7 L-58.3 167.55 -68.35 162.3 Q-72.0 155.05 -78.4 149.9 -87.1 143.05 -97.9 140.8 -105.65 139.1 -113.25 136.0 L-113.25 97.2 Q-104.15 101.75 -98.85 93.75 -97.6 91.9 -97.2 89.55 -93.55 67.7 -107.75 50.2 L-108.7 50.45 Q-110.2 44.55 -113.25 42.2 L-113.25 -59.75 M-110.4 117.4 L-111.1 118.4 Q-113.85 122.6 -110.65 126.15 -102.2 132.25 -93.0 136.2 L-92.8 135.8 Q-100.4 125.55 -110.4 117.4 M-53.9 202.95 L-54.7 204.75 -63.3 204.7 -53.9 202.95 M-65.75 169.85 L-55.95 174.45 -64.95 175.6 -65.75 169.85" fill="#856a3f" fill-rule="evenodd" stroke="none"/>
    <path d="M46.7 -103.4 Q8.35 -115.0 -29.75 -102.65 L-28.75 -105.1 -28.3 -106.95 Q-28.15 -108.1 -28.15 -109.2 L-28.2 -109.6 -30.25 -110.3 -28.45 -112.4 -28.85 -113.1 -31.45 -112.85 -31.95 -125.9 -21.1 -129.95 Q-21.75 -130.55 -22.8 -130.65 L-25.3 -130.65 -31.8 -129.6 Q-31.5 -134.4 -31.6 -139.15 -31.7 -143.65 -33.55 -147.75 -21.75 -155.4 -8.35 -159.75 L-2.9 -161.05 Q9.75 -163.15 22.75 -162.65 L22.85 -159.5 Q22.8 -157.65 23.9 -156.0 L25.7 -153.75 26.1 -155.4 26.6 -158.7 26.8 -161.9 29.8 -161.15 Q40.65 -158.15 50.25 -152.45 L50.55 -148.25 Q52.1 -131.7 47.6 -115.95 24.95 -122.25 1.65 -120.1 -12.9 -119.0 -26.2 -113.0 -9.9 -116.7 6.8 -117.35 29.15 -118.15 50.7 -112.3 L50.7 -111.55 Q50.95 -106.55 46.7 -103.4 M-68.9 195.4 Q-65.95 187.3 -65.2 178.75 L-52.8 177.85 -44.15 185.5 -51.9 198.7 -71.2 202.85 -68.9 195.4 M-56.4 209.05 L-59.55 219.95 -62.25 218.75 Q-66.35 217.0 -70.75 216.8 L-71.4 209.0 -56.4 209.05" fill="#c0954e" fill-rule="evenodd" stroke="none"/>
    <path d="M104.0 -26.9 Q100.55 -9.15 89.9 4.75 L88.9 5.8 Q93.35 -23.05 74.4 -45.55 53.9 -69.9 22.1 -74.4 59.5 -73.3 84.7 -46.05 90.75 -39.5 94.3 -31.45 L93.85 -34.55 Q100.15 -26.05 101.65 -26.0 102.9 -26.05 104.0 -26.9" fill="#392d1c" fill-rule="evenodd" stroke="none"/>
    <path d="M73.4 34.95 Q78.5 10.45 71.05 -13.5 67.55 -24.7 58.6 -32.6 43.35 -46.1 23.05 -50.05 -2.2 -55.05 -26.15 -46.15 -48.6 -38.0 -63.3 -18.85 -74.95 -3.6 -81.35 14.8 L-81.85 14.8 Q-78.45 -0.25 -72.05 -14.4 -62.1 -36.35 -43.45 -51.7 -23.65 -68.0 1.7 -70.35 25.5 -72.25 47.15 -61.9 70.8 -50.7 81.05 -26.85 83.65 -20.8 84.6 -14.35 86.85 1.25 85.25 17.1 82.85 40.5 81.75 64.0 L79.45 114.05 Q79.1 121.7 74.95 128.3 67.9 139.55 55.35 145.0 33.2 154.5 9.25 153.8 -14.5 152.4 -37.6 146.65 L-31.9 147.25 Q-8.4 150.15 15.1 147.7 31.5 146.3 46.8 140.45 51.1 138.85 54.6 136.15 63.5 129.35 65.15 118.15 67.65 101.2 68.15 84.15 62.05 84.15 58.1 79.5 55.3 76.2 55.6 71.75 63.2 81.5 72.6 74.05 76.95 70.65 76.3 65.2 75.7 59.9 71.15 56.85 L72.9 40.05 Q73.95 41.5 75.4 42.4 L77.25 43.6 78.8 41.75 Q77.8 37.05 73.4 34.95 M86.15 66.85 Q88.85 68.2 90.1 70.85 96.8 84.9 84.7 93.0 L86.15 66.85 M27.15 103.4 L23.4 103.5 9.25 105.6 -8.1 102.55 Q-6.65 100.6 -4.6 99.95 11.85 94.85 27.15 103.4 M-59.55 60.8 L-59.25 61.35 -59.55 61.1 -59.55 60.8 M-58.65 62.2 Q-54.1 67.5 -47.3 66.8 -39.5 65.9 -36.65 58.4 -35.6 61.6 -37.4 64.55 -40.6 69.7 -46.65 70.85 -57.35 72.6 -58.65 62.2" fill="#e7945c" fill-rule="evenodd" stroke="none"/>
    <path d="M-81.85 14.8 L-81.35 14.8 Q-74.95 -3.6 -63.3 -18.85 -48.6 -38.0 -26.15 -46.15 -2.2 -55.05 23.05 -50.05 43.35 -46.1 58.6 -32.6 67.55 -24.7 71.05 -13.5 78.5 10.45 73.4 34.95 L67.0 34.45 Q60.4 35.3 54.6 38.8 47.05 43.35 46.0 50.95 L54.55 43.8 Q63.2 36.2 72.9 40.05 L71.15 56.85 Q59.2 52.05 55.15 64.1 53.85 67.9 55.6 71.75 55.3 76.2 58.1 79.5 62.05 84.15 68.15 84.15 67.65 101.2 65.15 118.15 63.5 129.35 54.6 136.15 51.1 138.85 46.8 140.45 31.5 146.3 15.1 147.7 -8.4 150.15 -31.9 147.25 L-37.6 146.65 -44.1 144.55 Q-68.05 137.3 -80.35 116.05 -83.65 110.4 -84.85 104.05 -88.95 82.6 -87.85 60.7 -86.65 37.45 -81.85 14.8 M30.0 80.0 Q22.85 76.9 15.15 76.7 -9.3 76.15 -28.65 91.0 L-28.5 92.95 -26.95 92.65 -11.35 85.35 Q13.45 73.9 35.95 87.8 41.6 91.8 45.95 96.95 47.05 98.25 48.8 97.95 L49.4 97.2 Q42.9 85.7 30.0 80.0 M27.15 103.4 Q11.85 94.85 -4.6 99.95 -6.65 100.6 -8.1 102.55 L9.25 105.6 23.4 103.5 27.15 103.4 M-34.55 -31.55 Q-29.95 -24.55 -24.1 -31.6 -23.25 -32.65 -23.05 -34.05 -22.85 -35.7 -24.2 -36.55 -30.4 -40.7 -34.4 -33.25 -35.0 -32.2 -34.55 -31.55 M-32.7 30.45 L-32.5 29.5 Q-36.35 24.7 -41.8 21.75 -43.85 20.65 -46.1 20.85 -59.8 19.85 -66.2 33.1 -64.3 32.7 -62.9 31.05 -55.85 22.8 -46.25 24.2 -43.9 24.5 -42.5 26.1 -38.3 31.2 -32.7 30.45 M-36.65 58.4 Q-35.25 46.2 -47.6 44.6 -55.25 43.4 -59.2 49.85 -62.5 55.2 -59.55 60.8 L-59.55 61.1 -59.25 61.35 -58.65 62.2 Q-57.35 72.6 -46.65 70.85 -40.6 69.7 -37.4 64.55 -35.6 61.6 -36.65 58.4 M-111.65 49.65 L-110.85 55.4 -111.45 54.4 -113.25 54.4 -113.25 48.8 -111.65 49.65" fill="#ffcc99" fill-rule="evenodd" stroke="none"/>
    <path d="M-34.55 -31.55 Q-35.0 -32.2 -34.4 -33.25 -30.4 -40.7 -24.2 -36.55 -22.85 -35.7 -23.05 -34.05 -23.25 -32.65 -24.1 -31.6 -29.95 -24.55 -34.55 -31.55" fill="#ffead5" fill-rule="evenodd" stroke="none"/>
    <path d="M-52.05 264.65 Q-53.65 261.6 -54.9 258.4 L-55.25 256.7 -55.9 256.6 Q-62.1 228.1 -48.6 201.35 -41.5 187.25 -29.4 177.1 -9.6 160.55 15.7 165.6 21.75 166.8 27.1 170.0 19.15 173.95 17.85 183.15 17.25 187.4 17.9 191.5 18.15 193.1 19.55 193.55 15.4 201.45 14.6 210.35 14.45 212.15 15.0 213.55 15.65 215.0 17.0 215.75 L19.55 212.8 19.9 213.05 Q22.65 238.75 20.55 264.65 L-52.05 264.65 M29.95 264.65 Q34.9 248.05 37.15 231.0 L37.6 227.6 43.7 237.55 44.5 235.6 Q51.4 217.45 43.7 199.2 L57.85 202.35 Q59.2 204.3 60.35 206.45 62.8 210.9 64.1 215.75 70.7 240.3 63.85 264.65 L29.95 264.65 M63.2 63.6 Q60.4 64.3 60.5 61.8 60.65 56.85 65.5 57.65 70.0 62.1 63.2 63.6 M4.35 176.2 Q1.75 181.9 8.05 183.0 10.85 183.65 11.3 180.95 12.35 174.45 5.6 174.8 4.7 175.4 4.35 176.2 M9.45 177.8 Q9.45 178.55 8.9 179.1 8.3 179.65 7.5 179.65 6.7 179.65 6.15 179.1 5.55 178.55 5.55 177.8 5.55 177.05 6.15 176.5 6.7 175.95 7.5 175.95 8.3 175.95 8.9 176.5 9.45 177.05 9.45 177.8 M2.8 169.75 L1.45 168.75 Q-2.65 170.1 -3.45 174.05 -3.95 176.55 -3.0 178.8 L-2.55 178.3 Q-3.15 171.7 2.8 169.75 M-46.75 49.1 Q-46.2 50.05 -47.1 51.0 -52.0 56.1 -54.5 49.65 -54.65 49.15 -54.45 48.6 -49.75 43.5 -46.75 49.1" fill="#ffffff" fill-rule="evenodd" stroke="none"/>
    <path d="M-113.25 140.3 Q-111.45 140.7 -109.75 141.45 L-113.25 142.3 -113.25 140.3 M-113.25 146.25 Q-90.7 141.75 -75.3 158.85 L-73.55 161.0 -73.6 162.25 Q-76.05 185.3 -90.65 203.35 L-113.25 201.2 -113.25 146.25 M-113.25 202.15 L-91.15 206.55 -90.35 226.1 -101.15 226.8 -113.25 226.0 -113.25 202.15" fill="#7b7b7b" fill-rule="evenodd" stroke="none"/>
    <path d="M23.45 264.65 Q23.0 251.85 23.75 239.0 24.6 223.7 19.35 209.5 L16.5 213.3 16.45 212.75 Q16.45 204.8 20.45 197.95 L35.7 224.45 Q34.85 243.5 28.05 261.15 L26.55 264.65 23.45 264.65 M-54.45 165.0 Q-54.05 163.15 -52.35 162.1 -48.25 161.3 -44.3 163.15 -38.3 165.9 -32.7 167.35 L-33.15 155.8 -31.85 155.15 Q-29.4 154.35 -27.75 156.2 L-22.1 162.95 -20.9 162.95 -20.25 157.35 -19.35 157.15 Q-18.3 156.95 -17.35 157.6 -14.4 159.75 -13.45 163.45 -29.45 170.2 -40.55 183.65 -49.1 176.15 -54.7 166.3 L-54.45 165.0 M-72.5 229.6 L-68.5 227.4 -69.95 221.0 -59.0 225.1 Q-61.5 235.3 -60.8 245.65 -60.4 251.9 -59.0 257.95 L-62.85 261.8 -63.9 257.45 -62.8 255.3 -62.5 254.4 -62.4 253.5 -62.45 252.85 -64.1 252.45 -65.0 253.25 -72.5 229.6" fill="#ff9dcf" fill-rule="evenodd" stroke="none"/>
    <path d="M-73.55 161.0 Q-69.6 167.7 -69.4 175.5 -68.95 190.85 -75.65 204.75 L-90.65 203.35 Q-76.05 185.3 -73.6 162.25 L-73.55 161.0 M-91.15 206.55 L-75.6 209.65 -75.2 213.4 Q-74.65 218.6 -72.75 223.45 -91.8 233.85 -113.25 229.75 L-113.25 226.0 -101.15 226.8 -90.35 226.1 -91.15 206.55 M64.75 158.3 Q74.3 162.65 79.5 171.9 L81.45 175.9 Q83.25 179.8 84.1 183.95 87.25 199.2 90.75 214.6 L88.2 215.75 Q78.9 219.6 68.85 220.75 L64.95 206.9 78.1 202.1 75.75 201.8 Q69.5 202.5 63.45 203.95 L60.9 199.95 Q61.85 197.15 60.8 194.25 57.55 185.45 50.0 179.2 L49.45 176.45 53.4 174.85 Q55.95 173.75 58.15 171.9 L58.7 171.85 59.25 171.3 57.5 160.6 61.9 157.15 64.75 158.3" fill="#5e5e5e" fill-rule="evenodd" stroke="none"/>
    <path d="M-113.25 233.9 Q-94.0 236.6 -76.1 230.45 -74.9 233.1 -74.0 235.85 -69.25 250.05 -65.45 264.65 L-113.25 264.65 -113.25 233.9 M88.5 219.65 Q91.75 233.2 94.4 246.95 94.85 249.3 94.75 251.8 L94.8 253.25 71.25 254.25 Q72.4 239.0 69.5 223.95 L88.5 219.65" fill="#262626" fill-rule="evenodd" stroke="none"/>
    <path d="M58.25 195.15 Q37.7 196.2 22.75 183.1 21.95 182.35 21.65 181.25 L21.2 178.7 23.2 176.35 Q29.9 169.3 38.35 174.5 51.2 182.5 58.25 195.15" fill="#ffd068" fill-rule="evenodd" stroke="none"/>
    <path d="M58.25 195.15 L58.2 196.95 Q50.0 198.55 41.6 196.75 35.45 195.35 29.2 194.95 23.15 194.5 20.1 189.6 L20.05 186.9 Q20.05 182.7 21.2 178.7 L21.65 181.25 Q21.95 182.35 22.75 183.1 37.7 196.2 58.25 195.15" fill="#d5a22b" fill-rule="evenodd" stroke="none"/>
    <path d="M20.45 197.95 L21.85 194.95 30.2 196.75 Q28.4 205.2 34.05 212.45 35.9 214.8 36.15 218.0 36.45 221.2 35.7 224.45 L20.45 197.95" fill="#fd3e9d" fill-rule="evenodd" stroke="none"/>
    <path d="M37.6 227.6 Q38.5 222.6 38.2 217.4 38.05 215.25 36.9 213.8 30.95 206.35 32.0 197.1 L43.7 199.2 Q51.4 217.45 44.5 235.6 L43.7 237.55 37.6 227.6" fill="#cccccc" fill-rule="evenodd" stroke="none"/>
  </g>
</svg>
