<?xml version="1.0" encoding="UTF-8" standalone="no"?>
<svg xmlns:xlink="http://www.w3.org/1999/xlink" height="455.35px" width="240.05px" xmlns="http://www.w3.org/2000/svg">
  <g transform="matrix(1.0, 0.0, 0.0, 1.0, 117.2, 196.5)">
    <path d="M-117.2 -190.35 L-117.2 -194.45 Q-100.7 -199.5 -85.95 -192.0 -80.5 -189.2 -76.3 -184.65 -65.65 -173.15 -68.25 -158.1 -60.7 -161.8 -56.6 -169.2 L-54.1 -174.25 Q-53.45 -172.2 -53.35 -169.9 L-52.85 -162.3 -51.85 -161.7 Q-42.95 -163.2 -37.4 -170.8 -35.0 -174.05 -31.85 -176.1 -30.3 -177.2 -28.5 -177.9 -29.15 -174.4 -28.95 -170.9 L-28.4 -166.5 Q-6.75 -172.85 15.8 -176.9 10.3 -173.55 6.65 -168.05 4.6 -164.95 4.55 -161.2 13.05 -161.65 21.4 -163.1 L26.55 -164.45 26.5 -163.1 26.0 -159.8 25.4 -158.0 24.4 -156.35 Q45.85 -162.15 67.75 -160.3 L76.7 -159.45 Q65.4 -156.55 58.15 -148.05 56.8 -146.45 57.8 -144.55 L74.15 -143.4 71.7 -140.3 Q70.6 -138.5 70.65 -136.15 L70.65 -134.45 72.7 -135.45 Q74.5 -136.65 76.8 -137.0 L79.9 -137.25 80.85 -131.95 Q88.35 -151.55 110.3 -153.3 115.25 -153.2 119.8 -154.35 121.45 -154.75 122.85 -155.9 L122.85 -151.25 122.3 -151.7 121.1 -149.8 Q105.9 -152.95 93.9 -144.15 90.0 -141.3 87.7 -137.3 85.3 -133.2 84.2 -128.6 L80.8 -119.2 79.4 -119.35 78.4 -125.9 77.45 -131.25 77.1 -133.05 76.25 -132.55 Q72.45 -129.75 68.05 -131.35 L67.4 -131.9 Q66.1 -137.3 69.95 -140.65 L53.45 -140.0 53.2 -142.35 Q52.3 -152.75 61.6 -156.65 L61.9 -156.45 61.65 -156.65 62.25 -156.85 Q45.6 -159.85 29.6 -154.05 L30.05 -154.15 21.0 -150.5 21.6 -152.3 22.0 -154.1 22.5 -159.55 22.45 -160.1 Q12.75 -157.7 2.45 -158.55 1.4 -160.0 2.15 -162.75 L3.0 -165.4 4.15 -167.9 Q5.4 -170.3 7.3 -172.25 L-26.4 -162.4 -29.45 -162.75 -30.05 -163.1 Q-31.25 -163.65 -31.55 -164.8 -32.55 -168.2 -31.2 -172.25 -37.45 -167.55 -43.15 -162.4 -48.5 -157.55 -55.6 -158.75 L-55.05 -166.55 -57.5 -163.6 Q-61.55 -158.8 -67.0 -155.35 L-70.95 -154.2 Q-69.4 -167.45 -76.5 -179.05 -78.5 -182.25 -81.25 -184.7 -82.85 -186.65 -85.0 -188.35 -89.05 -191.65 -94.1 -191.45 -105.15 -194.7 -117.2 -190.35 M122.85 -133.15 L122.85 -128.95 Q114.15 -134.2 105.1 -129.9 L103.3 -129.0 103.55 -129.4 Q91.85 -120.05 95.9 -106.1 99.05 -106.8 101.3 -108.95 L102.9 -110.2 103.6 -109.55 Q103.45 -103.25 99.35 -98.0 L104.45 -98.2 104.7 -94.95 Q112.2 -90.45 120.15 -95.05 L122.85 -96.85 122.85 -93.75 Q116.2 -88.6 107.5 -90.85 L104.45 -91.65 103.8 -89.15 102.45 -89.15 102.2 -94.75 Q99.3 -94.3 96.4 -95.7 L94.95 -96.35 99.95 -105.25 92.75 -102.35 84.95 -104.25 92.6 -105.45 91.45 -109.8 Q91.0 -112.25 90.95 -114.85 93.55 -132.8 112.55 -134.35 117.8 -135.05 122.55 -133.35 L122.65 -133.3 122.85 -133.15 M122.85 -77.45 L122.75 -73.05 113.55 -73.8 111.05 -74.35 Q113.9 -69.05 118.15 -64.75 L120.7 -62.15 120.8 -60.7 120.7 -60.65 120.55 -60.65 120.5 -60.6 120.6 -60.4 120.65 -60.25 120.3 -59.95 Q117.6 -59.65 114.7 -59.85 110.7 -59.95 107.45 -62.05 113.35 -44.35 109.55 -26.35 105.9 -27.95 102.25 -31.35 99.9 -33.6 97.7 -36.0 97.0 -15.35 105.1 3.9 L91.55 0.6 Q94.05 18.6 95.95 36.75 L90.7 35.1 Q91.5 47.15 87.0 58.15 L80.75 50.7 Q75.55 67.05 80.8 83.5 82.35 88.35 82.65 93.65 L82.65 94.35 Q81.55 93.1 80.25 92.45 75.85 90.15 70.95 89.85 77.45 109.95 72.35 129.55 L62.2 123.3 Q64.65 137.4 72.05 149.4 67.1 150.8 62.1 149.5 58.6 148.65 55.3 147.0 72.4 164.2 80.2 186.4 81.8 190.95 80.35 195.6 79.2 199.4 76.95 202.7 81.75 209.8 83.15 218.45 L83.55 220.0 80.7 222.6 Q87.55 239.6 92.65 257.1 L50.0 258.7 49.75 258.3 47.5 258.15 47.8 258.7 -117.2 258.85 -117.2 248.45 -115.2 253.8 -112.75 253.9 -68.25 255.85 Q-44.95 256.75 -21.55 256.25 L20.9 255.1 Q26.2 255.2 31.55 254.0 L32.95 253.8 33.4 254.45 34.15 254.75 38.15 254.05 Q38.55 240.1 32.65 227.35 39.45 228.15 45.3 225.6 32.5 217.75 29.7 203.0 L35.1 199.85 Q33.25 192.65 26.95 189.2 L25.6 188.55 25.1 186.55 37.7 184.35 37.85 184.35 43.25 184.2 Q34.9 175.7 23.45 172.05 L23.3 170.6 Q28.5 168.45 32.65 164.75 L35.0 162.55 26.9 157.2 34.05 158.35 Q35.15 153.4 34.7 148.5 38.5 148.25 42.05 150.05 L45.3 151.9 47.75 153.8 Q48.1 149.8 47.15 145.85 46.65 143.75 45.6 142.05 L44.8 140.9 45.85 140.35 Q52.7 141.25 58.6 144.7 62.45 146.95 66.9 146.6 59.9 133.75 58.0 119.05 L70.5 124.25 Q72.35 105.2 67.05 86.3 71.6 85.45 76.5 88.1 L79.75 89.75 80.35 90.0 Q75.75 73.65 76.15 56.85 76.25 52.5 77.7 48.2 L76.5 44.9 77.3 44.55 86.0 52.0 Q87.95 43.0 87.55 33.9 87.45 31.2 86.95 28.55 L92.6 32.3 Q87.9 13.9 89.05 -4.65 L100.85 -0.65 Q90.05 -20.55 96.2 -42.15 L107.2 -32.4 Q108.35 -43.0 105.95 -53.25 104.7 -60.15 103.15 -64.55 L110.7 -64.35 115.1 -63.15 107.65 -73.35 106.2 -79.75 122.85 -77.45 M-117.2 231.25 L-117.2 224.25 -114.3 224.6 -114.25 224.9 Q-113.85 228.8 -117.2 231.25 M-117.2 216.4 L-117.2 211.25 Q-110.6 202.9 -109.9 192.25 L-117.2 189.75 -117.2 187.45 Q-113.75 187.75 -110.65 189.3 L-106.7 191.15 -106.8 192.1 Q-108.35 205.7 -117.2 216.4 M-117.2 193.95 L-117.2 191.1 -113.15 192.1 -112.75 193.3 -113.4 194.15 -117.2 193.95 M-117.2 185.95 L-117.2 182.35 Q-112.95 176.25 -107.3 171.25 L-107.35 169.75 -108.05 168.9 Q-109.95 167.2 -112.4 166.55 L-117.2 165.85 -117.2 160.2 Q-114.7 156.4 -110.7 154.2 L-109.8 153.7 Q-106.5 151.7 -102.6 151.05 L-105.6 148.35 Q-108.1 146.1 -109.2 143.05 L-109.05 143.05 Q-101.0 141.75 -96.95 135.3 L-96.7 134.8 -93.6 138.15 -95.8 139.9 Q-99.95 143.1 -105.05 144.3 L-104.5 145.6 -97.55 152.6 Q-103.35 154.55 -108.75 157.4 -112.65 159.55 -115.65 163.0 L-112.45 163.85 Q-107.15 165.5 -104.4 170.2 L-117.2 185.95 M-117.2 128.75 L-117.2 125.8 -112.05 124.2 -117.2 122.45 -117.2 119.25 Q-111.35 119.15 -106.6 122.5 L-106.95 123.6 Q-107.6 126.05 -107.35 128.45 L-107.65 128.85 -107.2 128.6 -106.9 128.8 -106.7 128.45 -106.35 128.4 Q-99.9 127.85 -95.5 133.0 L-97.3 133.9 -98.1 133.5 Q-100.4 132.05 -102.95 131.9 L-110.0 131.6 -109.95 126.8 -117.2 128.75 M-117.2 63.85 L-117.2 62.85 -116.95 62.95 Q-116.3 63.5 -117.2 63.85 M-117.2 37.6 L-117.2 26.2 -116.1 26.0 -115.75 28.3 -115.75 28.6 -115.75 29.85 -117.2 37.6 M-117.2 -96.7 L-117.2 -106.3 -111.8 -104.65 -117.2 -96.7 M-117.2 -111.25 L-117.2 -119.1 -109.2 -117.8 -109.05 -117.3 -109.2 -117.0 Q-112.35 -113.15 -117.2 -111.25 M-117.2 -136.95 L-117.2 -142.45 Q-113.35 -138.65 -108.0 -137.5 -106.2 -137.1 -104.85 -138.1 -104.3 -139.3 -104.3 -140.35 -104.25 -143.5 -102.6 -146.3 L-101.7 -146.3 Q-100.5 -146.05 -99.45 -145.4 -98.05 -144.65 -96.4 -144.15 -98.75 -146.8 -99.2 -150.4 L-99.85 -153.8 -87.25 -153.25 Q-87.7 -160.1 -90.5 -166.3 -93.4 -172.7 -100.2 -174.1 -106.85 -175.25 -113.1 -173.15 L-117.2 -171.7 -117.2 -175.35 -114.75 -176.3 Q-105.2 -179.7 -95.65 -175.8 -91.9 -174.05 -89.3 -170.9 L-89.05 -170.6 -89.0 -170.55 Q-85.6 -166.05 -85.35 -159.2 L-85.4 -156.2 -85.4 -153.75 -81.3 -154.95 -78.9 -155.45 Q-85.35 -147.1 -96.2 -150.75 -95.95 -146.3 -93.35 -142.35 L-92.95 -141.25 -96.05 -140.75 -101.95 -143.15 -103.0 -132.95 -105.0 -131.85 -105.35 -132.8 Q-111.7 -133.65 -117.2 -136.95 M86.05 52.3 L86.1 52.3 86.1 52.25 86.05 52.3 M22.6 53.5 L23.05 53.45 Q35.95 50.45 48.2 54.95 L47.4 54.8 Q59.15 66.85 50.75 81.0 48.8 84.3 45.45 85.85 30.8 92.35 18.7 81.4 15.45 78.45 14.7 74.0 12.65 61.5 22.6 53.5 M-82.65 34.85 L-79.45 35.1 Q-65.6 36.1 -53.05 41.7 -48.0 51.05 -52.1 61.05 -53.45 64.4 -56.25 66.45 -70.75 77.2 -86.55 67.05 -88.45 65.35 -89.75 63.2 -91.85 58.65 -92.15 54.35 -92.7 47.45 -89.2 41.35 -86.85 37.2 -82.65 34.85 M25.8 83.1 Q41.85 89.85 50.5 75.0 L51.35 73.25 Q42.5 83.6 28.15 79.35 21.75 77.45 17.3 72.45 18.45 78.9 24.2 82.2 L25.8 83.1 M41.55 59.8 Q43.2 57.65 41.1 56.2 32.85 50.55 31.5 59.5 36.25 66.5 41.55 59.8 M15.0 101.7 L16.0 100.95 15.9 102.85 15.4 103.45 Q7.1 109.75 -3.15 111.25 L-5.05 111.55 -6.2 111.65 Q-31.8 115.85 -51.9 99.6 -56.1 96.25 -57.35 91.25 -57.8 89.5 -56.8 88.0 L-56.25 87.75 Q-47.95 100.9 -32.8 106.1 -28.05 107.65 -23.35 108.45 L-21.6 99.85 Q-24.65 98.35 -26.8 95.55 -31.1 89.9 -33.0 83.15 -20.8 80.4 -8.55 84.6 -5.35 85.8 -3.75 88.75 -5.2 91.85 -8.0 93.9 -11.6 96.6 -15.55 98.9 -17.25 100.0 -19.15 100.25 L-20.4 103.8 -20.85 106.15 -20.8 107.35 -20.6 108.55 Q-6.1 110.5 7.6 105.7 L10.75 104.6 14.1 102.4 15.0 101.7 M61.4 159.45 Q56.85 152.75 50.4 147.55 50.85 152.1 49.75 156.55 L49.1 158.1 Q44.05 153.8 37.75 151.55 38.75 155.75 36.35 159.2 L35.95 159.5 41.35 159.95 Q35.55 166.05 28.7 171.05 28.75 171.3 28.95 171.4 34.15 175.2 40.25 177.7 44.85 180.7 46.75 185.8 L44.2 186.25 32.05 187.45 Q31.3 187.35 30.6 187.7 L34.45 193.4 Q37.05 197.7 40.25 201.3 L32.5 204.7 Q34.6 211.95 39.6 217.45 44.15 222.55 50.75 225.05 L49.2 226.4 Q46.15 228.85 42.15 229.5 L36.95 229.95 37.45 232.4 Q55.75 233.55 71.35 224.4 75.9 221.8 80.2 218.65 L78.8 215.5 75.3 204.8 73.05 205.95 Q78.45 198.15 77.4 189.05 76.4 179.95 71.15 172.35 66.5 165.7 61.4 159.45 M87.35 253.7 Q86.25 253.85 88.25 254.05 87.35 253.85 87.35 253.7 M68.35 204.4 L71.7 201.35 Q71.35 205.9 66.1 208.85 62.05 212.75 56.55 211.35 54.2 210.85 52.1 209.7 47.1 206.8 41.25 205.65 L40.85 204.95 Q47.8 205.8 54.7 208.0 57.0 208.8 59.4 209.3 64.7 208.5 68.35 204.4 M60.6 254.2 L87.25 253.5 Q84.95 238.45 77.05 225.15 L76.15 225.85 Q66.85 232.25 55.75 233.8 47.0 235.55 38.25 235.0 L38.95 237.15 40.35 246.85 Q40.65 249.2 40.05 251.6 L41.0 251.9 41.3 254.1 43.35 253.95 60.6 254.2 M-75.45 42.65 Q-75.6 46.9 -71.65 47.95 -68.2 48.8 -65.65 46.55 -63.5 44.7 -64.7 41.95 -65.4 40.35 -67.0 39.15 -68.15 38.25 -69.75 38.3 -74.4 38.35 -75.45 42.65 M-53.6 56.95 Q-64.35 66.05 -78.15 63.0 -80.25 62.6 -82.1 61.35 -87.1 58.1 -89.25 52.3 -89.5 57.9 -86.7 62.55 -85.15 65.2 -82.55 66.55 -76.1 69.75 -68.9 68.95 -57.7 67.6 -53.6 56.95 M-23.85 84.55 L-24.6 85.05 Q-20.2 87.85 -15.0 87.75 L-14.95 86.9 Q-19.0 84.25 -23.85 84.55" fill="#000000" fill-rule="evenodd" stroke="none"/>
    <path d="M-94.1 -191.45 Q-89.05 -191.65 -85.0 -188.35 -82.85 -186.65 -81.25 -184.7 -77.55 -180.2 -76.8 -174.3 -74.4 -172.1 -73.55 -168.95 -71.85 -162.9 -72.85 -156.6 -73.1 -154.8 -73.75 -153.4 -77.25 -146.3 -85.95 -144.3 L-83.35 -141.95 -82.55 -140.85 Q-83.55 -139.75 -84.9 -139.3 L-89.2 -138.65 -93.5 -138.25 -90.85 -133.55 -97.55 -124.85 Q-87.15 -129.0 -79.45 -136.95 L-75.8 -140.15 Q-66.35 -147.3 -54.45 -149.15 -55.2 -149.9 -56.4 -150.3 L-58.85 -151.25 Q-60.95 -152.15 -62.35 -153.75 -57.4 -155.45 -52.2 -155.9 -42.5 -156.5 -35.35 -163.75 -35.45 -159.85 -32.0 -158.25 -30.9 -157.75 -29.8 -158.0 -14.7 -162.35 0.15 -167.7 L-0.8 -165.95 -2.95 -159.8 Q-3.8 -157.05 -3.55 -154.3 7.65 -154.8 18.6 -156.8 18.1 -153.35 18.05 -150.0 18.0 -148.35 19.45 -147.7 23.0 -146.35 26.6 -148.6 37.3 -155.3 50.85 -153.35 44.25 -144.2 48.8 -135.15 49.5 -133.7 50.85 -132.95 66.9 -124.65 77.2 -110.05 71.5 -111.5 65.5 -111.1 79.7 -90.5 88.85 -67.4 L81.8 -71.2 Q78.6 -72.95 75.05 -73.8 82.0 -53.4 84.65 -31.2 L83.25 -32.1 Q77.5 -36.35 72.95 -41.85 L71.9 -41.85 Q73.35 -34.1 73.5 -26.3 73.75 -12.2 70.8 1.85 L67.9 -1.3 Q64.95 -5.05 64.4 -9.9 L63.35 -9.9 Q61.7 13.05 63.35 36.0 L61.9 34.55 Q58.65 31.5 54.85 29.6 54.25 38.55 57.05 46.9 L52.2 46.15 42.55 45.75 Q19.15 47.95 -2.25 39.75 -4.25 36.35 -3.7 32.4 -3.4 30.5 -4.2 28.65 -4.95 26.9 -6.4 25.75 -8.0 26.2 -9.15 27.55 -12.65 31.75 -15.05 36.5 L-16.15 36.3 Q-16.75 36.8 -17.45 36.9 -23.65 38.6 -30.05 37.8 -57.15 33.8 -83.9 28.4 -95.7 26.05 -105.2 32.25 L-97.35 33.1 -97.05 33.4 -93.95 33.9 Q-95.3 35.2 -95.95 37.25 -96.9 40.2 -97.45 43.3 L-95.1 41.55 -94.15 42.05 Q-93.95 42.75 -94.2 43.45 L-94.95 44.85 -98.0 49.05 -95.5 48.45 -95.35 48.8 Q-95.25 49.6 -95.4 50.4 -95.5 51.15 -95.9 51.8 L-98.3 55.2 -98.25 57.75 -97.8 57.95 Q-98.15 64.25 -93.65 69.05 -83.85 79.3 -69.1 78.4 -51.2 76.7 -43.35 61.1 L-42.5 61.0 -42.5 64.8 -39.05 59.6 -38.8 60.7 -37.3 60.55 -37.95 62.35 -37.5 62.2 -34.15 58.0 -34.4 59.0 -34.8 61.15 -34.8 61.7 -34.65 62.15 -34.45 62.6 -34.15 62.9 -31.4 59.8 Q-29.9 58.05 -28.9 55.9 L-28.4 55.65 -27.45 56.45 -27.5 60.0 -23.55 56.8 -24.1 60.65 -22.65 61.9 -21.65 61.05 -20.9 60.2 -19.7 58.45 -19.05 56.9 -18.35 56.95 -18.4 65.15 -17.45 64.95 -17.15 64.6 -16.1 62.65 -14.85 59.85 -14.55 60.65 -13.65 60.55 -13.55 60.35 -13.5 60.2 -13.15 59.35 -12.7 58.75 -11.35 57.55 -11.4 59.05 -11.35 62.15 Q-11.15 63.4 -10.15 64.25 L-9.5 64.75 -8.15 64.8 -7.75 63.2 -7.2 65.2 -6.25 64.75 -5.4 60.7 -3.1 66.3 -3.2 63.0 -3.2 62.9 -2.9 62.7 -2.5 62.45 -2.25 62.75 -1.95 62.55 -1.85 62.75 0.05 67.5 0.15 66.8 0.95 67.75 1.65 67.15 2.2 69.75 4.15 71.25 4.5 69.25 4.85 69.1 5.1 69.1 5.45 70.2 7.75 70.95 8.3 70.85 8.7 71.0 12.3 85.05 Q14.3 86.65 16.5 88.1 20.65 90.7 25.35 92.35 39.6 97.45 51.45 90.0 L57.5 103.0 56.95 103.0 Q54.1 102.25 51.25 101.1 47.8 99.9 44.25 99.9 45.75 102.45 46.35 105.1 48.85 115.8 46.35 126.55 L35.75 121.25 Q35.05 134.2 28.75 145.35 L27.65 144.7 27.1 144.3 26.15 143.15 24.2 139.65 22.65 141.5 Q2.8 160.85 -24.65 167.45 L-25.15 166.55 Q-30.15 161.55 -36.8 165.6 -41.15 168.3 -43.35 173.2 -47.0 167.2 -52.05 162.45 -55.15 159.55 -58.65 160.85 L-59.15 159.3 Q-67.2 156.15 -73.95 150.5 -77.35 147.65 -79.45 144.15 -92.85 121.6 -117.2 113.3 L-117.2 91.9 -116.0 90.85 Q-110.7 86.8 -111.5 80.6 L-117.2 80.15 -117.2 70.8 -113.15 64.7 Q-108.55 57.65 -117.2 56.95 L-117.2 46.2 -115.75 44.0 Q-109.8 34.65 -109.15 24.05 L-109.8 23.55 -117.2 23.45 -117.2 13.45 Q-115.85 11.45 -115.15 9.25 -112.95 2.75 -112.4 -3.85 L-117.2 -4.55 -117.2 -33.4 Q-114.5 -38.95 -113.35 -44.95 L-113.35 -45.4 -117.2 -47.2 -117.2 -62.85 Q-113.7 -67.8 -112.05 -73.8 -109.45 -83.35 -117.2 -87.2 L-117.2 -90.5 Q-109.75 -97.2 -105.15 -106.0 L-105.8 -106.6 Q-106.95 -107.55 -108.2 -108.25 L-110.95 -109.4 Q-110.15 -109.8 -109.4 -110.35 -103.55 -114.7 -98.95 -120.55 L-98.95 -121.2 -100.3 -121.35 Q-108.85 -121.0 -117.2 -122.45 L-117.2 -135.5 Q-110.95 -133.3 -105.2 -130.05 L-102.05 -131.15 -102.0 -132.85 -103.0 -132.95 -101.95 -143.15 -96.05 -140.75 -92.95 -141.25 -93.35 -142.35 Q-95.95 -146.3 -96.2 -150.75 -85.35 -147.1 -78.9 -155.45 L-81.3 -154.95 Q-81.5 -169.15 -92.45 -177.35 -103.7 -185.65 -117.2 -178.65 L-117.2 -186.95 Q-110.8 -188.75 -104.3 -190.0 L-94.9 -191.4 -94.1 -191.45 M-29.45 -162.75 L-26.4 -162.4 -28.9 -162.25 -29.45 -162.75 M61.65 -156.65 L61.9 -156.45 61.6 -156.65 61.45 -156.75 61.65 -156.65 M67.4 -131.9 L68.05 -131.35 67.25 -131.15 67.4 -131.9 M77.45 -131.25 L78.4 -125.9 77.0 -130.4 77.45 -131.25 M84.2 -128.6 Q85.3 -133.2 87.7 -137.3 90.0 -141.3 93.9 -144.15 105.9 -152.95 121.1 -149.8 L122.3 -151.7 122.85 -151.25 122.85 -144.45 118.6 -144.95 Q120.6 -142.5 121.3 -139.3 118.45 -140.7 115.45 -140.95 96.35 -143.75 89.4 -125.45 L88.35 -132.4 Q86.4 -130.3 85.7 -127.6 L85.25 -127.35 84.2 -128.6 M122.85 -133.2 L122.85 -133.15 122.65 -133.3 122.85 -133.2 M-117.2 37.7 L-117.2 37.6 -115.75 29.85 Q-115.55 33.45 -116.8 36.8 L-117.2 37.7 M1.5 -159.05 L1.5 -159.0 Q1.1 -159.5 1.5 -159.05 M14.0 -115.35 Q12.75 -114.6 11.45 -113.15 L10.9 -113.7 Q12.4 -115.0 14.0 -115.35 M4.2 -87.4 L6.45 -89.4 5.65 -86.4 2.5 -84.05 4.2 -87.4 M8.65 -85.15 Q9.4 -86.5 11.15 -87.95 11.25 -86.65 10.45 -84.9 L8.45 -81.25 8.65 -85.15 M14.75 -84.75 Q15.15 -87.35 17.15 -88.65 L17.7 -88.9 18.3 -88.25 18.45 -85.35 17.8 -82.05 18.9 -81.9 19.45 -84.7 19.8 -84.2 19.9 -82.85 19.35 -82.8 19.9 -82.75 20.65 -78.05 21.4 -77.8 22.1 -77.7 22.8 -77.7 23.5 -77.9 23.8 -78.1 24.35 -78.6 Q24.55 -82.4 25.45 -86.05 29.1 -101.25 21.35 -114.6 L19.5 -116.9 Q15.0 -120.9 9.55 -114.8 L8.75 -115.25 7.7 -114.25 Q-5.05 -97.7 3.6 -78.25 2.65 -78.05 1.85 -77.6 -8.65 -72.75 -16.4 -63.4 L-14.35 -71.65 -12.7 -74.5 -13.35 -71.7 -14.45 -69.6 -13.5 -70.9 -13.65 -69.05 -11.25 -73.9 -8.25 -76.95 -10.9 -74.75 Q-7.75 -79.8 -9.95 -85.35 -14.7 -97.6 -26.85 -99.95 -29.0 -100.5 -30.55 -99.25 -35.85 -95.1 -36.85 -88.35 L-35.55 -88.9 -34.85 -85.85 -35.9 -84.8 Q-37.55 -83.1 -37.4 -80.6 -36.4 -80.85 -35.7 -81.65 -34.8 -82.65 -34.4 -84.0 L-32.4 -80.0 -31.55 -80.65 -31.3 -82.05 -30.4 -82.5 Q-29.35 -79.6 -31.45 -77.15 L-31.35 -76.7 -31.25 -76.4 -26.45 -79.1 Q-25.55 -75.3 -27.35 -71.4 L-27.4 -71.2 Q-27.3 -71.2 -27.15 -71.3 L-23.15 -73.85 Q-22.45 -72.2 -23.55 -70.8 L-24.3 -69.95 -20.65 -69.5 -20.85 -62.65 -19.65 -66.0 -19.5 -65.55 Q-19.3 -63.65 -17.8 -62.65 L-18.65 -62.3 Q-19.1 -57.5 -19.15 -52.65 L-23.75 -40.8 -19.75 -44.6 -17.0 -47.05 Q-17.55 -45.6 -19.8 -43.35 L-24.1 -39.95 -24.8 -37.9 -22.9 -36.9 -20.0 -39.65 -16.2 -43.05 Q-15.55 -37.8 -20.2 -34.3 L-21.15 -33.4 Q-22.65 -24.25 -22.75 -15.35 -20.9 -14.6 -19.25 -15.3 L-18.55 -18.1 Q-19.15 -16.85 -20.3 -16.1 -20.9 -15.7 -21.6 -15.45 L-17.75 -24.05 -14.55 -29.8 Q-13.55 -27.75 -14.8 -25.25 L-15.85 -22.6 Q-16.35 -18.85 -14.35 -15.5 L-13.5 -14.45 -11.8 -17.15 -10.55 -18.5 Q-9.7 -16.55 -10.8 -14.45 L-11.55 -13.95 -10.8 -1.3 Q-10.9 5.85 -7.0 11.75 L-5.95 13.25 -4.05 12.65 -3.25 4.75 -2.9 5.05 Q0.0 1.8 1.15 -2.45 L3.15 -0.05 4.1 -0.7 Q6.4 -2.65 6.5 -5.7 L7.3 -7.25 Q7.4 -4.45 8.85 -2.3 L9.45 -1.5 10.2 -2.1 11.0 -6.9 11.1 -6.1 Q12.25 -6.4 12.7 -7.65 L13.15 -8.8 Q15.2 -9.45 17.65 -10.6 20.4 -11.85 22.7 -13.85 L20.25 -13.9 20.05 -19.4 17.6 -14.6 Q16.95 -13.3 15.7 -12.55 L14.85 -11.35 Q14.1 -12.15 12.9 -12.4 L11.85 -12.05 11.0 -7.9 9.45 -7.75 9.35 -12.3 Q9.65 -14.05 10.95 -15.3 L12.65 -16.55 12.5 -15.6 12.95 -16.6 15.05 -18.15 Q16.5 -23.6 18.85 -28.65 19.3 -29.65 20.1 -30.35 L20.55 -23.35 21.3 -26.95 22.65 -27.25 23.1 -26.1 23.45 -23.65 24.9 -23.9 25.35 -25.2 27.25 -25.35 27.65 -22.7 Q32.55 -28.2 34.65 -35.35 L32.6 -35.7 33.2 -36.4 Q34.9 -38.25 33.95 -40.6 L33.0 -39.95 Q34.95 -44.25 33.45 -48.9 L29.1 -61.9 Q25.0 -74.0 14.6 -79.3 L14.85 -80.35 16.25 -79.1 17.7 -80.0 17.45 -81.4 16.2 -80.0 15.25 -80.4 15.95 -82.5 15.7 -83.2 14.75 -80.8 13.85 -80.25 14.75 -84.75 M3.7 -78.1 L5.4 -78.3 5.95 -80.05 7.2 -80.25 7.35 -79.55 Q10.4 -79.05 11.5 -82.5 L11.45 -79.95 11.45 -78.6 Q8.1 -75.85 4.4 -77.6 L3.7 -78.1 M51.55 -94.2 L51.45 -94.6 51.0 -94.65 49.0 -94.95 Q38.85 -94.85 32.4 -86.3 L30.15 -82.2 Q26.15 -71.4 33.6 -62.8 32.4 -58.4 35.55 -56.55 L38.25 -58.35 38.65 -56.85 39.05 -57.05 41.3 -56.75 Q41.95 -56.8 42.4 -57.3 L42.55 -58.05 43.15 -56.0 42.85 -64.35 43.0 -65.5 43.05 -66.85 43.3 -69.25 45.15 -69.8 45.95 -66.3 46.3 -64.65 46.5 -66.7 47.45 -67.35 48.0 -70.7 48.3 -71.25 48.6 -71.15 50.8 -69.7 51.65 -68.65 Q52.75 -71.2 55.5 -71.4 L54.25 -73.5 53.8 -76.2 55.5 -75.2 56.55 -74.1 57.7 -76.65 Q62.3 -88.0 51.55 -94.2 M57.65 -79.3 L57.3 -79.15 57.25 -79.7 57.65 -79.3 M50.4 -62.0 L51.25 -67.45 48.9 -68.45 Q48.5 -65.25 49.8 -62.3 L50.05 -63.0 50.4 -62.0 M44.95 -54.3 L46.25 -54.95 46.2 -60.7 44.6 -62.7 Q44.35 -59.55 44.55 -54.5 L44.95 -54.3 M52.1 -58.05 Q54.85 -62.55 55.3 -67.85 52.5 -63.65 51.85 -58.4 L52.1 -58.05 M37.85 184.35 L37.7 184.35 37.8 184.3 37.85 184.35 M20.9 255.1 L-21.55 256.25 Q-44.95 256.75 -68.25 255.85 L-112.75 253.9 -112.4 252.75 -112.3 252.0 -114.3 241.0 Q-114.9 237.7 -114.1 234.55 -113.8 233.25 -112.9 232.4 -109.05 228.55 -109.0 223.25 L-112.1 220.2 Q-110.4 218.6 -109.3 216.3 -103.95 204.85 -101.15 192.55 -100.9 191.4 -101.0 190.2 -101.2 187.4 -104.0 186.5 L-112.65 183.85 -98.85 170.3 Q-101.05 164.45 -106.05 160.5 -101.7 158.05 -96.45 159.25 -95.45 156.75 -93.1 155.5 L-92.55 156.2 -92.75 158.2 -89.65 156.15 -90.15 155.55 -88.8 155.75 -86.45 161.05 Q-91.4 161.75 -91.75 166.5 -92.0 170.35 -88.45 171.25 -84.3 172.4 -82.75 168.75 L-82.35 168.6 Q-80.05 166.7 -77.35 167.85 L-78.7 172.5 -79.95 174.1 -79.2 175.45 -77.85 175.1 -75.45 176.2 -76.85 179.3 Q-73.5 185.85 -67.6 189.3 -68.2 196.5 -66.15 203.35 -65.25 206.3 -62.4 206.8 -58.6 207.6 -56.45 204.15 -54.15 200.5 -53.4 196.2 L-53.05 196.5 -51.8 197.7 -51.55 197.35 -45.9 193.2 -45.55 191.9 -44.8 191.55 -44.7 192.1 Q-44.6 194.35 -45.05 196.7 L-44.5 196.3 Q-42.6 193.35 -42.75 189.8 L-41.9 189.8 -41.7 193.6 -41.2 192.65 -41.55 191.5 -40.2 191.6 -40.15 191.6 Q-36.65 190.8 -33.55 189.65 L-33.6 189.95 Q-34.85 192.8 -38.05 193.8 -37.15 194.45 -36.3 195.05 L-36.4 195.55 -36.05 195.8 -33.6 197.25 -28.15 202.3 Q-37.75 202.7 -33.2 211.1 -32.15 212.95 -33.3 214.8 L-37.75 222.75 Q-38.6 224.45 -36.9 225.25 L-35.3 225.7 Q-26.35 219.45 -27.25 208.65 L-25.0 208.35 -20.95 209.95 -20.55 210.75 -19.45 210.25 -19.2 209.85 Q-19.0 209.95 -18.85 210.0 L-17.3 208.95 -17.3 211.15 -15.0 211.35 -14.6 207.0 -14.4 207.8 Q-14.15 209.1 -13.0 209.65 -11.8 210.25 -10.9 209.4 L-10.8 203.95 -8.95 202.65 Q-3.2 211.75 -6.95 222.35 -9.85 230.6 -4.4 236.5 L-4.4 236.95 -0.5 237.75 Q7.65 233.65 5.8 223.5 5.05 219.3 4.6 215.05 13.6 217.15 15.0 208.35 16.25 200.6 14.2 192.95 L15.8 190.6 16.9 193.2 18.3 192.7 17.8 189.0 20.85 191.1 25.9 195.35 20.3 194.8 19.8 195.35 Q24.9 205.9 26.6 217.2 L24.85 216.45 Q21.35 214.55 17.45 215.5 18.55 230.45 30.2 238.7 L19.95 241.2 Q22.8 245.25 22.8 250.15 22.8 253.1 20.9 255.1 M41.55 59.8 Q36.25 66.5 31.5 59.5 32.85 50.55 41.1 56.2 43.2 57.65 41.55 59.8 M15.9 102.85 L16.0 100.95 15.0 101.7 14.75 101.5 Q13.25 101.8 12.6 103.3 L10.75 104.6 7.6 105.7 Q-6.1 110.5 -20.6 108.55 L-20.8 107.35 -20.85 106.15 -20.4 103.8 -19.15 100.25 Q-17.25 100.0 -15.55 98.9 -11.6 96.6 -8.0 93.9 -5.2 91.85 -3.75 88.75 -5.35 85.8 -8.55 84.6 -20.8 80.4 -33.0 83.15 -31.1 89.9 -26.8 95.55 -24.65 98.35 -21.6 99.85 L-23.35 108.45 Q-28.05 107.65 -32.8 106.1 -47.95 100.9 -56.25 87.75 L-56.8 88.0 Q-57.8 89.5 -57.35 91.25 -56.1 96.25 -51.9 99.6 -31.8 115.85 -6.2 111.65 L-6.1 113.25 Q-5.9 115.1 -4.45 116.25 -3.25 117.3 -1.8 116.9 L-0.2 115.35 Q-0.35 121.0 3.65 124.35 L3.5 126.1 Q3.3 128.95 4.95 130.3 L5.4 126.5 6.15 126.85 7.3 125.05 11.15 123.15 11.6 120.05 12.05 120.05 12.85 118.85 Q17.55 111.35 15.9 102.85 M-60.6 163.25 L-59.85 163.45 Q-59.55 163.65 -59.55 163.95 L-60.6 163.25 M-95.65 -175.8 Q-93.4 -175.45 -91.8 -174.2 -90.2 -173.0 -89.05 -170.6 L-89.3 -170.9 Q-91.9 -174.05 -95.65 -175.8 M-85.35 -159.2 Q-85.05 -158.9 -85.1 -158.3 L-85.4 -156.2 -85.35 -159.2 M-89.1 -13.15 Q-88.05 -18.8 -85.8 -24.2 -92.95 -13.9 -96.7 0.45 L-92.55 -0.85 -92.1 -0.25 Q-93.35 3.2 -95.8 6.1 -97.75 8.35 -100.2 9.95 L-100.1 10.8 -98.2 10.9 -98.5 11.6 -97.85 11.75 -99.05 13.65 -105.2 21.6 -82.0 10.05 -82.2 9.65 -86.7 9.25 -87.8 8.45 Q-80.75 -0.15 -71.5 -6.5 L-74.45 -5.3 -74.0 -6.3 Q-78.95 -4.1 -83.9 -2.6 -85.6 -2.15 -86.7 -0.7 L-85.75 -2.1 -86.55 -1.7 -86.6 -2.55 Q-86.55 -4.0 -85.85 -5.3 L-83.65 -9.05 -85.95 -7.65 Q-87.85 -6.45 -89.95 -5.9 L-91.6 -5.5 -89.05 -12.3 -89.1 -13.15 M-30.05 -69.45 L-29.95 -71.2 Q-31.85 -68.5 -29.95 -65.45 L-28.5 -66.8 -29.35 -66.45 -30.05 -69.45 M-24.4 -62.65 L-23.45 -61.35 -23.9 -64.55 -24.4 -62.65 M-75.45 42.65 Q-74.4 38.35 -69.75 38.3 -68.15 38.25 -67.0 39.15 -65.4 40.35 -64.7 41.95 -63.5 44.7 -65.65 46.55 -68.2 48.8 -71.65 47.95 -75.6 46.9 -75.45 42.65 M-23.85 84.55 Q-19.0 84.25 -14.95 86.9 L-15.0 87.75 Q-20.2 87.85 -24.6 85.05 L-23.85 84.55 M-115.75 28.3 L-115.55 28.25 -115.75 28.6 -115.75 28.3 M-107.35 128.45 L-107.2 128.6 -107.65 128.85 -107.35 128.45 M-90.25 177.3 L-90.95 180.95 Q-99.35 182.05 -99.2 191.0 -99.15 192.45 -98.5 193.7 -90.1 209.8 -92.9 227.75 -93.8 233.4 -89.15 236.3 -84.05 239.35 -80.8 234.15 -77.8 229.35 -76.3 223.6 -73.3 212.1 -80.0 203.45 -77.65 205.0 -75.5 203.2 -72.9 201.15 -71.95 197.8 -69.8 190.3 -76.4 189.8 L-75.95 192.1 -79.2 191.25 Q-83.4 189.65 -82.05 185.65 -78.85 176.2 -86.95 173.1 L-88.35 174.1 Q-89.9 175.25 -90.25 177.3 M-16.15 123.35 L-18.3 123.05 Q-25.4 120.8 -32.75 120.05 -35.0 123.4 -31.75 125.75 -27.3 129.05 -21.9 128.3 -15.6 128.65 -16.15 123.35" fill="#ffffff" fill-rule="evenodd" stroke="none"/>
    <path d="M-117.2 -190.35 Q-105.15 -194.7 -94.1 -191.45 L-94.9 -191.4 -104.3 -190.0 Q-110.8 -188.75 -117.2 -186.95 L-117.2 -190.35 M-81.25 -184.7 Q-78.5 -182.25 -76.5 -179.05 -69.4 -167.45 -70.95 -154.2 L-67.0 -155.35 Q-61.55 -158.8 -57.5 -163.6 L-55.05 -166.55 -55.6 -158.75 Q-48.5 -157.55 -43.15 -162.4 -37.45 -167.55 -31.2 -172.25 -32.55 -168.2 -31.55 -164.8 -31.25 -163.65 -30.05 -163.1 L-29.45 -162.75 -28.9 -162.25 -26.4 -162.4 7.3 -172.25 Q5.4 -170.3 4.15 -167.9 L3.0 -165.4 2.15 -162.75 Q1.4 -160.0 2.45 -158.55 12.75 -157.7 22.45 -160.1 L22.5 -159.55 22.0 -154.1 21.6 -152.3 21.0 -150.5 30.05 -154.15 29.6 -154.05 Q45.6 -159.85 62.25 -156.85 L61.65 -156.65 61.45 -156.75 61.6 -156.65 Q52.3 -152.75 53.2 -142.35 L53.45 -140.0 69.95 -140.65 Q66.1 -137.3 67.4 -131.9 L67.25 -131.15 68.05 -131.35 Q72.45 -129.75 76.25 -132.55 L77.1 -133.05 77.45 -131.25 77.0 -130.4 78.4 -125.9 79.4 -119.35 80.8 -119.2 84.2 -128.6 85.25 -127.35 85.7 -127.6 Q86.4 -130.3 88.35 -132.4 L89.4 -125.45 Q96.35 -143.75 115.45 -140.95 118.45 -140.7 121.3 -139.3 120.6 -142.5 118.6 -144.95 L122.85 -144.45 122.85 -133.2 122.65 -133.3 122.55 -133.35 Q117.8 -135.05 112.55 -134.35 93.55 -132.8 90.95 -114.85 91.0 -112.25 91.45 -109.8 L92.6 -105.45 84.95 -104.25 92.75 -102.35 99.95 -105.25 94.95 -96.35 96.4 -95.7 Q99.3 -94.3 102.2 -94.75 L102.45 -89.15 103.8 -89.15 104.45 -91.65 107.5 -90.85 Q116.2 -88.6 122.85 -93.75 L122.85 -77.45 106.2 -79.75 107.65 -73.35 115.1 -63.15 110.7 -64.35 103.15 -64.55 105.95 -53.25 Q108.35 -43.0 107.2 -32.4 L96.2 -42.15 Q90.05 -20.55 100.85 -0.65 L89.05 -4.65 Q87.9 13.9 92.6 32.3 L86.95 28.55 Q87.45 31.2 87.55 33.9 87.95 43.0 86.0 52.0 L77.3 44.55 76.5 44.9 77.7 48.2 Q76.25 52.5 76.15 56.85 75.75 73.65 80.35 90.0 L79.75 89.75 76.5 88.1 Q71.6 85.45 67.05 86.3 72.35 105.2 70.5 124.25 L58.0 119.05 Q59.9 133.75 66.9 146.6 62.45 146.95 58.6 144.7 52.7 141.25 45.85 140.35 L44.8 140.9 45.6 142.05 Q46.65 143.75 47.15 145.85 48.1 149.8 47.75 153.8 L45.3 151.9 42.05 150.05 Q38.5 148.25 34.7 148.5 35.15 153.4 34.05 158.35 L26.9 157.2 35.0 162.55 32.65 164.75 Q28.5 168.45 23.3 170.6 L23.45 172.05 Q34.9 175.7 43.25 184.2 L37.85 184.35 37.8 184.3 37.7 184.35 25.1 186.55 25.6 188.55 26.95 189.2 Q33.25 192.65 35.1 199.85 L29.7 203.0 Q32.5 217.75 45.3 225.6 39.45 228.15 32.65 227.35 38.55 240.1 38.15 254.05 L34.15 254.75 33.4 254.45 32.95 253.8 31.55 254.0 Q26.2 255.2 20.9 255.1 22.8 253.1 22.8 250.15 22.8 245.25 19.95 241.2 L30.2 238.7 Q18.55 230.45 17.45 215.5 21.35 214.55 24.85 216.45 L26.6 217.2 Q24.9 205.9 19.8 195.35 L20.3 194.8 25.9 195.35 20.85 191.1 17.8 189.0 18.3 192.7 16.9 193.2 15.8 190.6 14.2 192.95 Q16.25 200.6 15.0 208.35 13.6 217.15 4.6 215.05 5.05 219.3 5.8 223.5 7.65 233.65 -0.5 237.75 L-4.4 236.95 -4.4 236.5 Q-9.85 230.6 -6.95 222.35 -3.2 211.75 -8.95 202.65 L-10.8 203.95 -10.9 209.4 Q-11.8 210.25 -13.0 209.65 -14.15 209.1 -14.4 207.8 L-14.6 207.0 -15.0 211.35 -17.3 211.15 -17.3 208.95 -18.85 210.0 Q-19.0 209.95 -19.2 209.85 L-19.45 210.25 -20.55 210.75 -20.95 209.95 -25.0 208.35 -27.25 208.65 Q-26.35 219.45 -35.3 225.7 L-36.9 225.25 Q-38.6 224.45 -37.75 222.75 L-33.3 214.8 Q-32.15 212.95 -33.2 211.1 -37.75 202.7 -28.15 202.3 L-33.6 197.25 -30.4 198.65 Q-25.15 201.2 -23.2 206.65 -28.1 203.8 -33.3 204.85 L-32.55 207.7 Q-31.6 210.2 -31.45 212.8 -31.2 218.4 -35.35 222.4 -32.5 221.3 -30.55 219.05 -29.85 218.2 -29.6 217.0 -28.35 211.7 -30.85 206.75 L-20.5 208.8 Q-23.9 200.15 -31.75 194.45 -27.55 189.85 -28.05 183.8 L-40.9 190.2 Q-35.4 190.2 -30.7 187.6 L-31.1 189.25 Q-32.3 193.55 -36.05 195.8 L-36.4 195.55 -36.3 195.05 Q-37.15 194.45 -38.05 193.8 -34.85 192.8 -33.6 189.95 L-33.55 189.65 Q-36.65 190.8 -40.15 191.6 L-40.2 191.6 -41.55 191.5 -41.2 192.65 -41.7 193.6 -41.9 189.8 -42.75 189.8 Q-42.6 193.35 -44.5 196.3 L-45.05 196.7 Q-44.6 194.35 -44.7 192.1 L-44.8 191.55 -45.55 191.9 -45.9 193.2 -51.55 197.35 -51.8 197.7 -53.05 196.5 -53.4 196.2 Q-54.15 200.5 -56.45 204.15 -58.6 207.6 -62.4 206.8 -65.25 206.3 -66.15 203.35 -68.2 196.5 -67.6 189.3 -73.5 185.85 -76.85 179.3 L-75.45 176.2 -77.85 175.1 -79.2 175.45 -79.95 174.1 -78.7 172.5 -77.35 167.85 Q-80.05 166.7 -82.35 168.6 L-82.75 168.75 Q-84.3 172.4 -88.45 171.25 -92.0 170.35 -91.75 166.5 -91.4 161.75 -86.45 161.05 L-88.8 155.75 -90.15 155.55 -89.65 156.15 -92.75 158.2 -92.55 156.2 -93.1 155.5 Q-95.45 156.75 -96.45 159.25 -101.7 158.05 -106.05 160.5 -101.05 164.45 -98.85 170.3 L-112.65 183.85 -104.0 186.5 Q-101.2 187.4 -101.0 190.2 -100.9 191.4 -101.15 192.55 -103.95 204.85 -109.3 216.3 -110.4 218.6 -112.1 220.2 L-109.0 223.25 Q-109.05 228.55 -112.9 232.4 -113.8 233.25 -114.1 234.55 -114.9 237.7 -114.3 241.0 L-112.3 252.0 -112.4 252.75 -112.75 253.9 -115.2 253.8 -117.2 248.45 -117.2 231.25 Q-113.85 228.8 -114.25 224.9 L-114.3 224.6 -117.2 224.25 -117.2 216.4 Q-108.35 205.7 -106.8 192.1 L-106.7 191.15 -110.65 189.3 Q-113.75 187.75 -117.2 187.45 L-117.2 185.95 -104.4 170.2 Q-107.15 165.5 -112.45 163.85 L-115.65 163.0 Q-112.65 159.55 -108.75 157.4 -103.35 154.55 -97.55 152.6 L-104.5 145.6 -105.05 144.3 Q-99.95 143.1 -95.8 139.9 L-93.6 138.15 -96.7 134.8 -96.95 135.3 -98.1 133.5 -97.3 133.9 -95.5 133.0 Q-99.9 127.85 -106.35 128.4 L-106.7 128.45 -106.9 128.8 -107.2 128.6 -107.35 128.45 Q-107.6 126.05 -106.95 123.6 L-106.6 122.5 Q-111.35 119.15 -117.2 119.25 L-117.2 113.3 Q-92.85 121.6 -79.45 144.15 -77.35 147.65 -73.95 150.5 -67.2 156.15 -59.15 159.3 L-58.65 160.85 Q-55.15 159.55 -52.05 162.45 -47.0 167.2 -43.35 173.2 -41.15 168.3 -36.8 165.6 -30.15 161.55 -25.15 166.55 L-24.65 167.45 Q2.8 160.85 22.65 141.5 L24.2 139.65 26.15 143.15 27.1 144.3 27.65 144.7 28.75 145.35 Q35.05 134.2 35.75 121.25 L46.35 126.55 Q48.85 115.8 46.35 105.1 45.75 102.45 44.25 99.9 47.8 99.9 51.25 101.1 54.1 102.25 56.95 103.0 L57.5 103.0 51.45 90.0 Q39.6 97.45 25.35 92.35 20.65 90.7 16.5 88.1 14.3 86.65 12.3 85.05 L8.7 71.0 8.3 70.85 7.75 70.95 5.45 70.2 5.1 69.1 4.85 69.1 4.5 69.25 4.15 71.25 2.2 69.75 1.65 67.15 0.95 67.75 0.15 66.8 0.05 67.5 -1.85 62.75 -1.95 62.55 -2.25 62.75 -2.5 62.45 -2.9 62.7 -3.2 62.9 -3.2 63.0 -3.1 66.3 -5.4 60.7 -6.25 64.75 -7.2 65.2 -7.75 63.2 -8.15 64.8 -9.5 64.75 -10.15 64.25 Q-11.15 63.4 -11.35 62.15 L-11.4 59.05 -11.35 57.55 -12.7 58.75 -13.15 59.35 -13.5 60.2 -13.55 60.35 -13.65 60.55 -14.55 60.65 -14.85 59.85 -16.1 62.65 -17.15 64.6 -17.45 64.95 -18.4 65.15 -18.35 56.95 -19.05 56.9 -19.7 58.45 -20.9 60.2 -21.65 61.05 -22.65 61.9 -24.1 60.65 -23.55 56.8 -27.5 60.0 -27.45 56.45 -28.4 55.65 -28.9 55.9 Q-29.9 58.05 -31.4 59.8 L-34.15 62.9 -34.45 62.6 -34.65 62.15 -34.8 61.7 -34.8 61.15 -34.4 59.0 -34.15 58.0 -37.5 62.2 -37.95 62.35 -37.3 60.55 -38.8 60.7 -39.05 59.6 -42.5 64.8 -42.5 61.0 -43.35 61.1 Q-51.2 76.7 -69.1 78.4 -83.85 79.3 -93.65 69.05 -98.15 64.25 -97.8 57.95 L-98.25 57.75 -98.3 55.2 -95.9 51.8 Q-95.5 51.15 -95.4 50.4 -95.25 49.6 -95.35 48.8 L-95.5 48.45 -98.0 49.05 -94.95 44.85 -94.2 43.45 Q-93.95 42.75 -94.15 42.05 L-95.1 41.55 -97.45 43.3 Q-96.9 40.2 -95.95 37.25 -95.3 35.2 -93.95 33.9 L-97.05 33.4 -97.35 33.1 -105.2 32.25 Q-95.7 26.05 -83.9 28.4 -57.15 33.8 -30.05 37.8 -23.65 38.6 -17.45 36.9 -16.75 36.8 -16.15 36.3 L-15.05 36.5 Q-12.65 31.75 -9.15 27.55 -8.0 26.2 -6.4 25.75 -4.95 26.9 -4.2 28.65 -3.4 30.5 -3.7 32.4 -4.25 36.35 -2.25 39.75 19.15 47.95 42.55 45.75 L52.2 46.15 57.05 46.9 Q54.25 38.55 54.85 29.6 58.65 31.5 61.9 34.55 L63.35 36.0 Q61.7 13.05 63.35 -9.9 L64.4 -9.9 Q64.95 -5.05 67.9 -1.3 L70.8 1.85 Q73.75 -12.2 73.5 -26.3 73.35 -34.1 71.9 -41.85 L72.95 -41.85 Q77.5 -36.35 83.25 -32.1 L84.65 -31.2 Q82.0 -53.4 75.05 -73.8 78.6 -72.95 81.8 -71.2 L88.85 -67.4 Q79.7 -90.5 65.5 -111.1 71.5 -111.5 77.2 -110.05 66.9 -124.65 50.85 -132.95 49.5 -133.7 48.8 -135.15 44.25 -144.2 50.85 -153.35 37.3 -155.3 26.6 -148.6 23.0 -146.35 19.45 -147.7 18.0 -148.35 18.05 -150.0 18.1 -153.35 18.6 -156.8 7.65 -154.8 -3.55 -154.3 -3.8 -157.05 -2.95 -159.8 L-0.8 -165.95 0.15 -167.7 Q-14.7 -162.35 -29.8 -158.0 -30.9 -157.75 -32.0 -158.25 -35.45 -159.85 -35.35 -163.75 -42.5 -156.5 -52.2 -155.9 -57.4 -155.45 -62.35 -153.75 -60.95 -152.15 -58.85 -151.25 L-56.4 -150.3 Q-55.2 -149.9 -54.45 -149.15 -66.35 -147.3 -75.8 -140.15 L-79.45 -136.95 Q-87.15 -129.0 -97.55 -124.85 L-90.85 -133.55 -93.5 -138.25 -89.2 -138.65 -84.9 -139.3 Q-83.55 -139.75 -82.55 -140.85 L-83.35 -141.95 -85.95 -144.3 Q-77.25 -146.3 -73.75 -153.4 -73.1 -154.8 -72.85 -156.6 -71.85 -162.9 -73.55 -168.95 -74.4 -172.1 -76.8 -174.3 -77.55 -180.2 -81.25 -184.7 M-117.2 91.9 L-117.2 80.15 -111.5 80.6 Q-110.7 86.8 -116.0 90.85 L-117.2 91.9 M-117.2 70.8 L-117.2 63.85 Q-116.3 63.5 -116.95 62.95 L-117.2 62.85 -117.2 56.95 Q-108.55 57.65 -113.15 64.7 L-117.2 70.8 M-117.2 46.2 L-117.2 37.7 -116.8 36.8 Q-115.55 33.45 -115.75 29.85 L-115.75 28.6 -115.55 28.25 -115.75 28.3 -116.1 26.0 -117.2 26.2 -117.2 23.45 -109.8 23.55 -109.15 24.05 Q-109.8 34.65 -115.75 44.0 L-117.2 46.2 M-117.2 13.45 L-117.2 -4.55 -112.4 -3.85 Q-112.95 2.75 -115.15 9.25 -115.85 11.45 -117.2 13.45 M-117.2 -33.4 L-117.2 -47.2 -113.35 -45.4 -113.35 -44.95 Q-114.5 -38.95 -117.2 -33.4 M-117.2 -62.85 L-117.2 -87.2 Q-109.45 -83.35 -112.05 -73.8 -113.7 -67.8 -117.2 -62.85 M-117.2 -90.5 L-117.2 -96.7 -111.8 -104.65 -117.2 -106.3 -117.2 -111.25 Q-112.35 -113.15 -109.2 -117.0 L-109.05 -117.3 -109.2 -117.8 -117.2 -119.1 -117.2 -122.45 Q-108.85 -121.0 -100.3 -121.35 L-98.95 -121.2 -98.95 -120.55 Q-103.55 -114.7 -109.4 -110.35 -110.15 -109.8 -110.95 -109.4 L-108.2 -108.25 Q-106.95 -107.55 -105.8 -106.6 L-105.15 -106.0 Q-109.75 -97.2 -117.2 -90.5 M-117.2 -135.5 L-117.2 -136.95 Q-111.7 -133.65 -105.35 -132.8 L-105.0 -131.85 -103.0 -132.95 -102.0 -132.85 -102.05 -131.15 -105.2 -130.05 Q-110.95 -133.3 -117.2 -135.5 M-117.2 -175.35 L-117.2 -178.65 Q-103.7 -185.65 -92.45 -177.35 -81.5 -169.15 -81.3 -154.95 L-85.4 -153.75 -85.4 -156.2 -85.1 -158.3 Q-85.05 -158.9 -85.35 -159.2 -85.6 -166.05 -89.0 -170.55 L-89.05 -170.6 Q-90.2 -173.0 -91.8 -174.2 -93.4 -175.45 -95.65 -175.8 -105.2 -179.7 -114.75 -176.3 L-117.2 -175.35 M1.5 -159.05 Q1.1 -159.5 1.5 -159.0 L1.5 -159.05 M11.45 -113.15 Q3.85 -104.55 1.45 -93.35 L0.9 -93.2 1.15 -92.3 Q1.95 -89.45 4.2 -87.4 L2.5 -84.05 5.65 -86.4 Q6.95 -85.55 8.65 -85.15 L8.45 -81.25 10.45 -84.9 14.75 -84.75 13.85 -80.25 14.75 -80.8 15.7 -83.2 15.95 -82.5 15.25 -80.4 16.2 -80.0 17.45 -81.4 17.7 -80.0 16.25 -79.1 14.85 -80.35 14.6 -79.3 13.35 -79.25 12.5 -80.05 11.45 -79.95 11.5 -82.5 Q10.4 -79.05 7.35 -79.55 L7.2 -80.25 5.95 -80.05 5.4 -78.3 3.7 -78.1 3.6 -78.25 Q-5.05 -97.7 7.7 -114.25 L8.75 -115.25 9.55 -114.8 Q15.0 -120.9 19.5 -116.9 L21.35 -114.6 Q29.1 -101.25 25.45 -86.05 24.55 -82.4 24.35 -78.6 L23.8 -78.1 23.5 -77.9 22.8 -77.7 22.1 -77.7 21.4 -77.8 20.65 -78.05 19.9 -82.75 19.9 -82.85 19.8 -84.2 19.45 -84.7 18.9 -81.9 17.8 -82.05 18.45 -85.35 Q20.2 -85.45 21.25 -87.0 L21.7 -87.4 22.3 -84.25 Q25.3 -97.65 21.3 -110.6 19.65 -116.0 14.0 -115.35 12.4 -115.0 10.9 -113.7 L11.45 -113.15 M51.0 -94.65 L51.55 -94.2 Q62.3 -88.0 57.7 -76.65 L56.55 -74.1 55.5 -75.2 Q56.4 -76.2 56.35 -77.55 56.05 -84.05 53.3 -89.85 L52.7 -89.85 51.85 -91.25 Q50.75 -92.95 48.8 -92.5 40.1 -91.3 32.4 -86.3 38.85 -94.85 49.0 -94.95 L51.0 -94.65 M54.25 -73.5 L55.5 -71.4 Q52.75 -71.2 51.65 -68.65 L50.8 -69.7 Q52.45 -70.45 53.4 -72.3 L54.25 -73.5 M48.6 -71.15 L48.3 -71.25 48.0 -70.7 46.9 -69.9 Q48.8 -71.7 49.8 -74.2 L50.6 -74.0 50.3 -72.7 48.6 -71.15 M46.5 -66.7 L46.3 -64.65 45.95 -66.3 46.5 -66.7 M43.05 -66.85 L43.0 -65.5 40.55 -65.3 43.05 -66.85 M42.85 -64.35 L43.15 -56.0 42.55 -58.05 42.4 -57.3 Q41.95 -56.8 41.3 -56.75 L39.05 -57.05 38.65 -56.85 38.25 -58.35 35.55 -56.55 Q32.4 -58.4 33.6 -62.8 26.15 -71.4 30.15 -82.2 29.65 -76.2 31.15 -70.3 33.75 -60.35 42.85 -64.35 M57.65 -79.3 L57.25 -79.7 57.3 -79.15 57.65 -79.3 M50.4 -62.0 L50.05 -63.0 49.8 -62.3 Q48.5 -65.25 48.9 -68.45 L51.25 -67.45 50.4 -62.0 M52.1 -58.05 L51.85 -58.4 Q52.5 -63.65 55.3 -67.85 54.85 -62.55 52.1 -58.05 M44.95 -54.3 L44.55 -54.5 Q44.35 -59.55 44.6 -62.7 L46.2 -60.7 46.25 -54.95 44.95 -54.3 M11.45 -78.6 L11.45 -79.95 12.3 -78.9 11.45 -78.6 M33.0 -39.95 L33.95 -40.6 Q34.9 -38.25 33.2 -36.4 L32.6 -35.7 34.65 -35.35 Q32.55 -28.2 27.65 -22.7 L27.25 -25.35 25.35 -25.2 24.9 -23.9 23.45 -23.65 23.1 -26.1 Q28.45 -31.9 32.3 -38.6 L33.0 -39.95 M12.95 -16.6 L12.5 -15.6 12.65 -16.55 12.95 -16.6 M9.35 -12.3 L9.45 -7.75 11.0 -7.9 11.85 -12.05 12.9 -12.4 Q14.1 -12.15 14.85 -11.35 L15.7 -12.55 Q16.95 -13.3 17.6 -14.6 L20.05 -19.4 20.25 -13.9 22.7 -13.85 Q20.4 -11.85 17.65 -10.6 15.2 -9.45 13.15 -8.8 L12.7 -7.65 Q12.25 -6.4 11.1 -6.1 L11.0 -6.9 10.2 -2.1 9.45 -1.5 8.85 -2.3 Q7.4 -4.45 7.3 -7.25 L9.35 -12.3 M6.5 -5.7 Q6.4 -2.65 4.1 -0.7 L3.15 -0.05 1.15 -2.45 Q0.0 1.8 -2.9 5.05 L-3.25 4.75 Q-2.55 -2.05 -2.65 -9.0 -2.7 -12.9 0.75 -14.6 -0.55 -6.25 6.25 -5.2 L6.5 -5.7 M-10.8 -1.3 L-11.55 -13.95 -10.8 -14.45 -10.25 -14.4 Q-8.8 -9.3 -9.7 -4.25 -10.0 -2.6 -10.8 -1.3 M-11.8 -17.15 L-13.5 -14.45 -14.35 -15.5 Q-16.35 -18.85 -15.85 -22.6 -13.55 -20.9 -12.45 -18.45 L-11.8 -17.15 M-17.75 -24.05 L-21.6 -15.45 Q-20.9 -15.7 -20.3 -16.1 -19.15 -16.85 -18.55 -18.1 L-19.25 -15.3 Q-20.9 -14.6 -22.75 -15.35 -22.65 -24.25 -21.15 -33.4 L-20.2 -34.3 Q-20.8 -29.55 -18.95 -25.45 -18.6 -24.6 -17.75 -24.05 M-20.0 -39.65 L-22.9 -36.9 -24.8 -37.9 -24.1 -39.95 -19.8 -43.35 -20.0 -39.65 M-19.75 -44.6 L-23.75 -40.8 -19.15 -52.65 -19.75 -44.6 M-17.8 -62.65 Q-19.3 -63.65 -19.5 -65.55 L-19.65 -66.0 -20.85 -62.65 -20.65 -69.5 -17.75 -69.65 Q-15.85 -69.85 -14.35 -71.65 L-16.4 -63.4 -17.8 -62.65 M-27.15 -71.3 Q-27.3 -71.2 -27.4 -71.2 L-27.35 -71.4 -27.15 -71.3 M-31.3 -82.05 L-31.55 -80.65 -32.4 -80.0 -34.4 -84.0 Q-34.8 -82.65 -35.7 -81.65 -36.4 -80.85 -37.4 -80.6 -37.55 -83.1 -35.9 -84.8 L-34.85 -85.85 -35.55 -88.9 -36.85 -88.35 Q-35.85 -95.1 -30.55 -99.25 -29.0 -100.5 -26.85 -99.95 -14.7 -97.6 -9.95 -85.35 -7.75 -79.8 -10.9 -74.75 L-11.25 -73.9 -13.65 -69.05 -13.5 -70.9 -13.35 -71.7 -12.7 -74.5 Q-11.95 -77.25 -12.3 -79.95 -13.75 -91.05 -24.6 -97.5 L-27.4 -97.4 Q-35.2 -92.45 -31.3 -82.05 M86.05 52.3 L86.1 52.25 86.1 52.3 86.05 52.3 M22.6 53.5 Q12.65 61.5 14.7 74.0 15.45 78.45 18.7 81.4 30.8 92.35 45.45 85.85 48.8 84.3 50.75 81.0 59.15 66.85 47.4 54.8 L48.2 54.95 62.55 57.75 61.15 57.3 64.35 58.0 64.85 57.45 Q63.95 56.45 62.9 55.95 47.95 50.15 31.75 50.3 14.2 50.45 -2.45 46.05 -4.1 45.55 -4.95 44.2 -9.55 36.95 -6.55 27.5 L-9.05 28.05 -13.25 40.55 Q-14.85 41.25 -16.5 41.6 -28.2 44.35 -40.2 41.25 L-49.9 38.7 Q-71.6 32.3 -93.9 32.85 L-81.35 34.8 -82.65 34.85 Q-86.85 37.2 -89.2 41.35 -92.7 47.45 -92.15 54.35 -92.15 58.2 -90.9 61.3 -89.45 64.75 -86.55 67.05 -70.75 77.2 -56.25 66.45 -53.45 64.4 -52.1 61.05 -48.0 51.05 -53.05 41.7 -33.4 47.5 -12.95 46.45 L-10.55 43.3 -10.4 44.25 -10.2 45.05 -9.85 45.85 -9.3 46.4 -6.2 49.55 22.6 53.5 M15.9 102.85 Q17.55 111.35 12.85 118.85 L12.05 120.05 11.6 120.05 11.15 123.15 7.3 125.05 6.15 126.85 5.4 126.5 4.95 130.3 Q3.3 128.95 3.5 126.1 L3.65 124.35 Q-0.35 121.0 -0.2 115.35 L-1.8 116.9 Q-3.25 117.3 -4.45 116.25 -5.9 115.1 -6.1 113.25 L-6.2 111.65 -5.05 111.55 Q-5.1 113.7 -3.7 115.0 L-3.0 115.6 0.3 113.15 Q1.6 114.45 1.75 116.65 2.0 121.4 6.75 122.95 10.8 121.3 11.9 117.0 L13.1 113.4 Q14.95 108.5 15.4 103.45 L15.9 102.85 M12.6 103.3 Q13.25 101.8 14.75 101.5 L15.0 101.7 14.1 102.4 12.6 103.3 M-60.6 163.25 L-62.45 162.55 -62.15 163.35 Q-78.05 154.7 -90.8 141.6 -87.0 147.35 -82.8 152.95 -74.35 164.15 -61.25 165.4 L-59.0 169.45 -59.6 171.95 -57.0 172.4 -53.45 169.0 Q-47.7 175.2 -46.15 183.95 L-45.0 183.45 Q-37.35 179.0 -32.0 171.6 L-23.35 180.3 Q-19.9 177.9 -18.3 173.9 -17.8 172.7 -16.6 172.3 -0.4 165.7 16.15 159.95 L15.7 159.25 Q-3.85 162.05 -21.85 169.7 -21.2 173.35 -23.6 176.4 -24.8 174.3 -26.5 172.55 -30.8 168.35 -36.6 168.25 -36.25 170.1 -36.8 171.65 -38.75 177.2 -44.05 180.55 -48.0 172.0 -53.7 164.15 L-56.65 166.75 -59.55 163.95 Q-59.55 163.65 -59.85 163.45 L-60.6 163.25 M1.55 186.4 L-0.1 189.55 Q-3.75 189.9 -4.3 186.3 -4.5 184.8 -5.45 183.65 L-7.75 183.65 Q-13.95 191.6 -9.45 199.3 -8.4 201.0 -6.45 200.4 L-4.75 199.95 -4.5 207.75 Q-1.4 215.6 -3.35 224.55 -4.35 229.0 -2.1 233.05 5.05 232.1 3.7 223.9 2.6 217.3 4.0 210.8 6.65 209.95 8.55 212.3 9.7 213.7 11.3 212.55 15.45 198.2 8.55 184.4 L7.55 183.9 Q4.8 183.6 2.65 185.4 L1.55 186.4 M23.35 178.45 Q23.05 178.2 22.7 178.1 17.75 176.3 16.8 182.25 L20.5 184.65 23.1 183.15 23.35 178.45 M-89.1 -13.15 L-89.05 -12.3 -91.6 -5.5 -89.95 -5.9 Q-87.85 -6.45 -85.95 -7.65 L-83.65 -9.05 -85.85 -5.3 Q-86.55 -4.0 -86.6 -2.55 L-86.55 -1.7 -85.75 -2.1 -86.7 -0.7 Q-85.6 -2.15 -83.9 -2.6 -78.95 -4.1 -74.0 -6.3 L-74.45 -5.3 -71.5 -6.5 Q-80.75 -0.15 -87.8 8.45 L-86.7 9.25 -82.2 9.65 -82.0 10.05 -105.2 21.6 -99.05 13.65 -97.85 11.75 -98.5 11.6 -98.2 10.9 -100.1 10.8 -100.2 9.95 Q-97.75 8.35 -95.8 6.1 -93.35 3.2 -92.1 -0.25 L-92.55 -0.85 -96.7 0.45 Q-92.95 -13.9 -85.8 -24.2 -88.05 -18.8 -89.1 -13.15 M-30.05 -69.45 L-29.35 -66.45 -28.5 -66.8 -29.95 -65.45 Q-31.85 -68.5 -29.95 -71.2 L-30.05 -69.45 M-24.4 -62.65 L-23.9 -64.55 -23.45 -61.35 -24.4 -62.65 M-85.35 162.8 Q-88.85 162.65 -90.5 165.55 L-90.85 166.2 -89.6 169.15 Q-84.65 169.75 -84.2 164.85 L-84.15 163.9 -85.35 162.8 M-90.25 177.3 Q-89.9 175.25 -88.35 174.1 L-86.95 173.1 Q-78.85 176.2 -82.05 185.65 -83.4 189.65 -79.2 191.25 L-75.95 192.1 -76.4 189.8 Q-69.8 190.3 -71.95 197.8 -72.9 201.15 -75.5 203.2 -77.65 205.0 -80.0 203.45 -73.3 212.1 -76.3 223.6 -77.8 229.35 -80.8 234.15 -84.05 239.35 -89.15 236.3 -93.8 233.4 -92.9 227.75 -90.1 209.8 -98.5 193.7 -99.15 192.45 -99.2 191.0 -99.35 182.05 -90.95 180.95 L-90.25 177.3 M-83.85 177.65 Q-85.3 176.7 -86.8 176.7 L-87.5 176.9 -88.15 183.5 -88.7 183.85 Q-93.1 182.9 -97.1 184.9 -99.85 193.35 -93.65 200.05 -91.2 202.6 -90.4 206.25 -88.5 214.7 -90.45 223.6 -92.65 233.85 -84.1 235.5 -74.75 220.7 -82.4 205.6 -83.8 202.85 -83.5 199.8 -80.35 201.1 -77.25 199.7 L-75.3 198.75 Q-74.8 196.85 -75.95 195.25 L-76.95 194.2 -77.6 193.65 -81.1 194.5 Q-87.15 190.15 -84.15 183.6 -83.2 181.6 -82.8 179.35 L-83.85 177.65 M-16.15 123.35 Q-15.6 128.65 -21.9 128.3 -27.3 129.05 -31.75 125.75 -35.0 123.4 -32.75 120.05 -25.4 120.8 -18.3 123.05 L-16.15 123.35 M-59.75 179.6 L-61.5 180.6 Q-68.65 190.75 -62.05 202.65 -60.5 205.45 -57.85 203.5 -51.1 191.7 -58.05 181.0 -58.6 180.1 -59.75 179.6" fill="#eecccc" fill-rule="evenodd" stroke="none"/>
    <path d="M122.85 -128.95 L122.85 -123.8 Q119.7 -127.65 114.85 -128.2 100.05 -129.8 97.95 -115.5 97.8 -114.3 98.45 -113.6 101.75 -110.15 105.65 -114.0 105.8 -108.3 104.3 -102.55 L109.05 -105.25 104.85 -97.75 108.55 -96.8 Q118.2 -94.3 122.85 -103.2 L122.85 -96.85 120.15 -95.05 Q112.2 -90.45 104.7 -94.95 L104.45 -98.2 99.35 -98.0 Q103.45 -103.25 103.6 -109.55 L102.9 -110.2 101.3 -108.95 Q99.05 -106.8 95.9 -106.1 91.85 -120.05 103.55 -129.4 L103.3 -129.0 105.1 -129.9 Q114.15 -134.2 122.85 -128.95 M-117.2 -142.45 L-117.2 -147.1 Q-114.05 -142.5 -108.4 -141.55 L-108.1 -141.65 Q-109.8 -146.1 -107.65 -150.7 L-103.0 -147.3 Q-104.1 -152.35 -103.0 -158.0 L-102.45 -158.25 Q-97.8 -152.15 -89.7 -154.35 -90.35 -170.5 -106.6 -171.9 -110.05 -171.85 -113.0 -170.15 L-117.2 -167.7 -117.2 -171.7 -113.1 -173.15 Q-106.85 -175.25 -100.2 -174.1 -93.4 -172.7 -90.5 -166.3 -87.7 -160.1 -87.25 -153.25 L-99.85 -153.8 -99.2 -150.4 Q-98.75 -146.8 -96.4 -144.15 -98.05 -144.65 -99.45 -145.4 -100.5 -146.05 -101.7 -146.3 L-102.6 -146.3 Q-104.25 -143.5 -104.3 -140.35 -104.3 -139.3 -104.85 -138.1 -106.2 -137.1 -108.0 -137.5 -113.35 -138.65 -117.2 -142.45" fill="#fe67b3" fill-rule="evenodd" stroke="none"/>
    <path d="M122.85 -123.8 L122.85 -103.2 Q118.2 -94.3 108.55 -96.8 L104.85 -97.75 109.05 -105.25 104.3 -102.55 Q105.8 -108.3 105.65 -114.0 101.75 -110.15 98.45 -113.6 97.8 -114.3 97.95 -115.5 100.05 -129.8 114.85 -128.2 119.7 -127.65 122.85 -123.8 M-117.2 -147.1 L-117.2 -167.7 -113.0 -170.15 Q-110.05 -171.85 -106.6 -171.9 -90.35 -170.5 -89.7 -154.35 -97.8 -152.15 -102.45 -158.25 L-103.0 -158.0 Q-104.1 -152.35 -103.0 -147.3 L-107.65 -150.7 Q-109.8 -146.1 -108.1 -141.65 L-108.4 -141.55 Q-114.05 -142.5 -117.2 -147.1" fill="#ff99cc" fill-rule="evenodd" stroke="none"/>
    <path d="M11.45 -113.15 Q12.75 -114.6 14.0 -115.35 19.65 -116.0 21.3 -110.6 25.3 -97.65 22.3 -84.25 L21.7 -87.4 21.25 -87.0 Q20.2 -85.45 18.45 -85.35 L18.3 -88.25 17.7 -88.9 17.15 -88.65 Q15.15 -87.35 14.75 -84.75 L10.45 -84.9 Q11.25 -86.65 11.15 -87.95 9.4 -86.5 8.65 -85.15 6.95 -85.55 5.65 -86.4 L6.45 -89.4 4.2 -87.4 Q1.95 -89.45 1.15 -92.3 L0.9 -93.2 1.45 -93.35 Q3.85 -104.55 11.45 -113.15 M3.6 -78.25 L3.7 -78.1 4.4 -77.6 Q8.1 -75.85 11.45 -78.6 L12.3 -78.9 11.45 -79.95 12.5 -80.05 13.35 -79.25 14.6 -79.3 Q25.0 -74.0 29.1 -61.9 L33.45 -48.9 Q34.95 -44.25 33.0 -39.95 L32.3 -38.6 Q28.45 -31.9 23.1 -26.1 L22.65 -27.25 21.3 -26.95 20.55 -23.35 20.1 -30.35 Q19.3 -29.65 18.85 -28.65 16.5 -23.6 15.05 -18.15 L12.95 -16.6 12.65 -16.55 10.95 -15.3 Q9.65 -14.05 9.35 -12.3 L7.3 -7.25 6.5 -5.7 6.25 -5.2 Q-0.55 -6.25 0.75 -14.6 -2.7 -12.9 -2.65 -9.0 -2.55 -2.05 -3.25 4.75 L-4.05 12.65 -5.95 13.25 -7.0 11.75 Q-10.9 5.85 -10.8 -1.3 -10.0 -2.6 -9.7 -4.25 -8.8 -9.3 -10.25 -14.4 L-10.8 -14.45 Q-9.7 -16.55 -10.55 -18.5 L-11.8 -17.15 -12.45 -18.45 Q-13.55 -20.9 -15.85 -22.6 L-14.8 -25.25 Q-13.55 -27.75 -14.55 -29.8 L-17.75 -24.05 Q-18.6 -24.6 -18.95 -25.45 -20.8 -29.55 -20.2 -34.3 -15.55 -37.8 -16.2 -43.05 L-20.0 -39.65 -19.8 -43.35 Q-17.55 -45.6 -17.0 -47.05 L-19.75 -44.6 -19.15 -52.65 Q-19.1 -57.5 -18.65 -62.3 L-17.8 -62.65 -16.4 -63.4 Q-8.65 -72.75 1.85 -77.6 2.65 -78.05 3.6 -78.25 M51.0 -94.65 L51.45 -94.6 51.55 -94.2 51.0 -94.65 M55.5 -75.2 L53.8 -76.2 54.25 -73.5 53.4 -72.3 Q52.45 -70.45 50.8 -69.7 L48.6 -71.15 50.3 -72.7 50.6 -74.0 49.8 -74.2 Q48.8 -71.7 46.9 -69.9 L48.0 -70.7 47.45 -67.35 46.5 -66.7 45.95 -66.3 45.15 -69.8 43.3 -69.25 43.05 -66.85 40.55 -65.3 43.0 -65.5 42.85 -64.35 Q33.75 -60.35 31.15 -70.3 29.65 -76.2 30.15 -82.2 L32.4 -86.3 Q40.1 -91.3 48.8 -92.5 50.75 -92.95 51.85 -91.25 L52.7 -89.85 53.3 -89.85 Q56.05 -84.05 56.35 -77.55 56.4 -76.2 55.5 -75.2 M19.9 -82.85 L19.9 -82.75 19.35 -82.8 19.9 -82.85 M-20.65 -69.5 L-24.3 -69.95 -23.55 -70.8 Q-22.45 -72.2 -23.15 -73.85 L-27.15 -71.3 -27.35 -71.4 Q-25.55 -75.3 -26.45 -79.1 L-31.25 -76.4 -31.35 -76.7 -31.45 -77.15 Q-29.35 -79.6 -30.4 -82.5 L-31.3 -82.05 Q-35.2 -92.45 -27.4 -97.4 L-24.6 -97.5 Q-13.75 -91.05 -12.3 -79.95 -11.95 -77.25 -12.7 -74.5 L-14.35 -71.65 Q-15.85 -69.85 -17.75 -69.65 L-20.65 -69.5 M-10.9 -74.75 L-8.25 -76.95 -11.25 -73.9 -10.9 -74.75 M-13.5 -70.9 L-14.45 -69.6 -13.35 -71.7 -13.5 -70.9 M10.75 104.6 L12.6 103.3 14.1 102.4 10.75 104.6 M15.4 103.45 Q14.95 108.5 13.1 113.4 L11.9 117.0 Q10.8 121.3 6.75 122.95 2.0 121.4 1.75 116.65 1.6 114.45 0.3 113.15 L-3.0 115.6 -3.7 115.0 Q-5.1 113.7 -5.05 111.55 L-3.15 111.25 Q7.1 109.75 15.4 103.45 M1.55 186.4 L2.65 185.4 Q4.8 183.6 7.55 183.9 L8.55 184.4 Q15.45 198.2 11.3 212.55 9.7 213.7 8.55 212.3 6.65 209.95 4.0 210.8 2.6 217.3 3.7 223.9 5.05 232.1 -2.1 233.05 -4.35 229.0 -3.35 224.55 -1.4 215.6 -4.5 207.75 L-4.75 199.95 -6.45 200.4 Q-8.4 201.0 -9.45 199.3 -13.95 191.6 -7.75 183.65 L-5.45 183.65 Q-4.5 184.8 -4.3 186.3 -3.75 189.9 -0.1 189.55 L1.55 186.4 M23.35 178.45 L23.1 183.15 20.5 184.65 16.8 182.25 Q17.75 176.3 22.7 178.1 23.05 178.2 23.35 178.45 M-85.35 162.8 L-84.15 163.9 -84.2 164.85 Q-84.65 169.75 -89.6 169.15 L-90.85 166.2 -90.5 165.55 Q-88.85 162.65 -85.35 162.8 M-83.85 177.65 L-82.8 179.35 Q-83.2 181.6 -84.15 183.6 -87.15 190.15 -81.1 194.5 L-77.6 193.65 -76.95 194.2 -75.95 195.25 Q-74.8 196.85 -75.3 198.75 L-77.25 199.7 Q-80.35 201.1 -83.5 199.8 -83.8 202.85 -82.4 205.6 -74.75 220.7 -84.1 235.5 -92.65 233.85 -90.45 223.6 -88.5 214.7 -90.4 206.25 -91.2 202.6 -93.65 200.05 -99.85 193.35 -97.1 184.9 -93.1 182.9 -88.7 183.85 L-88.15 183.5 -87.5 176.9 -86.8 176.7 Q-85.3 176.7 -83.85 177.65 M-59.75 179.6 Q-58.6 180.1 -58.05 181.0 -51.1 191.7 -57.85 203.5 -60.5 205.45 -62.05 202.65 -68.65 190.75 -61.5 180.6 L-59.75 179.6" fill="#ff0000" fill-rule="evenodd" stroke="none"/>
    <path d="M48.2 54.95 Q35.95 50.45 23.05 53.45 L22.6 53.5 -6.2 49.55 -9.3 46.4 -9.85 45.85 -10.2 45.05 -10.4 44.25 -10.55 43.3 -12.95 46.45 Q-33.4 47.5 -53.05 41.7 -65.6 36.1 -79.45 35.1 L-82.65 34.85 -81.35 34.8 -93.9 32.85 Q-71.6 32.3 -49.9 38.7 L-40.2 41.25 Q-28.2 44.35 -16.5 41.6 -14.85 41.25 -13.25 40.55 L-9.05 28.05 -6.55 27.5 Q-9.55 36.95 -4.95 44.2 -4.1 45.55 -2.45 46.05 14.2 50.45 31.75 50.3 47.95 50.15 62.9 55.95 63.95 56.45 64.85 57.45 L64.35 58.0 61.15 57.3 62.55 57.75 48.2 54.95 M-59.55 163.95 L-56.65 166.75 -53.7 164.15 Q-48.0 172.0 -44.05 180.55 -38.75 177.2 -36.8 171.65 -36.25 170.1 -36.6 168.25 -30.8 168.35 -26.5 172.55 -24.8 174.3 -23.6 176.4 -21.2 173.35 -21.85 169.7 -3.85 162.05 15.7 159.25 L16.15 159.95 Q-0.4 165.7 -16.6 172.3 -17.8 172.7 -18.3 173.9 -19.9 177.9 -23.35 180.3 L-32.0 171.6 Q-37.35 179.0 -45.0 183.45 L-46.15 183.95 Q-47.7 175.2 -53.45 169.0 L-57.0 172.4 -59.6 171.95 -59.0 169.45 -61.25 165.4 Q-74.35 164.15 -82.8 152.95 -87.0 147.35 -90.8 141.6 -78.05 154.7 -62.15 163.35 L-62.45 162.55 -60.6 163.25 -59.55 163.95 M-36.05 195.8 Q-32.3 193.55 -31.1 189.25 L-30.7 187.6 Q-35.4 190.2 -40.9 190.2 L-28.05 183.8 Q-27.55 189.85 -31.75 194.45 -23.9 200.15 -20.5 208.8 L-30.85 206.75 Q-28.35 211.7 -29.6 217.0 -29.85 218.2 -30.55 219.05 -32.5 221.3 -35.35 222.4 -31.2 218.4 -31.45 212.8 -31.6 210.2 -32.55 207.7 L-33.3 204.85 Q-28.1 203.8 -23.2 206.65 -25.15 201.2 -30.4 198.65 L-33.6 197.25 -36.05 195.8" fill="#933131" fill-rule="evenodd" stroke="none"/>
    <path d="M25.8 83.1 L24.2 82.2 Q18.45 78.9 17.3 72.45 21.75 77.45 28.15 79.35 42.5 83.6 51.35 73.25 L50.5 75.0 Q41.85 89.85 25.8 83.1 M-53.6 56.95 Q-57.7 67.6 -68.9 68.95 -76.1 69.75 -82.55 66.55 -85.15 65.2 -86.7 62.55 -89.5 57.9 -89.25 52.3 -87.1 58.1 -82.1 61.35 -80.25 62.6 -78.15 63.0 -64.35 66.05 -53.6 56.95" fill="#373737" fill-rule="evenodd" stroke="none"/>
    <path d="M-117.2 211.25 L-117.2 203.6 Q-115.95 201.55 -115.85 199.2 L-115.9 197.35 -117.2 197.2 -117.2 193.95 -113.4 194.15 -112.75 193.3 -113.15 192.1 -117.2 191.1 -117.2 189.75 -109.9 192.25 Q-110.6 202.9 -117.2 211.25 M-117.2 182.35 L-117.2 177.0 -111.8 172.95 Q-114.35 171.5 -117.2 171.1 L-117.2 169.2 -112.4 166.55 Q-109.95 167.2 -108.05 168.9 L-107.35 169.75 -107.3 171.25 Q-112.95 176.25 -117.2 182.35 M-117.2 129.4 L-117.2 128.75 -109.95 126.8 -110.0 131.6 -102.95 131.9 Q-100.4 132.05 -98.1 133.5 L-96.95 135.3 Q-101.0 141.75 -109.05 143.05 L-109.2 143.05 Q-108.1 146.1 -105.6 148.35 L-102.6 151.05 Q-106.5 151.7 -109.8 153.7 -109.85 151.3 -111.15 149.15 -113.0 146.05 -115.85 144.05 L-114.85 142.65 Q-109.55 135.65 -117.2 129.4 M40.25 177.7 Q34.15 175.2 28.95 171.4 28.75 171.3 28.7 171.05 35.55 166.05 41.35 159.95 L35.95 159.5 36.35 159.2 Q38.75 155.75 37.75 151.55 44.05 153.8 49.1 158.1 L49.75 156.55 Q50.85 152.1 50.4 147.55 56.85 152.75 61.4 159.45 L54.1 157.6 Q54.2 163.05 49.15 165.6 46.2 163.75 42.7 162.5 L42.45 165.9 Q42.25 167.45 41.4 168.7 38.55 172.85 33.2 172.95 L40.25 177.7 M78.8 215.5 L80.2 218.65 Q75.9 221.8 71.35 224.4 55.75 233.55 37.45 232.4 L36.95 229.95 42.15 229.5 Q46.15 228.85 49.2 226.4 L50.75 225.05 Q44.15 222.55 39.6 217.45 34.6 211.95 32.5 204.7 L40.25 201.3 Q37.05 197.7 34.45 193.4 L30.6 187.7 Q31.3 187.35 32.05 187.45 L44.2 186.25 Q44.9 201.6 59.35 205.3 64.0 206.5 68.35 204.4 64.7 208.5 59.4 209.3 57.0 208.8 54.7 208.0 47.8 205.8 40.85 204.95 L41.25 205.65 Q47.1 206.8 52.1 209.7 54.2 210.85 56.55 211.35 62.05 212.75 66.1 208.85 63.4 214.9 56.9 214.1 L43.65 213.1 43.45 214.95 50.55 221.8 Q65.7 223.05 78.8 215.5" fill="#5e5e5e" fill-rule="evenodd" stroke="none"/>
    <path d="M-117.2 203.6 L-117.2 197.2 -115.9 197.35 -115.85 199.2 Q-115.95 201.55 -117.2 203.6 M-117.2 177.0 L-117.2 171.1 Q-114.35 171.5 -111.8 172.95 L-117.2 177.0 M-117.2 169.2 L-117.2 165.85 -112.4 166.55 -117.2 169.2 M-117.2 160.2 L-117.2 129.4 Q-109.55 135.65 -114.85 142.65 L-115.85 144.05 Q-113.0 146.05 -111.15 149.15 -109.85 151.3 -109.8 153.7 L-110.7 154.2 Q-114.7 156.4 -117.2 160.2 M61.4 159.45 Q66.5 165.7 71.15 172.35 76.4 179.95 77.4 189.05 78.45 198.15 73.05 205.95 L75.3 204.8 78.8 215.5 Q65.7 223.05 50.55 221.8 L43.45 214.95 43.65 213.1 56.9 214.1 Q63.4 214.9 66.1 208.85 71.35 205.9 71.7 201.35 L68.35 204.4 Q64.0 206.5 59.35 205.3 44.9 201.6 44.2 186.25 L46.75 185.8 Q44.85 180.7 40.25 177.7 L33.2 172.95 Q38.55 172.85 41.4 168.7 42.25 167.45 42.45 165.9 L42.7 162.5 Q46.2 163.75 49.15 165.6 54.2 163.05 54.1 157.6 L61.4 159.45 M66.6 176.45 L66.85 175.75 Q67.6 166.3 58.65 166.65 57.3 176.1 66.6 176.45 M67.2 185.4 Q67.0 182.75 64.2 182.15 L62.45 183.05 Q62.65 186.45 65.85 187.25 L67.15 185.95 67.2 185.4" fill="#7b7b7b" fill-rule="evenodd" stroke="none"/>
    <path d="M67.2 185.4 L67.15 185.95 65.85 187.25 Q62.65 186.45 62.45 183.05 L64.2 182.15 Q67.0 182.75 67.2 185.4 M66.6 176.45 Q57.3 176.1 58.65 166.65 67.6 166.3 66.85 175.75 L66.6 176.45" fill="#c4c4c4" fill-rule="evenodd" stroke="none"/>
    <path d="M87.35 253.7 Q87.35 253.85 88.25 254.05 86.25 253.85 87.35 253.7 M60.6 254.2 Q59.3 244.65 56.3 235.5 L55.75 233.8 Q66.85 232.25 76.15 225.85 L77.05 225.15 Q84.95 238.45 87.25 253.5 L60.6 254.2" fill="#3c3c3c" fill-rule="evenodd" stroke="none"/>
    <path d="M55.75 233.8 L56.3 235.5 Q59.3 244.65 60.6 254.2 L43.35 253.95 41.3 254.1 41.0 251.9 40.05 251.6 Q40.65 249.2 40.35 246.85 L38.95 237.15 38.25 235.0 Q47.0 235.55 55.75 233.8" fill="#1e1e1e" fill-rule="evenodd" stroke="none"/>
  </g>
</svg>
