<?xml version="1.0" encoding="UTF-8" standalone="no"?>
<svg xmlns:xlink="http://www.w3.org/1999/xlink" height="442.85px" width="233.9px" xmlns="http://www.w3.org/2000/svg">
  <g transform="matrix(1.0, 0.0, 0.0, 1.0, 120.2, 169.65)">
    <path d="M-119.55 -71.15 Q-118.7 -80.25 -118.15 -89.5 -116.8 -112.15 -113.1 -134.45 -112.3 -139.25 -109.05 -142.6 -101.0 -150.9 -90.6 -156.3 -76.25 -163.8 -60.1 -166.35 -34.6 -170.45 -8.9 -169.45 12.7 -168.6 33.6 -163.1 57.55 -157.0 78.5 -143.75 90.75 -136.0 97.85 -123.5 L95.75 -103.15 Q93.4 -82.95 91.45 -62.8 88.95 -37.15 86.9 -11.25 L83.1 34.4 92.8 50.75 90.4 64.9 Q88.0 83.65 82.05 101.5 L80.6 105.55 73.9 110.95 71.5 127.2 70.7 132.45 66.55 134.85 70.85 137.55 Q74.8 140.45 78.0 144.0 86.4 152.65 90.55 163.9 92.25 168.5 92.6 173.5 93.8 192.2 100.6 209.75 L97.5 212.2 101.65 226.75 97.5 227.75 93.95 215.1 92.95 215.9 Q80.2 225.0 65.5 230.95 L65.15 226.7 Q73.05 223.65 80.45 219.35 88.75 214.6 95.85 208.2 91.2 193.25 89.4 177.8 87.4 160.5 75.25 148.3 68.6 141.7 60.3 137.25 L41.4 146.85 43.4 155.1 Q49.2 178.2 48.65 202.0 L44.9 200.3 Q45.0 199.75 45.05 199.85 L45.2 200.15 Q45.3 184.55 42.35 169.1 40.35 158.65 38.5 148.2 L-12.55 170.8 -19.75 173.95 -35.7 162.65 -93.65 120.8 -95.5 123.7 Q-106.95 143.75 -107.9 166.85 L-107.9 167.35 -110.15 196.75 -110.2 197.8 Q-112.0 197.8 -113.3 196.65 -114.6 195.5 -114.6 193.85 L-113.3 179.2 -120.2 170.5 -120.2 165.35 -112.75 172.65 Q-110.5 156.7 -107.5 140.9 -105.1 128.3 -96.5 118.65 L-120.2 101.65 -120.2 82.9 -104.25 86.2 Q-80.3 93.0 -55.8 96.55 L-48.15 97.9 -44.75 98.5 -48.1 137.75 -48.8 146.4 Q-44.05 150.55 -38.3 154.4 -31.2 159.1 -24.4 164.1 L-18.85 167.95 15.8 152.6 17.4 142.7 22.1 108.75 46.9 109.85 61.55 108.75 Q66.65 108.35 71.25 106.3 L71.7 106.15 Q74.1 86.15 74.95 66.1 75.0 64.4 75.3 62.7 L79.95 36.55 70.65 35.1 44.1 34.1 Q43.15 33.4 41.95 32.9 L45.85 30.65 70.55 31.7 79.15 31.05 82.85 -13.8 Q84.95 -39.5 87.45 -65.15 90.2 -93.9 94.3 -122.6 81.3 -138.4 62.6 -146.95 42.35 -156.1 20.55 -160.85 -1.75 -165.65 -24.7 -164.45 -53.0 -163.6 -79.65 -154.25 -95.7 -148.7 -108.45 -137.55 L-109.9 -130.2 Q-112.0 -119.25 -112.15 -107.85 -117.85 -99.55 -115.7 -89.15 L-115.2 -86.5 Q-113.8 -77.75 -119.55 -71.15 M19.7 -108.65 L13.25 -104.95 6.25 -113.1 -17.15 -140.25 -20.2 -113.4 -23.95 -84.4 -26.95 -85.5 -24.1 -112.8 Q-22.25 -129.8 -19.55 -146.55 -19.35 -147.95 -17.95 -148.4 -3.7 -130.95 11.7 -114.55 L15.1 -111.4 54.45 -135.35 56.1 -136.0 49.25 -82.55 41.6 -21.55 41.05 -16.2 37.55 -16.45 37.95 -20.0 38.65 -25.3 Q43.25 -64.85 46.0 -87.05 L51.5 -128.45 Q36.15 -117.6 19.7 -108.65 M60.2 48.05 Q69.85 44.95 72.0 54.1 L71.9 54.6 Q70.1 53.1 67.7 52.8 L65.0 52.9 66.65 52.55 66.6 51.0 Q63.9 48.9 60.2 48.05 M69.9 61.95 L70.85 63.4 71.1 63.85 72.1 68.25 Q60.5 81.1 43.3 80.05 40.15 79.5 37.05 78.4 27.05 74.75 18.85 68.5 L17.75 67.25 Q14.75 61.55 10.4 56.6 9.3 55.35 8.85 53.7 L8.05 50.2 8.85 50.3 14.2 56.0 Q15.45 65.95 26.8 65.8 L31.35 65.45 51.65 63.25 54.15 62.35 Q60.65 59.35 67.75 60.9 L69.9 61.95 M88.85 53.65 L83.15 40.15 Q78.5 60.7 76.9 81.9 L76.2 90.35 Q75.7 96.8 76.3 103.4 L79.95 97.4 Q80.85 95.7 81.2 93.95 L88.85 53.65 M21.15 141.25 L19.1 151.3 Q43.95 141.0 67.05 127.25 L69.65 111.9 68.95 112.15 Q63.95 113.5 58.8 113.65 L47.6 114.05 25.2 112.85 21.15 141.25 M51.3 203.55 L57.1 200.85 Q67.85 195.7 79.15 191.85 L79.4 192.8 54.7 206.15 51.3 203.55 M-60.3 18.1 L-58.5 22.55 -72.8 19.75 -71.95 15.8 -60.3 18.1 M-120.2 -44.55 L-116.85 -42.4 -119.4 -6.8 -120.2 -5.45 -120.2 -44.55 M-116.7 57.55 L-113.8 58.95 -113.9 59.35 -120.2 78.2 -120.2 68.0 -116.7 57.55 M-42.0 54.9 L-39.15 55.8 -38.45 55.05 Q-34.75 56.85 -31.25 54.95 -26.3 52.3 -21.65 49.15 -21.75 55.95 -28.6 59.2 -31.7 60.6 -35.25 60.2 -41.85 59.65 -47.3 64.25 -50.25 66.65 -54.25 67.2 L-66.55 67.9 Q-83.8 69.15 -92.55 54.45 L-92.8 52.7 Q-89.05 54.85 -85.05 52.9 -77.7 49.3 -70.15 52.9 -56.85 59.2 -42.15 55.35 L-42.0 54.9 M-102.1 90.85 Q-110.0 88.3 -118.15 87.65 L-119.55 87.75 -119.9 95.5 Q-90.85 118.0 -60.3 138.85 L-52.6 144.05 -51.45 135.9 -48.0 102.8 Q-73.7 98.25 -98.95 91.7 L-102.1 90.85" fill="#000000" fill-rule="evenodd" stroke="none"/>
    <path d="M-112.15 -107.85 Q-112.0 -119.25 -109.9 -130.2 L-108.45 -137.55 Q-95.7 -148.7 -79.65 -154.25 -53.0 -163.6 -24.7 -164.45 -1.75 -165.65 20.55 -160.85 42.35 -156.1 62.6 -146.95 81.3 -138.4 94.3 -122.6 90.2 -93.9 87.45 -65.15 84.95 -39.5 82.85 -13.8 L79.15 31.05 70.55 31.7 69.95 22.4 57.35 4.95 57.2 -0.35 63.95 8.9 69.9 17.25 Q69.4 -3.2 67.45 -20.15 62.7 -61.8 49.25 -82.55 L56.1 -136.0 54.45 -135.35 15.1 -111.4 11.7 -114.55 Q-3.7 -130.95 -17.95 -148.4 -19.35 -147.95 -19.55 -146.55 -22.25 -129.8 -24.1 -112.8 -42.7 -108.45 -56.15 -94.55 -65.5 -84.85 -72.9 -73.4 -74.55 -75.5 -74.5 -78.0 -74.35 -82.4 -72.55 -86.35 -69.75 -92.4 -76.7 -96.25 L-73.65 -97.9 Q-73.4 -98.8 -73.45 -99.7 -73.8 -107.45 -81.6 -111.0 -98.0 -118.4 -112.15 -107.85 M-35.7 162.65 L-19.75 173.95 -12.55 170.8 Q-6.85 171.85 -1.95 174.55 L-1.65 174.8 -2.85 181.8 -4.7 191.65 -19.25 190.85 -20.75 204.75 -42.6 202.55 -42.65 187.5 -53.9 185.2 -53.9 176.5 -53.9 165.9 -36.45 166.3 -35.7 162.65 M-11.75 -48.25 L10.75 -57.6 38.65 -25.3 37.95 -20.0 10.1 -54.65 Q-0.3 -49.7 -10.75 -44.7 L-29.1 -36.05 -28.55 -41.05 -11.75 -48.25 M41.05 -16.2 L41.6 -21.55 46.2 -15.15 41.05 -16.2 M88.85 53.65 L81.2 93.95 Q80.85 95.7 79.95 97.4 L76.3 103.4 Q75.7 96.8 76.2 90.35 L76.9 81.9 Q78.5 60.7 83.15 40.15 L88.85 53.65 M58.8 113.65 Q63.95 113.5 68.95 112.15 L69.65 111.9 67.05 127.25 Q43.95 141.0 19.1 151.3 L21.15 141.25 Q39.35 133.8 51.9 122.15 55.7 118.55 58.8 113.65 M-116.85 -42.4 Q-107.15 -36.9 -96.8 -40.45 L-90.2 -38.9 -98.8 -13.9 -106.4 -14.6 Q-114.95 -14.25 -119.4 -6.8 L-116.85 -42.4 M-87.25 -10.25 L-91.2 -11.9 -88.25 -13.5 Q-76.7 -19.85 -64.45 -25.1 L-64.9 -20.55 -87.25 -10.25 M-120.2 55.6 L-116.7 57.55 -120.2 68.0 -120.2 55.6 M-51.45 135.9 L-52.6 144.05 -60.3 138.85 Q-90.85 118.0 -119.9 95.5 L-119.55 87.75 -118.15 87.65 Q-110.0 88.3 -102.1 90.85 -93.5 105.85 -79.8 116.75 -66.4 127.55 -51.45 135.9 M-51.75 182.95 L-39.65 185.3 -40.0 199.7 -23.05 200.25 -22.0 188.75 -16.7 188.85 -12.55 189.15 Q-8.8 190.0 -6.3 187.65 L-6.05 182.55 -11.5 183.6 -23.45 184.3 Q-38.35 184.55 -51.65 177.8 L-51.75 182.95" fill="#2b691c" fill-rule="evenodd" stroke="none"/>
    <path d="M70.55 31.7 L45.85 30.65 Q58.95 21.95 57.4 6.2 L57.35 4.95 69.95 22.4 70.55 31.7 M70.65 35.1 L79.95 36.55 75.3 62.7 Q75.0 64.4 74.95 66.1 74.1 86.15 71.7 106.15 L71.25 106.3 Q66.65 108.35 61.55 108.75 68.15 94.85 69.7 79.6 L66.4 81.45 Q42.85 93.25 22.05 76.8 18.65 74.15 16.65 70.6 10.8 60.3 0.8 54.9 L0.3 53.85 1.4 52.55 Q3.3 50.65 5.65 49.6 L8.05 50.2 8.85 53.7 Q9.3 55.35 10.4 56.6 14.75 61.55 17.75 67.25 L18.85 68.5 Q27.05 74.75 37.05 78.4 40.15 79.5 43.3 80.05 60.5 81.1 72.1 68.25 L71.1 63.85 71.1 63.4 70.85 63.4 69.9 61.95 69.9 61.9 69.8 61.8 63.9 53.7 64.85 52.9 65.0 52.9 67.7 52.8 Q70.1 53.1 71.9 54.6 L72.0 54.1 Q69.85 44.95 60.2 48.05 L55.1 47.25 Q59.85 46.15 64.65 45.8 68.1 45.55 71.3 46.9 L70.65 35.1 M17.4 142.7 L15.8 152.6 -18.85 167.95 -24.4 164.1 Q-31.2 159.1 -38.3 154.4 -44.05 150.55 -48.8 146.4 L-48.1 137.75 Q-34.95 144.9 -19.0 151.7 0.85 148.75 16.75 143.0 17.05 142.8 17.4 142.7 M-104.25 86.2 L-120.2 82.9 -120.2 78.2 -113.9 59.35 Q-112.25 60.25 -110.25 60.35 -109.15 74.8 -104.25 86.2 M6.25 -113.1 Q-2.4 -114.85 -11.75 -114.0 L-20.2 -113.4 -17.15 -140.25 6.25 -113.1 M46.0 -87.05 L44.75 -88.5 Q34.35 -101.1 19.7 -108.65 36.15 -117.6 51.5 -128.45 L46.0 -87.05 M49.25 -82.55 Q62.7 -61.8 67.45 -20.15 69.4 -3.2 69.9 17.25 L63.95 8.9 57.2 -0.35 Q56.7 -5.1 55.25 -8.15 52.65 -13.25 46.2 -15.15 L41.6 -21.55 49.25 -82.55 M16.8 57.55 L14.2 56.0 8.85 50.3 18.3 55.75 16.8 57.55 M3.9 67.45 Q-0.75 61.85 -4.0 55.3 -5.1 53.15 -3.95 51.2 -2.9 49.35 -0.7 48.9 L-1.85 51.5 Q-2.9 53.05 -1.8 54.5 2.8 60.4 4.55 67.3 L3.9 67.45 M58.8 113.65 Q55.7 118.55 51.9 122.15 39.35 133.8 21.15 141.25 L25.2 112.85 47.6 114.05 58.8 113.65 M62.4 145.05 Q78.3 146.1 80.85 162.85 82.35 172.55 73.1 174.75 67.05 176.05 62.05 172.45 49.3 163.2 55.8 149.45 56.8 147.35 59.15 146.3 60.75 145.6 62.4 145.05 M71.3 158.2 L71.65 157.65 Q72.75 151.8 66.9 150.8 65.0 150.7 64.6 152.7 63.3 159.55 71.3 158.2 M-72.9 -73.4 Q-65.5 -84.85 -56.15 -94.55 -42.7 -108.45 -24.1 -112.8 L-26.95 -85.5 -31.65 -86.45 Q-37.35 -87.7 -42.95 -85.7 -56.5 -80.95 -57.65 -65.2 L-60.85 -66.25 Q-67.9 -68.3 -72.9 -73.4 M-43.95 50.7 Q-35.6 52.55 -27.9 50.45 -25.95 49.95 -24.05 49.05 -22.95 48.5 -21.75 48.05 L-21.1 49.1 Q-19.9 49.55 -18.7 50.15 -16.1 51.5 -14.5 53.95 -28.4 62.5 -43.75 68.05 -50.0 70.4 -56.6 72.2 -68.35 75.15 -80.45 72.6 -90.95 70.4 -95.65 60.3 -92.6 58.75 -92.6 55.55 L-92.55 54.45 Q-83.8 69.15 -66.55 67.9 L-54.25 67.2 Q-50.25 66.65 -47.3 64.25 -41.85 59.65 -35.25 60.2 -31.7 60.6 -28.6 59.2 -21.75 55.95 -21.65 49.15 -26.3 52.3 -31.25 54.95 -34.75 56.85 -38.45 55.05 L-39.15 55.8 -42.0 54.9 -45.9 53.8 -44.05 53.3 -43.15 51.7 -43.95 50.7 M-109.8 36.95 Q-111.6 24.15 -115.65 12.0 L-116.45 9.75 -105.75 12.9 -109.8 36.95 M-71.95 15.8 L-104.85 9.0 -102.0 -2.5 -87.25 -10.25 -64.9 -20.55 Q-65.85 -2.15 -60.95 15.75 L-60.3 18.1 -71.95 15.8 M-98.8 -13.9 L-90.2 -38.9 Q-76.6 -37.15 -78.6 -50.7 -78.8 -52.15 -77.5 -52.9 -69.3 -57.6 -62.65 -51.75 -61.05 -50.3 -60.95 -48.25 -60.5 -36.55 -64.45 -25.1 -76.7 -19.85 -88.25 -13.5 L-91.2 -11.9 -100.8 -6.7 -98.8 -13.9 M-9.05 54.3 L-9.3 53.85 Q-9.7 57.0 -12.2 59.0 L-12.7 58.95 -18.45 62.45 -19.0 62.0 -20.0 62.95 -21.35 63.15 Q-15.85 57.85 -11.75 51.55 L-12.65 48.9 Q-8.5 49.2 -8.9 53.4 L-9.05 54.3 M-1.8 54.0 L-1.85 54.0 -1.8 53.95 -1.8 54.0 M-102.1 90.85 L-98.95 91.7 Q-73.7 98.25 -48.0 102.8 L-51.45 135.9 Q-66.4 127.55 -79.8 116.75 -93.5 105.85 -102.1 90.85 M-120.2 133.35 L-120.2 110.2 Q-116.3 113.9 -115.4 119.5 -114.05 127.85 -120.2 133.35 M-51.75 182.95 L-51.65 177.8 Q-38.35 184.55 -23.45 184.3 L-11.5 183.6 -6.05 182.55 -6.3 187.65 Q-8.8 190.0 -12.55 189.15 L-16.7 188.85 -22.0 188.75 -23.05 200.25 -40.0 199.7 -39.65 185.3 -51.75 182.95" fill="#66cc66" fill-rule="evenodd" stroke="none"/>
    <path d="M44.1 34.1 L70.65 35.1 71.3 46.9 Q68.1 45.55 64.65 45.8 59.85 46.15 55.1 47.25 L49.65 47.05 Q45.95 44.55 46.6 40.0 47.1 36.3 44.1 34.1 M61.55 108.75 L46.9 109.85 22.1 108.75 17.4 142.7 Q17.05 142.8 16.75 143.0 0.85 148.75 -19.0 151.7 -34.95 144.9 -48.1 137.75 L-44.75 98.5 -48.15 97.9 -55.8 96.55 Q-80.3 93.0 -104.25 86.2 -109.15 74.8 -110.25 60.35 L-106.55 61.55 Q-99.2 62.0 -95.65 60.3 -90.95 70.4 -80.45 72.6 -68.35 75.15 -56.6 72.2 -50.0 70.4 -43.75 68.05 -28.4 62.5 -14.5 53.95 -16.1 51.5 -18.7 50.15 -19.9 49.55 -21.1 49.1 L-21.75 48.05 Q-22.95 48.5 -24.05 49.05 -25.95 49.95 -27.9 50.45 -35.6 52.55 -43.95 50.7 -47.1 45.65 -52.05 42.15 -53.7 41.0 -55.55 40.5 -62.7 38.7 -70.65 38.3 L-71.85 37.45 Q-78.8 29.7 -72.8 19.75 L-58.5 22.55 Q-53.0 35.9 -39.1 37.85 -35.6 38.1 -32.55 37.0 -12.35 29.25 -9.2 6.6 L-7.65 5.55 Q2.25 9.25 9.95 17.05 2.75 24.1 1.35 34.05 0.9 37.15 1.75 39.85 5.5 51.75 18.7 48.9 L23.2 51.75 18.3 55.75 8.85 50.3 8.05 50.2 5.65 49.6 Q3.3 50.65 1.4 52.55 L0.3 53.85 0.8 54.9 Q10.8 60.3 16.65 70.6 18.65 74.15 22.05 76.8 42.85 93.25 66.4 81.45 L69.7 79.6 Q68.15 94.85 61.55 108.75 M6.25 -113.1 L13.25 -104.95 19.7 -108.65 Q34.35 -101.1 44.75 -88.5 L46.0 -87.05 Q43.25 -64.85 38.65 -25.3 L10.75 -57.6 -11.75 -48.25 Q-12.4 -53.45 -9.2 -57.75 -8.15 -59.1 -8.15 -60.85 -8.1 -77.25 -23.95 -84.4 L-20.2 -113.4 -11.75 -114.0 Q-2.4 -114.85 6.25 -113.1 M37.95 -20.0 L37.55 -16.45 Q30.8 -15.35 24.2 -13.75 18.0 -12.3 12.35 -15.05 -6.05 -23.95 -10.75 -44.7 -0.3 -49.7 10.1 -54.65 L37.95 -20.0 M70.85 63.4 L71.1 63.4 71.1 63.85 70.85 63.4 M3.9 67.45 L4.55 67.3 Q2.8 60.4 -1.8 54.5 -2.9 53.05 -1.85 51.5 L-0.7 48.9 Q-2.9 49.35 -3.95 51.2 -5.1 53.15 -4.0 55.3 -0.75 61.85 3.9 67.45 M52.15 54.75 L52.15 54.9 51.6 54.9 52.15 54.75 M-2.85 181.8 L4.9 178.8 Q17.35 173.75 29.0 167.1 31.05 169.2 32.15 171.65 37.75 184.35 38.2 198.35 13.05 192.9 -6.35 210.15 -12.15 215.35 -17.25 221.25 -18.0 222.05 -18.95 222.65 -20.55 216.35 -26.55 213.25 -38.3 207.2 -47.7 217.35 -50.2 217.1 -51.7 215.2 L-56.75 208.3 Q-60.05 203.25 -66.0 204.1 -61.35 192.75 -63.1 180.7 -64.75 169.1 -76.5 167.4 -86.5 166.15 -92.25 174.15 -99.4 184.1 -104.75 195.2 -105.5 196.75 -107.05 197.8 L-106.95 196.65 Q-104.95 172.8 -93.0 152.5 -91.15 149.4 -88.15 147.35 -72.35 163.75 -53.9 176.5 L-53.9 185.2 -42.65 187.5 -42.6 202.55 -20.75 204.75 -19.25 190.85 -4.7 191.65 -2.85 181.8 M71.3 158.2 Q63.3 159.55 64.6 152.7 65.0 150.7 66.9 150.8 72.75 151.8 71.65 157.65 L71.3 158.2 M-9.05 54.3 L-8.9 53.4 Q-8.5 49.2 -12.65 48.9 L-11.75 51.55 Q-15.85 57.85 -21.35 63.15 L-20.0 62.95 -19.0 62.0 -18.45 62.45 -12.7 58.95 -12.2 59.0 Q-9.7 57.0 -9.3 53.85 L-9.05 54.3 M-1.8 54.0 L-1.8 53.95 -1.85 54.0 -1.8 54.0" fill="#ffffff" fill-rule="evenodd" stroke="none"/>
    <path d="M113.7 226.9 L113.7 273.2 97.75 273.2 107.95 268.05 108.05 267.45 109.1 266.4 108.8 265.25 Q106.7 245.8 101.65 226.75 L106.35 226.3 113.7 226.9 M44.25 273.2 L40.8 273.2 Q39.6 268.3 35.8 265.05 30.5 260.55 23.9 257.7 7.6 250.65 -10.0 247.9 L-28.25 245.35 Q-74.15 239.05 -117.8 252.6 -118.25 248.75 -117.0 245.0 -115.8 241.45 -112.8 239.15 -106.65 234.5 -98.95 232.75 -75.65 227.6 -51.7 228.3 -27.95 228.95 -4.75 233.75 17.65 238.5 36.15 251.45 47.95 259.65 44.25 273.2 M-93.75 273.2 L-120.2 273.2 -120.2 268.9 -116.75 270.05 Q-105.45 272.95 -93.75 273.2 M40.8 261.05 L40.9 260.25 37.7 257.1 Q24.9 244.9 7.2 242.05 25.4 249.55 40.8 261.05 M-112.15 -107.85 Q-98.0 -118.4 -81.6 -111.0 -73.8 -107.45 -73.45 -99.7 -73.4 -98.8 -73.65 -97.9 L-76.7 -96.25 Q-69.75 -92.4 -72.55 -86.35 -74.35 -82.4 -74.5 -78.0 -74.55 -75.5 -72.9 -73.4 -82.45 -58.8 -90.2 -38.9 L-96.8 -40.45 Q-107.15 -36.9 -116.85 -42.4 L-112.15 -107.85 M-120.2 -62.75 L-120.2 -70.55 -119.55 -71.15 -120.2 -62.75 M-120.2 9.7 L-119.55 11.8 -119.4 11.4 Q-117.15 20.5 -114.5 29.5 -110.3 43.9 -116.7 57.55 L-120.2 55.6 -120.2 9.7 M-104.85 9.0 Q-111.65 7.7 -117.8 4.5 L-119.7 3.55 -119.4 -6.8 Q-114.95 -14.25 -106.4 -14.6 L-98.8 -13.9 -100.8 -6.7 -91.2 -11.9 -87.25 -10.25 -102.0 -2.5 -104.85 9.0 M-21.65 237.3 Q-33.4 233.25 -45.75 232.85 -78.45 230.6 -109.45 241.45 -111.4 242.1 -113.15 243.5 -93.15 237.25 -72.15 235.45 -46.9 234.15 -21.65 237.3" fill="#1ed213" fill-rule="evenodd" stroke="none"/>
    <path d="M-119.55 -71.15 Q-113.8 -77.75 -115.2 -86.5 L-115.7 -89.15 Q-117.85 -99.55 -112.15 -107.85 L-116.85 -42.4 -120.2 -44.55 -120.2 -62.75 -119.55 -71.15 M45.85 30.65 L41.95 32.9 Q43.15 33.4 44.1 34.1 L31.75 33.6 37.55 -16.45 41.05 -16.2 41.05 -16.05 35.8 30.0 45.85 30.65 M-114.6 193.85 Q-114.6 195.5 -113.3 196.65 -112.0 197.8 -110.2 197.8 -111.85 215.15 -111.45 232.55 L-107.05 231.0 Q-96.0 227.6 -84.6 226.2 -60.25 223.45 -35.75 225.65 -10.8 228.2 13.05 235.15 24.55 238.5 34.25 245.5 L41.75 251.0 Q43.55 228.85 44.7 206.65 L44.9 200.3 48.65 202.0 48.5 205.05 51.3 203.55 54.7 206.15 48.4 209.4 46.35 232.0 Q50.9 231.6 55.2 230.1 L65.15 226.7 65.5 230.95 60.8 232.7 Q53.5 235.25 46.0 237.15 46.15 245.45 45.3 253.95 L48.05 259.8 Q51.1 266.65 48.15 273.2 L44.25 273.2 Q47.95 259.65 36.15 251.45 17.65 238.5 -4.75 233.75 -27.95 228.95 -51.7 228.3 -75.65 227.6 -98.95 232.75 -106.65 234.5 -112.8 239.15 -115.8 241.45 -117.0 245.0 -118.25 248.75 -117.8 252.6 -74.15 239.05 -28.25 245.35 L-10.0 247.9 Q7.6 250.65 23.9 257.7 30.5 260.55 35.8 265.05 39.6 268.3 40.8 273.2 L-93.75 273.2 Q-105.45 272.95 -116.75 270.05 L-120.2 268.9 -120.2 240.3 -116.15 234.55 Q-116.6 220.4 -115.45 206.1 L-120.2 202.7 -120.2 197.15 -115.15 201.55 -114.6 193.85 M97.5 227.75 L101.65 226.75 Q106.7 245.8 108.8 265.25 L109.1 266.4 108.05 267.45 107.95 268.05 97.75 273.2 81.45 273.2 Q92.4 271.1 102.55 266.5 L104.95 265.3 97.5 227.75 M-29.1 -36.05 Q-30.95 -11.5 -34.35 12.7 L-36.5 27.0 -58.5 22.55 -60.3 18.1 -39.25 22.35 -32.7 -34.5 -32.05 -39.5 -26.95 -85.5 -23.95 -84.4 -28.55 -41.05 -29.1 -36.05 M40.8 261.05 Q25.4 249.55 7.2 242.05 24.9 244.9 37.7 257.1 L40.9 260.25 40.8 261.05 M-120.2 -5.45 L-119.4 -6.8 -119.7 3.55 -117.8 4.5 Q-111.65 7.7 -104.85 9.0 L-71.95 15.8 -72.8 19.75 Q-101.6 14.1 -105.75 12.9 L-116.45 9.75 -115.65 12.0 Q-111.6 24.15 -109.8 36.95 L-109.5 39.2 Q-108.7 44.5 -110.55 49.45 L-113.8 58.95 -116.7 57.55 Q-110.3 43.9 -114.5 29.5 -117.15 20.5 -119.4 11.4 L-119.55 11.8 -120.2 9.7 -120.2 -5.45 M-21.65 237.3 Q-46.9 234.15 -72.15 235.45 -93.15 237.25 -113.15 243.5 -111.4 242.1 -109.45 241.45 -78.45 230.6 -45.75 232.85 -33.4 233.25 -21.65 237.3" fill="#029801" fill-rule="evenodd" stroke="none"/>
    <path d="M-110.2 197.8 L-110.15 196.75 -106.95 196.65 -107.05 197.8 -107.35 199.75 Q-109.35 215.4 -107.05 231.0 L-111.45 232.55 Q-111.85 215.15 -110.2 197.8 M57.2 -0.35 L46.2 -15.15 Q52.65 -13.25 55.25 -8.15 56.7 -5.1 57.2 -0.35 M41.05 -16.05 L57.35 4.95 57.4 6.2 Q58.95 21.95 45.85 30.65 L35.8 30.0 41.05 -16.05 M18.3 55.75 Q21.35 57.2 24.75 57.25 L26.1 56.65 Q31.15 57.5 35.7 54.45 40.35 51.3 45.7 49.7 L55.1 47.25 60.2 48.05 Q48.2 52.25 36.9 57.75 26.15 62.95 16.8 57.55 L18.3 55.75 M64.85 52.9 L63.9 53.7 69.8 61.8 Q62.95 53.75 52.15 54.9 L52.15 54.75 64.85 52.9 M38.2 198.35 Q41.85 199.05 44.9 200.3 L44.7 206.65 Q43.55 228.85 41.75 251.0 L34.25 245.5 Q37.1 237.65 37.75 229.2 38.9 213.75 38.2 198.35 M-90.2 -38.9 Q-82.45 -58.8 -72.9 -73.4 -67.9 -68.3 -60.85 -66.25 L-57.65 -65.2 Q-56.5 -80.95 -42.95 -85.7 -37.35 -87.7 -31.65 -86.45 L-26.95 -85.5 -32.05 -39.5 -64.45 -25.1 Q-60.5 -36.55 -60.95 -48.25 -61.05 -50.3 -62.65 -51.75 -69.3 -57.6 -77.5 -52.9 -78.8 -52.15 -78.6 -50.7 -76.6 -37.15 -90.2 -38.9 M-32.7 -34.5 L-39.25 22.35 -60.3 18.1 -60.95 15.75 Q-65.85 -2.15 -64.9 -20.55 L-32.7 -34.5 M-113.8 58.95 L-110.55 49.45 Q-110.7 55.05 -110.25 60.35 -112.25 60.25 -113.9 59.35 L-113.8 58.95 M-92.55 54.45 L-92.6 55.55 Q-92.6 58.75 -95.65 60.3 L-97.75 58.6 Q-99.95 57.05 -102.3 55.75 L-105.1 54.25 Q-105.45 50.3 -102.75 47.05 -94.65 37.2 -81.5 39.3 -77.95 39.65 -74.7 41.05 -59.85 47.75 -43.95 50.7 L-43.15 51.7 -44.05 53.3 -45.9 53.8 Q-62.85 49.25 -79.45 43.45 -84.35 41.75 -89.7 41.5 -97.25 40.85 -99.7 47.05 L-98.7 46.85 -95.1 46.5 -95.6 47.8 -95.15 49.6 Q-94.4 52.35 -92.55 54.45" fill="#47ef47" fill-rule="evenodd" stroke="none"/>
    <path d="M-23.95 -84.4 Q-8.1 -77.25 -8.15 -60.85 -8.15 -59.1 -9.2 -57.75 -12.4 -53.45 -11.75 -48.25 L-28.55 -41.05 -23.95 -84.4 M-10.75 -44.7 Q-6.05 -23.95 12.35 -15.05 18.0 -12.3 24.2 -13.75 30.8 -15.35 37.55 -16.45 L31.75 33.6 44.1 34.1 Q47.1 36.3 46.6 40.0 45.95 44.55 49.65 47.05 L55.1 47.25 45.7 49.7 Q40.35 51.3 35.7 54.45 31.15 57.5 26.1 56.65 L24.75 57.25 Q21.35 57.2 18.3 55.75 L23.2 51.75 18.7 48.9 Q5.5 51.75 1.75 39.85 0.9 37.15 1.35 34.05 2.75 24.1 9.95 17.05 2.25 9.25 -7.65 5.55 L-9.2 6.6 Q-12.35 29.25 -32.55 37.0 -35.6 38.1 -39.1 37.85 -53.0 35.9 -58.5 22.55 L-36.5 27.0 -34.35 12.7 Q-30.95 -11.5 -29.1 -36.05 L-10.75 -44.7 M34.25 245.5 Q24.55 238.5 13.05 235.15 -10.8 228.2 -35.75 225.65 -60.25 223.45 -84.6 226.2 -96.0 227.6 -107.05 231.0 -109.35 215.4 -107.35 199.75 L-107.05 197.8 Q-105.5 196.75 -104.75 195.2 -99.4 184.1 -92.25 174.15 -86.5 166.15 -76.5 167.4 -64.75 169.1 -63.1 180.7 -61.35 192.75 -66.0 204.1 -60.05 203.25 -56.75 208.3 L-51.7 215.2 Q-50.2 217.1 -47.7 217.35 -38.3 207.2 -26.55 213.25 -20.55 216.35 -18.95 222.65 -18.0 222.05 -17.25 221.25 -12.15 215.35 -6.35 210.15 13.05 192.9 38.2 198.35 38.9 213.75 37.75 229.2 37.1 237.65 34.25 245.5 M-72.8 19.75 Q-78.8 29.7 -71.85 37.45 L-70.65 38.3 Q-62.7 38.7 -55.55 40.5 -53.7 41.0 -52.05 42.15 -47.1 45.65 -43.95 50.7 -59.85 47.75 -74.7 41.05 -77.95 39.65 -81.5 39.3 -94.65 37.2 -102.75 47.05 -105.45 50.3 -105.1 54.25 L-102.3 55.75 Q-99.95 57.05 -97.75 58.6 L-95.65 60.3 Q-99.2 62.0 -106.55 61.55 L-110.25 60.35 Q-110.7 55.05 -110.55 49.45 -108.7 44.5 -109.5 39.2 L-109.8 36.95 -105.75 12.9 Q-101.6 14.1 -72.8 19.75" fill="#b3ffb3" fill-rule="evenodd" stroke="none"/>
    <path d="M57.2 -0.35 L57.35 4.95 41.05 -16.05 41.05 -16.2 46.2 -15.15 57.2 -0.35 M-32.05 -39.5 L-32.7 -34.5 -64.9 -20.55 -64.45 -25.1 -32.05 -39.5" fill="#29db22" fill-rule="evenodd" stroke="none"/>
    <path d="M65.0 52.9 L64.85 52.9 52.15 54.75 51.6 54.9 52.15 54.9 Q62.95 53.75 69.8 61.8 L69.9 61.9 69.9 61.95 67.75 60.9 Q63.45 59.0 59.05 58.4 43.0 56.05 27.3 61.2 20.85 63.3 15.85 58.7 L16.8 57.55 Q26.15 62.95 36.9 57.75 48.2 52.25 60.2 48.05 63.9 48.9 66.6 51.0 L66.65 52.55 65.0 52.9 M-92.8 52.7 L-92.55 54.45 Q-94.4 52.35 -95.15 49.6 L-95.6 47.8 -95.1 46.5 -98.7 46.85 -99.7 47.05 Q-97.25 40.85 -89.7 41.5 -84.35 41.75 -79.45 43.45 -62.85 49.25 -45.9 53.8 L-54.0 53.1 Q-62.1 52.05 -69.65 49.15 -78.05 46.0 -87.0 45.25 -94.45 45.35 -92.8 52.7" fill="#00b500" fill-rule="evenodd" stroke="none"/>
    <path d="M67.75 60.9 Q60.65 59.35 54.15 62.35 L51.65 63.25 31.35 65.45 26.8 65.8 Q15.45 65.95 14.2 56.0 L16.8 57.55 15.85 58.7 Q20.85 63.3 27.3 61.2 43.0 56.05 59.05 58.4 63.45 59.0 67.75 60.9 M-45.9 53.8 L-42.0 54.9 -42.15 55.35 Q-56.85 59.2 -70.15 52.9 -77.7 49.3 -85.05 52.9 -89.05 54.85 -92.8 52.7 -94.45 45.35 -87.0 45.25 -78.05 46.0 -69.65 49.15 -62.1 52.05 -54.0 53.1 L-45.9 53.8" fill="#142f0d" fill-rule="evenodd" stroke="none"/>
    <path d="M-107.9 167.35 L-107.9 166.85 -107.65 167.05 -107.9 167.35 M101.65 226.75 L97.5 212.2 100.6 209.75 Q93.8 192.2 92.6 173.5 92.25 168.5 90.55 163.9 86.4 152.65 78.0 144.0 85.8 137.65 95.75 139.4 L96.6 138.9 Q98.5 137.55 99.4 135.6 L99.85 134.1 99.25 131.65 Q98.5 128.35 95.5 127.55 L90.45 126.0 Q89.9 127.9 88.55 128.95 80.1 135.35 71.5 127.2 L73.9 110.95 80.6 105.55 82.05 101.5 Q88.0 83.65 90.4 64.9 97.25 68.65 97.8 76.7 98.05 80.2 95.75 82.95 92.95 86.4 88.65 87.45 93.85 90.25 94.15 96.25 94.25 98.85 93.8 101.4 96.55 95.45 101.65 91.3 103.95 89.4 106.75 89.0 110.25 88.7 113.7 89.9 L113.7 172.6 Q108.25 175.2 102.55 174.85 102.3 180.8 105.3 186.0 106.35 187.75 107.85 189.25 110.45 191.8 113.7 193.6 L113.7 226.9 106.35 226.3 101.65 226.75" fill="#21a616" fill-rule="evenodd" stroke="none"/>
    <path d="M-120.2 101.65 L-96.5 118.65 Q-105.1 128.3 -107.5 140.9 -110.5 156.7 -112.75 172.65 L-120.2 165.35 -120.2 133.35 Q-114.05 127.85 -115.4 119.5 -116.3 113.9 -120.2 110.2 L-120.2 101.65 M-120.2 170.5 L-113.3 179.2 -114.6 193.85 Q-115.1 186.25 -119.1 180.05 L-120.2 178.5 -120.2 170.5 M48.65 202.0 Q49.2 178.2 43.4 155.1 L41.4 146.85 60.3 137.25 Q68.6 141.7 75.25 148.3 87.4 160.5 89.4 177.8 91.2 193.25 95.85 208.2 88.75 214.6 80.45 219.35 73.05 223.65 65.15 226.7 63.9 215.45 56.1 207.45 L54.7 206.15 79.4 192.8 79.15 191.85 Q67.85 195.7 57.1 200.85 L51.3 203.55 Q50.05 202.7 48.65 202.0 M62.4 145.05 Q60.75 145.6 59.15 146.3 56.8 147.35 55.8 149.45 49.3 163.2 62.05 172.45 67.05 176.05 73.1 174.75 82.35 172.55 80.85 162.85 78.3 146.1 62.4 145.05" fill="#666666" fill-rule="evenodd" stroke="none"/>
    <path d="M-110.15 196.75 L-107.9 167.35 -107.65 167.05 -107.9 166.85 Q-106.95 143.75 -95.5 123.7 L-93.65 120.8 -35.7 162.65 -36.45 166.3 -53.9 165.9 -53.9 176.5 Q-72.35 163.75 -88.15 147.35 -91.15 149.4 -93.0 152.5 -104.95 172.8 -106.95 196.65 L-110.15 196.75 M-12.55 170.8 L38.5 148.2 Q40.35 158.65 42.35 169.1 45.3 184.55 45.2 200.15 L45.05 199.85 Q45.0 199.75 44.9 200.3 41.85 199.05 38.2 198.35 37.75 184.35 32.15 171.65 31.05 169.2 29.0 167.1 17.35 173.75 4.9 178.8 L-2.85 181.8 -1.65 174.8 -1.95 174.55 Q-6.85 171.85 -12.55 170.8" fill="#b3e3ac" fill-rule="evenodd" stroke="none"/>
    <path d="M-120.2 197.15 L-120.2 178.5 -119.1 180.05 Q-115.1 186.25 -114.6 193.85 L-115.15 201.55 -120.2 197.15 M54.7 206.15 L56.1 207.45 Q63.9 215.45 65.15 226.7 L55.2 230.1 Q50.9 231.6 46.35 232.0 L48.4 209.4 54.7 206.15 M51.3 203.55 L48.5 205.05 48.65 202.0 Q50.05 202.7 51.3 203.55" fill="#47d247" fill-rule="evenodd" stroke="none"/>
    <path d="M81.45 273.2 L48.15 273.2 Q51.1 266.65 48.05 259.8 L45.3 253.95 Q46.15 245.45 46.0 237.15 53.5 235.25 60.8 232.7 L65.5 230.95 65.55 237.15 Q71.8 236.8 73.3 242.85 L73.8 245.05 74.6 245.65 Q83.75 233.6 97.5 227.75 L104.95 265.3 102.55 266.5 Q92.4 271.1 81.45 273.2 M-120.2 240.3 L-120.2 202.7 -115.45 206.1 Q-116.6 220.4 -116.15 234.55 L-120.2 240.3" fill="#23c223" fill-rule="evenodd" stroke="none"/>
    <path d="M65.5 230.95 Q80.2 225.0 92.95 215.9 L93.95 215.1 97.5 227.75 Q83.75 233.6 74.6 245.65 L73.8 245.05 73.3 242.85 Q71.8 236.8 65.55 237.15 L65.5 230.95" fill="#333333" fill-rule="evenodd" stroke="none"/>
  </g>
</svg>
