<?xml version="1.0" encoding="UTF-8" standalone="no"?>
<svg xmlns:xlink="http://www.w3.org/1999/xlink" height="445.45px" width="231.05px" xmlns="http://www.w3.org/2000/svg">
  <g transform="matrix(1.0, 0.0, 0.0, 1.0, 116.2, 173.45)">
    <path d="M114.85 -126.2 L114.85 -106.75 102.1 -104.05 104.6 -109.7 95.75 -123.15 98.55 -123.0 Q107.35 -122.0 114.85 -126.2 M39.45 272.0 L16.5 272.0 Q28.3 270.8 38.2 264.2 40.75 262.5 41.45 259.6 L41.5 259.7 39.45 272.0 M-34.2 272.0 L-112.8 272.0 -116.2 269.05 -116.2 241.8 Q-113.7 234.6 -112.5 227.1 L-111.3 221.45 -108.15 220.45 Q-103.9 210.15 -100.05 199.2 -98.0 193.4 -93.05 189.4 -85.35 183.2 -80.55 174.7 -75.8 166.3 -76.25 156.55 L-70.85 167.4 Q-65.2 177.75 -58.75 187.45 L-74.5 182.15 -78.3 206.6 -78.4 207.5 Q-59.8 216.05 -39.85 220.7 -39.05 223.5 -36.4 225.7 -17.3 241.45 8.0 236.7 L17.2 235.65 Q33.55 233.55 38.2 218.1 45.15 216.25 48.25 209.95 L48.4 209.7 Q46.9 222.6 42.95 234.85 31.85 239.65 19.95 241.95 -9.1 247.1 -38.45 242.7 -60.4 239.35 -81.75 232.7 L-86.95 256.6 -85.95 257.4 -84.7 258.6 -84.4 258.25 Q-60.75 270.0 -34.2 272.0 M-116.2 217.7 L-116.2 192.4 -113.35 193.6 -109.15 193.7 -116.2 190.15 -116.2 132.3 -106.8 124.75 -116.2 112.1 -116.2 99.8 -115.3 99.55 Q-107.9 105.2 -101.75 111.85 -85.55 129.25 -79.15 152.2 -78.45 165.55 -86.1 176.6 -94.45 188.55 -107.8 195.1 L-105.95 195.35 Q-104.5 195.2 -103.6 196.2 L-103.65 197.1 Q-106.9 207.1 -110.6 216.85 L-111.25 217.2 -116.2 217.7 M-116.2 -117.0 L-116.2 -141.5 -95.75 -135.95 -94.15 -133.2 Q-88.3 -122.9 -86.0 -111.25 -103.65 -113.95 -116.2 -117.0 M43.35 187.8 L50.7 171.15 Q52.35 177.15 51.6 183.15 L51.3 183.3 Q47.75 186.3 43.35 187.8 M80.1 201.2 L80.35 200.7 80.35 200.95 80.1 201.2 M80.6 197.8 Q80.05 198.65 80.65 197.6 L80.6 197.8" fill="#626262" fill-rule="evenodd" stroke="none"/>
    <path d="M-116.2 -141.5 L-116.2 -145.6 -113.75 -145.0 Q-80.15 -164.25 -41.85 -170.0 L-42.55 -170.0 Q-2.7 -175.95 37.1 -171.6 42.45 -171.1 47.45 -168.65 76.7 -154.0 94.05 -125.65 L97.8 -125.85 Q107.3 -125.95 114.85 -131.05 L114.85 -126.2 Q107.35 -122.0 98.55 -123.0 L95.75 -123.15 104.6 -109.7 102.1 -104.05 Q98.65 -97.35 97.35 -90.05 93.1 -66.7 91.55 -42.7 L90.05 -21.3 114.85 -26.05 114.85 -21.1 89.85 -17.45 Q87.2 6.85 88.8 31.35 L86.6 32.7 Q80.35 36.6 73.5 39.65 L75.4 43.6 Q78.6 50.4 83.05 56.6 L69.4 124.65 63.9 130.8 Q82.8 142.95 88.15 164.6 91.75 179.1 85.9 192.6 L90.15 200.9 93.95 209.2 Q94.65 210.95 94.7 212.8 94.8 218.65 89.95 222.15 L90.9 225.25 Q97.75 248.15 97.1 272.0 L91.6 272.0 94.55 270.7 Q92.8 247.75 87.65 225.35 68.4 240.1 44.55 237.95 L37.35 241.45 Q37.6 244.5 36.9 247.6 L36.45 249.55 42.15 252.1 42.35 254.05 42.5 253.3 43.05 255.15 Q44.7 263.55 42.3 272.0 L39.45 272.0 41.5 259.7 41.6 258.05 41.55 258.5 40.25 256.4 Q41.1 252.6 37.4 251.85 L36.55 251.8 35.95 251.2 Q35.75 255.7 31.75 258.15 26.55 261.15 20.45 262.0 -16.95 265.75 -53.75 257.95 -68.7 254.85 -82.75 248.9 L-83.65 254.8 -85.95 257.4 -86.95 256.6 -81.75 232.7 Q-60.4 239.35 -38.45 242.7 -9.1 247.1 19.95 241.95 31.85 239.65 42.95 234.85 46.9 222.6 48.4 209.7 L48.1 206.25 Q47.1 203.85 44.8 202.45 L43.3 201.55 Q40.3 209.25 32.2 210.7 L15.05 213.05 Q-13.8 213.8 -42.15 209.25 -51.8 207.7 -61.15 204.3 L-74.75 199.15 -75.5 205.35 -78.3 206.6 -74.5 182.15 -58.75 187.45 Q-37.95 193.25 -16.35 193.55 L14.6 193.7 Q29.6 193.65 43.35 187.8 47.75 186.3 51.3 183.3 L51.6 183.15 Q52.35 177.15 50.7 171.15 L49.6 167.65 Q47.8 161.75 45.2 156.2 L41.25 160.8 34.4 155.95 31.7 168.45 19.6 180.1 5.85 175.45 -6.3 160.6 -7.2 168.85 Q-21.2 158.45 -32.85 145.6 L-34.05 153.55 Q-38.15 151.35 -41.85 148.75 -53.15 140.85 -60.35 129.05 L-61.15 136.75 Q-72.45 130.45 -82.85 122.3 L-81.25 126.5 Q-75.8 141.05 -76.25 156.55 -75.8 166.3 -80.55 174.7 -85.35 183.2 -93.05 189.4 -98.0 193.4 -100.05 199.2 -103.9 210.15 -108.15 220.45 L-111.3 221.45 -112.5 227.1 Q-113.7 234.6 -116.2 241.8 L-116.2 217.7 -111.25 217.2 -110.6 216.85 Q-106.9 207.1 -103.65 197.1 L-103.6 196.2 Q-104.5 195.2 -105.95 195.35 L-107.8 195.1 Q-94.45 188.55 -86.1 176.6 -78.45 165.55 -79.15 152.2 -80.9 140.1 -84.95 128.7 -86.3 124.95 -88.95 122.15 -100.35 110.1 -112.5 98.8 L-115.3 99.55 -116.2 99.8 -116.2 91.3 -62.75 131.0 -61.1 105.55 -42.15 98.95 -44.9 125.35 -46.35 141.95 -35.65 148.45 -35.55 148.6 -35.5 148.2 -30.65 94.35 -10.15 86.85 Q-10.85 100.3 -12.8 113.85 -14.25 124.15 -15.35 134.35 L-17.65 159.05 -8.8 163.65 Q-4.65 122.95 0.9 82.6 1.0 82.5 1.25 82.45 L1.25 82.3 19.6 75.65 19.9 74.9 20.25 75.25 20.25 78.8 Q18.65 103.75 14.8 128.65 L8.75 171.75 19.4 175.9 Q23.9 160.75 26.85 145.3 31.45 121.05 34.9 96.55 38.05 74.45 40.8 52.35 L34.9 54.7 Q17.7 61.15 0.2 66.45 -30.2 75.7 -61.65 75.55 L-64.3 72.15 Q-77.75 54.4 -84.2 33.15 L-90.15 14.2 -53.3 24.15 -14.25 33.75 -14.2 33.75 0.8 37.05 27.85 41.8 41.6 42.55 53.6 41.35 Q67.2 37.95 80.1 32.4 L80.65 32.1 Q85.15 30.8 85.1 26.15 L84.95 18.5 84.95 18.3 84.95 17.75 84.95 15.1 Q85.05 -8.65 87.0 -32.45 88.55 -51.15 90.8 -69.7 92.75 -90.8 99.55 -110.85 L89.9 -125.75 Q75.3 -148.7 52.25 -162.55 45.75 -166.45 38.4 -167.55 12.2 -171.95 -14.5 -169.75 -34.8 -167.7 -54.85 -163.35 -84.15 -157.2 -110.75 -143.4 L-94.0 -139.35 -92.35 -137.15 Q-86.3 -129.15 -84.05 -119.5 -78.15 -94.7 -82.15 -69.35 -83.6 -60.0 -87.75 -51.6 -96.25 -34.5 -116.2 -34.55 L-116.2 -39.5 -109.65 -39.95 Q-89.65 -44.3 -86.95 -65.1 -83.65 -85.5 -85.35 -105.9 L-86.0 -111.25 Q-88.3 -122.9 -94.15 -133.2 L-95.75 -135.95 -116.2 -141.5 M-112.8 272.0 L-116.2 272.0 -116.2 269.05 -112.8 272.0 M-116.2 192.4 L-116.2 190.15 -109.15 193.7 -113.35 193.6 -116.2 192.4 M-116.2 72.3 L-116.2 68.85 Q-105.95 51.45 -107.35 31.0 L-107.5 29.9 Q-109.2 19.1 -115.4 10.25 L-116.2 9.15 -116.2 6.25 -111.8 11.65 -111.5 12.05 -110.95 13.0 Q-104.05 25.25 -105.05 39.1 L-105.35 43.8 Q-106.7 56.05 -112.25 66.85 -113.85 69.95 -116.2 72.3 M44.95 -140.8 L43.85 -164.05 44.95 -164.05 45.9 -152.45 46.0 -150.75 Q47.8 -121.95 46.65 -93.2 45.55 -64.4 44.05 -35.8 L45.05 -35.65 41.95 -34.9 44.8 -84.75 Q46.2 -108.85 45.3 -132.95 L44.95 -140.8 M46.05 -35.35 L46.1 -35.35 46.1 -35.3 46.05 -35.35 M43.6 -30.95 L43.65 -32.4 45.25 -34.7 Q46.65 -32.35 46.0 -29.55 45.2 -5.2 42.55 19.0 41.65 27.45 40.35 35.75 L40.4 34.3 40.75 25.3 43.6 -30.95 M-24.85 33.15 Q-36.05 31.1 -45.4 37.25 -52.4 41.85 -54.8 49.65 L-5.9 59.75 -5.05 59.35 Q-4.65 50.6 -9.3 43.2 -14.95 34.85 -24.85 33.15 M-20.3 156.75 Q-17.3 123.85 -12.55 91.4 L-13.55 91.65 Q-20.95 93.85 -28.15 96.5 -27.9 98.75 -28.1 101.0 -30.1 121.85 -32.8 142.5 L-30.75 144.6 Q-24.9 150.1 -20.95 156.7 L-20.45 157.65 -20.3 156.75 M-46.25 116.2 L-44.3 102.0 -58.75 107.85 -60.3 126.8 -47.6 141.1 Q-47.85 128.65 -46.25 116.2 M41.35 192.25 Q16.85 198.8 -8.8 196.65 L-32.7 194.5 Q-52.85 192.6 -72.35 186.95 L-74.4 196.95 Q-43.65 210.85 -9.65 211.45 7.9 211.75 25.65 210.4 32.15 209.6 36.85 205.45 38.55 203.9 39.35 201.95 41.3 197.35 41.5 192.35 L41.55 192.15 41.35 192.25 M-62.45 241.9 Q-71.5 239.6 -80.4 236.3 L-82.2 246.45 Q-51.4 260.75 -17.6 261.45 2.6 261.9 22.75 259.1 27.95 258.55 30.75 254.25 34.25 248.75 34.6 242.2 11.2 248.75 -13.25 248.3 -38.2 247.8 -62.45 241.9 M68.4 41.3 L66.8 40.8 67.15 41.1 Q58.55 40.2 53.55 47.45 50.1 52.4 49.75 58.45 L50.65 59.4 Q62.6 55.65 75.0 58.1 L75.25 54.2 77.9 57.5 Q75.05 69.45 65.9 77.5 L64.85 78.3 45.9 57.8 42.4 53.4 Q39.05 75.85 36.15 98.4 33.1 122.5 28.4 146.55 25.8 159.95 22.2 173.1 26.2 171.3 27.55 167.3 34.8 145.65 38.3 123.1 42.9 101.15 45.85 78.65 L46.05 77.5 46.05 76.75 57.1 91.45 Q52.5 121.2 46.2 150.6 L47.9 148.25 Q57.0 135.35 57.5 119.05 L61.85 97.3 67.9 104.95 65.0 124.25 Q69.45 116.45 70.9 107.75 74.95 83.55 79.65 59.45 L79.75 58.95 80.05 57.6 72.6 44.85 72.2 44.1 72.0 43.75 70.5 40.55 68.6 41.1 68.4 41.25 68.4 41.3 M3.45 84.2 L0.35 106.6 Q-3.15 132.6 -5.9 158.6 L6.5 171.75 18.5 78.3 3.45 84.2 M54.95 91.65 L47.3 81.75 Q42.55 117.4 34.6 152.5 L41.35 156.9 46.3 139.0 Q52.0 115.55 54.95 91.65 M66.0 105.3 L62.75 101.35 58.1 127.0 61.7 130.0 66.0 105.3 M73.2 143.5 L73.05 143.25 66.85 136.65 57.5 129.55 Q56.8 143.5 47.15 153.35 55.85 168.35 54.8 185.6 50.35 190.2 44.3 191.4 44.85 195.6 43.35 199.55 L44.55 199.9 Q50.25 202.4 51.3 208.6 L56.95 209.6 51.05 211.1 47.35 234.3 Q70.0 235.75 87.15 221.35 92.4 217.0 92.4 211.25 L92.25 211.1 91.9 211.1 91.35 209.25 90.9 209.25 Q88.6 203.35 85.2 197.75 L83.95 195.7 80.35 200.95 80.35 200.7 80.1 201.2 78.6 202.9 Q74.35 205.2 69.75 206.6 L69.1 206.65 Q76.2 202.8 80.4 196.3 85.0 188.0 85.55 178.65 86.75 158.75 73.45 143.8 L73.2 143.5 M80.6 197.8 L80.65 197.6 Q80.05 198.65 80.6 197.8" fill="#000000" fill-rule="evenodd" stroke="none"/>
    <path d="M114.85 -106.75 L114.85 -34.45 114.3 -34.5 Q102.05 -36.4 91.55 -42.7 93.1 -66.7 97.35 -90.05 98.65 -97.35 102.1 -104.05 L114.85 -106.75 M-116.2 -54.55 L-116.2 -117.0 Q-103.65 -113.95 -86.0 -111.25 L-85.35 -105.9 Q-83.65 -85.5 -86.95 -65.1 -94.85 -60.55 -102.95 -57.75 -109.5 -55.55 -116.2 -54.55 M84.95 17.75 L84.95 18.3 83.65 18.4 Q67.35 0.25 53.2 -19.65 L46.0 -29.55 Q46.65 -32.35 45.25 -34.7 L43.65 -32.4 43.6 -30.95 43.35 -32.15 35.3 -30.6 20.25 -27.2 22.2 -17.3 22.05 -17.75 21.7 -15.45 20.95 -15.3 Q22.05 -21.3 18.15 -26.7 L14.9 -25.85 6.05 -23.55 Q6.1 -17.45 5.25 -11.3 4.6 -6.3 6.25 -1.7 9.75 8.0 6.75 17.5 L5.95 19.7 Q7.1 7.5 5.2 -4.4 3.7 -13.6 4.45 -23.0 L0.9 -22.05 -15.9 -16.8 -14.9 -4.85 -13.55 3.7 -14.1 3.85 -17.35 -15.8 -17.35 -16.35 -61.1 -2.55 -61.65 -2.4 -95.25 8.05 -110.35 12.6 -111.5 12.05 -111.8 11.65 -96.9 6.25 Q-57.5 -7.3 -17.5 -19.2 L-17.95 -21.0 Q-27.75 -45.05 -33.7 -70.3 L-33.45 -70.75 -32.9 -69.85 Q-23.6 -45.0 -16.05 -19.6 L-14.45 -20.05 -10.4 -21.25 -10.15 -21.3 4.1 -25.55 Q1.45 -43.5 -3.45 -60.95 -9.95 -84.15 -10.25 -106.7 -8.7 -91.1 -4.9 -75.85 1.25 -51.1 5.75 -25.95 L7.65 -26.5 17.2 -29.2 Q16.55 -32.25 18.3 -34.7 20.9 -38.35 22.55 -42.7 L19.05 -31.2 19.7 -29.8 20.65 -30.0 41.95 -34.9 45.05 -35.65 46.05 -35.35 46.1 -35.3 46.1 -35.35 82.25 14.15 84.95 17.75 M17.0 -99.9 L15.4 -100.15 15.2 -100.8 Q20.45 -103.2 20.25 -109.35 L21.75 -108.8 Q22.5 -106.6 21.3 -104.5 L20.6 -103.3 19.0 -101.0 Q18.0 -99.9 17.15 -99.9 L17.0 -99.9 M8.9 5.65 L8.95 5.55 8.9 5.7 8.9 5.65 M-54.6 -56.1 L-58.5 -54.2 -53.4 -59.6 -54.2 -61.25 -52.75 -64.8 -51.8 -64.25 -51.55 -63.55 Q-50.15 -58.5 -54.6 -56.1 M-51.85 -37.25 Q-52.95 -32.65 -58.0 -33.15 L-58.1 -34.05 -57.95 -34.35 Q-54.8 -34.5 -51.85 -37.25 M-1.55 -13.25 L-6.5 -7.9 -2.95 -15.2 -1.55 -13.25" fill="#404040" fill-rule="evenodd" stroke="none"/>
    <path d="M-116.2 132.3 L-116.2 112.1 -106.8 124.75 -116.2 132.3 M-116.2 85.25 L-116.2 79.1 -115.9 78.6 Q-104.3 63.3 -105.35 43.8 L-105.05 39.1 Q-104.05 25.25 -110.95 13.0 L-110.35 12.6 -95.25 8.05 Q-97.9 32.25 -94.1 56.5 -90.45 79.55 -84.55 101.9 L-82.6 109.35 Q-98.9 96.7 -116.2 85.25 M-116.2 56.45 L-116.2 9.15 -115.4 10.25 Q-109.2 19.1 -107.5 29.9 -107.9 43.45 -115.2 54.9 L-116.2 56.45 M-116.2 6.25 L-116.2 -25.45 Q-109.65 -8.75 -96.35 3.65 L-96.9 6.25 -111.8 11.65 -116.2 6.25 M-84.05 -119.5 Q-86.3 -129.15 -92.35 -137.15 L-94.0 -139.35 -110.75 -143.4 Q-84.15 -157.2 -54.85 -163.35 -34.8 -167.7 -14.5 -169.75 12.2 -171.95 38.4 -167.55 45.75 -166.45 52.25 -162.55 75.3 -148.7 89.9 -125.75 L99.55 -110.85 Q92.75 -90.8 90.8 -69.7 86.85 -94.95 72.7 -115.8 62.6 -130.75 47.0 -140.1 L45.9 -152.45 44.95 -164.05 43.85 -164.05 44.95 -140.8 Q21.35 -140.85 -1.35 -133.95 -23.0 -127.4 -43.6 -117.75 -58.85 -110.55 -73.6 -102.8 L-84.05 -119.5 M20.5 -160.2 L33.95 -161.55 Q9.9 -166.25 -14.65 -163.1 -32.0 -160.65 -48.9 -156.4 -65.8 -152.25 -82.25 -146.15 L-89.8 -143.0 Q-86.8 -141.65 -83.65 -139.9 -79.3 -137.5 -77.15 -132.85 L-75.5 -132.55 Q-52.45 -143.65 -27.95 -150.75 -4.05 -157.25 20.5 -160.2 M21.75 -108.8 Q24.55 -105.05 22.05 -101.35 20.2 -98.65 17.05 -99.1 L17.0 -99.9 17.15 -99.9 Q18.0 -99.9 19.0 -101.0 20.2 -101.9 20.6 -103.3 L21.3 -104.5 Q22.5 -106.6 21.75 -108.8 M22.2 -17.3 L20.25 -27.2 35.3 -30.6 21.8 -26.05 21.95 -25.4 Q22.85 -21.25 22.2 -17.3 M22.55 -42.7 L23.05 -43.25 Q21.55 -36.6 20.65 -30.0 L19.7 -29.8 19.05 -31.2 22.55 -42.7 M7.65 -26.5 L5.75 -25.95 Q1.25 -51.1 -4.9 -75.85 -8.7 -91.1 -10.25 -106.7 -4.4 -84.85 0.1 -62.3 3.65 -44.4 7.65 -26.5 M-10.15 -21.3 L-10.4 -21.25 -9.8 -21.5 -10.15 -21.3 M-14.45 -20.05 L-16.05 -19.6 Q-23.6 -45.0 -32.9 -69.85 L-31.6 -69.05 Q-27.45 -57.6 -22.75 -46.55 -17.15 -33.35 -14.45 -20.05 M-61.1 -2.55 L-17.35 -16.35 -17.35 -15.8 -18.15 -15.45 Q-39.0 -7.1 -61.05 -2.55 L-61.1 -2.55 M-14.9 -4.85 L-15.9 -16.8 0.9 -22.05 Q-6.0 -18.35 -13.7 -16.45 -13.15 -7.05 -13.5 2.4 L-14.9 -4.85 M6.75 17.5 Q9.75 8.0 6.25 -1.7 4.6 -6.3 5.25 -11.3 6.1 -17.45 6.05 -23.55 L14.9 -25.85 Q12.45 -24.05 9.55 -23.4 L8.35 -23.2 Q5.85 -8.6 8.9 5.65 L8.9 5.7 Q10.05 11.3 7.35 16.45 L6.75 17.5 M-54.6 -56.1 Q-50.15 -58.5 -51.55 -63.55 L-51.8 -64.25 -52.65 -66.85 Q-49.25 -64.65 -48.85 -60.5 L-51.2 -57.3 -50.85 -58.45 -52.0 -57.4 Q-53.1 -56.45 -54.6 -56.1 M-58.1 -34.05 L-58.0 -33.15 Q-52.95 -32.65 -51.85 -37.25 L-50.45 -38.75 Q-48.95 -35.3 -51.6 -32.65 L-52.5 -32.8 Q-56.15 -30.4 -59.3 -33.55 L-58.1 -34.05 M73.05 143.25 L73.2 143.6 73.45 143.8 Q86.75 158.75 85.55 178.65 85.0 188.0 80.4 196.3 L72.25 197.75 74.05 190.9 Q79.8 163.95 64.0 141.5 L66.85 136.65 73.05 143.25 M78.6 202.9 L80.1 201.2 80.35 200.95 83.95 195.7 85.2 197.75 Q88.6 203.35 90.9 209.25 L86.9 215.1 85.7 214.25 Q80.2 209.9 78.6 202.9" fill="#999999" fill-rule="evenodd" stroke="none"/>
    <path d="M45.9 -152.45 L47.0 -140.1 Q62.6 -130.75 72.7 -115.8 86.85 -94.95 90.8 -69.7 88.55 -51.15 87.0 -32.45 85.05 -8.65 84.95 15.1 L82.25 14.15 46.1 -35.35 46.05 -35.35 45.05 -35.65 44.05 -35.8 Q45.55 -64.4 46.65 -93.2 47.8 -121.95 46.0 -150.75 L45.9 -152.45 M84.95 18.5 L85.1 26.15 Q85.15 30.8 80.65 32.1 L78.55 32.15 Q65.25 34.35 53.6 41.35 L41.6 42.55 27.85 41.8 Q31.9 41.7 35.6 40.5 39.25 39.3 39.85 35.65 L40.35 35.75 Q41.65 27.45 42.55 19.0 45.2 -5.2 46.0 -29.55 L53.2 -19.65 Q67.35 0.25 83.65 18.4 L84.95 18.5 M-115.3 99.55 L-112.5 98.8 Q-100.35 110.1 -88.95 122.15 -86.3 124.95 -84.95 128.7 -80.9 140.1 -79.15 152.2 -85.55 129.25 -101.75 111.85 -107.9 105.2 -115.3 99.55 M-76.25 156.55 Q-75.8 141.05 -81.25 126.5 L-82.85 122.3 Q-72.45 130.45 -61.15 136.75 L-60.35 129.05 Q-53.15 140.85 -41.85 148.75 -38.15 151.35 -34.05 153.55 L-32.85 145.6 Q-21.2 158.45 -7.2 168.85 L-6.3 160.6 5.85 175.45 19.6 180.1 31.7 168.45 34.4 155.95 41.25 160.8 45.2 156.2 Q47.8 161.75 49.6 167.65 L50.7 171.15 43.35 187.8 Q29.6 193.65 14.6 193.7 L-16.35 193.55 Q-37.95 193.25 -58.75 187.45 -65.2 177.75 -70.85 167.4 L-76.25 156.55 M38.2 218.1 Q33.55 233.55 17.2 235.65 L8.0 236.7 Q-17.3 241.45 -36.4 225.7 -39.05 223.5 -39.85 220.7 L6.3 222.55 Q22.6 222.7 38.2 218.1 M79.65 59.45 Q74.95 83.55 70.9 107.75 69.45 116.45 65.0 124.25 L67.9 104.95 61.85 97.3 60.45 97.6 Q57.65 108.15 57.5 119.05 57.0 135.35 47.9 148.25 L46.2 150.6 Q52.5 121.2 57.1 91.45 L46.05 76.75 46.05 77.5 44.9 76.5 Q38.15 99.2 38.3 123.1 34.8 145.65 27.55 167.3 26.2 171.3 22.2 173.1 25.8 159.95 28.4 146.55 33.1 122.5 36.15 98.4 39.05 75.85 42.4 53.4 L45.9 57.8 Q55.0 71.25 65.3 83.4 70.65 78.65 74.0 72.5 77.4 66.3 79.55 59.45 L79.65 59.45 M40.4 34.3 L40.0 34.2 40.75 25.3 40.4 34.3 M80.4 196.3 Q76.2 202.8 69.1 206.65 L69.75 206.6 Q74.35 205.2 78.6 202.9 80.2 209.9 85.7 214.25 L86.9 215.1 90.9 209.25 91.35 209.25 91.9 211.1 92.25 211.1 92.4 211.25 Q92.4 217.0 87.15 221.35 70.0 235.75 47.35 234.3 L51.05 211.1 56.95 209.6 51.3 208.6 Q50.25 202.4 44.55 199.9 L43.35 199.55 Q44.85 195.6 44.3 191.4 50.35 190.2 54.8 185.6 55.85 168.35 47.15 153.35 56.8 143.5 57.5 129.55 L66.85 136.65 64.0 141.5 Q79.8 163.95 74.05 190.9 L72.25 197.75 80.4 196.3" fill="#555555" fill-rule="evenodd" stroke="none"/>
    <path d="M114.85 -34.45 L114.85 -26.05 90.05 -21.3 91.55 -42.7 Q102.05 -36.4 114.3 -34.5 L114.85 -34.45 M-116.2 -39.5 L-116.2 -54.55 Q-109.5 -55.55 -102.95 -57.75 -94.85 -60.55 -86.95 -65.1 -89.65 -44.3 -109.65 -39.95 L-116.2 -39.5 M80.65 32.1 L80.1 32.4 Q67.2 37.95 53.6 41.35 65.25 34.35 78.55 32.15 L80.65 32.1 M0.8 37.05 L-14.2 33.75 -14.25 33.7 -14.25 33.75 -53.3 24.15 Q-29.5 24.5 -7.6 33.45 L0.8 37.05 M-84.2 33.15 Q-77.75 54.4 -64.3 72.15 L-61.65 75.55 Q-30.2 75.7 0.2 66.45 17.7 61.15 34.9 54.7 27.4 59.4 19.05 62.75 -0.1 70.55 -20.1 76.15 -41.65 82.1 -63.95 82.75 -65.65 81.75 -66.75 80.15 -81.15 58.8 -84.2 33.15 M14.8 128.65 Q18.65 103.75 20.25 78.8 L20.25 75.25 Q20.45 74.8 20.75 75.45 21.85 77.55 21.9 79.85 22.65 104.85 14.8 128.65 M-15.35 134.35 Q-14.25 124.15 -12.8 113.85 -10.85 100.3 -10.15 86.85 -6.65 100.05 -10.3 113.7 -13.05 123.95 -15.35 134.35 M-44.9 125.35 L-42.15 98.95 -41.75 98.1 -41.35 99.8 -40.45 99.55 Q-40.4 112.85 -44.55 125.65 L-44.9 125.35 M-35.95 37.3 Q-18.6 33.1 -11.35 48.8 -10.2 51.25 -10.4 54.2 L-11.25 54.95 -49.2 48.0 Q-44.7 39.95 -35.95 37.3 M75.25 54.2 L75.15 53.35 Q74.55 46.0 68.85 41.6 L68.6 41.1 70.5 40.55 72.0 43.75 72.05 43.85 72.6 44.85 80.05 57.6 79.75 58.95 79.55 59.45 Q77.4 66.3 74.0 72.5 70.65 78.65 65.3 83.4 55.0 71.25 45.9 57.8 L64.85 78.3 65.9 77.5 Q75.05 69.45 77.9 57.5 L75.25 54.2 M68.55 41.35 L68.4 41.3 68.4 41.25 68.55 41.35 M61.85 97.3 L57.5 119.05 Q57.65 108.15 60.45 97.6 L61.85 97.3 M46.05 77.5 L45.85 78.65 Q42.9 101.15 38.3 123.1 38.15 99.2 44.9 76.5 L46.05 77.5 M71.75 52.85 L71.7 54.95 Q62.4 52.55 52.7 55.8 56.1 43.55 67.65 44.85 71.8 47.45 71.75 52.85 M73.05 143.25 L73.2 143.5 73.2 143.6 73.05 143.25" fill="#ff0000" fill-rule="evenodd" stroke="none"/>
    <path d="M20.5 -160.2 Q-4.05 -157.25 -27.95 -150.75 -52.45 -143.65 -75.5 -132.55 L-77.15 -132.85 Q-79.3 -137.5 -83.65 -139.9 -86.8 -141.65 -89.8 -143.0 L-82.25 -146.15 Q-65.8 -152.25 -48.9 -156.4 -32.0 -160.65 -14.65 -163.1 9.9 -166.25 33.95 -161.55 L20.5 -160.2" fill="#d9d9d9" fill-rule="evenodd" stroke="none"/>
    <path d="M-116.2 91.3 L-116.2 85.25 Q-98.9 96.7 -82.6 109.35 L-84.55 101.9 Q-90.45 79.55 -94.1 56.5 -97.9 32.25 -95.25 8.05 L-61.65 -2.4 -61.05 -2.55 Q-39.0 -7.1 -18.15 -15.45 L-17.35 -15.8 -14.1 3.85 -13.55 3.7 -14.9 -4.85 -13.5 2.4 Q-13.15 -7.05 -13.7 -16.45 -6.0 -18.35 0.9 -22.05 L4.45 -23.0 Q3.7 -13.6 5.2 -4.4 7.1 7.5 5.95 19.7 L6.75 17.5 7.35 16.45 Q10.05 11.3 8.9 5.7 L8.95 5.55 8.9 5.65 Q5.85 -8.6 8.35 -23.2 L9.55 -23.4 Q12.45 -24.05 14.9 -25.85 L18.15 -26.7 Q22.05 -21.3 20.95 -15.3 L21.7 -15.45 22.05 -17.75 22.2 -17.3 Q22.85 -21.25 21.95 -25.4 L21.8 -26.05 35.3 -30.6 43.35 -32.15 43.6 -30.95 40.75 25.3 40.0 34.2 39.85 35.65 Q39.25 39.3 35.6 40.5 31.9 41.7 27.85 41.8 L0.8 37.05 -7.6 33.45 Q-29.5 24.5 -53.3 24.15 L-90.15 14.2 -84.2 33.15 Q-81.15 58.8 -66.75 80.15 -65.65 81.75 -63.95 82.75 -41.65 82.1 -20.1 76.15 -0.1 70.55 19.05 62.75 27.4 59.4 34.9 54.7 L40.8 52.35 Q38.05 74.45 34.9 96.55 31.45 121.05 26.85 145.3 23.9 160.75 19.4 175.9 L8.75 171.75 14.8 128.65 Q22.65 104.85 21.9 79.85 21.85 77.55 20.75 75.45 20.45 74.8 20.25 75.25 L19.9 74.9 19.6 75.65 1.25 82.3 0.9 82.6 Q-4.65 122.95 -8.8 163.65 L-17.65 159.05 -15.35 134.35 Q-13.05 123.95 -10.3 113.7 -6.65 100.05 -10.15 86.85 L-30.65 94.35 -35.5 148.2 -35.65 148.45 -46.35 141.95 -44.9 125.35 -44.55 125.65 Q-40.4 112.85 -40.45 99.55 L-41.35 99.8 -41.75 98.1 -42.15 98.95 -61.1 105.55 -62.75 131.0 -116.2 91.3 M-116.2 79.1 L-116.2 72.3 Q-113.85 69.95 -112.25 66.85 -106.7 56.05 -105.35 43.8 -104.3 63.3 -115.9 78.6 L-116.2 79.1 M-116.2 68.85 L-116.2 56.45 -115.2 54.9 Q-107.9 43.45 -107.5 29.9 L-107.35 31.0 Q-105.95 51.45 -116.2 68.85 M-116.2 -25.45 L-116.2 -34.55 Q-96.25 -34.5 -87.75 -51.6 -83.6 -60.0 -82.15 -69.35 -78.15 -94.7 -84.05 -119.5 L-73.6 -102.8 Q-58.85 -110.55 -43.6 -117.75 -23.0 -127.4 -1.35 -133.95 21.35 -140.85 44.95 -140.8 L45.3 -132.95 Q46.2 -108.85 44.8 -84.75 L41.95 -34.9 20.65 -30.0 Q21.55 -36.6 23.05 -43.25 L22.55 -42.7 Q20.9 -38.35 18.3 -34.7 16.55 -32.25 17.2 -29.2 L7.65 -26.5 Q3.65 -44.4 0.1 -62.3 -4.4 -84.85 -10.25 -106.7 -9.95 -84.15 -3.45 -60.95 1.45 -43.5 4.1 -25.55 L-10.15 -21.3 -9.8 -21.5 -10.4 -21.25 -14.45 -20.05 Q-17.15 -33.35 -22.75 -46.55 -27.45 -57.6 -31.6 -69.05 L-32.9 -69.85 -33.45 -70.75 -33.7 -70.3 Q-27.75 -45.05 -17.95 -21.0 L-17.5 -19.2 Q-57.5 -7.3 -96.9 6.25 L-96.35 3.65 Q-109.65 -8.75 -116.2 -25.45 M84.95 18.3 L84.95 18.5 83.65 18.4 84.95 18.3 M-14.2 33.75 L-14.25 33.75 -14.25 33.7 -14.2 33.75 M21.75 -108.8 L20.25 -109.35 Q20.45 -103.2 15.2 -100.8 L15.4 -100.15 17.0 -99.9 17.05 -99.1 Q20.2 -98.65 22.05 -101.35 24.55 -105.05 21.75 -108.8 M19.0 -101.0 L20.6 -103.3 Q20.2 -101.9 19.0 -101.0 M-51.8 -64.25 L-52.75 -64.8 -54.2 -61.25 -53.4 -59.6 -58.5 -54.2 -54.6 -56.1 Q-53.1 -56.45 -52.0 -57.4 L-50.85 -58.45 -51.2 -57.3 -48.85 -60.5 Q-49.25 -64.65 -52.65 -66.85 L-51.8 -64.25 M-51.85 -37.25 Q-54.8 -34.5 -57.95 -34.35 L-58.1 -34.05 -59.3 -33.55 Q-56.15 -30.4 -52.5 -32.8 L-51.6 -32.65 Q-48.95 -35.3 -50.45 -38.75 L-51.85 -37.25 M-1.55 -13.25 L-2.95 -15.2 -6.5 -7.9 -1.55 -13.25 M68.85 41.6 L68.55 41.35 68.4 41.25 68.6 41.1 68.85 41.6 M72.2 44.1 L72.6 44.85 72.05 43.85 72.2 44.1" fill="#6a6a6a" fill-rule="evenodd" stroke="none"/>
    <path d="M-35.95 37.3 Q-44.7 39.95 -49.2 48.0 L-11.25 54.95 -10.4 54.2 Q-10.2 51.25 -11.35 48.8 -18.6 33.1 -35.95 37.3 M-24.85 33.15 Q-14.95 34.85 -9.3 43.2 -4.65 50.6 -5.05 59.35 L-5.9 59.75 -54.8 49.65 Q-52.4 41.85 -45.4 37.25 -36.05 31.1 -24.85 33.15 M75.25 54.2 L75.0 58.1 Q62.6 55.65 50.65 59.4 L49.75 58.45 Q50.1 52.4 53.55 47.45 58.55 40.2 67.15 41.1 L66.8 40.8 68.4 41.3 68.55 41.35 68.85 41.6 Q74.55 46.0 75.15 53.35 L75.25 54.2 M71.75 52.85 Q71.8 47.45 67.65 44.85 56.1 43.55 52.7 55.8 62.4 52.55 71.7 54.95 L71.75 52.85" fill="#8f0101" fill-rule="evenodd" stroke="none"/>
    <path d="M84.95 15.1 L84.95 17.75 82.25 14.15 84.95 15.1 M79.75 58.95 L79.65 59.45 79.55 59.45 79.75 58.95" fill="#634758" fill-rule="evenodd" stroke="none"/>
    <path d="M40.0 34.2 L40.4 34.3 40.35 35.75 39.85 35.65 40.0 34.2" fill="#6d4e61" fill-rule="evenodd" stroke="none"/>
    <path d="M-35.5 148.2 L-35.55 148.6 -35.65 148.45 -35.5 148.2" fill="#7d576b" fill-rule="evenodd" stroke="none"/>
    <path d="M16.5 272.0 L-34.2 272.0 Q-60.75 270.0 -84.4 258.25 L-84.7 258.6 -85.95 257.4 -83.65 254.8 Q-76.45 259.35 -68.4 262.2 -48.8 268.85 -28.1 270.8 -2.95 272.8 21.75 269.2 34.75 267.2 40.25 256.4 L41.55 258.5 41.45 259.6 Q40.75 262.5 38.2 264.2 28.3 270.8 16.5 272.0 M-20.95 156.7 Q-24.9 150.1 -30.75 144.6 L-32.8 142.5 Q-30.1 121.85 -28.1 101.0 -27.9 98.75 -28.15 96.5 -20.95 93.85 -13.55 91.65 L-12.55 91.4 Q-17.3 123.85 -20.3 156.75 L-20.95 156.7 M-46.25 116.2 Q-47.85 128.65 -47.6 141.1 L-60.3 126.8 -58.75 107.85 -44.3 102.0 -46.25 116.2 M38.2 218.1 Q22.6 222.7 6.3 222.55 L-39.85 220.7 Q-59.8 216.05 -78.4 207.5 L-78.3 206.6 -75.5 205.35 Q-53.4 218.2 -28.05 219.85 -3.55 221.5 21.0 219.6 35.5 218.6 45.65 208.5 46.75 207.35 47.5 205.85 L48.1 206.25 48.4 209.7 48.25 209.95 Q45.15 216.25 38.2 218.1 M3.45 84.2 L18.5 78.3 6.5 171.75 -5.9 158.6 Q-3.15 132.6 0.35 106.6 L3.45 84.2 M54.95 91.65 Q52.0 115.55 46.3 139.0 L41.35 156.9 34.6 152.5 Q42.55 117.4 47.3 81.75 L54.95 91.65 M66.0 105.3 L61.7 130.0 58.1 127.0 62.75 101.35 66.0 105.3" fill="#2f2f2f" fill-rule="evenodd" stroke="none"/>
    <path d="M41.5 192.35 Q41.3 197.35 39.35 201.95 38.55 203.9 36.85 205.45 32.15 209.6 25.65 210.4 7.9 211.75 -9.65 211.45 -43.65 210.85 -74.4 196.95 L-72.35 186.95 Q-52.85 192.6 -32.7 194.5 L-8.8 196.65 Q16.85 198.8 41.35 192.25 L41.5 192.35 M-62.45 241.9 Q-38.2 247.8 -13.25 248.3 11.2 248.75 34.6 242.2 34.25 248.75 30.75 254.25 27.95 258.55 22.75 259.1 2.6 261.9 -17.6 261.45 -51.4 260.75 -82.2 246.45 L-80.4 236.3 Q-71.5 239.6 -62.45 241.9" fill="#2b2b2b" fill-rule="evenodd" stroke="none"/>
    <path d="M-20.3 156.75 L-20.45 157.65 -20.95 156.7 -20.3 156.75" fill="#32232e" fill-rule="evenodd" stroke="none"/>
    <path d="M91.6 272.0 L42.3 272.0 Q44.7 263.55 43.05 255.15 L42.5 253.3 42.35 254.05 42.15 252.1 36.45 249.55 36.9 247.6 Q37.6 244.5 37.35 241.45 L44.55 237.95 Q68.4 240.1 87.65 225.35 92.8 247.75 94.55 270.7 L91.6 272.0" fill="#262626" fill-rule="evenodd" stroke="none"/>
    <path d="M41.35 192.25 L41.55 192.15 41.5 192.35 41.35 192.25" fill="#3c3c3c" fill-rule="evenodd" stroke="none"/>
    <path d="M-75.5 205.35 L-74.75 199.15 -61.15 204.3 Q-51.8 207.7 -42.15 209.25 -13.8 213.8 15.05 213.05 L32.2 210.7 Q40.3 209.25 43.3 201.55 L44.8 202.45 Q47.1 203.85 48.1 206.25 L47.5 205.85 Q46.75 207.35 45.65 208.5 35.5 218.6 21.0 219.6 -3.55 221.5 -28.05 219.85 -53.4 218.2 -75.5 205.35 M-83.65 254.8 L-82.75 248.9 Q-68.7 254.85 -53.75 257.95 -16.95 265.75 20.45 262.0 26.55 261.15 31.75 258.15 35.75 255.7 35.95 251.2 L36.55 251.8 37.4 251.85 Q41.1 252.6 40.25 256.4 34.75 267.2 21.75 269.2 -2.95 272.8 -28.1 270.8 -48.8 268.85 -68.4 262.2 -76.45 259.35 -83.65 254.8" fill="#484848" fill-rule="evenodd" stroke="none"/>
  </g>
</svg>
