<?xml version="1.0" encoding="UTF-8" standalone="no"?>
<svg xmlns:xlink="http://www.w3.org/1999/xlink" height="458.75px" width="229.95px" xmlns="http://www.w3.org/2000/svg">
  <g transform="matrix(1.0, 0.0, 0.0, 1.0, 116.25, 199.8)">
    <path d="M113.7 -134.7 Q94.65 -139.8 73.65 -129.55 70.95 -159.2 77.45 -178.0 L75.95 -178.35 Q64.25 -179.7 53.1 -175.5 41.15 -171.0 30.2 -164.2 23.25 -178.7 24.25 -194.85 0.55 -190.6 -15.1 -172.65 -19.25 -167.9 -22.85 -162.7 -25.65 -171.0 -29.2 -178.85 -30.2 -181.1 -31.75 -182.5 -31.9 -182.35 -32.1 -182.25 L-32.4 -182.25 -32.4 -182.3 -32.1 -182.5 Q-44.9 -177.2 -52.75 -165.3 -56.7 -159.3 -60.0 -153.1 -67.15 -161.65 -77.5 -165.7 L-76.7 -148.6 Q-94.45 -148.4 -111.0 -142.4 -105.15 -132.65 -96.1 -125.8 -106.75 -113.7 -114.1 -99.4 L-116.25 -95.35 -116.25 -105.25 Q-110.55 -115.8 -102.25 -124.4 L-116.25 -141.0 -116.25 -144.45 Q-112.1 -146.4 -107.6 -147.85 -94.8 -151.95 -81.3 -152.4 L-82.15 -171.55 Q-80.45 -171.05 -78.8 -170.35 -68.55 -165.95 -60.75 -158.05 -55.6 -169.55 -46.8 -178.65 -39.35 -186.3 -28.65 -187.05 L-22.3 -169.65 Q-17.6 -177.05 -10.9 -182.7 5.8 -196.75 27.65 -199.8 L27.65 -191.65 Q27.85 -179.5 31.45 -167.85 54.75 -184.95 83.45 -182.75 75.35 -159.7 76.1 -135.0 94.4 -143.0 113.7 -138.35 L113.7 -134.7 M80.7 -105.25 Q96.2 -106.75 109.6 -98.45 L113.7 -103.3 113.7 -98.65 111.4 -96.7 113.7 -94.9 113.7 -89.45 Q99.15 -101.65 82.25 -101.85 73.55 -101.8 65.3 -99.45 L65.45 -99.55 Q72.55 -103.95 80.7 -105.25 M113.7 -59.95 L113.7 -55.65 103.8 -51.7 Q108.35 -33.95 103.95 -16.35 L102.4 -10.3 Q98.8 3.15 92.6 15.7 90.7 19.55 87.65 22.45 L86.35 23.4 85.8 23.15 84.25 57.75 Q91.75 59.65 94.6 67.1 96.8 72.9 94.95 79.2 L93.05 84.95 Q91.5 89.5 87.95 92.6 85.3 95.0 82.35 95.35 L79.25 130.95 Q79.2 131.85 78.65 132.65 70.95 143.0 60.3 150.6 68.0 152.8 73.4 158.35 77.8 162.9 81.5 168.1 90.2 180.35 89.95 195.25 89.95 196.85 90.3 198.35 92.55 207.65 95.4 216.85 L91.55 218.75 101.85 256.65 50.15 257.15 -27.55 258.65 -44.5 258.95 Q-77.85 259.1 -111.2 257.2 L-116.25 257.0 -116.25 254.1 -105.4 254.4 -92.8 255.05 -90.35 253.35 Q-90.1 240.2 -88.25 227.05 -87.95 225.0 -87.8 222.7 L-100.35 220.6 -116.25 217.3 -116.25 214.0 -89.2 219.3 -87.35 219.45 -84.8 206.4 Q-100.2 199.5 -116.25 194.15 L-116.25 192.2 Q-99.6 196.05 -83.9 203.1 -82.15 198.2 -79.9 193.5 -71.15 175.1 -75.9 155.75 L-81.35 151.6 -92.3 143.15 Q-104.25 133.55 -116.25 142.2 -115.4 131.95 -111.8 122.15 L-116.25 122.45 -116.25 118.5 -108.2 118.25 Q-107.2 123.1 -109.55 127.55 L-112.55 133.65 -113.55 135.0 Q-107.85 132.85 -101.85 133.05 -102.95 132.4 -103.05 131.25 -105.5 108.05 -111.2 85.15 L-116.25 86.35 -116.25 81.0 Q-109.3 78.8 -102.3 77.75 L-101.55 78.0 -101.35 79.1 Q-102.15 80.55 -103.25 81.55 -105.35 83.6 -108.05 84.45 L-106.6 90.4 -98.1 132.3 -90.8 138.3 Q-72.55 153.2 -50.3 161.15 -30.05 168.5 -8.45 168.85 6.25 169.05 20.45 165.75 45.45 159.6 64.65 142.45 74.1 133.95 75.4 122.1 77.9 99.2 79.15 76.0 L81.4 29.55 Q82.35 7.95 81.55 -13.05 L81.25 -14.75 Q76.0 -32.3 67.55 -48.55 65.05 -32.65 58.7 -17.8 L56.4 -12.65 55.4 -16.45 Q51.05 -30.55 42.15 -43.35 32.0 -58.0 18.55 -69.9 -13.8 -74.0 -45.4 -65.25 L-51.25 -63.5 -53.1 -60.55 Q-67.15 -39.6 -78.05 -17.2 -82.8 -7.55 -85.05 2.75 -85.55 5.15 -85.55 7.6 -85.5 17.0 -82.3 25.85 -77.95 38.0 -75.7 50.75 -82.45 47.6 -89.25 44.4 L-88.9 46.0 Q-87.65 55.55 -90.5 64.8 L-91.05 66.45 -95.05 76.4 Q-95.45 77.25 -96.4 77.85 -103.55 68.0 -105.95 55.9 -109.4 49.5 -115.3 45.3 L-116.25 44.65 -116.25 41.5 -109.3 46.15 Q-104.95 50.35 -103.4 53.3 L-103.0 54.6 Q-100.6 63.2 -96.65 71.25 L-96.4 71.75 -95.05 68.3 Q-89.55 56.9 -92.6 44.9 L-94.05 39.25 -79.95 45.3 Q-86.5 28.55 -88.9 11.1 -89.45 7.1 -88.35 3.15 -83.0 -16.0 -73.4 -33.6 -66.0 -47.3 -57.3 -60.3 L-68.4 -53.4 Q-59.15 -68.4 -41.6 -71.1 -28.2 -73.0 -14.8 -74.1 0.45 -75.05 15.35 -72.6 L8.55 -76.8 9.0 -78.25 Q19.1 -75.7 26.15 -68.2 41.2 -52.3 52.3 -33.55 54.5 -29.8 56.2 -25.7 L56.45 -25.1 Q64.55 -44.95 67.65 -67.45 68.75 -75.45 69.15 -83.55 71.8 -70.05 69.1 -56.55 L68.25 -52.75 Q78.85 -34.7 85.9 -14.8 93.0 -29.05 94.45 -45.15 95.1 -52.1 94.75 -58.9 L96.95 -52.55 113.7 -59.95 M-116.25 59.85 L-116.25 53.4 Q-107.15 60.45 -109.0 71.05 -109.15 72.0 -109.6 72.9 L-111.5 73.25 Q-112.25 66.5 -115.0 60.3 L-116.25 59.85 M-116.25 -54.85 L-116.25 -59.6 -113.7 -59.9 -116.25 -54.85 M59.9 11.4 Q66.5 8.6 73.0 11.15 73.75 11.45 74.25 12.05 77.15 15.35 75.65 19.55 L73.95 20.5 Q71.35 19.1 71.05 15.8 70.95 14.95 70.15 14.6 65.0 14.45 60.25 16.55 L58.9 17.2 57.3 16.5 57.15 16.15 Q56.0 12.6 59.9 11.4 M61.1 49.1 Q74.65 48.3 76.85 61.85 79.0 75.05 67.1 80.75 63.4 82.5 59.2 81.55 52.3 79.75 49.0 73.2 42.9 57.15 58.75 50.05 59.85 49.45 61.1 49.1 M86.75 -10.4 L86.05 15.55 Q99.95 -2.2 102.15 -25.0 103.35 -37.6 99.95 -49.75 L97.25 -48.25 Q98.2 -28.8 88.25 -12.55 L86.75 -10.4 M84.15 61.7 L82.8 90.1 84.0 89.15 85.7 87.9 Q91.0 82.55 91.45 74.95 91.65 71.95 90.7 68.95 89.15 63.95 84.15 61.7 M9.4 88.75 L11.35 88.85 Q12.05 94.25 15.5 98.35 25.4 109.95 40.2 104.65 50.6 101.05 48.1 90.85 L49.85 88.7 Q53.3 91.55 52.2 95.8 49.0 108.25 36.2 110.35 17.6 113.45 9.75 97.4 7.45 102.75 2.3 105.65 -4.95 109.8 -13.5 109.2 -23.2 108.85 -29.7 102.15 -38.4 93.25 -31.7 84.45 L-29.95 87.05 -30.55 87.65 Q-30.65 89.8 -30.1 91.85 -26.4 106.1 -10.4 105.1 5.8 103.95 9.4 88.75 M68.15 68.85 Q61.3 71.65 66.05 76.15 66.6 76.75 67.55 76.5 72.2 74.9 71.65 70.15 70.95 68.55 69.2 68.7 L68.15 68.85 M68.55 57.0 Q66.65 49.2 58.05 52.8 51.4 55.65 53.0 62.8 53.8 66.4 57.5 66.8 66.0 68.2 68.1 59.7 L68.55 57.0 M62.25 156.0 Q59.4 154.55 56.4 153.45 L44.5 161.6 Q51.2 183.6 54.95 206.2 65.0 203.1 75.6 201.7 L77.9 202.1 Q67.0 206.9 55.6 209.95 L57.45 221.45 Q68.1 222.0 78.75 218.9 85.25 217.2 91.2 214.6 L83.2 181.3 Q82.25 177.3 80.1 173.7 L77.2 168.95 Q71.4 160.7 62.25 156.0 M-18.95 193.15 L47.05 184.45 45.45 176.85 44.3 172.85 42.65 167.4 41.6 163.45 Q30.0 169.05 17.25 171.0 -2.35 174.0 -22.3 175.2 L-37.95 176.35 Q-52.85 177.7 -67.95 179.95 L-72.05 180.75 Q-73.8 188.25 -76.6 195.3 -78.7 200.55 -81.35 205.45 -50.55 197.5 -18.95 193.15 M96.55 249.85 Q92.95 234.6 88.4 219.65 L58.25 226.4 58.45 233.0 Q58.5 237.5 59.45 241.95 60.7 247.95 60.9 254.05 69.75 254.4 78.6 254.15 L97.05 253.15 96.55 249.85 M3.8 228.0 L38.1 231.15 55.5 233.3 53.25 214.65 43.2 214.35 -6.15 210.3 -78.25 208.75 -78.75 209.1 -80.1 210.0 -81.15 210.75 -82.25 211.65 -83.0 212.6 -83.3 213.15 -83.9 214.3 -84.6 215.4 -86.05 217.6 -83.1 213.45 -84.45 229.15 Q-65.5 225.85 -46.25 225.85 L3.8 228.0 M9.2 239.75 L56.15 239.0 55.85 235.95 50.25 235.6 5.45 231.35 Q-12.5 229.3 -30.6 229.6 L-71.45 231.1 -84.8 232.75 -86.55 251.3 Q-80.2 249.4 -73.7 248.05 -55.35 244.0 -36.6 243.0 L9.2 239.75 M14.7 254.4 L57.05 253.1 56.4 242.45 10.35 242.65 Q-14.55 243.35 -39.4 246.1 -63.4 248.6 -86.75 255.3 L-62.7 256.55 -19.45 254.8 Q-10.35 254.4 -1.4 254.55 6.65 254.7 14.7 254.4 M-8.6 206.55 Q15.9 207.55 40.1 210.85 L53.0 212.7 48.1 187.95 Q22.0 191.15 -3.9 195.05 L-15.9 196.75 -63.5 204.7 -8.6 206.55 M-34.65 7.05 Q-34.25 9.45 -34.95 11.55 L-35.35 11.7 Q-38.9 10.85 -42.3 8.9 -43.7 8.1 -45.5 8.15 -53.35 8.3 -56.35 14.9 L-57.05 15.45 -58.55 14.75 Q-59.4 7.95 -51.6 5.1 -44.3 2.4 -36.8 4.55 -35.0 5.05 -34.65 7.05 M-43.15 45.5 Q-49.8 41.4 -55.6 47.1 -59.2 50.6 -58.05 55.15 -57.05 59.1 -53.1 59.9 -47.15 61.3 -43.4 56.55 -39.0 51.05 -43.15 45.5 M-63.65 61.9 Q-64.75 47.45 -51.1 42.5 -49.05 41.75 -46.9 41.8 -30.2 43.75 -32.0 60.5 -33.3 67.1 -38.35 71.45 -40.0 72.9 -42.1 73.25 -57.75 76.65 -63.65 61.9 M-46.4 67.8 L-44.75 68.5 Q-42.25 69.5 -40.3 67.6 -34.95 62.35 -42.1 61.6 -46.85 63.0 -46.4 67.8 M-70.7 158.0 L-70.75 158.4 -70.75 158.25 -70.95 158.3 -71.1 176.8 -42.1 173.55 -29.35 172.15 Q-50.75 167.35 -70.7 158.0" fill="#000000" fill-rule="evenodd" stroke="none"/>
    <path d="M113.7 -134.7 L113.7 -103.3 109.6 -98.45 Q96.2 -106.75 80.7 -105.25 88.6 -119.3 104.4 -122.75 L106.05 -123.05 Q98.9 -129.2 88.9 -127.9 79.9 -126.45 71.8 -122.25 L65.2 -118.65 Q61.8 -136.15 63.65 -153.85 64.55 -162.2 68.35 -169.7 71.05 -175.1 75.95 -178.35 L77.45 -178.0 Q70.95 -159.2 73.65 -129.55 94.65 -139.8 113.7 -134.7 M113.7 -89.45 L113.7 -59.95 96.95 -52.55 94.75 -58.9 Q95.1 -52.1 94.45 -45.15 93.0 -29.05 85.9 -14.8 78.85 -34.7 68.25 -52.75 L69.1 -56.55 Q71.8 -70.05 69.15 -83.55 68.75 -75.45 67.65 -67.45 64.55 -44.95 56.45 -25.1 L56.2 -25.7 Q54.5 -29.8 52.3 -33.55 41.2 -52.3 26.15 -68.2 19.1 -75.7 9.0 -78.25 L8.55 -76.8 15.35 -72.6 Q0.45 -75.05 -14.8 -74.1 -28.2 -73.0 -41.6 -71.1 -59.15 -68.4 -68.4 -53.4 L-57.3 -60.3 Q-66.0 -47.3 -73.4 -33.6 -83.0 -16.0 -88.35 3.15 -89.45 7.1 -88.9 11.1 -86.5 28.55 -79.95 45.3 L-94.05 39.25 -92.6 44.9 Q-89.55 56.9 -95.05 68.3 L-96.65 71.25 Q-100.6 63.2 -103.0 54.6 L-103.4 53.3 -97.9 58.55 -97.45 58.05 -95.4 36.85 -84.5 39.5 Q-86.2 29.7 -89.7 20.35 -95.0 6.15 -89.3 -8.65 -81.45 -29.0 -71.6 -48.75 L-80.85 -45.0 -80.9 -45.5 Q-75.75 -55.85 -66.55 -63.05 -61.95 -66.55 -56.6 -68.1 -33.35 -75.35 -10.6 -84.1 3.5 -89.6 18.4 -92.2 22.35 -92.85 25.3 -90.45 44.15 -75.2 52.85 -52.55 62.95 -70.9 65.6 -91.6 L98.75 -86.1 97.4 -88.8 Q92.4 -98.35 82.25 -101.85 99.15 -101.65 113.7 -89.45 M-116.25 91.5 L-116.25 86.35 -111.2 85.15 Q-105.5 108.05 -103.05 131.25 -102.95 132.4 -101.85 133.05 -107.85 132.85 -113.55 135.0 L-112.55 133.65 Q-107.55 132.85 -106.85 127.7 -105.8 119.6 -107.6 111.4 -109.65 102.0 -112.05 92.7 L-116.25 91.5 M86.75 -10.4 L88.25 -12.55 Q98.2 -28.8 97.25 -48.25 L99.95 -49.75 Q103.35 -37.6 102.15 -25.0 99.95 -2.2 86.05 15.55 L86.75 -10.4" fill="#6c4824" fill-rule="evenodd" stroke="none"/>
    <path d="M75.95 -178.35 Q71.05 -175.1 68.35 -169.7 64.55 -162.2 63.65 -153.85 61.8 -136.15 65.2 -118.65 L71.8 -122.25 Q79.9 -126.45 88.9 -127.9 98.9 -129.2 106.05 -123.05 L104.4 -122.75 Q88.6 -119.3 80.7 -105.25 72.55 -103.95 65.45 -99.55 L65.3 -99.45 Q73.55 -101.8 82.25 -101.85 92.4 -98.35 97.4 -88.8 L98.75 -86.1 65.6 -91.6 Q62.95 -70.9 52.85 -52.55 44.15 -75.2 25.3 -90.45 22.35 -92.85 18.4 -92.2 3.5 -89.6 -10.6 -84.1 -33.35 -75.35 -56.6 -68.1 -61.95 -66.55 -66.55 -63.05 -75.75 -55.85 -80.9 -45.5 L-80.85 -45.0 -71.6 -48.75 Q-81.45 -29.0 -89.3 -8.65 -95.0 6.15 -89.7 20.35 -86.2 29.7 -84.5 39.5 L-95.4 36.85 -97.45 58.05 -97.9 58.55 -103.4 53.3 Q-104.95 50.35 -109.3 46.15 L-116.25 41.5 -116.25 -54.85 -113.7 -59.9 -116.25 -59.6 -116.25 -95.35 -114.1 -99.4 Q-106.75 -113.7 -96.1 -125.8 -105.15 -132.65 -111.0 -142.4 -94.45 -148.4 -76.7 -148.6 L-77.5 -165.7 Q-67.15 -161.65 -60.0 -153.1 -56.7 -159.3 -52.75 -165.3 -44.9 -177.2 -32.1 -182.5 L-32.4 -182.3 -32.4 -182.25 -32.1 -182.25 Q-31.9 -182.35 -31.75 -182.5 -30.2 -181.1 -29.2 -178.85 -25.65 -171.0 -22.85 -162.7 -19.25 -167.9 -15.1 -172.65 0.55 -190.6 24.25 -194.85 23.25 -178.7 30.2 -164.2 41.15 -171.0 53.1 -175.5 64.25 -179.7 75.95 -178.35 M-116.25 118.5 L-116.25 91.5 -112.05 92.7 Q-109.65 102.0 -107.6 111.4 -105.8 119.6 -106.85 127.7 -107.55 132.85 -112.55 133.65 L-109.55 127.55 Q-107.2 123.1 -108.2 118.25 L-116.25 118.5 M-96.65 71.25 L-95.05 68.3 -96.4 71.75 -96.65 71.25 M-16.55 -156.55 Q-28.7 -153.25 -38.05 -144.6 -38.35 -154.95 -36.9 -165.35 -49.15 -153.75 -55.3 -137.95 L-67.7 -150.65 -64.95 -132.85 Q-78.05 -136.2 -91.5 -134.6 -83.3 -130.85 -76.2 -125.4 L-79.5 -122.7 Q-90.4 -113.8 -94.9 -100.75 -80.35 -116.35 -59.3 -119.7 L-61.45 -120.15 Q-66.55 -121.05 -71.85 -120.4 -70.5 -122.05 -68.6 -123.05 -64.2 -125.4 -59.7 -125.8 L-61.6 -137.0 -53.1 -128.35 Q-53.2 -129.7 -52.75 -130.9 -50.0 -138.05 -42.9 -140.65 L-44.35 -136.5 Q-46.0 -130.65 -45.85 -124.65 -27.35 -148.55 0.5 -159.85 L-0.4 -159.95 Q-8.7 -159.25 -16.55 -156.55" fill="#996633" fill-rule="evenodd" stroke="none"/>
    <path d="M-116.25 81.0 L-116.25 59.85 -115.0 60.3 Q-112.25 66.5 -111.5 73.25 L-109.6 72.9 Q-109.15 72.0 -109.0 71.05 -107.15 60.45 -116.25 53.4 L-116.25 53.15 -107.7 58.2 -105.95 55.9 Q-103.55 68.0 -96.4 77.85 -95.45 77.25 -95.05 76.4 L-91.05 66.45 -90.5 64.8 Q-80.75 77.25 -85.2 91.7 -86.15 94.8 -89.25 96.1 -94.25 98.3 -99.5 95.8 -103.5 93.85 -106.6 90.4 L-108.05 84.45 Q-105.35 83.6 -103.25 81.55 -102.15 80.55 -101.35 79.1 L-101.55 78.0 -102.3 77.75 Q-109.3 78.8 -116.25 81.0 M-53.1 -60.55 L-51.25 -63.5 -45.4 -65.25 Q-13.8 -74.0 18.55 -69.9 32.0 -58.0 42.15 -43.35 51.05 -30.55 55.4 -16.45 L56.4 -12.65 58.7 -17.8 Q65.05 -32.65 67.55 -48.55 76.0 -32.3 81.25 -14.75 L81.55 -13.05 Q82.35 7.95 81.4 29.55 L79.15 76.0 Q77.9 99.2 75.4 122.1 74.1 133.95 64.65 142.45 45.45 159.6 20.45 165.75 6.25 169.05 -8.45 168.85 -30.05 168.5 -50.3 161.15 -72.55 153.2 -90.8 138.3 -87.05 140.35 -83.8 143.0 -75.4 149.85 -65.25 153.15 -28.05 165.05 10.55 157.2 16.7 155.8 22.9 154.75 38.9 151.95 49.6 140.15 52.5 137.05 53.8 133.05 61.15 110.8 60.65 87.05 L59.2 86.55 Q50.2 82.7 49.0 73.2 52.3 79.75 59.2 81.55 63.4 82.5 67.1 80.75 79.0 75.05 76.85 61.85 74.65 48.3 61.1 49.1 61.4 33.8 60.35 18.5 L60.25 16.55 Q65.0 14.45 70.15 14.6 70.95 14.95 71.05 15.8 71.35 19.1 73.95 20.5 L75.65 19.55 Q77.15 15.35 74.25 12.05 73.75 11.45 73.0 11.15 66.5 8.6 59.9 11.4 L60.1 -4.15 50.2 5.2 Q49.45 -1.25 48.05 -7.75 44.4 -24.35 34.75 -38.15 19.7 -59.7 -6.4 -65.0 -30.5 -69.95 -53.1 -60.55 M84.15 61.7 Q89.15 63.95 90.7 68.95 91.65 71.95 91.45 74.95 91.0 82.55 85.7 87.9 L84.0 89.15 82.8 90.1 84.15 61.7 M19.65 122.15 Q16.95 123.3 13.95 123.4 4.7 124.05 -3.9 120.65 3.45 119.8 10.35 117.25 L19.65 122.15 M-63.65 61.9 Q-57.75 76.65 -42.1 73.25 -40.0 72.9 -38.35 71.45 -33.3 67.1 -32.0 60.5 L-32.25 64.85 Q-33.75 79.25 -48.7 78.95 -64.65 77.7 -63.65 61.9" fill="#e7945c" fill-rule="evenodd" stroke="none"/>
    <path d="M-116.25 53.15 L-116.25 44.65 -115.3 45.3 Q-109.4 49.5 -105.95 55.9 L-107.7 58.2 -116.25 53.15 M-53.1 -60.55 Q-30.5 -69.95 -6.4 -65.0 19.7 -59.7 34.75 -38.15 44.4 -24.35 48.05 -7.75 49.45 -1.25 50.2 5.2 L60.1 -4.15 59.9 11.4 Q56.0 12.6 57.15 16.15 L57.3 16.5 58.9 17.2 60.25 16.55 60.35 18.5 Q61.4 33.8 61.1 49.1 59.85 49.45 58.75 50.05 42.9 57.15 49.0 73.2 50.2 82.7 59.2 86.55 L60.65 87.05 Q61.15 110.8 53.8 133.05 52.5 137.05 49.6 140.15 38.9 151.95 22.9 154.75 16.7 155.8 10.55 157.2 -28.05 165.05 -65.25 153.15 -75.4 149.85 -83.8 143.0 -87.05 140.35 -90.8 138.3 L-98.1 132.3 -106.6 90.4 Q-103.5 93.85 -99.5 95.8 -94.25 98.3 -89.25 96.1 -86.15 94.8 -85.2 91.7 -80.75 77.25 -90.5 64.8 -87.65 55.55 -88.9 46.0 L-89.25 44.4 Q-82.45 47.6 -75.7 50.75 -77.95 38.0 -82.3 25.85 -85.5 17.0 -85.55 7.6 -85.55 5.15 -85.05 2.75 -82.8 -7.55 -78.05 -17.2 -67.15 -39.6 -53.1 -60.55 M9.4 88.75 Q5.8 103.95 -10.4 105.1 -26.4 106.1 -30.1 91.85 -30.65 89.8 -30.55 87.65 L-29.95 87.05 -31.7 84.45 Q-38.4 93.25 -29.7 102.15 -23.2 108.85 -13.5 109.2 -4.95 109.8 2.3 105.65 7.45 102.75 9.75 97.4 17.6 113.45 36.2 110.35 49.0 108.25 52.2 95.8 53.3 91.55 49.85 88.7 L48.1 90.85 Q50.6 101.05 40.2 104.65 25.4 109.95 15.5 98.35 12.05 94.25 11.35 88.85 L9.4 88.75 M19.65 122.15 L10.35 117.25 Q3.45 119.8 -3.9 120.65 4.7 124.05 13.95 123.4 16.95 123.3 19.65 122.15 M-34.85 -50.8 L-34.95 -52.55 Q-45.55 -53.3 -48.3 -44.65 L-44.5 -40.4 -43.6 -40.35 Q-33.5 -40.6 -34.1 -50.65 L-34.85 -50.8 M-34.65 7.05 Q-35.0 5.05 -36.8 4.55 -44.3 2.4 -51.6 5.1 -59.4 7.95 -58.55 14.75 L-57.05 15.45 -56.35 14.9 Q-53.35 8.3 -45.5 8.15 -43.7 8.1 -42.3 8.9 -38.9 10.85 -35.35 11.7 L-34.95 11.55 Q-34.25 9.45 -34.65 7.05 M-32.0 60.5 Q-30.2 43.75 -46.9 41.8 -49.05 41.75 -51.1 42.5 -64.75 47.45 -63.65 61.9 -64.65 77.7 -48.7 78.95 -33.75 79.25 -32.25 64.85 L-32.0 60.5" fill="#ffcc99" fill-rule="evenodd" stroke="none"/>
    <path d="M-16.55 -156.55 Q-8.7 -159.25 -0.4 -159.95 L0.5 -159.85 Q-27.35 -148.55 -45.85 -124.65 -46.0 -130.65 -44.35 -136.5 L-42.9 -140.65 Q-50.0 -138.05 -52.75 -130.9 -53.2 -129.7 -53.1 -128.35 L-61.6 -137.0 -59.7 -125.8 Q-64.2 -125.4 -68.6 -123.05 -70.5 -122.05 -71.85 -120.4 -66.55 -121.05 -61.45 -120.15 L-59.3 -119.7 Q-80.35 -116.35 -94.9 -100.75 -90.4 -113.8 -79.5 -122.7 L-76.2 -125.4 Q-83.3 -130.85 -91.5 -134.6 -78.05 -136.2 -64.95 -132.85 L-67.7 -150.65 -55.3 -137.95 Q-49.15 -153.75 -36.9 -165.35 -38.35 -154.95 -38.05 -144.6 -28.7 -153.25 -16.55 -156.55" fill="#ce9d6c" fill-rule="evenodd" stroke="none"/>
    <path d="M-34.85 -50.8 L-34.1 -50.65 Q-33.5 -40.6 -43.6 -40.35 L-44.5 -40.4 -48.3 -44.65 Q-45.55 -53.3 -34.95 -52.55 L-34.85 -50.8" fill="#ffead5" fill-rule="evenodd" stroke="none"/>
    <path d="M68.55 57.0 L68.1 59.7 Q66.0 68.2 57.5 66.8 53.8 66.4 53.0 62.8 51.4 55.65 58.05 52.8 66.65 49.2 68.55 57.0 M68.15 68.85 L69.2 68.7 Q70.95 68.55 71.65 70.15 72.2 74.9 67.55 76.5 66.6 76.75 66.05 76.15 61.3 71.65 68.15 68.85 M-43.15 45.5 Q-39.0 51.05 -43.4 56.55 -47.15 61.3 -53.1 59.9 -57.05 59.1 -58.05 55.15 -59.2 50.6 -55.6 47.1 -49.8 41.4 -43.15 45.5 M-46.4 67.8 Q-46.85 63.0 -42.1 61.6 -34.95 62.35 -40.3 67.6 -42.25 69.5 -44.75 68.5 L-46.4 67.8" fill="#ffffff" fill-rule="evenodd" stroke="none"/>
    <path d="M-116.25 214.0 L-116.25 194.15 Q-100.2 199.5 -84.8 206.4 L-87.35 219.45 -89.2 219.3 -116.25 214.0 M-116.25 192.2 L-116.25 142.2 Q-104.25 133.55 -92.3 143.15 L-81.35 151.6 -75.9 155.75 Q-71.15 175.1 -79.9 193.5 -82.15 198.2 -83.9 203.1 -99.6 196.05 -116.25 192.2" fill="#7b7b7b" fill-rule="evenodd" stroke="none"/>
    <path d="M14.7 254.4 Q12.75 248.5 10.35 242.65 L56.4 242.45 57.05 253.1 14.7 254.4 M-15.9 196.75 L-3.9 195.05 Q22.0 191.15 48.1 187.95 L53.0 212.7 40.1 210.85 Q15.9 207.55 -8.6 206.55 L-15.9 196.75 M-70.7 158.0 Q-50.75 167.35 -29.35 172.15 L-42.1 173.55 Q-51.85 168.4 -61.85 163.9 -66.7 161.8 -70.7 158.0" fill="#5b482d" fill-rule="evenodd" stroke="none"/>
    <path d="M10.35 242.65 Q12.75 248.5 14.7 254.4 6.65 254.7 -1.4 254.55 -10.35 254.4 -19.45 254.8 L-62.7 256.55 -86.75 255.3 Q-63.4 248.6 -39.4 246.1 -14.55 243.35 10.35 242.65 M-15.9 196.75 L-8.6 206.55 -63.5 204.7 -15.9 196.75 M-42.1 173.55 L-71.1 176.8 -70.95 158.3 -70.75 158.25 -70.75 158.4 -70.7 158.0 Q-66.7 161.8 -61.85 163.9 -51.85 168.4 -42.1 173.55" fill="#856a3f" fill-rule="evenodd" stroke="none"/>
    <path d="M-37.95 176.35 L-33.25 179.75 Q-25.3 185.55 -18.95 193.15 -50.55 197.5 -81.35 205.45 -78.7 200.55 -76.6 195.3 -73.8 188.25 -72.05 180.75 L-67.95 179.95 Q-52.85 177.7 -37.95 176.35 M-6.15 210.3 L3.8 228.0 -46.25 225.85 Q-65.5 225.85 -84.45 229.15 L-83.1 213.45 -86.05 217.6 -84.6 215.4 -83.9 214.3 -83.3 213.15 -83.0 212.6 -82.25 211.65 -81.15 210.75 -80.1 210.0 -78.75 209.1 -78.25 208.75 -6.15 210.3 M9.2 239.75 L-36.6 243.0 Q-55.35 244.0 -73.7 248.05 -80.2 249.4 -86.55 251.3 L-84.8 232.75 -71.45 231.1 -30.6 229.6 Q-12.5 229.3 5.45 231.35 L9.2 239.75" fill="#c0954e" fill-rule="evenodd" stroke="none"/>
    <path d="M-37.95 176.35 L-22.3 175.2 Q-2.35 174.0 17.25 171.0 30.0 169.05 41.6 163.45 L42.65 167.4 44.3 172.85 45.45 176.85 47.05 184.45 -18.95 193.15 Q-25.3 185.55 -33.25 179.75 L-37.95 176.35 M-6.15 210.3 L43.2 214.35 53.25 214.65 55.5 233.3 38.1 231.15 3.8 228.0 -6.15 210.3 M5.45 231.35 L50.25 235.6 55.85 235.95 56.15 239.0 9.2 239.75 5.45 231.35" fill="#a3783a" fill-rule="evenodd" stroke="none"/>
    <path d="M96.55 249.85 L97.05 253.15 78.6 254.15 Q69.75 254.4 60.9 254.05 60.7 247.95 59.45 241.95 58.5 237.5 58.45 233.0 L58.25 226.4 88.4 219.65 Q92.95 234.6 96.55 249.85 M-100.35 220.6 L-87.8 222.7 Q-87.95 225.0 -88.25 227.05 -90.1 240.2 -90.35 253.35 L-92.8 255.05 -105.4 254.4 -100.35 220.6" fill="#262626" fill-rule="evenodd" stroke="none"/>
    <path d="M-116.25 254.1 L-116.25 217.3 -100.35 220.6 -105.4 254.4 -116.25 254.1" fill="#3c3c3c" fill-rule="evenodd" stroke="none"/>
    <path d="M62.25 156.0 Q71.4 160.7 77.2 168.95 L80.1 173.7 Q82.25 177.3 83.2 181.3 L91.2 214.6 Q85.25 217.2 78.75 218.9 68.1 222.0 57.45 221.45 L55.6 209.95 Q67.0 206.9 77.9 202.1 L75.6 201.7 Q65.0 203.1 54.95 206.2 51.2 183.6 44.5 161.6 L56.4 153.45 Q59.4 154.55 62.25 156.0" fill="#5e5e5e" fill-rule="evenodd" stroke="none"/>
  </g>
</svg>
