<?xml version="1.0" encoding="UTF-8" standalone="no"?>
<svg xmlns:xlink="http://www.w3.org/1999/xlink" height="433.15px" width="212.9px" xmlns="http://www.w3.org/2000/svg">
  <g transform="matrix(1.0, 0.0, 0.0, 1.0, 114.25, 169.9)">
    <path d="M-114.25 -102.45 L-111.15 -136.05 -108.05 -137.5 Q-86.05 -147.2 -62.8 -152.55 -39.75 -158.0 -16.0 -158.95 9.15 -159.85 33.85 -154.9 59.05 -149.6 82.25 -138.35 L82.5 -139.1 Q83.0 -114.75 82.25 -90.4 L82.0 -84.2 Q74.95 -95.4 67.05 -105.8 L67.55 -140.95 52.2 -123.2 43.35 -132.4 21.0 -123.25 -2.35 -147.2 Q-3.4 -128.8 -3.0 -110.4 -37.7 -88.7 -69.0 -61.85 -78.3 -53.85 -87.05 -45.35 -100.95 -31.85 -114.25 -17.7 L-114.25 -102.45 M-114.25 87.55 Q-89.45 86.65 -64.7 87.95 L-17.75 91.25 Q-20.75 116.55 -22.25 142.0 L-114.25 95.25 -114.25 87.55 M-114.25 239.9 Q-89.65 236.25 -64.9 237.7 -40.95 238.6 -17.7 244.45 6.55 250.45 29.35 261.1 L32.15 262.4 32.05 263.25 18.9 263.25 Q7.55 258.65 -4.4 255.35 -31.6 247.75 -59.55 246.7 -46.6 249.75 -33.6 251.5 -10.05 254.35 11.8 263.25 L-26.05 263.25 -37.6 261.1 Q-52.9 258.65 -69.05 257.8 L-113.35 258.65 -114.25 258.7 -114.25 248.25 -84.65 247.45 -86.25 246.8 Q-99.95 243.85 -114.25 246.2 L-114.25 239.9 M4.25 -72.2 L4.3 -71.95 Q-34.15 -60.95 -70.9 -44.4 -83.15 -38.9 -94.85 -32.1 -58.95 -67.05 -17.75 -95.55 -8.4 -102.05 1.4 -108.05 1.95 -90.1 4.25 -72.2 M-38.0 191.9 L-40.8 204.2 -57.35 203.5 -57.9 190.4 -58.25 190.0 -69.95 187.6 -69.4 174.3 -56.4 171.0 -55.9 170.0 -49.3 173.95 Q-37.0 181.35 -23.7 185.95 L-24.4 190.5 -37.6 191.55 -37.9 191.65 -38.0 191.9 M46.0 139.4 L53.7 96.65 67.05 98.35 64.1 126.1 46.0 139.4" fill="#999da6" fill-rule="evenodd" stroke="none"/>
    <path d="M82.5 -139.1 L82.0 -141.25 Q59.0 -154.85 33.0 -160.6 10.5 -165.6 -12.6 -166.1 -37.6 -166.6 -62.3 -162.6 -86.7 -158.6 -108.8 -148.05 L-114.25 -145.4 -114.25 -150.0 Q-90.9 -161.55 -65.25 -166.15 -43.25 -170.0 -20.8 -169.9 4.1 -169.75 28.55 -165.05 51.45 -160.9 72.15 -150.7 79.1 -147.3 85.55 -143.05 87.85 -113.35 86.75 -83.5 86.55 -77.45 88.9 -71.75 95.85 -54.8 95.95 -36.0 96.0 -29.7 96.45 -23.4 98.0 -2.75 98.45 17.75 L98.65 27.25 72.55 59.75 70.65 70.9 74.9 72.55 67.5 134.25 62.2 137.8 Q73.5 145.95 79.75 158.65 85.95 171.35 86.75 185.4 87.1 191.35 85.8 197.4 88.1 200.1 89.85 203.35 91.7 206.7 92.85 210.35 93.7 213.2 93.5 216.2 L88.45 220.0 98.0 263.25 93.1 263.25 83.35 222.75 Q61.1 234.0 37.3 241.95 L36.95 259.6 36.5 260.2 38.1 261.9 37.75 263.25 34.2 263.25 32.15 262.4 29.35 261.1 Q6.55 250.45 -17.7 244.45 -40.95 238.6 -64.9 237.7 -89.65 236.25 -114.25 239.9 L-114.25 236.0 Q-93.45 232.55 -72.3 234.0 -44.95 235.25 -18.45 241.55 8.0 248.0 33.35 258.3 L33.6 257.65 34.3 258.05 34.55 258.3 34.55 257.65 Q33.9 238.2 32.3 218.7 30.4 195.0 27.6 171.55 L25.9 164.1 9.95 173.1 Q-5.25 166.65 -20.0 159.05 L-20.55 159.1 -20.8 158.55 Q-34.9 150.9 -49.0 143.6 -76.45 129.4 -103.35 113.9 L-106.75 121.7 -114.25 141.0 -114.25 127.3 -114.15 127.05 -107.45 111.4 -114.25 107.4 -114.25 102.05 -85.05 118.55 Q-54.05 136.0 -22.85 152.7 L-22.25 142.0 Q-20.75 116.55 -17.75 91.25 L-64.7 87.95 Q-89.45 86.65 -114.25 87.55 L-114.25 84.2 Q-89.75 83.45 -65.2 84.8 L-17.05 87.45 -13.65 87.7 -18.9 143.7 -19.0 154.65 Q-5.1 161.85 9.45 168.0 L21.95 161.15 Q31.65 155.45 40.9 148.9 L42.15 140.15 Q46.4 118.55 49.8 96.8 L50.5 92.1 67.55 93.95 69.9 75.55 Q25.4 67.85 -19.75 66.55 -58.15 64.95 -96.6 64.9 L-114.25 65.55 -114.25 60.95 -68.8 61.2 Q-43.65 61.45 -18.6 62.55 4.35 63.55 27.45 65.9 L64.1 70.15 67.65 45.9 71.65 6.85 71.65 6.35 47.6 -10.5 Q15.55 -6.9 -15.7 1.55 L-34.95 7.05 Q-51.55 12.05 -67.3 19.0 -89.2 28.65 -110.5 39.25 L-111.8 47.65 -114.25 58.35 -114.25 34.4 -113.5 35.6 Q-90.2 24.05 -66.05 14.2 -44.0 5.35 -21.0 -0.9 2.15 -7.25 25.85 -11.05 37.55 -13.05 49.45 -13.9 L49.55 -13.8 49.55 -14.0 49.55 -18.45 49.3 -53.3 Q48.95 -76.3 47.65 -99.25 46.85 -113.55 43.2 -127.2 L41.9 -128.15 Q22.1 -120.05 3.6 -109.35 4.9 -89.05 7.55 -68.95 -5.55 -66.5 -18.1 -62.15 L-33.55 -56.8 Q-55.6 -49.3 -76.5 -39.2 -98.05 -28.9 -114.25 -11.3 L-114.25 -17.7 Q-100.95 -31.85 -87.05 -45.35 -78.3 -53.85 -69.0 -61.85 -37.7 -88.7 -3.0 -110.4 -3.4 -128.8 -2.35 -147.2 L21.0 -123.25 43.35 -132.4 52.2 -123.2 67.55 -140.95 67.05 -105.8 Q74.95 -95.4 82.0 -84.2 L82.25 -90.4 Q83.0 -114.75 82.5 -139.1 M17.55 -121.7 Q9.35 -131.0 -0.05 -139.0 L0.35 -112.3 Q8.65 -117.55 17.55 -121.7 M64.15 -109.35 L64.4 -132.2 54.45 -120.7 64.15 -109.35 M94.55 20.15 Q94.4 -4.85 91.4 -29.45 90.4 -37.85 85.45 -45.05 78.25 -55.4 69.15 -63.9 L69.15 -96.05 Q61.1 -108.4 51.15 -119.05 L44.4 -126.1 Q47.6 -112.65 49.7 -98.85 51.0 -90.25 50.75 -81.7 52.15 -58.75 51.8 -35.8 51.65 -26.85 50.85 -17.8 L50.6 -13.85 50.15 -13.75 49.75 -13.65 50.3 -13.3 Q71.95 -0.35 88.4 18.35 91.3 21.6 93.8 25.2 L94.0 25.6 94.1 25.4 94.55 20.15 M72.45 -91.2 L71.65 -65.95 Q82.75 -56.1 89.8 -43.05 L91.5 -39.75 Q92.2 -64.55 77.2 -84.6 L72.45 -91.2 M4.25 -72.2 Q1.95 -90.1 1.4 -108.05 -8.4 -102.05 -17.75 -95.55 -58.95 -67.05 -94.85 -32.1 -83.15 -38.9 -70.9 -44.4 -34.15 -60.95 4.3 -71.95 L4.25 -72.2 M72.15 -16.7 Q70.8 -24.25 71.8 -32.0 74.1 -40.6 81.55 -35.25 87.6 -30.95 89.55 -23.75 91.75 -15.4 87.55 -7.95 84.65 -2.8 79.2 -6.15 73.35 -9.7 72.15 -16.7 M-3.85 -37.7 Q-0.7 -21.35 -16.25 -15.45 -22.65 -13.05 -29.2 -15.05 -45.7 -20.2 -39.95 -35.85 -38.65 -39.35 -35.85 -41.75 -22.5 -53.2 -8.35 -43.85 -4.9 -41.55 -3.85 -37.7 M-62.55 19.0 L-19.2 20.65 -19.55 23.0 Q-26.05 23.65 -32.35 23.25 L-36.7 22.9 Q-32.7 28.45 -35.9 34.45 -39.0 40.1 -45.4 38.25 -54.5 35.5 -51.25 26.05 L-49.9 23.15 -49.2 22.5 -49.95 22.45 -62.55 22.15 -62.55 19.25 -62.55 19.0 M-114.25 258.7 L-113.35 258.65 -69.05 257.8 Q-52.9 258.65 -37.6 261.1 L-26.05 263.25 -95.95 263.25 -94.4 261.45 -114.25 261.85 -114.25 258.7 M65.5 23.2 L66.05 23.0 Q66.95 24.5 66.55 26.55 L66.45 27.05 54.5 26.7 Q58.25 31.1 57.2 37.15 56.45 41.65 52.2 42.75 48.15 43.7 44.5 42.15 40.25 40.35 40.15 35.85 40.0 29.45 45.15 25.85 L30.45 24.5 30.45 21.7 65.5 23.2 M64.1 126.1 L67.05 98.35 53.7 96.65 46.0 139.4 44.65 146.3 47.5 144.35 Q55.8 138.65 63.3 132.1 L64.1 126.1 M66.9 148.15 Q64.3 145.2 61.1 142.9 L58.95 141.45 Q44.95 152.25 29.95 161.6 29.6 165.5 30.65 169.35 L32.35 177.1 Q34.75 190.85 35.95 204.65 L62.3 202.2 52.95 205.15 42.95 207.95 36.45 209.75 36.55 210.15 Q37.25 224.15 37.3 237.35 L37.65 238.3 66.05 227.3 80.95 221.25 Q91.05 217.0 87.45 208.0 L82.8 197.1 81.95 197.9 Q79.5 200.0 76.25 200.75 L77.1 200.0 Q79.9 198.1 81.25 195.0 L83.1 190.5 82.7 180.85 82.4 179.1 Q79.1 161.25 66.9 148.15" fill="#000000" fill-rule="evenodd" stroke="none"/>
    <path d="M-114.25 -145.4 L-108.8 -148.05 Q-86.7 -158.6 -62.3 -162.6 -37.6 -166.6 -12.6 -166.1 10.5 -165.6 33.0 -160.6 59.0 -154.85 82.0 -141.25 L82.5 -139.1 82.25 -138.35 Q59.05 -149.6 33.85 -154.9 9.15 -159.85 -16.0 -158.95 -39.75 -158.0 -62.8 -152.55 -86.05 -147.2 -108.05 -137.5 L-111.15 -136.05 -114.25 -102.45 -114.25 -145.4 M49.55 -18.45 L49.55 -14.0 49.45 -13.9 Q37.55 -13.05 25.85 -11.05 2.15 -7.25 -21.0 -0.9 -44.0 5.35 -66.05 14.2 -90.2 24.05 -113.5 35.6 L-114.25 34.4 -114.25 31.4 -112.65 30.6 -112.35 31.1 Q-83.8 16.6 -53.8 5.3 -35.25 -1.55 -16.2 -6.45 6.3 -12.35 29.1 -16.15 39.15 -17.8 49.55 -18.45 M42.15 140.15 L40.9 148.9 Q31.65 155.45 21.95 161.15 L9.45 168.0 Q-5.1 161.85 -19.0 154.65 L-18.9 143.7 Q-3.0 151.85 12.95 159.95 L42.15 140.15" fill="#c9cccf" fill-rule="evenodd" stroke="none"/>
    <path d="M-114.25 -11.3 Q-98.05 -28.9 -76.5 -39.2 -55.6 -49.3 -33.55 -56.8 L-18.1 -62.15 Q-5.55 -66.5 7.55 -68.95 4.9 -89.05 3.6 -109.35 22.1 -120.05 41.9 -128.15 L43.2 -127.2 Q46.85 -113.55 47.65 -99.25 48.95 -76.3 49.3 -53.3 L49.55 -18.45 Q39.15 -17.8 29.1 -16.15 6.3 -12.35 -16.2 -6.45 -35.25 -1.55 -53.8 5.3 -83.8 16.6 -112.35 31.1 L-112.65 30.6 -114.25 31.4 -114.25 -11.3 M-114.25 65.55 L-96.6 64.9 Q-58.15 64.95 -19.75 66.55 25.4 67.85 69.9 75.55 L67.55 93.95 50.5 92.1 49.8 96.8 Q46.4 118.55 42.15 140.15 L12.95 159.95 Q-3.0 151.85 -18.9 143.7 L-13.65 87.7 -17.05 87.45 -65.2 84.8 Q-89.75 83.45 -114.25 84.2 L-114.25 65.55 M-114.25 141.0 L-106.75 121.7 Q-93.15 142.1 -74.1 157.45 L-59.4 168.7 -72.75 172.3 -72.6 190.3 -60.5 193.0 -60.1 205.85 -39.65 206.7 -35.5 193.7 -22.55 193.3 -22.05 192.9 -21.2 186.75 -9.5 193.25 Q0.0 187.25 9.75 182.2 19.05 177.3 27.6 171.55 30.4 195.0 32.3 218.7 33.9 238.2 34.55 257.65 L34.3 258.05 33.6 257.65 33.35 258.3 Q8.0 248.0 -18.45 241.55 -44.95 235.25 -72.3 234.0 -93.45 232.55 -114.25 236.0 L-114.25 141.0 M17.55 -121.7 Q8.65 -117.55 0.35 -112.3 L-0.05 -139.0 Q9.35 -131.0 17.55 -121.7 M-1.2 -37.1 L-0.9 -37.55 Q-1.5 -41.2 -3.55 -44.1 -7.2 -49.25 -12.9 -52.1 -30.7 -53.75 -40.45 -39.95 -48.9 -27.95 -37.85 -18.15 -32.15 -13.1 -24.5 -12.25 -15.45 -11.7 -8.6 -17.55 -1.75 -23.35 -1.75 -32.4 L-1.0 -33.05 -1.2 -37.1 M-114.25 261.85 L-94.4 261.45 -95.95 263.25 -114.25 263.25 -114.25 261.85" fill="#ffffff" fill-rule="evenodd" stroke="none"/>
    <path d="M50.85 -17.8 Q51.65 -26.85 51.8 -35.8 52.15 -58.75 50.75 -81.7 51.0 -90.25 49.7 -98.85 47.6 -112.65 44.4 -126.1 L51.15 -119.05 Q61.1 -108.4 69.15 -96.05 L69.15 -63.9 Q78.25 -55.4 85.45 -45.05 90.4 -37.85 91.4 -29.45 94.4 -4.85 94.55 20.15 87.35 8.1 75.95 -0.15 63.6 -9.25 50.85 -17.8 M64.15 -109.35 L54.45 -120.7 64.4 -132.2 64.15 -109.35 M74.35 -40.15 Q73.05 -38.35 72.3 -36.35 68.2 -25.45 71.15 -14.3 74.25 -2.7 85.25 -3.9 86.3 -4.0 86.9 -4.85 95.95 -17.95 88.4 -32.95 83.55 -42.6 74.35 -40.15 M-3.85 -37.7 Q-4.9 -41.55 -8.35 -43.85 -22.5 -53.2 -35.85 -41.75 -38.65 -39.35 -39.95 -35.85 -45.7 -20.2 -29.2 -15.05 -22.65 -13.05 -16.25 -15.45 -0.7 -21.35 -3.85 -37.7 M-1.2 -37.1 L-1.0 -33.05 -1.75 -32.4 Q-1.75 -23.35 -8.6 -17.55 -15.45 -11.7 -24.5 -12.25 -32.15 -13.1 -37.85 -18.15 -48.9 -27.95 -40.45 -39.95 -30.7 -53.75 -12.9 -52.1 -7.2 -49.25 -3.55 -44.1 -1.5 -41.2 -0.9 -37.55 L-1.2 -37.1" fill="#d2d5d7" fill-rule="evenodd" stroke="none"/>
    <path d="M72.45 -91.2 L77.2 -84.6 Q92.2 -64.55 91.5 -39.75 L89.8 -43.05 Q82.75 -56.1 71.65 -65.95 L72.45 -91.2" fill="#7b838c" fill-rule="evenodd" stroke="none"/>
    <path d="M50.85 -17.8 Q63.6 -9.25 75.95 -0.15 87.35 8.1 94.55 20.15 L94.1 25.4 93.8 25.2 Q91.3 21.6 88.4 18.35 71.95 -0.35 50.3 -13.3 L50.15 -13.75 50.6 -13.85 50.85 -17.8 M74.35 -40.15 Q83.55 -42.6 88.4 -32.95 95.95 -17.95 86.9 -4.85 86.3 -4.0 85.25 -3.9 74.25 -2.7 71.15 -14.3 68.2 -25.45 72.3 -36.35 73.05 -38.35 74.35 -40.15 M72.15 -16.7 Q73.35 -9.7 79.2 -6.15 84.65 -2.8 87.55 -7.95 91.75 -15.4 89.55 -23.75 87.6 -30.95 81.55 -35.25 74.1 -40.6 71.8 -32.0 70.8 -24.25 72.15 -16.7" fill="#a2a6aa" fill-rule="evenodd" stroke="none"/>
    <path d="M-111.8 47.65 L-110.5 39.25 Q-89.2 28.65 -67.3 19.0 -51.55 12.05 -34.95 7.05 L-15.7 1.55 Q15.55 -6.9 47.6 -10.5 L71.65 6.35 71.65 6.85 67.65 45.9 61.2 44.1 Q49.85 53.7 38.55 44.4 35.7 42.05 35.05 38.5 2.9 32.25 -28.7 37.9 -29.8 38.15 -30.75 38.95 -42.25 49.55 -55.95 41.05 -58.2 39.7 -60.05 37.65 -86.2 40.4 -111.8 47.65 M-49.9 23.15 L-51.25 26.05 Q-54.5 35.5 -45.4 38.25 -39.0 40.1 -35.9 34.45 -32.7 28.45 -36.7 22.9 L-32.35 23.25 Q-26.05 23.65 -19.55 23.0 L-19.2 20.65 -62.55 19.0 -62.65 18.75 -63.15 19.25 -62.55 19.25 -62.55 22.15 -49.95 22.45 -49.9 23.15 M65.5 23.2 L30.45 21.7 30.45 24.5 45.15 25.85 Q40.0 29.45 40.15 35.85 40.25 40.35 44.5 42.15 48.15 43.7 52.2 42.75 56.45 41.65 57.2 37.15 58.25 31.1 54.5 26.7 L66.45 27.05 66.55 26.55 Q66.95 24.5 66.05 23.0 L65.5 23.2" fill="#e7945c" fill-rule="evenodd" stroke="none"/>
    <path d="M-114.25 58.35 L-111.8 47.65 Q-86.2 40.4 -60.05 37.65 -58.2 39.7 -55.95 41.05 -42.25 49.55 -30.75 38.95 -29.8 38.15 -28.7 37.9 2.9 32.25 35.05 38.5 35.7 42.05 38.55 44.4 49.85 53.7 61.2 44.1 L67.65 45.9 64.1 70.15 27.45 65.9 Q4.35 63.55 -18.6 62.55 -43.65 61.45 -68.8 61.2 L-114.25 60.95 -114.25 58.35 M-49.9 23.15 L-49.95 22.45 -49.2 22.5 -49.9 23.15 M-62.55 19.25 L-63.15 19.25 -62.65 18.75 -62.55 19.0 -62.55 19.25" fill="#ffcc99" fill-rule="evenodd" stroke="none"/>
    <path d="M-22.25 142.0 L-22.85 152.7 Q-54.05 136.0 -85.05 118.55 L-114.25 102.05 -114.25 95.25 -22.25 142.0 M32.15 262.4 L34.2 263.25 32.05 263.25 32.15 262.4 M-59.4 168.7 L-58.45 168.4 -55.8 155.05 -36.1 155.85 -35.65 156.25 -33.55 170.2 -19.7 174.7 -19.4 175.15 -21.2 186.75 -22.05 192.9 -22.55 193.3 -35.5 193.7 -39.65 206.7 -60.1 205.85 -60.5 193.0 -72.6 190.3 -72.75 172.3 -59.4 168.7 M-37.6 191.55 L-24.4 190.5 -23.7 185.95 Q-37.0 181.35 -49.3 173.95 L-55.9 170.0 -56.4 171.0 -69.4 174.3 -69.95 187.6 -58.25 190.0 -57.9 190.4 -57.35 203.5 -40.8 204.2 -38.0 191.9 -37.6 191.55 M11.8 263.25 Q-10.05 254.35 -33.6 251.5 -46.6 249.75 -59.55 246.7 -31.6 247.75 -4.4 255.35 7.55 258.65 18.9 263.25 L11.8 263.25 M-114.25 246.2 Q-99.95 243.85 -86.25 246.8 L-84.65 247.45 -114.25 248.25 -114.25 246.2 M46.0 139.4 L64.1 126.1 63.3 132.1 Q55.8 138.65 47.5 144.35 L44.65 146.3 46.0 139.4" fill="#777e88" fill-rule="evenodd" stroke="none"/>
    <path d="M-114.25 107.4 L-107.45 111.4 -114.15 127.05 -114.25 126.55 -114.25 107.4 M52.95 205.15 L62.3 202.2 35.95 204.65 Q34.75 190.85 32.35 177.1 L30.65 169.35 Q29.6 165.5 29.95 161.6 44.95 152.25 58.95 141.45 L61.1 142.9 Q64.3 145.2 66.9 148.15 L66.45 148.65 Q45.25 151.3 39.8 171.9 36.3 185.1 49.5 190.0 56.9 192.7 64.95 192.15 68.05 191.65 70.95 190.8 79.05 188.5 82.7 180.85 L83.1 190.5 81.25 195.0 Q79.9 198.1 77.1 200.0 L76.2 200.3 Q65.35 205.4 52.95 205.15 M87.45 208.0 Q91.05 217.0 80.95 221.25 L66.05 227.3 37.65 238.3 37.3 237.35 Q37.25 224.15 36.55 210.15 L36.45 209.75 42.95 207.95 45.05 209.5 Q66.4 222.5 87.45 208.0" fill="#4d4d4d" fill-rule="evenodd" stroke="none"/>
    <path d="M-106.75 121.7 L-103.35 113.9 Q-76.45 129.4 -49.0 143.6 -34.9 150.9 -20.8 158.55 L-20.55 159.1 -20.0 159.05 Q-5.25 166.65 9.95 173.1 L25.9 164.1 27.6 171.55 Q19.05 177.3 9.75 182.2 0.0 187.25 -9.5 193.25 L-21.2 186.75 -19.4 175.15 -19.7 174.7 -33.55 170.2 -35.65 156.25 -36.1 155.85 -55.8 155.05 -58.45 168.4 -59.4 168.7 -74.1 157.45 Q-93.15 142.1 -106.75 121.7" fill="#bfbfbf" fill-rule="evenodd" stroke="none"/>
    <path d="M-114.15 127.05 L-114.25 127.3 -114.25 126.55 -114.15 127.05 M66.9 148.15 Q79.1 161.25 82.4 179.1 L82.7 180.85 Q79.05 188.5 70.95 190.8 68.05 191.65 64.95 192.15 56.9 192.7 49.5 190.0 36.3 185.1 39.8 171.9 45.25 151.3 66.45 148.65 L66.9 148.15 M77.1 200.0 L76.25 200.75 Q79.5 200.0 81.95 197.9 L82.8 197.1 87.45 208.0 Q66.4 222.5 45.05 209.5 L42.95 207.95 52.95 205.15 Q65.35 205.4 76.2 200.3 L77.1 200.0" fill="#666666" fill-rule="evenodd" stroke="none"/>
    <path d="M37.75 263.25 L38.1 261.9 36.5 260.2 36.95 259.6 37.3 241.95 Q61.1 234.0 83.35 222.75 L93.1 263.25 37.75 263.25" fill="#333333" fill-rule="evenodd" stroke="none"/>
  </g>
</svg>
