<?xml version="1.0" encoding="UTF-8" standalone="no"?>
<svg xmlns:xlink="http://www.w3.org/1999/xlink" height="448.5px" width="226.0px" xmlns="http://www.w3.org/2000/svg">
  <g transform="matrix(1.0, 0.0, 0.0, 1.0, 113.45, 177.7)">
    <path d="M48.3 -154.65 L48.0 -154.3 50.2 -150.1 Q54.15 -143.25 58.75 -136.85 71.8 -118.7 72.6 -96.65 L65.55 -101.0 63.05 -110.4 65.35 -107.7 Q62.2 -115.0 56.1 -120.35 37.7 -136.35 13.45 -141.75 L15.55 -149.15 Q19.25 -161.35 17.85 -173.95 L18.25 -174.35 20.5 -173.55 Q36.45 -167.25 48.3 -154.65 M44.05 -150.25 Q44.45 -152.15 43.15 -153.8 L41.75 -155.75 Q35.7 -164.75 26.5 -168.7 32.85 -157.3 42.3 -147.95 L43.75 -149.05 44.05 -150.25 M112.55 87.95 L112.55 94.3 Q98.95 94.05 87.05 88.25 L87.9 85.05 88.05 85.05 Q102.7 86.2 112.55 87.95 M-113.25 61.85 L-113.25 4.1 -99.95 -61.35 -99.8 -61.95 -98.55 -64.65 -97.4 -65.75 Q-95.7 -60.05 -90.05 -60.85 -87.45 -60.85 -87.15 -63.4 -86.8 -66.8 -87.55 -70.2 -86.2 -68.6 -84.25 -68.15 L-83.5 -68.1 Q-81.5 -65.6 -82.9 -61.95 -83.25 -61.1 -83.95 -60.45 L-85.15 -60.2 -87.5 -61.95 -87.8 -61.45 Q-87.45 -59.6 -85.25 -59.0 L-82.9 -58.95 Q-80.85 -62.0 -81.1 -66.25 -81.15 -67.5 -81.5 -68.65 -78.45 -71.45 -78.55 -75.95 -78.6 -78.7 -79.4 -81.4 -80.05 -83.55 -82.2 -83.9 -79.9 -78.45 -80.5 -72.8 -80.85 -69.85 -83.65 -69.95 -87.05 -70.35 -89.35 -73.25 L-90.25 -74.05 Q-90.15 -70.5 -89.1 -67.0 -88.45 -64.7 -89.75 -62.65 -92.75 -61.8 -94.45 -64.65 -97.15 -69.15 -97.15 -74.45 L-98.15 -73.95 -98.0 -68.15 -100.05 -72.85 Q-108.15 -92.8 -113.25 -113.65 L-113.25 -153.5 -110.55 -151.25 -110.85 -145.6 Q-112.75 -117.3 -96.85 -95.0 -90.5 -111.55 -80.8 -126.35 L-82.2 -125.55 -82.85 -125.1 -83.65 -126.45 Q-93.75 -145.95 -113.25 -156.4 L-113.25 -166.85 Q-105.1 -161.9 -96.55 -159.2 L-96.05 -159.75 Q-96.7 -162.15 -98.7 -163.9 -104.65 -169.1 -113.25 -168.9 L-113.25 -173.05 Q-103.15 -171.25 -93.75 -167.05 L-91.4 -166.0 Q-93.45 -163.5 -92.15 -160.45 -86.3 -146.65 -77.2 -135.0 L-77.65 -132.3 -77.65 -132.15 Q-67.2 -139.4 -54.3 -139.85 -28.7 -136.15 -11.7 -115.65 L-9.55 -113.0 -11.7 -112.5 Q-30.15 -107.4 -43.75 -93.95 L-49.3 -96.85 Q-53.6 -99.35 -58.3 -97.95 L-59.0 -97.65 -58.75 -96.95 -57.6 -97.0 Q-52.05 -93.5 -49.9 -87.2 L-52.1 -84.55 -56.85 -84.35 Q-61.2 -83.9 -64.75 -81.5 -82.9 -69.2 -78.9 -48.35 -79.2 -33.95 -67.0 -25.6 -63.55 -23.2 -65.7 -19.6 -67.7 -16.2 -72.25 -16.3 -84.7 -24.0 -85.75 -38.9 -87.65 -38.05 -87.9 -36.0 -89.05 -27.0 -82.85 -20.0 L-82.6 -19.45 Q-78.4 -13.1 -71.75 -9.55 L-71.7 -9.0 -69.8 -8.1 Q-69.15 -4.55 -72.55 -4.45 L-72.8 -3.95 Q-80.15 -9.8 -86.4 -16.9 L-85.5 -11.95 -85.3 -11.55 Q-82.8 -5.25 -82.25 1.0 -81.7 6.9 -82.6 12.95 L-84.4 24.95 Q-85.95 21.1 -84.95 16.7 L-84.5 13.5 Q-86.05 21.05 -90.05 27.1 -92.85 21.1 -92.15 14.4 -92.1 13.75 -92.2 13.1 L-93.35 13.5 Q-93.2 17.1 -94.75 20.15 -95.7 21.95 -97.2 23.1 L-98.5 23.05 Q-100.75 17.4 -99.9 11.55 L-99.8 10.55 -101.55 10.45 Q-102.35 15.95 -106.15 20.15 -106.9 21.0 -108.1 21.3 L-108.4 21.15 -109.8 6.45 Q-112.35 13.8 -109.55 21.05 L-108.45 22.6 Q-110.25 30.8 -104.6 34.75 -104.4 34.95 -103.95 34.55 L-99.55 30.95 -99.4 32.75 Q-99.25 34.0 -98.4 35.1 L-97.55 36.0 Q-98.7 39.8 -95.9 42.35 -95.4 42.8 -94.7 42.95 L-92.7 43.3 Q-91.55 43.1 -90.7 42.4 -92.75 43.05 -94.5 41.75 -96.15 40.55 -96.3 38.4 L-96.35 36.25 -95.4 35.9 Q-94.3 35.2 -93.45 33.9 L-92.35 32.15 Q-91.75 35.25 -89.9 37.6 -89.05 38.65 -87.55 38.55 L-87.1 38.45 -86.25 38.1 -90.85 72.3 -104.5 73.15 -102.0 63.8 -113.25 61.85 M-4.45 -140.75 L7.0 -138.9 8.3 -138.25 Q26.9 -128.0 37.3 -109.75 L25.25 -111.5 22.9 -115.45 Q12.65 -131.9 -4.45 -140.75 M59.2 126.25 Q50.5 129.95 42.0 132.3 L41.15 132.25 Q48.75 125.3 59.25 124.55 L59.2 126.25 M63.05 123.3 L61.0 124.95 60.15 124.7 60.15 123.2 63.05 123.3 M19.75 131.6 Q23.8 130.7 27.1 133.2 L19.65 132.75 Q14.05 137.4 8.9 132.4 L8.55 131.7 9.7 130.45 15.35 130.3 16.15 131.55 19.3 131.25 19.75 131.6 M1.05 132.1 L-0.85 132.25 Q-3.7 132.25 -4.6 131.6 L-4.9 130.55 Q-4.9 129.15 -2.85 129.55 -1.4 129.8 1.85 131.15 L1.05 132.1 M39.75 133.7 L39.2 133.8 Q35.25 133.2 31.4 134.3 L27.25 133.45 27.2 132.3 Q31.5 129.65 36.8 130.5 38.05 130.45 39.2 130.95 41.35 131.95 39.75 133.7 M26.25 165.7 Q26.1 171.7 20.65 172.35 19.3 172.65 18.15 172.0 19.8 170.1 22.35 170.5 23.85 170.75 24.6 169.2 25.3 167.75 24.5 166.35 22.35 166.4 20.75 164.6 20.3 173.05 12.85 171.45 11.55 171.15 10.95 169.55 L10.25 167.3 Q13.15 173.1 17.35 168.55 19.9 165.7 19.45 161.95 L20.25 161.8 21.9 163.85 22.3 164.15 Q24.05 165.2 25.55 164.15 27.0 163.55 27.6 161.9 L29.9 156.0 Q31.25 159.3 29.05 162.6 28.05 164.2 26.25 165.7 M5.55 194.55 L8.05 196.6 Q13.85 196.55 14.4 190.85 14.55 189.2 13.0 188.35 L13.3 187.65 15.65 187.55 16.45 188.95 Q21.35 189.3 21.85 184.6 21.95 183.5 21.7 182.4 L22.5 182.4 Q24.75 187.75 19.25 189.95 17.55 190.6 15.85 190.0 15.15 198.55 7.65 197.3 5.25 196.85 5.55 194.55 M-1.6 188.9 Q3.3 195.95 5.3 204.35 L-0.75 209.05 Q-0.15 205.7 -1.05 202.55 -2.8 196.4 -9.7 195.15 L-9.0 194.35 Q-5.5 191.2 -1.6 188.9 M24.55 207.75 Q28.2 210.5 24.65 215.15 L23.55 216.65 Q24.25 224.35 17.9 227.5 15.85 228.4 13.9 227.25 L13.65 225.8 Q17.1 228.05 20.4 224.6 23.25 221.7 22.5 217.55 19.75 219.2 17.15 217.0 16.55 222.0 11.4 221.4 8.65 221.15 7.85 218.65 L8.25 218.25 Q10.45 219.85 13.15 219.7 14.95 219.4 15.55 217.7 L15.9 216.6 14.8 212.95 17.15 213.4 17.9 216.0 20.45 216.05 22.25 215.3 22.8 215.3 Q25.05 213.2 24.95 210.0 L24.55 207.75 M5.75 216.3 Q6.15 226.75 3.05 236.4 L2.7 237.6 2.7 233.25 Q2.6 228.45 -1.5 226.2 L-0.25 224.9 Q3.2 220.8 5.75 216.3 M11.45 245.25 L11.95 244.3 15.55 246.6 Q21.35 246.9 20.45 240.95 L20.2 239.65 Q23.6 241.55 27.45 241.55 28.3 241.55 28.8 240.75 30.65 238.0 30.2 234.45 L30.75 234.45 Q32.95 243.35 24.25 242.45 22.9 242.55 22.0 241.6 20.45 250.85 12.35 246.0 L11.45 245.25 M25.85 250.5 Q21.55 255.2 16.9 250.65 L16.0 249.5 Q20.2 252.75 24.9 250.3 L25.6 248.3 25.85 250.5 M-57.7 -125.1 L-57.2 -126.55 Q-56.05 -133.3 -62.9 -134.25 L-63.1 -133.6 Q-56.25 -130.6 -59.7 -125.35 L-60.5 -125.2 Q-60.9 -124.8 -61.4 -124.7 -65.8 -123.4 -70.75 -123.4 L-67.8 -119.85 -68.4 -118.75 Q-71.65 -115.25 -77.35 -115.4 -73.85 -113.9 -70.25 -114.25 L-66.55 -108.35 -67.05 -107.9 Q-71.2 -105.8 -76.35 -106.55 L-75.95 -105.95 Q-72.5 -103.5 -68.05 -105.1 -64.8 -102.7 -60.7 -102.7 -50.15 -102.75 -53.1 -111.8 -41.7 -113.3 -48.0 -123.3 -46.75 -124.05 -46.45 -125.15 -44.55 -132.85 -52.1 -132.45 -48.8 -130.65 -46.85 -127.35 -50.6 -120.9 -57.7 -125.1 M-61.85 -118.85 L-61.95 -117.45 -60.45 -116.15 Q-58.85 -116.85 -58.95 -118.85 L-59.5 -119.15 Q-60.8 -119.75 -61.85 -118.85 M-59.8 -128.1 L-59.85 -129.45 Q-62.4 -129.65 -62.8 -127.3 L-62.75 -127.1 -61.2 -126.15 -59.8 -128.1 M-52.25 -128.75 L-52.4 -127.45 -50.4 -127.5 -50.05 -129.0 -51.55 -129.1 -52.25 -128.75 M-69.5 -114.75 L-68.3 -115.7 Q-65.15 -118.3 -67.0 -121.9 -63.45 -121.4 -60.1 -123.0 -58.85 -121.6 -58.15 -119.95 -57.35 -118.1 -58.35 -116.65 -62.2 -111.2 -69.5 -114.75 M-70.9 -111.9 L-73.15 -112.15 -73.1 -111.05 -70.2 -109.8 Q-69.25 -110.55 -70.2 -111.35 L-70.9 -111.9 M-66.6 -105.75 L-66.15 -106.2 Q-63.55 -109.15 -66.55 -112.6 -62.2 -111.3 -58.3 -113.3 -56.4 -112.45 -54.95 -110.95 -53.6 -109.6 -54.45 -108.0 -58.15 -101.0 -66.6 -105.75 M-50.3 -116.85 L-50.05 -117.4 -51.3 -119.0 -51.75 -118.8 -51.95 -116.9 -50.7 -116.6 -50.3 -116.85 M-47.95 -115.2 L-48.45 -114.85 Q-52.4 -112.65 -57.25 -114.15 L-56.25 -116.0 Q-54.55 -119.9 -57.7 -122.9 -53.7 -121.25 -49.65 -122.35 -46.6 -119.2 -47.95 -115.2 M-57.8 -108.3 Q-56.8 -108.9 -57.05 -110.2 L-57.15 -110.45 Q-58.8 -111.0 -60.15 -109.7 L-60.2 -108.25 -57.8 -108.3 M-46.9 -108.3 Q-45.35 -105.95 -42.7 -105.65 -32.6 -104.35 -35.75 -113.65 -33.05 -113.05 -30.65 -114.3 -27.8 -108.85 -35.1 -107.45 L-33.3 -107.25 Q-25.9 -108.95 -29.5 -115.2 L-29.1 -115.7 Q-26.0 -122.35 -33.35 -124.05 -30.1 -121.35 -29.6 -117.5 -33.35 -114.95 -38.1 -115.15 L-38.25 -114.25 Q-36.75 -112.7 -37.15 -110.65 -38.45 -104.5 -44.35 -108.6 L-46.55 -109.2 -46.9 -108.3 M-40.05 -109.75 L-38.5 -110.75 -38.4 -111.8 -40.85 -112.05 -40.05 -109.75 M-35.1 -119.4 L-35.05 -118.8 -34.4 -118.35 -32.5 -119.85 -33.5 -121.2 -35.1 -119.4 M-85.55 -77.65 L-85.95 -77.5 -86.3 -76.45 Q-86.45 -73.7 -83.95 -74.4 L-83.85 -74.45 -83.7 -76.45 Q-84.3 -77.75 -85.55 -77.65 M-92.6 -68.8 L-93.65 -68.75 -93.9 -67.1 Q-93.25 -65.5 -91.6 -65.95 L-91.55 -68.6 -92.6 -68.8 M-84.95 -46.55 Q-85.65 -44.9 -84.95 -43.05 -83.9 -40.1 -83.7 -36.95 -83.15 -29.4 -76.95 -27.2 L-76.8 -27.4 Q-78.45 -35.3 -82.8 -42.15 L-82.45 -42.7 Q-82.35 -45.5 -84.95 -46.55 M-95.55 17.0 L-95.55 14.65 Q-97.75 14.65 -97.3 16.95 L-97.25 17.2 -96.6 17.5 -95.55 17.0 M-95.25 24.1 L-93.5 21.1 -92.15 27.3 Q-93.05 30.05 -94.3 32.65 -95.25 34.75 -97.3 34.1 -97.95 31.8 -97.6 29.4 L-96.7 25.2 -95.25 24.1 M-105.55 12.15 L-107.4 12.15 Q-108.3 13.2 -107.85 14.5 L-107.75 14.75 -105.55 14.65 -105.55 12.15 M-101.7 16.1 L-101.65 17.65 Q-101.85 22.35 -98.4 25.4 -100.6 30.55 -105.4 33.5 L-107.45 22.7 Q-103.1 20.8 -101.7 16.1 M-102.3 26.35 L-102.45 25.35 -103.1 24.95 Q-105.5 25.65 -105.1 28.15 L-104.4 28.65 Q-103.35 27.9 -102.6 26.95 L-102.3 26.35 M-90.8 28.85 L-89.8 29.1 -88.7 28.6 Q-87.0 27.7 -86.4 25.85 L-84.95 27.7 -86.15 37.65 Q-91.1 34.7 -90.8 28.85 M-25.0 122.8 L-22.95 123.8 -22.85 124.4 -20.95 124.75 -20.6 125.65 -22.75 125.4 -22.9 125.0 -23.05 125.4 -25.05 125.6 Q-28.75 125.8 -28.45 122.25 L-25.0 122.8 M-16.7 128.6 L-19.3 126.25 Q-16.0 124.35 -11.9 126.0 -9.4 126.95 -10.15 129.2 L-10.5 129.5 Q-13.75 130.8 -16.7 128.6 M-42.5 116.35 Q-37.75 115.35 -37.75 119.3 -41.65 120.75 -42.4 117.15 L-42.5 116.35 M-70.3 151.2 Q-67.15 144.8 -66.35 137.75 L-66.2 134.85 Q-44.45 147.35 -25.4 163.85 L-25.55 166.2 Q-25.6 167.35 -26.2 168.45 -26.7 169.25 -27.75 169.2 -29.55 169.15 -31.1 168.3 L-30.95 167.65 -31.75 167.35 -32.8 166.35 Q-33.65 164.8 -34.0 163.25 L-34.85 159.2 Q-35.05 158.1 -35.4 158.2 L-35.45 158.75 -35.75 159.95 -36.05 161.6 Q-36.1 163.5 -37.7 164.45 -39.45 165.4 -41.35 165.0 L-41.5 164.15 -41.9 164.8 -42.55 164.45 -43.7 163.65 Q-46.0 161.3 -46.05 157.95 L-45.85 153.7 -46.75 153.75 Q-47.45 153.85 -48.0 154.25 L-48.25 154.65 -49.35 157.1 Q-49.95 158.35 -50.9 158.95 L-53.15 159.15 -53.25 158.7 -53.5 158.6 Q-54.35 156.55 -54.75 154.25 L-55.9 146.65 -56.4 147.05 -56.35 149.5 -56.4 151.5 Q-56.65 154.95 -55.7 158.3 -55.2 160.15 -53.85 160.9 -54.9 164.7 -51.95 167.25 -49.6 169.3 -46.25 169.45 -43.25 169.55 -42.4 166.6 -42.1 168.7 -41.25 170.65 -40.05 173.5 -36.95 174.3 L-35.1 174.05 Q-32.5 172.8 -31.65 169.6 L-30.75 170.25 Q-29.35 171.15 -27.75 171.0 -26.45 171.2 -25.65 170.35 -23.85 168.25 -23.95 165.1 L-9.6 178.85 -12.3 185.55 -17.8 184.85 -23.5 183.75 Q-25.75 183.0 -27.5 182.95 -51.0 169.05 -75.7 157.4 L-74.8 156.9 Q-73.0 155.75 -71.8 153.85 -71.5 155.3 -70.4 156.1 -67.1 158.3 -63.35 155.75 -63.9 157.65 -62.3 158.8 -60.4 160.25 -59.55 159.0 L-61.95 157.0 Q-61.8 156.1 -61.25 155.35 -60.45 154.25 -61.05 152.95 L-61.45 153.0 Q-64.8 155.2 -68.8 155.75 L-69.45 155.0 Q-70.8 153.3 -70.3 151.2 M-41.15 158.15 L-42.7 158.7 Q-42.4 161.85 -39.35 161.45 L-39.0 161.3 Q-38.3 159.2 -40.15 158.35 L-41.15 158.15 M-47.75 157.9 L-47.4 156.75 Q-47.65 162.7 -43.6 166.2 L-43.85 167.05 Q-51.95 170.05 -52.8 160.9 L-51.45 161.0 Q-48.65 160.65 -47.75 157.9 M-50.95 162.5 Q-51.3 162.85 -51.3 163.4 -51.3 163.95 -50.95 164.35 -50.65 164.7 -50.15 164.7 -49.65 164.7 -49.3 164.35 -49.0 163.95 -49.0 163.4 -49.0 162.85 -49.3 162.5 -49.65 162.1 -50.15 162.1 -50.65 162.1 -50.95 162.5 M-51.35 153.65 L-51.65 153.4 Q-53.2 154.65 -52.6 156.6 L-52.45 156.85 Q-49.9 156.15 -51.35 153.65 M-40.65 169.05 L-41.1 166.8 Q-37.35 167.25 -35.75 163.65 L-35.6 163.25 -32.85 168.55 Q-32.8 170.9 -34.6 172.4 -39.0 173.15 -40.65 169.05 M-71.95 176.8 Q-71.3 181.05 -67.4 181.8 -65.1 182.0 -63.7 179.85 -62.75 184.3 -58.4 183.2 -55.3 182.3 -56.4 179.1 L-57.25 179.4 -57.7 181.1 -57.9 181.3 -58.5 181.7 Q-59.5 182.15 -60.65 181.7 L-61.5 179.85 -62.8 176.1 Q-63.7 176.75 -64.65 178.25 -65.9 180.25 -68.0 181.05 L-71.0 174.25 Q-71.25 173.55 -72.1 173.5 -72.25 167.45 -74.5 161.75 -64.05 166.55 -53.8 171.9 -33.05 182.65 -13.35 195.25 L-13.25 195.95 -7.85 199.5 Q-5.95 205.4 -7.2 211.75 L-7.45 212.95 -20.7 210.35 Q-25.6 207.45 -31.65 204.7 -29.9 204.2 -29.05 202.5 L-28.5 201.35 Q-21.05 199.15 -23.25 191.3 L-24.4 192.15 Q-23.85 197.75 -28.6 199.25 L-29.5 199.35 -34.7 192.05 -35.4 192.3 Q-34.95 193.95 -35.6 195.55 -35.95 196.45 -36.8 197.1 L-38.85 197.05 -39.4 196.2 -39.95 196.3 Q-40.95 191.35 -43.4 186.85 L-43.9 186.1 Q-43.65 191.75 -41.25 196.65 -40.7 197.0 -40.2 197.3 L-38.7 201.75 -42.3 200.15 Q-49.1 197.45 -55.55 194.1 -65.0 189.05 -75.45 188.2 L-74.8 187.4 Q-72.05 182.5 -71.95 176.8 M-66.35 174.95 Q-67.75 174.65 -68.7 175.4 L-68.95 175.65 -68.65 177.05 -66.2 177.15 -66.35 174.95 M-37.2 205.75 Q-35.65 211.6 -40.0 213.45 -41.25 214.05 -41.95 212.35 -43.4 208.7 -45.0 205.3 L-45.35 205.65 Q-44.55 210.25 -47.75 212.8 L-48.95 212.6 -49.2 212.25 -49.6 212.6 Q-53.9 209.75 -55.2 204.25 -56.65 206.15 -56.8 208.6 -56.95 210.4 -58.65 211.1 L-58.8 210.55 -59.25 210.65 Q-62.25 204.05 -63.6 197.2 L-64.3 197.2 Q-64.65 206.85 -59.3 214.65 L-56.9 217.85 -74.4 214.15 Q-71.9 212.5 -71.15 209.65 -68.6 200.4 -74.45 192.9 -55.5 198.2 -37.2 205.75 M-53.15 219.0 Q-51.2 218.55 -49.9 217.0 L-49.3 216.2 Q-46.45 223.1 -41.1 219.3 -39.25 218.05 -39.15 215.9 -34.8 212.95 -35.9 207.6 L-36.25 206.2 Q-22.4 211.2 -11.45 220.65 L-10.55 221.65 Q-10.6 225.05 -12.25 228.2 L-12.95 229.45 -13.2 228.8 -13.9 228.8 Q-16.95 226.75 -16.65 223.25 -16.55 222.05 -17.35 221.15 L-18.5 222.0 Q-17.35 226.0 -21.1 227.45 L-23.6 227.55 Q-24.0 222.65 -26.45 218.6 -28.8 226.75 -21.7 229.85 L-20.7 234.15 -23.85 232.25 Q-37.65 224.2 -53.15 219.0 M-40.3 189.65 L-40.35 190.2 -39.8 193.1 -38.85 193.4 -37.8 192.0 Q-38.1 189.85 -40.3 189.65 M-35.45 168.0 L-37.55 168.0 -37.75 169.8 -35.6 170.1 -35.4 169.8 Q-34.9 168.6 -35.45 168.0 M-30.4 163.5 L-31.25 164.8 -29.55 166.45 -28.45 165.95 -28.5 163.7 -30.4 163.5 M-34.1 195.75 L-33.6 197.0 Q-32.5 200.1 -29.8 201.35 L-31.15 202.9 -31.55 203.0 Q-36.2 203.5 -38.1 199.15 L-37.35 199.25 Q-34.7 198.85 -34.1 195.75 M-30.4 193.65 L-30.4 195.6 Q-28.35 196.4 -27.75 194.5 -27.55 193.8 -27.9 193.05 L-28.95 192.8 Q-29.9 192.7 -30.4 193.65 M-9.05 223.55 L-4.2 228.3 Q-2.2 234.35 -5.0 240.4 -11.25 238.85 -16.9 236.3 L-15.6 235.8 Q-13.2 234.45 -12.8 231.75 L-12.2 231.3 Q-9.2 228.1 -9.05 223.55 M-20.4 220.9 L-22.95 220.9 -22.95 224.2 -20.4 224.2 -20.4 220.9 M-39.3 207.6 L-39.35 207.3 Q-41.55 207.3 -41.5 209.9 L-41.4 210.2 Q-39.05 210.2 -39.3 207.6 M-7.3 248.15 L-15.7 248.4 Q-14.6 247.5 -14.15 246.4 -13.95 245.85 -14.0 245.25 L-14.15 244.65 -15.0 244.8 -16.6 245.8 Q-21.85 250.0 -23.7 242.4 L-23.8 242.25 -24.15 242.7 Q-25.2 246.6 -28.45 245.6 -32.2 244.3 -31.0 239.1 L-31.15 239.1 Q-32.2 240.45 -32.1 242.5 -31.6 251.4 -24.9 246.5 L-24.35 245.9 -22.6 248.55 -71.05 248.8 Q-68.95 240.6 -71.3 232.35 -72.6 227.95 -74.4 223.65 -75.8 220.2 -78.15 217.4 -38.4 222.95 -7.3 248.15 M-14.1 231.45 Q-14.2 232.0 -14.55 232.3 -18.75 236.8 -21.05 229.8 -18.95 229.75 -17.85 227.75 L-14.1 231.45 M-55.2 215.6 L-54.05 215.15 -54.05 212.6 -56.2 212.3 -55.2 215.6 M-58.45 202.85 L-59.25 202.75 Q-60.0 203.15 -60.25 203.9 L-60.4 204.45 -59.3 206.15 -57.8 206.1 Q-57.4 205.85 -57.35 205.2 L-57.45 203.2 -58.45 202.85 M-49.2 208.4 Q-48.4 207.0 -48.75 205.5 L-48.9 204.95 -49.3 204.7 Q-52.2 205.25 -50.95 208.2 -50.6 208.7 -49.9 208.65 L-49.25 208.55 -49.2 208.4 M-44.65 210.7 Q-44.35 213.65 -41.95 215.45 L-41.35 215.8 Q-41.5 219.35 -44.75 218.55 -46.35 218.15 -47.4 216.65 -48.15 215.55 -48.3 214.4 -44.85 215.0 -44.7 211.4 L-44.65 210.7 M-58.3 212.85 L-57.7 212.7 Q-55.0 211.7 -55.05 208.6 -53.8 212.3 -50.1 213.95 -54.35 220.55 -58.3 212.85 M-61.4 237.3 Q-65.4 234.2 -65.05 228.05 -67.75 235.75 -61.3 239.7 -61.5 241.9 -60.05 243.35 -53.6 249.65 -49.5 241.9 -40.6 240.0 -43.6 231.6 L-44.1 232.25 Q-43.8 234.6 -44.85 236.5 -46.3 239.15 -49.3 239.95 L-49.9 239.05 -50.2 239.95 Q-52.85 238.55 -52.8 235.65 -52.8 233.85 -53.15 231.75 L-54.9 231.6 Q-55.1 236.05 -59.2 237.65 -60.45 238.05 -61.4 237.3 M-48.15 231.6 L-48.15 230.85 Q-49.0 230.1 -50.75 230.55 L-50.6 234.65 -48.95 235.0 -48.45 234.35 -48.15 231.6 M-61.15 229.15 L-62.0 230.25 -62.0 232.45 -59.8 232.45 -59.75 229.35 -60.5 229.05 -61.15 229.15 M-54.55 236.35 Q-53.45 239.1 -51.3 241.15 L-50.9 241.45 Q-52.55 244.85 -56.5 244.15 -59.95 243.4 -60.2 239.8 -57.2 240.3 -56.2 237.85 -55.75 236.7 -54.55 236.35" fill="#b42001" fill-rule="evenodd" stroke="none"/>
    <path d="M48.3 -154.65 Q36.45 -167.25 20.5 -173.55 L18.25 -174.35 17.85 -173.95 Q19.25 -161.35 15.55 -149.15 L13.45 -141.75 Q37.7 -136.35 56.1 -120.35 62.2 -115.0 65.35 -107.7 L63.05 -110.4 Q58.4 -115.4 52.85 -119.3 31.9 -133.7 7.0 -138.9 L-4.45 -140.75 -5.15 -140.9 Q-29.75 -142.05 -54.3 -139.85 -67.2 -139.4 -77.65 -132.15 L-77.65 -132.3 -77.2 -135.0 Q-74.15 -137.9 -70.1 -139.55 L-68.1 -140.45 Q-75.15 -157.95 -91.4 -166.0 L-93.75 -167.05 Q-103.15 -171.25 -113.25 -173.05 L-113.25 -175.9 Q-88.2 -172.85 -72.2 -153.65 -67.65 -148.25 -64.05 -141.9 -26.65 -149.25 10.9 -142.4 13.0 -159.9 15.9 -176.9 16.0 -177.35 16.55 -177.7 27.85 -177.7 37.35 -170.2 48.8 -161.15 58.15 -149.95 86.9 -115.55 89.5 -70.65 89.85 -64.55 89.5 -58.25 107.4 -50.45 107.55 -30.35 107.7 -14.15 94.25 -5.7 L93.75 -5.7 93.15 -5.2 92.25 -4.5 91.25 -3.85 90.15 -3.35 88.95 -3.0 88.75 -3.0 88.8 -2.85 Q90.35 6.3 84.0 13.85 L82.1 16.25 Q79.7 46.25 73.25 75.45 L75.15 44.85 76.35 36.25 79.55 24.8 78.1 23.45 78.1 23.35 Q77.8 18.15 79.8 13.6 89.75 3.15 84.15 -10.5 82.95 -13.35 83.3 -16.55 85.95 -41.35 85.7 -66.05 85.4 -91.7 74.95 -114.95 64.95 -137.0 48.3 -154.65 M41.75 -60.7 Q47.8 -59.35 52.6 -55.55 L53.45 -54.8 43.75 -57.05 43.45 -57.15 43.05 -57.25 43.05 -57.35 46.05 -57.05 Q39.35 -57.95 32.85 -59.55 L16.1 -61.55 15.6 -63.0 30.7 -62.9 41.75 -60.7 M42.95 -51.85 Q55.8 -48.8 66.6 -41.2 L68.15 -39.95 Q71.2 -36.65 73.6 -32.95 L74.35 -31.45 73.8 -30.8 69.0 -35.15 Q57.7 -45.15 42.4 -48.0 L41.0 -48.3 30.25 -50.5 Q15.5 -54.0 0.35 -53.1 L0.15 -53.1 -12.75 -51.8 Q-6.3 -54.85 0.45 -56.1 L9.05 -56.75 Q21.15 -57.55 33.05 -54.25 L42.95 -51.85 M73.2 75.85 L70.8 92.45 78.15 81.0 Q95.55 79.85 112.55 84.25 L112.55 87.95 Q102.7 86.2 88.05 85.05 L87.9 85.05 80.65 84.45 Q78.4 89.9 74.35 94.1 L70.15 98.45 74.6 108.95 Q76.15 112.85 75.85 116.95 91.2 126.95 97.9 143.95 96.15 121.2 82.5 103.3 L88.8 95.35 Q100.7 94.8 112.55 96.65 L112.55 99.15 90.1 97.35 86.1 103.25 Q100.55 122.35 100.9 146.95 102.65 135.7 108.8 126.35 L112.55 120.9 112.55 125.1 Q101.5 141.25 103.25 161.4 88.0 153.65 71.35 153.7 66.6 154.4 65.75 159.05 L65.05 160.8 Q70.55 175.9 65.7 190.8 L64.2 194.35 Q67.2 199.3 68.85 204.6 L69.75 207.75 67.35 209.75 Q77.85 237.9 77.65 267.75 L76.3 268.65 75.55 267.5 73.4 269.4 19.15 269.25 Q0.55 269.15 -18.0 270.2 -61.45 271.95 -104.9 268.6 L-113.25 267.8 -113.25 262.2 -109.55 263.25 -109.45 263.55 Q-95.05 258.5 -80.1 255.85 -79.8 254.8 -78.95 254.05 -75.8 251.25 -73.95 247.35 -72.1 234.25 -78.4 221.95 L-80.7 217.0 -100.65 223.05 -103.2 224.45 Q-106.85 226.4 -109.7 229.6 L-113.25 259.55 -113.25 228.95 -112.7 218.5 Q-112.3 206.05 -109.3 194.15 L-113.25 193.3 -113.25 188.35 -103.8 189.75 -101.65 173.05 -104.1 173.45 -103.3 173.1 Q-105.95 174.0 -108.9 174.35 L-113.25 174.25 -113.25 173.6 Q-86.8 168.45 -80.0 141.7 -76.8 128.95 -77.65 115.8 L-79.55 116.25 -79.65 116.7 -86.6 119.2 Q-90.4 120.85 -93.5 123.65 L-95.2 121.2 -95.25 114.85 -98.0 114.95 Q-104.45 114.95 -110.8 116.55 L-113.25 117.55 -113.25 113.0 Q-102.7 110.25 -92.1 110.7 L-91.8 118.0 Q-82.75 112.85 -72.65 110.6 L-73.4 110.0 -69.25 110.0 -68.5 110.0 Q-47.85 128.0 -21.05 135.15 3.35 141.5 28.5 140.3 46.3 139.85 61.75 131.65 73.85 125.35 71.45 112.55 70.75 108.85 68.95 105.65 64.55 97.9 67.35 88.7 69.0 83.35 69.8 77.8 L69.95 77.85 Q72.05 77.4 73.2 75.85 M-113.25 100.35 L-113.25 95.4 -111.85 95.5 -113.25 100.35 M-113.25 4.1 Q-113.45 -20.2 -107.85 -43.75 L-102.4 -67.2 Q-108.8 -78.85 -111.7 -91.9 -114.1 -102.65 -113.25 -113.65 -108.15 -92.8 -100.05 -72.85 L-98.0 -68.15 -96.95 -66.4 -97.4 -65.75 -98.55 -64.65 -99.45 -65.6 -99.8 -61.95 -99.95 -61.35 -113.25 4.1 M-113.25 -153.5 L-113.25 -156.4 Q-93.75 -145.95 -83.65 -126.45 L-82.85 -125.1 -82.2 -125.55 -80.8 -126.35 Q-90.5 -111.55 -96.85 -95.0 -112.75 -117.3 -110.85 -145.6 L-110.55 -151.25 -113.25 -153.5 M42.75 -57.35 L42.65 -57.45 42.75 -57.45 42.75 -57.35 M31.65 -38.8 L40.4 -36.4 40.75 -36.25 Q49.05 -33.55 57.05 -30.15 71.05 -24.2 76.05 -9.8 L76.35 -8.5 Q67.85 -23.0 52.35 -29.7 29.95 -39.25 5.5 -40.8 L-2.9 -40.3 Q-17.4 -37.1 -23.65 -22.55 -36.1 -0.95 -45.3 22.25 L-49.5 32.7 -50.9 36.5 -54.15 45.4 -58.0 55.1 -63.9 72.6 Q-64.5 76.0 -63.8 79.0 L-63.6 79.8 Q-62.8 82.45 -61.6 84.9 -58.5 91.35 -52.55 96.2 -46.45 101.15 -39.65 105.1 -19.05 116.9 4.65 120.6 28.55 124.0 51.4 117.2 63.35 113.7 61.0 102.05 L61.8 103.25 Q62.4 104.35 62.6 105.6 62.8 106.85 62.65 108.2 L62.25 111.35 62.95 111.55 64.5 110.9 65.15 111.2 65.3 112.85 Q59.05 117.5 51.2 119.55 36.95 123.45 22.25 123.2 -1.9 122.75 -24.45 114.15 -51.25 103.85 -68.75 81.0 L-67.25 74.7 Q-61.85 52.55 -52.1 31.95 -46.2 19.4 -41.05 6.55 -31.65 -16.9 -15.9 -36.55 -14.6 -38.15 -12.75 -38.75 9.1 -45.9 31.65 -38.8 M104.5 -34.95 L102.45 -42.45 102.25 -42.85 100.8 -45.65 Q96.7 -52.0 89.7 -54.8 L89.05 -46.85 88.95 -45.3 88.7 -42.45 88.65 -41.75 88.25 -38.3 85.4 -19.7 Q84.9 -15.1 87.05 -11.05 88.0 -9.3 88.4 -7.35 L94.8 -10.1 95.85 -10.9 96.35 -11.3 Q100.6 -14.9 102.65 -20.1 L102.95 -20.85 104.75 -28.8 104.5 -34.95 M66.35 13.7 Q69.2 14.45 70.3 17.25 L70.35 17.5 65.2 18.0 Q64.8 16.95 65.05 15.25 65.25 14.1 66.35 13.7 M45.1 6.4 L44.8 6.9 31.75 4.75 26.35 8.55 27.4 4.9 28.3 4.2 28.0 3.55 Q36.8 3.2 45.1 5.4 L45.1 6.4 M59.45 99.3 L59.45 98.4 60.2 97.25 60.3 98.9 60.7 99.15 60.5 100.7 59.95 99.9 59.4 99.8 59.45 99.3 M39.8 92.95 L39.3 92.7 Q39.95 89.85 42.8 90.5 42.0 92.85 39.8 92.95 M6.3 88.6 L5.65 89.55 Q-1.9 89.55 -8.0 85.35 L-7.85 83.1 -5.45 84.7 -4.95 84.35 5.6 86.4 6.3 88.6 M46.85 95.3 L47.1 95.45 46.8 95.45 46.85 95.3 M75.8 119.8 Q70.95 133.3 56.3 138.3 L63.55 155.95 Q67.65 149.25 75.4 150.35 87.1 152.1 98.05 156.4 94.15 135.95 78.5 121.8 L75.8 119.8 M44.6 141.6 Q43.75 158.2 33.3 170.95 31.1 173.65 28.25 175.9 31.8 180.85 30.6 186.95 29.4 193.1 24.8 197.5 L29.45 201.05 50.4 199.9 Q45.2 202.5 39.45 203.3 L31.35 204.7 Q32.75 210.15 32.2 215.55 L31.8 219.2 33.2 220.45 35.65 223.4 36.8 225.2 Q50.25 215.1 65.15 207.55 L65.0 206.45 Q64.65 204.75 63.8 203.0 L61.3 197.75 57.45 200.65 56.5 199.1 Q68.55 179.85 60.65 157.75 57.3 148.5 52.6 139.7 L44.6 141.6 M39.65 147.85 L40.4 143.55 26.0 151.15 Q10.15 159.25 -3.75 170.35 L-6.0 172.3 Q-5.05 174.7 -4.25 177.2 -3.85 178.45 -3.7 179.75 -3.35 183.05 -4.65 185.95 L-5.25 187.2 Q11.45 179.05 28.35 171.3 30.1 170.55 31.3 168.75 37.8 159.15 39.65 147.85 M17.75 152.0 L33.1 143.35 Q23.8 144.5 14.6 143.55 -3.45 141.85 -20.9 137.3 -45.5 131.1 -65.75 115.8 L-69.6 123.5 -41.0 142.4 Q-26.35 152.95 -12.95 164.85 L-9.25 168.2 -8.85 168.2 -7.1 170.0 Q4.35 159.75 17.75 152.0 M-0.75 209.05 Q-1.0 215.5 -3.7 221.5 L-4.45 223.15 -3.65 224.0 Q7.9 207.3 22.6 193.2 24.2 191.65 25.3 189.6 28.65 183.25 25.2 177.4 11.4 182.3 -1.6 188.9 -5.5 191.2 -9.0 194.35 L-9.7 195.15 Q-2.8 196.4 -1.05 202.55 -0.15 205.7 -0.75 209.05 M101.75 157.95 L101.8 158.1 Q102.45 158.7 101.75 157.95 M62.7 211.9 Q50.75 220.65 37.8 227.7 40.45 234.8 38.7 242.15 35.55 255.1 27.35 265.9 L74.45 264.8 Q73.0 258.8 73.2 252.7 73.4 246.1 70.7 239.75 68.25 227.0 63.95 215.0 L62.7 211.9 M2.7 237.6 L2.25 241.65 Q11.95 231.8 24.05 225.0 L26.65 226.25 Q13.5 235.3 1.5 245.6 L-1.4 252.85 Q14.05 253.6 28.9 256.45 34.3 247.15 36.05 236.7 36.2 235.85 35.95 235.1 34.05 228.8 30.9 222.95 L29.0 226.45 Q29.5 220.45 29.6 214.7 29.8 205.4 23.6 198.8 L10.35 210.5 Q7.45 212.95 5.75 216.3 3.2 220.8 -0.25 224.9 L-1.5 226.2 Q2.6 228.45 2.7 233.25 L2.7 237.6 M-96.05 265.5 L-55.3 268.35 23.3 266.05 27.95 259.1 27.9 259.05 26.95 259.05 -2.85 255.05 -3.5 256.05 -4.35 255.55 -5.15 255.2 Q-51.1 252.4 -96.1 265.15 L-97.65 265.5 -96.05 265.5 M-43.75 -93.95 Q-28.5 -83.3 -17.15 -68.3 L-16.35 -68.0 -7.7 -69.45 Q-8.5 -68.75 -9.55 -68.3 -12.05 -66.9 -14.8 -66.15 L-16.2 -65.9 Q-17.95 -65.7 -19.75 -65.85 -31.9 -84.45 -50.15 -97.15 L-49.3 -96.85 -43.75 -93.95 M-52.1 -84.55 Q-37.35 -83.45 -27.85 -73.25 -25.15 -70.3 -23.85 -66.4 -17.05 -46.7 -31.4 -31.55 -36.2 -26.5 -42.9 -25.4 -65.75 -22.0 -76.45 -41.95 -78.1 -45.05 -78.9 -48.35 -82.9 -69.2 -64.75 -81.5 -61.2 -83.9 -56.85 -84.35 L-52.1 -84.55 M-72.25 -16.3 Q-61.45 -11.25 -49.75 -9.25 L-48.05 -8.75 Q-66.15 -5.3 -80.25 -17.55 L-82.85 -20.0 Q-89.05 -27.0 -87.9 -36.0 -87.65 -38.05 -85.75 -38.9 -84.7 -24.0 -72.25 -16.3 M-72.8 -3.95 Q-69.15 -2.25 -65.35 -1.6 -70.85 0.2 -76.6 -2.5 -82.6 -5.35 -85.3 -11.55 L-85.5 -11.95 -86.4 -16.9 Q-80.15 -9.8 -72.8 -3.95 M-84.85 -123.4 Q-92.85 -139.0 -107.75 -149.05 L-108.05 -149.2 Q-109.0 -123.5 -97.45 -99.65 -92.25 -112.1 -84.65 -123.35 L-84.75 -123.4 -84.85 -123.4 M-34.4 -76.35 L-36.3 -77.55 Q-44.3 -82.3 -53.6 -81.2 L-55.15 -81.0 Q-62.7 -79.85 -68.5 -74.95 -71.0 -72.9 -72.7 -70.45 L-73.1 -69.75 -73.15 -69.55 Q-76.05 -64.65 -76.55 -58.6 L-76.7 -55.05 -76.55 -54.1 -76.5 -53.2 Q-75.1 -43.55 -68.65 -36.35 L-67.35 -35.1 Q-63.25 -31.3 -57.45 -29.65 L-56.9 -29.55 -56.1 -29.3 -52.55 -28.65 Q-46.0 -27.8 -39.6 -29.8 L-38.2 -30.4 Q-26.0 -38.45 -24.45 -52.75 -24.3 -54.05 -24.3 -55.3 L-24.35 -56.2 Q-24.6 -66.45 -31.55 -73.8 L-33.2 -75.45 -34.4 -76.35 M-16.25 -2.3 L-16.2 -2.85 -15.3 -3.05 Q-7.1 -3.8 0.35 -1.3 L-0.05 3.5 -3.6 0.5 -3.85 -0.55 Q-9.7 -3.05 -16.25 -2.3 M-79.25 160.05 L-80.55 158.45 -80.7 158.3 -80.75 157.95 -81.2 157.85 -81.6 157.45 -82.2 157.4 -88.35 164.45 Q-92.3 169.0 -97.5 171.9 -98.1 176.15 -98.85 180.4 L-100.8 193.5 Q-102.25 194.65 -104.3 194.8 L-105.65 194.6 -106.35 199.0 -105.4 199.05 -91.9 193.55 Q-84.25 190.2 -77.4 185.45 -76.8 185.1 -76.6 184.45 -72.45 172.1 -79.25 160.05 M-71.0 120.8 L-68.0 114.55 -68.85 113.85 -75.7 115.35 -75.3 118.55 -71.0 120.8 M-69.25 133.5 L-72.55 123.35 -75.1 121.7 Q-74.35 139.2 -81.75 155.0 L-78.75 155.8 -77.2 155.15 -76.1 154.0 Q-67.65 145.0 -69.25 133.5 M-69.55 113.25 L-69.6 113.35 Q-69.0 114.15 -69.55 113.25 M-66.2 134.85 L-66.35 137.75 Q-67.15 144.8 -70.3 151.2 L-71.8 153.85 Q-73.0 155.75 -74.8 156.9 L-75.7 157.4 Q-51.0 169.05 -27.5 182.95 L-12.55 192.95 Q-8.8 188.4 -6.85 182.85 -4.95 177.35 -9.1 173.1 -18.7 163.1 -29.5 154.4 -47.85 139.65 -68.3 128.2 L-66.2 134.85 M-72.1 173.5 L-72.05 174.2 -71.95 176.8 Q-72.05 182.5 -74.8 187.4 L-75.45 188.2 Q-65.0 189.05 -55.55 194.1 -49.1 197.45 -42.3 200.15 L-38.7 201.75 -36.05 202.4 -35.9 202.9 -31.65 204.7 Q-25.6 207.45 -20.7 210.35 -13.3 214.6 -7.05 220.3 L-6.15 218.65 Q-0.65 208.05 -7.85 199.5 L-13.25 195.95 -13.35 195.25 Q-33.05 182.65 -53.8 171.9 -64.05 166.55 -74.5 161.75 -72.25 167.45 -72.1 173.5 M-100.55 220.0 Q-89.4 215.2 -77.65 213.7 -75.65 211.25 -74.0 208.45 -72.4 205.75 -73.35 202.75 -75.1 197.0 -78.75 191.85 L-80.2 191.15 -92.15 195.9 -107.1 203.2 -109.1 224.8 -100.55 220.0 M-56.9 217.85 L-53.15 219.0 Q-37.65 224.2 -23.85 232.25 L-20.7 234.15 Q-10.85 240.1 -3.15 248.55 L-2.35 247.1 Q3.9 236.25 -4.2 228.3 L-9.05 223.55 -10.55 221.65 -11.45 220.65 Q-22.4 211.2 -36.25 206.2 L-37.2 205.75 Q-55.5 198.2 -74.45 192.9 -68.6 200.4 -71.15 209.65 -71.9 212.5 -74.4 214.15 L-56.9 217.85 M-7.3 248.15 Q-38.4 222.95 -78.15 217.4 -75.8 220.2 -74.4 223.65 -72.6 227.95 -71.3 232.35 -68.95 240.6 -71.05 248.8 L-73.65 254.9 Q-45.15 249.6 -16.15 251.7 L-20.4 251.05 -5.4 252.45 -4.2 250.55 -7.3 248.15" fill="#000000" fill-rule="evenodd" stroke="none"/>
    <path d="M65.55 -101.0 L72.6 -96.65 Q71.8 -118.7 58.75 -136.85 54.15 -143.25 50.2 -150.1 L48.0 -154.3 48.3 -154.65 Q64.95 -137.0 74.95 -114.95 85.4 -91.7 85.7 -66.05 85.95 -41.35 83.3 -16.55 82.95 -13.35 84.15 -10.5 89.75 3.15 79.8 13.6 L78.75 8.9 79.2 6.95 Q82.3 -11.7 69.95 -26.1 L70.05 -28.4 Q70.15 -31.85 69.0 -35.15 L73.8 -30.8 74.35 -31.45 73.6 -32.95 Q71.2 -36.65 68.15 -39.95 70.5 -43.6 69.05 -48.2 68.35 -50.35 66.15 -51.3 70.2 -66.55 68.45 -82.45 67.45 -91.8 65.55 -101.0 M37.3 -109.75 L39.0 -105.65 Q47.1 -83.85 41.75 -60.7 L30.7 -62.9 Q33.15 -71.0 33.3 -79.55 33.55 -96.6 25.25 -111.5 L37.3 -109.75 M43.75 -57.05 Q45.05 -54.45 43.3 -52.25 L42.95 -51.85 33.05 -54.25 Q34.1 -56.7 33.1 -59.15 L32.85 -59.55 Q39.35 -57.95 46.05 -57.05 L43.05 -57.35 42.75 -57.45 42.65 -57.45 42.75 -57.35 43.05 -57.25 Q43.1 -57.0 43.25 -57.05 L43.45 -57.15 43.75 -57.05 M112.55 94.3 L112.55 96.65 Q100.7 94.8 88.8 95.35 L82.5 103.3 Q96.15 121.2 97.9 143.95 91.2 126.95 75.85 116.95 76.15 112.85 74.6 108.95 L70.15 98.45 74.35 94.1 Q78.4 89.9 80.65 84.45 L87.9 85.05 87.05 88.25 Q98.95 94.05 112.55 94.3 M-91.4 -166.0 Q-75.15 -157.95 -68.1 -140.45 L-70.1 -139.55 Q-74.15 -137.9 -77.2 -135.0 -86.3 -146.65 -92.15 -160.45 -93.45 -163.5 -91.4 -166.0 M-9.1 -113.05 Q6.35 -91.35 0.45 -64.8 L0.9 -63.8 Q2.65 -59.85 0.45 -56.1 -6.3 -54.85 -12.75 -51.8 L0.15 -53.1 0.7 -52.45 Q1.4 -51.45 1.3 -50.3 L1.3 -49.7 Q-7.7 -48.7 -14.9 -43.1 -17.3 -41.25 -18.9 -38.8 -47.45 4.55 -65.25 53.55 -66.95 58.25 -67.4 63.1 -68.2 72.0 -75.0 75.65 L-75.1 76.6 Q-75.4 78.25 -75.15 79.8 -73.85 88.05 -67.95 94.15 -63.85 98.3 -59.35 101.9 -54.1 106.05 -49.05 110.4 -45.85 110.35 -42.5 111.3 -37.95 112.55 -35.75 117.0 L-31.3 116.65 Q-22.95 116.6 -17.55 123.2 L-12.3 122.85 Q-3.85 122.2 1.6 128.1 L4.6 127.35 Q13.5 125.55 21.4 129.35 27.95 125.8 35.25 127.5 36.7 127.9 37.85 127.2 44.45 123.45 52.3 122.9 53.5 122.85 54.3 122.3 59.9 118.35 66.45 118.55 L68.15 117.45 Q68.9 114.7 68.25 111.75 67.3 107.6 63.85 104.95 L63.9 104.4 Q63.1 93.1 65.95 82.25 L66.2 82.1 66.4 82.1 68.15 78.15 69.8 77.8 Q69.0 83.35 67.35 88.7 64.55 97.9 68.95 105.65 70.75 108.85 71.45 112.55 73.85 125.35 61.75 131.65 46.3 139.85 28.5 140.3 3.35 141.5 -21.05 135.15 -47.85 128.0 -68.5 110.0 L-69.25 110.0 -69.55 109.55 -70.05 109.5 Q-80.05 99.55 -84.4 86.6 L-88.5 86.6 -88.5 85.9 Q-89.0 85.6 -89.45 85.35 -91.15 83.15 -90.9 80.45 -90.55 76.35 -89.5 72.4 L-90.85 72.3 -86.25 38.1 -87.1 38.45 -87.55 38.55 Q-89.05 38.65 -89.9 37.6 -91.75 35.25 -92.35 32.15 L-93.45 33.9 Q-94.3 35.2 -95.4 35.9 L-96.35 36.25 -96.3 38.4 Q-96.15 40.55 -94.5 41.75 -92.75 43.05 -90.7 42.4 -91.55 43.1 -92.7 43.3 L-94.7 42.95 Q-95.4 42.8 -95.9 42.35 -98.7 39.8 -97.55 36.0 L-98.4 35.1 Q-99.25 34.0 -99.4 32.75 L-99.55 30.95 -103.95 34.55 Q-104.4 34.95 -104.6 34.75 -110.25 30.8 -108.45 22.6 L-109.55 21.05 Q-112.35 13.8 -109.8 6.45 L-108.4 21.15 -108.1 21.3 Q-106.9 21.0 -106.15 20.15 -102.35 15.95 -101.55 10.45 L-99.8 10.55 -99.9 11.55 Q-100.75 17.4 -98.5 23.05 L-97.2 23.1 Q-95.7 21.95 -94.75 20.15 -93.2 17.1 -93.35 13.5 L-92.2 13.1 Q-92.1 13.75 -92.15 14.4 -92.85 21.1 -90.05 27.1 -86.05 21.05 -84.5 13.5 L-84.95 16.7 Q-85.95 21.1 -84.4 24.95 L-82.6 12.95 Q-81.7 6.9 -82.25 1.0 -82.8 -5.25 -85.3 -11.55 -82.6 -5.35 -76.6 -2.5 -70.85 0.2 -65.35 -1.6 -69.15 -2.25 -72.8 -3.95 L-72.55 -4.45 Q-69.15 -4.55 -69.8 -8.1 L-71.7 -9.0 -71.75 -9.55 Q-78.4 -13.1 -82.6 -19.45 L-82.85 -20.0 -80.25 -17.55 Q-66.15 -5.3 -48.05 -8.75 L-49.75 -9.25 Q-61.45 -11.25 -72.25 -16.3 -67.7 -16.2 -65.7 -19.6 -63.55 -23.2 -67.0 -25.6 -79.2 -33.95 -78.9 -48.35 -78.1 -45.05 -76.45 -41.95 -65.75 -22.0 -42.9 -25.4 -36.2 -26.5 -31.4 -31.55 -17.05 -46.7 -23.85 -66.4 -25.15 -70.3 -27.85 -73.25 -37.35 -83.45 -52.1 -84.55 L-49.9 -87.2 Q-52.05 -93.5 -57.6 -97.0 L-58.75 -96.95 -59.0 -97.65 -58.3 -97.95 Q-53.6 -99.35 -49.3 -96.85 L-50.15 -97.15 Q-31.9 -84.45 -19.75 -65.85 -17.95 -65.7 -16.2 -65.9 L-14.8 -66.15 Q-12.05 -66.9 -9.55 -68.3 -8.5 -68.75 -7.7 -69.45 L-16.35 -68.0 -17.15 -68.3 Q-28.5 -83.3 -43.75 -93.95 -30.15 -107.4 -11.7 -112.5 L-9.55 -113.0 -9.1 -113.05 M30.25 -50.5 L41.0 -48.3 Q45.2 -43.8 42.7 -38.4 42.05 -37.0 40.75 -36.35 L40.4 -36.4 31.65 -38.8 Q35.65 -45.15 30.9 -49.95 L30.25 -50.5 M63.05 123.3 L60.15 123.2 60.15 124.7 61.0 124.95 63.05 123.3 M59.2 126.25 L59.25 124.55 Q48.75 125.3 41.15 132.25 L42.0 132.3 Q50.5 129.95 59.2 126.25 M39.75 133.7 Q41.35 131.95 39.2 130.95 38.05 130.45 36.8 130.5 31.5 129.65 27.2 132.3 L27.25 133.45 31.4 134.3 Q35.25 133.2 39.2 133.8 L39.75 133.7 M1.05 132.1 L1.85 131.15 Q-1.4 129.8 -2.85 129.55 -4.9 129.15 -4.9 130.55 L-4.6 131.6 Q-3.7 132.25 -0.85 132.25 L1.05 132.1 M19.75 131.6 L19.3 131.25 16.15 131.55 15.35 130.3 9.7 130.45 8.55 131.7 8.9 132.4 Q14.05 137.4 19.65 132.75 L27.1 133.2 Q23.8 130.7 19.75 131.6 M26.0 151.15 L39.65 147.85 Q37.8 159.15 31.3 168.75 30.1 170.55 28.35 171.3 11.45 179.05 -5.25 187.2 L-4.65 185.95 Q-3.35 183.05 -3.7 179.75 -3.85 178.45 -4.25 177.2 -5.05 174.7 -6.0 172.3 L-3.75 170.35 Q10.15 159.25 26.0 151.15 M-41.0 142.4 L-30.85 145.85 Q-7.05 153.55 17.75 152.0 4.35 159.75 -7.1 170.0 L-8.85 168.2 -9.25 168.2 -12.95 164.85 Q-26.35 152.95 -41.0 142.4 M5.55 194.55 Q5.25 196.85 7.65 197.3 15.15 198.55 15.85 190.0 17.55 190.6 19.25 189.95 24.75 187.75 22.5 182.4 L21.7 182.4 Q21.95 183.5 21.85 184.6 21.35 189.3 16.45 188.95 L15.65 187.55 13.3 187.65 13.0 188.35 Q14.55 189.2 14.4 190.85 13.85 196.55 8.05 196.6 L5.55 194.55 M26.25 165.7 Q28.05 164.2 29.05 162.6 31.25 159.3 29.9 156.0 L27.6 161.9 Q27.0 163.55 25.55 164.15 24.05 165.2 22.3 164.15 L21.9 163.85 20.25 161.8 19.45 161.95 Q19.9 165.7 17.35 168.55 13.15 173.1 10.25 167.3 L10.95 169.55 Q11.55 171.15 12.85 171.45 20.3 173.05 20.75 164.6 22.35 166.4 24.5 166.35 25.3 167.75 24.6 169.2 23.85 170.75 22.35 170.5 19.8 170.1 18.15 172.0 19.3 172.65 20.65 172.35 26.1 171.7 26.25 165.7 M-1.6 188.9 Q11.4 182.3 25.2 177.4 28.65 183.25 25.3 189.6 24.2 191.65 22.6 193.2 7.9 207.3 -3.65 224.0 L-4.45 223.15 -3.7 221.5 Q-1.0 215.5 -0.75 209.05 L5.3 204.35 Q3.3 195.95 -1.6 188.9 M24.55 207.75 L24.95 210.0 Q25.05 213.2 22.8 215.3 L22.25 215.3 20.45 216.05 17.9 216.0 17.15 213.4 14.8 212.95 15.9 216.6 15.55 217.7 Q14.95 219.4 13.15 219.7 10.45 219.85 8.25 218.25 L7.85 218.65 Q8.65 221.15 11.4 221.4 16.55 222.0 17.15 217.0 19.75 219.2 22.5 217.55 23.25 221.7 20.4 224.6 17.1 228.05 13.65 225.8 L13.9 227.25 Q15.85 228.4 17.9 227.5 24.25 224.35 23.55 216.65 L24.65 215.15 Q28.2 210.5 24.55 207.75 M5.75 216.3 Q7.45 212.95 10.35 210.5 L23.6 198.8 Q29.8 205.4 29.6 214.7 29.5 220.45 29.0 226.45 L30.9 222.95 Q34.05 228.8 35.95 235.1 36.2 235.85 36.05 236.7 34.3 247.15 28.9 256.45 14.05 253.6 -1.4 252.85 L1.5 245.6 Q13.5 235.3 26.65 226.25 L24.05 225.0 Q11.95 231.8 2.25 241.65 L2.7 237.6 3.05 236.4 Q6.15 226.75 5.75 216.3 M25.85 250.5 L25.6 248.3 24.9 250.3 Q20.2 252.75 16.0 249.5 L16.9 250.65 Q21.55 255.2 25.85 250.5 M11.45 245.25 L12.35 246.0 Q20.45 250.85 22.0 241.6 22.9 242.55 24.25 242.45 32.95 243.35 30.75 234.45 L30.2 234.45 Q30.65 238.0 28.8 240.75 28.3 241.55 27.45 241.55 23.6 241.55 20.2 239.65 L20.45 240.95 Q21.35 246.9 15.55 246.6 L11.95 244.3 11.45 245.25 M-57.7 -125.1 Q-50.6 -120.9 -46.85 -127.35 -48.8 -130.65 -52.1 -132.45 -44.55 -132.85 -46.45 -125.15 -46.75 -124.05 -48.0 -123.3 -41.7 -113.3 -53.1 -111.8 -50.15 -102.75 -60.7 -102.7 -64.8 -102.7 -68.05 -105.1 -72.5 -103.5 -75.95 -105.95 L-76.35 -106.55 Q-71.2 -105.8 -67.05 -107.9 L-66.55 -108.35 -70.25 -114.25 Q-73.85 -113.9 -77.35 -115.4 -71.65 -115.25 -68.4 -118.75 L-67.8 -119.85 -70.75 -123.4 Q-65.8 -123.4 -61.4 -124.7 -60.9 -124.8 -60.5 -125.2 L-59.7 -125.35 Q-56.25 -130.6 -63.1 -133.6 L-62.9 -134.25 Q-56.05 -133.3 -57.2 -126.55 L-57.7 -125.1 M-69.5 -114.75 Q-62.2 -111.2 -58.35 -116.65 -57.35 -118.1 -58.15 -119.95 -58.85 -121.6 -60.1 -123.0 -63.45 -121.4 -67.0 -121.9 -65.15 -118.3 -68.3 -115.7 L-69.5 -114.75 M-66.6 -105.75 Q-58.15 -101.0 -54.45 -108.0 -53.6 -109.6 -54.95 -110.95 -56.4 -112.45 -58.3 -113.3 -62.2 -111.3 -66.55 -112.6 -63.55 -109.15 -66.15 -106.2 L-66.6 -105.75 M-47.95 -115.2 Q-46.6 -119.2 -49.65 -122.35 -53.7 -121.25 -57.7 -122.9 -54.55 -119.9 -56.25 -116.0 L-57.25 -114.15 Q-52.4 -112.65 -48.45 -114.85 L-47.95 -115.2 M-46.9 -108.3 L-46.55 -109.2 -44.35 -108.6 Q-38.45 -104.5 -37.15 -110.65 -36.75 -112.7 -38.25 -114.25 L-38.1 -115.15 Q-33.35 -114.95 -29.6 -117.5 -30.1 -121.35 -33.35 -124.05 -26.0 -122.35 -29.1 -115.7 L-29.5 -115.2 Q-25.9 -108.95 -33.3 -107.25 L-35.1 -107.45 Q-27.8 -108.85 -30.65 -114.3 -33.05 -113.05 -35.75 -113.65 -32.6 -104.35 -42.7 -105.65 -45.35 -105.95 -46.9 -108.3 M-98.0 -68.15 L-98.15 -73.95 -97.15 -74.45 Q-97.15 -69.15 -94.45 -64.65 -92.75 -61.8 -89.75 -62.65 -88.45 -64.7 -89.1 -67.0 -90.15 -70.5 -90.25 -74.05 L-89.35 -73.25 Q-87.05 -70.35 -83.65 -69.95 -80.85 -69.85 -80.5 -72.8 -79.9 -78.45 -82.2 -83.9 -80.05 -83.55 -79.4 -81.4 -78.6 -78.7 -78.55 -75.95 -78.45 -71.45 -81.5 -68.65 -81.15 -67.5 -81.1 -66.25 -80.85 -62.0 -82.9 -58.95 L-85.25 -59.0 Q-87.45 -59.6 -87.8 -61.45 L-87.5 -61.95 -85.15 -60.2 -83.95 -60.45 Q-83.25 -61.1 -82.9 -61.95 -81.5 -65.6 -83.5 -68.1 L-84.25 -68.15 Q-86.2 -68.6 -87.55 -70.2 -86.8 -66.8 -87.15 -63.4 -87.45 -60.85 -90.05 -60.85 -95.7 -60.05 -97.4 -65.75 L-96.95 -66.4 -98.0 -68.15 M-98.55 -64.65 L-99.8 -61.95 -99.45 -65.6 -98.55 -64.65 M-95.25 24.1 L-96.7 25.2 -97.6 29.4 Q-97.95 31.8 -97.3 34.1 -95.25 34.75 -94.3 32.65 -93.05 30.05 -92.15 27.3 L-93.5 21.1 -95.25 24.1 M-101.7 16.1 Q-103.1 20.8 -107.45 22.7 L-105.4 33.5 Q-100.6 30.55 -98.4 25.4 -101.85 22.35 -101.65 17.65 L-101.7 16.1 M-90.8 28.85 Q-91.1 34.7 -86.15 37.65 L-84.95 27.7 -86.4 25.85 Q-87.0 27.7 -88.7 28.6 L-89.8 29.1 -90.8 28.85 M-42.5 116.35 L-42.4 117.15 Q-41.65 120.75 -37.75 119.3 -37.75 115.35 -42.5 116.35 M-16.7 128.6 Q-13.75 130.8 -10.5 129.5 L-10.15 129.2 Q-9.4 126.95 -11.9 126.0 -16.0 124.35 -19.3 126.25 L-16.7 128.6 M-25.0 122.8 L-28.45 122.25 Q-28.75 125.8 -25.05 125.6 L-23.05 125.4 -22.9 125.0 -22.75 125.4 -20.6 125.65 -20.95 124.75 -22.85 124.4 -22.95 123.8 -25.0 122.8 M-66.2 134.85 L-68.3 128.2 Q-47.85 139.65 -29.5 154.4 -18.7 163.1 -9.1 173.1 -4.95 177.35 -6.85 182.85 -8.8 188.4 -12.55 192.95 L-27.5 182.95 Q-25.75 183.0 -23.5 183.75 L-17.8 184.85 -12.3 185.55 -9.6 178.85 -23.95 165.1 Q-23.85 168.25 -25.65 170.35 -26.45 171.2 -27.75 171.0 -29.35 171.15 -30.75 170.25 L-31.65 169.6 Q-32.5 172.8 -35.1 174.05 L-36.95 174.3 Q-40.05 173.5 -41.25 170.65 -42.1 168.7 -42.4 166.6 -43.25 169.55 -46.25 169.45 -49.6 169.3 -51.95 167.25 -54.9 164.7 -53.85 160.9 -55.2 160.15 -55.7 158.3 -56.65 154.95 -56.4 151.5 L-56.35 149.5 -56.4 147.05 -55.9 146.65 -54.75 154.25 Q-54.35 156.55 -53.5 158.6 L-53.25 158.7 -53.15 159.15 -50.9 158.95 Q-49.95 158.35 -49.35 157.1 L-48.25 154.65 -48.0 154.25 Q-47.45 153.85 -46.75 153.75 L-45.85 153.7 -46.05 157.95 Q-46.0 161.3 -43.7 163.65 L-42.55 164.45 -41.9 164.8 -41.5 164.15 -41.35 165.0 Q-39.45 165.4 -37.7 164.45 -36.1 163.5 -36.05 161.6 L-35.75 159.95 -35.45 158.75 -35.4 158.2 Q-35.05 158.1 -34.85 159.2 L-34.0 163.25 Q-33.65 164.8 -32.8 166.35 L-31.75 167.35 -30.95 167.65 -31.1 168.3 Q-29.55 169.15 -27.75 169.2 -26.7 169.25 -26.2 168.45 -25.6 167.35 -25.55 166.2 L-25.4 163.85 Q-44.45 147.35 -66.2 134.85 M-71.8 153.85 L-70.3 151.2 Q-70.8 153.3 -69.45 155.0 L-68.8 155.75 Q-64.8 155.2 -61.45 153.0 L-61.05 152.95 Q-60.45 154.25 -61.25 155.35 -61.8 156.1 -61.95 157.0 L-59.55 159.0 Q-60.4 160.25 -62.3 158.8 -63.9 157.65 -63.35 155.75 -67.1 158.3 -70.4 156.1 -71.5 155.3 -71.8 153.85 M-47.75 157.9 Q-48.65 160.65 -51.45 161.0 L-52.8 160.9 Q-51.95 170.05 -43.85 167.05 L-43.6 166.2 Q-47.65 162.7 -47.4 156.75 L-47.75 157.9 M-40.65 169.05 Q-39.0 173.15 -34.6 172.4 -32.8 170.9 -32.85 168.55 L-35.6 163.25 -35.75 163.65 Q-37.35 167.25 -41.1 166.8 L-40.65 169.05 M-72.1 173.5 Q-71.25 173.55 -71.0 174.25 L-68.0 181.05 Q-65.9 180.25 -64.65 178.25 -63.7 176.75 -62.8 176.1 L-61.5 179.85 -60.65 181.7 Q-59.5 182.15 -58.5 181.7 L-57.9 181.3 -57.7 181.1 -57.25 179.4 -56.4 179.1 Q-55.3 182.3 -58.4 183.2 -62.75 184.3 -63.7 179.85 -65.1 182.0 -67.4 181.8 -71.3 181.05 -71.95 176.8 L-72.05 174.2 -72.1 173.5 M-38.7 201.75 L-40.2 197.3 Q-40.7 197.0 -41.25 196.65 -43.65 191.75 -43.9 186.1 L-43.4 186.85 Q-40.95 191.35 -39.95 196.3 L-39.4 196.2 -38.85 197.05 -36.8 197.1 Q-35.95 196.45 -35.6 195.55 -34.95 193.95 -35.4 192.3 L-34.7 192.05 -29.5 199.35 -28.6 199.25 Q-23.85 197.75 -24.4 192.15 L-23.25 191.3 Q-21.05 199.15 -28.5 201.35 L-29.05 202.5 Q-29.9 204.2 -31.65 204.7 L-35.9 202.9 -36.05 202.4 -38.7 201.75 M-20.7 210.35 L-7.45 212.95 -7.2 211.75 Q-5.95 205.4 -7.85 199.5 -0.65 208.05 -6.15 218.65 L-7.05 220.3 Q-13.3 214.6 -20.7 210.35 M-56.9 217.85 L-59.3 214.65 Q-64.65 206.85 -64.3 197.2 L-63.6 197.2 Q-62.25 204.05 -59.25 210.65 L-58.8 210.55 -58.65 211.1 Q-56.95 210.4 -56.8 208.6 -56.65 206.15 -55.2 204.25 -53.9 209.75 -49.6 212.6 L-49.2 212.25 -48.95 212.6 -47.75 212.8 Q-44.55 210.25 -45.35 205.65 L-45.0 205.3 Q-43.4 208.7 -41.95 212.35 -41.25 214.05 -40.0 213.45 -35.65 211.6 -37.2 205.75 L-36.25 206.2 -35.9 207.6 Q-34.8 212.95 -39.15 215.9 -39.25 218.05 -41.1 219.3 -46.45 223.1 -49.3 216.2 L-49.9 217.0 Q-51.2 218.55 -53.15 219.0 L-56.9 217.85 M-34.1 195.75 Q-34.7 198.85 -37.35 199.25 L-38.1 199.15 Q-36.2 203.5 -31.55 203.0 L-31.15 202.9 -29.8 201.35 Q-32.5 200.1 -33.6 197.0 L-34.1 195.75 M-20.7 234.15 L-21.7 229.85 Q-28.8 226.75 -26.45 218.6 -24.0 222.65 -23.6 227.55 L-21.1 227.45 Q-17.35 226.0 -18.5 222.0 L-17.35 221.15 Q-16.55 222.05 -16.65 223.25 -16.95 226.75 -13.9 228.8 L-13.2 228.8 -12.95 229.45 -12.25 228.2 Q-10.6 225.05 -10.55 221.65 L-9.05 223.55 Q-9.2 228.1 -12.2 231.3 L-12.8 231.75 Q-13.2 234.45 -15.6 235.8 L-16.9 236.3 Q-11.25 238.85 -5.0 240.4 -2.2 234.35 -4.2 228.3 3.9 236.25 -2.35 247.1 L-3.15 248.55 Q-10.85 240.1 -20.7 234.15 M-71.05 248.8 L-22.6 248.55 -24.35 245.9 -24.9 246.5 Q-31.6 251.4 -32.1 242.5 -32.2 240.45 -31.15 239.1 L-31.0 239.1 Q-32.2 244.3 -28.45 245.6 -25.2 246.6 -24.15 242.7 L-23.8 242.25 -23.7 242.4 Q-21.85 250.0 -16.6 245.8 L-15.0 244.8 -14.15 244.65 -14.0 245.25 Q-13.95 245.85 -14.15 246.4 -14.6 247.5 -15.7 248.4 L-7.3 248.15 -4.2 250.55 -5.4 252.45 -20.4 251.05 -16.15 251.7 Q-45.15 249.6 -73.65 254.9 L-71.05 248.8 M-14.1 231.45 L-17.85 227.75 Q-18.95 229.75 -21.05 229.8 -18.75 236.8 -14.55 232.3 -14.2 232.0 -14.1 231.45 M-58.3 212.85 Q-54.35 220.55 -50.1 213.95 -53.8 212.3 -55.05 208.6 -55.0 211.7 -57.7 212.7 L-58.3 212.85 M-44.65 210.7 L-44.7 211.4 Q-44.85 215.0 -48.3 214.4 -48.15 215.55 -47.4 216.65 -46.35 218.15 -44.75 218.55 -41.5 219.35 -41.35 215.8 L-41.95 215.45 Q-44.35 213.65 -44.65 210.7 M-61.4 237.3 Q-60.45 238.05 -59.2 237.65 -55.1 236.05 -54.9 231.6 L-53.15 231.75 Q-52.8 233.85 -52.8 235.65 -52.85 238.55 -50.2 239.95 L-49.9 239.05 -49.3 239.95 Q-46.3 239.15 -44.85 236.5 -43.8 234.6 -44.1 232.25 L-43.6 231.6 Q-40.6 240.0 -49.5 241.9 -53.6 249.65 -60.05 243.35 -61.5 241.9 -61.3 239.7 -67.75 235.75 -65.05 228.05 -65.4 234.2 -61.4 237.3 M-54.55 236.35 Q-55.75 236.7 -56.2 237.85 -57.2 240.3 -60.2 239.8 -59.95 243.4 -56.5 244.15 -52.55 244.85 -50.9 241.45 L-51.3 241.15 Q-53.45 239.1 -54.55 236.35" fill="#8f0f01" fill-rule="evenodd" stroke="none"/>
    <path d="M44.05 -150.25 L43.75 -149.05 42.3 -147.95 Q32.85 -157.3 26.5 -168.7 35.7 -164.75 41.75 -155.75 L43.15 -153.8 Q44.45 -152.15 44.05 -150.25 M-113.25 -166.85 L-113.25 -168.9 Q-104.65 -169.1 -98.7 -163.9 -96.7 -162.15 -96.05 -159.75 L-96.55 -159.2 Q-105.1 -161.9 -113.25 -166.85 M-52.25 -128.75 L-51.55 -129.1 -50.05 -129.0 -50.4 -127.5 -52.4 -127.45 -52.25 -128.75 M-59.8 -128.1 L-61.2 -126.15 -62.75 -127.1 -62.8 -127.3 Q-62.4 -129.65 -59.85 -129.45 L-59.8 -128.1 M-61.85 -118.85 Q-60.8 -119.75 -59.5 -119.15 L-58.95 -118.85 Q-58.85 -116.85 -60.45 -116.15 L-61.95 -117.45 -61.85 -118.85 M-70.9 -111.9 L-70.2 -111.35 Q-69.25 -110.55 -70.2 -109.8 L-73.1 -111.05 -73.15 -112.15 -70.9 -111.9 M-50.3 -116.85 L-50.7 -116.6 -51.95 -116.9 -51.75 -118.8 -51.3 -119.0 -50.05 -117.4 -50.3 -116.85 M-57.8 -108.3 L-60.2 -108.25 -60.15 -109.7 Q-58.8 -111.0 -57.15 -110.45 L-57.05 -110.2 Q-56.8 -108.9 -57.8 -108.3 M-35.1 -119.4 L-33.5 -121.2 -32.5 -119.85 -34.4 -118.35 -35.05 -118.8 -35.1 -119.4 M-40.05 -109.75 L-40.85 -112.05 -38.4 -111.8 -38.5 -110.75 -40.05 -109.75 M-85.55 -77.65 Q-84.3 -77.75 -83.7 -76.45 L-83.85 -74.45 -83.95 -74.4 Q-86.45 -73.7 -86.3 -76.45 L-85.95 -77.5 -85.55 -77.65 M-92.6 -68.8 L-91.55 -68.6 -91.6 -65.95 Q-93.25 -65.5 -93.9 -67.1 L-93.65 -68.75 -92.6 -68.8 M-84.95 -46.55 Q-82.35 -45.5 -82.45 -42.7 L-82.8 -42.15 Q-78.45 -35.3 -76.8 -27.4 L-76.95 -27.2 Q-83.15 -29.4 -83.7 -36.95 -83.9 -40.1 -84.95 -43.05 -85.65 -44.9 -84.95 -46.55 M-95.55 17.0 L-96.6 17.5 -97.25 17.2 -97.3 16.95 Q-97.75 14.65 -95.55 14.65 L-95.55 17.0 M-105.55 12.15 L-105.55 14.65 -107.75 14.75 -107.85 14.5 Q-108.3 13.2 -107.4 12.15 L-105.55 12.15 M-102.3 26.35 L-102.6 26.95 Q-103.35 27.9 -104.4 28.65 L-105.1 28.15 Q-105.5 25.65 -103.1 24.95 L-102.45 25.35 -102.3 26.35 M-41.15 158.15 L-40.15 158.35 Q-38.3 159.2 -39.0 161.3 L-39.35 161.45 Q-42.4 161.85 -42.7 158.7 L-41.15 158.15 M-51.35 153.65 Q-49.9 156.15 -52.45 156.85 L-52.6 156.6 Q-53.2 154.65 -51.65 153.4 L-51.35 153.65 M-50.95 162.5 Q-50.65 162.1 -50.15 162.1 -49.65 162.1 -49.3 162.5 -49.0 162.85 -49.0 163.4 -49.0 163.95 -49.3 164.35 -49.65 164.7 -50.15 164.7 -50.65 164.7 -50.95 164.35 -51.3 163.95 -51.3 163.4 -51.3 162.85 -50.95 162.5 M-66.35 174.95 L-66.2 177.15 -68.65 177.05 -68.95 175.65 -68.7 175.4 Q-67.75 174.65 -66.35 174.95 M-30.4 163.5 L-28.5 163.7 -28.45 165.95 -29.55 166.45 -31.25 164.8 -30.4 163.5 M-35.45 168.0 Q-34.9 168.6 -35.4 169.8 L-35.6 170.1 -37.75 169.8 -37.55 168.0 -35.45 168.0 M-40.3 189.65 Q-38.1 189.85 -37.8 192.0 L-38.85 193.4 -39.8 193.1 -40.35 190.2 -40.3 189.65 M-30.4 193.65 Q-29.9 192.7 -28.95 192.8 L-27.9 193.05 Q-27.55 193.8 -27.75 194.5 -28.35 196.4 -30.4 195.6 L-30.4 193.65 M-39.3 207.6 Q-39.05 210.2 -41.4 210.2 L-41.5 209.9 Q-41.55 207.3 -39.35 207.3 L-39.3 207.6 M-20.4 220.9 L-20.4 224.2 -22.95 224.2 -22.95 220.9 -20.4 220.9 M-49.2 208.4 L-49.25 208.55 -49.9 208.65 Q-50.6 208.7 -50.95 208.2 -52.2 205.25 -49.3 204.7 L-48.9 204.95 -48.75 205.5 Q-48.4 207.0 -49.2 208.4 M-58.45 202.85 L-57.45 203.2 -57.35 205.2 Q-57.4 205.85 -57.8 206.1 L-59.3 206.15 -60.4 204.45 -60.25 203.9 Q-60.0 203.15 -59.25 202.75 L-58.45 202.85 M-55.2 215.6 L-56.2 212.3 -54.05 212.6 -54.05 215.15 -55.2 215.6 M-61.15 229.15 L-60.5 229.05 -59.75 229.35 -59.8 232.45 -62.0 232.45 -62.0 230.25 -61.15 229.15 M-48.15 231.6 L-48.45 234.35 -48.95 235.0 -50.6 234.65 -50.75 230.55 Q-49.0 230.1 -48.15 230.85 L-48.15 231.6" fill="#e31802" fill-rule="evenodd" stroke="none"/>
    <path d="M63.05 -110.4 L65.55 -101.0 37.3 -109.75 Q26.9 -128.0 8.3 -138.25 L7.0 -138.9 Q31.9 -133.7 52.85 -119.3 58.4 -115.4 63.05 -110.4 M-113.25 92.1 L-113.25 61.85 -102.0 63.8 -104.5 73.15 -90.85 72.3 -89.5 72.4 Q-90.55 76.35 -90.9 80.45 -91.15 83.15 -89.45 85.35 L-106.2 101.8 -107.65 92.1 -113.25 92.1 M-54.3 -139.85 Q-29.75 -142.05 -5.15 -140.9 L-4.45 -140.75 Q12.65 -131.9 22.9 -115.45 L25.25 -111.5 Q9.5 -113.7 -6.4 -113.3 L-9.1 -113.05 -9.55 -113.0 -11.7 -115.65 Q-28.7 -136.15 -54.3 -139.85 M42.75 -57.35 L42.75 -57.45 43.05 -57.35 43.05 -57.25 42.75 -57.35 M-84.75 -123.4 L-84.65 -123.35 Q-92.25 -112.1 -97.45 -99.65 -109.0 -123.5 -108.05 -149.2 L-107.75 -149.05 Q-92.85 -139.0 -84.85 -123.4 L-84.85 -123.35 -84.75 -123.4" fill="#5e2222" fill-rule="evenodd" stroke="none"/>
    <path d="M37.3 -109.75 L65.55 -101.0 Q67.45 -91.8 68.45 -82.45 70.2 -66.55 66.15 -51.3 68.35 -50.35 69.05 -48.2 70.5 -43.6 68.15 -39.95 L66.6 -41.2 Q55.8 -48.8 42.95 -51.85 L43.3 -52.25 Q45.05 -54.45 43.75 -57.05 L53.45 -54.8 52.6 -55.55 Q47.8 -59.35 41.75 -60.7 47.1 -83.85 39.0 -105.65 L37.3 -109.75 M-113.25 113.0 L-113.25 100.35 -111.85 95.5 -113.25 95.4 -113.25 92.1 -107.65 92.1 -106.2 101.8 -89.45 85.35 Q-89.0 85.6 -88.5 85.9 L-88.5 86.6 -84.4 86.6 Q-80.05 99.55 -70.05 109.5 L-69.55 109.55 -69.25 110.0 -73.4 110.0 -72.65 110.6 Q-82.75 112.85 -91.8 118.0 L-92.1 110.7 Q-102.7 110.25 -113.25 113.0 M-9.1 -113.05 L-6.4 -113.3 Q9.5 -113.7 25.25 -111.5 33.55 -96.6 33.3 -79.55 33.15 -71.0 30.7 -62.9 L15.6 -63.0 16.1 -61.55 32.85 -59.55 33.1 -59.15 Q34.1 -56.7 33.05 -54.25 21.15 -57.55 9.05 -56.75 L0.45 -56.1 Q2.65 -59.85 0.9 -63.8 L0.45 -64.8 Q6.35 -91.35 -9.1 -113.05 M79.8 13.6 Q77.8 18.15 78.1 23.35 L78.1 23.45 77.05 22.0 Q78.4 11.95 78.15 1.65 79.4 0.2 79.25 -1.6 78.95 -6.05 76.05 -9.8 71.05 -24.2 57.05 -30.15 49.05 -33.55 40.75 -36.25 L40.75 -36.35 Q42.05 -37.0 42.7 -38.4 45.2 -43.8 41.0 -48.3 L42.4 -48.0 Q57.7 -45.15 69.0 -35.15 70.15 -31.85 70.05 -28.4 L69.95 -26.1 Q82.3 -11.7 79.2 6.95 L78.75 8.9 79.8 13.6 M76.35 36.25 L75.15 44.85 Q74.7 41.15 75.95 37.55 L76.35 36.25 M43.45 -57.15 L43.25 -57.05 Q43.1 -57.0 43.05 -57.25 L43.45 -57.15 M0.15 -53.1 L0.35 -53.1 Q15.5 -54.0 30.25 -50.5 L30.9 -49.95 Q35.65 -45.15 31.65 -38.8 9.1 -45.9 -12.75 -38.75 -14.6 -38.15 -15.9 -36.55 -31.65 -16.9 -41.05 6.55 -46.2 19.4 -52.1 31.95 -61.85 52.55 -67.25 74.7 L-68.75 81.0 Q-51.25 103.85 -24.45 114.15 -1.9 122.75 22.25 123.2 36.95 123.45 51.2 119.55 59.05 117.5 65.3 112.85 L65.15 111.2 64.5 110.9 62.95 111.55 62.25 111.35 62.65 108.2 Q62.8 106.85 62.6 105.6 62.4 104.35 61.8 103.25 L61.0 102.05 60.5 100.7 60.7 99.15 Q63.3 91.45 65.2 82.2 L66.3 77.65 67.7 78.35 68.15 78.15 66.4 82.1 66.2 82.1 65.95 82.25 Q63.1 93.1 63.9 104.4 L63.85 104.95 Q67.3 107.6 68.25 111.75 68.9 114.7 68.15 117.45 L66.45 118.55 Q59.9 118.35 54.3 122.3 53.5 122.85 52.3 122.9 44.45 123.45 37.85 127.2 36.7 127.9 35.25 127.5 27.95 125.8 21.4 129.35 13.5 125.55 4.6 127.35 L1.6 128.1 Q-3.85 122.2 -12.3 122.85 L-17.55 123.2 Q-22.95 116.6 -31.3 116.65 L-35.75 117.0 Q-37.95 112.55 -42.5 111.3 -45.85 110.35 -49.05 110.4 -54.1 106.05 -59.35 101.9 -63.85 98.3 -67.95 94.15 -73.85 88.05 -75.15 79.8 -75.4 78.25 -75.1 76.6 L-75.0 75.65 Q-68.2 72.0 -67.4 63.1 -66.95 58.25 -65.25 53.55 -47.45 4.55 -18.9 -38.8 -17.3 -41.25 -14.9 -43.1 -7.7 -48.7 1.3 -49.7 L1.3 -50.3 Q1.4 -51.45 0.7 -52.45 L0.15 -53.1 M-69.55 113.25 Q-69.0 114.15 -69.6 113.35 L-69.55 113.25" fill="#451818" fill-rule="evenodd" stroke="none"/>
    <path d="M40.4 -36.4 L40.75 -36.35 40.75 -36.25 40.4 -36.4 M56.65 -25.4 Q34.4 -36.95 9.65 -38.4 -5.3 -39.8 -16.6 -30.75 -19.05 -28.85 -20.3 -26.1 L-19.7 -25.35 Q-17.0 -32.15 -10.05 -33.4 L-6.85 -33.15 Q-0.9 -31.4 4.9 -29.15 6.55 -28.65 8.05 -29.5 18.0 -35.25 26.35 -27.45 L28.6 -24.8 Q34.0 -23.2 39.45 -25.2 47.7 -28.35 53.45 -21.8 55.15 -19.9 55.5 -17.2 56.1 -12.65 60.5 -12.75 70.75 -15.75 74.3 -5.3 75.25 -2.55 74.85 0.3 L77.35 0.0 78.0 -0.55 78.15 -3.0 Q71.1 -17.7 56.65 -25.4 M76.35 2.6 L73.5 1.7 Q73.95 -1.2 73.3 -4.2 71.0 -14.35 61.3 -10.7 59.5 -9.9 57.8 -10.25 52.0 -11.95 53.4 -19.1 49.15 -25.2 41.7 -25.1 37.95 -23.05 34.05 -21.45 27.4 -18.75 24.75 -25.4 24.15 -26.9 23.1 -27.65 15.0 -33.5 7.5 -26.5 L6.55 -25.7 Q-0.15 -25.7 -5.1 -31.9 L-6.7 -31.9 Q-16.3 -31.8 -18.75 -23.4 -20.45 -20.8 -23.3 -22.35 L-23.65 -22.55 Q-17.4 -37.1 -2.9 -40.3 L5.5 -40.8 Q29.95 -39.25 52.35 -29.7 67.85 -23.0 76.35 -8.5 L76.05 -9.8 Q78.95 -6.05 79.25 -1.6 79.4 0.2 78.15 1.65 L76.9 1.95 Q76.35 2.2 76.35 2.6 M-63.9 72.6 Q-58.05 71.5 -56.9 76.65 -55.95 81.0 -54.2 84.95 -49.7 95.4 -39.55 92.65 -38.35 92.3 -37.5 91.05 L-36.9 90.1 Q-28.45 87.45 -27.55 95.7 -27.05 100.45 -24.0 103.75 -18.65 109.55 -10.7 108.3 -3.1 107.4 2.0 101.35 2.9 100.25 4.05 101.1 8.25 103.95 9.75 109.1 10.15 110.6 11.45 111.2 27.85 117.9 37.05 103.2 37.8 102.0 39.15 102.45 43.25 103.6 42.6 108.5 48.95 111.7 53.15 106.15 54.4 104.55 55.0 102.35 55.7 100.0 57.35 98.1 L57.95 98.05 59.45 99.3 59.4 99.8 59.95 99.9 60.5 100.7 61.0 102.05 Q63.35 113.7 51.4 117.2 28.55 124.0 4.65 120.6 -19.05 116.9 -39.65 105.1 -46.45 101.15 -52.55 96.2 -58.5 91.35 -61.6 84.9 L-59.2 87.4 Q-42.2 104.8 -19.25 112.25 L-14.95 113.55 Q19.25 126.25 52.75 113.8 61.05 110.65 59.65 103.25 L59.75 102.35 58.9 101.25 58.5 101.85 57.65 100.7 57.35 102.0 57.3 101.1 Q55.75 103.2 54.55 105.65 52.7 109.45 48.9 110.15 40.0 112.15 41.0 103.8 L39.1 103.35 38.1 104.1 Q28.0 118.45 10.8 113.0 L9.95 112.25 Q6.5 108.0 4.75 102.75 L3.5 102.15 Q1.65 104.2 -0.75 105.75 -13.95 114.35 -25.9 104.2 -27.65 102.75 -27.45 100.7 -26.65 93.2 -33.05 91.5 -34.0 91.2 -34.5 91.8 -40.6 98.45 -48.3 93.25 -57.35 87.1 -58.75 75.65 L-59.6 74.7 Q-60.9 73.65 -62.9 74.05 L-63.35 75.2 Q-63.9 77.15 -63.8 79.0 -64.5 76.0 -63.9 72.6" fill="#624848" fill-rule="evenodd" stroke="none"/>
    <path d="M-18.75 -23.4 Q-16.3 -31.8 -6.7 -31.9 L-5.1 -31.9 Q-0.15 -25.7 6.55 -25.7 L7.5 -26.5 Q15.0 -33.5 23.1 -27.65 24.15 -26.9 24.75 -25.4 27.4 -18.75 34.05 -21.45 37.95 -23.05 41.7 -25.1 49.15 -25.2 53.4 -19.1 52.0 -11.95 57.8 -10.25 59.5 -9.9 61.3 -10.7 71.0 -14.35 73.3 -4.2 73.95 -1.2 73.5 1.7 L76.35 2.6 75.15 21.05 72.0 18.55 72.6 16.3 72.15 15.7 Q69.65 12.75 65.95 11.3 L64.0 10.95 Q56.5 48.75 51.2 87.1 L44.2 88.05 43.8 87.8 43.1 88.2 39.8 88.25 Q47.0 49.4 52.7 10.45 L47.35 8.3 47.0 4.25 45.7 3.9 Q36.15 1.1 26.35 0.85 L25.5 1.3 Q19.75 33.1 13.5 64.7 11.6 74.2 9.1 83.6 L8.2 83.8 Q-1.7 85.1 -9.2 79.45 -5.55 47.2 0.9 15.15 2.75 6.0 1.2 -2.6 1.05 -3.4 -0.1 -3.75 -9.25 -6.05 -18.45 -5.0 L-19.2 -1.95 -25.65 -1.55 Q-35.8 35.2 -41.9 72.75 L-45.7 71.0 -45.35 63.25 Q-44.0 40.55 -36.85 19.0 -29.55 -3.05 -18.75 -23.4 M-58.0 55.1 L-59.8 70.8 Q-56.7 73.1 -52.9 75.3 -47.2 78.75 -41.1 81.15 -35.7 50.6 -28.4 20.4 -26.0 10.4 -23.85 0.1 L-9.7 0.8 -4.75 1.6 Q-9.9 35.1 -13.4 68.9 -14.6 80.25 -15.05 91.5 -3.6 95.35 8.3 96.85 L10.7 97.2 Q18.95 66.25 25.75 34.9 28.75 21.1 32.0 7.4 38.9 7.75 45.3 10.2 L50.3 12.0 Q45.9 35.7 41.85 59.55 38.35 80.1 35.3 100.7 L35.8 100.95 36.15 100.95 Q40.55 101.2 45.0 100.0 L49.9 98.4 52.2 89.55 52.35 89.7 52.4 89.75 52.55 89.75 Q56.4 69.4 62.0 49.45 L70.15 19.75 77.45 25.7 Q68.0 55.2 61.4 85.25 59.85 92.25 59.45 98.4 L59.45 99.3 57.95 98.05 57.35 98.1 Q55.7 100.0 55.0 102.35 54.4 104.55 53.15 106.15 48.95 111.7 42.6 108.5 43.25 103.6 39.15 102.45 37.8 102.0 37.05 103.2 27.85 117.9 11.45 111.2 10.15 110.6 9.75 109.1 8.25 103.95 4.05 101.1 2.9 100.25 2.0 101.35 -3.1 107.4 -10.7 108.3 -18.65 109.55 -24.0 103.75 -27.05 100.45 -27.55 95.7 -28.45 87.45 -36.9 90.1 L-37.5 91.05 Q-38.35 92.3 -39.55 92.65 -49.7 95.4 -54.2 84.95 -55.95 81.0 -56.9 76.65 -58.05 71.5 -63.9 72.6 L-58.0 55.1 M25.15 1.95 Q25.45 1.05 25.1 1.85 L25.15 1.95 M68.4 72.55 Q69.0 61.95 72.1 51.8 L72.5 50.5 71.65 75.1 69.25 75.5 68.4 72.55" fill="#d6d0b4" fill-rule="evenodd" stroke="none"/>
    <path d="M60.5 -12.75 Q56.1 -12.65 55.5 -17.2 55.15 -19.9 53.45 -21.8 47.7 -28.35 39.45 -25.2 34.0 -23.2 28.6 -24.8 L26.35 -27.45 Q18.0 -35.25 8.05 -29.5 6.55 -28.65 4.9 -29.15 -0.9 -31.4 -6.85 -33.15 L-10.05 -33.4 Q-17.0 -32.15 -19.7 -25.35 L-20.3 -26.1 Q-19.05 -28.85 -16.6 -30.75 -5.3 -39.8 9.65 -38.4 34.4 -36.95 56.65 -25.4 61.1 -20.55 60.75 -14.05 L60.5 -12.75 M-14.95 113.55 L-19.25 112.25 Q-42.2 104.8 -59.2 87.4 -60.75 81.7 -58.95 76.2 L-58.75 75.65 Q-57.35 87.1 -48.3 93.25 -40.6 98.45 -34.5 91.8 -34.0 91.2 -33.05 91.5 -26.65 93.2 -27.45 100.7 -27.65 102.75 -25.9 104.2 -13.95 114.35 -0.75 105.75 1.65 104.2 3.5 102.15 L4.75 102.75 Q4.5 103.65 4.4 104.6 3.4 112.3 10.8 113.0 28.0 118.45 38.1 104.1 L39.1 103.35 Q39.45 112.65 29.35 115.4 15.45 119.3 0.95 116.45 -7.0 114.85 -14.95 113.55" fill="#9d7777" fill-rule="evenodd" stroke="none"/>
    <path d="M73.25 75.45 L73.2 75.85 Q72.05 77.4 69.95 77.85 L69.8 77.8 68.15 78.15 67.7 78.35 66.3 77.65 65.2 82.2 Q63.3 91.45 60.7 99.15 L60.3 98.9 60.2 97.25 59.45 98.4 Q59.85 92.25 61.4 85.25 68.0 55.2 77.45 25.7 L70.15 19.75 62.0 49.45 Q56.4 69.4 52.55 89.75 L52.4 89.75 52.35 89.7 52.2 89.55 49.9 98.4 45.0 100.0 Q40.55 101.2 36.15 100.95 L35.8 100.95 35.3 100.7 Q38.35 80.1 41.85 59.55 45.9 35.7 50.3 12.0 L45.3 10.2 Q38.9 7.75 32.0 7.4 28.75 21.1 25.75 34.9 18.95 66.25 10.7 97.2 L8.3 96.85 Q-3.6 95.35 -15.05 91.5 -14.6 80.25 -13.4 68.9 -9.9 35.1 -4.75 1.6 L-9.7 0.8 -23.85 0.1 Q-26.0 10.4 -28.4 20.4 -35.7 50.6 -41.1 81.15 -47.2 78.75 -52.9 75.3 -56.7 73.1 -59.8 70.8 L-58.0 55.1 -54.15 45.4 Q-53.75 45.6 -53.8 45.95 -55.5 56.6 -56.7 67.15 L-53.65 66.3 -50.9 36.5 -49.5 32.7 Q-49.25 32.1 -48.7 32.35 L-48.55 32.5 -51.75 67.3 -45.7 71.0 -41.9 72.75 Q-35.8 35.2 -25.65 -1.55 L-19.2 -1.95 -18.45 -5.0 Q-9.25 -6.05 -0.1 -3.75 1.05 -3.4 1.2 -2.6 2.75 6.0 0.9 15.15 -5.55 47.2 -9.2 79.45 -1.7 85.1 8.2 83.8 L9.1 83.6 Q11.6 74.2 13.5 64.7 19.75 33.1 25.5 1.3 L26.35 0.85 Q36.15 1.1 45.7 3.9 L47.0 4.25 47.35 8.3 52.7 10.45 Q47.0 49.4 39.8 88.25 L43.1 88.2 43.8 87.8 44.2 88.05 51.2 87.1 Q56.5 48.75 64.0 10.95 L65.95 11.3 Q69.65 12.75 72.15 15.7 L72.6 16.3 72.0 18.55 75.15 21.05 76.35 2.6 Q76.35 2.2 76.9 1.95 L78.15 1.65 Q78.4 11.95 77.05 22.0 L78.1 23.45 79.55 24.8 76.35 36.25 75.95 37.55 Q74.7 41.15 75.15 44.85 L73.25 75.45 M64.5 12.0 L64.5 12.2 64.7 12.2 64.7 12.15 64.5 12.0 M64.05 20.1 L57.95 58.35 61.65 45.0 Q65.25 32.45 67.5 19.75 L64.55 20.1 64.05 20.1 M66.35 13.7 Q65.25 14.1 65.05 15.25 64.8 16.95 65.2 18.0 L70.35 17.5 70.3 17.25 Q69.2 14.45 66.35 13.7 M45.1 6.4 L45.1 5.4 Q36.8 3.2 28.0 3.55 L28.3 4.2 27.4 4.9 26.35 8.55 31.75 4.75 44.8 6.9 45.1 6.4 M25.95 10.85 L17.25 58.85 Q14.7 72.65 10.55 86.0 L8.6 86.0 7.55 90.95 9.25 93.0 Q15.55 74.35 19.65 55.0 24.55 32.0 28.65 8.9 L25.95 10.85 M25.15 1.95 L25.1 1.85 Q25.45 1.05 25.15 1.95 M-6.2 91.95 L8.1 95.35 Q9.55 93.95 8.35 94.15 L7.05 92.35 6.65 92.5 Q1.25 92.1 -3.55 89.8 L-9.85 87.25 -13.0 89.5 -13.2 90.35 -6.2 91.95 M6.3 88.6 L5.6 86.4 -4.95 84.35 -5.45 84.7 -7.85 83.1 -8.0 85.35 Q-1.9 89.55 5.65 89.55 L6.3 88.6 M39.8 92.95 Q42.0 92.85 42.8 90.5 39.95 89.85 39.3 92.7 L39.8 92.95 M46.8 95.45 Q44.7 96.3 42.9 94.9 L42.75 94.75 38.55 95.35 38.05 98.45 Q46.05 99.4 49.45 92.45 L50.45 89.8 44.2 90.2 43.7 93.65 45.65 94.35 46.85 95.3 46.8 95.45 M68.4 72.55 L67.65 71.65 66.6 75.6 67.55 76.15 69.25 75.5 71.65 75.1 72.5 50.5 72.1 51.8 Q69.0 61.95 68.4 72.55 M-16.25 -2.3 Q-9.7 -3.05 -3.85 -0.55 L-3.6 0.5 -0.05 3.5 0.35 -1.3 Q-7.1 -3.8 -15.3 -3.05 L-16.2 -2.85 -16.25 -2.3 M-3.3 3.8 Q-8.35 27.7 -9.95 52.1 -11.15 70.25 -13.05 88.3 L-10.25 85.6 -10.0 82.65 -11.2 81.75 Q-9.6 59.3 -5.75 37.05 -3.1 21.8 -1.35 6.3 L-3.3 3.8 M-51.9 69.4 L-53.7 67.9 -56.85 68.95 -57.3 69.65 -55.25 71.15 -42.85 78.55 -42.25 74.9 -51.9 69.4" fill="#3e3722" fill-rule="evenodd" stroke="none"/>
    <path d="M60.5 -12.75 L60.75 -14.05 Q61.1 -20.55 56.65 -25.4 71.1 -17.7 78.15 -3.0 L78.0 -0.55 77.35 0.0 74.85 0.3 Q75.25 -2.55 74.3 -5.3 70.75 -15.75 60.5 -12.75 M-61.6 84.9 Q-62.8 82.45 -63.6 79.8 L-63.8 79.0 Q-63.9 77.15 -63.35 75.2 L-62.9 74.05 Q-60.9 73.65 -59.6 74.7 L-58.75 75.65 -58.95 76.2 Q-60.75 81.7 -59.2 87.4 L-61.6 84.9 M39.1 103.35 L41.0 103.8 Q40.0 112.15 48.9 110.15 52.7 109.45 54.55 105.65 55.75 103.2 57.3 101.1 L57.35 102.0 57.65 100.7 58.5 101.85 58.9 101.25 59.75 102.35 59.65 103.25 Q61.05 110.65 52.75 113.8 19.25 126.25 -14.95 113.55 -7.0 114.85 0.95 116.45 15.45 119.3 29.35 115.4 39.45 112.65 39.1 103.35 M10.8 113.0 Q3.4 112.3 4.4 104.6 4.5 103.65 4.75 102.75 6.5 108.0 9.95 112.25 L10.8 113.0" fill="#805e5e" fill-rule="evenodd" stroke="none"/>
    <path d="M88.95 -3.0 L88.8 -2.85 88.75 -3.0 88.95 -3.0 M92.55 -49.55 Q93.1 -49.3 93.3 -50.4 L93.3 -51.85 92.2 -52.9 92.55 -49.55 M102.25 -42.85 L102.45 -42.45 104.5 -34.95 104.35 -35.35 103.45 -38.65 102.0 -37.8 102.8 -37.4 103.4 -38.05 103.0 -34.9 104.35 -34.95 104.75 -28.8 102.95 -20.85 100.55 -20.5 102.65 -20.1 Q100.6 -14.9 96.35 -11.3 L95.85 -10.9 94.45 -14.3 Q97.4 -14.45 96.95 -17.5 L96.95 -17.85 Q99.85 -21.9 101.15 -26.65 104.25 -37.95 95.7 -44.85 94.05 -48.6 90.05 -47.3 L89.05 -46.85 89.7 -54.8 Q96.7 -52.0 100.8 -45.65 L100.45 -45.8 102.25 -42.85 M85.4 -19.7 L85.6 -19.4 85.6 -19.3 85.65 -19.25 87.0 -17.25 Q89.0 -14.45 92.65 -14.6 L93.9 -14.3 93.55 -11.95 91.25 -11.7 93.6 -10.6 94.1 -10.8 94.8 -10.1 88.4 -7.35 Q88.0 -9.3 87.05 -11.05 84.9 -15.1 85.4 -19.7 M88.7 -42.45 L88.95 -45.3 88.8 -42.55 88.7 -42.45 M-53.6 -81.2 Q-44.3 -82.3 -36.3 -77.55 L-34.4 -76.35 -36.95 -71.05 -36.35 -70.65 -34.4 -73.75 -34.25 -72.1 -33.2 -75.45 -31.55 -73.8 Q-24.6 -66.45 -24.35 -56.2 L-26.2 -54.4 -25.55 -54.4 -24.3 -55.3 Q-24.3 -54.05 -24.45 -52.75 -26.0 -38.45 -38.2 -30.4 -38.35 -32.4 -37.05 -34.05 L-36.65 -34.55 -37.75 -36.65 -38.2 -36.5 Q-37.7 -34.55 -38.6 -32.85 L-39.9 -35.2 -40.35 -35.2 Q-40.45 -33.35 -38.95 -32.15 L-38.75 -31.7 -39.6 -29.8 Q-46.0 -27.8 -52.55 -28.65 L-56.1 -29.3 -54.95 -31.9 -55.9 -34.85 -56.9 -29.55 -57.45 -29.65 Q-63.25 -31.3 -67.35 -35.1 -64.65 -36.0 -63.7 -38.95 L-62.55 -42.4 -63.15 -42.35 Q-64.15 -40.0 -65.45 -37.9 -66.55 -36.2 -68.65 -36.35 -75.1 -43.55 -76.5 -53.2 L-76.55 -54.1 -72.25 -54.15 -71.05 -55.45 Q-68.75 -53.7 -66.4 -54.5 -67.8 -56.0 -70.6 -56.1 -68.35 -58.8 -64.65 -59.55 -68.1 -60.25 -70.4 -57.5 -72.85 -54.7 -76.7 -55.05 L-76.55 -58.6 Q-76.05 -64.65 -73.15 -69.55 L-73.1 -69.7 -73.0 -69.05 -66.6 -68.85 Q-69.4 -70.55 -72.7 -70.45 -71.0 -72.9 -68.5 -74.95 -62.7 -79.85 -55.15 -81.0 -53.5 -80.35 -53.05 -78.5 L-53.65 -77.5 -55.05 -77.35 -54.75 -76.4 -53.0 -77.15 -52.75 -74.65 -52.35 -74.8 -52.15 -76.0 Q-51.5 -79.2 -53.6 -81.2 M-33.4 -45.75 Q-26.35 -60.05 -39.0 -69.6 -44.5 -73.75 -51.15 -71.85 -55.95 -77.95 -62.85 -73.2 -64.3 -71.7 -64.95 -69.65 -66.65 -63.3 -61.75 -61.55 -66.4 -45.3 -52.15 -38.55 -47.45 -36.3 -42.5 -38.3 L-38.5 -40.1 Q-35.1 -38.4 -32.9 -41.55 -31.2 -44.0 -33.4 -45.75 M-64.05 -37.05 L-63.75 -36.85 -60.85 -38.65 -64.05 -37.05" fill="#f5ff2f" fill-rule="evenodd" stroke="none"/>
    <path d="M92.55 -49.55 L92.2 -52.9 93.3 -51.85 93.3 -50.4 Q93.1 -49.3 92.55 -49.55 M94.45 -14.3 L95.85 -10.9 94.8 -10.1 94.1 -10.8 93.6 -10.6 91.25 -11.7 93.55 -11.95 93.9 -14.3 94.45 -14.3 M102.65 -20.1 L100.55 -20.5 102.95 -20.85 102.65 -20.1 M104.35 -34.95 L103.0 -34.9 103.4 -38.05 102.8 -37.4 102.0 -37.8 103.45 -38.65 104.35 -35.35 104.35 -34.95 M-34.4 -76.35 L-33.2 -75.45 -34.25 -72.1 -34.4 -73.75 -36.35 -70.65 -36.95 -71.05 -34.4 -76.35 M-24.35 -56.2 L-24.3 -55.3 -25.55 -54.4 -26.2 -54.4 -24.35 -56.2 M-38.2 -30.4 L-39.6 -29.8 -38.75 -31.7 -38.95 -32.15 Q-40.45 -33.35 -40.35 -35.2 L-39.9 -35.2 -38.6 -32.85 Q-37.7 -34.55 -38.2 -36.5 L-37.75 -36.65 -36.65 -34.55 -37.05 -34.05 Q-38.35 -32.4 -38.2 -30.4 M-56.1 -29.3 L-56.9 -29.55 -55.9 -34.85 -54.95 -31.9 -56.1 -29.3 M-67.35 -35.1 L-68.65 -36.35 Q-66.55 -36.2 -65.45 -37.9 -64.15 -40.0 -63.15 -42.35 L-62.55 -42.4 -63.7 -38.95 Q-64.65 -36.0 -67.35 -35.1 M-76.55 -54.1 L-76.7 -55.05 Q-72.85 -54.7 -70.4 -57.5 -68.1 -60.25 -64.65 -59.55 -68.35 -58.8 -70.6 -56.1 -67.8 -56.0 -66.4 -54.5 -68.75 -53.7 -71.05 -55.45 L-72.25 -54.15 -76.55 -54.1 M-73.1 -69.75 L-72.7 -70.45 Q-69.4 -70.55 -66.6 -68.85 L-73.0 -69.05 -73.1 -69.7 -73.1 -69.75 M-55.15 -81.0 L-53.6 -81.2 Q-51.5 -79.2 -52.15 -76.0 L-52.35 -74.8 -52.75 -74.65 -53.0 -77.15 -54.75 -76.4 -55.05 -77.35 -53.65 -77.5 -53.05 -78.5 Q-53.5 -80.35 -55.15 -81.0 M-64.05 -37.05 L-60.85 -38.65 -63.75 -36.85 -64.05 -37.05" fill="#d2d202" fill-rule="evenodd" stroke="none"/>
    <path d="M95.7 -44.85 Q104.25 -37.95 101.15 -26.65 99.85 -21.9 96.95 -17.85 96.9 -18.8 96.45 -19.5 100.15 -24.9 99.1 -31.4 L97.75 -30.2 97.15 -27.95 95.25 -27.15 94.6 -29.3 92.95 -24.2 Q92.25 -21.85 90.0 -22.85 L88.0 -26.05 Q86.4 -23.6 86.5 -20.65 86.5 -20.2 86.65 -19.7 L86.9 -21.75 Q88.1 -17.9 92.0 -17.45 L92.65 -14.6 Q89.0 -14.45 87.0 -17.25 L85.65 -19.25 85.6 -19.4 85.4 -19.7 88.25 -38.3 Q91.1 -37.55 93.45 -39.4 96.25 -41.6 95.7 -44.85 M88.8 -42.55 L88.65 -41.75 88.7 -42.45 88.8 -42.55 M91.1 -34.4 Q86.75 -30.45 90.8 -25.35 91.95 -25.4 92.55 -26.3 95.4 -30.8 92.45 -35.35 L92.0 -35.3 91.1 -34.4 M-34.5 -45.9 L-32.6 -49.9 -32.9 -50.25 Q-32.05 -51.75 -32.15 -53.55 -32.2 -55.3 -33.45 -56.7 L-33.85 -56.85 -33.45 -53.45 -39.55 -55.15 -34.4 -50.7 -35.8 -50.7 -36.4 -51.0 -37.6 -51.5 -38.75 -51.4 -40.25 -52.1 -38.75 -48.0 -38.95 -47.45 -41.05 -47.5 -41.45 -49.2 Q-44.2 -47.45 -45.8 -44.65 -46.75 -44.65 -47.6 -45.1 -48.5 -45.6 -48.75 -46.6 L-49.05 -48.15 -50.45 -47.6 -51.05 -47.85 -49.95 -52.95 -55.65 -50.7 -57.0 -51.05 -51.9 -55.6 Q-56.25 -56.35 -60.1 -54.0 L-59.65 -57.5 Q-62.65 -53.75 -60.5 -49.1 -53.85 -34.85 -39.15 -41.25 L-38.5 -40.1 -42.5 -38.3 Q-47.45 -36.3 -52.15 -38.55 -66.4 -45.3 -61.75 -61.55 -58.2 -60.4 -54.9 -61.85 -48.05 -65.05 -51.15 -71.85 -44.5 -73.75 -39.0 -69.6 -26.35 -60.05 -33.4 -45.75 L-34.5 -45.9 M-48.0 -53.6 Q-44.55 -48.4 -42.25 -54.4 -41.6 -57.4 -43.3 -60.05 -46.6 -61.25 -48.2 -58.05 -49.4 -55.7 -48.0 -53.6" fill="#878601" fill-rule="evenodd" stroke="none"/>
    <path d="M89.05 -46.85 L90.05 -47.3 Q94.05 -48.6 95.7 -44.85 96.25 -41.6 93.45 -39.4 91.1 -37.55 88.25 -38.3 L88.65 -41.75 88.8 -42.55 88.95 -45.3 89.05 -46.85 M96.95 -17.85 L96.95 -17.5 Q97.4 -14.45 94.45 -14.3 L93.9 -14.3 92.65 -14.6 92.0 -17.45 92.9 -19.65 Q93.4 -20.2 94.05 -20.4 L94.5 -20.45 Q95.75 -20.4 96.45 -19.5 96.9 -18.8 96.95 -17.85 M-34.5 -45.9 L-33.4 -45.75 Q-31.2 -44.0 -32.9 -41.55 -35.1 -38.4 -38.5 -40.1 L-39.15 -41.25 Q-39.15 -43.2 -37.8 -44.55 L-36.55 -45.45 -34.5 -45.9 M-51.15 -71.85 Q-48.05 -65.05 -54.9 -61.85 -58.2 -60.4 -61.75 -61.55 -66.65 -63.3 -64.95 -69.65 -64.3 -71.7 -62.85 -73.2 -55.95 -77.95 -51.15 -71.85" fill="#ffffff" fill-rule="evenodd" stroke="none"/>
    <path d="M91.1 -34.4 L92.0 -35.3 92.45 -35.35 Q95.4 -30.8 92.55 -26.3 91.95 -25.4 90.8 -25.35 86.75 -30.45 91.1 -34.4 M-48.0 -53.6 Q-49.4 -55.7 -48.2 -58.05 -46.6 -61.25 -43.3 -60.05 -41.6 -57.4 -42.25 -54.4 -44.55 -48.4 -48.0 -53.6" fill="#535302" fill-rule="evenodd" stroke="none"/>
    <path d="M85.6 -19.4 L85.65 -19.25 85.6 -19.3 85.6 -19.4 M92.0 -17.45 Q88.1 -17.9 86.9 -21.75 L86.65 -19.7 Q86.5 -20.2 86.5 -20.65 86.4 -23.6 88.0 -26.05 L90.0 -22.85 Q92.25 -21.85 92.95 -24.2 L94.6 -29.3 95.25 -27.15 97.15 -27.95 97.75 -30.2 99.1 -31.4 Q100.15 -24.9 96.45 -19.5 95.75 -20.4 94.5 -20.45 L94.05 -20.4 93.95 -21.05 94.85 -21.45 94.8 -23.1 92.5 -22.85 Q91.95 -21.45 92.9 -19.65 L92.0 -17.45 M97.4 -25.25 L97.25 -26.0 96.55 -26.1 Q94.75 -25.65 94.2 -23.9 L95.1 -23.15 Q96.45 -23.15 97.15 -24.6 L97.4 -25.25 M90.0 -22.85 L89.6 -23.05 Q87.95 -22.25 88.4 -20.7 L90.2 -21.2 90.0 -22.85 M-39.15 -41.25 Q-53.85 -34.85 -60.5 -49.1 -62.65 -53.75 -59.65 -57.5 L-60.1 -54.0 Q-56.25 -56.35 -51.9 -55.6 L-57.0 -51.05 -55.65 -50.7 -49.95 -52.95 -51.05 -47.85 -50.45 -47.6 -49.05 -48.15 -48.75 -46.6 Q-48.5 -45.6 -47.6 -45.1 -46.75 -44.65 -45.8 -44.65 -44.2 -47.45 -41.45 -49.2 L-41.05 -47.5 -38.95 -47.45 -38.75 -48.0 -40.25 -52.1 -38.75 -51.4 -37.6 -51.5 -36.4 -51.0 -35.8 -50.7 -34.4 -50.7 -39.55 -55.15 -33.45 -53.45 -33.85 -56.85 -33.45 -56.7 Q-32.2 -55.3 -32.15 -53.55 -32.05 -51.75 -32.9 -50.25 L-32.6 -49.9 -34.5 -45.9 -36.55 -45.45 -37.8 -44.55 Q-39.15 -43.2 -39.15 -41.25 M-36.55 -45.45 L-36.45 -46.4 -37.75 -47.5 -38.75 -44.8 -36.55 -45.45 M-56.35 -49.55 L-58.6 -49.7 -58.5 -48.15 -56.35 -48.6 -56.35 -49.55 M-46.35 -42.15 L-46.35 -43.2 -49.7 -44.25 Q-50.75 -43.8 -50.95 -42.8 L-51.05 -41.9 -46.35 -42.15 M-41.15 -44.0 L-41.45 -44.85 -43.7 -45.65 -44.95 -42.2 -44.45 -41.85 -41.9 -42.2 -41.15 -44.0 M-52.8 -45.45 L-53.1 -47.05 -53.6 -47.3 -52.7 -50.0 -56.5 -46.2 -53.65 -43.6 -52.1 -43.9 -51.9 -45.4 -52.8 -45.45" fill="#a3a201" fill-rule="evenodd" stroke="none"/>
    <path d="M97.4 -25.25 L97.15 -24.6 Q96.45 -23.15 95.1 -23.15 L94.2 -23.9 Q94.75 -25.65 96.55 -26.1 L97.25 -26.0 97.4 -25.25 M94.05 -20.4 Q93.4 -20.2 92.9 -19.65 91.95 -21.45 92.5 -22.85 L94.8 -23.1 94.85 -21.45 93.95 -21.05 94.05 -20.4 M90.0 -22.85 L90.2 -21.2 88.4 -20.7 Q87.95 -22.25 89.6 -23.05 L90.0 -22.85 M-36.55 -45.45 L-38.75 -44.8 -37.75 -47.5 -36.45 -46.4 -36.55 -45.45 M-56.35 -49.55 L-56.35 -48.6 -58.5 -48.15 -58.6 -49.7 -56.35 -49.55 M-41.15 -44.0 L-41.9 -42.2 -44.45 -41.85 -44.95 -42.2 -43.7 -45.65 -41.45 -44.85 -41.15 -44.0 M-46.35 -42.15 L-51.05 -41.9 -50.95 -42.8 Q-50.75 -43.8 -49.7 -44.25 L-46.35 -43.2 -46.35 -42.15 M-52.8 -45.45 L-51.9 -45.4 -52.1 -43.9 -53.65 -43.6 -56.5 -46.2 -52.7 -50.0 -53.6 -47.3 -53.1 -47.05 -52.8 -45.45" fill="#e3e302" fill-rule="evenodd" stroke="none"/>
    <path d="M-23.65 -22.55 L-23.3 -22.35 Q-20.45 -20.8 -18.75 -23.4 -29.55 -3.05 -36.85 19.0 -44.0 40.55 -45.35 63.25 L-45.7 71.0 -51.75 67.3 -48.55 32.5 -48.7 32.35 Q-49.25 32.1 -49.5 32.7 L-45.3 22.25 Q-36.1 -0.95 -23.65 -22.55" fill="#c6bc97" fill-rule="evenodd" stroke="none"/>
    <path d="M-3.55 89.8 L-6.2 91.95 -13.2 90.35 -13.0 89.5 -9.85 87.25 -3.55 89.8 M46.85 95.3 L45.65 94.35 43.7 93.65 44.2 90.2 50.45 89.8 49.45 92.45 Q46.05 99.4 38.05 98.45 L38.55 95.35 42.75 94.75 42.9 94.9 Q44.7 96.3 46.8 95.45 L47.1 95.45 46.85 95.3 M69.25 75.5 L67.55 76.15 66.6 75.6 67.65 71.65 68.4 72.55 69.25 75.5 M-3.3 3.8 L-1.35 6.3 Q-3.1 21.8 -5.75 37.05 -9.6 59.3 -11.2 81.75 L-10.0 82.65 -10.25 85.6 -13.05 88.3 Q-11.15 70.25 -9.95 52.1 -8.35 27.7 -3.3 3.8 M-50.9 36.5 L-53.65 66.3 -56.7 67.15 Q-55.5 56.6 -53.8 45.95 -53.75 45.6 -54.15 45.4 L-50.9 36.5 M-55.25 71.15 L-57.3 69.65 -56.85 68.95 -53.7 67.9 -51.9 69.4 -55.25 71.15" fill="#7d7246" fill-rule="evenodd" stroke="none"/>
    <path d="M64.05 20.1 L64.55 20.1 67.5 19.75 Q65.25 32.45 61.65 45.0 L57.95 58.35 64.05 20.1 M25.95 10.85 L28.65 8.9 Q24.55 32.0 19.65 55.0 15.55 74.35 9.25 93.0 L7.55 90.95 8.6 86.0 10.55 86.0 Q14.7 72.65 17.25 58.85 L25.95 10.85 M-3.55 89.8 Q1.25 92.1 6.65 92.5 L7.05 92.35 8.35 94.15 Q9.55 93.95 8.1 95.35 L-6.2 91.95 -3.55 89.8 M-55.25 71.15 L-51.9 69.4 -42.25 74.9 -42.85 78.55 -55.25 71.15" fill="#b9ad82" fill-rule="evenodd" stroke="none"/>
    <path d="M-113.25 262.2 L-113.25 259.55 -109.7 229.6 Q-106.85 226.4 -103.2 224.45 L-100.65 223.05 -100.8 233.1 Q-100.8 236.15 -100.0 245.6 -95.0 251.4 -73.95 247.35 -75.8 251.25 -78.95 254.05 -79.8 254.8 -80.1 255.85 -95.05 258.5 -109.45 263.55 L-109.55 263.25 -113.25 262.2 M-113.25 188.35 L-113.25 174.25 -108.9 174.35 Q-105.95 174.0 -103.3 173.1 L-104.1 173.45 -101.65 173.05 -103.8 189.75 -113.25 188.35 M-113.25 173.6 L-113.25 165.6 Q-104.75 162.15 -97.7 156.2 -86.05 146.25 -83.05 131.2 L-88.15 133.45 -86.6 119.2 -79.65 116.7 -79.55 116.25 -77.65 115.8 Q-76.8 128.95 -80.0 141.7 -86.8 168.45 -113.25 173.6 M44.6 141.6 L52.6 139.7 Q57.3 148.5 60.65 157.75 68.55 179.85 56.5 199.1 L57.45 200.65 61.3 197.75 63.8 203.0 Q64.65 204.75 65.0 206.45 L65.15 207.55 Q50.25 215.1 36.8 225.2 L35.65 223.4 33.2 220.45 31.8 219.2 32.2 215.55 Q32.75 210.15 31.35 204.7 L39.45 203.3 Q45.2 202.5 50.4 199.9 L29.45 201.05 24.8 197.5 Q29.4 193.1 30.6 186.95 31.8 180.85 28.25 175.9 31.1 173.65 33.3 170.95 43.75 158.2 44.6 141.6 M-96.1 265.15 Q-51.1 252.4 -5.15 255.2 L-4.35 255.55 -3.5 256.05 -2.85 255.05 26.95 259.05 27.9 259.05 27.95 259.1 23.3 266.05 -55.3 268.35 -96.05 265.5 -96.1 265.15 M-110.8 116.55 Q-104.45 114.95 -98.0 114.95 L-95.25 114.85 -95.2 121.2 -112.55 128.1 -110.8 116.55 M-91.9 193.55 L-105.4 199.05 -106.35 199.0 -105.65 194.6 -104.3 194.8 Q-102.25 194.65 -100.8 193.5 L-98.85 180.4 Q-98.1 176.15 -97.5 171.9 -92.3 169.0 -88.35 164.45 L-82.2 157.4 -81.6 157.45 -81.2 157.85 -80.75 157.95 -80.7 158.3 -80.55 158.45 -79.25 160.05 Q-83.1 168.85 -89.35 176.05 L-91.9 193.55 M-71.0 120.8 L-75.3 118.55 -75.7 115.35 -68.85 113.85 -68.0 114.55 -71.0 120.8 M-77.2 155.15 L-78.75 155.8 -81.75 155.0 Q-74.35 139.2 -75.1 121.7 L-72.55 123.35 -69.25 133.5 -72.6 132.65 -72.8 136.0 Q-73.7 145.85 -77.2 155.15 M-92.15 195.9 L-92.55 200.4 -98.35 202.15 -100.55 220.0 -109.1 224.8 -107.1 203.2 -92.15 195.9" fill="#484848" fill-rule="evenodd" stroke="none"/>
    <path d="M-113.25 165.6 L-113.25 117.55 -110.8 116.55 -112.55 128.1 -95.2 121.2 -93.5 123.65 Q-90.4 120.85 -86.6 119.2 L-88.15 133.45 -83.05 131.2 Q-86.05 146.25 -97.7 156.2 -104.75 162.15 -113.25 165.6 M-79.25 160.05 Q-72.45 172.1 -76.6 184.45 -76.8 185.1 -77.4 185.45 -84.25 190.2 -91.9 193.55 L-89.35 176.05 Q-83.1 168.85 -79.25 160.05 M-69.25 133.5 Q-67.65 145.0 -76.1 154.0 L-77.2 155.15 Q-73.7 145.85 -72.8 136.0 L-72.6 132.65 -69.25 133.5 M-92.15 195.9 L-80.2 191.15 -78.75 191.85 Q-75.1 197.0 -73.35 202.75 -72.4 205.75 -74.0 208.45 -75.65 211.25 -77.65 213.7 -89.4 215.2 -100.55 220.0 L-98.35 202.15 -92.55 200.4 -92.15 195.9 M-100.65 223.05 L-80.7 217.0 -78.4 221.95 Q-72.1 234.25 -73.95 247.35 -95.0 251.4 -100.0 245.6 -100.8 236.15 -100.8 233.1 L-100.65 223.05" fill="#666666" fill-rule="evenodd" stroke="none"/>
    <path d="M-113.25 228.95 L-113.25 193.3 -109.3 194.15 Q-112.3 206.05 -112.7 218.5 L-113.25 228.95 M62.7 211.9 L63.95 215.0 Q68.25 227.0 70.7 239.75 73.4 246.1 73.2 252.7 73.0 258.8 74.45 264.8 L27.35 265.9 Q35.55 255.1 38.7 242.15 40.45 234.8 37.8 227.7 50.75 220.65 62.7 211.9" fill="#1e1e1e" fill-rule="evenodd" stroke="none"/>
    <path d="M26.0 151.15 L40.4 143.55 39.65 147.85 26.0 151.15 M-41.0 142.4 L-69.6 123.5 -65.75 115.8 Q-45.5 131.1 -20.9 137.3 -3.45 141.85 14.6 143.55 23.8 144.5 33.1 143.35 L17.75 152.0 Q-7.05 153.55 -30.85 145.85 L-41.0 142.4" fill="#650b01" fill-rule="evenodd" stroke="none"/>
    <path d="M112.55 99.15 L112.55 120.9 108.8 126.35 Q102.65 135.7 100.9 146.95 100.55 122.35 86.1 103.25 L90.1 97.35 112.55 99.15 M75.8 119.8 L78.5 121.8 Q94.15 135.95 98.05 156.4 87.1 152.1 75.4 150.35 67.65 149.25 63.55 155.95 L56.3 138.3 Q70.95 133.3 75.8 119.8" fill="#806600" fill-opacity="0.49803922" fill-rule="evenodd" stroke="none"/>
  </g>
</svg>
