<?xml version="1.0" encoding="UTF-8" standalone="no"?>
<svg xmlns:xlink="http://www.w3.org/1999/xlink" height="417.3px" width="220.05px" xmlns="http://www.w3.org/2000/svg">
  <g transform="matrix(1.0, 0.0, 0.0, 1.0, 116.2, 154.4)">
    <path d="M12.3 -91.2 L13.3 -87.5 Q10.85 -89.6 9.0 -92.3 3.9 -99.8 2.45 -108.05 2.1 -110.0 0.85 -111.4 L-8.5 -121.4 -9.15 -122.65 -8.4 -122.95 Q-2.25 -117.45 3.3 -110.7 4.6 -109.15 4.9 -107.1 6.25 -98.05 12.3 -91.2 M-16.05 -69.55 Q-18.8 -75.6 -22.6 -81.2 -27.05 -87.65 -23.95 -95.05 L-23.8 -95.5 -23.7 -95.6 -21.55 -99.95 Q-17.8 -107.45 -13.35 -114.6 L-12.9 -114.7 Q-14.45 -124.7 -21.95 -131.55 L-29.05 -138.4 -38.2 -148.05 Q-39.1 -149.0 -40.25 -149.65 -59.3 -149.7 -77.1 -141.8 -99.15 -131.9 -116.2 -114.7 L-116.2 -121.5 Q-92.4 -144.55 -59.9 -151.55 L-51.5 -153.55 Q-38.7 -157.1 -32.4 -145.85 L-29.65 -148.15 -27.7 -150.0 Q-26.1 -151.7 -24.8 -153.35 -9.35 -152.0 5.8 -148.6 21.45 -145.05 35.4 -136.85 78.0 -112.0 95.9 -65.7 99.85 -55.55 101.55 -44.7 105.55 -19.7 102.55 5.45 102.05 9.55 99.85 12.7 92.1 23.95 89.25 37.05 88.25 41.55 89.35 46.0 92.8 60.05 84.1 71.9 73.35 86.65 55.7 90.95 L44.5 124.85 40.2 127.15 Q36.35 129.05 31.9 129.95 19.55 132.15 6.9 128.75 L3.25 123.45 -1.75 127.2 -12.4 124.25 -14.15 135.9 Q4.9 136.1 23.5 139.8 L32.2 141.35 Q42.0 143.05 43.7 151.85 52.85 154.6 59.35 161.5 78.05 181.25 75.0 208.65 L76.8 210.4 77.75 211.45 79.75 214.85 Q82.6 220.1 82.2 226.15 L78.85 229.7 Q87.5 244.75 88.9 261.25 L83.5 261.25 85.8 260.8 75.95 232.25 Q57.85 240.85 37.35 241.25 L36.85 244.3 Q34.4 254.35 26.6 261.25 L25.95 262.0 13.95 261.55 7.8 260.55 Q-6.9 260.1 -21.3 260.1 -33.65 258.1 -46.6 258.3 L-71.7 258.45 Q-94.0 258.45 -116.2 261.15 L-116.2 253.9 -65.7 254.45 Q-44.35 254.65 -23.0 254.1 L-20.25 241.75 Q-18.85 235.45 -16.75 229.45 -12.75 218.05 -19.55 208.1 L-19.15 204.65 -25.9 204.55 -27.85 204.55 -30.4 204.45 -82.2 201.75 Q-98.15 200.45 -113.7 197.8 L-116.2 197.3 -116.2 191.5 Q-93.95 195.8 -70.95 196.9 L-24.1 199.95 -18.3 200.2 Q-14.7 190.15 -12.7 179.75 -12.35 178.05 -12.8 176.55 -17.6 159.75 -28.5 145.8 L-28.95 145.8 -30.2 144.55 Q-34.25 140.5 -39.7 139.85 L-66.9 137.6 Q-91.6 136.35 -116.2 136.5 L-116.2 130.25 -108.6 130.55 Q-110.25 120.75 -109.5 110.8 -108.75 100.3 -101.25 92.9 -104.9 86.85 -105.55 79.6 -106.05 74.2 -105.0 69.0 L-116.2 62.75 -116.2 56.9 -113.85 58.4 Q-88.15 73.95 -58.6 80.55 L-55.7 106.35 -55.3 106.85 -54.3 106.95 -53.85 106.7 -53.6 106.25 Q-49.1 100.1 -49.15 92.65 L-48.3 89.85 -47.9 89.4 -47.95 90.55 -48.05 95.05 -48.75 98.3 -48.2 98.3 -47.95 98.9 -47.9 98.9 Q-49.5 103.5 -53.25 106.9 L-53.75 107.45 -53.75 107.6 Q-34.1 114.7 -13.75 119.9 -8.6 121.2 -3.7 120.45 3.75 119.85 9.05 113.75 L3.45 112.4 Q-17.7 107.45 -37.8 100.5 -27.95 101.65 -18.4 104.7 L-18.1 104.75 Q-4.5 108.95 9.3 111.95 L16.15 87.8 18.15 85.9 16.25 101.55 13.75 112.8 14.35 113.1 13.7 113.05 13.3 114.15 16.85 115.2 17.2 115.4 20.05 116.2 17.55 115.7 13.05 114.65 6.65 120.6 Q7.6 124.15 10.95 125.2 L16.05 126.7 Q29.05 130.25 40.45 123.85 L38.2 123.65 Q32.85 123.4 31.75 120.55 L41.8 121.3 Q48.3 104.95 51.95 87.9 L54.85 87.05 Q75.0 81.45 84.5 63.05 86.9 59.0 87.5 54.25 L86.45 52.9 85.65 51.85 85.65 51.75 85.5 51.75 85.4 51.75 Q84.3 44.95 85.65 37.95 88.15 25.25 96.7 15.45 97.85 8.15 93.9 2.2 90.25 -0.05 87.85 3.6 90.15 4.85 90.25 7.55 L90.55 11.55 Q81.05 29.95 76.45 50.05 75.7 53.2 75.9 56.4 75.95 57.6 76.45 58.4 L77.3 59.75 Q80.75 58.9 83.55 56.75 L83.25 57.3 Q80.75 60.45 76.8 61.15 72.6 61.6 70.75 57.8 60.65 36.85 71.45 15.35 80.15 -2.05 98.85 0.05 L99.1 0.65 96.15 1.8 98.55 10.05 99.3 7.35 Q100.4 3.25 100.2 -0.95 100.8 -26.1 95.4 -50.55 92.75 -62.5 87.35 -73.7 76.65 -96.1 58.65 -113.15 40.95 -130.0 18.5 -139.25 3.7 -145.25 -11.95 -147.75 L-25.4 -149.6 -25.2 -148.85 -25.6 -149.65 -26.15 -148.4 -20.75 -140.7 -21.95 -141.1 -27.35 -144.75 -27.45 -146.15 -30.4 -143.4 -31.45 -142.9 Q-30.65 -141.45 -29.4 -140.75 -14.75 -132.65 -11.45 -116.55 -11.3 -115.85 -11.65 -115.2 -18.8 -102.95 -23.95 -90.0 L-23.65 -89.15 -15.95 -71.85 -15.9 -71.5 -15.95 -70.4 -16.1 -70.6 -16.05 -70.25 -16.05 -69.55 M18.15 143.5 Q7.15 141.15 -4.1 140.65 L-4.25 140.65 -15.75 140.85 -17.45 142.5 Q-19.85 144.55 -21.3 147.35 L-21.05 148.65 -18.4 153.35 -17.3 155.3 Q-11.45 165.1 -7.75 175.9 -7.35 177.05 -7.6 178.15 L-10.25 191.2 Q-11.0 195.2 -12.15 199.25 1.2 200.0 14.35 196.95 26.05 194.7 34.1 186.4 36.0 184.4 36.2 181.65 L37.0 171.9 39.4 153.95 Q39.55 152.9 39.0 152.4 30.15 145.0 18.15 143.5 M49.65 159.6 L45.05 157.45 43.7 158.25 43.6 159.25 43.55 158.45 Q42.2 161.1 41.95 164.15 41.05 174.9 38.9 185.7 37.5 192.55 31.15 196.15 L33.4 198.0 Q36.6 200.75 39.1 204.4 L38.6 213.85 42.9 216.75 42.7 217.9 38.6 216.3 37.6 233.05 39.0 235.45 Q60.85 236.45 79.1 224.5 L78.9 222.8 Q78.55 218.7 76.75 215.2 76.1 212.1 73.45 211.45 L72.05 212.4 Q67.25 215.65 61.4 216.4 L59.3 216.2 59.35 215.8 62.0 215.05 Q70.75 213.55 71.7 205.25 73.65 197.1 71.1 189.0 L70.45 187.35 69.95 186.25 69.2 185.95 Q67.2 180.45 64.45 175.45 60.1 167.6 53.3 162.1 L52.95 161.85 49.65 159.6 M76.85 261.25 L82.55 260.85 82.35 261.25 76.85 261.25 M23.45 199.95 L23.1 200.05 Q11.55 204.05 -0.4 204.8 L-8.15 205.25 -14.25 205.35 -15.0 206.9 -11.45 215.2 -11.7 216.2 Q-11.05 217.9 -11.35 219.45 -14.55 236.65 -16.95 254.05 L-16.15 254.5 -9.75 255.4 2.3 255.9 Q8.4 255.6 14.55 257.15 L16.65 257.55 21.1 257.8 Q23.85 257.35 25.65 255.1 34.9 243.8 34.2 228.3 L34.35 211.7 33.85 205.25 27.4 198.2 23.45 199.95 M-87.9 -7.9 L-80.65 -20.45 Q-65.3 -38.4 -42.75 -29.95 L-38.05 -28.0 Q-55.8 -44.9 -77.9 -33.5 -86.45 -29.05 -90.65 -20.05 -100.3 0.55 -89.35 20.45 -86.4 25.8 -81.15 26.45 L-80.35 26.9 -79.95 26.6 -79.8 26.2 -85.1 20.1 -87.45 9.9 -88.3 9.35 -88.2 5.25 -89.0 4.75 -88.05 0.75 -88.95 0.7 -88.95 -0.15 -87.8 -1.5 -87.85 -3.1 -87.85 -3.65 -87.7 -4.1 Q-86.9 -5.35 -86.7 -6.8 L-87.9 -7.9 M-57.85 -39.5 Q-35.7 -37.65 -28.6 -16.15 -22.25 3.25 -34.35 19.6 -44.55 33.45 -62.1 33.4 -75.05 33.4 -85.95 26.65 -90.35 23.9 -92.45 19.05 -103.2 -5.4 -88.3 -27.6 -84.05 -34.0 -76.9 -36.7 -67.6 -40.2 -57.85 -39.5 M-51.95 85.5 L-52.2 85.5 Q-51.5 85.25 -51.95 85.5 M-88.15 76.75 L-101.5 70.8 -101.8 73.5 Q-103.45 87.55 -92.55 94.8 -86.95 97.9 -80.75 99.7 L-79.5 100.0 Q-70.3 101.9 -60.5 102.25 L-61.0 84.45 Q-75.05 82.3 -88.15 76.75 M-90.25 100.65 Q-94.1 99.25 -97.5 96.65 L-98.35 95.85 Q-105.4 101.25 -105.15 110.35 L-104.7 127.5 -104.45 130.7 -89.35 131.05 Q-64.35 132.65 -39.7 136.15 L-33.85 137.4 -31.35 137.85 -23.0 143.15 -21.85 141.65 -18.4 136.85 -17.1 127.8 -16.3 123.15 -30.4 118.95 -53.1 113.9 Q-58.95 112.45 -60.0 106.55 -75.5 105.55 -90.25 100.65" fill="#000000" fill-rule="evenodd" stroke="none"/>
    <path d="M-18.1 104.75 L-10.25 103.1 -10.35 102.6 -9.3 102.1 -8.0 102.3 Q-6.05 102.15 -5.65 100.1 L-5.1 100.55 -5.0 99.35 -3.75 98.6 Q-2.5 99.3 -1.0 99.4 3.55 98.75 2.4 93.95 L3.4 93.2 3.85 93.6 Q6.7 95.7 7.45 92.05 7.65 91.0 7.35 90.0 L8.05 89.4 10.45 89.8 14.1 84.45 14.5 83.4 16.05 81.9 16.35 82.4 16.15 87.8 9.3 111.95 Q-4.5 108.95 -18.1 104.75 M22.4 117.5 L23.45 112.8 24.3 108.95 24.55 107.9 27.45 93.5 26.3 93.2 26.25 92.8 26.15 91.7 Q26.15 91.1 27.55 89.55 L27.55 88.3 Q26.25 88.0 25.6 87.6 24.9 87.1 24.9 86.3 24.85 85.3 26.9 83.75 L25.2 81.15 24.75 80.5 27.3 80.65 28.45 80.35 Q29.15 79.95 29.2 79.05 29.2 78.25 28.25 77.5 27.3 76.6 25.45 76.15 26.7 75.55 28.8 75.05 30.25 74.55 30.25 73.4 L30.1 72.2 29.85 71.85 25.8 71.85 29.75 68.8 Q30.45 69.45 31.95 69.45 32.8 69.45 33.05 69.05 L33.4 68.7 33.6 68.3 33.7 67.4 Q33.7 66.5 33.1 65.25 41.6 55.2 47.3 35.75 L48.35 32.05 50.3 23.75 55.65 24.5 Q56.25 24.15 56.25 23.35 54.9 21.75 51.05 20.05 L51.5 17.7 60.0 21.5 61.1 21.15 61.05 20.25 Q56.75 18.55 51.8 16.1 56.05 -8.35 54.4 -33.2 52.8 -56.8 44.6 -78.9 36.25 -101.45 20.9 -120.05 6.95 -136.85 -11.95 -147.75 3.7 -145.25 18.5 -139.25 40.95 -130.0 58.65 -113.15 76.65 -96.1 87.35 -73.7 92.75 -62.5 95.4 -50.55 100.8 -26.1 100.2 -0.95 82.7 -6.15 72.75 9.7 68.2 17.05 66.1 25.45 L65.25 24.9 65.1 25.6 65.9 26.25 65.45 27.5 63.45 27.55 63.1 27.95 64.8 29.1 65.05 29.95 63.0 31.0 64.05 31.3 64.8 31.1 Q61.5 47.2 70.05 60.85 71.65 63.35 74.8 64.35 80.1 66.25 84.5 63.05 75.0 81.45 54.85 87.05 L51.95 87.9 Q48.3 104.95 41.8 121.3 L31.75 120.55 31.8 120.45 31.75 120.45 22.4 117.5 M50.7 21.5 L50.75 21.25 51.65 21.45 50.7 21.5 M61.9 27.65 L61.85 27.65 61.9 27.7 61.9 27.65 M18.15 143.5 L19.95 146.25 Q21.8 148.7 22.05 151.8 L23.7 152.1 21.15 157.85 Q21.7 160.8 23.65 163.15 L27.85 162.0 28.35 164.2 30.95 164.2 31.6 165.75 Q33.3 169.75 37.0 171.9 L36.2 181.65 Q36.0 184.4 34.1 186.4 26.05 194.7 14.35 196.95 L15.2 194.8 Q20.95 174.65 10.85 155.3 L12.25 154.4 12.95 154.25 14.25 151.75 13.05 149.55 Q10.2 148.0 7.95 150.45 2.85 143.45 -4.25 140.65 L-4.1 140.65 Q7.15 141.15 18.15 143.5 M-0.4 204.8 Q2.55 213.35 10.4 211.2 11.25 210.95 11.75 210.05 15.35 204.0 22.0 201.6 L24.05 200.25 23.45 199.95 27.4 198.2 33.85 205.25 34.35 211.7 Q27.9 216.3 31.05 224.45 31.85 226.6 32.25 229.0 L33.3 229.0 34.2 228.3 Q34.9 243.8 25.65 255.1 23.85 257.35 21.1 257.8 L16.65 257.55 Q21.2 235.55 7.1 219.05 1.8 212.85 -4.75 207.95 L-8.15 205.25 -0.4 204.8 M-39.7 139.85 Q-34.25 140.5 -30.2 144.55 L-28.95 145.8 -28.5 145.8 Q-17.6 159.75 -12.8 176.55 -12.35 178.05 -12.7 179.75 -14.7 190.15 -18.3 200.2 -24.3 193.25 -24.05 183.75 -23.75 171.35 -29.05 160.25 L-26.7 156.6 -27.5 155.4 -27.5 152.55 -28.25 151.7 Q-31.2 148.45 -35.3 148.75 L-40.5 140.3 -39.7 139.85 M-30.4 204.45 L-27.85 204.55 -25.9 205.25 -25.9 204.55 -19.15 204.65 -19.55 208.1 Q-12.75 218.05 -16.75 229.45 -18.85 235.45 -20.25 241.75 L-23.0 254.1 Q-24.5 250.75 -24.1 247.35 -21.4 225.15 -31.0 205.55 L-30.0 204.8 -30.4 204.45 M-17.1 127.8 L-18.4 136.85 -21.85 141.65 -26.55 133.0 Q-25.65 128.95 -21.2 128.15 L-17.1 127.8 M-18.4 153.35 L-18.4 152.85 -17.3 155.3 -18.4 153.35" fill="#ffffff" fill-rule="evenodd" stroke="none"/>
    <path d="M12.3 -91.2 Q6.25 -98.05 4.9 -107.1 4.6 -109.15 3.3 -110.7 -2.25 -117.45 -8.4 -122.95 L-9.15 -122.65 -8.5 -121.4 -9.25 -122.3 -10.6 -121.25 -9.55 -116.5 Q-9.2 -114.15 -9.85 -111.95 -11.95 -105.05 -16.45 -99.75 -18.9 -96.9 -19.05 -93.15 -19.55 -82.45 -15.55 -71.85 L-15.95 -71.85 -23.65 -89.15 -23.95 -90.0 Q-18.8 -102.95 -11.65 -115.2 -11.3 -115.85 -11.45 -116.55 -14.75 -132.65 -29.4 -140.75 -30.65 -141.45 -31.45 -142.9 L-30.4 -143.4 -27.45 -146.15 -27.35 -144.75 -21.95 -141.1 Q-20.0 -138.7 -17.15 -137.45 L-16.6 -137.3 -16.65 -136.8 Q-13.45 -132.2 -8.6 -129.45 -2.75 -126.05 3.65 -123.5 L5.35 -119.85 Q10.3 -106.05 12.3 -91.2" fill="#777777" fill-rule="evenodd" stroke="none"/>
    <path d="M-8.5 -121.4 L0.85 -111.4 Q2.1 -110.0 2.45 -108.05 3.9 -99.8 9.0 -92.3 10.85 -89.6 13.3 -87.5 L12.3 -91.2 Q10.3 -106.05 5.35 -119.85 L3.65 -123.5 Q-2.75 -126.05 -8.6 -129.45 -13.45 -132.2 -16.65 -136.8 L-16.55 -136.8 Q-15.95 -137.0 -16.6 -137.3 L-17.15 -137.45 Q-20.0 -138.7 -21.95 -141.1 L-20.75 -140.7 -26.15 -148.4 -25.6 -149.65 -25.2 -148.85 -25.4 -149.6 -11.95 -147.75 Q6.95 -136.85 20.9 -120.05 36.25 -101.45 44.6 -78.9 52.8 -56.8 54.4 -33.2 56.05 -8.35 51.8 16.1 34.45 9.25 15.7 10.05 L8.9 10.1 13.55 11.05 9.55 12.7 Q30.9 13.1 50.75 21.25 L50.7 21.5 25.75 19.9 25.5 20.25 50.3 23.75 48.35 32.05 47.3 35.75 Q41.6 55.2 33.1 65.25 33.7 66.5 33.7 67.4 L33.6 68.3 33.4 68.7 33.05 69.05 Q32.8 69.45 31.95 69.45 30.45 69.45 29.75 68.8 L25.8 71.85 29.85 71.85 30.1 72.2 30.25 73.4 Q30.25 74.55 28.8 75.05 26.7 75.55 25.45 76.15 27.3 76.6 28.25 77.5 29.2 78.25 29.2 79.05 29.15 79.95 28.45 80.35 L27.3 80.65 24.75 80.5 25.2 81.15 26.9 83.75 Q24.85 85.3 24.9 86.3 24.9 87.1 25.6 87.6 26.25 88.0 27.55 88.3 L27.55 89.55 Q26.15 91.1 26.15 91.7 L26.25 92.8 26.3 93.2 27.45 93.5 24.55 107.9 24.3 108.95 23.45 112.8 22.4 117.5 17.9 116.2 17.55 115.7 20.05 116.2 17.2 115.4 16.55 107.9 16.25 101.55 18.15 85.9 16.15 87.8 16.35 82.4 16.05 81.9 14.5 83.4 14.1 84.45 10.45 89.8 8.05 89.4 7.35 90.0 Q7.65 91.0 7.45 92.05 6.7 95.7 3.85 93.6 L3.4 93.2 2.4 93.95 Q3.55 98.75 -1.0 99.4 -2.5 99.3 -3.75 98.6 L-5.0 99.35 -5.1 100.55 -5.65 100.1 Q-6.05 102.15 -8.0 102.3 L-9.3 102.1 -10.35 102.6 -10.25 103.1 -18.1 104.75 -18.4 104.7 Q-27.95 101.65 -37.8 100.5 L-47.3 98.25 -47.6 98.85 -48.05 95.05 -47.95 90.55 -47.7 89.1 -47.65 88.55 -47.35 85.4 -46.95 84.8 -46.15 76.25 Q-48.15 75.2 -50.15 75.15 -63.35 74.45 -76.25 72.2 -91.05 68.8 -106.9 61.7 L-113.85 58.4 -116.2 56.9 -116.2 -114.7 Q-99.15 -131.9 -77.1 -141.8 -59.3 -149.7 -40.25 -149.65 -39.1 -149.0 -38.2 -148.05 L-29.05 -138.4 -21.95 -131.55 Q-14.45 -124.7 -12.9 -114.7 L-13.35 -114.6 Q-17.8 -107.45 -21.55 -99.95 L-23.7 -95.6 -23.85 -95.55 -23.95 -95.05 Q-27.05 -87.65 -22.6 -81.2 -18.8 -75.6 -16.05 -69.55 L-15.95 -70.35 -15.55 -70.95 -15.55 -71.5 -15.55 -71.85 Q-19.55 -82.45 -19.05 -93.15 -18.9 -96.9 -16.45 -99.75 -11.95 -105.05 -9.85 -111.95 -9.2 -114.15 -9.55 -116.5 L-10.6 -121.25 -9.25 -122.3 -8.5 -121.4 M100.2 -0.95 Q100.4 3.25 99.3 7.35 L98.55 10.05 96.15 1.8 99.1 0.65 98.85 0.05 Q80.15 -2.05 71.45 15.35 60.65 36.85 70.75 57.8 72.6 61.6 76.8 61.15 80.75 60.45 83.25 57.3 L86.45 52.9 87.5 54.25 Q86.9 59.0 84.5 63.05 80.1 66.25 74.8 64.35 71.65 63.35 70.05 60.85 61.5 47.2 64.8 31.1 L64.05 31.3 63.0 31.0 65.05 29.95 64.8 29.1 63.1 27.95 63.45 27.55 65.45 27.5 65.9 26.25 65.1 25.6 65.25 24.9 66.1 25.45 Q68.2 17.05 72.75 9.7 82.7 -6.15 100.2 -0.95 M85.5 51.75 L85.65 51.75 85.65 51.85 85.5 51.85 85.5 51.75 M51.5 17.7 L51.05 20.05 Q40.55 16.2 29.6 13.6 L27.55 13.0 Q40.2 12.3 51.5 17.7 M61.9 27.65 L61.9 27.7 61.85 27.65 61.9 27.65 M-4.25 140.65 Q2.85 143.45 7.95 150.45 L7.4 151.65 Q6.75 153.5 7.55 155.05 L8.0 155.35 10.85 155.3 Q20.95 174.65 15.2 194.8 L14.35 196.95 Q1.2 200.0 -12.15 199.25 -11.0 195.2 -10.25 191.2 L-7.6 178.15 Q-7.35 177.05 -7.75 175.9 -11.45 165.1 -17.3 155.3 L-18.4 152.85 -18.4 153.35 -21.05 148.65 -20.45 147.55 -21.3 147.35 Q-19.85 144.55 -17.45 142.5 L-15.75 140.85 -4.25 140.65 M-8.15 205.25 L-4.75 207.95 Q1.8 212.85 7.1 219.05 21.2 235.55 16.65 257.55 L14.55 257.15 Q8.4 255.6 2.3 255.9 L-8.65 255.05 -8.85 254.55 -16.15 254.5 -16.95 254.05 Q-14.55 236.65 -11.35 219.45 -11.05 217.9 -11.7 216.2 L-11.45 215.2 -15.0 206.9 -14.25 205.35 -8.15 205.25 M-86.1 -37.0 Q-102.45 -21.6 -99.25 1.25 L-103.65 1.9 -99.85 3.6 -108.65 5.25 -99.0 5.3 -98.85 6.1 Q-100.95 8.55 -102.2 11.65 -102.65 12.75 -102.3 13.6 L-98.25 10.15 Q-95.75 28.8 -77.35 34.4 -64.1 38.45 -50.5 35.25 -35.8 31.75 -28.1 18.9 L-26.0 19.3 -27.0 15.7 -26.7 14.95 -27.4 13.45 -16.25 14.95 -13.6 15.2 Q-18.1 12.1 -23.3 10.35 L-25.85 9.55 -25.45 8.3 -19.15 7.9 -20.15 7.15 -24.3 7.25 Q-23.2 3.7 -22.4 0.0 -22.0 -1.95 -23.3 -3.55 L-23.3 -6.25 -22.9 -6.8 Q-25.95 -19.9 -33.4 -30.5 -35.2 -33.05 -37.95 -34.75 -63.05 -50.15 -91.3 -39.95 -92.6 -39.4 -93.55 -38.35 L-94.0 -37.7 -93.45 -36.45 -86.1 -37.0 M-116.2 136.5 Q-91.6 136.35 -66.9 137.6 L-39.7 139.85 -40.5 140.3 -35.3 148.75 -36.55 149.95 -39.6 153.05 Q-44.65 158.4 -39.45 163.65 L-36.45 163.55 Q-32.35 163.6 -29.35 160.6 L-29.05 160.25 Q-23.75 171.35 -24.05 183.75 -24.3 193.25 -18.3 200.2 L-24.1 199.95 -70.95 196.9 Q-93.95 195.8 -116.2 191.5 L-116.2 136.5 M-116.2 197.3 L-113.7 197.8 Q-98.15 200.45 -82.2 201.75 L-83.1 204.55 Q-73.65 211.3 -62.05 211.75 -59.55 211.9 -59.4 214.2 -59.25 216.55 -57.45 217.8 -53.75 220.45 -49.25 219.15 -38.05 215.95 -31.0 205.55 -21.4 225.15 -24.1 247.35 -24.5 250.75 -23.0 254.1 -44.35 254.65 -65.7 254.45 L-116.2 253.9 -116.2 197.3 M-92.55 94.8 Q-103.45 87.55 -101.8 73.5 L-101.5 70.8 -88.15 76.75 Q-82.35 82.9 -82.25 91.15 L-82.25 92.95 Q-87.25 94.45 -92.55 94.8 M-89.35 131.05 L-104.45 130.7 -104.7 127.5 -105.15 110.35 Q-105.4 101.25 -98.35 95.85 L-97.5 96.65 Q-94.1 99.25 -90.25 100.65 L-88.5 103.45 Q-79.65 117.75 -89.35 131.05 M-30.4 118.95 L-16.3 123.15 -17.1 127.8 -21.2 128.15 Q-25.65 128.95 -26.55 133.0 L-21.85 141.65 -23.0 143.15 -31.35 137.85 -33.85 137.4 -34.35 136.3 Q-37.75 126.85 -30.4 118.95 M-52.8 164.75 L-56.55 164.45 Q-65.2 166.45 -70.95 173.7 L-69.6 173.95 Q-58.45 174.0 -52.8 164.75 M-54.5 173.7 L-53.1 174.25 Q-48.7 173.6 -49.65 168.95 -53.0 169.4 -54.5 173.7 M-91.7 214.55 Q-92.95 214.55 -93.65 215.35 -97.9 220.2 -92.95 226.35 -90.1 229.85 -85.4 229.6 -77.8 228.65 -79.1 221.9 -82.95 214.5 -91.7 214.55 M-66.85 218.6 Q-69.45 217.55 -71.45 219.65 L-71.85 223.05 -71.15 223.45 Q-64.7 225.7 -66.15 218.95 L-66.85 218.6" fill="#aaaaaa" fill-rule="evenodd" stroke="none"/>
    <path d="M-15.95 -70.35 L-16.05 -69.55 -16.05 -70.25 -15.95 -70.35 M-23.95 -95.05 L-23.85 -95.55 -23.8 -95.5 -23.95 -95.05 M31.75 120.55 L31.75 120.45 31.8 120.45 31.75 120.55 M-53.75 107.6 L-53.75 107.45 -53.7 107.5 -53.75 107.6" fill="#888888" fill-rule="evenodd" stroke="none"/>
    <path d="M-15.55 -71.5 L-15.55 -70.95 -15.95 -70.35 -16.05 -70.25 -16.1 -70.6 -15.95 -70.4 -15.9 -71.5 -15.55 -71.5 M-16.6 -137.3 Q-15.95 -137.0 -16.55 -136.8 L-16.65 -136.8 -16.6 -137.3 M83.25 57.3 L83.55 56.75 Q80.75 58.9 77.3 59.75 L76.45 58.4 Q75.95 57.6 75.9 56.4 75.7 53.2 76.45 50.05 81.05 29.95 90.55 11.55 L90.25 7.55 Q90.15 4.85 87.85 3.6 90.25 -0.05 93.9 2.2 97.85 8.15 96.7 15.45 88.15 25.25 85.65 37.95 84.3 44.95 85.4 51.75 L85.5 51.85 85.65 51.85 86.45 52.9 83.25 57.3 M-87.9 -7.9 L-86.7 -6.8 Q-86.9 -5.35 -87.7 -4.1 L-87.85 -3.65 -87.85 -3.1 -87.8 -1.5 -88.95 -0.15 -88.95 0.7 -88.05 0.75 -89.0 4.75 -88.2 5.25 -88.3 9.35 -87.45 9.9 -85.1 20.1 -79.8 26.2 -79.95 26.6 -80.35 26.9 -81.15 26.45 Q-86.4 25.8 -89.35 20.45 -100.3 0.55 -90.65 -20.05 -86.45 -29.05 -77.9 -33.5 -55.8 -44.9 -38.05 -28.0 L-42.75 -29.95 Q-65.3 -38.4 -80.65 -20.45 L-87.9 -7.9" fill="#595959" fill-rule="evenodd" stroke="none"/>
    <path d="M-15.55 -71.85 L-15.55 -71.5 -15.9 -71.5 -15.95 -71.85 -15.55 -71.85 M-113.85 58.4 L-106.9 61.7 Q-91.05 68.8 -76.25 72.2 -67.5 76.7 -57.45 76.95 L-55.3 77.75 -54.85 77.4 -49.75 78.3 -49.15 92.65 Q-49.1 100.1 -53.6 106.25 L-53.85 106.7 -54.3 106.95 -55.3 106.85 -55.7 106.35 -58.6 80.55 Q-88.15 73.95 -113.85 58.4 M-47.35 85.4 L-47.65 88.55 -47.85 86.65 -47.35 85.4 M-47.7 89.1 L-47.95 90.55 -47.9 89.4 -47.7 89.1 M-48.05 95.05 L-47.6 98.85 -47.3 98.25 -37.8 100.5 Q-17.7 107.45 3.45 112.4 L9.05 113.75 Q3.75 119.85 -3.7 120.45 -8.6 121.2 -13.75 119.9 -34.1 114.7 -53.75 107.6 L-53.7 107.5 -53.25 107.4 -53.25 106.9 Q-49.5 103.5 -47.9 98.9 L-47.95 98.9 -48.2 98.3 -48.75 98.3 -48.05 95.05 M16.25 101.55 L16.55 107.9 Q16.15 111.6 16.85 115.2 L13.3 114.15 13.7 113.05 14.35 113.1 13.75 112.8 16.25 101.55 M17.55 115.7 L17.9 116.2 22.4 117.5 31.75 120.45 31.75 120.55 Q32.85 123.4 38.2 123.65 L40.45 123.85 Q29.05 130.25 16.05 126.7 L10.95 125.2 Q7.6 124.15 6.65 120.6 L13.05 114.65 17.55 115.7 M50.3 23.75 L25.5 20.25 25.75 19.9 50.7 21.5 51.65 21.45 50.75 21.25 Q30.9 13.1 9.55 12.7 L13.55 11.05 8.9 10.1 15.7 10.05 Q34.45 9.25 51.8 16.1 56.75 18.55 61.05 20.25 L61.1 21.15 60.0 21.5 51.5 17.7 Q40.2 12.3 27.55 13.0 L29.6 13.6 Q40.55 16.2 51.05 20.05 54.9 21.75 56.25 23.35 56.25 24.15 55.65 24.5 L50.3 23.75 M-86.1 -37.0 L-93.45 -36.45 -94.0 -37.7 -93.55 -38.35 Q-92.6 -39.4 -91.3 -39.95 -63.05 -50.15 -37.95 -34.75 -35.2 -33.05 -33.4 -30.5 -25.95 -19.9 -22.9 -6.8 L-23.3 -6.25 -23.3 -3.55 Q-22.0 -1.95 -22.4 0.0 -23.2 3.7 -24.3 7.25 L-20.15 7.15 -19.15 7.9 -25.45 8.3 -25.85 9.55 -23.3 10.35 Q-18.1 12.1 -13.6 15.2 L-16.25 14.95 -27.4 13.45 -26.7 14.95 -27.0 15.7 -26.0 19.3 -28.1 18.9 Q-35.8 31.75 -50.5 35.25 -64.1 38.45 -77.35 34.4 -95.75 28.8 -98.25 10.15 L-102.3 13.6 Q-102.65 12.75 -102.2 11.65 -100.95 8.55 -98.85 6.1 L-99.0 5.3 -108.65 5.25 -99.85 3.6 -103.65 1.9 -99.25 1.25 Q-102.45 -21.6 -86.1 -37.0 M-51.95 85.5 Q-51.5 85.25 -52.2 85.5 L-51.95 85.5 M-57.85 -39.5 Q-67.6 -40.2 -76.9 -36.7 -84.05 -34.0 -88.3 -27.6 -103.2 -5.4 -92.45 19.05 -90.35 23.9 -85.95 26.65 -75.05 33.4 -62.1 33.4 -44.55 33.45 -34.35 19.6 -22.25 3.25 -28.6 -16.15 -35.7 -37.65 -57.85 -39.5 M-88.15 76.75 Q-75.05 82.3 -61.0 84.45 L-60.5 102.25 Q-70.3 101.9 -79.5 100.0 L-80.75 99.7 Q-86.95 97.9 -92.55 94.8 -87.25 94.45 -82.25 92.95 L-82.25 91.15 Q-82.35 82.9 -88.15 76.75 M-90.25 100.65 Q-75.5 105.55 -60.0 106.55 -58.95 112.45 -53.1 113.9 L-30.4 118.95 Q-37.75 126.85 -34.35 136.3 L-33.85 137.4 -39.7 136.15 Q-64.35 132.65 -89.35 131.05 -79.65 117.75 -88.5 103.45 L-90.25 100.65" fill="#808080" fill-rule="evenodd" stroke="none"/>
    <path d="M-23.85 -95.55 L-23.7 -95.6 -23.8 -95.5 -23.85 -95.55" fill="#cccccc" fill-rule="evenodd" stroke="none"/>
    <path d="M-76.25 72.2 Q-63.35 74.45 -50.15 75.15 -48.15 75.2 -46.15 76.25 L-46.95 84.8 -47.35 85.4 -47.85 86.65 -47.65 88.55 -47.7 89.1 -47.9 89.4 -48.3 89.85 -49.15 92.65 -49.75 78.3 -54.85 77.4 -55.3 77.75 -57.45 76.95 Q-67.5 76.7 -76.25 72.2 M71.7 205.25 Q70.75 213.55 62.0 215.05 L59.35 215.8 59.3 216.2 61.4 216.4 55.65 218.45 55.05 221.1 Q66.45 222.1 75.85 215.95 L76.75 215.2 Q78.55 218.7 78.9 222.8 L79.1 224.5 Q60.85 236.45 39.0 235.45 L37.6 233.05 38.6 216.3 42.7 217.9 42.9 216.75 38.6 213.85 39.1 204.4 42.9 206.65 42.9 205.7 46.65 207.5 Q60.0 213.9 71.7 205.25" fill="#666666" fill-rule="evenodd" stroke="none"/>
    <path d="M16.55 107.9 L17.2 115.4 16.85 115.2 Q16.15 111.6 16.55 107.9 M-53.75 107.45 L-53.25 106.9 -53.25 107.4 -53.7 107.5 -53.75 107.45" fill="#a6a6a6" fill-rule="evenodd" stroke="none"/>
    <path d="M-82.2 201.75 L-30.4 204.45 -30.0 204.8 -31.0 205.55 Q-38.05 215.95 -49.25 219.15 -53.75 220.45 -57.45 217.8 -59.25 216.55 -59.4 214.2 -59.55 211.9 -62.05 211.75 -73.65 211.3 -83.1 204.55 L-82.2 201.75 M-54.5 173.7 Q-53.0 169.4 -49.65 168.95 -48.7 173.6 -53.1 174.25 L-54.5 173.7 M-52.8 164.75 Q-58.45 174.0 -69.6 173.95 L-70.95 173.7 Q-65.2 166.45 -56.55 164.45 L-52.8 164.75 M-29.35 160.6 Q-32.35 163.6 -36.45 163.55 L-39.45 163.65 Q-44.65 158.4 -39.6 153.05 L-36.55 149.95 -29.35 160.6 M-66.85 218.6 L-66.15 218.95 Q-64.7 225.7 -71.15 223.45 L-71.85 223.05 -71.45 219.65 Q-69.45 217.55 -66.85 218.6 M-91.7 214.55 Q-82.95 214.5 -79.1 221.9 -77.8 228.65 -85.4 229.6 -90.1 229.85 -92.95 226.35 -97.9 220.2 -93.65 215.35 -92.95 214.55 -91.7 214.55" fill="#624d2f" fill-rule="evenodd" stroke="none"/>
    <path d="M37.0 171.9 Q33.3 169.75 31.6 165.75 L30.95 164.2 28.35 164.2 27.85 162.0 23.65 163.15 Q21.7 160.8 21.15 157.85 L23.7 152.1 22.05 151.8 Q21.8 148.7 19.95 146.25 L18.15 143.5 Q30.15 145.0 39.0 152.4 39.55 152.9 39.4 153.95 L37.0 171.9 M7.95 150.45 Q10.2 148.0 13.05 149.55 L14.25 151.75 12.95 154.25 12.25 154.4 10.85 155.3 8.0 155.35 7.55 155.05 Q6.75 153.5 7.4 151.65 L7.95 150.45 M49.65 159.6 L52.95 161.85 52.8 162.0 53.3 162.1 Q60.1 167.6 64.45 175.45 67.2 180.45 69.2 185.95 L69.95 186.25 70.45 187.35 Q69.15 193.75 62.9 190.6 L60.7 190.6 Q59.55 184.0 61.4 177.1 L54.15 176.15 53.6 176.7 46.85 175.6 44.2 172.4 46.05 167.4 46.45 166.9 Q48.65 163.55 49.65 159.6 M53.15 190.2 Q55.3 195.3 50.95 197.7 L50.05 198.05 Q46.2 196.05 47.3 191.8 49.15 188.75 52.55 189.9 L53.15 190.2 M63.1 200.15 L65.0 200.25 65.9 201.15 Q64.65 203.7 62.35 203.8 L62.15 200.5 63.1 200.15 M23.45 199.95 L24.05 200.25 22.0 201.6 Q15.35 204.0 11.75 210.05 11.25 210.95 10.4 211.2 2.55 213.35 -0.4 204.8 11.55 204.05 23.1 200.05 L23.45 199.95 M34.2 228.3 L33.3 229.0 32.25 229.0 Q31.85 226.6 31.05 224.45 27.9 216.3 34.35 211.7 L34.2 228.3 M-35.3 148.75 Q-31.2 148.45 -28.25 151.7 L-27.5 152.55 -27.5 155.4 -26.7 156.6 -29.05 160.25 -29.35 160.6 -36.55 149.95 -35.3 148.75" fill="#947645" fill-rule="evenodd" stroke="none"/>
    <path d="M-27.85 204.55 L-25.9 204.55 -25.9 205.25 -27.85 204.55" fill="#c4c4c4" fill-rule="evenodd" stroke="none"/>
    <path d="M85.4 51.75 L85.5 51.75 85.5 51.85 85.4 51.75" fill="#999999" fill-rule="evenodd" stroke="none"/>
    <path d="M39.1 204.4 Q36.6 200.75 33.4 198.0 L31.15 196.15 Q37.5 192.55 38.9 185.7 41.05 174.9 41.95 164.15 42.2 161.1 43.55 158.45 L43.6 159.25 43.7 158.25 45.05 157.45 49.65 159.6 Q48.65 163.55 46.45 166.9 L46.05 167.4 44.2 172.4 46.85 175.6 53.6 176.7 54.15 176.15 61.4 177.1 Q59.55 184.0 60.7 190.6 L62.9 190.6 Q69.15 193.75 70.45 187.35 L71.1 189.0 Q73.65 197.1 71.7 205.25 60.0 213.9 46.65 207.5 L42.9 205.7 42.9 206.65 39.1 204.4 M52.95 161.85 L53.3 162.1 52.8 162.0 52.95 161.85 M61.4 216.4 Q67.25 215.65 72.05 212.4 L73.45 211.45 Q76.1 212.1 76.75 215.2 L75.85 215.95 Q66.45 222.1 55.05 221.1 L55.65 218.45 61.4 216.4 M53.15 190.2 L52.55 189.9 Q49.15 188.75 47.3 191.8 46.2 196.05 50.05 198.05 L50.95 197.7 Q55.3 195.3 53.15 190.2 M77.75 211.45 L76.8 210.4 77.5 210.5 77.75 211.45 M63.1 200.15 L62.15 200.5 62.35 203.8 Q64.65 203.7 65.9 201.15 L65.0 200.25 63.1 200.15" fill="#919191" fill-rule="evenodd" stroke="none"/>
    <path d="M85.8 260.8 L82.55 260.85 76.85 261.25 30.35 261.45 29.45 262.1 Q28.25 263.15 26.9 262.8 L26.6 261.25 Q34.4 254.35 36.85 244.3 L37.35 241.25 Q57.85 240.85 75.95 232.25 L85.8 260.8" fill="#262626" fill-rule="evenodd" stroke="none"/>
  </g>
</svg>
