<?xml version="1.0" encoding="UTF-8" standalone="no"?>
<svg xmlns:xlink="http://www.w3.org/1999/xlink" height="487.2px" width="242.05px" xmlns="http://www.w3.org/2000/svg">
  <g transform="matrix(1.0, 0.0, 0.0, 1.0, 118.2, 221.95)">
    <path d="M10.9 -218.3 Q9.75 -217.35 8.0 -217.35 7.4 -217.35 6.95 -217.65 6.4 -218.9 6.55 -220.25 6.65 -221.15 7.1 -221.65 L8.2 -221.95 Q9.6 -221.75 10.8 -220.75 L10.9 -218.3 M58.55 -205.35 L52.85 -204.85 Q52.7 -205.75 52.95 -206.45 54.65 -210.6 58.7 -209.0 L58.55 -205.35 M84.9 -187.45 Q84.4 -191.1 87.75 -191.75 L89.35 -191.95 90.1 -191.0 Q89.35 -187.95 86.6 -187.1 L84.9 -187.45 M43.1 -155.55 L42.9 -155.5 Q39.55 -154.6 36.85 -156.95 L36.55 -158.95 40.25 -163.3 42.75 -162.75 43.1 -155.55 M74.9 -127.3 L72.2 -126.25 68.9 -129.3 Q69.85 -133.55 73.95 -132.55 L74.8 -132.15 Q76.3 -129.65 74.9 -127.3 M78.8 -104.6 Q80.15 -106.35 82.3 -106.05 83.4 -102.65 80.65 -100.8 L79.85 -100.4 78.25 -101.15 Q77.6 -103.05 78.8 -104.6 M60.7 -50.2 L61.4 -47.7 56.7 -46.4 56.65 -48.85 57.4 -49.55 60.7 -50.2 M13.95 94.85 L14.35 96.1 12.0 98.6 10.55 97.5 10.9 96.85 Q11.8 95.1 13.95 94.85 M90.1 110.75 L89.55 111.25 Q83.0 111.7 84.95 106.0 92.3 103.9 90.1 110.75 M95.05 152.85 L95.65 153.4 Q97.25 155.15 95.55 157.15 93.35 158.35 91.4 156.95 L90.8 156.25 Q90.3 154.65 91.15 153.5 92.75 151.45 95.05 152.85 M-82.4 -221.35 Q-81.55 -222.25 -80.4 -221.55 -72.15 -216.85 -79.45 -211.35 -81.0 -210.2 -82.85 -210.55 L-84.4 -211.0 Q-86.45 -216.95 -82.4 -221.35 M-26.7 -186.0 L-31.65 -185.15 -32.0 -191.0 Q-29.15 -192.0 -26.55 -190.55 L-26.7 -186.0 M-41.45 -105.55 Q-38.2 -103.7 -39.7 -100.05 L-40.15 -99.85 Q-42.3 -98.6 -44.8 -99.8 L-45.35 -100.6 -45.05 -106.3 -41.45 -105.55 M-97.95 -125.05 L-98.3 -123.95 Q-101.85 -122.35 -105.4 -123.4 -107.3 -129.0 -101.9 -130.1 L-100.35 -130.0 Q-96.85 -128.65 -97.95 -125.05 M-0.05 -71.7 Q0.55 -69.9 0.0 -68.05 L-3.85 -66.3 Q-6.4 -68.9 -5.5 -72.05 -2.8 -72.5 -0.2 -71.95 L-0.05 -71.7 M-51.35 -49.9 L-54.45 -45.95 -56.25 -46.85 -56.35 -47.2 Q-57.3 -50.1 -55.45 -51.9 L-51.95 -52.2 -51.35 -49.9 M-60.75 24.45 L-64.55 25.1 Q-65.45 21.7 -62.4 19.85 L-61.55 19.35 Q-60.05 21.1 -60.5 23.3 L-60.75 24.45 M-24.75 105.8 Q-25.95 101.6 -22.0 100.9 L-20.0 101.05 Q-18.75 106.25 -23.85 106.3 L-24.75 105.8" fill="#ffffff" fill-rule="evenodd" stroke="none"/>
    <path d="M92.2 -31.85 Q88.25 -44.95 81.2 -56.8 L79.1 -60.2 76.65 -53.15 73.85 -46.35 Q79.65 -67.95 72.3 -88.85 68.7 -99.0 61.8 -107.35 43.65 -129.4 14.5 -128.85 8.0 -128.7 1.6 -127.0 L-1.65 -125.75 Q2.3 -123.15 5.3 -119.55 8.6 -115.5 11.3 -110.9 L9.45 -110.7 Q-7.9 -129.6 -33.15 -132.5 L-45.85 -133.5 Q-66.3 -133.75 -80.1 -119.25 -74.5 -114.0 -70.15 -108.05 -69.2 -106.75 -70.1 -105.25 L-70.45 -104.7 Q-81.5 -102.9 -91.6 -97.9 -97.4 -94.95 -102.95 -91.2 -101.8 -90.85 -100.95 -90.15 -98.4 -87.85 -96.15 -85.0 L-92.2 -79.9 -114.2 -64.0 Q-105.5 -57.7 -98.2 -49.7 -94.5 -45.6 -91.9 -40.9 -106.0 -34.45 -118.2 -25.05 L-118.2 -30.25 -104.9 -39.75 -97.8 -42.75 -98.75 -44.15 Q-105.7 -53.3 -114.85 -60.65 L-118.2 -63.75 -118.2 -66.05 -103.95 -77.5 -98.75 -81.2 -105.9 -88.1 -108.85 -90.9 Q-101.45 -102.0 -87.95 -105.3 -82.55 -106.5 -77.25 -108.35 L-85.75 -118.35 Q-86.3 -119.0 -85.65 -119.75 -67.75 -141.2 -39.3 -138.2 -22.55 -136.4 -7.1 -129.75 L1.4 -131.85 Q-38.25 -150.5 -80.7 -140.55 -87.55 -139.0 -94.7 -138.35 -70.9 -148.1 -45.1 -147.95 -51.1 -155.35 -61.05 -155.35 L-87.95 -153.95 Q-83.6 -156.8 -78.3 -157.7 -97.9 -167.15 -115.25 -180.5 -115.75 -180.9 -116.5 -180.9 L-118.2 -180.6 -118.2 -187.1 Q-101.8 -179.1 -87.0 -167.95 -72.85 -157.45 -55.8 -158.95 -51.35 -158.9 -47.7 -156.6 L-36.75 -149.4 Q-34.4 -147.85 -31.3 -147.6 -10.15 -144.95 7.2 -133.3 28.3 -135.5 46.5 -125.55 59.05 -118.7 67.75 -107.4 81.1 -89.95 79.75 -68.1 L86.55 -56.6 Q92.85 -44.8 96.7 -32.25 L92.2 -31.85 M-102.75 7.35 L-102.9 7.55 Q-106.95 13.8 -112.85 18.4 L-114.2 19.4 Q-101.4 27.85 -89.65 37.1 L-88.75 38.0 Q-93.75 44.0 -100.8 47.85 -106.6 51.0 -113.1 51.75 -107.15 73.2 -88.0 84.5 -76.5 91.3 -63.15 91.65 -68.6 97.3 -76.2 98.95 -85.8 100.75 -95.65 99.5 -86.05 115.35 -69.6 124.85 L-68.4 124.15 Q-45.8 141.15 -16.7 138.8 9.75 137.05 24.8 116.1 24.25 120.1 22.3 123.55 18.85 129.6 12.8 133.0 40.8 135.6 58.85 114.05 76.3 93.3 73.9 66.5 L78.2 70.85 Q89.7 53.75 94.7 33.7 L99.0 35.1 Q96.0 48.4 89.35 60.25 L87.5 63.45 Q94.55 64.25 99.45 69.45 104.45 74.7 104.85 82.25 L91.4 82.4 Q104.55 96.85 101.15 115.65 100.45 119.7 98.35 123.1 92.0 116.4 82.85 114.6 L76.65 113.5 Q78.75 116.9 79.2 120.85 80.0 127.9 76.5 134.0 L74.9 133.05 Q81.6 143.25 80.05 154.85 79.45 159.25 78.45 163.65 L82.65 163.05 Q86.55 173.8 87.05 185.35 87.15 187.0 85.8 188.0 84.8 188.7 83.45 189.0 91.2 215.8 79.6 240.25 78.3 242.95 76.1 245.2 64.95 256.75 51.4 265.25 L36.95 265.25 Q67.05 258.35 80.15 230.75 81.1 228.8 81.3 226.85 83.0 209.15 79.5 191.3 72.3 193.55 66.55 197.4 69.15 199.05 69.15 201.65 L69.1 201.7 Q65.7 201.7 62.75 199.4 41.7 190.75 20.35 183.4 -3.6 175.15 -28.7 174.6 -46.4 174.25 -61.1 184.0 L-61.7 184.45 -58.55 187.95 Q-50.4 197.85 -46.25 210.25 -41.6 224.15 -30.45 233.95 L4.45 265.25 -3.45 265.25 -8.85 259.8 Q-18.4 252.3 -27.15 243.9 L-30.4 240.6 -69.15 259.1 Q-76.05 263.6 -84.2 263.8 L-88.5 263.95 Q-80.55 261.35 -73.1 257.85 -52.55 248.2 -32.3 238.4 -45.6 222.4 -54.85 203.5 L-63.85 186.1 -64.4 186.4 Q-67.25 184.9 -70.2 183.6 -93.9 173.15 -118.2 181.85 L-118.2 179.35 -104.1 174.65 Q-104.7 173.65 -104.7 172.45 -104.75 170.6 -104.25 168.8 L-110.0 167.45 -118.2 165.0 -118.2 161.55 Q-111.6 163.15 -106.65 164.65 L-103.15 165.7 Q-100.95 160.95 -96.2 158.75 L-95.0 158.3 Q-101.75 156.15 -108.95 156.95 L-117.05 157.25 -117.4 157.65 -117.4 157.35 Q-115.8 147.2 -107.0 140.45 L-98.5 134.5 -106.25 131.2 -113.5 128.3 -108.6 122.45 Q-105.05 119.0 -100.3 117.65 -107.4 114.45 -113.8 110.2 L-118.2 112.15 -118.2 107.8 -115.4 106.15 Q-111.9 94.3 -117.25 82.4 L-118.2 79.95 -118.2 71.45 Q-111.1 88.35 -110.9 106.35 -110.9 107.05 -111.2 107.8 -100.6 114.05 -87.55 118.15 L-84.3 119.1 Q-94.05 108.35 -102.4 96.35 L-102.4 94.95 Q-91.7 96.75 -80.85 95.75 L-73.75 94.8 Q-100.35 87.1 -112.6 62.45 L-118.2 51.55 -118.2 50.15 Q-105.45 48.05 -96.2 39.85 L-95.1 38.75 -114.75 23.75 -118.2 21.15 -118.2 17.45 -112.6 12.4 -106.5 7.2 -118.2 -3.3 -118.2 -9.25 Q-109.15 -2.7 -101.75 5.9 L-102.75 7.35 M28.5 13.7 L26.35 13.3 26.15 13.75 Q30.7 22.2 32.1 31.7 28.95 22.25 23.6 13.7 L22.95 13.5 Q17.65 25.45 7.7 33.3 16.95 23.8 21.55 11.4 L21.75 10.2 Q20.1 -2.65 13.05 -14.25 21.5 -5.15 24.55 7.15 31.35 -2.1 33.65 -13.9 L33.45 -12.05 Q32.65 -1.85 27.75 7.05 L29.35 6.35 24.65 10.3 28.5 13.7 M49.05 -4.35 L48.35 -4.3 50.6 -6.2 49.05 -4.35 M-92.5 263.95 L-102.55 262.95 Q-110.95 261.35 -118.2 256.45 L-118.2 251.65 Q-106.2 259.6 -92.5 263.95 M98.05 117.15 Q102.0 105.45 94.6 93.6 90.7 87.45 85.25 82.55 92.2 77.75 100.8 77.85 98.45 69.55 89.5 67.4 L85.8 66.6 Q83.4 72.05 78.3 75.05 79.1 81.35 77.05 87.25 72.45 106.35 59.1 120.85 68.6 123.0 75.25 130.1 77.05 120.5 71.9 111.8 L73.8 111.3 Q87.0 109.05 98.05 117.15 M68.5 131.35 Q64.05 128.6 60.05 125.6 L58.8 124.95 55.4 124.4 Q50.4 128.85 44.55 131.8 L48.25 135.5 50.35 137.95 45.3 140.25 37.1 143.35 Q37.35 144.65 39.25 146.1 L43.0 149.05 Q49.3 154.5 50.65 162.25 L50.6 163.15 44.0 163.65 36.1 164.45 38.55 172.4 46.2 170.8 69.45 166.2 Q58.0 171.6 45.7 174.35 L39.8 175.65 40.2 177.4 40.45 182.45 Q39.7 183.0 38.85 183.0 L28.1 183.3 62.7 194.95 84.2 185.1 82.05 175.0 80.5 166.6 74.65 166.65 75.5 163.45 Q80.15 145.2 68.5 131.35 M6.95 176.2 L23.25 181.7 22.5 179.45 36.35 179.05 Q35.2 170.35 30.3 163.05 38.35 159.6 47.4 159.75 46.7 157.75 45.25 156.2 39.35 149.8 32.25 144.85 36.75 138.2 45.15 137.2 43.1 135.15 40.4 133.75 24.8 140.75 9.0 135.35 -2.05 141.6 -14.95 143.15 -12.4 148.0 -13.45 153.0 L-13.7 153.0 Q-19.35 150.7 -25.2 151.0 -21.15 157.55 -22.1 165.55 L-22.7 165.55 Q-28.1 164.65 -33.0 162.45 L-33.9 161.5 Q-30.25 161.8 -24.6 161.65 -25.55 157.5 -25.95 156.6 L-30.9 148.6 Q-23.5 146.55 -16.4 149.6 -16.05 147.6 -17.3 145.9 -18.3 144.55 -19.6 143.6 -35.9 144.3 -51.5 139.9 -60.7 137.15 -67.3 130.0 -73.45 129.4 -78.4 125.65 -79.8 124.55 -81.7 124.15 -88.2 122.5 -94.25 120.05 L-95.3 119.7 -107.3 125.5 Q-105.45 127.85 -102.85 129.1 -97.55 131.6 -94.3 135.85 -93.85 136.4 -93.65 137.2 -100.1 138.65 -105.25 143.15 -110.4 147.7 -114.25 153.65 -105.15 152.3 -96.3 154.65 -92.85 155.55 -90.75 158.4 -92.25 159.9 -94.45 160.9 -101.8 164.4 -102.15 172.15 -81.9 172.2 -64.35 181.85 -45.0 167.3 -21.1 170.6 L-16.0 171.1 -11.05 172.0 Q-1.75 173.55 6.95 176.2 M87.75 159.2 L87.95 158.3 Q101.85 182.6 95.05 210.25 92.95 218.9 89.2 226.85 L88.6 226.8 Q98.7 198.0 90.85 168.55 89.65 163.95 87.75 159.2 M100.5 210.25 Q104.3 191.4 100.2 172.4 109.4 189.8 101.65 208.0 L100.5 210.25" fill="#000000" fill-rule="evenodd" stroke="none"/>
    <path d="M-118.2 -25.05 Q-106.0 -34.45 -91.9 -40.9 -94.5 -45.6 -98.2 -49.7 -105.5 -57.7 -114.2 -64.0 L-92.2 -79.9 -96.15 -85.0 Q-98.4 -87.85 -100.95 -90.15 -101.8 -90.85 -102.95 -91.2 -97.4 -94.95 -91.6 -97.9 -81.5 -102.9 -70.45 -104.7 L-70.1 -105.25 Q-69.2 -106.75 -70.15 -108.05 -74.5 -114.0 -80.1 -119.25 -66.3 -133.75 -45.85 -133.5 L-33.15 -132.5 Q-7.9 -129.6 9.45 -110.7 L11.3 -110.9 Q8.6 -115.5 5.3 -119.55 2.3 -123.15 -1.65 -125.75 L1.6 -127.0 Q8.0 -128.7 14.5 -128.85 43.65 -129.4 61.8 -107.35 68.7 -99.0 72.3 -88.85 79.65 -67.95 73.85 -46.35 L76.65 -53.15 79.1 -60.2 81.2 -56.8 Q88.25 -44.95 92.2 -31.85 85.2 -29.95 81.2 -23.8 L77.05 -17.3 Q71.3 -8.3 74.55 0.75 70.9 2.9 68.2 0.45 66.85 -0.75 65.4 -0.65 L64.3 3.85 64.1 3.35 Q61.4 -4.85 51.95 -4.25 63.45 -16.95 67.95 -33.4 L66.55 -30.45 Q60.9 -18.55 51.8 -9.15 L50.7 -8.4 Q42.3 -3.05 35.25 -10.35 40.15 -35.2 32.65 -59.4 28.95 -71.4 22.0 -81.8 30.05 -63.35 32.65 -43.5 34.85 -26.95 31.05 -10.9 28.8 -7.4 24.45 -7.65 21.65 -7.75 19.3 -8.9 12.15 -21.75 1.0 -31.5 -12.8 -43.6 -31.25 -44.4 -17.2 -41.8 -6.0 -32.95 13.35 -17.6 19.2 6.65 1.45 37.05 -40.05 45.1 -58.3 47.8 -72.05 48.35 L-72.1 48.35 -88.5 47.6 Q-79.15 38.75 -80.5 33.75 -98.25 26.65 -112.85 18.4 -106.95 13.8 -102.9 7.55 L-102.75 7.35 -99.4 3.25 Q-106.05 -8.1 -118.2 -13.1 L-118.2 -25.05 M60.7 -50.2 L57.4 -49.55 56.65 -48.85 56.7 -46.4 61.4 -47.7 60.7 -50.2 M77.05 87.25 Q79.1 81.35 78.3 75.05 83.4 72.05 85.8 66.6 L89.5 67.4 Q98.45 69.55 100.8 77.85 92.2 77.75 85.25 82.55 90.7 87.45 94.6 93.6 102.0 105.45 98.05 117.15 94.7 99.7 77.1 95.5 L78.55 94.95 85.4 94.4 84.4 93.3 Q81.25 89.45 77.05 87.25 M32.65 28.75 Q35.55 21.9 42.7 24.0 L45.85 24.6 46.8 25.4 Q55.4 31.95 60.7 41.15 49.55 35.25 39.55 44.65 36.95 47.05 35.05 49.95 35.2 40.55 33.1 30.6 L32.65 28.75 M15.35 28.3 Q23.15 23.15 30.2 30.25 L30.85 30.85 Q31.9 35.65 32.3 42.15 L32.75 54.15 Q23.2 39.25 6.95 44.75 -1.5 47.5 -9.5 51.35 -3.8 47.7 2.2 42.55 10.4 35.25 15.35 28.3 M-41.45 -105.55 L-45.05 -106.3 -45.35 -100.6 -44.8 -99.8 Q-42.3 -98.6 -40.15 -99.85 L-39.7 -100.05 Q-38.2 -103.7 -41.45 -105.55 M-51.35 -49.9 L-51.95 -52.2 -55.45 -51.9 Q-57.3 -50.1 -56.35 -47.2 L-56.25 -46.85 -54.45 -45.95 -51.35 -49.9 M-0.05 -71.7 L-0.2 -71.95 Q-2.8 -72.5 -5.5 -72.05 -6.4 -68.9 -3.85 -66.3 L0.0 -68.05 Q0.55 -69.9 -0.05 -71.7 M-60.75 24.45 L-60.5 23.3 Q-60.05 21.1 -61.55 19.35 L-62.4 19.85 Q-65.45 21.7 -64.55 25.1 L-60.75 24.45" fill="#a2e7fd" fill-rule="evenodd" stroke="none"/>
    <path d="M19.2 6.65 Q13.35 -17.6 -6.0 -32.95 -17.2 -41.8 -31.25 -44.4 -12.8 -43.6 1.0 -31.5 12.15 -21.75 19.3 -8.9 22.3 -3.0 23.7 3.25 L23.85 3.75 24.45 4.3 25.2 4.1 Q29.35 -2.8 31.05 -10.9 34.85 -26.95 32.65 -43.5 30.05 -63.35 22.0 -81.8 28.95 -71.4 32.65 -59.4 40.15 -35.2 35.25 -10.35 33.95 -3.35 30.65 3.0 L30.0 4.45 34.95 2.75 29.35 6.35 27.75 7.05 Q32.65 -1.85 33.45 -12.05 L33.65 -13.9 Q31.35 -2.1 24.55 7.15 21.5 -5.15 13.05 -14.25 20.1 -2.65 21.75 10.2 L21.55 11.4 Q16.95 23.8 7.7 33.3 17.65 25.45 22.95 13.5 L23.6 13.7 Q28.95 22.25 32.1 31.7 30.7 22.2 26.15 13.75 L26.35 13.3 28.5 13.7 30.85 15.7 27.5 14.65 Q30.95 21.2 32.65 28.75 L33.1 30.6 Q35.2 40.55 35.05 49.95 34.95 62.55 31.4 74.65 L31.6 73.15 Q32.85 63.7 32.75 54.15 L32.3 42.15 Q31.9 35.65 30.85 30.85 29.4 21.7 23.05 15.25 L22.7 15.05 22.2 15.25 15.35 28.3 Q10.4 35.25 2.2 42.55 -3.8 47.7 -9.5 51.35 -24.45 60.75 -42.2 60.7 -18.95 56.95 -1.55 41.1 4.1 35.95 8.75 30.2 16.6 20.65 19.7 8.8 L19.2 6.65 M51.8 -9.15 Q60.9 -18.55 66.55 -30.45 L67.95 -33.4 Q63.45 -16.95 51.95 -4.25 L49.05 -4.35 50.6 -6.2 48.35 -4.3 Q47.0 -4.15 45.35 -3.45 L51.8 -9.15 M61.15 42.0 L64.15 42.15 Q65.45 45.3 64.95 48.7 L64.6 50.45 61.15 42.0" fill="#03657c" fill-rule="evenodd" stroke="none"/>
    <path d="M-118.2 -13.1 Q-106.05 -8.1 -99.4 3.25 L-102.75 7.35 -101.75 5.9 Q-109.15 -2.7 -118.2 -9.25 L-118.2 -13.1 M-112.85 18.4 Q-98.25 26.65 -80.5 33.75 -79.15 38.75 -88.5 47.6 L-72.1 48.35 -72.05 48.35 Q-58.3 47.8 -40.05 45.1 1.45 37.05 19.2 6.65 L19.7 8.8 Q16.6 20.65 8.75 30.2 4.1 35.95 -1.55 41.1 -18.95 56.95 -42.2 60.7 -24.45 60.75 -9.5 51.35 -1.5 47.5 6.95 44.75 23.2 39.25 32.75 54.15 32.85 63.7 31.6 73.15 L31.4 74.65 Q34.95 62.55 35.05 49.95 36.95 47.05 39.55 44.65 49.55 35.25 60.7 41.15 L61.15 42.0 64.6 50.45 64.95 48.7 Q65.45 45.3 64.15 42.15 76.95 41.5 86.0 32.2 L87.6 30.65 94.7 33.7 Q89.7 53.75 78.2 70.85 L73.9 66.5 Q76.3 93.3 58.85 114.05 40.8 135.6 12.8 133.0 18.85 129.6 22.3 123.55 24.25 120.1 24.8 116.1 9.75 137.05 -16.7 138.8 -45.8 141.15 -68.4 124.15 L-69.6 124.85 Q-86.05 115.35 -95.65 99.5 -85.8 100.75 -76.2 98.95 -68.6 97.3 -63.15 91.65 -76.5 91.3 -88.0 84.5 -107.15 73.2 -113.1 51.75 -106.6 51.0 -100.8 47.85 -93.75 44.0 -88.75 38.0 L-89.65 37.1 Q-101.4 27.85 -114.2 19.4 L-112.85 18.4 M19.3 -8.9 Q21.65 -7.75 24.45 -7.65 28.8 -7.4 31.05 -10.9 29.35 -2.8 25.2 4.1 L24.45 4.3 23.85 3.75 23.7 3.25 Q22.3 -3.0 19.3 -8.9 M35.25 -10.35 Q42.3 -3.05 50.7 -8.4 L51.8 -9.15 45.35 -3.45 Q42.95 -2.55 39.8 -0.6 37.6 0.75 34.95 2.75 L30.0 4.45 30.65 3.0 Q33.95 -3.35 35.25 -10.35 M-118.2 107.8 L-118.2 79.95 -117.25 82.4 Q-111.9 94.3 -115.4 106.15 L-118.2 107.8 M77.05 87.25 Q81.25 89.45 84.4 93.3 L85.4 94.4 78.55 94.95 77.1 95.5 Q94.7 99.7 98.05 117.15 87.0 109.05 73.8 111.3 L71.9 111.8 Q77.05 120.5 75.25 130.1 68.6 123.0 59.1 120.85 72.45 106.35 77.05 87.25 M30.85 15.7 Q37.55 18.65 43.45 22.85 L45.85 24.6 42.7 24.0 Q35.55 21.9 32.65 28.75 30.95 21.2 27.5 14.65 L30.85 15.7 M15.35 28.3 L22.2 15.25 22.7 15.05 23.05 15.25 Q29.4 21.7 30.85 30.85 L30.2 30.25 Q23.15 23.15 15.35 28.3 M13.95 94.85 Q11.8 95.1 10.9 96.85 L10.55 97.5 12.0 98.6 14.35 96.1 13.95 94.85 M90.1 110.75 Q92.3 103.9 84.95 106.0 83.0 111.7 89.55 111.25 L90.1 110.75 M-24.75 105.8 L-23.85 106.3 Q-18.75 106.25 -20.0 101.05 L-22.0 100.9 Q-25.95 101.6 -24.75 105.8" fill="#6fd5ee" fill-rule="evenodd" stroke="none"/>
    <path d="M29.35 6.35 L34.95 2.75 Q37.6 0.75 39.8 -0.6 42.95 -2.55 45.35 -3.45 47.0 -4.15 48.35 -4.3 40.8 1.75 32.6 5.05 L29.35 6.35 M28.5 13.7 L30.5 14.25 Q39.3 16.55 46.55 22.1 38.7 14.4 28.65 9.85 30.05 8.95 31.55 8.2 41.5 3.55 49.05 -4.35 L51.95 -4.25 Q49.2 -1.35 46.15 1.05 39.25 6.4 30.75 8.8 L30.6 9.0 30.95 9.35 Q48.0 17.85 59.25 33.25 62.25 37.4 64.15 42.15 L61.15 42.0 60.7 41.15 Q55.4 31.95 46.8 25.4 L45.85 24.6 43.45 22.85 Q37.55 18.65 30.85 15.7 L28.5 13.7" fill="#77acb8" fill-rule="evenodd" stroke="none"/>
    <path d="M92.2 -31.85 L96.7 -32.25 Q103.3 -10.2 102.3 12.65 101.8 24.1 99.0 35.1 L94.7 33.7 Q95.9 28.55 96.6 22.95 97.75 13.5 97.5 2.85 97.35 -12.1 93.65 -26.6 L92.2 -31.85 M48.35 -4.3 L49.05 -4.35 Q41.5 3.55 31.55 8.2 30.05 8.95 28.65 9.85 38.7 14.4 46.55 22.1 39.3 16.55 30.5 14.25 L28.5 13.7 24.65 10.3 29.35 6.35 32.6 5.05 Q40.8 1.75 48.35 -4.3" fill="#767676" fill-rule="evenodd" stroke="none"/>
    <path d="M51.95 -4.25 Q61.4 -4.85 64.1 3.35 L64.3 3.85 65.4 -0.65 Q66.85 -0.75 68.2 0.45 70.9 2.9 74.55 0.75 71.3 -8.3 77.05 -17.3 L81.2 -23.8 Q85.2 -29.95 92.2 -31.85 L93.65 -26.6 Q97.35 -12.1 97.5 2.85 L94.8 16.65 Q93.15 24.6 84.9 26.15 62.95 29.9 45.85 14.45 39.2 8.45 46.15 1.05 49.2 -1.35 51.95 -4.25" fill="#cdf2fe" fill-rule="evenodd" stroke="none"/>
    <path d="M96.7 -32.25 Q92.85 -44.8 86.55 -56.6 L88.6 -57.7 Q95.65 -67.8 106.45 -62.3 107.95 -61.6 107.35 -59.7 106.05 -55.6 107.0 -52.15 107.35 -50.85 109.05 -50.1 115.0 -47.7 121.0 -45.45 122.5 -44.9 123.85 -43.8 L123.85 -31.15 Q119.9 -25.55 114.6 -21.8 L123.85 -14.95 123.85 32.4 Q112.2 39.7 99.0 35.1 101.8 24.1 102.3 12.65 103.3 -10.2 96.7 -32.25" fill="#ffffff" fill-opacity="0.4627451" fill-rule="evenodd" stroke="none"/>
    <path d="M-118.2 -180.6 L-116.5 -180.9 Q-115.75 -180.9 -115.25 -180.5 -97.9 -167.15 -78.3 -157.7 -83.6 -156.8 -87.95 -153.95 L-61.05 -155.35 Q-51.1 -155.35 -45.1 -147.95 -70.9 -148.1 -94.7 -138.35 -87.55 -139.0 -80.7 -140.55 -38.25 -150.5 1.4 -131.85 L-7.1 -129.75 Q-22.55 -136.4 -39.3 -138.2 -67.75 -141.2 -85.65 -119.75 -86.3 -119.0 -85.75 -118.35 L-77.25 -108.35 Q-82.55 -106.5 -87.95 -105.3 -101.45 -102.0 -108.85 -90.9 L-105.9 -88.1 -108.95 -85.9 -103.95 -77.5 -118.2 -66.05 -118.2 -180.6 M-118.2 -63.75 L-114.85 -60.65 -118.2 -58.0 -118.2 -63.75 M-104.9 -39.75 L-118.2 -30.25 -118.2 -55.1 Q-109.45 -50.4 -105.4 -40.95 L-104.9 -39.75 M-118.2 37.2 L-118.2 28.05 Q-110.85 29.5 -108.7 36.5 L-108.35 37.85 -118.2 37.2 M-118.2 27.6 L-118.2 21.15 -114.75 23.75 -118.2 27.6 M-118.2 17.45 L-118.2 5.2 Q-114.65 9.0 -112.6 12.4 L-118.2 17.45 M-33.0 162.45 L-34.7 162.45 Q-32.45 164.45 -28.75 166.45 L-21.1 170.6 Q-45.0 167.3 -64.35 181.85 -81.9 172.2 -102.15 172.15 -101.8 164.4 -94.45 160.9 -92.25 159.9 -90.75 158.4 -92.85 155.55 -96.3 154.65 -105.15 152.3 -114.25 153.65 -110.4 147.7 -105.25 143.15 -100.1 138.65 -93.65 137.2 -93.85 136.4 -94.3 135.85 -97.55 131.6 -102.85 129.1 -105.45 127.85 -107.3 125.5 L-95.3 119.7 -94.25 120.05 Q-74.05 132.05 -53.2 143.05 -39.7 150.25 -25.95 156.6 -25.55 157.5 -24.6 161.65 -30.25 161.8 -33.9 161.5 L-33.0 162.45 M-16.0 171.1 Q-14.7 164.85 -17.1 159.1 L-17.45 158.3 Q-1.45 162.0 6.95 176.2 -1.75 173.55 -11.05 172.0 L-16.0 171.1 M-97.95 -125.05 Q-96.85 -128.65 -100.35 -130.0 L-101.9 -130.1 Q-107.3 -129.0 -105.4 -123.4 -101.85 -122.35 -98.3 -123.95 L-97.95 -125.05" fill="#33cafb" fill-rule="evenodd" stroke="none"/>
    <path d="M-105.9 -88.1 L-98.75 -81.2 -103.95 -77.5 -108.95 -85.9 -105.9 -88.1 M-114.85 -60.65 Q-105.7 -53.3 -98.75 -44.15 L-97.8 -42.75 -104.9 -39.75 -105.4 -40.95 Q-109.45 -50.4 -118.2 -55.1 L-118.2 -58.0 -114.85 -60.65 M-8.85 259.8 L-69.15 259.1 -30.4 240.6 -27.15 243.9 Q-18.4 252.3 -8.85 259.8 M-118.2 71.45 L-118.2 51.55 -112.6 62.45 Q-100.35 87.1 -73.75 94.8 L-80.85 95.75 Q-91.7 96.75 -102.4 94.95 L-102.4 96.35 Q-94.05 108.35 -84.3 119.1 L-87.55 118.15 Q-100.6 114.05 -111.2 107.8 -110.9 107.05 -110.9 106.35 -111.1 88.35 -118.2 71.45 M-118.2 50.15 L-118.2 37.2 -108.35 37.85 -108.7 36.5 Q-110.85 29.5 -118.2 28.05 L-118.2 27.6 -114.75 23.75 -95.1 38.75 -96.2 39.85 Q-105.45 48.05 -118.2 50.15 M-118.2 5.2 L-118.2 -3.3 -106.5 7.2 -112.6 12.4 Q-114.65 9.0 -118.2 5.2 M-33.0 162.45 Q-28.1 164.65 -22.7 165.55 L-22.1 165.55 Q-21.15 157.55 -25.2 151.0 -19.35 150.7 -13.7 153.0 L-13.45 153.0 Q-12.4 148.0 -14.95 143.15 -2.05 141.6 9.0 135.35 24.8 140.75 40.4 133.75 43.1 135.15 45.15 137.2 36.75 138.2 32.25 144.85 39.35 149.8 45.25 156.2 46.7 157.75 47.4 159.75 38.35 159.6 30.3 163.05 35.2 170.35 36.35 179.05 L22.5 179.45 23.25 181.7 6.95 176.2 Q-1.45 162.0 -17.45 158.3 L-17.1 159.1 Q-14.7 164.85 -16.0 171.1 L-21.1 170.6 -28.75 166.45 Q-32.45 164.45 -34.7 162.45 L-33.0 162.45 M-94.25 120.05 Q-88.2 122.5 -81.7 124.15 -79.8 124.55 -78.4 125.65 -73.45 129.4 -67.3 130.0 -60.7 137.15 -51.5 139.9 -35.9 144.3 -19.6 143.6 -18.3 144.55 -17.3 145.9 -16.05 147.6 -16.4 149.6 -23.5 146.55 -30.9 148.6 L-25.95 156.6 Q-39.7 150.25 -53.2 143.05 -74.05 132.05 -94.25 120.05" fill="#059abe" fill-rule="evenodd" stroke="none"/>
    <path d="M-118.2 179.35 L-118.2 171.25 Q-114.6 170.5 -111.6 168.15 L-110.0 167.45 -104.25 168.8 Q-104.75 170.6 -104.7 172.45 -104.7 173.65 -104.1 174.65 L-118.2 179.35 M-118.2 117.3 L-118.2 112.15 -113.8 110.2 Q-107.4 114.45 -100.3 117.65 -105.05 119.0 -108.6 122.45 -110.2 120.55 -113.4 119.1 -115.85 117.95 -118.2 117.3 M68.5 131.35 Q60.1 130.25 52.15 132.85 49.9 133.65 48.25 135.5 L44.55 131.8 Q50.4 128.85 55.4 124.4 L58.8 124.95 60.05 125.6 Q64.05 128.6 68.5 131.35 M45.3 140.25 Q49.35 144.4 51.25 149.95 L50.85 149.4 Q47.45 146.4 43.0 149.05 L39.25 146.1 Q37.35 144.65 37.1 143.35 L45.3 140.25 M44.0 163.65 Q46.7 165.8 47.45 169.0 L46.8 169.35 46.2 170.8 38.55 172.4 36.1 164.45 44.0 163.65 M45.7 174.35 L45.7 181.15 Q47.9 182.45 50.3 182.75 66.75 181.7 82.05 175.0 L84.2 185.1 62.7 194.95 28.1 183.3 38.85 183.0 Q39.7 183.0 40.45 182.45 L40.2 177.4 39.8 175.65 45.7 174.35 M-107.0 140.45 L-110.7 138.65 -115.2 140.2 -114.7 138.4 Q-112.8 132.25 -106.25 131.2 L-98.5 134.5 -107.0 140.45 M-108.95 156.95 Q-101.75 156.15 -95.0 158.3 L-96.2 158.75 Q-100.95 160.95 -103.15 165.7 L-106.65 164.65 -106.8 162.45 Q-106.85 159.6 -108.95 156.95" fill="#5e5e5e" fill-rule="evenodd" stroke="none"/>
    <path d="M-118.2 171.25 L-118.2 165.0 -110.0 167.45 -111.6 168.15 Q-114.6 170.5 -118.2 171.25 M-118.2 161.55 L-118.2 117.3 Q-115.85 117.95 -113.4 119.1 -110.2 120.55 -108.6 122.45 L-113.5 128.3 -106.25 131.2 Q-112.8 132.25 -114.7 138.4 L-115.2 140.2 -110.7 138.65 -107.0 140.45 Q-115.8 147.2 -117.4 157.35 L-117.4 157.65 -117.05 157.25 -108.95 156.95 Q-106.85 159.6 -106.8 162.45 L-106.65 164.65 Q-111.6 163.15 -118.2 161.55 M48.25 135.5 Q49.9 133.65 52.15 132.85 60.1 130.25 68.5 131.35 80.15 145.2 75.5 163.45 L74.65 166.65 80.5 166.6 82.05 175.0 Q66.75 181.7 50.3 182.75 47.9 182.45 45.7 181.15 L45.7 174.35 Q58.0 171.6 69.45 166.2 L46.2 170.8 46.8 169.35 47.45 169.0 Q46.7 165.8 44.0 163.65 L50.6 163.15 50.65 162.25 Q49.3 154.5 43.0 149.05 47.45 146.4 50.85 149.4 L51.25 149.95 Q49.35 144.4 45.3 140.25 L50.35 137.95 48.25 135.5" fill="#7b7b7b" fill-rule="evenodd" stroke="none"/>
    <path d="M-118.2 224.95 L-118.2 181.85 Q-93.9 173.15 -70.2 183.6 -67.25 184.9 -64.4 186.4 L-63.85 186.1 -54.85 203.5 -56.55 215.25 Q-68.6 220.4 -81.25 223.75 -99.65 228.9 -118.2 224.95 M62.75 199.4 Q61.0 205.35 58.85 210.95 58.0 213.15 56.55 214.95 42.5 232.2 19.7 233.15 -5.45 234.4 -23.6 216.85 -41.55 199.55 -61.1 184.0 -46.4 174.25 -28.7 174.6 -3.6 175.15 20.35 183.4 41.7 190.75 62.75 199.4" fill="#3c3c3c" fill-rule="evenodd" stroke="none"/>
    <path d="M36.95 265.25 L4.45 265.25 -30.45 233.95 Q-41.6 224.15 -46.25 210.25 -50.4 197.85 -58.55 187.95 L-61.7 184.45 -61.1 184.0 Q-41.55 199.55 -23.6 216.85 -5.45 234.4 19.7 233.15 42.5 232.2 56.55 214.95 58.0 213.15 58.85 210.95 61.0 205.35 62.75 199.4 65.7 201.7 69.1 201.7 L69.15 201.65 Q69.15 199.05 66.55 197.4 72.3 193.55 79.5 191.3 83.0 209.15 81.3 226.85 81.1 228.8 80.15 230.75 67.05 258.35 36.95 265.25 M-88.5 263.95 Q-89.85 264.65 -91.3 264.3 L-92.5 263.95 Q-106.2 259.6 -118.2 251.65 L-118.2 224.95 Q-99.65 228.9 -81.25 223.75 -68.6 220.4 -56.55 215.25 L-54.85 203.5 Q-45.6 222.4 -32.3 238.4 -52.55 248.2 -73.1 257.85 -80.55 261.35 -88.5 263.95" fill="#262626" fill-rule="evenodd" stroke="none"/>
    <path d="M46.15 1.05 Q39.2 8.45 45.85 14.45 62.95 29.9 84.9 26.15 93.15 24.6 94.8 16.65 L97.5 2.85 Q97.75 13.5 96.6 22.95 95.9 28.55 94.7 33.7 L87.6 30.65 86.0 32.2 Q76.95 41.5 64.15 42.15 62.25 37.4 59.25 33.25 48.0 17.85 30.95 9.35 L30.6 9.0 30.75 8.8 Q39.25 6.4 46.15 1.05" fill="#b1e8f6" fill-rule="evenodd" stroke="none"/>
  </g>
</svg>
