<?xml version="1.0" encoding="UTF-8" standalone="no"?>
<svg xmlns:xlink="http://www.w3.org/1999/xlink" height="437.65px" width="223.75px" xmlns="http://www.w3.org/2000/svg">
  <g transform="matrix(1.0, 0.0, 0.0, 1.0, 119.25, 168.45)">
    <path d="M101.7 -73.15 Q101.35 -84.75 92.8 -92.8 L92.45 -93.25 91.7 -92.8 Q86.15 -109.9 74.15 -123.3 61.05 -137.9 43.25 -146.75 29.2 -153.85 13.9 -158.1 -12.15 -165.3 -39.35 -164.15 -60.55 -163.15 -81.5 -159.35 -100.2 -155.9 -119.25 -156.0 L-119.25 -160.15 -102.95 -161.4 -92.9 -162.1 -79.05 -164.45 Q-58.3 -168.05 -37.2 -168.3 14.1 -170.55 57.9 -143.75 85.15 -127.1 94.15 -96.4 L93.95 -96.0 Q103.4 -86.4 104.4 -73.5 105.3 -62.0 96.65 -56.1 91.15 -28.3 93.15 0.0 94.85 1.25 95.7 3.05 98.5 9.1 95.35 14.9 92.6 20.65 86.65 23.4 L85.15 24.1 85.15 25.0 Q95.75 39.1 89.25 55.75 L80.15 114.5 Q84.75 126.1 80.15 135.95 108.6 157.7 96.25 190.95 L102.5 208.35 102.1 209.8 95.35 215.3 Q103.85 245.15 85.1 269.2 L80.0 269.2 Q87.25 261.5 90.85 251.75 97.0 234.85 92.55 217.35 L81.0 223.25 Q81.1 233.35 78.5 243.15 L82.0 252.2 81.05 253.8 Q80.35 248.65 77.7 244.3 L75.4 249.95 Q76.95 236.7 77.8 223.55 78.2 210.15 73.9 197.45 L73.6 197.95 Q63.7 164.5 62.0 129.7 L62.3 130.4 Q62.1 128.05 61.05 126.0 57.4 118.7 49.35 118.55 L47.85 117.15 52.2 117.65 52.85 117.3 52.3 115.25 Q47.4 100.05 31.1 103.6 L36.5 102.1 Q35.05 99.95 32.55 99.2 14.9 93.65 -2.95 98.9 -22.6 104.85 -20.6 124.65 L-16.95 125.3 -12.95 127.05 -12.55 126.6 -12.85 120.8 Q-12.9 115.55 -9.2 111.9 0.3 106.85 11.3 107.7 L2.95 110.25 Q-1.2 111.65 -4.9 113.9 -14.3 119.45 -9.6 130.15 L-1.25 134.2 2.7 136.3 3.5 136.8 3.5 135.55 Q3.5 134.65 3.65 133.75 5.2 125.95 12.25 123.5 L30.7 121.05 Q25.65 123.85 20.35 125.6 17.1 126.7 14.55 128.65 3.75 136.95 8.85 152.0 8.25 158.1 4.3 162.85 L2.75 164.65 Q8.1 180.2 23.0 170.2 30.1 165.4 36.75 159.95 L36.3 154.1 36.2 153.7 35.2 149.65 Q25.65 148.55 25.85 157.1 L33.45 150.95 34.7 151.05 Q28.65 162.85 15.75 160.8 L16.2 159.5 16.2 159.3 16.3 158.8 15.9 158.3 15.85 158.15 Q9.2 143.7 25.5 136.25 37.35 130.85 49.95 134.25 29.25 131.8 16.95 146.35 14.9 148.85 15.35 152.2 15.85 156.25 17.75 159.9 L20.5 160.35 Q22.7 160.1 24.5 158.45 23.8 157.0 23.8 155.45 23.75 153.55 24.55 151.5 L18.7 150.95 17.9 150.1 19.2 149.4 Q28.45 151.35 36.2 146.15 38.55 153.8 38.1 161.75 L35.0 164.65 33.85 165.6 Q22.85 178.7 7.8 175.15 3.0 173.9 -0.1 169.75 L-0.3 166.55 Q-15.05 170.95 -26.2 160.35 L-27.8 158.1 -29.15 155.7 -30.3 153.85 -29.1 153.7 Q-23.55 155.75 -19.05 160.0 -11.15 167.55 -5.25 158.8 4.15 144.3 -9.8 133.2 L-9.05 133.1 -7.55 134.35 Q5.1 144.55 -3.5 158.15 -5.1 162.5 -9.55 164.3 L-10.35 164.65 Q-0.15 166.75 4.25 155.8 L4.25 155.55 Q5.3 132.0 -19.4 129.75 -29.8 128.65 -32.65 138.8 -39.35 162.7 -20.65 179.2 L-7.4 186.25 -7.65 186.95 -13.2 186.95 -14.25 195.15 Q-15.4 216.05 -11.4 236.65 L-10.95 238.85 Q-5.55 256.6 9.2 268.0 L10.75 269.2 3.15 269.2 -0.3 265.5 Q-4.6 260.75 -7.85 255.4 L-68.9 255.35 -69.35 255.05 -119.25 253.75 -119.25 251.35 -116.05 251.45 Q-115.25 231.35 -112.1 211.7 L-119.25 210.85 -119.25 207.45 -111.55 207.95 Q-107.7 192.35 -102.85 177.0 -95.7 154.55 -88.2 132.4 L-90.6 130.85 Q-103.75 122.6 -119.25 119.85 L-119.25 115.55 Q-78.05 130.6 -39.1 150.9 L-38.4 141.7 Q-51.75 136.2 -63.7 128.35 L-63.2 127.65 Q-50.65 133.95 -37.35 138.3 L-36.65 136.45 Q-32.95 126.6 -23.15 124.85 L-24.0 116.65 Q-18.5 101.05 -2.25 96.85 -7.8 68.75 4.55 43.6 5.75 41.2 7.8 39.85 21.1 30.7 27.75 46.55 28.85 49.15 28.45 51.8 25.2 72.55 29.2 92.8 34.15 96.15 39.65 98.3 52.9 103.35 54.45 117.3 L55.1 117.5 55.4 117.9 Q66.9 123.55 65.25 137.2 79.1 138.1 78.55 125.25 78.0 112.85 79.5 100.4 80.65 90.9 82.2 81.45 87.8 60.5 87.95 39.2 87.95 36.5 86.45 34.55 72.25 16.05 46.9 14.9 28.5 11.55 9.95 9.8 L-38.6 6.9 -87.5 4.15 -91.25 3.7 -91.5 1.55 Q-76.3 -6.65 -59.15 -9.35 -48.15 -11.35 -37.25 -8.8 -2.5 -0.35 32.95 2.5 L58.0 4.0 Q59.6 4.25 61.1 4.8 70.25 8.5 77.4 14.9 80.8 17.95 83.75 21.65 88.25 19.1 91.25 14.9 L91.4 14.65 Q92.4 13.2 92.8 11.45 94.35 5.25 89.55 1.0 78.6 -7.3 65.35 -10.7 41.95 -16.7 18.15 -20.9 -5.9 -25.0 -30.35 -26.5 -54.5 -28.45 -78.7 -26.4 -97.6 -24.7 -116.25 -20.45 L-116.2 -19.65 -117.25 -19.05 -117.25 -18.6 -119.25 -16.1 -119.25 -52.4 -118.6 -56.2 -119.25 -57.65 -119.25 -68.3 -117.1 -62.65 Q-114.2 -70.05 -109.95 -76.55 -97.2 -96.2 -75.0 -104.55 L-93.2 -90.2 Q-84.9 -92.55 -76.2 -92.5 -62.5 -92.4 -50.0 -98.0 -47.55 -99.05 -45.0 -99.55 -32.2 -100.55 -19.25 -99.95 L30.1 -96.95 36.85 -95.8 Q60.05 -90.85 81.05 -79.4 L82.85 -74.8 90.2 -69.75 Q86.35 -74.55 83.8 -80.1 94.65 -72.85 96.75 -60.05 L96.95 -60.45 96.95 -59.85 98.1 -61.7 Q101.45 -66.95 101.7 -73.15 M-117.1 -99.6 Q-110.7 -123.1 -91.35 -137.85 L-87.4 -140.85 Q-100.9 -126.9 -109.6 -109.6 L-111.4 -105.65 Q-116.3 -94.3 -119.25 -82.45 L-119.25 -89.45 -117.1 -99.6 M54.55 -17.0 L76.4 -10.4 79.3 -20.5 Q87.85 -48.95 78.75 -76.75 68.15 -84.9 54.8 -87.65 57.65 -84.45 59.1 -80.55 63.25 -81.95 67.0 -79.4 76.45 -73.15 68.85 -65.05 L68.7 -61.6 70.95 -60.05 Q79.8 -54.1 72.65 -46.95 70.0 -45.4 66.85 -44.75 57.65 -43.25 55.4 -50.9 50.35 -50.75 46.3 -48.1 L52.3 -43.1 53.5 -43.6 Q61.85 -46.45 65.5 -38.7 67.5 -33.65 64.55 -29.35 L64.05 -28.85 63.3 -28.2 54.45 -28.0 Q56.25 -21.8 51.55 -18.05 L54.55 -17.0 M68.9 -76.85 Q65.3 -80.05 60.7 -78.85 L59.7 -78.45 Q61.8 -67.9 56.0 -59.1 53.3 -55.1 48.7 -53.4 L47.35 -53.0 46.45 -50.85 53.5 -53.95 57.9 -52.55 57.4 -50.35 Q62.3 -44.9 69.4 -47.8 74.25 -49.85 73.35 -54.95 L70.25 -57.9 67.25 -59.9 66.15 -60.25 66.3 -61.0 65.4 -63.3 65.4 -63.45 Q68.95 -67.25 70.25 -72.3 70.9 -74.85 68.9 -76.85 M54.3 -65.95 Q56.2 -63.6 54.6 -60.8 55.95 -62.65 56.7 -64.75 59.0 -71.25 57.75 -78.05 51.1 -95.4 31.45 -93.95 20.9 -92.7 15.3 -83.55 L14.15 -81.0 Q13.15 -78.0 12.95 -74.3 12.9 -73.25 13.0 -72.15 14.1 -59.8 25.55 -56.0 L24.85 -47.65 33.5 -45.75 34.95 -52.25 35.9 -53.2 36.25 -45.4 42.15 -45.75 45.8 -54.45 51.8 -57.95 49.0 -57.1 47.85 -57.75 46.9 -59.55 46.9 -60.7 Q46.9 -62.85 49.1 -64.4 51.25 -65.95 54.3 -65.95 M21.35 -71.35 Q23.2 -71.35 24.5 -69.6 25.8 -67.85 25.8 -65.35 L25.8 -64.9 25.8 -64.8 25.5 -62.7 Q25.5 -61.8 24.9 -61.15 24.25 -60.5 23.35 -60.5 19.1 -61.1 17.55 -64.85 L17.2 -65.9 17.15 -66.4 Q16.5 -69.85 19.6 -71.2 L21.35 -71.35 M12.1 -66.0 Q8.85 -76.65 14.15 -86.65 L13.15 -87.55 Q4.35 -93.35 -0.35 -83.8 1.4 -78.8 1.5 -73.8 1.55 -72.6 0.6 -72.05 L0.55 -71.5 Q-4.4 -70.75 -8.75 -68.1 -11.0 -57.75 0.3 -57.05 6.05 -56.4 6.4 -61.5 L11.15 -61.6 21.05 -52.85 23.45 -54.65 Q15.5 -58.1 12.1 -66.0 M-6.85 -45.65 Q-0.6 -52.2 7.55 -48.05 L9.15 -47.05 18.45 -51.4 Q14.35 -56.6 8.2 -59.1 5.95 -53.35 -1.05 -54.85 -5.75 -55.9 -9.5 -59.25 -15.55 -66.05 -7.3 -71.35 -4.75 -72.95 -1.75 -73.3 -0.35 -78.65 -1.5 -84.5 -1.7 -85.6 -0.9 -86.65 6.5 -95.9 15.65 -88.5 L22.75 -94.0 Q-8.85 -98.15 -40.65 -98.2 L-41.2 -98.35 -44.2 -97.35 -55.35 -93.05 -53.7 -84.95 -51.75 -70.75 -51.15 -60.3 -52.05 -41.4 -53.35 -30.85 -43.1 -30.65 -40.7 -30.35 -12.85 -28.3 -3.5 -27.2 0.55 -26.7 Q0.15 -27.65 0.2 -28.5 0.35 -31.4 2.25 -33.4 L2.1 -34.2 Q-2.75 -34.45 -7.4 -35.95 L-8.0 -36.6 -8.45 -37.35 Q-10.05 -41.3 -7.45 -44.8 L-6.9 -45.6 -6.85 -45.65 M-5.35 -44.5 Q-6.8 -42.65 -6.45 -40.25 L-6.1 -38.75 -0.1 -36.7 0.2 -37.2 Q3.2 -36.5 4.7 -33.85 L5.5 -32.1 4.65 -32.1 2.45 -30.4 Q5.1 -23.25 12.85 -23.75 17.7 -24.45 18.85 -28.85 19.7 -32.2 19.85 -35.75 L22.25 -37.4 22.2 -36.45 34.1 -43.45 23.1 -45.85 23.35 -51.1 21.55 -50.2 8.65 -44.9 Q4.25 -48.8 -1.55 -47.15 -3.9 -46.6 -5.35 -44.5 M30.7 -22.0 L36.2 -21.0 Q34.5 -26.75 37.1 -32.1 L30.2 -38.7 22.15 -34.75 22.1 -30.45 Q22.0 -26.5 19.1 -23.95 L24.8 -23.1 30.7 -22.0 M46.8 -44.55 L44.65 -46.2 43.8 -43.55 Q37.65 -43.15 32.4 -39.95 L39.3 -32.5 Q38.3 -28.45 37.6 -24.4 37.3 -22.5 38.85 -21.3 47.6 -14.75 53.05 -23.95 L51.7 -26.3 50.85 -26.35 Q52.7 -30.6 57.05 -30.85 L57.05 -30.3 58.1 -30.15 Q66.35 -30.5 63.45 -38.35 59.95 -44.0 53.75 -41.35 L51.8 -40.5 46.8 -44.55 M80.2 -13.25 L78.85 -9.3 Q85.1 -6.7 90.4 -2.15 L90.1 -6.75 89.8 -18.85 Q89.1 -37.25 92.85 -55.2 93.95 -57.65 93.85 -60.35 L93.7 -61.65 84.05 -69.1 85.1 -61.4 85.15 -42.75 Q84.85 -27.65 80.2 -13.25 M58.05 7.65 L55.45 7.5 55.2 10.25 57.6 10.9 58.45 10.35 58.05 7.65 M-45.7 25.9 L-47.2 26.35 Q-52.85 27.55 -58.25 26.1 -32.8 20.65 -6.7 21.0 31.85 21.5 68.2 34.0 L67.7 34.2 Q63.05 35.3 58.45 33.25 35.7 27.2 12.5 23.55 L2.6 22.9 Q-21.65 23.35 -45.7 25.9 M19.2 92.75 Q19.85 71.65 21.75 50.65 22.2 45.75 20.05 41.1 26.95 54.45 22.65 69.1 L21.4 73.0 20.7 73.5 20.6 92.45 25.7 91.8 Q23.25 79.3 25.85 66.8 L25.8 66.55 25.8 66.45 25.6 66.45 Q29.15 56.35 24.95 46.6 21.05 37.55 10.95 38.7 4.3 48.05 0.35 58.75 -1.8 66.4 -1.45 74.2 -0.95 84.95 0.3 95.7 L0.35 96.65 1.1 96.4 18.3 92.95 18.6 92.95 19.2 92.75 M78.05 138.4 L76.35 137.3 65.1 140.6 66.6 152.15 70.0 178.05 69.75 178.65 70.75 180.55 74.5 193.05 Q82.45 195.55 89.65 191.35 L89.6 191.9 Q87.65 196.95 81.6 197.25 L79.85 197.3 76.55 197.2 Q80.05 207.1 81.0 217.6 L81.25 218.1 81.45 217.9 Q91.9 215.8 98.95 208.55 L98.65 207.65 93.65 192.8 93.2 190.6 95.15 185.7 Q101.85 161.0 82.55 142.2 80.45 140.15 78.05 138.4 M80.05 136.3 Q80.6 136.7 80.05 136.15 L80.05 136.3 M2.5 189.8 Q4.55 191.5 7.1 192.75 L7.35 192.8 8.75 193.35 Q23.95 199.1 37.4 189.9 35.2 195.65 29.4 196.9 3.55 202.55 -9.85 178.9 L-6.35 181.15 2.5 189.8 M58.8 195.2 L54.35 184.25 Q50.3 167.6 53.2 150.05 52.0 173.25 58.8 195.2 M74.7 253.85 Q77.3 254.75 77.95 257.5 L77.0 258.8 75.7 254.8 Q69.9 261.2 65.8 268.75 L60.15 264.05 60.45 262.7 61.25 262.45 Q63.1 234.45 60.8 206.45 65.05 234.85 62.25 263.75 L63.1 264.8 64.2 264.8 64.2 265.4 65.8 265.8 73.95 253.7 74.7 253.85 M-56.8 -89.2 L-57.4 -92.15 Q-76.2 -91.15 -94.45 -86.15 -96.7 -85.55 -98.7 -84.25 -107.45 -78.75 -111.4 -69.3 -113.45 -64.4 -114.45 -59.25 -117.75 -42.1 -116.65 -24.5 -86.25 -29.85 -55.15 -30.85 L-54.8 -33.45 -54.45 -35.95 -54.3 -36.85 -54.3 -37.15 Q-53.7 -45.3 -53.45 -53.45 -52.9 -71.6 -56.8 -89.2 M-42.1 -1.4 L-39.05 -1.4 -39.05 -4.75 -42.1 -4.75 -42.1 -1.4 M-119.25 98.75 L-119.25 91.5 Q-116.55 99.9 -108.7 103.7 L-108.8 104.4 Q-109.85 105.2 -111.15 105.1 -116.65 104.0 -119.25 98.75 M-88.25 131.9 L-88.25 131.75 Q-88.6 131.3 -88.25 131.9 M-44.9 193.35 Q-47.65 169.75 -56.6 147.7 -70.45 141.45 -83.85 134.3 L-84.05 135.0 -81.65 139.15 Q-73.7 152.85 -69.8 168.25 -62.05 191.4 -58.0 215.45 -54.8 234.35 -53.4 253.35 L-39.6 253.1 -39.15 252.8 Q-39.2 222.8 -44.9 193.35 M-73.2 164.15 Q-77.45 151.15 -83.2 138.55 L-84.45 135.8 -88.5 144.55 -95.05 160.25 -95.25 159.7 -96.05 161.9 -83.55 193.35 Q-72.05 222.1 -68.7 252.75 L-55.15 253.35 Q-56.95 230.6 -61.55 208.3 -66.15 185.85 -73.2 164.15 M-119.25 176.95 L-105.8 172.45 -105.5 173.3 -110.05 175.6 -111.45 176.65 Q-112.55 177.45 -119.25 179.75 L-119.25 176.95 M-99.95 174.35 Q-110.55 212.1 -112.8 251.6 L-71.55 252.7 Q-71.25 250.65 -71.5 248.55 -74.0 228.8 -80.45 210.1 -88.0 187.2 -97.1 164.85 L-99.95 174.35 M-17.35 215.7 L-15.75 187.0 Q-22.8 182.75 -27.85 176.4 -34.65 167.9 -37.3 157.4 L-52.65 149.2 Q-45.05 171.95 -42.05 195.75 -36.5 224.4 -36.95 253.6 L-9.45 252.45 -9.65 252.0 Q-17.1 234.6 -17.35 215.7 M-70.25 252.9 Q-69.1 253.2 -69.7 252.85 L-70.25 252.9" fill="#000000" fill-rule="evenodd" stroke="none"/>
    <path d="M-119.25 -156.0 Q-100.2 -155.9 -81.5 -159.35 -60.55 -163.15 -39.35 -164.15 -12.15 -165.3 13.9 -158.1 29.2 -153.85 43.25 -146.75 61.05 -137.9 74.15 -123.3 86.15 -109.9 91.7 -92.8 L92.45 -93.25 92.8 -92.8 Q101.35 -84.75 101.7 -73.15 100.1 -71.8 98.15 -72.1 L96.25 -72.25 Q88.4 -84.75 77.85 -95.05 L79.9 -84.35 Q49.55 -106.25 12.2 -108.95 -3.9 -110.4 -19.9 -109.3 -43.2 -106.95 -65.5 -100.55 -71.1 -98.9 -76.85 -98.35 L-63.7 -109.75 Q-90.55 -107.6 -110.7 -89.15 -115.3 -93.4 -113.2 -99.85 L-109.6 -109.6 Q-100.9 -126.9 -87.4 -140.85 L-91.35 -137.85 Q-110.7 -123.1 -117.1 -99.6 L-119.25 -97.25 -119.25 -121.7 Q-118.45 -126.3 -116.05 -130.2 -115.05 -131.9 -115.5 -133.55 -115.85 -132.85 -116.2 -133.65 -117.25 -136.1 -119.25 -138.0 L-119.25 -156.0 M-119.25 -57.65 L-118.6 -56.2 -119.25 -52.4 -119.25 -57.65 M-119.25 -16.1 L-117.25 -18.6 -117.25 -19.05 -116.2 -19.65 -116.25 -20.45 Q-97.6 -24.7 -78.7 -26.4 -54.5 -28.45 -30.35 -26.5 -5.9 -25.0 18.15 -20.9 41.95 -16.7 65.35 -10.7 78.6 -7.3 89.55 1.0 L91.4 4.15 Q88.9 10.2 82.35 11.0 73.25 2.4 60.75 1.55 L32.6 -0.65 Q6.5 -2.8 -18.55 -11.05 -38.2 -17.55 -58.2 -14.2 -81.5 -10.5 -99.9 3.8 L-88.15 4.35 -87.5 4.15 -38.6 6.9 9.95 9.8 Q28.5 11.55 46.9 14.9 72.25 16.05 86.45 34.55 87.95 36.5 87.95 39.2 87.8 60.5 82.2 81.45 L77.15 96.95 Q71.75 113.25 54.45 117.3 52.9 103.35 39.65 98.3 34.15 96.15 29.2 92.8 25.2 72.55 28.45 51.8 28.85 49.15 27.75 46.55 21.1 30.7 7.8 39.85 5.75 41.2 4.55 43.6 -7.8 68.75 -2.25 96.85 -18.5 101.05 -24.0 116.65 -39.05 115.9 -53.9 113.4 -70.3 110.35 -85.35 102.95 -106.85 92.5 -119.25 71.8 L-119.25 -16.1 M80.2 -13.25 Q84.85 -27.65 85.15 -42.75 L85.1 -61.4 92.85 -55.2 Q89.1 -37.25 89.8 -18.85 L90.1 -6.75 Q86.05 -10.55 81.2 -12.85 L80.2 -13.25 M58.45 33.25 Q63.05 35.3 67.7 34.2 L68.2 34.0 Q31.85 21.5 -6.7 21.0 -32.8 20.65 -58.25 26.1 -52.85 27.55 -47.2 26.35 L-45.7 25.9 Q-23.75 25.35 -2.45 29.7 L-9.5 30.5 Q16.05 31.65 41.05 35.85 L36.25 33.95 Q37.0 33.5 37.85 33.3 47.85 30.75 58.45 33.25 M-54.5 -35.95 Q-79.7 -35.4 -104.45 -31.3 L-111.55 -30.05 -114.55 -32.65 -94.55 -47.35 -94.8 -47.75 Q-103.95 -44.85 -113.25 -43.15 L-114.5 -44.55 -89.8 -72.05 -90.0 -72.55 -111.25 -59.25 Q-106.95 -69.45 -101.35 -78.95 -79.9 -87.45 -56.8 -89.2 -52.9 -71.6 -53.45 -53.45 -53.7 -45.3 -54.3 -37.15 L-54.55 -37.2 -54.3 -36.85 -54.45 -35.95 -54.5 -35.95 M-99.95 174.35 L-97.1 164.85 Q-88.0 187.2 -80.45 210.1 -74.0 228.8 -71.5 248.55 -71.25 250.65 -71.55 252.7 L-112.8 251.6 Q-110.55 212.1 -99.95 174.35 M-42.05 195.75 L-17.35 215.7 Q-17.1 234.6 -9.65 252.0 L-9.45 252.45 -36.95 253.6 Q-36.5 224.4 -42.05 195.75" fill="#50639a" fill-rule="evenodd" stroke="none"/>
    <path d="M-119.25 -138.0 Q-117.25 -136.1 -116.2 -133.65 -115.85 -132.85 -115.5 -133.55 -115.05 -131.9 -116.05 -130.2 -118.45 -126.3 -119.25 -121.7 L-119.25 -138.0 M-119.25 -97.25 L-117.1 -99.6 -119.25 -89.45 -119.25 -97.25 M-109.6 -109.6 L-113.2 -99.85 Q-115.3 -93.4 -110.7 -89.15 -90.55 -107.6 -63.7 -109.75 L-76.85 -98.35 Q-71.1 -98.9 -65.5 -100.55 -43.2 -106.95 -19.9 -109.3 -3.9 -110.4 12.2 -108.95 49.55 -106.25 79.9 -84.35 L77.85 -95.05 Q88.4 -84.75 96.25 -72.25 L98.15 -72.1 Q100.1 -71.8 101.7 -73.15 101.45 -66.95 98.1 -61.7 L96.95 -59.85 96.95 -60.45 96.75 -60.05 Q94.65 -72.85 83.8 -80.1 86.35 -74.55 90.2 -69.75 L82.85 -74.8 81.05 -79.4 Q60.05 -90.85 36.85 -95.8 L30.1 -96.95 -19.25 -99.95 Q-32.2 -100.55 -45.0 -99.55 -47.55 -99.05 -50.0 -98.0 -62.5 -92.4 -76.2 -92.5 -84.9 -92.55 -93.2 -90.2 L-75.0 -104.55 Q-97.2 -96.2 -109.95 -76.55 -114.2 -70.05 -117.1 -62.65 L-119.25 -68.3 -119.25 -82.45 Q-116.3 -94.3 -111.4 -105.65 L-109.6 -109.6 M89.55 1.0 Q94.35 5.25 92.8 11.45 92.4 13.2 91.4 14.65 L91.25 14.9 Q88.25 19.1 83.75 21.65 80.8 17.95 77.4 14.9 70.25 8.5 61.1 4.8 59.6 4.25 58.0 4.0 L32.95 2.5 Q-2.5 -0.35 -37.25 -8.8 -48.15 -11.35 -59.15 -9.35 -76.3 -6.65 -91.5 1.55 L-91.25 3.7 -87.5 4.15 -88.15 4.35 -99.9 3.8 Q-81.5 -10.5 -58.2 -14.2 -38.2 -17.55 -18.55 -11.05 6.5 -2.8 32.6 -0.65 L60.75 1.55 Q73.25 2.4 82.35 11.0 88.9 10.2 91.4 4.15 L89.55 1.0 M82.2 81.45 Q80.65 90.9 79.5 100.4 78.0 112.85 78.55 125.25 79.1 138.1 65.25 137.2 66.9 123.55 55.4 117.9 L55.1 117.5 54.45 117.3 Q71.75 113.25 77.15 96.95 L82.2 81.45 M-24.0 116.65 L-23.15 124.85 Q-32.95 126.6 -36.65 136.45 L-37.35 138.3 Q-50.65 133.95 -63.2 127.65 L-63.7 128.35 Q-51.75 136.2 -38.4 141.7 L-39.1 150.9 Q-78.05 130.6 -119.25 115.55 L-119.25 98.75 Q-116.65 104.0 -111.15 105.1 -109.85 105.2 -108.8 104.4 L-108.7 103.7 Q-116.55 99.9 -119.25 91.5 L-119.25 71.8 Q-106.85 92.5 -85.35 102.95 -70.3 110.35 -53.9 113.4 -39.05 115.9 -24.0 116.65 M90.1 -6.75 L90.4 -2.15 Q85.1 -6.7 78.85 -9.3 L80.2 -13.25 81.2 -12.85 Q86.05 -10.55 90.1 -6.75 M85.1 -61.4 L84.05 -69.1 93.7 -61.65 93.85 -60.35 Q93.95 -57.65 92.85 -55.2 L85.1 -61.4 M-45.7 25.9 Q-21.65 23.35 2.6 22.9 L12.5 23.55 Q35.7 27.2 58.45 33.25 47.85 30.75 37.85 33.3 37.0 33.5 36.25 33.95 L41.05 35.85 Q16.05 31.65 -9.5 30.5 L-2.45 29.7 Q-23.75 25.35 -45.7 25.9 M-54.8 -33.45 L-55.15 -30.85 Q-86.25 -29.85 -116.65 -24.5 -117.75 -42.1 -114.45 -59.25 -113.45 -64.4 -111.4 -69.3 -107.45 -78.75 -98.7 -84.25 -96.7 -85.55 -94.45 -86.15 -76.2 -91.15 -57.4 -92.15 L-56.8 -89.2 Q-79.9 -87.45 -101.35 -78.95 -106.95 -69.45 -111.25 -59.25 L-90.0 -72.55 -89.8 -72.05 -114.5 -44.55 -113.25 -43.15 Q-103.95 -44.85 -94.8 -47.75 L-94.55 -47.35 -114.55 -32.65 -111.55 -30.05 -104.45 -31.3 Q-79.7 -35.4 -54.5 -35.95 L-54.8 -33.45 M-42.05 195.75 Q-45.05 171.95 -52.65 149.2 L-37.3 157.4 Q-34.65 167.9 -27.85 176.4 -22.8 182.75 -15.75 187.0 L-17.35 215.7 -42.05 195.75" fill="#37476a" fill-rule="evenodd" stroke="none"/>
    <path d="M72.65 -46.95 Q79.8 -54.1 70.95 -60.05 L68.7 -61.6 68.85 -65.05 Q76.45 -73.15 67.0 -79.4 63.25 -81.95 59.1 -80.55 57.65 -84.45 54.8 -87.65 68.15 -84.9 78.75 -76.75 87.85 -48.95 79.3 -20.5 L76.4 -10.4 54.55 -17.0 Q58.55 -20.05 63.65 -20.8 64.25 -20.95 64.6 -21.7 66.5 -25.45 64.05 -28.85 L64.55 -29.35 Q67.5 -33.65 65.5 -38.7 72.95 -37.9 72.75 -45.6 L72.65 -46.95 M-6.85 -45.65 L-6.9 -45.6 -6.95 -45.6 -6.85 -45.65 M-7.45 -44.8 Q-10.05 -41.3 -8.45 -37.35 L-8.0 -36.6 Q-9.9 -31.25 -4.65 -29.0 L-3.7 -28.65 -3.5 -27.2 -12.85 -28.3 -40.7 -30.35 Q-38.55 -36.05 -38.2 -41.85 -36.55 -69.9 -41.8 -97.6 L-41.0 -97.45 -41.15 -98.2 -40.65 -98.2 Q-8.85 -98.15 22.75 -94.0 L15.65 -88.5 Q6.5 -95.9 -0.9 -86.65 -1.7 -85.6 -1.5 -84.5 -0.35 -78.65 -1.75 -73.3 -4.75 -72.95 -7.3 -71.35 -15.55 -66.05 -9.5 -59.25 L-11.35 -57.7 Q-13.55 -50.05 -7.45 -44.8 M24.8 -23.1 L27.3 -27.35 Q28.45 -27.5 29.4 -25.9 30.5 -24.05 30.7 -22.0 L24.8 -23.1" fill="#737373" fill-rule="evenodd" stroke="none"/>
    <path d="M68.9 -76.85 Q70.9 -74.85 70.25 -72.3 68.95 -67.25 65.4 -63.45 L65.25 -63.55 65.4 -63.3 66.3 -61.0 66.15 -60.25 67.25 -59.9 66.9 -59.55 Q60.95 -62.9 66.25 -67.5 70.8 -71.5 68.9 -76.85 M70.25 -57.9 L73.35 -54.95 Q74.25 -49.85 69.4 -47.8 62.3 -44.9 57.4 -50.35 L57.9 -52.55 53.5 -53.95 46.45 -50.85 47.35 -53.0 48.7 -53.4 Q53.3 -55.1 56.0 -59.1 L58.1 -59.65 Q61.35 -49.6 70.7 -54.45 L69.95 -57.4 70.25 -57.9 M54.3 -65.95 L56.05 -66.8 57.75 -78.05 Q59.0 -71.25 56.7 -64.75 55.95 -62.65 54.6 -60.8 56.2 -63.6 54.3 -65.95 M15.3 -83.55 L15.85 -80.7 Q18.2 -80.45 20.2 -79.45 21.65 -78.75 21.4 -77.35 25.5 -76.1 27.2 -72.8 L20.8 -75.85 21.35 -71.35 19.6 -71.2 19.5 -76.75 Q17.3 -78.55 14.55 -79.15 L14.15 -81.0 15.3 -83.55 M25.8 -65.35 L28.9 -60.8 25.5 -62.7 25.8 -64.8 26.4 -64.35 25.8 -64.9 25.8 -65.35 M23.35 -60.5 L26.15 -59.15 26.9 -57.5 27.35 -57.45 28.7 -54.15 29.2 -54.15 29.45 -54.7 30.9 -54.55 30.95 -53.1 31.4 -53.25 31.65 -54.55 32.55 -54.85 32.55 -53.6 34.7 -55.8 38.25 -54.05 38.3 -53.25 39.3 -53.1 39.55 -53.5 41.6 -54.05 Q43.15 -54.55 44.2 -55.75 L44.35 -54.8 46.15 -57.35 47.85 -57.75 49.0 -57.1 51.8 -57.95 45.8 -54.45 42.15 -45.75 36.25 -45.4 35.9 -53.2 34.95 -52.25 33.5 -45.75 24.85 -47.65 25.55 -56.0 Q14.1 -59.8 13.0 -72.15 12.9 -73.25 12.95 -74.3 L14.1 -71.15 Q15.35 -68.25 17.2 -65.9 L17.55 -64.85 Q19.1 -61.1 23.35 -60.5 M46.9 -59.55 L45.2 -60.05 46.9 -60.7 46.9 -59.55 M-0.35 -83.8 L0.4 -84.45 Q3.4 -80.7 3.7 -76.15 3.75 -75.05 3.15 -74.0 0.3 -69.0 -5.2 -68.4 L-6.05 -65.9 Q-3.35 -62.35 0.65 -63.45 5.0 -64.6 9.1 -66.85 L9.4 -66.45 12.1 -66.0 Q15.5 -58.1 23.45 -54.65 L21.05 -52.85 11.15 -61.6 6.4 -61.5 Q6.05 -56.4 0.3 -57.05 -11.0 -57.75 -8.75 -68.1 -4.4 -70.75 0.55 -71.5 L0.6 -72.05 Q1.55 -72.6 1.5 -73.8 1.4 -78.8 -0.35 -83.8 M21.55 -50.2 L23.35 -51.1 23.1 -45.85 34.1 -43.45 22.2 -36.45 22.25 -37.4 19.85 -35.75 Q19.7 -32.2 18.85 -28.85 17.7 -24.45 12.85 -23.75 5.1 -23.25 2.45 -30.4 L4.65 -32.1 5.5 -32.1 4.7 -33.85 Q3.2 -36.5 0.2 -37.2 L-0.1 -36.7 -6.1 -38.75 -6.45 -40.25 Q-6.8 -42.65 -5.35 -44.5 L-5.1 -41.35 Q0.05 -39.4 5.55 -39.8 6.25 -39.2 6.25 -38.2 6.2 -33.0 9.85 -31.15 11.1 -30.55 12.4 -31.35 15.5 -33.2 14.95 -36.65 L21.0 -42.1 Q20.35 -44.1 20.4 -46.3 20.45 -48.25 21.55 -50.2 M63.45 -38.35 Q66.35 -30.5 58.1 -30.15 L57.05 -30.3 57.05 -30.85 Q52.7 -30.6 50.85 -26.35 L51.7 -26.3 53.05 -23.95 Q47.6 -14.75 38.85 -21.3 37.3 -22.5 37.6 -24.4 38.3 -28.45 39.3 -32.5 L32.4 -39.95 Q37.65 -43.15 43.8 -43.55 L44.65 -46.2 46.8 -44.55 40.9 -38.35 42.3 -37.15 Q42.8 -36.65 42.75 -36.05 L41.9 -25.3 Q44.55 -24.15 46.2 -26.05 48.85 -28.9 50.65 -32.5 52.05 -35.25 55.05 -34.15 62.05 -31.75 63.45 -38.35" fill="#b3b3b3" fill-rule="evenodd" stroke="none"/>
    <path d="M56.0 -59.1 Q61.8 -67.9 59.7 -78.45 L60.7 -78.85 Q65.3 -80.05 68.9 -76.85 70.8 -71.5 66.25 -67.5 60.95 -62.9 66.9 -59.55 L67.25 -59.9 70.25 -57.9 69.95 -57.4 70.7 -54.45 Q61.35 -49.6 58.1 -59.65 L56.0 -59.1 M65.4 -63.45 L65.4 -63.3 65.25 -63.55 65.4 -63.45 M57.75 -78.05 L56.05 -66.8 54.3 -65.95 Q51.25 -65.95 49.1 -64.4 46.9 -62.85 46.9 -60.7 L45.2 -60.05 46.9 -59.55 47.85 -57.75 46.15 -57.35 44.35 -54.8 44.2 -55.75 Q43.15 -54.55 41.6 -54.05 L39.55 -53.5 39.3 -53.1 38.3 -53.25 38.25 -54.05 34.7 -55.8 32.55 -53.6 32.55 -54.85 31.65 -54.55 31.4 -53.25 30.95 -53.1 30.9 -54.55 29.45 -54.7 29.2 -54.15 28.7 -54.15 27.35 -57.45 26.9 -57.5 26.15 -59.15 23.35 -60.5 Q24.25 -60.5 24.9 -61.15 25.5 -61.8 25.5 -62.7 L28.9 -60.8 25.8 -65.35 Q25.8 -67.85 24.5 -69.6 23.2 -71.35 21.35 -71.35 L20.8 -75.85 27.2 -72.8 Q25.5 -76.1 21.4 -77.35 21.65 -78.75 20.2 -79.45 18.2 -80.45 15.85 -80.7 L15.3 -83.55 Q20.9 -92.7 31.45 -93.95 51.1 -95.4 57.75 -78.05 M-0.35 -83.8 Q4.35 -93.35 13.15 -87.55 L14.15 -86.65 Q8.85 -76.65 12.1 -66.0 L9.4 -66.45 9.1 -66.85 Q5.0 -64.6 0.65 -63.45 -3.35 -62.35 -6.05 -65.9 L-5.2 -68.4 Q0.3 -69.0 3.15 -74.0 3.75 -75.05 3.7 -76.15 3.4 -80.7 0.4 -84.45 L-0.35 -83.8 M14.15 -81.0 L14.55 -79.15 Q17.3 -78.55 19.5 -76.75 L19.6 -71.2 Q16.5 -69.85 17.15 -66.4 L17.2 -65.9 Q15.35 -68.25 14.1 -71.15 L12.95 -74.3 Q13.15 -78.0 14.15 -81.0 M25.8 -64.8 L25.8 -64.9 26.4 -64.35 25.8 -64.8 M21.55 -50.2 Q20.45 -48.25 20.4 -46.3 20.35 -44.1 21.0 -42.1 L14.95 -36.65 Q15.5 -33.2 12.4 -31.35 11.1 -30.55 9.85 -31.15 6.2 -33.0 6.25 -38.2 6.25 -39.2 5.55 -39.8 0.05 -39.4 -5.1 -41.35 L-5.35 -44.5 Q-3.9 -46.6 -1.55 -47.15 4.25 -48.8 8.65 -44.9 L21.55 -50.2 M63.45 -38.35 Q62.05 -31.75 55.05 -34.15 52.05 -35.25 50.65 -32.5 48.85 -28.9 46.2 -26.05 44.55 -24.15 41.9 -25.3 L42.75 -36.05 Q42.8 -36.65 42.3 -37.15 L40.9 -38.35 46.8 -44.55 51.8 -40.5 53.75 -41.35 Q59.95 -44.0 63.45 -38.35 M58.05 7.65 L58.45 10.35 57.6 10.9 55.2 10.25 55.45 7.5 58.05 7.65 M-42.1 -1.4 L-42.1 -4.75 -39.05 -4.75 -39.05 -1.4 -42.1 -1.4" fill="#ffffff" fill-rule="evenodd" stroke="none"/>
    <path d="M-40.7 -30.35 L-43.1 -30.65 Q-41.0 -35.75 -40.55 -41.6 L-39.9 -53.1 -40.45 -68.9 -41.3 -78.55 -43.3 -90.45 -44.2 -97.35 -41.2 -98.35 -40.65 -98.2 -41.15 -98.2 -41.0 -97.45 -41.8 -97.6 Q-36.55 -69.9 -38.2 -41.85 -38.55 -36.05 -40.7 -30.35" fill="#aeaeae" fill-rule="evenodd" stroke="none"/>
    <path d="M-52.05 -41.4 L-51.15 -60.3 Q-45.05 -65.65 -40.45 -68.9 L-39.9 -53.1 -52.05 -41.4 M-51.75 -70.75 L-53.7 -84.95 -43.3 -90.45 -41.3 -78.55 -51.75 -70.75" fill="#9d9d9d" fill-rule="evenodd" stroke="none"/>
    <path d="M72.65 -46.95 L72.75 -45.6 Q72.95 -37.9 65.5 -38.7 61.85 -46.45 53.5 -43.6 L52.3 -43.1 46.3 -48.1 Q50.35 -50.75 55.4 -50.9 57.65 -43.25 66.85 -44.75 70.0 -45.4 72.65 -46.95 M64.05 -28.85 Q66.5 -25.45 64.6 -21.7 64.25 -20.95 63.65 -20.8 58.55 -20.05 54.55 -17.0 L51.55 -18.05 Q56.25 -21.8 54.45 -28.0 L63.3 -28.2 64.05 -28.85 M-9.5 -59.25 Q-5.75 -55.9 -1.05 -54.85 5.95 -53.35 8.2 -59.1 14.35 -56.6 18.45 -51.4 L9.15 -47.05 7.55 -48.05 Q-0.6 -52.2 -6.85 -45.65 L-6.95 -45.6 -6.9 -45.6 -7.45 -44.8 Q-13.55 -50.05 -11.35 -57.7 L-9.5 -59.25 M-8.0 -36.6 L-7.4 -35.95 Q-2.75 -34.45 2.1 -34.2 L2.25 -33.4 Q0.35 -31.4 0.2 -28.5 0.15 -27.65 0.55 -26.7 L-3.5 -27.2 -3.7 -28.65 -4.65 -29.0 Q-9.9 -31.25 -8.0 -36.6 M30.7 -22.0 Q30.5 -24.05 29.4 -25.9 28.45 -27.5 27.3 -27.35 L24.8 -23.1 19.1 -23.95 Q22.0 -26.5 22.1 -30.45 L22.15 -34.75 30.2 -38.7 37.1 -32.1 Q34.5 -26.75 36.2 -21.0 L30.7 -22.0" fill="#595959" fill-rule="evenodd" stroke="none"/>
    <path d="M-43.1 -30.65 L-53.35 -30.85 -52.05 -41.4 -39.9 -53.1 -40.55 -41.6 Q-41.0 -35.75 -43.1 -30.65 M-51.15 -60.3 L-51.75 -70.75 -41.3 -78.55 -40.45 -68.9 Q-45.05 -65.65 -51.15 -60.3 M-53.7 -84.95 L-55.35 -93.05 -44.2 -97.35 -43.3 -90.45 -53.7 -84.95" fill="#828282" fill-rule="evenodd" stroke="none"/>
    <path d="M-54.3 -37.15 L-54.3 -36.85 -54.55 -37.2 -54.3 -37.15" fill="#314060" fill-rule="evenodd" stroke="none"/>
    <path d="M-10.95 238.85 L-11.4 236.65 Q-15.4 216.05 -14.25 195.15 L-5.85 196.1 Q-8.5 226.2 7.1 253.15 L6.55 252.95 Q-4.8 249.15 -10.95 238.85 M-20.65 179.2 Q-39.35 162.7 -32.65 138.8 -29.8 128.65 -19.4 129.75 5.3 132.0 4.25 155.55 L-3.5 158.15 Q5.1 144.55 -7.55 134.35 L-9.05 133.1 -9.8 133.2 Q4.15 144.3 -5.25 158.8 -18.6 159.35 -29.55 151.3 L-29.1 153.7 -30.3 153.85 -29.15 155.7 Q-29.15 156.7 -28.75 157.4 -28.35 158.1 -27.8 158.1 L-26.2 160.35 Q-22.45 172.3 -12.3 178.65 L-13.4 179.75 -20.65 179.2 M8.85 152.0 Q3.75 136.95 14.55 128.65 17.1 126.7 20.35 125.6 25.65 123.85 30.7 121.05 L12.25 123.5 1.35 125.45 0.7 126.7 Q-1.15 130.25 -1.25 134.2 L-9.6 130.15 Q-14.3 119.45 -4.9 113.9 -1.2 111.65 2.95 110.25 L11.3 107.7 Q0.3 106.85 -9.2 111.9 L-9.3 111.7 Q-15.05 117.35 -16.95 125.3 L-20.6 124.65 Q-22.6 104.85 -2.95 98.9 14.9 93.65 32.55 99.2 35.05 99.95 36.5 102.1 L31.1 103.6 Q47.4 100.05 52.3 115.25 L52.85 117.3 52.2 117.65 47.85 117.15 49.35 118.55 Q57.4 118.7 61.05 126.0 62.1 128.05 62.3 130.4 L62.0 129.7 Q63.7 164.5 73.6 197.95 L73.9 197.45 Q78.2 210.15 77.8 223.55 L77.45 225.35 Q75.85 232.35 71.55 237.95 74.2 202.85 58.05 171.8 64.85 146.55 45.45 129.35 L16.75 137.2 Q9.05 153.5 16.45 170.0 14.5 171.65 12.1 170.85 9.2 169.95 7.7 167.3 L8.35 165.65 Q11.0 158.95 8.85 152.0 M3.5 135.55 L3.5 136.8 2.7 136.3 3.5 135.55 M0.35 58.75 Q4.3 48.05 10.95 38.7 21.05 37.55 24.95 46.6 29.15 56.35 25.6 66.45 L25.8 66.45 25.8 66.55 25.85 66.8 Q23.25 79.3 25.7 91.8 L20.6 92.45 20.7 73.5 21.4 73.0 22.65 69.1 Q26.95 54.45 20.05 41.1 22.2 45.75 21.75 50.65 19.85 71.65 19.2 92.75 L19.0 92.25 18.6 92.95 18.3 92.95 Q12.65 76.6 17.4 59.85 18.15 57.3 16.45 55.7 7.2 46.7 0.35 58.75 M0.3 95.7 L1.1 96.4 0.35 96.65 0.3 95.7 M8.6 171.0 L8.5 170.8 Q9.2 171.0 8.6 171.0 M-6.35 181.15 L-6.15 179.05 -0.35 178.05 Q9.1 187.15 19.15 179.2 20.5 180.55 20.05 182.2 16.35 196.1 2.5 189.8 L-6.35 181.15 M7.2 192.75 L9.3 193.3 8.75 193.35 7.35 192.8 7.2 192.75" fill="#3c3c3c" fill-rule="evenodd" stroke="none"/>
    <path d="M10.75 269.2 L9.2 268.0 Q-5.55 256.6 -10.95 238.85 -4.8 249.15 6.55 252.95 L7.1 253.15 Q-8.5 226.2 -5.85 196.1 L-14.25 195.15 -13.2 186.95 -7.65 186.95 -7.4 186.25 -20.65 179.2 -13.4 179.75 -12.3 178.65 Q-22.45 172.3 -26.2 160.35 -15.05 170.95 -0.3 166.55 L-0.1 169.75 Q3.0 173.9 7.8 175.15 22.85 178.7 33.85 165.6 L35.35 165.0 35.0 164.65 38.1 161.75 Q38.55 153.8 36.2 146.15 28.45 151.35 19.2 149.4 L17.9 150.1 18.7 150.95 24.55 151.5 Q23.75 153.55 23.8 155.45 23.8 157.0 24.5 158.45 22.7 160.1 20.5 160.35 L17.75 159.9 Q15.85 156.25 15.35 152.2 14.9 148.85 16.95 146.35 29.25 131.8 49.95 134.25 37.35 130.85 25.5 136.25 9.2 143.7 15.85 158.15 L15.85 158.2 16.15 159.5 16.2 159.5 15.75 160.8 Q28.65 162.85 34.7 151.05 L33.45 150.95 25.85 157.1 Q25.65 148.55 35.2 149.65 L36.2 153.7 35.5 154.4 36.3 154.1 36.75 159.95 Q30.1 165.4 23.0 170.2 8.1 180.2 2.75 164.65 L4.3 162.85 Q8.25 158.1 8.85 152.0 11.0 158.95 8.35 165.65 L7.7 167.3 Q9.2 169.95 12.1 170.85 14.5 171.65 16.45 170.0 9.05 153.5 16.75 137.2 L45.45 129.35 Q64.85 146.55 58.05 171.8 74.2 202.85 71.55 237.95 75.85 232.35 77.45 225.35 L77.8 223.55 Q76.95 236.7 75.4 249.95 L77.7 244.3 Q80.35 248.65 81.05 253.8 L82.0 252.2 78.5 243.15 Q81.1 233.35 81.0 223.25 L92.55 217.35 Q97.0 234.85 90.85 251.75 87.25 261.5 80.0 269.2 L10.75 269.2 M4.25 155.55 L4.25 155.8 Q-0.15 166.75 -10.35 164.65 L-9.55 164.3 Q-5.1 162.5 -3.5 158.15 L4.25 155.55 M-5.25 158.8 Q-11.15 167.55 -19.05 160.0 -23.55 155.75 -29.1 153.7 L-29.55 151.3 Q-18.6 159.35 -5.25 158.8 M-29.15 155.7 L-27.8 158.1 Q-28.35 158.1 -28.75 157.4 -29.15 156.7 -29.15 155.7 M12.25 123.5 Q5.2 125.95 3.65 133.75 3.5 134.65 3.5 135.55 L2.7 136.3 -1.25 134.2 Q-1.15 130.25 0.7 126.7 L1.35 125.45 12.25 123.5 M-9.2 111.9 Q-12.9 115.55 -12.85 120.8 L-12.55 126.6 -12.95 127.05 -16.95 125.3 Q-15.05 117.35 -9.3 111.7 L-9.2 111.9 M0.35 58.75 Q7.2 46.7 16.45 55.7 18.15 57.3 17.4 59.85 12.65 76.6 18.3 92.95 L1.1 96.4 0.3 95.7 Q-0.95 84.95 -1.45 74.2 -1.8 66.4 0.35 58.75 M18.6 92.95 L19.0 92.25 19.2 92.75 18.6 92.95 M8.6 171.0 Q9.2 171.0 8.5 170.8 L8.6 171.0 M2.5 189.8 Q16.35 196.1 20.05 182.2 20.5 180.55 19.15 179.2 9.1 187.15 -0.35 178.05 L-6.15 179.05 -6.35 181.15 -9.85 178.9 Q3.55 202.55 29.4 196.9 35.2 195.65 37.4 189.9 23.95 199.1 8.75 193.35 L9.3 193.3 7.2 192.75 7.1 192.75 Q4.55 191.5 2.5 189.8 M58.8 195.2 Q52.0 173.25 53.2 150.05 50.3 167.6 54.35 184.25 L58.8 195.2 M74.7 253.85 L73.95 253.7 65.8 265.8 64.2 265.4 64.2 264.8 63.1 264.8 62.25 263.75 Q65.05 234.85 60.8 206.45 63.1 234.45 61.25 262.45 L60.45 262.7 60.15 264.05 65.8 268.75 Q69.9 261.2 75.7 254.8 L77.0 258.8 77.95 257.5 Q77.3 254.75 74.7 253.85" fill="#2f2f2f" fill-rule="evenodd" stroke="none"/>
    <path d="M-119.25 119.85 Q-103.75 122.6 -90.6 130.85 L-88.2 132.4 Q-95.7 154.55 -102.85 177.0 -107.7 192.35 -111.55 207.95 L-119.25 207.45 -119.25 183.5 Q-113.55 180.25 -109.2 175.6 L-110.05 175.6 -105.5 173.3 -105.8 172.45 -119.25 176.95 -119.25 171.6 Q-106.8 164.35 -100.8 151.25 -97.95 145.05 -98.2 138.2 -106.0 127.35 -119.25 123.6 L-119.25 119.85 M66.6 152.15 L65.1 140.6 76.35 137.3 78.05 138.4 Q69.05 142.6 66.8 152.05 L66.6 152.15 M95.15 185.7 L93.2 190.6 93.65 192.8 Q89.9 196.2 84.95 197.0 L81.6 197.25 Q87.65 196.95 89.6 191.9 L89.65 191.35 Q82.45 195.55 74.5 193.05 L70.75 180.55 Q74.6 183.6 79.0 185.35 87.05 188.75 95.15 185.7 M98.65 207.65 L98.95 208.55 Q91.9 215.8 81.45 217.9 L81.0 217.6 Q80.05 207.1 76.55 197.2 L79.85 197.3 Q82.95 203.4 84.35 210.0 91.85 211.3 98.65 207.65 M80.05 136.3 L80.05 136.15 Q80.6 136.7 80.05 136.3 M-88.25 131.9 Q-88.6 131.3 -88.25 131.75 L-88.25 131.9" fill="#5a5764" fill-rule="evenodd" stroke="none"/>
    <path d="M66.6 152.15 L66.8 152.05 Q69.05 142.6 78.05 138.4 80.45 140.15 82.55 142.2 101.85 161.0 95.15 185.7 87.05 188.75 79.0 185.35 74.6 183.6 70.75 180.55 L69.75 178.65 70.0 178.05 66.6 152.15 M93.65 192.8 L98.65 207.65 Q91.85 211.3 84.35 210.0 82.95 203.4 79.85 197.3 L81.6 197.25 84.95 197.0 Q89.9 196.2 93.65 192.8 M-119.25 123.6 Q-106.0 127.35 -98.2 138.2 -97.95 145.05 -100.8 151.25 -106.8 164.35 -119.25 171.6 L-119.25 123.6 M-110.05 175.6 L-109.2 175.6 Q-113.55 180.25 -119.25 183.5 L-119.25 179.75 Q-112.55 177.45 -111.45 176.65 L-110.05 175.6" fill="#7a7788" fill-rule="evenodd" stroke="none"/>
    <path d="M-119.25 210.85 L-112.1 211.7 Q-115.25 231.35 -116.05 251.45 L-119.25 251.35 -119.25 210.85 M33.85 165.6 L35.0 164.65 35.35 165.0 33.85 165.6 M15.9 158.3 L16.3 158.8 16.2 159.3 16.15 159.5 15.85 158.2 15.9 158.3 M36.2 153.7 L36.3 154.1 35.5 154.4 36.2 153.7" fill="#222222" fill-rule="evenodd" stroke="none"/>
    <path d="M81.45 217.9 L81.25 218.1 81.0 217.6 81.45 217.9" fill="#262626" fill-rule="evenodd" stroke="none"/>
    <path d="M-69.8 168.25 Q-73.7 152.85 -81.65 139.15 L-84.05 135.0 -83.85 134.3 Q-70.45 141.45 -56.6 147.7 -47.65 169.75 -44.9 193.35 -56.45 183.4 -66.55 171.9 L-69.8 168.25 M-88.5 144.55 L-84.45 135.8 -83.2 138.55 Q-77.45 151.15 -73.2 164.15 L-88.5 144.55" fill="#344365" fill-rule="evenodd" stroke="none"/>
    <path d="M-69.8 168.25 L-66.55 171.9 Q-56.45 183.4 -44.9 193.35 -39.2 222.8 -39.15 252.8 L-39.6 253.1 -53.4 253.35 Q-54.8 234.35 -58.0 215.45 -62.05 191.4 -69.8 168.25 M-73.2 164.15 Q-66.15 185.85 -61.55 208.3 -56.95 230.6 -55.15 253.35 L-68.7 252.75 Q-72.05 222.1 -83.55 193.35 L-96.05 161.9 -95.25 159.7 -95.05 160.25 -88.5 144.55 -73.2 164.15" fill="#435681" fill-rule="evenodd" stroke="none"/>
  </g>
</svg>
