<?xml version="1.0" encoding="UTF-8" standalone="no"?>
<svg xmlns:xlink="http://www.w3.org/1999/xlink" height="436.75px" width="217.3px" xmlns="http://www.w3.org/2000/svg">
  <g transform="matrix(1.0, 0.0, 0.0, 1.0, 115.7, 183.3)">
    <path d="M54.75 -2.1 L56.65 -2.3 Q66.9 -3.75 77.65 -6.55 L77.95 -5.8 Q76.1 -3.45 63.55 -1.15 L57.3 -0.1 54.85 0.2 Q35.55 2.85 16.25 0.8 -6.5 -1.75 -27.5 -11.35 L-31.45 -13.1 Q-41.15 -17.05 -49.1 -24.0 L-32.35 -18.05 -28.5 -16.6 Q-6.15 -7.5 17.5 -2.95 36.0 0.8 54.75 -2.1 M56.55 13.85 L62.25 13.85 64.0 13.85 64.8 13.85 69.8 13.95 Q66.9 15.4 64.7 17.95 53.85 30.4 62.95 43.95 L59.45 42.95 50.35 40.7 45.75 39.6 Q30.05 36.95 14.3 35.2 -7.95 32.25 -30.25 30.15 L-36.25 30.35 -49.2 30.0 -64.75 31.15 Q-58.6 29.6 -55.95 23.9 -48.35 7.4 -62.6 -4.4 L-60.1 -3.95 Q-51.25 -2.15 -43.2 1.6 L-35.4 4.95 -31.4 6.3 Q-8.7 10.4 14.25 12.5 L49.7 14.35 56.55 13.85 M89.25 20.2 L90.9 22.05 91.2 22.15 91.35 22.1 91.45 21.9 Q97.6 8.1 94.6 -6.35 L90.35 -18.45 90.3 -18.6 Q88.7 -23.15 89.95 -27.5 L90.2 -28.25 91.05 -28.4 90.7 -73.2 Q90.65 -82.3 88.9 -91.35 87.7 -97.5 84.05 -102.35 76.05 -112.95 65.4 -120.85 28.95 -148.05 -16.7 -152.75 -21.75 -153.4 -26.75 -152.5 -45.15 -152.65 -62.65 -157.55 L-35.65 -157.8 -48.75 -160.75 Q-56.4 -162.4 -63.7 -164.85 L-58.5 -165.25 Q-68.5 -170.45 -77.95 -176.65 -79.1 -177.4 -80.35 -177.3 -89.85 -178.25 -95.75 -169.75 -109.75 -149.6 -115.7 -125.55 L-114.55 -135.9 Q-113.9 -141.15 -112.6 -146.2 -107.65 -165.6 -93.75 -180.1 -91.1 -182.85 -87.25 -183.15 -74.6 -184.45 -64.6 -175.55 -56.6 -168.5 -46.65 -165.1 -42.25 -163.45 -37.65 -162.5 L-19.65 -159.4 Q25.65 -151.95 64.45 -128.0 77.3 -120.05 86.05 -108.0 95.3 -95.35 95.2 -79.8 L95.65 -25.1 96.15 -24.8 94.9 -20.65 97.2 -14.9 Q100.45 -6.3 99.65 2.7 98.55 14.8 93.05 25.9 95.0 29.6 96.0 33.75 96.5 35.8 96.05 37.65 88.05 68.95 83.5 101.25 83.05 104.5 81.5 107.35 75.4 118.8 65.25 127.05 L72.65 135.35 Q86.7 150.7 90.75 170.9 92.0 176.95 86.95 180.85 93.15 187.9 97.0 196.35 97.75 197.9 96.6 199.25 95.05 201.15 92.7 202.25 L95.0 209.25 Q101.6 230.85 101.6 253.45 L95.65 253.45 95.2 243.55 Q95.05 238.6 94.2 233.85 91.65 219.1 90.05 203.9 79.5 210.55 67.95 215.2 55.6 220.2 42.7 219.55 L41.15 253.45 -115.7 253.45 -115.7 236.7 Q-90.65 237.7 -66.1 240.75 L-43.9 243.6 7.45 250.15 33.65 253.05 35.7 253.25 Q40.1 233.7 39.15 213.65 L37.05 211.45 37.25 212.6 36.55 212.9 Q28.2 212.4 20.2 209.5 L-6.65 202.35 Q-40.55 194.75 -86.25 192.7 L-106.95 192.0 -115.7 191.9 -115.7 187.8 Q-109.1 187.35 -98.65 187.8 L-96.25 187.9 -74.7 189.45 Q-43.55 192.25 -16.3 196.5 L2.15 200.45 4.5 201.05 Q21.05 204.9 36.9 211.3 L35.45 209.35 Q32.4 205.45 32.9 200.45 32.75 193.0 31.05 185.95 26.55 167.4 30.7 149.3 L22.65 152.3 19.95 153.05 Q11.65 155.35 3.6 155.65 L1.25 155.7 -10.65 155.65 Q-36.7 155.1 -58.15 140.7 L-58.7 141.5 -60.8 138.75 -61.6 138.9 -61.6 138.8 -74.55 130.0 -74.8 130.85 -76.35 128.25 -77.4 128.45 -82.6 124.6 -83.3 124.05 -84.55 123.3 -97.5 114.95 -106.65 109.6 -115.7 134.25 -115.7 119.7 -109.8 107.85 -115.7 104.4 -115.7 97.65 -100.3 107.0 -71.1 127.35 -55.95 136.75 -52.95 138.5 Q-31.2 150.95 -6.4 151.55 13.0 152.05 30.95 145.1 L36.35 142.8 Q47.15 137.85 56.35 130.4 73.55 116.6 79.65 95.7 84.15 80.3 87.1 64.35 88.6 56.3 91.9 48.95 96.35 38.9 91.45 29.7 90.45 23.6 86.8 18.5 L86.1 17.45 89.25 20.2 M-115.7 -64.25 L-114.95 -64.6 -115.7 -63.3 -115.7 -64.25 M90.95 35.5 L90.8 38.45 Q88.95 47.25 80.1 48.45 L79.1 48.4 Q88.7 45.75 90.95 35.5 M51.85 59.6 L63.1 64.5 62.85 65.05 49.7 60.9 45.6 59.65 Q30.4 55.1 14.7 52.75 -8.75 49.35 -32.5 47.95 L-34.25 47.85 -32.3 47.8 Q-14.75 45.55 2.85 47.1 26.05 49.65 47.8 58.0 L51.85 59.6 M65.35 134.4 L62.3 129.6 49.3 139.25 Q40.05 145.3 31.1 149.15 L32.9 167.85 Q32.9 171.55 34.55 179.95 L35.4 184.2 45.4 190.5 Q45.3 190.9 45.6 191.6 45.65 192.05 44.1 192.05 39.65 192.05 36.35 188.45 L36.0 188.1 36.55 192.85 Q37.0 201.1 40.0 207.3 42.8 213.2 42.8 215.5 L42.8 216.25 Q46.85 214.7 51.05 214.8 71.1 211.8 91.2 196.35 L92.0 195.7 85.0 182.8 77.5 189.85 Q71.3 195.2 68.55 195.7 L68.05 194.95 77.35 184.65 Q86.0 174.75 86.0 173.05 L86.0 172.65 Q85.45 164.0 80.45 156.65 L65.35 134.4 M-94.65 3.3 Q-91.0 -1.05 -85.5 -2.9 L-89.7 -3.45 -80.7 -4.6 Q-86.25 -1.7 -88.75 3.85 -95.6 19.15 -82.45 28.9 L-84.25 27.95 Q-92.8 23.35 -96.95 15.2 L-97.25 11.65 Q-97.3 6.8 -94.65 3.3 M-104.2 39.8 Q-104.25 49.3 -111.65 55.95 L-112.6 56.7 -104.55 38.5 -104.2 39.8 M-115.7 52.6 L-115.7 45.25 Q-109.1 22.85 -107.15 -0.35 -106.75 4.45 -106.85 9.3 -107.2 31.8 -115.7 52.6 M-48.25 211.75 Q-72.55 205.95 -97.5 203.25 -65.8 203.25 -35.65 212.8 -16.95 218.75 0.6 227.45 L-0.85 226.9 Q-23.9 217.5 -48.25 211.75" fill="#000000" fill-rule="evenodd" stroke="none"/>
    <path d="M-16.95 -107.5 Q-15.95 -116.25 -10.1 -122.55 -7.1 -125.85 -2.8 -126.75 11.15 -129.15 24.55 -125.25 26.35 -124.8 27.95 -123.8 42.65 -114.15 48.55 -97.6 25.4 -104.25 1.4 -106.1 L-16.95 -107.5 M-115.7 191.9 L-106.95 192.0 -115.7 197.2 -115.7 191.9 M20.2 209.5 Q28.2 212.4 36.55 212.9 L37.25 212.6 37.05 211.45 39.15 213.65 Q40.1 233.7 35.7 253.25 L33.65 253.05 Q29.35 243.2 23.25 234.5 28.35 230.0 32.1 224.4 L32.25 223.6 Q29.35 214.5 20.2 209.5 M-115.7 214.75 Q-114.95 216.8 -114.9 217.4 L-115.7 218.15 -115.7 214.75" fill="#740d10" fill-rule="evenodd" stroke="none"/>
    <path d="M48.55 -97.6 Q42.65 -114.15 27.95 -123.8 26.35 -124.8 24.55 -125.25 11.15 -129.15 -2.8 -126.75 -7.1 -125.85 -10.1 -122.55 -15.95 -116.25 -16.95 -107.5 -17.05 -86.45 -21.1 -65.75 -25.8 -41.4 -28.5 -16.6 L-32.35 -18.05 Q-31.25 -29.85 -29.2 -41.35 -26.25 -57.8 -24.35 -74.35 L-20.45 -107.65 Q-19.3 -123.35 -5.75 -129.5 -2.6 -130.9 0.9 -131.0 L21.9 -128.9 Q29.25 -127.65 34.9 -122.55 47.35 -111.5 53.2 -95.6 62.15 -71.65 62.2 -46.15 62.2 -42.85 61.8 -39.55 59.45 -20.8 56.65 -2.3 L54.75 -2.1 Q54.15 -4.55 54.7 -7.1 59.0 -27.65 58.4 -48.65 57.7 -73.95 48.55 -97.6 M57.3 -0.1 L57.6 0.55 Q61.0 7.65 56.55 13.85 L49.7 14.35 Q53.75 12.3 55.35 6.85 L56.0 5.45 54.85 0.2 57.3 -0.1 M36.35 142.8 L30.95 145.1 Q41.4 130.3 41.5 111.6 41.5 107.1 42.7 102.75 48.1 83.3 46.35 63.6 46.2 61.6 45.6 59.65 L49.7 60.9 Q51.65 66.8 50.8 73.15 49.4 83.6 47.3 93.75 45.2 104.0 43.6 114.3 42.55 121.2 42.3 128.2 42.05 136.5 36.35 142.8 M-52.95 138.5 L-55.95 136.75 Q-45.75 122.4 -43.45 104.65 -42.2 95.1 -40.45 85.4 -36.85 65.65 -35.85 45.5 L-34.8 45.5 Q-33.15 41.35 -33.75 37.1 -34.25 33.5 -36.25 30.35 L-30.25 30.15 Q-30.1 38.7 -31.9 47.0 L-32.3 47.8 -34.25 47.85 -32.5 47.95 -34.05 49.35 Q-34.25 73.55 -38.4 97.65 -41.7 116.9 -49.65 134.2 -50.85 136.75 -52.95 138.5 M-84.55 123.3 L-83.3 124.05 -83.3 124.1 Q-93.05 145.85 -95.15 169.55 -95.95 178.7 -96.25 187.9 L-98.65 187.8 -98.45 179.55 Q-97.1 155.4 -90.15 132.4 -88.5 127.05 -84.55 123.3 M-77.4 128.45 L-76.35 128.25 -74.8 130.85 -77.15 138.3 Q-83.8 163.5 -61.95 179.15 L-59.0 181.15 Q-67.65 165.65 -64.3 147.55 L-61.8 139.25 -61.6 138.9 -60.8 138.75 -58.7 141.5 Q-65.3 159.95 -57.95 178.05 -56.55 181.4 -55.3 184.85 L-55.85 185.3 Q-77.05 178.5 -81.95 156.05 -82.7 152.55 -82.55 148.9 -82.2 138.0 -77.4 128.45 M1.25 155.7 L3.6 155.65 Q3.5 174.85 4.2 193.9 L4.5 201.05 2.15 200.45 1.3 187.8 Q0.2 171.75 1.25 155.7 M19.95 153.05 L22.65 152.3 21.4 152.85 20.4 153.3 20.15 153.65 Q19.95 153.7 19.95 153.05 M50.35 40.7 L50.85 42.6 Q54.15 50.85 51.85 59.6 L47.8 58.0 Q51.7 49.35 46.45 41.0 L45.75 39.6 50.35 40.7 M-27.5 -11.35 Q-25.45 -5.75 -26.8 0.05 -27.75 4.05 -31.4 6.3 L-35.4 4.95 Q-29.6 0.6 -29.55 -6.3 -29.55 -9.9 -31.45 -13.1 L-27.5 -11.35" fill="#35060c" fill-rule="evenodd" stroke="none"/>
    <path d="M53.2 -95.6 Q47.35 -111.5 34.9 -122.55 29.25 -127.65 21.9 -128.9 L0.9 -131.0 Q-2.6 -130.9 -5.75 -129.5 -19.3 -123.35 -20.45 -107.65 L-27.25 -108.15 Q-51.9 -109.45 -71.85 -95.5 -92.85 -80.8 -102.75 -57.2 -112.25 -34.55 -112.1 -9.85 L-115.7 -12.55 -115.7 -63.3 -114.95 -64.6 -115.7 -64.25 -115.7 -125.55 Q-109.75 -149.6 -95.75 -169.75 -89.85 -178.25 -80.35 -177.3 -79.1 -177.4 -77.95 -176.65 -68.5 -170.45 -58.5 -165.25 L-63.7 -164.85 Q-56.4 -162.4 -48.75 -160.75 L-35.65 -157.8 -62.65 -157.55 Q-45.15 -152.65 -26.75 -152.5 -21.75 -153.4 -16.7 -152.75 28.95 -148.05 65.4 -120.85 76.05 -112.95 84.05 -102.35 87.7 -97.5 88.9 -91.35 90.65 -82.3 90.7 -73.2 L91.05 -28.4 90.2 -28.25 89.95 -27.5 Q88.9 -44.55 84.55 -61.1 77.85 -86.4 53.2 -95.6 M94.6 -6.35 Q93.05 -9.0 91.9 -11.95 90.65 -15.1 90.35 -18.45 L94.6 -6.35 M-115.7 134.25 L-106.65 109.6 -97.5 114.95 -100.3 118.65 Q-110.35 133.2 -115.7 150.05 L-115.7 134.25 M22.65 152.3 L30.7 149.3 Q26.55 167.4 31.05 185.95 32.75 193.0 32.9 200.45 L21.4 152.85 22.65 152.3" fill="#4a4f31" fill-rule="evenodd" stroke="none"/>
    <path d="M48.55 -97.6 Q57.7 -73.95 58.4 -48.65 59.0 -27.65 54.7 -7.1 54.15 -4.55 54.75 -2.1 36.0 0.8 17.5 -2.95 -6.15 -7.5 -28.5 -16.6 -25.8 -41.4 -21.1 -65.75 -17.05 -86.45 -16.95 -107.5 L1.4 -106.1 Q25.4 -104.25 48.55 -97.6 M30.95 145.1 Q13.0 152.05 -6.4 151.55 -31.2 150.95 -52.95 138.5 -50.85 136.75 -49.65 134.2 -41.7 116.9 -38.4 97.65 -34.25 73.55 -34.05 49.35 L-32.5 47.95 Q-8.75 49.35 14.7 52.75 30.4 55.1 45.6 59.65 46.2 61.6 46.35 63.6 48.1 83.3 42.7 102.75 41.5 107.1 41.5 111.6 41.4 130.3 30.95 145.1 M-82.6 124.6 L-77.4 128.45 Q-82.2 138.0 -82.55 148.9 -82.7 152.55 -81.95 156.05 -77.05 178.5 -55.85 185.3 L-55.3 184.85 Q-56.55 181.4 -57.95 178.05 -65.3 159.95 -58.7 141.5 L-58.15 140.7 Q-36.7 155.1 -10.65 155.65 L1.25 155.7 Q0.2 171.75 1.3 187.8 L2.15 200.45 -16.3 196.5 Q-43.55 192.25 -74.7 189.45 L-96.25 187.9 Q-95.95 178.7 -95.15 169.55 -93.05 145.85 -83.3 124.1 L-82.6 124.6 M-106.95 192.0 L-86.25 192.7 Q-40.55 194.75 -6.65 202.35 L20.2 209.5 Q29.35 214.5 32.25 223.6 L32.1 224.4 Q28.35 230.0 23.25 234.5 29.35 243.2 33.65 253.05 L7.45 250.15 -43.9 243.6 -66.1 240.75 Q-90.65 237.7 -115.7 236.7 L-115.7 218.15 -114.9 217.4 Q-114.95 216.8 -115.7 214.75 L-115.7 197.2 -106.95 192.0 M54.85 0.2 L56.0 5.45 55.35 6.85 Q53.75 12.3 49.7 14.35 L14.25 12.5 Q-8.7 10.4 -31.4 6.3 -27.75 4.05 -26.8 0.05 -25.45 -5.75 -27.5 -11.35 -6.5 -1.75 16.25 0.8 35.55 2.85 54.85 0.2 M45.75 39.6 L46.45 41.0 Q51.7 49.35 47.8 58.0 26.05 49.65 2.85 47.1 -14.75 45.55 -32.3 47.8 L-31.9 47.0 Q-30.1 38.7 -30.25 30.15 -7.95 32.25 14.3 35.2 30.05 36.95 45.75 39.6 M-48.25 211.75 Q-23.9 217.5 -0.85 226.9 L0.6 227.45 Q-16.95 218.75 -35.65 212.8 -65.8 203.25 -97.5 203.25 -72.55 205.95 -48.25 211.75" fill="#540a11" fill-rule="evenodd" stroke="none"/>
    <path d="M56.65 -2.3 Q59.45 -20.8 61.8 -39.55 62.2 -42.85 62.2 -46.15 62.15 -71.65 53.2 -95.6 77.85 -86.4 84.55 -61.1 88.9 -44.55 89.95 -27.5 88.7 -23.15 90.3 -18.6 L90.35 -18.45 Q90.65 -15.1 91.9 -11.95 93.05 -9.0 94.6 -6.35 97.6 8.1 91.45 21.9 L91.35 22.1 91.2 22.15 90.9 22.05 89.25 20.2 89.6 19.55 89.9 20.0 90.55 19.35 Q90.7 14.5 86.9 11.65 78.0 4.9 68.05 9.6 L74.35 10.3 62.25 13.85 56.55 13.85 Q61.0 7.65 57.6 0.55 L57.3 -0.1 63.55 -1.15 Q76.1 -3.45 77.95 -5.8 L77.65 -6.55 Q66.9 -3.75 56.65 -2.3 M-20.45 -107.65 L-24.35 -74.35 Q-26.25 -57.8 -29.2 -41.35 -31.25 -29.85 -32.35 -18.05 L-49.1 -24.0 Q-41.15 -17.05 -31.45 -13.1 -29.55 -9.9 -29.55 -6.3 -29.6 0.6 -35.4 4.95 L-43.2 1.6 Q-50.7 -3.6 -58.15 -7.25 L-53.55 -6.15 Q-60.75 -11.6 -70.4 -12.05 L-64.25 -11.95 Q-76.65 -14.3 -87.95 -8.7 L-85.8 -8.55 -86.1 -7.5 -87.75 -6.6 Q-93.4 -3.15 -94.65 3.3 -97.3 6.8 -97.25 11.65 L-96.95 15.2 Q-98.35 20.1 -95.75 24.4 -92.3 30.1 -86.4 33.15 L-90.8 31.6 -88.6 34.0 -83.1 35.6 -85.9 35.5 -85.65 36.35 Q-82.55 38.5 -79.0 39.7 -71.85 42.3 -64.8 39.9 L-67.15 39.1 -62.3 38.45 Q-55.15 37.0 -48.9 33.0 L-57.8 34.85 -57.95 34.45 -59.2 34.45 -49.2 30.0 -36.25 30.35 Q-34.25 33.5 -33.75 37.1 -33.15 41.35 -34.8 45.5 L-35.85 45.5 Q-36.85 65.65 -40.45 85.4 -42.2 95.1 -43.45 104.65 -45.75 122.4 -55.95 136.75 L-71.1 127.35 -100.3 107.0 -115.7 97.65 -115.7 52.6 Q-107.2 31.8 -106.85 9.3 -106.75 4.45 -107.15 -0.35 -109.1 22.85 -115.7 45.25 L-115.7 -12.55 -112.1 -9.85 Q-112.25 -34.55 -102.75 -57.2 -92.85 -80.8 -71.85 -95.5 -51.9 -109.45 -27.25 -108.15 L-20.45 -107.65 M91.45 29.7 Q96.35 38.9 91.9 48.95 88.6 56.3 87.1 64.35 84.15 80.3 79.65 95.7 73.55 116.6 56.35 130.4 47.15 137.85 36.35 142.8 42.05 136.5 42.3 128.2 42.55 121.2 43.6 114.3 45.2 104.0 47.3 93.75 49.4 83.6 50.8 73.15 51.65 66.8 49.7 60.9 L62.85 65.05 63.1 64.5 51.85 59.6 Q54.15 50.85 50.85 42.6 L50.35 40.7 59.45 42.95 Q63.25 47.65 67.2 51.15 L65.3 50.4 65.55 51.25 66.0 51.35 66.55 52.6 64.4 51.7 Q74.65 58.35 84.35 52.35 L82.9 51.8 84.45 50.8 Q90.8 46.25 90.8 38.45 L90.95 35.5 Q91.9 32.35 91.45 29.7 M-97.5 114.95 L-84.55 123.3 Q-88.5 127.05 -90.15 132.4 -97.1 155.4 -98.45 179.55 L-98.65 187.8 Q-109.1 187.35 -115.7 187.8 L-115.7 150.05 Q-110.35 133.2 -100.3 118.65 L-97.5 114.95 M3.6 155.65 Q11.65 155.35 19.95 153.05 19.95 153.7 20.15 153.65 L20.4 153.3 21.4 152.85 32.9 200.45 Q32.4 205.45 35.45 209.35 L36.9 211.3 Q21.05 204.9 4.5 201.05 L4.2 193.9 Q3.5 174.85 3.6 155.65 M64.0 13.85 L65.75 13.35 64.8 13.85 64.0 13.85 M-83.7 -8.55 L-82.6 -8.6 -84.05 -8.2 -83.7 -8.55 M-104.2 39.8 L-104.55 38.5 -112.6 56.7 -111.65 55.95 Q-104.25 49.3 -104.2 39.8" fill="#3d3f27" fill-rule="evenodd" stroke="none"/>
    <path d="M62.25 13.85 L74.35 10.3 68.05 9.6 Q78.0 4.9 86.9 11.65 90.7 14.5 90.55 19.35 L89.9 20.0 89.6 19.55 89.25 20.2 86.1 17.45 86.8 18.5 Q90.45 23.6 91.45 29.7 91.9 32.35 90.95 35.5 88.7 45.75 79.1 48.4 L80.1 48.45 Q88.95 47.25 90.8 38.45 90.8 46.25 84.45 50.8 L82.9 51.8 84.35 52.35 Q74.65 58.35 64.4 51.7 L66.55 52.6 66.0 51.35 65.55 51.25 65.3 50.4 67.2 51.15 Q63.25 47.65 59.45 42.95 L62.95 43.95 Q53.85 30.4 64.7 17.95 66.9 15.4 69.8 13.95 L64.8 13.85 65.75 13.35 64.0 13.85 62.25 13.85 M87.35 35.8 Q91.45 26.1 83.2 19.25 79.0 15.7 73.5 17.5 60.8 21.85 63.6 36.05 64.55 40.7 69.05 42.5 81.15 47.5 87.35 35.8 M-96.95 15.2 Q-92.8 23.35 -84.25 27.95 L-82.45 28.9 Q-95.6 19.15 -88.75 3.85 -86.25 -1.7 -80.7 -4.6 L-89.7 -3.45 -85.5 -2.9 Q-91.0 -1.05 -94.65 3.3 -93.4 -3.15 -87.75 -6.6 L-86.1 -7.5 -85.8 -8.55 -87.95 -8.7 Q-76.65 -14.3 -64.25 -11.95 L-70.4 -12.05 Q-60.75 -11.6 -53.55 -6.15 L-58.15 -7.25 Q-50.7 -3.6 -43.2 1.6 -51.25 -2.15 -60.1 -3.95 L-62.6 -4.4 Q-48.35 7.4 -55.95 23.9 -58.6 29.6 -64.75 31.15 L-49.2 30.0 -59.2 34.45 -57.95 34.45 -57.8 34.85 -48.9 33.0 Q-55.15 37.0 -62.3 38.45 L-67.15 39.1 -64.8 39.9 Q-71.85 42.3 -79.0 39.7 -82.55 38.5 -85.65 36.35 L-85.9 35.5 -83.1 35.6 -88.6 34.0 -90.8 31.6 -86.4 33.15 Q-92.3 30.1 -95.75 24.4 -98.35 20.1 -96.95 15.2 M-83.7 -8.55 L-84.05 -8.2 -82.6 -8.6 -83.7 -8.55 M-72.05 -2.9 Q-74.3 -2.55 -76.15 -1.75 -89.75 3.7 -85.4 17.55 -82.1 28.2 -71.05 26.45 -56.1 24.35 -57.95 9.25 -59.5 -3.45 -72.05 -2.9" fill="#ff3333" fill-rule="evenodd" stroke="none"/>
    <path d="M87.35 35.8 Q81.15 47.5 69.05 42.5 64.55 40.7 63.6 36.05 60.8 21.85 73.5 17.5 79.0 15.7 83.2 19.25 91.45 26.1 87.35 35.8 M79.9 21.2 Q78.4 20.5 76.9 20.75 66.55 21.35 67.95 31.65 68.65 37.05 73.35 38.15 83.35 40.1 85.7 30.55 86.05 23.7 79.9 21.2 M-72.05 -2.9 Q-59.5 -3.45 -57.95 9.25 -56.1 24.35 -71.05 26.45 -82.1 28.2 -85.4 17.55 -89.75 3.7 -76.15 -1.75 -74.3 -2.55 -72.05 -2.9 M-76.35 19.75 Q-66.85 24.55 -62.05 14.8 -60.3 11.3 -61.95 7.7 -66.45 -2.3 -76.3 3.15 -82.05 7.35 -80.45 14.4 -79.6 18.05 -76.35 19.75" fill="#ffb5b4" fill-rule="evenodd" stroke="none"/>
    <path d="M79.9 21.2 Q86.05 23.7 85.7 30.55 83.35 40.1 73.35 38.15 68.65 37.05 67.95 31.65 66.55 21.35 76.9 20.75 78.4 20.5 79.9 21.2 M-76.35 19.75 Q-79.6 18.05 -80.45 14.4 -82.05 7.35 -76.3 3.15 -66.45 -2.3 -61.95 7.7 -60.3 11.3 -62.05 14.8 -66.85 24.55 -76.35 19.75" fill="#ffffff" fill-rule="evenodd" stroke="none"/>
    <path d="M-115.7 104.4 L-109.8 107.85 -115.7 119.7 -115.7 104.4 M65.35 134.4 L56.7 147.2 Q60.0 159.75 67.8 170.25 73.3 177.55 69.35 185.3 L86.0 172.65 86.0 173.05 Q86.0 174.75 77.35 184.65 L68.05 194.95 68.55 195.7 Q71.3 195.2 77.5 189.85 L82.5 192.7 91.2 196.35 Q71.1 211.8 51.05 214.8 46.85 214.7 42.8 216.25 L42.8 215.5 Q42.8 213.2 40.0 207.3 37.0 201.1 36.55 192.85 L36.0 188.1 36.35 188.45 Q39.65 192.05 44.1 192.05 45.65 192.05 45.6 191.6 45.3 190.9 45.4 190.5 L35.4 184.2 34.55 179.95 Q32.9 171.55 32.9 167.85 L31.1 149.15 Q40.05 145.3 49.3 139.25 L62.3 129.6 65.35 134.4" fill="#444444" fill-rule="evenodd" stroke="none"/>
    <path d="M86.0 172.65 L69.35 185.3 Q73.3 177.55 67.8 170.25 60.0 159.75 56.7 147.2 L65.35 134.4 80.45 156.65 Q85.45 164.0 86.0 172.65 M91.2 196.35 L82.5 192.7 77.5 189.85 85.0 182.8 92.0 195.7 91.2 196.35" fill="#666668" fill-rule="evenodd" stroke="none"/>
    <path d="M41.15 253.45 L42.7 219.55 Q55.6 220.2 67.95 215.2 79.5 210.55 90.05 203.9 91.65 219.1 94.2 233.85 95.05 238.6 95.2 243.55 L95.65 253.45 41.15 253.45" fill="#262626" fill-rule="evenodd" stroke="none"/>
    <path d="M-74.8 130.85 L-74.55 130.0 -61.6 138.8 -61.8 139.25 -64.3 147.55 Q-70.1 144.95 -74.3 141.2 L-77.15 138.3 -74.8 130.85" fill="#b7940d" fill-rule="evenodd" stroke="none"/>
    <path d="M-77.15 138.3 L-74.3 141.2 Q-70.1 144.95 -64.3 147.55 -67.65 165.65 -59.0 181.15 L-61.95 179.15 Q-83.8 163.5 -77.15 138.3" fill="#d8af0e" fill-rule="evenodd" stroke="none"/>
  </g>
</svg>
