<?xml version="1.0" encoding="UTF-8" standalone="no"?>
<svg xmlns:xlink="http://www.w3.org/1999/xlink" height="437.75px" width="236.05px" xmlns="http://www.w3.org/2000/svg">
  <g transform="matrix(1.0, 0.0, 0.0, 1.0, 114.25, 168.5)">
    <path d="M45.7 -153.35 L33.65 -157.35 Q16.6 -161.3 -0.7 -162.25 L-1.0 -162.25 -19.6 -163.4 Q-42.95 -163.45 -66.15 -160.1 L-68.2 -159.75 -71.85 -158.95 Q-83.7 -156.2 -94.8 -151.1 L-97.8 -149.7 -100.75 -148.0 Q-106.4 -144.6 -111.05 -139.9 L-114.25 -136.1 -114.25 -144.4 Q-101.4 -156.8 -84.0 -161.45 -52.6 -169.6 -20.2 -168.35 0.55 -167.65 21.15 -164.55 29.85 -163.3 38.05 -160.65 48.6 -157.45 58.6 -152.45 72.85 -145.2 84.35 -134.05 89.9 -128.55 92.45 -121.2 88.55 -89.15 85.95 -56.95 L86.25 -59.6 79.8 28.5 90.1 44.0 Q88.75 69.15 84.3 93.65 83.9 95.85 82.75 97.6 78.55 104.15 72.5 109.05 L71.6 116.7 71.1 116.7 69.8 128.65 62.75 133.65 Q70.2 137.55 75.7 143.85 82.75 151.9 86.75 161.85 92.2 175.4 89.4 189.6 96.3 197.2 100.3 206.7 L96.05 213.45 96.65 213.25 98.45 220.7 Q96.35 220.9 94.6 221.6 L92.7 214.85 91.85 215.1 76.25 223.8 70.45 222.6 70.75 222.4 Q82.05 216.8 92.35 209.25 L92.6 208.6 93.4 208.6 95.95 206.9 88.65 194.25 88.35 193.55 87.2 195.7 85.8 195.7 Q86.2 189.45 85.8 183.3 L86.5 177.55 Q86.15 173.2 84.2 168.25 L82.4 164.5 Q76.55 147.3 60.5 135.95 L59.8 135.7 49.4 142.65 47.05 140.2 59.45 131.85 65.45 127.85 Q66.45 125.5 66.5 123.0 L66.65 120.5 66.7 119.2 67.2 116.65 Q67.65 116.8 67.7 116.35 67.8 114.65 68.05 112.95 L68.8 107.1 68.95 106.3 69.9 104.05 69.45 102.55 70.6 104.5 72.45 104.4 73.55 103.1 75.65 101.25 80.05 95.65 Q81.9 92.4 82.65 88.8 L82.65 88.65 83.0 86.05 87.05 52.85 87.35 47.4 79.3 33.85 79.3 34.45 79.25 35.2 Q79.45 32.05 78.3 29.25 L78.15 28.55 77.7 32.4 77.25 28.2 76.25 28.2 76.15 29.2 75.6 23.3 75.6 19.15 Q76.35 18.7 76.15 16.8 L76.15 16.0 76.15 15.55 76.5 14.9 Q77.7 11.45 76.7 7.5 L80.45 -43.6 81.75 -57.05 81.75 -57.15 83.25 -72.2 83.7 -77.0 84.05 -81.1 85.25 -94.05 Q86.65 -107.05 87.15 -120.05 87.25 -122.85 85.4 -125.2 69.8 -144.9 45.7 -153.35 M54.05 67.55 L37.05 59.75 Q32.45 55.4 29.95 49.55 29.6 48.85 29.4 48.15 L28.65 45.75 29.1 46.1 31.95 48.1 30.35 43.35 30.25 40.1 30.9 40.05 35.1 49.85 60.85 49.5 Q67.35 49.4 73.0 51.1 74.25 54.25 73.6 57.55 L73.3 59.85 73.1 58.95 Q72.55 60.1 71.4 60.25 57.55 63.2 43.7 59.45 50.4 63.35 55.75 68.4 L54.05 67.55 M64.3 53.05 Q54.0 49.6 43.25 51.95 L39.5 52.7 Q49.55 55.65 60.1 54.5 62.55 54.35 64.3 53.05 M-114.25 173.85 L-114.25 162.4 -111.85 147.7 Q-109.75 139.85 -105.25 132.5 -103.4 132.4 -101.35 133.15 L-102.0 134.35 Q-111.3 153.3 -112.05 174.6 -113.1 174.1 -114.25 173.85 M-15.45 43.2 L-19.25 47.1 -68.1 56.35 -68.3 56.4 Q-79.45 53.5 -84.75 42.8 -86.3 39.75 -89.05 37.4 L-88.65 35.75 -72.5 35.75 -53.7 37.45 -20.3 43.25 Q-19.1 43.35 -17.9 42.7 -14.05 40.25 -11.25 36.75 L-11.15 38.05 -15.45 43.2 M-77.95 38.65 L-78.35 38.95 -74.6 40.7 Q-60.85 46.6 -46.25 44.3 L-46.5 42.85 Q-61.75 37.35 -77.95 38.65" fill="#000000" fill-rule="evenodd" stroke="none"/>
    <path d="M45.7 -153.35 L44.3 -150.9 44.35 -150.2 48.55 -150.65 47.4 -145.75 53.0 -146.45 53.05 -147.6 54.5 -144.55 Q56.5 -145.15 57.1 -147.05 71.8 -140.25 82.65 -128.35 80.6 -129.3 78.5 -130.3 L79.3 -125.1 69.85 -114.85 69.9 -114.1 84.1 -122.05 84.65 -121.8 80.75 -107.05 81.75 -106.35 Q86.05 -102.9 80.95 -101.1 L72.8 -101.45 80.55 -114.65 Q75.8 -113.45 71.65 -111.15 62.95 -106.5 58.05 -98.0 L63.65 -94.05 57.15 -93.4 59.6 -92.85 61.15 -90.1 Q59.7 -90.2 58.35 -90.65 56.9 -91.1 55.6 -91.85 L55.95 -95.75 57.15 -95.75 56.05 -96.0 57.45 -112.9 60.3 -116.1 Q60.0 -110.15 57.85 -104.5 L57.2 -102.95 74.75 -125.65 66.9 -126.35 73.95 -130.8 71.6 -133.25 60.1 -127.15 59.4 -127.45 66.4 -131.8 70.55 -134.0 60.15 -141.0 59.3 -140.1 58.0 -140.2 57.95 -142.5 56.95 -143.05 55.9 -142.15 55.75 -143.5 55.0 -142.6 Q53.5 -140.7 51.15 -141.4 50.9 -141.4 50.7 -141.55 L50.6 -144.2 49.7 -144.15 50.05 -142.8 49.55 -142.1 47.2 -143.95 Q44.95 -139.55 43.65 -134.65 L42.8 -131.4 40.8 -130.0 Q40.6 -135.25 42.95 -140.05 L44.55 -143.7 42.95 -143.4 42.7 -144.1 39.15 -140.45 Q38.4 -144.85 42.75 -147.55 L44.0 -148.4 32.15 -152.2 32.5 -148.6 28.35 -151.2 26.0 -145.9 20.8 -151.1 Q19.3 -142.1 16.8 -133.3 L15.05 -127.35 13.95 -149.8 13.5 -150.05 13.55 -152.25 Q9.45 -149.0 4.65 -147.35 L3.3 -147.1 Q6.5 -150.15 6.7 -154.15 L6.6 -154.65 8.45 -156.25 -2.2 -156.35 -2.35 -156.75 -13.4 -157.3 -13.55 -155.1 -17.65 -155.2 -17.65 -155.1 -13.3 -149.85 -17.7 -148.3 -19.15 -149.95 -22.85 -149.8 Q-22.0 -146.55 -22.45 -143.4 L-22.8 -141.25 -23.2 -141.95 Q-24.7 -145.0 -27.5 -146.75 L-28.75 -147.4 -29.8 -146.95 -29.2 -145.5 -31.7 -136.85 -32.2 -143.7 -33.65 -144.4 -36.65 -112.6 -41.25 -147.3 Q-42.45 -142.15 -46.4 -138.5 L-47.7 -137.35 -48.4 -149.05 -58.25 -145.1 -59.95 -147.1 -57.45 -152.85 -60.1 -154.65 -63.6 -151.75 -64.2 -152.4 Q-66.0 -154.3 -68.7 -154.25 L-69.6 -154.25 Q-67.05 -148.65 -63.4 -143.75 L-60.95 -140.55 -75.55 -141.0 -72.9 -137.35 Q-63.65 -124.8 -51.8 -115.05 L-83.65 -132.65 -82.65 -130.6 -62.55 -95.65 -63.15 -96.25 -62.05 -89.95 Q-63.4 -96.55 -68.05 -101.45 L-68.15 -101.55 -92.55 -126.8 -94.25 -119.95 -98.15 -120.2 -94.55 -105.65 -97.35 -111.6 -99.2 -112.0 Q-101.75 -109.15 -101.85 -104.75 L-102.05 -102.65 -108.65 -114.3 -109.2 -113.75 -110.7 -115.65 -111.35 -115.0 -110.95 -113.1 -111.45 -111.85 -110.85 -112.2 -110.55 -112.95 -110.0 -112.6 -114.25 -85.6 -114.25 -114.7 -110.5 -128.6 -110.05 -128.25 -106.45 -131.7 Q-104.3 -123.9 -102.95 -115.65 -101.65 -122.9 -102.4 -130.4 L-101.9 -130.95 -102.2 -131.85 -101.1 -132.95 -100.5 -133.0 -100.0 -132.7 -96.65 -126.35 -95.15 -126.95 Q-94.5 -133.65 -97.6 -139.8 L-97.15 -140.35 -82.85 -121.05 -82.35 -121.6 Q-85.85 -131.45 -91.8 -139.95 L-89.7 -139.95 Q-91.8 -142.7 -90.9 -145.55 L-90.1 -146.05 Q-86.3 -140.65 -79.9 -140.05 -82.35 -142.75 -85.8 -144.7 L-83.55 -145.2 -84.4 -149.05 -83.15 -148.9 Q-76.8 -144.85 -70.2 -146.0 -73.65 -150.2 -78.5 -152.6 L-76.95 -154.0 -73.8 -153.55 -74.75 -156.0 -71.85 -158.95 -68.2 -159.75 -67.5 -159.55 Q-66.9 -158.75 -65.85 -158.6 L-65.65 -156.85 -65.25 -157.15 -56.95 -158.35 Q-55.35 -158.8 -53.85 -159.65 L-54.05 -154.45 Q-53.0 -154.8 -52.25 -155.6 L-48.35 -159.95 Q-48.05 -156.6 -49.5 -153.5 L-40.6 -157.35 Q-40.8 -156.4 -42.1 -154.4 -43.5 -152.35 -42.9 -150.0 L-41.6 -149.4 -37.95 -154.4 Q-37.4 -149.85 -38.4 -145.2 -38.6 -144.2 -38.45 -143.05 -35.4 -149.15 -34.3 -156.05 -32.05 -151.5 -27.4 -152.45 -29.8 -155.3 -29.75 -158.8 -26.5 -158.15 -23.05 -156.15 -21.7 -155.45 -20.25 -156.15 L-19.7 -156.0 -22.5 -161.4 -19.6 -163.4 -1.0 -162.25 Q1.0 -159.35 4.8 -159.35 8.8 -159.35 11.95 -156.75 11.25 -155.35 11.8 -153.8 L11.95 -153.45 Q13.15 -152.85 14.15 -153.75 L15.75 -155.35 16.35 -145.85 17.35 -145.5 18.35 -146.55 Q18.05 -151.35 19.5 -156.0 22.4 -153.2 26.25 -151.75 L26.8 -154.95 Q30.85 -154.45 33.65 -157.35 L45.7 -153.35 M80.55 -100.2 L80.7 -98.7 85.25 -94.05 84.05 -81.1 82.8 -77.35 83.7 -77.0 83.25 -72.2 80.65 -72.45 80.25 -72.7 Q79.35 -70.4 80.0 -68.2 L80.05 -68.0 76.1 -68.15 Q73.95 -69.05 71.65 -69.3 71.25 -69.1 72.15 -68.1 73.5 -66.6 75.2 -65.7 L76.6 -64.8 Q78.95 -63.4 81.4 -62.45 79.95 -60.55 77.7 -60.15 79.7 -59.55 80.6 -57.75 L81.0 -57.15 Q81.6 -50.35 78.95 -44.15 L80.45 -43.6 76.7 7.5 72.1 0.75 76.15 16.0 76.15 16.8 Q76.35 18.7 75.6 19.15 L74.1 18.8 Q74.1 18.25 74.65 18.2 L75.25 18.15 75.95 17.5 74.4 14.35 Q71.15 15.05 69.1 17.6 L58.85 15.7 55.75 13.4 60.6 13.4 Q60.25 12.0 58.7 11.25 57.3 10.6 55.65 10.45 L55.0 9.7 58.05 7.75 56.65 7.5 57.05 7.1 55.4 6.55 53.0 7.75 52.35 7.0 59.75 -0.15 59.8 -0.8 61.85 -1.9 61.55 -2.3 53.4 -0.15 Q52.65 -5.3 52.5 -10.5 L51.55 -10.4 Q51.5 -11.85 52.3 -13.4 L57.05 -22.55 Q52.7 -22.8 50.45 -19.0 52.35 -23.2 51.75 -27.6 51.65 -28.15 51.2 -28.2 L51.8 -40.3 52.0 -40.65 Q56.05 -43.3 54.95 -47.05 L52.3 -45.6 53.05 -56.3 54.6 -58.75 54.6 -52.4 58.6 -53.3 53.05 -32.1 53.5 -31.35 53.5 -30.95 53.9 -28.9 Q56.1 -28.2 56.95 -26.05 L71.25 -35.3 Q64.35 -29.4 59.8 -21.6 L59.8 -21.45 59.85 -21.3 60.0 -20.9 Q60.3 -18.4 62.5 -15.8 L63.45 -14.6 65.5 -11.7 67.6 -8.0 68.6 -8.1 68.75 -8.2 68.95 -8.6 73.7 -10.3 Q76.4 -20.85 74.65 -31.75 L73.65 -32.9 Q74.85 -34.95 74.45 -37.25 L74.05 -39.55 73.65 -43.55 78.2 -49.9 76.95 -50.25 78.65 -52.85 70.95 -53.6 75.1 -58.1 66.8 -61.75 71.9 -65.5 Q64.25 -70.7 57.05 -76.35 55.95 -77.25 55.3 -78.65 L75.75 -70.7 Q76.15 -72.05 75.7 -73.45 L73.0 -81.4 77.05 -76.8 78.95 -76.3 81.0 -89.5 80.0 -89.95 79.85 -93.4 76.3 -94.9 80.55 -100.2 M-111.05 -139.9 Q-106.4 -144.6 -100.75 -148.0 L-97.8 -149.7 -111.05 -139.9 M49.6 -13.15 L49.6 -13.8 50.95 -15.5 49.6 -13.15 M48.85 2.9 L49.7 1.4 49.05 3.45 48.85 3.45 48.85 2.9 M56.3 -5.6 L58.05 -4.9 59.55 -5.75 60.15 -3.95 64.7 -6.15 58.0 -17.85 54.5 -7.45 56.65 -8.4 56.3 -5.6 M72.8 -2.0 L72.3 -2.35 73.1 -7.45 69.6 -4.65 73.9 2.65 72.25 -1.6 72.8 -2.0 M81.75 -57.15 L81.75 -57.05 81.65 -57.15 81.75 -57.15 M82.7 62.95 L83.75 63.5 83.9 61.35 83.25 62.1 83.4 60.5 Q81.9 61.0 81.0 62.3 79.1 65.2 76.75 67.8 L77.0 68.3 79.85 66.0 79.1 72.05 82.45 73.55 83.45 66.8 80.75 65.25 82.7 62.95 M84.2 51.3 L81.95 46.0 80.45 61.1 84.1 57.55 84.2 51.3 M83.0 86.05 L82.4 86.25 82.2 87.8 82.65 88.65 82.65 88.8 Q81.9 92.4 80.05 95.65 81.15 93.3 80.95 90.65 L80.85 90.3 77.7 91.2 78.15 87.1 80.85 79.95 81.3 79.95 81.35 79.2 78.6 79.1 80.15 78.5 Q82.65 77.45 83.35 76.3 L82.85 75.6 Q81.9 75.45 79.1 76.4 76.4 77.4 75.3 78.55 L77.0 60.5 79.05 43.2 78.5 43.2 79.25 35.2 79.3 34.45 87.25 47.8 87.05 52.85 83.0 86.05 M71.25 6.7 Q69.4 1.9 66.8 -2.45 L57.4 4.95 64.7 2.5 57.9 9.45 68.75 10.65 59.9 13.9 63.45 14.75 63.65 14.3 Q66.4 14.75 68.8 13.45 69.5 13.15 69.85 12.55 L72.05 9.05 71.25 6.7 M68.8 107.1 L68.05 112.95 67.6 112.95 67.2 116.65 66.7 119.2 65.6 117.7 66.25 123.9 66.65 120.5 66.5 123.0 Q66.45 125.5 65.45 127.85 L59.45 131.85 56.65 132.85 Q54.9 130.1 55.1 126.8 L52.45 130.65 52.35 131.9 49.95 129.8 49.95 128.45 Q48.55 127.2 48.65 125.15 L44.45 138.4 44.05 138.5 44.05 138.2 43.05 130.95 Q41.5 133.5 42.7 136.5 L42.25 137.4 41.9 137.8 41.2 137.0 38.25 133.15 38.9 135.4 38.35 136.35 37.45 136.2 37.25 136.2 42.25 104.25 42.7 104.55 42.3 103.45 42.7 102.25 43.4 102.35 51.35 103.25 67.95 106.2 68.9 106.35 68.8 107.1 M82.4 164.5 L84.2 168.25 86.5 177.55 85.8 183.3 85.5 185.85 83.2 184.25 82.7 184.3 83.8 191.25 Q83.25 191.45 82.8 191.75 79.35 194.55 81.35 198.7 L82.2 200.25 79.95 202.05 Q87.75 200.8 88.55 207.05 88.6 207.6 88.05 208.15 80.0 216.25 70.75 222.4 L70.45 222.6 69.55 222.55 68.15 220.4 Q79.8 215.75 86.9 205.7 L81.65 206.0 81.45 205.2 71.55 205.05 71.55 203.65 78.3 199.25 77.45 197.9 75.2 199.0 Q73.45 195.05 69.8 192.4 74.45 193.65 79.05 193.65 L79.6 192.8 79.35 191.6 80.9 191.65 80.9 190.2 80.6 189.85 80.35 188.5 Q79.2 185.4 76.9 183.1 L82.4 181.35 82.45 180.4 Q83.45 179.4 83.65 178.05 84.2 174.0 81.1 171.3 L81.4 168.5 80.15 168.3 76.25 170.95 75.65 164.05 Q70.35 165.8 66.9 170.5 L67.2 168.9 Q68.2 165.85 67.35 162.85 L67.8 160.75 67.25 159.9 Q66.6 160.0 66.1 160.4 60.45 163.9 54.15 165.8 L51.8 166.35 54.3 162.7 59.6 155.4 61.75 153.5 61.55 151.9 60.35 151.85 53.8 152.7 52.25 153.0 53.6 151.85 56.65 149.45 54.3 149.65 Q54.05 148.05 52.4 148.0 L52.2 148.0 52.35 147.85 52.8 147.4 52.2 147.5 Q51.2 145.05 49.8 143.15 L60.3 136.05 62.85 139.35 58.05 140.55 55.6 145.05 66.75 150.1 65.55 151.55 Q65.25 153.65 63.8 155.45 L60.9 159.45 64.75 157.8 65.2 157.95 70.15 154.85 69.4 156.8 70.95 163.15 74.4 160.0 76.15 160.5 77.0 157.9 77.9 159.95 Q79.0 163.45 82.3 164.3 L82.4 164.5 M-114.25 162.4 L-114.25 152.6 Q-112.3 143.9 -108.5 135.95 L-106.8 132.6 -105.25 132.5 Q-109.75 139.85 -111.85 147.7 L-114.25 162.4 M62.7 113.55 L64.85 114.95 64.55 112.25 Q62.45 109.3 58.85 107.9 57.65 107.35 56.4 106.95 L56.9 111.55 55.5 109.6 54.6 108.8 53.5 108.1 53.05 106.05 47.3 104.9 47.2 104.85 47.25 104.55 46.35 104.35 46.9 109.75 46.3 109.85 42.5 127.85 42.95 127.95 43.05 128.95 43.95 129.2 44.85 127.4 45.7 124.9 45.75 127.35 Q48.25 121.25 49.6 114.55 L50.2 114.55 51.65 128.45 55.85 121.2 57.7 125.95 58.6 125.65 Q59.2 120.65 57.8 115.85 L58.6 114.75 59.25 114.8 63.3 122.1 64.0 122.25 62.85 114.95 62.3 114.9 62.15 114.35 62.7 113.55 M44.3 103.05 L44.35 103.0 44.3 103.0 44.3 103.05 M59.3 128.05 L60.3 129.4 62.6 129.05 63.45 125.95 62.1 124.25 59.9 128.65 59.3 128.05 M48.3 194.3 L46.9 192.2 48.0 191.15 48.55 191.2 49.6 190.55 49.75 191.15 59.4 183.65 52.65 200.75 52.8 201.25 50.6 197.6 55.4 188.45 48.3 194.3 M46.15 190.9 L46.05 190.65 Q46.65 187.2 48.6 184.3 L46.15 190.9 M-83.7 120.35 L-84.95 119.65 -84.2 119.15 -83.7 120.35 M53.05 201.8 L53.65 201.15 61.35 201.45 61.05 202.5 53.85 204.35 53.05 201.8 M85.1 226.65 L81.85 225.55 88.25 223.95 85.1 226.65 M8.05 242.5 Q11.75 242.0 14.05 244.7 L14.3 245.05 8.05 242.5 M-114.25 -69.4 L-111.2 -77.85 -114.25 -76.2 -114.25 -80.5 Q-111.75 -81.45 -110.15 -83.65 L-109.6 -84.35 -109.15 -84.35 Q-107.35 -86.95 -104.2 -87.7 L-109.75 -74.75 -89.4 -79.15 Q-97.4 -70.6 -108.2 -66.65 L-107.2 -66.25 -109.2 -65.2 -108.8 -64.5 -106.95 -64.15 -106.9 -63.85 -106.8 -64.0 Q-103.15 -64.0 -99.75 -62.6 -97.75 -61.7 -95.5 -61.55 L-83.9 -60.35 -82.3 -59.85 -83.65 -59.6 -81.6 -58.7 -112.25 -56.3 -112.45 -55.4 -106.85 -52.75 -103.15 -46.0 -111.35 -49.5 -112.6 -43.0 -114.25 -43.4 -114.25 -59.25 Q-109.85 -58.65 -105.6 -59.75 -105.35 -59.75 -105.15 -59.9 L-105.15 -60.65 Q-109.9 -61.65 -113.8 -64.7 L-114.25 -65.15 -114.25 -66.45 -113.9 -66.45 Q-109.15 -67.9 -105.75 -71.3 L-114.25 -69.0 -114.25 -69.4 M-114.25 -2.25 L-114.25 -14.9 -107.4 -26.3 -114.25 -2.25 M-109.35 0.5 L-108.55 0.2 -107.65 0.3 Q-107.0 1.6 -105.75 2.45 -103.6 3.75 -101.2 3.3 -98.65 2.6 -96.0 2.65 -89.0 2.8 -81.95 2.45 L-84.15 -3.4 -81.85 -3.55 -77.55 2.45 -74.05 -8.55 -66.8 3.65 -63.9 2.2 -63.15 2.65 -63.0 3.5 -62.3 3.95 -59.05 2.9 -60.2 2.4 -61.35 1.8 -62.35 1.1 -63.3 0.1 -47.85 -4.0 -65.75 -17.1 -65.5 -18.95 -49.75 -13.05 -64.5 -27.1 Q-86.35 -13.5 -108.25 0.05 -100.2 -6.05 -92.45 -12.45 -80.55 -22.25 -67.45 -29.9 L-76.5 -40.45 -63.6 -32.05 -60.45 -33.75 -49.65 -39.3 -49.45 -38.9 -38.55 -45.35 -41.0 -53.9 -36.95 -46.2 -34.6 -47.95 -34.3 -47.55 -30.45 -49.5 -31.15 -50.6 -30.45 -51.7 -30.7 -52.6 -32.05 -52.35 Q-33.75 -57.85 -37.55 -62.2 L-38.35 -63.05 -38.8 -62.8 Q-41.75 -64.05 -44.55 -65.65 -45.95 -66.45 -47.55 -66.8 -52.2 -64.4 -57.6 -66.55 L-58.15 -66.65 -56.0 -59.95 -60.25 -62.35 -60.3 -63.05 -61.3 -63.25 -62.2 -53.65 -63.0 -53.45 -66.05 -39.35 -66.8 -39.35 -65.25 -63.4 -66.0 -62.35 -65.25 -66.4 -70.25 -68.1 -70.5 -67.7 -72.1 -67.7 -68.4 -70.05 -65.25 -69.45 -65.2 -72.6 -75.7 -89.85 Q-70.1 -83.55 -62.95 -77.85 -62.45 -80.95 -60.45 -83.3 L-60.5 -80.75 Q-57.25 -93.15 -51.55 -104.7 -54.95 -89.45 -60.75 -75.3 L-54.5 -82.45 -59.75 -72.6 -54.65 -73.8 -54.4 -72.7 -48.7 -77.3 Q-52.3 -71.75 -57.85 -68.3 L-52.45 -67.7 -35.25 -68.4 -30.65 -74.65 -29.4 -74.0 -28.65 -74.4 -29.15 -73.8 -28.9 -71.15 -25.7 -71.95 Q-25.5 -68.0 -22.55 -65.5 L-21.4 -67.05 -20.25 -68.05 -20.0 -67.1 -19.45 -66.7 -21.3 -63.15 -21.9 -62.3 -25.75 -21.2 -25.2 -20.35 Q-26.25 -17.75 -25.85 -15.2 -25.7 -14.25 -25.9 -13.35 -27.75 -3.9 -28.5 5.85 L-70.85 5.1 -69.95 4.4 -72.8 0.9 -74.55 3.1 -74.55 4.5 -78.6 4.1 -78.85 2.9 -79.3 2.9 -79.75 3.1 -79.95 5.0 -79.15 5.15 -114.25 6.75 -114.25 4.2 -109.35 0.5 M-18.6 -97.8 L-18.65 -97.35 -17.8 -97.75 -17.75 -96.45 -19.1 -93.95 -19.05 -93.8 -19.15 -93.5 Q-18.9 -93.1 -17.9 -92.85 L-18.7 -87.5 -20.2 -86.15 -21.05 -86.4 -21.0 -83.85 Q-20.85 -82.7 -20.15 -81.8 -19.3 -80.7 -18.05 -80.7 L-18.6 -80.05 -20.4 -80.05 -20.45 -79.5 -21.25 -79.5 -22.0 -83.1 -24.1 -82.1 -23.7 -77.7 -32.3 -77.1 -32.25 -75.9 -50.35 -84.4 -31.1 -80.9 -30.35 -82.7 -31.5 -83.25 -35.8 -93.3 -27.4 -83.2 -28.3 -90.1 -27.85 -90.75 -26.55 -90.15 -25.4 -89.45 -23.6 -87.65 -23.45 -88.2 Q-22.45 -92.05 -22.2 -96.25 -21.45 -108.85 -16.35 -120.3 L-18.6 -97.8 M-28.55 -63.9 L-27.45 -68.4 -35.7 -65.4 -36.15 -64.4 -30.65 -53.3 -30.8 -54.4 -27.85 -50.8 -26.6 -51.45 -27.95 -53.65 -25.95 -51.8 Q-25.45 -52.0 -25.0 -52.25 L-25.0 -53.1 -24.35 -52.55 -22.8 -53.3 -24.35 -60.2 -28.55 -57.05 -29.35 -57.15 -28.55 -63.9 M-36.9 -66.65 L-45.65 -67.7 -41.35 -65.3 -38.4 -65.85 -36.9 -66.65 M-50.65 -35.2 L-60.5 -29.4 -48.35 -18.6 -47.55 -18.75 Q-45.5 -15.9 -42.35 -14.9 L-44.15 -17.35 -43.15 -16.3 -48.3 -31.6 -36.5 -19.25 -36.35 -21.15 Q-35.1 -19.3 -33.3 -18.7 L-33.0 -19.25 -34.9 -23.75 Q-34.65 -25.1 -32.9 -26.05 -32.1 -26.5 -32.15 -27.5 L-32.4 -28.75 -34.05 -33.5 -37.4 -42.3 -50.65 -35.2 M-27.5 -39.85 L-29.85 -46.15 -32.5 -44.85 -28.55 -38.7 -27.8 -39.2 -27.5 -39.85 M-34.3 -43.9 L-33.35 -43.25 -33.75 -44.2 -34.3 -43.9 M-30.0 -31.3 L-28.3 -23.1 -26.9 -21.9 -29.15 -33.45 -29.85 -33.45 -30.0 -31.3 M-43.05 121.9 L-42.75 101.35 -42.1 100.85 -42.3 99.75 -46.9 104.8 -48.7 104.65 -48.75 104.25 -48.7 103.4 Q-48.5 102.4 -47.95 101.7 L-47.3 100.65 -52.1 102.55 -50.35 99.45 -59.25 100.05 -58.55 99.15 Q-66.7 100.2 -74.0 97.3 L-76.8 97.15 -77.75 94.35 -39.45 95.75 -39.25 122.75 -43.05 121.9 M-96.35 126.2 L-95.45 124.8 -95.3 125.95 -95.5 126.5 -96.35 126.2 M-54.65 117.45 L-50.1 110.9 -48.6 111.05 -49.55 119.65 -54.65 117.45 M-73.8 104.15 L-74.55 102.75 -71.7 101.35 -73.8 104.15 M-45.5 149.25 L-46.05 149.8 -46.25 149.45 -45.5 149.25 M-48.75 150.95 L-49.0 152.2 -48.8 150.95 -48.75 150.95 M-49.25 153.35 Q-49.75 156.85 -48.5 160.2 L-46.5 160.15 -46.1 160.8 Q-46.8 164.85 -44.9 168.7 -46.8 167.85 -48.55 164.9 L-52.0 164.75 -51.2 167.0 -52.1 166.3 -52.3 165.7 -56.55 164.5 -56.3 165.25 -59.85 166.25 -59.7 167.15 -60.25 167.6 -60.5 168.0 -60.45 168.7 -53.45 168.95 -52.05 169.35 Q-47.9 171.5 -43.8 173.8 -34.6 178.9 -24.3 181.05 L-23.4 184.8 -26.2 185.45 -26.3 184.8 -27.0 184.95 -29.7 185.6 -32.45 196.8 -41.75 196.45 -42.65 190.9 Q-44.65 192.5 -46.3 194.4 -47.85 196.15 -49.5 194.5 -52.15 191.9 -49.0 187.65 L-52.95 185.9 -52.95 181.75 -54.8 181.0 Q-57.65 180.1 -60.7 180.05 L-62.55 180.05 -61.3 164.35 -58.75 163.7 -56.1 163.75 Q-52.9 163.95 -49.9 162.6 L-50.9 162.3 -49.25 153.35 M-50.6 196.55 L-52.8 196.3 -52.85 192.35 Q-51.8 195.5 -50.6 196.55 M-44.95 197.35 L-44.4 196.75 -43.6 197.4 -44.95 197.35 M-48.75 233.4 L-48.6 233.45 -48.8 233.45 -48.75 233.4 M-9.05 250.05 L-9.4 249.3 -8.65 250.1 -9.05 250.05 M-77.15 235.2 L-72.2 235.0 Q-72.25 236.85 -74.5 238.0 L-76.25 236.3 -77.15 235.2" fill="#92befe" fill-rule="evenodd" stroke="none"/>
    <path d="M80.95 -101.1 Q86.05 -102.9 81.75 -106.35 L80.75 -107.05 84.65 -121.8 84.1 -122.05 69.9 -114.1 69.85 -114.85 79.3 -125.1 78.5 -130.3 Q80.6 -129.3 82.65 -128.35 71.8 -140.25 57.1 -147.05 56.5 -145.15 54.5 -144.55 L53.05 -147.6 53.0 -146.45 47.4 -145.75 48.55 -150.65 44.35 -150.2 44.3 -150.9 45.7 -153.35 Q69.8 -144.9 85.4 -125.2 87.25 -122.85 87.15 -120.05 86.65 -107.05 85.25 -94.05 L80.7 -98.7 80.55 -100.2 Q80.5 -100.75 80.95 -101.1 M33.65 -157.35 Q30.85 -154.45 26.8 -154.95 L26.25 -151.75 Q22.4 -153.2 19.5 -156.0 18.05 -151.35 18.35 -146.55 L17.35 -145.5 16.35 -145.85 15.75 -155.35 14.15 -153.75 Q13.15 -152.85 11.95 -153.45 L11.8 -153.8 Q11.25 -155.35 11.95 -156.75 8.8 -159.35 4.8 -159.35 1.0 -159.35 -1.0 -162.25 L-0.7 -162.25 Q16.6 -161.3 33.65 -157.35 M-19.6 -163.4 L-22.5 -161.4 -19.7 -156.0 -20.25 -156.15 Q-21.7 -155.45 -23.05 -156.15 -26.5 -158.15 -29.75 -158.8 -29.8 -155.3 -27.4 -152.45 -32.05 -151.5 -34.3 -156.05 -35.4 -149.15 -38.45 -143.05 -38.6 -144.2 -38.4 -145.2 -37.4 -149.85 -37.95 -154.4 L-41.6 -149.4 -42.9 -150.0 Q-43.5 -152.35 -42.1 -154.4 -40.8 -156.4 -40.6 -157.35 L-49.5 -153.5 Q-48.05 -156.6 -48.35 -159.95 L-52.25 -155.6 Q-53.0 -154.8 -54.05 -154.45 L-53.85 -159.65 Q-55.35 -158.8 -56.95 -158.35 L-65.25 -157.15 -65.65 -156.85 -65.85 -158.6 Q-66.9 -158.75 -67.5 -159.55 L-68.2 -159.75 -66.15 -160.1 Q-42.95 -163.45 -19.6 -163.4 M-71.85 -158.95 L-74.75 -156.0 -73.8 -153.55 -76.95 -154.0 -78.5 -152.6 Q-73.65 -150.2 -70.2 -146.0 -76.8 -144.85 -83.15 -148.9 L-84.4 -149.05 -83.55 -145.2 -85.8 -144.7 Q-82.35 -142.75 -79.9 -140.05 -86.3 -140.65 -90.1 -146.05 L-90.9 -145.55 Q-91.8 -142.7 -89.7 -139.95 L-91.8 -139.95 Q-85.85 -131.45 -82.35 -121.6 L-82.85 -121.05 -97.15 -140.35 -97.6 -139.8 Q-94.5 -133.65 -95.15 -126.95 L-96.65 -126.35 -100.0 -132.7 -100.5 -133.0 -101.1 -132.95 -102.2 -131.85 -101.9 -130.95 -102.4 -130.4 Q-101.65 -122.9 -102.95 -115.65 -104.3 -123.9 -106.45 -131.7 L-110.05 -128.25 -110.5 -128.6 -114.25 -114.7 -114.25 -136.1 -111.05 -139.9 -97.8 -149.7 -94.8 -151.1 Q-83.7 -156.2 -71.85 -158.95 M52.3 -45.6 L54.95 -47.05 Q56.05 -43.3 52.0 -40.65 L52.0 -41.05 52.3 -45.6 M51.2 -28.2 Q51.65 -28.15 51.75 -27.6 52.35 -23.2 50.45 -19.0 52.7 -22.8 57.05 -22.55 L52.3 -13.4 Q51.5 -11.85 51.55 -10.4 L52.5 -10.5 Q52.65 -5.3 53.4 -0.15 L61.55 -2.3 61.85 -1.9 59.8 -0.8 59.75 -0.15 52.35 7.0 53.0 7.75 55.4 6.55 57.05 7.1 56.65 7.5 58.05 7.75 55.0 9.7 55.65 10.45 Q57.3 10.6 58.7 11.25 60.25 12.0 60.6 13.4 L55.75 13.4 58.85 15.7 49.7 13.8 49.8 13.65 49.45 13.7 48.65 13.3 Q48.05 8.6 49.05 3.45 L49.7 1.4 48.85 2.9 49.4 -12.7 49.6 -13.15 50.95 -15.5 49.6 -13.8 49.45 -13.55 51.0 -23.5 51.2 -28.2 M69.1 17.6 Q71.15 15.05 74.4 14.35 L75.95 17.5 75.25 18.15 74.65 18.2 Q74.1 18.25 74.1 18.8 L69.1 17.6 M80.45 -43.6 L78.95 -44.15 Q81.6 -50.35 81.0 -57.15 L80.6 -57.75 Q79.7 -59.55 77.7 -60.15 79.95 -60.55 81.4 -62.45 78.95 -63.4 76.6 -64.8 L75.2 -65.7 Q73.5 -66.6 72.15 -68.1 71.25 -69.1 71.65 -69.3 73.95 -69.05 76.1 -68.15 L80.05 -68.0 80.0 -68.2 Q79.35 -70.4 80.25 -72.7 L80.65 -72.45 83.25 -72.2 81.75 -57.15 81.65 -57.15 81.75 -57.05 80.45 -43.6 M82.7 62.95 L80.75 65.25 79.85 66.0 77.0 68.3 76.75 67.8 Q79.1 65.2 81.0 62.3 81.9 61.0 83.4 60.5 L83.25 62.1 82.7 62.95 M75.3 78.55 Q76.4 77.4 79.1 76.4 81.9 75.45 82.85 75.6 L83.35 76.3 Q82.65 77.45 80.15 78.5 L78.6 79.1 78.15 87.1 77.7 91.2 80.85 90.3 80.95 90.65 Q81.15 93.3 80.05 95.65 L75.65 101.25 73.7 100.95 75.15 80.8 76.15 79.3 75.3 79.15 75.3 78.55 M49.05 3.45 L48.85 3.8 48.85 3.45 49.05 3.45 M59.45 131.85 L47.05 140.2 44.45 138.4 48.65 125.15 Q48.55 127.2 49.95 128.45 L49.95 129.8 52.35 131.9 52.45 130.65 55.1 126.8 Q54.9 130.1 56.65 132.85 L59.45 131.85 M60.5 135.95 Q76.55 147.3 82.4 164.5 L82.3 164.3 Q79.0 163.45 77.9 159.95 L77.0 157.9 76.15 160.5 74.4 160.0 70.95 163.15 69.4 156.8 70.15 154.85 65.2 157.95 64.75 157.8 60.9 159.45 63.8 155.45 Q65.25 153.65 65.55 151.55 L66.75 150.1 55.6 145.05 58.05 140.55 62.85 139.35 60.3 136.05 Q60.35 135.95 60.5 135.95 M85.8 183.3 Q86.2 189.45 85.8 195.7 L87.2 195.7 87.8 195.7 88.65 194.25 95.95 206.9 93.4 208.6 92.6 208.6 92.35 209.25 Q82.05 216.8 70.75 222.4 80.0 216.25 88.05 208.15 88.6 207.6 88.55 207.05 87.75 200.8 79.95 202.05 L82.2 200.25 81.35 198.7 Q79.35 194.55 82.8 191.75 83.25 191.45 83.8 191.25 L82.7 184.3 83.2 184.25 85.5 185.85 85.8 183.3 M92.7 214.85 L94.6 221.6 85.9 226.9 85.1 226.65 88.25 223.95 81.85 225.55 74.55 225.95 73.85 225.3 92.7 214.85 M-114.25 54.55 L-114.25 52.3 -112.8 50.55 -114.25 49.1 -114.25 42.7 -113.5 44.55 -111.5 49.35 -113.55 54.9 -114.25 54.55 M38.35 136.35 L38.9 135.4 38.25 133.15 41.2 137.0 38.35 136.35 M42.25 137.4 L42.7 136.5 Q41.5 133.5 43.05 130.95 L44.05 138.2 42.25 137.4 M59.3 128.05 L59.9 128.65 62.1 124.25 63.45 125.95 62.6 129.05 60.3 129.4 59.3 128.05 M-24.1 225.95 L-38.6 224.4 -37.95 224.35 -35.45 224.15 Q-29.5 224.15 -24.1 225.95 M-97.7 111.4 L-100.85 109.45 Q-101.05 108.4 -100.6 107.6 L-100.25 107.1 -99.15 106.95 Q-97.65 109.2 -97.7 111.4 M45.7 210.0 L43.5 210.9 42.7 210.3 45.7 210.0 M50.6 197.6 L48.3 194.3 55.4 188.45 50.6 197.6 M-114.25 -76.2 L-111.2 -77.85 -114.25 -69.4 -114.25 -76.2 M-114.25 -69.0 L-105.75 -71.3 Q-109.15 -67.9 -113.9 -66.45 L-114.25 -66.45 -114.25 -69.0 M-114.25 -65.15 L-113.8 -64.7 Q-109.9 -61.65 -105.15 -60.65 L-105.15 -59.9 Q-105.35 -59.75 -105.6 -59.75 -109.85 -58.65 -114.25 -59.25 L-114.25 -65.15 M-79.15 5.15 L-79.95 5.0 -79.75 3.1 -79.3 2.9 -78.85 2.9 -78.6 4.1 -74.55 4.5 -74.55 3.1 -72.8 0.9 -69.95 4.4 -70.85 5.1 -79.15 5.15 M-21.4 -67.05 L-22.55 -65.5 Q-25.5 -68.0 -25.7 -71.95 L-28.9 -71.15 -29.15 -73.8 -28.65 -74.4 -29.4 -74.0 -30.65 -74.65 -32.25 -75.9 -32.3 -77.1 -23.7 -77.7 -24.1 -82.1 -22.0 -83.1 -21.25 -79.5 -20.45 -79.5 -20.75 -76.05 Q-20.15 -76.3 -19.5 -76.6 L-19.15 -76.55 -19.85 -72.05 -21.05 -71.85 -21.35 -67.45 -21.4 -67.05 M-46.9 139.95 L-46.65 141.05 -47.6 140.4 -46.9 139.95 M-32.45 196.8 L-32.7 198.65 -39.55 197.9 -43.6 197.4 -44.4 196.75 -44.95 197.35 -47.8 196.95 -50.6 196.55 Q-51.8 195.5 -52.85 192.35 L-52.95 185.9 -49.0 187.65 Q-52.15 191.9 -49.5 194.5 -47.85 196.15 -46.3 194.4 -44.65 192.5 -42.65 190.9 L-41.75 196.45 -32.45 196.8 M-20.55 170.3 L-16.15 172.0 -16.8 175.25 -17.1 174.5 Q-18.05 171.9 -20.55 170.3" fill="#cce1ff" fill-rule="evenodd" stroke="none"/>
    <path d="M-114.25 -85.6 L-110.0 -112.6 -110.55 -112.95 -110.85 -112.2 -111.45 -111.85 -110.95 -113.1 -111.35 -115.0 -110.7 -115.65 -109.2 -113.75 -108.65 -114.3 -102.05 -102.65 -101.85 -104.75 Q-101.75 -109.15 -99.2 -112.0 L-97.35 -111.6 -94.55 -105.65 -98.15 -120.2 -94.25 -119.95 -92.55 -126.8 -68.15 -101.55 -68.05 -101.45 Q-63.4 -96.55 -62.05 -89.95 L-63.15 -96.25 -62.55 -95.65 -82.65 -130.6 -83.65 -132.65 -51.8 -115.05 Q-63.65 -124.8 -72.9 -137.35 L-75.55 -141.0 -60.95 -140.55 -63.4 -143.75 Q-67.05 -148.65 -69.6 -154.25 L-68.7 -154.25 Q-66.0 -154.3 -64.2 -152.4 L-63.6 -151.75 -60.1 -154.65 -57.45 -152.85 -59.95 -147.1 -58.25 -145.1 -48.4 -149.05 -47.7 -137.35 -46.4 -138.5 Q-42.45 -142.15 -41.25 -147.3 L-36.65 -112.6 -33.65 -144.4 -32.2 -143.7 -31.7 -136.85 -29.2 -145.5 -29.8 -146.95 -28.75 -147.4 -27.5 -146.75 Q-24.7 -145.0 -23.2 -141.95 L-22.8 -141.25 -22.45 -143.4 Q-22.0 -146.55 -22.85 -149.8 L-19.15 -149.95 -17.7 -148.3 -13.3 -149.85 -17.65 -155.1 -17.65 -155.2 -13.55 -155.1 -13.4 -157.3 -2.35 -156.75 -2.2 -156.35 8.45 -156.25 6.6 -154.65 6.7 -154.15 Q6.5 -150.15 3.3 -147.1 L4.65 -147.35 Q9.45 -149.0 13.55 -152.25 L13.5 -150.05 13.95 -149.8 15.05 -127.35 16.8 -133.3 Q19.3 -142.1 20.8 -151.1 L26.0 -145.9 28.35 -151.2 32.5 -148.6 32.15 -152.2 44.0 -148.4 42.75 -147.55 Q38.4 -144.85 39.15 -140.45 L42.7 -144.1 42.95 -143.4 44.55 -143.7 42.95 -140.05 Q40.6 -135.25 40.8 -130.0 L42.8 -131.4 43.65 -134.65 Q44.95 -139.55 47.2 -143.95 L49.55 -142.1 50.05 -142.8 49.7 -144.15 50.6 -144.2 50.7 -141.55 Q50.9 -141.4 51.15 -141.4 53.5 -140.7 55.0 -142.6 L55.75 -143.5 55.9 -142.15 56.95 -143.05 57.95 -142.5 58.0 -140.2 59.3 -140.1 60.15 -141.0 70.55 -134.0 66.4 -131.8 59.4 -127.45 60.1 -127.15 71.6 -133.25 73.95 -130.8 66.9 -126.35 74.75 -125.65 57.2 -102.95 57.85 -104.5 Q60.0 -110.15 60.3 -116.1 L57.45 -112.9 59.3 -133.85 Q41.55 -121.3 21.85 -112.85 21.3 -112.65 20.85 -113.1 3.15 -129.3 -12.2 -147.6 L-12.85 -145.95 Q-15.15 -133.3 -16.35 -120.3 -21.45 -108.85 -22.2 -96.25 -22.45 -92.05 -23.45 -88.2 L-23.6 -87.65 -25.4 -89.45 -26.55 -90.15 -27.85 -90.75 -28.3 -90.1 -27.4 -83.2 -35.8 -93.3 -31.5 -83.25 -30.35 -82.7 -31.1 -80.9 -50.35 -84.4 -32.25 -75.9 -30.65 -74.65 -35.25 -68.4 -52.45 -67.7 -57.85 -68.3 Q-52.3 -71.75 -48.7 -77.3 L-54.4 -72.7 -54.65 -73.8 -59.75 -72.6 -54.5 -82.45 -60.75 -75.3 Q-54.95 -89.45 -51.55 -104.7 -57.25 -93.15 -60.5 -80.75 L-60.45 -83.3 Q-62.45 -80.95 -62.95 -77.85 -70.1 -83.55 -75.7 -89.85 L-65.2 -72.6 -65.25 -69.45 -68.4 -70.05 -72.1 -67.7 -70.5 -67.7 -70.25 -68.1 -65.25 -66.4 -66.0 -62.35 -65.25 -63.4 -66.8 -39.35 -66.05 -39.35 -63.0 -53.45 -62.2 -53.65 -61.3 -63.25 -60.3 -63.05 -60.25 -62.35 -56.0 -59.95 -58.15 -66.65 -57.6 -66.55 Q-52.2 -64.4 -47.55 -66.8 -45.95 -66.45 -44.55 -65.65 -41.75 -64.05 -38.8 -62.8 L-38.35 -63.05 -37.55 -62.2 Q-33.75 -57.85 -32.05 -52.35 -35.5 -51.35 -36.15 -48.25 L-36.15 -47.35 -30.45 -51.7 -31.15 -50.6 -30.45 -49.5 -34.3 -47.55 -34.6 -47.95 -36.95 -46.2 -41.0 -53.9 -38.55 -45.35 -49.45 -38.9 -49.65 -39.3 -40.8 -44.65 Q-53.05 -44.8 -60.7 -34.85 L-60.45 -33.75 -63.6 -32.05 -76.5 -40.45 -67.45 -29.9 Q-80.55 -22.25 -92.45 -12.45 -100.2 -6.05 -108.25 0.05 -86.35 -13.5 -64.5 -27.1 L-49.75 -13.05 -65.5 -18.95 -65.75 -17.1 -47.85 -4.0 -63.3 0.1 -62.35 1.1 -61.35 1.8 -60.2 2.4 -59.05 2.9 -62.3 3.95 -63.0 3.5 -63.15 2.65 -63.9 2.2 -66.8 3.65 -74.05 -8.55 -77.55 2.45 -81.85 -3.55 -84.15 -3.4 -81.95 2.45 Q-89.0 2.8 -96.0 2.65 -98.65 2.6 -101.2 3.3 -103.6 3.75 -105.75 2.45 -107.0 1.6 -107.65 0.3 L-108.55 0.2 -109.35 0.5 -75.6 -25.65 -76.25 -25.3 Q-96.15 -14.7 -114.25 -1.4 L-114.25 -2.25 -107.4 -26.3 -114.25 -14.9 -114.25 -43.4 -112.6 -43.0 -111.35 -49.5 -103.15 -46.0 -106.85 -52.75 -112.45 -55.4 -112.25 -56.3 -81.6 -58.7 -83.65 -59.6 -82.3 -59.85 -83.9 -60.35 -95.5 -61.55 Q-97.75 -61.7 -99.75 -62.6 -103.15 -64.0 -106.8 -64.0 L-106.9 -63.85 -106.95 -64.15 -108.8 -64.5 -109.2 -65.2 -107.2 -66.25 -108.2 -66.65 Q-97.4 -70.6 -89.4 -79.15 L-109.75 -74.75 -104.2 -87.7 Q-107.35 -86.95 -109.15 -84.35 L-109.6 -84.35 -110.15 -83.65 Q-111.75 -81.45 -114.25 -80.5 L-114.25 -85.6 M56.05 -96.0 L57.15 -95.75 55.95 -95.75 56.05 -95.8 56.05 -96.0 M55.6 -91.85 Q56.9 -91.1 58.35 -90.65 59.7 -90.2 61.15 -90.1 L59.6 -92.85 57.15 -93.4 63.65 -94.05 58.05 -98.0 Q62.95 -106.5 71.65 -111.15 75.8 -113.45 80.55 -114.65 L72.8 -101.45 80.95 -101.1 Q80.5 -100.75 80.55 -100.2 L76.3 -94.9 79.85 -93.4 80.0 -89.95 81.0 -89.5 78.95 -76.3 77.05 -76.8 73.0 -81.4 75.7 -73.45 Q76.15 -72.05 75.75 -70.7 L55.3 -78.65 Q55.95 -77.25 57.05 -76.35 64.25 -70.7 71.9 -65.5 L66.8 -61.75 75.1 -58.1 70.95 -53.6 78.65 -52.85 76.95 -50.25 78.2 -49.9 73.65 -43.55 74.05 -39.55 74.45 -37.25 Q74.85 -34.95 73.65 -32.9 L74.65 -31.75 Q76.4 -20.85 73.7 -10.3 L68.95 -8.6 68.75 -8.2 68.6 -8.1 67.6 -8.0 65.5 -11.7 66.55 -10.35 68.0 -8.4 68.9 -8.55 69.1 -9.2 Q66.1 -16.3 60.55 -21.6 L59.85 -21.3 59.8 -21.45 59.8 -21.6 Q64.35 -29.4 71.25 -35.3 L56.95 -26.05 Q56.1 -28.2 53.9 -28.9 L53.5 -30.95 53.95 -29.25 56.2 -28.4 56.7 -28.9 56.85 -29.5 56.0 -30.45 Q54.85 -31.9 53.5 -31.35 L53.05 -32.1 58.6 -53.3 54.6 -52.4 54.6 -58.75 53.05 -56.3 Q53.85 -71.25 55.3 -86.15 L55.6 -91.85 M63.45 -14.6 L62.5 -15.8 Q60.3 -18.4 60.0 -20.9 61.45 -17.65 63.45 -14.6 M52.0 -40.65 L51.8 -40.3 52.0 -41.05 52.0 -40.65 M83.7 -77.0 L82.8 -77.35 84.05 -81.1 83.7 -77.0 M49.4 -12.7 L49.45 -13.55 49.6 -13.8 49.6 -13.15 49.4 -12.7 M49.45 13.7 L49.8 13.65 49.7 13.8 49.45 13.8 49.45 13.7 M56.3 -5.6 L56.65 -8.4 54.5 -7.45 58.0 -17.85 64.7 -6.15 60.15 -3.95 59.55 -5.75 58.05 -4.9 56.3 -5.6 M72.8 -2.0 L72.25 -1.6 73.9 2.65 69.6 -4.65 73.1 -7.45 72.3 -2.35 72.8 -2.0 M73.2 63.5 Q63.65 66.4 53.75 65.05 L57.5 68.9 57.2 69.65 54.05 67.55 55.75 68.4 Q50.4 63.35 43.7 59.45 57.55 63.2 71.4 60.25 72.55 60.1 73.1 58.95 L73.3 59.85 73.2 63.5 M37.05 59.75 Q30.4 56.6 29.45 49.2 L29.4 48.15 Q29.6 48.85 29.95 49.55 32.45 55.4 37.05 59.75 M29.1 46.1 L30.35 43.35 31.95 48.1 29.1 46.1 M83.25 62.1 L83.9 61.35 83.75 63.5 82.7 62.95 83.25 62.1 M80.75 65.25 L83.45 66.8 82.45 73.55 79.1 72.05 79.85 66.0 80.75 65.25 M84.2 51.3 L84.1 57.55 80.45 61.1 81.95 46.0 84.2 51.3 M82.65 88.65 L82.2 87.8 82.4 86.25 83.0 86.05 82.65 88.65 M87.05 52.85 L87.25 47.8 79.3 34.45 79.3 33.85 87.35 47.4 87.05 52.85 M78.5 43.2 L79.05 43.2 77.0 60.5 78.5 43.2 M78.6 79.1 L81.35 79.2 81.3 79.95 80.85 79.95 78.15 87.1 78.6 79.1 M71.25 6.7 L72.05 9.05 69.85 12.55 Q69.5 13.15 68.8 13.45 66.4 14.75 63.65 14.3 L63.45 14.75 59.9 13.9 68.75 10.65 57.9 9.45 64.7 2.5 57.4 4.95 66.8 -2.45 Q69.4 1.9 71.25 6.7 M75.15 80.8 L75.3 79.15 76.15 79.3 75.15 80.8 M73.55 103.1 L73.7 100.95 75.65 101.25 73.55 103.1 M68.95 106.3 L68.8 107.1 68.9 106.35 67.95 106.2 68.95 106.3 M68.05 112.95 Q67.8 114.65 67.7 116.35 67.65 116.8 67.2 116.65 L67.6 112.95 68.05 112.95 M66.7 119.2 L66.65 120.5 66.25 123.9 65.6 117.7 66.7 119.2 M-114.25 237.05 L-114.25 236.9 -112.95 236.1 Q-105.1 231.65 -96.4 230.05 -105.9 232.05 -114.25 237.05 M62.7 113.55 L62.15 114.35 62.3 114.9 62.85 114.95 64.0 122.25 63.3 122.1 59.25 114.8 58.6 114.75 57.8 115.85 Q59.2 120.65 58.6 125.65 L57.7 125.95 55.85 121.2 51.65 128.45 50.2 114.55 49.6 114.55 Q48.25 121.25 45.75 127.35 L45.7 124.9 44.85 127.4 43.95 129.2 43.05 128.95 42.95 127.95 42.5 127.85 46.3 109.85 46.9 109.75 46.35 104.35 47.25 104.55 47.2 104.85 47.3 104.9 53.05 106.05 53.5 108.1 54.6 108.8 55.5 109.6 56.9 111.55 56.4 106.95 Q57.65 107.35 58.85 107.9 62.45 109.3 64.55 112.25 L64.85 114.95 62.7 113.55 M37.25 136.2 L37.45 136.2 Q37.15 137.75 37.0 139.35 L37.25 136.2 M-20.25 -68.05 L-21.4 -67.05 -21.35 -67.45 -20.25 -68.5 -20.25 -68.05 M-17.8 -97.75 L-18.65 -97.35 -18.6 -97.8 -17.85 -98.5 -17.8 -97.75 M-18.05 -80.7 Q-19.3 -80.7 -20.15 -81.8 -20.85 -82.7 -21.0 -83.85 L-20.8 -83.55 -20.25 -82.65 -17.75 -81.15 -18.05 -80.7 M-17.9 -92.85 Q-18.9 -93.1 -19.15 -93.5 L-19.05 -93.8 Q-18.7 -93.5 -17.85 -93.3 L-17.9 -92.85 M-19.5 -76.6 L-19.1 -76.75 -19.15 -76.55 -19.5 -76.6 M-28.55 -63.9 L-29.35 -57.15 -28.55 -57.05 -24.35 -60.2 -22.8 -53.3 -24.35 -52.55 -25.0 -53.1 -25.0 -52.25 Q-25.45 -52.0 -25.95 -51.8 L-27.95 -53.65 -26.6 -51.45 -27.85 -50.8 -30.8 -54.4 -30.65 -53.3 -36.15 -64.4 -35.7 -65.4 -27.45 -68.4 -28.55 -63.9 M-36.9 -66.65 L-38.4 -65.85 -41.35 -65.3 -45.65 -67.7 -36.9 -66.65 M-50.65 -35.2 L-37.4 -42.3 -34.05 -33.5 -32.4 -28.75 -32.15 -27.5 Q-32.1 -26.5 -32.9 -26.05 -34.65 -25.1 -34.9 -23.75 L-33.0 -19.25 -33.3 -18.7 Q-35.1 -19.3 -36.35 -21.15 L-36.5 -19.25 -48.3 -31.6 -43.15 -16.3 -44.15 -17.35 -42.35 -14.9 Q-45.5 -15.9 -47.55 -18.75 L-48.35 -18.6 -60.5 -29.4 -50.65 -35.2 M-27.5 -39.85 L-27.8 -39.2 -28.55 -38.7 -32.5 -44.85 -29.85 -46.15 -27.5 -39.85 M-30.0 -31.3 L-29.85 -33.45 -29.15 -33.45 -26.9 -21.9 -28.3 -23.1 -30.0 -31.3 M-34.3 -43.9 L-33.75 -44.2 -33.35 -43.25 -34.3 -43.9 M-68.1 56.35 L-19.25 47.1 -15.45 43.2 Q-19.95 51.0 -29.4 52.5 L-41.65 54.7 Q-56.15 58.15 -70.9 60.45 -84.4 53.2 -89.25 38.7 L-93.95 37.35 Q-92.5 36.0 -90.1 35.8 L-88.65 35.75 -89.05 37.4 Q-86.3 39.75 -84.75 42.8 -79.45 53.5 -68.3 56.4 L-67.15 56.35 -68.1 56.35 M-76.8 97.15 L-74.0 97.3 Q-66.7 100.2 -58.55 99.15 L-59.25 100.05 -50.35 99.45 -52.1 102.55 -47.3 100.65 -47.95 101.7 Q-48.5 102.4 -48.7 103.4 L-48.75 104.25 -48.7 104.65 -46.9 104.8 -42.3 99.75 -42.1 100.85 -42.75 101.35 -43.05 121.9 -49.55 119.65 -48.6 111.05 -50.1 110.9 -54.65 117.45 -58.65 115.85 Q-68.15 112.15 -73.8 104.15 L-71.7 101.35 -74.55 102.75 -76.8 97.15 M-49.0 152.2 L-49.25 153.35 -50.9 162.3 -49.9 162.6 Q-52.9 163.95 -56.1 163.75 L-50.75 162.6 -51.7 162.3 -51.4 160.45 -49.35 148.9 -48.35 149.0 -48.8 150.95 -49.0 152.2 M-46.5 160.15 Q-32.75 165.65 -25.45 178.9 L-24.3 181.05 Q-34.6 178.9 -43.8 173.8 -47.9 171.5 -52.05 169.35 L-53.45 168.95 -60.45 168.7 -60.5 168.0 -60.25 167.6 -59.7 167.15 -59.85 166.25 -56.3 165.25 -56.55 164.5 -52.3 165.7 -52.1 166.3 -51.2 167.0 -52.0 164.75 -48.55 164.9 Q-46.8 167.85 -44.9 168.7 -46.8 164.85 -46.1 160.8 L-46.5 160.15 M-26.2 185.45 L-26.9 185.55 -27.0 184.95 -26.3 184.8 -26.2 185.45 M-39.55 197.9 L-44.95 197.35 -43.6 197.4 -39.55 197.9 M-47.8 196.95 L-53.4 196.3 -53.7 181.75 -55.6 181.0 Q-58.15 180.25 -60.7 180.05 -57.65 180.1 -54.8 181.0 L-52.95 181.75 -52.95 185.9 -52.85 192.35 -52.8 196.3 -50.6 196.55 -47.8 196.95 M-62.55 180.05 L-63.2 180.1 -62.2 164.35 -58.75 163.7 -61.3 164.35 -62.55 180.05" fill="#4071e1" fill-rule="evenodd" stroke="none"/>
    <path d="M57.45 -112.9 L56.05 -96.0 56.05 -95.8 55.95 -95.75 55.6 -91.85 55.3 -86.15 Q53.85 -71.25 53.05 -56.3 L52.3 -45.6 52.0 -41.05 51.8 -40.3 51.2 -28.2 51.0 -23.5 49.45 -13.55 49.4 -12.7 48.85 2.9 48.85 3.45 48.85 3.8 49.05 3.45 Q48.05 8.6 48.65 13.3 L49.45 13.7 49.45 13.8 49.7 13.8 58.85 15.7 69.1 17.6 74.1 18.8 75.6 19.15 75.6 23.3 65.75 21.05 Q56.15 17.55 45.75 15.9 L44.65 15.7 46.85 -15.25 46.3 -15.75 47.8 -34.95 47.55 -35.65 42.4 -42.35 43.5 -42.35 41.4 -44.65 Q40.65 -47.15 38.4 -49.1 L35.55 -51.8 Q29.0 -61.0 20.85 -68.75 20.3 -69.3 19.5 -69.55 L14.3 -66.7 -4.2 -59.55 -5.65 -59.5 -7.65 -58.25 -9.75 -57.45 -10.85 -57.05 -10.75 -56.35 -15.65 -53.3 -18.8 -51.9 -22.8 -18.4 -26.95 6.8 -45.05 8.8 Q-54.75 9.25 -64.4 8.7 -89.3 8.05 -114.25 11.2 L-114.25 6.75 -79.15 5.15 -70.85 5.1 -28.5 5.85 Q-27.75 -3.9 -25.9 -13.35 -25.7 -14.25 -25.85 -15.2 -26.25 -17.75 -25.2 -20.35 L-25.75 -21.2 -21.9 -62.3 -21.3 -63.15 -19.45 -66.7 -20.25 -68.5 -21.35 -67.45 -21.05 -71.85 -19.85 -72.05 -19.15 -76.55 -19.1 -76.75 -19.5 -76.6 Q-20.15 -76.3 -20.75 -76.05 L-20.45 -79.5 -20.4 -80.05 -18.6 -80.05 -18.05 -80.7 -17.75 -81.15 -20.25 -82.65 -20.8 -83.55 -21.05 -86.4 -20.2 -86.15 -18.7 -87.5 -17.9 -92.85 -17.85 -93.3 -19.1 -93.95 -17.75 -96.45 -17.8 -97.75 -17.85 -98.5 -18.6 -97.8 -16.35 -120.3 Q-15.15 -133.3 -12.85 -145.95 L-12.2 -147.6 Q3.15 -129.3 20.85 -113.1 21.3 -112.65 21.85 -112.85 41.55 -121.3 59.3 -133.85 L57.45 -112.9 M54.35 -123.15 L54.85 -127.4 54.7 -127.45 Q38.75 -116.3 21.6 -107.4 L-10.2 -138.85 -10.8 -131.6 -10.85 -131.15 -15.0 -90.55 -15.85 -90.65 -15.85 -90.2 -16.9 -84.35 -16.0 -83.4 -15.95 -81.55 -16.2 -81.25 -16.25 -80.85 -17.35 -67.5 -17.8 -62.55 -18.4 -55.85 -17.7 -56.15 Q-1.05 -64.25 16.35 -70.3 L21.6 -71.95 Q29.2 -63.7 36.25 -55.1 L47.45 -40.75 48.05 -39.9 50.6 -81.55 50.65 -80.55 54.35 -123.15 M65.5 -11.7 L63.45 -14.6 Q61.45 -17.65 60.0 -20.9 L59.85 -21.3 60.55 -21.6 Q66.1 -16.3 69.1 -9.2 L68.9 -8.55 68.0 -8.4 66.55 -10.35 65.5 -11.7 M53.5 -30.95 L53.5 -31.35 Q54.85 -31.9 56.0 -30.45 L56.85 -29.5 56.7 -28.9 56.2 -28.4 53.95 -29.25 53.5 -30.95 M76.15 16.0 L72.1 0.75 76.7 7.5 Q77.7 11.45 76.5 14.9 L76.15 15.55 76.15 16.0 M-114.25 33.25 L-108.8 46.2 -113.5 44.55 -114.25 42.7 -114.25 33.25 M-79.1 89.95 L-35.1 91.4 -35.65 123.45 -39.25 122.75 -39.45 95.75 -77.75 94.35 -79.1 89.95 M33.45 136.0 L38.55 97.2 69.15 101.95 69.45 102.55 69.9 104.05 68.95 106.3 67.95 106.2 51.35 103.25 43.4 102.35 42.7 102.25 42.3 103.45 42.7 104.55 42.25 104.25 37.25 136.2 33.45 136.0 M68.9 21.5 L69.45 21.5 68.95 21.15 Q68.75 20.95 68.9 21.5 M44.3 103.05 L44.3 103.0 44.35 103.0 44.3 103.05 M-109.35 0.5 L-114.25 4.2 -114.25 -1.4 Q-96.15 -14.7 -76.25 -25.3 L-75.6 -25.65 -109.35 0.5 M-32.05 -52.35 L-30.7 -52.6 -30.45 -51.7 -36.15 -47.35 -36.15 -48.25 Q-35.5 -51.35 -32.05 -52.35 M-49.65 -39.3 L-60.45 -33.75 -60.7 -34.85 Q-53.05 -44.8 -40.8 -44.65 L-49.65 -39.3 M-51.4 160.45 L-51.7 162.3 -50.75 162.6 -56.1 163.75 -58.75 163.7 -62.2 164.35 -63.2 180.1 -62.55 180.05 -60.7 180.05 Q-58.15 180.25 -55.6 181.0 L-53.7 181.75 -53.4 196.3 -47.8 196.95 -44.95 197.35 -39.55 197.9 -32.7 198.65 -32.45 196.8 -29.7 185.6 -27.0 184.95 -26.9 185.55 -26.2 185.45 -23.4 184.8 -24.5 188.8 -27.5 189.6 -31.05 202.1 -56.4 199.2 -56.85 185.45 -67.1 183.3 -65.45 160.9 -63.75 160.7 -58.4 159.95 -55.35 160.5 -51.4 160.45" fill="#14518d" fill-rule="evenodd" stroke="none"/>
    <path d="M2.15 -121.9 L-2.5 -126.4 11.3 -110.25 2.15 -121.9 M-10.8 -131.6 L-10.2 -138.85 21.6 -107.4 Q38.75 -116.3 54.7 -127.45 L54.85 -127.4 54.35 -123.15 53.85 -123.85 53.2 -123.85 49.95 -108.05 46.35 -107.5 46.0 -104.9 47.95 -103.9 47.6 -102.4 47.0 -102.55 47.15 -99.75 47.65 -99.15 42.1 -98.2 33.0 -95.55 48.4 -94.55 47.8 -91.2 43.95 -87.75 46.05 -86.9 47.65 -88.05 47.45 -40.75 36.25 -55.1 Q29.2 -63.7 21.6 -71.95 L16.35 -70.3 Q-1.05 -64.25 -17.7 -56.15 L-15.2 -64.7 -12.0 -62.2 -11.0 -63.0 -13.85 -70.25 Q-12.2 -70.2 -10.7 -69.3 -8.6 -68.15 -6.55 -69.3 -8.95 -73.15 -13.2 -75.85 L-12.85 -76.55 Q-7.1 -75.25 -1.25 -76.4 L0.0 -76.6 Q-1.2 -79.35 -4.6 -78.75 L-10.4 -78.6 -11.1 -78.6 Q-10.2 -82.5 -7.25 -85.8 L2.1 -96.45 1.9 -96.65 5.1 -100.4 1.4 -98.25 0.0 -97.15 -1.4 -95.55 Q-4.5 -95.05 -6.05 -92.35 -7.85 -89.35 -11.35 -89.35 L-8.5 -95.55 -10.95 -96.05 -11.15 -96.05 -10.5 -100.85 Q-7.6 -116.45 -10.8 -131.15 L-10.8 -131.6 M35.55 -51.8 L38.4 -49.1 Q40.65 -47.15 41.4 -44.65 38.8 -46.75 36.65 -50.15 L35.55 -51.8 M42.4 -42.35 L47.55 -35.65 47.8 -34.95 46.3 -15.75 45.7 -15.75 40.65 18.0 66.4 21.35 65.75 21.05 75.6 23.3 76.15 29.2 Q75.2 36.95 74.65 44.8 74.35 49.05 73.0 51.1 67.35 49.4 60.85 49.5 L35.1 49.85 30.9 40.05 30.25 40.1 30.35 43.35 29.1 46.1 28.65 45.75 29.4 48.15 29.45 49.2 Q30.4 56.6 37.05 59.75 L54.05 67.55 57.2 69.65 57.5 68.9 53.75 65.05 Q63.65 66.4 73.2 63.5 L72.3 72.15 71.9 72.6 Q70.75 86.6 69.95 100.65 69.85 102.1 69.15 101.95 L38.55 97.2 33.45 136.0 Q25.45 135.85 18.1 138.4 16.05 139.05 15.0 137.55 13.5 135.4 11.15 134.25 1.35 129.3 -10.05 129.9 L-13.6 129.7 Q-24.45 126.2 -35.65 123.45 L-35.1 91.4 -79.1 89.95 -80.85 84.75 Q-82.45 80.6 -85.25 77.1 -80.7 74.1 -83.1 68.45 -90.25 51.55 -108.8 46.2 L-114.25 33.25 -114.25 11.2 Q-89.3 8.05 -64.4 8.7 -54.75 9.25 -45.05 8.8 L-56.4 9.9 Q-42.65 11.25 -28.9 10.25 -25.8 10.15 -23.9 8.35 L-23.4 8.4 Q-21.95 -0.45 -21.55 -9.55 L-21.05 -22.65 -22.8 -18.4 -18.8 -51.9 -15.65 -53.3 Q-13.8 -52.0 -11.65 -52.8 4.15 -58.55 19.8 -64.5 L42.4 -42.35 M-24.8 159.3 L-25.9 159.55 -26.0 158.55 -24.8 159.3 M-17.35 -67.5 L-17.05 -66.95 -17.8 -62.55 -17.35 -67.5 M-9.75 -57.45 L-7.65 -58.25 -10.65 -56.4 -9.75 -57.45 M-4.2 -59.55 L14.3 -66.7 Q2.05 -60.35 -4.2 -59.55 M-88.65 35.75 L-90.1 35.8 Q-92.5 36.0 -93.95 37.35 L-89.25 38.7 Q-84.4 53.2 -70.9 60.45 -56.15 58.15 -41.65 54.7 L-29.4 52.5 Q-19.95 51.0 -15.45 43.2 L-11.15 38.05 -11.25 36.75 Q-14.05 40.25 -17.9 42.7 -19.1 43.35 -20.3 43.25 L-53.7 37.45 Q-59.35 36.15 -72.5 35.75 L-88.65 35.75 M-111.4 174.95 L-110.7 167.7 -107.45 150.95 -107.4 150.75 Q-104.7 141.6 -100.45 133.5 -98.45 134.85 -96.8 136.55 -84.8 148.5 -69.7 155.7 L-63.75 160.7 -65.45 160.9 -67.1 183.3 -56.85 185.45 -56.4 199.2 -31.05 202.1 -30.55 202.2 -26.9 189.6 -24.55 189.0 -24.8 193.3 Q-14.9 193.3 -4.85 193.6 -15.05 200.9 -14.1 213.85 -19.05 208.4 -26.3 209.05 -29.25 209.6 -32.05 209.1 -42.3 206.95 -52.15 202.75 L-62.7 208.85 -65.2 204.5 Q-71.7 192.25 -85.25 194.25 L-76.8 191.85 -76.15 188.75 Q-75.65 185.6 -77.7 183.4 -90.65 169.5 -106.85 180.3 L-107.65 178.75 Q-109.0 176.35 -111.4 174.95" fill="#b4d2fe" fill-rule="evenodd" stroke="none"/>
    <path d="M2.15 -121.9 L11.3 -110.25 -2.5 -126.4 2.15 -121.9 M14.3 -66.7 L19.5 -69.55 Q20.3 -69.3 20.85 -68.75 29.0 -61.0 35.55 -51.8 L36.65 -50.15 Q38.8 -46.75 41.4 -44.65 L43.5 -42.35 42.4 -42.35 19.8 -64.5 Q4.15 -58.55 -11.65 -52.8 -13.8 -52.0 -15.65 -53.3 L-10.75 -56.35 -10.65 -56.4 -7.65 -58.25 -5.65 -59.5 -4.2 -59.55 Q2.05 -60.35 14.3 -66.7 M46.3 -15.75 L46.85 -15.25 44.65 15.7 45.75 15.9 Q56.15 17.55 65.75 21.05 L66.4 21.35 40.65 18.0 45.7 -15.75 46.3 -15.75 M-22.8 -18.4 L-21.05 -22.65 -21.55 -9.55 Q-21.95 -0.45 -23.4 8.4 L-23.9 8.35 Q-25.8 10.15 -28.9 10.25 -42.65 11.25 -56.4 9.9 L-45.05 8.8 -26.95 6.8 -22.8 -18.4 M68.9 21.5 Q68.75 20.95 68.95 21.15 L69.45 21.5 68.9 21.5 M64.3 53.05 Q62.55 54.35 60.1 54.5 49.55 55.65 39.5 52.7 L43.25 51.95 Q54.0 49.6 64.3 53.05 M29.9 156.05 L29.25 156.3 29.25 156.25 29.9 156.05 M-108.9 229.65 L-109.05 229.65 -108.75 228.35 -108.9 229.65 M13.1 234.55 L13.55 235.55 11.75 234.5 13.1 234.55 M-77.95 38.65 Q-61.75 37.35 -46.5 42.85 L-46.25 44.3 Q-60.85 46.6 -74.6 40.7 L-78.35 38.95 -77.95 38.65 M-95.3 125.95 L-95.4 126.8 -95.5 126.5 -95.3 125.95 M-2.0 230.0 L-1.95 229.7 Q-1.5 229.95 -2.0 230.0" fill="#ffffff" fill-rule="evenodd" stroke="none"/>
    <path d="M-10.8 -131.15 Q-7.6 -116.45 -10.5 -100.85 L-11.15 -96.05 -11.15 -95.8 -10.95 -96.05 -8.5 -95.55 -11.35 -89.35 Q-7.85 -89.35 -6.05 -92.35 -4.5 -95.05 -1.4 -95.55 L0.0 -97.15 1.4 -98.25 5.1 -100.4 1.9 -96.65 0.55 -95.05 2.1 -96.45 -7.25 -85.8 Q-10.2 -82.5 -11.1 -78.6 L-10.4 -78.6 -4.6 -78.75 Q-1.2 -79.35 0.0 -76.6 L-1.25 -76.4 Q-7.1 -75.25 -12.85 -76.55 L-14.85 -76.85 -13.2 -75.85 Q-8.95 -73.15 -6.55 -69.3 -8.6 -68.15 -10.7 -69.3 -12.2 -70.2 -13.85 -70.25 L-11.0 -63.0 -12.0 -62.2 -15.2 -64.7 -17.7 -56.15 -18.4 -55.85 -17.8 -62.55 -17.05 -66.95 -17.35 -67.5 -16.25 -80.85 -16.1 -81.3 -15.95 -81.55 -16.0 -83.4 -16.9 -84.35 -15.85 -90.2 -14.95 -90.15 -15.0 -90.55 -10.85 -131.15 -10.8 -131.15 M47.45 -40.75 L47.65 -88.05 46.05 -86.9 43.95 -87.75 47.8 -91.2 48.4 -94.55 33.0 -95.55 42.1 -98.2 47.65 -99.15 47.15 -99.75 47.0 -102.55 47.6 -102.4 47.95 -103.9 46.0 -104.9 46.35 -107.5 49.95 -108.05 53.2 -123.85 53.85 -123.85 54.35 -123.15 50.65 -80.55 50.6 -81.55 48.05 -39.9 47.45 -40.75" fill="#c5e8fe" fill-rule="evenodd" stroke="none"/>
    <path d="M-10.8 -131.6 L-10.8 -131.15 -10.85 -131.15 -10.8 -131.6 M-11.15 -96.05 L-10.95 -96.05 -11.15 -95.8 -11.15 -96.05 M1.9 -96.65 L2.1 -96.45 0.55 -95.05 1.9 -96.65 M-12.85 -76.55 L-13.2 -75.85 -14.85 -76.85 -12.85 -76.55 M29.9 156.05 L30.15 156.3 29.25 156.3 29.9 156.05 M28.55 156.65 L28.6 157.1 16.45 163.6 16.95 163.6 -1.35 173.2 -4.15 171.4 -1.25 172.8 28.55 156.65 M-25.9 159.55 L-24.45 164.05 -11.65 169.8 -13.9 183.9 -14.5 186.35 -24.55 189.0 -26.9 189.6 -30.55 202.2 -31.05 202.1 -27.5 189.6 -24.5 188.8 -14.85 186.35 -12.5 169.8 -25.35 164.05 -27.0 158.0 -26.0 158.55 -25.9 159.55 M-15.85 -90.2 L-15.85 -90.65 -15.0 -90.55 -14.95 -90.15 -15.85 -90.2 M-16.1 -81.3 L-16.25 -80.85 -16.2 -81.25 -16.1 -81.3 M-101.35 133.15 L-93.55 120.05 -92.8 120.6 -95.45 124.8 -96.35 126.2 -99.6 131.35 -99.55 131.85 -100.45 133.5 Q-104.7 141.6 -107.4 150.75 L-107.45 150.95 -110.7 167.7 -111.4 174.95 -112.05 174.6 Q-111.3 153.3 -102.0 134.35 L-101.35 133.15" fill="#9ac0fe" fill-rule="evenodd" stroke="none"/>
    <path d="M-6.95 241.2 L-7.15 241.35 -7.0 241.15 -6.95 241.2 M38.75 255.35 L37.1 254.45 36.65 253.5 38.75 255.35 M13.5 255.9 L13.75 255.65 14.15 256.1 13.5 255.9 M-46.25 149.45 L-46.4 149.15 -45.5 149.25 -46.25 149.45 M-48.25 149.0 L-48.75 150.95 -48.8 150.95 -48.35 149.0 -48.25 149.0 M-56.7 227.4 L-56.85 228.05 -57.35 228.25 -57.55 227.4 -56.7 227.4 M-5.65 233.25 L-5.7 233.3 -5.9 233.15 -5.65 233.25 M-13.95 249.15 L-13.8 249.1 -13.7 249.2 -13.95 249.15 M-74.0 227.5 L-74.75 229.1 -76.5 227.5 -74.0 227.5 M-98.6 246.05 L-99.25 246.05 -99.1 245.35 -98.6 246.05" fill="#6699ff" fill-rule="evenodd" stroke="none"/>
    <path d="M-114.25 93.6 L-114.25 89.85 -79.1 89.95 -77.75 94.35 -79.6 94.25 Q-96.9 92.85 -114.25 93.6 M-114.25 65.25 L-114.25 57.15 -113.55 54.9 -111.5 49.35 -113.5 44.55 -108.8 46.2 -107.5 49.35 -114.25 65.25 M37.25 136.2 L37.0 139.35 36.8 145.15 36.3 146.15 36.25 146.6 36.95 146.15 36.6 147.55 31.6 150.1 31.75 149.45 32.25 147.05 32.05 146.6 33.45 136.0 37.25 136.2 M-36.0 147.5 L-40.65 144.35 -40.5 140.25 -39.7 140.25 -39.45 138.15 -40.2 135.85 -39.0 134.0 -40.25 132.2 -38.9 127.85 -39.8 128.05 -39.25 122.75 -35.65 123.45 -35.5 147.2 -35.3 147.6 -35.8 147.3 -36.0 147.5 M-3.6 242.0 L-6.95 241.2 -7.0 241.15 -12.05 239.9 -13.35 239.6 -13.6 239.55 -28.4 235.95 -16.65 235.9 -15.1 236.1 -10.0 237.0 -6.35 237.8 Q0.5 239.55 8.05 242.5 L14.3 245.05 17.9 246.65 Q27.75 250.75 35.1 257.85 L35.15 258.0 34.1 258.3 22.85 251.75 15.65 248.3 8.15 245.5 -3.6 242.0 M-48.6 233.45 L-46.65 233.65 -46.65 234.5 -48.0 234.5 -49.75 234.5 -50.1 234.5 Q-62.65 234.5 -72.2 235.0 L-77.15 235.2 Q-90.7 235.95 -103.75 238.5 L-106.25 239.05 -107.15 238.75 -105.35 237.35 -104.95 237.15 Q-92.15 232.85 -78.5 232.75 L-78.1 232.75 -72.55 232.65 Q-66.1 232.55 -58.75 232.9 L-57.65 232.9 -48.8 233.45 -48.6 233.45" fill="#5a85af" fill-rule="evenodd" stroke="none"/>
    <path d="M-114.25 237.55 L-114.25 237.05 Q-105.9 232.05 -96.4 230.05 L-93.65 229.7 -93.8 230.15 -93.55 230.1 -76.5 227.5 -74.75 229.1 -74.0 227.5 -57.55 227.4 -57.35 228.25 -56.85 228.05 -56.55 229.8 -49.55 230.35 Q-48.9 230.6 -49.15 231.6 L-56.55 232.0 Q-57.0 232.1 -57.65 232.6 L-58.75 232.8 Q-60.4 233.05 -61.3 231.9 L-61.7 231.45 -59.8 229.7 Q-65.35 229.3 -70.75 230.55 -72.5 230.95 -72.55 232.65 L-78.1 232.75 Q-78.15 231.65 -77.45 231.35 L-77.3 231.25 Q-91.9 230.05 -105.0 236.85 L-105.35 237.35 -107.15 238.75 -106.25 239.05 -106.75 240.75 -104.45 243.65 Q-101.2 243.7 -99.3 241.05 -98.15 239.35 -96.4 238.25 -95.2 239.85 -95.35 241.7 -93.7 240.85 -92.15 242.2 -90.15 240.3 -87.45 241.4 -80.6 238.95 -73.3 240.2 L-63.15 242.5 -63.9 238.75 -63.5 237.8 Q-60.0 236.7 -57.75 240.25 L-55.2 244.5 -67.25 244.05 -69.4 243.5 Q-70.2 243.5 -70.45 244.05 L-70.55 244.05 -70.65 244.0 -98.6 246.05 -99.1 245.35 -99.25 246.05 -108.05 247.45 Q-107.95 246.65 -108.1 245.95 -109.1 240.45 -114.25 237.55 M-114.25 110.45 L-114.25 105.7 -96.2 118.35 -105.25 132.5 -106.8 132.6 -103.15 126.55 -104.2 125.55 Q-103.5 124.35 -103.45 123.0 -103.45 122.1 -103.75 121.3 L-104.1 120.55 -105.15 121.15 Q-108.7 115.05 -114.25 110.45 M-114.25 100.5 L-114.25 93.6 Q-96.9 92.85 -79.6 94.25 L-77.75 94.35 -76.8 97.15 Q-94.65 96.95 -112.3 98.9 L-112.3 98.45 -112.5 98.85 Q-110.55 100.8 -107.85 101.8 -103.6 103.45 -99.6 105.6 L-98.6 102.2 -97.9 102.45 -94.8 99.25 -94.05 103.1 -92.0 103.85 -90.9 108.45 -85.5 105.3 -82.2 106.05 Q-85.85 109.05 -90.25 110.4 L-90.3 111.55 -91.25 111.8 Q-92.25 111.25 -92.8 109.85 -93.65 107.45 -94.4 106.2 L-95.05 110.15 -96.7 110.2 -96.85 111.95 -97.7 111.4 Q-97.65 109.2 -99.15 106.95 L-100.25 107.1 -100.6 107.6 Q-101.05 108.4 -100.85 109.45 L-114.25 100.5 M-114.25 57.15 L-114.25 54.55 -113.55 54.9 -114.25 57.15 M-114.25 52.3 L-114.25 49.1 -112.8 50.55 -114.25 52.3 M37.45 136.2 L38.35 136.35 40.3 141.65 39.3 144.7 40.4 144.55 36.6 147.55 36.95 146.15 36.25 146.6 36.3 146.15 36.8 145.15 37.0 139.35 Q37.15 137.75 37.45 136.2 M68.15 220.4 L69.55 222.55 70.45 222.6 Q59.1 229.95 46.1 232.35 44.1 232.6 42.25 233.4 L42.4 225.45 42.7 210.3 43.5 210.9 45.7 210.0 48.2 210.0 52.0 216.1 50.85 217.85 46.85 216.05 46.45 224.9 44.8 225.7 45.95 226.8 47.3 227.0 Q58.45 225.9 68.15 220.4 M49.8 143.15 Q51.2 145.05 52.2 147.5 L41.45 152.8 38.85 155.9 39.5 157.05 37.5 159.05 43.15 183.15 44.0 183.35 44.35 184.15 43.7 187.1 49.0 182.8 48.6 184.3 Q46.65 187.2 46.05 190.65 L46.15 190.9 46.05 191.3 Q45.8 192.75 46.9 192.2 L48.3 194.3 44.1 197.0 42.9 200.2 42.7 199.95 41.85 190.05 Q40.2 171.45 33.7 153.95 L35.15 155.15 34.25 153.35 49.8 143.15 M-40.65 144.35 Q-40.55 145.4 -41.6 144.65 L-43.15 143.5 -43.1 143.05 -44.2 141.4 -46.25 141.3 -45.65 141.6 -46.4 141.6 -46.65 141.1 Q-47.25 140.85 -47.9 140.55 L-48.5 140.75 -48.6 140.7 -48.9 140.25 -48.75 140.1 -51.3 138.8 -48.6 139.95 -48.1 139.35 -49.05 139.05 Q-48.5 138.55 -48.65 137.8 L-49.05 136.45 Q-51.25 135.15 -53.45 137.2 L-55.0 136.3 Q-55.5 133.0 -54.65 129.95 -53.4 125.5 -52.45 120.75 -54.7 122.45 -55.95 125.1 L-58.75 131.95 -61.0 130.1 -62.5 126.3 -63.6 126.85 -62.3 133.25 -79.2 123.2 -76.9 120.45 -77.05 118.65 -82.25 117.85 -81.35 116.35 -81.4 114.55 -88.55 114.55 Q-85.0 110.25 -81.15 106.4 L-81.8 106.1 -74.55 102.75 -73.8 104.15 -75.95 107.3 -77.65 106.9 -80.4 110.65 -80.35 112.15 -80.05 111.75 -78.1 111.75 -76.75 110.8 -80.45 115.15 -80.2 116.7 -78.5 116.55 -74.9 113.45 -76.35 115.95 Q-74.05 114.0 -71.15 112.75 L-69.3 111.95 -68.15 112.35 -72.3 119.5 -73.45 120.0 -67.55 127.45 -67.05 123.0 -64.35 124.8 -61.7 119.65 -60.45 119.35 Q-58.3 121.55 -59.4 124.45 L-59.5 124.75 -54.65 117.45 -49.55 119.65 Q-51.55 125.8 -51.9 132.45 L-50.0 130.05 -50.15 132.95 -48.85 132.8 -46.25 128.65 Q-45.55 130.1 -46.0 131.55 L-46.65 133.65 -45.5 134.0 -45.3 134.4 -44.7 133.75 -43.85 133.5 -43.75 132.65 -42.75 131.35 -43.05 121.9 -39.25 122.75 -39.8 128.05 -38.9 127.85 -40.25 132.2 -39.0 134.0 -40.2 135.85 -39.45 138.15 -39.7 140.25 -40.5 140.25 -40.65 144.35 M52.8 201.25 L53.05 201.8 53.85 204.35 Q48.4 206.25 43.3 204.5 L43.15 203.8 50.45 202.8 49.5 202.7 Q49.25 202.0 49.4 201.3 49.85 199.4 50.6 197.6 L52.8 201.25 M85.1 226.65 Q78.0 229.55 76.1 235.7 83.5 235.05 88.4 229.65 L89.1 230.0 Q86.45 233.5 86.7 237.75 L92.0 232.5 92.6 232.95 Q94.6 235.35 97.6 234.55 L98.35 233.7 103.4 249.25 Q101.25 249.2 99.45 248.25 L97.7 247.35 95.75 249.1 95.5 249.05 94.6 248.7 93.75 248.1 95.9 244.9 95.7 238.5 94.4 237.65 Q88.25 239.0 83.2 243.3 82.4 243.95 81.3 244.2 L80.95 242.6 84.8 235.85 Q76.95 237.75 69.9 241.7 L68.7 241.25 68.35 240.1 76.85 229.4 Q76.25 228.75 74.65 229.7 62.65 236.95 48.85 239.55 L47.45 241.0 44.8 236.45 43.9 236.5 Q42.85 236.55 42.3 237.5 L42.3 235.95 44.6 235.95 Q51.8 235.3 58.4 232.75 66.55 229.7 73.85 225.3 L74.55 225.95 81.85 225.55 85.1 226.65 M42.3 238.95 L45.35 244.8 47.45 244.05 Q48.25 242.6 47.45 241.0 L51.5 243.85 Q51.4 247.35 53.45 250.2 48.95 247.85 44.0 247.8 L42.55 248.5 41.95 247.75 42.3 238.95 M10.4 249.55 Q10.35 247.65 8.85 246.3 L8.15 245.5 15.65 248.3 16.5 249.7 15.25 250.05 Q11.55 251.25 9.25 254.5 L8.7 254.35 -6.35 250.45 -9.15 246.3 -11.35 246.25 -12.2 245.3 -13.25 245.0 -13.75 244.15 -13.7 243.15 Q-13.55 241.25 -12.05 239.9 L-7.0 241.15 -7.15 241.35 -6.95 241.2 -3.6 242.0 -5.9 246.55 -3.95 247.65 Q2.65 251.3 10.15 249.5 L10.3 249.9 10.4 249.55 M17.9 246.65 L16.35 244.8 16.35 243.05 17.5 242.35 17.75 242.35 25.1 246.1 25.2 246.15 27.9 249.55 Q30.1 252.5 33.4 251.75 L33.65 251.85 33.7 251.75 36.65 253.5 37.1 254.45 38.75 255.35 40.55 258.0 37.95 259.4 37.05 262.35 37.4 262.65 37.4 263.55 34.3 264.0 33.5 265.95 31.35 264.4 31.6 263.8 Q27.3 260.65 24.2 256.3 21.25 252.3 16.8 253.8 L16.8 250.15 18.45 252.35 27.5 256.2 22.85 251.75 34.1 258.3 35.15 258.0 35.1 257.85 Q27.75 250.75 17.9 246.65 M-2.5 234.25 L-6.35 237.8 -10.0 237.0 Q-7.65 234.6 -5.7 233.3 L-5.65 233.25 -2.5 234.25 M-46.9 139.95 L-47.6 140.4 -46.65 141.05 -46.9 139.95 M-48.0 234.5 L-46.35 235.6 Q-41.55 233.95 -37.95 230.45 -38.25 236.15 -34.4 239.9 L-34.0 239.25 -34.9 234.55 -34.4 234.85 -33.55 233.3 -32.6 233.45 Q-30.25 232.5 -28.0 231.35 -25.2 230.05 -22.3 230.65 L-22.15 233.4 Q-32.6 232.95 -34.95 243.6 L-35.2 245.0 -36.6 245.6 Q-39.75 242.05 -37.95 236.95 -39.8 235.3 -42.0 234.85 L-43.55 234.65 -50.7 241.0 -51.95 240.7 Q-52.85 238.25 -51.15 236.0 L-49.9 234.65 -49.75 234.5 -48.0 234.5 M-19.7 233.95 L-18.05 230.45 -12.15 231.6 Q-11.65 234.6 -14.45 235.8 L-15.1 236.1 -16.65 235.9 -19.7 233.95 M-15.05 241.85 L-16.05 243.05 Q-21.15 243.1 -24.3 247.5 L-24.35 247.55 -34.55 246.2 Q-27.55 241.3 -18.7 241.5 L-15.05 241.85" fill="#b3d1fe" fill-rule="evenodd" stroke="none"/>
    <path d="M37.05 269.25 L37.0 269.25 36.0 268.25 37.05 269.25 M8.15 245.5 L8.85 246.3 Q10.35 247.65 10.4 249.55 L10.15 249.5 Q2.65 251.3 -3.95 247.65 L-5.9 246.55 -3.6 242.0 8.15 245.5 M8.7 254.35 L9.25 254.5 13.5 255.9 14.15 256.1 25.85 261.05 8.7 254.35 M16.5 249.7 L15.65 248.3 22.85 251.75 27.5 256.2 18.45 252.35 16.8 250.15 16.8 249.7 16.5 249.7 M17.5 242.35 L16.35 243.05 16.35 244.8 17.9 246.65 14.3 245.05 14.05 244.7 Q11.75 242.0 8.05 242.5 0.5 239.55 -6.35 237.8 L-2.5 234.25 2.75 235.95 Q10.25 238.55 17.45 242.1 L17.5 242.35 M31.35 264.4 L33.5 265.95 34.65 267.05 31.35 264.4 M33.4 251.75 Q30.1 252.5 27.9 249.55 L25.2 246.15 25.2 246.1 33.45 251.6 33.4 251.75 M-82.2 106.05 L-85.5 105.3 -90.9 108.45 -92.0 103.85 -94.05 103.1 -94.8 99.25 -97.9 102.45 -98.6 102.2 -99.6 105.6 Q-103.6 103.45 -107.85 101.8 -110.55 100.8 -112.5 98.85 L-112.3 98.45 -112.3 98.9 Q-94.65 96.95 -76.8 97.15 L-74.55 102.75 -81.8 106.1 -82.2 106.05 M-49.55 119.65 L-43.05 121.9 -42.75 131.35 -43.75 132.65 -43.85 133.5 -44.7 133.75 -45.3 134.4 -45.5 134.0 -46.65 133.65 -46.0 131.55 Q-45.55 130.1 -46.25 128.65 L-48.85 132.8 -50.15 132.95 -50.0 130.05 -51.9 132.45 Q-51.55 125.8 -49.55 119.65 M-54.65 117.45 L-59.5 124.75 -59.4 124.45 Q-58.3 121.55 -60.45 119.35 L-61.7 119.65 -64.35 124.8 -67.05 123.0 -67.55 127.45 -73.45 120.0 -72.3 119.5 -68.15 112.35 -69.3 111.95 -71.15 112.75 Q-74.05 114.0 -76.35 115.95 L-74.9 113.45 -78.5 116.55 -80.2 116.7 -80.45 115.15 -76.75 110.8 -78.1 111.75 -80.05 111.75 -80.35 112.15 -80.4 110.65 -77.65 106.9 -75.95 107.3 -73.8 104.15 Q-68.15 112.15 -58.65 115.85 L-54.65 117.45 M-46.5 160.15 L-46.8 159.45 -43.2 156.3 -41.7 159.95 -40.1 159.75 -39.85 157.25 -38.1 157.8 -38.25 156.3 -34.65 155.65 -31.45 159.2 -32.95 160.75 -32.9 161.2 -31.7 160.5 -30.95 160.85 -30.85 162.05 -30.85 162.45 -31.2 169.1 -30.65 168.75 -23.7 171.05 -23.6 171.5 -17.75 173.65 -17.8 174.35 -19.1 175.65 -19.1 180.3 -18.2 181.75 -24.3 181.05 -25.45 178.9 Q-32.75 165.65 -46.5 160.15 M-22.15 233.4 Q-21.85 234.6 -20.8 235.25 L-19.7 233.95 -16.65 235.9 -28.4 235.95 -13.6 239.55 -13.4 239.65 -15.05 241.85 -18.7 241.5 Q-27.55 241.3 -34.55 246.2 L-55.2 244.5 -57.75 240.25 Q-60.0 236.7 -63.5 237.8 L-63.9 238.75 -63.15 242.5 -73.3 240.2 Q-80.6 238.95 -87.45 241.4 -90.15 240.3 -92.15 242.2 -93.7 240.85 -95.35 241.7 -95.2 239.85 -96.4 238.25 -98.15 239.35 -99.3 241.05 -101.2 243.7 -104.45 243.65 L-106.75 240.75 -106.25 239.05 -103.75 238.5 Q-90.7 235.95 -77.15 235.2 L-76.25 236.3 -74.5 238.0 Q-72.25 236.85 -72.2 235.0 -62.65 234.5 -50.1 234.5 L-49.9 234.65 -51.15 236.0 Q-52.85 238.25 -51.95 240.7 L-50.7 241.0 -43.55 234.65 -42.0 234.85 Q-39.8 235.3 -37.95 236.95 -39.75 242.05 -36.6 245.6 L-35.2 245.0 -34.95 243.6 Q-32.6 232.95 -22.15 233.4 M-49.15 231.6 L-48.75 233.4 -48.8 233.45 -57.65 232.9 -57.65 232.6 Q-57.0 232.1 -56.55 232.0 L-49.15 231.6 M-5.9 233.15 L-5.7 233.3 Q-7.65 234.6 -10.0 237.0 L-15.1 236.1 -14.45 235.8 Q-11.65 234.6 -12.15 231.6 L-5.9 233.15 M-72.55 232.65 Q-72.5 230.95 -70.75 230.55 -65.35 229.3 -59.8 229.7 L-61.7 231.45 -61.3 231.9 Q-60.4 233.05 -58.75 232.8 L-58.75 232.9 Q-66.1 232.55 -72.55 232.65 M-105.0 236.85 Q-91.9 230.05 -77.3 231.25 L-77.45 231.35 Q-78.15 231.65 -78.1 232.75 L-78.5 232.75 Q-92.15 232.85 -104.95 237.15 L-105.0 236.85" fill="#799cea" fill-rule="evenodd" stroke="none"/>
    <path d="M-108.8 46.2 Q-90.25 51.55 -83.1 68.45 -80.7 74.1 -85.25 77.1 -82.45 80.6 -80.85 84.75 L-79.1 89.95 -114.25 89.85 -114.25 65.25 -107.5 49.35 -108.8 46.2 M-35.65 123.45 Q-24.45 126.2 -13.6 129.7 L-10.05 129.9 Q1.35 129.3 11.15 134.25 13.5 135.4 15.0 137.55 16.05 139.05 18.1 138.4 25.45 135.85 33.45 136.0 L32.05 146.6 32.25 147.05 31.75 149.45 20.55 156.4 5.55 164.75 2.0 164.75 -1.85 166.65 -2.8 166.65 Q-7.0 164.95 -10.9 162.6 L-36.0 147.5 -35.8 147.3 -35.3 147.6 -35.5 147.2 -35.65 123.45 M33.05 164.15 L35.8 176.5 Q37.05 182.6 37.35 188.85 38.8 219.7 38.65 250.7 29.0 244.55 19.0 238.95 -1.0 227.9 -24.1 225.95 -29.5 224.15 -35.45 224.15 L-37.95 224.35 -62.4 223.05 Q-86.25 222.45 -108.9 229.65 L-108.75 228.35 -109.05 229.65 -112.9 231.05 -113.25 220.2 Q-113.6 197.4 -112.05 174.6 L-111.4 174.95 Q-109.0 176.35 -107.65 178.75 L-106.85 180.3 Q-90.65 169.5 -77.7 183.4 -75.65 185.6 -76.15 188.75 L-76.8 191.85 -85.25 194.25 Q-71.7 192.25 -65.2 204.5 L-62.7 208.85 -52.15 202.75 Q-42.3 206.95 -32.05 209.1 -29.25 209.6 -26.3 209.05 -19.05 208.4 -14.1 213.85 -15.05 200.9 -4.85 193.6 -14.9 193.3 -24.8 193.3 L-24.55 189.0 -14.5 186.35 -13.9 183.9 Q-4.9 184.75 3.3 181.1 18.8 174.0 33.05 164.15 M13.1 234.55 L11.75 234.5 13.55 235.55 13.1 234.55 M-100.45 133.5 L-99.55 131.85 -99.6 131.35 -96.35 126.2 -95.5 126.5 -95.4 126.8 -95.4 129.75 Q-83.4 143.55 -69.7 155.7 -84.8 148.5 -96.8 136.55 -98.45 134.85 -100.45 133.5 M-2.0 230.0 Q-1.5 229.95 -1.95 229.7 L-2.0 230.0" fill="#cadffe" fill-rule="evenodd" stroke="none"/>
    <path d="M40.5 269.25 L37.05 269.25 36.0 268.25 34.65 267.05 33.5 265.95 34.3 264.0 37.4 263.55 37.4 262.65 37.05 262.35 37.95 259.4 40.55 258.0 41.1 259.15 Q43.15 264.2 40.5 269.25 M-114.25 248.85 L-114.25 237.55 Q-109.1 240.45 -108.1 245.95 -107.95 246.65 -108.05 247.45 L-114.25 248.85 M42.9 200.2 L44.1 197.0 48.3 194.3 50.6 197.6 Q49.85 199.4 49.4 201.3 49.25 202.0 49.5 202.7 L50.45 202.8 43.15 203.8 42.75 200.35 42.9 200.2 M-43.15 143.5 L-45.85 142.05 -45.8 142.45 -45.85 142.15 -48.5 140.75 -47.9 140.55 Q-47.25 140.85 -46.65 141.1 L-46.4 141.6 -45.65 141.6 -46.25 141.3 -44.2 141.4 -43.1 143.05 -43.15 143.5 M-48.6 140.7 L-62.3 133.25 -63.6 126.85 -62.5 126.3 -61.0 130.1 -58.75 131.95 -55.95 125.1 Q-54.7 122.45 -52.45 120.75 -53.4 125.5 -54.65 129.95 -55.5 133.0 -55.0 136.3 L-53.45 137.2 Q-51.25 135.15 -49.05 136.45 L-48.65 137.8 Q-48.5 138.55 -49.05 139.05 L-48.1 139.35 -48.6 139.95 -51.3 138.8 -48.75 140.1 -48.9 140.25 -48.6 140.7 M-79.2 123.2 L-83.7 120.35 -84.2 119.15 -84.95 119.65 -96.85 111.95 -96.7 110.2 -95.05 110.15 -94.4 106.2 Q-93.65 107.45 -92.8 109.85 -92.25 111.25 -91.25 111.8 L-90.3 111.55 -90.25 110.4 Q-85.85 109.05 -82.2 106.05 L-81.8 106.1 -81.15 106.4 Q-85.0 110.25 -88.55 114.55 L-81.4 114.55 -81.35 116.35 -82.25 117.85 -77.05 118.65 -76.9 120.45 -79.2 123.2 M98.35 233.7 L97.6 234.55 Q94.6 235.35 92.6 232.95 L92.0 232.5 86.7 237.75 Q86.45 233.5 89.1 230.0 L88.4 229.65 Q83.5 235.05 76.1 235.7 78.0 229.55 85.1 226.65 L85.9 226.9 94.6 221.6 98.35 233.7 M42.3 237.5 Q42.85 236.55 43.9 236.5 L44.8 236.45 47.45 241.0 Q48.25 242.6 47.45 244.05 L45.35 244.8 42.3 238.95 42.3 237.5 M-12.05 239.9 Q-13.55 241.25 -13.7 243.15 L-13.75 244.15 -13.25 245.0 -12.2 245.3 -11.35 246.25 -9.15 246.3 -6.35 250.45 -8.65 250.1 -9.4 249.3 -9.05 250.05 -13.7 249.2 -13.8 249.1 -13.95 249.15 -24.35 247.55 -24.3 247.5 Q-21.15 243.1 -16.05 243.05 L-15.05 241.85 -13.4 239.65 -13.35 239.6 -12.05 239.9 M9.25 254.5 Q11.55 251.25 15.25 250.05 L16.5 249.7 16.8 249.7 16.8 250.15 16.8 253.8 Q21.25 252.3 24.2 256.3 27.3 260.65 31.6 263.8 L31.35 264.4 25.85 261.05 14.15 256.1 13.75 255.65 13.5 255.9 9.25 254.5 M-41.05 149.65 Q-35.45 152.9 -30.6 155.85 L-30.35 157.2 -38.2 153.05 Q-39.65 155.7 -42.1 156.55 L-41.8 153.35 -42.65 153.6 Q-44.55 154.15 -45.45 152.05 -47.65 155.5 -47.85 159.8 L-48.5 160.2 Q-49.75 156.85 -49.25 153.35 L-49.0 152.2 -48.75 150.95 -48.25 149.0 -46.4 149.15 -46.25 149.45 -46.05 149.8 -45.5 149.25 -41.05 149.65 M-22.15 233.4 L-22.3 230.65 Q-25.2 230.05 -28.0 231.35 -30.25 232.5 -32.6 233.45 L-33.55 233.3 -34.4 234.85 -34.9 234.55 -34.0 239.25 -34.4 239.9 Q-38.25 236.15 -37.95 230.45 -41.55 233.95 -46.35 235.6 L-48.0 234.5 -46.65 234.5 -46.65 233.65 -48.6 233.45 -48.75 233.4 -49.15 231.6 Q-48.9 230.6 -49.55 230.35 L-56.55 229.8 -56.85 228.05 -56.7 227.4 -51.55 227.5 Q-34.65 227.65 -18.05 230.45 L-19.7 233.95 -20.8 235.25 Q-21.85 234.6 -22.15 233.4" fill="#dbeaff" fill-rule="evenodd" stroke="none"/>
    <path d="M47.05 140.2 L49.4 142.65 32.8 153.35 Q38.85 168.7 40.4 185.25 42.3 205.75 42.4 225.45 L42.25 233.4 Q44.1 232.6 46.1 232.35 59.1 229.95 70.45 222.6 L76.25 223.8 Q62.05 232.7 45.5 235.7 L44.6 235.95 42.3 235.95 41.3 254.05 42.7 256.1 Q46.7 262.35 45.15 269.25 L40.5 269.25 Q43.15 264.2 41.1 259.15 L40.55 258.0 38.75 255.35 36.65 253.5 33.7 251.75 33.45 251.6 25.2 246.1 25.1 246.1 17.75 242.35 17.45 242.1 Q10.25 238.55 2.75 235.95 L-2.5 234.25 -5.65 233.25 -5.9 233.15 -12.15 231.6 -18.05 230.45 Q-34.65 227.65 -51.55 227.5 L-56.7 227.4 -57.55 227.4 -74.0 227.5 -76.5 227.5 -93.55 230.1 -93.8 230.15 -93.65 229.7 -96.4 230.05 Q-105.1 231.65 -112.95 236.1 L-114.25 236.9 -114.25 173.85 Q-113.1 174.1 -112.05 174.6 -113.6 197.4 -113.25 220.2 L-112.9 231.05 -109.05 229.65 -108.9 229.65 Q-86.25 222.45 -62.4 223.05 L-37.95 224.35 -38.6 224.4 -24.1 225.95 Q-1.0 227.9 19.0 238.95 29.0 244.55 38.65 250.7 38.8 219.7 37.35 188.85 37.05 182.6 35.8 176.5 L33.05 164.15 30.15 156.3 29.9 156.05 29.25 156.25 28.55 156.65 -1.25 172.8 -4.15 171.4 -24.8 159.3 -26.0 158.55 -27.0 158.0 -30.6 155.85 Q-35.45 152.9 -41.05 149.65 L-49.1 145.3 -49.45 145.05 Q-71.7 133.95 -92.8 120.6 L-93.55 120.05 -101.35 133.15 Q-103.4 132.4 -105.25 132.5 L-96.2 118.35 -114.25 105.7 -114.25 100.5 -100.85 109.45 -97.7 111.4 -96.85 111.95 -84.95 119.65 -83.7 120.35 -79.2 123.2 -62.3 133.25 -48.6 140.7 -48.5 140.75 -45.85 142.15 -45.8 142.45 -45.85 142.05 -43.15 143.5 -41.6 144.65 Q-40.55 145.4 -40.65 144.35 L-36.0 147.5 -10.9 162.6 Q-7.0 164.95 -2.8 166.65 L-1.05 167.2 5.55 164.75 20.55 156.4 31.6 150.1 36.6 147.55 40.4 144.55 Q43.7 142.35 47.05 140.2 M94.6 221.6 Q96.35 220.9 98.45 220.7 106.05 241.7 111.6 263.4 L109.45 264.95 108.65 264.25 93.95 269.25 80.05 269.25 Q93.35 266.2 105.95 261.2 L107.4 260.65 103.4 249.25 98.35 233.7 94.6 221.6 M37.0 269.25 L-114.25 269.25 -114.25 248.85 -108.05 247.45 -99.25 246.05 -98.6 246.05 -70.65 244.0 -70.55 244.05 -70.45 244.05 -67.25 244.05 -55.2 244.5 -34.55 246.2 -24.35 247.55 -13.95 249.15 -13.7 249.2 -9.05 250.05 -8.65 250.1 -6.35 250.45 8.7 254.35 25.85 261.05 31.35 264.4 34.65 267.05 36.0 268.25 37.0 269.25" fill="#4d4d4d" fill-rule="evenodd" stroke="none"/>
    <path d="M29.25 156.3 L30.15 156.3 33.05 164.15 Q18.8 174.0 3.3 181.1 -4.9 184.75 -13.9 183.9 L-11.65 169.8 -24.45 164.05 -25.9 159.55 -24.8 159.3 -4.15 171.4 -1.35 173.2 16.95 163.6 16.45 163.6 28.6 157.1 28.55 156.65 29.25 156.25 29.25 156.3 M-92.8 120.6 Q-71.7 133.95 -49.45 145.05 L-49.1 145.3 -51.75 148.0 -52.7 148.3 -52.0 148.5 Q-53.75 153.65 -53.6 159.2 L-58.4 159.95 -69.7 155.7 Q-83.4 143.55 -95.4 129.75 L-95.4 126.8 -95.3 125.95 -95.45 124.8 -92.8 120.6" fill="#9cc3fd" fill-rule="evenodd" stroke="none"/>
    <path d="M-114.25 134.4 L-114.25 110.45 Q-108.7 115.05 -105.15 121.15 L-104.1 120.55 -103.75 121.3 Q-103.45 122.1 -103.45 123.0 -103.5 124.35 -104.2 125.55 L-103.15 126.55 -106.8 132.6 -108.3 132.8 Q-111.45 132.95 -114.25 134.4 M49.4 142.65 L49.8 143.15 34.25 153.35 35.15 155.15 33.7 153.95 Q40.2 171.45 41.85 190.05 L42.7 199.95 42.75 200.35 43.15 203.8 43.3 204.5 Q48.4 206.25 53.85 204.35 57.0 213.4 65.7 218.5 67.0 219.25 68.15 220.4 58.45 225.9 47.3 227.0 L45.95 226.8 44.8 225.7 46.45 224.9 46.85 216.05 50.85 217.85 52.0 216.1 48.2 210.0 45.7 210.0 42.7 210.3 42.4 225.45 Q42.3 205.75 40.4 185.25 38.85 168.7 32.8 153.35 L49.4 142.65 M52.2 147.5 L52.35 147.85 52.2 148.0 52.4 148.0 53.6 151.85 52.25 153.0 53.8 152.7 Q54.7 157.1 54.35 161.6 L54.3 162.7 51.8 166.35 54.15 165.8 53.6 169.2 Q52.2 177.25 48.6 184.3 L49.0 182.8 43.7 187.1 44.35 184.15 44.0 183.35 43.15 183.15 37.5 159.05 39.5 157.05 38.85 155.9 41.45 152.8 52.2 147.5" fill="#8497a9" fill-rule="evenodd" stroke="none"/>
    <path d="M49.4 142.65 L59.8 135.7 60.5 135.95 Q60.35 135.95 60.3 136.05 L49.8 143.15 49.4 142.65 M84.2 168.25 Q86.15 173.2 86.5 177.55 L84.2 168.25 M87.2 195.7 L88.35 193.55 88.65 194.25 87.8 195.7 87.2 195.7 M-114.25 152.6 L-114.25 134.4 Q-111.45 132.95 -108.3 132.8 L-106.8 132.6 -108.5 135.95 Q-112.3 143.9 -114.25 152.6 M52.2 147.5 L52.8 147.4 52.35 147.85 52.2 147.5 M52.4 148.0 Q54.05 148.05 54.3 149.65 L56.65 149.45 53.6 151.85 52.4 148.0 M53.8 152.7 L60.35 151.85 61.55 151.9 61.75 153.5 59.6 155.4 54.3 162.7 54.35 161.6 Q54.7 157.1 53.8 152.7 M54.15 165.8 Q60.45 163.9 66.1 160.4 66.6 160.0 67.25 159.9 L67.8 160.75 67.35 162.85 Q68.2 165.85 67.2 168.9 L66.9 170.5 Q70.35 165.8 75.65 164.05 L76.25 170.95 80.15 168.3 81.4 168.5 81.1 171.3 Q84.2 174.0 83.65 178.05 83.45 179.4 82.45 180.4 L82.4 181.35 76.9 183.1 Q79.2 185.4 80.35 188.5 L80.6 189.85 80.9 190.2 80.9 191.65 79.35 191.6 79.6 192.8 79.05 193.65 Q74.45 193.65 69.8 192.4 73.45 195.05 75.2 199.0 L77.45 197.9 78.3 199.25 71.55 203.65 71.55 205.05 81.45 205.2 81.65 206.0 86.9 205.7 Q79.8 215.75 68.15 220.4 67.0 219.25 65.7 218.5 57.0 213.4 53.85 204.35 L61.05 202.5 61.35 201.45 53.65 201.15 53.05 201.8 52.8 201.25 52.65 200.75 59.4 183.65 49.75 191.15 49.6 190.55 48.55 191.2 48.0 191.15 46.9 192.2 Q45.8 192.75 46.05 191.3 L46.15 190.9 48.6 184.3 Q52.2 177.25 53.6 169.2 L54.15 165.8" fill="#506a85" fill-rule="evenodd" stroke="none"/>
    <path d="M-49.1 145.3 L-41.05 149.65 -45.5 149.25 -46.4 149.15 -48.25 149.0 -48.35 149.0 -49.35 148.9 -51.4 160.45 -55.35 160.5 -58.4 159.95 -53.6 159.2 Q-53.75 153.65 -52.0 148.5 L-52.7 148.3 -51.75 148.0 -49.1 145.3 M-30.6 155.85 L-27.0 158.0 -25.35 164.05 -12.5 169.8 -14.85 186.35 -24.5 188.8 -23.4 184.8 -18.6 183.9 -16.8 175.25 -16.15 172.0 -20.55 170.3 -30.65 166.35 -29.9 162.15 -29.95 161.55 -30.35 157.2 -30.6 155.85" fill="#5b86b0" fill-rule="evenodd" stroke="none"/>
    <path d="M-48.5 160.2 L-47.85 159.8 Q-47.65 155.5 -45.45 152.05 -44.55 154.15 -42.65 153.6 L-41.8 153.35 -42.1 156.55 Q-39.65 155.7 -38.2 153.05 L-30.35 157.2 -29.95 161.55 -30.85 162.05 -30.95 160.85 -31.7 160.5 -32.9 161.2 -32.95 160.75 -31.45 159.2 -34.65 155.65 -38.25 156.3 -38.1 157.8 -39.85 157.25 -40.1 159.75 -41.7 159.95 -43.2 156.3 -46.8 159.45 -46.5 160.15 -48.5 160.2 M-24.3 181.05 L-18.2 181.75 -19.1 180.3 -19.1 175.65 -17.8 174.35 -17.75 173.65 -23.6 171.5 -23.7 171.05 -30.65 168.75 -31.2 169.1 -30.85 162.45 -29.9 162.15 -30.65 166.35 -20.55 170.3 Q-18.05 171.9 -17.1 174.5 L-16.8 175.25 -18.6 183.9 -23.4 184.8 -24.3 181.05" fill="#b1cffd" fill-rule="evenodd" stroke="none"/>
    <path d="M10.4 249.55 L10.3 249.9 10.15 249.5 10.4 249.55 M33.7 251.75 L33.65 251.85 33.4 251.75 33.45 251.6 33.7 251.75 M25.2 246.15 L25.1 246.1 25.2 246.1 25.2 246.15 M17.75 242.35 L17.5 242.35 17.45 242.1 17.75 242.35 M-30.85 162.45 L-30.85 162.05 -29.95 161.55 -29.9 162.15 -30.85 162.45 M-49.75 234.5 L-49.9 234.65 -50.1 234.5 -49.75 234.5 M-13.35 239.6 L-13.4 239.65 -13.6 239.55 -13.35 239.6 M-58.75 232.8 L-57.65 232.6 -57.65 232.9 -58.75 232.9 -58.75 232.8 M-104.95 237.15 L-105.35 237.35 -105.0 236.85 -104.95 237.15" fill="#3e8afd" fill-rule="evenodd" stroke="none"/>
    <path d="M-69.7 155.7 L-58.4 159.95 -63.75 160.7 -69.7 155.7" fill="#71a9fd" fill-rule="evenodd" stroke="none"/>
    <path d="M31.75 149.45 L31.6 150.1 20.55 156.4 31.75 149.45 M5.55 164.75 L-1.05 167.2 -1.85 166.65 2.0 164.75 5.55 164.75" fill="#bcdefe" fill-rule="evenodd" stroke="none"/>
    <path d="M69.15 101.95 Q69.85 102.1 69.95 100.65 70.75 86.6 71.9 72.6 L72.3 72.15 73.2 63.5 73.3 59.85 73.6 57.55 Q74.25 54.25 73.0 51.1 74.35 49.05 74.65 44.8 75.2 36.95 76.15 29.2 L76.25 28.2 77.25 28.2 77.7 32.4 78.15 28.55 78.3 29.25 Q79.45 32.05 79.25 35.2 L78.5 43.2 77.0 60.5 75.3 78.55 75.3 79.15 75.15 80.8 73.7 100.95 73.55 103.1 72.45 104.4 70.6 104.5 69.45 102.55 69.15 101.95" fill="#0b2b4a" fill-rule="evenodd" stroke="none"/>
    <path d="M41.2 137.0 L41.9 137.8 42.25 137.4 44.05 138.2 44.05 138.5 44.45 138.4 47.05 140.2 Q43.7 142.35 40.4 144.55 L39.3 144.7 40.3 141.65 38.35 136.35 41.2 137.0" fill="#dae9ff" fill-rule="evenodd" stroke="none"/>
    <path d="M42.7 199.95 L42.9 200.2 42.75 200.35 42.7 199.95" fill="#56738f" fill-rule="evenodd" stroke="none"/>
    <path d="M76.25 223.8 L91.85 215.1 92.7 214.85 73.85 225.3 Q66.55 229.7 58.4 232.75 51.8 235.3 44.6 235.95 L45.5 235.7 Q62.05 232.7 76.25 223.8 M45.4 269.25 L45.15 269.25 Q46.7 262.35 42.7 256.1 L41.3 254.05 42.3 235.95 42.3 237.5 42.3 238.95 41.95 247.75 41.45 254.05 42.55 255.75 Q46.7 261.95 45.4 269.25" fill="#293745" fill-rule="evenodd" stroke="none"/>
    <path d="M98.45 220.7 Q109.7 219.6 117.4 227.65 L121.8 232.65 121.75 264.2 115.2 269.25 93.95 269.25 108.65 264.25 109.45 264.95 111.6 263.4 Q106.05 241.7 98.45 220.7" fill="#ffffff" fill-opacity="0.29803923" fill-rule="evenodd" stroke="none"/>
    <path d="M80.05 269.25 L45.4 269.25 Q46.7 261.95 42.55 255.75 L41.45 254.05 41.95 247.75 42.55 248.5 44.0 247.8 Q48.95 247.85 53.45 250.2 51.4 247.35 51.5 243.85 L47.45 241.0 48.85 239.55 Q62.65 236.95 74.65 229.7 76.25 228.75 76.85 229.4 L68.35 240.1 68.7 241.25 69.9 241.7 Q76.95 237.75 84.8 235.85 L80.95 242.6 81.3 244.2 Q82.4 243.95 83.2 243.3 88.25 239.0 94.4 237.65 L95.7 238.5 95.9 244.9 93.75 248.1 94.6 248.7 95.5 249.05 95.75 249.1 97.7 247.35 99.45 248.25 Q101.25 249.2 103.4 249.25 L107.4 260.65 105.95 261.2 Q93.35 266.2 80.05 269.25" fill="#6e7984" fill-rule="evenodd" stroke="none"/>
  </g>
</svg>
