<?xml version="1.0" encoding="UTF-8" standalone="no"?>
<svg xmlns:xlink="http://www.w3.org/1999/xlink" height="461.85px" width="229.9px" xmlns="http://www.w3.org/2000/svg">
  <g transform="matrix(1.0, 0.0, 0.0, 1.0, 120.2, 188.65)">
    <path d="M92.7 141.0 L92.55 141.35 92.35 141.35 84.8 141.55 Q87.65 154.3 89.05 167.0 89.25 169.0 87.7 170.55 L84.8 175.15 85.5 180.75 85.5 181.35 82.4 187.9 81.55 187.95 Q78.75 184.3 77.3 180.05 L69.9 186.7 69.5 176.75 55.3 176.35 61.85 165.05 55.1 158.3 Q59.75 155.95 65.1 155.45 64.05 153.25 62.3 151.15 L62.15 150.75 68.2 150.5 71.35 153.25 73.8 149.3 77.05 143.95 77.4 142.85 Q81.8 137.55 88.85 137.6 L92.4 137.3 94.15 132.65 92.75 129.4 92.95 128.65 91.65 126.0 93.05 126.65 94.75 131.6 96.9 126.95 98.4 126.25 102.45 126.5 97.65 127.9 92.7 141.0 M-120.2 107.85 L-120.2 89.3 -117.7 90.7 -116.55 90.35 Q-110.9 90.3 -106.2 93.25 -105.9 93.4 -105.65 93.65 L-111.55 101.8 Q-103.8 109.45 -95.3 116.1 L-95.15 116.25 -94.75 116.6 -78.0 131.1 -75.25 133.55 -74.6 134.1 Q-97.85 121.7 -120.2 107.85 M-120.2 89.0 L-120.2 51.85 -119.85 50.7 -120.2 49.55 -120.2 7.85 -110.7 9.6 -112.8 10.2 -115.5 11.05 -118.35 14.25 -117.9 14.5 -118.85 15.0 -107.6 12.1 -107.2 12.0 -107.35 12.15 -109.8 14.3 -105.4 14.55 Q-104.15 23.95 -102.7 28.25 L-101.4 28.65 -100.7 29.8 -101.0 30.5 -99.5 32.15 -97.45 30.45 -95.3 28.3 -96.75 27.6 -91.65 20.6 -87.0 19.95 Q-70.3 17.8 -54.45 23.6 L-51.85 24.7 -49.7 21.95 Q-48.7 20.55 -47.4 20.2 -39.3 17.65 -29.9 19.3 -26.15 20.1 -23.35 17.05 -17.25 13.2 -12.2 8.35 L-11.75 7.0 Q-10.05 2.9 -5.6 2.2 L-2.25 -1.15 Q-1.5 1.6 -0.2 4.05 4.25 12.35 6.8 21.2 L7.45 25.0 Q8.0 37.7 2.95 49.95 L9.95 54.9 11.25 53.95 14.95 50.6 Q27.6 38.85 37.9 25.4 L35.0 19.3 39.65 24.6 40.45 24.95 Q40.4 26.35 39.45 27.65 L38.0 29.55 37.9 29.7 40.15 38.1 42.05 41.5 49.5 42.8 51.4 41.4 51.55 41.25 52.45 41.6 Q60.9 38.45 68.2 34.55 L68.8 34.35 68.95 33.95 69.0 33.85 68.95 30.45 69.5 29.0 67.5 23.85 67.8 22.15 69.95 24.1 70.2 25.25 71.65 26.65 73.05 28.85 72.4 36.95 72.2 41.15 68.7 41.3 Q62.8 41.35 57.6 43.65 L57.45 43.75 54.0 45.5 55.45 47.05 Q59.65 47.05 61.85 50.85 65.7 48.35 68.9 45.0 72.1 41.6 76.05 39.3 L76.2 38.65 76.95 38.0 Q78.05 37.45 79.15 36.95 87.85 33.1 95.6 34.1 L85.8 37.1 86.35 47.85 Q89.4 46.35 92.75 45.7 95.55 45.4 97.85 47.1 L95.45 47.4 Q90.1 48.5 85.95 52.0 85.35 52.45 84.55 50.9 83.75 49.35 83.35 47.6 82.5 44.0 83.35 40.4 L81.15 39.25 78.65 40.65 Q75.85 42.1 73.8 44.45 L71.85 46.6 71.65 49.8 71.6 49.9 70.55 47.8 Q65.95 52.55 60.35 55.05 52.6 58.55 43.9 54.8 L43.0 51.4 40.9 52.7 38.7 53.9 34.85 50.05 39.65 48.7 42.0 47.65 39.75 42.5 35.15 35.8 Q32.9 37.4 31.05 39.4 21.6 49.7 10.7 58.35 L9.95 60.1 8.3 60.35 7.95 60.0 6.55 59.9 1.15 54.85 Q0.1 53.9 0.65 52.45 1.2 51.15 0.5 50.15 L5.7 33.35 Q6.65 30.15 5.45 27.0 1.5 16.5 -5.05 7.1 L-7.05 8.05 -7.05 8.7 -9.0 10.5 Q-16.6 17.25 -24.85 22.7 L-25.95 22.75 -29.25 25.35 -30.25 26.45 Q-33.55 30.7 -34.6 36.15 L-32.6 37.45 Q-27.45 40.4 -22.2 43.0 -21.55 43.3 -21.15 42.75 L-20.45 43.4 -19.35 43.35 -12.8 41.85 -12.6 42.35 Q-12.2 43.2 -12.85 44.0 L-13.25 44.7 -12.8 44.75 -13.45 45.95 Q-16.95 53.2 -24.8 54.8 L-86.2 58.55 -88.05 56.8 -104.15 36.75 -104.15 36.25 -102.35 34.45 -109.85 32.4 -111.55 34.4 -112.3 35.2 Q-115.2 37.95 -118.8 39.5 -116.55 50.75 -112.25 61.15 L-118.45 70.6 -106.95 79.0 -113.75 85.75 -115.6 86.15 -118.3 86.85 -120.2 89.0 M-120.2 3.1 L-120.2 -9.35 -115.9 -5.55 -120.2 3.1 M-120.2 -16.05 L-120.2 -141.55 Q-111.95 -146.85 -102.8 -150.2 L-97.55 -152.15 -95.15 -152.95 -89.3 -160.05 Q-80.85 -167.6 -79.75 -178.7 L-79.8 -179.75 -71.25 -187.35 Q-65.6 -186.0 -61.45 -181.8 L-60.35 -181.0 Q-54.7 -177.95 -49.4 -174.55 L-50.4 -166.05 -48.55 -162.45 -45.25 -162.75 -26.45 -163.8 -21.35 -163.95 Q-14.55 -163.65 -8.6 -167.0 -6.2 -167.8 -4.6 -169.55 -1.35 -173.0 2.55 -174.75 L-4.7 -166.95 -9.35 -163.45 -4.75 -163.25 10.6 -161.95 13.15 -161.7 Q14.1 -162.95 14.15 -164.5 L14.15 -165.9 Q13.65 -168.75 13.85 -171.75 9.55 -171.9 6.55 -173.15 4.15 -174.5 2.75 -174.85 L5.45 -175.85 Q10.6 -173.85 16.2 -173.5 L16.15 -171.45 15.9 -170.8 Q15.35 -168.15 17.0 -165.65 L18.2 -164.25 Q26.7 -157.25 38.6 -156.2 L43.5 -159.65 45.4 -161.15 Q48.35 -160.0 51.35 -158.15 L54.15 -158.05 Q61.0 -161.2 66.4 -166.45 68.1 -168.15 70.4 -167.7 71.6 -167.5 72.7 -166.9 L74.75 -165.75 Q75.3 -161.05 79.8 -161.65 L83.25 -158.2 Q79.0 -150.35 79.05 -141.45 L78.3 -135.4 80.35 -133.25 81.05 -130.55 Q82.6 -120.9 81.65 -111.1 L81.15 -95.3 Q80.6 -88.05 82.35 -81.2 L84.2 -80.2 89.25 -77.05 Q93.5 -79.85 93.15 -85.2 92.8 -90.2 97.1 -92.2 97.4 -97.2 95.4 -101.75 98.45 -96.95 99.25 -91.35 94.3 -88.8 95.3 -83.6 95.7 -81.55 94.45 -79.85 98.85 -82.35 103.7 -81.9 L104.7 -81.3 Q104.05 -80.6 102.35 -80.55 L99.5 -80.55 92.7 -74.75 90.45 -73.1 84.35 -75.95 84.05 -75.6 Q80.7 -72.9 80.2 -68.5 L79.7 -62.45 73.55 22.55 73.0 21.85 Q70.05 18.45 66.0 16.2 L69.95 14.4 70.25 6.75 Q70.4 2.45 69.2 -1.45 67.35 -7.55 71.2 -12.45 L69.9 -19.6 Q69.6 -21.5 70.2 -23.2 74.45 -34.65 67.9 -44.0 L68.35 -45.1 73.9 -52.55 74.0 -53.45 66.0 -69.1 66.05 -69.15 70.65 -72.3 74.9 -75.9 75.3 -76.2 75.3 -77.9 Q75.05 -81.6 73.5 -84.75 72.8 -86.2 72.4 -87.8 L72.05 -89.35 Q74.9 -94.15 76.2 -99.45 76.65 -101.3 76.35 -103.4 L76.1 -105.3 71.95 -103.25 73.05 -110.05 70.95 -110.65 64.25 -107.75 65.15 -117.05 53.95 -117.95 58.1 -131.15 48.6 -138.2 56.85 -141.5 Q43.4 -150.2 27.65 -152.85 L5.65 -156.4 Q-12.55 -159.2 -30.6 -156.4 L-25.85 -151.0 -26.9 -149.8 -29.3 -150.4 -29.95 -150.2 -30.4 -150.45 -38.15 -150.2 -35.8 -130.05 -51.0 -138.15 -57.2 -114.65 -73.95 -131.8 -86.2 -114.1 -92.7 -132.85 -104.3 -125.15 -104.1 -126.55 -103.8 -128.05 -103.5 -128.9 Q-102.1 -131.9 -101.5 -135.2 -101.15 -137.15 -101.35 -139.1 L-101.5 -139.0 -107.35 -135.0 Q-110.55 -132.65 -112.85 -129.7 L-112.85 -129.5 -109.8 -123.55 -111.0 -122.65 -116.85 -120.5 -112.9 -109.55 -117.45 -105.35 -111.75 -92.45 -119.2 -83.4 -113.6 -75.2 -119.2 -66.0 -111.55 -56.1 -114.1 -52.25 -117.0 -46.95 -118.1 -44.35 -117.0 -41.7 -117.3 -41.35 -113.05 -31.6 -120.2 -16.05 M54.15 -156.0 Q51.05 -155.2 48.35 -156.7 L48.05 -156.9 47.55 -158.3 45.45 -158.7 41.9 -155.5 45.5 -154.7 Q52.9 -152.75 59.6 -149.45 L59.75 -149.4 61.3 -148.65 63.35 -149.6 62.95 -152.0 61.65 -159.3 54.15 -156.0 M76.95 -143.25 Q77.45 -145.85 77.45 -148.4 77.45 -154.2 81.3 -158.0 L73.9 -162.7 72.55 -165.2 Q71.65 -166.2 70.05 -166.35 L63.7 -161.25 63.25 -159.35 Q62.7 -155.1 64.85 -151.1 L65.5 -148.95 64.05 -147.3 67.65 -144.5 72.7 -140.8 73.9 -139.95 Q75.9 -140.75 76.7 -142.7 L76.95 -143.25 M82.2 53.3 L82.95 55.55 82.35 61.35 80.4 75.15 Q80.0 88.8 73.3 100.15 72.2 101.95 70.2 102.9 L70.4 101.0 70.8 100.6 72.75 98.8 Q77.05 79.65 77.6 59.9 L75.2 54.5 76.1 45.75 76.3 44.85 76.65 45.35 81.05 51.45 82.2 53.3 M34.3 50.2 Q34.15 50.95 34.3 51.75 L34.1 51.75 34.3 51.85 Q39.15 62.7 52.3 64.25 56.85 64.5 61.35 65.7 L67.3 66.55 70.6 60.9 Q68.85 82.55 65.75 104.05 L65.5 106.9 63.2 131.3 Q62.3 131.85 61.45 132.45 L60.8 132.9 61.3 132.7 60.75 133.2 Q49.5 142.05 37.35 149.95 L40.65 145.9 40.0 146.55 Q53.4 133.1 61.15 115.65 L57.5 110.1 57.45 109.65 56.95 109.1 57.65 108.95 62.2 101.4 62.95 101.1 Q63.85 99.15 62.4 97.45 L61.8 96.3 58.0 94.45 57.3 94.1 65.05 86.15 63.15 81.2 63.3 80.85 63.6 80.55 Q64.3 80.1 65.1 79.9 L65.5 75.25 66.0 73.65 65.85 73.15 62.75 72.6 58.65 71.5 Q47.05 67.3 36.1 61.9 L34.65 61.0 31.05 56.4 29.4 49.6 31.3 50.35 31.75 49.9 32.65 50.55 34.3 50.2 M46.9 49.1 L48.4 51.3 52.0 48.85 51.2 47.3 50.5 47.1 46.9 49.1 M44.35 45.4 L44.8 46.05 46.05 45.2 44.95 44.7 Q44.2 44.55 44.35 45.4 M85.85 165.9 L86.6 164.85 82.3 142.85 Q79.15 145.6 77.1 149.25 L75.85 151.4 73.4 155.25 Q79.5 161.15 82.9 169.15 L85.85 165.9 M-57.5 -165.35 L-55.8 -166.4 Q-54.2 -167.45 -53.15 -169.0 -52.45 -170.1 -52.2 -171.2 -54.35 -176.7 -59.4 -179.9 -66.05 -184.05 -73.6 -183.2 -75.3 -182.8 -75.75 -181.35 -79.2 -170.65 -85.35 -161.0 -86.15 -159.85 -86.35 -159.1 -87.2 -156.75 -85.0 -155.9 L-82.8 -156.4 -65.4 -160.1 -63.65 -160.3 Q-61.65 -164.0 -57.5 -165.35 M-55.15 -165.65 L-58.35 -161.25 -52.4 -162.0 -52.1 -162.45 Q-51.2 -164.1 -51.85 -165.9 L-52.4 -167.4 -55.15 -165.65 M-39.8 32.3 L-37.75 33.9 Q-36.85 31.05 -37.0 28.0 L-31.7 23.5 Q-37.65 23.85 -43.2 21.9 L-48.75 26.05 -45.25 27.9 -39.8 32.3 M-33.85 40.2 L-35.6 39.0 -36.15 40.15 -37.15 40.15 Q-43.6 46.3 -52.6 41.9 -54.8 40.75 -57.35 40.35 L-57.45 40.35 -57.4 40.6 -57.6 41.45 Q-76.55 45.55 -94.1 39.9 L-91.4 43.25 -83.3 53.25 -43.6 51.55 -27.85 51.55 -24.65 51.0 Q-18.5 49.15 -15.4 43.2 -17.9 45.05 -20.6 46.45 L-22.2 46.4 Q-28.4 44.2 -33.85 40.2 M-90.75 34.55 L-92.35 36.35 -86.7 38.2 Q-82.4 31.75 -75.25 29.9 L-65.15 34.55 -55.05 27.5 -57.7 26.5 Q-62.45 25.0 -67.2 24.1 -80.0 21.85 -91.4 27.2 L-84.65 28.85 -90.75 34.55 M-40.7 35.3 Q-44.95 32.45 -49.4 30.15 L-52.35 28.7 -61.7 36.55 Q-55.75 38.95 -48.8 39.5 L-44.7 40.35 Q-40.85 40.1 -38.4 36.85 L-40.7 35.3 M-115.95 22.65 L-112.85 24.3 Q-109.7 26.7 -105.9 27.25 -106.5 25.9 -106.4 24.35 -106.05 18.4 -111.05 15.3 L-117.35 20.35 Q-118.35 21.05 -118.05 21.55 L-115.95 22.65" fill="#ffffff" fill-rule="evenodd" stroke="none"/>
    <path d="M80.4 -140.15 L84.4 -136.25 Q85.35 -135.2 85.35 -133.9 85.4 -111.1 84.5 -88.25 L81.15 -95.3 81.65 -111.1 Q82.6 -120.9 81.05 -130.55 L80.35 -133.25 80.8 -133.95 80.4 -140.15 M83.7 -68.15 L77.3 33.75 74.7 35.0 Q73.85 35.35 72.4 36.95 L73.05 28.85 71.15 25.4 69.95 24.1 67.8 22.15 67.5 21.9 65.15 20.35 62.45 18.75 54.95 15.65 56.95 14.25 55.65 11.55 58.8 12.85 66.0 16.2 Q70.05 18.45 73.0 21.85 L73.55 22.55 79.7 -62.45 80.6 -62.95 Q83.35 -64.35 83.7 -68.15 M87.15 54.3 L87.5 54.95 Q84.05 79.3 77.6 103.0 L69.75 108.35 67.4 133.9 59.75 139.6 60.6 140.0 Q67.05 142.45 72.15 147.65 L71.7 148.35 Q69.9 149.3 67.8 148.85 L68.05 150.35 63.2 146.75 Q60.35 144.15 56.9 142.85 L55.7 142.5 33.05 157.5 33.15 157.95 33.5 158.25 Q39.15 181.1 43.05 204.65 54.15 200.35 65.75 197.9 L69.0 197.25 72.55 197.15 Q71.8 198.5 70.2 198.9 L67.05 199.9 65.8 200.3 65.65 200.4 43.1 209.15 45.85 236.0 93.9 216.65 93.45 215.3 85.55 196.55 85.7 196.05 84.45 194.5 85.5 181.35 85.5 180.75 85.75 181.75 Q88.4 179.85 88.75 176.8 88.4 194.6 96.6 210.95 L99.6 217.4 94.3 220.2 109.7 273.2 104.6 273.2 Q98.95 250.95 92.05 229.15 L90.15 223.1 70.7 230.25 45.5 240.35 43.7 263.75 43.95 263.9 Q48.2 267.65 48.3 273.2 L45.65 273.2 Q45.2 269.35 42.25 267.2 L40.8 265.9 Q20.8 250.3 -3.2 241.95 -25.9 233.95 -50.0 232.95 -75.0 231.35 -99.75 236.15 -110.7 238.2 -120.2 243.65 L-120.2 211.3 -119.5 211.75 Q-117.45 186.65 -114.45 161.75 -113.05 149.85 -110.75 138.35 -109.05 130.0 -105.4 122.25 L-120.2 113.95 -120.2 107.85 Q-97.85 121.7 -74.6 134.1 L-75.25 133.55 -36.15 154.15 -35.55 137.2 -31.65 138.3 -31.75 140.5 -32.4 156.05 Q-16.35 166.0 1.75 172.05 L27.6 156.25 29.15 143.95 29.6 139.6 30.4 134.75 34.35 132.95 34.4 133.65 31.4 153.75 37.35 149.95 Q49.5 142.05 60.75 133.2 L61.3 132.7 61.45 132.45 Q62.3 131.85 63.2 131.3 L65.5 106.9 65.65 106.65 65.8 106.65 65.75 104.05 Q68.85 82.55 70.6 60.9 L67.3 66.55 61.35 65.7 Q56.85 64.5 52.3 64.25 39.15 62.7 34.3 51.85 L34.3 51.75 Q34.15 50.95 34.3 50.2 L34.35 49.65 34.85 50.05 38.7 53.9 40.9 52.7 42.1 56.05 Q45.85 59.0 50.35 60.4 54.25 61.6 58.3 60.85 67.25 58.85 71.6 49.9 L71.65 49.8 76.1 45.75 75.2 54.5 70.8 100.6 70.4 101.0 70.2 102.9 Q72.2 101.95 73.3 100.15 80.0 88.8 80.4 75.15 L82.35 61.35 82.95 55.55 82.95 55.5 Q83.6 56.25 84.35 56.25 L87.15 54.3 M26.0 273.2 L18.4 273.2 Q-3.65 262.55 -27.95 259.35 L-26.35 260.95 Q-21.0 266.6 -17.3 273.2 L-93.05 273.2 -83.05 256.3 -88.55 257.15 Q-101.55 258.45 -113.9 262.4 L-120.2 264.95 -120.2 261.1 Q-97.9 253.65 -74.45 252.2 -56.9 252.2 -39.4 254.25 -15.25 256.75 7.6 264.95 17.15 268.4 26.0 273.2 M-120.2 252.65 L-120.2 248.4 -117.7 247.2 Q-101.7 240.6 -84.45 238.85 L-66.3 237.15 -62.2 237.25 -55.5 237.6 Q-45.55 238.5 -35.75 240.8 L-31.45 241.85 Q-59.1 237.3 -86.75 241.45 -104.65 244.0 -120.2 252.65 M-120.2 -141.55 L-120.2 -147.5 -119.05 -148.15 Q-106.85 -155.4 -93.15 -159.05 -95.6 -155.75 -97.55 -152.15 L-102.8 -150.2 Q-111.95 -146.85 -120.2 -141.55 M-48.05 -166.25 L-21.95 -167.2 -13.25 -167.1 Q-15.6 -166.0 -17.8 -165.5 L-26.45 -163.8 -45.25 -162.75 -48.05 -166.25 M20.65 -165.05 L41.75 -160.2 Q41.3 -159.3 40.35 -159.1 31.0 -157.95 21.6 -162.9 L20.65 -165.05 M45.5 -154.7 L47.15 -156.85 Q50.75 -152.65 56.7 -155.0 L60.9 -153.05 60.9 -149.75 59.75 -149.4 59.6 -149.45 Q52.9 -152.75 45.5 -154.7 M72.7 -140.8 L67.65 -144.5 67.0 -146.15 68.95 -148.8 76.05 -144.05 75.9 -143.7 Q74.95 -141.7 72.7 -140.8 M10.6 -161.95 L-4.75 -163.25 -0.9 -166.8 12.8 -165.95 Q12.8 -164.3 12.15 -163.1 11.5 -161.95 10.6 -161.95 M27.95 -161.4 L28.15 -161.4 Q27.35 -161.75 27.95 -161.4 M57.45 43.75 L57.6 43.65 Q62.8 41.35 68.7 41.3 L67.45 42.6 Q62.75 47.45 57.45 43.75 M-107.2 12.0 L-107.6 12.1 -113.0 11.35 Q-112.75 10.7 -112.8 10.2 L-110.7 9.6 -89.2 4.05 -85.3 3.15 -86.55 4.75 -82.1 6.25 -86.9 7.3 -107.2 12.0 M81.05 51.45 L76.65 45.35 77.85 44.45 81.05 51.45 M62.4 97.45 Q63.85 99.15 62.95 101.1 L62.2 101.4 60.1 100.3 62.4 97.45 M-102.2 83.65 L-99.75 83.35 -101.9 85.4 -99.7 86.3 -101.25 86.65 -114.95 89.85 -116.55 88.55 -115.6 86.15 -113.75 85.75 -102.2 83.65 M32.05 170.45 L28.95 160.2 22.55 164.2 0.5 177.6 -20.75 167.5 Q-21.5 167.05 -22.3 166.75 L-39.7 157.8 -59.45 147.1 -98.65 126.05 -101.6 124.35 Q-106.1 134.65 -108.05 145.45 -111.25 163.55 -113.0 181.55 -115.75 209.9 -119.05 238.4 L-114.25 236.3 Q-97.5 229.35 -79.3 228.5 -54.1 227.05 -29.2 231.4 -13.4 234.35 1.75 239.4 14.5 244.6 26.15 252.15 L38.35 259.6 Q39.1 257.3 39.3 255.15 41.75 230.45 38.6 205.8 36.65 189.7 32.85 173.8 L32.05 170.45 M77.6 153.35 L84.85 163.9 84.4 164.45 77.5 154.85 77.6 153.35 M33.05 267.8 L32.3 267.5 Q15.65 254.75 -4.45 248.35 L-5.75 247.3 Q16.15 252.75 33.05 267.8 M-65.4 -160.1 L-82.8 -156.4 -84.75 -158.85 -82.85 -161.55 -63.6 -164.7 Q-64.7 -163.8 -65.0 -162.35 L-65.4 -160.1 M-57.35 40.35 L-57.4 40.6 -57.45 40.35 -57.35 40.35 M-91.4 43.25 Q-80.65 47.6 -68.9 45.65 L-64.25 44.95 Q-57.75 43.5 -51.45 45.4 -42.4 48.0 -35.8 42.45 L-34.85 42.2 -33.85 40.2 Q-28.4 44.2 -22.2 46.4 L-20.6 46.45 Q-17.9 45.05 -15.4 43.2 -18.5 49.15 -24.65 51.0 L-27.85 51.55 -43.6 51.55 -83.3 53.25 -91.4 43.25 M-57.7 26.5 L-64.35 30.5 -73.85 26.25 Q-83.85 26.8 -89.25 35.05 L-90.75 34.55 -84.65 28.85 -91.4 27.2 Q-80.0 21.85 -67.2 24.1 -62.45 25.0 -57.7 26.5 M-49.4 30.15 Q-44.95 32.45 -40.7 35.3 -45.25 39.65 -52.0 36.4 L-54.25 35.4 -54.25 34.15 -49.4 30.15" fill="#000000" fill-rule="evenodd" stroke="none"/>
    <path d="M-120.2 7.85 L-120.2 3.1 -115.9 -5.55 -120.2 -9.35 -120.2 -16.05 -113.05 -31.6 -117.3 -41.35 -117.0 -41.7 -118.1 -44.35 -117.0 -46.95 -114.1 -52.25 -111.55 -56.1 -119.2 -66.0 -113.6 -75.2 -119.2 -83.4 -111.75 -92.45 -117.45 -105.35 -112.9 -109.55 -116.85 -120.5 -111.0 -122.65 -109.8 -123.55 -112.85 -129.5 -112.85 -129.7 Q-110.55 -132.65 -107.35 -135.0 L-101.5 -139.0 -101.35 -139.1 Q-101.15 -137.15 -101.5 -135.2 -102.1 -131.9 -103.5 -128.9 L-103.8 -128.05 -104.1 -126.55 -104.3 -125.15 -92.7 -132.85 -86.2 -114.1 -73.95 -131.8 -57.2 -114.65 -51.0 -138.15 -35.8 -130.05 -38.15 -150.2 -30.4 -150.45 -29.95 -150.2 -29.3 -150.4 -26.9 -149.8 -25.85 -151.0 -30.6 -156.4 Q-12.55 -159.2 5.65 -156.4 L27.65 -152.85 Q43.4 -150.2 56.85 -141.5 L48.6 -138.2 58.1 -131.15 53.95 -117.95 65.15 -117.05 64.25 -107.75 70.95 -110.65 73.05 -110.05 71.95 -103.25 76.1 -105.3 76.35 -103.4 Q76.65 -101.3 76.2 -99.45 74.9 -94.15 72.05 -89.35 L72.4 -87.8 Q72.8 -86.2 73.5 -84.75 75.05 -81.6 75.3 -77.9 L75.3 -76.2 74.9 -75.9 70.65 -72.3 66.05 -69.15 65.95 -69.15 66.0 -69.1 74.0 -53.45 73.9 -52.55 68.35 -45.1 68.4 -45.7 67.9 -44.0 Q74.45 -34.65 70.2 -23.2 69.6 -21.5 69.9 -19.6 L71.2 -12.45 Q67.35 -7.55 69.2 -1.45 70.4 2.45 70.25 6.75 L69.95 14.4 66.0 16.2 58.8 12.85 59.55 12.2 65.35 11.4 Q61.8 -10.0 47.8 -26.5 L48.1 -32.55 Q56.35 -20.25 63.6 -7.5 L63.6 -7.95 64.05 -7.3 Q64.55 -8.85 64.65 -10.3 65.05 -16.5 63.2 -22.4 66.0 -26.85 67.1 -32.2 L61.95 -41.15 Q60.55 -43.35 62.3 -44.8 62.45 -45.9 63.05 -46.9 65.1 -50.15 65.55 -53.75 66.0 -57.3 64.7 -60.85 L60.85 -70.55 68.6 -81.05 63.4 -86.55 69.45 -96.7 67.9 -96.7 Q64.25 -96.6 61.2 -97.5 59.4 -104.1 59.85 -110.9 58.2 -111.15 56.75 -110.35 53.15 -108.25 51.35 -104.8 L50.75 -108.35 50.75 -109.45 50.85 -109.45 50.75 -109.55 50.05 -123.35 50.95 -124.75 50.65 -132.0 48.4 -133.65 Q37.8 -128.05 28.1 -120.95 L25.45 -121.6 25.3 -127.6 21.15 -125.65 21.05 -125.8 20.9 -125.8 20.75 -125.75 19.3 -124.6 18.3 -124.65 18.25 -126.4 16.95 -129.8 15.85 -130.25 10.4 -125.4 10.05 -125.7 9.6 -125.45 Q7.1 -128.1 3.5 -128.6 L2.9 -125.0 2.2 -124.5 1.7 -124.6 -3.1 -123.5 Q-7.2 -127.25 -11.6 -130.45 L-28.0 -142.35 -27.6 -127.9 -28.5 -128.15 -31.25 -116.45 -34.95 -116.95 Q-39.7 -117.95 -44.1 -120.3 L-55.1 -97.45 Q-63.05 -104.35 -69.45 -112.9 L-71.15 -114.95 Q-76.0 -104.65 -83.4 -96.15 L-89.95 -101.8 Q-93.1 -104.65 -97.3 -105.05 -94.15 -93.95 -95.65 -83.3 -96.9 -74.35 -95.25 -65.25 -94.7 -62.05 -95.65 -58.9 -100.65 -42.2 -94.65 -25.25 L-95.35 -24.5 -95.1 -23.75 -96.2 -21.4 -95.95 -20.65 -96.95 -18.85 -97.9 -17.25 Q-98.9 -15.6 -100.2 -14.25 -100.9 -13.5 -100.85 -12.6 L-100.75 -11.55 -100.05 -11.3 -98.55 -11.95 -95.25 -12.4 Q-69.1 -30.15 -39.35 -42.15 L-27.75 -47.05 -27.8 -43.45 Q-48.95 -34.8 -69.25 -24.25 -82.2 -17.6 -94.45 -10.15 L-102.1 1.85 -89.2 4.05 -110.7 9.6 -120.2 7.85 M65.4 -1.2 Q66.25 2.7 68.45 5.7 L69.4 4.6 65.15 -2.05 65.4 -1.2 M70.8 100.6 L75.2 54.5 77.6 59.9 Q77.05 79.65 72.75 98.8 L70.8 100.6 M65.75 104.05 L65.8 106.65 65.65 106.65 65.5 106.9 65.75 104.05 M37.35 149.95 L31.4 153.75 34.4 133.65 34.6 132.7 Q47.6 127.2 54.85 116.1 L55.1 115.4 49.65 107.0 60.0 100.25 60.1 100.3 62.2 101.4 57.65 108.95 56.95 109.1 57.45 109.65 57.5 110.1 61.15 115.65 Q53.4 133.1 40.0 146.55 L40.65 145.9 37.35 149.95 M-35.55 137.2 L-36.15 154.15 -75.25 133.55 -78.0 131.1 -76.85 131.4 -94.75 116.55 -95.15 116.25 -95.3 116.1 Q-103.8 109.45 -111.55 101.8 L-105.65 93.65 Q-105.9 93.4 -106.2 93.25 -110.9 90.3 -116.55 90.35 L-114.95 89.85 -101.25 86.65 -92.85 89.05 -92.35 89.75 -100.6 97.0 Q-84.95 112.8 -64.5 122.85 -56.0 127.1 -47.7 131.4 L-36.55 137.1 -36.55 136.5 -35.45 136.5 -35.55 137.2 M-23.45 -113.5 L-23.5 -111.0 -23.5 -113.5 -23.45 -113.5 M-23.55 -125.2 L-23.55 -126.2 -23.45 -125.2 -23.55 -125.2 M-23.55 -125.15 L-23.45 -125.2 -23.55 -120.35 -23.55 -125.15 M-108.9 -0.65 Q-102.0 -3.6 -100.4 -9.15 -104.15 -6.95 -108.15 -5.4 -116.15 -2.1 -117.45 5.05 L-115.45 3.7 Q-112.5 0.85 -108.9 -0.65" fill="#a90101" fill-rule="evenodd" stroke="none"/>
    <path d="M-120.2 51.85 L-120.2 49.55 -119.85 50.7 -120.2 51.85 M-3.1 -123.5 L12.5 -109.95 28.1 -120.95 Q37.8 -128.05 48.4 -133.65 L50.65 -132.0 50.95 -124.75 50.05 -123.35 50.75 -109.55 50.75 -109.45 50.75 -108.35 50.0 -74.3 48.1 -32.55 47.8 -26.5 45.45 7.95 55.65 11.55 56.95 14.25 54.95 15.65 43.55 11.65 42.05 11.15 43.5 -20.65 44.15 -32.1 44.5 -37.4 Q45.25 -50.95 46.3 -64.45 48.2 -88.55 47.5 -112.55 L47.5 -128.85 28.15 -116.7 11.2 -104.8 -3.15 -118.65 -23.45 -135.0 -23.55 -126.2 -23.55 -125.2 -23.55 -125.15 -23.55 -120.35 -23.5 -113.5 -23.5 -111.0 -24.0 -48.6 -24.1 -44.95 Q-24.35 -27.0 -25.75 -8.95 L-26.05 -4.55 -26.8 2.65 Q-51.35 1.6 -75.7 5.15 L-82.1 6.25 -86.55 4.75 -85.3 3.15 Q-57.75 -2.6 -29.6 -1.9 L-29.5 -1.25 -29.4 -1.8 Q-28.1 -22.7 -27.8 -43.45 L-27.75 -47.05 -27.6 -127.9 -28.0 -142.35 -11.6 -130.45 Q-7.2 -127.25 -3.1 -123.5 M34.35 132.95 L30.4 134.75 37.0 89.3 49.8 91.55 57.25 94.15 58.0 94.45 61.8 96.3 62.4 97.45 60.1 100.3 60.0 100.25 Q58.0 99.35 56.0 98.55 48.4 95.45 40.25 94.25 L36.35 119.85 34.35 132.95 M-99.75 83.35 Q-64.4 78.6 -29.15 82.75 L-29.2 89.25 Q-29.65 113.7 -31.65 138.1 L-35.55 137.2 -35.45 136.5 -33.9 110.3 Q-33.05 98.7 -33.0 87.1 -41.15 84.6 -49.75 84.75 -74.8 83.35 -99.7 86.3 L-101.9 85.4 -99.75 83.35" fill="#640202" fill-rule="evenodd" stroke="none"/>
    <path d="M-117.2 273.2 L-120.2 273.2 -120.2 264.95 -113.9 262.4 -117.2 273.2 M28.15 -116.7 L47.5 -128.85 47.5 -112.55 45.55 -117.5 41.9 -116.15 41.3 -116.35 41.3 -120.95 28.15 -116.7 M71.65 26.65 L70.2 25.25 69.95 24.1 71.15 25.4 71.65 26.65 M67.8 22.15 L67.5 23.85 69.5 29.0 68.95 30.45 69.0 33.85 68.95 33.95 68.8 34.35 68.2 34.55 Q60.9 38.45 52.45 41.6 L51.55 41.25 52.3 39.55 52.4 39.4 52.65 38.7 52.5 38.1 Q59.0 32.95 64.95 27.25 L61.3 19.2 62.25 19.6 62.45 18.75 65.15 20.35 65.45 21.05 67.5 21.9 67.8 22.15 M-91.65 20.6 L-96.75 27.6 -95.3 28.3 -97.45 30.45 -98.4 29.65 Q-98.65 27.45 -100.75 26.35 L-102.2 20.0 Q-103.0 16.55 -104.3 13.35 -105.0 11.7 -107.35 12.15 L-107.2 12.0 -86.9 7.3 -96.95 17.6 -94.0 20.45 -92.7 19.85 -91.95 20.05 -91.65 20.6 M29.15 143.95 L27.6 156.25 1.75 172.05 Q-16.35 166.0 -32.4 156.05 L-31.75 140.5 -29.1 139.25 Q-26.8 140.3 -25.85 142.65 -25.35 143.85 -25.35 145.15 L-23.6 146.5 -19.25 144.3 -16.85 151.15 -15.1 152.05 -10.4 149.7 -9.8 154.45 -8.9 154.75 -5.4 159.1 -5.3 157.85 -2.35 155.3 -0.6 158.95 1.45 158.0 1.9 158.05 Q2.7 157.3 2.75 155.95 2.8 153.9 4.55 152.85 L10.45 156.0 13.15 148.1 18.9 150.5 21.65 145.7 23.75 146.5 29.45 140.45 29.15 143.95 M-31.65 138.3 L-35.55 137.2 -31.65 138.1 -31.65 138.3 M58.65 71.5 L62.75 72.6 66.0 73.65 65.5 75.25 65.1 79.9 Q64.3 80.1 63.6 80.55 L63.3 80.85 63.15 81.2 65.05 86.15 57.3 94.1 57.25 94.15 49.8 91.55 Q56.1 89.45 61.2 85.25 60.0 83.6 59.05 81.6 58.1 79.65 58.6 78.5 L60.0 78.2 59.6 76.9 Q59.25 75.85 58.6 75.15 57.1 73.4 56.25 71.35 L58.65 71.5 M-88.05 56.8 L-88.8 57.3 -97.45 56.2 -99.95 60.4 -97.4 65.2 Q-98.55 66.8 -100.5 67.95 -102.9 69.25 -105.6 69.8 L-97.6 73.9 -98.25 73.45 -94.5 74.45 Q-94.3 74.65 -94.35 74.8 -95.95 80.45 -102.2 83.65 L-113.75 85.75 -106.95 79.0 -118.45 70.6 -112.25 61.15 Q-116.55 50.75 -118.8 39.5 -115.2 37.95 -112.3 35.2 L-111.55 34.4 -104.15 36.25 -104.15 36.75 -88.05 56.8 M22.55 164.2 Q23.65 188.35 14.55 210.75 L17.15 213.65 Q19.2 216.0 20.55 218.95 14.4 219.4 8.6 221.15 L9.1 222.45 Q11.85 230.5 13.6 238.95 L1.75 239.4 Q-13.4 234.35 -29.2 231.4 -54.1 227.05 -79.3 228.5 L-99.1 224.4 -98.25 224.4 Q-97.05 222.75 -95.3 221.6 L-88.75 217.35 Q-93.85 212.2 -100.15 207.7 L-104.25 204.75 Q-103.7 204.25 -101.55 203.3 -97.5 201.5 -93.3 200.0 -97.4 193.75 -102.2 187.3 -103.05 186.1 -103.05 184.6 -103.3 169.85 -101.3 155.0 -99.35 140.65 -98.65 126.05 L-59.45 147.1 -61.2 161.65 -76.8 163.45 -76.9 181.5 -61.6 183.8 -61.6 199.75 -43.7 200.7 -41.2 184.75 -22.65 183.9 -20.75 167.5 0.5 177.6 22.55 164.2 M-23.55 -126.2 L-23.45 -135.0 -3.15 -118.65 -4.2 -118.3 Q-5.45 -119.7 -7.3 -119.7 L-7.35 -120.7 -7.95 -120.95 -9.5 -119.8 Q-10.6 -116.25 -14.3 -116.7 -16.75 -118.45 -19.95 -118.15 L-20.5 -114.2 -22.35 -113.35 -23.45 -113.5 -23.5 -113.5 -23.55 -120.35 -23.45 -125.2 -23.55 -125.15 -23.55 -125.2 -23.45 -125.2 -23.55 -126.2 M-115.95 22.65 Q-114.4 21.75 -113.55 20.2 L-111.95 17.45 Q-110.7 18.2 -109.95 19.5 -108.6 21.75 -108.8 24.4 L-112.85 24.3 -115.95 22.65 M-94.75 116.55 L-76.85 131.4 -78.0 131.1 -94.75 116.6 -94.75 116.55 M-39.7 157.8 L-22.3 166.75 -39.45 162.95 -39.7 157.8" fill="#d97b7b" fill-rule="evenodd" stroke="none"/>
    <path d="M-3.15 -118.65 L11.2 -104.8 28.15 -116.7 41.3 -120.95 41.3 -116.35 41.9 -116.15 45.55 -117.5 47.5 -112.55 Q48.2 -88.55 46.3 -64.45 45.25 -50.95 44.5 -37.4 L35.75 -46.8 34.15 -48.2 35.4 -50.05 34.65 -50.7 33.55 -50.2 29.6 -58.35 27.65 -58.9 29.1 -59.5 Q26.85 -67.95 20.6 -73.65 L19.6 -73.65 19.6 -74.35 17.15 -75.65 15.8 -75.5 15.7 -76.3 14.95 -76.6 13.25 -76.6 8.45 -72.7 9.5 -72.05 9.65 -70.9 6.05 -70.8 -0.3 -66.1 0.55 -64.95 0.15 -63.7 -0.95 -63.55 -2.05 -63.8 -3.15 -64.0 -4.4 -63.15 -1.95 -60.65 -3.1 -59.15 -7.35 -61.05 -8.7 -60.1 -7.3 -58.45 -7.4 -56.85 -13.85 -56.7 -14.4 -56.3 -6.2 -56.25 -5.95 -55.65 -11.9 -53.45 -24.0 -48.6 -23.5 -111.0 -23.45 -113.5 -22.35 -113.35 -20.5 -114.2 -19.95 -118.15 Q-16.75 -118.45 -14.3 -116.7 -10.6 -116.25 -9.5 -119.8 L-7.95 -120.95 -7.35 -120.7 -7.3 -119.7 Q-5.45 -119.7 -4.2 -118.3 L-3.15 -118.65 M44.15 -32.1 L43.5 -20.65 43.2 -21.6 42.45 -21.55 Q42.8 -22.45 42.75 -23.35 L42.65 -24.3 Q39.85 -25.0 38.45 -27.25 39.05 -29.95 40.6 -32.2 L40.4 -33.15 36.0 -32.7 35.8 -34.25 Q37.7 -36.5 38.8 -38.65 L44.15 -32.1 M43.55 11.65 L54.95 15.65 62.45 18.75 62.25 19.6 61.3 19.2 64.95 27.25 Q59.0 32.95 52.5 38.1 L52.65 38.7 52.4 39.4 52.3 39.55 51.55 41.25 51.4 41.4 43.55 38.85 42.35 35.7 Q44.95 33.65 45.3 30.1 L45.5 25.25 42.5 25.15 41.55 25.3 41.3 24.3 Q40.45 24.2 40.2 23.3 L40.1 22.1 Q41.55 19.4 44.5 18.0 L44.3 15.65 42.75 15.3 42.75 15.2 Q42.4 13.35 43.55 11.65 M36.7 -41.05 L38.35 -39.2 36.7 -39.5 36.7 -41.05 M39.5 -36.05 L39.35 -35.65 39.65 -35.6 39.5 -36.05 M41.05 -27.9 L42.0 -27.0 41.05 -29.75 41.05 -27.9 M-15.4 -48.6 L-16.2 -45.6 -14.8 -42.1 Q-14.3 -40.65 -15.05 -39.2 L-19.65 -37.4 -20.0 -37.95 -26.05 -4.55 -25.75 -8.95 Q-24.35 -27.0 -24.1 -44.95 L-15.4 -48.6 M-26.8 2.65 L-26.7 3.8 Q-26.05 8.5 -27.95 12.9 L-25.65 14.8 Q-28.35 16.1 -31.1 16.6 L-34.75 16.35 Q-47.2 13.1 -54.45 23.6 -70.3 17.8 -87.0 19.95 L-91.65 20.6 -91.95 20.05 -92.7 19.85 -94.0 20.45 -96.95 17.6 -86.9 7.3 -82.1 6.25 -75.7 5.15 Q-51.35 1.6 -26.8 2.65 M73.05 28.85 L71.65 26.65 71.15 25.4 73.05 28.85 M34.85 50.05 L34.35 49.65 34.3 50.2 32.65 50.55 31.75 49.9 31.3 50.35 29.4 49.6 31.05 56.4 Q25.35 51.7 31.45 47.0 L33.15 45.75 34.55 46.25 34.55 47.1 35.6 46.8 Q37.2 46.2 38.15 44.9 L39.65 48.7 34.85 50.05 M30.4 134.75 L29.6 139.6 29.45 140.45 23.75 146.5 21.65 145.7 18.9 150.5 13.15 148.1 10.45 156.0 4.55 152.85 Q2.8 153.9 2.75 155.95 2.7 157.3 1.9 158.05 L1.45 158.0 -0.6 158.95 -2.35 155.3 -5.3 157.85 -5.4 159.1 -8.9 154.75 -9.8 154.45 -10.4 149.7 -15.1 152.05 -16.85 151.15 -19.25 144.3 -23.6 146.5 -25.35 145.15 Q-25.35 143.85 -25.85 142.65 -26.8 140.3 -29.1 139.25 L-31.75 140.5 -31.65 138.3 -31.65 138.1 Q-29.65 113.7 -29.2 89.25 L-29.15 82.75 Q-64.4 78.6 -99.75 83.35 L-102.2 83.65 Q-95.95 80.45 -94.35 74.8 -94.3 74.65 -94.5 74.45 L-98.25 73.45 -97.6 73.9 -105.6 69.8 Q-102.9 69.25 -100.5 67.95 -98.55 66.8 -97.4 65.2 L-99.95 60.4 -97.45 56.2 -88.8 57.3 -88.05 56.8 -86.2 58.55 -24.8 54.8 Q-27.2 56.35 -28.8 58.35 L-29.7 59.55 -29.6 61.3 -28.8 62.2 -26.45 62.85 -27.8 63.45 Q-25.0 66.15 -22.85 69.35 L-22.65 69.85 -20.45 71.95 -21.1 72.85 -20.75 74.3 Q-21.4 75.15 -21.35 76.05 L-21.2 76.65 -20.7 78.75 -15.2 78.75 Q-17.35 79.45 -18.65 81.3 L-19.25 82.3 -19.05 82.4 -19.25 83.45 -17.7 86.9 -18.35 90.15 -11.75 90.95 -10.15 92.75 -5.95 91.4 Q-12.6 93.95 -17.2 99.4 L-9.0 98.55 -9.15 99.1 -5.65 98.1 -4.65 99.0 -9.75 102.2 -6.5 103.25 -7.05 103.7 Q-4.75 102.45 -2.35 103.2 -0.9 103.55 -0.05 104.7 L-1.1 105.95 -0.8 106.9 -5.15 108.5 -4.0 110.0 1.2 110.9 -1.8 111.2 2.25 114.0 Q6.35 113.1 9.7 110.55 L9.3 106.55 14.3 106.45 16.55 104.3 12.6 105.2 13.0 104.7 Q18.6 103.85 22.95 100.15 L22.05 98.6 16.7 98.7 17.65 98.35 17.25 97.55 15.15 97.3 Q21.4 94.55 26.4 90.6 27.2 89.95 27.2 88.6 L25.1 88.5 27.45 86.0 Q27.85 81.35 29.75 77.2 L34.05 77.55 Q37.35 72.6 37.75 66.65 L39.3 66.75 39.35 67.0 39.35 67.1 39.5 66.6 34.65 61.0 36.1 61.9 Q47.05 67.3 58.65 71.5 L56.25 71.35 Q57.1 73.4 58.6 75.15 59.25 75.85 59.6 76.9 L60.0 78.2 58.6 78.5 Q58.1 79.65 59.05 81.6 60.0 83.6 61.2 85.25 56.1 89.45 49.8 91.55 L37.0 89.3 30.4 134.75 M67.5 21.9 L65.45 21.05 65.15 20.35 67.5 21.9 M62.75 72.6 L65.85 73.15 66.0 73.65 62.75 72.6 M-13.55 -55.45 L-13.6 -55.5 Q-14.0 -55.15 -13.55 -55.45 M-32.6 37.45 L-31.35 34.05 Q-30.25 30.4 -28.0 27.45 L-22.3 37.4 -23.35 38.2 -26.35 34.8 -22.95 39.2 -20.85 39.85 -21.8 40.65 -21.15 41.4 -21.15 42.25 -19.35 43.35 -20.45 43.4 -21.15 42.75 Q-21.55 43.3 -22.2 43.0 -27.45 40.4 -32.6 37.45 M-12.85 44.0 L-12.8 44.75 -13.25 44.7 -12.85 44.0 M-45.25 27.9 L-43.0 24.8 -37.9 25.55 Q-39.4 26.8 -39.4 28.9 -39.45 30.65 -39.8 32.3 L-45.25 27.9" fill="#edc5c5" fill-rule="evenodd" stroke="none"/>
    <path d="M-120.2 247.7 L-120.2 243.65 Q-110.7 238.2 -99.75 236.15 -75.0 231.35 -50.0 232.95 -25.9 233.95 -3.2 241.95 20.8 250.3 40.8 265.9 L42.2 267.4 41.15 269.2 39.6 268.75 Q36.4 267.9 33.05 267.8 16.15 252.75 -5.75 247.3 L-4.45 248.35 Q-12.15 245.5 -20.05 243.35 L-26.3 241.8 -26.0 241.45 Q-40.65 238.5 -55.5 237.6 L-62.2 237.25 -66.3 237.15 -84.45 238.85 Q-101.7 240.6 -117.7 247.2 L-120.2 247.7 M66.05 -69.15 L66.0 -69.1 65.95 -69.15 66.05 -69.15 M68.35 -45.1 L67.9 -44.0 68.4 -45.7 68.35 -45.1 M-3.1 -123.5 L1.7 -124.6 2.2 -124.5 2.9 -125.0 3.5 -128.6 Q7.1 -128.1 9.6 -125.45 L10.05 -125.7 10.4 -125.4 15.85 -130.25 16.95 -129.8 18.25 -126.4 18.3 -124.65 19.3 -124.6 20.75 -125.75 20.9 -125.8 21.05 -125.8 21.15 -125.65 25.3 -127.6 25.45 -121.6 28.1 -120.95 12.5 -109.95 -3.1 -123.5 M50.75 -109.55 L50.85 -109.45 50.75 -109.45 50.75 -109.55 M50.75 -108.35 L51.35 -104.8 Q53.15 -108.25 56.75 -110.35 58.2 -111.15 59.85 -110.9 59.4 -104.1 61.2 -97.5 64.25 -96.6 67.9 -96.7 L69.45 -96.7 63.4 -86.55 68.6 -81.05 60.85 -70.55 64.7 -60.85 Q66.0 -57.3 65.55 -53.75 65.1 -50.15 63.05 -46.9 62.45 -45.9 62.3 -44.8 60.55 -43.35 61.95 -41.15 L67.1 -32.2 Q66.0 -26.85 63.2 -22.4 65.05 -16.5 64.65 -10.3 64.55 -8.85 64.05 -7.3 L63.6 -7.95 63.6 -7.5 Q56.35 -20.25 48.1 -32.55 L50.0 -74.3 50.75 -108.35 M47.8 -26.5 Q61.8 -10.0 65.35 11.4 L59.55 12.2 58.8 12.85 55.65 11.55 45.45 7.95 47.8 -26.5 M44.5 -37.4 L44.15 -32.1 38.8 -38.65 38.35 -39.2 36.7 -41.05 36.6 -41.1 35.75 -46.8 44.5 -37.4 M-11.9 -53.45 L-13.5 -49.4 -15.4 -48.6 -24.1 -44.95 -24.0 -48.6 -11.9 -53.45 M36.35 119.85 L40.25 94.25 Q48.4 95.45 56.0 98.55 58.0 99.35 60.0 100.25 L49.65 107.0 55.1 115.4 54.85 116.1 Q47.6 127.2 34.6 132.7 L36.35 119.85 M-27.75 -47.05 L-39.35 -42.15 Q-69.1 -30.15 -95.25 -12.4 L-98.55 -11.95 -100.05 -11.3 -100.75 -11.55 -100.85 -12.6 Q-100.9 -13.5 -100.2 -14.25 -98.9 -15.6 -97.9 -17.25 L-96.95 -18.85 -95.95 -20.65 -96.2 -21.4 -95.1 -23.75 -95.35 -24.5 -94.65 -25.25 Q-100.65 -42.2 -95.65 -58.9 -94.7 -62.05 -95.25 -65.25 -96.9 -74.35 -95.65 -83.3 -94.15 -93.95 -97.3 -105.05 -93.1 -104.65 -89.95 -101.8 L-83.4 -96.15 Q-76.0 -104.65 -71.15 -114.95 L-69.45 -112.9 Q-63.05 -104.35 -55.1 -97.45 L-44.1 -120.3 Q-39.7 -117.95 -34.95 -116.95 L-31.25 -116.45 -28.5 -128.15 -27.6 -127.9 -27.75 -47.05 M-27.8 -43.45 Q-28.1 -22.7 -29.4 -1.8 L-29.5 -1.25 -29.6 -1.9 Q-57.75 -2.6 -85.3 3.15 L-89.2 4.05 -102.1 1.85 -94.45 -10.15 Q-82.2 -17.6 -69.25 -24.25 -48.95 -34.8 -27.8 -43.45 M-99.7 86.3 Q-74.8 83.35 -49.75 84.75 -41.15 84.6 -33.0 87.1 -33.05 98.7 -33.9 110.3 L-35.45 136.5 -36.55 136.5 -36.55 137.1 -47.7 131.4 Q-56.0 127.1 -64.5 122.85 -84.95 112.8 -100.6 97.0 L-92.35 89.75 -92.85 89.05 -101.25 86.65 -99.7 86.3" fill="#ff0000" fill-rule="evenodd" stroke="none"/>
    <path d="M43.5 -20.65 L42.05 11.15 43.55 11.65 Q42.4 13.35 42.75 15.2 L42.75 15.3 44.3 15.65 44.5 18.0 Q41.55 19.4 40.1 22.1 38.45 19.85 36.5 17.9 35.0 16.4 34.05 18.25 32.35 21.8 35.15 25.4 23.8 40.05 9.35 52.2 L5.85 49.15 Q14.6 30.15 5.85 12.0 3.9 8.0 3.0 3.8 1.8 -1.85 -2.65 -3.45 L-7.15 0.65 Q-15.45 9.0 -25.65 14.8 L-27.95 12.9 Q-26.05 8.5 -26.7 3.8 L-26.8 2.65 -26.05 -4.55 -20.0 -37.95 -19.65 -37.4 -15.05 -39.2 Q-14.3 -40.65 -14.8 -42.1 L-16.2 -45.6 -15.4 -48.6 -13.5 -49.4 14.85 -60.65 18.8 -57.6 Q28.5 -50.05 36.6 -41.1 L36.7 -41.05 36.7 -39.5 38.35 -39.2 38.8 -38.65 Q37.7 -36.5 35.8 -34.25 L36.0 -32.7 40.4 -33.15 40.6 -32.2 Q39.05 -29.95 38.45 -27.25 39.85 -25.0 42.65 -24.3 L42.75 -23.35 Q42.8 -22.45 42.45 -21.55 L43.2 -21.6 43.5 -20.65 M-5.95 -55.65 L-6.2 -56.25 -14.4 -56.3 -13.85 -56.7 -7.4 -56.85 -7.3 -58.45 -8.7 -60.1 -7.35 -61.05 -3.1 -59.15 -1.95 -60.65 -4.4 -63.15 -3.15 -64.0 -2.05 -63.8 -0.95 -63.55 0.15 -63.7 0.55 -64.95 -0.3 -66.1 6.05 -70.8 9.65 -70.9 9.5 -72.05 8.45 -72.7 13.25 -76.6 14.95 -76.6 15.7 -76.3 15.8 -75.5 17.15 -75.65 19.6 -74.35 19.6 -73.65 20.6 -73.65 Q26.85 -67.95 29.1 -59.5 L27.65 -58.9 29.6 -58.35 33.55 -50.2 34.65 -50.7 35.4 -50.05 34.15 -48.2 16.45 -63.85 -5.95 -55.65 M39.5 -36.05 L39.65 -35.6 39.35 -35.65 39.5 -36.05 M41.05 -27.9 L41.05 -29.75 42.0 -27.0 41.05 -27.9 M42.5 25.15 L45.5 25.25 45.3 30.1 Q44.95 33.65 42.35 35.7 L40.45 30.6 Q42.9 28.1 42.5 25.15 M-28.0 27.45 Q-23.75 23.9 -18.8 21.05 -11.5 16.9 -5.85 10.75 L-1.3 18.5 Q0.9 22.3 1.15 26.35 1.95 40.25 -1.85 54.5 1.8 59.8 7.6 62.35 9.05 63.05 10.25 61.95 22.7 51.0 34.55 39.1 L38.15 44.9 Q37.2 46.2 35.6 46.8 L34.55 47.1 34.55 46.25 33.15 45.75 31.45 47.0 Q25.35 51.7 31.05 56.4 L34.65 61.0 39.5 66.6 39.35 67.1 39.35 67.0 39.3 66.75 37.75 66.65 Q37.35 72.6 34.05 77.55 L29.75 77.2 Q27.85 81.35 27.45 86.0 L25.1 88.5 27.2 88.6 Q27.2 89.95 26.4 90.6 21.4 94.55 15.15 97.3 L17.25 97.55 17.65 98.35 16.7 98.7 22.05 98.6 22.95 100.15 Q18.6 103.85 13.0 104.7 L12.6 105.2 16.55 104.3 14.3 106.45 9.3 106.55 9.7 110.55 Q6.35 113.1 2.25 114.0 L-1.8 111.2 1.2 110.9 -4.0 110.0 -5.15 108.5 -0.8 106.9 -1.1 105.95 -0.05 104.7 Q-0.9 103.55 -2.35 103.2 -4.75 102.45 -7.05 103.7 L-6.5 103.25 -9.75 102.2 -4.65 99.0 -5.65 98.1 -9.15 99.1 -9.0 98.55 -17.2 99.4 Q-12.6 93.95 -5.95 91.4 L-10.15 92.75 -11.75 90.95 -18.35 90.15 -17.7 86.9 -19.25 83.45 -19.05 82.4 -19.25 82.3 -18.65 81.3 Q-17.35 79.45 -15.2 78.75 L-20.7 78.75 -21.2 76.65 -21.35 76.05 Q-21.4 75.15 -20.75 74.3 L-21.1 72.85 -20.45 71.95 -22.65 69.85 -22.85 69.35 Q-25.0 66.15 -27.8 63.45 L-26.45 62.85 -28.8 62.2 -29.6 61.3 -29.7 59.55 -28.8 58.35 Q-27.2 56.35 -24.8 54.8 -16.95 53.2 -13.45 45.95 L-12.8 44.75 -12.85 44.0 Q-12.2 43.2 -12.6 42.35 L-12.8 41.85 -19.35 43.35 -21.15 42.25 -21.15 41.4 -21.8 40.65 -20.85 39.85 -22.95 39.2 -26.35 34.8 -23.35 38.2 -22.3 37.4 -28.0 27.45 M-13.55 -55.45 Q-14.0 -55.15 -13.6 -55.5 L-13.55 -55.45" fill="#f4dfdf" fill-rule="evenodd" stroke="none"/>
    <path d="M34.15 -48.2 L35.75 -46.8 36.6 -41.1 Q28.5 -50.05 18.8 -57.6 L14.85 -60.65 -13.5 -49.4 -11.9 -53.45 -5.95 -55.65 16.45 -63.85 34.15 -48.2" fill="#fe6767" fill-rule="evenodd" stroke="none"/>
    <path d="M65.4 -1.2 L65.15 -2.05 69.4 4.6 68.45 5.7 Q66.25 2.7 65.4 -1.2 M-108.9 -0.65 Q-112.5 0.85 -115.45 3.7 L-117.45 5.05 Q-116.15 -2.1 -108.15 -5.4 -104.15 -6.95 -100.4 -9.15 -102.0 -3.6 -108.9 -0.65" fill="#7e0101" fill-rule="evenodd" stroke="none"/>
    <path d="M69.0 197.25 Q62.45 192.5 54.7 189.85 L48.45 187.7 Q44.55 173.65 47.3 159.25 47.65 157.5 48.8 155.9 54.3 148.65 63.2 146.75 L68.05 150.35 68.2 150.5 62.15 150.75 62.3 151.15 Q64.05 153.25 65.1 155.45 59.75 155.95 55.1 158.3 L61.85 165.05 55.3 176.35 69.5 176.75 69.9 186.7 77.3 180.05 Q78.75 184.3 81.55 187.95 L82.4 187.9 85.5 181.35 84.45 194.5 85.7 196.05 85.55 196.55 93.45 215.3 74.0 214.2 70.95 210.6 Q67.45 206.0 65.85 200.3 L65.8 200.3 67.05 199.9 70.2 198.9 Q71.8 198.5 72.55 197.15 L69.0 197.25" fill="#7b7b7b" fill-rule="evenodd" stroke="none"/>
    <path d="M-120.2 211.3 L-120.2 113.95 -105.4 122.25 Q-109.05 130.0 -110.75 138.35 -113.05 149.85 -114.45 161.75 -117.45 186.65 -119.5 211.75 L-120.2 211.3 M29.6 139.6 L29.15 143.95 29.45 140.45 29.6 139.6 M69.0 197.25 L65.75 197.9 Q54.15 200.35 43.05 204.65 39.15 181.1 33.5 158.25 L33.15 157.95 33.05 157.5 55.7 142.5 56.9 142.85 Q60.35 144.15 63.2 146.75 54.3 148.65 48.8 155.9 47.65 157.5 47.3 159.25 44.55 173.65 48.45 187.7 L54.7 189.85 Q62.45 192.5 69.0 197.25 M65.85 200.3 Q67.45 206.0 70.95 210.6 L74.0 214.2 93.45 215.3 93.9 216.65 45.85 236.0 43.1 209.15 65.65 200.4 65.85 200.3" fill="#515151" fill-rule="evenodd" stroke="none"/>
    <path d="M104.6 273.2 L80.95 273.2 70.7 230.25 90.15 223.1 92.05 229.15 Q98.95 250.95 104.6 273.2" fill="#6a6a6a" fill-rule="evenodd" stroke="none"/>
    <path d="M80.95 273.2 L48.3 273.2 Q48.2 267.65 43.95 263.9 L43.7 263.75 45.5 240.35 70.7 230.25 80.95 273.2" fill="#333333" fill-rule="evenodd" stroke="none"/>
    <path d="M45.65 273.2 L26.0 273.2 Q17.15 268.4 7.6 264.95 -15.25 256.75 -39.4 254.25 -56.9 252.2 -74.45 252.2 -97.9 253.65 -120.2 261.1 L-120.2 252.65 Q-104.65 244.0 -86.75 241.45 -59.1 237.3 -31.45 241.85 L-35.75 240.8 Q-45.55 238.5 -55.5 237.6 -40.65 238.5 -26.0 241.45 L-26.3 241.8 -20.05 243.35 Q-12.15 245.5 -4.45 248.35 15.65 254.75 32.3 267.5 L33.05 267.8 Q36.4 267.9 39.6 268.75 L41.15 269.2 42.2 267.4 40.8 265.9 42.25 267.2 Q45.2 269.35 45.65 273.2 M-120.2 248.4 L-120.2 247.7 -117.7 247.2 -120.2 248.4 M-20.75 167.5 L-22.65 183.9 -41.2 184.75 -43.7 200.7 -61.6 199.75 -61.6 183.8 -76.9 181.5 -76.8 163.45 -61.2 161.65 -59.45 147.1 -39.7 157.8 -39.45 162.95 -22.3 166.75 Q-21.5 167.05 -20.75 167.5" fill="#ba0101" fill-rule="evenodd" stroke="none"/>
    <path d="M18.4 273.2 L-17.3 273.2 Q-21.0 266.6 -26.35 260.95 L-27.95 259.35 Q-3.65 262.55 18.4 273.2 M-93.05 273.2 L-117.2 273.2 -113.9 262.4 Q-101.55 258.45 -88.55 257.15 L-83.05 256.3 -93.05 273.2 M22.55 164.2 L28.95 160.2 32.05 170.45 38.6 205.8 Q41.75 230.45 39.3 255.15 39.1 257.3 38.35 259.6 L26.15 252.15 Q14.5 244.6 1.75 239.4 L13.6 238.95 Q11.85 230.5 9.1 222.45 L8.6 221.15 Q14.4 219.4 20.55 218.95 19.2 216.0 17.15 213.65 L14.55 210.75 Q23.65 188.35 22.55 164.2 M-98.65 126.05 Q-99.35 140.65 -101.3 155.0 -103.3 169.85 -103.05 184.6 -103.05 186.1 -102.2 187.3 -97.4 193.75 -93.3 200.0 -97.5 201.5 -101.55 203.3 -103.7 204.25 -104.25 204.75 L-100.15 207.7 Q-93.85 212.2 -88.75 217.35 L-95.3 221.6 Q-97.05 222.75 -98.25 224.4 L-99.1 224.4 -79.3 228.5 Q-97.5 229.35 -114.25 236.3 L-119.05 238.4 Q-115.75 209.9 -113.0 181.55 -111.25 163.55 -108.05 145.45 -106.1 134.65 -101.6 124.35 L-98.65 126.05" fill="#f3d8d8" fill-rule="evenodd" stroke="none"/>
    <path d="M84.5 -88.25 L85.7 -82.75 88.8 -80.85 89.85 -86.3 Q90.5 -90.35 93.5 -93.15 90.6 -99.05 94.2 -102.6 95.35 -103.75 96.3 -102.9 101.95 -97.95 101.45 -90.2 101.45 -89.8 101.1 -89.55 98.45 -87.6 98.1 -84.3 104.0 -86.05 107.05 -81.45 107.55 -80.75 106.9 -80.2 104.1 -77.75 100.4 -78.1 96.55 -72.55 90.7 -71.5 L89.5 -71.45 85.55 -72.9 83.7 -68.4 84.05 -75.6 84.35 -75.95 90.45 -73.1 92.7 -74.75 99.5 -80.55 102.35 -80.55 Q104.05 -80.6 104.7 -81.3 L103.7 -81.9 Q98.85 -82.35 94.45 -79.85 95.7 -81.55 95.3 -83.6 94.3 -88.8 99.25 -91.35 98.45 -96.95 95.4 -101.75 97.4 -97.2 97.1 -92.2 92.8 -90.2 93.15 -85.2 93.5 -79.85 89.25 -77.05 L84.2 -80.2 84.5 -88.25 M77.3 33.75 Q87.2 30.3 98.1 31.1 L103.15 31.2 Q103.15 33.0 101.5 33.6 95.45 35.9 90.95 40.1 89.8 41.2 89.55 43.1 94.4 43.05 99.2 44.2 101.4 44.85 103.5 45.85 L104.8 46.6 104.85 47.25 94.65 50.15 Q90.6 51.4 87.15 54.3 L85.95 52.0 Q90.1 48.5 95.45 47.4 L97.85 47.1 Q95.55 45.4 92.75 45.7 89.4 46.35 86.35 47.85 L85.8 37.1 95.6 34.1 Q87.85 33.1 79.15 36.95 78.05 37.45 76.95 38.0 L77.3 33.75 M72.15 147.65 Q76.2 136.05 88.5 135.45 L90.8 135.2 92.45 132.55 90.85 127.25 88.05 124.7 88.2 123.9 94.2 125.7 94.5 126.95 Q98.1 123.3 103.0 124.9 L106.55 125.8 99.55 129.55 Q97.0 136.1 92.7 141.0 L97.65 127.9 102.45 126.5 98.4 126.25 96.9 126.95 94.75 131.6 93.05 126.65 91.65 126.0 92.95 128.65 92.75 129.4 94.15 132.65 92.4 137.3 88.85 137.6 Q81.8 137.55 77.4 142.85 L77.05 143.95 73.8 149.3 72.15 147.65 M92.35 141.35 L91.95 141.8 Q90.5 143.35 87.4 143.4 91.3 155.7 90.55 168.25 90.45 170.2 89.7 172.15 L88.85 174.8 87.7 170.55 Q89.25 169.0 89.05 167.0 87.65 154.3 84.8 141.55 L92.35 141.35 M-93.15 -159.05 Q-82.85 -167.3 -79.85 -179.75 -79.45 -181.45 -78.3 -182.9 -75.5 -186.25 -71.75 -188.65 -59.25 -185.9 -49.55 -176.65 -47.6 -174.75 -48.05 -171.55 L-48.6 -167.0 -48.05 -166.25 -50.4 -166.05 -49.4 -174.55 Q-54.7 -177.95 -60.35 -181.0 L-61.45 -181.8 Q-65.6 -186.0 -71.25 -187.35 L-79.8 -179.75 -79.75 -178.7 Q-80.85 -167.6 -89.3 -160.05 L-93.15 -159.05 M-13.25 -167.1 Q-4.45 -171.7 3.5 -177.2 5.6 -178.75 8.15 -177.95 12.5 -176.6 17.0 -175.6 L18.9 -174.85 19.3 -172.55 19.25 -171.4 18.8 -169.7 20.65 -165.05 17.0 -165.65 Q15.35 -168.15 15.9 -170.8 L16.15 -171.45 16.2 -173.5 Q10.6 -173.85 5.45 -175.85 L2.75 -174.85 Q4.15 -174.5 6.55 -173.15 9.55 -171.9 13.85 -171.75 13.65 -168.75 14.15 -165.9 L12.9 -165.95 12.7 -170.15 3.55 -173.0 -1.1 -166.8 -4.7 -166.95 2.55 -174.75 Q-1.35 -173.0 -4.6 -169.55 -6.2 -167.8 -8.6 -167.0 L-13.25 -167.1 M41.75 -160.2 Q43.1 -161.9 44.95 -163.15 L46.15 -163.8 Q50.35 -160.9 54.8 -161.4 55.55 -161.3 56.0 -161.95 61.2 -169.55 69.25 -170.8 71.05 -171.15 72.5 -169.95 75.1 -168.0 76.85 -165.05 82.3 -164.1 85.2 -158.85 81.45 -149.8 80.4 -140.15 L79.05 -141.45 Q79.0 -150.35 83.25 -158.2 L79.8 -161.65 Q75.3 -161.05 74.75 -165.75 L72.7 -166.9 Q71.6 -167.5 70.4 -167.7 68.1 -168.15 66.4 -166.45 61.0 -161.2 54.15 -158.05 L51.35 -158.15 Q48.35 -160.0 45.4 -161.15 L43.5 -159.65 41.75 -160.2 M56.15 -155.2 L54.15 -156.0 61.65 -159.3 62.95 -152.0 Q62.1 -152.45 61.3 -152.85 L60.1 -156.8 56.15 -155.2 M64.85 -151.1 Q62.7 -155.1 63.25 -159.35 L63.7 -161.25 70.05 -166.35 Q71.65 -166.2 72.55 -165.2 L73.9 -162.7 81.3 -158.0 Q77.45 -154.2 77.45 -148.4 77.45 -145.85 76.95 -143.25 L76.05 -144.05 78.4 -158.45 Q74.9 -159.75 72.0 -162.4 L70.45 -164.4 64.85 -160.4 67.75 -153.1 68.95 -148.8 64.85 -151.1 M78.65 40.65 L81.15 39.25 83.35 40.4 Q82.5 44.0 83.35 47.6 L78.65 40.65 M-85.35 -161.0 Q-79.2 -170.65 -75.75 -181.35 -75.3 -182.8 -73.6 -183.2 -66.05 -184.05 -59.4 -179.9 -54.35 -176.7 -52.2 -171.2 -52.45 -170.1 -53.15 -169.0 -54.2 -167.45 -55.8 -166.4 L-57.5 -165.35 -63.6 -164.7 Q-59.0 -168.15 -54.9 -171.9 -54.55 -172.15 -54.35 -172.55 -61.4 -183.8 -73.95 -181.8 -76.05 -170.6 -82.85 -161.55 L-85.35 -161.0" fill="#ffffff" fill-opacity="0.4117647" fill-rule="evenodd" stroke="none"/>
    <path d="M83.7 -68.4 L83.7 -68.15 Q83.35 -64.35 80.6 -62.95 L79.7 -62.45 80.2 -68.5 Q80.7 -72.9 84.05 -75.6 L83.7 -68.4 M88.85 174.8 L88.8 175.15 88.8 175.25 88.75 176.8 Q88.4 179.85 85.75 181.75 L85.5 180.75 84.8 175.15 87.7 170.55 88.85 174.8 M-120.2 89.3 L-120.2 89.0 -118.3 86.85 -115.6 86.15 -116.55 88.55 -114.95 89.85 -116.55 90.35 -117.7 90.7 -120.2 89.3 M79.05 -141.45 L80.4 -140.15 80.8 -133.95 80.35 -133.25 78.3 -135.4 79.05 -141.45 M41.75 -160.2 L43.5 -159.65 38.6 -156.2 Q26.7 -157.25 18.2 -164.25 L17.0 -165.65 20.65 -165.05 21.6 -162.9 Q31.0 -157.95 40.35 -159.1 41.3 -159.3 41.75 -160.2 M56.7 -155.0 Q50.75 -152.65 47.15 -156.85 L45.5 -154.7 41.9 -155.5 45.45 -158.7 47.55 -158.3 48.05 -156.9 48.35 -156.7 Q51.05 -155.2 54.15 -156.0 L56.15 -155.2 56.7 -155.0 M59.75 -149.4 L60.9 -149.75 60.9 -153.05 61.3 -152.85 Q62.1 -152.45 62.95 -152.0 L63.35 -149.6 61.3 -148.65 59.75 -149.4 M76.95 -143.25 L76.7 -142.7 Q75.9 -140.75 73.9 -139.95 L72.7 -140.8 Q74.95 -141.7 75.9 -143.7 L76.05 -144.05 76.95 -143.25 M67.65 -144.5 L64.05 -147.3 65.5 -148.95 64.85 -151.1 68.95 -148.8 67.0 -146.15 67.65 -144.5 M14.15 -165.9 L14.15 -164.5 Q14.1 -162.95 13.15 -161.7 L10.6 -161.95 Q11.5 -161.95 12.15 -163.1 12.8 -164.3 12.8 -165.95 L12.9 -165.95 14.15 -165.9 M-4.75 -163.25 L-9.35 -163.45 -4.7 -166.95 -1.1 -166.8 -0.9 -166.8 -4.75 -163.25 M-8.6 -167.0 Q-14.55 -163.65 -21.35 -163.95 L-26.45 -163.8 -17.8 -165.5 Q-15.6 -166.0 -13.25 -167.1 L-8.6 -167.0 M-45.25 -162.75 L-48.55 -162.45 -50.4 -166.05 -48.05 -166.25 -45.25 -162.75 M-89.3 -160.05 L-95.15 -152.95 -97.55 -152.15 Q-95.6 -155.75 -93.15 -159.05 L-89.3 -160.05 M27.95 -161.4 Q27.35 -161.75 28.15 -161.4 L27.95 -161.4 M84.2 -80.2 L82.35 -81.2 Q80.6 -88.05 81.15 -95.3 L84.5 -88.25 84.2 -80.2 M83.35 47.6 Q83.75 49.35 84.55 50.9 85.35 52.45 85.95 52.0 L87.15 54.3 84.35 56.25 Q83.6 56.25 82.95 55.5 L83.05 54.85 82.2 53.3 81.05 51.45 77.85 44.45 76.65 45.35 76.3 44.85 76.1 45.75 71.65 49.8 71.85 46.6 73.8 44.45 Q75.85 42.1 78.65 40.65 L83.35 47.6 M76.95 38.0 L76.2 38.65 76.05 39.3 Q72.1 41.6 68.9 45.0 65.7 48.35 61.85 50.85 59.65 47.05 55.45 47.05 L54.0 45.5 57.45 43.75 Q62.75 47.45 67.45 42.6 L68.7 41.3 72.2 41.15 72.4 36.95 Q73.85 35.35 74.7 35.0 L77.3 33.75 76.95 38.0 M-107.6 12.1 L-118.85 15.0 -117.9 14.5 -118.35 14.25 -115.5 11.05 -112.8 10.2 Q-112.75 10.7 -113.0 11.35 L-107.6 12.1 M71.6 49.9 Q67.25 58.85 58.3 60.85 54.25 61.6 50.35 60.4 45.85 59.0 42.1 56.05 L40.9 52.7 43.0 51.4 43.9 54.8 Q52.6 58.55 60.35 55.05 65.95 52.55 70.55 47.8 L71.6 49.9 M46.9 49.1 L50.5 47.1 51.2 47.3 52.0 48.85 48.4 51.3 46.9 49.1 M68.05 150.35 L67.8 148.85 Q69.9 149.3 71.7 148.35 L72.15 147.65 73.8 149.3 71.35 153.25 68.2 150.5 68.05 150.35 M75.85 151.4 L77.6 153.35 77.5 154.85 84.4 164.45 84.85 163.9 85.85 165.9 82.9 169.15 Q79.5 161.15 73.4 155.25 L75.85 151.4 M-57.5 -165.35 Q-61.65 -164.0 -63.65 -160.3 L-65.4 -160.1 -65.0 -162.35 Q-64.7 -163.8 -63.6 -164.7 L-57.5 -165.35 M-82.8 -156.4 L-85.0 -155.9 Q-87.2 -156.75 -86.35 -159.1 -86.15 -159.85 -85.35 -161.0 L-82.85 -161.55 -84.75 -158.85 -82.8 -156.4 M-51.85 -165.9 Q-51.2 -164.1 -52.1 -162.45 L-52.4 -162.0 -58.35 -161.25 -55.15 -165.65 -51.85 -165.9 M-57.35 40.35 Q-54.8 40.75 -52.6 41.9 -43.6 46.3 -37.15 40.15 L-36.15 40.15 -35.6 39.0 -33.85 40.2 -34.85 42.2 -35.8 42.45 Q-42.4 48.0 -51.45 45.4 -57.75 43.5 -64.25 44.95 L-68.9 45.65 Q-80.65 47.6 -91.4 43.25 L-94.1 39.9 Q-76.55 45.55 -57.6 41.45 L-57.4 40.6 -57.35 40.35 M-57.7 26.5 L-55.05 27.5 -65.15 34.55 -75.25 29.9 Q-82.4 31.75 -86.7 38.2 L-92.35 36.35 -90.75 34.55 -89.25 35.05 Q-83.85 26.8 -73.85 26.25 L-64.35 30.5 -57.7 26.5 M-49.4 30.15 L-54.25 34.15 -54.25 35.4 -52.0 36.4 Q-45.25 39.65 -40.7 35.3 L-38.4 36.85 Q-40.85 40.1 -44.7 40.35 L-48.8 39.5 Q-55.75 38.95 -61.7 36.55 L-52.35 28.7 -49.4 30.15" fill="#696969" fill-rule="evenodd" stroke="none"/>
    <path d="M-25.65 14.8 Q-15.45 9.0 -7.15 0.65 L-2.65 -3.45 Q1.8 -1.85 3.0 3.8 3.9 8.0 5.85 12.0 14.6 30.15 5.85 49.15 L9.35 52.2 Q23.8 40.05 35.15 25.4 32.35 21.8 34.05 18.25 35.0 16.4 36.5 17.9 38.45 19.85 40.1 22.1 L40.2 23.3 Q40.45 24.2 41.3 24.3 L41.55 25.3 42.5 25.15 Q42.9 28.1 40.45 30.6 L42.35 35.7 40.15 38.1 37.9 29.7 38.0 29.55 39.45 27.65 Q40.4 26.35 40.45 24.95 L39.65 24.6 35.0 19.3 37.9 25.4 Q27.6 38.85 14.95 50.6 L11.25 53.95 9.95 54.9 2.95 49.95 Q8.0 37.7 7.45 25.0 L6.8 21.2 Q4.25 12.35 -0.2 4.05 -1.5 1.6 -2.25 -1.15 L-5.6 2.2 Q-10.05 2.9 -11.75 7.0 L-12.2 8.35 Q-17.25 13.2 -23.35 17.05 L-25.65 14.8 M-29.25 25.35 L-25.95 22.75 -24.85 22.7 Q-16.6 17.25 -9.0 10.5 L-7.05 8.7 -7.05 8.05 -5.05 7.1 Q1.5 16.5 5.45 27.0 6.65 30.15 5.7 33.35 L0.5 50.15 Q1.2 51.15 0.65 52.45 0.1 53.9 1.15 54.85 L6.55 59.9 7.95 60.0 8.3 60.35 9.95 60.1 10.7 58.35 Q21.6 49.7 31.05 39.4 32.9 37.4 35.15 35.8 L39.75 42.5 38.15 44.9 34.55 39.1 Q22.7 51.0 10.25 61.95 9.05 63.05 7.6 62.35 1.8 59.8 -1.85 54.5 1.95 40.25 1.15 26.35 0.9 22.3 -1.3 18.5 L-5.85 10.75 Q-11.5 16.9 -18.8 21.05 -23.75 23.9 -28.0 27.45 L-29.25 25.35" fill="#f8ecec" fill-rule="evenodd" stroke="none"/>
    <path d="M51.4 41.4 L49.5 42.8 42.05 41.5 40.15 38.1 42.35 35.7 43.55 38.85 51.4 41.4 M-23.35 17.05 Q-26.15 20.1 -29.9 19.3 -39.3 17.65 -47.4 20.2 -48.7 20.55 -49.7 21.95 L-51.85 24.7 -54.45 23.6 Q-47.2 13.1 -34.75 16.35 L-31.1 16.6 Q-28.35 16.1 -25.65 14.8 L-23.35 17.05 M44.35 45.4 Q44.2 44.55 44.95 44.7 L46.05 45.2 44.8 46.05 44.35 45.4 M-29.25 25.35 L-28.0 27.45 Q-30.25 30.4 -31.35 34.05 L-32.6 37.45 -34.6 36.15 Q-33.55 30.7 -30.25 26.45 L-29.25 25.35 M38.15 44.9 L39.75 42.5 42.0 47.65 39.65 48.7 38.15 44.9 M-45.25 27.9 L-48.75 26.05 -43.2 21.9 Q-37.65 23.85 -31.7 23.5 L-37.0 28.0 Q-36.85 31.05 -37.75 33.9 L-39.8 32.3 Q-39.45 30.65 -39.4 28.9 -39.4 26.8 -37.9 25.55 L-43.0 24.8 -45.25 27.9" fill="#f4dddd" fill-rule="evenodd" stroke="none"/>
    <path d="M-97.45 30.45 L-99.5 32.15 -101.0 30.5 -100.7 29.8 -101.4 28.65 -102.7 28.25 Q-104.15 23.95 -105.4 14.55 L-109.8 14.3 -107.35 12.15 Q-105.0 11.7 -104.3 13.35 -103.0 16.55 -102.2 20.0 L-100.75 26.35 Q-98.65 27.45 -98.4 29.65 L-97.45 30.45 M-112.85 24.3 L-108.8 24.4 Q-108.6 21.75 -109.95 19.5 -110.7 18.2 -111.95 17.45 L-113.55 20.2 Q-114.4 21.75 -115.95 22.65 L-118.05 21.55 Q-118.35 21.05 -117.35 20.35 L-111.05 15.3 Q-106.05 18.4 -106.4 24.35 -106.5 25.9 -105.9 27.25 -109.7 26.7 -112.85 24.3 M-104.15 36.25 L-111.55 34.4 -109.85 32.4 -102.35 34.45 -104.15 36.25" fill="#e8b1b1" fill-rule="evenodd" stroke="none"/>
  </g>
</svg>
