<?xml version="1.0" encoding="UTF-8" standalone="no"?>
<svg xmlns:xlink="http://www.w3.org/1999/xlink" height="438.4px" width="224.45px" xmlns="http://www.w3.org/2000/svg">
  <g transform="matrix(1.0, 0.0, 0.0, 1.0, 117.25, 170.2)">
    <path d="M77.35 30.35 L79.8 13.1 93.5 -114.35 Q92.05 -123.45 85.0 -129.65 70.7 -142.35 53.6 -151.05 38.95 -158.55 22.85 -161.65 6.05 -165.0 -11.1 -165.7 -44.85 -168.05 -76.4 -156.9 -95.9 -150.1 -110.8 -136.0 L-117.25 -45.45 -117.25 -104.45 -116.3 -115.95 Q-115.65 -123.0 -115.55 -130.05 -115.45 -137.0 -110.95 -141.6 -98.15 -154.35 -80.75 -160.25 -55.1 -168.8 -28.1 -169.9 L-32.45 -169.9 Q-6.5 -171.25 19.05 -166.65 55.75 -159.85 83.8 -134.95 91.9 -127.8 97.0 -118.6 L94.8 -94.7 Q90.55 -50.15 85.2 -5.7 L80.0 38.9 90.15 51.1 Q87.6 72.2 83.5 93.15 82.9 96.3 81.7 99.3 78.2 107.85 70.45 113.45 L68.2 136.0 61.1 139.75 Q74.65 146.5 81.7 159.8 90.8 177.0 88.25 196.1 L97.0 215.25 96.55 216.3 96.2 217.1 95.75 217.9 95.3 218.55 94.4 219.65 93.95 220.15 93.5 220.55 93.55 220.65 Q101.85 244.1 107.2 268.2 L103.05 268.2 Q98.45 245.05 89.5 223.3 67.55 240.05 39.55 243.15 L39.75 244.8 Q41.35 252.15 39.2 259.05 L40.35 261.05 Q42.3 264.4 43.3 268.2 L38.85 268.2 38.1 266.05 35.9 262.65 Q29.45 253.9 19.55 249.05 -1.4 238.6 -24.35 233.35 -48.0 228.1 -72.25 229.6 -95.65 231.15 -117.25 239.6 L-117.25 235.2 Q-93.65 226.8 -68.4 226.3 L-49.35 226.9 -48.8 226.95 Q-30.15 228.55 -11.9 233.6 -0.4 236.85 10.9 240.7 L14.9 242.45 Q25.75 247.6 35.25 255.3 L35.25 250.7 35.3 247.55 Q36.5 224.35 34.65 201.2 L33.0 182.0 30.35 154.6 Q10.5 164.05 -10.05 171.55 L-13.9 172.95 -14.4 173.25 Q-31.65 164.2 -48.05 154.1 L-50.75 152.2 Q-77.25 135.65 -102.55 117.2 L-105.5 122.2 Q-116.8 143.85 -116.95 168.5 L-117.25 170.95 -117.25 142.95 Q-114.55 127.95 -106.0 115.3 L-105.65 114.8 -117.25 104.55 -117.25 98.95 Q-99.4 116.2 -78.65 129.45 L-75.25 131.75 Q-64.7 139.4 -53.5 145.8 -33.8 156.95 -13.6 167.7 17.6 156.35 47.35 141.8 56.45 137.35 65.35 132.6 L68.35 107.3 68.85 103.3 74.9 52.8 75.15 50.25 76.9 34.7 77.4 34.3 77.35 30.35 M49.55 -139.25 L49.4 -139.35 49.6 -140.1 49.55 -139.25 M83.7 75.15 L86.8 52.85 79.4 43.5 73.9 84.05 71.2 107.3 Q77.6 103.7 79.6 96.8 82.7 86.15 83.7 75.15 M23.15 44.05 Q23.45 42.4 25.2 41.7 38.2 36.7 51.95 34.0 L52.7 34.3 Q60.45 32.4 68.45 32.35 L68.0 32.65 68.5 32.35 70.85 32.7 Q68.6 34.15 65.7 35.0 L64.6 35.25 62.3 35.65 Q66.2 39.45 67.85 44.65 L71.2 55.7 71.65 55.6 71.2 58.05 69.45 58.2 41.7 50.25 43.15 50.35 22.85 44.55 23.15 44.05 M63.65 47.0 L68.05 51.6 60.35 36.2 Q47.9 36.15 36.1 40.35 L31.6 41.85 31.75 42.45 57.2 40.65 63.2 47.0 63.65 47.0 M82.1 169.0 Q79.45 161.0 73.7 154.5 66.25 146.2 55.9 142.25 L33.4 153.25 36.45 185.4 38.2 211.6 37.8 212.15 38.25 213.7 38.25 213.8 37.9 214.35 Q37.55 214.9 38.35 215.15 L39.1 233.9 39.1 237.1 Q63.85 235.05 84.4 221.5 89.05 218.45 93.05 214.55 L84.7 197.0 84.85 194.55 85.7 194.4 Q85.85 181.45 82.1 169.0 M-117.25 256.25 Q-92.45 251.1 -67.2 251.05 -43.75 251.05 -20.65 254.85 0.75 258.4 20.1 268.2 L9.15 268.2 Q-6.7 261.35 -23.35 257.05 L-25.8 256.35 -19.75 268.2 -22.9 268.2 -30.85 257.05 -29.7 255.4 -34.2 254.5 Q-53.6 250.9 -72.45 254.1 L-73.35 255.4 -83.0 268.2 -86.75 268.2 Q-79.85 258.35 -74.6 253.6 -93.45 254.9 -109.9 258.1 L-117.25 259.65 -117.25 256.25 M-91.35 33.6 Q-88.45 21.35 -76.3 15.7 L-74.1 14.7 -77.9 14.2 -78.65 13.1 -78.0 12.6 -76.95 12.55 -77.45 12.35 Q-63.4 9.9 -51.35 18.15 L-40.0 25.7 Q-33.55 29.8 -31.1 37.0 L-31.9 37.4 Q-32.6 38.5 -33.9 38.25 L-38.35 37.6 Q-64.5 32.5 -91.2 34.15 L-91.35 33.6 M-38.35 33.6 L-36.9 33.3 Q-48.75 19.4 -66.45 14.5 -71.2 16.4 -75.45 19.4 -80.75 23.0 -84.35 28.5 L-66.85 19.05 Q-51.35 23.8 -38.35 33.6" fill="#000000" fill-rule="evenodd" stroke="none"/>
    <path d="M-117.25 -45.45 L-110.8 -136.0 Q-95.9 -150.1 -76.4 -156.9 -44.85 -168.05 -11.1 -165.7 6.05 -165.0 22.85 -161.65 38.95 -158.55 53.6 -151.05 70.7 -142.35 85.0 -129.65 92.05 -123.45 93.5 -114.35 L79.8 13.1 77.35 30.35 Q72.3 23.1 64.95 18.5 50.6 9.45 34.55 3.95 L37.0 -13.3 Q39.9 -15.0 42.15 -17.2 L42.7 -17.9 43.75 -18.05 Q44.55 -16.05 43.65 -13.85 42.9 -11.95 41.85 -10.45 47.4 -12.45 51.8 -16.05 57.35 -8.0 62.55 0.2 L61.7 3.05 63.7 2.05 77.7 26.0 78.5 21.7 70.45 7.75 Q74.35 6.6 75.35 2.6 77.85 -7.45 78.15 -17.95 78.8 -40.5 82.35 -62.7 84.1 -73.65 86.35 -84.5 90.95 -106.9 77.9 -125.15 69.4 -137.1 55.95 -143.25 44.15 -148.7 31.45 -151.85 -12.6 -162.7 -57.0 -154.6 -83.0 -149.75 -100.8 -131.25 L-100.7 -131.7 Q-105.85 -124.75 -106.55 -115.85 -109.45 -80.75 -113.15 -45.75 L-114.9 -31.05 Q-116.75 -16.55 -113.3 -2.7 -112.6 -3.55 -112.45 -4.5 -111.15 -14.25 -105.35 -21.7 L-105.2 -20.1 Q-104.55 -14.35 -99.6 -11.35 L-117.25 0.0 -117.25 -45.45 M68.35 107.3 L65.35 132.6 Q56.45 137.35 47.35 141.8 17.6 156.35 -13.6 167.7 -33.8 156.95 -53.5 145.8 -64.7 139.4 -75.25 131.75 L-78.65 129.45 Q-99.4 116.2 -117.25 98.95 L-117.25 89.6 Q-110.6 102.9 -97.15 110.25 -91.85 113.2 -86.7 116.6 L-45.65 143.5 -39.9 77.15 -48.95 76.45 Q-49.75 86.0 -53.4 94.45 -57.8 85.7 -59.0 75.95 L-49.35 76.45 -47.95 71.75 -47.6 71.75 -42.6 72.0 -35.65 73.2 -41.85 145.5 Q-39.15 146.95 -36.75 148.8 -28.55 154.95 -18.35 156.4 0.5 159.5 17.2 148.8 L17.75 143.5 Q20.8 113.2 25.25 83.25 L28.05 83.75 Q37.65 85.45 46.55 89.8 L46.75 89.8 46.25 94.1 Q38.5 90.55 30.35 88.0 L27.7 87.2 Q24.75 117.5 20.2 147.5 38.8 139.7 56.6 130.05 58.85 128.75 59.85 126.4 64.3 115.8 62.95 103.7 L53.2 97.7 54.25 93.35 64.7 99.7 63.95 104.35 68.35 107.3 M-48.05 154.1 Q-31.65 164.2 -14.4 173.25 L-13.9 172.95 -15.55 181.2 -16.6 182.3 -29.7 180.4 Q-30.7 175.2 -34.95 172.05 L-36.2 171.15 -36.45 171.6 Q-33.0 180.0 -38.55 185.75 -40.55 187.85 -42.35 185.95 -45.8 182.35 -46.35 177.25 -46.9 171.8 -45.6 166.5 -53.1 168.4 -57.15 176.15 L-62.75 175.15 -60.6 159.5 -56.0 160.1 -53.9 160.55 -49.4 160.25 -48.05 154.1 M-117.25 239.6 Q-95.65 231.15 -72.25 229.6 -48.0 228.1 -24.35 233.35 -1.4 238.6 19.55 249.05 29.45 253.9 35.9 262.65 L38.1 266.05 32.65 267.0 32.65 266.25 Q12.35 253.2 -10.8 247.05 -33.85 240.85 -57.55 239.15 L-60.95 239.05 Q-81.45 237.75 -101.75 241.75 L-96.65 240.1 Q-107.15 241.35 -117.25 244.6 L-117.25 239.6 M-23.95 -54.35 L-18.25 -146.8 Q-11.4 -138.9 -5.15 -130.4 2.15 -120.45 10.65 -111.8 L33.65 -126.55 Q40.65 -131.25 47.45 -136.3 45.35 -112.2 42.9 -88.3 40.5 -64.6 37.55 -40.9 L36.65 -42.1 36.55 -42.25 Q36.4 -42.45 36.65 -42.65 L36.85 -42.7 Q31.0 -53.85 22.5 -63.7 L27.3 -73.8 18.45 -68.55 Q15.75 -72.55 11.6 -74.75 L-11.2 -64.5 Q-13.65 -71.4 -19.5 -75.65 L-20.55 -74.9 -18.05 -60.55 -23.65 -55.9 -23.45 -55.05 -22.8 -55.0 -23.95 -54.35 M-9.65 -58.6 L11.4 -68.7 14.8 -64.8 Q9.8 -59.45 6.75 -51.95 L2.15 -40.9 2.05 -40.9 2.35 -41.75 -0.4 -50.25 -2.6 -50.25 -5.3 -42.3 Q-8.7 -50.1 -9.65 -58.6 M-17.45 -54.7 Q-17.65 -44.45 -21.2 -34.75 -22.5 -31.15 -25.55 -29.55 L-24.2 -51.3 -24.15 -51.35 -17.45 -54.7 M-73.75 72.35 L-73.25 71.85 -73.2 72.3 -59.4 71.9 -59.25 75.8 -74.85 76.0 Q-77.95 84.15 -79.2 92.9 -79.6 88.7 -81.05 85.0 -82.7 80.8 -82.5 76.3 L-74.85 76.0 -73.75 72.35 M20.45 -57.95 L37.0 -36.9 37.0 -36.85 35.45 -24.95 Q34.3 -27.3 33.55 -29.7 31.55 -35.95 30.8 -42.55 L30.2 -41.3 Q29.2 -38.65 27.75 -36.3 26.4 -34.1 24.0 -34.0 L23.05 -35.75 Q17.5 -46.4 20.45 -57.95 M53.85 -18.05 Q57.65 -22.9 58.6 -29.0 59.6 -35.5 59.75 -42.1 66.25 -32.15 66.1 -20.3 65.95 -11.6 63.6 -3.3 L53.85 -18.05 M66.0 0.65 Q69.7 -1.0 71.25 -4.6 L71.4 -5.25 Q73.0 -0.65 71.5 3.8 L70.3 7.5 66.0 0.65 M73.9 84.05 Q81.1 83.15 81.75 75.65 L81.8 74.45 83.2 74.45 83.7 75.15 Q82.7 86.15 79.6 96.8 77.6 103.7 71.2 107.3 L73.9 84.05 M53.05 97.6 Q51.7 104.05 47.0 108.8 L45.45 110.15 46.25 94.1 53.05 97.6 M36.45 185.4 Q39.65 193.7 49.05 190.6 54.55 188.7 54.75 183.2 46.75 174.2 55.4 166.1 56.05 165.45 56.95 165.15 53.4 174.8 63.75 175.85 66.7 176.15 68.65 178.5 73.9 184.9 69.5 192.05 81.8 183.9 82.1 169.0 85.85 181.45 85.7 194.4 L84.85 194.55 84.7 197.0 Q86.15 209.3 76.0 215.15 77.3 213.9 76.9 212.35 75.9 208.1 71.9 205.65 L70.5 211.95 Q67.65 226.2 54.2 222.15 54.3 224.4 53.05 226.0 48.05 232.4 39.1 233.9 L38.35 215.15 Q47.65 215.0 56.1 211.45 L65.75 207.15 65.15 207.1 Q70.25 205.75 73.8 201.8 73.8 201.4 72.0 202.15 55.3 208.2 38.2 211.6 L36.45 185.4 M38.25 213.8 L38.25 213.7 Q38.25 212.45 38.3 213.5 L38.25 213.8 M32.4 267.0 L31.8 267.0 Q31.05 267.1 30.75 266.35 L32.4 267.0 M-110.95 244.65 L-117.25 247.4 -117.25 246.6 -110.95 244.65 M-117.25 2.45 L-112.55 -0.35 -112.05 -0.25 -96.55 -10.2 -94.1 -9.8 Q-93.6 -10.05 -93.05 -10.65 L-91.85 -13.15 -71.75 -25.15 Q-64.7 -20.7 -57.65 -25.4 -51.05 -29.85 -49.55 -37.85 L-45.05 -40.25 Q-44.0 -36.85 -44.2 -33.3 -44.3 -30.8 -44.95 -28.35 -47.4 -19.55 -40.3 -16.55 -33.95 -27.5 -34.05 -40.05 L-33.3 -39.75 Q-29.9 -38.0 -28.9 -34.1 L-28.65 -33.4 Q-29.6 -24.5 -29.95 -15.6 L-30.15 -7.1 Q-57.85 -6.35 -85.15 -2.3 -102.1 0.45 -117.25 8.75 L-117.25 2.45 M-91.5 -16.4 Q-93.6 -26.75 -90.25 -36.85 -86.65 -47.5 -77.35 -53.85 -79.1 -43.9 -77.85 -33.8 -77.3 -29.65 -74.05 -26.8 L-91.5 -16.4 M-48.35 -41.5 L-47.05 -45.9 -45.75 -42.9 -48.35 -41.5 M-82.05 72.8 L-82.5 76.3 -82.85 76.3 Q-100.45 76.7 -117.25 81.8 L-117.25 78.15 -116.6 77.95 Q-99.5 74.2 -82.05 72.8 M-69.65 268.2 L-72.75 268.2 -68.0 263.4 -69.65 268.2 M-37.25 268.2 L-37.2 266.15 -35.2 268.2 -37.25 268.2" fill="#f09b0a" fill-rule="evenodd" stroke="none"/>
    <path d="M68.85 103.3 L68.35 107.3 63.95 104.35 64.7 99.7 64.95 99.85 Q67.3 101.6 68.85 103.3 M-50.75 152.2 L-48.05 154.1 -49.4 160.25 -53.9 160.55 -56.0 160.1 -60.6 159.5 -62.75 175.15 -57.15 176.15 -49.3 177.05 -49.15 178.5 -48.6 178.75 -48.35 179.35 -49.15 179.3 -50.7 192.85 -31.8 196.0 Q-32.85 188.3 -30.95 180.7 L-29.7 180.4 -16.6 182.3 -15.55 181.2 -13.9 172.95 -10.05 171.55 -12.95 186.55 Q-20.05 183.65 -27.8 183.1 L-29.35 195.85 -29.75 199.65 -53.65 196.15 -52.3 179.35 -56.25 179.3 -64.2 179.25 -65.25 178.35 -62.8 156.65 -62.0 156.7 -61.65 156.0 -51.35 156.3 -50.75 152.2 M-99.6 -11.35 Q-104.55 -14.35 -105.2 -20.1 L-105.35 -21.7 Q-111.15 -14.25 -112.45 -4.5 -112.6 -3.55 -113.3 -2.7 -116.75 -16.55 -114.9 -31.05 L-113.15 -45.75 Q-109.45 -80.75 -106.55 -115.85 -105.85 -124.75 -100.7 -131.7 L-100.8 -131.25 Q-83.0 -149.75 -57.0 -154.6 -12.6 -162.7 31.45 -151.85 44.15 -148.7 55.95 -143.25 69.4 -137.1 77.9 -125.15 90.95 -106.9 86.35 -84.5 84.1 -73.65 82.35 -62.7 78.8 -40.5 78.15 -17.95 77.85 -7.45 75.35 2.6 74.35 6.6 70.45 7.75 L70.3 7.5 71.5 3.8 Q73.0 -0.65 71.4 -5.25 L71.25 -4.6 Q69.7 -1.0 66.0 0.65 L63.6 -3.3 Q65.95 -11.6 66.1 -20.3 66.25 -32.15 59.75 -42.1 59.6 -35.5 58.6 -29.0 57.65 -22.9 53.85 -18.05 47.2 -27.85 40.15 -37.35 L44.3 -78.15 48.85 -124.95 Q49.55 -132.3 49.55 -139.25 L49.6 -140.1 49.4 -139.35 48.35 -138.95 48.2 -139.35 47.95 -138.7 Q28.8 -127.5 10.7 -114.45 -2.8 -133.0 -17.4 -150.8 L-19.65 -150.05 -20.05 -148.8 -19.7 -148.4 Q-23.35 -113.4 -25.15 -78.0 -25.8 -65.5 -27.05 -52.85 L-45.75 -42.9 -47.05 -45.9 -48.35 -41.5 -74.05 -26.8 Q-77.3 -29.65 -77.85 -33.8 -79.1 -43.9 -77.35 -53.85 -86.65 -47.5 -90.25 -36.85 -93.6 -26.75 -91.5 -16.4 L-99.6 -11.35 M63.7 2.05 L61.7 3.05 62.55 0.2 63.7 2.05 M51.8 -16.05 Q47.4 -12.45 41.85 -10.45 42.9 -11.95 43.65 -13.85 44.55 -16.05 43.75 -18.05 L42.7 -17.9 42.15 -17.2 Q39.9 -15.0 37.0 -13.3 L39.7 -33.2 Q45.9 -24.8 51.8 -16.05 M-82.05 72.8 L-73.75 72.35 -74.85 76.0 -82.5 76.3 -82.05 72.8 M-59.35 71.9 L-47.95 71.75 -49.35 76.45 -59.0 75.95 -59.25 75.8 -59.4 71.9 -59.35 71.9 M46.75 89.8 L54.1 93.3 54.25 93.35 53.2 97.7 53.05 97.6 46.25 94.1 46.75 89.8 M73.9 84.05 L79.4 43.5 86.8 52.85 83.7 75.15 83.2 74.45 81.8 74.45 81.75 75.65 Q81.1 83.15 73.9 84.05 M63.65 47.0 L63.2 47.0 57.2 40.65 31.75 42.45 31.6 41.85 36.1 40.35 Q47.9 36.15 60.35 36.2 L68.05 51.6 63.65 47.0 M38.35 215.15 Q37.55 214.9 37.9 214.35 L38.25 213.8 38.3 213.5 Q38.25 212.45 38.25 213.7 L37.8 212.15 38.2 211.6 Q55.3 208.2 72.0 202.15 73.8 201.4 73.8 201.8 70.25 205.75 65.15 207.1 L65.75 207.15 56.1 211.45 Q47.65 215.0 38.35 215.15 M32.65 267.0 L32.4 267.0 30.75 266.35 Q10.45 255.4 -11.5 248.85 -24.4 244.9 -37.85 242.7 L-58.05 239.85 -57.55 239.15 Q-33.85 240.85 -10.8 247.05 12.35 253.2 32.65 266.25 L32.65 267.0 M-101.75 241.75 L-110.95 244.65 -117.25 246.6 -117.25 244.6 Q-107.15 241.35 -96.65 240.1 L-101.75 241.75 M-28.9 -34.1 Q-29.9 -38.0 -33.3 -39.75 L-34.05 -40.05 Q-33.95 -27.5 -40.3 -16.55 -47.4 -19.55 -44.95 -28.35 -44.3 -30.8 -44.2 -33.3 -44.0 -36.85 -45.05 -40.25 L-27.3 -49.7 -28.4 -34.9 -28.9 -34.1 M-49.55 -37.85 Q-51.05 -29.85 -57.65 -25.4 -64.7 -20.7 -71.75 -25.15 L-49.55 -37.85 M-91.85 -13.15 L-93.05 -10.65 Q-93.6 -10.05 -94.1 -9.8 L-96.55 -10.2 -91.85 -13.15 M-38.35 33.6 Q-51.35 23.8 -66.85 19.05 L-84.35 28.5 Q-80.75 23.0 -75.45 19.4 -71.2 16.4 -66.45 14.5 -48.75 19.4 -36.9 33.3 L-38.35 33.6 M-117.25 46.25 L-117.25 44.2 -116.85 45.5 -117.25 46.25" fill="#9b5f06" fill-rule="evenodd" stroke="none"/>
    <path d="M77.35 30.35 L77.4 34.3 76.9 34.7 73.0 29.45 72.25 28.6 Q66.65 21.9 58.95 17.65 45.55 10.1 31.25 5.0 L35.45 -24.95 37.0 -36.85 39.7 -33.2 37.0 -13.3 34.55 3.95 Q50.6 9.45 64.95 18.5 72.3 23.1 77.35 30.35 M37.55 -40.9 Q40.5 -64.6 42.9 -88.3 45.35 -112.2 47.45 -136.3 40.65 -131.25 33.65 -126.55 L10.65 -111.8 Q2.15 -120.45 -5.15 -130.4 -11.4 -138.9 -18.25 -146.8 L-23.95 -54.35 -27.05 -52.85 Q-25.8 -65.5 -25.15 -78.0 -23.35 -113.4 -19.7 -148.4 L-20.05 -148.8 -19.65 -150.05 -17.4 -150.8 Q-2.8 -133.0 10.7 -114.45 28.8 -127.5 47.95 -138.7 L48.2 -139.35 48.35 -138.95 49.4 -139.35 49.55 -139.25 Q49.55 -132.3 48.85 -124.95 L44.3 -78.15 40.15 -37.35 37.55 -40.85 37.55 -40.9 M2.05 -40.9 L2.15 -40.9 Q1.85 -40.3 2.05 -40.9 M-25.55 -29.55 L-27.05 -4.35 -27.6 -4.15 -33.0 -3.75 -68.6 -1.6 Q-91.3 0.7 -112.0 10.25 L-117.25 12.75 -117.25 8.75 Q-102.1 0.45 -85.15 -2.3 -57.85 -6.35 -30.15 -7.1 L-29.95 -15.6 Q-29.6 -24.5 -28.65 -33.4 L-28.4 -34.9 -27.3 -49.7 -24.2 -51.3 -25.55 -29.55 M-117.25 37.65 L-115.0 47.1 -117.25 51.4 -117.25 46.25 -116.85 45.5 -117.25 44.2 -117.25 37.65" fill="#523203" fill-rule="evenodd" stroke="none"/>
    <path d="M-117.25 0.0 L-99.6 -11.35 -96.55 -10.2 -112.05 -0.25 -112.55 -0.35 -117.25 2.45 -117.25 0.0 M70.45 7.75 L78.5 21.7 77.7 26.0 63.7 2.05 66.0 0.65 70.3 7.5 70.45 7.75 M62.55 0.2 Q57.35 -8.0 51.8 -16.05 L53.85 -18.05 63.6 -3.3 62.55 0.2 M37.55 -40.9 L37.55 -40.85 37.0 -36.9 20.45 -57.95 21.55 -61.15 36.55 -42.25 36.65 -42.1 37.55 -40.9 M-23.95 -54.35 L-22.8 -55.0 -17.7 -57.55 -17.45 -54.7 -24.15 -51.35 -23.95 -54.35 M14.8 -64.8 L11.4 -68.7 -9.65 -58.6 -10.25 -61.3 12.2 -72.25 16.85 -66.75 14.8 -64.8 M-45.05 -40.25 L-49.55 -37.85 -48.35 -41.5 -45.75 -42.9 -45.05 -40.25 M-71.75 -25.15 L-91.85 -13.15 -91.5 -16.4 -74.05 -26.8 -71.75 -25.15" fill="#bb7309" fill-rule="evenodd" stroke="none"/>
    <path d="M37.55 -40.85 L40.15 -37.35 Q47.2 -27.85 53.85 -18.05 L51.8 -16.05 Q45.9 -24.8 39.7 -33.2 L37.0 -36.85 37.0 -36.9 37.55 -40.85 M-27.05 -52.85 L-23.95 -54.35 -24.15 -51.35 -24.2 -51.3 -27.3 -49.7 -45.05 -40.25 -45.75 -42.9 -27.05 -52.85 M63.6 -3.3 L66.0 0.65 63.7 2.05 62.55 0.2 63.6 -3.3 M-96.55 -10.2 L-99.6 -11.35 -91.5 -16.4 -91.85 -13.15 -96.55 -10.2 M-74.05 -26.8 L-48.35 -41.5 -49.55 -37.85 -71.75 -25.15 -74.05 -26.8" fill="#6a4104" fill-rule="evenodd" stroke="none"/>
    <path d="M76.9 34.7 L75.15 50.25 Q74.45 41.0 71.75 32.55 L71.05 30.95 73.05 30.3 73.0 29.45 76.9 34.7 M74.9 52.8 L68.85 103.3 Q67.3 101.6 64.95 99.85 L65.85 88.6 64.35 92.1 62.85 93.15 Q60.75 89.05 57.6 85.75 L56.2 84.45 54.1 93.3 46.75 89.8 46.55 89.8 46.6 83.45 Q46.35 72.85 40.2 64.25 L38.8 64.25 Q38.6 68.75 35.7 72.4 32.95 75.85 28.65 77.75 L27.5 76.15 27.45 71.95 Q27.35 69.45 26.05 67.15 25.35 65.9 24.25 65.1 L23.15 65.95 Q22.65 69.8 21.1 73.3 18.4 79.15 13.8 83.6 L16.55 70.1 16.0 70.1 13.8 64.05 Q6.9 47.3 12.4 30.65 8.95 33.85 7.0 38.1 -0.2 53.8 -1.05 71.4 L-2.5 71.4 -3.9 68.6 Q-5.45 64.6 -6.35 60.2 -12.7 67.25 -12.65 76.5 -12.65 77.55 -13.75 77.9 -21.55 80.75 -25.0 71.8 -31.75 54.4 -20.65 39.95 -21.35 39.95 -21.9 40.25 -41.4 50.6 -47.6 71.75 L-47.95 71.75 -59.35 71.9 Q-59.65 60.85 -58.4 49.95 L-60.7 52.0 Q-69.5 60.25 -73.25 71.85 L-73.75 72.35 -82.05 72.8 Q-81.95 58.05 -74.75 45.05 -79.6 46.2 -83.15 49.65 -84.35 50.75 -84.85 52.2 -87.25 59.45 -93.2 64.2 -94.25 65.05 -95.3 64.4 -102.9 60.2 -102.4 50.25 -105.2 52.0 -106.8 54.85 -110.8 61.7 -114.05 68.8 L-115.7 62.8 -117.25 64.9 -117.25 51.4 -115.0 47.1 -117.25 37.65 -117.25 12.75 -112.0 10.25 Q-91.3 0.7 -68.6 -1.6 L-33.0 -3.75 -27.6 -4.15 -27.05 -4.35 -25.55 -29.55 Q-22.5 -31.15 -21.2 -34.75 -17.65 -44.45 -17.45 -54.7 L-9.65 -58.6 Q-8.7 -50.1 -5.3 -42.3 L-2.6 -50.25 -0.4 -50.25 2.35 -41.75 2.05 -40.9 Q1.85 -40.3 2.15 -40.9 L6.75 -51.95 Q9.8 -59.45 14.8 -64.8 L20.45 -57.95 Q17.5 -46.4 23.05 -35.75 L24.0 -34.0 Q26.4 -34.1 27.75 -36.3 29.2 -38.65 30.2 -41.3 L30.8 -42.55 Q31.55 -35.95 33.55 -29.7 34.3 -27.3 35.45 -24.95 L31.25 5.0 Q45.55 10.1 58.95 17.65 66.65 21.9 72.25 28.6 44.35 25.9 19.85 37.7 20.0 35.15 17.85 34.55 13.35 38.75 13.5 44.2 L14.6 43.8 16.55 45.4 19.2 43.85 19.55 44.3 19.85 44.45 Q21.55 44.75 23.15 44.05 L22.85 44.55 43.15 50.35 41.7 50.25 69.45 58.2 70.65 60.1 71.65 59.0 Q74.05 56.3 74.9 52.8 M-116.95 168.5 Q-116.8 143.85 -105.5 122.2 L-102.55 117.2 Q-77.25 135.65 -50.75 152.2 L-51.35 156.3 -61.65 156.0 -62.0 156.7 -62.8 156.65 -65.25 178.35 -64.2 179.25 -56.25 179.3 Q-56.8 189.0 -63.5 194.65 -64.3 195.3 -65.4 195.6 -74.75 196.4 -75.3 186.35 -75.8 177.45 -76.85 168.7 -78.2 157.75 -88.15 152.6 -83.65 167.55 -93.8 178.15 -97.15 181.6 -101.85 180.5 -103.25 180.15 -104.05 178.6 -109.45 168.45 -102.3 158.5 -101.3 157.15 -101.5 155.5 -112.2 157.75 -116.95 168.5 M-10.05 171.55 Q10.5 164.05 30.35 154.6 L33.0 182.0 Q30.45 178.8 26.75 176.85 L24.25 175.7 23.15 176.6 Q28.25 188.3 20.8 197.15 20.15 197.9 19.15 197.55 10.15 195.45 11.75 185.35 13.1 176.95 15.5 168.9 -0.7 179.0 -2.75 198.85 L-4.3 212.0 Q-7.35 202.2 -10.8 192.8 -11.35 191.35 -12.8 190.45 -14.45 189.45 -16.15 189.1 -15.4 193.6 -18.35 196.95 -19.75 198.55 -22.05 198.95 L-27.8 198.5 -29.35 195.85 -27.8 183.1 Q-20.05 183.65 -12.95 186.55 L-10.05 171.55 M35.3 247.55 L35.25 250.7 34.95 250.15 35.3 247.55 M14.9 242.45 L10.9 240.7 12.35 240.75 14.9 242.45 M-48.8 226.95 L-49.35 226.9 -46.55 226.8 -48.8 226.95 M38.1 266.05 L38.85 268.2 20.1 268.2 Q0.75 258.4 -20.65 254.85 -43.75 251.05 -67.2 251.05 -92.45 251.1 -117.25 256.25 L-117.25 247.4 -110.95 244.65 -101.75 241.75 Q-81.45 237.75 -60.95 239.05 L-57.55 239.15 -58.05 239.85 -37.85 242.7 Q-24.4 244.9 -11.5 248.85 10.45 255.4 30.75 266.35 31.05 267.1 31.8 267.0 L32.4 267.0 32.65 267.0 38.1 266.05 M-22.8 -55.0 L-23.45 -55.05 -23.65 -55.9 -18.05 -60.55 -20.55 -74.9 -19.5 -75.65 Q-13.65 -71.4 -11.2 -64.5 L11.6 -74.75 Q15.75 -72.55 18.45 -68.55 L27.3 -73.8 22.5 -63.7 Q31.0 -53.85 36.85 -42.7 L36.65 -42.65 Q36.4 -42.45 36.55 -42.25 L21.55 -61.15 16.85 -66.75 12.2 -72.25 -10.25 -61.3 -17.7 -57.55 -22.8 -55.0 M3.3 34.9 L3.6 34.0 Q-0.2 36.4 0.4 40.85 L0.5 41.1 Q2.65 38.6 3.3 34.9 M-31.9 37.4 L-29.1 37.9 Q-26.35 38.4 -22.9 36.25 L-24.25 34.5 -24.25 33.65 -22.9 36.25 -21.5 39.75 -19.8 38.55 Q-20.75 33.8 -22.55 29.2 L-23.65 26.55 -25.35 26.55 -24.9 30.15 -26.35 30.6 Q-48.15 4.8 -82.7 3.9 -92.65 13.4 -94.5 27.25 L-94.85 29.7 -92.85 32.45 -93.1 33.45 -91.35 33.6 -91.2 34.15 Q-64.5 32.5 -38.35 37.6 L-33.9 38.25 Q-32.6 38.5 -31.9 37.4 M-76.15 44.45 L-76.3 44.6 Q-76.35 45.1 -76.15 44.45 M-11.85 30.6 L-12.7 30.6 -9.85 39.75 -8.8 39.05 -9.6 34.95 Q-10.2 32.5 -11.85 30.6 M-17.4 29.15 L-18.45 29.15 Q-19.3 33.85 -17.25 38.15 L-17.05 38.55 -14.85 37.7 -17.4 29.15 M-29.7 180.4 L-30.95 180.7 Q-32.85 188.3 -31.8 196.0 L-50.7 192.85 -49.15 179.3 -48.35 179.35 -48.6 178.75 -49.15 178.5 -49.3 177.05 -57.15 176.15 Q-53.1 168.4 -45.6 166.5 -46.9 171.8 -46.35 177.25 -45.8 182.35 -42.35 185.95 -40.55 187.85 -38.55 185.75 -33.0 180.0 -36.45 171.6 L-36.2 171.15 -34.95 172.05 Q-30.7 175.2 -29.7 180.4" fill="#f8b654" fill-rule="evenodd" stroke="none"/>
    <path d="M14.8 -64.8 L16.85 -66.75 21.55 -61.15 20.45 -57.95 14.8 -64.8 M-10.25 -61.3 L-9.65 -58.6 -17.45 -54.7 -17.7 -57.55 -10.25 -61.3" fill="#f2960d" fill-rule="evenodd" stroke="none"/>
    <path d="M75.15 50.25 L74.9 52.8 Q74.05 56.3 71.65 59.0 L70.65 60.1 69.45 58.2 71.2 58.05 71.65 55.6 71.2 55.7 67.85 44.65 Q66.2 39.45 62.3 35.65 L64.6 35.25 65.7 35.0 Q68.6 34.15 70.85 32.7 L68.5 32.35 68.0 32.65 68.45 32.35 Q60.45 32.4 52.7 34.3 L51.95 34.0 Q38.2 36.7 25.2 41.7 23.45 42.4 23.15 44.05 21.55 44.75 19.85 44.45 L19.55 44.3 19.2 43.85 16.55 45.4 14.6 43.8 13.5 44.2 Q13.35 38.75 17.85 34.55 20.0 35.15 19.85 37.7 44.35 25.9 72.25 28.6 L73.0 29.45 73.05 30.3 71.05 30.95 71.75 32.55 Q74.45 41.0 75.15 50.25 M-117.25 170.95 L-116.95 168.5 Q-112.2 157.75 -101.5 155.5 -101.3 157.15 -102.3 158.5 -109.45 168.45 -104.05 178.6 -103.25 180.15 -101.85 180.5 -97.15 181.6 -93.8 178.15 -83.65 167.55 -88.15 152.6 -78.2 157.75 -76.85 168.7 -75.8 177.45 -75.3 186.35 -74.75 196.4 -65.4 195.6 -64.3 195.3 -63.5 194.65 -56.8 189.0 -56.25 179.3 L-52.3 179.35 -53.65 196.15 -29.75 199.65 -29.35 195.85 -27.8 198.5 -22.05 198.95 Q-19.75 198.55 -18.35 196.95 -15.4 193.6 -16.15 189.1 -14.45 189.45 -12.8 190.45 -11.35 191.35 -10.8 192.8 -7.35 202.2 -4.3 212.0 L-2.75 198.85 Q-0.7 179.0 15.5 168.9 13.1 176.95 11.75 185.35 10.15 195.45 19.15 197.55 20.15 197.9 20.8 197.15 28.25 188.3 23.15 176.6 L24.25 175.7 26.75 176.85 Q30.45 178.8 33.0 182.0 L34.65 201.2 Q36.5 224.35 35.3 247.55 L34.95 250.15 35.25 250.7 35.25 255.3 Q25.75 247.6 14.9 242.45 L12.35 240.75 10.9 240.7 Q-0.4 236.85 -11.9 233.6 -30.15 228.55 -48.8 226.95 L-46.55 226.8 -49.35 226.9 -68.4 226.3 Q-93.65 226.8 -117.25 235.2 L-117.25 170.95 M-117.25 64.9 L-115.7 62.8 -114.05 68.8 Q-110.8 61.7 -106.8 54.85 -105.2 52.0 -102.4 50.25 -102.9 60.2 -95.3 64.4 -94.25 65.05 -93.2 64.2 -87.25 59.45 -84.85 52.2 -84.35 50.75 -83.15 49.65 -79.6 46.2 -74.75 45.05 -81.95 58.05 -82.05 72.8 -99.5 74.2 -116.6 77.95 L-117.25 78.15 -117.25 64.9 M-73.25 71.85 Q-69.5 60.25 -60.7 52.0 L-58.4 49.95 Q-59.65 60.85 -59.35 71.9 L-59.4 71.9 -73.2 72.3 -73.25 71.85 M-47.6 71.75 Q-41.4 50.6 -21.9 40.25 -21.35 39.95 -20.65 39.95 -31.75 54.4 -25.0 71.8 -21.55 80.75 -13.75 77.9 -12.65 77.55 -12.65 76.5 -12.7 67.25 -6.35 60.2 -5.45 64.6 -3.9 68.6 L-2.5 71.4 -1.05 71.4 Q-0.2 53.8 7.0 38.1 8.95 33.85 12.4 30.65 6.9 47.3 13.8 64.05 L16.0 70.1 16.55 70.1 13.8 83.6 Q18.4 79.15 21.1 73.3 22.65 69.8 23.15 65.95 L24.25 65.1 Q25.35 65.9 26.05 67.15 27.35 69.45 27.45 71.95 L27.5 76.15 28.65 77.75 Q32.95 75.85 35.7 72.4 38.6 68.75 38.8 64.25 L40.2 64.25 Q46.35 72.85 46.6 83.45 L46.55 89.8 Q37.65 85.45 28.05 83.75 L25.25 83.25 Q20.8 113.2 17.75 143.5 L17.2 148.8 Q0.5 159.5 -18.35 156.4 -28.55 154.95 -36.75 148.8 -39.15 146.95 -41.85 145.5 L-35.65 73.2 -42.6 72.0 -47.6 71.75 M54.1 93.3 L56.2 84.45 57.6 85.75 Q60.75 89.05 62.85 93.15 L64.35 92.1 65.85 88.6 64.95 99.85 64.7 99.7 54.25 93.35 54.1 93.3 M3.3 34.9 Q2.65 38.6 0.5 41.1 L0.4 40.85 Q-0.2 36.4 3.6 34.0 L3.3 34.9 M53.2 97.7 L62.95 103.7 Q64.3 115.8 59.85 126.4 58.85 128.75 56.6 130.05 38.8 139.7 20.2 147.5 24.75 117.5 27.7 87.2 L30.35 88.0 Q38.5 90.55 46.25 94.1 L45.45 110.15 47.0 108.8 Q51.7 104.05 53.05 97.6 L53.2 97.7 M84.7 197.0 L93.05 214.55 Q89.05 218.45 84.4 221.5 63.85 235.05 39.1 237.1 L39.1 233.9 Q48.05 232.4 53.05 226.0 54.3 224.4 54.2 222.15 67.65 226.2 70.5 211.95 L71.9 205.65 Q75.9 208.1 76.9 212.35 77.3 213.9 76.0 215.15 86.15 209.3 84.7 197.0 M-91.35 33.6 L-93.1 33.45 -92.85 32.45 -94.85 29.7 -94.5 27.25 Q-92.65 13.4 -82.7 3.9 -48.15 4.8 -26.35 30.6 L-24.9 30.15 -25.35 26.55 -23.65 26.55 -22.55 29.2 Q-20.75 33.8 -19.8 38.55 L-21.5 39.75 -22.9 36.25 -24.25 33.65 -24.25 34.5 -22.9 36.25 Q-26.35 38.4 -29.1 37.9 L-31.9 37.4 -31.1 37.0 Q-33.55 29.8 -40.0 25.7 L-51.35 18.15 Q-63.4 9.9 -77.45 12.35 L-76.95 12.55 -78.0 12.6 -78.65 13.1 -77.9 14.2 -74.1 14.7 -76.3 15.7 Q-88.45 21.35 -91.35 33.6 M-17.4 29.15 L-14.85 37.7 -17.05 38.55 -17.25 38.15 Q-19.3 33.85 -18.45 29.15 L-17.4 29.15 M-11.85 30.6 Q-10.2 32.5 -9.6 34.95 L-8.8 39.05 -9.85 39.75 -12.7 30.6 -11.85 30.6 M-76.15 44.45 Q-76.35 45.1 -76.3 44.6 L-76.15 44.45 M-59.25 75.8 L-59.0 75.95 Q-57.8 85.7 -53.4 94.45 -49.75 86.0 -48.95 76.45 L-39.9 77.15 -45.65 143.5 -86.7 116.6 Q-91.85 113.2 -97.15 110.25 -110.6 102.9 -117.25 89.6 L-117.25 81.8 Q-100.45 76.7 -82.85 76.3 L-82.5 76.3 Q-82.7 80.8 -81.05 85.0 -79.6 88.7 -79.2 92.9 -77.95 84.15 -74.85 76.0 L-59.25 75.8 M-86.75 268.2 L-117.25 268.2 -117.25 259.65 -109.9 258.1 Q-93.45 254.9 -74.6 253.6 -79.85 258.35 -86.75 268.2 M-19.75 268.2 L-25.8 256.35 -23.35 257.05 Q-6.7 261.35 9.15 268.2 L-19.75 268.2" fill="#ffffff" fill-rule="evenodd" stroke="none"/>
    <path d="M-117.25 104.55 L-105.65 114.8 -106.0 115.3 Q-114.55 127.95 -117.25 142.95 L-117.25 104.55 M36.45 185.4 L33.4 153.25 55.9 142.25 Q66.25 146.2 73.7 154.5 79.45 161.0 82.1 169.0 81.8 183.9 69.5 192.05 73.9 184.9 68.65 178.5 66.7 176.15 63.75 175.85 53.4 174.8 56.95 165.15 56.05 165.45 55.4 166.1 46.75 174.2 54.75 183.2 54.55 188.7 49.05 190.6 39.65 193.7 36.45 185.4" fill="#515151" fill-rule="evenodd" stroke="none"/>
    <path d="M43.3 268.2 Q42.3 264.4 40.35 261.05 L39.2 259.05 Q41.35 252.15 39.75 244.8 L39.55 243.15 Q67.55 240.05 89.5 223.3 98.45 245.05 103.05 268.2 L43.3 268.2" fill="#453318" fill-rule="evenodd" stroke="none"/>
    <path d="M-69.65 268.2 L-68.0 263.4 -72.75 268.2 -83.0 268.2 -73.35 255.4 -73.15 255.9 -72.45 254.1 Q-53.6 250.9 -34.2 254.5 L-29.7 255.4 -30.85 257.05 -22.9 268.2 -35.2 268.2 -37.2 266.15 -37.25 268.2 -69.65 268.2" fill="#323335" fill-rule="evenodd" stroke="none"/>
  </g>
</svg>
