<?xml version="1.0" encoding="UTF-8" standalone="no"?>
<svg xmlns:xlink="http://www.w3.org/1999/xlink" height="432.1px" width="216.0px" xmlns="http://www.w3.org/2000/svg">
  <g transform="matrix(1.0, 0.0, 0.0, 1.0, 115.25, 171.05)">
    <path d="M82.4 -108.6 L82.25 -104.7 81.1 -81.3 80.55 -72.95 Q79.1 -51.95 77.9 -30.95 76.9 -13.1 76.9 4.8 L76.15 21.95 75.05 21.35 68.85 10.65 Q69.0 -14.55 70.55 -39.85 L72.5 -72.95 74.25 -126.2 Q67.25 -133.05 58.9 -138.2 39.2 -150.55 16.2 -154.15 -9.75 -157.95 -36.0 -154.95 -62.8 -152.2 -88.25 -142.65 -102.65 -137.3 -115.25 -128.25 L-115.25 -143.55 Q-101.35 -150.55 -86.7 -155.75 -65.1 -163.45 -42.25 -165.9 -18.65 -168.3 5.1 -165.4 29.7 -162.65 52.15 -152.5 70.05 -144.55 82.8 -129.65 L82.45 -109.5 82.4 -108.6 M22.75 145.55 L21.95 153.8 Q7.8 162.45 -6.85 170.0 L-11.75 172.4 -49.3 153.35 -48.9 144.5 -10.5 162.35 22.75 145.55 M86.25 60.35 L86.05 60.35 85.85 61.15 79.25 52.8 79.6 39.5 87.0 47.05 86.25 60.35" fill="#c9cccf" fill-rule="evenodd" stroke="none"/>
    <path d="M82.25 -104.7 L82.45 -107.7 82.45 -109.5 82.8 -129.65 Q70.05 -144.55 52.15 -152.5 29.7 -162.65 5.1 -165.4 -18.65 -168.3 -42.25 -165.9 -65.1 -163.45 -86.7 -155.75 -101.35 -150.55 -115.25 -143.55 L-115.25 -147.8 Q-89.55 -159.4 -62.05 -165.85 -41.05 -170.8 -19.6 -171.05 11.2 -171.4 40.05 -161.1 57.25 -155.1 72.2 -144.6 80.3 -139.0 87.0 -131.7 L85.2 -72.95 Q84.15 -49.75 82.55 -26.5 80.55 2.8 79.7 32.2 L90.4 45.85 89.35 61.1 Q87.6 83.85 83.0 106.3 L77.9 110.3 76.95 125.4 63.5 134.85 Q80.2 144.9 86.0 163.45 89.85 175.75 91.85 188.5 93.65 199.7 97.95 210.3 L91.4 218.65 Q97.95 239.55 100.75 261.05 L96.6 261.05 92.85 239.2 Q91.35 229.5 88.45 220.3 L86.15 222.05 Q67.7 236.35 45.45 242.8 L46.4 261.05 41.5 261.05 39.6 260.05 26.15 253.35 Q12.35 248.15 -2.0 245.05 -24.8 240.35 -48.2 240.0 -71.95 239.6 -95.45 244.2 -100.0 245.2 -103.6 248.15 L-104.15 248.65 -104.6 258.95 Q-96.7 257.5 -88.8 258.1 -64.9 258.6 -41.05 259.25 -33.05 259.5 -25.25 261.05 L-109.95 261.05 -107.3 228.3 -115.25 224.75 -115.25 219.5 -106.85 223.85 -104.2 199.65 -111.55 194.25 -112.55 193.45 -115.25 190.95 -115.25 190.85 -103.85 195.25 -101.1 178.1 -99.95 170.0 -95.4 148.35 -91.0 135.95 -115.25 121.75 -115.25 116.1 Q-105.9 122.55 -96.05 128.45 -75.35 140.85 -53.7 151.1 L-53.5 147.75 -53.35 146.45 -52.95 141.1 -49.5 97.65 Q-59.0 98.3 -68.55 97.35 -91.85 97.3 -115.25 99.9 L-115.25 95.45 -68.55 93.6 Q-57.4 93.65 -46.3 93.95 L-48.9 144.5 -49.3 153.35 -11.75 172.4 -6.85 170.0 Q7.8 162.45 21.95 153.8 L22.75 145.55 26.4 100.25 Q49.95 100.8 72.95 105.3 L75.85 27.35 70.6 24.25 Q59.6 18.75 47.55 16.35 L46.55 16.05 29.6 13.35 30.85 -34.0 31.05 -38.45 Q32.05 -55.7 33.35 -72.95 L37.05 -137.85 0.5 -112.3 -35.05 -146.4 -39.6 -48.95 -39.8 -44.85 -41.4 5.6 -68.15 6.6 Q-92.15 7.3 -115.25 13.3 L-115.25 8.2 Q-93.55 2.55 -71.25 2.25 L-45.5 1.15 -42.9 -43.4 -42.65 -47.3 Q-41.5 -60.15 -40.75 -72.95 L-37.15 -152.85 1.15 -117.0 40.95 -144.95 34.6 -34.55 34.35 -30.25 34.25 -29.4 33.6 8.7 65.55 17.15 70.4 19.45 75.05 21.35 76.15 21.95 76.9 4.8 81.1 -81.3 82.25 -104.7 M86.25 60.35 L87.0 47.05 79.6 39.5 79.25 52.8 78.35 81.9 77.8 105.0 80.45 102.45 83.5 84.75 86.1 61.15 86.25 60.35 M29.95 40.45 Q47.1 37.0 64.5 38.55 L64.4 38.6 61.7 39.4 Q54.0 41.35 45.95 42.15 55.2 45.85 56.7 55.95 59.35 73.6 42.2 74.6 35.3 75.35 30.95 70.1 18.95 55.4 33.85 42.75 L26.05 42.6 29.95 40.45 M78.1 30.45 L78.1 30.5 78.15 30.5 78.1 30.45 M72.95 108.45 L72.95 108.4 72.9 108.45 72.95 108.45 M72.45 120.6 L72.6 109.5 Q51.6 104.0 29.7 103.95 L27.8 142.25 27.8 143.2 27.55 151.1 Q51.3 139.4 72.5 123.5 L72.45 120.6 M85.8 172.15 Q81.2 153.55 66.4 141.7 L64.4 140.15 59.4 137.65 35.55 152.3 36.35 157.7 36.9 161.1 Q39.65 178.35 40.0 195.8 L41.85 211.8 58.3 210.6 52.95 212.5 42.7 214.55 45.05 237.6 Q61.65 234.5 75.7 225.15 85.95 218.4 93.5 208.85 L92.0 204.7 88.05 195.45 72.8 203.95 Q79.1 200.0 84.2 194.55 L86.6 191.8 Q87.3 181.9 85.8 172.15 M40.2 233.6 L38.45 211.1 35.05 179.2 31.9 160.55 30.85 155.1 -12.35 177.15 -24.75 171.0 -45.65 160.35 -88.0 137.75 -90.6 144.7 Q-96.0 159.95 -96.95 176.2 L-97.35 181.1 -97.35 181.15 -101.9 220.45 -103.9 244.1 -103.9 244.3 -103.65 244.15 Q-93.05 238.3 -80.75 238.1 L-77.25 237.85 Q-52.8 236.35 -28.3 237.9 -9.15 239.0 9.45 243.6 26.8 248.35 41.55 258.3 L41.5 254.65 Q41.5 244.05 40.2 233.6 M86.05 172.1 L86.0 172.05 85.9 172.1 86.45 174.0 86.05 172.1 M71.4 204.5 L71.45 204.5 71.3 204.6 71.4 204.5 M-50.7 38.0 Q-43.95 42.75 -44.3 51.1 -44.95 66.65 -60.4 68.4 -73.55 69.4 -77.9 57.15 -80.9 48.8 -76.3 41.4 -65.1 27.9 -50.7 38.0" fill="#000000" fill-rule="evenodd" stroke="none"/>
    <path d="M82.45 -107.7 L82.4 -108.6 82.45 -109.5 82.45 -107.7 M67.4 14.25 L70.4 19.45 65.55 17.15 Q66.65 16.0 67.35 14.25 L67.4 14.25 M86.05 60.35 L86.25 60.35 86.1 61.15 86.05 61.15 86.05 60.35" fill="#bbbbbb" fill-rule="evenodd" stroke="none"/>
    <path d="M-115.25 -128.25 Q-102.65 -137.3 -88.25 -142.65 -62.8 -152.2 -36.0 -154.95 -9.75 -157.95 16.2 -154.15 39.2 -150.55 58.9 -138.2 67.25 -133.05 74.25 -126.2 L72.5 -72.95 70.55 -39.85 Q69.0 -14.55 68.85 10.65 L64.5 3.8 Q50.9 -16.25 34.6 -34.55 L40.95 -144.95 1.15 -117.0 -37.15 -152.85 -40.75 -72.95 Q-41.5 -60.15 -42.65 -47.3 -58.65 -39.4 -74.05 -30.35 -95.55 -17.6 -115.25 -2.35 L-115.25 -128.25 M-115.25 99.9 Q-91.85 97.3 -68.55 97.35 -59.0 98.3 -49.5 97.65 L-52.95 141.1 -53.1 142.5 Q-74.8 132.35 -95.95 121.2 -105.7 116.15 -115.25 110.8 L-115.25 99.9 M-25.25 261.05 Q-33.05 259.5 -41.05 259.25 -64.9 258.6 -88.8 258.1 L-94.05 250.8 Q-72.95 248.2 -51.9 248.0 -48.9 247.95 -46.3 246.55 L-46.5 246.1 Q-70.85 244.15 -94.5 249.7 L-95.45 244.2 Q-71.95 239.6 -48.2 240.0 -24.8 240.35 -2.0 245.05 12.35 248.15 26.15 253.35 L26.15 254.05 35.0 257.9 Q34.7 259.45 33.85 261.05 L31.55 261.05 Q0.4 246.95 -33.6 247.45 L-23.3 248.6 Q1.7 251.9 25.25 261.05 L-25.25 261.05 M34.25 -29.4 L34.7 -29.85 38.6 -25.55 Q55.3 -7.4 67.2 14.05 L67.25 14.1 67.35 14.25 Q66.65 16.0 65.55 17.15 L33.6 8.7 34.25 -29.4 M79.25 52.8 L85.85 61.15 86.05 61.45 86.05 61.15 86.1 61.15 83.5 84.75 78.35 81.9 79.25 52.8 M72.25 120.55 L72.1 120.65 28.1 142.85 27.8 142.25 29.7 103.95 Q51.6 104.0 72.6 109.5 L72.45 120.6 72.25 120.55 M-115.25 1.55 Q-97.35 -12.85 -77.7 -24.75 -60.75 -35.05 -42.9 -43.4 L-45.5 1.15 -71.25 2.25 Q-93.55 2.55 -115.25 8.2 L-115.25 1.55 M-46.3 175.4 Q-33.5 183.0 -19.85 189.25 L-13.75 187.1 -15.05 195.95 -28.15 197.0 -28.5 197.35 -31.3 209.75 -47.7 209.0 -48.2 195.9 -48.6 195.45 -60.25 193.0 -59.7 179.65 -46.6 176.2 -46.3 175.4" fill="#999da6" fill-rule="evenodd" stroke="none"/>
    <path d="M-39.6 -48.95 L-35.05 -146.4 0.5 -112.3 37.05 -137.85 33.35 -72.95 Q32.05 -55.7 31.05 -38.45 17.75 -53.1 1.95 -65.1 L-0.2 -65.6 -2.9 -64.5 Q-21.85 -57.6 -39.6 -48.95 M30.85 -34.0 L29.6 13.35 46.55 16.05 70.6 24.25 75.85 27.35 72.95 105.3 Q49.95 100.8 26.4 100.25 L22.75 145.55 -10.5 162.35 -48.9 144.5 -46.3 93.95 Q-57.4 93.65 -68.55 93.6 L-115.25 95.45 -115.25 13.3 Q-92.15 7.3 -68.15 6.6 L-41.4 5.6 -39.8 -44.85 Q-20.5 -54.0 -0.65 -61.85 L2.4 -59.9 Q18.25 -48.8 30.85 -34.0 M64.4 38.6 L64.5 38.55 Q47.1 37.0 29.95 40.45 L17.45 43.45 23.55 46.65 Q22.0 51.0 21.85 55.75 21.7 60.35 23.05 64.6 28.25 81.15 46.0 78.8 48.95 78.35 51.35 76.5 67.95 63.95 59.1 44.75 65.15 43.2 69.8 39.3 L64.4 38.6 M78.1 30.45 L78.15 30.5 78.1 30.5 78.1 30.45 M31.9 160.55 L35.05 179.2 38.45 211.1 40.2 233.6 Q39.1 236.9 37.2 240.15 36.05 242.2 33.85 242.5 L9.45 243.6 Q-9.15 239.0 -28.3 237.9 -52.8 236.35 -77.25 237.85 L-77.25 237.35 Q-96.5 238.65 -101.9 220.45 L-97.35 181.15 -97.3 181.15 -97.35 181.1 -96.95 176.2 Q-96.0 159.95 -90.6 144.7 -72.45 159.1 -52.9 171.35 L-48.85 173.85 -48.85 173.9 -62.95 177.4 -62.75 195.9 -50.85 198.45 -50.45 211.35 -57.6 210.8 -49.75 211.6 -46.55 211.95 -42.9 212.25 -44.3 212.05 -42.75 212.1 -42.7 212.3 -42.65 212.3 -42.7 212.25 -42.7 212.1 -30.0 211.95 -26.05 199.2 -13.15 198.75 Q-12.95 198.75 -12.85 198.6 L-12.7 198.35 -10.9 185.95 Q5.45 178.65 20.35 168.75 26.25 164.85 31.9 160.55 M-78.1 64.8 Q-66.85 77.35 -51.15 69.6 -36.0 61.95 -40.4 44.55 -42.55 36.0 -50.6 31.95 -72.95 25.25 -81.5 45.55 -85.95 56.15 -78.1 64.8" fill="#ffffff" fill-rule="evenodd" stroke="none"/>
    <path d="M68.85 10.65 L75.05 21.35 70.4 19.45 67.4 14.25 67.2 14.05 Q55.3 -7.4 38.6 -25.55 L34.7 -29.85 34.35 -30.25 34.6 -34.55 Q50.9 -16.25 64.5 3.8 L68.85 10.65 M-39.6 -48.95 Q-21.85 -57.6 -2.9 -64.5 L-0.2 -65.6 1.95 -65.1 Q17.75 -53.1 31.05 -38.45 L30.85 -34.0 Q18.25 -48.8 2.4 -59.9 L-0.65 -61.85 Q-20.5 -54.0 -39.8 -44.85 L-39.6 -48.95 M-53.5 147.75 L-53.7 151.1 Q-75.35 140.85 -96.05 128.45 -105.9 122.55 -115.25 116.1 L-115.25 110.8 Q-105.7 116.15 -95.95 121.2 -74.8 132.35 -53.1 142.5 L-53.4 146.45 -53.5 147.75 M-88.8 258.1 Q-96.7 257.5 -104.6 258.95 L-104.15 248.65 -103.6 248.15 Q-100.0 245.2 -95.45 244.2 L-94.5 249.7 Q-70.85 244.15 -46.5 246.1 L-46.3 246.55 Q-48.9 247.95 -51.9 248.0 -72.95 248.2 -94.05 250.8 L-88.8 258.1 M39.6 260.05 L41.5 261.05 33.85 261.05 Q34.7 259.45 35.0 257.9 L39.6 260.05 M78.35 81.9 L83.5 84.75 80.45 102.45 77.8 105.0 78.35 81.9 M72.1 120.65 L72.25 120.95 72.25 120.55 72.45 120.6 72.5 123.5 Q51.3 139.4 27.55 151.1 L27.8 143.2 28.1 142.85 72.1 120.65 M-45.65 160.35 L-24.75 171.0 -24.1 175.55 -10.4 180.1 -10.1 180.6 -10.9 185.95 -12.7 198.35 -13.15 198.75 -26.05 199.2 -30.0 211.95 -42.7 212.1 -42.75 212.1 -44.3 212.05 -46.55 211.95 -49.75 211.6 -50.45 211.35 -50.85 198.45 -62.75 195.9 -62.95 177.4 -48.85 173.9 -48.8 173.8 -46.45 161.25 Q-46.3 160.55 -45.65 160.35 M31.55 261.05 L25.25 261.05 Q1.7 251.9 -23.3 248.6 L-33.6 247.45 Q0.4 246.95 31.55 261.05 M-42.9 -43.4 Q-60.75 -35.05 -77.7 -24.75 -97.35 -12.85 -115.25 1.55 L-115.25 -2.35 Q-95.55 -17.6 -74.05 -30.35 -58.65 -39.4 -42.65 -47.3 L-42.9 -43.4 M-46.3 175.4 L-46.6 176.2 -59.7 179.65 -60.25 193.0 -48.6 195.45 -48.2 195.9 -47.7 209.0 -31.3 209.75 -28.5 197.35 -28.15 197.0 -15.05 195.95 -13.75 187.1 -19.85 189.25 Q-33.5 183.0 -46.3 175.4" fill="#777e88" fill-rule="evenodd" stroke="none"/>
    <path d="M34.25 -29.4 L34.35 -30.25 34.7 -29.85 34.25 -29.4 M67.25 14.1 L67.4 14.25 67.35 14.25 67.25 14.1" fill="#999999" fill-rule="evenodd" stroke="none"/>
    <path d="M64.4 38.6 L69.8 39.3 Q65.15 43.2 59.1 44.75 67.95 63.95 51.35 76.5 48.95 78.35 46.0 78.8 28.25 81.15 23.05 64.6 21.7 60.35 21.85 55.75 22.0 51.0 23.55 46.65 L17.45 43.45 29.95 40.45 26.05 42.6 33.85 42.75 Q18.95 55.4 30.95 70.1 35.3 75.35 42.2 74.6 59.35 73.6 56.7 55.95 55.2 45.85 45.95 42.15 54.0 41.35 61.7 39.4 L64.4 38.6 M-50.7 38.0 Q-65.1 27.9 -76.3 41.4 -80.9 48.8 -77.9 57.15 -73.55 69.4 -60.4 68.4 -44.95 66.65 -44.3 51.1 -43.95 42.75 -50.7 38.0 M-78.1 64.8 Q-85.95 56.15 -81.5 45.55 -72.95 25.25 -50.6 31.95 -42.55 36.0 -40.4 44.55 -36.0 61.95 -51.15 69.6 -66.85 77.35 -78.1 64.8" fill="#c8c8c8" fill-rule="evenodd" stroke="none"/>
    <path d="M-115.25 121.75 L-91.0 135.95 -95.4 148.35 Q-102.75 137.65 -112.6 129.15 L-115.25 126.95 -115.25 121.75 M-101.1 178.1 L-103.85 195.25 -115.25 190.85 -115.25 178.2 Q-107.3 179.1 -101.2 174.2 -100.95 173.95 -100.6 173.8 L-101.1 178.1 M-115.25 190.95 L-112.55 193.45 -115.25 191.5 -115.25 190.95 M-111.55 194.25 L-104.2 199.65 -106.85 223.85 -115.25 219.5 -115.25 194.75 -111.55 194.25 M64.4 140.15 Q51.5 143.05 41.65 152.95 L36.35 157.7 35.55 152.3 59.4 137.65 64.4 140.15 M40.0 195.8 Q65.15 202.3 81.35 180.05 84.0 176.45 85.8 172.15 87.3 181.9 86.6 191.8 L84.2 194.55 Q79.1 200.0 72.8 203.95 L71.45 204.5 71.4 204.5 58.3 210.6 41.85 211.8 40.0 195.8 M92.0 204.7 L93.5 208.85 Q85.95 218.4 75.7 225.15 61.65 234.5 45.05 237.6 L42.7 214.55 52.95 212.5 Q72.7 224.9 89.65 207.2 L92.0 204.7 M-97.35 181.15 L-97.35 181.1 -97.3 181.15 -97.35 181.15 M85.9 172.1 L86.05 172.1 86.45 174.0 85.9 172.1" fill="#4d4d4d" fill-rule="evenodd" stroke="none"/>
    <path d="M-95.4 148.35 L-99.95 170.0 -100.6 173.8 Q-100.95 173.95 -101.2 174.2 -107.3 179.1 -115.25 178.2 L-115.25 126.95 -112.6 129.15 Q-102.75 137.65 -95.4 148.35 M-112.55 193.45 L-111.55 194.25 -115.25 194.75 -115.25 191.5 -112.55 193.45 M64.4 140.15 L66.4 141.7 Q81.2 153.55 85.8 172.15 84.0 176.45 81.35 180.05 65.15 202.3 40.0 195.8 39.65 178.35 36.9 161.1 L36.35 157.7 41.65 152.95 Q51.5 143.05 64.4 140.15 M72.8 203.95 L88.05 195.45 92.0 204.7 89.65 207.2 Q72.7 224.9 52.95 212.5 L58.3 210.6 71.4 204.5 71.3 204.6 71.45 204.5 72.8 203.95 M86.05 172.1 L85.9 172.1 86.0 172.05 86.05 172.1" fill="#666666" fill-rule="evenodd" stroke="none"/>
    <path d="M-53.35 146.45 L-53.5 147.75 -53.4 146.45 -53.35 146.45 M40.2 233.6 Q41.5 244.05 41.5 254.65 L41.55 258.3 Q26.8 248.35 9.45 243.6 L33.85 242.5 Q36.05 242.2 37.2 240.15 39.1 236.9 40.2 233.6 M-77.25 237.85 L-80.75 238.1 Q-93.05 238.3 -103.65 244.15 L-103.9 244.1 -101.9 220.45 Q-96.5 238.65 -77.25 237.35 L-77.25 237.85 M-90.6 144.7 L-88.0 137.75 -45.65 160.35 Q-46.3 160.55 -46.45 161.25 L-48.8 173.8 -48.85 173.85 -52.9 171.35 Q-72.45 159.1 -90.6 144.7 M-24.75 171.0 L-12.35 177.15 30.85 155.1 31.9 160.55 Q26.25 164.85 20.35 168.75 5.45 178.65 -10.9 185.95 L-10.1 180.6 -10.15 180.25 -10.4 180.1 -24.1 175.55 -24.75 171.0" fill="#bfbfbf" fill-rule="evenodd" stroke="none"/>
    <path d="M-12.7 198.35 L-12.85 198.6 Q-12.95 198.75 -13.15 198.75 L-12.7 198.35 M-10.1 180.6 L-10.4 180.1 -10.15 180.25 -10.1 180.6" fill="#6f6f6f" fill-rule="evenodd" stroke="none"/>
    <path d="M-42.7 212.1 L-42.7 212.25 -42.7 212.3 -42.75 212.1 -42.7 212.1" fill="#5e5e5e" fill-rule="evenodd" stroke="none"/>
    <path d="M-42.7 212.25 L-42.65 212.3 -42.7 212.3 -42.7 212.25" fill="#737373" fill-rule="evenodd" stroke="none"/>
    <path d="M-115.25 224.75 L-107.3 228.3 -109.95 261.05 -115.25 261.05 -115.25 224.75 M46.4 261.05 L45.45 242.8 Q67.7 236.35 86.15 222.05 L88.45 220.3 Q91.35 229.5 92.85 239.2 L96.6 261.05 46.4 261.05" fill="#333333" fill-rule="evenodd" stroke="none"/>
  </g>
</svg>
