<?xml version="1.0" encoding="UTF-8" standalone="no"?>
<svg xmlns:xlink="http://www.w3.org/1999/xlink" height="433.15px" width="235.05px" xmlns="http://www.w3.org/2000/svg">
  <g transform="matrix(1.0, 0.0, 0.0, 1.0, 115.25, 174.25)">
    <path d="M119.8 -164.1 L119.8 -154.45 Q115.85 -141.7 112.2 -128.55 L110.5 -123.25 Q109.05 -119.2 106.15 -115.9 L107.05 -112.0 102.15 -111.75 102.8 -109.35 100.5 -109.5 Q97.35 -109.45 94.7 -107.85 97.9 -106.25 101.3 -105.0 104.75 -103.7 106.15 -107.5 108.75 -107.05 111.0 -108.5 L111.35 -109.15 Q112.2 -116.1 114.5 -122.9 116.15 -127.75 117.35 -132.65 L119.8 -142.25 119.8 -108.4 Q118.5 -102.85 116.0 -97.8 115.55 -96.95 114.85 -96.45 105.55 -89.75 94.45 -95.3 93.35 -99.45 91.65 -103.2 89.35 -108.25 86.35 -112.6 90.45 -112.3 94.55 -112.7 96.7 -113.15 98.25 -114.65 100.65 -116.9 102.05 -119.8 112.5 -141.35 119.8 -164.1 M-115.25 251.65 L-115.25 220.0 -111.4 220.65 -109.5 215.15 Q-93.25 209.05 -77.8 200.6 -93.95 216.4 -97.15 238.95 -97.55 241.85 -96.7 244.8 L-115.25 251.65 M-115.25 21.75 L-115.25 -30.15 -113.65 -31.5 -107.8 -32.35 Q-112.0 -5.95 -114.15 22.0 L-115.25 21.75 M43.05 -117.8 L46.65 -111.15 Q49.25 -106.25 50.5 -100.85 68.1 -24.75 40.45 48.0 L39.6 47.5 39.35 47.9 Q31.25 46.1 24.4 42.15 L23.95 38.8 Q23.05 32.2 23.55 25.35 L24.3 24.7 Q27.6 19.35 27.1 12.65 L27.2 10.95 Q27.75 1.5 18.65 -0.75 L18.5 -1.4 Q14.3 -2.8 10.15 -1.25 7.45 -12.65 3.1 -22.95 -5.45 -23.15 -13.15 -27.25 -15.35 -28.35 -17.05 -29.9 -25.55 -37.6 -30.5 -48.2 L-29.75 -49.0 Q-28.05 -51.0 -27.9 -53.65 L-27.85 -54.3 Q-25.8 -57.75 -25.5 -62.0 L-25.45 -62.75 Q-25.25 -63.9 -26.1 -68.15 -27.0 -72.55 -31.25 -74.3 -31.5 -77.05 -33.9 -78.35 L-34.7 -78.6 -34.95 -81.0 Q-37.55 -85.15 -37.25 -90.4 L-37.05 -89.7 -37.05 -94.75 -44.0 -103.25 -47.3 -107.55 -49.65 -111.15 -49.65 -111.65 -50.1 -111.75 -52.6 -119.25 Q-29.85 -131.0 -4.15 -128.8 20.1 -126.25 43.05 -117.8 M9.45 23.15 L10.0 24.1 Q10.85 25.55 12.0 26.35 14.2 27.7 16.9 27.85 9.65 32.45 2.0 36.4 -0.85 37.9 -4.0 37.85 -27.3 37.4 -50.6 38.45 -50.85 33.7 -47.0 30.35 -41.75 25.75 -41.9 19.35 L-40.7 18.7 Q-31.25 11.5 -33.35 -0.05 -33.45 -2.05 -34.5 -3.9 L-35.1 -4.85 Q-34.9 -7.0 -36.2 -8.9 L-36.95 -9.85 -36.55 -11.8 -30.25 -18.3 Q-29.8 -18.05 -29.9 -18.6 L-30.0 -18.8 -28.5 -21.95 Q-25.7 -27.8 -24.55 -34.15 L-24.25 -34.15 -24.05 -34.15 -24.0 -34.1 -23.9 -33.85 -23.85 -33.65 -19.0 -28.1 Q-11.4 -24.9 -3.6 -22.3 3.15 -19.85 4.5 -13.0 L4.85 -12.75 Q7.5 0.15 5.55 13.4 L6.0 13.35 Q6.0 15.15 6.45 17.05 7.15 21.0 9.45 23.15 M-51.6 14.25 Q-50.65 18.85 -46.05 19.6 L-45.0 19.65 -44.2 21.15 Q-45.15 27.8 -50.55 32.0 -53.75 34.4 -55.95 37.45 L-56.85 39.0 -70.7 40.8 Q-88.75 44.25 -104.95 53.1 -110.1 32.5 -109.1 11.15 -107.95 -14.15 -102.6 -38.75 -97.8 -60.85 -87.9 -81.0 -77.7 -101.6 -59.25 -115.2 L-58.2 -114.3 Q-58.2 -112.9 -56.55 -111.9 -54.9 -110.9 -52.6 -110.9 L-51.7 -110.6 -49.65 -106.65 Q-48.55 -104.3 -47.1 -102.3 L-44.05 -98.7 -39.95 -93.1 Q-39.85 -89.4 -38.5 -86.0 L-38.0 -85.25 -38.0 -84.75 -37.65 -84.5 -37.95 -77.85 Q-40.9 -75.85 -42.4 -72.55 L-43.6 -70.95 Q-50.95 -58.9 -39.7 -49.5 L-39.65 -49.5 -39.25 -49.35 -37.2 -47.15 -32.3 -47.0 Q-30.2 -41.15 -26.5 -36.65 L-26.85 -36.05 Q-26.45 -32.35 -27.6 -29.05 -31.2 -18.65 -38.95 -10.85 L-41.0 -10.75 Q-44.1 -10.3 -46.35 -8.0 -53.8 -4.8 -54.35 3.45 -54.7 9.2 -51.6 14.25 M-55.15 42.45 L-52.2 42.15 -58.2 43.0 -55.15 42.45 M36.45 -54.95 Q36.85 -59.9 33.9 -63.8 31.5 -67.0 27.35 -66.75 14.9 -65.55 15.45 -52.6 15.65 -47.35 19.7 -44.05 28.25 -37.1 33.85 -46.45 35.95 -50.05 36.4 -54.25 L36.45 -54.95 M40.0 -46.65 L39.6 -47.15 Q34.55 -42.5 31.15 -36.65 L32.45 -35.85 Q36.3 -37.1 39.35 -39.9 L37.8 -36.0 38.1 -35.65 39.6 -35.65 40.4 -41.05 39.6 -41.05 39.4 -40.1 37.65 -40.45 Q40.45 -42.9 40.0 -46.65 M41.2 -35.0 L40.8 -36.55 38.8 -34.0 41.2 -35.0 M92.2 -96.05 L85.95 -97.75 85.1 -112.65 Q89.8 -105.2 92.2 -96.05 M26.4 12.7 L26.4 12.65 26.45 12.65 26.4 12.7 M32.55 22.3 L32.35 20.85 Q29.45 24.6 27.55 29.05 31.65 26.85 32.55 22.3 M21.7 29.05 L22.9 34.1 21.6 40.9 18.95 42.25 1.5 39.7 1.6 38.45 Q10.75 32.35 20.95 28.45 L21.5 28.9 21.25 29.3 21.7 29.05 M32.9 30.6 L33.05 27.7 Q30.4 28.7 30.55 31.45 L30.55 31.8 32.9 30.6 M26.8 73.85 L26.5 73.7 26.9 73.7 26.8 73.85 M-98.0 75.0 Q-100.75 69.7 -102.55 63.8 L-103.65 60.05 Q-80.75 47.65 -54.5 45.0 -52.25 49.0 -52.05 53.9 L-51.8 58.1 Q-51.55 60.85 -52.35 63.6 L-63.9 66.0 Q-81.45 69.05 -98.0 75.0 M-49.45 44.5 Q-27.65 43.1 -5.9 45.3 L-4.45 45.5 -3.1 49.75 Q-2.5 47.7 -3.45 45.6 L18.65 49.65 16.45 58.45 Q19.05 54.6 20.65 50.25 31.65 53.45 41.85 58.15 L44.5 59.4 35.65 58.55 29.15 69.75 Q-9.7 59.15 -49.75 63.6 L-50.8 62.2 Q-49.9 54.85 -51.45 47.8 L-50.75 47.2 -50.8 45.9 -49.45 44.5 M59.25 91.8 L58.7 92.75 58.45 92.4 59.25 91.8 M31.95 78.2 L23.45 78.55 Q18.3 85.55 11.95 91.4 L-26.0 88.3 Q-46.8 87.25 -67.4 90.3 -78.25 91.95 -88.05 96.65 L-95.85 81.65 -95.75 81.2 Q-92.4 79.5 -88.9 78.15 -82.95 75.75 -76.5 74.15 -52.75 67.95 -28.35 68.55 L-12.05 69.25 Q10.75 69.75 31.95 78.2 M12.45 98.8 L7.75 99.65 5.4 99.8 3.0 99.7 1.8 99.7 Q-7.45 106.7 -18.1 111.6 -28.15 116.05 -39.1 116.35 -63.2 116.95 -81.8 100.85 -57.85 93.4 -32.8 94.1 -9.9 94.7 12.45 98.8 M-49.25 -114.85 L-48.85 -113.6 Q-46.7 -109.35 -44.15 -105.2 L-38.95 -100.25 -37.75 -101.35 -37.35 -101.3 -31.65 -107.6 Q-28.45 -110.9 -27.1 -115.05 -26.35 -117.5 -28.4 -118.55 -39.5 -124.0 -49.25 -114.85 M-53.5 -108.55 L-54.65 -108.05 Q-58.65 -106.1 -60.1 -101.7 L-61.1 -97.05 Q-61.5 -94.65 -59.1 -93.9 -51.5 -91.2 -44.25 -96.3 -47.65 -104.0 -53.5 -108.55 M-21.15 -56.2 L-21.95 -56.85 -22.55 -56.85 Q-22.8 -53.0 -24.85 -49.75 L-23.75 -49.25 -23.0 -49.9 Q-20.1 -52.5 -21.15 -56.2 M-36.95 21.05 L-36.65 22.45 -32.3 20.65 -32.05 21.4 -31.35 21.75 -31.1 21.35 Q-30.1 16.4 -29.8 11.15 L-30.35 12.55 Q-32.45 17.75 -36.95 21.05 M-28.35 193.4 Q-27.25 190.65 -28.85 188.0 -29.3 187.2 -29.9 187.55 -40.0 186.65 -47.3 194.85 L-52.7 187.0 Q-45.45 181.85 -37.5 177.8 L-34.55 176.35 Q-27.15 189.8 -21.6 204.15 L-33.95 213.55 -39.1 207.55 Q-34.75 205.4 -31.9 201.8 -28.7 197.75 -28.35 193.4 M-37.65 170.95 L-56.85 184.45 -49.45 197.5 -49.9 198.4 Q-50.55 199.7 -50.45 201.1 -50.2 204.95 -46.25 205.3 L-44.95 205.2 -42.25 209.4 Q-39.15 214.35 -35.05 218.15 L-20.7 206.55 -19.4 210.3 Q-29.95 220.6 -41.45 228.0 -52.15 215.3 -59.8 200.75 -63.9 192.95 -67.8 184.75 L-67.25 184.15 Q-55.75 172.9 -41.5 164.85 L-37.65 170.95 M-46.95 201.85 L-47.8 200.05 Q-42.4 191.1 -32.4 188.5 L-31.15 188.35 -30.25 190.55 Q-37.45 196.85 -43.95 200.4 L-46.95 201.85 M-75.1 221.0 Q-74.85 222.0 -74.2 222.65 -68.15 228.65 -65.05 220.65 -63.95 217.85 -66.55 216.55 -73.85 213.0 -75.1 221.0 M-73.4 221.0 Q-70.25 217.25 -66.9 220.4 -66.65 220.7 -66.5 221.15 -66.9 222.95 -68.85 223.3 -72.6 224.15 -73.4 221.0 M-75.25 239.85 Q-76.25 238.45 -78.0 238.25 -84.3 236.9 -85.1 243.15 -85.5 246.5 -82.45 247.05 -74.1 248.9 -75.25 239.85 M-50.8 221.65 Q-58.55 233.9 -65.0 246.5 -65.9 248.3 -67.65 249.3 -82.15 257.6 -93.3 245.6 -95.95 226.5 -83.55 210.8 -76.35 201.6 -66.95 194.7 L-50.8 221.65" fill="#999966" fill-rule="evenodd" stroke="none"/>
    <path d="M-115.25 -118.9 L-115.25 -125.0 Q-103.0 -136.65 -87.8 -144.3 -64.25 -156.1 -37.7 -157.7 5.4 -161.2 44.8 -143.2 66.0 -133.5 83.3 -117.85 L95.7 -118.6 98.0 -123.5 Q101.05 -129.3 103.7 -135.2 112.4 -154.5 119.8 -174.25 L119.8 -164.1 Q112.5 -141.35 102.05 -119.8 100.65 -116.9 98.25 -114.65 96.7 -113.15 94.55 -112.7 90.45 -112.3 86.35 -112.6 89.35 -108.25 91.65 -103.2 93.35 -99.45 94.45 -95.3 99.75 -75.65 94.8 -56.0 L94.45 -54.95 Q98.05 -35.0 96.05 -14.7 L109.3 -15.55 Q115.6 -15.55 119.8 -20.35 L119.8 -13.45 Q111.1 -9.0 100.8 -10.3 L95.7 -10.9 Q91.45 26.6 78.1 62.05 75.3 69.5 72.1 76.65 L69.7 76.75 Q70.25 85.1 64.5 92.55 L62.4 95.75 59.4 95.65 59.25 100.45 51.65 111.35 63.15 115.3 Q56.45 118.6 51.1 123.85 71.9 136.8 80.0 160.0 86.2 177.65 80.25 195.35 L86.75 216.4 81.85 222.6 Q87.65 240.55 90.5 258.9 L86.35 258.9 Q84.45 242.15 78.5 226.45 L77.25 223.35 Q65.9 231.45 53.15 237.4 54.1 240.05 53.8 242.85 53.25 248.6 53.7 254.7 65.4 255.85 76.7 258.9 L-115.25 258.9 -115.25 255.25 -112.15 254.7 Q-103.65 251.75 -95.75 247.65 L-96.7 244.8 Q-97.55 241.85 -97.15 238.95 -93.95 216.4 -77.8 200.6 -93.25 209.05 -109.5 215.15 L-111.4 220.65 -115.25 220.0 -115.25 212.85 -115.0 211.95 -114.6 212.05 -115.0 211.9 Q-111.4 203.6 -109.5 194.65 L-115.25 190.1 -115.25 187.95 -108.1 191.95 Q-99.6 180.6 -96.2 167.05 L-93.7 158.05 Q-89.9 145.55 -94.5 134.1 -95.4 133.65 -96.3 133.35 -104.7 129.95 -113.6 132.25 L-115.25 132.55 -115.25 124.95 -115.1 124.4 -111.55 114.85 -115.25 115.3 -115.25 112.4 -113.1 111.9 Q-110.85 112.2 -108.8 113.7 L-108.15 114.2 Q-111.45 121.2 -112.8 128.75 L-112.9 129.2 Q-99.55 125.85 -89.9 134.35 -88.4 135.65 -87.15 137.3 L-89.3 137.8 Q-85.85 166.2 -101.35 189.95 -102.75 192.2 -103.65 194.7 L-109.15 210.35 -100.8 207.05 -94.3 204.3 Q-80.5 198.6 -67.6 191.05 L-71.1 184.15 -68.6 181.8 Q-56.85 170.8 -42.6 163.05 -34.65 157.4 -25.4 156.7 L-25.0 156.85 -23.15 159.4 -18.7 156.25 Q-45.4 149.4 -67.65 132.65 -90.15 123.5 -110.1 109.55 L-115.25 105.95 -115.25 99.95 Q-106.25 106.95 -99.0 111.35 L-76.75 123.1 Q-88.3 109.95 -96.8 94.95 L-97.3 94.45 Q-100.6 92.65 -103.6 90.45 L-115.25 82.85 -115.25 80.75 -104.1 88.35 -97.6 92.55 -97.95 91.85 Q-104.35 77.95 -108.4 62.95 L-108.4 62.8 Q-111.75 48.85 -113.2 34.7 L-115.25 34.0 -115.25 28.85 -113.5 29.5 Q-113.6 25.2 -114.15 22.0 -112.0 -5.95 -107.8 -32.35 L-113.65 -31.5 -115.25 -31.0 -115.25 -42.2 Q-113.25 -45.05 -112.45 -48.35 -106.7 -72.85 -109.15 -98.0 -110.2 -109.1 -115.25 -118.9 M72.45 -102.95 Q78.1 -96.35 82.5 -88.95 83.0 -97.5 82.35 -106.0 82.1 -109.75 80.65 -113.05 61.85 -129.5 39.2 -139.95 17.45 -149.85 -6.3 -152.4 -28.4 -154.8 -50.1 -151.6 -73.75 -148.0 -94.15 -135.45 -101.15 -131.15 -107.5 -126.05 L-113.0 -121.1 Q-105.55 -104.95 -105.0 -86.95 -104.55 -72.4 -106.95 -58.1 -108.9 -46.55 -113.95 -36.0 L-107.15 -37.0 Q-102.25 -64.85 -88.65 -89.6 -86.4 -93.75 -83.4 -97.2 -72.8 -109.15 -61.55 -120.5 L-58.7 -119.6 -57.5 -119.15 -56.35 -119.2 -56.1 -119.2 -55.9 -119.35 -55.75 -119.3 -55.8 -124.45 Q-32.3 -135.5 -6.4 -133.75 23.75 -132.5 50.9 -119.55 63.4 -113.5 72.45 -102.95 M-52.2 42.15 Q-28.4 40.9 -4.65 43.6 19.9 46.15 43.35 54.7 58.45 60.2 68.5 72.6 82.4 40.05 89.25 5.35 94.0 -18.8 92.05 -43.45 89.9 -70.35 74.3 -92.75 67.2 -103.0 57.0 -110.1 50.35 -114.75 43.05 -117.8 20.1 -126.25 -4.15 -128.8 -29.85 -131.0 -52.6 -119.25 L-53.95 -115.35 Q-56.2 -114.75 -58.4 -115.8 L-59.25 -115.2 Q-77.7 -101.6 -87.9 -81.0 -97.8 -60.85 -102.6 -38.75 -107.95 -14.15 -109.1 11.15 -110.1 32.5 -104.95 53.1 L-104.15 57.65 Q-81.2 45.05 -55.15 42.45 L-58.2 43.0 -52.2 42.15 M27.1 12.65 L26.3 13.9 Q28.35 1.6 16.25 1.65 L14.8 1.8 14.2 2.4 Q24.2 3.55 21.85 13.95 20.5 19.95 14.6 21.5 12.5 21.95 10.45 21.05 15.5 26.0 21.5 22.15 22.95 21.25 23.8 19.9 21.65 27.4 13.15 25.05 11.15 24.4 9.45 23.15 7.15 21.0 6.45 17.05 6.0 15.15 6.0 13.35 5.7 7.0 10.15 2.6 13.55 -0.85 18.65 -0.75 27.75 1.5 27.2 10.95 L27.1 12.65 M-33.35 -0.05 L-33.15 2.5 Q-32.95 4.3 -34.0 6.05 -33.9 3.95 -34.2 1.95 -35.65 -8.05 -45.75 -6.05 L-46.35 -5.5 Q-37.0 -5.4 -37.9 4.4 -38.95 15.8 -49.85 12.95 -48.25 15.0 -45.7 15.55 -39.75 17.15 -36.25 12.2 -36.3 13.35 -37.05 14.2 -44.0 21.35 -51.6 14.25 -54.7 9.2 -54.35 3.45 -53.8 -4.8 -46.35 -8.0 -40.4 -9.65 -35.8 -5.5 L-35.1 -4.85 -34.5 -3.9 Q-33.45 -2.05 -33.35 -0.05 M33.85 -46.45 Q28.25 -37.1 19.7 -44.05 15.65 -47.35 15.45 -52.6 14.9 -65.55 27.35 -66.75 31.5 -67.0 33.9 -63.8 36.85 -59.9 36.45 -54.95 L35.75 -53.7 Q36.5 -66.2 24.45 -64.95 L23.0 -64.45 Q33.35 -63.75 31.45 -53.05 30.35 -47.0 24.15 -45.2 L20.3 -45.35 Q24.4 -41.25 29.65 -44.1 31.95 -45.35 33.85 -47.25 L33.85 -46.45 M-27.9 -53.65 Q-31.05 -47.8 -37.95 -49.05 L-39.25 -49.4 -39.65 -49.5 -39.7 -49.5 Q-50.95 -58.9 -43.6 -70.95 L-42.4 -72.55 -42.0 -72.95 Q-37.0 -76.65 -31.25 -74.3 -27.0 -72.55 -26.1 -68.15 -25.25 -63.9 -25.45 -62.75 L-26.1 -61.5 Q-25.75 -75.25 -38.9 -72.5 L-39.25 -72.0 -36.25 -71.75 Q-29.95 -70.2 -30.35 -63.5 -31.05 -52.55 -41.35 -53.2 -33.65 -47.6 -28.0 -55.3 L-27.85 -54.3 -27.9 -53.65 M74.15 -45.4 Q83.2 -45.0 81.05 -34.75 79.25 -25.9 71.35 -27.2 75.05 -23.0 80.35 -25.7 82.5 -26.9 83.5 -29.05 80.25 -20.2 71.65 -24.5 70.5 -25.1 69.9 -26.2 62.3 -40.45 75.9 -47.8 78.1 -49.0 80.55 -47.75 88.2 -43.9 85.4 -35.3 86.8 -46.1 76.9 -46.3 L74.65 -46.05 74.15 -45.4 M85.95 -97.75 Q85.15 -77.35 93.45 -58.75 L94.2 -62.4 Q97.35 -79.5 92.2 -96.05 89.8 -105.2 85.1 -112.65 L85.95 -97.75 M64.2 19.45 L65.25 19.4 Q73.1 21.8 70.35 31.0 67.8 39.4 60.05 37.4 64.85 42.8 70.5 38.35 L72.25 36.7 Q67.9 45.9 59.8 39.1 58.45 37.95 57.85 36.15 53.4 23.15 65.4 17.4 68.4 15.95 71.05 17.75 77.95 22.6 74.65 30.6 77.3 19.95 67.15 19.0 L64.2 19.45 M26.5 73.7 L26.8 73.85 Q31.4 75.4 36.1 77.2 49.15 82.05 58.0 92.55 L58.45 92.4 58.7 92.75 59.25 91.8 66.5 77.15 65.2 75.1 Q57.25 64.25 44.5 59.4 L41.85 58.15 Q31.65 53.45 20.65 50.25 L18.65 49.65 -3.45 45.6 -4.45 45.5 -5.9 45.3 Q-27.65 43.1 -49.45 44.5 L-54.5 45.0 Q-80.75 47.65 -103.65 60.05 L-102.55 63.8 Q-100.75 69.7 -98.0 75.0 L-96.8 78.1 Q-68.5 67.65 -38.3 66.9 -13.55 65.95 10.8 70.0 18.8 71.35 26.5 73.7 M31.95 78.2 Q10.75 69.75 -12.05 69.25 L-28.35 68.55 Q-52.75 67.95 -76.5 74.15 -82.95 75.75 -88.9 78.15 -92.4 79.5 -95.75 81.2 L-95.85 81.65 -88.05 96.65 -85.6 99.7 Q-62.35 91.8 -37.75 92.2 -15.85 92.55 5.75 95.35 22.3 97.35 35.85 106.75 40.3 109.85 43.6 114.05 50.1 107.05 55.1 98.7 L56.5 96.3 Q51.7 89.4 44.6 84.85 38.55 81.05 31.95 78.2 M47.5 116.35 L45.55 116.5 Q44.65 116.75 43.8 117.25 L43.55 120.6 39.8 124.25 42.5 127.85 Q47.65 121.05 54.95 116.55 L49.4 114.15 47.5 116.35 M-81.8 100.85 L-85.1 102.4 Q-71.9 125.1 -49.35 137.95 -37.45 144.8 -24.4 149.05 -15.1 152.15 -6.1 147.7 0.15 144.5 6.4 141.6 26.3 132.35 41.35 116.5 L41.35 115.6 Q31.4 104.05 16.7 99.85 L12.45 98.8 Q-9.9 94.7 -32.8 94.1 -57.85 93.4 -81.8 100.85 M44.0 130.4 L45.4 134.85 43.45 136.25 Q49.15 135.85 55.75 137.8 53.45 144.5 47.85 149.85 46.65 150.95 45.85 152.45 53.2 161.15 64.35 167.1 53.85 173.3 44.65 181.7 51.3 188.05 56.3 195.8 66.15 193.35 76.2 193.35 83.75 166.35 66.6 142.9 59.25 132.9 48.9 125.9 L44.0 130.4 M-9.55 256.75 L51.05 254.9 Q50.25 248.5 49.85 241.95 L49.45 239.5 Q45.85 227.6 39.95 216.6 L42.65 216.3 Q51.2 214.95 59.8 214.7 58.4 207.5 54.55 201.25 L49.5 193.2 Q45.6 187.25 39.95 183.2 40.5 181.3 41.85 179.7 47.9 172.35 56.05 166.7 53.2 163.4 49.45 161.1 45.15 158.55 41.75 155.1 41.3 154.65 41.55 153.9 44.5 146.3 50.7 140.3 L44.2 140.5 Q43.35 140.8 42.85 141.55 40.55 144.5 38.85 148.1 L36.5 152.25 Q21.1 175.1 -0.55 192.4 L3.5 198.4 -5.7 206.55 -11.65 212.1 Q-25.0 224.95 -41.35 233.2 L-47.2 226.55 Q-50.7 229.7 -52.6 234.15 -54.85 239.45 -56.3 244.95 -58.6 253.45 -66.85 255.85 L-52.7 255.95 -9.55 256.75 M22.15 138.3 Q5.35 150.15 -14.65 155.6 L-21.5 161.85 -2.35 189.2 Q14.9 176.85 27.0 159.55 L29.9 155.6 Q37.4 145.75 41.25 134.05 L35.1 128.4 26.05 135.5 22.15 138.3 M75.45 194.95 Q66.25 196.85 57.0 197.25 61.5 207.95 63.75 219.25 54.6 217.7 45.45 219.5 50.15 225.5 52.05 232.95 61.5 228.65 70.55 223.55 76.75 220.05 80.9 214.6 L78.85 205.95 Q78.15 202.7 76.85 199.75 75.8 197.5 76.0 194.75 L75.45 194.95 M-52.7 187.0 L-47.3 194.85 Q-40.0 186.65 -29.9 187.55 -29.3 187.2 -28.85 188.0 -27.25 190.65 -28.35 193.4 L-29.25 194.75 Q-33.9 201.1 -40.8 204.75 L-39.1 207.55 -33.95 213.55 -21.6 204.15 -14.3 198.9 Q-24.65 185.35 -33.65 171.35 L-54.05 185.3 -52.7 187.0 M-20.7 206.55 L-35.05 218.15 Q-39.15 214.35 -42.25 209.4 L-44.95 205.2 -46.25 205.3 Q-50.2 204.95 -50.45 201.1 -50.55 199.7 -49.9 198.4 L-49.45 197.5 -56.85 184.45 -37.65 170.95 -33.15 167.75 Q-22.35 181.55 -12.7 196.05 L-11.05 198.45 -20.7 206.55 M-41.5 164.85 Q-55.75 172.9 -67.25 184.15 L-67.8 184.75 Q-63.9 192.95 -59.8 200.75 -52.15 215.3 -41.45 228.0 L-40.25 229.35 Q-29.95 224.75 -21.6 217.0 L-12.95 208.9 -0.35 197.45 -27.4 158.45 Q-34.65 160.85 -41.5 164.85 M-30.25 190.55 L-31.15 188.35 -32.4 188.5 Q-42.4 191.1 -47.8 200.05 L-46.95 201.85 -45.45 201.8 Q-33.75 201.1 -30.25 190.55 M-75.1 221.0 Q-73.85 213.0 -66.55 216.55 -63.95 217.85 -65.05 220.65 -68.15 228.65 -74.2 222.65 -74.85 222.0 -75.1 221.0 M-66.5 221.15 Q-65.7 218.0 -68.7 216.9 -71.35 216.0 -72.75 218.45 -73.45 219.7 -73.4 221.0 -72.6 224.15 -68.85 223.3 -66.9 222.95 -66.5 221.15 M-83.65 244.55 L-81.75 246.55 Q-77.9 246.95 -76.75 243.55 -76.35 242.25 -77.1 241.05 -80.0 243.5 -83.5 244.45 L-83.7 244.45 -83.65 244.55 M-75.25 239.85 Q-74.1 248.9 -82.45 247.05 -85.5 246.5 -85.1 243.15 -84.3 236.9 -78.0 238.25 -76.25 238.45 -75.25 239.85 M-78.45 239.3 Q-82.0 238.6 -83.9 241.5 L-84.35 242.45 Q-81.85 241.8 -79.65 240.3 L-78.45 239.3 M-93.3 245.6 Q-92.5 247.8 -90.7 249.4 -78.7 259.8 -64.3 251.45 -62.55 250.4 -61.9 248.7 -57.05 235.6 -49.4 224.25 L-50.8 221.65 -66.95 194.7 Q-76.35 201.6 -83.55 210.8 -95.95 226.5 -93.3 245.6 M-89.05 255.65 Q-92.0 254.0 -94.0 251.0 L-104.6 255.45 -96.5 255.55 -89.05 255.65" fill="#000000" fill-rule="evenodd" stroke="none"/>
    <path d="M119.8 -154.45 L119.8 -142.25 117.35 -132.65 Q116.15 -127.75 114.5 -122.9 112.2 -116.1 111.35 -109.15 L111.0 -108.5 Q108.75 -107.05 106.15 -107.5 104.75 -103.7 101.3 -105.0 97.9 -106.25 94.7 -107.85 97.35 -109.45 100.5 -109.5 L102.8 -109.35 102.15 -111.75 107.05 -112.0 106.15 -115.9 Q109.05 -119.2 110.5 -123.25 L112.2 -128.55 Q115.85 -141.7 119.8 -154.45 M-30.25 -18.3 L-30.0 -18.8 -29.9 -18.6 Q-29.8 -18.05 -30.25 -18.3 M-24.55 -34.15 L-24.45 -34.35 -24.25 -34.15 -24.55 -34.15 M21.7 29.05 L21.25 29.3 21.5 28.9 21.7 29.05 M-49.25 -114.85 Q-39.5 -124.0 -28.4 -118.55 -26.35 -117.5 -27.1 -115.05 -28.45 -110.9 -31.65 -107.6 L-37.35 -101.3 -37.75 -101.35 -38.95 -100.25 -44.15 -105.2 Q-46.7 -109.35 -48.85 -113.6 L-49.25 -114.85 M-58.2 -114.3 L-57.65 -114.55 -57.1 -114.45 Q-55.6 -111.65 -52.6 -112.35 -49.65 -109.55 -48.7 -105.5 L-49.65 -106.65 -51.7 -110.6 -52.6 -110.9 Q-54.9 -110.9 -56.55 -111.9 -58.2 -112.9 -58.2 -114.3 M-44.05 -98.7 Q-39.7 -96.85 -38.9 -92.7 -38.2 -89.05 -38.0 -85.25 L-38.5 -86.0 Q-39.85 -89.4 -39.95 -93.1 L-44.05 -98.7 M-53.5 -108.55 Q-47.65 -104.0 -44.25 -96.3 -51.5 -91.2 -59.1 -93.9 -61.5 -94.65 -61.1 -97.05 L-60.1 -101.7 Q-58.65 -106.1 -54.65 -108.05 L-53.5 -108.55" fill="#ccccb3" fill-rule="evenodd" stroke="none"/>
    <path d="M-115.25 111.6 L-115.25 105.95 -110.1 109.55 Q-90.15 123.5 -67.65 132.65 L-56.95 144.4 Q-49.0 153.25 -42.6 163.05 -56.85 170.8 -68.6 181.8 L-71.1 184.15 -67.6 191.05 Q-80.5 198.6 -94.3 204.3 L-100.8 207.05 -97.3 195.3 -90.55 196.1 Q-89.85 187.15 -91.6 178.4 L-90.1 177.0 Q-86.05 173.15 -80.9 174.4 -80.1 161.55 -86.1 150.65 -82.95 148.1 -79.0 148.15 -80.4 139.35 -86.6 133.1 -97.9 121.55 -112.8 128.75 -111.45 121.2 -108.15 114.2 L-108.8 113.7 Q-110.85 112.2 -113.1 111.9 L-115.25 111.6 M-115.25 99.95 L-115.25 82.85 -103.6 90.45 -98.2 109.5 -99.0 111.35 Q-106.25 106.95 -115.25 99.95 M-115.25 80.75 L-115.25 34.0 -113.2 34.7 Q-111.75 48.85 -108.4 62.8 L-108.4 62.95 -107.95 66.85 Q-106.7 77.7 -104.1 88.35 L-115.25 80.75 M72.45 -102.95 Q63.4 -113.5 50.9 -119.55 23.75 -132.5 -6.4 -133.75 -32.3 -135.5 -55.8 -124.45 L-55.75 -119.3 -55.9 -119.35 -56.1 -119.2 -56.35 -119.2 -57.5 -119.15 -58.7 -119.6 -61.55 -120.5 Q-72.8 -109.15 -83.4 -97.2 -86.4 -93.75 -88.65 -89.6 -102.25 -64.85 -107.15 -37.0 L-113.95 -36.0 Q-108.9 -46.55 -106.95 -58.1 -104.55 -72.4 -105.0 -86.95 -105.55 -104.95 -113.0 -121.1 L-107.5 -126.05 Q-101.15 -131.15 -94.15 -135.45 -73.75 -148.0 -50.1 -151.6 -28.4 -154.8 -6.3 -152.4 17.45 -149.85 39.2 -139.95 61.85 -129.5 80.65 -113.05 82.1 -109.75 82.35 -106.0 83.0 -97.5 82.5 -88.95 78.1 -96.35 72.45 -102.95 M-52.7 255.95 Q-50.8 246.05 -49.4 235.8 -49.1 233.7 -48.3 231.65 L-44.05 237.8 Q-21.35 227.3 -5.1 209.05 0.65 211.15 4.55 215.85 5.9 217.55 6.2 219.65 L6.4 220.65 5.9 221.2 Q-1.6 217.5 -9.4 220.25 -0.3 231.7 1.55 246.2 -4.45 243.65 -11.1 243.05 L-9.55 256.75 -52.7 255.95 M-83.5 244.45 L-83.65 244.55 -83.7 244.45 -83.5 244.45 M-89.05 255.65 L-96.5 255.55 -104.6 255.45 -94.0 251.0 Q-92.0 254.0 -89.05 255.65" fill="#996633" fill-rule="evenodd" stroke="none"/>
    <path d="M119.8 -108.4 L119.8 -20.35 Q115.6 -15.55 109.3 -15.55 L96.05 -14.7 Q98.05 -35.0 94.45 -54.95 L94.8 -56.0 Q99.75 -75.65 94.45 -95.3 105.55 -89.75 114.85 -96.45 115.55 -96.95 116.0 -97.8 118.5 -102.85 119.8 -108.4 M-115.25 255.25 L-115.25 251.65 -96.7 244.8 -95.75 247.65 Q-103.65 251.75 -112.15 254.7 L-115.25 255.25 M-115.25 28.85 L-115.25 21.75 -114.15 22.0 Q-113.6 25.2 -113.5 29.5 L-115.25 28.85 M-115.25 -30.15 L-115.25 -31.0 -113.65 -31.5 -115.25 -30.15 M-115.25 -42.2 L-115.25 -118.9 Q-110.2 -109.1 -109.15 -98.0 -106.7 -72.85 -112.45 -48.35 -113.25 -45.05 -115.25 -42.2 M43.05 -117.8 Q50.35 -114.75 57.0 -110.1 67.2 -103.0 74.3 -92.75 89.9 -70.35 92.05 -43.45 94.0 -18.8 89.25 5.35 82.4 40.05 68.5 72.6 58.45 60.2 43.35 54.7 19.9 46.15 -4.65 43.6 -28.4 40.9 -52.2 42.15 L-55.15 42.45 Q-81.2 45.05 -104.15 57.65 L-104.95 53.1 Q-88.75 44.25 -70.7 40.8 L-56.85 39.0 -55.95 37.45 Q-53.75 34.4 -50.55 32.0 -45.15 27.8 -44.2 21.15 L-45.0 19.65 -46.05 19.6 Q-50.65 18.85 -51.6 14.25 -44.0 21.35 -37.05 14.2 -36.3 13.35 -36.25 12.2 -39.75 17.15 -45.7 15.55 -48.25 15.0 -49.85 12.95 -38.95 15.8 -37.9 4.4 -37.0 -5.4 -46.35 -5.5 L-45.75 -6.05 Q-35.65 -8.05 -34.2 1.95 -33.9 3.95 -34.0 6.05 -32.95 4.3 -33.15 2.5 L-33.35 -0.05 Q-31.25 11.5 -40.7 18.7 L-41.9 19.35 Q-41.75 25.75 -47.0 30.35 -50.85 33.7 -50.6 38.45 -27.3 37.4 -4.0 37.85 -0.85 37.9 2.0 36.4 9.65 32.45 16.9 27.85 14.2 27.7 12.0 26.35 10.85 25.55 10.0 24.1 L9.45 23.15 Q11.15 24.4 13.15 25.05 21.65 27.4 23.8 19.9 22.95 21.25 21.5 22.15 15.5 26.0 10.45 21.05 12.5 21.95 14.6 21.5 20.5 19.95 21.85 13.95 24.2 3.55 14.2 2.4 L14.8 1.8 16.25 1.65 Q28.35 1.6 26.3 13.9 L27.1 12.65 Q27.6 19.35 24.3 24.7 L23.55 25.35 Q23.05 32.2 23.95 38.8 L24.4 42.15 Q31.25 46.1 39.35 47.9 L39.6 47.5 40.45 48.0 Q68.1 -24.75 50.5 -100.85 49.25 -106.25 46.65 -111.15 L43.05 -117.8 M33.85 -46.45 L33.85 -47.25 Q31.95 -45.35 29.65 -44.1 24.4 -41.25 20.3 -45.35 L24.15 -45.2 Q30.35 -47.0 31.45 -53.05 33.35 -63.75 23.0 -64.45 L24.45 -64.95 Q36.5 -66.2 35.75 -53.7 L36.45 -54.95 36.4 -54.25 Q35.95 -50.05 33.85 -46.45 M40.0 -46.65 Q40.45 -42.9 37.65 -40.45 L39.4 -40.1 39.6 -41.05 40.4 -41.05 39.6 -35.65 38.1 -35.65 37.8 -36.0 39.35 -39.9 Q36.3 -37.1 32.45 -35.85 L31.15 -36.65 Q34.55 -42.5 39.6 -47.15 L40.0 -46.65 M6.0 13.35 L5.55 13.4 Q7.5 0.15 4.85 -12.75 L4.5 -13.0 Q3.15 -19.85 -3.6 -22.3 -11.4 -24.9 -19.0 -28.1 L-23.85 -33.65 -23.9 -33.85 -24.0 -34.1 -24.05 -34.15 -24.25 -34.15 -24.45 -34.35 -24.55 -34.15 Q-25.7 -27.8 -28.5 -21.95 L-30.0 -18.8 -30.25 -18.3 -36.55 -11.8 -36.95 -9.85 -36.2 -8.9 Q-34.9 -7.0 -35.1 -4.85 L-35.8 -5.5 Q-40.4 -9.65 -46.35 -8.0 -44.1 -10.3 -41.0 -10.75 L-38.95 -10.85 Q-31.2 -18.65 -27.6 -29.05 -26.45 -32.35 -26.85 -36.05 L-26.5 -36.65 Q-30.2 -41.15 -32.3 -47.0 L-37.2 -47.15 -39.25 -49.35 -39.25 -49.4 -37.95 -49.05 Q-31.05 -47.8 -27.9 -53.65 -28.05 -51.0 -29.75 -49.0 L-30.5 -48.2 Q-25.55 -37.6 -17.05 -29.9 -15.35 -28.35 -13.15 -27.25 -5.45 -23.15 3.1 -22.95 7.45 -12.65 10.15 -1.25 14.3 -2.8 18.5 -1.4 L18.65 -0.75 Q13.55 -0.85 10.15 2.6 5.7 7.0 6.0 13.35 M41.2 -35.0 L38.8 -34.0 40.8 -36.55 41.2 -35.0 M92.2 -96.05 Q97.35 -79.5 94.2 -62.4 L93.45 -58.75 Q85.15 -77.35 85.95 -97.75 L92.2 -96.05 M74.15 -45.4 L74.65 -46.05 76.9 -46.3 Q86.8 -46.1 85.4 -35.3 88.2 -43.9 80.55 -47.75 78.1 -49.0 75.9 -47.8 62.3 -40.45 69.9 -26.2 70.5 -25.1 71.65 -24.5 80.25 -20.2 83.5 -29.05 82.5 -26.9 80.35 -25.7 75.05 -23.0 71.35 -27.2 79.25 -25.9 81.05 -34.75 83.2 -45.0 74.15 -45.4 M64.2 19.45 L67.15 19.0 Q77.3 19.95 74.65 30.6 77.95 22.6 71.05 17.75 68.4 15.95 65.4 17.4 53.4 23.15 57.85 36.15 58.45 37.95 59.8 39.1 67.9 45.9 72.25 36.7 L70.5 38.35 Q64.85 42.8 60.05 37.4 67.8 39.4 70.35 31.0 73.1 21.8 65.25 19.4 L64.2 19.45 M32.55 22.3 Q31.65 26.85 27.55 29.05 29.45 24.6 32.35 20.85 L32.55 22.3 M26.4 12.7 L26.45 12.65 26.4 12.65 26.4 12.7 M21.5 28.9 L20.95 28.45 Q10.75 32.35 1.6 38.45 L1.5 39.7 18.95 42.25 21.6 40.9 22.9 34.1 21.7 29.05 21.5 28.9 M32.9 30.6 L30.55 31.8 30.55 31.45 Q30.4 28.7 33.05 27.7 L32.9 30.6 M26.5 73.7 Q18.8 71.35 10.8 70.0 -13.55 65.95 -38.3 66.9 -68.5 67.65 -96.8 78.1 L-98.0 75.0 Q-81.45 69.05 -63.9 66.0 L-52.35 63.6 Q-51.55 60.85 -51.8 58.1 L-52.05 53.9 Q-52.25 49.0 -54.5 45.0 L-49.45 44.5 -50.8 45.9 -50.75 47.2 -51.45 47.8 Q-49.9 54.85 -50.8 62.2 L-49.75 63.6 Q-9.7 59.15 29.15 69.75 L35.65 58.55 44.5 59.4 Q57.25 64.25 65.2 75.1 L66.5 77.15 59.25 91.8 58.45 92.4 58.0 92.55 Q49.15 82.05 36.1 77.2 31.4 75.4 26.8 73.85 L26.9 73.7 26.5 73.7 M-4.45 45.5 L-3.45 45.6 Q-2.5 47.7 -3.1 49.75 L-4.45 45.5 M18.65 49.65 L20.65 50.25 Q19.05 54.6 16.45 58.45 L18.65 49.65 M-88.05 96.65 Q-78.25 91.95 -67.4 90.3 -46.8 87.25 -26.0 88.3 L11.95 91.4 Q18.3 85.55 23.45 78.55 L31.95 78.2 Q38.55 81.05 44.6 84.85 51.7 89.4 56.5 96.3 L55.1 98.7 Q50.1 107.05 43.6 114.05 40.3 109.85 35.85 106.75 22.3 97.35 5.75 95.35 -15.85 92.55 -37.75 92.2 -62.35 91.8 -85.6 99.7 L-88.05 96.65 M12.45 98.8 L16.7 99.85 Q31.4 104.05 41.35 115.6 L41.35 116.5 Q26.3 132.35 6.4 141.6 0.15 144.5 -6.1 147.7 -15.1 152.15 -24.4 149.05 -37.45 144.8 -49.35 137.95 -71.9 125.1 -85.1 102.4 L-81.8 100.85 Q-63.2 116.95 -39.1 116.35 -28.15 116.05 -18.1 111.6 -7.45 106.7 1.8 99.7 L3.0 99.7 5.4 99.8 7.75 99.65 12.45 98.8 M22.15 138.3 L26.05 135.5 35.1 128.4 41.25 134.05 Q37.4 145.75 29.9 155.6 L27.0 159.55 Q14.9 176.85 -2.35 189.2 L-21.5 161.85 -14.65 155.6 Q5.35 150.15 22.15 138.3 M-52.6 -119.25 L-50.1 -111.75 -49.65 -111.65 -49.65 -111.15 -47.3 -107.55 -44.0 -103.25 -37.05 -94.75 -37.05 -89.7 -37.25 -90.4 Q-37.55 -85.15 -34.95 -81.0 L-34.7 -78.6 -33.9 -78.35 Q-31.5 -77.05 -31.25 -74.3 -37.0 -76.65 -42.0 -72.95 L-42.4 -72.55 Q-40.9 -75.85 -37.95 -77.85 L-37.65 -84.5 -38.0 -84.75 -38.0 -85.25 Q-38.2 -89.05 -38.9 -92.7 -39.7 -96.85 -44.05 -98.7 L-47.1 -102.3 Q-48.55 -104.3 -49.65 -106.65 L-48.7 -105.5 Q-49.65 -109.55 -52.6 -112.35 -55.6 -111.65 -57.1 -114.45 L-57.65 -114.55 -58.2 -114.3 -59.25 -115.2 -58.4 -115.8 Q-56.2 -114.75 -53.95 -115.35 L-52.6 -119.25 M-25.45 -62.75 L-25.5 -62.0 Q-25.8 -57.75 -27.85 -54.3 L-28.0 -55.3 Q-33.65 -47.6 -41.35 -53.2 -31.05 -52.55 -30.35 -63.5 -29.95 -70.2 -36.25 -71.75 L-39.25 -72.0 -38.9 -72.5 Q-25.75 -75.25 -26.1 -61.5 L-25.45 -62.75 M-21.15 -56.2 Q-20.1 -52.5 -23.0 -49.9 L-23.75 -49.25 -24.85 -49.75 Q-22.8 -53.0 -22.55 -56.85 L-21.95 -56.85 -21.15 -56.2 M-36.95 21.05 Q-32.45 17.75 -30.35 12.55 L-29.8 11.15 Q-30.1 16.4 -31.1 21.35 L-31.35 21.75 -32.05 21.4 -32.3 20.65 -36.65 22.45 -36.95 21.05 M-52.7 187.0 L-54.05 185.3 -33.65 171.35 Q-24.65 185.35 -14.3 198.9 L-21.6 204.15 Q-27.15 189.8 -34.55 176.35 L-37.5 177.8 Q-45.45 181.85 -52.7 187.0 M-39.1 207.55 L-40.8 204.75 Q-33.9 201.1 -29.25 194.75 L-28.35 193.4 Q-28.7 197.75 -31.9 201.8 -34.75 205.4 -39.1 207.55 M-37.65 170.95 L-41.5 164.85 Q-34.65 160.85 -27.4 158.45 L-0.35 197.45 -12.95 208.9 -21.6 217.0 Q-29.95 224.75 -40.25 229.35 L-41.45 228.0 Q-29.95 220.6 -19.4 210.3 L-20.7 206.55 -11.05 198.45 -12.7 196.05 Q-22.35 181.55 -33.15 167.75 L-37.65 170.95 M-30.25 190.55 Q-33.75 201.1 -45.45 201.8 L-46.95 201.85 -43.95 200.4 Q-37.45 196.85 -30.25 190.55 M-66.5 221.15 Q-66.65 220.7 -66.9 220.4 -70.25 217.25 -73.4 221.0 -73.45 219.7 -72.75 218.45 -71.35 216.0 -68.7 216.9 -65.7 218.0 -66.5 221.15 M-78.45 239.3 L-79.65 240.3 Q-81.85 241.8 -84.35 242.45 L-83.9 241.5 Q-82.0 238.6 -78.45 239.3 M-93.3 245.6 Q-82.15 257.6 -67.65 249.3 -65.9 248.3 -65.0 246.5 -58.55 233.9 -50.8 221.65 L-49.4 224.25 Q-57.05 235.6 -61.9 248.7 -62.55 250.4 -64.3 251.45 -78.7 259.8 -90.7 249.4 -92.5 247.8 -93.3 245.6" fill="#6b6b47" fill-rule="evenodd" stroke="none"/>
    <path d="M-115.25 112.4 L-115.25 111.6 -113.1 111.9 -115.25 112.4 M47.5 116.35 L49.4 114.15 54.95 116.55 Q47.65 121.05 42.5 127.85 L39.8 124.25 43.55 120.6 43.8 117.25 Q44.65 116.75 45.55 116.5 L47.5 116.35 M-52.7 255.95 L-66.85 255.85 Q-58.6 253.45 -56.3 244.95 -54.85 239.45 -52.6 234.15 -50.7 229.7 -47.2 226.55 L-41.35 233.2 Q-25.0 224.95 -11.65 212.1 L-5.7 206.55 3.5 198.4 -0.55 192.4 Q21.1 175.1 36.5 152.25 L38.85 148.1 Q40.55 144.5 42.85 141.55 43.35 140.8 44.2 140.5 L50.7 140.3 Q44.5 146.3 41.55 153.9 41.3 154.65 41.75 155.1 45.15 158.55 49.45 161.1 53.2 163.4 56.05 166.7 47.9 172.35 41.85 179.7 40.5 181.3 39.95 183.2 45.6 187.25 49.5 193.2 L54.55 201.25 Q58.4 207.5 59.8 214.7 51.2 214.95 42.65 216.3 L39.95 216.6 Q45.85 227.6 49.45 239.5 L49.85 241.95 Q50.25 248.5 51.05 254.9 L-9.55 256.75 -11.1 243.05 Q-4.45 243.65 1.55 246.2 -0.3 231.7 -9.4 220.25 -1.6 217.5 5.9 221.2 L6.4 220.65 6.2 219.65 Q5.9 217.55 4.55 215.85 0.65 211.15 -5.1 209.05 -21.35 227.3 -44.05 237.8 L-48.3 231.65 Q-49.1 233.7 -49.4 235.8 -50.8 246.05 -52.7 255.95 M-108.4 62.95 Q-104.35 77.95 -97.95 91.85 L-97.6 92.55 -104.1 88.35 Q-106.7 77.7 -107.95 66.85 L-108.4 62.95 M-103.6 90.45 Q-100.6 92.65 -97.3 94.45 L-96.8 94.95 Q-88.3 109.95 -76.75 123.1 L-99.0 111.35 -98.2 109.5 -103.6 90.45 M-67.65 132.65 Q-45.4 149.4 -18.7 156.25 L-23.15 159.4 -25.0 156.85 -25.4 156.7 Q-34.65 157.4 -42.6 163.05 -49.0 153.25 -56.95 144.4 L-67.65 132.65 M-100.8 207.05 L-109.15 210.35 -103.65 194.7 Q-102.75 192.2 -101.35 189.95 -85.85 166.2 -89.3 137.8 L-87.15 137.3 Q-88.4 135.65 -89.9 134.35 -99.55 125.85 -112.9 129.2 L-112.8 128.75 Q-97.9 121.55 -86.6 133.1 -80.4 139.35 -79.0 148.15 -82.95 148.1 -86.1 150.65 -80.1 161.55 -80.9 174.4 -86.05 173.15 -90.1 177.0 L-91.6 178.4 Q-89.85 187.15 -90.55 196.1 L-97.3 195.3 -100.8 207.05 M-83.5 244.45 Q-80.0 243.5 -77.1 241.05 -76.35 242.25 -76.75 243.55 -77.9 246.95 -81.75 246.55 L-83.65 244.55 -83.5 244.45" fill="#53371c" fill-rule="evenodd" stroke="none"/>
    <path d="M-115.25 212.85 L-115.25 190.1 -109.5 194.65 Q-111.4 203.6 -115.0 211.9 L-115.0 211.95 -115.25 212.85 M-115.25 187.95 L-115.25 185.75 -112.2 186.2 Q-104.15 179.65 -101.8 168.35 -100.4 161.65 -99.65 154.85 -98.95 148.45 -100.0 142.1 -104.5 137.05 -111.0 137.9 -113.05 138.3 -115.0 139.2 L-113.6 132.25 Q-104.7 129.95 -96.3 133.35 -95.4 133.65 -94.5 134.1 -89.9 145.55 -93.7 158.05 L-96.2 167.05 Q-99.6 180.6 -108.1 191.95 L-115.25 187.95 M-115.25 124.4 L-115.25 115.3 -111.55 114.85 -115.1 124.4 -115.25 124.4 M44.0 130.4 L48.9 125.9 Q59.25 132.9 66.6 142.9 83.75 166.35 76.2 193.35 66.15 193.35 56.3 195.8 51.3 188.05 44.65 181.7 53.85 173.3 64.35 167.1 53.2 161.15 45.85 152.45 46.65 150.95 47.85 149.85 53.45 144.5 55.75 137.8 49.15 135.85 43.45 136.25 L45.4 134.85 44.0 130.4 M75.45 194.95 L76.0 194.75 Q75.8 197.5 76.85 199.75 78.15 202.7 78.85 205.95 L80.9 214.6 Q76.75 220.05 70.55 223.55 61.5 228.65 52.05 232.95 50.15 225.5 45.45 219.5 54.6 217.7 63.75 219.25 61.5 207.95 57.0 197.25 66.25 196.85 75.45 194.95" fill="#4d4d4d" fill-rule="evenodd" stroke="none"/>
    <path d="M-115.25 185.75 L-115.25 132.55 -113.6 132.25 -115.0 139.2 Q-113.05 138.3 -111.0 137.9 -104.5 137.05 -100.0 142.1 -98.95 148.45 -99.65 154.85 -100.4 161.65 -101.8 168.35 -104.15 179.65 -112.2 186.2 L-115.25 185.75 M-115.25 124.95 L-115.25 124.4 -115.1 124.4 -115.25 124.95" fill="#666666" fill-rule="evenodd" stroke="none"/>
    <path d="M86.35 258.9 L76.7 258.9 Q65.4 255.85 53.7 254.7 53.25 248.6 53.8 242.85 54.1 240.05 53.15 237.4 65.9 231.45 77.25 223.35 L78.5 226.45 Q84.45 242.15 86.35 258.9" fill="#1e1e1e" fill-rule="evenodd" stroke="none"/>
  </g>
</svg>
