<?xml version="1.0" encoding="UTF-8" standalone="no"?>
<svg xmlns:xlink="http://www.w3.org/1999/xlink" height="493.0px" width="240.55px" xmlns="http://www.w3.org/2000/svg">
  <g transform="matrix(1.0, 0.0, 0.0, 1.0, 115.25, 218.8)">
    <path d="M95.65 -113.65 L98.2 -117.25 98.6 -116.85 Q101.1 -114.25 102.0 -110.6 L97.75 -110.2 95.65 -113.65 M97.25 -118.1 L94.2 -114.9 Q92.25 -116.3 89.75 -116.45 86.65 -116.65 84.2 -114.9 L81.0 -118.2 81.25 -118.4 Q89.45 -123.75 97.25 -118.1 M82.15 -113.05 L81.95 -112.75 Q80.0 -109.9 80.15 -106.4 L75.9 -105.0 Q74.95 -111.55 79.25 -116.55 L82.15 -113.05" fill="#ffffff" fill-opacity="0.18039216" fill-rule="evenodd" stroke="none"/>
    <path d="M98.2 -117.25 L95.65 -113.65 92.95 -110.0 92.55 -109.45 92.0 -108.7 91.15 -107.45 92.25 -105.8 98.2 -106.7 99.25 -106.8 Q98.4 -103.85 97.65 -99.8 L98.9 -98.15 106.5 -89.25 97.2 -97.85 96.9 -96.25 Q92.85 -72.05 91.0 -47.6 L90.55 -42.35 72.4 -18.3 67.95 -23.65 Q67.55 -29.9 69.35 -35.75 72.0 -44.25 76.4 -52.25 L81.0 -57.95 Q76.0 -54.65 71.95 -50.3 L68.05 -45.9 Q69.35 -69.85 75.75 -92.05 L78.1 -99.55 79.3 -102.6 81.05 -103.1 85.05 -104.2 87.05 -107.15 86.35 -108.0 84.25 -110.55 65.1 -134.4 81.0 -118.2 84.2 -114.9 89.2 -109.6 94.2 -114.9 97.25 -118.1 104.15 -125.25 98.2 -117.25 M70.2 -99.4 Q66.5 -91.05 63.75 -82.45 61.75 -76.3 60.35 -70.25 L46.75 -59.95 44.5 -65.6 Q50.0 -82.7 53.15 -90.1 L54.65 -91.05 Q62.0 -95.8 70.2 -99.4 M59.7 -67.25 L58.35 -64.4 Q52.75 -51.15 56.65 -37.0 53.4 -39.85 51.2 -43.7 48.1 -49.3 46.3 -55.4 L59.7 -67.25 M39.7 -47.45 L38.25 -38.35 Q31.6 -35.65 36.0 -30.65 36.8 -29.8 38.35 -30.1 L39.25 -23.5 28.1 -12.65 28.0 -14.65 Q27.7 -26.55 30.8 -38.3 L39.7 -47.45 M24.2 -31.55 Q23.1 -29.0 22.65 -26.95 21.2 -21.7 20.95 -15.25 17.7 -20.75 13.85 -15.05 11.85 -12.05 14.75 -10.7 19.25 -8.5 20.85 -13.25 L21.05 -6.0 13.5 1.35 Q12.05 0.65 10.95 -0.15 10.0 -10.75 13.9 -20.6 L14.25 -21.4 24.2 -31.55 M35.7 -32.0 L35.05 -33.05 35.1 -33.8 Q35.4 -36.9 38.45 -36.8 L39.35 -35.75 39.05 -34.6 Q38.25 -31.95 35.7 -32.0 M13.95 -12.7 Q13.85 -16.1 17.3 -16.45 L17.85 -16.3 Q18.55 -14.75 17.8 -12.9 L17.6 -12.6 13.95 -12.7 M-100.65 -17.5 L-96.4 -43.65 -77.5 -145.9 Q-79.8 -130.1 -82.55 -114.2 -87.4 -86.1 -92.55 -58.35 -96.35 -37.9 -100.65 -17.5" fill="#ffffff" fill-rule="evenodd" stroke="none"/>
    <path d="M95.65 -113.65 L97.75 -110.2 92.55 -109.45 92.95 -110.0 95.65 -113.65 M94.2 -114.9 L89.2 -109.6 84.2 -114.9 Q86.65 -116.65 89.75 -116.45 92.25 -116.3 94.2 -114.9 M84.25 -110.55 L86.35 -108.0 80.15 -106.4 Q80.0 -109.9 81.95 -112.75 L82.15 -113.05 84.25 -110.55" fill="#ffffff" fill-opacity="0.36862746" fill-rule="evenodd" stroke="none"/>
    <path d="M86.35 -108.0 L87.05 -107.15 85.05 -104.2 81.05 -103.1 Q80.3 -104.65 80.15 -106.4 L86.35 -108.0 M98.2 -106.7 L92.25 -105.8 91.15 -107.45 92.0 -108.7 92.55 -109.45 97.75 -110.2 Q98.3 -108.6 98.2 -106.7" fill="#616161" fill-rule="evenodd" stroke="none"/>
    <path d="M97.75 -110.2 L102.0 -110.6 Q102.4 -108.85 102.35 -106.95 L99.25 -106.8 98.2 -106.7 Q98.3 -108.6 97.75 -110.2 M81.05 -103.1 L79.3 -102.6 76.8 -101.8 Q76.15 -103.35 75.9 -105.0 L80.15 -106.4 Q80.3 -104.65 81.05 -103.1" fill="#313131" fill-rule="evenodd" stroke="none"/>
    <path d="M79.3 -102.6 L78.1 -99.55 76.8 -101.8 79.3 -102.6 M96.9 -96.25 L97.2 -97.85 97.8 -97.05 96.9 -96.25 M98.9 -98.15 L97.65 -99.8 Q98.4 -103.85 99.25 -106.8 L102.35 -106.95 Q102.3 -101.9 99.0 -98.2 L98.9 -98.15" fill="#d5d5d5" fill-rule="evenodd" stroke="none"/>
    <path d="M68.05 -45.9 L71.95 -50.3 Q76.0 -54.65 81.0 -57.95 L76.4 -52.25 61.65 -34.65 62.9 -31.9 Q65.0 -27.55 67.95 -23.65 L72.4 -18.3 76.0 -15.55 Q91.25 -33.7 102.9 -54.4 114.4 -74.8 118.05 -97.85 118.7 -101.95 118.1 -106.3 L102.35 -106.95 Q102.4 -108.85 102.0 -110.6 L117.5 -110.1 122.6 -109.35 Q120.0 -83.2 108.75 -59.35 103.2 -47.55 95.3 -37.05 99.1 -20.55 97.25 -3.85 103.5 -2.55 108.55 1.55 111.9 4.3 112.7 8.55 113.45 12.5 113.05 16.65 122.3 29.45 124.0 45.75 125.5 60.2 125.3 74.65 125.15 83.15 122.55 91.05 123.65 114.45 116.5 137.25 112.5 150.05 107.65 162.5 102.6 175.5 96.45 187.9 95.2 190.5 94.9 193.55 91.05 234.95 77.25 274.2 L73.3 274.2 Q77.95 262.8 81.45 250.95 88.8 225.9 90.9 200.1 L94.0 163.5 Q96.45 135.75 92.0 108.6 L88.5 109.45 Q72.1 110.35 55.75 109.65 L54.6 109.0 54.35 109.45 53.9 109.75 Q46.45 115.5 48.85 124.7 50.85 147.05 52.1 169.45 53.4 192.85 53.05 216.3 52.7 239.25 51.65 262.3 L51.1 274.2 48.45 274.2 49.05 264.95 46.7 265.6 Q19.9 266.45 -6.85 263.2 L3.15 274.2 -0.55 274.2 -11.0 262.75 -25.6 261.4 Q-34.1 260.9 -42.35 261.0 -72.0 261.3 -101.9 261.2 -101.65 260.45 -101.65 259.5 L-101.35 253.85 Q-100.6 243.85 -98.7 234.0 L-101.45 237.2 Q-107.4 243.85 -115.25 247.85 L-115.25 242.25 Q-111.95 240.25 -108.95 237.8 -104.35 234.15 -100.75 229.55 L-106.95 219.75 -115.25 234.05 -115.25 232.5 Q-109.4 215.2 -102.75 198.2 L-104.55 199.25 Q-109.55 202.35 -115.25 203.15 L-115.25 202.35 -112.6 200.7 Q-108.7 198.2 -104.6 196.05 -96.9 191.95 -94.9 185.5 L-96.85 184.8 -97.4 184.15 Q-96.0 183.6 -94.85 182.7 -90.95 179.7 -90.75 175.0 L-95.75 169.55 Q-96.9 173.05 -99.15 175.5 -102.7 179.3 -107.45 182.05 L-108.6 180.7 Q-106.7 178.25 -103.95 176.85 -98.6 174.0 -97.6 167.9 L-105.05 159.2 -114.6 168.6 -115.25 168.2 -115.25 166.4 -107.65 156.4 -110.8 152.95 -111.45 153.45 -111.5 152.1 -115.25 148.0 -115.25 144.05 -111.2 148.15 -115.25 142.7 -115.25 132.5 Q-101.6 120.35 -89.4 106.7 L15.75 5.45 11.2 3.55 Q5.9 0.25 4.2 -5.95 L3.8 -7.4 3.1 -8.0 Q-29.1 24.9 -60.9 57.9 -82.45 80.35 -103.55 103.5 L-101.95 101.35 -115.25 116.55 -115.25 112.3 -98.45 93.3 -98.0 93.3 -97.4 92.55 -97.4 92.1 -95.55 89.55 -95.0 89.5 -95.5 89.5 -94.95 88.65 -115.25 90.2 -115.25 86.8 -99.95 85.45 -91.15 85.4 -47.85 39.25 Q-53.5 12.35 -46.2 -14.25 L-44.85 -19.05 -45.5 -19.3 Q-52.25 -20.95 -59.3 -20.4 -80.65 -17.65 -96.95 -3.3 -98.25 -2.15 -99.75 -1.3 -88.85 -19.05 -67.75 -23.1 -56.35 -25.6 -44.9 -22.85 -44.15 -24.35 -44.9 -25.95 -49.3 -35.45 -58.45 -40.7 -72.7 -48.05 -88.95 -48.15 L-86.85 -48.85 Q-78.2 -51.4 -69.6 -49.0 -56.35 -45.4 -46.75 -35.95 L-44.05 -33.2 Q-46.35 -49.55 -44.4 -65.8 -43.7 -75.7 -40.0 -85.05 L-37.8 -90.2 -41.05 -68.2 Q-44.35 -48.4 -39.2 -29.45 L-38.55 -27.55 Q-30.35 -46.95 -11.9 -57.0 -3.4 -61.0 6.35 -61.25 L13.15 -61.55 Q-4.9 -57.55 -19.95 -47.05 L-23.0 -44.75 Q-31.0 -37.3 -34.8 -26.95 L-35.85 -24.2 Q-29.2 -26.6 -21.95 -26.05 L-15.0 -25.65 Q-4.1 -24.6 5.5 -19.35 L7.05 -18.4 27.15 -39.2 Q21.3 -58.0 14.15 -76.5 10.05 -87.1 5.45 -97.4 -0.3 -110.3 -6.85 -122.95 -26.05 -125.75 -45.55 -124.0 -32.9 -127.95 -19.5 -127.35 L-9.65 -127.4 -9.15 -127.35 -12.55 -133.2 Q-28.2 -133.4 -43.45 -130.0 -35.9 -135.15 -27.0 -136.15 L-21.25 -136.55 -14.75 -137.35 -30.15 -161.8 -64.35 -122.15 -64.4 -122.1 -62.8 -122.1 -61.45 -122.05 -60.25 -121.6 -59.25 -120.95 Q-69.8 -115.6 -78.55 -107.25 L-80.95 -104.85 -83.95 -101.75 -115.25 71.2 -115.25 56.35 -87.35 -97.85 Q-102.05 -80.75 -108.9 -59.25 L-110.6 -59.4 -110.7 -59.55 -115.25 -53.9 -115.25 -60.45 -110.65 -64.4 Q-105.05 -86.6 -88.95 -103.55 L-85.65 -107.15 -67.8 -206.35 -67.45 -207.15 Q-73.7 -212.85 -68.4 -217.25 -67.3 -218.2 -65.65 -218.55 L-59.1 -218.75 -56.9 -218.5 Q-42.45 -215.0 -30.5 -205.35 L-16.65 -193.9 -7.6 -186.0 Q0.6 -191.65 8.0 -186.25 21.15 -176.55 29.55 -162.05 L32.75 -157.05 69.9 -102.6 75.9 -105.0 Q76.15 -103.35 76.8 -101.8 L70.2 -99.4 Q62.0 -95.8 54.65 -91.05 L53.15 -90.1 40.2 -81.85 Q40.45 -79.0 41.2 -76.1 42.55 -70.85 44.5 -65.6 L46.75 -59.95 60.35 -70.25 69.15 -75.85 Q66.35 -72.3 62.8 -69.55 L59.7 -67.25 46.3 -55.4 Q48.1 -49.3 51.2 -43.7 53.4 -39.85 56.65 -37.0 L59.2 -36.45 Q63.9 -40.85 68.05 -45.9 M92.0 -108.7 L92.55 -109.45 92.0 -108.7 M5.35 -182.9 L-2.15 -183.15 -4.25 -182.5 Q19.6 -157.15 38.55 -128.1 48.6 -112.65 56.75 -96.0 L65.6 -100.55 Q46.35 -130.9 26.3 -160.9 19.1 -171.7 9.15 -179.9 7.3 -181.5 5.35 -182.9 M36.6 -50.4 L36.85 -49.7 44.0 -57.3 39.05 -71.7 Q37.15 -77.45 36.75 -83.45 L53.2 -93.95 Q39.55 -122.1 20.75 -146.8 14.95 -154.35 8.8 -161.45 1.45 -169.95 -6.2 -178.0 L-20.75 -191.9 -21.3 -192.4 -29.25 -199.1 -40.5 -207.4 Q-46.75 -204.5 -51.55 -199.6 L-51.15 -199.25 -51.65 -198.7 -51.15 -197.25 -51.85 -198.0 Q-51.8 -195.3 -50.15 -193.15 -53.55 -195.25 -52.9 -199.1 L-53.5 -199.75 -52.75 -199.6 -52.65 -200.2 -53.4 -201.45 -52.55 -200.65 Q-49.75 -208.2 -41.85 -208.25 L-42.65 -208.8 Q-50.2 -208.7 -54.45 -202.5 L-53.8 -201.9 Q-55.1 -202.75 -55.15 -201.4 L-55.1 -201.35 -54.65 -199.55 -55.55 -198.6 -37.6 -176.35 Q-29.8 -166.35 -22.75 -156.0 L-15.5 -145.05 Q-3.6 -125.95 5.7 -105.5 16.05 -82.85 24.25 -59.35 27.3 -50.7 29.75 -42.25 L34.7 -47.45 34.55 -48.0 36.6 -50.4 M38.25 -38.35 Q41.75 -38.3 41.75 -34.6 41.8 -30.8 38.35 -30.1 36.8 -29.8 36.0 -30.65 31.6 -35.65 38.25 -38.35 M30.8 -38.3 L24.2 -31.55 14.25 -21.4 Q11.65 -18.55 8.65 -16.0 5.0 -12.75 6.0 -8.0 7.05 -3.0 10.95 -0.15 12.05 0.65 13.5 1.35 L19.1 2.85 Q29.2 -3.25 37.35 -11.6 37.9 -15.0 40.55 -16.9 43.05 -18.7 46.0 -18.85 L45.05 -18.95 59.05 -31.95 58.25 -33.45 Q51.85 -35.7 48.25 -42.05 45.5 -46.95 44.25 -52.45 L39.7 -47.45 30.8 -38.3 M20.95 -15.25 L20.85 -13.25 Q19.25 -8.5 14.75 -10.7 11.85 -12.05 13.85 -15.05 17.7 -20.75 20.95 -15.25 M35.7 -32.0 Q38.55 -31.25 40.4 -33.35 L40.45 -34.4 Q40.25 -36.35 38.45 -36.8 35.4 -36.9 35.1 -33.8 L35.05 -33.05 35.7 -32.0 M17.85 -16.3 L17.3 -16.45 Q13.85 -16.1 13.95 -12.7 L14.9 -11.45 15.8 -11.65 Q21.2 -12.5 17.85 -16.3 M-42.1 -13.95 Q-49.5 10.9 -45.3 36.6 L2.7 -11.9 2.5 -13.3 5.45 -16.45 4.4 -16.9 Q-9.25 -22.75 -24.15 -21.75 -36.4 -21.05 -40.35 -18.8 L-42.1 -13.95 M16.5 59.9 Q14.4 43.15 22.15 29.1 23.5 26.6 26.1 25.75 L27.9 25.35 Q27.2 16.3 31.5 7.45 33.3 3.7 34.35 -0.35 L35.7 -5.85 Q29.55 -0.65 22.75 3.9 L20.3 5.25 -38.1 62.0 -28.75 82.45 Q-34.9 73.35 -39.6 63.5 L-79.45 101.8 -79.35 105.3 Q-79.3 110.35 -78.6 115.35 -77.05 126.4 -84.8 132.7 L-79.2 137.0 Q-39.9 164.9 8.0 157.55 L10.15 147.9 Q12.95 133.35 25.7 128.15 25.9 125.7 26.4 123.35 28.65 112.65 31.5 102.15 L30.9 95.05 Q30.45 92.25 31.55 89.95 L32.0 89.3 29.6 83.05 28.3 78.75 25.85 78.0 Q15.35 72.85 16.5 59.9 M52.75 -14.3 Q57.85 -11.4 59.45 -5.75 62.5 5.25 53.8 10.9 L54.15 9.75 55.15 6.6 Q57.1 0.15 56.85 -6.45 L51.8 -13.15 53.3 -12.7 Q49.1 -16.6 44.5 -14.05 42.7 -13.05 41.8 -11.05 38.7 -3.9 36.15 3.55 34.5 8.5 32.15 13.15 27.8 21.65 33.55 28.35 L33.95 30.6 36.95 27.4 Q40.8 23.5 45.45 20.45 L52.15 17.05 50.05 16.5 49.65 14.35 52.9 14.5 Q55.45 14.5 56.85 15.45 66.2 13.35 75.7 14.3 L78.85 14.55 Q79.55 12.75 80.5 11.05 81.5 9.45 83.25 8.7 83.6 9.2 83.6 9.65 83.5 12.25 82.45 14.55 L82.9 14.55 83.8 16.4 81.35 16.8 81.05 17.45 Q66.95 15.75 53.45 20.5 40.5 23.3 34.15 34.75 31.7 39.05 30.65 43.7 28.75 52.15 33.05 60.55 37.45 55.7 40.2 50.0 44.0 42.2 52.25 39.3 60.8 37.8 69.2 39.85 74.15 40.95 79.3 41.25 L84.0 37.75 84.25 38.6 Q84.4 39.65 83.75 40.45 82.8 41.6 81.4 42.35 L80.6 42.75 83.75 43.6 Q80.5 44.75 76.85 44.05 73.95 43.35 70.95 43.35 L53.0 43.1 48.7 43.9 48.8 43.15 48.2 43.3 Q44.45 47.55 42.1 52.8 39.35 59.05 34.55 63.6 L34.55 63.15 33.8 63.6 32.0 75.05 32.5 74.95 Q32.25 78.2 32.8 81.45 L33.95 87.9 Q39.05 75.9 49.1 67.5 L53.35 67.2 Q68.85 67.5 83.45 72.3 81.45 73.25 79.2 73.1 66.65 71.15 54.0 70.25 L50.05 70.55 48.55 72.3 48.1 72.35 Q43.85 75.85 41.9 81.05 40.65 84.4 38.3 87.6 35.8 91.0 33.95 94.8 L35.45 111.4 36.15 115.7 Q40.25 115.55 43.95 117.45 L44.0 117.45 44.4 116.65 44.3 115.45 Q46.45 112.55 49.45 110.35 L51.85 108.45 48.9 106.35 48.9 105.05 Q54.55 105.95 59.95 104.8 L60.65 104.75 59.9 105.45 95.4 106.35 94.1 107.5 Q96.85 108.9 97.25 112.05 97.9 117.4 97.3 122.7 101.75 121.65 105.85 119.8 103.25 125.7 96.95 126.1 97.2 152.4 95.8 178.65 99.4 172.8 102.2 166.35 110.5 147.25 115.6 127.3 119.35 112.5 120.45 97.3 118.55 104.4 114.6 110.65 117.0 104.45 118.15 97.9 119.95 87.5 122.1 77.2 L122.3 75.35 Q122.9 49.0 114.85 24.25 L112.8 18.9 112.75 19.55 Q112.7 20.7 111.5 21.15 110.15 15.65 109.3 9.95 108.9 7.1 106.45 5.45 100.65 1.55 94.35 -1.75 L91.8 -2.8 Q82.35 -6.1 73.4 -10.45 65.45 -14.4 56.6 -15.45 L53.35 -15.7 51.0 -15.6 49.1 -15.35 Q51.05 -15.15 52.75 -14.3 M68.2 -18.45 Q63.8 -23.55 60.15 -29.1 L48.35 -18.6 Q59.9 -20.2 70.75 -15.6 L68.2 -18.45 M86.45 -10.55 Q86.45 -9.45 87.2 -8.65 87.95 -7.9 89.0 -7.9 L94.85 -5.1 94.8 -6.6 Q94.45 -15.35 93.55 -23.25 L92.9 -33.55 84.6 -22.15 86.45 -10.55 M82.45 -10.9 L81.3 -18.0 77.25 -13.15 82.45 -10.9 M30.05 61.95 L25.8 48.1 25.75 47.45 Q27.0 39.9 31.75 33.6 L30.25 31.8 30.45 31.35 29.25 28.25 27.5 29.05 Q21.25 31.65 20.85 38.4 L20.85 38.6 19.55 54.9 Q19.0 62.3 21.2 69.6 22.45 72.15 24.45 73.6 L26.6 74.6 28.2 74.95 Q30.4 69.25 30.15 63.05 L30.05 61.95 M48.1 152.35 L46.3 122.5 44.05 122.45 Q32.15 121.4 32.65 109.5 24.2 131.5 36.8 151.4 L43.35 161.7 49.2 166.25 48.1 152.35 M7.8 162.1 Q-12.5 165.0 -32.95 162.5 L-32.25 163.0 -34.15 164.6 Q-35.1 165.35 -35.4 166.6 -35.65 167.5 -35.3 168.65 L-32.45 169.1 Q-12.25 171.8 7.6 168.55 L7.8 162.1 M27.35 206.35 Q30.7 209.95 34.85 212.85 39.7 216.35 45.2 218.85 L44.8 220.15 49.45 220.25 Q49.95 217.9 50.05 215.6 50.85 193.55 49.6 171.55 L45.7 168.6 Q41.7 165.1 38.4 161.05 27.65 147.8 25.95 130.8 12.5 141.65 12.05 159.1 11.35 185.5 27.35 206.35 M18.4 262.9 L48.35 263.35 48.85 263.7 Q50.15 249.6 49.55 235.4 28.05 234.8 16.4 216.4 29.2 231.7 49.55 231.4 L49.4 223.7 Q36.0 221.65 27.4 211.35 12.0 192.95 7.6 168.95 -12.1 177.0 -33.6 172.1 L-34.45 177.6 Q-35.1 181.25 -36.15 184.75 -31.25 181.65 -26.3 178.9 -21.35 176.35 -16.15 177.25 -17.0 177.85 -17.9 178.25 -27.8 182.5 -37.0 188.2 -34.0 193.7 -29.3 197.9 -25.7 201.1 -21.35 203.15 L-21.5 203.6 -21.6 203.85 -21.8 204.0 -22.0 204.25 -22.35 204.35 -23.2 204.7 Q-31.45 199.95 -38.1 193.05 L-38.9 196.5 Q-42.0 210.95 -42.3 224.3 L-8.8 261.1 -8.35 261.2 18.4 262.9 M-65.4 -204.7 L-82.4 -110.45 -72.0 -119.45 Q-67.9 -122.9 -64.95 -127.45 -53.95 -142.9 -41.05 -157.2 L-38.6 -160.2 -34.0 -166.35 Q-45.8 -184.75 -61.05 -200.3 L-65.4 -204.7 M-67.85 -214.75 L-69.35 -214.7 -67.25 -212.7 -57.3 -200.8 -56.75 -201.8 -58.25 -204.4 -57.55 -204.5 -58.75 -206.3 -57.6 -205.4 Q-57.55 -210.55 -52.6 -212.95 -51.95 -213.3 -51.25 -213.6 -58.05 -217.3 -65.5 -216.35 -67.05 -216.05 -67.85 -214.75 M-48.3 -212.1 Q-50.7 -211.3 -52.75 -210.15 -56.5 -208.25 -56.3 -204.2 L-55.65 -203.6 Q-51.8 -209.05 -45.35 -210.4 L-48.3 -212.1 M-56.4 -204.05 L-56.65 -203.9 -56.75 -203.5 -56.65 -203.0 -56.4 -202.85 -56.0 -203.25 Q-56.05 -203.9 -56.4 -204.05 M-100.65 -17.5 Q-96.35 -37.9 -92.55 -58.35 -87.4 -86.1 -82.55 -114.2 -79.8 -130.1 -77.5 -145.9 L-96.4 -43.65 -100.65 -17.5 M-115.25 98.3 L-115.25 96.85 -107.05 96.65 -115.25 98.3 M-115.25 119.65 L-90.55 93.1 -90.15 93.3 Q-87.65 95.1 -86.75 98.05 L-86.15 99.05 Q-99.95 114.45 -115.25 128.5 L-115.25 125.65 Q-112.8 123.5 -110.65 121.05 -100.7 109.85 -89.1 100.55 L-88.65 99.05 -91.1 95.65 -98.2 103.35 -95.95 104.55 -95.8 105.5 Q-96.5 106.0 -97.4 104.95 -98.0 104.25 -98.75 103.9 L-100.25 105.35 -99.15 105.6 -99.15 106.9 -100.75 105.8 -112.35 118.4 Q-111.35 119.25 -111.15 120.2 L-111.2 120.45 Q-112.3 120.55 -113.0 119.75 L-113.25 119.4 -115.25 121.65 -115.25 119.65 M-90.1 119.2 L-88.7 131.2 -82.1 127.45 -82.45 119.9 Q-82.8 112.3 -82.6 104.75 L-114.8 136.05 Q-110.5 141.05 -108.85 147.35 L-108.8 146.8 -102.65 141.95 -102.25 133.1 -101.55 133.1 -100.55 139.5 -100.25 140.2 -97.15 137.85 -97.15 135.5 -96.3 135.5 -96.0 137.0 -91.7 133.2 -91.65 132.1 Q-90.7 126.3 -91.25 120.3 L-90.1 119.2 M-93.55 145.25 L-96.45 149.1 Q-87.85 157.1 -86.05 168.5 L-86.5 168.95 Q-85.8 172.0 -87.1 175.0 L-85.45 176.8 -78.55 157.35 -84.7 149.55 -76.65 153.45 -73.35 147.65 -88.95 135.5 -95.75 140.9 Q-94.3 142.05 -93.9 143.7 L-93.55 145.25 M-100.0 144.3 L-108.65 151.35 -105.9 154.35 -98.45 146.05 -99.55 144.0 -100.0 144.3 M-95.6 160.6 Q-95.65 160.0 -95.85 159.45 -97.1 156.05 -100.0 153.35 L-103.25 157.15 -96.7 164.4 -95.1 159.8 -95.6 160.6 M-94.6 166.8 L-89.65 171.9 -89.95 170.1 Q-90.9 166.1 -93.2 162.65 L-94.6 166.8 M-86.4 179.8 L-88.1 177.95 -92.9 191.1 -96.55 194.1 -91.45 198.1 -86.4 179.8 M-45.15 191.25 L-41.85 188.7 Q-47.3 183.05 -49.9 175.75 L-50.7 173.1 -40.0 186.55 -35.35 171.8 Q-48.8 169.85 -60.7 163.25 -63.6 161.6 -66.05 159.8 L-65.65 158.5 Q-52.1 164.65 -37.75 168.25 L-37.6 166.65 -37.05 165.1 -35.75 162.95 -35.1 162.25 Q-52.2 160.4 -67.05 151.6 L-69.85 149.9 Q-77.15 164.4 -82.85 179.75 L-52.9 212.65 -44.95 221.4 -44.75 215.25 Q-44.6 204.45 -41.85 194.0 L-40.8 191.1 -43.15 193.0 -46.8 196.05 -53.65 201.6 Q-54.15 199.25 -51.35 196.55 L-46.1 191.9 -45.15 191.25 M-72.2 257.75 L-42.35 258.7 -42.75 254.6 Q-44.65 240.0 -44.95 225.25 L-54.25 215.15 -83.75 182.6 Q-89.25 199.9 -92.45 217.95 -96.05 238.4 -98.1 259.1 L-72.2 257.75 M-39.75 258.85 L-12.7 260.8 -42.35 228.15 -39.8 257.5 -39.75 258.85 M-105.5 215.75 L-98.15 227.3 -92.2 201.25 Q-95.65 198.75 -98.45 195.45 L-105.5 215.75" fill="#000000" fill-rule="evenodd" stroke="none"/>
    <path d="M78.1 -99.55 L75.75 -92.05 Q69.35 -69.85 68.05 -45.9 63.9 -40.85 59.2 -36.45 L56.65 -37.0 Q52.75 -51.15 58.35 -64.4 L59.7 -67.25 62.8 -69.55 Q66.35 -72.3 69.15 -75.85 L60.35 -70.25 Q61.75 -76.3 63.75 -82.45 66.5 -91.05 70.2 -99.4 L76.8 -101.8 78.1 -99.55 M76.4 -52.25 Q72.0 -44.25 69.35 -35.75 67.55 -29.9 67.95 -23.65 65.0 -27.55 62.9 -31.9 L61.65 -34.65 76.4 -52.25 M72.4 -18.3 L90.55 -42.35 91.0 -47.6 Q92.85 -72.05 96.9 -96.25 L97.8 -97.05 97.2 -97.85 106.5 -89.25 98.9 -98.15 99.0 -98.2 Q102.3 -101.9 102.35 -106.95 L118.1 -106.3 Q118.7 -101.95 118.05 -97.85 114.4 -74.8 102.9 -54.4 91.25 -33.7 76.0 -15.55 L72.4 -18.3 M44.5 -65.6 Q42.55 -70.85 41.2 -76.1 40.45 -79.0 40.2 -81.85 L53.15 -90.1 Q50.0 -82.7 44.5 -65.6 M38.25 -38.35 L39.7 -47.45 44.25 -52.45 Q45.5 -46.95 48.25 -42.05 51.85 -35.7 58.25 -33.45 L59.05 -31.95 45.05 -18.95 46.0 -18.85 Q43.05 -18.7 40.55 -16.9 37.9 -15.0 37.35 -11.6 29.2 -3.25 19.1 2.85 L13.5 1.35 21.05 -6.0 20.85 -13.25 20.95 -15.25 Q21.2 -21.7 22.65 -26.95 23.1 -29.0 24.2 -31.55 L30.8 -38.3 Q27.7 -26.55 28.0 -14.65 L28.1 -12.65 39.25 -23.5 38.35 -30.1 Q41.8 -30.8 41.75 -34.6 41.75 -38.3 38.25 -38.35 M38.45 -36.8 Q40.25 -36.35 40.45 -34.4 L40.4 -33.35 Q38.55 -31.25 35.7 -32.0 38.25 -31.95 39.05 -34.6 L39.35 -35.75 38.45 -36.8 M13.95 -12.7 L17.6 -12.6 17.8 -12.9 Q18.55 -14.75 17.85 -16.3 21.2 -12.5 15.8 -11.65 L14.9 -11.45 13.95 -12.7 M14.25 -21.4 L13.9 -20.6 Q10.0 -10.75 10.95 -0.15 7.05 -3.0 6.0 -8.0 5.0 -12.75 8.65 -16.0 11.65 -18.55 14.25 -21.4" fill="#cbcbcb" fill-rule="evenodd" stroke="none"/>
    <path d="M5.35 -182.9 Q7.3 -181.5 9.15 -179.9 19.1 -171.7 26.3 -160.9 46.35 -130.9 65.6 -100.55 L56.75 -96.0 Q48.6 -112.65 38.55 -128.1 19.6 -157.15 -4.25 -182.5 L-2.15 -183.15 5.35 -182.9 M-115.25 -53.9 L-110.7 -59.55 -110.6 -59.4 -108.9 -59.25 Q-102.05 -80.75 -87.35 -97.85 L-115.25 56.35 -115.25 -53.9 M-115.25 71.2 L-83.95 -101.75 -80.95 -104.85 -78.55 -107.25 Q-69.8 -115.6 -59.25 -120.95 L-60.25 -121.6 -61.45 -122.05 -62.8 -122.1 -64.4 -122.1 -64.35 -122.15 -30.15 -161.8 -14.75 -137.35 -21.25 -136.55 -27.0 -136.15 Q-35.9 -135.15 -43.45 -130.0 -28.2 -133.4 -12.55 -133.2 L-9.15 -127.35 -9.65 -127.4 -19.5 -127.35 Q-32.9 -127.95 -45.55 -124.0 -26.05 -125.75 -6.85 -122.95 -0.3 -110.3 5.45 -97.4 10.05 -87.1 14.15 -76.5 21.3 -58.0 27.15 -39.2 L7.05 -18.4 5.5 -19.35 Q-4.1 -24.6 -15.0 -25.65 L-15.2 -26.3 Q-19.35 -29.5 -23.05 -33.1 -24.55 -34.5 -24.65 -36.0 -24.9 -40.5 -23.0 -44.75 L-19.95 -47.05 Q-4.9 -57.55 13.15 -61.55 L6.35 -61.25 Q-3.4 -61.0 -11.9 -57.0 -18.35 -54.15 -25.5 -54.65 -38.8 -55.85 -41.05 -68.2 L-37.8 -90.2 -40.0 -85.05 Q-43.7 -75.7 -44.4 -65.8 -45.05 -63.45 -46.3 -61.45 -54.05 -49.2 -69.6 -49.75 L-69.6 -49.0 Q-78.2 -51.4 -86.85 -48.85 L-88.95 -48.15 Q-72.7 -48.05 -58.45 -40.7 L-57.65 -39.6 -59.8 -29.85 Q-63.4 -26.0 -67.75 -23.1 -88.85 -19.05 -99.75 -1.3 -98.25 -2.15 -96.95 -3.3 -80.65 -17.65 -59.3 -20.4 -57.45 -19.75 -55.45 -19.45 -49.65 -19.2 -46.2 -14.25 -53.5 12.35 -47.85 39.25 L-91.15 85.4 -99.95 85.45 Q-105.2 81.75 -110.15 76.85 L-115.25 71.35 -115.25 71.2 M-24.15 -21.75 Q-9.25 -22.75 4.4 -16.9 L5.45 -16.45 2.5 -13.3 2.7 -11.9 -45.3 36.6 Q-49.5 10.9 -42.1 -13.95 -34.7 -19.35 -25.85 -21.2 L-24.15 -21.75 M-79.35 105.3 L-79.45 101.8 -39.6 63.5 Q-34.9 73.35 -28.75 82.45 L-38.1 62.0 20.3 5.25 22.75 3.9 Q29.55 -0.65 35.7 -5.85 L34.35 -0.35 Q33.3 3.7 31.5 7.45 27.2 16.3 27.9 25.35 L26.1 25.75 Q23.5 26.6 22.15 29.1 14.4 43.15 16.5 59.9 L1.9 70.7 Q-28.85 92.45 -58.75 115.0 L-60.85 114.4 Q-70.75 111.05 -79.35 105.3 M29.6 83.05 L32.0 89.3 31.55 89.95 Q30.45 92.25 30.9 95.05 L30.1 96.4 Q32.1 99.55 30.3 102.5 29.3 104.15 27.8 105.15 16.95 112.55 3.95 115.4 -12.7 119.2 -29.75 118.95 L29.6 83.05 M86.45 -10.55 L84.6 -22.15 92.9 -33.55 93.55 -23.25 Q90.75 -20.5 88.7 -16.3 87.35 -13.55 86.45 -10.55 M94.8 -6.6 L94.85 -5.1 89.0 -7.9 94.8 -6.6 M18.4 262.9 L-8.35 261.2 -8.8 261.1 -42.3 224.3 Q-42.0 210.95 -38.9 196.5 -21.7 210.15 -7.55 226.75 3.2 239.3 12.35 253.3 L16.3 259.3 18.4 262.9 M-52.9 212.65 L-51.1 209.1 Q-47.7 203.0 -46.8 196.05 L-43.15 193.0 -41.85 194.0 Q-44.6 204.45 -44.75 215.25 L-44.95 221.4 -52.9 212.65 M-46.1 191.9 L-45.75 190.75 -45.15 191.25 -46.1 191.9 M-54.25 215.15 L-44.95 225.25 Q-44.65 240.0 -42.75 254.6 L-42.35 258.7 -72.2 257.75 Q-71.45 247.05 -70.0 236.6 L-69.1 231.45 Q-62.8 227.4 -58.2 221.5 -55.9 218.6 -54.25 215.15 M-39.75 258.85 L-39.8 257.5 -42.35 228.15 -12.7 260.8 -39.75 258.85" fill="#926647" fill-rule="evenodd" stroke="none"/>
    <path d="M11.2 3.55 L15.75 5.45 -89.4 106.7 Q-101.6 120.35 -115.25 132.5 L-115.25 128.5 Q-99.95 114.45 -86.15 99.05 L-86.75 98.05 11.2 3.55 M48.85 124.7 Q46.45 115.5 53.9 109.75 L54.35 109.45 54.85 120.1 49.75 125.6 49.05 125.6 48.85 124.7 M55.75 109.65 Q72.1 110.35 88.5 109.45 L92.0 108.6 Q96.45 135.75 94.0 163.5 L90.9 200.1 Q88.8 225.9 81.45 250.95 77.95 262.8 73.3 274.2 L55.15 274.2 Q56.8 261.7 57.85 249.05 59.95 223.95 60.55 198.85 61.1 176.6 60.0 154.35 58.85 131.85 55.75 109.65 M-6.2 -178.0 Q1.45 -169.95 8.8 -161.45 14.95 -154.35 20.75 -146.8 39.55 -122.1 53.2 -93.95 L36.75 -83.45 Q37.15 -77.45 39.05 -71.7 L44.0 -57.3 36.85 -49.7 36.6 -50.4 20.85 -90.35 Q11.5 -113.45 -0.9 -134.9 L-1.8 -137.9 Q-7.45 -157.6 -6.2 -178.0" fill="#80552b" fill-rule="evenodd" stroke="none"/>
    <path d="M54.35 109.45 L54.6 109.0 55.75 109.65 Q58.85 131.85 60.0 154.35 61.1 176.6 60.55 198.85 59.95 223.95 57.85 249.05 56.8 261.7 55.15 274.2 L53.0 274.2 56.7 227.55 Q58.65 202.5 58.8 177.45 58.9 153.0 55.85 128.55 L54.85 120.1 54.35 109.45 M36.6 -50.4 L34.55 -48.0 Q26.6 -71.4 16.8 -94.1 7.3 -116.05 -4.85 -136.4 -12.45 -149.15 -21.1 -161.25 L-36.2 -180.65 -51.15 -197.25 -51.65 -198.7 -51.15 -199.25 -50.3 -198.85 -35.55 -182.65 -23.1 -166.7 Q-12.2 -153.65 -3.35 -138.95 L-0.9 -134.9 Q11.5 -113.45 20.85 -90.35 L36.6 -50.4 M-55.1 -201.35 L-55.15 -201.4 Q-55.1 -202.75 -53.8 -201.9 L-53.4 -201.45 -52.65 -200.2 -52.75 -199.6 -53.5 -199.75 -55.1 -201.35 M-67.25 -212.7 L-69.35 -214.7 -67.85 -214.75 -64.4 -212.0 Q-60.8 -208.85 -58.75 -206.3 L-57.55 -204.5 -58.25 -204.4 -67.25 -212.7 M-56.4 -204.05 Q-56.05 -203.9 -56.0 -203.25 L-56.4 -202.85 -56.65 -203.0 -56.75 -203.5 -56.65 -203.9 -56.4 -204.05" fill="#e6cbb3" fill-rule="evenodd" stroke="none"/>
    <path d="M-115.25 116.55 L-101.95 101.35 -103.55 103.5 Q-82.45 80.35 -60.9 57.9 -29.1 24.9 3.1 -8.0 L3.8 -7.4 4.2 -5.95 Q5.9 0.25 11.2 3.55 L-86.75 98.05 Q-87.65 95.1 -90.15 93.3 L-90.55 93.1 -115.25 119.65 -115.25 116.55 M51.1 274.2 L51.65 262.3 Q52.7 239.25 53.05 216.3 53.4 192.85 52.1 169.45 50.85 147.05 48.85 124.7 L49.05 125.6 49.75 125.6 54.85 120.1 55.85 128.55 Q58.9 153.0 58.8 177.45 58.65 202.5 56.7 227.55 L53.0 274.2 51.1 274.2 M34.55 -48.0 L34.7 -47.45 29.75 -42.25 Q27.3 -50.7 24.25 -59.35 16.05 -82.85 5.7 -105.5 -3.6 -125.95 -15.5 -145.05 -17.3 -153.2 -20.8 -160.7 L-21.1 -161.25 Q-12.45 -149.15 -4.85 -136.4 7.3 -116.05 16.8 -94.1 26.6 -71.4 34.55 -48.0 M-37.6 -176.35 L-55.55 -198.6 -54.65 -199.55 -55.1 -201.35 -53.5 -199.75 -52.9 -199.1 Q-53.55 -195.25 -50.15 -193.15 -51.8 -195.3 -51.85 -198.0 L-51.15 -197.25 -36.2 -180.65 -37.6 -176.35 M-53.8 -201.9 L-54.45 -202.5 Q-50.2 -208.7 -42.65 -208.8 L-41.85 -208.25 Q-49.75 -208.2 -52.55 -200.65 L-53.4 -201.45 -53.8 -201.9 M-51.15 -199.25 L-51.55 -199.6 Q-46.75 -204.5 -40.5 -207.4 L-29.25 -199.1 Q-31.95 -198.75 -33.65 -192.9 -35.3 -187.1 -35.55 -182.65 L-50.3 -198.85 -51.15 -199.25 M-20.75 -191.9 L-6.2 -178.0 Q-7.45 -157.6 -1.8 -137.9 L-0.9 -134.9 -3.35 -138.95 Q-12.2 -153.65 -23.1 -166.7 L-21.1 -192.15 -20.75 -191.9 M-67.85 -214.75 Q-67.05 -216.05 -65.5 -216.35 -58.05 -217.3 -51.25 -213.6 -51.95 -213.3 -52.6 -212.95 -57.55 -210.55 -57.6 -205.4 L-58.75 -206.3 Q-60.8 -208.85 -64.4 -212.0 L-67.85 -214.75 M-58.25 -204.4 L-56.75 -201.8 -57.3 -200.8 -67.25 -212.7 -58.25 -204.4 M-48.3 -212.1 L-45.35 -210.4 Q-51.8 -209.05 -55.65 -203.6 L-56.3 -204.2 Q-56.5 -208.25 -52.75 -210.15 -50.7 -211.3 -48.3 -212.1" fill="#b57b3b" fill-rule="evenodd" stroke="none"/>
    <path d="M51.0 -15.6 L52.75 -14.3 Q51.05 -15.15 49.1 -15.35 L51.0 -15.6 M54.15 9.75 Q51.95 11.65 50.4 13.4 46.45 17.55 45.45 20.45 40.8 23.5 36.95 27.4 L33.95 30.6 33.55 28.35 Q27.8 21.65 32.15 13.15 34.5 8.5 36.15 3.55 38.7 -3.9 41.8 -11.05 42.7 -13.05 44.5 -14.05 49.1 -16.6 53.3 -12.7 L51.8 -13.15 56.85 -6.45 Q57.1 0.15 55.15 6.6 L54.15 9.75 M53.45 20.5 Q56.05 28.6 52.85 36.75 52.35 37.9 52.25 39.3 44.0 42.2 40.2 50.0 37.45 55.7 33.05 60.55 28.75 52.15 30.65 43.7 31.7 39.05 34.15 34.75 40.5 23.3 53.45 20.5 M53.0 43.1 Q56.2 52.6 54.05 62.15 53.5 64.65 53.35 67.2 L49.1 67.5 Q39.05 75.9 33.95 87.9 L32.8 81.45 Q32.25 78.2 32.5 74.95 L32.0 75.05 33.8 63.6 34.55 63.15 34.55 63.6 Q39.35 59.05 42.1 52.8 44.45 47.55 48.2 43.3 L48.8 43.15 48.7 43.9 53.0 43.1 M54.0 70.25 Q55.6 78.1 54.3 85.5 51.75 100.2 38.9 109.55 L38.9 109.0 35.45 111.4 33.95 94.8 Q35.8 91.0 38.3 87.6 40.65 84.4 41.9 81.05 43.85 75.85 48.1 72.35 L48.55 72.3 50.05 70.55 54.0 70.25 M20.85 38.4 Q21.25 31.65 27.5 29.05 L29.25 28.25 30.45 31.35 30.25 31.8 31.75 33.6 Q27.0 39.9 25.75 47.45 L25.8 48.1 30.05 61.95 29.3 62.35 Q26.85 67.25 21.85 68.8 L21.2 69.6 Q19.0 62.3 19.55 54.9 L20.85 38.6 20.95 38.4 20.85 38.4 M26.6 74.6 L24.45 73.6 26.6 73.9 26.6 74.6 M43.35 161.7 L36.8 151.4 Q24.2 131.5 32.65 109.5 32.15 121.4 44.05 122.45 L46.3 122.5 48.1 152.35 47.25 154.6 Q45.7 158.25 43.35 161.7" fill="#595959" fill-rule="evenodd" stroke="none"/>
    <path d="M68.2 -18.45 L70.75 -15.6 Q59.9 -20.2 48.35 -18.6 L60.15 -29.1 Q63.8 -23.55 68.2 -18.45 M82.45 -10.9 L77.25 -13.15 81.3 -18.0 82.45 -10.9" fill="#936231" fill-rule="evenodd" stroke="none"/>
    <path d="M-115.25 142.7 L-111.2 148.15 -115.25 144.05 -115.25 142.7 M-115.25 148.0 L-111.5 152.1 -111.45 153.45 -110.8 152.95 -107.65 156.4 -115.25 166.4 -115.25 148.0 M-115.25 168.2 L-114.6 168.6 -105.05 159.2 -97.6 167.9 Q-98.6 174.0 -103.95 176.85 -106.7 178.25 -108.6 180.7 L-107.45 182.05 Q-102.7 179.3 -99.15 175.5 -96.9 173.05 -95.75 169.55 L-90.75 175.0 Q-90.95 179.7 -94.85 182.7 -96.0 183.6 -97.4 184.15 L-96.85 184.8 -94.9 185.5 Q-96.9 191.95 -104.6 196.05 -108.7 198.2 -112.6 200.7 L-115.25 202.35 -115.25 168.2 M-115.25 203.15 Q-109.55 202.35 -104.55 199.25 L-102.75 198.2 Q-109.4 215.2 -115.25 232.5 L-115.25 203.15 M-115.25 234.05 L-106.95 219.75 -100.75 229.55 Q-104.35 234.15 -108.95 237.8 -111.95 240.25 -115.25 242.25 L-115.25 234.05 M52.75 -14.3 L51.0 -15.6 53.35 -15.7 56.6 -15.45 Q65.45 -14.4 73.4 -10.45 82.35 -6.1 91.8 -2.8 L94.35 -1.75 Q100.65 1.55 106.45 5.45 108.9 7.1 109.3 9.95 110.15 15.65 111.5 21.15 112.7 20.7 112.75 19.55 L112.8 18.9 114.85 24.25 Q122.9 49.0 122.3 75.35 L122.1 77.2 Q119.95 87.5 118.15 97.9 117.0 104.45 114.6 110.65 118.55 104.4 120.45 97.3 119.35 112.5 115.6 127.3 110.5 147.25 102.2 166.35 99.4 172.8 95.8 178.65 97.2 152.4 96.95 126.1 103.25 125.7 105.85 119.8 101.75 121.65 97.3 122.7 97.9 117.4 97.25 112.05 96.85 108.9 94.1 107.5 L95.4 106.35 59.9 105.45 60.65 104.75 59.95 104.8 Q54.55 105.95 48.9 105.05 L48.9 106.35 51.85 108.45 49.45 110.35 Q46.45 112.55 44.3 115.45 L44.4 116.65 44.0 117.45 43.95 117.45 Q40.25 115.55 36.15 115.7 L35.45 111.4 38.9 109.0 38.9 109.55 Q51.75 100.2 54.3 85.5 55.6 78.1 54.0 70.25 66.65 71.15 79.2 73.1 81.45 73.25 83.45 72.3 68.85 67.5 53.35 67.2 53.5 64.65 54.05 62.15 56.2 52.6 53.0 43.1 L70.95 43.35 Q73.95 43.35 76.85 44.05 80.5 44.75 83.75 43.6 L80.6 42.75 81.4 42.35 Q82.8 41.6 83.75 40.45 84.4 39.65 84.25 38.6 L84.0 37.75 79.3 41.25 Q74.15 40.95 69.2 39.85 60.8 37.8 52.25 39.3 52.35 37.9 52.85 36.75 56.05 28.6 53.45 20.5 66.95 15.75 81.05 17.45 L81.35 16.8 83.8 16.4 82.9 14.55 82.45 14.55 Q83.5 12.25 83.6 9.65 83.6 9.2 83.25 8.7 81.5 9.45 80.5 11.05 79.55 12.75 78.85 14.55 L75.7 14.3 Q66.2 13.35 56.85 15.45 55.45 14.5 52.9 14.5 L49.65 14.35 50.05 16.5 52.15 17.05 45.45 20.45 Q46.45 17.55 50.4 13.4 51.95 11.65 54.15 9.75 L53.8 10.9 Q62.5 5.25 59.45 -5.75 57.85 -11.4 52.75 -14.3 M21.2 69.6 L21.85 68.8 Q26.85 67.25 29.3 62.35 L30.05 61.95 30.15 63.05 Q30.4 69.25 28.2 74.95 L26.6 74.6 26.6 73.9 24.45 73.6 Q22.45 72.15 21.2 69.6 M43.35 161.7 Q45.7 158.25 47.25 154.6 L48.1 152.35 49.2 166.25 43.35 161.7 M-100.0 144.3 L-99.55 144.0 -98.45 146.05 -105.9 154.35 -108.65 151.35 -100.0 144.3 M-95.6 160.6 L-95.1 159.8 -96.7 164.4 -103.25 157.15 -100.0 153.35 Q-97.1 156.05 -95.85 159.45 -95.65 160.0 -95.6 160.6 M-94.6 166.8 L-93.2 162.65 Q-90.9 166.1 -89.95 170.1 L-89.65 171.9 -94.6 166.8" fill="#3c3c3c" fill-rule="evenodd" stroke="none"/>
    <path d="M-15.0 -25.65 L-21.95 -26.05 Q-29.2 -26.6 -35.85 -24.2 L-34.8 -26.95 Q-31.0 -37.3 -23.0 -44.75 -24.9 -40.5 -24.65 -36.0 -24.55 -34.5 -23.05 -33.1 -19.35 -29.5 -15.2 -26.3 L-15.0 -25.65 M-11.9 -57.0 Q-30.35 -46.95 -38.55 -27.55 L-39.2 -29.45 Q-44.35 -48.4 -41.05 -68.2 -38.8 -55.85 -25.5 -54.65 -18.35 -54.15 -11.9 -57.0 M-44.4 -65.8 Q-46.35 -49.55 -44.05 -33.2 L-46.75 -35.95 Q-56.35 -45.4 -69.6 -49.0 L-69.6 -49.75 Q-54.05 -49.2 -46.3 -61.45 -45.05 -63.45 -44.4 -65.8 M-58.45 -40.7 Q-49.3 -35.45 -44.9 -25.95 -44.15 -24.35 -44.9 -22.85 -56.35 -25.6 -67.75 -23.1 -63.4 -26.0 -59.8 -29.85 L-57.65 -39.6 -58.45 -40.7 M-59.3 -20.4 Q-52.25 -20.95 -45.5 -19.3 L-44.85 -19.05 -46.2 -14.25 Q-49.65 -19.2 -55.45 -19.45 -57.45 -19.75 -59.3 -20.4 M-99.95 85.45 L-115.25 86.8 -115.25 71.35 -110.15 76.85 Q-105.2 81.75 -99.95 85.45 M-24.15 -21.75 L-25.85 -21.2 Q-34.7 -19.35 -42.1 -13.95 L-40.35 -18.8 Q-36.4 -21.05 -24.15 -21.75 M-79.35 105.3 Q-70.75 111.05 -60.85 114.4 L-58.75 115.0 Q-28.85 92.45 1.9 70.7 L16.5 59.9 Q15.35 72.85 25.85 78.0 L28.3 78.75 29.6 83.05 -29.75 118.95 Q-12.7 119.2 3.95 115.4 16.95 112.55 27.8 105.15 29.3 104.15 30.3 102.5 32.1 99.55 30.1 96.4 L30.9 95.05 31.5 102.15 Q28.65 112.65 26.4 123.35 25.9 125.7 25.7 128.15 12.95 133.35 10.15 147.9 L8.0 157.55 Q-39.9 164.9 -79.2 137.0 L-84.8 132.7 Q-77.05 126.4 -78.6 115.35 -79.3 110.35 -79.35 105.3 M89.0 -7.9 Q87.95 -7.9 87.2 -8.65 86.45 -9.45 86.45 -10.55 87.35 -13.55 88.7 -16.3 90.75 -20.5 93.55 -23.25 94.45 -15.35 94.8 -6.6 L89.0 -7.9 M7.8 162.1 L7.6 168.55 Q-12.25 171.8 -32.45 169.1 L-35.3 168.65 Q-35.65 167.5 -35.4 166.6 -35.1 165.35 -34.15 164.6 L-32.25 163.0 -32.95 162.5 Q-12.5 165.0 7.8 162.1 M-38.9 196.5 L-38.1 193.05 Q-31.45 199.95 -23.2 204.7 L-22.35 204.35 -22.0 204.25 -21.8 204.0 -21.6 203.85 -21.5 203.6 -21.35 203.15 Q-25.7 201.1 -29.3 197.9 -34.0 193.7 -37.0 188.2 -27.8 182.5 -17.9 178.25 -17.0 177.85 -16.15 177.25 -21.35 176.35 -26.3 178.9 -31.25 181.65 -36.15 184.75 -35.1 181.25 -34.45 177.6 L-33.6 172.1 Q-12.1 177.0 7.6 168.95 12.0 192.95 27.4 211.35 36.0 221.65 49.4 223.7 L49.55 231.4 Q29.2 231.7 16.4 216.4 28.05 234.8 49.55 235.4 50.15 249.6 48.85 263.7 L48.35 263.35 18.4 262.9 16.3 259.3 12.35 253.3 Q3.2 239.3 -7.55 226.75 -21.7 210.15 -38.9 196.5 M-52.9 212.65 L-82.85 179.75 Q-77.15 164.4 -69.85 149.9 L-67.05 151.6 Q-52.2 160.4 -35.1 162.25 L-35.75 162.95 -37.05 165.1 -37.6 166.65 -37.75 168.25 Q-52.1 164.65 -65.65 158.5 L-66.05 159.8 Q-63.6 161.6 -60.7 163.25 -48.8 169.85 -35.35 171.8 L-40.0 186.55 -50.7 173.1 -49.9 175.75 Q-47.3 183.05 -41.85 188.7 L-45.15 191.25 -45.75 190.75 -46.1 191.9 -51.35 196.55 Q-54.15 199.25 -53.65 201.6 L-46.8 196.05 Q-47.7 203.0 -51.1 209.1 L-52.9 212.65 M-43.15 193.0 L-40.8 191.1 -41.85 194.0 -43.15 193.0 M-54.25 215.15 Q-55.9 218.6 -58.2 221.5 -62.8 227.4 -69.1 231.45 L-70.0 236.6 Q-71.45 247.05 -72.2 257.75 L-98.1 259.1 Q-96.05 238.4 -92.45 217.95 -89.25 199.9 -83.75 182.6 L-54.25 215.15" fill="#6b4b36" fill-rule="evenodd" stroke="none"/>
    <path d="M-15.5 -145.05 L-22.75 -156.0 Q-29.8 -166.35 -37.6 -176.35 L-36.2 -180.65 -21.1 -161.25 -20.8 -160.7 Q-17.3 -153.2 -15.5 -145.05 M-29.25 -199.1 L-21.3 -192.4 -21.1 -192.15 -23.1 -166.7 -35.55 -182.65 Q-35.3 -187.1 -33.65 -192.9 -31.95 -198.75 -29.25 -199.1" fill="#ce9d6c" fill-rule="evenodd" stroke="none"/>
    <path d="M-115.25 90.2 L-94.95 88.65 -95.5 89.5 -95.0 89.5 -95.55 89.55 -97.4 92.1 -97.4 92.55 -98.0 93.3 -98.45 93.3 -115.25 112.3 -115.25 98.3 -107.05 96.65 -115.25 96.85 -115.25 90.2 M-115.25 121.65 L-113.25 119.4 -113.0 119.75 Q-112.3 120.55 -111.2 120.45 L-111.15 120.2 Q-111.35 119.25 -112.35 118.4 L-100.75 105.8 -99.15 106.9 -99.15 105.6 -100.25 105.35 -98.75 103.9 Q-98.0 104.25 -97.4 104.95 -96.5 106.0 -95.8 105.5 L-95.95 104.55 -98.2 103.35 -91.1 95.65 -88.65 99.05 -89.1 100.55 Q-100.7 109.85 -110.65 121.05 -112.8 123.5 -115.25 125.65 L-115.25 121.65 M-90.1 119.2 L-91.25 120.3 Q-90.7 126.3 -91.65 132.1 L-91.7 133.2 -96.0 137.0 -96.3 135.5 -97.15 135.5 -97.15 137.85 -100.25 140.2 -100.55 139.5 -101.55 133.1 -102.25 133.1 -102.65 141.95 -108.8 146.8 -108.85 147.35 Q-110.5 141.05 -114.8 136.05 L-82.6 104.75 Q-82.8 112.3 -82.45 119.9 L-82.1 127.45 -88.7 131.2 -90.1 119.2" fill="#656565" fill-rule="evenodd" stroke="none"/>
    <path d="M27.35 206.35 Q44.7 197.1 45.05 177.1 45.15 172.85 45.7 168.6 L49.6 171.55 Q50.85 193.55 50.05 215.6 49.95 217.9 49.45 220.25 L44.8 220.15 45.2 218.85 Q39.7 216.35 34.85 212.85 30.7 209.95 27.35 206.35 M-93.55 145.25 L-93.9 143.7 Q-94.3 142.05 -95.75 140.9 L-88.95 135.5 -73.35 147.65 -76.65 153.45 -84.7 149.55 -78.55 157.35 -85.45 176.8 -87.1 175.0 Q-85.8 172.0 -86.5 168.95 L-86.05 168.5 Q-87.85 157.1 -96.45 149.1 L-93.55 145.25 M-86.4 179.8 L-91.45 198.1 -96.55 194.1 -92.9 191.1 -88.1 177.95 -86.4 179.8 M-105.5 215.75 L-98.45 195.45 Q-95.65 198.75 -92.2 201.25 L-98.15 227.3 -105.5 215.75" fill="#5e5e5e" fill-rule="evenodd" stroke="none"/>
    <path d="M45.7 168.6 Q45.15 172.85 45.05 177.1 44.7 197.1 27.35 206.35 11.35 185.5 12.05 159.1 12.5 141.65 25.95 130.8 27.65 147.8 38.4 161.05 41.7 165.1 45.7 168.6" fill="#7b7b7b" fill-rule="evenodd" stroke="none"/>
  </g>
</svg>
