<?xml version="1.0" encoding="UTF-8" standalone="no"?>
<svg xmlns:xlink="http://www.w3.org/1999/xlink" height="424.1px" width="224.5px" xmlns="http://www.w3.org/2000/svg">
  <g transform="matrix(1.0, 0.0, 0.0, 1.0, 118.25, 153.9)">
    <path d="M-118.25 -142.75 L-117.55 -142.35 Q-106.25 -135.45 -93.05 -135.4 L-94.2 -134.75 Q-103.7 -129.9 -112.55 -123.4 L-118.25 -118.85 -118.25 -124.25 Q-116.75 -124.75 -113.9 -126.85 -110.4 -129.35 -109.9 -131.3 -113.75 -132.6 -118.25 -136.15 L-118.25 -142.75 M26.3 -132.85 Q39.6 -112.05 45.3 -88.0 48.5 -74.35 49.15 -60.3 27.05 -67.5 4.25 -72.45 -21.1 -77.75 -47.05 -77.7 L-57.45 -77.3 -53.3 -89.8 Q-44.5 -115.3 -24.65 -133.5 -34.95 -131.4 -44.25 -126.4 -48.25 -124.15 -51.6 -120.9 -72.5 -100.65 -86.95 -75.2 L-85.55 -74.7 Q-78.9 -73.5 -72.1 -74.8 L-101.3 -66.05 Q-97.4 -79.1 -91.1 -91.1 L-90.25 -92.8 -86.2 -99.05 -86.6 -99.4 Q-76.9 -115.2 -62.45 -126.5 -42.65 -142.05 -17.5 -142.65 5.55 -143.2 26.3 -132.85 M61.6 -21.0 L48.5 -23.7 45.7 -3.05 Q32.35 -8.5 18.2 -10.45 3.1 -12.55 -11.9 -15.4 -27.05 -18.35 -42.5 -17.4 L-64.4 -16.5 Q-89.55 -14.55 -112.5 -4.15 L-112.2 -8.0 Q-111.45 -19.3 -109.4 -30.3 L-109.25 -30.2 -108.95 -30.4 -98.65 -34.3 -100.9 -16.15 Q-92.65 -18.75 -84.15 -19.9 L-70.95 -22.2 -67.65 -39.8 -73.55 -39.45 Q-51.05 -42.5 -28.35 -41.35 -5.55 -40.5 16.6 -35.4 39.75 -30.2 61.6 -21.0 M-112.3 26.8 L-113.0 6.3 -102.45 -0.25 -103.2 19.85 -87.45 15.25 Q-81.85 13.65 -76.25 13.5 L-73.5 -6.15 Q-48.9 -8.45 -24.15 -6.15 -1.95 -4.2 19.65 0.95 37.65 5.05 54.85 11.7 L42.75 10.4 Q40.0 22.15 35.85 33.3 29.1 29.85 21.75 28.05 3.1 23.6 -16.2 22.5 L-66.55 20.85 Q-90.4 20.85 -111.95 31.35 L-112.3 26.8 M36.45 76.65 L36.25 77.5 11.6 73.9 4.85 80.85 Q-17.05 102.2 -46.9 110.65 L-46.05 109.7 -51.6 111.3 -53.2 110.6 -53.75 111.25 -55.9 109.9 -53.55 106.35 Q-41.65 87.1 -35.5 65.3 L-28.2 65.3 -28.1 65.35 -9.25 66.2 Q14.5 67.6 36.45 76.65 M46.2 45.6 Q38.85 45.5 31.55 43.7 L23.8 58.85 22.9 58.45 Q22.1 59.25 21.25 59.0 -7.55 55.1 -36.8 56.4 L-37.3 56.0 -40.2 57.85 -39.9 58.85 Q-46.95 81.6 -60.15 100.9 -62.0 103.6 -64.7 105.05 -76.6 111.2 -89.95 105.8 -101.3 83.95 -106.9 60.2 -109.05 51.2 -110.65 42.05 L-101.05 37.35 Q-99.7 62.0 -88.35 83.65 -85.2 89.7 -81.2 95.3 -81.15 77.25 -80.5 59.25 -80.05 45.6 -78.4 32.3 L-34.05 30.95 Q-10.45 31.75 12.6 36.2 29.85 39.55 46.2 45.6 M-30.75 68.15 L-42.1 93.0 -11.6 68.35 -24.05 67.85 -30.75 68.15" fill="#999999" fill-rule="evenodd" stroke="none"/>
    <path d="M-118.25 -142.75 L-118.25 -148.9 Q-111.75 -145.35 -104.5 -143.35 -88.7 -139.1 -72.9 -143.3 L-40.5 -151.55 Q-13.55 -158.05 10.9 -146.55 15.25 -144.5 19.65 -142.55 35.75 -135.15 49.95 -124.75 66.4 -112.65 77.45 -95.5 100.65 -59.5 100.7 -16.5 L92.1 -9.55 Q93.55 -5.85 96.2 -2.95 98.45 -0.5 101.35 1.1 100.95 13.85 98.5 26.2 93.8 49.85 84.4 71.85 72.6 99.3 49.65 118.8 68.25 132.0 80.15 151.45 88.95 165.9 85.8 182.0 90.15 188.85 93.2 196.05 93.65 197.0 93.25 198.0 92.35 200.35 90.15 201.95 103.35 228.35 105.35 257.8 L106.25 257.55 105.55 259.55 102.05 261.55 Q88.85 269.55 73.25 270.2 L101.75 258.3 93.65 223.3 87.4 203.75 Q65.55 220.55 38.6 223.95 38.3 230.05 40.05 236.2 43.2 247.3 37.25 256.5 L39.6 270.2 -118.25 270.2 -118.25 227.3 -113.05 225.8 Q-90.0 220.35 -66.05 219.95 L-62.75 219.95 -58.45 220.6 Q-38.35 223.0 -18.9 228.2 4.4 234.65 27.0 243.4 L36.15 249.3 36.65 246.85 36.65 246.75 Q36.95 244.85 36.85 243.0 35.8 219.3 33.5 195.45 L32.85 185.6 Q32.45 180.6 31.1 175.85 L20.35 139.3 Q9.1 144.95 -3.35 146.3 -27.4 149.1 -50.85 143.8 L-54.05 143.1 Q-72.8 138.4 -90.55 131.35 -101.8 126.85 -110.95 118.8 L-112.3 122.85 Q-117.45 140.15 -117.65 158.05 -117.7 163.25 -118.25 168.75 L-118.25 130.25 -114.1 116.15 -118.25 112.7 -118.25 107.45 -104.1 119.3 Q-93.5 128.1 -79.95 128.85 L-82.5 127.5 Q-100.8 116.25 -110.4 96.5 L-118.25 82.05 -118.25 71.75 Q-113.15 84.15 -106.2 95.7 L-104.35 98.65 Q-96.9 109.8 -87.55 119.3 L-86.4 118.75 -85.75 119.35 -88.2 115.7 Q-92.0 109.95 -94.8 103.5 L-97.2 98.0 Q-111.0 66.2 -114.95 31.75 L-114.7 33.4 Q-117.65 -8.4 -109.95 -49.65 -104.4 -79.6 -88.5 -105.45 -78.55 -121.55 -62.6 -131.85 -36.8 -148.5 -5.3 -147.6 -11.3 -149.75 -17.6 -149.9 -42.7 -150.45 -65.3 -139.7 -80.8 -132.25 -92.3 -119.8 -109.4 -101.35 -118.25 -77.85 L-118.25 -84.6 -115.55 -91.05 Q-104.55 -116.85 -82.85 -134.9 L-85.6 -133.8 Q-103.45 -126.55 -118.25 -114.65 L-118.25 -118.85 -112.55 -123.4 -94.2 -134.75 -93.05 -135.4 Q-106.25 -135.45 -117.55 -142.35 L-118.25 -142.75 M-101.3 -66.05 L-102.85 -61.1 Q-79.5 -70.5 -54.2 -71.15 -23.0 -72.0 7.8 -66.25 21.35 -63.85 34.5 -60.05 56.1 -53.55 75.6 -42.25 87.75 -35.25 95.45 -23.6 96.35 -39.35 91.7 -54.45 85.9 -73.1 75.45 -89.6 71.3 -96.1 66.25 -102.2 58.25 -111.9 48.4 -119.45 38.15 -127.25 26.3 -132.85 5.55 -143.2 -17.5 -142.65 -42.65 -142.05 -62.45 -126.5 -76.9 -115.2 -86.6 -99.4 L-90.25 -92.8 -91.1 -91.1 Q-97.4 -79.1 -101.3 -66.05 M-112.5 -4.15 L-112.75 0.9 Q-93.95 -7.9 -73.15 -9.3 -45.15 -11.5 -17.3 -9.0 20.9 -5.35 56.75 8.3 78.15 16.5 92.2 34.25 97.0 19.4 96.85 3.85 93.85 1.65 91.1 -0.75 77.55 -12.95 61.6 -21.0 39.75 -30.2 16.6 -35.4 -5.55 -40.5 -28.35 -41.35 -51.05 -42.5 -73.55 -39.45 -84.3 -38.35 -94.8 -35.5 L-98.65 -34.3 -108.95 -30.4 -109.4 -30.3 Q-111.45 -19.3 -112.2 -8.0 L-112.5 -4.15 M72.05 -42.0 Q51.35 -53.4 28.65 -59.55 6.65 -65.35 -16.1 -67.45 -49.15 -70.85 -81.8 -65.3 -90.9 -63.65 -99.1 -59.45 -105.0 -56.4 -106.15 -50.15 -104.9 -51.5 -103.35 -52.45 -92.05 -59.3 -78.45 -61.05 -46.3 -65.55 -13.95 -62.9 29.9 -58.85 68.4 -37.55 80.4 -30.9 88.8 -20.0 L84.75 -11.45 88.4 -8.7 95.55 -15.8 Q88.8 -32.9 72.05 -42.0 M-112.1 31.4 L-111.75 36.6 Q-103.4 32.45 -94.1 30.4 -74.5 26.1 -54.3 25.8 -5.85 25.1 39.95 40.2 L49.65 43.55 Q69.6 50.25 82.35 66.35 84.5 61.65 86.25 56.85 89.3 48.55 91.1 39.95 L90.35 38.6 Q77.15 20.0 54.85 11.7 37.65 5.05 19.65 0.95 -1.95 -4.2 -24.15 -6.15 -48.9 -8.45 -73.5 -6.15 -87.25 -5.05 -100.15 -0.95 L-102.45 -0.25 -113.0 6.3 -112.3 26.8 -112.1 31.4 M36.45 76.65 Q14.5 67.6 -9.25 66.2 L-28.1 65.35 -27.8 65.3 -28.2 65.3 -35.5 65.3 Q-41.65 87.1 -53.55 106.35 L-55.9 109.9 -60.35 114.7 Q-63.7 117.85 -67.5 120.15 L-74.5 123.7 Q-71.8 128.6 -66.65 131.1 -40.05 143.75 -10.05 141.75 11.55 140.2 29.95 129.0 44.2 120.35 51.7 105.4 56.3 96.2 55.5 85.45 54.4 84.7 53.3 84.1 45.15 79.5 36.45 76.65 M46.2 45.6 Q29.85 39.55 12.6 36.2 -10.45 31.75 -34.05 30.95 L-78.4 32.3 Q-86.7 33.3 -94.65 35.4 L-101.05 37.35 -110.65 42.05 Q-109.05 51.2 -106.9 60.2 -101.3 83.95 -89.95 105.8 L-88.7 107.8 Q-84.25 114.75 -78.3 120.4 -69.55 116.4 -62.05 110.4 -57.6 106.8 -54.55 102.15 -42.3 83.65 -38.25 61.6 -30.3 61.3 -22.25 61.3 21.2 61.25 57.95 83.6 L58.05 87.75 Q58.2 97.6 54.9 106.9 59.1 103.85 62.6 99.7 68.15 93.25 72.9 86.25 77.3 79.65 78.25 72.05 78.5 69.9 77.3 68.15 66.0 51.35 46.2 45.6 M23.95 137.85 Q31.15 158.7 34.7 180.25 L35.4 186.6 38.2 186.95 39.0 187.25 40.2 187.7 41.8 188.4 43.8 189.3 35.8 189.45 38.35 220.5 Q59.45 217.1 77.75 206.3 84.25 202.45 89.55 197.25 L89.05 195.6 87.9 193.15 84.7 188.4 Q83.4 186.75 82.65 185.05 79.6 186.95 76.15 188.15 66.85 191.2 57.3 192.4 71.0 190.05 80.95 181.7 82.05 180.8 82.35 179.3 83.8 171.5 81.75 163.95 80.3 158.6 77.5 153.8 65.7 133.85 45.7 122.3 L40.05 127.05 34.25 131.45 23.95 137.85" fill="#000000" fill-rule="evenodd" stroke="none"/>
    <path d="M-94.8 103.5 Q-92.0 109.95 -88.2 115.7 L-85.75 119.35 -86.4 118.75 -87.55 119.3 Q-96.9 109.8 -104.35 98.65 L-94.8 103.5 M26.3 -132.85 Q38.15 -127.25 48.4 -119.45 58.25 -111.9 66.25 -102.2 71.3 -96.1 75.45 -89.6 85.9 -73.1 91.7 -54.45 96.35 -39.35 95.45 -23.6 87.75 -35.25 75.6 -42.25 56.1 -53.55 34.5 -60.05 21.35 -63.85 7.8 -66.25 -23.0 -72.0 -54.2 -71.15 -79.5 -70.5 -102.85 -61.1 L-101.3 -66.05 -72.1 -74.8 -57.45 -77.3 -47.05 -77.7 Q-21.1 -77.75 4.25 -72.45 27.05 -67.5 49.15 -60.3 48.5 -74.35 45.3 -88.0 39.6 -112.05 26.3 -132.85 M-112.5 -4.15 Q-89.55 -14.55 -64.4 -16.5 L-42.5 -17.4 Q-27.05 -18.35 -11.9 -15.4 3.1 -12.55 18.2 -10.45 32.35 -8.5 45.7 -3.05 L48.5 -23.7 61.6 -21.0 Q77.55 -12.95 91.1 -0.75 93.85 1.65 96.85 3.85 97.0 19.4 92.2 34.25 78.15 16.5 56.75 8.3 20.9 -5.35 -17.3 -9.0 -45.15 -11.5 -73.15 -9.3 -93.95 -7.9 -112.75 0.9 L-112.5 -4.15 M54.85 11.7 Q77.15 20.0 90.35 38.6 L91.1 39.95 Q89.3 48.55 86.25 56.85 84.5 61.65 82.35 66.35 69.6 50.25 49.65 43.55 L39.95 40.2 Q-5.85 25.1 -54.3 25.8 -74.5 26.1 -94.1 30.4 -103.4 32.45 -111.75 36.6 L-112.1 31.4 -111.95 31.35 Q-90.4 20.85 -66.55 20.85 L-16.2 22.5 Q3.1 23.6 21.75 28.05 29.1 29.85 35.85 33.3 40.0 22.15 42.75 10.4 L54.85 11.7 M-55.9 109.9 L-53.75 111.25 -53.2 110.6 -51.6 111.3 -46.05 109.7 -46.9 110.65 Q-17.05 102.2 4.85 80.85 L11.6 73.9 36.25 77.5 36.45 76.65 Q45.15 79.5 53.3 84.1 54.4 84.7 55.5 85.45 56.3 96.2 51.7 105.4 44.2 120.35 29.95 129.0 11.55 140.2 -10.05 141.75 -40.05 143.75 -66.65 131.1 -71.8 128.6 -74.5 123.7 L-67.5 120.15 Q-64.0 118.45 -60.35 114.7 L-55.9 109.9 M-89.95 105.8 Q-76.6 111.2 -64.7 105.05 -62.0 103.6 -60.15 100.9 -46.95 81.6 -39.9 58.85 L-40.2 57.85 -37.3 56.0 -36.8 56.4 Q-7.55 55.1 21.25 59.0 22.1 59.25 22.9 58.45 L23.8 58.85 31.55 43.7 Q38.85 45.5 46.2 45.6 66.0 51.35 77.3 68.15 78.5 69.9 78.25 72.05 77.3 79.65 72.9 86.25 68.15 93.25 62.6 99.7 59.1 103.85 54.9 106.9 58.2 97.6 58.05 87.75 L57.95 83.6 Q21.2 61.25 -22.25 61.3 -30.3 61.3 -38.25 61.6 -42.3 83.65 -54.55 102.15 -57.6 106.8 -62.05 110.4 -69.55 116.4 -78.3 120.4 -84.25 114.75 -88.7 107.8 L-89.95 105.8" fill="#737373" fill-rule="evenodd" stroke="none"/>
    <path d="M72.05 -42.0 Q88.8 -32.9 95.55 -15.8 L88.4 -8.7 84.75 -11.45 88.8 -20.0 Q80.4 -30.9 68.4 -37.55 29.9 -58.85 -13.95 -62.9 -46.3 -65.55 -78.45 -61.05 -92.05 -59.3 -103.35 -52.45 -104.9 -51.5 -106.15 -50.15 -105.0 -56.4 -99.1 -59.45 -90.9 -63.65 -81.8 -65.3 -49.15 -70.85 -16.1 -67.45 6.65 -65.35 28.65 -59.55 51.35 -53.4 72.05 -42.0" fill="#4d4d4d" fill-rule="evenodd" stroke="none"/>
    <path d="M-118.25 -77.85 Q-109.4 -101.35 -92.3 -119.8 -80.8 -132.25 -65.3 -139.7 -42.7 -150.45 -17.6 -149.9 -11.3 -149.75 -5.3 -147.6 -36.8 -148.5 -62.6 -131.85 -78.55 -121.55 -88.5 -105.45 -104.4 -79.6 -109.95 -49.65 -117.65 -8.4 -114.7 33.4 L-114.95 31.75 Q-111.0 66.2 -97.2 98.0 L-94.8 103.5 -104.35 98.65 -106.2 95.7 Q-113.15 84.15 -118.25 71.75 L-118.25 -71.3 -117.4 -71.0 -111.3 -72.6 Q-105.7 -87.5 -97.05 -100.85 -83.2 -122.4 -62.75 -137.8 -82.6 -130.0 -96.0 -113.35 -110.75 -94.9 -118.25 -72.3 L-118.25 -77.85" fill="#878787" fill-rule="evenodd" stroke="none"/>
    <path d="M-57.45 -77.3 L-72.1 -74.8 Q-78.9 -73.5 -85.55 -74.7 L-86.95 -75.2 Q-72.5 -100.65 -51.6 -120.9 -48.25 -124.15 -44.25 -126.4 -34.95 -131.4 -24.65 -133.5 -44.5 -115.3 -53.3 -89.8 L-57.45 -77.3 M-73.55 -39.45 L-67.65 -39.8 -70.95 -22.2 -84.15 -19.9 Q-92.65 -18.75 -100.9 -16.15 L-98.65 -34.3 -94.8 -35.5 Q-84.3 -38.35 -73.55 -39.45 M-102.45 -0.25 L-100.15 -0.95 Q-87.25 -5.05 -73.5 -6.15 L-76.25 13.5 Q-81.85 13.65 -87.45 15.25 L-103.2 19.85 -102.45 -0.25 M-78.4 32.3 Q-80.05 45.6 -80.5 59.25 -81.15 77.25 -81.2 95.3 -85.2 89.7 -88.35 83.65 -99.7 62.0 -101.05 37.35 L-94.65 35.4 Q-86.7 33.3 -78.4 32.3 M-118.25 -124.25 L-118.25 -136.15 Q-113.75 -132.6 -109.9 -131.3 -110.4 -129.35 -113.9 -126.85 -116.75 -124.75 -118.25 -124.25 M-118.25 -72.3 Q-110.75 -94.9 -96.0 -113.35 -82.6 -130.0 -62.75 -137.8 -83.2 -122.4 -97.05 -100.85 -105.7 -87.5 -111.3 -72.6 L-117.4 -71.0 -118.25 -71.3 -118.25 -72.3 M-30.75 68.15 L-24.05 67.85 -11.6 68.35 -42.1 93.0 -30.75 68.15" fill="#e1e1e1" fill-rule="evenodd" stroke="none"/>
    <path d="M-118.25 -114.65 Q-103.45 -126.55 -85.6 -133.8 L-82.85 -134.9 Q-104.55 -116.85 -115.55 -91.05 L-118.25 -84.6 -118.25 -114.65 M-118.25 82.05 L-110.4 96.5 -118.25 91.35 -118.25 82.05 M-118.25 168.75 Q-117.7 163.25 -117.65 158.05 -117.45 140.15 -112.3 122.85 -97.85 140.6 -77.75 151.65 -66.9 157.6 -57.0 164.9 -57.55 171.5 -59.85 177.95 L-60.5 179.65 Q-76.25 178.15 -91.85 174.55 -80.0 180.35 -67.1 182.4 L-63.45 182.85 -64.65 193.2 Q-81.65 190.5 -97.75 196.5 -103.55 198.6 -108.95 201.5 -98.8 199.3 -88.1 197.55 -75.7 195.6 -63.45 198.4 L-68.3 212.65 -70.65 212.55 Q-95.4 212.0 -118.25 221.0 L-118.25 206.4 -112.55 198.6 -117.4 201.9 -117.4 200.55 -117.9 200.2 Q-118.5 187.1 -108.1 179.1 -112.35 179.15 -115.5 182.2 L-115.6 181.65 -116.95 181.85 -118.25 175.55 -118.25 168.75 M-60.35 114.7 Q-64.0 118.45 -67.5 120.15 -63.7 117.85 -60.35 114.7 M-46.9 196.8 L-59.5 193.9 -61.95 190.1 -61.1 190.1 -59.2 183.25 Q-46.25 184.2 -33.3 183.1 -29.75 187.15 -30.5 192.75 L-30.7 195.4 -46.9 196.8 M-35.45 180.8 Q-47.05 181.35 -58.5 179.65 L-56.5 175.65 Q-54.35 171.65 -53.95 167.2 L-42.2 175.15 Q-38.15 178.1 -35.45 180.8 M-22.4 206.35 Q-20.7 207.85 -19.6 209.5 -17.25 213.25 -17.25 219.0 -17.25 220.35 -17.6 220.95 L-18.05 221.85 Q-24.95 217.35 -44.7 214.65 L-65.15 212.65 Q-64.6 205.55 -60.5 199.5 L-60.15 198.95 -22.4 206.35" fill="#70546f" fill-rule="evenodd" stroke="none"/>
    <path d="M-110.4 96.5 Q-100.8 116.25 -82.5 127.5 L-79.95 128.85 Q-93.5 128.1 -104.1 119.3 L-118.25 107.45 -118.25 91.35 -110.4 96.5 M-112.3 122.85 L-110.95 118.8 Q-101.8 126.85 -90.55 131.35 -72.8 138.4 -54.05 143.1 L-54.8 147.25 -81.9 139.0 -80.85 139.9 -84.45 139.2 Q-70.95 147.6 -55.25 150.3 L-55.6 150.55 -55.25 150.8 -57.0 164.9 Q-66.9 157.6 -77.75 151.65 -97.85 140.6 -112.3 122.85 M-50.85 143.8 Q-27.4 149.1 -3.35 146.3 9.1 144.95 20.35 139.3 L31.1 175.85 Q32.45 180.6 32.85 185.6 L33.5 195.45 Q23.95 188.6 19.7 177.1 L17.8 172.8 Q20.35 188.8 30.95 199.95 L32.05 200.8 31.75 223.15 16.05 215.15 Q29.1 222.3 34.55 235.2 35.3 236.95 34.8 239.1 L33.45 243.15 27.0 243.4 Q4.4 234.65 -18.9 228.2 -38.35 223.0 -58.45 220.6 L-62.75 219.95 -65.15 212.65 -44.7 214.65 Q-24.95 217.35 -18.05 221.85 L-17.6 220.95 Q-17.25 220.35 -17.25 219.0 -17.25 213.25 -19.6 209.5 -20.7 207.85 -22.4 206.35 L-7.5 208.6 -7.4 208.05 -46.9 196.8 -30.7 195.4 -30.5 192.75 Q-29.75 187.15 -33.3 183.1 -29.2 182.4 -26.65 181.2 L-26.8 180.7 Q-28.35 180.6 -35.45 180.8 -38.15 178.1 -42.2 175.15 L-53.95 167.2 -52.4 151.55 Q-41.0 154.75 -29.1 154.55 L-7.45 153.5 Q3.4 153.4 11.35 146.0 L6.9 147.4 9.2 146.6 Q3.5 148.25 -2.2 149.05 -24.7 151.8 -47.4 149.1 L-47.65 148.6 -51.7 147.85 -50.85 143.8 M-66.05 219.95 Q-90.0 220.35 -113.05 225.8 L-118.25 227.3 -118.25 221.0 Q-95.4 212.0 -70.65 212.55 L-68.3 212.65 -68.1 214.1 Q-67.55 217.15 -66.05 219.95" fill="#4d3a4e" fill-rule="evenodd" stroke="none"/>
    <path d="M-118.25 112.7 L-114.1 116.15 -118.25 130.25 -118.25 112.7 M23.95 137.85 L34.25 131.45 40.05 127.05 45.7 122.3 Q65.7 133.85 77.5 153.8 80.3 158.6 81.75 163.95 83.8 171.5 82.35 179.3 82.05 180.8 80.95 181.7 71.0 190.05 57.3 192.4 66.85 191.2 76.15 188.15 79.6 186.95 82.65 185.05 83.4 186.75 84.7 188.4 L87.9 193.15 89.05 195.6 89.55 197.25 Q84.25 202.45 77.75 206.3 59.45 217.1 38.35 220.5 L35.8 189.45 43.8 189.3 41.8 188.4 40.2 187.7 39.0 187.25 38.2 186.95 35.4 186.6 34.7 180.25 Q31.15 158.7 23.95 137.85" fill="#444444" fill-rule="evenodd" stroke="none"/>
    <path d="M-54.05 143.1 L-50.85 143.8 -51.7 147.85 -47.65 148.6 -47.4 149.1 Q-24.7 151.8 -2.2 149.05 3.5 148.25 9.2 146.6 L6.9 147.4 11.35 146.0 Q3.4 153.4 -7.45 153.5 L-29.1 154.55 Q-41.0 154.75 -52.4 151.55 L-53.95 167.2 Q-54.35 171.65 -56.5 175.65 L-58.5 179.65 Q-47.05 181.35 -35.45 180.8 -28.35 180.6 -26.8 180.7 L-26.65 181.2 Q-29.2 182.4 -33.3 183.1 -46.25 184.2 -59.2 183.25 L-61.1 190.1 -61.95 190.1 -59.5 193.9 -46.9 196.8 -7.4 208.05 -7.5 208.6 -22.4 206.35 -60.15 198.95 -60.5 199.5 Q-64.6 205.55 -65.15 212.65 L-62.75 219.95 -66.05 219.95 Q-67.55 217.15 -68.1 214.1 L-68.3 212.65 -63.45 198.4 Q-75.7 195.6 -88.1 197.55 -98.8 199.3 -108.95 201.5 -103.55 198.6 -97.75 196.5 -81.65 190.5 -64.65 193.2 L-63.45 182.85 -67.1 182.4 Q-80.0 180.35 -91.85 174.55 -76.25 178.15 -60.5 179.65 L-59.85 177.95 Q-57.55 171.5 -57.0 164.9 L-55.25 150.8 -55.6 150.55 -55.25 150.3 Q-70.95 147.6 -84.45 139.2 L-80.85 139.9 -81.9 139.0 -54.8 147.25 -54.05 143.1 M33.5 195.45 Q35.8 219.3 36.85 243.0 36.95 244.85 36.65 246.75 L36.6 246.8 36.65 246.85 36.15 249.3 27.0 243.4 33.45 243.15 34.8 239.1 Q35.3 236.95 34.55 235.2 29.1 222.3 16.05 215.15 L31.75 223.15 32.05 200.8 30.95 199.95 Q20.35 188.8 17.8 172.8 L19.7 177.1 Q23.95 188.6 33.5 195.45 M-118.25 175.55 L-116.95 181.85 -115.6 181.65 -115.5 182.2 Q-112.35 179.15 -108.1 179.1 -118.5 187.1 -117.9 200.2 L-117.4 200.55 -117.4 201.9 -112.55 198.6 -118.25 206.4 -118.25 175.55" fill="#2f2530" fill-rule="evenodd" stroke="none"/>
    <path d="M39.6 270.2 L37.25 256.5 Q43.2 247.3 40.05 236.2 38.3 230.05 38.6 223.95 65.55 220.55 87.4 203.75 L93.65 223.3 101.75 258.3 73.25 270.2 39.6 270.2" fill="#1e1e1e" fill-rule="evenodd" stroke="none"/>
  </g>
</svg>
