<?xml version="1.0" encoding="UTF-8" standalone="no"?>
<svg xmlns:xlink="http://www.w3.org/1999/xlink" height="448.7px" width="235.9px" xmlns="http://www.w3.org/2000/svg">
  <g transform="matrix(1.0, 0.0, 0.0, 1.0, 119.25, 175.4)">
    <path d="M39.35 -113.15 Q58.9 -108.45 77.3 -99.7 L81.0 -97.85 Q81.3 -111.1 74.7 -122.45 61.55 -145.05 37.7 -156.45 15.9 -166.3 -7.9 -168.95 -33.05 -171.55 -58.2 -168.55 -84.0 -165.15 -103.7 -148.9 -113.2 -141.15 -119.25 -130.45 L-119.25 -137.7 Q-106.15 -157.05 -84.85 -166.0 -61.6 -175.7 -36.1 -175.4 -18.05 -175.2 -0.15 -172.6 23.35 -169.35 44.3 -158.5 52.25 -154.35 59.15 -148.4 77.0 -133.2 84.1 -110.95 86.65 -103.0 86.95 -94.55 103.9 -84.65 113.35 -67.85 116.9 -61.5 116.65 -54.25 116.3 -43.65 110.45 -34.75 104.9 -26.4 96.05 -21.85 92.1 -19.8 87.95 -19.1 88.3 11.7 83.1 41.95 79.15 65.1 72.7 87.65 69.8 97.65 66.3 107.5 L67.3 109.0 68.2 110.5 68.8 111.75 70.4 115.85 66.05 121.85 Q68.35 124.95 70.3 128.25 71.55 130.35 71.2 132.65 70.8 135.3 68.75 137.35 67.7 138.45 66.9 139.8 74.65 148.0 81.15 157.1 88.25 166.95 89.9 179.05 90.7 184.9 87.8 189.95 L92.95 198.55 Q96.1 204.2 97.25 210.4 L93.6 213.25 Q101.65 235.55 103.75 259.2 L104.2 264.6 104.85 265.45 Q88.7 270.15 71.95 272.5 L58.4 273.2 Q80.2 270.1 101.65 265.05 98.4 239.65 89.8 215.6 66.7 230.1 39.5 232.15 39.35 235.65 40.2 239.05 42.05 246.65 40.9 254.6 39.55 263.85 39.65 273.2 L-114.95 273.2 -119.25 272.4 -119.25 239.6 Q-103.8 233.15 -86.05 230.75 L-86.4 226.05 Q-86.05 220.05 -87.2 213.95 L-87.9 210.6 Q-101.35 212.5 -114.35 216.8 L-116.3 217.15 -115.55 215.35 Q-102.0 210.9 -87.95 208.75 -94.75 164.7 -108.85 122.7 -117.55 144.6 -117.35 168.45 -117.2 186.05 -119.25 203.65 L-119.25 148.75 Q-117.95 129.6 -108.05 113.5 L-106.3 110.75 -119.25 96.8 -119.25 94.0 -84.95 126.2 Q-66.5 143.35 -45.1 156.1 -31.65 164.05 -16.05 164.6 L-3.4 163.8 Q20.15 161.3 39.7 146.75 48.75 139.95 58.6 134.6 L64.0 137.6 68.0 133.0 Q67.85 130.45 66.35 128.45 L61.6 121.85 65.95 116.2 65.85 115.15 65.7 114.5 65.35 113.8 64.95 113.05 64.45 112.4 63.5 114.65 61.9 114.5 Q64.15 96.85 70.0 79.9 73.4 69.9 75.85 59.65 87.45 11.7 83.5 -37.25 83.0 -43.1 81.15 -48.55 L79.05 -54.5 Q73.7 -61.8 67.15 -68.25 L66.9 -68.4 67.05 -68.2 69.25 -57.35 Q76.65 -55.9 76.65 -48.15 76.65 -42.35 71.65 -40.15 L72.55 -28.8 Q81.05 -26.65 79.65 -17.95 78.6 -11.5 72.8 -10.65 L72.95 -5.0 Q79.55 1.05 75.9 9.5 74.65 12.35 71.55 12.5 L70.7 22.1 72.05 22.65 Q77.3 24.95 76.4 30.65 L76.8 31.15 Q76.2 33.9 74.8 36.45 72.65 40.45 68.25 40.25 L67.35 46.1 Q72.6 48.45 72.05 54.1 71.4 61.0 64.7 61.85 L63.25 68.65 Q69.55 76.45 63.8 84.25 61.95 86.75 58.8 86.45 L57.95 89.45 Q64.0 94.15 61.5 101.95 59.35 108.6 52.9 108.05 L52.8 111.05 Q55.65 113.8 55.9 117.7 56.2 122.05 53.3 125.45 L54.6 125.05 Q36.0 146.9 7.45 152.95 -17.05 158.1 -40.2 148.25 -62.65 138.7 -78.95 120.3 -94.95 102.2 -111.45 84.65 L-107.7 86.45 Q-114.65 52.6 -114.85 18.0 -115.0 -7.2 -114.1 -32.35 -112.55 -56.2 -105.45 -78.95 L-109.15 -77.35 Q-114.45 -74.95 -119.25 -72.05 L-119.25 -76.35 Q-111.65 -80.75 -103.45 -84.2 -72.1 -97.1 -38.1 -97.85 4.3 -98.8 44.4 -84.95 55.1 -81.15 64.2 -74.45 90.05 -55.25 88.4 -23.45 90.6 -23.55 92.55 -24.45 113.1 -34.75 112.6 -57.9 109.1 -75.6 93.15 -85.95 72.7 -99.25 49.35 -106.45 25.3 -114.05 0.1 -117.0 L-12.45 -118.15 Q-23.4 -118.6 -36.95 -118.0 L-68.1 -115.75 -90.4 -112.55 Q-107.4 -109.5 -119.25 -104.65 L-119.25 -109.5 Q-105.75 -113.8 -91.75 -116.2 -66.9 -120.25 -41.7 -121.6 -24.95 -122.6 -8.05 -121.25 15.95 -118.8 39.35 -113.15 M-119.25 -118.55 Q-117.7 -125.85 -112.4 -122.35 -111.15 -121.5 -111.95 -119.8 -114.75 -113.5 -119.25 -118.15 L-119.25 -118.55 M58.65 -121.35 Q63.85 -118.4 61.2 -112.55 60.7 -111.4 59.5 -111.4 55.7 -112.0 55.25 -115.85 54.8 -119.3 57.8 -121.0 L58.65 -121.35 M57.15 -118.15 Q56.3 -114.95 58.9 -113.25 60.6 -114.65 60.55 -116.9 60.55 -118.45 59.1 -118.75 57.5 -119.3 57.15 -118.15 M64.95 -57.0 L62.95 -71.9 60.1 -73.95 57.5 -72.85 Q55.7 -66.5 57.7 -60.25 L58.85 -59.35 Q60.75 -56.2 60.65 -52.55 L60.6 -52.0 Q60.25 -49.55 58.05 -49.55 L58.9 -31.65 60.4 -33.2 62.75 -32.9 Q64.4 -32.8 65.55 -33.85 L66.15 -33.2 66.05 -33.95 Q65.65 -36.85 65.5 -39.75 65.3 -42.7 66.4 -45.2 L66.45 -45.25 67.3 -45.3 Q73.3 -46.95 68.6 -52.5 68.55 -48.6 66.5 -45.35 69.1 -51.3 64.7 -56.8 65.35 -56.55 65.1 -56.95 L64.95 -57.0 M44.75 -59.1 L44.05 -60.5 44.6 -60.8 46.5 -56.2 Q51.65 -52.6 57.7 -51.2 60.8 -53.9 57.75 -56.95 54.7 -60.05 50.2 -61.35 49.15 -61.65 48.65 -62.65 46.3 -67.25 42.0 -68.65 L38.85 -68.55 Q32.35 -65.85 26.35 -68.65 L26.25 -68.75 26.25 -68.55 Q26.0 -66.2 24.8 -63.95 L24.2 -62.95 Q29.85 -62.4 34.9 -59.95 L40.3 -62.7 Q42.1 -62.0 43.25 -60.75 L43.55 -60.4 43.35 -59.95 40.55 -60.95 36.6 -59.0 Q36.75 -50.1 37.6 -41.35 L39.15 -40.15 Q42.05 -36.6 39.65 -32.6 L38.9 -31.5 39.15 -30.65 38.5 -30.05 38.45 -29.45 37.7 -29.25 36.0 -15.25 Q40.65 -16.3 44.15 -13.35 44.15 -13.3 44.25 -13.3 L44.25 -13.35 45.35 -26.0 45.45 -26.3 45.3 -26.35 45.25 -26.9 46.0 -27.1 Q49.55 -29.95 49.0 -34.5 L47.7 -37.65 Q43.1 -47.7 44.3 -58.95 L44.75 -59.05 44.85 -58.5 44.8 -59.05 44.75 -59.1 M41.95 -70.75 L43.65 -69.85 43.1 -79.5 Q41.15 -81.85 39.05 -80.0 35.1 -76.6 36.55 -70.55 L38.45 -71.2 Q40.3 -71.55 41.95 -70.75 M71.25 -44.05 L71.5 -41.55 Q73.3 -42.95 74.15 -45.2 76.95 -52.6 69.5 -56.3 L70.0 -52.85 70.85 -51.75 Q73.65 -47.9 71.1 -44.2 L70.7 -43.9 71.25 -44.05 M14.3 -50.7 L18.35 -50.7 19.65 -50.5 20.95 -50.0 Q20.85 -57.7 23.5 -64.9 24.25 -66.85 23.65 -68.55 20.7 -76.8 20.95 -85.7 21.05 -88.85 18.0 -89.15 16.7 -88.85 16.05 -87.7 L15.2 -85.85 14.7 -84.65 14.3 -84.05 14.25 -75.95 15.8 -73.8 Q16.4 -72.8 16.3 -71.75 L14.2 -50.8 14.25 -50.7 14.3 -50.7 M15.3 -69.9 Q15.15 -72.7 13.55 -75.0 4.25 -74.45 -2.5 -80.8 L-3.1 -81.85 Q-5.45 -84.35 -8.65 -82.55 -10.35 -81.6 -11.65 -80.05 L-24.65 -80.85 Q-22.95 -78.8 -23.3 -76.15 L-23.65 -73.55 -24.15 -72.95 -22.75 -72.95 -21.6 -72.6 -12.45 -71.8 Q-11.65 -71.8 -11.05 -72.55 -8.2 -75.85 -4.15 -74.65 L-1.2 -71.0 -1.05 -71.2 Q6.2 -68.55 13.75 -67.0 15.45 -67.85 15.3 -69.9 M23.65 -44.55 Q19.3 -52.05 11.05 -48.15 7.85 -46.6 4.3 -47.45 L2.95 -47.75 Q1.3 -47.9 0.0 -49.0 L0.0 -47.75 -0.2 -45.6 Q-0.6 -43.1 -2.4 -41.3 3.45 -39.3 9.7 -39.45 12.0 -39.5 13.9 -40.5 19.65 -43.4 22.95 -36.95 L23.1 -35.8 24.85 -34.65 Q31.15 -30.9 38.2 -32.3 39.15 -32.95 39.55 -34.2 40.0 -35.7 38.6 -36.5 L23.65 -44.55 M14.95 8.3 L19.05 9.75 Q17.55 3.1 20.45 -3.05 23.35 -9.25 21.6 -16.0 19.6 -23.6 21.7 -31.1 23.35 -36.85 18.7 -39.2 17.05 -40.0 16.35 -38.65 12.95 -32.15 13.55 -24.3 13.45 -19.1 15.5 -14.15 L15.5 -13.65 Q14.85 -10.8 13.05 -8.4 L12.5 -8.05 10.1 8.8 12.5 8.3 14.95 8.3 M12.95 -10.35 Q14.15 -11.75 14.4 -13.55 14.75 -15.8 13.2 -17.4 8.15 -16.2 3.2 -17.95 -3.25 -20.05 -8.9 -23.9 -10.05 -24.7 -11.25 -24.1 -18.85 -21.05 -27.15 -21.95 L-27.85 -16.6 -29.0 -14.2 -19.05 -13.45 -17.95 -13.3 Q-17.35 -15.1 -15.4 -15.85 -11.55 -18.25 -8.3 -14.7 -6.5 -12.7 -4.05 -11.8 3.8 -9.1 12.2 -9.35 L12.95 -10.35 M54.45 -5.85 Q49.35 -6.65 45.7 -9.55 L45.1 -10.2 44.85 -8.95 44.3 -9.4 Q44.4 -13.9 39.65 -13.6 L37.2 -13.45 34.55 -11.1 Q29.0 -11.5 24.45 -14.3 24.25 -9.95 22.1 -6.1 27.2 -3.85 32.7 -3.7 35.0 -3.6 36.7 -5.1 L42.25 -4.65 47.3 0.35 53.3 1.7 58.15 3.4 Q60.15 1.95 59.85 -0.3 L59.05 -4.3 54.45 -5.85 M38.8 -4.4 L38.3 -4.6 37.95 -4.35 Q37.1 -4.35 36.55 -3.15 35.95 -2.0 35.95 -0.35 L34.0 13.45 Q33.85 14.55 34.4 15.35 35.95 17.45 35.35 20.05 32.4 32.55 31.35 45.4 31.95 46.65 32.95 47.3 34.2 48.1 35.6 47.95 L37.45 47.3 Q38.45 35.7 44.05 25.4 44.65 24.3 44.3 23.25 40.7 12.85 42.9 2.2 L43.7 -0.15 41.8 -2.7 Q40.6 -4.0 38.8 -4.4 M53.1 -24.15 L58.0 -21.6 61.45 -22.9 Q64.3 -23.75 65.95 -21.3 68.55 -17.3 72.7 -18.75 75.6 -19.9 73.7 -22.0 L70.3 -26.15 Q67.6 -29.5 64.05 -32.2 L59.05 -29.6 58.9 -30.05 Q55.3 -31.6 51.75 -33.1 L49.95 -33.4 Q50.0 -29.65 47.3 -27.05 48.85 -25.5 51.15 -25.1 L52.9 -24.2 53.1 -24.15 M72.55 -28.3 L72.65 -26.7 Q75.55 -25.15 75.9 -21.85 76.3 -18.2 72.85 -16.7 L72.85 -11.55 Q74.5 -12.0 75.45 -13.25 82.4 -22.2 72.55 -28.3 M58.0 -8.1 L58.3 -6.8 60.35 -4.9 60.15 -4.4 Q63.2 0.45 59.5 4.05 L58.85 4.45 57.8 20.05 Q61.85 19.8 64.9 23.15 65.35 16.9 66.1 10.7 66.3 9.15 66.85 7.65 L66.6 6.8 67.45 6.7 Q70.5 2.8 68.05 -1.35 63.05 -9.8 65.75 -19.3 65.95 -20.05 65.45 -20.8 L64.85 -21.35 Q61.45 -22.15 58.65 -20.15 56.9 -14.2 58.0 -8.1 M70.2 -2.1 L68.9 -3.4 69.8 -1.7 Q71.75 2.6 68.9 6.45 L69.7 6.05 Q74.1 2.55 70.2 -2.1 M71.5 6.75 L71.0 7.55 71.7 6.95 71.7 11.4 Q80.55 4.75 72.65 -4.85 74.85 1.45 71.5 6.75 M50.2 22.35 Q47.95 21.5 45.75 20.25 L46.0 22.6 Q46.0 25.1 44.6 27.3 L47.4 28.25 Q52.75 31.8 57.4 29.05 59.55 29.45 61.4 30.55 63.85 31.95 66.4 33.05 70.6 34.7 70.5 29.5 L62.35 23.1 Q59.3 20.7 56.2 23.4 L50.2 22.35 M48.1 47.9 Q44.55 47.75 41.25 46.8 L40.55 46.75 Q37.7 49.9 33.45 49.3 L29.45 44.9 Q23.45 44.55 18.0 42.55 19.7 47.1 16.55 50.85 L27.35 51.75 29.6 54.1 Q31.4 57.2 35.4 56.55 L40.3 55.3 Q43.25 54.3 46.3 55.3 L51.65 56.35 Q53.3 54.75 53.6 52.55 53.9 50.05 52.55 48.0 L48.1 47.9 M68.5 38.4 L69.7 38.6 Q74.6 36.35 75.2 31.25 75.9 25.3 70.7 22.3 L69.8 27.15 Q72.6 29.3 71.05 33.05 70.5 34.45 69.05 34.95 L68.5 38.4 M53.2 48.0 L54.0 48.05 54.75 50.0 Q55.0 50.85 54.65 51.55 49.55 62.45 48.85 74.7 L49.05 74.8 49.2 75.05 Q49.65 77.95 52.6 77.2 53.75 77.0 54.2 75.9 L61.75 56.45 Q62.3 54.95 62.0 53.55 59.65 43.45 62.55 33.45 L61.25 31.85 Q58.7 28.85 55.25 32.05 53.5 40.0 53.2 48.0 M10.05 18.35 L11.1 18.05 Q16.3 17.4 19.85 21.15 L20.8 21.85 Q26.95 23.9 33.55 24.2 35.95 21.05 34.1 17.5 L33.5 16.45 Q25.05 17.05 19.0 11.7 16.1 8.7 12.05 9.65 L7.85 10.35 -6.15 9.35 Q-5.55 12.65 -7.0 15.55 L-8.05 17.15 7.1 19.25 8.7 19.45 Q9.25 18.7 10.05 18.35 M16.6 23.3 L16.75 22.45 16.45 21.8 Q15.05 16.4 10.4 20.7 10.1 20.9 9.9 21.25 9.1 23.95 8.7 26.75 7.8 33.35 7.3 40.0 L9.15 46.15 Q9.0 47.15 8.45 47.9 L7.6 49.0 7.5 49.65 6.95 49.7 Q5.0 51.95 5.1 55.05 L5.05 56.35 4.95 57.2 4.75 60.5 4.65 61.95 Q3.8 65.35 4.2 68.85 L4.5 71.15 Q7.0 73.25 10.0 72.0 12.75 70.75 11.45 68.2 11.35 56.35 16.2 45.85 16.8 44.5 16.15 43.05 11.8 33.45 16.6 23.3 M4.15 48.6 L6.55 48.8 6.8 48.4 7.85 45.95 6.25 40.4 Q-3.1 39.25 -12.2 40.3 L-12.3 40.9 -13.9 40.95 Q-17.45 41.0 -20.8 39.8 L-21.05 38.15 -19.9 38.95 -21.05 38.1 Q-23.9 37.35 -26.85 37.35 -30.2 37.4 -32.9 35.4 L-32.55 40.45 -32.8 41.1 -33.25 42.35 -33.5 42.7 -32.95 42.7 -22.95 44.7 -21.85 46.45 -21.95 46.45 Q-21.85 48.1 -20.5 48.7 -18.2 49.65 -15.7 49.3 L-15.15 49.1 -15.05 48.8 -14.5 48.25 Q-12.8 48.35 -11.65 47.15 -3.75 47.3 4.15 48.6 M26.95 80.55 L27.1 81.85 26.55 81.9 22.25 101.4 23.9 102.15 Q28.65 103.95 30.25 99.9 L29.9 99.0 Q32.45 90.75 32.9 81.8 L35.1 79.6 Q36.8 77.1 36.65 74.0 L36.1 73.85 Q32.2 68.2 34.9 61.3 L33.4 61.3 Q30.7 61.0 28.5 59.5 L26.85 72.1 27.55 72.15 27.1 72.85 27.45 74.15 Q27.9 77.45 26.9 80.55 L26.9 80.6 26.95 80.55 M-11.1 70.5 L-11.7 70.25 Q-10.1 74.1 -12.8 77.35 -6.85 78.75 -1.0 78.2 1.65 78.4 2.8 80.9 L3.25 80.75 3.05 81.4 Q5.65 84.2 9.25 82.2 L9.5 81.2 25.8 80.65 Q27.65 76.75 26.1 72.75 L13.8 73.1 12.1 73.3 5.0 73.1 Q3.0 72.0 0.4 71.75 L-4.65 71.3 Q-8.0 71.5 -11.1 70.5 M8.7 86.75 L9.3 84.75 8.85 84.6 8.85 83.9 5.25 84.1 Q3.6 84.05 2.7 82.95 L1.65 86.4 0.25 91.85 Q-0.95 96.35 0.7 100.8 3.0 106.9 -2.95 108.8 -6.2 119.55 -7.45 130.65 -6.15 132.2 -4.1 131.8 1.2 131.0 1.2 125.15 1.2 114.15 7.55 105.6 L7.85 104.7 Q5.1 95.9 8.6 87.1 L8.7 86.75 M39.1 82.35 L39.9 82.45 39.05 82.25 38.25 82.05 40.65 81.75 46.5 83.0 46.8 84.5 Q47.1 85.8 48.4 86.0 56.0 86.8 61.15 80.15 L60.15 76.45 57.1 76.15 Q56.8 77.7 55.5 78.1 50.8 79.65 47.6 75.85 L46.3 76.1 Q44.1 76.15 42.25 75.1 L37.7 75.05 Q37.8 77.6 36.85 79.9 L35.65 81.9 39.1 82.35 M64.65 57.1 Q67.75 54.25 65.15 51.05 64.1 49.7 62.7 48.7 64.45 53.3 62.95 57.75 L64.65 57.1 M67.75 53.9 Q67.45 56.7 65.2 58.55 L64.9 60.7 66.2 60.0 Q73.6 54.5 67.3 47.0 L66.8 49.65 Q68.0 51.45 67.75 53.9 M59.4 84.45 L59.3 85.3 Q63.75 84.95 65.15 80.75 67.25 74.5 63.05 69.8 L61.6 75.8 Q63.55 79.5 61.35 82.7 60.6 83.75 59.3 84.1 L58.5 84.25 59.4 84.45 M46.35 86.7 L43.85 95.15 44.9 97.0 Q45.3 97.9 44.9 98.6 39.4 108.15 39.1 119.15 L40.3 120.55 Q42.6 121.3 44.8 120.1 45.65 119.65 45.7 118.85 46.35 108.9 52.15 101.4 53.25 99.95 52.8 98.6 50.9 92.85 53.3 87.4 L52.3 87.8 Q48.9 89.15 46.4 86.7 L46.35 86.5 46.35 86.7 M54.95 91.4 L54.9 91.5 Q55.5 91.7 54.95 91.4 M54.0 101.35 L54.6 101.55 Q57.1 100.35 56.85 97.15 L56.35 95.15 Q55.65 93.55 53.95 92.95 L53.15 93.1 Q55.85 97.05 53.95 101.25 L53.9 101.55 54.0 101.35 M32.55 107.95 L41.3 104.6 Q42.95 102.05 43.75 99.35 44.15 97.95 43.1 96.8 40.85 98.15 38.5 98.7 L35.5 99.55 Q32.55 100.15 30.35 102.1 24.5 107.5 20.8 101.35 14.65 102.6 8.55 100.45 10.65 104.75 7.7 108.2 15.15 106.9 20.95 111.3 22.35 112.45 24.1 112.1 28.75 110.9 32.55 107.95 M56.85 93.3 L57.05 93.7 Q59.85 99.6 54.5 103.2 L53.8 103.55 53.1 107.15 Q58.55 105.8 60.15 100.4 61.8 94.8 57.75 90.35 L56.85 93.3 M47.1 119.7 Q42.65 124.4 36.85 120.7 31.95 124.2 26.3 124.55 30.15 130.25 25.25 133.85 L25.0 134.2 25.05 134.45 25.5 134.6 Q34.05 130.15 43.4 128.55 44.9 128.15 45.95 127.1 49.3 123.8 47.5 119.55 L47.1 119.7 M49.4 114.55 Q52.55 119.65 49.2 125.6 55.95 122.5 53.25 115.0 L51.8 111.85 50.7 111.75 50.35 112.0 49.4 114.55 M51.5 142.25 L29.15 156.4 Q34.75 174.4 36.5 193.3 39.15 194.95 41.1 197.15 42.25 198.45 43.65 199.35 L48.05 202.15 46.85 202.3 43.2 201.8 Q39.5 200.45 36.85 197.5 L37.1 200.0 Q38.65 214.7 39.05 229.35 46.65 228.75 54.1 226.95 60.7 225.4 67.1 223.0 78.7 218.45 89.25 211.9 91.75 210.35 91.0 207.65 88.95 200.45 86.15 193.55 82.7 197.65 77.85 199.55 70.75 202.5 63.15 201.65 72.9 198.95 80.75 192.55 83.85 190.0 85.0 186.1 86.7 180.4 84.8 174.7 83.9 171.95 82.65 169.35 73.85 151.25 58.0 138.75 L51.5 142.25 M24.85 117.25 L25.7 114.15 21.6 114.0 Q20.05 113.5 18.95 112.3 L18.0 116.1 Q14.55 122.3 17.6 126.95 L18.35 129.4 18.0 130.15 Q18.55 131.8 17.95 133.1 16.85 135.4 14.45 136.85 L14.15 138.2 Q13.2 141.35 13.95 144.55 L14.75 145.75 Q20.4 145.75 20.75 139.95 20.9 137.65 22.5 136.35 28.25 131.7 24.95 125.8 L23.65 123.5 24.15 123.2 Q24.2 120.2 24.85 117.25 M41.15 134.3 L43.8 130.85 36.85 131.6 37.55 135.25 41.15 134.3 M15.2 129.2 L14.2 128.45 Q9.1 130.55 3.7 131.25 L2.35 131.25 Q-2.35 136.9 -9.2 133.45 -12.35 131.85 -15.6 130.5 L-22.1 127.5 Q-20.8 131.55 -22.8 135.1 L-23.7 136.45 Q-17.15 136.65 -11.25 139.0 -10.2 139.45 -9.3 140.25 L-8.1 140.55 -8.05 141.35 Q-0.6 144.95 7.1 139.2 10.5 136.7 14.1 135.0 18.7 132.85 15.2 129.2 M-32.4 231.95 L-32.3 234.8 Q-8.0 237.4 14.5 247.05 25.85 251.95 36.75 256.35 39.35 253.4 38.85 249.4 37.95 241.95 33.55 235.7 L30.45 231.65 31.0 231.15 32.35 232.0 34.8 234.45 36.85 237.2 37.7 238.55 Q35.25 212.5 31.95 186.5 30.15 171.95 26.8 157.5 10.65 165.95 -7.3 167.4 L-7.75 167.15 Q-29.0 170.25 -47.6 159.95 -51.65 157.75 -55.3 154.8 L-48.3 174.2 -48.0 175.35 -46.95 175.45 Q-27.25 178.4 -10.1 188.25 -13.75 188.6 -16.95 186.65 -18.15 185.9 -19.5 185.5 -30.8 181.65 -42.45 179.3 L-46.9 178.65 -40.1 203.25 -38.95 209.9 -37.45 210.2 Q-13.6 214.35 8.35 225.0 L7.25 225.3 2.95 223.25 -38.2 212.35 -32.4 231.95 M-20.3 -130.5 Q-20.1 -128.75 -20.85 -127.25 -22.1 -124.8 -24.9 -125.55 L-25.95 -126.15 Q-28.85 -128.8 -26.75 -132.7 -26.05 -134.05 -24.6 -134.3 -20.65 -134.55 -20.3 -130.5 M-22.5 -131.8 L-25.65 -131.65 -25.55 -127.4 -24.0 -127.6 Q-21.05 -129.2 -22.5 -131.8 M-117.65 -117.75 Q-114.5 -117.65 -113.45 -120.5 -113.05 -121.5 -113.4 -122.45 -117.45 -122.35 -117.55 -118.65 L-117.65 -117.75 M-85.15 -42.35 Q-87.7 -45.25 -86.55 -49.0 -85.4 -52.8 -82.7 -55.55 -81.85 -56.4 -80.5 -56.4 L-78.25 -69.4 Q-80.5 -70.4 -81.1 -72.75 -82.3 -77.8 -80.55 -82.4 -79.65 -84.8 -76.95 -85.5 L-73.95 -86.2 -72.2 -90.5 Q-87.75 -87.35 -101.85 -80.5 -106.0 -68.7 -107.8 -56.45 L-109.0 -48.5 Q-110.1 -41.3 -110.7 -33.95 -114.7 27.45 -105.0 88.0 -98.2 92.8 -92.55 98.9 L-91.6 97.25 Q-90.05 94.95 -87.5 93.85 L-88.0 88.85 -89.7 88.55 -92.55 83.3 Q-96.85 74.6 -88.95 70.2 L-89.1 65.75 Q-91.4 65.05 -92.7 62.9 -98.7 52.85 -89.4 46.7 L-89.35 41.35 -90.7 40.1 Q-98.55 30.6 -88.75 22.45 L-88.45 15.95 -89.7 14.8 Q-97.7 4.7 -87.3 -3.2 -87.3 -3.1 -87.1 -3.05 L-87.1 -3.15 -86.35 -11.9 Q-90.55 -15.35 -90.0 -20.6 -89.4 -25.95 -85.1 -29.5 L-84.55 -28.95 -83.2 -39.1 -85.15 -42.35 M-84.0 -42.7 L-82.9 -41.25 -82.6 -43.0 Q-82.25 -48.75 -80.5 -54.2 L-80.8 -54.6 -80.8 -54.95 -80.95 -54.65 Q-88.05 -50.9 -84.45 -43.4 L-84.0 -42.7 M-86.1 -14.85 L-85.6 -15.1 -85.35 -15.85 -85.85 -16.7 -84.4 -27.2 -84.7 -27.8 -85.35 -28.0 Q-87.4 -26.45 -88.4 -24.15 -90.6 -19.15 -87.2 -15.0 L-86.5 -14.85 -86.15 -14.5 -86.1 -14.85 M-73.45 -24.15 L-78.3 -24.0 Q-83.65 -24.4 -84.5 -20.0 -84.7 -18.85 -83.75 -18.55 -76.55 -16.1 -68.35 -16.6 -65.75 -19.95 -61.4 -19.45 -59.1 -19.1 -57.6 -17.15 L-57.35 -15.8 -54.3 -15.35 Q-49.35 -14.35 -44.7 -15.1 L-40.05 -16.55 -38.3 -18.6 Q-37.8 -19.7 -38.35 -20.95 L-39.4 -23.05 Q-44.65 -21.5 -50.35 -22.4 -53.8 -22.65 -57.0 -24.35 -58.0 -24.9 -58.0 -26.15 -60.35 -28.2 -63.3 -26.85 -64.85 -26.05 -66.0 -24.55 L-73.45 -24.15 M-5.75 -92.85 L-8.5 -91.95 Q-11.3 -87.95 -9.75 -83.3 -7.55 -84.7 -4.85 -84.55 -2.9 -84.1 -1.7 -82.6 L-3.0 -92.8 -5.75 -92.85 M-28.8 -58.15 L-28.3 -70.15 -26.25 -72.95 -25.7 -72.95 -24.25 -75.1 -24.4 -75.6 Q-25.05 -78.9 -27.25 -81.35 -24.8 -89.25 -28.9 -94.4 -29.45 -95.15 -30.65 -95.15 -33.5 -95.3 -33.9 -92.45 -34.6 -87.3 -34.6 -82.0 L-35.05 -81.5 Q-31.25 -78.35 -33.25 -73.4 -34.9 -69.5 -35.5 -65.2 L-36.5 -56.7 -34.75 -57.5 Q-32.3 -58.65 -29.65 -58.1 L-28.7 -57.75 -28.8 -58.15 M-73.9 -72.65 L-61.95 -73.4 -60.45 -74.8 Q-58.0 -77.15 -54.8 -76.75 L-53.3 -75.05 -52.2 -74.75 -52.2 -74.25 Q-43.25 -72.25 -35.25 -75.1 -34.4 -75.45 -34.4 -76.55 -34.35 -79.1 -35.95 -81.05 L-49.65 -80.95 -50.0 -80.55 -51.1 -80.35 -54.8 -84.25 -59.65 -83.45 -59.95 -83.25 Q-63.3 -79.5 -68.3 -79.4 L-70.9 -79.45 -71.2 -80.15 -71.65 -79.95 Q-74.95 -80.3 -76.0 -77.35 -76.9 -74.7 -74.5 -73.8 L-74.15 -72.85 -74.3 -72.75 -73.9 -72.65 M-10.65 -48.75 L-11.6 -50.3 Q-18.75 -51.5 -25.7 -53.3 -27.95 -53.9 -29.75 -55.35 -31.85 -57.05 -34.25 -55.6 -42.85 -50.3 -52.7 -54.55 L-52.3 -53.5 Q-51.5 -50.8 -52.05 -47.9 L-53.2 -45.4 -41.35 -44.55 -36.0 -48.3 -34.85 -48.35 Q-33.9 -49.6 -32.75 -48.8 L-30.2 -47.15 Q-32.2 -48.15 -34.5 -47.9 L-34.55 -47.9 -36.35 -46.35 -36.9 -42.8 Q-37.5 -37.9 -38.4 -33.05 -39.65 -26.55 -36.75 -20.65 L-37.15 -20.0 Q-36.95 -18.55 -37.25 -17.15 -37.6 -15.25 -39.45 -14.7 L-40.95 -1.85 -41.55 -1.15 -41.7 0.25 -40.75 0.45 Q-37.75 0.1 -34.9 1.15 L-33.0 1.7 Q-32.8 -5.5 -31.05 -12.55 L-31.5 -12.5 Q-31.85 -12.7 -31.6 -13.1 -29.4 -16.8 -28.45 -20.8 -28.25 -21.75 -28.7 -22.55 -31.1 -26.5 -30.85 -31.2 -30.4 -38.9 -29.3 -46.6 -22.4 -42.85 -14.25 -42.85 L-14.2 -42.85 -14.25 -42.9 -12.55 -43.45 -11.85 -43.6 -12.5 -43.65 Q-10.65 -45.65 -10.6 -48.2 L-10.65 -48.75 M-2.5 -53.35 Q-4.6 -62.45 -2.8 -71.5 L-4.9 -73.55 -6.95 -72.95 Q-8.6 -72.4 -9.85 -71.25 -11.05 -61.4 -10.45 -51.6 L-10.65 -51.2 -9.6 -48.7 -9.3 -47.35 -10.55 -43.65 -10.85 -43.2 -12.05 -42.35 -11.65 -42.2 -11.45 -41.4 -12.5 -41.3 -12.95 -38.75 Q-14.15 -32.45 -14.75 -25.95 L-13.4 -26.95 -8.8 -26.65 -6.85 -25.25 Q-6.85 -36.6 -1.1 -46.6 L-1.25 -48.1 -2.4 -53.0 -2.5 -53.35 M-54.05 -94.65 Q-56.6 -94.5 -58.25 -92.75 L-58.85 -92.75 -59.9 -84.95 Q-55.7 -86.7 -52.2 -84.45 -52.6 -87.4 -51.85 -90.4 -51.4 -92.1 -52.15 -93.85 L-54.05 -94.65 M-74.65 -84.35 Q-78.2 -84.5 -79.5 -80.65 -81.25 -75.5 -77.95 -70.95 -77.2 -77.8 -74.65 -84.35 M-65.15 -46.35 Q-60.55 -49.5 -63.65 -53.0 L-64.2 -53.45 Q-73.35 -54.0 -79.65 -48.85 -81.1 -47.75 -81.0 -45.9 -80.9 -44.75 -79.85 -43.95 L-72.75 -45.0 -71.65 -44.95 Q-68.1 -44.55 -65.15 -46.35 M-54.0 -47.7 Q-52.35 -49.75 -53.1 -52.0 -56.75 -62.55 -53.7 -73.7 -56.15 -76.45 -59.85 -74.75 L-63.4 -55.15 -62.95 -54.45 -62.2 -54.6 -61.7 -53.65 Q-60.05 -50.0 -62.15 -46.65 -63.3 -45.65 -64.4 -44.6 -65.95 -36.1 -65.5 -27.45 -61.8 -29.4 -57.95 -28.1 L-57.15 -44.6 -56.1 -44.6 -54.0 -47.7 M-59.65 -12.65 L-58.75 -15.35 -59.75 -16.95 -60.85 -17.55 Q-65.9 -19.75 -67.3 -14.2 L-67.8 -10.65 -69.35 2.35 -69.7 2.6 -69.95 2.9 -67.85 4.2 Q-66.2 7.4 -67.6 10.7 L-67.05 11.2 -67.8 11.2 Q-72.1 19.65 -71.65 29.05 L-70.7 29.35 -71.05 30.15 Q-69.65 32.5 -67.15 33.05 L-64.75 32.1 Q-63.8 31.9 -63.8 30.85 -64.1 18.75 -58.2 8.6 L-58.25 9.25 -58.75 10.05 -43.5 12.1 Q-38.4 8.45 -33.35 12.0 -26.2 16.85 -16.85 15.1 L-15.95 13.15 -15.5 11.35 -15.4 10.5 -15.45 9.5 -15.65 8.4 Q-24.55 9.9 -31.45 4.15 -38.35 -1.6 -45.45 4.5 L-58.75 2.95 -58.15 6.05 -58.35 7.9 -59.1 6.0 Q-62.35 -2.9 -59.75 -12.4 L-59.65 -12.65 M-29.5 -46.75 L-29.3 -46.65 -29.35 -46.65 -29.5 -46.75 M-8.55 -13.8 Q-8.55 -14.35 -9.2 -14.7 L-10.75 -15.1 -14.85 -14.85 -14.75 -12.6 Q-17.55 -0.15 -14.75 11.85 -14.5 13.05 -15.1 14.2 -22.05 26.75 -17.55 39.25 -17.4 39.7 -16.6 39.6 L-14.7 39.8 -12.8 39.15 Q-13.8 25.55 -7.6 13.6 -6.45 11.3 -7.2 8.75 -10.05 -0.65 -7.95 -10.25 L-7.6 -12.25 -8.55 -13.8 M-34.65 15.35 L-34.0 12.85 Q-37.0 11.1 -40.25 11.95 L-42.15 14.15 -42.1 15.45 -44.05 31.85 -42.85 32.75 -42.4 33.25 -42.1 33.8 Q-41.45 35.1 -41.75 36.55 L-41.05 37.7 Q-47.65 49.6 -47.1 63.5 L-44.7 65.45 Q-42.2 67.6 -39.85 65.35 L-39.45 65.0 Q-39.55 53.25 -35.1 42.7 L-34.05 39.4 Q-33.2 35.85 -35.25 32.25 -35.95 31.05 -36.0 29.65 -36.25 22.4 -34.65 15.35 M-68.5 7.3 L-70.7 3.1 Q-76.1 2.75 -82.25 3.1 L-84.6 3.2 Q-86.3 4.9 -86.55 7.25 L-86.55 8.4 Q-80.55 10.45 -73.75 9.95 L-72.2 10.05 -69.45 10.25 -68.5 7.3 M-61.85 32.25 L-62.95 32.25 Q-63.15 33.0 -63.65 33.3 -68.5 35.1 -71.85 31.35 L-72.5 30.4 -80.8 28.25 Q-84.2 27.35 -87.3 29.2 L-87.6 31.25 Q-87.6 32.05 -87.1 32.4 -81.7 36.6 -73.95 37.35 L-72.35 40.8 -71.75 40.6 -71.4 41.6 Q-67.7 43.5 -63.85 41.85 -61.3 40.7 -58.5 40.75 L-44.15 39.8 Q-41.4 36.6 -43.7 33.4 L-44.2 32.9 -44.4 33.65 -44.8 33.35 -44.95 32.95 -61.85 32.25 M-65.3 46.15 L-64.85 43.55 Q-67.5 43.95 -70.2 43.5 L-71.6 43.1 -71.95 45.85 -72.2 48.7 -72.5 50.1 Q-73.1 53.15 -72.05 56.25 L-71.55 56.6 Q-70.6 59.45 -70.85 62.5 -71.0 63.9 -71.95 65.05 -72.85 66.15 -74.3 66.55 L-76.5 82.6 -76.05 83.25 Q-75.45 84.2 -74.35 84.7 -71.9 85.65 -69.5 84.65 L-69.1 83.8 -63.9 59.5 -64.2 57.8 Q-67.05 52.5 -65.4 46.5 L-65.3 46.15 M-62.85 60.5 Q-62.5 61.8 -62.7 63.1 -62.95 65.05 -64.15 66.65 L-62.75 66.15 Q-61.35 68.1 -58.85 68.15 -54.8 68.2 -51.0 69.95 L-48.9 72.25 Q-44.2 77.2 -39.6 73.5 -31.35 73.25 -23.35 75.25 L-22.85 75.0 -24.2 77.2 Q-26.2 80.5 -26.65 84.45 L-27.0 86.05 Q-28.75 92.3 -26.8 98.3 L-26.2 99.65 Q-17.9 100.2 -18.35 91.65 -18.8 84.0 -14.6 77.7 L-14.6 77.2 Q-9.7 72.2 -15.05 66.4 -15.45 65.95 -15.4 65.3 L-14.65 53.35 -14.3 50.55 -20.8 50.2 -21.75 52.25 Q-25.95 61.6 -21.45 70.35 -21.0 71.2 -21.0 72.3 L-21.6 73.55 -21.5 72.4 -22.0 70.25 -22.4 70.1 Q-23.2 67.75 -25.5 66.8 -32.0 67.1 -38.4 65.55 L-39.1 66.45 Q-40.7 68.3 -43.0 67.9 L-44.75 67.6 -46.4 66.5 -47.1 65.8 Q-53.55 59.6 -63.2 58.85 L-62.85 60.5 M-68.0 85.05 L-68.35 85.6 Q-71.5 87.05 -74.8 85.45 -77.45 84.2 -77.25 81.35 -78.3 78.75 -80.4 76.95 -83.3 74.5 -86.85 75.9 -88.25 80.85 -84.15 83.35 -78.6 86.7 -75.15 92.25 -74.6 93.15 -73.75 93.0 -62.15 92.4 -51.8 98.3 L-50.9 97.65 Q-49.25 96.4 -49.05 94.35 -48.8 91.4 -50.95 89.4 L-52.65 89.15 Q-60.55 87.35 -68.0 85.05 M-73.8 64.6 L-73.1 63.95 Q-70.55 61.1 -72.6 57.55 L-84.2 52.75 Q-86.3 52.0 -87.4 53.85 -88.65 56.0 -87.25 57.75 -82.35 63.8 -73.8 64.6 M-76.9 93.1 L-77.05 92.85 -77.45 93.1 -76.9 93.1 M-76.85 96.25 L-77.35 98.6 Q-75.65 102.05 -75.1 105.75 -75.0 106.3 -75.3 106.9 L-75.4 107.05 -75.05 107.3 Q-77.1 109.5 -77.4 112.5 -78.0 119.1 -72.6 121.25 L-72.1 121.8 -71.85 121.1 -71.4 120.95 -71.2 120.5 Q-72.9 115.8 -68.25 113.3 -66.9 112.6 -67.15 111.3 -68.25 105.25 -70.2 99.15 L-69.75 95.85 Q-72.45 96.6 -74.75 94.95 L-76.45 93.55 -76.85 96.25 M-41.75 79.4 L-41.55 76.55 Q-44.6 77.5 -47.25 75.7 L-49.15 74.1 -49.65 77.0 Q-50.75 82.45 -50.6 88.1 -49.75 88.4 -49.15 89.2 -47.65 91.05 -47.7 93.35 L-47.8 93.7 Q-47.6 94.75 -48.1 95.95 L-49.15 97.75 -51.2 100.1 Q-51.6 108.3 -54.05 116.0 L-51.2 121.0 Q-49.9 121.3 -49.15 120.4 -43.4 112.95 -44.4 102.55 L-42.9 100.75 Q-41.6 100.75 -40.8 99.65 -39.9 98.45 -40.25 97.0 -42.35 88.25 -41.75 79.4 M-38.4 94.4 Q-38.55 94.15 -38.55 94.4 L-38.5 94.65 Q-38.45 98.05 -40.3 100.7 L-40.65 101.25 -30.6 104.95 -28.9 108.65 Q-23.85 110.4 -19.2 107.55 L-17.9 106.65 -4.55 107.25 -3.25 107.0 Q2.0 104.75 -1.95 99.35 -9.6 102.3 -18.55 98.8 -22.0 103.0 -26.9 99.6 -28.1 98.8 -28.9 97.55 L-38.4 94.4 M-87.9 6.75 L-87.7 7.25 -87.85 6.75 -87.2 -1.85 Q-92.25 1.7 -92.05 8.05 -91.9 12.35 -88.3 14.55 L-87.9 6.75 M-86.7 105.15 L-87.4 95.5 -89.65 97.7 Q-90.55 98.9 -91.1 100.4 L-86.75 105.2 -86.7 105.3 -86.7 105.15 M-92.0 52.9 Q-94.55 59.25 -89.25 63.6 L-89.4 48.25 Q-91.0 50.45 -92.0 52.9 M-90.1 25.5 Q-95.7 32.5 -89.3 38.7 L-88.85 23.95 -90.1 25.5 M-88.95 86.05 L-88.0 86.9 -88.85 71.95 -91.15 74.75 Q-94.3 80.95 -88.95 86.05 M-84.9 106.65 Q-81.45 108.6 -78.55 111.1 L-76.3 105.95 -77.75 102.3 Q-79.35 101.4 -81.05 100.8 L-82.65 100.65 Q-83.6 100.7 -84.1 101.5 -85.7 103.75 -84.9 106.65 M-98.45 118.2 L-103.95 112.85 -107.45 119.55 Q-100.15 138.55 -95.1 158.4 -88.9 182.7 -86.5 207.7 -67.4 206.45 -47.4 208.4 L-42.3 209.2 -42.6 202.05 Q-44.35 191.5 -48.6 181.75 L-50.2 178.05 Q-70.1 176.15 -89.85 177.2 -70.65 173.85 -51.2 174.35 L-52.6 170.25 -58.2 152.75 -62.7 149.1 Q-80.95 134.1 -98.45 118.2 M-22.35 112.7 L-21.4 110.25 -28.45 110.0 -29.0 112.2 -31.8 124.9 -30.95 126.0 -30.7 128.0 Q-30.6 128.85 -30.95 129.35 L-31.65 130.5 Q-30.9 127.95 -33.0 125.65 -41.4 122.35 -50.5 121.55 -51.95 121.45 -52.6 120.3 -56.85 113.1 -65.35 110.15 L-65.7 111.55 Q-66.6 113.7 -68.55 115.15 L-67.2 116.25 Q-62.5 119.85 -57.1 121.6 L-57.05 123.5 Q-56.85 126.2 -55.6 128.55 L-54.15 129.55 Q-52.75 130.4 -50.7 130.45 -48.75 130.65 -46.9 130.4 L-45.85 130.15 -45.15 130.0 -44.9 129.4 Q-39.55 130.25 -34.9 133.1 L-33.55 132.7 -32.45 132.0 Q-36.1 139.3 -34.8 147.7 L-32.95 148.75 -30.55 149.25 -28.35 148.8 -27.0 136.95 -24.35 134.65 Q-21.65 132.25 -23.05 129.55 -27.05 121.55 -22.35 112.7 M-0.85 146.75 L-0.1 142.55 Q-2.65 144.35 -5.55 143.45 L-8.1 142.55 -8.5 145.9 -8.2 150.7 -6.7 151.05 Q-1.4 151.7 -0.85 146.75 M-47.55 133.8 Q-47.1 132.55 -47.9 131.5 L-48.3 131.1 -49.35 131.8 Q-53.05 132.05 -55.6 129.55 L-55.3 133.85 Q-55.3 135.9 -54.15 137.35 -53.0 138.8 -51.35 138.8 -49.75 138.8 -48.6 137.35 -47.5 135.85 -47.55 133.8 M-83.9 225.9 L-84.0 230.6 Q-59.0 228.5 -34.6 234.45 L-34.7 231.5 -41.6 211.7 Q-63.6 207.5 -85.9 210.35 L-85.3 213.0 Q-83.85 219.3 -83.9 225.9" fill="#000000" fill-rule="evenodd" stroke="none"/>
    <path d="M39.35 -113.15 Q41.4 -114.05 43.05 -115.4 45.4 -117.35 46.15 -120.15 51.5 -139.95 37.7 -156.45 61.55 -145.05 74.7 -122.45 81.3 -111.1 81.0 -97.85 L77.3 -99.7 Q58.9 -108.45 39.35 -113.15 M57.15 -118.15 Q57.5 -119.3 59.1 -118.75 60.55 -118.45 60.55 -116.9 60.6 -114.65 58.9 -113.25 56.3 -114.95 57.15 -118.15 M58.65 -121.35 L57.8 -121.0 Q54.8 -119.3 55.25 -115.85 55.7 -112.0 59.5 -111.4 60.7 -111.4 61.2 -112.55 63.85 -118.4 58.65 -121.35 M-119.25 -98.7 Q-96.1 -107.05 -71.5 -109.5 -48.95 -112.05 -26.05 -112.55 -4.3 -113.05 17.3 -108.85 39.15 -104.85 60.2 -97.6 79.7 -90.9 95.95 -78.5 106.75 -70.2 112.6 -57.9 113.1 -34.75 92.55 -24.45 90.6 -23.55 88.4 -23.45 90.05 -55.25 64.2 -74.45 55.1 -81.15 44.4 -84.95 4.3 -98.8 -38.1 -97.85 -72.1 -97.1 -103.45 -84.2 -111.65 -80.75 -119.25 -76.35 L-119.25 -98.7 M-119.25 -72.05 Q-114.45 -74.95 -109.15 -77.35 L-105.45 -78.95 Q-112.55 -56.2 -114.1 -32.35 L-119.25 -29.85 -119.25 -72.05 M7.45 152.95 Q36.0 146.9 54.6 125.05 L53.3 125.45 Q56.2 122.05 55.9 117.7 55.65 113.8 52.8 111.05 L52.9 108.05 Q59.35 108.6 61.5 101.95 64.0 94.15 57.95 89.45 L58.8 86.45 Q61.95 86.75 63.8 84.25 69.55 76.45 63.25 68.65 L64.7 61.85 Q71.4 61.0 72.05 54.1 72.6 48.45 67.35 46.1 L68.25 40.25 Q72.65 40.45 74.8 36.45 76.2 33.9 76.8 31.15 L76.4 30.65 Q77.3 24.95 72.05 22.65 L70.7 22.1 71.55 12.5 Q74.65 12.35 75.9 9.5 79.55 1.05 72.95 -5.0 L72.8 -10.65 Q78.6 -11.5 79.65 -17.95 81.05 -26.65 72.55 -28.8 L71.65 -40.15 Q76.65 -42.35 76.65 -48.15 76.65 -55.9 69.25 -57.35 L67.05 -68.2 67.15 -68.25 Q73.7 -61.8 79.05 -54.5 L81.15 -48.55 Q83.0 -43.1 83.5 -37.25 87.45 11.7 75.85 59.65 73.4 69.9 70.0 79.9 64.15 96.85 61.9 114.5 L63.5 114.65 64.45 112.4 64.95 113.05 65.35 113.8 65.7 114.5 65.85 115.15 65.95 116.2 61.6 121.85 66.35 128.45 Q67.85 130.45 68.0 133.0 L64.0 137.6 58.6 134.6 Q48.75 139.95 39.7 146.75 20.15 161.3 -3.4 163.8 2.25 159.0 7.45 152.95 M-86.4 226.05 L-86.05 230.75 Q-103.8 233.15 -119.25 239.6 L-119.25 231.2 Q-103.55 227.45 -87.35 226.15 L-86.4 226.05 M-48.3 174.2 L-55.3 154.8 Q-51.65 157.75 -47.6 159.95 -29.0 170.25 -7.75 167.15 L-7.3 167.4 Q10.65 165.95 26.8 157.5 30.15 171.95 31.95 186.5 35.25 212.5 37.7 238.55 L36.85 237.2 34.8 234.45 32.35 232.0 31.0 231.15 30.45 231.65 33.55 235.7 Q37.95 241.95 38.85 249.4 39.35 253.4 36.75 256.35 25.85 251.95 14.5 247.05 -8.0 237.4 -32.3 234.8 L-32.4 231.95 13.5 241.75 13.5 241.2 Q13.5 229.3 2.95 223.25 L7.25 225.3 8.35 225.0 Q-13.6 214.35 -37.45 210.2 L-38.95 209.9 -40.1 203.25 -18.55 206.55 -20.85 199.15 -25.5 197.95 -26.35 196.65 Q-33.3 186.95 -42.45 179.3 -30.8 181.65 -19.5 185.5 -18.15 185.9 -16.95 186.65 -13.75 188.6 -10.1 188.25 -27.25 178.4 -46.95 175.45 L-48.3 174.2 M-110.7 -33.95 Q-110.1 -41.3 -109.0 -48.5 L-107.8 -56.45 Q-106.0 -68.7 -101.85 -80.5 -87.75 -87.35 -72.2 -90.5 L-73.95 -86.2 -76.95 -85.5 Q-79.65 -84.8 -80.55 -82.4 -82.3 -77.8 -81.1 -72.75 -80.5 -70.4 -78.25 -69.4 L-80.5 -56.4 Q-81.85 -56.4 -82.7 -55.55 -85.4 -52.8 -86.55 -49.0 -87.7 -45.25 -85.15 -42.35 -98.8 -38.95 -110.65 -33.95 L-110.7 -33.95" fill="#272e36" fill-rule="evenodd" stroke="none"/>
    <path d="M37.7 -156.45 Q51.5 -139.95 46.15 -120.15 45.4 -117.35 43.05 -115.4 41.4 -114.05 39.35 -113.15 15.95 -118.8 -8.05 -121.25 -24.95 -122.6 -41.7 -121.6 -66.9 -120.25 -91.75 -116.2 -105.75 -113.8 -119.25 -109.5 L-119.25 -118.15 Q-114.75 -113.5 -111.95 -119.8 -111.15 -121.5 -112.4 -122.35 -117.7 -125.85 -119.25 -118.55 L-119.25 -130.45 Q-113.2 -141.15 -103.7 -148.9 -84.0 -165.15 -58.2 -168.55 -33.05 -171.55 -7.9 -168.95 15.9 -166.3 37.7 -156.45 M-12.45 -118.15 L0.1 -117.0 Q25.3 -114.05 49.35 -106.45 72.7 -99.25 93.15 -85.95 109.1 -75.6 112.6 -57.9 106.75 -70.2 95.95 -78.5 79.7 -90.9 60.2 -97.6 39.15 -104.85 17.3 -108.85 -4.3 -113.05 -26.05 -112.55 -48.95 -112.05 -71.5 -109.5 -96.1 -107.05 -119.25 -98.7 L-119.25 -101.5 Q-95.55 -109.85 -70.35 -111.95 L-58.75 -113.25 -12.45 -118.15 M-114.1 -32.35 Q-115.0 -7.2 -114.85 18.0 -114.65 52.6 -107.7 86.45 L-111.45 84.65 Q-94.95 102.2 -78.95 120.3 -62.65 138.7 -40.2 148.25 -17.05 158.1 7.45 152.95 2.25 159.0 -3.4 163.8 L-16.05 164.6 Q-31.65 164.05 -45.1 156.1 -66.5 143.35 -84.95 126.2 L-119.25 94.0 -119.25 -29.85 -114.1 -32.35 M-119.25 203.65 Q-117.2 186.05 -117.35 168.45 -117.55 144.6 -108.85 122.7 -94.75 164.7 -87.95 208.75 -102.0 210.9 -115.55 215.35 L-116.3 217.15 -114.35 216.8 Q-101.35 212.5 -87.9 210.6 L-87.2 213.95 Q-86.05 220.05 -86.4 226.05 L-87.35 226.15 Q-103.55 227.45 -119.25 231.2 L-119.25 203.65 M-48.3 174.2 L-46.95 175.45 -48.0 175.35 -48.3 174.2 M-42.45 179.3 Q-33.3 186.95 -26.35 196.65 L-25.5 197.95 -20.85 199.15 -18.55 206.55 -40.1 203.25 -46.9 178.65 -42.45 179.3 M2.95 223.25 Q13.5 229.3 13.5 241.2 L13.5 241.75 -32.4 231.95 -38.2 212.35 2.95 223.25 M-71.6 -156.6 L-76.85 -152.35 -77.05 -150.3 -76.15 -150.0 -72.25 -151.1 -70.3 -150.0 -72.9 -146.65 -75.85 -144.75 Q-74.5 -144.1 -73.05 -144.75 L-69.65 -146.3 -66.25 -147.75 -64.65 -146.3 -67.3 -144.1 -62.0 -144.8 -62.4 -142.65 -56.6 -145.35 -56.65 -146.85 -60.95 -147.0 -52.75 -150.8 -53.3 -151.75 -58.85 -151.0 -45.45 -157.2 -46.25 -158.4 -50.35 -158.95 -49.9 -160.65 -59.85 -160.95 -59.8 -163.3 -68.15 -160.8 Q-72.75 -159.15 -76.4 -156.05 L-71.6 -156.6 M-59.4 -140.2 L-57.95 -142.65 -61.3 -140.55 -59.4 -140.2 M-22.5 -131.8 Q-21.05 -129.2 -24.0 -127.6 L-25.55 -127.4 -25.65 -131.65 -22.5 -131.8 M-20.3 -130.5 Q-20.65 -134.55 -24.6 -134.3 -26.05 -134.05 -26.75 -132.7 -28.85 -128.8 -25.95 -126.15 L-24.9 -125.55 Q-22.1 -124.8 -20.85 -127.25 -20.1 -128.75 -20.3 -130.5 M-117.65 -117.75 L-117.55 -118.65 Q-117.45 -122.35 -113.4 -122.45 -113.05 -121.5 -113.45 -120.5 -114.5 -117.65 -117.65 -117.75 M-85.15 -42.35 L-83.2 -39.1 -84.55 -28.95 -85.1 -29.5 Q-89.4 -25.95 -90.0 -20.6 -90.55 -15.35 -86.35 -11.9 L-87.1 -3.15 -87.3 -3.2 Q-97.7 4.7 -89.7 14.8 L-88.45 15.95 -88.75 22.45 Q-98.55 30.6 -90.7 40.1 L-89.35 41.35 -89.4 46.7 Q-98.7 52.85 -92.7 62.9 -91.4 65.05 -89.1 65.75 L-88.95 70.2 Q-96.85 74.6 -92.55 83.3 L-89.7 88.55 -88.0 88.85 -87.5 93.85 Q-90.05 94.95 -91.6 97.25 L-92.55 98.9 Q-98.2 92.8 -105.0 88.0 -114.7 27.45 -110.7 -33.95 L-110.65 -33.95 Q-98.8 -38.95 -85.15 -42.35" fill="#3f4756" fill-rule="evenodd" stroke="none"/>
    <path d="M65.55 -33.85 Q64.4 -32.8 62.75 -32.9 L60.4 -33.2 58.9 -31.65 58.05 -49.55 Q60.25 -49.55 60.6 -52.0 L60.65 -52.55 Q60.75 -56.2 58.85 -59.35 L57.7 -60.25 Q55.7 -66.5 57.5 -72.85 L60.1 -73.95 62.95 -71.9 64.95 -57.0 64.7 -56.8 Q69.1 -51.3 66.5 -45.35 68.55 -48.6 68.6 -52.5 73.3 -46.95 67.3 -45.3 L66.45 -45.25 66.4 -45.2 Q65.3 -42.7 65.5 -39.75 65.65 -36.85 66.05 -33.95 L65.55 -33.85 M41.95 -70.75 Q40.3 -71.55 38.45 -71.2 L36.55 -70.55 Q35.1 -76.6 39.05 -80.0 41.15 -81.85 43.1 -79.5 L43.65 -69.85 41.95 -70.75 M26.35 -68.65 Q32.35 -65.85 38.85 -68.55 L42.0 -68.65 Q46.3 -67.25 48.65 -62.65 49.15 -61.65 50.2 -61.35 54.7 -60.05 57.75 -56.95 60.8 -53.9 57.7 -51.2 51.65 -52.6 46.5 -56.2 L44.6 -60.8 44.05 -60.5 44.75 -59.1 44.3 -58.95 Q43.1 -47.7 47.7 -37.65 L49.0 -34.5 47.6 -35.6 Q47.1 -39.3 43.5 -38.95 L42.15 -38.55 39.15 -40.15 37.6 -41.35 Q36.75 -50.1 36.6 -59.0 L40.55 -60.95 43.35 -59.95 43.55 -60.4 43.25 -60.75 Q42.1 -62.0 40.3 -62.7 L34.9 -59.95 Q29.85 -62.4 24.2 -62.95 L24.8 -63.95 Q26.0 -66.2 26.25 -68.55 L26.35 -68.65 M71.1 -44.2 Q73.65 -47.9 70.85 -51.75 L70.0 -52.85 69.5 -56.3 Q76.95 -52.6 74.15 -45.2 73.3 -42.95 71.5 -41.55 L71.25 -44.05 71.1 -44.2 M14.2 -50.8 L16.3 -71.75 Q16.4 -72.8 15.8 -73.8 L14.25 -75.95 14.3 -84.05 14.7 -84.65 15.2 -85.85 16.05 -87.7 Q16.7 -88.85 18.0 -89.15 21.05 -88.85 20.95 -85.7 20.7 -76.8 23.65 -68.55 24.25 -66.85 23.5 -64.9 20.85 -57.7 20.95 -50.0 L19.65 -50.5 18.35 -50.7 14.3 -50.7 14.2 -50.8 M15.3 -69.9 Q15.45 -67.85 13.75 -67.0 6.2 -68.55 -1.05 -71.2 L-1.2 -71.0 -4.15 -74.65 Q-8.2 -75.85 -11.05 -72.55 -11.65 -71.8 -12.45 -71.8 L-21.6 -72.6 -22.75 -72.95 -24.15 -72.95 -23.65 -73.55 -23.3 -76.15 Q-22.95 -78.8 -24.65 -80.85 L-11.65 -80.05 Q-10.35 -81.6 -8.65 -82.55 -5.45 -84.35 -3.1 -81.85 L-2.5 -80.8 Q4.25 -74.45 13.55 -75.0 15.15 -72.7 15.3 -69.9 M23.65 -44.55 L22.75 -44.7 Q21.85 -47.1 19.1 -47.5 15.7 -48.0 12.65 -46.45 8.45 -46.05 4.3 -47.45 7.85 -46.6 11.05 -48.15 19.3 -52.05 23.65 -44.55 M-15.4 -15.85 Q-17.35 -15.1 -17.95 -13.3 L-19.05 -13.45 Q-18.7 -14.6 -17.6 -15.25 -16.7 -15.85 -15.4 -15.85 M54.45 -5.85 L59.05 -4.3 59.85 -0.3 Q60.15 1.95 58.15 3.4 L53.3 1.7 Q56.6 -1.15 54.75 -5.3 L54.45 -5.85 M37.95 -4.35 L38.8 -4.4 Q40.6 -4.0 41.8 -2.7 L43.7 -0.15 42.9 2.2 42.55 1.95 Q39.9 -1.55 35.95 -0.35 35.95 -2.0 36.55 -3.15 37.1 -4.35 37.95 -4.35 M51.75 -33.1 Q55.3 -31.6 58.9 -30.05 L59.05 -29.6 64.05 -32.2 Q67.6 -29.5 70.3 -26.15 L73.7 -22.0 Q75.6 -19.9 72.7 -18.75 68.55 -17.3 65.95 -21.3 64.3 -23.75 61.45 -22.9 L58.0 -21.6 53.1 -24.15 53.1 -24.45 52.9 -24.2 51.15 -25.1 52.9 -26.35 52.95 -26.6 Q53.4 -30.05 51.75 -33.1 M72.55 -28.3 Q82.4 -22.2 75.45 -13.25 74.5 -12.0 72.85 -11.55 L72.85 -16.7 Q76.3 -18.2 75.9 -21.85 75.55 -25.15 72.65 -26.7 L72.55 -28.3 M58.0 -8.1 Q56.9 -14.2 58.65 -20.15 61.45 -22.15 64.85 -21.35 L65.45 -20.8 Q65.95 -20.05 65.75 -19.3 63.05 -9.8 68.05 -1.35 70.5 2.8 67.45 6.7 L66.6 6.8 66.85 7.65 Q66.3 9.15 66.1 10.7 65.35 16.9 64.9 23.15 61.85 19.8 57.8 20.05 L58.85 4.45 59.5 4.05 Q63.2 0.45 60.15 -4.4 L60.35 -4.9 58.3 -6.8 58.0 -8.1 M69.8 -1.7 L70.2 -2.1 Q74.1 2.55 69.7 6.05 L68.9 6.45 Q71.75 2.6 69.8 -1.7 M71.5 6.75 Q74.85 1.45 72.65 -4.85 80.55 4.75 71.7 11.4 L71.7 6.95 71.5 6.75 M50.2 22.35 L56.2 23.4 Q59.3 20.7 62.35 23.1 L70.5 29.5 Q70.6 34.7 66.4 33.05 63.85 31.95 61.4 30.55 59.55 29.45 57.4 29.05 52.75 31.8 47.4 28.25 L48.1 27.45 Q50.45 25.3 50.2 22.35 M48.1 47.9 L52.55 48.0 Q53.9 50.05 53.6 52.55 53.3 54.75 51.65 56.35 L46.3 55.3 Q49.9 53.85 49.85 49.95 L49.8 48.9 48.1 47.9 M53.2 48.0 Q53.5 40.0 55.25 32.05 58.7 28.85 61.25 31.85 L62.55 33.45 Q59.65 43.45 62.0 53.55 62.3 54.95 61.75 56.45 L54.2 75.9 Q53.75 77.0 52.6 77.2 49.65 77.95 49.2 75.05 L49.05 74.8 48.85 74.7 Q49.55 62.45 54.65 51.55 55.0 50.85 54.75 50.0 L54.0 48.05 53.2 48.0 M68.5 38.4 L69.05 34.95 Q70.5 34.45 71.05 33.05 72.6 29.3 69.8 27.15 L70.7 22.3 Q75.9 25.3 75.2 31.25 74.6 36.35 69.7 38.6 L68.5 38.4 M10.05 18.35 Q9.25 18.7 8.7 19.45 L7.1 19.25 10.05 18.35 M16.6 23.3 L14.5 21.35 9.9 21.25 Q10.1 20.9 10.4 20.7 15.05 16.4 16.45 21.8 L16.75 22.45 16.6 23.3 M-15.7 49.3 Q-18.2 49.65 -20.5 48.7 L-20.55 48.2 -15.7 49.3 M1.65 86.4 L2.7 82.95 Q3.6 84.05 5.25 84.1 L8.85 83.9 8.85 84.6 9.3 84.75 8.7 86.75 8.65 86.75 Q7.0 87.4 5.55 87.4 3.65 87.35 1.65 86.4 M40.65 81.75 L40.8 81.3 Q43.5 79.4 42.5 76.0 L42.15 75.6 42.25 75.1 Q44.1 76.15 46.3 76.1 L47.6 75.85 Q50.8 79.65 55.5 78.1 56.8 77.7 57.1 76.15 L60.15 76.45 61.15 80.15 Q56.0 86.8 48.4 86.0 47.1 85.8 46.8 84.5 L46.5 83.0 40.65 81.75 M67.75 53.9 Q68.0 51.45 66.8 49.65 L67.3 47.0 Q73.6 54.5 66.2 60.0 L64.9 60.7 65.2 58.55 Q67.45 56.7 67.75 53.9 M64.65 57.1 L62.95 57.75 Q64.45 53.3 62.7 48.7 64.1 49.7 65.15 51.05 67.75 54.25 64.65 57.1 M59.4 84.45 L59.3 84.1 Q60.6 83.75 61.35 82.7 63.55 79.5 61.6 75.8 L63.05 69.8 Q67.25 74.5 65.15 80.75 63.75 84.95 59.3 85.3 L59.4 84.45 M46.35 86.7 L46.4 86.7 Q48.9 89.15 52.3 87.8 L53.3 87.4 Q50.9 92.85 52.8 98.6 53.25 99.95 52.15 101.4 46.35 108.9 45.7 118.85 45.65 119.65 44.8 120.1 42.6 121.3 40.3 120.55 L39.1 119.15 Q39.4 108.15 44.9 98.6 45.3 97.9 44.9 97.0 L43.85 95.15 46.35 86.7 M53.95 101.25 Q55.85 97.05 53.15 93.1 L53.95 92.95 Q55.65 93.55 56.35 95.15 L56.85 97.15 Q57.1 100.35 54.6 101.55 L54.0 101.35 53.95 101.25 M56.85 93.3 L57.75 90.35 Q61.8 94.8 60.15 100.4 58.55 105.8 53.1 107.15 L53.8 103.55 54.5 103.2 Q59.85 99.6 57.05 93.7 L56.85 93.3 M35.5 99.55 L38.5 98.7 Q40.85 98.15 43.1 96.8 44.15 97.95 43.75 99.35 42.95 102.05 41.3 104.6 L32.55 107.95 Q36.45 105.55 35.45 101.0 35.3 100.3 35.5 99.55 M49.4 114.55 L50.35 112.0 50.7 111.75 51.8 111.85 53.25 115.0 Q55.95 122.5 49.2 125.6 52.55 119.65 49.4 114.55 M47.1 119.7 L47.5 119.55 Q49.3 123.8 45.95 127.1 44.9 128.15 43.4 128.55 34.05 130.15 25.5 134.6 L25.05 134.45 25.0 134.2 25.25 133.85 Q30.15 130.25 26.3 124.55 31.95 124.2 36.85 120.7 42.65 124.4 47.1 119.7 M41.15 134.3 L37.55 135.25 36.85 131.6 43.8 130.85 41.15 134.3 M18.0 116.1 L18.95 112.3 Q20.05 113.5 21.6 114.0 L25.7 114.15 24.85 117.25 18.0 116.1 M24.95 125.8 Q28.25 131.7 22.5 136.35 20.9 137.65 20.75 139.95 20.4 145.75 14.75 145.75 L13.95 144.55 Q19.9 136.05 24.95 125.8 M-82.6 -43.0 L-84.0 -42.7 -84.45 -43.4 Q-88.05 -50.9 -80.95 -54.65 L-80.8 -54.6 -80.5 -54.2 Q-82.25 -48.75 -82.6 -43.0 M-29.65 -58.1 Q-32.3 -58.65 -34.75 -57.5 L-36.5 -56.7 -35.5 -65.2 Q-34.9 -69.5 -33.25 -73.4 -31.25 -78.35 -35.05 -81.5 L-34.6 -82.0 Q-34.6 -87.3 -33.9 -92.45 -33.5 -95.3 -30.65 -95.15 -29.45 -95.15 -28.9 -94.4 -24.8 -89.25 -27.25 -81.35 -25.05 -78.9 -24.4 -75.6 L-24.25 -75.1 -25.7 -72.95 -26.25 -72.95 -28.3 -70.15 -28.8 -58.15 -29.65 -58.1 M-5.75 -92.85 L-3.0 -92.8 -1.7 -82.6 Q-2.9 -84.1 -4.85 -84.55 -7.55 -84.7 -9.75 -83.3 -11.3 -87.95 -8.5 -91.95 L-5.75 -92.85 M-70.9 -79.45 L-68.3 -79.4 Q-63.3 -79.5 -59.95 -83.25 L-59.65 -83.45 -54.8 -84.25 -51.1 -80.35 -50.0 -80.55 -49.65 -80.95 -35.95 -81.05 Q-34.35 -79.1 -34.4 -76.55 -34.4 -75.45 -35.25 -75.1 -43.25 -72.25 -52.2 -74.25 L-52.2 -74.75 -53.3 -75.05 -54.8 -76.75 Q-58.0 -77.15 -60.45 -74.8 L-61.95 -73.4 -73.9 -72.65 -74.15 -72.85 -74.5 -73.8 Q-76.9 -74.7 -76.0 -77.35 -74.95 -80.3 -71.65 -79.95 L-70.9 -79.45 M-10.65 -48.75 L-26.2 -50.05 -28.4 -50.65 Q-36.25 -52.1 -43.85 -49.0 -47.75 -47.4 -52.05 -47.9 -51.5 -50.8 -52.3 -53.5 L-52.7 -54.55 Q-42.85 -50.3 -34.25 -55.6 -31.85 -57.05 -29.75 -55.35 -27.95 -53.9 -25.7 -53.3 -18.75 -51.5 -11.6 -50.3 L-10.65 -48.75 M-9.6 -48.7 L-10.65 -51.2 -10.45 -51.6 Q-11.05 -61.4 -9.85 -71.25 -8.6 -72.4 -6.95 -72.95 L-4.9 -73.55 -2.8 -71.5 Q-4.6 -62.45 -2.5 -53.35 L-2.55 -53.0 -2.4 -53.0 -1.25 -48.1 -9.6 -48.7 M-54.05 -94.65 L-52.15 -93.85 Q-51.4 -92.1 -51.85 -90.4 -52.6 -87.4 -52.2 -84.45 -55.7 -86.7 -59.9 -84.95 L-58.85 -92.75 -58.25 -92.75 Q-56.6 -94.5 -54.05 -94.65 M-74.65 -84.35 Q-77.2 -77.8 -77.95 -70.95 -81.25 -75.5 -79.5 -80.65 -78.2 -84.5 -74.65 -84.35 M-72.75 -45.0 L-79.85 -43.95 Q-80.9 -44.75 -81.0 -45.9 -81.1 -47.75 -79.65 -48.85 -73.35 -54.0 -64.2 -53.45 L-63.65 -53.0 Q-60.55 -49.5 -65.15 -46.35 L-72.75 -45.0 M-62.15 -46.65 Q-60.05 -50.0 -61.7 -53.65 L-62.2 -54.6 -62.95 -54.45 -63.4 -55.15 -59.85 -74.75 Q-56.15 -76.45 -53.7 -73.7 -56.75 -62.55 -53.1 -52.0 -52.35 -49.75 -54.0 -47.7 L-62.15 -46.65 M-59.75 -12.65 Q-61.85 -16.25 -65.9 -14.8 L-67.3 -14.2 Q-65.9 -19.75 -60.85 -17.55 L-59.75 -16.95 -58.75 -15.35 -59.65 -12.65 -59.75 -12.65 M-10.75 -15.1 L-8.55 -13.8 -7.6 -12.25 -7.95 -10.25 -9.8 -11.8 Q-11.15 -13.3 -12.45 -13.3 -13.75 -13.3 -14.75 -12.6 L-14.85 -14.85 -10.75 -15.1 M-34.65 15.35 L-37.45 14.0 -37.5 14.8 Q-40.8 14.8 -42.1 15.45 L-42.15 14.15 -40.25 11.95 Q-37.0 11.1 -34.0 12.85 L-34.65 15.35 M-71.95 45.85 L-71.6 43.1 -70.2 43.5 Q-67.5 43.95 -64.85 43.55 L-65.3 46.15 Q-65.8 44.85 -66.95 44.35 L-67.65 44.1 -67.9 46.55 -71.95 45.85 M-21.75 52.25 L-20.8 50.2 -14.3 50.55 -14.65 53.35 -16.85 53.2 -17.05 53.9 Q-19.85 53.75 -21.75 52.25 M-76.9 93.1 L-77.45 93.1 -77.05 92.85 -76.9 93.1 M-76.85 96.25 L-76.45 93.55 -74.75 94.95 Q-72.45 96.6 -69.75 95.85 L-70.2 99.15 Q-74.2 98.6 -76.85 96.25 M-41.75 79.4 L-42.1 79.4 Q-46.8 79.4 -49.65 77.0 L-49.15 74.1 -47.25 75.7 Q-44.6 77.5 -41.55 76.55 L-41.75 79.4 M-22.35 112.7 L-29.0 112.2 -28.45 110.0 -21.4 110.25 -22.35 112.7 M-55.6 128.55 L-55.1 128.6 -54.15 129.55 -55.6 128.55 M-46.9 130.4 L-46.5 130.1 -45.85 130.15 -46.9 130.4 M-0.85 146.75 L-2.7 146.9 Q-5.8 146.9 -8.5 145.9 L-8.1 142.55 -5.55 143.45 Q-2.65 144.35 -0.1 142.55 L-0.85 146.75 M-55.3 133.85 L-55.6 129.55 Q-53.05 132.05 -49.35 131.8 L-48.3 131.1 -47.9 131.5 Q-47.1 132.55 -47.55 133.8 L-47.9 133.8 Q-51.55 134.95 -55.3 133.85" fill="#333333" fill-rule="evenodd" stroke="none"/>
    <path d="M-119.25 96.8 L-106.3 110.75 -108.05 113.5 Q-117.95 129.6 -119.25 148.75 L-119.25 96.8 M64.95 -57.0 L65.1 -56.95 Q65.35 -56.55 64.7 -56.8 L64.95 -57.0 M66.05 -33.95 L66.15 -33.2 65.55 -33.85 66.05 -33.95 M44.75 -59.1 L44.8 -59.05 44.75 -59.05 44.3 -58.95 44.75 -59.1 M49.0 -34.5 Q49.55 -29.95 46.0 -27.1 L45.25 -26.9 45.3 -26.35 45.35 -26.0 44.25 -13.35 44.15 -13.35 Q40.65 -16.3 36.0 -15.25 L37.7 -29.25 38.45 -29.45 38.5 -30.05 39.15 -30.65 38.9 -31.5 39.65 -32.6 Q42.05 -36.6 39.15 -40.15 L42.15 -38.55 43.5 -38.95 Q47.1 -39.3 47.6 -35.6 L49.0 -34.5 M4.3 -47.45 Q8.45 -46.05 12.65 -46.45 15.7 -48.0 19.1 -47.5 21.85 -47.1 22.75 -44.7 L23.65 -44.55 38.6 -36.5 Q40.0 -35.7 39.55 -34.2 39.15 -32.95 38.2 -32.3 31.15 -30.9 24.85 -34.65 L23.1 -35.8 22.95 -36.95 Q19.65 -43.4 13.9 -40.5 12.0 -39.5 9.7 -39.45 3.45 -39.3 -2.4 -41.3 -0.6 -43.1 -0.2 -45.6 L0.0 -47.75 0.0 -49.0 Q1.3 -47.9 2.95 -47.75 L4.3 -47.45 M13.55 -24.3 Q12.95 -32.15 16.35 -38.65 17.05 -40.0 18.7 -39.2 23.35 -36.85 21.7 -31.1 19.6 -23.6 21.6 -16.0 23.35 -9.25 20.45 -3.05 17.55 3.1 19.05 9.75 L14.95 8.3 Q17.25 -2.65 18.4 -13.8 19.1 -20.35 13.55 -24.3 M12.95 -10.35 L12.2 -9.35 Q3.8 -9.1 -4.05 -11.8 -6.5 -12.7 -8.3 -14.7 -11.55 -18.25 -15.4 -15.85 -16.7 -15.85 -17.6 -15.25 -18.7 -14.6 -19.05 -13.45 L-29.0 -14.2 -27.85 -16.6 Q-22.9 -17.95 -17.95 -16.2 -11.55 -20.65 -6.0 -15.05 -5.25 -14.35 -4.35 -14.25 4.4 -12.75 12.95 -10.35 M53.3 1.7 L47.3 0.35 42.25 -4.65 36.7 -5.1 Q35.0 -3.6 32.7 -3.7 27.2 -3.85 22.1 -6.1 24.25 -9.95 24.45 -14.3 29.0 -11.5 34.55 -11.1 L37.2 -13.45 39.65 -13.6 Q44.4 -13.9 44.3 -9.4 L44.85 -8.95 45.1 -10.2 45.7 -9.55 Q49.35 -6.65 54.45 -5.85 L54.75 -5.3 Q56.6 -1.15 53.3 1.7 M37.95 -4.35 L38.3 -4.6 38.8 -4.4 37.95 -4.35 M42.9 2.2 Q40.7 12.85 44.3 23.25 44.65 24.3 44.05 25.4 38.45 35.7 37.45 47.3 L35.6 47.95 Q34.2 48.1 32.95 47.3 31.95 46.65 31.35 45.4 32.4 32.55 35.35 20.05 35.95 17.45 34.4 15.35 33.85 14.55 34.0 13.45 L35.95 -0.35 Q39.9 -1.55 42.55 1.95 L42.9 2.2 M53.1 -24.15 L52.9 -24.2 53.1 -24.45 53.1 -24.15 M51.15 -25.1 Q48.85 -25.5 47.3 -27.05 50.0 -29.65 49.95 -33.4 L51.75 -33.1 Q53.4 -30.05 52.95 -26.6 L52.9 -26.35 51.15 -25.1 M70.2 -2.1 L69.8 -1.7 68.9 -3.4 70.2 -2.1 M47.4 28.25 L44.6 27.3 Q46.0 25.1 46.0 22.6 L45.75 20.25 Q47.95 21.5 50.2 22.35 50.45 25.3 48.1 27.45 L47.4 28.25 M46.3 55.3 Q43.25 54.3 40.3 55.3 L35.4 56.55 Q31.4 57.2 29.6 54.1 L27.35 51.75 16.55 50.85 Q19.7 47.1 18.0 42.55 23.45 44.55 29.45 44.9 L33.45 49.3 Q37.7 49.9 40.55 46.75 L41.25 46.8 Q44.55 47.75 48.1 47.9 L49.8 48.9 49.85 49.95 Q49.9 53.85 46.3 55.3 M19.0 11.7 Q25.05 17.05 33.5 16.45 L34.1 17.5 Q35.95 21.05 33.55 24.2 26.95 23.9 20.8 21.85 L19.85 21.15 Q16.3 17.4 11.1 18.05 L10.05 18.35 7.1 19.25 -8.05 17.15 -7.0 15.55 Q0.55 13.85 7.3 17.35 12.35 14.85 17.65 16.5 L18.0 16.2 Q19.35 14.3 19.0 11.7 M14.5 21.35 L16.6 23.3 Q11.8 33.45 16.15 43.05 16.8 44.5 16.2 45.85 11.35 56.35 11.45 68.2 12.75 70.75 10.0 72.0 7.0 73.25 4.5 71.15 L4.2 68.85 Q3.8 65.35 4.65 61.95 L7.65 61.25 4.75 60.5 4.95 57.2 Q7.1 58.05 8.2 55.9 L7.35 55.75 Q6.0 55.75 5.05 56.35 L5.1 55.05 6.3 53.85 6.45 54.95 Q8.9 53.6 9.25 50.75 L9.3 49.65 13.05 43.45 Q11.0 32.45 14.5 21.35 M4.15 48.6 Q-3.75 47.3 -11.65 47.15 -12.8 48.35 -14.5 48.25 L-15.05 48.8 -15.15 49.1 -15.7 49.3 -20.55 48.2 -20.5 48.7 Q-21.85 48.1 -21.95 46.45 L-21.85 46.45 -22.95 44.7 -32.95 42.7 -33.25 42.35 -32.8 41.1 -32.75 41.1 Q-24.05 40.25 -16.45 44.85 -14.95 45.8 -13.2 45.3 -7.35 43.55 -1.05 44.7 L7.85 45.95 6.8 48.4 4.15 48.6 M8.45 47.9 Q9.0 47.15 9.15 46.15 L9.2 47.0 Q9.2 47.5 8.45 47.9 M26.9 80.55 Q27.9 77.45 27.45 74.15 L27.1 72.85 27.55 72.15 26.85 72.1 28.5 59.5 Q30.7 61.0 33.4 61.3 L34.9 61.3 Q32.2 68.2 36.1 73.85 L36.65 74.0 Q36.8 77.1 35.1 79.6 L32.9 81.8 Q32.45 90.75 29.9 99.0 L30.25 99.9 Q28.65 103.95 23.9 102.15 L22.25 101.4 26.55 81.9 27.1 81.85 26.95 80.55 26.9 80.55 M0.4 71.75 Q3.0 72.0 5.0 73.1 L12.1 73.3 13.8 73.1 26.1 72.75 Q27.65 76.75 25.8 80.65 L9.5 81.2 9.25 82.2 Q5.65 84.2 3.05 81.4 L3.25 80.75 2.8 80.9 Q1.65 78.4 -1.0 78.2 -6.85 78.75 -12.8 77.35 -10.1 74.1 -11.7 70.25 L-11.1 70.5 -10.2 72.45 -10.15 75.55 1.25 75.9 Q0.75 75.3 1.8 75.3 L2.45 75.25 3.25 75.3 4.1 75.35 4.2 77.45 4.9 77.5 6.45 75.35 6.3 75.2 6.2 75.0 6.2 74.75 -1.8 72.4 0.4 71.75 M8.2 74.6 L8.85 76.7 9.9 76.45 8.85 74.75 8.2 74.6 M8.6 87.1 Q5.1 95.9 7.85 104.7 L7.55 105.6 Q1.2 114.15 1.2 125.15 1.2 131.0 -4.1 131.8 -6.15 132.2 -7.45 130.65 -6.2 119.55 -2.95 108.8 3.0 106.9 0.7 100.8 -0.95 96.35 0.25 91.85 L1.65 86.4 Q3.65 87.35 5.55 87.4 7.0 87.4 8.65 86.75 L8.6 87.1 M3.15 97.3 L0.9 97.0 2.55 100.1 3.0 99.95 3.55 98.95 3.15 97.3 M39.05 82.25 L39.1 82.35 35.65 81.9 36.85 79.9 Q37.8 77.6 37.7 75.05 L42.25 75.1 42.15 75.6 42.5 76.0 Q43.5 79.4 40.8 81.3 L40.65 81.75 38.25 82.05 39.05 82.25 M32.55 107.95 Q28.75 110.9 24.1 112.1 22.35 112.45 20.95 111.3 15.15 106.9 7.7 108.2 10.65 104.75 8.55 100.45 14.65 102.6 20.8 101.35 24.5 107.5 30.35 102.1 32.55 100.15 35.5 99.55 35.3 100.3 35.45 101.0 36.45 105.55 32.55 107.95 M24.85 117.25 Q24.2 120.2 24.15 123.2 L23.65 123.5 24.95 125.8 Q19.9 136.05 13.95 144.55 13.2 141.35 14.15 138.2 L14.45 136.85 Q16.85 135.4 17.95 133.1 18.55 131.8 18.0 130.15 L18.35 129.4 17.6 126.95 Q14.55 122.3 18.0 116.1 L24.85 117.25 M15.2 129.2 Q18.7 132.85 14.1 135.0 10.5 136.7 7.1 139.2 -0.6 144.95 -8.05 141.35 L-8.1 140.55 -9.3 140.25 Q-10.2 139.45 -11.25 139.0 -17.15 136.65 -23.7 136.45 L-22.8 135.1 Q-20.8 131.55 -22.1 127.5 L-15.6 130.5 Q-12.35 131.85 -9.2 133.45 -2.35 136.9 2.35 131.25 L3.7 131.25 Q9.1 130.55 14.2 128.45 L15.2 129.2 M-82.6 -43.0 L-82.9 -41.25 -84.0 -42.7 -82.6 -43.0 M-80.95 -54.65 L-80.8 -54.95 -80.8 -54.6 -80.95 -54.65 M-86.5 -14.85 L-87.2 -15.0 Q-90.6 -19.15 -88.4 -24.15 -87.4 -26.45 -85.35 -28.0 L-84.7 -27.8 -84.4 -27.2 -85.85 -16.7 -85.35 -15.85 -85.6 -15.1 -86.1 -14.85 -86.5 -14.85 M-38.3 -18.6 L-40.05 -16.55 -44.7 -15.1 Q-49.35 -14.35 -54.3 -15.35 L-57.35 -15.8 -57.6 -17.15 Q-59.1 -19.1 -61.4 -19.45 -65.75 -19.95 -68.35 -16.6 -76.55 -16.1 -83.75 -18.55 -84.7 -18.85 -84.5 -20.0 -83.65 -24.4 -78.3 -24.0 L-73.45 -24.15 -76.25 -19.05 Q-68.3 -19.0 -60.8 -21.85 -58.25 -22.8 -56.75 -20.35 -55.15 -17.75 -52.05 -17.95 -45.5 -17.2 -39.3 -19.15 L-38.3 -18.6 M-29.65 -58.1 L-28.8 -58.15 -28.7 -57.75 -29.65 -58.1 M-70.9 -79.45 L-71.65 -79.95 -71.2 -80.15 -70.9 -79.45 M-52.05 -47.9 Q-47.75 -47.4 -43.85 -49.0 -36.25 -52.1 -28.4 -50.65 L-26.2 -50.05 -10.65 -48.75 -10.6 -48.2 Q-10.65 -45.65 -12.5 -43.65 L-12.55 -43.45 -14.25 -42.9 -14.25 -42.85 Q-22.4 -42.85 -29.3 -46.6 -30.4 -38.9 -30.85 -31.2 -31.1 -26.5 -28.7 -22.55 -28.25 -21.75 -28.45 -20.8 -29.4 -16.8 -31.6 -13.1 -31.85 -12.7 -31.5 -12.5 L-31.05 -12.55 Q-32.8 -5.5 -33.0 1.7 L-34.9 1.15 Q-35.5 -8.7 -32.1 -17.75 -31.45 -19.4 -31.95 -20.95 -35.55 -32.2 -32.3 -43.7 L-32.7 -44.6 -35.05 -44.35 Q-36.25 -44.0 -36.9 -42.8 L-36.35 -46.35 -34.55 -47.9 -34.5 -47.9 Q-32.2 -48.15 -30.2 -47.15 L-32.75 -48.8 Q-33.9 -49.6 -34.85 -48.35 L-36.0 -48.3 -41.35 -44.55 -53.2 -45.4 -52.05 -47.9 M-2.5 -53.35 L-2.4 -53.0 -2.55 -53.0 -2.5 -53.35 M-1.25 -48.1 L-1.1 -46.6 Q-6.85 -36.6 -6.85 -25.25 L-8.8 -26.65 Q-9.25 -34.15 -6.5 -41.25 L-7.4 -41.55 Q-10.85 -41.7 -12.95 -38.75 L-12.5 -41.3 -11.45 -41.4 -11.65 -42.2 -12.05 -42.35 -10.85 -43.2 -10.2 -43.45 -10.55 -43.65 -9.3 -47.35 -9.6 -48.7 -1.25 -48.1 M-72.75 -45.0 L-65.15 -46.35 Q-68.1 -44.55 -71.65 -44.95 L-72.75 -45.0 M-54.0 -47.7 L-56.1 -44.6 -57.15 -44.6 -57.95 -28.1 Q-61.8 -29.4 -65.5 -27.45 -65.95 -36.1 -64.4 -44.6 -63.3 -45.65 -62.15 -46.65 L-54.0 -47.7 M-59.95 -28.95 L-59.3 -30.65 Q-58.1 -33.95 -61.0 -35.45 L-61.5 -35.7 Q-62.5 -33.1 -61.3 -30.8 -60.8 -29.8 -59.95 -28.95 M-67.3 -14.2 L-65.9 -14.8 Q-61.85 -16.25 -59.75 -12.65 L-59.75 -12.4 Q-62.35 -2.9 -59.1 6.0 L-58.35 7.9 -58.15 6.05 -58.2 8.6 Q-64.1 18.75 -63.8 30.85 -63.8 31.9 -64.75 32.1 -65.5 19.65 -63.1 7.35 -62.2 2.7 -62.45 -2.25 L-62.65 -12.05 -63.95 -12.4 -67.8 -10.65 -67.3 -14.2 M-29.5 -46.75 L-29.35 -46.65 -29.3 -46.65 -29.5 -46.75 M-10.75 -15.1 L-9.2 -14.7 Q-8.55 -14.35 -8.55 -13.8 L-10.75 -15.1 M-7.95 -10.25 Q-10.05 -0.65 -7.2 8.75 -6.45 11.3 -7.6 13.6 -13.8 25.55 -12.8 39.15 L-14.7 39.8 Q-16.65 26.4 -9.95 14.25 -9.0 12.55 -9.5 10.6 -12.45 -0.7 -9.8 -11.8 L-7.95 -10.25 M-15.95 13.15 L-16.85 15.1 Q-26.2 16.85 -33.35 12.0 -38.4 8.45 -43.5 12.1 L-58.75 10.05 -58.25 9.25 -53.35 8.8 -45.45 9.35 -35.75 10.35 Q-26.0 12.3 -15.95 13.15 M-37.5 14.8 L-37.45 14.0 -34.65 15.35 Q-36.25 22.4 -36.0 29.65 -35.95 31.05 -35.25 32.25 -33.2 35.85 -34.05 39.4 L-35.1 42.7 Q-39.55 53.25 -39.45 65.0 L-39.85 65.35 Q-42.2 67.6 -44.7 65.45 L-41.55 64.55 Q-40.25 49.7 -37.45 34.95 -37.1 33.15 -37.4 31.25 -38.75 23.15 -37.5 14.8 M-82.25 3.1 L-82.6 7.15 -68.5 7.3 -69.45 10.25 -72.2 10.05 -71.95 9.7 -73.75 9.95 Q-80.55 10.45 -86.55 8.4 L-86.55 7.25 Q-86.3 4.9 -84.6 3.2 L-82.25 3.1 M-61.85 32.25 L-62.0 33.25 -63.65 33.3 Q-63.15 33.0 -62.95 32.25 L-61.85 32.25 M-80.8 28.25 L-79.8 32.05 Q-73.85 34.75 -68.6 38.7 -67.6 39.5 -66.1 39.5 -61.2 39.55 -57.5 36.05 -50.6 36.75 -44.35 39.35 L-44.15 39.8 -58.5 40.75 Q-61.3 40.7 -63.85 41.85 -67.7 43.5 -71.4 41.6 L-71.75 40.6 -72.35 40.8 -73.95 37.35 Q-81.7 36.6 -87.1 32.4 -87.6 32.05 -87.6 31.25 L-87.3 29.2 Q-84.2 27.35 -80.8 28.25 M-65.3 46.15 L-65.4 46.5 Q-67.05 52.5 -64.2 57.8 L-64.35 59.0 -63.9 59.5 -69.1 83.8 -69.5 84.65 Q-71.9 85.65 -74.35 84.7 -75.45 84.2 -76.05 83.25 L-76.5 82.6 -74.3 66.55 Q-72.85 66.15 -71.95 65.05 -71.0 63.9 -70.85 62.5 -70.6 59.45 -71.55 56.6 L-72.05 56.25 Q-73.1 53.15 -72.5 50.1 L-72.2 48.7 -69.05 53.35 -71.35 55.45 -71.0 57.15 -70.3 57.35 -67.7 55.55 -67.9 46.55 -67.65 44.1 -66.95 44.35 Q-65.8 44.85 -65.3 46.15 M-26.65 84.45 Q-26.2 80.5 -24.2 77.2 L-22.85 75.0 -23.35 75.25 Q-31.35 73.25 -39.6 73.5 -44.2 77.2 -48.9 72.25 L-51.0 69.95 Q-54.8 68.2 -58.85 68.15 -61.35 68.1 -62.75 66.15 L-64.15 66.65 Q-62.95 65.05 -62.7 63.1 -62.5 61.8 -62.85 60.5 L-61.0 62.2 -62.0 63.8 Q-60.7 66.6 -57.75 67.4 L-50.1 67.85 -49.5 68.2 Q-47.6 69.9 -45.25 70.3 -33.75 72.0 -21.5 72.4 L-21.6 73.55 -21.0 72.3 -19.35 71.8 -19.7 73.9 -15.5 75.25 -15.05 74.15 -16.0 72.55 -14.2 72.45 -14.25 70.25 -15.35 70.1 Q-19.4 62.5 -17.05 53.9 L-16.85 53.2 -14.65 53.35 -15.4 65.3 Q-15.45 65.95 -15.05 66.4 -9.7 72.2 -14.6 77.2 L-14.6 77.7 Q-18.8 84.0 -18.35 91.65 -17.9 100.2 -26.2 99.65 L-26.8 98.3 Q-28.75 92.3 -27.0 86.05 L-26.2 86.05 -23.9 86.85 -23.5 87.75 -26.95 88.9 -25.2 90.6 -26.05 90.85 -26.35 91.9 -26.8 92.15 -26.65 92.6 -24.4 95.6 -23.35 94.8 -23.6 92.9 -22.9 92.85 -22.6 92.4 -22.6 91.9 Q-21.25 88.9 -20.3 85.45 L-20.45 82.65 Q-23.55 82.15 -25.7 84.45 L-26.65 84.45 M-46.4 66.5 L-44.75 67.6 -43.0 67.9 -46.1 67.8 -46.4 66.5 M-67.15 61.25 L-66.75 60.5 -67.1 60.0 -69.95 61.3 -67.15 61.25 M-72.5 71.45 L-72.6 71.95 Q-72.9 74.15 -71.55 75.75 -69.55 74.0 -69.5 71.3 L-72.15 71.15 -72.5 71.45 M-73.8 64.6 Q-82.35 63.8 -87.25 57.75 -88.65 56.0 -87.4 53.85 -86.3 52.0 -84.2 52.75 L-72.6 57.55 Q-70.55 61.1 -73.1 63.95 L-73.8 64.6 M-68.0 85.05 Q-60.55 87.35 -52.65 89.15 L-50.95 89.4 Q-48.8 91.4 -49.05 94.35 -49.25 96.4 -50.9 97.65 L-51.8 98.3 Q-62.15 92.4 -73.75 93.0 -74.6 93.15 -75.15 92.25 -78.6 86.7 -84.15 83.35 -88.25 80.85 -86.85 75.9 -83.3 74.5 -80.4 76.95 -78.3 78.75 -77.25 81.35 -77.45 84.2 -74.8 85.45 -71.5 87.05 -68.35 85.6 L-68.0 85.05 M-70.2 99.15 Q-68.25 105.25 -67.15 111.3 -66.9 112.6 -68.25 113.3 -72.9 115.8 -71.2 120.5 L-71.4 120.95 -71.85 121.1 -72.1 121.8 -72.6 121.25 Q-78.0 119.1 -77.4 112.5 -77.1 109.5 -75.05 107.3 L-75.4 107.05 -75.3 106.9 Q-75.0 106.3 -75.1 105.75 -75.65 102.05 -77.35 98.6 L-76.85 96.25 Q-74.2 98.6 -70.2 99.15 M-49.65 77.0 Q-46.8 79.4 -42.1 79.4 L-41.75 79.4 Q-42.35 88.25 -40.25 97.0 -39.9 98.45 -40.8 99.65 -41.6 100.75 -42.9 100.75 L-44.4 102.55 Q-43.4 112.95 -49.15 120.4 -49.9 121.3 -51.2 121.0 L-54.05 116.0 Q-51.6 108.3 -51.2 100.1 L-49.15 97.75 -48.1 95.95 Q-47.6 94.75 -47.8 93.7 L-47.2 95.9 Q-45.85 97.1 -43.95 96.85 L-42.95 96.6 Q-42.6 96.2 -42.75 95.65 -43.3 93.9 -43.35 92.15 -45.7 92.0 -47.7 93.35 -47.65 91.05 -49.15 89.2 -49.75 88.4 -50.6 88.1 -50.75 82.45 -49.65 77.0 M-38.5 94.65 L-38.4 94.4 -28.9 97.55 Q-28.1 98.8 -26.9 99.6 -22.0 103.0 -18.55 98.8 -9.6 102.3 -1.95 99.35 2.0 104.75 -3.25 107.0 L-4.55 107.25 -17.9 106.65 -19.2 107.55 Q-23.85 110.4 -28.9 108.65 L-30.6 104.95 -40.65 101.25 -40.3 100.7 Q-38.45 98.05 -38.5 94.65 M-87.9 6.75 L-88.3 14.55 Q-91.9 12.35 -92.05 8.05 -92.25 1.7 -87.2 -1.85 L-87.85 6.75 -87.9 6.75 M-90.1 25.5 L-88.85 23.95 -89.3 38.7 Q-95.7 32.5 -90.1 25.5 M-92.0 52.9 Q-91.0 50.45 -89.4 48.25 L-89.25 63.6 Q-94.55 59.25 -92.0 52.9 M-86.75 105.2 L-91.1 100.4 Q-90.55 98.9 -89.65 97.7 L-87.4 95.5 -86.7 105.15 -86.75 105.2 M-88.95 86.05 Q-94.3 80.95 -91.15 74.75 L-88.85 71.95 -88.0 86.9 -88.95 86.05 M-84.9 106.65 Q-85.7 103.75 -84.1 101.5 -83.6 100.7 -82.65 100.65 L-81.05 100.8 Q-79.35 101.4 -77.75 102.3 L-76.3 105.95 -78.55 111.1 Q-81.45 108.6 -84.9 106.65 M-29.0 112.2 L-22.35 112.7 Q-27.05 121.55 -23.05 129.55 -21.65 132.25 -24.35 134.65 L-27.0 136.95 -28.35 148.8 -30.55 149.25 -32.95 148.75 -34.8 147.7 Q-36.1 139.3 -32.45 132.0 L-33.55 132.7 -34.9 133.1 Q-39.55 130.25 -44.9 129.4 L-45.15 130.0 -45.85 130.15 -46.5 130.1 -46.9 130.4 Q-48.75 130.65 -50.7 130.45 -52.75 130.4 -54.15 129.55 L-55.1 128.6 -55.6 128.55 Q-56.85 126.2 -57.05 123.5 L-57.1 121.6 Q-62.5 119.85 -67.2 116.25 L-68.55 115.15 Q-66.6 113.7 -65.7 111.55 L-65.35 110.15 Q-56.85 113.1 -52.6 120.3 -51.95 121.45 -50.5 121.55 -41.4 122.35 -33.0 125.65 -30.9 127.95 -31.65 130.5 L-30.95 129.35 Q-30.6 128.85 -30.7 128.0 L-30.95 126.0 -31.8 124.9 -29.0 112.2 M-8.5 145.9 Q-5.8 146.9 -2.7 146.9 L-0.85 146.75 Q-1.4 151.7 -6.7 151.05 L-8.2 150.7 -8.5 145.9 M-47.55 133.8 Q-47.5 135.85 -48.6 137.35 -49.75 138.8 -51.35 138.8 -53.0 138.8 -54.15 137.35 -55.3 135.9 -55.3 133.85 -51.55 134.95 -47.9 133.8 L-47.55 133.8" fill="#444444" fill-rule="evenodd" stroke="none"/>
    <path d="M14.95 8.3 L12.5 8.3 10.1 8.8 12.5 -8.05 13.05 -8.4 Q14.85 -10.8 15.5 -13.65 L15.5 -14.15 Q13.45 -19.1 13.55 -24.3 19.1 -20.35 18.4 -13.8 17.25 -2.65 14.95 8.3 M-27.85 -16.6 L-27.15 -21.95 Q-18.85 -21.05 -11.25 -24.1 -10.05 -24.7 -8.9 -23.9 -3.25 -20.05 3.2 -17.95 8.15 -16.2 13.2 -17.4 14.75 -15.8 14.4 -13.55 14.15 -11.75 12.95 -10.35 4.4 -12.75 -4.35 -14.25 -5.25 -14.35 -6.0 -15.05 -11.55 -20.65 -17.95 -16.2 -22.9 -17.95 -27.85 -16.6 M-7.0 15.55 Q-5.55 12.65 -6.15 9.35 L7.85 10.35 12.05 9.65 Q16.1 8.7 19.0 11.7 19.35 14.3 18.0 16.2 L17.65 16.5 Q12.35 14.85 7.3 17.35 0.55 13.85 -7.0 15.55 M9.9 21.25 L14.5 21.35 Q11.0 32.45 13.05 43.45 L9.3 49.65 9.25 50.75 Q8.9 53.6 6.45 54.95 L6.3 53.85 5.1 55.05 Q5.0 51.95 6.95 49.7 L7.5 49.65 7.6 49.0 8.45 47.9 Q9.2 47.5 9.2 47.0 L9.15 46.15 7.3 40.0 Q7.8 33.35 8.7 26.75 9.1 23.95 9.9 21.25 M5.05 56.35 Q6.0 55.75 7.35 55.75 L8.2 55.9 Q7.1 58.05 4.95 57.2 L5.05 56.35 M4.75 60.5 L7.65 61.25 4.65 61.95 4.75 60.5 M6.8 48.4 L6.55 48.8 4.15 48.6 6.8 48.4 M-32.95 42.7 L-33.5 42.7 -33.25 42.35 -32.95 42.7 M-32.55 40.45 L-32.9 35.4 Q-30.2 37.4 -26.85 37.35 -23.9 37.35 -21.05 38.1 L-21.05 38.15 -20.8 39.8 Q-17.45 41.0 -13.9 40.95 L-12.3 40.9 -12.2 40.3 Q-3.1 39.25 6.25 40.4 L7.85 45.95 -1.05 44.7 Q-7.35 43.55 -13.2 45.3 -14.95 45.8 -16.45 44.85 -24.05 40.25 -32.75 41.1 L-32.55 40.45 M-11.1 70.5 Q-8.0 71.5 -4.65 71.3 L0.4 71.75 -1.8 72.4 6.2 74.75 6.2 75.0 6.3 75.2 6.45 75.35 4.9 77.5 4.2 77.45 4.1 75.35 3.25 75.3 2.45 75.25 1.8 75.3 Q0.75 75.3 1.25 75.9 L-10.15 75.55 -10.2 72.45 -11.1 70.5 M8.2 74.6 L8.85 74.75 9.9 76.45 8.85 76.7 8.2 74.6 M3.15 97.3 L3.55 98.95 3.0 99.95 2.55 100.1 0.9 97.0 3.15 97.3 M-73.45 -24.15 L-66.0 -24.55 Q-64.85 -26.05 -63.3 -26.85 -60.35 -28.2 -58.0 -26.15 -58.0 -24.9 -57.0 -24.35 -53.8 -22.65 -50.35 -22.4 -44.65 -21.5 -39.4 -23.05 L-38.35 -20.95 Q-37.8 -19.7 -38.3 -18.6 L-39.3 -19.15 Q-45.5 -17.2 -52.05 -17.95 -55.15 -17.75 -56.75 -20.35 -58.25 -22.8 -60.8 -21.85 -68.3 -19.0 -76.25 -19.05 L-73.45 -24.15 M-36.9 -42.8 Q-36.25 -44.0 -35.05 -44.35 L-32.7 -44.6 -32.3 -43.7 Q-35.55 -32.2 -31.95 -20.95 -31.45 -19.4 -32.1 -17.75 -35.5 -8.7 -34.9 1.15 -37.75 0.1 -40.75 0.45 L-41.7 0.25 -41.55 -1.15 -40.95 -1.85 -39.45 -14.7 Q-37.6 -15.25 -37.25 -17.15 -36.95 -18.55 -37.15 -20.0 L-36.75 -20.65 Q-39.65 -26.55 -38.4 -33.05 -37.5 -37.9 -36.9 -42.8 M-8.8 -26.65 L-13.4 -26.95 -14.75 -25.95 Q-14.15 -32.45 -12.95 -38.75 -10.85 -41.7 -7.4 -41.55 L-6.5 -41.25 Q-9.25 -34.15 -8.8 -26.65 M-10.85 -43.2 L-10.55 -43.65 -10.2 -43.45 -10.85 -43.2 M-59.95 -28.95 Q-60.8 -29.8 -61.3 -30.8 -62.5 -33.1 -61.5 -35.7 L-61.0 -35.45 Q-58.1 -33.95 -59.3 -30.65 L-59.95 -28.95 M-59.75 -12.65 L-59.65 -12.65 -59.75 -12.4 -59.75 -12.65 M-67.8 -10.65 L-63.95 -12.4 -62.65 -12.05 -62.45 -2.25 Q-62.2 2.7 -63.1 7.35 -65.5 19.65 -64.75 32.1 L-67.15 33.05 Q-69.65 32.5 -71.05 30.15 L-70.7 29.35 -71.65 29.05 Q-72.1 19.65 -67.8 11.2 L-67.05 11.2 -67.6 10.7 Q-66.2 7.4 -67.85 4.2 L-69.95 2.9 -69.7 2.6 -69.35 2.35 -67.8 -10.65 M-58.2 8.6 L-58.15 6.05 -58.75 2.95 -45.45 4.5 Q-38.35 -1.6 -31.45 4.15 -24.55 9.9 -15.65 8.4 L-15.45 9.5 -15.4 10.5 -15.5 11.35 -15.95 13.15 Q-26.0 12.3 -35.75 10.35 L-45.45 9.35 -53.35 8.8 -58.25 9.25 -58.2 8.6 M-14.7 39.8 L-16.6 39.6 Q-17.4 39.7 -17.55 39.25 -22.05 26.75 -15.1 14.2 -14.5 13.05 -14.75 11.85 -17.55 -0.15 -14.75 -12.6 -13.75 -13.3 -12.45 -13.3 -11.15 -13.3 -9.8 -11.8 -12.45 -0.7 -9.5 10.6 -9.0 12.55 -9.95 14.25 -16.65 26.4 -14.7 39.8 M-42.1 15.45 Q-40.8 14.8 -37.5 14.8 -38.75 23.15 -37.4 31.25 -37.1 33.15 -37.45 34.95 -40.25 49.7 -41.55 64.55 L-44.7 65.45 -47.1 63.5 Q-47.65 49.6 -41.05 37.7 L-41.75 36.55 Q-41.45 35.1 -42.1 33.8 L-42.4 33.25 -42.85 32.75 -44.05 31.85 -42.1 15.45 M-82.25 3.1 Q-76.1 2.75 -70.7 3.1 L-68.5 7.3 -82.6 7.15 -82.25 3.1 M-72.2 10.05 L-73.75 9.95 -71.95 9.7 -72.2 10.05 M-63.65 33.3 L-62.0 33.25 -61.85 32.25 -44.95 32.95 -44.8 33.35 -44.4 33.65 -44.2 32.9 -43.7 33.4 Q-41.4 36.6 -44.15 39.8 L-44.35 39.35 Q-50.6 36.75 -57.5 36.05 -61.2 39.55 -66.1 39.5 -67.6 39.5 -68.6 38.7 -73.85 34.75 -79.8 32.05 L-80.8 28.25 -72.5 30.4 -71.85 31.35 Q-68.5 35.1 -63.65 33.3 M-64.2 57.8 L-63.9 59.5 -64.35 59.0 -64.2 57.8 M-72.2 48.7 L-71.95 45.85 -67.9 46.55 -67.7 55.55 -70.3 57.35 -71.0 57.15 -71.35 55.45 -69.05 53.35 -72.2 48.7 M-62.85 60.5 L-63.2 58.85 Q-53.55 59.6 -47.1 65.8 L-46.4 66.5 -46.1 67.8 -43.0 67.9 Q-40.7 68.3 -39.1 66.45 L-38.4 65.55 Q-32.0 67.1 -25.5 66.8 -23.2 67.75 -22.4 70.1 L-22.0 70.25 -21.5 72.4 Q-33.75 72.0 -45.25 70.3 -47.6 69.9 -49.5 68.2 L-50.1 67.85 -57.75 67.4 Q-60.7 66.6 -62.0 63.8 L-61.0 62.2 -62.85 60.5 M-21.0 72.3 Q-21.0 71.2 -21.45 70.35 -25.95 61.6 -21.75 52.25 -19.85 53.75 -17.05 53.9 -19.4 62.5 -15.35 70.1 L-14.25 70.25 -14.2 72.45 -16.0 72.55 -15.05 74.15 -15.5 75.25 -19.7 73.9 -19.35 71.8 -21.0 72.3 M-27.0 86.05 L-26.65 84.45 -25.7 84.45 Q-23.55 82.15 -20.45 82.65 L-20.3 85.45 Q-21.25 88.9 -22.6 91.9 L-22.6 92.4 -22.9 92.85 -23.6 92.9 -23.35 94.8 -24.4 95.6 -26.65 92.6 -26.8 92.15 -26.35 91.9 -26.05 90.85 -25.2 90.6 -26.95 88.9 -23.5 87.75 -23.9 86.85 -26.2 86.05 -27.0 86.05 M-67.15 61.25 L-69.95 61.3 -67.1 60.0 -66.75 60.5 -67.15 61.25 M-72.5 71.45 L-72.15 71.15 -69.5 71.3 Q-69.55 74.0 -71.55 75.75 -72.9 74.15 -72.6 71.95 L-72.5 71.45 M-47.7 93.35 Q-45.7 92.0 -43.35 92.15 -43.3 93.9 -42.75 95.65 -42.6 96.2 -42.95 96.6 L-43.95 96.85 Q-45.85 97.1 -47.2 95.9 L-47.8 93.7 -47.7 93.35" fill="#737373" fill-rule="evenodd" stroke="none"/>
    <path d="M-12.45 -118.15 L-58.75 -113.25 -70.35 -111.95 Q-95.55 -109.85 -119.25 -101.5 L-119.25 -104.65 Q-107.4 -109.5 -90.4 -112.55 L-78.0 -112.05 Q-72.45 -112.2 -68.1 -115.75 L-36.95 -118.0 Q-23.4 -118.6 -12.45 -118.15 M-71.6 -156.6 L-76.4 -156.05 Q-72.75 -159.15 -68.15 -160.8 L-59.8 -163.3 -59.85 -160.95 -49.9 -160.65 -50.35 -158.95 -46.25 -158.4 -45.45 -157.2 -58.85 -151.0 -53.3 -151.75 -52.75 -150.8 -60.95 -147.0 -56.65 -146.85 -56.6 -145.35 -62.4 -142.65 -62.0 -144.8 -67.3 -144.1 -64.65 -146.3 -66.25 -147.75 -69.65 -146.3 -73.05 -144.75 Q-74.5 -144.1 -75.85 -144.75 L-72.9 -146.65 -70.3 -150.0 -72.25 -151.1 -76.15 -150.0 -77.05 -150.3 -76.85 -152.35 -71.6 -156.6 M-67.4 -155.0 L-65.75 -154.4 -67.1 -153.1 -64.95 -152.95 -63.5 -152.05 -63.2 -150.8 -61.85 -150.7 -60.65 -151.75 -59.15 -155.0 -61.0 -155.2 -58.9 -156.8 -63.9 -158.3 -67.65 -156.05 -67.4 -155.0 M-59.4 -140.2 L-61.3 -140.55 -57.95 -142.65 -59.4 -140.2" fill="#8e9bac" fill-rule="evenodd" stroke="none"/>
    <path d="M-67.4 -155.0 L-67.65 -156.05 -63.9 -158.3 -58.9 -156.8 -61.0 -155.2 -59.15 -155.0 -60.65 -151.75 -61.85 -150.7 -63.2 -150.8 -63.5 -152.05 -64.95 -152.95 -67.1 -153.1 -65.75 -154.4 -67.4 -155.0 M-68.1 -115.75 Q-72.45 -112.2 -78.0 -112.05 L-90.4 -112.55 -68.1 -115.75" fill="#ffffff" fill-rule="evenodd" stroke="none"/>
    <path d="M-86.5 207.7 Q-88.9 182.7 -95.1 158.4 -100.15 138.55 -107.45 119.55 L-103.95 112.85 -98.45 118.2 Q-90.55 132.05 -78.9 143.0 -65.1 155.95 -52.6 170.25 L-51.2 174.35 Q-70.65 173.85 -89.85 177.2 -70.1 176.15 -50.2 178.05 L-48.6 181.75 Q-44.35 191.5 -42.6 202.05 -62.9 200.6 -82.4 206.4 L-86.5 207.7 M-34.7 231.5 L-39.75 230.35 Q-61.55 225.65 -83.9 225.9 -83.85 219.3 -85.3 213.0 L-85.9 210.35 Q-63.6 207.5 -41.6 211.7 L-34.7 231.5" fill="#603535" fill-rule="evenodd" stroke="none"/>
    <path d="M-86.5 207.7 L-82.4 206.4 Q-62.9 200.6 -42.6 202.05 L-42.3 209.2 -47.4 208.4 Q-67.4 206.45 -86.5 207.7 M-52.6 170.25 Q-65.1 155.95 -78.9 143.0 -90.55 132.05 -98.45 118.2 -80.95 134.1 -62.7 149.1 L-58.2 152.75 -52.6 170.25 M-83.9 225.9 Q-61.55 225.65 -39.75 230.35 L-34.7 231.5 -34.6 234.45 Q-59.0 228.5 -84.0 230.6 L-83.9 225.9" fill="#472727" fill-rule="evenodd" stroke="none"/>
    <path d="M51.5 142.25 L58.0 138.75 Q73.85 151.25 82.65 169.35 83.9 171.95 84.8 174.7 86.7 180.4 85.0 186.1 83.85 190.0 80.75 192.55 72.9 198.95 63.15 201.65 70.75 202.5 77.85 199.55 82.7 197.65 86.15 193.55 88.95 200.45 91.0 207.65 91.75 210.35 89.25 211.9 78.7 218.45 67.1 223.0 60.7 225.4 54.1 226.95 46.65 228.75 39.05 229.35 38.65 214.7 37.1 200.0 L36.85 197.5 Q39.5 200.45 43.2 201.8 L46.85 202.3 48.05 202.15 43.65 199.35 Q42.25 198.45 41.1 197.15 39.15 194.95 36.5 193.3 34.75 174.4 29.15 156.4 L51.5 142.25" fill="#2f2f2f" fill-rule="evenodd" stroke="none"/>
    <path d="M39.65 273.2 Q39.55 263.85 40.9 254.6 42.05 246.65 40.2 239.05 39.35 235.65 39.5 232.15 66.7 230.1 89.8 215.6 98.4 239.65 101.65 265.05 80.2 270.1 58.4 273.2 L39.65 273.2" fill="#1a1a1a" fill-rule="evenodd" stroke="none"/>
  </g>
</svg>
