<?xml version="1.0" encoding="UTF-8" standalone="no"?>
<svg xmlns:xlink="http://www.w3.org/1999/xlink" height="60.05px" width="175.05px" xmlns="http://www.w3.org/2000/svg">
  <g transform="matrix(1.0, 0.0, 0.0, 1.0, 87.55, 30.05)">
    <path d="M2.05 25.35 L2.05 7.4 13.55 5.65 25.55 3.0 37.55 0.4 Q39.65 -0.2 41.65 -1.65 45.5 -4.4 47.45 -8.9 L47.1 -10.95 43.65 -14.1 39.9 -16.75 Q37.9 -17.9 35.7 -18.55 24.5 -22.05 12.8 -23.1 L-5.7 -24.05 Q-16.4 -23.95 -26.75 -26.3 L-20.65 -27.6 Q-11.65 -29.25 -2.35 -29.9 7.1 -30.3 16.3 -29.7 L30.0 -28.2 43.8 -26.75 Q53.15 -25.7 62.35 -23.85 L68.55 -22.35 Q77.95 -19.25 84.45 -11.8 86.2 -1.9 81.65 7.05 79.5 11.25 75.75 14.25 71.9 17.3 67.6 19.4 65.05 20.7 62.3 21.5 54.35 23.45 46.1 24.25 L27.3 25.05 15.0 25.25 2.75 25.35 2.05 25.35" fill="#ffffff" fill-opacity="0.3254902" fill-rule="evenodd" stroke="none"/>
    <path d="M2.05 25.35 L2.75 25.35 15.0 25.25 27.3 25.05 46.1 24.25 Q54.35 23.45 62.3 21.5 65.05 20.7 67.6 19.4 71.9 17.3 75.75 14.25 79.5 11.25 81.65 7.05 86.2 -1.9 84.45 -11.8 87.4 -7.65 87.5 -2.4 87.6 2.35 85.3 6.6 82.15 12.4 76.95 16.7 68.45 23.75 57.7 26.6 L45.95 28.55 38.7 29.2 24.15 30.0 7.05 29.95 2.05 29.9 2.05 25.35" fill="#ffffff" fill-opacity="0.7058824" fill-rule="evenodd" stroke="none"/>
    <path d="M2.05 25.35 L2.05 29.9 -12.7 29.5 -30.4 27.9 -36.65 27.45 -46.05 26.5 Q-57.75 24.95 -68.5 19.85 -79.6 14.55 -87.55 5.5 L-82.45 4.65 -80.8 4.7 -77.35 5.05 -73.25 5.7 -72.65 5.8 Q-67.25 14.0 -57.95 17.95 L-56.95 18.4 -56.9 18.4 -52.95 19.3 -43.8 21.1 -36.65 22.05 -25.2 23.35 -10.7 24.65 2.05 25.35" fill="#ffffff" fill-opacity="0.7058824" fill-rule="evenodd" stroke="none"/>
    <path d="M-73.25 5.7 L-67.7 6.6 -41.25 9.15 -36.65 9.35 Q-29.65 9.55 -22.85 9.35 L-4.6 8.15 2.05 7.4 2.05 25.35 -10.7 24.65 -25.2 23.35 -36.65 22.05 -43.8 21.1 -52.95 19.3 -56.9 18.4 -56.95 18.4 -57.95 17.95 Q-67.25 14.0 -72.65 5.8 L-73.25 5.7" fill="#ffffff" fill-opacity="0.3254902" fill-rule="evenodd" stroke="none"/>
  </g>
</svg>
