<?xml version="1.0" encoding="UTF-8" standalone="no"?>
<svg xmlns:xlink="http://www.w3.org/1999/xlink" height="23.4px" width="58.15px" xmlns="http://www.w3.org/2000/svg">
  <g transform="matrix(1.0, 0.0, 0.0, 1.0, 34.75, 9.7)">
    <path d="M-22.9 -9.0 L-22.9 -9.05 -20.45 -8.65 -14.9 -7.75 -5.05 -6.5 -3.85 -5.8 1.6 -0.55 Q5.6 3.75 10.5 6.95 L13.95 9.05 14.25 9.25 16.25 10.3 19.05 11.7 19.7 12.0 10.1 10.9 Q2.15 9.2 -5.35 6.0 -12.45 2.95 -18.0 -2.35 -21.05 -5.25 -22.9 -9.0" fill="#ffffff" fill-opacity="0.3254902" fill-rule="evenodd" stroke="none"/>
    <path d="M19.05 11.7 L23.4 13.7 22.4 13.55 16.15 13.1 6.75 12.15 Q-4.95 10.6 -15.7 5.5 -26.8 0.2 -34.75 -8.85 L-29.65 -9.7 -28.0 -9.65 -24.55 -9.3 -22.9 -9.0 Q-21.05 -5.25 -18.0 -2.35 -12.45 2.95 -5.35 6.0 2.15 9.2 10.1 10.9 L19.7 12.0 19.05 11.7" fill="#ffffff" fill-opacity="0.7058824" fill-rule="evenodd" stroke="none"/>
  </g>
</svg>
