<?xml version="1.0" encoding="UTF-8" standalone="no"?>
<svg xmlns:xlink="http://www.w3.org/1999/xlink" height="88.3px" width="59.25px" xmlns="http://www.w3.org/2000/svg">
  <g transform="matrix(1.0, 0.0, 0.0, 1.0, 25.45, 42.55)">
    <path d="M-25.45 -42.55 Q-0.9 -33.85 16.7 -13.35 30.1 2.25 32.05 21.8 L32.2 22.45 32.8 23.3 Q33.25 26.6 33.0 30.05 L32.8 32.75 33.8 34.55 32.65 36.4 32.65 36.7 Q11.55 39.95 -9.25 44.7 L-9.3 44.05 -9.6 44.45 -9.85 44.75 -10.9 45.75 Q-9.6 37.65 -10.75 29.1 -13.4 9.85 -23.15 -6.45 L-23.25 -6.95 Q-20.2 -12.3 -19.6 -19.55 -18.5 -32.8 -25.45 -42.55" fill="#ffffff" fill-opacity="0.2" fill-rule="evenodd" stroke="none"/>
  </g>
</svg>
