<?xml version="1.0" encoding="UTF-8" standalone="no"?>
<svg xmlns:xlink="http://www.w3.org/1999/xlink" height="110.75px" width="44.7px" xmlns="http://www.w3.org/2000/svg">
  <g transform="matrix(1.0, 0.0, 0.0, 1.0, 21.4, 94.6)">
    <path d="M1.7 -94.6 L6.6 -87.65 11.3 -79.0 Q14.95 -71.8 16.05 -68.95 19.05 -61.25 21.4 -53.25 23.25 -46.9 22.3 -40.5 20.25 -40.15 19.5 -42.3 L18.65 -42.4 17.85 -43.05 17.0 -43.65 16.15 -44.05 Q13.45 -45.2 10.95 -44.1 L10.55 -43.6 9.15 -42.85 8.4 -39.35 Q12.4 -35.65 15.45 -31.3 17.7 -28.1 19.4 -24.3 21.1 -20.55 22.15 -16.55 24.25 -8.3 22.45 -0.15 L11.95 -12.2 11.45 -12.0 10.5 -12.5 10.15 -10.65 9.1 -7.0 Q7.85 -3.45 4.85 -2.2 L4.65 0.35 -4.65 0.85 Q-5.0 -0.9 -5.8 -2.35 -9.15 -8.3 -8.85 -15.1 L-12.15 -12.25 Q-17.05 -7.6 -19.45 -1.3 L-20.55 -1.65 Q-20.5 -3.65 -20.9 -5.7 -21.7 -9.85 -21.25 -13.95 -20.55 -19.95 -18.15 -25.4 -14.55 -33.7 -7.35 -39.05 L-9.45 -45.65 -9.8 -45.65 -11.35 -46.2 Q-12.1 -46.5 -12.85 -46.2 L-14.35 -45.8 Q-18.2 -43.2 -19.05 -38.65 L-20.2 -38.95 Q-20.05 -46.1 -18.65 -53.1 -17.05 -61.0 -14.15 -68.25 -11.2 -75.6 -7.55 -82.55 -3.85 -89.55 1.7 -94.6 M9.35 -79.25 L4.55 -86.75 2.3 -89.75 1.45 -91.35 1.65 -85.95 Q2.3 -67.65 1.45 -48.2 L0.8 -33.55 0.75 -33.15 0.75 -33.85 0.7 -36.35 Q0.65 -45.8 1.15 -55.25 1.7 -63.4 1.45 -71.6 L1.25 -80.9 0.95 -92.3 -2.3 -87.55 Q-9.05 -77.55 -13.45 -65.85 -17.4 -55.45 -18.3 -44.2 -16.2 -47.1 -12.6 -47.8 -10.85 -48.0 -9.45 -47.2 -7.95 -46.25 -7.05 -44.25 -5.8 -41.45 -5.65 -38.0 -6.05 -37.4 -6.4 -37.15 L-8.75 -35.2 Q-15.3 -30.35 -17.65 -22.3 -20.05 -13.75 -19.7 -4.8 L-16.2 -9.9 Q-13.05 -14.05 -8.75 -16.75 L-8.35 -20.25 Q-7.4 -26.9 -3.95 -32.95 L-3.05 -34.5 -2.2 -34.85 Q-4.4 -30.8 -5.8 -26.65 -9.0 -17.2 -6.35 -7.75 L-3.9 -10.4 -3.75 -9.4 -4.35 -9.0 -6.05 -6.85 -4.85 -4.0 -3.15 -2.0 -3.35 -1.45 -0.3 -0.6 3.5 -0.9 3.5 -2.9 4.3 -3.45 Q6.25 -4.25 6.25 -6.35 6.6 -6.35 6.85 -6.6 L7.05 -7.3 8.65 -15.5 9.35 -16.35 9.5 -15.75 12.45 -13.65 19.3 -5.95 21.35 -3.55 Q22.1 -11.35 19.65 -18.75 17.85 -24.3 14.6 -29.1 L14.8 -28.65 7.15 -39.1 Q6.65 -42.05 8.4 -44.95 L8.7 -45.1 Q13.05 -48.15 17.7 -45.25 L20.75 -43.25 Q20.35 -52.45 17.4 -61.3 14.85 -69.15 10.7 -76.8 L9.4 -79.25 9.35 -79.25 M-4.85 -18.65 L-3.8 -19.05 -4.0 -18.85 Q-4.0 -18.3 -3.7 -18.25 L-4.85 -17.85 -7.25 -16.7 -4.85 -18.65 M3.2 7.45 L-2.45 7.25 -2.4 14.85 0.1 15.05 2.55 14.35 3.2 7.45 M3.15 5.8 Q1.2 3.55 -1.55 4.85 L-2.4 5.4 -2.4 6.1 -1.55 5.5 3.15 6.3 3.15 5.8 M3.45 15.8 L-2.85 16.15 -3.55 15.05 -3.9 8.75 Q-4.5 2.35 2.1 3.3 L2.5 3.6 4.3 4.35 3.9 15.2 3.45 15.8" fill="#000000" fill-rule="evenodd" stroke="none"/>
    <path d="M2.95 -84.3 L2.9 -86.8 5.4 -82.3 5.7 -81.65 5.75 -81.6 Q13.25 -66.95 16.6 -50.85 L17.7 -45.25 Q13.05 -48.15 8.7 -45.1 L8.4 -44.95 Q6.65 -42.05 7.15 -39.1 L14.8 -28.65 Q18.3 -21.25 19.5 -12.95 18.65 -11.95 18.8 -10.65 L19.3 -5.95 12.45 -13.65 13.0 -13.3 Q12.35 -22.3 8.65 -30.55 6.8 -34.7 3.9 -38.35 L6.55 -48.2 Q8.7 -49.75 7.55 -52.75 5.05 -59.25 4.3 -65.9 3.25 -75.05 2.95 -84.3 M6.25 -6.35 Q6.25 -4.25 4.3 -3.45 L3.5 -2.9 3.5 -0.9 -0.3 -0.6 -4.35 -9.0 -3.75 -9.4 -3.25 -9.6 Q2.95 -11.6 6.25 -6.35 M0.75 -33.85 L0.75 -33.15 0.8 -33.55 Q1.1 -32.3 2.25 -32.0 L3.0 -31.9 5.75 -18.65 Q2.2 -20.4 -1.5 -19.8 L-3.65 -19.15 -3.7 -19.1 -3.8 -19.05 -4.85 -18.65 -2.35 -34.25 0.65 -34.75 0.75 -33.85 M4.95 -78.75 L4.65 -78.05 Q3.9 -75.1 4.95 -72.3 L5.55 -71.8 Q7.25 -71.0 7.45 -72.8 7.95 -76.65 5.85 -79.05 L5.3 -78.9 4.95 -78.75 M0.45 -22.1 L3.15 -24.15 3.45 -28.5 0.9 -31.95 -2.0 -29.05 -2.35 -24.95 0.45 -22.1 M6.0 -17.45 L6.3 -16.1 Q7.3 -11.35 6.75 -6.9 3.75 -11.45 -1.9 -11.45 L-3.9 -10.4 -4.85 -17.85 -3.7 -18.25 Q0.0 -19.3 3.95 -18.35 L6.0 -17.45" fill="#ffd944" fill-rule="evenodd" stroke="none"/>
    <path d="M1.65 -85.95 L2.95 -84.3 Q3.25 -75.05 4.3 -65.9 5.05 -59.25 7.55 -52.75 8.7 -49.75 6.55 -48.2 L3.9 -38.35 Q6.8 -34.7 8.65 -30.55 12.35 -22.3 13.0 -13.3 L12.45 -13.65 9.5 -15.75 9.35 -16.35 8.55 -23.35 Q7.8 -28.05 5.75 -32.0 L5.05 -33.25 8.65 -16.0 5.75 -18.65 3.0 -31.9 2.25 -32.0 Q1.1 -32.3 0.8 -33.55 L1.45 -48.2 Q2.3 -67.65 1.65 -85.95 M5.75 -81.6 L7.65 -80.25 9.35 -79.25 9.4 -79.25 10.7 -76.8 Q14.85 -69.15 17.4 -61.3 20.35 -52.45 20.75 -43.25 L17.7 -45.25 16.6 -50.85 Q13.25 -66.95 5.75 -81.6 M14.8 -28.65 L14.6 -29.1 Q17.85 -24.3 19.65 -18.75 22.1 -11.35 21.35 -3.55 L19.3 -5.95 18.8 -10.65 Q18.65 -11.95 19.5 -12.95 18.3 -21.25 14.8 -28.65 M8.65 -15.5 L7.05 -7.3 6.75 -6.9 Q7.3 -11.35 6.3 -16.1 L6.0 -17.45 8.65 -15.5 M0.7 -36.35 L0.75 -33.85 0.65 -34.75 0.7 -36.35 M3.15 -24.15 L1.75 -25.1 2.05 -28.2 0.8 -30.1 0.9 -31.95 3.45 -28.5 3.15 -24.15" fill="#ffffff" fill-rule="evenodd" stroke="none"/>
    <path d="M9.35 -16.35 L8.65 -15.5 6.0 -17.45 3.95 -18.35 Q0.0 -19.3 -3.7 -18.25 -4.0 -18.3 -4.0 -18.85 L-3.8 -19.05 -3.7 -19.1 -3.65 -19.15 -1.5 -19.8 Q2.2 -20.4 5.75 -18.65 L8.65 -16.0 5.05 -33.25 5.75 -32.0 Q7.8 -28.05 8.55 -23.35 L9.35 -16.35 M7.05 -7.3 L6.85 -6.6 Q6.6 -6.35 6.25 -6.35 2.95 -11.6 -3.25 -9.6 L-3.75 -9.4 -3.9 -10.4 -6.35 -7.75 Q-9.0 -17.2 -5.8 -26.65 -4.4 -30.8 -2.2 -34.85 L-3.05 -34.5 -3.95 -32.95 Q-7.4 -26.9 -8.35 -20.25 L-8.75 -16.75 Q-13.05 -14.05 -16.2 -9.9 L-19.7 -4.8 Q-20.05 -13.75 -17.65 -22.3 -15.3 -30.35 -8.75 -35.2 L-6.4 -37.15 Q-6.05 -37.4 -5.65 -38.0 -5.8 -41.45 -7.05 -44.25 -7.95 -46.25 -9.45 -47.2 -10.85 -48.0 -12.6 -47.8 -16.2 -47.1 -18.3 -44.2 -17.4 -55.45 -13.45 -65.85 -9.05 -77.55 -2.3 -87.55 L-1.6 -85.6 Q0.2 -83.5 1.25 -80.9 L1.45 -71.6 Q1.7 -63.4 1.15 -55.25 0.65 -45.8 0.7 -36.35 L0.65 -34.75 -2.35 -34.25 -4.85 -18.65 -7.25 -16.7 -4.85 -17.85 -3.9 -10.4 -1.9 -11.45 Q3.75 -11.45 6.75 -6.9 L7.05 -7.3 M-0.3 -0.6 L-3.35 -1.45 -3.15 -2.0 -4.85 -4.0 -6.05 -6.85 -4.35 -9.0 -0.3 -0.6 M3.15 5.8 L3.15 6.3 -1.55 5.5 -2.4 6.1 -2.4 5.4 -1.55 4.85 Q1.2 3.55 3.15 5.8 M3.2 7.45 L2.55 14.35 0.1 15.05 -2.4 14.85 -2.45 7.25 3.2 7.45 M-3.2 -74.65 L-2.6 -82.1 -2.85 -83.65 Q-9.1 -74.35 -12.25 -63.8 L-16.1 -49.35 Q-10.8 -50.8 -6.0 -47.25 L-5.8 -47.45 -5.85 -54.8 Q-5.75 -57.5 -5.25 -60.2 L-3.6 -71.0 -3.25 -74.4 -3.2 -74.65 M-15.95 -17.3 L-16.1 -14.2 -12.05 -17.05 Q-11.1 -25.05 -8.25 -32.65 -13.6 -27.0 -15.55 -19.2 L-15.95 -17.3" fill="#b36a00" fill-rule="evenodd" stroke="none"/>
    <path d="M-3.2 -74.65 L-4.5 -75.7 -4.55 -75.65 -5.3 -75.45 -5.6 -75.1 Q-7.35 -72.15 -4.5 -70.5 L-3.9 -70.8 -3.6 -71.0 -5.25 -60.2 Q-5.75 -57.5 -5.85 -54.8 L-5.8 -47.45 -6.0 -47.25 Q-10.8 -50.8 -16.1 -49.35 L-12.25 -63.8 Q-9.1 -74.35 -2.85 -83.65 L-2.6 -82.1 -3.2 -74.65 M-7.1 -62.65 L-7.65 -62.85 -7.7 -62.8 -8.45 -62.3 -8.6 -61.95 Q-8.85 -60.05 -8.25 -58.25 L-7.85 -58.0 -7.55 -57.9 -7.2 -58.25 -7.1 -58.6 Q-6.15 -60.65 -7.1 -62.65 M-7.45 -68.25 L-7.6 -68.55 -8.55 -69.15 -9.1 -69.0 -9.45 -68.85 -9.75 -68.15 Q-9.95 -67.6 -9.6 -67.15 L-9.3 -66.85 -8.8 -66.45 -8.1 -66.6 -7.8 -66.95 Q-7.25 -67.55 -7.45 -68.25 M-15.95 -17.3 L-15.55 -19.2 Q-13.6 -27.0 -8.25 -32.65 -11.1 -25.05 -12.05 -17.05 L-16.1 -14.2 -15.95 -17.3" fill="#eea600" fill-rule="evenodd" stroke="none"/>
    <path d="M0.8 -30.1 L2.05 -28.2 1.75 -25.1 3.15 -24.15 0.45 -22.1 0.55 -24.05 -0.8 -25.75 -0.7 -28.35 0.8 -30.1" fill="#fc6161" fill-rule="evenodd" stroke="none"/>
    <path d="M0.8 -30.1 L-0.7 -28.35 -0.8 -25.75 0.55 -24.05 0.45 -22.1 -2.35 -24.95 -2.0 -29.05 0.9 -31.95 0.8 -30.1" fill="#ff0000" fill-rule="evenodd" stroke="none"/>
    <path d="M1.65 -85.95 L1.45 -91.35 2.3 -89.75 4.55 -86.75 9.35 -79.25 7.65 -80.25 5.75 -81.6 5.7 -81.65 5.4 -82.3 2.9 -86.8 2.95 -84.3 1.65 -85.95 M-2.3 -87.55 L0.95 -92.3 1.25 -80.9 Q0.2 -83.5 -1.6 -85.6 L-2.3 -87.55 M4.95 -78.75 L5.3 -78.9 5.85 -79.05 Q7.95 -76.65 7.45 -72.8 7.25 -71.0 5.55 -71.8 L4.95 -72.3 Q3.9 -75.1 4.65 -78.05 L4.95 -78.75 M-3.6 -71.0 L-3.9 -70.8 -4.5 -70.5 Q-7.35 -72.15 -5.6 -75.1 L-5.3 -75.45 -4.55 -75.65 -4.5 -75.7 -3.2 -74.65 -3.25 -74.4 -3.6 -71.0 M-7.45 -68.25 Q-7.25 -67.55 -7.8 -66.95 L-8.1 -66.6 -8.8 -66.45 -9.3 -66.85 -9.6 -67.15 Q-9.95 -67.6 -9.75 -68.15 L-9.45 -68.85 -9.1 -69.0 -8.55 -69.15 -7.6 -68.55 -7.45 -68.25 M-7.1 -62.65 Q-6.15 -60.65 -7.1 -58.6 L-7.2 -58.25 -7.55 -57.9 -7.85 -58.0 -8.25 -58.25 Q-8.85 -60.05 -8.6 -61.95 L-8.45 -62.3 -7.7 -62.8 -7.65 -62.85 -7.1 -62.65" fill="#996666" fill-rule="evenodd" stroke="none"/>
  </g>
</svg>
