<?xml version="1.0" encoding="UTF-8" standalone="no"?>
<svg xmlns:xlink="http://www.w3.org/1999/xlink" height="117.05px" width="23.8px" xmlns="http://www.w3.org/2000/svg">
  <g transform="matrix(1.0, 0.0, 0.0, 1.0, 11.85, 98.5)">
    <path d="M1.25 -97.6 Q10.7 -86.0 10.9 -70.65 L10.1 -70.5 6.4 -71.3 6.9 -67.6 10.8 -63.65 10.8 -62.65 11.15 -62.3 11.95 -52.85 9.9 -52.2 8.75 -53.2 7.85 -53.1 Q7.2 -33.95 5.5 -15.1 4.8 -7.2 4.85 0.8 0.2 3.3 -4.65 0.8 -5.1 -26.1 -7.65 -53.1 L-8.55 -53.2 -9.7 -52.2 -11.85 -52.55 -10.95 -62.3 -10.6 -62.65 -10.6 -63.3 -6.65 -67.6 -6.2 -71.3 -10.7 -70.65 Q-10.35 -85.9 -1.05 -97.6 L-1.05 -98.3 -0.45 -98.5 0.1 -98.35 0.45 -98.5 1.25 -98.3 1.25 -97.6 M7.4 -84.5 Q6.3 -87.4 4.8 -90.1 L3.45 -92.35 0.9 -96.05 0.1 -97.15 -0.75 -96.05 -2.8 -93.0 -2.8 -93.05 -3.3 -92.2 -4.65 -89.75 -5.35 -88.3 Q-6.85 -85.2 -7.8 -81.75 L-9.0 -76.8 -9.8 -72.2 -5.4 -73.2 -4.85 -73.0 -4.9 -68.4 -4.35 -67.7 -9.25 -63.2 -9.45 -62.2 -9.8 -61.85 -10.05 -56.8 -10.25 -53.45 -8.9 -54.45 -7.0 -54.45 -6.65 -54.1 -6.1 -45.3 -4.45 -19.45 Q-4.15 -31.05 -4.0 -42.9 L-4.0 -44.2 Q-4.05 -47.45 -4.4 -50.7 L-4.9 -54.9 Q-5.55 -61.0 -2.2 -66.1 L-1.35 -67.0 -0.85 -66.75 -0.8 -66.7 Q-4.15 -62.4 -4.1 -56.9 -4.1 -52.55 -2.05 -48.5 L-2.45 -47.75 -3.15 0.0 0.1 0.25 3.35 0.0 2.75 -44.8 2.7 -47.75 2.25 -48.5 Q4.65 -53.3 4.25 -58.65 3.95 -63.1 1.1 -66.6 L1.0 -66.7 1.1 -66.75 1.55 -67.0 1.65 -66.9 2.7 -65.7 Q4.8 -63.05 5.3 -59.15 5.75 -55.75 5.15 -52.5 L4.8 -50.75 4.75 -50.65 Q3.05 -44.15 3.75 -37.15 L4.05 -33.85 4.5 -25.85 4.7 -19.65 4.7 -19.45 6.85 -54.1 7.2 -54.45 9.1 -54.45 10.1 -53.55 10.05 -58.3 10.0 -61.85 9.65 -62.2 9.45 -63.2 4.4 -67.35 4.95 -68.4 5.05 -73.0 5.6 -73.2 10.0 -72.2 9.4 -75.95 Q8.9 -80.35 7.4 -84.5 M-0.1 -84.4 L0.4 -84.4 0.55 -83.45 1.0 -82.8 1.0 -66.9 0.9 -66.8 0.5 -66.45 0.1 -79.2 -0.4 -66.5 -0.7 -66.8 -0.8 -66.9 -0.8 -82.8 -0.35 -83.45 -0.4 -83.8 -0.1 -84.4 M-3.95 5.75 L-4.3 6.05 -4.3 6.4 -4.3 6.75 -4.3 7.1 -4.3 7.4 -2.7 8.1 -2.5 8.1 -2.35 8.25 1.85 8.65 2.25 8.3 2.55 8.5 3.7 8.2 3.75 7.85 3.8 7.2 3.8 5.5 3.1 5.3 0.45 5.05 -2.25 5.5 -3.95 5.75 M-5.7 7.3 Q-5.1 5.7 -5.15 4.4 L-4.65 4.6 2.9 3.5 4.65 4.3 5.05 4.6 5.25 8.0 5.05 9.35 Q4.45 9.85 3.6 9.95 L3.15 10.1 2.85 10.1 2.9 17.45 2.9 18.1 Q0.2 19.0 -3.05 18.1 L-3.4 17.75 -3.3 9.5 -5.55 8.9 Q-5.5 8.05 -5.7 7.3 M-2.15 16.55 Q-0.55 17.3 1.55 17.1 L1.45 10.1 -2.1 9.75 -2.15 16.2 -2.15 16.55" fill="#241801" fill-rule="evenodd" stroke="none"/>
    <path d="M1.0 -66.7 L1.1 -66.6 Q-1.7 -64.75 -1.7 -60.6 -1.7 -59.15 -2.0 -57.65 -3.15 -52.0 -0.25 -47.45 -0.95 -38.2 -1.05 -28.9 -1.15 -16.55 -0.35 -4.3 L-0.65 -2.95 Q-0.9 -1.7 -0.35 -1.25 -0.05 -1.9 -0.05 -2.6 L0.2 -4.6 0.5 -4.95 0.75 -5.3 Q0.9 -14.2 1.3 -23.15 1.8 -33.95 2.75 -44.8 L3.35 0.0 0.1 0.25 -3.15 0.0 -2.45 -47.75 -2.05 -48.5 Q-4.1 -52.55 -4.1 -56.9 -4.15 -62.4 -0.8 -66.7 L-0.7 -66.8 -0.4 -66.5 0.1 -79.2 0.5 -66.45 0.9 -66.8 1.0 -66.7 M-3.95 5.75 L-2.25 5.5 0.45 5.05 3.1 5.3 3.8 5.5 3.8 7.2 3.75 7.85 3.7 8.2 2.55 8.5 2.25 8.3 1.85 8.65 -2.35 8.25 -2.5 8.1 -2.7 8.1 -4.3 7.4 -4.3 7.1 -4.3 6.75 -4.3 6.4 -4.3 6.05 -3.95 5.75 M-2.15 16.55 L-2.15 16.2 -2.1 9.75 1.45 10.1 1.55 17.1 Q-0.55 17.3 -2.15 16.55" fill="#7a5a34" fill-rule="evenodd" stroke="none"/>
    <path d="M7.4 -84.5 Q8.9 -80.35 9.4 -75.95 L10.0 -72.2 5.6 -73.2 5.05 -73.0 4.95 -68.4 4.4 -67.35 9.45 -63.2 9.65 -62.2 10.0 -61.85 10.05 -58.3 Q7.3 -55.7 5.15 -52.5 5.75 -55.75 5.3 -59.15 4.8 -63.05 2.7 -65.7 3.05 -69.05 4.05 -72.2 5.7 -77.45 2.7 -81.75 L2.65 -82.1 Q2.5 -82.9 1.9 -83.45 L1.85 -84.15 Q1.25 -90.05 0.9 -96.05 L3.45 -92.35 4.8 -90.1 Q4.95 -85.95 5.6 -82.0 L6.3 -81.8 6.75 -81.75 7.25 -82.05 7.4 -82.35 7.35 -84.0 7.4 -84.5 M-0.8 -66.7 L-0.85 -66.75 -1.35 -67.0 -2.2 -66.1 Q-5.55 -61.0 -4.9 -54.9 L-4.4 -50.7 Q-4.05 -47.45 -4.0 -44.2 L-5.4 -45.65 -6.1 -45.3 -6.65 -54.1 -7.0 -54.45 -8.9 -54.45 -10.25 -53.45 -10.05 -56.8 Q-8.15 -58.9 -7.0 -61.85 -3.85 -62.35 -3.9 -65.55 -3.95 -66.9 -3.6 -68.15 -2.2 -73.2 -7.0 -74.7 L-7.05 -75.0 Q-7.1 -76.55 -8.55 -76.95 L-8.6 -76.85 -9.0 -76.8 -7.8 -81.75 Q-6.85 -85.2 -5.35 -88.3 -4.75 -87.4 -3.55 -87.0 -2.85 -86.75 -2.8 -87.4 -2.65 -90.2 -2.8 -93.0 L-0.75 -96.05 Q-0.85 -91.1 -0.45 -86.05 L-0.15 -85.7 0.0 -85.35 -0.05 -85.05 -0.1 -84.4 -0.4 -83.8 -0.35 -83.45 -0.8 -82.8 -0.8 -66.9 -0.7 -66.8 -0.8 -66.7 M-3.5 -77.8 L-3.6 -77.7 -3.7 -77.5 -3.6 -76.5 -3.15 -76.25 -2.9 -76.55 -2.6 -77.15 -2.7 -77.45 -2.95 -77.85 -3.5 -77.8 M-4.45 -83.95 L-4.95 -84.25 Q-6.05 -84.05 -6.55 -83.0 L-6.55 -82.65 -6.55 -82.35 Q-6.2 -81.6 -5.4 -81.45 L-4.85 -81.65 -4.6 -81.95 Q-3.8 -82.8 -4.2 -83.7 L-4.45 -83.95" fill="#ffffff" fill-rule="evenodd" stroke="none"/>
    <path d="M10.05 -58.3 L10.1 -53.55 9.1 -54.45 7.2 -54.45 6.85 -54.1 4.7 -19.45 4.7 -19.65 4.5 -25.85 4.05 -33.85 3.75 -37.15 Q3.05 -44.15 4.75 -50.65 L4.8 -50.75 5.15 -52.5 Q7.3 -55.7 10.05 -58.3 M2.7 -65.7 L1.65 -66.9 1.55 -67.0 1.1 -66.75 1.0 -66.7 0.9 -66.8 1.0 -66.9 1.0 -82.8 0.55 -83.45 0.4 -84.4 -0.1 -84.4 -0.05 -85.05 0.0 -85.35 -0.15 -85.7 -0.45 -86.05 Q-0.85 -91.1 -0.75 -96.05 L0.1 -97.15 0.9 -96.05 Q1.25 -90.05 1.85 -84.15 L1.9 -83.45 Q2.5 -82.9 2.65 -82.1 L2.7 -81.75 Q5.7 -77.45 4.05 -72.2 3.05 -69.05 2.7 -65.7 M-4.0 -44.2 L-4.0 -42.9 Q-4.15 -31.05 -4.45 -19.45 L-6.1 -45.3 -5.4 -45.65 -4.0 -44.2" fill="#ccccff" fill-rule="evenodd" stroke="none"/>
    <path d="M1.1 -66.6 Q3.95 -63.1 4.25 -58.65 4.65 -53.3 2.25 -48.5 L2.7 -47.75 2.75 -44.8 Q1.8 -33.95 1.3 -23.15 0.9 -14.2 0.75 -5.3 L0.5 -4.95 0.2 -4.6 -0.05 -2.6 Q-0.05 -1.9 -0.35 -1.25 -0.9 -1.7 -0.65 -2.95 L-0.35 -4.3 Q-1.15 -16.55 -1.05 -28.9 -0.95 -38.2 -0.25 -47.45 -3.15 -52.0 -2.0 -57.65 -1.7 -59.15 -1.7 -60.6 -1.7 -64.75 1.1 -66.6" fill="#ba8c5f" fill-rule="evenodd" stroke="none"/>
    <path d="M4.8 -90.1 Q6.3 -87.4 7.4 -84.5 L7.35 -84.0 7.4 -82.35 7.25 -82.05 6.75 -81.75 6.3 -81.8 5.6 -82.0 Q4.95 -85.95 4.8 -90.1 M-10.05 -56.8 L-9.8 -61.85 -9.45 -62.2 -9.25 -63.2 -4.35 -67.7 -4.9 -68.4 -4.85 -73.0 -5.4 -73.2 -9.8 -72.2 -9.0 -76.8 -8.6 -76.85 -8.55 -76.95 Q-7.1 -76.55 -7.05 -75.0 L-7.0 -74.7 Q-2.2 -73.2 -3.6 -68.15 -3.95 -66.9 -3.9 -65.55 -3.85 -62.35 -7.0 -61.85 -8.15 -58.9 -10.05 -56.8 M-5.35 -88.3 L-4.65 -89.75 -3.3 -92.2 -2.8 -93.05 -2.8 -93.0 Q-2.65 -90.2 -2.8 -87.4 -2.85 -86.75 -3.55 -87.0 -4.75 -87.4 -5.35 -88.3 M-4.45 -83.95 L-4.2 -83.7 Q-3.8 -82.8 -4.6 -81.95 L-4.85 -81.65 -5.4 -81.45 Q-6.2 -81.6 -6.55 -82.35 L-6.55 -82.65 -6.55 -83.0 Q-6.05 -84.05 -4.95 -84.25 L-4.45 -83.95 M-3.5 -77.8 L-2.95 -77.85 -2.7 -77.45 -2.6 -77.15 -2.9 -76.55 -3.15 -76.25 -3.6 -76.5 -3.7 -77.5 -3.6 -77.7 -3.5 -77.8" fill="#996666" fill-rule="evenodd" stroke="none"/>
  </g>
</svg>
