<?xml version="1.0" encoding="UTF-8" standalone="no"?>
<svg xmlns:xlink="http://www.w3.org/1999/xlink" height="34.35px" width="25.8px" xmlns="http://www.w3.org/2000/svg">
  <g transform="matrix(1.0, 0.0, 0.0, 1.0, 13.65, 17.6)">
    <path d="M11.0 -13.35 L11.8 -6.9 12.0 -6.75 12.05 -6.4 11.9 -6.15 12.05 -4.4 Q12.3 -0.8 12.0 2.75 L11.75 3.1 10.95 3.8 10.25 4.25 Q10.05 6.3 10.15 8.35 10.3 11.2 9.95 13.85 L10.25 14.0 9.95 13.9 9.9 14.35 10.0 14.5 9.1 14.7 9.1 14.65 -6.75 15.35 Q-9.35 15.25 -11.45 16.75 L-11.95 16.75 Q-12.75 16.15 -13.65 15.8 L-12.95 15.35 Q-14.75 1.7 -8.0 -10.65 L-6.1 -13.45 Q-6.4 -13.95 -6.25 -14.5 L-6.0 -14.85 -5.85 -15.0 -5.1 -15.9 -4.25 -16.35 Q-3.2 -16.65 -2.35 -17.1 L-2.25 -17.1 -2.1 -16.95 0.5 -17.6 Q4.3 -17.75 7.7 -16.35 L8.75 -16.0 9.15 -15.65 10.25 -14.5 11.0 -13.35 M9.5 -7.6 L10.65 -7.3 9.9 -12.1 Q5.3 -18.15 -2.35 -15.6 L-2.55 -15.85 -3.3 -14.9 -3.5 -14.5 -4.45 -14.1 -4.7 -13.6 Q-8.15 -7.8 -10.1 -1.5 -3.9 -4.95 3.2 -6.55 L9.0 -7.45 9.5 -7.6 M10.8 -6.0 Q-0.1 -6.05 -10.15 -1.25 L-10.75 0.8 Q-8.4 0.65 -6.5 1.75 L-6.35 1.85 Q1.0 2.55 7.65 5.55 8.35 5.85 8.9 6.3 L8.9 4.25 4.35 1.6 3.65 1.1 2.4 0.55 -1.85 1.85 -2.95 2.1 Q2.85 -1.15 10.5 -2.1 L11.05 -2.15 10.9 -5.05 10.8 -6.0 M10.05 2.9 L10.65 2.5 Q11.05 0.2 11.05 -2.1 L3.45 0.25 3.65 0.25 Q6.45 1.85 8.95 3.9 L9.1 3.7 10.05 2.9 M8.9 6.5 Q3.75 4.75 -1.8 3.4 L-6.85 2.85 -7.25 2.5 Q-7.4 2.35 -7.6 2.25 L-10.95 1.65 -11.75 5.45 Q-1.15 8.5 9.0 13.4 L8.85 10.75 8.9 6.5 M9.0 13.45 Q-1.15 9.15 -11.9 6.45 L-12.45 12.0 -12.85 15.3 Q-12.0 14.8 -10.85 14.55 L-9.95 14.3 -8.45 13.85 -7.95 13.75 -5.45 13.25 9.05 14.3 9.0 13.45" fill="#000000" fill-rule="evenodd" stroke="none"/>
    <path d="M9.5 -7.6 L9.0 -7.45 3.2 -6.55 Q-3.9 -4.95 -10.1 -1.5 -8.15 -7.8 -4.7 -13.6 L-4.45 -14.1 -3.5 -14.5 -3.3 -14.9 -2.55 -15.85 -2.35 -15.6 Q5.3 -18.15 9.9 -12.1 L10.65 -7.3 9.5 -7.6 M10.05 2.9 L9.1 3.7 8.95 3.9 Q6.45 1.85 3.65 0.25 L3.45 0.25 11.05 -2.1 Q11.05 0.2 10.65 2.5 L10.05 2.9" fill="#9999cc" fill-rule="evenodd" stroke="none"/>
    <path d="M10.8 -6.0 L10.9 -5.05 11.05 -2.15 10.5 -2.1 Q2.85 -1.15 -2.95 2.1 L-1.85 1.85 2.4 0.55 3.65 1.1 4.35 1.6 8.9 4.25 8.9 6.3 Q8.35 5.85 7.65 5.55 1.0 2.55 -6.35 1.85 L-6.5 1.75 Q-8.4 0.65 -10.75 0.8 L-10.15 -1.25 Q-0.1 -6.05 10.8 -6.0 M8.9 6.5 L8.85 10.75 9.0 13.4 Q-1.15 8.5 -11.75 5.45 L-10.95 1.65 -7.6 2.25 Q-7.4 2.35 -7.25 2.5 L-6.85 2.85 -1.8 3.4 Q3.75 4.75 8.9 6.5" fill="#336699" fill-rule="evenodd" stroke="none"/>
    <path d="M9.0 13.45 L9.05 14.3 -5.45 13.25 -7.95 13.75 -8.45 13.85 -9.95 14.3 -10.85 14.55 Q-12.0 14.8 -12.85 15.3 L-12.45 12.0 -11.9 6.45 Q-1.15 9.15 9.0 13.45" fill="#333333" fill-rule="evenodd" stroke="none"/>
  </g>
</svg>
