<?xml version="1.0" encoding="UTF-8" standalone="no"?>
<svg xmlns:xlink="http://www.w3.org/1999/xlink" height="54.45px" width="38.2px" xmlns="http://www.w3.org/2000/svg">
  <g transform="matrix(1.0, 0.0, 0.0, 1.0, 16.15, 28.9)">
    <path d="M1.15 -28.7 L1.3 -28.7 1.5 -28.55 1.5 -28.65 2.0 -28.9 2.95 -28.0 3.75 -27.05 6.55 -24.0 Q12.05 -17.95 16.45 -10.85 L17.0 -10.9 Q20.6 -11.4 21.55 -8.15 L21.85 -6.4 Q21.9 -5.25 21.1 -4.25 L21.35 -3.9 20.85 -3.5 20.8 -3.55 21.5 4.1 22.05 16.35 20.25 16.85 19.85 17.25 Q13.95 20.95 9.2 25.3 L8.15 25.5 -4.1 19.4 -5.05 19.45 -5.55 19.0 -8.4 18.6 -13.85 17.05 -16.15 16.35 -16.05 15.3 -16.0 14.8 Q-16.2 6.8 -15.85 -1.2 -15.8 -2.75 -16.05 -4.15 -16.5 -6.55 -15.3 -8.8 -14.25 -10.7 -12.45 -11.5 L-11.8 -11.45 -5.9 -19.9 Q-2.6 -24.6 1.15 -28.7 M5.95 -23.15 L1.7 -27.6 1.5 -27.75 1.2 -27.4 -0.05 -25.8 -0.95 -24.6 -6.0 -18.4 Q-9.65 -13.95 -12.2 -8.8 L-14.15 -4.5 -12.65 -5.05 -5.7 -6.0 Q0.55 -6.75 6.85 -6.3 L12.65 -5.65 15.7 -5.1 17.6 -4.5 19.4 -3.9 19.95 -4.65 15.55 -10.4 9.45 -18.75 5.95 -23.15 M0.45 -14.95 L2.15 -13.35 3.05 -11.85 Q3.85 -9.35 2.35 -7.45 L1.75 -7.25 -2.4 -7.55 Q-3.8 -7.8 -4.25 -9.2 -4.65 -10.35 -4.25 -11.35 -3.0 -14.7 0.45 -14.95 M7.15 -5.35 L-0.35 -5.55 -4.25 -5.2 -11.9 -3.7 -14.65 -3.4 -14.8 4.0 -14.65 14.15 Q-14.6 14.85 -15.05 15.2 L-15.1 15.45 -11.05 16.4 -3.1 17.4 -3.95 7.5 2.85 5.1 4.35 5.7 4.7 -1.85 5.55 -3.0 7.3 -2.75 13.8 -1.75 17.35 -1.2 18.55 14.1 19.2 14.6 18.6 14.8 18.7 15.65 20.85 15.5 19.8 -2.75 18.8 -3.0 13.25 -4.55 10.5 -5.05 7.15 -5.35 M1.35 -7.95 L1.75 -8.35 Q3.05 -9.8 2.25 -11.55 L0.85 -13.75 -1.55 -13.6 Q-4.05 -11.75 -3.2 -9.05 -3.05 -8.6 -2.6 -8.6 L1.35 -7.95 M17.2 -9.75 L20.4 -5.2 20.7 -5.8 Q20.9 -6.35 20.75 -6.85 20.1 -9.4 17.3 -10.0 L17.15 -10.0 17.2 -9.75 M11.95 8.0 L17.05 9.25 16.5 0.35 5.7 -1.85 5.4 5.05 6.1 5.45 6.5 7.85 7.1 13.1 17.65 13.9 17.1 9.75 15.4 9.75 Q10.85 9.15 6.55 7.85 6.7 7.5 7.1 7.3 L9.7 7.6 11.95 8.0 M3.35 8.55 L2.15 8.35 Q0.8 8.65 -0.55 9.5 L-0.05 13.95 3.9 13.0 3.35 8.55 M2.35 7.7 L3.85 7.65 4.85 13.15 3.2 13.8 1.2 14.55 -0.55 14.8 -1.1 9.05 Q0.6 8.25 2.35 7.7 M4.85 7.3 L4.45 7.15 4.25 6.7 3.0 6.2 -2.7 8.0 -1.95 16.3 5.95 15.5 5.25 6.95 4.85 7.3 M7.2 14.1 L7.4 15.85 6.8 16.65 -3.8 18.55 8.4 24.35 14.4 19.9 14.95 19.45 13.95 19.45 -1.85 19.0 Q0.0 18.15 2.3 18.25 L12.85 18.7 13.25 18.75 15.8 18.85 18.85 16.75 18.95 16.7 18.7 16.55 18.2 16.7 17.8 14.85 7.2 14.0 7.2 14.1 M-12.35 -10.45 L-13.45 -9.5 Q-15.15 -8.0 -14.75 -5.8 L-14.65 -6.45 -12.35 -10.45" fill="#000000" fill-rule="evenodd" stroke="none"/>
    <path d="M-0.05 -25.8 L-0.45 -25.25 Q1.3 -20.25 3.5 -15.35 5.5 -10.9 6.85 -6.3 0.55 -6.75 -5.7 -6.0 L-12.65 -5.05 -14.15 -4.5 -12.2 -8.8 Q-9.65 -13.95 -6.0 -18.4 L-0.95 -24.6 -0.05 -25.8 M12.65 -5.65 Q10.65 -11.9 7.95 -17.9 L6.0 -22.95 5.95 -23.15 9.45 -18.75 15.55 -10.4 19.95 -4.65 19.4 -3.9 17.6 -4.5 15.7 -5.1 12.65 -5.65 M0.45 -14.95 Q-3.0 -14.7 -4.25 -11.35 -4.65 -10.35 -4.25 -9.2 -3.8 -7.8 -2.4 -7.55 L1.75 -7.25 2.35 -7.45 Q3.85 -9.35 3.05 -11.85 L2.15 -13.35 0.45 -14.95 M7.3 -2.75 L5.55 -3.0 4.7 -1.85 4.35 5.7 2.85 5.1 -3.95 7.5 -3.1 17.4 -11.05 16.4 -15.1 15.45 -15.05 15.2 Q-14.6 14.85 -14.65 14.15 L-14.8 4.0 -14.65 -3.4 -11.9 -3.7 -4.25 -5.2 -0.35 -5.55 7.15 -5.35 7.3 -2.75 M13.25 -4.55 L18.8 -3.0 19.8 -2.75 20.85 15.5 18.7 15.65 18.6 14.8 19.2 14.6 18.55 14.1 17.35 -1.2 13.8 -1.75 13.45 -3.55 13.25 -4.55 M1.35 -7.95 L-2.6 -8.6 Q-3.05 -8.6 -3.2 -9.05 -4.05 -11.75 -1.55 -13.6 L0.85 -13.75 2.25 -11.55 Q3.05 -9.8 1.75 -8.35 L1.35 -7.95 M17.2 -9.75 L17.3 -10.0 Q20.1 -9.4 20.75 -6.85 20.9 -6.35 20.7 -5.8 L20.4 -5.2 17.2 -9.75 M4.85 7.3 L5.25 6.95 5.95 15.5 -1.95 16.3 -2.7 8.0 3.0 6.2 4.25 6.7 4.45 7.15 4.85 7.3 M2.35 7.7 Q0.6 8.25 -1.1 9.05 L-0.55 14.8 1.2 14.55 3.2 13.8 4.85 13.15 3.85 7.65 2.35 7.7 M3.35 8.55 L3.9 13.0 -0.05 13.95 -0.55 9.5 Q0.8 8.65 2.15 8.35 L3.35 8.55 M-12.35 -10.45 L-14.65 -6.45 -14.75 -5.8 Q-15.15 -8.0 -13.45 -9.5 L-12.35 -10.45" fill="#9999cc" fill-rule="evenodd" stroke="none"/>
    <path d="M11.95 8.0 L12.9 7.85 Q14.1 7.65 14.35 6.65 15.65 1.5 9.6 1.4 L9.6 1.5 8.75 1.65 8.4 2.05 8.15 2.4 8.15 4.2 Q8.2 6.75 9.7 7.6 L7.1 7.3 Q6.7 7.5 6.55 7.85 L6.5 7.85 6.1 5.45 5.4 5.05 5.7 -1.85 16.5 0.35 17.05 9.25 11.95 8.0" fill="#000033" fill-rule="evenodd" stroke="none"/>
    <path d="M13.0 4.95 L11.95 5.15 10.95 4.95 Q10.5 4.7 10.5 4.35 10.5 4.0 10.95 3.8 L11.95 3.55 13.0 3.8 Q13.4 4.0 13.4 4.35 13.4 4.7 13.0 4.95" fill="#ffffff" fill-rule="evenodd" stroke="none"/>
    <path d="M6.5 7.85 L6.55 7.85 Q10.85 9.15 15.4 9.75 L17.1 9.75 17.65 13.9 7.1 13.1 6.5 7.85 M7.2 14.1 L7.2 14.0 17.8 14.85 18.2 16.7 18.7 16.55 18.85 16.75 15.8 18.85 13.25 18.75 12.8 18.25 Q10.25 15.4 7.2 14.1 M13.95 19.45 L14.95 19.45 14.4 19.9 13.95 19.45" fill="#336699" fill-rule="evenodd" stroke="none"/>
    <path d="M-0.05 -25.8 L1.2 -27.4 1.5 -27.75 1.7 -27.6 5.95 -23.15 6.0 -22.95 7.95 -17.9 Q10.65 -11.9 12.65 -5.65 L6.85 -6.3 Q5.5 -10.9 3.5 -15.35 1.3 -20.25 -0.45 -25.25 L-0.05 -25.8 M7.3 -2.75 L7.15 -5.35 10.5 -5.05 13.25 -4.55 13.45 -3.55 13.8 -1.75 7.3 -2.75" fill="#bbbbdd" fill-rule="evenodd" stroke="none"/>
    <path d="M14.4 19.9 L8.4 24.35 -3.8 18.55 6.8 16.65 7.4 15.85 7.2 14.1 Q10.25 15.4 12.8 18.25 L13.25 18.75 12.85 18.7 2.3 18.25 Q0.0 18.15 -1.85 19.0 L13.95 19.45 14.4 19.9" fill="#28537b" fill-rule="evenodd" stroke="none"/>
    <path d="M13.0 4.95 Q13.4 4.7 13.4 4.35 13.4 4.0 13.0 3.8 L11.95 3.55 10.95 3.8 Q10.5 4.0 10.5 4.35 10.5 4.7 10.95 4.95 L11.95 5.15 13.0 4.95 M9.7 7.6 Q8.2 6.75 8.15 4.2 L8.15 2.4 8.4 2.05 8.75 1.65 9.6 1.5 9.6 1.4 Q15.65 1.5 14.35 6.65 14.1 7.65 12.9 7.85 L11.95 8.0 9.7 7.6" fill="#010263" fill-rule="evenodd" stroke="none"/>
  </g>
</svg>
