<?xml version="1.0" encoding="UTF-8" standalone="no"?>
<svg xmlns:xlink="http://www.w3.org/1999/xlink" height="55.75px" width="39.0px" xmlns="http://www.w3.org/2000/svg">
  <g transform="matrix(1.0, 0.0, 0.0, 1.0, 22.5, 28.4)">
    <path d="M-7.15 -2.3 L-6.95 -2.35 0.45 -2.5 7.75 -1.7 Q10.65 -1.1 13.35 0.3 L13.35 7.95 10.7 8.3 10.5 1.15 0.3 2.9 0.05 3.6 -0.2 7.9 -0.35 11.5 -0.3 12.3 0.2 15.95 -5.45 15.85 -6.1 3.2 -6.45 3.0 -6.9 2.95 -7.55 2.9 -7.15 -2.3 M-14.2 2.2 L-17.45 2.6 -17.7 2.9 -17.3 3.7 -17.2 8.0 -20.0 7.3 -19.95 1.0 -14.1 -1.0 -14.2 2.2 M-1.55 -25.3 L11.2 -9.1 12.45 -7.1 Q10.85 -5.05 11.4 -2.55 L11.75 -1.45 12.0 -1.0 Q7.65 -2.65 2.95 -3.1 L-5.9 -3.3 -7.55 -3.25 Q-6.7 -14.8 -1.55 -25.3 M-13.25 -2.2 L-16.1 -1.5 -19.9 -0.4 -19.55 -1.3 Q-18.4 -5.35 -16.5 -9.05 -14.8 -12.3 -12.55 -15.3 L-9.9 -18.75 Q-12.75 -10.6 -13.25 -2.2 M13.8 -1.35 L13.6 -1.45 13.35 -1.55 13.15 -1.45 Q11.7 -3.05 12.25 -5.2 12.45 -6.0 12.95 -6.45 L14.65 -5.45 Q15.8 -3.75 15.2 -2.1 L14.8 -1.4 13.8 -1.35 M-21.3 -5.25 L-20.55 -6.5 -20.3 -6.75 -19.85 -6.15 -20.4 -1.45 Q-22.25 -2.8 -21.3 -5.25 M-2.9 -11.7 Q-4.7 -11.6 -5.75 -10.3 -7.75 -7.7 -5.7 -5.1 -4.4 -3.5 -2.4 -3.85 0.7 -4.4 0.75 -7.65 0.75 -11.1 -2.55 -12.0 L-2.7 -11.95 -2.8 -11.85 -2.9 -11.7 M-0.65 -9.25 Q0.55 -6.55 -1.85 -4.9 L-3.0 -4.75 Q-6.1 -5.6 -5.8 -8.9 L-5.7 -9.05 Q-4.7 -10.85 -2.55 -10.85 L-1.75 -10.75 Q-1.05 -10.1 -0.65 -9.25 M-19.7 10.0 L-19.8 10.0 -20.05 8.1 -17.15 8.8 -16.75 16.85 -19.8 14.8 -18.0 14.75 -17.8 12.55 -17.85 12.05 Q-18.15 10.55 -19.7 10.0 M-19.0 11.1 L-18.65 13.8 -19.85 13.8 -20.0 10.65 -19.0 11.1 M13.45 10.7 L13.7 15.6 12.3 15.65 12.3 11.3 13.45 10.7 M13.4 8.8 L13.4 10.0 11.7 11.05 11.75 16.25 13.7 16.2 13.75 16.8 11.5 17.75 10.7 17.35 10.7 9.45 13.4 8.8" fill="#9999cc" fill-rule="evenodd" stroke="none"/>
    <path d="M4.9 -19.4 L6.85 -17.05 12.2 -10.05 13.9 -7.1 15.5 -6.35 Q16.3 -5.4 16.5 -4.15 L16.5 -3.45 16.25 -2.1 16.0 -1.4 Q15.6 -0.45 14.65 -0.15 L14.45 17.55 6.85 22.95 5.9 23.2 3.15 25.05 0.6 27.0 Q-0.15 27.55 -0.9 27.25 -5.0 25.65 -8.75 23.55 L-11.4 22.1 -16.6 19.15 -18.5 17.75 -20.25 15.85 -20.2 15.75 -20.6 15.6 -20.9 -0.7 -21.6 -1.25 -22.1 -2.05 -22.5 -4.05 -22.35 -5.35 Q-21.8 -7.2 -20.0 -8.25 L-19.35 -8.45 -19.15 -8.7 -16.2 -12.7 -11.9 -18.4 -8.15 -23.15 -3.65 -28.05 Q-3.4 -28.3 -2.95 -28.35 L-2.9 -28.4 -2.7 -28.3 4.9 -19.4 M-7.55 2.9 L-6.9 2.95 -6.45 3.0 -6.1 3.2 -5.45 15.85 0.2 15.95 -0.3 12.3 -0.35 11.5 -0.2 7.9 0.05 3.6 0.3 2.9 10.5 1.15 10.7 8.3 13.35 7.95 13.35 0.3 Q10.65 -1.1 7.75 -1.7 L0.45 -2.5 -6.95 -2.35 -7.15 -2.3 -13.2 -1.35 -14.1 -1.0 -19.95 1.0 -20.0 7.3 -17.2 8.0 -17.3 3.7 -17.7 2.9 -17.45 2.6 -14.2 2.2 -11.65 2.35 -7.55 2.9 M-7.55 -3.25 L-5.9 -3.3 2.95 -3.1 Q7.65 -2.65 12.0 -1.0 L11.75 -1.45 11.4 -2.55 Q10.85 -5.05 12.45 -7.1 L11.2 -9.1 -1.55 -25.3 -3.2 -27.35 -3.75 -26.65 -9.1 -19.75 -9.9 -18.8 -9.9 -18.75 -12.55 -15.3 Q-14.8 -12.3 -16.5 -9.05 -18.4 -5.35 -19.55 -1.3 L-19.9 -0.4 -16.1 -1.5 -13.25 -2.2 -9.65 -3.05 -7.55 -3.25 M-0.65 -9.25 Q-1.05 -10.1 -1.75 -10.75 L-2.55 -10.85 Q-4.7 -10.85 -5.7 -9.05 L-5.8 -8.9 Q-6.1 -5.6 -3.0 -4.75 L-1.85 -4.9 Q0.55 -6.55 -0.65 -9.25 M-2.9 -11.7 L-2.8 -11.85 -2.7 -11.95 -2.55 -12.0 Q0.75 -11.1 0.75 -7.65 0.7 -4.4 -2.4 -3.85 -4.4 -3.5 -5.7 -5.1 -7.75 -7.7 -5.75 -10.3 -4.7 -11.6 -2.9 -11.7 M-21.3 -5.25 Q-22.25 -2.8 -20.4 -1.45 L-19.85 -6.15 -20.3 -6.75 -20.55 -6.5 -21.3 -5.25 M13.8 -1.35 L14.8 -1.4 15.2 -2.1 Q15.8 -3.75 14.65 -5.45 L12.95 -6.45 Q12.45 -6.0 12.25 -5.2 11.7 -3.05 13.15 -1.45 L13.35 -1.55 13.6 -1.45 13.8 -1.35 M-8.8 11.4 L-6.8 11.3 -7.1 3.95 -16.6 3.8 -15.75 11.75 -12.6 11.6 -8.8 11.4 M-19.0 11.1 L-20.0 10.65 -19.85 13.8 -18.65 13.8 -19.0 11.1 M-19.7 10.0 Q-18.15 10.55 -17.85 12.05 L-17.8 12.55 -18.0 14.75 -19.8 14.8 -16.75 16.85 -17.15 8.8 -20.05 8.1 -19.8 10.0 -19.7 10.0 M-6.8 17.8 L-14.65 18.3 -14.7 18.3 -15.5 18.35 -15.7 18.4 -14.2 19.25 -13.85 19.45 -9.95 21.6 -8.35 22.35 -2.75 22.2 -1.05 22.1 1.35 21.9 3.55 21.95 5.65 22.15 9.8 19.45 10.0 19.3 10.0 19.1 10.0 18.15 1.75 17.8 -3.3 17.55 -6.8 17.8 M-15.7 12.7 L-15.45 17.15 -6.5 16.25 -6.75 12.35 -15.7 12.7 M-6.7 23.1 L-1.25 26.3 4.2 23.1 -6.7 23.1 M13.4 8.8 L10.7 9.45 10.7 17.35 11.5 17.75 13.75 16.8 13.7 16.2 11.75 16.25 11.7 11.05 13.4 10.0 13.4 8.8 M13.45 10.7 L12.3 11.3 12.3 15.65 13.7 15.6 13.45 10.7 M6.05 11.45 L9.8 11.6 9.85 2.25 1.05 3.45 1.15 11.25 4.75 11.4 6.05 11.45 M9.95 17.15 L9.85 12.5 1.2 12.6 1.35 16.55 9.95 17.15" fill="#000000" fill-rule="evenodd" stroke="none"/>
    <path d="M-12.6 11.6 L-15.75 11.75 -16.6 3.8 -7.1 3.95 -6.8 11.3 -8.8 11.4 -8.45 10.9 Q-6.3 6.45 -11.05 5.3 L-11.75 5.5 Q-15.35 6.9 -14.2 10.45 -13.45 11.2 -12.6 11.6 M4.75 11.4 L1.15 11.25 1.05 3.45 9.85 2.25 9.8 11.6 6.05 11.45 7.05 10.5 Q10.2 5.85 4.8 4.7 0.7 6.35 3.55 10.25 L4.75 11.4" fill="#000033" fill-rule="evenodd" stroke="none"/>
    <path d="M-10.7 8.75 L-11.6 8.95 -12.45 8.75 Q-12.85 8.5 -12.85 8.15 -12.85 7.8 -12.45 7.6 -12.1 7.35 -11.6 7.35 L-10.7 7.6 Q-10.35 7.8 -10.35 8.15 -10.35 8.5 -10.7 8.75 M4.35 8.45 Q3.95 8.2 3.95 7.85 3.95 7.5 4.35 7.25 L5.25 7.0 6.2 7.25 6.55 7.85 6.2 8.45 5.25 8.7 4.35 8.45" fill="#ffffff" fill-rule="evenodd" stroke="none"/>
    <path d="M-14.7 18.3 L-15.0 18.35 -14.2 19.25 -15.7 18.4 -15.5 18.35 -14.7 18.3 M-2.75 22.2 L-2.0 22.15 Q-4.15 19.7 -6.8 17.8 L-3.3 17.55 1.75 17.8 Q0.75 19.1 -0.1 20.55 L-1.05 22.1 -2.75 22.2 M10.0 19.1 L10.0 19.3 9.8 19.45 10.0 19.1 M-15.7 12.7 L-6.75 12.35 -6.5 16.25 -15.45 17.15 -15.7 12.7 M9.95 17.15 L1.35 16.55 1.2 12.6 9.85 12.5 9.95 17.15" fill="#336699" fill-rule="evenodd" stroke="none"/>
    <path d="M-7.55 2.9 L-11.65 2.35 -14.2 2.2 -14.1 -1.0 -13.2 -1.35 -7.15 -2.3 -7.55 2.9 M-7.55 -3.25 L-9.65 -3.05 -13.25 -2.2 Q-12.75 -10.6 -9.9 -18.75 L-9.9 -18.8 -9.1 -19.75 -3.75 -26.65 -3.2 -27.35 -1.55 -25.3 Q-6.7 -14.8 -7.55 -3.25" fill="#bbbbdd" fill-rule="evenodd" stroke="none"/>
    <path d="M-14.7 18.3 L-14.65 18.3 -6.8 17.8 Q-4.15 19.7 -2.0 22.15 L-2.75 22.2 -8.35 22.35 -9.95 21.6 -13.85 19.45 -14.2 19.25 -15.0 18.35 -14.7 18.3 M1.75 17.8 L10.0 18.15 10.0 19.1 9.8 19.45 5.65 22.15 3.55 21.95 1.35 21.9 -1.05 22.1 -0.1 20.55 Q0.75 19.1 1.75 17.8 M-6.7 23.1 L4.2 23.1 -1.25 26.3 -6.7 23.1" fill="#28537b" fill-rule="evenodd" stroke="none"/>
    <path d="M-12.6 11.6 Q-13.45 11.2 -14.2 10.45 -15.35 6.9 -11.75 5.5 L-11.05 5.3 Q-6.3 6.45 -8.45 10.9 L-8.8 11.4 -12.6 11.6 M-10.7 8.75 Q-10.35 8.5 -10.35 8.15 -10.35 7.8 -10.7 7.6 L-11.6 7.35 Q-12.1 7.35 -12.45 7.6 -12.85 7.8 -12.85 8.15 -12.85 8.5 -12.45 8.75 L-11.6 8.95 -10.7 8.75 M4.35 8.45 L5.25 8.7 6.2 8.45 6.55 7.85 6.2 7.25 5.25 7.0 4.35 7.25 Q3.95 7.5 3.95 7.85 3.95 8.2 4.35 8.45 M4.75 11.4 L3.55 10.25 Q0.7 6.35 4.8 4.7 10.2 5.85 7.05 10.5 L6.05 11.45 4.75 11.4" fill="#010263" fill-rule="evenodd" stroke="none"/>
  </g>
</svg>
