<?xml version="1.0" encoding="UTF-8" standalone="no"?>
<svg xmlns:xlink="http://www.w3.org/1999/xlink" height="47.75px" width="37.5px" xmlns="http://www.w3.org/2000/svg">
  <g transform="matrix(1.0, 0.0, 0.0, 1.0, 17.65, 39.25)">
    <path d="M9.25 -39.15 Q20.0 -28.25 19.6 -13.25 L19.2 -10.7 19.15 -9.25 19.75 -8.0 19.85 -7.65 Q19.2 -6.25 18.05 -5.4 17.05 -3.05 15.7 -0.95 L15.75 -0.9 15.6 -0.75 Q12.35 4.05 7.1 7.2 L6.85 7.35 6.65 7.55 6.25 7.75 6.25 7.65 4.5 8.1 4.25 8.5 2.85 8.25 1.6 8.0 1.35 7.6 1.4 7.3 1.5 7.2 Q0.65 6.7 -0.4 6.6 L-0.65 6.35 -0.75 6.25 Q-7.25 4.65 -12.7 1.3 L-13.25 1.6 -15.2 -0.45 -16.1 -1.05 Q-16.4 -0.85 -16.75 -0.75 L-16.7 -1.6 -16.9 -1.8 -17.65 -2.4 Q-17.55 -7.0 -16.65 -11.35 -17.0 -12.0 -16.5 -12.5 L-16.4 -12.45 Q-14.95 -18.75 -11.8 -24.65 L-11.4 -25.05 -11.25 -25.9 Q-5.05 -37.65 8.0 -39.25 L9.25 -39.15 M7.6 -9.15 L7.7 -8.85 8.35 -8.15 8.55 -7.0 8.5 -5.5 4.75 -5.15 4.4 -5.5 4.1 -5.9 4.1 -6.65 4.1 -8.15 4.8 -8.65 6.0 -9.4 7.6 -9.15 M5.45 -8.15 L4.85 -7.9 4.85 -6.75 4.85 -6.4 7.5 -6.25 7.45 -7.75 7.35 -8.15 Q7.1 -9.15 6.0 -8.5 L5.45 -8.15 M18.0 -9.65 L18.15 -9.8 18.2 -9.8 18.25 -9.9 18.35 -10.95 18.35 -14.75 Q18.0 -28.0 8.6 -37.5 -5.45 -35.55 -11.6 -22.55 L-14.4 -16.9 -14.35 -17.35 -15.7 -12.35 Q-9.6 -6.95 -1.1 -5.05 4.6 -3.75 10.5 -3.85 L14.55 -4.3 15.9 -4.35 15.95 -4.45 15.75 -4.4 16.05 -4.7 17.55 -8.75 18.0 -9.6 18.0 -9.65 M15.55 -3.6 Q5.2 -1.55 -5.15 -5.15 -8.15 -6.2 -11.0 -7.6 -13.4 -8.8 -15.6 -10.35 L-16.05 -10.7 Q-16.6 -7.3 -16.65 -3.75 L-16.65 -3.4 -16.25 -3.15 -16.15 -4.5 -15.55 -5.15 -15.05 -5.55 -15.0 -5.65 -14.25 -5.5 -7.8 -1.1 -7.7 -2.0 Q-7.6 -3.1 -7.0 -3.5 L-6.25 -3.4 Q-1.45 -1.15 3.7 0.5 L4.0 0.75 Q4.2 2.25 3.8 3.8 L3.1 6.35 3.45 6.55 3.75 6.85 3.55 7.2 3.5 7.3 3.6 7.35 3.85 7.3 6.2 6.1 6.45 4.45 Q6.9 2.85 6.35 1.35 10.55 0.25 14.45 -1.7 L15.55 -3.6 M6.95 5.65 Q10.15 3.65 12.55 0.9 10.1 1.95 7.35 2.35 L7.0 5.0 6.95 5.65 M2.15 4.45 L2.6 2.65 2.85 1.5 -6.75 -2.0 -7.25 -1.65 -7.3 -0.8 -7.15 -0.65 -7.25 -0.4 -7.35 -0.3 -7.55 0.55 Q-7.8 1.3 -7.7 2.1 L-7.65 2.5 Q-4.6 3.75 -1.35 4.6 L0.25 4.85 1.85 5.6 2.15 4.45 M-9.15 -13.25 L-9.15 -12.95 -9.65 -11.4 -9.75 -11.0 -10.25 -10.65 -13.25 -10.75 Q-14.0 -11.55 -14.0 -12.65 -14.0 -14.05 -13.05 -14.8 L-13.0 -14.9 Q-10.8 -15.25 -9.4 -13.6 L-9.15 -13.25 M-10.25 -12.9 L-11.0 -13.9 Q-11.7 -14.7 -12.75 -13.9 -13.3 -13.05 -13.05 -12.05 L-12.9 -11.65 -10.65 -11.75 -10.4 -12.5 -10.25 -12.9 M-14.9 -3.75 L-15.25 -2.35 -13.35 -0.35 -8.3 2.25 Q-8.5 1.2 -8.1 0.1 L-8.0 -0.2 -14.25 -3.75 -14.9 -3.75" fill="#000000" fill-rule="evenodd" stroke="none"/>
    <path d="M15.55 -3.6 L14.45 -1.7 Q10.55 0.25 6.35 1.35 6.9 2.85 6.45 4.45 L6.2 6.1 3.85 7.3 3.6 7.35 3.5 7.3 3.55 7.2 3.75 6.85 3.45 6.55 3.1 6.35 3.8 3.8 Q4.2 2.25 4.0 0.75 L3.7 0.5 Q-1.45 -1.15 -6.25 -3.4 L-7.0 -3.5 Q-7.6 -3.1 -7.7 -2.0 L-7.8 -1.1 -14.25 -5.5 -15.0 -5.65 -15.05 -5.55 -15.55 -5.15 -16.15 -4.5 -16.25 -3.15 -16.65 -3.4 -16.65 -3.75 Q-16.6 -7.3 -16.05 -10.7 L-15.6 -10.35 Q-13.4 -8.8 -11.0 -7.6 -8.15 -6.2 -5.15 -5.15 5.2 -1.55 15.55 -3.6 M18.0 -9.65 L18.0 -9.6 17.55 -8.75 16.05 -4.7 15.75 -4.4 15.95 -4.45 15.9 -4.35 14.55 -4.3 10.5 -3.85 Q4.6 -3.75 -1.1 -5.05 -9.6 -6.95 -15.7 -12.35 L-14.35 -17.35 -14.4 -16.9 -11.6 -22.55 Q-5.45 -35.55 8.6 -37.5 18.0 -28.0 18.35 -14.75 L18.35 -10.95 18.25 -9.9 18.2 -9.8 18.15 -9.8 18.0 -9.65 M5.45 -8.15 L6.0 -8.5 Q7.1 -9.15 7.35 -8.15 L7.45 -7.75 7.5 -6.25 4.85 -6.4 4.85 -6.75 4.85 -7.9 5.45 -8.15 M7.6 -9.15 L6.0 -9.4 4.8 -8.65 4.1 -8.15 4.1 -6.65 4.1 -5.9 4.4 -5.5 4.75 -5.15 8.5 -5.5 8.55 -7.0 8.35 -8.15 7.7 -8.85 7.6 -9.15 M-14.9 -3.75 L-14.25 -3.75 -8.0 -0.2 -8.1 0.1 Q-8.5 1.2 -8.3 2.25 L-13.35 -0.35 -15.25 -2.35 -14.9 -3.75 M-10.25 -12.9 L-10.4 -12.5 -10.65 -11.75 -12.9 -11.65 -13.05 -12.05 Q-13.3 -13.05 -12.75 -13.9 -11.7 -14.7 -11.0 -13.9 L-10.25 -12.9 M-9.15 -13.25 L-9.4 -13.6 Q-10.8 -15.25 -13.0 -14.9 L-13.05 -14.8 Q-14.0 -14.05 -14.0 -12.65 -14.0 -11.55 -13.25 -10.75 L-10.25 -10.65 -9.75 -11.0 -9.65 -11.4 -9.15 -12.95 -9.15 -13.25" fill="#9999cc" fill-rule="evenodd" stroke="none"/>
    <path d="M2.15 4.45 L1.85 5.6 0.25 4.85 -1.35 4.6 Q-4.6 3.75 -7.65 2.5 L-7.7 2.1 Q-7.8 1.3 -7.55 0.55 L-7.35 -0.3 -7.25 -0.4 -7.15 -0.65 -7.3 -0.8 -7.25 -1.65 -6.75 -2.0 2.85 1.5 2.6 2.65 2.15 4.45 M6.95 5.65 L7.0 5.0 7.35 2.35 Q10.1 1.95 12.55 0.9 10.15 3.65 6.95 5.65" fill="#000033" fill-rule="evenodd" stroke="none"/>
  </g>
</svg>
