<?xml version="1.0" encoding="UTF-8" standalone="no"?>
<svg xmlns:xlink="http://www.w3.org/1999/xlink" height="55.25px" width="39.0px" xmlns="http://www.w3.org/2000/svg">
  <g transform="matrix(1.0, 0.0, 0.0, 1.0, 21.6, 30.05)">
    <path d="M-0.8 -3.3 L12.6 -3.0 12.25 -4.1 Q11.65 -6.6 13.3 -8.65 L12.0 -10.7 -0.7 -26.8 -0.7 -26.85 -1.3 -27.6 -2.35 -28.9 -5.8 -24.4 -9.0 -20.3 Q-11.7 -16.85 -14.7 -13.75 -19.0 -9.2 -18.45 -3.75 L-6.0 -3.45 -0.8 -3.3 M-0.3 23.5 L13.75 16.4 12.6 7.35 15.45 6.8 14.5 -1.1 13.3 -2.2 0.35 -2.95 -0.9 -2.9 -4.8 -2.75 -19.1 -2.2 -18.7 7.7 -16.4 7.85 -15.85 16.1 -4.5 22.1 -1.1 23.9 -0.3 23.55 -0.3 23.5 M13.8 -8.0 Q13.45 -7.65 13.2 -6.7 12.55 -4.4 14.0 -3.0 L14.2 -3.1 14.45 -3.0 14.65 -2.9 15.65 -2.95 16.05 -3.65 Q16.65 -5.25 15.5 -7.0 L13.8 -8.0 M16.4 -2.35 Q16.0 -1.6 15.2 -1.75 L15.8 2.1 16.8 9.85 Q17.4 13.8 16.15 16.65 L-0.6 25.2 -18.8 15.55 -19.3 16.2 Q-19.9 16.1 -20.0 15.4 L-20.05 11.6 -20.0 9.9 Q-20.0 3.65 -20.25 -2.2 L-21.05 -3.25 -21.55 -4.65 Q-21.65 -5.8 -21.4 -6.85 -21.0 -8.75 -19.15 -9.8 L-18.5 -10.0 -18.3 -10.2 -12.25 -18.25 -3.55 -29.4 Q-2.85 -30.35 -2.1 -29.9 L-2.05 -29.95 Q1.8 -25.3 5.9 -21.05 11.3 -15.5 14.75 -8.65 L16.35 -7.9 Q17.4 -6.6 17.4 -5.0 L17.3 -4.3 16.75 -2.95 16.4 -2.35 M15.35 7.4 L13.3 7.85 14.45 15.9 15.3 15.5 15.85 15.5 15.35 7.4 M-17.25 8.8 L-19.15 8.6 -18.75 14.65 -17.1 15.45 -17.25 8.8 M-19.45 -3.75 L-19.0 -7.7 -19.45 -8.3 -19.7 -8.05 Q-20.8 -6.85 -20.8 -5.3 -20.8 -3.7 -19.85 -3.6 L-19.45 -3.75" fill="#000000" fill-rule="evenodd" stroke="none"/>
    <path d="M-0.7 -26.8 L12.0 -10.7 13.3 -8.65 Q11.65 -6.6 12.25 -4.1 L12.6 -3.0 -0.8 -3.3 Q-1.3 -15.1 -0.7 -26.8 M-6.0 -3.45 L-18.45 -3.75 Q-19.0 -9.2 -14.7 -13.75 -11.7 -16.85 -9.0 -20.3 L-5.8 -24.4 -6.0 -22.0 Q-6.65 -12.75 -6.55 -3.45 L-6.0 -3.45 M13.8 -8.0 L15.5 -7.0 Q16.65 -5.25 16.05 -3.65 L15.65 -2.95 14.65 -2.9 14.45 -3.0 14.2 -3.1 14.0 -3.0 Q12.55 -4.4 13.2 -6.7 13.45 -7.65 13.8 -8.0 M-0.9 -2.9 L0.35 -2.95 13.3 -2.2 14.5 -1.1 15.45 6.8 12.6 7.35 13.75 16.4 -0.3 23.5 -0.3 16.2 Q-0.4 6.6 -0.9 -2.9 M-4.5 22.1 L-15.85 16.1 -16.4 7.85 -18.7 7.7 -19.1 -2.2 -4.8 -2.75 Q-5.15 6.45 -4.75 15.65 L-4.5 22.1 M15.35 7.4 L15.85 15.5 15.3 15.5 14.45 15.9 13.3 7.85 15.35 7.4 M-19.45 -3.75 L-19.85 -3.6 Q-20.8 -3.7 -20.8 -5.3 -20.8 -6.85 -19.7 -8.05 L-19.45 -8.3 -19.0 -7.7 -19.45 -3.75 M-17.25 8.8 L-17.1 15.45 -18.75 14.65 -19.15 8.6 -17.25 8.8" fill="#9999cc" fill-rule="evenodd" stroke="none"/>
    <path d="M-0.8 -3.3 L-6.0 -3.45 -6.55 -3.45 Q-6.65 -12.75 -6.0 -22.0 L-5.8 -24.4 -2.35 -28.9 -1.3 -27.6 -0.7 -26.85 -0.7 -26.8 Q-1.3 -15.1 -0.8 -3.3 M-0.3 23.5 L-0.3 23.55 -1.1 23.9 -4.5 22.1 -4.75 15.65 Q-5.15 6.45 -4.8 -2.75 L-0.9 -2.9 Q-0.4 6.6 -0.3 16.2 L-0.3 23.5" fill="#bbbbdd" fill-rule="evenodd" stroke="none"/>
  </g>
</svg>
