<?xml version="1.0" encoding="UTF-8" standalone="no"?>
<svg xmlns:xlink="http://www.w3.org/1999/xlink" height="54.85px" width="38.65px" xmlns="http://www.w3.org/2000/svg">
  <g transform="matrix(1.0, 0.0, 0.0, 1.0, 13.9, 48.3)">
    <path d="M22.85 -27.2 Q23.8 -26.55 24.35 -25.4 L24.7 -24.35 24.7 -23.1 24.2 -21.3 23.25 -19.9 22.3 -2.4 22.45 -1.95 22.0 -1.45 21.8 -1.5 20.15 -0.75 Q17.05 0.65 14.05 2.55 L9.1 5.65 8.4 6.0 7.75 6.45 7.6 6.55 6.3 6.35 4.95 5.8 -8.25 0.25 -9.95 -0.4 -10.6 -0.6 -12.9 -1.25 -13.05 -2.1 -13.5 -2.5 -13.85 -26.4 -13.85 -26.6 -9.7 -32.7 Q-7.5 -36.15 -4.6 -38.65 L0.1 -42.7 2.7 -44.65 7.65 -48.15 8.1 -48.3 11.8 -43.8 15.3 -39.25 18.9 -33.95 22.85 -27.2 M8.3 -45.7 L8.3 -45.75 8.2 -45.85 8.15 -45.9 7.6 -46.75 7.55 -46.95 6.55 -46.05 6.15 -45.75 5.95 -45.6 5.8 -45.45 4.85 -44.8 2.1 -42.7 Q-2.65 -39.05 -6.5 -34.45 L-9.2 -30.95 -10.5 -29.0 Q-11.45 -27.5 -12.75 -26.2 L-12.6 -20.75 -12.1 -20.25 Q-5.9 -21.95 0.5 -23.0 L1.05 -23.1 6.15 -23.45 10.1 -23.35 Q16.0 -22.65 21.35 -20.9 L20.95 -27.5 17.05 -33.95 12.55 -40.1 8.3 -45.7 M6.45 -17.4 L7.15 -17.25 7.45 -16.95 6.95 -3.55 12.95 -3.55 12.7 -7.8 Q12.45 -12.45 12.95 -16.9 L13.25 -17.25 19.75 -18.3 21.45 -18.15 21.35 -19.4 21.25 -20.1 21.05 -20.2 17.6 -21.15 Q12.3 -22.4 6.85 -22.45 L5.55 -22.45 5.1 -22.4 1.05 -22.0 Q-3.7 -21.4 -8.4 -20.2 L-11.9 -19.25 -12.65 -19.35 -12.5 -13.25 -6.5 -15.2 -5.9 -18.55 -5.8 -18.6 -5.45 -18.6 0.5 -18.3 2.95 -18.15 3.3 -18.15 6.45 -17.4 M8.15 -29.15 L9.2 -30.1 10.3 -30.8 11.9 -30.7 12.2 -30.55 Q12.5 -30.15 13.0 -30.3 L13.55 -29.5 14.25 -27.75 Q14.55 -26.15 13.45 -24.75 12.8 -23.9 11.9 -23.55 L11.05 -23.5 10.0 -23.55 Q8.05 -23.9 7.15 -25.65 7.05 -27.55 8.15 -29.15 M7.95 -26.5 Q7.95 -25.55 8.7 -24.95 9.35 -24.6 10.1 -24.35 L11.15 -24.3 Q13.05 -24.9 13.5 -26.85 13.85 -28.35 12.85 -29.55 L12.65 -29.5 11.9 -29.95 Q10.4 -30.3 9.2 -29.3 8.0 -28.2 7.95 -26.5 M20.05 -13.5 L20.15 -17.05 13.95 -16.55 13.9 -12.85 Q13.9 -11.1 14.05 -9.3 L15.55 -9.3 16.95 -9.15 18.5 -8.95 18.55 -8.95 19.9 -8.6 19.95 -10.25 20.05 -13.5 M5.95 -3.5 L6.15 -8.45 -5.6 -8.25 -5.45 -5.05 -5.2 -3.2 -5.05 -3.3 -2.25 -3.9 5.95 -3.5 M1.85 -2.7 L-3.35 -2.65 -3.55 -2.6 -5.3 -2.45 -5.5 -0.05 -2.4 1.3 6.2 1.55 9.05 1.65 13.4 1.75 18.85 -1.55 14.9 -2.05 13.3 -2.25 12.35 -2.25 4.7 -2.5 1.85 -2.7 M3.4 -9.25 L6.2 -8.9 6.45 -16.6 -5.15 -17.95 -5.7 -13.85 -5.65 -8.8 -2.25 -9.45 -1.05 -9.45 3.4 -9.25 M13.75 -8.6 L14.0 -3.05 19.35 -2.35 19.85 -7.95 13.75 -8.6 M22.45 -21.4 Q23.4 -21.8 23.6 -22.65 24.1 -24.85 22.35 -26.2 L22.45 -21.4 M21.5 -13.8 L21.3 -17.15 20.3 -2.2 21.4 -2.35 21.55 -6.65 21.5 -13.8 M-1.0 2.1 L7.45 5.8 12.75 2.15 10.6 2.15 10.35 2.15 9.75 2.1 8.4 2.0 6.45 1.95 6.25 1.95 5.8 1.95 -1.0 2.0 -1.25 2.0 -1.0 2.1 M-7.6 -24.95 L-8.5 -27.15 -9.15 -26.9 -10.2 -26.2 Q-11.4 -25.05 -10.85 -23.3 L-9.85 -22.8 Q-7.9 -22.85 -7.6 -24.95 M-9.25 -28.0 Q-6.75 -27.8 -6.85 -25.25 -6.9 -24.2 -7.5 -23.2 -8.1 -22.3 -9.1 -21.9 L-10.3 -22.25 -11.85 -23.4 -11.95 -24.35 Q-12.0 -25.25 -11.65 -26.05 L-9.25 -28.0 M-10.85 -10.4 L-10.55 -10.85 -10.4 -11.1 -8.6 -11.55 -8.2 -11.3 Q-8.5 -7.6 -8.05 -4.05 L-8.0 -3.85 Q-8.95 -2.9 -10.5 -3.6 L-10.85 -10.15 -10.85 -10.4 M-10.05 -10.4 L-9.9 -4.95 -9.9 -4.5 -9.2 -4.45 -9.1 -10.3 Q-9.1 -10.85 -9.35 -10.7 L-9.65 -10.55 -10.05 -10.4 M-6.45 -1.0 L-6.55 -14.0 -12.5 -12.5 -12.05 -2.0 -6.45 -1.0" fill="#000000" fill-rule="evenodd" stroke="none"/>
    <path d="M4.85 -44.8 L3.95 -44.05 3.65 -43.1 Q1.05 -33.15 0.5 -23.0 -5.9 -21.95 -12.1 -20.25 L-12.6 -20.75 -12.75 -26.2 Q-11.45 -27.5 -10.5 -29.0 L-9.2 -30.95 -6.5 -34.45 Q-2.65 -39.05 2.1 -42.7 L4.85 -44.8 M6.15 -23.45 L6.15 -27.9 Q6.4 -36.95 8.3 -45.7 L12.55 -40.1 17.05 -33.95 20.95 -27.5 21.35 -20.9 Q16.0 -22.65 10.1 -23.35 L6.15 -23.45 M7.95 -26.5 Q8.0 -28.2 9.2 -29.3 10.4 -30.3 11.9 -29.95 L12.65 -29.5 12.85 -29.55 Q13.85 -28.35 13.5 -26.85 13.05 -24.9 11.15 -24.3 L10.1 -24.35 Q9.35 -24.6 8.7 -24.95 7.95 -25.55 7.95 -26.5 M8.15 -29.15 Q7.05 -27.55 7.15 -25.65 8.05 -23.9 10.0 -23.55 L11.05 -23.5 11.9 -23.55 Q12.8 -23.9 13.45 -24.75 14.55 -26.15 14.25 -27.75 L13.55 -29.5 13.0 -30.3 Q12.5 -30.15 12.2 -30.55 L11.9 -30.7 10.3 -30.8 9.2 -30.1 8.15 -29.15 M6.85 -22.45 Q12.3 -22.4 17.6 -21.15 L21.05 -20.2 21.25 -20.1 21.35 -19.4 21.45 -18.15 19.75 -18.3 13.25 -17.25 12.95 -16.9 Q12.45 -12.45 12.7 -7.8 L12.95 -3.55 6.95 -3.55 7.45 -16.95 7.15 -17.25 6.45 -17.4 6.85 -22.45 M0.5 -18.3 L-5.45 -18.6 -5.8 -18.6 -5.9 -18.55 -6.5 -15.2 -12.5 -13.25 -12.65 -19.35 -11.9 -19.25 -8.4 -20.2 Q-3.7 -21.4 1.05 -22.0 L0.55 -21.9 0.5 -18.3 M21.5 -13.8 L21.55 -6.65 21.4 -2.35 20.3 -2.2 21.3 -17.15 21.5 -13.8 M22.45 -21.4 L22.35 -26.2 Q24.1 -24.85 23.6 -22.65 23.4 -21.8 22.45 -21.4 M-9.25 -28.0 L-11.65 -26.05 Q-12.0 -25.25 -11.95 -24.35 L-11.85 -23.4 -10.3 -22.25 -9.1 -21.9 Q-8.1 -22.3 -7.5 -23.2 -6.9 -24.2 -6.85 -25.25 -6.75 -27.8 -9.25 -28.0 M-7.6 -24.95 Q-7.9 -22.85 -9.85 -22.8 L-10.85 -23.3 Q-11.4 -25.05 -10.2 -26.2 L-9.15 -26.9 -8.5 -27.15 -7.6 -24.95 M-10.05 -10.4 L-9.65 -10.55 -9.35 -10.7 Q-9.1 -10.85 -9.1 -10.3 L-9.2 -4.45 -9.9 -4.5 -9.9 -4.95 -10.05 -10.4 M-10.85 -10.4 L-10.85 -10.15 -10.5 -3.6 Q-8.95 -2.9 -8.0 -3.85 L-8.05 -4.05 Q-8.5 -7.6 -8.2 -11.3 L-8.6 -11.55 -10.4 -11.1 -10.55 -10.85 -10.85 -10.4 M-6.45 -1.0 L-12.05 -2.0 -12.5 -12.5 -6.55 -14.0 -6.45 -1.0" fill="#9999cc" fill-rule="evenodd" stroke="none"/>
    <path d="M16.95 -9.15 L15.55 -9.3 14.05 -9.3 Q13.9 -11.1 13.9 -12.85 L13.95 -16.55 20.15 -17.05 20.05 -13.5 Q19.35 -14.6 17.3 -15.15 L17.3 -15.1 Q15.55 -14.85 14.8 -13.1 L14.95 -12.1 15.15 -10.6 Q15.65 -9.65 16.35 -9.2 L16.95 -9.15 M19.95 -10.25 L19.9 -8.6 18.55 -8.95 18.7 -9.0 Q19.45 -9.25 19.75 -9.85 L19.95 -10.25 M-1.05 -9.45 L-2.25 -9.45 -5.65 -8.8 -5.7 -13.85 -5.15 -17.95 6.45 -16.6 6.2 -8.9 3.4 -9.25 3.45 -9.35 Q6.45 -14.15 0.5 -15.15 L-0.95 -14.55 Q-1.75 -13.95 -2.15 -13.1 -2.35 -10.7 -1.05 -9.45" fill="#000033" fill-rule="evenodd" stroke="none"/>
    <path d="M16.4 -12.9 L17.15 -13.15 17.9 -12.9 18.2 -12.3 17.9 -11.7 Q17.6 -11.45 17.15 -11.45 16.7 -11.45 16.4 -11.7 16.1 -11.95 16.1 -12.3 L16.4 -12.9 M0.7 -13.5 L1.6 -13.2 1.95 -12.6 Q1.95 -12.25 1.6 -11.95 L0.7 -11.7 Q0.2 -11.7 -0.15 -11.95 L-0.55 -12.6 -0.15 -13.2 0.7 -13.5" fill="#ffffff" fill-rule="evenodd" stroke="none"/>
    <path d="M5.95 -3.5 L-2.25 -3.9 -5.05 -3.3 -5.2 -3.2 -5.45 -5.05 -5.6 -8.25 6.15 -8.45 5.95 -3.5 M6.2 1.55 L5.6 0.95 3.05 -2.05 2.55 -2.65 1.85 -2.7 4.7 -2.5 12.35 -2.25 13.3 -2.25 11.0 -0.4 9.05 1.65 6.2 1.55 M13.75 -8.6 L19.85 -7.95 19.35 -2.35 14.0 -3.05 13.75 -8.6 M-1.0 2.1 L-1.25 2.0 -1.0 2.0 -1.0 2.1 M8.4 2.0 L9.75 2.1 9.1 2.05 8.7 2.05 8.4 2.0" fill="#336699" fill-rule="evenodd" stroke="none"/>
    <path d="M4.85 -44.8 L5.8 -45.45 5.95 -45.6 6.15 -45.75 6.55 -46.05 7.55 -46.95 7.6 -46.75 8.15 -45.9 8.2 -45.85 8.3 -45.75 8.3 -45.7 Q6.4 -36.95 6.15 -27.9 L6.15 -23.45 1.05 -23.1 0.5 -23.0 Q1.05 -33.15 3.65 -43.1 L3.95 -44.05 4.85 -44.8 M6.45 -17.4 L3.3 -18.15 2.95 -18.15 0.5 -18.3 0.55 -21.9 1.05 -22.0 5.1 -22.4 5.55 -22.45 6.85 -22.45 6.45 -17.4" fill="#bbbbdd" fill-rule="evenodd" stroke="none"/>
    <path d="M1.85 -2.7 L2.55 -2.65 3.05 -2.05 5.6 0.95 6.2 1.55 -2.4 1.3 -5.5 -0.05 -5.3 -2.45 -3.55 -2.6 -3.35 -2.65 1.85 -2.7 M9.05 1.65 L11.0 -0.4 13.3 -2.25 14.9 -2.05 18.85 -1.55 13.4 1.75 9.05 1.65 M9.75 2.1 L10.35 2.15 10.6 2.15 12.75 2.15 7.45 5.8 -1.0 2.1 -1.0 2.0 5.8 1.95 6.25 1.95 6.45 1.95 8.4 2.0 8.7 2.05 9.1 2.05 9.75 2.1" fill="#28537b" fill-rule="evenodd" stroke="none"/>
    <path d="M20.05 -13.5 L19.95 -10.25 19.75 -9.85 Q19.45 -9.25 18.7 -9.0 L18.55 -8.95 18.5 -8.95 16.95 -9.15 16.35 -9.2 Q15.65 -9.65 15.15 -10.6 L14.95 -12.1 14.8 -13.1 Q15.55 -14.85 17.3 -15.1 L17.3 -15.15 Q19.35 -14.6 20.05 -13.5 M16.4 -12.9 L16.1 -12.3 Q16.1 -11.95 16.4 -11.7 16.7 -11.45 17.15 -11.45 17.6 -11.45 17.9 -11.7 L18.2 -12.3 17.9 -12.9 17.15 -13.15 16.4 -12.9 M0.7 -13.5 L-0.15 -13.2 -0.55 -12.6 -0.15 -11.95 Q0.2 -11.7 0.7 -11.7 L1.6 -11.95 Q1.95 -12.25 1.95 -12.6 L1.6 -13.2 0.7 -13.5 M-1.05 -9.45 Q-2.35 -10.7 -2.15 -13.1 -1.75 -13.95 -0.95 -14.55 L0.5 -15.15 Q6.45 -14.15 3.45 -9.35 L3.4 -9.25 -1.05 -9.45" fill="#010263" fill-rule="evenodd" stroke="none"/>
  </g>
</svg>
