<?xml version="1.0" encoding="UTF-8" standalone="no"?>
<svg xmlns:xlink="http://www.w3.org/1999/xlink" height="39.75px" width="32.85px" xmlns="http://www.w3.org/2000/svg">
  <g transform="matrix(1.0, 0.0, 0.0, 1.0, 16.75, 19.5)">
    <path d="M-12.45 0.55 L-12.35 0.1 -11.45 -5.0 -11.35 -5.5 -10.6 -7.55 Q-10.25 -9.6 -9.4 -11.3 -7.7 -14.5 -4.65 -16.25 L-4.55 -16.3 -3.95 -16.5 Q3.2 -18.7 8.65 -13.0 L8.8 -12.6 Q9.05 -12.0 9.55 -11.65 L9.95 -10.95 10.0 -10.7 Q10.8 -9.05 11.25 -7.15 L11.4 -6.55 12.2 -2.95 Q10.15 -2.05 7.9 -1.75 L-0.8 -0.3 -12.45 0.55" fill="#ffcc00" fill-rule="evenodd" stroke="none"/>
    <path d="M12.2 -2.95 L11.4 -6.55 11.25 -7.15 Q10.8 -9.05 10.0 -10.7 L9.95 -10.95 9.55 -11.65 Q9.05 -12.0 8.8 -12.6 L8.65 -13.0 Q3.2 -18.7 -3.95 -16.5 L-4.55 -16.3 -4.65 -16.25 Q-7.7 -14.5 -9.4 -11.3 -10.25 -9.6 -10.6 -7.55 L-11.35 -5.5 -11.45 -5.0 -12.35 0.1 -12.45 0.55 -12.5 0.95 -12.75 3.2 -13.25 7.5 -13.3 7.6 -13.2 7.7 -13.35 8.0 -13.4 8.9 -13.75 9.0 -14.2 10.75 Q-8.2 12.15 -2.25 11.95 -1.9 10.25 -0.75 8.8 L-0.5 8.95 -0.4 9.1 -1.15 11.9 Q4.95 11.5 10.95 9.45 L14.15 7.95 14.1 7.05 14.1 6.3 14.0 6.1 13.85 5.95 13.85 5.75 13.85 5.55 13.75 5.35 13.6 5.2 13.6 5.0 13.6 4.8 13.5 4.6 13.35 4.45 13.35 4.3 13.1 3.8 13.05 3.7 12.85 3.3 12.9 3.15 12.85 2.95 13.1 2.55 12.2 -2.95 M11.75 -10.85 Q13.45 -7.55 13.75 -3.45 L13.95 -1.25 14.6 3.6 14.6 3.65 Q15.2 4.45 15.35 5.55 L15.35 5.75 15.5 5.95 15.6 6.1 15.65 6.8 16.1 6.35 15.65 6.95 Q15.8 9.1 15.35 11.0 L15.35 11.1 15.3 11.2 14.6 13.25 Q13.75 15.45 12.0 17.1 L11.9 17.3 11.85 17.45 10.8 18.0 10.6 18.1 Q5.65 20.7 0.3 18.95 -2.05 19.85 -4.3 20.05 -7.2 20.6 -10.4 19.6 L-12.85 18.6 -13.0 18.6 -13.45 18.25 -13.55 18.2 -14.95 16.8 -15.4 16.25 -15.55 15.55 -15.9 15.45 -15.85 13.3 -15.8 11.55 -16.75 11.0 -16.35 10.45 -16.0 10.25 -15.55 10.4 -15.3 9.25 -14.95 7.9 -14.75 7.45 -14.25 0.45 -14.15 0.35 -13.9 0.5 -13.25 -4.5 Q-12.9 -6.8 -12.15 -9.0 L-10.35 -13.35 -10.3 -13.45 -10.05 -13.45 Q-8.0 -17.2 -4.45 -19.0 L-4.2 -19.05 -4.5 -18.85 -3.45 -19.4 Q-1.55 -19.6 0.2 -19.35 7.2 -19.0 11.25 -11.95 L11.75 -10.85 M14.15 8.6 Q9.05 13.5 0.95 13.15 L-1.2 13.1 Q-1.1 15.3 0.15 17.4 L1.25 18.05 Q4.15 18.55 7.05 18.0 L7.6 17.85 10.2 16.7 Q11.85 16.15 12.4 14.55 L12.9 14.0 13.1 13.6 13.1 13.45 13.1 13.25 13.85 11.35 13.85 11.0 14.05 10.8 14.15 8.6 M-11.4 17.8 Q-9.2 18.65 -7.0 18.8 L-5.5 18.65 -2.8 18.15 -1.15 17.85 -0.9 17.75 Q-1.45 17.3 -1.8 16.35 -2.4 14.65 -2.35 13.1 L-8.0 13.2 Q-11.5 13.35 -14.35 12.25 -14.4 13.7 -13.95 15.25 L-13.35 16.5 -11.4 17.8" fill="#000000" fill-rule="evenodd" stroke="none"/>
    <path d="M-12.45 0.55 L-0.8 -0.3 7.9 -1.75 Q10.15 -2.05 12.2 -2.95 L13.1 2.55 12.85 2.95 12.9 3.15 12.85 3.3 13.05 3.7 13.1 3.8 13.35 4.3 13.35 4.45 13.5 4.6 13.6 4.8 13.6 5.0 13.6 5.2 13.75 5.35 13.85 5.55 13.85 5.75 13.85 5.95 14.0 6.1 14.1 6.3 14.1 7.05 14.15 7.95 10.95 9.45 Q4.95 11.5 -1.15 11.9 L-0.4 9.1 -0.5 8.95 -0.75 8.8 Q-1.9 10.25 -2.25 11.95 -8.2 12.15 -14.2 10.75 L-13.75 9.0 -13.4 8.9 -13.35 8.0 -13.2 7.7 -13.3 7.6 -13.25 7.5 -12.75 3.2 -12.5 0.95 -12.45 0.55" fill="#ffff33" fill-rule="evenodd" stroke="none"/>
    <path d="M-11.4 17.8 L-13.35 16.5 -13.95 15.25 Q-14.4 13.7 -14.35 12.25 -11.5 13.35 -8.0 13.2 L-2.35 13.1 Q-2.4 14.65 -1.8 16.35 -1.45 17.3 -0.9 17.75 L-1.15 17.85 -2.8 18.15 -5.5 18.65 -7.0 18.8 Q-9.2 18.65 -11.4 17.8 M14.15 8.6 L14.05 10.8 13.85 11.0 13.85 11.35 13.1 13.25 13.1 13.45 13.1 13.6 12.9 14.0 12.4 14.55 Q11.85 16.15 10.2 16.7 L7.6 17.85 7.05 18.0 Q4.15 18.55 1.25 18.05 L0.15 17.4 Q-1.1 15.3 -1.2 13.1 L0.95 13.15 Q9.05 13.5 14.15 8.6" fill="#333333" fill-rule="evenodd" stroke="none"/>
  </g>
</svg>
