<?xml version="1.0" encoding="UTF-8" standalone="no"?>
<svg xmlns:xlink="http://www.w3.org/1999/xlink" height="27.5px" width="28.3px" xmlns="http://www.w3.org/2000/svg">
  <g transform="matrix(1.0, 0.0, 0.0, 1.0, 14.35, 14.6)">
    <path d="M-11.55 0.7 L-11.5 0.35 -10.65 -3.55 -10.55 -3.95 -9.9 -5.5 Q-9.55 -7.05 -8.8 -8.35 -7.2 -10.8 -4.4 -12.15 L-4.3 -12.2 -3.75 -12.35 Q2.8 -14.0 7.8 -9.65 L7.95 -9.35 8.65 -8.65 9.0 -8.1 9.05 -7.9 10.2 -5.2 10.35 -4.7 11.1 -1.95 7.15 -1.05 -0.85 0.05 -11.55 0.7" fill="#ffcc00" fill-rule="evenodd" stroke="none"/>
    <path d="M11.1 -1.95 L10.35 -4.7 10.2 -5.2 9.05 -7.9 9.0 -8.1 8.65 -8.65 7.95 -9.35 7.8 -9.65 Q2.8 -14.0 -3.75 -12.35 L-4.3 -12.2 -4.4 -12.15 Q-7.2 -10.8 -8.8 -8.35 -9.55 -7.05 -9.9 -5.5 L-10.55 -3.95 -10.65 -3.55 -11.5 0.35 -11.55 0.7 -11.6 1.0 -11.85 2.75 -12.25 5.6 -10.65 6.0 -10.1 6.15 -1.9 7.15 -1.2 7.2 5.8 6.75 6.7 6.55 11.2 5.2 11.45 5.1 Q11.8 4.75 12.25 4.7 L12.05 3.0 11.9 2.25 11.1 -1.95 M10.7 -8.0 Q12.25 -5.5 12.5 -2.35 L12.7 -0.7 13.7 6.4 13.7 6.55 13.8 7.5 Q14.15 8.0 13.65 8.8 L13.2 9.25 Q10.85 10.95 7.95 11.8 L2.15 12.85 -2.75 12.8 -5.1 12.6 -6.5 12.55 -8.3 12.25 -10.2 11.8 Q-12.55 11.4 -14.05 9.65 -14.45 9.2 -14.35 8.65 L-14.2 8.5 -14.15 7.15 Q-14.05 4.25 -13.45 1.4 L-12.45 -2.35 -12.3 -3.15 Q-12.0 -4.9 -11.3 -6.6 L-9.65 -9.95 -9.6 -10.0 -9.35 -10.0 Q-7.5 -12.85 -4.25 -14.25 L-4.0 -14.3 -4.25 -14.1 -3.3 -14.55 Q-1.55 -14.7 0.05 -14.5 6.5 -14.25 10.2 -8.85 L10.7 -8.0 M-12.7 9.4 Q-10.7 10.9 -8.2 11.05 L-7.8 11.15 -2.4 11.75 2.2 11.75 3.35 11.65 Q6.4 11.35 9.2 10.15 L11.15 9.15 12.05 8.55 12.5 8.1 12.5 7.8 12.45 7.45 12.5 7.35 12.45 6.9 12.45 6.75 12.35 6.05 11.75 6.35 6.2 7.85 2.95 8.3 -1.3 8.4 -3.65 8.2 -9.0 7.35 -11.2 6.9 -11.55 6.85 -12.4 6.55 -12.65 9.35 -12.7 9.3 -12.75 9.3 -12.75 9.35 -12.7 9.4" fill="#000000" fill-rule="evenodd" stroke="none"/>
    <path d="M-11.55 0.7 L-0.85 0.05 7.15 -1.05 11.1 -1.95 11.9 2.25 12.05 3.0 12.25 4.7 Q11.8 4.75 11.45 5.1 L11.2 5.2 6.7 6.55 5.8 6.75 -1.2 7.2 -1.9 7.15 -10.1 6.15 -10.65 6.0 -12.25 5.6 -11.85 2.75 -11.6 1.0 -11.55 0.7" fill="#ffff33" fill-rule="evenodd" stroke="none"/>
    <path d="M-12.65 9.35 L-12.4 6.55 -11.55 6.85 -11.2 6.9 -9.0 7.35 -3.65 8.2 -1.3 8.4 2.95 8.3 6.2 7.85 11.75 6.35 12.35 6.05 12.45 6.75 12.45 6.9 12.5 7.35 12.45 7.45 12.5 7.8 12.5 8.1 12.05 8.55 11.15 9.15 9.2 10.15 Q6.4 11.35 3.35 11.65 L2.2 11.75 -2.4 11.75 -7.8 11.15 -8.2 11.05 Q-10.7 10.9 -12.7 9.4 L-12.65 9.35" fill="#333333" fill-rule="evenodd" stroke="none"/>
  </g>
</svg>
