<?xml version="1.0" encoding="UTF-8" standalone="no"?>
<svg xmlns:xlink="http://www.w3.org/1999/xlink" height="65.9px" width="49.25px" xmlns="http://www.w3.org/2000/svg">
  <g transform="matrix(1.0, 0.0, 0.0, 1.0, 28.4, 38.25)">
    <path d="M13.75 -35.2 L13.85 -35.3 11.8 -35.45 Q8.5 -33.3 11.45 -30.55 12.4 -29.6 13.75 -29.95 15.0 -30.6 15.95 -31.65 15.9 -33.6 14.25 -34.5 L13.75 -34.8 13.75 -35.0 13.75 -35.2 M11.75 -36.5 Q16.6 -36.25 16.8 -31.55 16.85 -30.65 16.1 -30.0 L14.85 -29.15 14.9 -28.65 14.95 -28.65 15.15 -26.15 15.25 -26.15 15.5 -21.6 15.6 -17.5 15.75 -17.3 15.85 -17.15 Q16.3 -15.3 15.75 -13.65 18.35 -10.45 19.65 -5.85 23.05 6.4 16.9 17.95 13.55 24.35 6.25 26.5 -3.9 29.45 -13.7 24.75 -18.15 22.6 -21.65 19.15 -28.95 12.0 -28.35 1.75 -28.1 -2.4 -26.5 -6.25 L-25.4 -8.6 -24.25 -10.5 -24.15 -14.15 Q-23.85 -18.7 -24.1 -23.3 L-24.15 -25.15 -24.15 -25.9 -24.15 -26.15 -24.05 -28.65 -24.0 -28.65 -23.9 -29.65 -23.8 -29.65 -23.7 -30.55 Q-25.25 -31.15 -26.3 -33.0 -27.4 -35.0 -25.9 -36.85 -24.8 -38.15 -23.25 -38.25 -21.4 -38.3 -19.7 -37.4 L-19.45 -37.25 Q-17.35 -34.15 -19.6 -31.35 -20.15 -30.7 -21.0 -30.5 L-23.15 -30.4 -23.15 -29.65 -23.1 -29.65 -23.05 -28.65 -23.0 -28.65 -22.9 -26.15 -22.85 -26.15 -22.6 -19.25 Q-22.5 -15.9 -22.75 -12.65 L-22.55 -12.9 -21.35 -14.25 Q-18.7 -16.95 -15.1 -18.0 -11.55 -20.25 -7.35 -21.0 L-3.95 -21.65 Q-0.15 -22.8 2.8 -20.85 L3.05 -20.7 Q10.5 -19.3 14.85 -14.7 L14.85 -14.9 14.8 -15.05 14.6 -15.25 Q14.5 -20.2 14.0 -25.15 L13.9 -25.15 13.6 -27.65 13.45 -27.65 13.4 -28.85 12.05 -29.1 Q9.4 -30.1 9.1 -32.85 8.9 -34.75 10.5 -35.85 L11.75 -36.5 M-10.0 17.7 L-9.8 17.35 Q-9.55 15.9 -8.9 14.55 L-8.6 14.05 Q-6.85 14.05 -6.0 15.8 L-4.85 13.6 -4.8 13.05 -3.45 11.25 -3.25 11.15 Q-1.3 13.25 -0.1 15.95 L0.0 16.15 1.35 14.45 1.6 14.1 1.75 14.0 2.0 13.9 2.7 14.4 2.8 14.6 Q2.95 15.95 3.65 17.1 L3.95 17.55 15.2 17.65 Q16.45 15.9 17.15 13.75 19.5 6.9 18.7 -0.15 18.1 -5.6 15.8 -10.65 14.15 -14.25 10.35 -16.3 3.45 -20.05 -4.6 -19.5 -8.35 -19.1 -11.65 -17.55 L-12.8 -17.25 Q-19.75 -13.8 -23.35 -7.0 L-23.4 -6.9 -23.5 -6.8 -24.4 -4.9 -24.65 -4.5 -24.95 -4.45 Q-26.3 -0.35 -26.35 4.05 L-26.15 6.8 -24.85 11.65 -24.75 11.9 -24.2 12.95 -24.0 13.3 -23.75 13.75 -23.5 14.1 -23.05 14.8 -22.65 15.3 -21.55 16.55 -19.6 18.3 -10.1 17.9 -10.05 17.75 -10.0 17.7 M11.6 21.3 L11.95 21.0 14.75 18.25 Q8.9 19.0 3.05 18.2 L2.75 17.95 2.7 17.8 2.65 17.4 2.35 17.05 2.2 16.85 2.0 16.1 1.9 15.7 0.3 17.55 0.0 17.7 -0.25 17.7 -0.6 17.6 -2.9 13.1 -3.1 12.75 Q-4.3 14.65 -5.15 16.85 L-5.35 17.35 Q-6.9 17.4 -7.65 15.7 L-7.9 15.35 -9.0 18.55 -9.25 19.05 -9.3 19.1 -17.95 19.45 -16.45 20.35 Q-12.75 22.45 -8.7 23.9 L-6.1 24.7 -5.25 24.9 Q3.8 26.9 11.6 21.3 M-20.0 -35.5 Q-20.5 -36.55 -21.75 -36.75 L-21.8 -36.95 -21.85 -37.2 -22.0 -37.25 Q-25.5 -37.4 -25.7 -34.05 L-25.7 -33.9 -24.7 -32.7 -23.3 -31.45 Q-20.9 -31.0 -19.7 -32.95 L-19.55 -33.15 Q-19.45 -34.4 -20.0 -35.5" fill="#000000" fill-rule="evenodd" stroke="none"/>
    <path d="M13.75 -35.2 L13.75 -35.0 13.75 -34.8 14.25 -34.5 Q15.9 -33.6 15.95 -31.65 15.0 -30.6 13.75 -29.95 12.4 -29.6 11.45 -30.55 8.5 -33.3 11.8 -35.45 L13.85 -35.3 13.75 -35.2 M-26.15 6.8 L-26.35 4.05 Q-26.3 -0.35 -24.95 -4.45 L-24.65 -4.5 -24.4 -4.9 -23.5 -6.8 -23.4 -6.9 -23.35 -7.0 Q-19.75 -13.8 -12.8 -17.25 L-11.65 -17.55 Q-8.35 -19.1 -4.6 -19.5 3.45 -20.05 10.35 -16.3 14.15 -14.25 15.8 -10.65 18.1 -5.6 18.7 -0.15 19.5 6.9 17.15 13.75 16.45 15.9 15.2 17.65 L3.95 17.55 3.65 17.1 Q2.95 15.95 2.8 14.6 L2.7 14.4 2.0 13.9 1.75 14.0 1.6 14.1 1.35 14.45 0.0 16.15 -0.1 15.95 Q-1.3 13.25 -3.25 11.15 L-3.45 11.25 -4.8 13.05 -4.85 13.6 -6.0 15.8 Q-6.85 14.05 -8.6 14.05 L-8.9 14.55 Q-9.55 15.9 -9.8 17.35 L-10.0 17.7 -12.75 16.05 Q-19.2 12.5 -24.6 7.45 L-26.25 6.05 -26.15 6.8 M-9.25 19.05 L-9.0 18.55 -7.9 15.35 -7.65 15.7 Q-6.9 17.4 -5.35 17.35 L-5.15 16.85 Q-4.3 14.65 -3.1 12.75 L-2.9 13.1 -0.6 17.6 -0.25 17.7 0.0 17.7 0.3 17.55 1.9 15.7 2.0 16.1 2.2 16.85 2.35 17.05 2.65 17.4 2.7 17.8 2.75 17.95 3.05 18.2 Q8.9 19.0 14.75 18.25 L11.95 21.0 11.6 21.3 10.1 21.45 7.05 21.95 -0.8 21.65 -3.85 21.0 Q-6.75 20.4 -9.25 19.05 M-5.25 24.9 L-6.1 24.7 -6.05 24.7 -5.25 24.9 M-20.0 -35.5 Q-19.45 -34.4 -19.55 -33.15 L-19.7 -32.95 Q-20.9 -31.0 -23.3 -31.45 L-24.7 -32.7 -25.7 -33.9 -25.7 -34.05 Q-25.5 -37.4 -22.0 -37.25 L-21.85 -37.2 -21.8 -36.95 -21.75 -36.75 Q-20.5 -36.55 -20.0 -35.5" fill="#ffff33" fill-rule="evenodd" stroke="none"/>
    <path d="M-26.15 6.8 L-26.25 6.05 -24.6 7.45 Q-19.2 12.5 -12.75 16.05 L-10.0 17.7 -10.05 17.75 -10.1 17.9 -19.6 18.3 -21.55 16.55 -22.65 15.3 -23.05 14.8 -23.5 14.1 -23.75 13.75 -24.0 13.3 -24.2 12.95 -24.75 11.9 -24.85 11.65 -26.15 6.8 M-9.25 19.05 Q-6.75 20.4 -3.85 21.0 L-0.8 21.65 7.05 21.95 10.1 21.45 11.6 21.3 Q3.8 26.9 -5.25 24.9 L-6.05 24.7 -6.1 24.7 -8.7 23.9 Q-12.75 22.45 -16.45 20.35 L-17.95 19.45 -9.3 19.1 -9.25 19.05" fill="#ffcc00" fill-rule="evenodd" stroke="none"/>
  </g>
</svg>
