<?xml version="1.0" encoding="UTF-8" standalone="no"?>
<svg xmlns:xlink="http://www.w3.org/1999/xlink" height="67.6px" width="49.25px" xmlns="http://www.w3.org/2000/svg">
  <g transform="matrix(1.0, 0.0, 0.0, 1.0, 21.4, 44.45)">
    <path d="M22.75 -40.25 Q21.95 -36.5 17.85 -37.45 16.5 -37.75 15.7 -38.85 15.35 -39.35 15.25 -39.9 8.8 -37.1 3.6 -32.25 L-5.25 -24.0 Q-2.95 -25.05 -0.35 -25.5 L3.05 -26.15 Q6.85 -27.3 9.8 -25.35 9.9 -25.25 10.05 -25.2 L10.55 -25.1 Q15.05 -29.5 21.2 -31.55 L21.2 -31.7 21.2 -32.3 21.2 -33.05 22.05 -34.0 Q22.9 -34.55 23.75 -34.7 27.7 -34.9 27.55 -31.25 27.5 -30.55 26.95 -30.15 24.6 -28.1 21.85 -30.2 16.35 -29.15 12.0 -25.3 L11.5 -24.9 Q23.4 -22.05 26.65 -10.35 30.05 1.9 23.9 13.45 20.55 19.85 13.25 22.0 3.1 24.95 -6.7 20.25 -11.15 18.1 -14.65 14.65 -21.95 7.5 -21.35 -2.75 -21.1 -6.9 -19.5 -10.75 L-18.4 -13.1 Q-17.15 -15.4 -15.55 -17.4 L-14.35 -18.75 Q-11.7 -21.45 -8.1 -22.5 L-7.25 -23.0 -7.25 -23.35 -7.25 -23.55 1.1 -31.9 Q6.85 -37.4 14.1 -40.6 L15.1 -40.95 Q15.15 -42.7 16.75 -43.65 L18.5 -44.45 Q22.2 -44.2 22.8 -40.95 L22.75 -40.25 M21.05 -42.35 L19.85 -43.45 19.25 -43.55 Q18.0 -43.45 16.95 -42.85 L16.7 -42.65 16.55 -42.3 16.15 -41.55 16.0 -41.35 16.05 -41.15 16.3 -41.0 16.4 -40.85 16.3 -40.45 16.25 -40.35 16.25 -40.3 16.65 -39.6 17.95 -38.4 Q21.65 -37.8 21.85 -41.2 21.65 -41.9 21.05 -42.35 M22.35 -32.7 L22.3 -32.15 22.3 -31.6 Q22.65 -31.0 23.3 -30.65 L23.5 -30.55 Q25.55 -29.8 26.7 -31.55 26.25 -34.15 23.45 -33.45 22.95 -33.25 22.55 -32.9 L22.35 -32.7 M-4.0 11.6 Q7.35 11.65 18.6 11.0 L20.55 10.6 Q21.25 10.35 21.6 9.7 22.6 7.9 23.75 6.7 L24.05 6.8 24.3 7.2 24.3 7.4 24.65 7.75 Q26.4 1.6 25.7 -4.65 25.1 -10.1 22.8 -15.15 21.15 -18.75 17.35 -20.8 10.45 -24.55 2.4 -24.0 -1.35 -23.6 -4.65 -22.05 L-5.8 -21.75 Q-13.8 -17.75 -17.4 -9.4 L-17.65 -9.0 -17.95 -8.95 Q-19.3 -4.85 -19.35 -0.45 L-19.3 0.6 Q-18.9 10.7 -9.45 15.85 -5.75 17.95 -1.7 19.4 5.15 21.9 11.3 20.3 L11.7 20.2 Q15.45 19.15 18.95 16.5 L19.1 16.4 19.65 15.95 20.2 15.5 20.15 15.5 Q22.9 12.9 24.15 9.25 L24.3 8.9 23.85 8.55 23.6 8.7 22.3 10.75 22.1 10.95 22.05 11.3 21.95 11.5 Q19.2 12.7 15.95 12.6 6.65 12.3 -2.45 12.55 L-6.1 12.7 -6.75 12.7 -7.05 12.55 -7.15 12.4 Q-7.0 11.6 -6.0 11.6 L-4.0 11.6" fill="#000000" fill-rule="evenodd" stroke="none"/>
    <path d="M-19.3 0.6 L-19.35 -0.45 Q-19.3 -4.85 -17.95 -8.95 L-17.65 -9.0 -17.4 -9.4 Q-13.8 -17.75 -5.8 -21.75 L-4.65 -22.05 Q-1.35 -23.6 2.4 -24.0 10.45 -24.55 17.35 -20.8 21.15 -18.75 22.8 -15.15 25.1 -10.1 25.7 -4.65 26.4 1.6 24.65 7.75 L24.3 7.4 24.3 7.2 24.05 6.8 23.75 6.7 Q22.6 7.9 21.6 9.7 21.25 10.35 20.55 10.6 L18.6 11.0 Q7.35 11.65 -4.0 11.6 L-8.25 9.6 Q-11.0 8.2 -13.4 6.25 -16.6 3.7 -19.3 0.6 M22.35 -32.7 L22.55 -32.9 Q22.95 -33.25 23.45 -33.45 26.25 -34.15 26.7 -31.55 25.55 -29.8 23.5 -30.55 L23.3 -30.65 Q22.65 -31.0 22.3 -31.6 L22.3 -32.15 22.35 -32.7 M21.05 -42.35 Q21.65 -41.9 21.85 -41.2 21.65 -37.8 17.95 -38.4 L16.65 -39.6 16.25 -40.3 16.25 -40.35 16.3 -40.45 16.4 -40.85 16.3 -41.0 16.05 -41.15 16.0 -41.35 16.15 -41.55 16.55 -42.3 16.7 -42.65 16.95 -42.85 Q18.0 -43.45 19.25 -43.55 L19.85 -43.45 21.05 -42.35 M-2.45 12.55 Q6.65 12.3 15.95 12.6 19.2 12.7 21.95 11.5 L22.05 11.3 22.1 10.95 22.3 10.75 23.6 8.7 23.85 8.55 24.3 8.9 24.15 9.25 Q22.9 12.9 20.15 15.5 L19.3 15.55 12.6 15.6 Q6.0 15.25 -0.15 13.1 L-1.65 12.55 -2.45 12.55 M11.7 20.2 L11.3 20.3 11.0 20.2 11.7 20.2" fill="#ffff33" fill-rule="evenodd" stroke="none"/>
    <path d="M-19.3 0.6 Q-16.6 3.7 -13.4 6.25 -11.0 8.2 -8.25 9.6 L-4.0 11.6 -6.0 11.6 Q-7.0 11.6 -7.15 12.4 L-7.05 12.55 -6.75 12.7 -6.1 12.7 -2.45 12.55 -1.65 12.55 -0.15 13.1 Q6.0 15.25 12.6 15.6 L19.3 15.55 20.15 15.5 20.2 15.5 19.65 15.95 19.1 16.4 18.95 16.5 Q15.45 19.15 11.7 20.2 L11.0 20.2 11.3 20.3 Q5.15 21.9 -1.7 19.4 -5.75 17.95 -9.45 15.85 -18.9 10.7 -19.3 0.6" fill="#ffcc00" fill-rule="evenodd" stroke="none"/>
  </g>
</svg>
