<?xml version="1.0" encoding="UTF-8" standalone="no"?>
<svg xmlns:xlink="http://www.w3.org/1999/xlink" height="67.35px" width="55.95px" xmlns="http://www.w3.org/2000/svg">
  <g transform="matrix(1.0, 0.0, 0.0, 1.0, 20.95, 64.05)">
    <path d="M5.2 -62.65 L3.45 -62.8 Q1.8 -62.25 1.1 -60.55 L1.05 -60.4 Q1.75 -57.8 4.6 -58.2 5.95 -59.25 5.95 -61.0 L5.95 -61.75 5.7 -62.15 5.2 -62.65 M3.75 -64.05 Q7.7 -63.7 6.95 -59.95 6.35 -56.8 3.25 -57.0 L1.35 -56.95 Q-3.5 -52.8 -6.8 -47.4 L-10.05 -41.45 -7.65 -42.35 Q-4.1 -44.6 0.1 -45.35 L3.5 -46.0 4.75 -46.3 9.2 -45.75 10.25 -45.2 10.5 -45.05 Q16.55 -43.9 20.55 -40.65 22.3 -45.05 25.8 -48.6 L27.5 -50.15 29.6 -51.4 Q27.5 -54.15 30.7 -55.75 L32.25 -56.3 Q36.15 -55.05 34.55 -51.8 34.25 -51.05 33.45 -50.8 L30.25 -50.55 Q25.3 -47.55 22.2 -42.55 L21.05 -40.25 23.6 -37.55 Q25.25 -35.65 26.55 -33.3 L27.7 -30.4 Q28.7 -27.85 29.15 -25.15 L29.25 -23.05 Q34.55 -19.8 32.65 -13.35 L32.45 -12.7 Q30.45 -9.85 26.9 -8.85 L25.65 -9.1 24.35 -6.4 24.15 -6.05 24.25 -5.9 24.0 -5.75 Q20.6 0.1 13.7 2.15 3.55 5.1 -6.25 0.4 -10.7 -1.75 -14.2 -5.2 -21.5 -12.35 -20.9 -22.6 -20.6 -28.05 -17.95 -32.95 L-15.1 -37.25 Q-13.25 -39.6 -10.9 -40.95 -9.45 -45.35 -6.8 -49.2 -3.45 -54.0 0.8 -57.9 -0.8 -60.3 1.05 -62.55 2.1 -63.85 3.75 -64.05 M30.1 -52.7 Q30.35 -52.25 30.75 -51.95 33.3 -50.9 34.2 -53.2 33.7 -54.5 32.35 -55.05 L32.0 -55.15 Q30.8 -54.95 30.05 -54.0 L29.95 -53.8 Q29.8 -53.25 30.1 -52.7 M4.35 -6.1 L5.25 -6.1 6.35 -6.15 6.8 -7.0 7.05 -8.0 7.1 -8.4 7.75 -9.5 7.8 -9.5 7.95 -9.65 8.25 -9.7 8.25 -9.75 8.85 -9.4 Q9.7 -9.1 10.5 -8.15 L11.35 -9.4 11.75 -10.3 Q11.75 -11.1 12.15 -11.8 L12.25 -12.15 13.1 -12.25 14.6 -7.75 14.75 -7.4 Q16.35 -8.3 17.5 -10.0 L18.1 -9.65 Q18.7 -8.6 18.5 -7.4 L18.5 -7.0 Q20.05 -6.35 22.55 -6.5 23.55 -7.95 24.25 -9.55 L24.15 -9.6 Q19.0 -11.7 20.25 -17.3 20.7 -19.35 22.15 -21.05 23.8 -22.95 27.45 -23.7 27.15 -23.8 26.9 -26.5 26.55 -29.45 24.1 -34.0 21.6 -38.6 17.8 -40.65 10.9 -44.4 2.85 -43.85 L-1.4 -42.95 -1.5 -43.0 Q-9.3 -41.6 -14.4 -35.4 L-15.0 -34.2 -15.2 -33.95 Q-18.45 -28.3 -18.85 -21.95 L-18.9 -20.3 Q-18.9 -12.2 -13.4 -7.15 L-12.15 -6.95 -8.1 -6.3 -3.25 -6.3 4.35 -6.1 M7.05 -5.5 L7.0 -5.45 6.85 -5.2 6.85 -5.15 6.8 -5.1 6.75 -5.1 6.5 -5.0 6.45 -5.0 5.6 -4.9 5.25 -4.8 4.95 -4.95 4.9 -5.0 4.2 -5.25 -3.25 -5.0 Q-7.2 -4.8 -10.85 -5.15 L-9.0 -4.0 Q-5.3 -1.9 -1.25 -0.45 10.05 3.7 19.4 -3.35 L20.5 -4.25 21.25 -5.0 Q19.55 -4.9 17.75 -5.65 17.3 -6.5 17.45 -7.5 L17.5 -7.9 Q16.45 -7.35 15.0 -6.0 L14.25 -6.15 Q13.5 -7.35 13.0 -8.75 L12.95 -10.6 12.95 -10.65 Q12.4 -8.75 11.4 -7.0 L11.3 -6.8 11.0 -6.7 10.8 -6.8 10.75 -6.8 8.55 -8.4 Q8.25 -7.05 7.35 -5.95 L7.3 -5.85 7.25 -5.75 7.05 -5.5 M30.6 -18.5 L30.55 -18.85 Q30.1 -20.45 28.5 -20.65 27.75 -20.6 27.0 -19.95 26.2 -19.25 26.7 -18.35 28.85 -14.65 30.6 -18.5 M28.1 -12.6 Q25.0 -12.65 22.75 -14.9 L22.1 -14.6 22.0 -14.4 Q24.15 -10.95 28.0 -10.9 L28.3 -11.15 28.75 -11.9 Q28.75 -12.6 28.1 -12.6" fill="#000000" fill-rule="evenodd" stroke="none"/>
    <path d="M5.2 -62.65 L5.7 -62.15 5.95 -61.75 5.95 -61.0 Q5.95 -59.25 4.6 -58.2 1.75 -57.8 1.05 -60.4 L1.1 -60.55 Q1.8 -62.25 3.45 -62.8 L5.2 -62.65 M-18.85 -21.95 Q-18.45 -28.3 -15.2 -33.95 L-15.0 -34.2 -14.4 -35.4 Q-9.3 -41.6 -1.5 -43.0 L-1.4 -42.95 2.85 -43.85 Q10.9 -44.4 17.8 -40.65 21.6 -38.6 24.1 -34.0 26.55 -29.45 26.9 -26.5 27.15 -23.8 27.45 -23.7 23.8 -22.95 22.15 -21.05 20.7 -19.35 20.25 -17.3 19.0 -11.7 24.15 -9.6 L24.25 -9.55 Q23.55 -7.95 22.55 -6.5 20.05 -6.35 18.5 -7.0 L18.5 -7.4 Q18.7 -8.6 18.1 -9.65 L17.5 -10.0 Q16.35 -8.3 14.75 -7.4 L14.6 -7.75 13.1 -12.25 12.25 -12.15 12.15 -11.8 Q11.75 -11.1 11.75 -10.3 L11.35 -9.4 10.5 -8.15 Q9.7 -9.1 8.85 -9.4 L8.25 -9.75 8.25 -9.7 7.95 -9.65 7.8 -9.5 7.75 -9.5 7.1 -8.4 7.05 -8.0 6.8 -7.0 6.35 -6.15 5.25 -6.1 4.35 -6.1 Q2.15 -6.95 0.1 -7.9 3.25 -8.05 6.6 -11.15 8.95 -13.3 8.85 -16.35 8.55 -24.25 1.0 -25.75 -5.35 -24.85 -8.75 -19.4 -9.25 -16.5 -8.1 -13.75 L-6.85 -11.75 Q-12.5 -15.35 -17.35 -20.3 L-18.85 -21.95 M30.1 -52.7 Q29.8 -53.25 29.95 -53.8 L30.05 -54.0 Q30.8 -54.95 32.0 -55.15 L32.35 -55.05 Q33.7 -54.5 34.2 -53.2 33.3 -50.9 30.75 -51.95 30.35 -52.25 30.1 -52.7 M7.05 -5.5 L7.25 -5.75 7.3 -5.85 7.35 -5.95 Q8.25 -7.05 8.55 -8.4 L10.75 -6.8 10.8 -6.8 11.0 -6.7 11.3 -6.8 11.4 -7.0 Q12.4 -8.75 12.95 -10.65 L12.95 -10.6 13.0 -8.75 Q13.5 -7.35 14.25 -6.15 L15.0 -6.0 Q16.45 -7.35 17.5 -7.9 L17.45 -7.5 Q17.3 -6.5 17.75 -5.65 19.55 -4.9 21.25 -5.0 L20.5 -4.25 11.8 -4.65 7.05 -5.5" fill="#ffff33" fill-rule="evenodd" stroke="none"/>
    <path d="M30.6 -18.5 Q28.85 -14.65 26.7 -18.35 26.2 -19.25 27.0 -19.95 27.75 -20.6 28.5 -20.65 30.1 -20.45 30.55 -18.85 L30.6 -18.5" fill="#ffffff" fill-rule="evenodd" stroke="none"/>
    <path d="M-18.85 -21.95 L-17.35 -20.3 Q-12.5 -15.35 -6.85 -11.75 -3.55 -7.8 0.1 -7.9 2.15 -6.95 4.35 -6.1 L-3.25 -6.3 -8.1 -6.3 -12.15 -6.95 -13.4 -7.15 Q-18.9 -12.2 -18.9 -20.3 L-18.85 -21.95 M20.5 -4.25 L19.4 -3.35 Q10.05 3.7 -1.25 -0.45 -5.3 -1.9 -9.0 -4.0 L-10.85 -5.15 Q-7.2 -4.8 -3.25 -5.0 L4.2 -5.25 4.9 -5.0 4.95 -4.95 5.25 -4.8 5.6 -4.9 6.45 -5.0 6.5 -5.0 6.75 -5.1 6.8 -5.1 6.85 -5.15 6.85 -5.2 7.0 -5.45 7.05 -5.5 11.8 -4.65 20.5 -4.25" fill="#ffcc00" fill-rule="evenodd" stroke="none"/>
    <path d="M28.1 -12.6 Q28.75 -12.6 28.75 -11.9 L28.3 -11.15 28.0 -10.9 Q24.15 -10.95 22.0 -14.4 L22.1 -14.6 22.75 -14.9 Q25.0 -12.65 28.1 -12.6" fill="#666666" fill-rule="evenodd" stroke="none"/>
  </g>
</svg>
