<?xml version="1.0" encoding="UTF-8" standalone="no"?>
<svg xmlns:xlink="http://www.w3.org/1999/xlink" height="55.95px" width="50.2px" xmlns="http://www.w3.org/2000/svg">
  <g transform="matrix(1.0, 0.0, 0.0, 1.0, 23.45, 45.65)">
    <path d="M25.0 -38.25 Q25.2 -37.5 25.0 -36.75 22.7 -34.55 20.2 -34.95 L22.15 -33.5 22.1 -33.5 Q21.0 -34.1 20.1 -35.0 19.05 -35.2 18.0 -35.85 L16.75 -34.65 18.05 -33.65 18.1 -33.75 18.55 -33.3 18.55 -33.25 18.65 -33.15 19.65 -32.2 21.1 -30.55 Q22.75 -28.65 24.05 -26.3 L25.2 -23.4 Q26.2 -20.85 26.65 -18.15 L26.75 -17.25 26.5 -17.4 Q28.1 -4.8 18.9 4.7 L18.1 5.45 Q15.25 7.95 11.2 9.15 1.05 12.1 -8.75 7.4 -13.2 5.25 -16.7 1.8 -24.0 -5.35 -23.4 -15.6 -23.1 -21.05 -20.45 -25.95 -19.2 -28.25 -17.6 -30.25 -15.8 -32.55 -13.5 -33.9 -13.9 -37.55 -11.85 -39.55 -12.4 -40.6 -12.25 -41.9 L-12.15 -44.15 -11.45 -44.8 -10.0 -45.65 -6.55 -45.05 -5.9 -44.75 Q-5.15 -43.35 -5.3 -41.75 -5.45 -40.4 -6.0 -39.15 -8.15 -37.6 -10.9 -38.5 L-11.45 -37.6 Q-12.15 -36.4 -12.45 -35.1 L-12.15 -35.2 -12.55 -34.45 -10.15 -35.35 Q-6.6 -37.6 -2.4 -38.35 L1.0 -39.0 2.25 -39.3 6.7 -38.75 7.75 -38.2 8.0 -38.05 Q12.4 -37.2 15.75 -35.25 16.25 -36.45 17.35 -37.15 17.2 -38.95 17.8 -40.65 L19.0 -42.9 19.45 -43.05 19.5 -43.15 20.75 -43.0 21.35 -42.9 22.0 -43.15 Q24.2 -41.15 25.0 -38.25 M20.5 -41.75 L19.85 -41.7 19.75 -41.65 Q18.7 -39.7 18.6 -37.5 L18.6 -37.15 19.25 -36.4 Q21.75 -35.75 23.75 -37.15 23.6 -40.3 20.5 -41.75 M23.95 -8.4 Q25.05 -13.0 24.65 -18.2 L24.55 -18.2 24.4 -19.5 Q24.05 -22.45 21.6 -27.0 19.2 -31.4 15.65 -33.45 L15.25 -33.4 15.3 -33.65 Q8.4 -37.4 0.35 -36.85 L-3.9 -35.95 -4.0 -36.0 Q-11.8 -34.6 -16.9 -28.4 L-17.5 -27.2 -17.7 -26.95 Q-20.75 -21.65 -21.3 -15.7 L-21.3 -15.65 -21.35 -14.95 -21.4 -13.3 Q-21.4 -5.2 -15.9 -0.15 L-15.35 -0.05 Q-13.7 2.1 -11.35 3.1 -9.2 4.3 -6.9 5.3 L0.25 5.1 0.6 4.75 0.7 4.0 0.75 3.35 1.6 3.5 Q1.85 3.55 2.1 3.75 L2.25 4.1 2.35 4.5 2.85 4.85 3.5 4.85 Q4.75 2.6 5.3 0.2 L5.5 -0.15 6.25 0.0 6.6 0.35 7.6 3.35 7.85 4.1 8.0 4.25 8.5 4.25 Q9.5 3.45 10.0 2.35 L10.1 2.1 10.5 2.05 11.25 2.1 11.45 2.5 11.6 3.25 12.1 4.0 12.25 4.35 Q13.6 4.9 15.25 4.35 L15.5 4.65 16.9 3.65 18.0 2.75 18.75 2.0 18.2 2.0 19.65 0.5 20.05 0.5 20.3 0.1 20.4 -0.05 20.65 -0.4 20.7 -0.5 23.95 -8.4 M11.25 5.75 Q11.3 5.1 10.9 4.55 L10.5 3.85 Q9.15 4.7 8.6 6.0 L8.4 6.25 7.6 6.5 Q6.5 4.75 5.95 2.75 L5.75 2.1 4.6 5.15 4.5 5.85 4.3 6.15 3.75 6.35 Q2.25 5.7 1.65 4.3 L1.35 3.85 1.3 4.1 1.35 4.85 1.25 5.25 1.1 6.0 0.45 6.4 -2.55 6.95 Q5.7 9.55 12.9 6.1 L11.6 6.1 11.25 5.75 M-6.75 -43.25 L-6.9 -43.65 Q-8.15 -44.75 -10.15 -44.25 L-10.75 -43.9 Q-11.15 -42.0 -10.55 -40.15 L-10.4 -39.9 -7.25 -39.9 Q-6.4 -41.45 -6.75 -43.25 M-4.75 -39.5 L-4.95 -39.5 -4.55 -39.65 -4.75 -39.5" fill="#000000" fill-rule="evenodd" stroke="none"/>
    <path d="M-21.3 -15.65 L-21.3 -15.7 Q-20.75 -21.65 -17.7 -26.95 L-17.5 -27.2 -16.9 -28.4 Q-11.8 -34.6 -4.0 -36.0 L-3.9 -35.95 0.35 -36.85 Q8.4 -37.4 15.3 -33.65 L15.25 -33.4 15.65 -33.45 Q19.2 -31.4 21.6 -27.0 24.05 -22.45 24.4 -19.5 L24.55 -18.2 24.65 -18.2 Q25.05 -13.0 23.95 -8.4 L24.2 -9.65 Q20.7 -7.55 16.9 -6.1 7.5 -2.55 -2.45 -3.65 -13.3 -4.85 -19.85 -13.15 L-21.05 -15.15 -21.3 -15.65 M20.5 -41.75 Q23.6 -40.3 23.75 -37.15 21.75 -35.75 19.25 -36.4 L18.6 -37.15 18.6 -37.5 Q18.7 -39.7 19.75 -41.65 L19.85 -41.7 20.5 -41.75 M-6.75 -43.25 Q-6.4 -41.45 -7.25 -39.9 L-10.4 -39.9 -10.55 -40.15 Q-11.15 -42.0 -10.75 -43.9 L-10.15 -44.25 Q-8.15 -44.75 -6.9 -43.65 L-6.75 -43.25" fill="#ffff33" fill-rule="evenodd" stroke="none"/>
    <path d="M-21.3 -15.65 L-21.05 -15.15 -19.85 -13.15 Q-13.3 -4.85 -2.45 -3.65 7.5 -2.55 16.9 -6.1 20.7 -7.55 24.2 -9.65 L23.95 -8.4 20.7 -0.5 20.65 -0.4 20.4 -0.05 20.3 0.1 20.05 0.5 19.65 0.5 18.2 2.0 18.75 2.0 18.0 2.75 16.9 3.65 15.5 4.65 15.25 4.35 Q13.6 4.9 12.25 4.35 L12.1 4.0 11.6 3.25 11.45 2.5 11.25 2.1 10.5 2.05 10.1 2.1 10.0 2.35 Q9.5 3.45 8.5 4.25 L8.0 4.25 7.85 4.1 7.6 3.35 6.6 0.35 6.25 0.0 5.5 -0.15 5.3 0.2 Q4.75 2.6 3.5 4.85 L2.85 4.85 2.35 4.5 2.25 4.1 2.1 3.75 Q1.85 3.55 1.6 3.5 L0.75 3.35 0.7 4.0 0.6 4.75 0.25 5.1 -6.9 5.3 Q-9.2 4.3 -11.35 3.1 -13.7 2.1 -15.35 -0.05 L-15.9 -0.15 Q-21.4 -5.2 -21.4 -13.3 L-21.35 -14.95 -21.3 -15.65 M11.25 5.75 L11.6 6.1 12.9 6.1 Q5.7 9.55 -2.55 6.95 L0.45 6.4 1.1 6.0 1.25 5.25 1.35 4.85 1.3 4.1 1.35 3.85 1.65 4.3 Q2.25 5.7 3.75 6.35 L4.3 6.15 4.5 5.85 4.6 5.15 5.75 2.1 5.95 2.75 Q6.5 4.75 7.6 6.5 L8.4 6.25 8.6 6.0 Q9.15 4.7 10.5 3.85 L10.9 4.55 Q11.3 5.1 11.25 5.75" fill="#ffcc00" fill-rule="evenodd" stroke="none"/>
  </g>
</svg>
