<?xml version="1.0" encoding="UTF-8" standalone="no"?>
<svg xmlns:xlink="http://www.w3.org/1999/xlink" height="61.3px" width="49.25px" xmlns="http://www.w3.org/2000/svg">
  <g transform="matrix(1.0, 0.0, 0.0, 1.0, 26.3, 33.65)">
    <path d="M15.4 -31.8 L16.6 -31.7 16.55 -31.65 16.55 -31.55 16.55 -31.4 16.85 -31.25 Q17.85 -30.7 17.9 -29.55 L16.95 -28.75 16.55 -28.5 15.5 -28.65 15.2 -28.85 Q13.4 -30.55 15.4 -31.8 M-24.05 6.8 L-24.25 4.05 Q-24.2 -0.35 -22.85 -4.45 L-22.55 -4.5 -22.3 -4.9 -21.4 -6.8 -21.3 -6.9 -21.25 -7.0 Q-17.65 -13.8 -10.7 -17.25 L-9.55 -17.55 Q-6.25 -19.1 -2.5 -19.5 5.55 -20.05 12.45 -16.3 16.25 -14.25 17.9 -10.65 20.2 -5.6 20.8 -0.15 21.6 6.9 19.25 13.75 18.55 15.9 17.3 17.65 L17.25 17.65 16.6 18.3 16.85 18.25 14.05 21.0 13.7 21.3 12.2 21.45 9.15 21.95 1.3 21.65 -1.4 21.1 -2.6 20.25 Q-6.3 18.95 -9.7 16.95 -11.2 16.05 -12.55 14.95 -17.9 11.75 -22.5 7.45 L-24.15 6.05 -24.05 6.8 M-3.15 24.9 L-4.0 24.7 -3.95 24.7 -3.15 24.9 M-22.85 -31.05 L-22.85 -31.1 Q-22.75 -33.15 -20.65 -33.05 L-20.55 -33.0 -20.5 -32.85 -20.5 -32.75 Q-19.75 -32.65 -19.45 -32.0 -19.1 -31.35 -19.15 -30.6 L-19.25 -30.45 Q-19.9 -29.5 -21.0 -29.5 L-21.4 -29.55 -21.7 -29.8 -22.25 -30.3 -22.85 -31.05" fill="#ffff33" fill-rule="evenodd" stroke="none"/>
    <path d="M15.4 -31.8 Q13.4 -30.55 15.2 -28.85 L15.5 -28.65 16.55 -28.5 16.95 -28.75 17.9 -29.55 Q17.85 -30.7 16.85 -31.25 L16.55 -31.4 16.55 -31.55 16.55 -31.65 16.6 -31.7 15.4 -31.8 M15.35 -32.45 Q18.25 -32.3 18.4 -29.45 18.4 -28.95 17.95 -28.55 L17.2 -28.05 17.25 -27.8 17.15 -27.8 17.25 -26.15 17.35 -26.15 17.6 -21.6 17.7 -17.5 17.85 -17.3 17.95 -17.15 Q18.4 -15.3 17.85 -13.65 20.45 -10.45 21.75 -5.85 25.15 6.4 19.0 17.95 15.65 24.35 8.35 26.5 -1.8 29.45 -11.6 24.75 -16.05 22.6 -19.55 19.15 -26.85 12.0 -26.25 1.75 -26.0 -2.4 -24.4 -6.25 L-23.3 -8.6 -22.15 -10.5 -22.05 -14.15 Q-21.75 -18.7 -22.0 -23.3 L-22.05 -25.15 -22.05 -25.9 -22.05 -26.15 -21.95 -28.65 -21.9 -28.65 -21.9 -28.75 -21.85 -29.1 Q-22.65 -29.5 -23.2 -30.5 -23.9 -31.7 -23.0 -32.8 -22.35 -33.6 -21.4 -33.65 -20.3 -33.7 -19.25 -33.15 L-19.1 -33.05 Q-17.85 -31.2 -19.2 -29.5 L-20.05 -29.0 -20.95 -28.9 -20.95 -28.75 -20.95 -28.65 -20.9 -28.65 -20.8 -26.15 -20.75 -26.15 -20.5 -19.25 Q-20.4 -15.9 -20.65 -12.65 L-20.45 -12.9 -19.25 -14.25 Q-16.6 -16.95 -13.0 -18.0 -9.45 -20.25 -5.25 -21.0 L-1.85 -21.65 Q1.95 -22.8 4.9 -20.85 L5.15 -20.7 Q12.6 -19.3 16.95 -14.7 L16.95 -14.9 16.9 -15.05 16.7 -15.25 Q16.6 -20.2 16.1 -25.15 L16.0 -25.15 15.7 -27.65 15.55 -27.65 15.5 -28.0 Q13.95 -28.6 13.75 -30.25 13.65 -31.4 14.6 -32.05 L15.35 -32.45 M13.7 21.3 L14.05 21.0 16.85 18.25 16.6 18.3 17.25 17.65 17.3 17.65 Q18.55 15.9 19.25 13.75 21.6 6.9 20.8 -0.15 20.2 -5.6 17.9 -10.65 16.25 -14.25 12.45 -16.3 5.55 -20.05 -2.5 -19.5 -6.25 -19.1 -9.55 -17.55 L-10.7 -17.25 Q-17.65 -13.8 -21.25 -7.0 L-21.3 -6.9 -21.4 -6.8 -22.3 -4.9 -22.55 -4.5 -22.85 -4.45 Q-24.2 -0.35 -24.25 4.05 L-24.05 6.8 -22.75 11.65 -22.65 11.9 -22.1 12.95 -21.9 13.3 -21.65 13.75 -21.4 14.1 -20.95 14.8 -20.55 15.3 -19.45 16.55 -19.15 16.85 -18.15 17.95 -15.8 19.45 -15.85 19.45 -14.35 20.35 Q-10.65 22.45 -6.6 23.9 L-4.0 24.7 -3.15 24.9 Q5.9 26.9 13.7 21.3 M-22.85 -31.05 L-22.25 -30.3 -21.7 -29.8 -21.4 -29.55 -21.0 -29.5 Q-19.9 -29.5 -19.25 -30.45 L-19.15 -30.6 Q-19.1 -31.35 -19.45 -32.0 -19.75 -32.65 -20.5 -32.75 L-20.5 -32.85 -20.55 -33.0 -20.65 -33.05 Q-22.75 -33.15 -22.85 -31.1 L-22.85 -31.05" fill="#000000" fill-rule="evenodd" stroke="none"/>
    <path d="M-24.05 6.8 L-24.15 6.05 -22.5 7.45 Q-17.9 11.75 -12.55 14.95 -11.2 16.05 -9.7 16.95 -6.3 18.95 -2.6 20.25 L-1.4 21.1 1.3 21.65 9.15 21.95 12.2 21.45 13.7 21.3 Q5.9 26.9 -3.15 24.9 L-3.95 24.7 -4.0 24.7 -6.6 23.9 Q-10.65 22.45 -14.35 20.35 L-15.85 19.45 -15.8 19.45 -18.15 17.95 -19.15 16.85 -19.45 16.55 -20.55 15.3 -20.95 14.8 -21.4 14.1 -21.65 13.75 -21.9 13.3 -22.1 12.95 -22.65 11.9 -22.75 11.65 -24.05 6.8" fill="#ffcc00" fill-rule="evenodd" stroke="none"/>
  </g>
</svg>
