<?xml version="1.0" encoding="UTF-8" standalone="no"?>
<svg xmlns:xlink="http://www.w3.org/1999/xlink" height="30.6px" width="22.65px" xmlns="http://www.w3.org/2000/svg">
  <g transform="matrix(1.0, 0.0, 0.0, 1.0, 11.85, 15.45)">
    <path d="M3.9 -13.35 L-2.8 -13.6 -3.15 -13.25 -3.75 -12.9 -3.95 -12.1 -3.6 -12.3 Q-3.4 -11.6 -3.5 -10.9 L-3.5 -10.55 Q-0.95 -11.05 0.95 -9.6 1.5 -2.4 2.35 4.75 2.6 6.5 2.45 8.3 L4.6 7.6 4.5 -6.45 4.45 -9.9 3.4 -10.2 3.15 -10.6 3.05 -10.9 3.35 -11.2 3.9 -11.6 3.9 -12.65 3.9 -13.35 M4.6 -12.4 L4.7 -11.7 Q4.95 -10.95 5.85 -10.9 8.5 -10.85 10.3 -9.25 L10.35 -8.9 Q10.3 -6.7 10.75 -4.65 L10.8 -4.0 10.65 -3.8 9.85 -3.4 10.3 -3.05 10.4 -2.7 10.5 1.15 10.55 1.85 10.4 2.15 Q9.8 2.9 8.9 3.25 L8.9 3.45 Q9.9 4.05 10.55 5.0 L10.55 6.05 10.55 10.65 10.55 11.35 10.25 11.55 Q8.15 12.3 5.85 12.65 L5.85 13.0 5.85 13.7 5.85 14.05 5.7 14.25 0.6 14.4 -0.75 14.65 -5.0 15.1 -5.3 14.7 -5.65 14.05 -5.85 13.7 -5.85 13.35 -5.85 13.0 -5.85 12.8 -10.15 12.75 -10.5 12.4 -10.55 12.05 Q-10.6 10.5 -10.8 8.9 L-10.85 8.2 -10.5 7.85 -10.5 7.6 -11.7 6.4 -11.85 5.0 -11.8 0.45 -11.8 -0.95 -11.65 -1.2 -10.5 -2.0 -10.7 -2.7 -10.85 -7.25 -10.85 -7.95 -9.7 -9.0 Q-7.5 -9.85 -5.35 -10.8 L-5.35 -11.15 -5.35 -13.25 -5.25 -13.95 -5.0 -14.1 -3.75 -14.55 -3.35 -14.85 -2.8 -15.15 -2.8 -15.25 Q0.75 -15.85 3.95 -14.45 L4.45 -14.2 4.55 -13.8 4.6 -12.4 M7.4 -3.15 Q7.9 -4.65 9.6 -5.05 9.1 -6.2 9.2 -7.5 L9.25 -8.2 5.8 -9.5 5.9 -2.55 7.45 -3.1 7.4 -3.15 M5.9 -1.65 L5.85 4.25 7.45 4.35 7.35 3.95 7.25 3.25 Q8.05 2.1 9.15 1.15 9.35 -0.2 9.2 -1.65 L9.05 -2.35 8.85 -2.4 Q7.4 -1.6 5.9 -1.65 M5.85 5.15 L5.65 8.65 5.25 8.85 5.3 11.05 Q6.9 10.35 9.15 10.3 L9.15 6.4 9.15 5.7 Q8.5 5.05 7.7 4.75 L5.85 4.8 5.85 5.15 M1.1 6.05 L1.1 5.85 0.7 6.05 -4.6 6.4 Q-4.45 9.75 -3.9 13.2 L4.25 13.1 4.05 12.4 4.0 11.7 4.1 11.65 4.05 9.3 2.35 9.8 1.4 9.25 1.1 6.05 M0.35 -1.6 L-4.45 -0.8 -4.65 4.85 0.95 4.65 0.35 -1.6 M-4.0 -10.9 L-4.0 -11.15 -4.0 -11.45 -4.0 -11.5 -4.0 -10.9 M-3.95 -9.05 L-4.05 -9.7 Q-6.95 -8.75 -9.7 -7.15 -9.95 -4.75 -9.3 -2.6 L-9.25 -1.55 -8.9 -1.4 -5.3 -2.15 -4.25 -8.25 -3.85 -9.0 -3.95 -9.05 M-0.45 -9.05 L-3.15 -8.8 -4.3 -2.25 -1.85 -2.4 -1.85 -2.45 0.25 -2.35 -0.05 -5.15 -0.1 -8.65 -0.45 -9.05 M-8.65 -0.7 L-9.15 -1.05 -9.4 -1.2 Q-9.75 -0.65 -10.5 -0.5 L-10.65 4.1 -10.65 5.5 -10.15 5.9 Q-7.95 5.25 -5.65 4.95 L-5.45 -0.7 -8.65 -0.7 M-9.25 7.6 L-9.25 8.3 -9.4 8.6 -9.7 9.0 -9.45 10.45 -9.25 11.1 -5.2 11.1 -5.6 6.4 -9.9 6.15 -9.25 6.9 -9.25 7.6" fill="#000000" fill-rule="evenodd" stroke="none"/>
    <path d="M3.9 -13.35 L3.9 -12.65 3.9 -11.6 3.35 -11.2 3.05 -10.9 3.15 -10.6 3.4 -10.2 4.45 -9.9 4.5 -6.45 4.6 7.6 2.45 8.3 Q2.6 6.5 2.35 4.75 1.5 -2.4 0.95 -9.6 -0.95 -11.05 -3.5 -10.55 L-3.5 -10.9 Q-3.4 -11.6 -3.6 -12.3 L-3.95 -12.1 -3.75 -12.9 -3.15 -13.25 -2.8 -13.6 3.9 -13.35" fill="#999999" fill-rule="evenodd" stroke="none"/>
    <path d="M7.45 -3.1 L5.9 -2.55 5.8 -9.5 9.25 -8.2 9.2 -7.5 Q9.1 -6.2 9.6 -5.05 7.9 -4.65 7.4 -3.15 L7.45 -3.1 M5.85 5.15 L5.85 4.8 7.7 4.75 Q8.5 5.05 9.15 5.7 L9.15 6.4 9.15 10.3 Q6.9 10.35 5.3 11.05 L5.25 8.85 5.65 8.65 5.85 5.15 M5.9 -1.65 Q7.4 -1.6 8.85 -2.4 L9.05 -2.35 9.2 -1.65 Q9.35 -0.2 9.15 1.15 8.05 2.1 7.25 3.25 L7.35 3.95 7.45 4.35 5.85 4.25 5.9 -1.65 M1.1 6.05 L1.4 9.25 2.35 9.8 4.05 9.3 4.1 11.65 4.0 11.7 4.05 12.4 4.25 13.1 -3.9 13.2 Q-4.45 9.75 -4.6 6.4 L0.7 6.05 1.1 6.05 M0.35 -1.6 L0.95 4.65 -4.65 4.85 -4.45 -0.8 0.35 -1.6 M-9.25 7.6 L-9.25 6.9 -9.9 6.15 -5.6 6.4 -5.2 11.1 -9.25 11.1 -9.45 10.45 -9.7 9.0 -9.4 8.6 -9.25 8.3 -9.25 7.6 M-8.65 -0.7 L-5.45 -0.7 -5.65 4.95 Q-7.95 5.25 -10.15 5.9 L-10.65 5.5 -10.65 4.1 -10.5 -0.5 Q-9.75 -0.65 -9.4 -1.2 L-9.15 -1.05 -8.65 -0.7 M-0.45 -9.05 L-0.1 -8.65 -0.05 -5.15 0.25 -2.35 -1.85 -2.45 -1.85 -2.4 -4.3 -2.25 -3.15 -8.8 -0.45 -9.05 M-3.95 -9.05 L-3.85 -9.0 -4.25 -8.25 -5.3 -2.15 -8.9 -1.4 -9.25 -1.55 -9.3 -2.6 Q-9.95 -4.75 -9.7 -7.15 -6.95 -8.75 -4.05 -9.7 L-3.95 -9.05" fill="#99cc00" fill-rule="evenodd" stroke="none"/>
  </g>
</svg>
