<?xml version="1.0" encoding="UTF-8" standalone="no"?>
<svg xmlns:xlink="http://www.w3.org/1999/xlink" height="29.85px" width="18.8px" xmlns="http://www.w3.org/2000/svg">
  <g transform="matrix(1.0, 0.0, 0.0, 1.0, 8.95, 14.3)">
    <path d="M8.9 -14.05 L9.2 -13.7 Q9.2 -9.65 9.35 -5.65 L9.85 6.3 9.65 6.65 9.3 7.0 9.1 7.05 9.3 7.65 9.4 9.85 9.4 10.9 9.2 11.25 8.85 11.8 8.7 11.95 5.3 12.15 5.05 12.9 5.0 13.25 5.0 13.6 5.0 13.95 4.85 14.25 4.6 14.65 -2.9 15.55 -3.15 15.2 -3.2 14.85 -3.3 14.15 Q-5.45 13.0 -7.95 13.25 L-8.25 12.9 Q-8.2 12.15 -8.45 11.55 L-8.7 10.05 -8.65 9.35 -8.25 8.7 -7.95 8.3 -7.65 7.95 -7.6 7.85 Q-7.95 7.65 -8.35 7.6 L-8.65 7.25 -8.95 4.45 -8.95 -0.1 -8.25 -1.15 -7.55 -1.85 -7.15 -2.2 Q-7.5 -3.2 -7.45 -4.35 -7.45 -5.95 -7.75 -7.5 L-7.65 -7.8 -7.15 -8.45 Q-5.15 -8.85 -3.2 -9.9 L-2.6 -10.3 -2.0 -10.15 -2.0 -10.4 -2.05 -10.75 -2.15 -11.1 Q-2.5 -11.75 -2.4 -12.5 L-2.65 -12.85 -2.9 -13.1 -2.65 -13.45 -2.4 -13.8 -2.2 -14.05 -2.1 -14.1 -1.85 -14.2 -1.85 -14.3 3.25 -14.15 8.9 -14.05 M6.1 -6.2 Q5.85 -2.55 6.55 0.9 L6.85 4.35 6.85 5.4 9.0 5.75 Q8.3 -1.0 8.25 -7.95 L8.25 -12.75 Q3.5 -13.2 -1.2 -12.85 -1.25 -12.1 -0.9 -11.45 L-0.85 -11.25 Q2.5 -10.4 5.7 -8.65 L5.7 -6.9 6.1 -6.2 M3.7 -8.2 Q1.85 -9.1 -0.15 -9.35 L-0.5 -9.4 -1.7 -9.7 -6.1 -7.35 -6.6 -7.0 -6.4 -5.6 -6.4 -4.2 -6.4 -3.15 -6.15 -2.8 -5.9 -2.45 -5.9 -2.1 -5.9 -1.4 -6.05 -1.15 -5.8 -1.3 -5.8 -2.35 -5.5 -2.45 -5.4 -1.4 -5.2 -1.4 Q-2.85 -1.3 -0.55 -1.45 L-0.85 -8.9 -0.55 -9.0 0.1 -1.5 5.1 -2.1 5.2 -2.1 5.15 -3.65 4.6 -7.6 3.7 -8.2 M3.25 -0.45 L0.15 -1.0 0.7 5.65 1.3 5.5 5.2 5.9 5.2 -1.2 Q4.5 -0.75 3.45 -0.55 L3.25 -0.45 M4.25 11.0 L4.55 10.65 5.1 10.6 5.2 6.6 0.85 7.25 1.15 12.05 1.1 12.4 0.55 13.0 0.05 12.75 -0.15 7.45 -0.6 7.5 -4.3 7.7 -3.6 12.2 -2.8 12.05 -2.5 12.4 -2.4 12.75 -2.3 13.45 0.55 13.45 3.85 13.1 3.95 12.05 4.2 11.35 4.25 11.0 M7.6 7.3 L6.75 7.4 6.25 7.5 6.2 10.3 6.2 10.45 8.05 10.2 Q8.15 9.4 7.85 8.75 7.55 8.1 7.6 7.35 L7.6 7.3 M-6.15 -0.1 L-6.5 -0.35 -6.3 -0.85 -6.9 -0.45 -7.95 0.6 -7.95 2.35 -7.95 4.1 -7.95 5.15 -7.85 5.5 -7.45 6.2 -6.8 6.45 -5.3 6.4 -5.75 -0.35 -6.15 -0.1 M-5.3 -0.65 L-4.45 6.35 -0.25 5.8 -0.5 -1.05 -5.2 -0.7 -5.3 -0.65 M-5.95 7.45 L-5.9 7.5 Q-5.9 8.1 -6.2 8.55 L-7.1 9.6 -7.4 9.95 -7.3 10.3 -7.15 11.0 -7.1 11.35 Q-5.9 12.15 -4.45 12.25 L-5.2 7.6 -5.9 7.45 -5.95 7.45" fill="#000000" fill-rule="evenodd" stroke="none"/>
    <path d="M-5.3 -0.65 L-5.2 -0.7 -0.5 -1.05 -0.25 5.8 -4.45 6.35 -5.3 -0.65 M-6.15 -0.1 L-5.75 -0.35 -5.3 6.4 -6.8 6.45 -7.45 6.2 -7.85 5.5 -7.95 5.15 -7.95 4.1 -7.95 2.35 -7.95 0.6 -6.9 -0.45 -6.3 -0.85 -6.5 -0.35 -6.15 -0.1 M7.6 7.3 L7.6 7.35 Q7.55 8.1 7.85 8.75 8.15 9.4 8.05 10.2 L6.2 10.45 6.2 10.3 6.25 7.5 6.75 7.4 7.6 7.3 M4.25 11.0 L4.2 11.35 3.95 12.05 3.85 13.1 0.55 13.45 -2.3 13.45 -2.4 12.75 -2.5 12.4 -2.8 12.05 -3.6 12.2 -4.3 7.7 -0.6 7.5 -0.15 7.45 0.05 12.75 0.55 13.0 1.1 12.4 1.15 12.05 0.85 7.25 5.2 6.6 5.1 10.6 4.55 10.65 4.25 11.0 M3.25 -0.45 L3.45 -0.55 Q4.5 -0.75 5.2 -1.2 L5.2 5.9 1.3 5.5 0.7 5.65 0.15 -1.0 3.25 -0.45 M3.7 -8.2 L4.6 -7.6 5.15 -3.65 5.2 -2.1 5.1 -2.1 0.1 -1.5 -0.55 -9.0 -0.85 -8.9 -0.55 -1.45 Q-2.85 -1.3 -5.2 -1.4 L-5.4 -1.4 -5.5 -2.45 -5.8 -2.35 -5.8 -1.3 -6.05 -1.15 -5.9 -1.4 -5.9 -2.1 -5.9 -2.45 -6.15 -2.8 -6.4 -3.15 -6.4 -4.2 -6.4 -5.6 -6.6 -7.0 -6.1 -7.35 -1.7 -9.7 -0.5 -9.4 -0.15 -9.35 Q1.85 -9.1 3.7 -8.2 M-5.9 7.45 L-5.2 7.6 -4.45 12.25 Q-5.9 12.15 -7.1 11.35 L-7.15 11.0 -7.3 10.3 -7.4 9.95 -7.1 9.6 -6.2 8.55 Q-5.9 8.1 -5.9 7.5 L-5.95 7.45 -5.9 7.45" fill="#99cc00" fill-rule="evenodd" stroke="none"/>
    <path d="M6.1 -6.2 L5.7 -6.9 5.7 -8.65 Q2.5 -10.4 -0.85 -11.25 L-0.9 -11.45 Q-1.25 -12.1 -1.2 -12.85 3.5 -13.2 8.25 -12.75 L8.25 -7.95 Q8.3 -1.0 9.0 5.75 L6.85 5.4 6.85 4.35 6.55 0.9 Q5.85 -2.55 6.1 -6.2" fill="#999999" fill-rule="evenodd" stroke="none"/>
  </g>
</svg>
