<?xml version="1.0" encoding="UTF-8" standalone="no"?>
<svg xmlns:xlink="http://www.w3.org/1999/xlink" height="41.1px" width="31.25px" xmlns="http://www.w3.org/2000/svg">
  <g transform="matrix(1.0, 0.0, 0.0, 1.0, 15.45, 19.8)">
    <path d="M4.85 -17.65 L4.95 -17.8 Q0.05 -19.5 -4.75 -17.0 -5.75 -16.45 -6.55 -15.7 L-6.45 -15.65 -6.3 -15.5 Q-6.3 -14.0 -7.8 -13.0 L-8.0 -12.9 -8.3 -12.95 -8.35 -12.9 -9.15 -10.6 Q-7.8 -11.9 -5.8 -12.45 L-3.55 -12.95 -3.6 -13.15 -3.65 -13.3 -3.65 -13.5 -3.65 -13.7 Q-2.55 -15.1 -1.0 -15.9 L-0.5 -16.15 Q2.3 -15.75 3.75 -13.4 8.15 -12.85 11.8 -10.15 L9.2 -14.05 9.0 -13.95 8.75 -13.9 Q7.15 -15.85 4.7 -15.95 4.6 -16.8 4.85 -17.65 M14.4 2.4 L14.35 1.35 Q14.0 -3.9 12.45 -8.7 L12.3 -8.7 12.15 -8.9 11.85 -9.25 Q8.0 -11.75 3.85 -12.25 L3.75 -12.25 3.65 -12.3 Q-0.1 -12.75 -4.05 -11.65 -7.2 -10.8 -9.8 -8.75 -11.45 -3.65 -12.35 1.6 L-12.6 3.25 Q-8.5 0.65 -3.75 -0.45 L0.0 -1.05 Q7.6 -1.0 14.2 2.4 L14.4 2.55 14.4 2.4 M15.0 -2.05 Q15.6 2.75 15.4 7.65 L15.8 8.3 15.8 8.5 Q15.7 11.35 13.2 12.7 10.45 15.65 6.75 17.55 L6.25 17.8 5.4 18.25 3.5 19.05 Q2.65 20.1 0.8 20.05 L-0.45 20.45 -3.25 21.05 -5.5 21.3 Q-9.25 21.35 -12.55 20.2 L-13.4 19.7 Q-16.1 17.5 -15.2 14.2 L-14.9 12.75 -14.8 12.3 -14.95 12.3 -15.15 12.1 -15.25 11.95 -14.1 4.05 Q-13.0 -3.1 -10.75 -10.05 -9.85 -12.85 -8.2 -15.2 L-8.25 -15.25 -8.3 -15.65 -8.25 -15.8 -8.0 -16.0 -7.75 -16.05 -7.6 -16.0 -7.0 -16.8 Q-5.65 -18.4 -3.55 -19.0 L0.0 -19.8 Q8.2 -19.85 11.65 -12.55 12.3 -11.15 13.25 -9.95 14.45 -6.1 15.0 -2.05 M14.6 6.2 L14.45 3.5 Q10.65 1.2 6.05 0.45 -3.6 -1.15 -11.8 4.15 -12.35 4.5 -12.55 5.05 L-12.55 5.2 Q-12.4 5.7 -12.6 6.15 L-12.8 6.55 -12.85 7.1 -13.1 8.25 -13.25 9.0 -13.15 9.45 -13.05 9.3 Q-12.75 8.65 -12.05 8.35 -10.9 7.1 -8.9 6.55 1.65 3.7 12.4 5.5 13.6 5.65 14.6 6.2 M14.55 8.15 L14.5 7.7 14.7 7.55 14.7 7.45 Q4.45 4.7 -6.05 6.85 -8.85 7.4 -11.2 8.9 L-11.45 9.1 -11.5 9.15 Q-12.35 9.7 -12.85 10.55 L-10.55 10.75 -10.0 10.6 -7.5 10.95 6.75 10.15 Q10.2 9.7 13.5 8.45 L14.55 8.15 M14.55 8.85 L12.4 9.75 Q13.25 10.35 12.8 11.6 14.4 10.6 14.55 8.85 M1.25 12.2 L-2.45 12.35 -2.4 12.55 Q-2.45 14.05 -4.1 14.6 -6.25 15.35 -8.45 15.35 -9.6 15.35 -10.4 14.3 L-11.3 13.25 -11.3 12.3 -11.2 12.1 -13.8 11.85 Q-14.1 13.6 -14.0 15.3 -10.8 16.6 -11.6 19.65 -7.0 20.5 -2.7 19.8 L-3.05 19.1 Q-3.35 18.3 -2.6 17.8 -0.4 16.2 2.0 15.25 4.05 15.65 6.0 16.5 L6.05 16.55 9.1 14.65 8.7 14.5 8.35 14.25 8.3 14.05 8.3 13.7 8.3 13.3 Q7.25 12.1 7.85 11.25 L1.25 12.2 M-13.85 9.5 L-13.95 10.05 -13.85 10.1 -13.85 9.6 -13.85 9.5" fill="#000000" fill-rule="evenodd" stroke="none"/>
    <path d="M4.85 -17.65 Q4.6 -16.8 4.7 -15.95 7.15 -15.85 8.75 -13.9 L9.0 -13.95 9.2 -14.05 11.8 -10.15 Q8.15 -12.85 3.75 -13.4 2.3 -15.75 -0.5 -16.15 L-1.0 -15.9 Q-2.55 -15.1 -3.65 -13.7 L-3.65 -13.5 -3.65 -13.3 -3.6 -13.15 -3.55 -12.95 -5.8 -12.45 Q-7.8 -11.9 -9.15 -10.6 L-8.35 -12.9 -8.3 -12.95 -8.0 -12.9 -7.8 -13.0 Q-6.3 -14.0 -6.3 -15.5 L-6.45 -15.65 -6.55 -15.7 Q-5.75 -16.45 -4.75 -17.0 0.05 -19.5 4.95 -17.8 L4.85 -17.65 M1.25 12.2 L7.85 11.25 Q7.25 12.1 8.3 13.3 L8.3 13.7 8.3 14.05 8.35 14.25 8.7 14.5 9.1 14.65 6.05 16.55 6.0 16.5 Q4.05 15.65 2.0 15.25 -0.4 16.2 -2.6 17.8 -3.35 18.3 -3.05 19.1 L-2.7 19.8 Q-7.0 20.5 -11.6 19.65 -10.8 16.6 -14.0 15.3 -14.1 13.6 -13.8 11.85 L-11.2 12.1 -11.3 12.3 -11.3 13.25 -10.4 14.3 Q-9.6 15.35 -8.45 15.35 -6.25 15.35 -4.1 14.6 -2.45 14.05 -2.4 12.55 L-2.45 12.35 1.25 12.2 M14.55 8.85 Q14.4 10.6 12.8 11.6 13.25 10.35 12.4 9.75 L14.55 8.85" fill="#ffffff" fill-rule="evenodd" stroke="none"/>
    <path d="M14.6 6.2 Q13.6 5.65 12.4 5.5 1.65 3.7 -8.9 6.55 -10.9 7.1 -12.05 8.35 -12.75 8.65 -13.05 9.3 L-13.15 9.45 -13.25 9.0 -13.1 8.25 -12.85 7.1 -12.8 6.55 -12.6 6.15 Q-12.4 5.7 -12.55 5.2 L-12.55 5.05 Q-12.35 4.5 -11.8 4.15 -3.6 -1.15 6.05 0.45 10.65 1.2 14.45 3.5 L14.6 6.2" fill="#ffcc00" fill-rule="evenodd" stroke="none"/>
    <path d="M14.2 2.4 Q7.6 -1.0 0.0 -1.05 L-3.75 -0.45 Q-8.5 0.65 -12.6 3.25 L-12.35 1.6 Q-11.45 -3.65 -9.8 -8.75 -7.2 -10.8 -4.05 -11.65 -0.1 -12.75 3.65 -12.3 L3.75 -12.25 3.85 -12.25 Q8.0 -11.75 11.85 -9.25 L12.15 -8.9 12.3 -8.7 12.45 -8.7 Q14.0 -3.9 14.35 1.35 L14.4 2.4 14.2 2.4 M14.55 8.15 L13.5 8.45 Q10.2 9.7 6.75 10.15 L-7.5 10.95 -10.0 10.6 -10.55 10.75 -12.85 10.55 Q-12.35 9.7 -11.5 9.15 L-11.45 9.1 -11.2 8.9 Q-8.85 7.4 -6.05 6.85 4.45 4.7 14.7 7.45 L14.7 7.55 14.5 7.7 14.55 8.15" fill="#702cb4" fill-rule="evenodd" stroke="none"/>
  </g>
</svg>
