<?xml version="1.0" encoding="UTF-8" standalone="no"?>
<svg xmlns:xlink="http://www.w3.org/1999/xlink" height="37.7px" width="29.35px" xmlns="http://www.w3.org/2000/svg">
  <g transform="matrix(1.0, 0.0, 0.0, 1.0, 14.7, 18.85)">
    <path d="M3.85 -16.15 L4.25 -15.45 4.65 -8.65 4.65 -6.0 Q4.4 -1.9 4.85 1.5 L4.3 1.45 1.3 1.75 -2.2 1.3 -1.95 -1.15 Q-1.4 -0.55 -0.45 -0.25 L0.05 -0.35 0.35 -0.4 0.6 -0.65 0.85 -1.0 2.3 -1.4 2.9 -2.5 Q3.2 -3.65 3.0 -4.75 L2.4 -4.9 -0.1 -5.2 -0.1 -5.15 -0.85 -5.0 -1.25 -4.65 -1.4 -4.3 -1.45 -3.95 -1.8 -3.65 Q-1.75 -9.1 -3.35 -14.2 L-1.95 -14.3 Q-0.45 -14.5 -0.1 -16.0 -0.2 -16.8 -0.8 -17.05 1.65 -17.1 3.85 -16.15 M7.45 -13.9 L7.6 -13.6 8.3 -12.9 8.65 -12.35 8.7 -12.15 9.1 -11.45 9.0 -11.6 8.85 -10.85 8.1 -10.5 7.4 -9.95 7.35 -9.2 7.3 -8.45 7.5 -8.05 7.75 -7.65 7.7 -7.3 Q7.3 -5.3 8.85 -4.35 L9.45 -4.6 9.8 -4.9 10.1 -5.65 10.55 -7.0 11.55 -2.0 11.7 -1.25 11.85 0.25 11.8 -0.35 11.15 -0.9 Q9.6 -0.7 8.5 0.65 L8.45 1.75 8.45 2.0 5.25 1.55 Q5.95 -7.1 4.9 -15.65 6.25 -14.95 7.45 -13.9 M0.0 -8.2 Q1.35 -6.9 3.2 -7.35 L3.35 -7.6 Q5.2 -10.25 2.35 -11.7 L2.35 -11.6 1.5 -11.5 1.05 -11.15 0.0 -10.1 -0.2 -9.35 Q-0.35 -8.75 0.0 -8.2 M12.3 8.8 Q12.2 7.65 11.35 7.2 L12.65 7.5 12.6 7.7 12.75 8.1 Q13.3 10.7 13.35 13.3 L11.95 11.6 10.6 10.2 10.95 10.55 12.3 9.2 12.3 8.8 M1.95 6.35 L-1.1 7.7 Q-1.9 8.0 -2.6 8.4 L-2.4 7.8 -2.65 7.4 Q-3.3 6.6 -4.3 6.65 -6.3 6.55 -7.65 8.05 L-7.7 8.4 -7.7 8.8 -7.6 9.15 Q-6.55 9.9 -5.65 10.1 -7.7 11.5 -9.4 13.25 -9.6 12.1 -10.75 10.95 L-10.8 11.05 -11.9 11.5 -12.25 12.2 -12.25 12.25 -12.45 7.8 -10.7 7.2 -10.25 7.1 0.0 6.2 1.95 6.2 1.95 6.35 M7.55 7.85 L6.2 7.1 4.1 6.25 10.2 7.0 Q8.8 7.1 7.55 7.85" fill="#ffffff" fill-rule="evenodd" stroke="none"/>
    <path d="M3.85 -16.15 Q1.65 -17.1 -0.8 -17.05 -0.2 -16.8 -0.1 -16.0 -0.45 -14.5 -1.95 -14.3 L-3.35 -14.2 Q-1.75 -9.1 -1.8 -3.65 L-1.45 -3.95 -1.4 -4.3 -1.25 -4.65 -0.85 -5.0 -0.1 -5.15 -0.1 -5.2 2.4 -4.9 3.0 -4.75 Q3.2 -3.65 2.9 -2.5 L2.3 -1.4 0.85 -1.0 0.6 -0.65 0.35 -0.4 0.05 -0.35 -0.45 -0.25 Q-1.4 -0.55 -1.95 -1.15 L-2.2 1.3 1.3 1.75 4.3 1.45 4.85 1.5 Q4.4 -1.9 4.65 -6.0 L4.65 -8.65 4.25 -15.45 3.85 -16.15 M7.45 -13.9 Q6.25 -14.95 4.9 -15.65 5.95 -7.1 5.25 1.55 L8.45 2.0 8.45 1.75 8.5 0.65 Q9.6 -0.7 11.15 -0.9 L11.8 -0.35 11.85 0.25 11.7 -1.25 11.55 -2.0 10.55 -7.0 10.1 -5.65 9.8 -4.9 9.45 -4.6 8.85 -4.35 Q7.3 -5.3 7.7 -7.3 L7.75 -7.65 7.5 -8.05 7.3 -8.45 7.35 -9.2 7.4 -9.95 8.1 -10.5 8.85 -10.85 9.0 -11.6 9.1 -11.45 8.7 -12.15 8.65 -12.35 8.3 -12.9 7.6 -13.6 7.45 -13.9 M0.0 -8.2 Q-0.35 -8.75 -0.2 -9.35 L0.0 -10.1 1.05 -11.15 1.5 -11.5 2.35 -11.6 2.35 -11.7 Q5.2 -10.25 3.35 -7.6 L3.2 -7.35 Q1.35 -6.9 0.0 -8.2 M12.15 -6.6 L12.35 -4.95 Q13.3 0.0 13.55 5.1 14.65 6.85 14.1 8.95 L14.1 9.35 14.25 10.55 Q14.9 12.75 14.55 14.85 L14.5 16.45 14.45 16.6 14.35 16.65 14.25 16.7 13.3 15.2 13.3 15.05 13.2 15.0 12.9 14.6 12.85 14.5 12.8 14.3 Q9.3 9.7 4.3 6.8 L4.35 6.7 Q-1.05 8.35 -6.05 11.6 -9.65 13.95 -11.7 17.75 L-11.7 17.9 -11.55 18.2 -11.7 18.35 -11.8 18.7 -11.9 18.75 -12.15 18.85 -12.5 18.7 -12.6 18.25 -12.65 18.2 -12.85 17.35 -12.9 17.35 -13.15 17.1 Q-14.1 13.05 -13.8 8.85 -15.15 6.9 -14.5 4.25 L-14.4 3.95 -14.1 3.8 -13.75 1.45 Q-13.5 -3.0 -12.65 -7.4 -12.35 -9.15 -11.65 -10.85 L-10.0 -14.2 -9.95 -14.25 -9.7 -14.25 Q-7.85 -17.1 -4.6 -18.5 L-4.35 -18.55 -4.6 -18.35 -3.65 -18.8 Q-1.9 -18.95 -0.3 -18.75 6.15 -18.5 9.85 -13.1 L10.35 -12.25 Q11.9 -9.75 12.15 -6.6 M12.15 3.6 L8.15 2.65 5.15 2.3 5.05 2.55 9.8 3.95 12.2 5.0 12.15 3.6 M12.1 5.45 Q6.95 2.95 1.1 2.55 L-1.9 2.35 Q-4.15 2.2 -6.3 2.4 L-7.6 2.35 -9.3 2.55 -10.1 2.6 -11.5 2.9 Q-12.9 3.35 -13.8 4.5 L-13.8 4.6 -13.95 5.1 -14.0 6.1 -14.0 6.45 -13.95 6.6 -13.9 6.75 -13.85 6.85 -13.7 6.9 -13.65 7.1 Q-12.55 7.15 -11.65 6.6 L-8.8 6.0 -0.7 5.25 0.0 5.2 Q6.0 5.25 11.8 6.6 L12.6 6.9 12.75 6.8 13.05 6.85 13.1 6.8 13.25 6.75 13.3 6.7 13.3 6.65 Q13.2 5.65 12.1 5.45 M12.3 8.8 L12.3 9.2 10.95 10.55 10.6 10.2 11.95 11.6 13.35 13.3 Q13.3 10.7 12.75 8.1 L12.6 7.7 12.65 7.5 11.35 7.2 Q12.2 7.65 12.3 8.8 M4.75 2.45 L5.0 2.5 4.95 2.25 4.8 2.25 3.65 2.2 4.75 2.45 M1.95 6.35 L2.3 6.2 1.95 6.2 0.0 6.2 -10.25 7.1 -10.7 7.2 -12.45 7.8 -12.25 12.25 -12.25 12.2 -11.9 11.5 -10.8 11.05 -10.75 10.95 Q-9.6 12.1 -9.4 13.25 -7.7 11.5 -5.65 10.1 -6.55 9.9 -7.6 9.15 L-7.7 8.8 -7.7 8.4 -7.65 8.05 Q-6.3 6.55 -4.3 6.65 -3.3 6.6 -2.65 7.4 L-2.4 7.8 -2.6 8.4 Q-1.9 8.0 -1.1 7.7 L1.95 6.35 M7.55 7.85 Q8.8 7.1 10.2 7.0 L4.1 6.25 6.2 7.1 7.55 7.85 M-4.65 -16.45 L-4.75 -16.4 Q-7.55 -15.05 -9.15 -12.6 -9.9 -11.3 -10.25 -9.75 L-10.9 -8.2 -11.0 -7.8 -11.85 -3.9 -11.95 -3.25 -12.5 2.45 Q-9.85 1.1 -6.8 1.1 L-6.2 1.0 -4.1 1.1 Q-3.2 -3.25 -2.85 -7.8 L-2.75 -8.55 Q-3.4 -12.7 -4.45 -16.5 L-4.65 -16.45" fill="#000000" fill-rule="evenodd" stroke="none"/>
    <path d="M12.1 5.45 Q13.2 5.65 13.3 6.65 L13.3 6.7 13.25 6.75 13.1 6.8 13.05 6.85 12.75 6.8 12.6 6.9 11.8 6.6 Q6.0 5.25 0.0 5.2 L-0.7 5.25 -8.8 6.0 -11.65 6.6 Q-12.55 7.15 -13.65 7.1 L-13.7 6.9 -13.85 6.85 -13.9 6.75 -13.95 6.6 -14.0 6.45 -14.0 6.1 -13.95 5.1 -13.8 4.6 -13.8 4.5 Q-12.9 3.35 -11.5 2.9 L-10.1 2.6 -9.3 2.55 -7.6 2.35 -6.3 2.4 Q-4.15 2.2 -1.9 2.35 L1.1 2.55 Q6.95 2.95 12.1 5.45 M12.15 3.6 L12.2 5.0 9.8 3.95 5.05 2.55 5.15 2.3 8.15 2.65 12.15 3.6" fill="#ffcc00" fill-rule="evenodd" stroke="none"/>
    <path d="M4.8 2.25 L4.95 2.25 5.0 2.5 4.75 2.45 4.8 2.25" fill="#cc0000" fill-rule="evenodd" stroke="none"/>
    <path d="M4.8 2.25 L4.75 2.45 3.65 2.2 4.8 2.25" fill="#66cc66" fill-rule="evenodd" stroke="none"/>
    <path d="M-4.65 -16.45 L-4.45 -16.5 Q-3.4 -12.7 -2.75 -8.55 L-2.85 -7.8 Q-3.2 -3.25 -4.1 1.1 L-6.2 1.0 -6.8 1.1 Q-9.85 1.1 -12.5 2.45 L-11.95 -3.25 -11.85 -3.9 -11.0 -7.8 -10.9 -8.2 -10.25 -9.75 Q-9.9 -11.3 -9.15 -12.6 -7.55 -15.05 -4.75 -16.4 L-4.65 -16.45" fill="#552eb1" fill-rule="evenodd" stroke="none"/>
  </g>
</svg>
