<?xml version="1.0" encoding="UTF-8" standalone="no"?>
<svg xmlns:xlink="http://www.w3.org/1999/xlink" height="80.9px" width="50.9px" xmlns="http://www.w3.org/2000/svg">
  <g transform="matrix(1.0, 0.0, 0.0, 1.0, 24.8, 49.2)">
    <path d="M20.55 -33.5 Q17.95 -36.45 14.65 -38.4 L13.65 -38.95 Q8.9 -41.4 2.8 -41.95 L0.8 -42.05 0.8 -42.1 0.6 -42.1 0.45 -42.1 -1.55 -41.95 -6.3 -41.2 Q-10.15 -40.25 -13.35 -38.4 L-16.5 -36.2 -19.3 -33.5 -19.25 -33.5 Q-18.9 -33.45 -18.7 -33.2 L-18.85 -32.3 Q-18.0 -29.7 -16.75 -27.05 -15.5 -24.25 -13.75 -21.65 L-13.35 -21.0 -12.15 -19.15 Q-9.6 -23.9 -6.3 -27.9 L-3.2 -31.4 0.55 -34.9 1.15 -34.65 Q1.4 -33.95 2.05 -33.45 L2.35 -33.15 Q8.25 -25.8 12.3 -17.35 L13.65 -19.5 14.65 -21.0 15.05 -21.65 Q16.75 -24.25 18.05 -27.05 L20.1 -32.3 20.0 -33.2 Q20.15 -33.45 20.5 -33.5 L20.55 -33.5 M20.15 -6.45 Q20.75 -15.85 20.65 -25.4 L20.4 -28.7 Q18.2 -22.7 14.65 -17.3 L14.6 -17.25 13.65 -15.85 13.3 -15.3 13.4 -15.15 13.1 -14.9 10.05 -19.25 Q6.0 -25.95 0.95 -31.95 L0.9 -31.95 0.8 -32.25 0.7 -32.2 -3.2 -28.7 -3.75 -28.1 -6.3 -25.05 Q-8.8 -21.65 -10.45 -17.6 L-10.7 -17.55 -11.55 -16.95 -12.5 -15.85 -12.9 -15.9 -12.95 -16.5 -12.9 -16.65 -13.35 -17.25 -13.35 -17.3 Q-16.95 -22.7 -19.1 -28.7 L-19.35 -25.4 Q-19.5 -16.75 -19.0 -8.2 L-18.9 -6.45 -19.15 -6.8 -19.1 -6.45 -18.7 -0.65 Q-18.1 -1.25 -17.25 -1.55 L-16.75 -1.45 -16.65 -1.25 -16.45 -1.05 -16.2 -1.15 -16.1 -0.7 -15.95 -0.35 -15.5 -0.45 -15.45 -0.8 -15.2 -2.55 -14.9 -2.85 -14.45 -3.25 -14.15 -3.25 -13.75 -3.2 -13.65 -3.1 -13.5 -2.85 Q-13.0 -1.45 -12.0 -0.1 L-10.8 0.0 -10.3 -0.5 -8.05 -2.75 -7.05 -2.3 -6.95 -1.95 -6.3 -0.8 -5.3 0.8 -4.8 0.95 -4.4 0.95 -3.55 0.25 -1.6 -1.85 -1.2 -1.65 -0.65 -1.4 -0.6 0.0 -0.55 0.7 Q-0.45 3.1 -0.9 5.4 L-1.2 6.5 -1.35 7.0 -1.2 7.0 -0.9 6.95 -0.8 6.95 -0.3 6.95 -0.25 6.95 0.15 6.95 0.6 6.95 1.1 6.95 1.55 6.95 2.05 6.95 2.2 6.95 2.5 7.0 2.6 7.0 2.5 6.5 2.2 5.4 Q1.7 3.1 1.85 0.7 L1.85 0.0 1.9 -1.4 2.5 -1.65 2.9 -1.85 Q3.95 -0.35 5.65 0.95 L6.1 0.95 6.6 0.8 8.2 -1.95 8.3 -2.3 9.3 -2.75 12.1 0.0 13.3 -0.1 13.65 -0.6 14.8 -2.85 14.9 -3.1 15.05 -3.2 15.45 -3.25 15.75 -3.25 16.2 -2.85 16.5 -2.55 16.7 -0.8 16.75 -0.45 17.2 -0.35 17.4 -0.7 17.45 -1.15 17.75 -1.05 17.9 -1.25 18.05 -1.45 18.5 -1.55 19.95 -0.65 20.4 -6.45 20.4 -6.8 20.15 -6.45 M22.9 -26.95 L22.6 -19.35 22.55 -18.3 22.5 -13.9 22.5 -13.3 22.5 -12.3 Q22.45 -10.05 22.55 -7.75 L22.4 -7.7 21.5 4.7 Q21.2 7.3 20.0 9.7 L20.2 9.7 Q23.4 13.25 25.65 17.4 26.2 18.35 26.05 19.45 L25.85 19.7 25.2 20.0 Q23.65 18.95 21.8 18.35 L19.9 18.05 Q21.4 20.25 21.15 22.9 L20.85 26.0 20.4 26.15 19.8 25.95 Q18.9 25.45 18.55 24.65 L15.9 23.05 Q15.1 22.65 14.55 22.7 L14.55 22.75 Q15.4 25.45 13.65 27.95 L13.2 28.55 Q12.6 29.25 12.15 30.1 L11.85 30.25 11.1 30.2 10.7 29.9 10.45 29.75 Q8.55 27.2 5.3 25.55 L4.95 25.3 2.75 29.8 Q2.1 30.95 0.8 31.65 L0.8 31.7 0.65 31.7 0.45 31.7 0.45 31.65 Q-0.85 30.95 -1.5 29.8 L-3.7 25.3 -4.05 25.55 -6.3 26.95 Q-8.0 28.15 -9.2 29.75 L-9.4 29.9 -9.8 30.2 -10.6 30.25 -10.85 30.1 -11.9 28.55 Q-14.25 25.8 -13.3 22.75 L-13.25 22.7 Q-13.85 22.65 -14.65 23.05 L-17.3 24.65 Q-17.65 25.45 -18.5 25.95 L-19.15 26.15 -19.55 26.0 -19.9 22.9 Q-20.15 20.25 -18.6 18.05 L-20.5 18.35 Q-22.4 18.95 -23.95 20.0 L-24.6 19.7 -24.75 19.45 Q-24.95 18.35 -24.4 17.4 -22.15 13.25 -18.9 9.7 L-18.7 9.7 Q-19.95 7.3 -20.25 4.7 L-21.1 -7.7 -21.25 -7.75 -21.25 -8.2 -21.2 -12.3 -21.2 -13.3 -21.25 -13.9 -21.3 -18.3 -21.35 -19.35 -21.65 -26.95 Q-21.8 -29.85 -21.1 -32.55 L-21.2 -32.65 -21.45 -32.95 Q-20.9 -34.8 -19.35 -36.2 L-18.9 -36.55 Q-16.3 -38.65 -13.35 -40.15 -10.0 -41.95 -6.3 -42.95 L-2.3 -43.85 -2.6 -44.15 -3.25 -44.9 -3.25 -45.25 -3.25 -46.0 -3.25 -47.15 -2.05 -47.85 0.0 -49.1 Q5.2 -49.75 6.3 -45.5 L6.35 -45.15 6.2 -44.8 5.85 -44.4 5.85 -44.0 5.85 -43.65 5.85 -43.4 Q9.95 -42.45 13.65 -40.65 L14.65 -40.15 Q17.55 -38.65 20.2 -36.55 22.1 -35.05 22.75 -32.95 L22.5 -32.65 22.4 -32.55 Q23.05 -29.85 22.9 -26.95 M4.3 -47.0 L-1.3 -46.85 -1.8 -46.5 -1.9 -46.1 -1.95 -45.75 -1.95 -45.4 -1.65 -45.0 -1.0 -44.2 -0.85 -44.05 0.45 -44.2 0.45 -44.25 0.65 -44.2 0.8 -44.25 0.8 -44.2 4.6 -43.65 4.65 -44.75 4.8 -45.5 4.8 -45.85 4.65 -46.3 4.5 -46.6 4.3 -47.0 M0.8 -25.15 L0.65 -25.1 0.8 -25.25 0.8 -25.15 M9.1 -0.7 L7.4 2.1 7.25 2.3 5.45 2.3 3.4 0.6 3.1 4.3 Q3.1 5.2 3.4 6.0 5.6 6.9 7.9 7.3 L8.6 7.35 8.8 7.45 Q11.2 7.75 13.65 7.45 L18.1 6.5 18.85 2.65 18.9 1.3 17.85 1.4 17.15 1.4 15.85 0.7 15.45 0.0 15.3 -0.35 13.65 1.45 13.4 1.75 13.2 2.0 11.85 2.0 9.3 -0.7 9.1 -0.7 M17.85 -5.0 L17.75 -4.9 17.75 -5.0 17.85 -5.0 M14.7 12.15 Q15.85 12.9 16.25 14.1 L16.2 14.25 15.9 14.4 13.65 12.3 Q11.35 10.7 8.15 10.1 L7.1 9.9 10.0 11.6 Q11.5 12.55 12.45 13.95 L12.85 14.5 12.75 14.7 12.85 14.85 12.85 15.25 12.95 15.4 13.1 15.6 13.2 15.75 13.15 15.95 Q13.05 16.25 13.1 16.55 L12.85 17.15 12.5 17.2 12.35 17.0 12.3 16.45 12.35 16.05 Q10.3 11.3 4.35 9.75 L1.05 9.0 0.8 9.0 0.8 8.95 0.65 8.95 0.45 9.0 0.2 9.0 -3.05 9.75 Q-4.85 10.2 -6.3 11.0 -9.65 12.75 -11.1 16.05 L-11.05 16.45 -11.1 17.0 -11.2 17.2 -11.55 17.15 -11.8 16.55 -11.85 15.95 -11.9 15.75 -11.8 15.6 -11.65 15.4 -11.55 15.25 -11.55 14.85 -11.5 14.7 -11.55 14.5 -11.15 13.95 Q-10.25 12.55 -8.75 11.6 L-6.3 10.15 -5.8 9.9 -6.3 10.0 -6.9 10.1 Q-11.85 11.0 -14.65 14.4 L-14.9 14.25 -15.0 14.1 Q-14.6 12.9 -13.4 12.15 -11.0 10.65 -8.3 9.65 L-16.05 10.9 -16.25 10.65 -16.75 10.3 -17.15 10.65 -18.35 11.0 -18.4 11.2 Q-20.95 14.0 -22.6 17.25 -19.45 15.75 -16.35 17.0 L-16.9 17.7 Q-19.55 20.65 -18.5 24.5 L-18.4 24.4 -17.8 23.7 Q-15.45 23.2 -13.4 22.1 L-11.9 22.1 -11.95 22.3 Q-12.45 25.0 -10.95 27.05 L-10.6 27.55 -10.05 28.1 Q-8.95 27.7 -8.6 26.6 L-6.3 25.3 -4.35 24.3 -3.9 23.6 -3.1 23.7 Q-3.0 24.35 -2.4 24.75 -1.25 27.35 0.45 29.85 L0.55 29.95 0.65 29.9 0.8 29.75 0.8 29.85 3.7 24.75 Q4.25 24.35 4.4 23.7 L5.2 23.6 5.6 24.3 9.9 26.6 Q10.2 27.7 11.35 28.1 L11.85 27.55 12.2 27.05 Q13.7 25.0 13.25 22.3 L13.2 22.1 13.65 22.1 14.7 22.1 Q16.7 23.2 19.1 23.7 L19.65 24.4 19.8 24.5 Q20.8 20.65 18.15 17.7 L17.65 17.0 Q20.7 15.75 23.9 17.25 22.2 14.0 19.65 11.2 L19.6 11.0 18.45 10.65 18.05 10.3 Q17.75 10.45 17.55 10.65 L17.35 10.9 13.65 10.25 9.6 9.65 Q11.7 10.4 13.65 11.55 L14.7 12.15 M18.7 9.45 L18.7 9.25 18.45 9.4 18.65 9.45 18.7 9.45 M0.65 9.25 L0.8 9.2 0.8 9.35 1.9 9.8 Q2.65 10.15 3.4 10.6 7.75 13.15 7.65 17.75 L7.65 18.3 7.55 18.45 7.35 18.6 6.75 16.95 6.5 15.25 Q5.15 11.7 0.8 10.85 L0.8 10.75 0.65 10.8 0.55 10.8 0.45 10.85 Q-3.9 11.7 -5.25 15.25 -5.3 16.1 -5.5 16.95 L-6.1 18.6 -6.3 18.45 -6.35 18.3 -6.35 17.75 -6.3 16.4 Q-5.8 12.75 -2.1 10.6 L-0.65 9.8 0.45 9.35 0.65 9.25 M-16.5 -5.0 L-16.5 -4.9 -16.6 -5.0 -16.5 -5.0 M-7.85 -0.7 L-8.05 -0.7 -10.6 2.0 -11.9 2.0 -12.15 1.75 -14.05 -0.35 -14.15 0.0 -14.55 0.7 -15.9 1.4 -16.6 1.4 -17.65 1.3 -17.6 2.65 Q-17.4 4.6 -16.8 6.5 -12.1 8.0 -7.55 7.45 L-7.35 7.35 -6.6 7.3 -6.3 7.25 -2.1 6.0 Q-1.85 5.2 -1.85 4.3 L-2.1 0.6 -4.15 2.3 -6.0 2.3 -6.15 2.1 -6.3 1.85 -7.85 -0.7 M-17.4 9.45 L-17.2 9.4 -17.45 9.25 -17.4 9.45" fill="#000000" fill-rule="evenodd" stroke="none"/>
    <path d="M0.9 -31.95 L0.7 -32.2 0.8 -32.25 0.9 -31.95" fill="#993399" fill-rule="evenodd" stroke="none"/>
    <path d="M0.9 -31.95 L0.95 -31.95 Q6.0 -25.95 10.05 -19.25 L13.1 -14.9 13.4 -15.15 13.3 -15.3 13.65 -15.85 14.6 -17.25 14.65 -17.3 Q18.2 -22.7 20.4 -28.7 L20.65 -25.4 Q20.75 -15.85 20.15 -6.45 L20.4 -6.45 19.95 -0.65 18.5 -1.55 18.05 -1.45 17.9 -1.25 17.75 -1.05 17.45 -1.15 17.4 -0.7 17.2 -0.35 16.75 -0.45 16.7 -0.8 16.5 -2.55 16.2 -2.85 15.75 -3.25 15.45 -3.25 15.05 -3.2 14.9 -3.1 14.8 -2.85 13.65 -0.6 13.3 -0.1 12.1 0.0 9.3 -2.75 8.3 -2.3 8.2 -1.95 6.6 0.8 6.1 0.95 5.65 0.95 Q3.95 -0.35 2.9 -1.85 L2.5 -1.65 1.9 -1.4 1.85 0.0 1.85 0.7 Q1.7 3.1 2.2 5.4 L2.5 6.5 2.6 7.0 2.5 7.0 2.2 6.95 2.05 6.95 1.55 6.95 1.1 6.95 0.6 6.95 0.15 6.95 -0.25 6.95 -0.3 6.95 -0.8 6.95 -0.9 6.95 -1.2 7.0 -1.35 7.0 -1.2 6.5 -0.9 5.4 Q-0.45 3.1 -0.55 0.7 L-0.6 0.0 -0.65 -1.4 -1.2 -1.65 -1.6 -1.85 -3.55 0.25 -3.15 -9.95 Q-2.75 -19.3 -3.35 -28.5 L-3.75 -28.1 -3.2 -28.7 0.7 -32.2 0.9 -31.95 M4.3 -47.0 L4.5 -46.6 4.65 -46.3 4.8 -45.85 4.8 -45.5 4.65 -44.75 4.6 -43.65 0.8 -44.2 0.8 -44.25 0.65 -44.2 0.45 -44.25 0.45 -44.2 -0.85 -44.05 -1.0 -44.2 -1.65 -45.0 -1.95 -45.4 -1.95 -45.75 -1.9 -46.1 -1.8 -46.5 -1.3 -46.85 4.3 -47.0 M0.8 -25.15 L0.8 -25.25 0.65 -25.1 0.8 -25.15 M17.85 -5.0 L17.75 -5.0 17.75 -4.9 17.85 -5.0 M-18.9 -6.45 L-19.0 -8.2 Q-19.5 -16.75 -19.35 -25.4 L-19.1 -28.7 Q-16.95 -22.7 -13.35 -17.3 L-13.35 -17.25 -12.9 -16.65 -12.95 -16.5 -12.9 -15.9 -12.5 -15.85 -11.55 -16.95 -10.7 -17.55 -10.4 -5.15 -10.3 -0.5 -10.8 0.0 -12.0 -0.1 Q-13.0 -1.45 -13.5 -2.85 L-13.65 -3.1 -13.75 -3.2 -14.15 -3.25 -14.45 -3.25 -14.9 -2.85 -15.2 -2.55 -15.45 -0.8 -15.5 -0.45 -15.95 -0.35 -16.1 -0.7 -16.2 -1.15 -16.45 -1.05 -16.65 -1.25 -16.75 -1.45 -17.25 -1.55 Q-18.1 -1.25 -18.7 -0.65 L-19.1 -6.45 -18.9 -6.45 M-16.5 -5.0 L-16.6 -5.0 -16.5 -4.9 -16.5 -5.0" fill="#ffcc00" fill-rule="evenodd" stroke="none"/>
    <path d="M9.1 -0.7 L9.3 -0.7 11.85 2.0 13.2 2.0 13.4 1.75 13.65 1.45 15.3 -0.35 15.45 0.0 15.85 0.7 17.15 1.4 17.85 1.4 18.9 1.3 18.85 2.65 18.1 6.5 13.65 7.45 Q11.2 7.75 8.8 7.45 L8.6 7.35 7.9 7.3 Q5.6 6.9 3.4 6.0 3.1 5.2 3.1 4.3 L3.4 0.6 5.45 2.3 7.25 2.3 7.4 2.1 9.1 -0.7 M14.7 12.15 L13.65 11.55 Q11.7 10.4 9.6 9.65 L13.65 10.25 17.35 10.9 17.55 10.65 Q17.75 10.45 18.05 10.3 L18.45 10.65 19.6 11.0 19.65 11.2 Q22.2 14.0 23.9 17.25 20.7 15.75 17.65 17.0 L18.15 17.7 Q20.8 20.65 19.8 24.5 L19.65 24.4 19.1 23.7 Q16.7 23.2 14.7 22.1 L13.65 22.1 13.2 22.1 13.25 22.3 Q13.7 25.0 12.2 27.05 L11.85 27.55 11.35 28.1 Q10.2 27.7 9.9 26.6 L5.6 24.3 5.2 23.6 4.4 23.7 Q4.25 24.35 3.7 24.75 L0.8 29.85 0.8 29.75 0.65 29.9 0.55 29.95 0.45 29.85 Q-1.25 27.35 -2.4 24.75 -3.0 24.35 -3.1 23.7 L-3.9 23.6 -4.35 24.3 -6.3 25.3 -8.6 26.6 Q-8.95 27.7 -10.05 28.1 L-10.6 27.55 -10.95 27.05 Q-12.45 25.0 -11.95 22.3 L-11.9 22.1 -13.4 22.1 Q-15.45 23.2 -17.8 23.7 L-18.4 24.4 -18.5 24.5 Q-19.55 20.65 -16.9 17.7 L-16.35 17.0 Q-19.45 15.75 -22.6 17.25 -20.95 14.0 -18.4 11.2 L-18.35 11.0 -17.15 10.65 -16.75 10.3 -16.25 10.65 -16.05 10.9 -8.3 9.65 Q-11.0 10.65 -13.4 12.15 -14.6 12.9 -15.0 14.1 L-14.9 14.25 -14.65 14.4 Q-11.85 11.0 -6.9 10.1 L-6.3 10.0 -5.8 9.9 -6.3 10.15 -8.75 11.6 Q-10.25 12.55 -11.15 13.95 L-11.55 14.5 -11.5 14.7 -11.55 14.85 -11.55 15.25 -11.65 15.4 -11.8 15.6 -11.9 15.75 -11.85 15.95 -11.8 16.55 -11.55 17.15 -11.2 17.2 -11.1 17.0 -11.05 16.45 -11.1 16.05 Q-9.65 12.75 -6.3 11.0 -4.85 10.2 -3.05 9.75 L0.2 9.0 0.45 9.0 0.65 8.95 0.8 8.95 0.8 9.0 1.05 9.0 4.35 9.75 Q10.3 11.3 12.35 16.05 L12.3 16.45 12.35 17.0 12.5 17.2 12.85 17.15 13.1 16.55 Q13.05 16.25 13.15 15.95 L13.2 15.75 13.1 15.6 12.95 15.4 12.85 15.25 12.85 14.85 12.75 14.7 12.85 14.5 12.45 13.95 Q11.5 12.55 10.0 11.6 L7.1 9.9 8.15 10.1 Q11.35 10.7 13.65 12.3 L15.9 14.4 16.2 14.25 16.25 14.1 Q15.85 12.9 14.7 12.15 M0.65 9.25 L0.45 9.35 -0.65 9.8 -2.1 10.6 Q-5.8 12.75 -6.3 16.4 L-6.35 17.75 -6.35 18.3 -6.3 18.45 -6.1 18.6 -5.5 16.95 Q-5.3 16.1 -5.25 15.25 -3.9 11.7 0.45 10.85 L0.55 10.8 0.65 10.8 0.8 10.75 0.8 10.85 Q5.15 11.7 6.5 15.25 L6.75 16.95 7.35 18.6 7.55 18.45 7.65 18.3 7.65 17.75 Q7.75 13.15 3.4 10.6 2.65 10.15 1.9 9.8 L0.8 9.35 0.8 9.2 0.65 9.25 M-7.85 -0.7 L-6.3 1.85 -6.15 2.1 -6.0 2.3 -4.15 2.3 -2.1 0.6 -1.85 4.3 Q-1.85 5.2 -2.1 6.0 L-6.3 7.25 -6.6 7.3 -7.35 7.35 -7.55 7.45 Q-12.1 8.0 -16.8 6.5 -17.4 4.6 -17.6 2.65 L-17.65 1.3 -16.6 1.4 -15.9 1.4 -14.55 0.7 -14.15 0.0 -14.05 -0.35 -12.15 1.75 -11.9 2.0 -10.6 2.0 -8.05 -0.7 -7.85 -0.7" fill="#ffffff" fill-rule="evenodd" stroke="none"/>
    <path d="M20.55 -33.5 L20.5 -33.5 Q20.15 -33.45 20.0 -33.2 L20.1 -32.3 18.05 -27.05 Q16.75 -24.25 15.05 -21.65 L14.65 -21.0 13.65 -19.5 12.3 -17.35 Q8.25 -25.8 2.35 -33.15 L2.05 -33.45 Q1.4 -33.95 1.15 -34.65 L0.55 -34.9 -3.2 -31.4 -6.3 -27.9 Q-9.6 -23.9 -12.15 -19.15 L-13.35 -21.0 -13.75 -21.65 Q-15.5 -24.25 -16.75 -27.05 -18.0 -29.7 -18.85 -32.3 L-18.7 -33.2 Q-18.9 -33.45 -19.25 -33.5 L-19.3 -33.5 -16.5 -36.2 -13.35 -38.4 Q-10.15 -40.25 -6.3 -41.2 L-1.55 -41.95 0.45 -42.1 0.6 -42.1 0.8 -42.1 0.8 -42.05 2.8 -41.95 Q8.9 -41.4 13.65 -38.95 L14.65 -38.4 Q17.95 -36.45 20.55 -33.5" fill="#702cb4" fill-rule="evenodd" stroke="none"/>
    <path d="M-3.75 -28.1 L-3.35 -28.5 Q-2.75 -19.3 -3.15 -9.95 L-3.55 0.25 -4.4 0.95 -4.8 0.95 -5.3 0.8 -6.3 -0.8 -6.95 -1.95 -7.05 -2.3 -8.05 -2.75 -10.3 -0.5 -10.4 -5.15 -10.7 -17.55 -10.45 -17.6 Q-8.8 -21.65 -6.3 -25.05 L-3.75 -28.1" fill="#fed55a" fill-rule="evenodd" stroke="none"/>
  </g>
</svg>
