<?xml version="1.0" encoding="UTF-8" standalone="no"?>
<svg xmlns:xlink="http://www.w3.org/1999/xlink" height="82.35px" width="49.35px" xmlns="http://www.w3.org/2000/svg">
  <g transform="matrix(1.0, 0.0, 0.0, 1.0, 18.55, 67.75)">
    <path d="M2.8 -67.6 Q8.6 -68.5 9.8 -63.65 L9.85 -63.35 9.7 -63.0 8.65 -61.35 Q18.45 -60.35 25.7 -53.65 27.35 -52.15 27.9 -50.05 L27.7 -49.75 27.6 -49.65 Q28.15 -46.95 28.05 -44.05 L27.8 -36.45 27.8 -35.4 27.75 -31.0 27.7 -30.4 27.7 -29.4 27.8 -22.75 Q27.85 -20.5 27.35 -18.5 L27.4 -18.6 28.0 -18.6 28.35 -18.25 28.45 -16.85 28.45 -16.5 28.2 -16.15 28.0 -15.8 28.05 -14.35 27.9 -10.95 27.4 -9.25 Q25.5 -8.45 23.6 -8.05 L23.95 -7.85 24.4 -7.65 25.7 -7.4 Q28.5 -3.85 30.45 0.3 30.9 1.25 30.75 2.35 L30.6 2.6 30.05 2.9 Q28.7 1.85 27.1 1.25 L25.45 0.95 Q26.75 3.15 26.55 5.8 L26.25 8.9 25.9 9.05 25.35 8.85 Q24.6 8.35 24.3 7.55 L22.0 5.95 Q21.35 5.55 20.85 5.6 L20.85 5.65 Q21.65 8.7 19.65 11.45 L18.75 13.0 18.5 13.15 17.85 13.1 17.5 12.8 17.3 12.65 Q15.65 10.1 12.85 8.45 L12.55 8.2 10.65 12.7 Q10.05 13.95 8.8 14.6 L8.0 14.45 4.1 10.25 Q3.4 9.55 3.0 8.7 L2.9 8.6 2.1 8.45 Q-1.05 10.35 -3.75 12.9 L-4.15 13.2 -4.95 12.95 Q-6.2 10.0 -7.9 7.1 -8.6 5.95 -8.3 4.65 L-15.6 4.3 -15.95 3.95 -15.9 3.6 -15.85 3.25 -15.8 2.55 -15.5 2.2 -15.2 1.2 -14.55 -1.6 -14.75 -1.95 -14.9 -2.3 -15.8 -4.05 -15.75 -6.25 -16.0 -8.55 -16.05 -9.1 -15.95 -9.2 -16.5 -14.35 -16.65 -16.0 Q-17.9 -20.5 -18.0 -25.3 L-18.55 -48.2 -18.5 -48.9 -18.25 -49.2 -17.9 -49.6 -17.35 -49.6 -17.15 -49.2 Q-13.55 -55.25 -6.4 -58.15 -2.8 -59.6 0.85 -60.45 L0.1 -61.75 -0.7 -62.65 -0.65 -63.0 -0.6 -63.35 -0.55 -63.7 -0.55 -64.05 0.15 -65.0 Q1.0 -66.9 2.8 -67.6 M0.95 -64.2 L0.6 -63.45 0.75 -63.15 1.5 -62.2 2.1 -61.15 2.1 -61.1 2.75 -60.9 6.5 -61.5 7.45 -61.45 8.05 -62.7 8.7 -63.7 Q7.1 -67.85 2.25 -65.85 L1.65 -65.55 1.5 -65.2 0.95 -64.2 M0.9 -50.2 L0.95 -50.25 1.5 -50.05 10.0 -40.85 Q13.45 -37.0 14.6 -32.0 L15.4 -30.95 15.6 -30.6 Q15.5 -29.85 15.8 -29.2 L16.0 -28.8 21.25 -38.75 Q22.75 -41.35 23.85 -44.15 L25.65 -49.4 25.55 -50.3 Q25.7 -50.55 26.0 -50.6 L26.05 -50.6 Q20.35 -58.05 10.7 -59.05 -5.75 -60.75 -16.15 -48.2 L-16.7 -48.1 -11.5 -35.65 Q-10.8 -33.95 -10.4 -32.1 -7.35 -40.75 -1.75 -48.1 L0.15 -50.05 0.9 -50.2 M10.3 -10.15 L11.6 -10.15 11.65 -10.15 12.05 -10.15 12.55 -10.1 Q11.95 -12.2 11.85 -14.35 L11.85 -16.4 11.9 -18.5 12.75 -18.95 Q13.7 -17.45 15.15 -16.15 L15.5 -16.15 15.95 -16.3 17.35 -19.05 17.45 -19.4 18.3 -19.85 20.7 -17.1 21.75 -17.2 Q22.6 -18.55 23.05 -19.95 L23.15 -20.2 23.25 -20.3 23.6 -20.35 23.85 -20.35 24.25 -19.95 24.5 -19.65 24.7 -17.9 24.75 -17.55 25.3 -17.4 Q26.25 -29.8 26.1 -42.5 L25.9 -45.8 Q22.95 -36.45 17.15 -28.6 L16.45 -27.25 Q15.8 -26.3 15.15 -27.15 L15.55 -27.95 15.25 -27.85 Q14.5 -28.1 14.0 -28.75 L13.95 -29.8 13.9 -30.15 Q12.4 -34.45 10.05 -38.1 L9.9 -38.35 9.75 -38.55 8.4 -40.45 8.2 -40.7 8.0 -40.95 7.85 -41.2 1.9 -47.1 0.95 -47.85 0.6 -48.2 0.15 -48.2 Q-6.4 -40.2 -9.2 -30.5 -9.6 -29.15 -9.6 -27.75 L-10.5 -27.25 -11.1 -28.65 -11.3 -29.0 Q-12.55 -36.1 -15.85 -42.55 L-17.15 -45.65 Q-16.6 -39.4 -16.35 -33.1 -16.1 -25.75 -15.2 -18.45 L-14.7 -14.35 -14.6 -13.1 -13.9 -11.0 -13.75 -10.95 -11.95 -10.7 -10.4 -10.75 -10.55 -14.35 -10.65 -15.95 -10.6 -16.3 Q-9.85 -17.2 -8.3 -16.85 -7.75 -17.3 -7.4 -17.9 L-7.35 -18.6 -7.25 -18.8 Q-5.3 -18.8 -3.9 -17.1 -3.1 -17.6 -3.2 -18.85 L-3.2 -19.15 -2.65 -19.75 Q-0.4 -19.9 0.5 -17.8 L0.6 -17.75 1.05 -17.8 1.65 -20.2 Q2.35 -20.25 3.0 -19.7 L3.85 -18.5 4.65 -18.15 7.55 -21.15 7.9 -21.15 8.1 -21.15 8.7 -14.55 8.7 -14.35 8.7 -14.2 Q9.65 -12.7 9.6 -10.85 L9.6 -10.5 9.3 -10.1 10.3 -10.15 M13.05 -14.35 L12.95 -12.8 Q12.95 -11.9 13.2 -11.1 15.1 -10.2 17.1 -9.8 L17.7 -9.75 17.9 -9.65 Q21.85 -9.1 25.9 -10.6 26.4 -12.45 26.55 -14.35 L26.55 -14.45 26.6 -15.8 25.7 -15.7 25.1 -15.7 23.95 -16.4 23.6 -17.1 23.5 -17.45 21.85 -15.35 21.65 -15.1 20.5 -15.1 18.3 -17.8 18.15 -17.8 16.65 -15.0 16.55 -14.8 14.95 -14.8 13.2 -16.5 13.05 -14.35 M1.35 -16.95 L1.3 -16.75 0.15 -16.75 -1.2 -18.45 -1.5 -18.7 -1.7 -18.75 -2.3 -18.7 Q-2.15 -17.6 -2.65 -16.6 L-2.9 -15.95 -4.05 -15.8 -6.1 -17.55 Q-6.8 -17.3 -7.25 -16.5 L-7.4 -16.15 -9.6 -15.45 -9.5 -14.35 -9.2 -12.35 -9.1 -11.65 Q-0.55 -10.05 7.8 -11.75 8.0 -11.75 8.0 -12.1 L8.05 -14.35 Q7.95 -17.2 7.3 -19.5 L5.9 -18.15 5.55 -17.8 5.45 -17.45 5.45 -17.2 Q3.3 -17.1 2.45 -19.4 2.1 -19.15 1.85 -18.4 L1.65 -17.3 1.35 -16.95 M5.6 -7.95 L3.2 -8.15 Q0.1 -7.6 -2.2 -5.3 L-2.2 -4.95 -2.2 -4.6 -2.65 -3.9 -2.65 -2.5 -2.65 -2.2 -3.0 -1.85 -4.05 -1.85 Q-5.3 -3.2 -7.05 -3.0 L-8.1 -0.9 -9.1 -0.45 Q-9.55 -0.9 -9.25 -1.5 -10.3 -3.65 -10.55 -5.95 -11.85 -4.0 -14.1 -4.25 L-14.15 -4.25 -14.0 -3.7 -13.95 -3.3 -12.8 -2.4 Q-14.55 -0.3 -14.2 2.45 L-10.95 3.0 -7.6 3.25 -7.25 3.6 Q-7.1 7.65 -4.3 10.95 L-4.15 11.25 Q-1.1 9.3 1.85 7.05 L2.55 6.95 3.85 7.65 Q6.2 10.5 8.9 12.85 L11.45 7.65 Q11.95 7.25 12.05 6.6 L12.75 6.5 13.1 7.2 16.8 9.5 Q17.1 10.6 18.05 11.0 L18.5 10.45 18.85 9.95 Q20.1 7.9 19.7 5.2 L19.65 5.0 20.95 5.0 Q22.7 6.1 24.75 6.6 L25.25 7.3 25.35 7.4 Q26.25 3.55 23.95 0.6 L23.5 -0.1 Q26.15 -1.35 28.9 0.15 27.45 -3.1 25.25 -5.9 L25.2 -6.1 24.2 -6.45 23.85 -6.8 23.4 -6.45 23.25 -6.2 16.55 -7.45 Q18.85 -6.45 20.95 -4.95 21.95 -4.2 22.3 -3.0 L22.25 -2.85 22.0 -2.7 Q19.6 -6.1 15.3 -7.0 L14.4 -7.2 16.9 -5.5 Q18.2 -4.55 19.0 -3.15 L19.35 -2.6 19.3 -2.4 19.35 -2.25 19.35 -1.85 19.45 -1.7 19.55 -1.5 19.65 -1.35 19.6 -1.15 19.55 -0.55 19.35 0.05 19.05 0.1 18.95 -0.1 18.9 -0.65 18.95 -1.05 Q17.15 -5.8 12.0 -7.35 L9.2 -8.1 8.6 -8.15 8.5 -7.95 9.9 -7.3 11.2 -6.5 Q14.95 -3.95 14.85 0.65 L14.85 1.2 14.8 1.35 14.6 1.5 14.1 -0.15 13.9 -1.85 Q12.7 -5.45 8.9 -6.3 7.85 -6.55 7.1 -7.3 L6.75 -7.25 Q6.1 -7.05 5.7 -7.45 L5.6 -7.65 5.6 -7.85 5.6 -7.95 M-14.8 -9.1 L-14.9 -8.95 -15.05 -8.75 -15.05 -8.7 -14.85 -7.2 -14.65 -7.15 Q-14.3 -6.6 -14.1 -5.9 L-14.05 -5.75 Q-13.7 -5.45 -13.65 -5.05 -12.1 -5.5 -11.15 -6.9 L-11.05 -8.75 -11.1 -8.9 -11.25 -9.05 -14.4 -9.3 -14.45 -9.25 -14.65 -9.15 -14.8 -9.1 M-2.65 -6.9 L-1.7 -7.6 -1.6 -7.95 -1.35 -8.3 -1.0 -8.4 Q-5.3 -8.55 -9.65 -8.3 L-9.45 -5.75 Q-9.3 -4.2 -8.75 -2.65 L-8.6 -2.7 -8.3 -3.0 -7.85 -3.7 Q-6.55 -4.8 -4.9 -3.9 L-3.8 -3.45 -3.8 -3.8 -3.75 -4.1 Q-3.2 -5.1 -3.35 -6.2 L-3.0 -6.55 -2.65 -6.9" fill="#000000" fill-rule="evenodd" stroke="none"/>
    <path d="M0.95 -64.2 L1.5 -65.2 1.65 -65.55 2.25 -65.85 Q7.1 -67.85 8.7 -63.7 L8.05 -62.7 7.45 -61.45 6.5 -61.5 2.75 -60.9 2.1 -61.1 2.1 -61.15 1.5 -62.2 0.75 -63.15 0.6 -63.45 0.95 -64.2 M10.05 -38.1 Q12.4 -34.45 13.9 -30.15 L13.95 -29.8 14.0 -28.75 Q14.5 -28.1 15.25 -27.85 L15.55 -27.95 15.15 -27.15 Q15.8 -26.3 16.45 -27.25 L17.15 -28.6 Q22.95 -36.45 25.9 -45.8 L26.1 -42.5 Q26.25 -29.8 25.3 -17.4 L24.75 -17.55 24.7 -17.9 24.5 -19.65 24.25 -19.95 23.85 -20.35 23.6 -20.35 23.25 -20.3 23.15 -20.2 23.05 -19.95 Q22.6 -18.55 21.75 -17.2 L20.7 -17.1 18.3 -19.85 17.45 -19.4 17.35 -19.05 15.95 -16.3 15.5 -16.15 15.15 -16.15 Q13.7 -17.45 12.75 -18.95 L11.9 -18.5 11.85 -16.4 11.85 -14.35 Q11.95 -12.2 12.55 -10.1 L12.05 -10.15 11.65 -10.15 11.6 -10.15 10.3 -10.15 10.4 -15.75 Q10.45 -27.0 10.05 -38.1 M3.0 -19.7 Q2.35 -20.25 1.65 -20.2 L1.05 -17.8 0.6 -17.75 0.5 -17.8 Q-0.4 -19.9 -2.65 -19.75 L-3.2 -19.15 -3.2 -18.85 Q-3.1 -17.6 -3.9 -17.1 -5.3 -18.8 -7.25 -18.8 L-7.35 -18.6 -7.4 -17.9 Q-7.75 -17.3 -8.3 -16.85 -9.85 -17.2 -10.6 -16.3 L-10.65 -15.95 -10.55 -14.35 -10.4 -10.75 -11.95 -10.7 -13.75 -10.95 -13.9 -11.0 -14.6 -13.1 -14.7 -14.35 -15.2 -18.45 Q-16.1 -25.75 -16.35 -33.1 -16.6 -39.4 -17.15 -45.65 L-15.85 -42.55 Q-12.55 -36.1 -11.3 -29.0 L-11.1 -28.65 -10.5 -27.25 -9.6 -27.75 Q-9.6 -29.15 -9.2 -30.5 -6.4 -40.2 0.15 -48.2 L0.6 -48.2 0.95 -47.85 1.9 -47.1 1.45 -47.45 Q2.9 -35.3 2.95 -22.95 L3.0 -19.7" fill="#ffcc00" fill-rule="evenodd" stroke="none"/>
    <path d="M5.6 -7.95 L5.6 -7.85 5.6 -7.65 5.7 -7.45 Q6.1 -7.05 6.75 -7.25 L7.1 -7.3 Q7.85 -6.55 8.9 -6.3 12.7 -5.45 13.9 -1.85 L14.1 -0.15 14.6 1.5 14.8 1.35 14.85 1.2 14.85 0.65 Q14.95 -3.95 11.2 -6.5 L9.9 -7.3 8.5 -7.95 8.6 -8.15 9.2 -8.1 12.0 -7.35 Q17.15 -5.8 18.95 -1.05 L18.9 -0.65 18.95 -0.1 19.05 0.1 19.35 0.05 19.55 -0.55 19.6 -1.15 19.65 -1.35 19.55 -1.5 19.45 -1.7 19.35 -1.85 19.35 -2.25 19.3 -2.4 19.35 -2.6 19.0 -3.15 Q18.2 -4.55 16.9 -5.5 L14.4 -7.2 15.3 -7.0 Q19.6 -6.1 22.0 -2.7 L22.25 -2.85 22.3 -3.0 Q21.95 -4.2 20.95 -4.95 18.85 -6.45 16.55 -7.45 L23.25 -6.2 23.4 -6.45 23.85 -6.8 24.2 -6.45 25.2 -6.1 25.25 -5.9 Q27.45 -3.1 28.9 0.15 26.15 -1.35 23.5 -0.1 L23.95 0.6 Q26.25 3.55 25.35 7.4 L25.25 7.3 24.75 6.6 Q22.7 6.1 20.95 5.0 L19.65 5.0 19.7 5.2 Q20.1 7.9 18.85 9.95 L18.5 10.45 18.05 11.0 Q17.1 10.6 16.8 9.5 L13.1 7.2 12.75 6.5 12.05 6.6 Q11.95 7.25 11.45 7.65 L8.9 12.85 Q6.2 10.5 3.85 7.65 L2.55 6.95 1.85 7.05 Q-1.1 9.3 -4.15 11.25 L-4.3 10.95 Q-7.1 7.65 -7.25 3.6 L-7.6 3.25 -10.95 3.0 -14.2 2.45 Q-14.55 -0.3 -12.8 -2.4 L-13.95 -3.3 -14.0 -3.7 -14.15 -4.25 -14.1 -4.25 Q-11.85 -4.0 -10.55 -5.95 -10.3 -3.65 -9.25 -1.5 -9.55 -0.9 -9.1 -0.45 L-8.1 -0.9 -7.05 -3.0 Q-5.3 -3.2 -4.05 -1.85 L-3.0 -1.85 -2.65 -2.2 -2.65 -2.5 -2.65 -3.9 -2.2 -4.6 -2.2 -4.95 -2.2 -5.3 Q0.1 -7.6 3.2 -8.15 L5.6 -7.95 M1.35 -16.95 L1.65 -17.3 1.85 -18.4 Q2.1 -19.15 2.45 -19.4 3.3 -17.1 5.45 -17.2 L5.45 -17.45 5.55 -17.8 5.9 -18.15 7.3 -19.5 Q7.95 -17.2 8.05 -14.35 L8.0 -12.1 Q8.0 -11.75 7.8 -11.75 -0.55 -10.05 -9.1 -11.65 L-9.2 -12.35 -9.5 -14.35 -9.6 -15.45 -7.4 -16.15 -7.25 -16.5 Q-6.8 -17.3 -6.1 -17.55 L-4.05 -15.8 -2.9 -15.95 -2.65 -16.6 Q-2.15 -17.6 -2.3 -18.7 L-1.7 -18.75 -1.5 -18.7 -1.2 -18.45 0.15 -16.75 1.3 -16.75 1.35 -16.95 M13.05 -14.35 L13.2 -16.5 14.95 -14.8 16.55 -14.8 16.65 -15.0 18.15 -17.8 18.3 -17.8 20.5 -15.1 21.65 -15.1 21.85 -15.35 23.5 -17.45 23.6 -17.1 23.95 -16.4 25.1 -15.7 25.7 -15.7 26.6 -15.8 26.55 -14.45 26.55 -14.35 Q26.4 -12.45 25.9 -10.6 21.85 -9.1 17.9 -9.65 L17.7 -9.75 17.1 -9.8 Q15.1 -10.2 13.2 -11.1 12.95 -11.9 12.95 -12.8 L13.05 -14.35" fill="#ffffff" fill-rule="evenodd" stroke="none"/>
    <path d="M-14.8 -9.1 L-14.65 -9.15 -14.45 -9.25 -14.4 -9.3 -11.25 -9.05 -11.1 -8.9 -11.05 -8.75 -11.15 -6.9 Q-12.1 -5.5 -13.65 -5.05 -13.7 -5.45 -14.05 -5.75 L-14.1 -5.9 Q-14.3 -6.6 -14.65 -7.15 L-14.85 -7.2 -15.05 -8.7 -15.05 -8.75 -14.9 -8.95 -14.8 -9.1 M-2.65 -6.9 L-3.0 -6.55 -3.35 -6.2 Q-3.2 -5.1 -3.75 -4.1 L-3.8 -3.8 -3.8 -3.45 -4.9 -3.9 Q-6.55 -4.8 -7.85 -3.7 L-8.3 -3.0 -8.6 -2.7 -8.75 -2.65 Q-9.3 -4.2 -9.45 -5.75 L-9.65 -8.3 Q-5.3 -8.55 -1.0 -8.4 L-1.35 -8.3 -1.6 -7.95 -1.7 -7.6 -2.65 -6.9" fill="#ffcc99" fill-rule="evenodd" stroke="none"/>
    <path d="M0.9 -50.2 L0.15 -50.05 -1.75 -48.1 Q-7.35 -40.75 -10.4 -32.1 -10.8 -33.95 -11.5 -35.65 L-16.7 -48.1 -16.15 -48.2 Q-5.75 -60.75 10.7 -59.05 20.35 -58.05 26.05 -50.6 L26.0 -50.6 Q25.7 -50.55 25.55 -50.3 L25.65 -49.4 23.85 -44.15 Q22.75 -41.35 21.25 -38.75 L16.0 -28.8 15.8 -29.2 Q15.5 -29.85 15.6 -30.6 L15.4 -30.95 14.6 -32.0 Q13.45 -37.0 10.0 -40.85 L1.5 -50.05 0.95 -50.25 0.9 -50.2" fill="#702cb4" fill-rule="evenodd" stroke="none"/>
    <path d="M10.05 -38.1 Q10.45 -27.0 10.4 -15.75 L10.3 -10.15 9.3 -10.1 9.6 -10.5 9.6 -10.85 Q9.65 -12.7 8.7 -14.2 L8.7 -14.35 8.7 -14.55 8.1 -21.15 7.9 -21.15 7.55 -21.15 4.65 -18.15 3.85 -18.5 3.0 -19.7 2.95 -22.95 Q2.9 -35.3 1.45 -47.45 L1.9 -47.1 7.85 -41.2 8.0 -40.95 8.2 -40.7 8.4 -40.45 9.75 -38.55 9.9 -38.35 10.05 -38.1" fill="#fed55a" fill-rule="evenodd" stroke="none"/>
  </g>
</svg>
