<?xml version="1.0" encoding="UTF-8" standalone="no"?>
<svg xmlns:xlink="http://www.w3.org/1999/xlink" height="62.0px" width="48.95px" xmlns="http://www.w3.org/2000/svg">
  <g transform="matrix(1.0, 0.0, 0.0, 1.0, 20.65, 48.5)">
    <path d="M27.75 -31.15 L28.1 -30.75 Q29.35 -17.5 21.85 -6.65 L21.8 -6.55 20.25 -3.15 20.5 -3.15 20.75 -3.15 21.5 -2.75 22.1 -2.4 Q22.4 -0.85 23.55 0.3 L24.25 1.0 24.15 1.35 23.75 2.1 Q21.65 2.5 19.75 3.35 19.6 4.4 20.05 5.35 L20.25 6.35 20.05 6.7 19.75 7.1 13.6 7.1 13.35 6.85 13.25 6.75 12.6 6.85 11.9 11.75 Q11.85 12.55 11.35 13.1 L11.0 13.2 10.1 13.1 5.75 8.25 Q2.8 9.55 0.75 12.75 L0.0 13.5 -1.4 12.5 -1.65 12.1 -1.65 11.75 -1.65 11.35 -3.6 8.05 -4.15 7.25 Q-7.9 7.6 -10.25 10.6 L-10.5 10.7 -11.4 10.6 -11.75 10.25 -11.7 9.9 -11.25 9.1 -11.25 6.5 -11.25 5.35 -17.25 4.85 Q-17.1 2.35 -16.45 -0.4 L-15.8 -1.85 Q-17.65 -1.85 -19.4 -2.5 -20.95 -4.25 -20.6 -6.65 -20.45 -7.9 -19.5 -8.75 L-19.4 -8.85 -19.05 -8.95 -19.0 -9.0 -18.05 -8.8 Q-21.15 -22.65 -16.6 -36.4 L-16.3 -37.05 -16.0 -37.4 -15.9 -37.45 -15.25 -37.5 -15.15 -37.35 Q-10.75 -43.85 -3.35 -46.95 -0.9 -47.95 1.5 -48.5 17.4 -48.0 25.7 -34.5 L27.35 -31.0 27.5 -31.1 27.75 -31.15 M24.9 -26.85 L26.25 -29.1 26.5 -29.4 26.6 -29.45 26.75 -29.45 26.75 -30.25 26.75 -30.5 Q24.55 -35.0 20.7 -38.75 L14.0 -44.25 Q4.75 -47.6 -3.85 -44.3 -6.05 -43.45 -7.95 -42.05 -12.1 -38.95 -15.25 -35.4 L-15.25 -35.75 -15.2 -36.2 -15.75 -34.4 Q-15.4 -24.8 -12.75 -15.65 L-12.65 -15.4 -2.25 -27.3 -1.0 -28.25 -0.35 -27.6 -0.25 -27.65 Q8.9 -22.65 11.85 -12.15 12.5 -9.8 13.45 -7.5 L13.55 -7.25 Q20.45 -16.0 24.5 -26.4 L24.9 -26.85 M26.25 -26.25 Q22.3 -15.35 14.35 -6.4 L14.0 -6.0 13.8 -5.65 13.45 -5.15 13.65 -5.1 Q16.5 -4.4 19.35 -5.15 L21.0 -7.4 21.5 -7.5 21.55 -7.5 Q26.0 -16.8 26.65 -27.1 L26.2 -26.35 26.25 -26.25 M11.85 -40.75 Q13.9 -40.15 15.05 -38.15 L16.25 -36.15 Q16.05 -33.75 14.35 -32.0 13.05 -30.75 11.35 -29.9 2.75 -29.65 2.35 -37.8 2.25 -39.55 3.8 -40.8 5.5 -42.2 7.5 -42.65 L9.75 -42.5 10.25 -42.15 11.85 -40.75 M6.85 -41.15 Q4.55 -40.3 3.35 -38.15 L3.1 -37.75 Q3.95 -30.9 11.15 -32.0 12.9 -32.25 13.8 -33.8 14.35 -34.65 14.6 -35.65 12.8 -39.15 9.75 -41.15 8.45 -41.8 6.85 -41.15 M3.25 -5.25 L3.35 -4.9 3.35 -4.5 2.7 -3.3 2.35 -2.65 0.2 -1.2 3.05 -1.4 3.8 -1.5 3.75 -1.75 4.15 -2.05 4.75 -2.15 5.1 -1.75 5.25 -1.05 5.45 -0.9 Q5.1 -3.2 5.25 -5.65 L5.35 -6.4 12.4 -5.4 Q9.6 -15.05 5.5 -20.15 1.35 -25.25 0.3 -25.9 L-0.95 -26.7 Q-7.1 -19.85 -12.75 -12.5 L-13.65 -12.9 Q-13.95 -13.65 -13.6 -14.4 L-13.5 -14.75 Q-15.75 -21.4 -16.3 -28.35 L-16.45 -31.55 Q-19.1 -20.1 -16.55 -8.3 -15.35 -7.7 -14.4 -6.75 L-14.0 -6.4 -13.4 -6.15 -13.3 -5.5 Q-12.6 -6.2 -12.7 -7.25 L-12.75 -8.0 -12.75 -9.15 -12.0 -9.7 -11.5 -9.9 Q-5.25 -8.55 0.95 -6.2 L1.6 -5.9 2.0 -5.8 2.5 -5.9 3.1 -5.65 3.25 -5.25 M5.35 -0.65 L5.6 0.1 Q7.75 1.1 7.9 3.75 L7.85 4.1 7.5 4.25 7.0 4.1 Q6.8 1.9 5.35 0.85 L5.0 1.1 4.35 0.85 4.25 0.3 3.25 0.0 1.75 0.05 Q3.25 1.35 3.4 3.75 L3.35 4.1 3.0 4.25 2.5 4.1 Q2.2 1.2 -0.1 -0.15 L-1.35 -0.5 Q-6.25 0.2 -10.5 -1.95 L-13.1 -2.9 -13.5 -3.15 -13.45 -4.25 -13.7 -4.4 -13.75 -3.0 -14.3 -2.3 -14.75 -1.9 -15.55 -1.85 -15.95 1.9 -16.25 3.35 -10.5 3.75 -9.9 4.1 Q-9.7 5.4 -9.75 6.75 L-9.75 8.1 Q-6.95 6.55 -3.75 6.0 -1.9 7.7 -0.8 10.1 L-0.4 10.85 -0.4 11.25 -0.35 11.6 -0.15 11.85 Q1.9 9.25 4.7 6.85 L5.1 6.5 5.75 6.5 Q7.95 8.8 10.5 10.75 L11.1 7.85 11.35 6.35 11.65 6.05 12.5 5.35 18.6 5.5 Q18.05 4.45 18.1 3.25 18.15 2.65 18.35 2.1 L21.85 0.6 19.9 -2.05 19.85 -1.9 19.1 -0.9 19.0 -0.75 Q12.25 1.85 5.6 0.0 L5.5 -0.7 5.35 -0.65 M6.75 -2.4 L6.75 -2.0 Q12.2 -0.65 18.0 -2.65 16.0 -3.3 13.35 -4.5 9.7 -4.05 6.75 -5.0 L6.75 -2.4 M-17.75 -7.55 L-19.0 -7.75 -19.25 -7.4 -19.5 -7.0 Q-19.6 -5.65 -19.35 -4.4 L-19.25 -4.0 Q-17.65 -3.05 -15.75 -3.4 L-15.4 -3.75 Q-15.2 -4.7 -15.15 -5.65 L-15.15 -6.0 -16.95 -7.3 -17.4 -7.15 -17.75 -7.5 -17.75 -7.55 M-11.65 -5.15 Q-7.15 -2.05 -1.15 -2.75 L1.1 -4.25 Q-4.45 -6.9 -11.25 -7.75 -11.2 -6.6 -11.45 -5.55 L-11.65 -5.15" fill="#000000" fill-rule="evenodd" stroke="none"/>
    <path d="M26.25 -26.25 L26.2 -26.35 26.65 -27.1 Q26.0 -16.8 21.55 -7.5 L21.5 -7.5 21.0 -7.4 19.35 -5.15 Q16.5 -4.4 13.65 -5.1 L13.45 -5.15 13.8 -5.65 14.0 -6.0 14.35 -6.4 Q22.3 -15.35 26.25 -26.25 M3.25 -5.25 L3.1 -5.65 2.5 -5.9 2.0 -5.8 1.6 -5.9 0.95 -6.2 Q-5.25 -8.55 -11.5 -9.9 L-12.0 -9.7 -12.75 -9.15 -12.75 -8.0 -12.7 -7.25 Q-12.6 -6.2 -13.3 -5.5 L-13.4 -6.15 -14.0 -6.4 -14.4 -6.75 Q-15.35 -7.7 -16.55 -8.3 -19.1 -20.1 -16.45 -31.55 L-16.3 -28.35 Q-15.75 -21.4 -13.5 -14.75 L-13.6 -14.4 Q-13.95 -13.65 -13.65 -12.9 L-12.75 -12.5 Q-7.1 -19.85 -0.95 -26.7 L0.3 -25.9 Q1.35 -25.25 5.5 -20.15 9.6 -15.05 12.4 -5.4 L5.35 -6.4 5.25 -5.65 Q5.1 -3.2 5.45 -0.9 L5.25 -1.05 5.1 -1.75 4.75 -2.15 4.15 -2.05 3.75 -1.75 3.8 -1.5 3.05 -1.4 0.2 -1.2 2.35 -2.65 2.7 -3.3 3.35 -4.5 3.35 -4.9 3.25 -5.25 M6.85 -41.15 Q8.45 -41.8 9.75 -41.15 12.8 -39.15 14.6 -35.65 14.35 -34.65 13.8 -33.8 12.9 -32.25 11.15 -32.0 3.95 -30.9 3.1 -37.75 L3.35 -38.15 Q4.55 -40.3 6.85 -41.15" fill="#ffcc00" fill-rule="evenodd" stroke="none"/>
    <path d="M6.75 -2.4 L6.75 -5.0 Q9.7 -4.05 13.35 -4.5 16.0 -3.3 18.0 -2.65 12.2 -0.65 6.75 -2.0 L6.75 -2.4 M5.35 -0.65 L5.5 -0.7 5.6 0.0 Q12.25 1.85 19.0 -0.75 L19.1 -0.9 19.85 -1.9 19.9 -2.05 21.85 0.6 18.35 2.1 Q18.15 2.65 18.1 3.25 18.05 4.45 18.6 5.5 L12.5 5.35 11.65 6.05 11.35 6.35 11.1 7.85 10.5 10.75 Q7.95 8.8 5.75 6.5 L5.1 6.5 4.7 6.85 Q1.9 9.25 -0.15 11.85 L-0.35 11.6 -0.4 11.25 -0.4 10.85 -0.8 10.1 Q-1.9 7.7 -3.75 6.0 -6.95 6.55 -9.75 8.1 L-9.75 6.75 Q-9.7 5.4 -9.9 4.1 L-10.5 3.75 -16.25 3.35 -15.95 1.9 -15.55 -1.85 -14.75 -1.9 -14.3 -2.3 -13.75 -3.0 -13.7 -4.4 -13.45 -4.25 -13.5 -3.15 -13.1 -2.9 -10.5 -1.95 Q-6.25 0.2 -1.35 -0.5 L-0.1 -0.15 Q2.2 1.2 2.5 4.1 L3.0 4.25 3.35 4.1 3.4 3.75 Q3.25 1.35 1.75 0.05 L3.25 0.0 4.25 0.3 4.35 0.85 5.0 1.1 5.35 0.85 Q6.8 1.9 7.0 4.1 L7.5 4.25 7.85 4.1 7.9 3.75 Q7.75 1.1 5.6 0.1 L5.35 -0.65 M-11.65 -5.15 L-11.45 -5.55 Q-11.2 -6.6 -11.25 -7.75 -4.45 -6.9 1.1 -4.25 L-1.15 -2.75 Q-7.15 -2.05 -11.65 -5.15" fill="#ffffff" fill-rule="evenodd" stroke="none"/>
    <path d="M-17.75 -7.55 L-17.75 -7.5 -17.4 -7.15 -16.95 -7.3 -15.15 -6.0 -15.15 -5.65 Q-15.2 -4.7 -15.4 -3.75 L-15.75 -3.4 Q-17.65 -3.05 -19.25 -4.0 L-19.35 -4.4 Q-19.6 -5.65 -19.5 -7.0 L-19.25 -7.4 -19.0 -7.75 -17.75 -7.55" fill="#ffcc99" fill-rule="evenodd" stroke="none"/>
    <path d="M24.9 -26.85 L24.5 -26.4 Q20.45 -16.0 13.55 -7.25 L13.45 -7.5 Q12.5 -9.8 11.85 -12.15 8.9 -22.65 -0.25 -27.65 L-0.35 -27.6 -1.0 -28.25 -2.25 -27.3 -12.65 -15.4 -12.75 -15.65 Q-15.4 -24.8 -15.75 -34.4 L-15.2 -36.2 -15.25 -35.75 -15.25 -35.4 Q-12.1 -38.95 -7.95 -42.05 -6.05 -43.45 -3.85 -44.3 4.75 -47.6 14.0 -44.25 L20.7 -38.75 Q24.55 -35.0 26.75 -30.5 L26.75 -30.25 26.75 -29.45 26.6 -29.45 26.5 -29.4 26.25 -29.1 24.9 -26.85 M11.85 -40.75 L10.25 -42.15 9.75 -42.5 7.5 -42.65 Q5.5 -42.2 3.8 -40.8 2.25 -39.55 2.35 -37.8 2.75 -29.65 11.35 -29.9 13.05 -30.75 14.35 -32.0 16.05 -33.75 16.25 -36.15 L15.05 -38.15 Q13.9 -40.15 11.85 -40.75" fill="#702cb4" fill-rule="evenodd" stroke="none"/>
  </g>
</svg>
