<?xml version="1.0" encoding="UTF-8" standalone="no"?>
<svg xmlns:xlink="http://www.w3.org/1999/xlink" height="80.9px" width="50.9px" xmlns="http://www.w3.org/2000/svg">
  <g transform="matrix(1.0, 0.0, 0.0, 1.0, 24.8, 49.2)">
    <path d="M20.55 -33.5 Q17.95 -36.45 14.65 -38.4 9.55 -41.35 2.8 -41.95 L0.8 -42.05 0.8 -42.1 0.6 -42.1 0.45 -42.1 -1.55 -41.95 -6.3 -41.2 Q-10.15 -40.25 -13.35 -38.4 -16.7 -36.45 -19.25 -33.5 L-19.3 -33.5 -19.25 -33.5 Q-18.9 -33.45 -18.7 -33.2 L-18.8 -32.7 -19.15 -32.15 -19.2 -27.55 -19.35 -25.4 -19.4 -23.05 Q-14.65 -27.55 -9.55 -31.8 L-9.5 -31.9 -8.95 -31.55 -8.75 -31.25 -9.1 -30.7 Q-3.65 -24.05 2.35 -17.65 8.1 -23.95 12.1 -31.5 L12.35 -32.15 13.0 -32.35 13.5 -32.5 20.55 -24.8 20.8 -30.8 20.5 -31.6 20.1 -32.4 20.0 -33.2 Q20.15 -33.45 20.5 -33.5 L20.55 -33.5 M22.6 -33.65 L22.65 -33.25 22.75 -32.95 22.65 -32.85 22.85 -29.75 22.95 -27.75 Q23.1 -21.45 22.55 -15.15 L22.5 -13.9 22.5 -13.3 22.5 -12.3 22.5 -9.2 22.6 -9.15 22.3 -3.95 22.2 0.8 21.65 7.6 21.6 8.0 20.8 9.15 20.45 10.0 Q23.5 13.4 25.65 17.4 26.2 18.35 26.05 19.45 L25.85 19.7 25.2 20.0 Q23.65 18.95 21.8 18.35 L19.9 18.05 Q21.4 20.25 21.15 22.9 L20.85 26.0 20.4 26.15 19.8 25.95 Q18.9 25.45 18.55 24.65 L15.9 23.05 Q15.1 22.65 14.55 22.7 L14.55 22.75 Q15.5 25.8 13.2 28.55 12.6 29.25 12.15 30.1 L11.85 30.25 11.1 30.2 10.7 29.9 10.45 29.75 Q8.55 27.2 5.3 25.55 L4.95 25.3 2.75 29.8 Q2.1 30.95 0.8 31.65 L0.8 31.7 0.65 31.7 0.45 31.7 0.45 31.65 Q-0.85 30.95 -1.5 29.8 L-3.7 25.3 -4.05 25.55 -6.3 26.95 Q-8.0 28.15 -9.2 29.75 L-9.4 29.9 -9.8 30.2 -10.6 30.25 -10.85 30.1 -11.9 28.55 Q-14.25 25.8 -13.3 22.75 L-13.25 22.7 Q-13.85 22.65 -14.65 23.05 L-17.3 24.65 Q-17.65 25.45 -18.5 25.95 L-19.15 26.15 -19.55 26.0 -19.9 22.9 Q-20.15 20.25 -18.6 18.05 L-20.5 18.35 Q-22.4 18.95 -23.95 20.0 L-24.6 19.7 -24.75 19.45 Q-24.95 18.35 -24.4 17.4 -22.15 13.25 -18.9 9.7 L-18.7 9.7 Q-19.95 7.3 -20.25 4.7 L-20.55 0.8 -21.1 -7.7 -21.25 -7.75 -21.2 -12.3 -21.2 -13.3 -21.25 -13.9 -21.3 -18.3 -21.35 -19.35 -21.65 -26.95 Q-21.8 -29.85 -21.1 -32.55 L-21.2 -32.65 -21.45 -32.95 Q-20.85 -35.05 -18.9 -36.55 -16.3 -38.65 -13.35 -40.15 -10.0 -41.95 -6.3 -42.95 L-2.3 -43.85 -2.6 -44.15 -3.25 -44.9 -3.25 -45.25 -3.25 -46.0 -3.25 -47.15 -2.05 -47.85 0.0 -49.1 Q5.2 -49.75 6.3 -45.5 L6.35 -45.15 6.2 -44.8 5.85 -44.4 5.85 -44.0 5.85 -43.65 5.85 -43.4 Q10.5 -42.35 14.65 -40.15 17.55 -38.65 20.2 -36.55 21.65 -35.4 22.4 -33.85 L22.6 -33.65 M4.3 -47.0 L-1.3 -46.85 -1.8 -46.5 -1.9 -46.1 -1.95 -45.75 -1.95 -45.4 -1.65 -45.0 -1.0 -44.2 -0.85 -44.05 0.45 -44.2 0.45 -44.25 0.65 -44.2 0.8 -44.25 0.8 -44.2 4.6 -43.65 4.65 -44.75 4.8 -45.5 4.8 -45.85 4.65 -46.3 4.5 -46.6 4.3 -47.0 M18.6 9.3 L19.75 4.8 20.45 0.8 20.85 -4.65 Q20.9 -6.2 20.2 -7.25 L20.3 -8.4 20.25 -8.4 Q20.2 -15.25 20.45 -22.15 L20.0 -22.0 19.4 -22.3 19.0 -22.65 19.0 -23.0 19.0 -23.4 18.35 -24.5 18.1 -24.9 Q15.4 -26.9 13.5 -29.75 L4.0 -16.55 3.75 -15.9 3.45 -15.55 3.0 -15.25 2.1 -15.4 0.9 -16.7 -4.85 -23.4 -9.75 -29.8 Q-13.25 -25.0 -18.55 -21.7 -18.75 -21.55 -19.0 -21.5 L-19.4 -21.6 Q-19.4 -14.0 -18.9 -6.45 L-19.15 -6.8 -19.1 -6.45 -18.7 -0.65 -18.4 -0.9 -18.25 0.8 -18.0 2.85 -17.8 8.5 -17.8 8.55 -17.5 8.1 Q-16.5 10.65 -15.75 13.4 L-15.25 14.6 Q-9.9 13.05 -4.1 12.95 L-1.05 13.0 2.5 13.15 15.6 13.35 18.5 9.65 18.55 9.45 18.65 9.45 18.7 9.35 18.7 9.25 18.6 9.3 M-17.5 10.75 L-18.35 11.0 -18.4 11.2 Q-20.95 14.0 -22.6 17.25 -19.45 15.75 -16.4 17.0 L-16.4 17.05 -16.9 17.7 Q-19.55 20.65 -18.5 24.5 L-18.4 24.4 -17.8 23.7 Q-15.45 23.2 -13.4 22.1 L-11.9 22.1 -11.95 22.3 Q-12.45 25.0 -10.95 27.05 L-10.6 27.55 -10.05 28.1 Q-8.95 27.7 -8.6 26.6 L-6.3 25.3 -4.35 24.3 -3.9 23.6 -3.1 23.7 Q-3.0 24.35 -2.4 24.75 -1.25 27.35 0.45 29.85 L0.55 29.95 0.65 29.9 0.8 29.75 0.8 29.85 3.7 24.75 Q4.25 24.35 4.4 23.7 L5.2 23.6 5.6 24.3 9.9 26.6 Q10.2 27.7 11.35 28.1 L11.85 27.55 12.2 27.05 Q13.7 25.0 13.25 22.3 L13.2 22.1 14.7 22.1 Q16.7 23.2 19.1 23.7 L19.65 24.4 19.8 24.5 Q20.8 20.65 18.15 17.7 L17.65 17.0 Q20.7 15.75 23.9 17.25 22.2 14.0 19.7 11.25 L17.75 13.5 17.35 13.85 17.3 14.6 17.1 15.0 -2.5 15.0 -14.0 15.5 -15.0 16.1 -16.4 16.0 -17.15 12.15 -17.5 10.4 -17.65 9.6 -17.5 10.75" fill="#000000" fill-rule="evenodd" stroke="none"/>
    <path d="M0.9 -16.7 L2.1 -15.4 3.0 -15.25 3.45 -15.55 3.75 -15.9 4.0 -16.55 13.5 -29.75 Q15.4 -26.9 18.1 -24.9 L18.35 -24.5 19.0 -23.4 19.0 -23.0 19.0 -22.65 19.4 -22.3 20.0 -22.0 20.45 -22.15 Q20.2 -15.25 20.25 -8.4 L20.3 -8.4 20.2 -7.25 Q20.9 -6.2 20.85 -4.65 L20.45 0.8 19.75 4.8 18.6 9.3 18.55 9.45 18.5 9.65 15.6 13.35 2.5 13.15 Q2.4 4.9 1.95 -3.25 1.65 -9.65 1.5 -16.0 L0.9 -16.7 M4.3 -47.0 L4.5 -46.6 4.65 -46.3 4.8 -45.85 4.8 -45.5 4.65 -44.75 4.6 -43.65 0.8 -44.2 0.8 -44.25 0.65 -44.2 0.45 -44.25 0.45 -44.2 -0.85 -44.05 -1.0 -44.2 -1.65 -45.0 -1.95 -45.4 -1.95 -45.75 -1.9 -46.1 -1.8 -46.5 -1.3 -46.85 4.3 -47.0 M-17.5 10.75 L-17.65 9.6 -17.5 10.4 -17.15 12.15 -17.5 10.75 M-4.85 -23.4 L-4.7 -15.7 Q-4.15 -1.65 -4.1 12.4 L-4.1 12.95 Q-9.9 13.05 -15.25 14.6 L-15.75 13.4 Q-16.5 10.65 -17.5 8.1 L-17.8 8.55 -17.8 8.5 -18.0 2.85 -18.25 0.8 -18.4 -0.9 -18.7 -0.65 -19.1 -6.45 -18.9 -6.45 Q-19.4 -14.0 -19.4 -21.6 L-19.0 -21.5 Q-18.75 -21.55 -18.55 -21.7 -13.25 -25.0 -9.75 -29.8 L-4.85 -23.4" fill="#ffcc00" fill-rule="evenodd" stroke="none"/>
    <path d="M-17.15 12.15 L-16.4 16.0 -15.0 16.1 -14.0 15.5 -2.5 15.0 17.1 15.0 17.3 14.6 17.35 13.85 17.75 13.5 19.7 11.25 Q22.2 14.0 23.9 17.25 20.7 15.75 17.65 17.0 L18.15 17.7 Q20.8 20.65 19.8 24.5 L19.65 24.4 19.1 23.7 Q16.7 23.2 14.7 22.1 L13.2 22.1 13.25 22.3 Q13.7 25.0 12.2 27.05 L11.85 27.55 11.35 28.1 Q10.2 27.7 9.9 26.6 L5.6 24.3 5.2 23.6 4.4 23.7 Q4.25 24.35 3.7 24.75 L0.8 29.85 0.8 29.75 0.65 29.9 0.55 29.95 0.45 29.85 Q-1.25 27.35 -2.4 24.75 -3.0 24.35 -3.1 23.7 L-3.9 23.6 -4.35 24.3 -6.3 25.3 -8.6 26.6 Q-8.95 27.7 -10.05 28.1 L-10.6 27.55 -10.95 27.05 Q-12.45 25.0 -11.95 22.3 L-11.9 22.1 -13.4 22.1 Q-15.45 23.2 -17.8 23.7 L-18.4 24.4 -18.5 24.5 Q-19.55 20.65 -16.9 17.7 L-16.4 17.05 -16.4 17.0 Q-19.45 15.75 -22.6 17.25 -20.95 14.0 -18.4 11.2 L-18.35 11.0 -17.5 10.75 -17.15 12.15" fill="#ffffff" fill-rule="evenodd" stroke="none"/>
    <path d="M20.55 -33.5 L20.5 -33.5 Q20.15 -33.45 20.0 -33.2 L20.1 -32.4 20.5 -31.6 20.8 -30.8 20.55 -24.8 13.5 -32.5 13.0 -32.35 12.35 -32.15 12.1 -31.5 Q8.1 -23.95 2.35 -17.65 -3.65 -24.05 -9.1 -30.7 L-8.75 -31.25 -8.95 -31.55 -9.5 -31.9 -9.55 -31.8 Q-14.65 -27.55 -19.4 -23.05 L-19.35 -25.4 -19.2 -27.55 -19.15 -32.15 -18.8 -32.7 -18.7 -33.2 Q-18.9 -33.45 -19.25 -33.5 L-19.3 -33.5 -19.25 -33.5 Q-16.7 -36.45 -13.35 -38.4 -10.15 -40.25 -6.3 -41.2 L-1.55 -41.95 0.45 -42.1 0.6 -42.1 0.8 -42.1 0.8 -42.05 2.8 -41.95 Q9.55 -41.35 14.65 -38.4 17.95 -36.45 20.55 -33.5" fill="#702cb4" fill-rule="evenodd" stroke="none"/>
    <path d="M0.9 -16.7 L1.5 -16.0 Q1.65 -9.65 1.95 -3.25 2.4 4.9 2.5 13.15 L-1.05 13.0 -4.1 12.95 -4.1 12.4 Q-4.15 -1.65 -4.7 -15.7 L-4.85 -23.4 0.9 -16.7" fill="#fed55a" fill-rule="evenodd" stroke="none"/>
  </g>
</svg>
