<?xml version="1.0" encoding="UTF-8" standalone="no"?>
<svg xmlns:xlink="http://www.w3.org/1999/xlink" height="80.5px" width="48.7px" xmlns="http://www.w3.org/2000/svg">
  <g transform="matrix(1.0, 0.0, 0.0, 1.0, 19.5, 49.45)">
    <path d="M25.35 -32.95 L25.2 -32.85 Q25.9 -30.15 25.8 -27.25 25.55 -23.5 25.45 -19.65 L25.4 -18.6 25.35 -14.2 25.35 -13.6 25.35 -12.6 Q25.3 -10.35 25.4 -8.05 L25.2 -8.0 24.3 4.4 Q23.95 7.0 22.65 9.4 L22.85 9.4 Q26.35 12.95 28.75 17.1 29.3 18.05 29.15 19.15 L28.95 19.4 28.25 19.7 Q26.55 18.65 24.6 18.05 L22.55 17.75 Q24.15 19.95 23.9 22.6 L23.55 25.7 23.1 25.85 22.4 25.65 Q21.45 25.15 21.1 24.35 L18.25 22.75 16.75 22.4 16.8 22.45 Q17.8 25.5 15.3 28.25 L14.2 29.8 13.9 29.95 13.05 29.9 12.6 29.6 12.35 29.45 Q10.3 26.9 6.8 25.25 L6.45 25.0 4.1 29.5 4.0 29.65 4.0 30.25 3.95 30.6 3.0 30.7 2.5 31.05 2.5 30.75 Q-5.95 31.35 -10.1 24.6 L-11.0 22.95 -11.1 23.0 -11.6 23.55 -11.9 23.75 -12.9 23.6 -13.25 23.25 Q-14.6 19.65 -14.4 15.75 L-14.35 14.6 Q-15.05 14.15 -16.25 15.1 L-16.95 14.85 Q-17.75 10.8 -15.4 7.45 L-16.15 6.25 -16.35 4.8 Q-16.75 3.9 -16.65 2.85 L-16.65 1.35 -16.65 0.6 -16.85 0.25 -17.2 -0.15 Q-18.55 -6.55 -19.1 -13.25 -19.75 -22.0 -19.35 -30.9 L-18.8 -31.65 -18.3 -32.35 -17.75 -33.5 -17.75 -33.9 -9.65 -39.9 Q-5.95 -42.45 -2.25 -44.4 L-1.15 -44.35 Q-1.35 -46.6 0.4 -48.35 1.15 -49.1 2.0 -49.4 L2.5 -49.3 2.5 -49.45 Q6.85 -49.5 7.9 -45.8 L7.95 -45.45 7.8 -45.1 7.4 -44.7 7.4 -44.3 7.4 -43.95 7.4 -43.7 Q12.4 -42.65 16.85 -40.45 20.0 -38.95 22.85 -36.85 24.9 -35.35 25.6 -33.25 L25.35 -32.95 M22.65 -33.5 Q22.8 -33.75 23.2 -33.8 L23.25 -33.8 Q20.45 -36.75 16.85 -38.7 11.5 -41.6 4.35 -42.2 L2.5 -42.0 0.75 -42.2 -2.25 -42.4 Q-10.4 -38.0 -16.0 -31.6 L-17.0 -30.15 Q-12.95 -23.7 -7.4 -18.25 -3.25 -24.5 0.75 -31.1 L2.0 -33.0 2.1 -33.1 2.5 -33.15 2.5 -34.6 3.3 -33.75 3.65 -33.45 Q9.95 -26.1 14.35 -17.65 L16.85 -21.3 17.3 -21.95 20.55 -27.35 Q21.85 -30.0 22.75 -32.6 L22.65 -33.5 M22.8 -6.75 Q23.45 -16.15 23.35 -25.7 L23.05 -29.0 Q20.7 -23.0 16.85 -17.6 L16.85 -17.55 16.55 -17.1 15.4 -15.6 15.5 -15.45 15.2 -15.2 11.9 -19.55 6.45 -27.15 2.55 -31.75 2.5 -31.65 -6.0 -15.5 -6.15 -15.15 -7.0 -14.5 -17.5 -26.75 -17.5 -27.15 -17.5 -27.5 -17.7 -27.75 -17.75 -27.0 -17.75 -26.7 Q-17.45 -15.85 -15.75 -5.3 L-14.25 5.6 Q-12.55 7.0 -10.05 7.05 L-8.9 7.1 -8.9 5.75 Q-7.85 4.6 -6.4 3.9 L-6.0 3.75 Q-4.55 3.9 -3.45 4.8 L-3.25 5.1 -3.25 5.15 Q-2.0 5.95 -1.1 7.15 L2.1 7.1 2.5 7.2 2.5 7.1 2.5 6.65 2.75 6.65 2.8 6.65 3.3 6.65 3.45 6.65 3.8 6.7 3.9 6.7 3.8 6.2 3.45 5.1 Q2.9 2.8 3.1 0.4 L3.1 -0.3 3.15 -1.7 3.8 -1.95 4.2 -2.15 Q5.4 -0.65 7.2 0.65 L7.65 0.65 8.2 0.5 9.95 -2.25 10.05 -2.6 10.65 -2.85 11.15 -3.05 14.1 -0.3 15.45 -0.4 Q16.45 -1.75 17.05 -3.15 L17.15 -3.4 17.3 -3.5 17.75 -3.55 17.95 -3.55 18.05 -3.55 18.55 -3.15 18.85 -2.85 19.1 -1.1 19.15 -0.75 19.65 -0.65 19.85 -1.0 19.9 -1.45 20.2 -1.35 20.4 -1.55 20.55 -1.75 21.05 -1.85 Q21.95 -1.55 22.6 -0.95 L23.05 -6.75 23.1 -7.1 22.8 -6.75 M2.5 -44.45 L6.05 -43.95 6.1 -45.05 6.3 -45.8 6.3 -46.15 6.1 -46.6 5.95 -46.9 5.7 -47.3 Q4.65 -47.85 3.65 -48.0 L3.5 -47.75 2.5 -47.7 1.6 -47.65 0.65 -46.55 0.25 -45.75 0.15 -44.65 0.15 -44.3 2.45 -44.0 2.5 -43.95 2.5 -44.45 M10.9 -1.0 L9.1 1.8 8.95 2.0 6.95 2.0 4.75 0.3 4.45 4.0 Q4.45 4.9 4.75 5.7 7.15 6.6 9.6 7.0 L10.35 7.05 10.6 7.15 Q15.5 7.7 20.6 6.2 21.2 4.3 21.4 2.35 L21.5 1.0 20.35 1.1 19.6 1.1 18.15 0.4 17.75 -0.3 17.6 -0.65 15.55 1.45 15.3 1.7 13.9 1.7 11.15 -1.0 10.9 -1.0 M20.25 -5.2 L20.25 -5.3 20.35 -5.3 20.25 -5.2 M21.2 9.15 L21.25 9.15 21.25 8.95 21.0 9.1 21.2 9.15 M22.25 10.7 L20.95 10.35 20.55 10.0 20.0 10.35 19.8 10.6 18.1 10.3 Q14.55 8.85 10.5 9.25 7.95 9.85 5.9 11.65 5.25 12.25 4.75 13.0 L4.4 15.2 2.5 15.3 0.75 15.1 -0.15 15.7 -0.75 16.0 -0.95 16.35 -1.05 16.6 -1.2 16.7 -1.7 16.85 -5.95 12.25 Q-7.7 11.65 -9.0 9.85 L-8.95 9.35 -14.0 8.2 -14.1 8.2 -15.35 12.0 -15.4 12.35 -14.1 12.25 -13.25 12.35 -12.9 12.75 -12.35 19.85 -12.1 21.0 -11.8 21.05 -11.3 20.85 -11.15 20.1 -11.1 19.75 -9.75 19.1 -9.1 19.35 Q-9.4 26.7 -1.75 28.1 L2.5 28.7 2.55 28.7 5.05 24.45 5.85 23.4 6.7 23.3 7.15 24.0 11.75 26.3 Q12.1 27.4 13.3 27.8 L13.9 27.25 14.25 26.75 Q15.85 24.7 15.35 22.0 L15.3 21.8 16.95 21.8 Q19.1 22.9 21.65 23.4 L22.3 24.1 22.4 24.2 Q23.5 20.35 20.65 17.4 L20.1 16.7 Q23.4 15.45 26.85 16.95 25.0 13.7 22.3 10.9 L22.25 10.7 M5.2 10.55 L5.35 10.7 6.6 9.7 5.75 9.45 2.95 8.85 2.9 8.9 2.8 9.0 Q1.1 8.85 0.05 9.55 L-0.1 9.7 -0.5 10.0 -1.15 9.75 -1.2 9.65 -1.5 9.7 -1.5 9.6 -1.5 9.1 -2.2 8.2 -2.65 7.5 Q-3.95 6.8 -4.75 5.55 L-4.75 5.25 -4.5 5.05 -5.0 4.85 -5.5 5.05 -6.2 5.55 -6.9 5.85 -7.05 6.6 -7.15 6.75 -7.15 7.15 -7.2 7.85 Q-7.3 8.9 -6.9 9.75 -4.95 12.0 -2.7 12.3 L-2.75 12.35 -3.0 12.4 -2.3 13.3 -2.1 13.6 -1.9 13.85 -1.05 14.0 Q0.55 12.95 2.5 12.95 L3.25 13.0 4.65 11.35 4.55 11.3 5.2 10.55" fill="#000000" fill-rule="evenodd" stroke="none"/>
    <path d="M16.55 -17.1 L16.85 -17.55 16.85 -17.6 Q20.7 -23.0 23.05 -29.0 L23.35 -25.7 Q23.45 -16.15 22.8 -6.75 L23.05 -6.75 22.6 -0.95 Q21.95 -1.55 21.05 -1.85 L20.55 -1.75 20.4 -1.55 20.2 -1.35 19.9 -1.45 19.85 -1.0 19.65 -0.65 19.15 -0.75 19.1 -1.1 18.85 -2.85 18.55 -3.15 18.05 -3.55 17.95 -3.55 17.7 -6.65 16.55 -17.1 M2.45 -44.0 L0.15 -44.3 0.15 -44.65 0.25 -45.75 0.65 -46.55 1.6 -47.65 2.5 -47.7 3.5 -47.75 3.65 -48.0 Q4.65 -47.85 5.7 -47.3 L5.95 -46.9 6.1 -46.6 6.3 -46.15 6.3 -45.8 6.1 -45.05 6.05 -43.95 2.5 -44.45 2.45 -44.0 M-17.5 -26.75 L-7.0 -14.5 -6.15 -15.15 -6.0 -15.5 2.5 -31.65 2.55 -31.75 6.45 -27.15 Q9.15 -15.1 10.65 -2.85 L10.05 -2.6 9.95 -2.25 8.2 0.5 7.65 0.65 7.2 0.65 Q5.4 -0.65 4.2 -2.15 L3.8 -1.95 3.15 -1.7 3.1 -0.3 3.1 0.4 Q2.9 2.8 3.45 5.1 L3.8 6.2 3.9 6.7 3.8 6.7 3.45 6.65 3.3 6.65 2.8 6.65 2.75 6.65 2.5 6.65 2.5 7.1 2.1 7.1 -1.1 7.15 Q-2.0 5.95 -3.25 5.15 L-3.25 5.1 -3.45 4.8 Q-4.55 3.9 -6.0 3.75 L-6.4 3.9 Q-7.85 4.6 -8.9 5.75 L-8.9 7.1 -10.05 7.05 Q-12.55 7.0 -14.25 5.6 L-15.75 -5.3 Q-17.45 -15.85 -17.75 -26.7 L-17.5 -26.75 M20.25 -5.2 L20.35 -5.3 20.25 -5.3 20.25 -5.2 M-7.05 6.6 L-6.9 5.85 -6.2 5.55 -7.05 6.6" fill="#ffcc00" fill-rule="evenodd" stroke="none"/>
    <path d="M10.9 -1.0 L11.15 -1.0 13.9 1.7 15.3 1.7 15.55 1.45 17.6 -0.65 17.75 -0.3 18.15 0.4 19.6 1.1 20.35 1.1 21.5 1.0 21.4 2.35 Q21.2 4.3 20.6 6.2 15.5 7.7 10.6 7.15 L10.35 7.05 9.6 7.0 Q7.15 6.6 4.75 5.7 4.45 4.9 4.45 4.0 L4.75 0.3 6.95 2.0 8.95 2.0 9.1 1.8 10.9 -1.0 M22.25 10.7 L22.3 10.9 Q25.0 13.7 26.85 16.95 23.4 15.45 20.1 16.7 L20.65 17.4 Q23.5 20.35 22.4 24.2 L22.3 24.1 21.65 23.4 Q19.1 22.9 16.95 21.8 L15.3 21.8 15.35 22.0 Q15.85 24.7 14.25 26.75 L13.9 27.25 13.3 27.8 Q12.1 27.4 11.75 26.3 L7.15 24.0 6.7 23.3 5.85 23.4 5.05 24.45 2.55 28.7 2.5 28.7 -1.75 28.1 Q-9.4 26.7 -9.1 19.35 L-9.75 19.1 -11.1 19.75 -11.15 20.1 -11.3 20.85 -11.8 21.05 -12.1 21.0 -12.35 19.85 -12.9 12.75 -13.25 12.35 -14.1 12.25 -15.4 12.35 -15.35 12.0 -14.1 8.2 -14.0 8.2 -8.95 9.35 -9.0 9.85 Q-7.7 11.65 -5.95 12.25 L-1.7 16.85 -1.2 16.7 -1.05 16.6 -0.95 16.35 -0.75 16.0 -0.15 15.7 0.75 15.1 2.5 15.3 4.4 15.2 4.75 13.0 Q5.25 12.25 5.9 11.65 7.95 9.85 10.5 9.25 14.55 8.85 18.1 10.3 L19.8 10.6 20.0 10.35 20.55 10.0 20.95 10.35 22.25 10.7" fill="#ffffff" fill-rule="evenodd" stroke="none"/>
    <path d="M2.8 9.0 L2.9 8.9 2.95 8.85 5.75 9.45 6.6 9.7 5.35 10.7 5.2 10.55 5.4 9.95 5.35 9.6 Q5.25 9.45 5.05 9.4 L3.0 9.0 2.8 9.0" fill="#ffcc66" fill-rule="evenodd" stroke="none"/>
    <path d="M2.8 9.0 L3.0 9.0 5.05 9.4 Q5.25 9.45 5.35 9.6 L5.4 9.95 5.2 10.55 4.55 11.3 4.65 11.35 3.25 13.0 2.5 12.95 Q0.55 12.95 -1.05 14.0 L-1.9 13.85 -2.1 13.6 -2.3 13.3 -3.0 12.4 -2.75 12.35 -2.7 12.3 Q-4.95 12.0 -6.9 9.75 -7.3 8.9 -7.2 7.85 L-7.15 7.15 -7.15 6.75 -7.05 6.6 -6.2 5.55 -5.5 5.05 -5.0 4.85 -4.5 5.05 -4.75 5.25 -4.75 5.55 Q-3.95 6.8 -2.65 7.5 L-2.2 8.2 -1.5 9.1 -1.5 9.6 -1.5 9.7 -1.2 9.65 -1.15 9.75 -0.5 10.0 -0.1 9.7 0.05 9.55 Q1.1 8.85 2.8 9.0" fill="#ffcc99" fill-rule="evenodd" stroke="none"/>
    <path d="M22.65 -33.5 L22.75 -32.6 Q21.85 -30.0 20.55 -27.35 L17.3 -21.95 16.85 -21.3 14.35 -17.65 Q9.95 -26.1 3.65 -33.45 L3.3 -33.75 2.5 -34.6 2.5 -33.15 2.1 -33.1 2.0 -33.0 0.75 -31.1 Q-3.25 -24.5 -7.4 -18.25 -12.95 -23.7 -17.0 -30.15 L-16.0 -31.6 Q-10.4 -38.0 -2.25 -42.4 L0.75 -42.2 2.5 -42.0 4.35 -42.2 Q11.5 -41.6 16.85 -38.7 20.45 -36.75 23.25 -33.8 L23.2 -33.8 Q22.8 -33.75 22.65 -33.5" fill="#702cb4" fill-rule="evenodd" stroke="none"/>
    <path d="M16.55 -17.1 L17.7 -6.65 17.95 -3.55 17.75 -3.55 17.3 -3.5 17.15 -3.4 17.05 -3.15 Q16.45 -1.75 15.45 -0.4 L14.1 -0.3 11.15 -3.05 10.65 -2.85 Q9.15 -15.1 6.45 -27.15 L11.9 -19.55 15.2 -15.2 15.5 -15.45 15.4 -15.6 16.55 -17.1" fill="#fed55a" fill-rule="evenodd" stroke="none"/>
  </g>
</svg>
