<?xml version="1.0" encoding="UTF-8" standalone="no"?>
<svg xmlns:xlink="http://www.w3.org/1999/xlink" height="33.6px" width="30.8px" xmlns="http://www.w3.org/2000/svg">
  <g transform="matrix(1.0, 0.0, 0.0, 1.0, 15.4, 16.8)">
    <path d="M6.85 -13.65 L7.0 -13.7 7.05 -13.7 7.0 -13.75 6.85 -13.8 1.75 -15.0 Q-0.9 -15.6 -3.15 -14.35 -7.1 -12.1 -9.4 -8.15 L-9.55 -7.85 -0.5 -9.3 1.0 -9.65 7.2 -9.0 Q6.9 -11.0 6.75 -13.0 L6.85 -13.65 M7.9 -14.2 Q11.5 -12.6 14.7 -10.6 L14.95 -10.2 Q15.95 -4.0 14.75 1.95 L13.9 1.9 13.85 2.0 13.4 7.1 13.4 7.2 13.35 7.3 13.35 7.35 13.25 7.7 12.45 7.75 12.95 12.05 13.0 12.25 Q11.4 13.55 9.0 14.1 L6.75 14.65 Q5.65 14.95 5.1 13.9 L4.3 13.25 Q1.3 12.2 -1.55 14.25 -3.6 15.7 -5.8 16.75 L-6.3 16.65 Q-9.35 14.5 -12.75 13.0 -13.85 12.9 -14.65 12.35 L-14.55 12.05 -14.7 12.0 -14.95 11.85 -15.1 11.7 -15.1 11.65 -15.25 11.5 -15.4 11.3 Q-15.5 10.35 -15.1 9.4 L-14.65 7.95 -14.45 6.45 -14.1 6.25 Q-13.25 -0.55 -11.25 -7.25 -10.95 -8.3 -10.25 -9.15 L-10.0 -9.15 Q-8.65 -11.7 -6.55 -13.8 -4.9 -15.45 -2.65 -16.35 L-1.2 -16.8 Q3.8 -17.05 7.85 -14.3 L7.9 -14.2 M7.4 -7.75 Q2.3 -8.85 -3.1 -7.7 L-7.0 -6.95 -10.1 -6.65 -10.4 -5.45 Q-6.85 -5.2 -4.1 -3.15 L-3.9 -2.9 -6.9 -0.3 -5.9 -0.5 -5.2 -0.95 -0.7 -1.25 5.75 -0.85 5.85 -1.0 Q6.95 -3.7 7.4 -6.65 L7.5 -7.0 7.4 -7.75 M8.0 -0.45 Q10.45 0.1 12.85 1.1 L12.9 1.0 13.05 0.95 13.3 0.9 13.3 0.85 13.6 1.1 Q13.8 -2.2 13.6 -5.45 L9.25 -7.25 Q9.25 -3.85 8.0 -0.45 M13.15 -10.25 L8.35 -12.9 Q9.05 -10.65 9.2 -8.45 L13.55 -6.6 13.15 -10.25 M11.55 5.45 L11.8 5.35 11.9 5.3 12.05 5.8 12.1 5.8 Q12.15 3.9 12.6 2.05 L8.0 1.15 7.4 1.0 7.35 1.0 6.9 1.35 Q7.05 2.85 6.05 3.85 8.9 4.3 11.55 5.55 L11.55 5.45 M10.9 6.85 Q10.05 6.65 9.35 6.1 L-0.2 5.25 -4.25 5.8 -5.2 5.85 -7.95 6.0 -9.35 6.25 -10.65 6.5 -12.85 7.2 -13.3 9.25 -13.6 10.35 -13.45 10.3 -8.45 9.25 -6.4 8.9 -4.95 8.7 Q-0.4 8.25 4.0 8.85 L4.2 8.3 4.5 8.1 5.1 8.35 5.25 9.0 9.8 10.05 Q10.9 10.4 11.7 10.9 L11.7 7.15 10.9 6.85 M11.7 11.1 L6.5 10.3 5.4 10.1 5.3 11.35 5.25 11.75 5.05 12.05 4.85 12.2 Q5.8 12.7 6.55 13.5 L11.65 11.6 11.7 11.1 M4.2 3.25 L4.35 2.85 Q4.65 2.7 5.0 2.5 L5.25 1.1 5.05 0.7 -7.7 0.3 Q-9.6 1.55 -11.8 2.5 L-12.15 2.6 -12.6 5.3 -12.6 5.45 Q-10.15 4.35 -7.25 4.15 L-0.7 3.55 0.0 3.65 Q2.1 3.45 4.15 3.6 L4.2 3.25 M3.3 11.7 Q3.4 10.75 3.65 9.9 -5.2 8.85 -13.5 11.95 -9.3 12.4 -5.75 15.1 L-5.4 15.1 Q-1.75 11.65 3.1 11.7 L3.3 11.7 M-5.75 -2.65 Q-8.5 -3.75 -10.55 -5.0 L-12.1 2.45 Q-9.65 -0.35 -6.4 -2.25 L-5.75 -2.65" fill="#000000" fill-rule="evenodd" stroke="none"/>
    <path d="M10.9 6.85 L11.7 7.15 11.7 10.9 Q10.9 10.4 9.8 10.05 L5.25 9.0 5.1 8.35 4.5 8.1 4.2 8.3 4.0 8.85 Q-0.4 8.25 -4.95 8.7 L-6.4 8.9 -8.45 9.25 -13.45 10.3 -13.6 10.35 -13.3 9.25 -12.85 7.2 -10.65 6.5 -9.35 6.25 -7.95 6.0 -5.2 5.85 -4.25 5.8 -0.2 5.25 9.35 6.1 Q10.05 6.65 10.9 6.85" fill="#333333" fill-rule="evenodd" stroke="none"/>
    <path d="M7.4 -7.75 L7.5 -7.0 7.4 -6.65 Q6.95 -3.7 5.85 -1.0 L5.75 -0.85 -0.7 -1.25 -5.2 -0.95 -5.9 -0.5 -6.9 -0.3 -3.9 -2.9 -4.1 -3.15 Q-6.85 -5.2 -10.4 -5.45 L-10.1 -6.65 -7.0 -6.95 -3.1 -7.7 Q2.3 -8.85 7.4 -7.75 M8.0 -0.45 Q9.25 -3.85 9.25 -7.25 L13.6 -5.45 Q13.8 -2.2 13.6 1.1 L13.3 0.85 13.3 0.9 13.05 0.95 12.9 1.0 12.85 1.1 Q10.45 0.1 8.0 -0.45 M11.55 5.45 L11.55 5.55 Q8.9 4.3 6.05 3.85 7.05 2.85 6.9 1.35 L7.35 1.0 7.4 1.0 8.0 1.15 12.6 2.05 Q12.15 3.9 12.1 5.8 L12.05 5.8 11.9 5.3 11.8 5.35 11.55 5.45 M-5.75 -2.65 L-6.4 -2.25 Q-9.65 -0.35 -12.1 2.45 L-10.55 -5.0 Q-8.5 -3.75 -5.75 -2.65 M3.3 11.7 L3.1 11.7 Q-1.75 11.65 -5.4 15.1 L-5.75 15.1 Q-9.3 12.4 -13.5 11.95 -5.2 8.85 3.65 9.9 3.4 10.75 3.3 11.7 M4.2 3.25 L4.15 3.6 Q2.1 3.45 0.0 3.65 L-0.7 3.55 -7.25 4.15 Q-10.15 4.35 -12.6 5.45 L-12.6 5.3 -12.15 2.6 -11.8 2.5 Q-9.6 1.55 -7.7 0.3 L5.05 0.7 5.25 1.1 5.0 2.5 Q4.65 2.7 4.35 2.85 L4.2 3.25 M11.7 11.1 L11.65 11.6 6.55 13.5 Q5.8 12.7 4.85 12.2 L5.05 12.05 5.25 11.75 5.3 11.35 5.4 10.1 6.5 10.3 11.7 11.1" fill="#51684d" fill-rule="evenodd" stroke="none"/>
    <path d="M6.85 -13.65 L6.75 -13.0 Q6.9 -11.0 7.2 -9.0 L1.0 -9.65 -0.5 -9.3 -9.55 -7.85 -9.4 -8.15 Q-7.1 -12.1 -3.15 -14.35 -0.9 -15.6 1.75 -15.0 L6.85 -13.8 7.0 -13.75 7.05 -13.7 7.0 -13.7 6.85 -13.65 M13.15 -10.25 L13.55 -6.6 9.2 -8.45 Q9.05 -10.65 8.35 -12.9 L13.15 -10.25" fill="#666666" fill-rule="evenodd" stroke="none"/>
  </g>
</svg>
