<?xml version="1.0" encoding="UTF-8" standalone="no"?>
<svg xmlns:xlink="http://www.w3.org/1999/xlink" height="44.5px" width="35.1px" xmlns="http://www.w3.org/2000/svg">
  <g transform="matrix(1.0, 0.0, 0.0, 1.0, 20.25, 19.0)">
    <path d="M11.6 -13.25 Q14.45 -3.4 14.8 7.0 15.05 13.05 13.3 18.7 L13.05 19.1 12.4 19.3 11.9 18.9 11.5 19.2 Q10.6 20.0 9.5 20.45 8.85 20.7 8.65 21.4 L8.5 21.55 6.05 22.55 Q5.0 23.05 4.4 24.0 -6.65 26.5 -18.05 24.9 L-18.45 24.45 -18.9 24.0 Q-18.95 19.8 -18.55 15.75 L-19.35 15.55 -20.25 15.1 -18.5 15.15 -18.15 11.8 -18.4 11.7 -18.45 11.5 -18.1 11.35 Q-17.4 5.95 -16.05 0.7 -14.1 -7.35 -10.45 -14.65 -8.8 -17.9 -5.7 -19.0 3.7 -19.25 11.15 -13.7 L11.6 -13.25 M3.55 -15.2 Q0.9 -16.15 -2.0 -16.4 -2.15 -13.45 -2.75 -10.45 L-2.9 -9.95 -2.6 -8.15 Q-4.6 -6.6 -6.9 -5.2 -7.9 -3.45 -8.05 -1.35 L-8.55 2.65 Q-11.6 4.75 -15.65 4.6 L-15.7 4.6 Q-16.35 7.65 -16.6 10.8 L-12.8 10.5 Q0.6 11.9 12.95 7.35 L12.9 4.25 Q11.1 4.0 9.25 4.25 L6.9 4.45 Q6.4 3.85 6.3 3.15 5.85 0.75 6.15 -1.85 6.25 -3.35 5.55 -4.55 L5.85 -4.95 6.75 -5.65 5.85 -5.65 5.0 -6.55 3.5 -6.55 3.55 -15.05 3.55 -15.2 M10.0 -11.15 L10.0 -11.65 Q7.55 -13.55 4.85 -14.7 5.25 -11.65 4.45 -8.6 L4.4 -8.15 Q4.95 -7.15 6.0 -6.35 L7.2 -5.95 7.55 -6.2 7.95 -6.35 11.45 -6.1 11.1 -7.55 10.0 -9.85 10.0 -11.15 M7.45 -4.45 Q7.2 -3.8 7.3 -3.05 L7.3 -0.8 Q7.2 0.8 7.45 2.35 8.35 3.35 9.85 2.85 11.45 2.2 12.8 2.6 12.45 -1.4 11.6 -5.35 L7.95 -4.85 7.45 -4.45 M12.95 7.6 Q9.5 10.8 3.8 11.5 L-16.75 12.3 -16.85 15.15 3.2 15.0 Q8.4 14.85 12.75 12.35 L12.95 7.6 M12.25 14.1 L11.1 15.05 Q10.9 15.1 10.75 15.3 -3.1 19.15 -16.8 16.15 L-16.85 16.15 -16.85 16.6 -16.85 17.1 -17.45 18.0 -17.45 21.6 -17.45 22.9 Q-6.9 24.35 3.6 21.7 8.9 18.9 12.5 14.5 L12.6 13.8 12.25 14.1 M-5.6 -16.45 L-6.3 -16.15 -7.05 -15.85 Q-10.0 -11.55 -12.0 -6.95 L-8.55 -6.55 -7.75 -6.4 Q-6.3 -8.15 -3.9 -9.35 L-2.15 -16.4 -5.6 -16.45 M-15.2 3.4 L-12.7 2.7 -10.6 2.2 -10.15 1.75 -10.15 -0.5 Q-10.1 -2.65 -8.95 -4.55 L-8.95 -4.95 -9.25 -5.45 Q-10.85 -5.9 -12.15 -6.65 -14.3 -1.85 -15.45 3.3 L-15.5 3.65 -15.2 3.4" fill="#000000" fill-rule="evenodd" stroke="none"/>
    <path d="M3.55 -15.2 L3.55 -15.05 3.5 -6.55 5.0 -6.55 5.85 -5.65 6.75 -5.65 5.85 -4.95 5.55 -4.55 Q6.25 -3.35 6.15 -1.85 5.85 0.75 6.3 3.15 6.4 3.85 6.9 4.45 L9.25 4.25 Q11.1 4.0 12.9 4.25 L12.95 7.35 Q0.6 11.9 -12.8 10.5 L-16.6 10.8 Q-16.35 7.65 -15.7 4.6 L-15.65 4.6 Q-11.6 4.75 -8.55 2.65 L-8.05 -1.35 Q-7.9 -3.45 -6.9 -5.2 -4.6 -6.6 -2.6 -8.15 L-2.9 -9.95 -2.75 -10.45 Q-2.15 -13.45 -2.0 -16.4 0.9 -16.15 3.55 -15.2 M7.45 -4.45 L7.95 -4.85 11.6 -5.35 Q12.45 -1.4 12.8 2.6 11.45 2.2 9.85 2.85 8.35 3.35 7.45 2.35 7.2 0.8 7.3 -0.8 L7.3 -3.05 Q7.2 -3.8 7.45 -4.45 M-16.8 16.15 Q-3.1 19.15 10.75 15.3 10.9 15.1 11.1 15.05 L12.25 14.1 12.5 14.5 Q8.9 18.9 3.6 21.7 -6.9 24.35 -17.45 22.9 L-17.45 21.6 -17.45 18.0 -16.85 17.1 -16.85 16.6 -16.8 16.15 M-15.45 3.3 Q-14.3 -1.85 -12.15 -6.65 -10.85 -5.9 -9.25 -5.45 L-8.95 -4.95 -8.95 -4.55 Q-10.1 -2.65 -10.15 -0.5 L-10.15 1.75 -10.6 2.2 -12.7 2.7 -15.2 3.4 -15.45 3.3" fill="#51684d" fill-rule="evenodd" stroke="none"/>
    <path d="M10.0 -11.15 L10.0 -9.85 11.1 -7.55 11.45 -6.1 7.95 -6.35 7.55 -6.2 7.2 -5.95 6.0 -6.35 Q4.95 -7.15 4.4 -8.15 L4.45 -8.6 Q5.25 -11.65 4.85 -14.7 7.55 -13.55 10.0 -11.65 L10.0 -11.15 M-5.6 -16.45 L-2.15 -16.4 -3.9 -9.35 Q-6.3 -8.15 -7.75 -6.4 L-8.55 -6.55 -12.0 -6.95 Q-10.0 -11.55 -7.05 -15.85 L-6.3 -16.15 -5.6 -16.45" fill="#666666" fill-rule="evenodd" stroke="none"/>
    <path d="M12.95 7.6 L12.75 12.35 Q8.4 14.85 3.2 15.0 L-16.85 15.15 -16.75 12.3 3.8 11.5 Q9.5 10.8 12.95 7.6" fill="#333333" fill-rule="evenodd" stroke="none"/>
  </g>
</svg>
