<?xml version="1.0" encoding="UTF-8" standalone="no"?>
<svg xmlns:xlink="http://www.w3.org/1999/xlink" height="63.05px" width="64.2px" xmlns="http://www.w3.org/2000/svg">
  <g transform="matrix(1.0, 0.0, 0.0, 1.0, 31.65, 59.3)">
    <path d="M19.5 -58.55 L22.35 -57.1 22.5 -57.25 22.75 -57.3 Q27.8 -53.5 31.15 -48.1 L31.45 -47.9 31.55 -47.75 31.5 -47.55 32.25 -46.25 Q32.8 -45.2 32.4 -44.0 L31.35 -40.5 Q29.55 -34.1 27.3 -27.85 L27.0 -27.0 26.0 -24.55 26.05 -24.4 26.9 -22.5 26.85 -22.25 27.35 -21.4 Q28.25 -19.65 28.7 -17.7 29.45 -17.85 30.0 -17.3 L30.1 -17.15 30.0 -12.9 30.1 -11.5 30.1 -11.15 30.05 -10.0 29.0 -9.3 28.35 -4.65 Q27.8 -3.75 26.8 -3.3 L26.1 -2.75 Q22.45 -1.25 19.35 1.35 L17.15 3.15 16.5 3.75 Q1.7 3.45 -12.15 -1.55 L-12.65 -1.9 Q-17.55 -6.85 -18.3 -13.4 L-18.5 -13.5 -18.55 -13.9 -18.5 -14.05 -18.35 -14.05 -18.4 -14.5 -18.55 -16.1 -18.75 -16.0 Q-21.1 -17.1 -23.15 -18.55 -25.0 -24.3 -27.45 -29.9 L-27.65 -30.45 -27.75 -30.5 -27.75 -30.7 Q-30.0 -36.1 -31.1 -41.8 L-31.25 -42.0 -31.15 -42.05 -31.5 -44.05 -31.65 -46.7 Q-27.3 -51.05 -23.35 -55.95 -22.7 -56.7 -21.75 -56.75 L-21.55 -56.65 -21.55 -56.7 Q-20.05 -58.5 -18.0 -59.3 L-17.45 -59.15 -17.3 -59.0 Q-18.35 -51.85 -17.1 -44.6 -16.1 -38.5 -14.3 -32.55 L-14.2 -32.3 Q-11.8 -42.95 -3.25 -49.9 -2.6 -50.45 -1.65 -50.55 L-1.4 -50.6 -1.4 -50.75 -1.1 -51.05 -0.55 -51.3 -0.5 -51.4 Q3.4 -51.75 7.0 -50.4 L7.6 -50.15 Q7.95 -47.9 7.65 -45.6 7.3 -42.35 8.1 -39.25 L8.1 -39.15 Q11.25 -38.75 14.25 -37.75 16.95 -43.5 18.1 -49.8 L18.75 -54.15 19.0 -58.25 19.5 -58.5 19.5 -58.55 M21.8 -56.05 Q21.15 -56.75 20.05 -56.95 19.55 -50.55 17.95 -44.35 17.0 -40.9 15.4 -37.8 L15.2 -37.45 16.65 -36.9 16.9 -37.5 17.1 -38.05 17.1 -38.25 17.3 -38.45 17.4 -38.85 17.35 -39.0 17.5 -39.15 20.55 -51.05 21.8 -56.05 M23.0 -55.9 L22.5 -53.5 28.45 -49.95 Q26.05 -53.2 23.0 -55.9 M31.25 -45.5 L29.9 -47.8 Q25.95 -50.05 22.35 -52.6 L21.55 -49.3 Q25.8 -45.65 30.4 -42.3 L31.25 -45.5 M30.15 -41.4 Q25.3 -44.3 21.25 -48.05 L20.25 -44.35 29.0 -37.7 30.15 -41.4 M28.45 -36.0 L28.7 -36.75 Q24.0 -39.75 19.95 -43.35 L18.55 -38.6 25.45 -32.4 26.85 -31.05 28.45 -36.0 M23.05 -29.9 L25.25 -26.05 25.55 -26.95 25.6 -27.5 25.8 -27.7 26.45 -29.8 Q23.15 -33.15 19.45 -36.1 L18.25 -37.35 18.05 -36.75 17.8 -36.4 21.5 -31.9 23.05 -29.9 M5.7 -48.85 L0.35 -49.4 0.45 -44.9 0.5 -43.05 6.15 -42.35 6.15 -42.65 Q6.45 -45.65 6.1 -48.65 L5.7 -48.85 M0.25 -39.45 Q3.5 -39.65 6.65 -39.35 6.15 -40.5 6.15 -41.8 L0.45 -41.85 0.25 -39.45 M1.05 -27.05 L9.8 -32.55 11.25 -32.9 11.9 -33.0 13.0 -33.4 Q19.35 -30.45 23.6 -24.75 22.45 -27.75 20.75 -30.5 17.95 -33.75 14.4 -35.85 6.4 -37.85 -1.95 -37.5 L-5.95 -36.15 Q-11.75 -33.0 -14.7 -27.05 L-14.45 -26.9 -14.3 -26.75 -14.25 -26.4 -14.25 -26.2 Q-13.05 -24.75 -12.65 -22.8 L-12.2 -21.5 -11.75 -19.95 Q-10.4 -14.85 -10.9 -9.2 -11.15 -6.7 -11.8 -4.4 L-12.0 -3.65 -11.4 -3.0 -8.95 -2.15 -9.05 -2.55 Q-10.8 -7.7 -9.55 -13.15 -9.0 -15.75 -7.75 -18.0 -3.9 -23.3 1.05 -27.05 M11.85 -31.3 Q1.0 -26.85 -5.4 -17.25 L-5.55 -17.15 -6.0 -16.95 -5.95 -16.9 -6.0 -16.75 -2.5 -16.8 Q10.1 -16.2 22.5 -17.4 L25.0 -17.25 25.0 -17.3 26.85 -17.5 Q26.35 -19.35 25.45 -21.05 L25.1 -20.9 24.75 -21.25 24.55 -22.0 Q20.05 -27.3 14.35 -31.1 L11.85 -31.3 M28.35 -16.3 L28.15 -16.4 25.5 -16.15 23.35 -15.8 Q10.65 -14.05 -2.5 -15.15 L-6.55 -15.45 Q-7.75 -12.6 -7.95 -9.65 4.05 -9.25 16.5 -9.75 L26.35 -10.8 26.55 -10.75 27.15 -10.9 28.8 -11.8 28.4 -16.15 28.35 -16.3 M21.35 -7.95 Q7.0 -7.0 -7.35 -8.25 L-8.0 -8.35 -7.8 -5.45 -3.9 -4.3 -2.95 -4.1 0.25 -3.6 Q13.15 -2.7 25.75 -5.05 L26.5 -5.5 27.1 -9.2 Q25.6 -8.2 23.0 -8.05 L21.35 -7.95 M23.65 -3.7 Q20.85 -2.6 17.3 -2.1 6.0 -0.55 -5.05 -2.95 -6.4 -3.25 -7.55 -3.95 L-7.15 -2.8 -6.7 -2.25 -6.65 -2.05 Q-6.65 -1.7 -6.9 -1.5 4.2 1.8 16.1 1.6 L23.0 -3.25 23.65 -3.7 M-26.05 -51.15 Q-26.9 -49.65 -28.1 -48.35 L-30.4 -46.0 -30.0 -43.1 Q-26.15 -46.55 -22.05 -49.7 L-21.7 -55.75 Q-24.4 -54.05 -26.05 -51.15 M-18.45 -57.8 L-20.5 -56.05 Q-21.45 -48.8 -20.1 -41.6 -19.25 -37.15 -17.6 -32.9 L-15.7 -27.6 -14.7 -29.4 -14.75 -29.4 -14.5 -31.0 -14.8 -31.2 Q-17.1 -38.3 -18.3 -45.65 -18.9 -49.4 -18.85 -53.3 -18.85 -55.6 -18.45 -57.8 M-1.4 -49.4 Q-7.0 -46.8 -9.65 -40.6 -11.45 -36.4 -12.85 -32.1 L-12.15 -32.95 -10.6 -34.55 -10.5 -35.25 Q-6.75 -39.65 -1.65 -42.25 L-1.6 -42.25 -1.65 -42.4 -1.6 -42.7 -1.5 -42.8 -1.5 -44.4 -1.4 -49.4 M-6.85 -37.25 L-3.8 -38.35 -3.3 -38.8 -1.25 -39.15 -1.45 -41.55 Q-3.1 -39.7 -5.85 -37.95 L-6.85 -37.25 M-16.5 -25.85 L-16.25 -26.5 -16.9 -27.25 -17.25 -28.0 -22.75 -21.95 -22.9 -21.8 -23.0 -21.75 -23.05 -21.7 -22.55 -20.4 -22.0 -19.6 Q-19.85 -22.15 -17.3 -24.1 L-17.4 -24.15 -16.75 -25.65 -16.5 -25.85 M-18.85 -32.0 L-21.35 -29.2 Q-22.9 -27.5 -24.7 -26.05 L-23.5 -22.85 Q-20.9 -26.2 -17.5 -28.6 L-18.85 -32.0 M-21.55 -42.8 Q-24.65 -39.3 -28.25 -36.05 L-27.85 -34.8 -26.85 -31.9 Q-23.75 -34.85 -20.5 -37.25 L-21.4 -41.65 -21.55 -42.8 M-22.05 -48.9 L-25.85 -45.15 -29.8 -42.0 -28.6 -37.15 -21.65 -43.55 -22.05 -48.9 M-26.45 -30.8 L-25.1 -27.1 Q-22.35 -30.2 -19.1 -32.65 L-20.3 -36.65 Q-23.1 -33.55 -26.45 -30.8 M-14.85 -24.1 L-15.1 -24.05 -15.5 -24.5 -15.8 -24.45 -15.8 -24.4 -16.2 -23.55 -16.2 -23.3 -16.45 -22.6 Q-17.7 -18.25 -17.2 -14.35 L-12.55 -15.3 Q-12.9 -18.85 -13.75 -22.3 L-14.85 -24.1 M-20.15 -19.7 L-21.05 -18.85 -18.85 -17.25 -18.55 -17.0 Q-18.5 -18.7 -18.05 -20.4 L-17.65 -22.4 -18.7 -21.3 -20.15 -19.7 M-12.65 -14.25 L-12.5 -14.2 -12.5 -14.3 -12.65 -14.25 M-16.95 -12.75 Q-16.0 -8.4 -12.85 -4.6 -12.25 -9.0 -12.45 -13.3 L-16.95 -12.75" fill="#000000" fill-rule="evenodd" stroke="none"/>
    <path d="M21.8 -56.05 L20.55 -51.05 17.5 -39.15 17.35 -39.0 17.4 -38.85 17.3 -38.45 17.1 -38.25 17.1 -38.05 16.9 -37.5 16.65 -36.9 15.2 -37.45 15.4 -37.8 Q17.0 -40.9 17.95 -44.35 19.55 -50.55 20.05 -56.95 21.15 -56.75 21.8 -56.05 M31.25 -45.5 L30.4 -42.3 Q25.8 -45.65 21.55 -49.3 L22.35 -52.6 Q25.95 -50.05 29.9 -47.8 L31.25 -45.5 M28.45 -36.0 L26.85 -31.05 25.45 -32.4 18.55 -38.6 19.95 -43.35 Q24.0 -39.75 28.7 -36.75 L28.45 -36.0 M0.25 -39.45 L0.45 -41.85 6.15 -41.8 Q6.15 -40.5 6.65 -39.35 3.5 -39.65 0.25 -39.45 M1.05 -27.05 Q-3.9 -23.3 -7.75 -18.0 -9.0 -15.75 -9.55 -13.15 -10.8 -7.7 -9.05 -2.55 L-8.95 -2.15 -11.4 -3.0 -12.0 -3.65 -11.8 -4.4 Q-11.15 -6.7 -10.9 -9.2 -10.4 -14.85 -11.75 -19.95 L-12.2 -21.5 -12.65 -22.8 Q-13.05 -24.75 -14.25 -26.2 L-14.25 -26.4 -14.3 -26.75 -14.45 -26.9 -14.7 -27.05 Q-11.75 -33.0 -5.95 -36.15 L-1.95 -37.5 Q6.4 -37.85 14.4 -35.85 17.95 -33.75 20.75 -30.5 22.45 -27.75 23.6 -24.75 19.35 -30.45 13.0 -33.4 L11.9 -33.0 11.25 -32.9 9.8 -32.55 1.05 -27.05 M23.65 -3.7 L23.0 -3.25 16.1 1.6 Q4.2 1.8 -6.9 -1.5 -6.65 -1.7 -6.65 -2.05 L-6.7 -2.25 -7.15 -2.8 -7.55 -3.95 Q-6.4 -3.25 -5.05 -2.95 6.0 -0.55 17.3 -2.1 20.85 -2.6 23.65 -3.7 M21.35 -7.95 L23.0 -8.05 Q25.6 -8.2 27.1 -9.2 L26.5 -5.5 25.75 -5.05 Q13.15 -2.7 0.25 -3.6 L-2.95 -4.1 -3.9 -4.3 -7.8 -5.45 -8.0 -8.35 -7.35 -8.25 Q7.0 -7.0 21.35 -7.95 M28.35 -16.3 L28.4 -16.15 28.8 -11.8 27.15 -10.9 26.55 -10.75 26.35 -10.8 16.5 -9.75 Q4.05 -9.25 -7.95 -9.65 -7.75 -12.6 -6.55 -15.45 L-2.5 -15.15 Q10.65 -14.05 23.35 -15.8 L25.5 -16.15 28.15 -16.4 28.35 -16.3 M11.85 -31.3 L14.35 -31.1 Q20.05 -27.3 24.55 -22.0 L24.75 -21.25 25.1 -20.9 25.45 -21.05 Q26.35 -19.35 26.85 -17.5 L25.0 -17.3 25.0 -17.25 22.5 -17.4 Q10.1 -16.2 -2.5 -16.8 L-6.0 -16.75 -5.95 -16.9 -6.0 -16.95 -5.55 -17.15 -5.4 -17.25 Q1.0 -26.85 11.85 -31.3 M-18.45 -57.8 Q-18.85 -55.6 -18.85 -53.3 -18.9 -49.4 -18.3 -45.65 -17.1 -38.3 -14.8 -31.2 L-14.5 -31.0 -14.75 -29.4 -14.7 -29.4 -15.7 -27.6 -17.6 -32.9 Q-19.25 -37.15 -20.1 -41.6 -21.45 -48.8 -20.5 -56.05 L-18.45 -57.8 M-16.5 -25.85 L-16.75 -25.65 -17.4 -24.15 -17.3 -24.1 Q-19.85 -22.15 -22.0 -19.6 L-22.55 -20.4 -23.05 -21.7 -23.0 -21.75 -22.9 -21.8 -22.75 -21.95 -17.25 -28.0 -16.9 -27.25 -16.25 -26.5 -16.5 -25.85 M-6.85 -37.25 L-5.85 -37.95 Q-3.1 -39.7 -1.45 -41.55 L-1.25 -39.15 -3.3 -38.8 -3.8 -38.35 -6.85 -37.25 M-14.85 -24.1 L-13.75 -22.3 Q-12.9 -18.85 -12.55 -15.3 L-17.2 -14.35 Q-17.7 -18.25 -16.45 -22.6 L-16.2 -23.3 -16.2 -23.55 -15.8 -24.4 -15.8 -24.45 -15.5 -24.5 -15.1 -24.05 -14.85 -24.1 M-26.45 -30.8 Q-23.1 -33.55 -20.3 -36.65 L-19.1 -32.65 Q-22.35 -30.2 -25.1 -27.1 L-26.45 -30.8 M-22.05 -48.9 L-21.65 -43.55 -28.6 -37.15 -29.8 -42.0 -25.85 -45.15 -22.05 -48.9 M-16.95 -12.75 L-12.45 -13.3 Q-12.25 -9.0 -12.85 -4.6 -16.0 -8.4 -16.95 -12.75 M-12.65 -14.25 L-12.5 -14.3 -12.5 -14.2 -12.65 -14.25" fill="#51684d" fill-rule="evenodd" stroke="none"/>
    <path d="M23.0 -55.9 Q26.05 -53.2 28.45 -49.95 L22.5 -53.5 23.0 -55.9 M30.15 -41.4 L29.0 -37.7 20.25 -44.35 21.25 -48.05 Q25.3 -44.3 30.15 -41.4 M23.05 -29.9 L21.5 -31.9 17.8 -36.4 18.05 -36.75 18.25 -37.35 19.45 -36.1 Q23.15 -33.15 26.45 -29.8 L25.8 -27.7 25.6 -27.5 25.55 -26.95 25.25 -26.05 23.05 -29.9 M5.7 -48.85 L6.1 -48.65 Q6.45 -45.65 6.15 -42.65 L6.15 -42.35 0.5 -43.05 0.45 -44.9 0.35 -49.4 5.7 -48.85 M-26.05 -51.15 Q-24.4 -54.05 -21.7 -55.75 L-22.05 -49.7 Q-26.15 -46.55 -30.0 -43.1 L-30.4 -46.0 -28.1 -48.35 Q-26.9 -49.65 -26.05 -51.15 M-1.4 -49.4 L-1.5 -44.4 -1.5 -42.8 -1.6 -42.7 -1.65 -42.4 -1.6 -42.25 -1.65 -42.25 Q-6.75 -39.65 -10.5 -35.25 L-10.6 -34.55 -12.15 -32.95 -12.85 -32.1 Q-11.45 -36.4 -9.65 -40.6 -7.0 -46.8 -1.4 -49.4 M-21.55 -42.8 L-21.4 -41.65 -20.5 -37.25 Q-23.75 -34.85 -26.85 -31.9 L-27.85 -34.8 -28.25 -36.05 Q-24.65 -39.3 -21.55 -42.8 M-18.85 -32.0 L-17.5 -28.6 Q-20.9 -26.2 -23.5 -22.85 L-24.7 -26.05 Q-22.9 -27.5 -21.35 -29.2 L-18.85 -32.0 M-20.15 -19.7 L-18.7 -21.3 -17.65 -22.4 -18.05 -20.4 Q-18.5 -18.7 -18.55 -17.0 L-18.85 -17.25 -21.05 -18.85 -20.15 -19.7" fill="#333333" fill-rule="evenodd" stroke="none"/>
  </g>
</svg>
