<?xml version="1.0" encoding="UTF-8" standalone="no"?>
<svg xmlns:xlink="http://www.w3.org/1999/xlink" height="63.4px" width="67.85px" xmlns="http://www.w3.org/2000/svg">
  <g transform="matrix(1.0, 0.0, 0.0, 1.0, 33.25, 34.15)">
    <path d="M22.5 -31.0 L21.75 -28.55 Q19.85 -18.55 15.3 -9.35 L14.7 -10.25 14.75 -10.35 14.05 -11.25 13.25 -12.25 13.95 -13.6 Q18.4 -20.5 19.5 -28.2 L19.75 -28.6 20.0 -28.9 20.0 -29.3 20.0 -29.6 20.25 -30.0 20.5 -30.3 20.5 -30.65 20.5 -31.0 20.5 -31.35 22.55 -31.2 22.5 -31.0 M20.7 4.35 L21.7 5.6 20.8 4.9 20.7 4.35 M-11.65 -11.3 L-11.8 -11.2 -12.0 -11.15 -12.5 -11.05 -12.9 -10.75 -13.5 -10.3 -15.75 -8.15 -15.95 -8.7 -16.4 -9.8 -16.9 -10.15 -16.9 -10.85 -17.0 -11.2 -17.4 -11.55 -17.75 -12.95 Q-21.75 -21.85 -21.4 -31.7 L-20.3 -32.25 Q-20.25 -32.3 -20.15 -32.15 -19.4 -23.65 -15.8 -15.65 -14.3 -12.45 -11.65 -11.3 M16.25 -7.95 L17.5 -10.15 Q20.35 -6.15 24.25 -2.65 L24.3 -2.65 22.15 0.05 18.5 -3.25 16.2 -7.9 16.25 -7.95 M1.0 -8.3 Q1.15 -7.95 2.25 -7.2 11.05 -1.55 16.1 6.95 L18.2 10.25 16.45 10.35 Q0.1 11.3 -16.0 11.3 L-16.25 10.95 -17.85 10.8 Q-12.5 -2.05 1.0 -8.3 M9.1 -12.1 L9.25 -12.0 Q10.35 -11.45 11.5 -11.3 L12.2 -10.7 13.5 -9.95 13.85 -9.4 Q15.2 -7.1 16.15 -4.6 17.5 -0.95 18.4 2.85 L18.6 3.9 18.25 4.25 18.6 4.55 18.75 4.55 19.6 10.05 19.4 10.15 19.25 10.15 19.2 10.0 19.1 8.95 18.75 8.35 18.7 8.25 Q13.65 -2.6 2.5 -8.65 L1.35 -8.65 1.05 -8.5 1.0 -8.6 0.75 -9.0 Q-0.6 -8.95 -1.75 -8.4 L-6.3 -5.85 Q-15.75 0.3 -18.65 10.05 L-18.85 10.05 -19.0 10.1 -19.2 10.4 -19.25 10.35 -20.25 10.25 -19.45 1.85 -18.35 -1.75 Q-17.35 -4.9 -14.9 -7.05 -13.1 -8.7 -12.15 -10.35 L-7.5 -11.15 Q-4.05 -12.05 -0.5 -12.0 L9.1 -12.1 M4.65 -13.55 L2.0 -13.75 -4.25 -13.15 -4.25 -15.1 Q0.45 -14.35 4.65 -15.25 L4.6 -14.3 Q4.55 -13.95 4.65 -13.55 M31.15 -16.75 Q27.15 -20.15 22.25 -22.8 L22.0 -22.8 21.8 -22.85 22.9 -26.95 32.4 -20.0 31.5 -16.7 31.15 -16.75 M29.35 -11.05 L27.6 -7.75 19.2 -14.8 20.35 -18.1 Q25.25 -14.95 29.35 -11.05 M-21.9 -20.55 Q-26.8 -17.0 -30.2 -12.65 -30.9 -15.0 -31.25 -17.4 L-31.15 -17.45 -30.9 -17.7 -22.45 -25.75 -21.7 -20.6 -21.9 -20.55 M-18.5 -10.15 L-18.9 -9.8 Q-22.7 -6.55 -25.95 -2.95 L-28.05 -6.85 Q-23.5 -9.8 -19.8 -13.7 L-18.5 -10.5 -18.5 -10.15 M-20.95 10.55 L-21.25 10.8 -21.25 10.85 -21.5 11.3 -21.6 11.3 -21.7 11.65 -21.55 11.75 -21.55 11.85 -21.5 15.35 -20.7 16.2 -20.3 16.75 -20.1 18.65 Q-21.7 16.9 -22.55 14.6 -24.8 8.35 -20.4 3.9 -21.0 7.2 -20.55 10.25 L-20.95 10.55 M-23.4 0.8 L-22.8 0.55 Q-20.85 -0.7 -19.45 -2.25 -20.2 -0.2 -20.5 2.15 -21.35 2.45 -21.9 3.1 L-23.4 0.8 M-17.2 22.0 L-1.25 23.7 Q8.55 24.4 17.85 22.15 10.6 27.4 1.0 27.85 L0.95 27.95 Q-8.6 26.0 -17.2 22.0 M-19.25 12.35 L-19.0 12.25 -18.5 12.15 -18.5 12.1 Q-18.0 12.35 -17.55 12.7 L-11.0 12.95 16.5 11.7 18.45 11.3 18.6 11.5 19.05 11.45 19.25 11.75 19.35 11.4 19.7 11.5 19.8 12.45 19.85 14.4 20.1 14.65 20.5 16.35 Q19.45 16.25 18.75 16.85 L18.6 17.05 15.5 17.3 12.75 17.55 Q-2.1 18.4 -16.75 16.95 L-17.0 17.0 -17.65 17.45 -17.45 17.7 -16.4 18.45 Q-2.95 19.8 10.5 19.2 L14.8 18.75 18.35 17.85 Q17.9 19.4 17.9 21.0 L17.9 21.05 17.75 21.15 17.9 21.3 17.9 21.55 8.75 22.5 -17.85 21.2 -18.1 20.45 -17.85 18.8 Q-17.75 17.4 -18.15 16.1 -19.35 15.9 -20.25 14.65 -20.35 13.65 -19.75 12.95 L-19.25 12.35 M20.05 19.1 L20.0 18.45 20.75 18.3 20.05 19.1 M21.75 6.85 L21.9 7.25 Q24.25 12.4 21.85 16.7 22.25 13.45 21.6 9.9 L21.2 9.75 20.95 6.25 21.75 6.85" fill="#51684d" fill-rule="evenodd" stroke="none"/>
    <path d="M22.55 -31.2 L20.5 -31.35 20.5 -31.0 20.5 -30.65 20.5 -30.3 20.25 -30.0 20.0 -29.6 20.0 -29.3 20.0 -28.9 19.75 -28.6 19.5 -28.2 Q18.4 -20.5 13.95 -13.6 L13.25 -12.25 14.05 -11.25 14.75 -10.35 14.7 -10.25 15.3 -9.35 Q19.85 -18.55 21.75 -28.55 L22.5 -31.0 22.55 -31.2 M-11.65 -11.3 Q-9.15 -12.4 -5.7 -12.95 L-5.8 -15.4 -6.4 -15.6 -6.0 -15.75 -5.8 -15.8 -5.75 -23.1 -5.4 -23.5 -5.0 -23.8 -4.55 -24.0 -4.5 -24.05 2.1 -23.65 4.25 -23.5 4.75 -23.1 5.1 -22.8 5.25 -21.05 Q5.55 -18.35 5.45 -15.5 L5.5 -15.45 5.45 -15.45 5.35 -13.5 9.95 -12.9 10.0 -12.9 11.65 -12.85 11.5 -13.05 11.55 -13.1 12.9 -12.45 Q16.95 -21.0 19.4 -30.1 19.7 -31.35 19.35 -32.6 L19.55 -32.9 20.0 -33.1 20.25 -33.1 20.65 -32.95 23.75 -32.6 Q29.3 -29.85 34.15 -26.05 L34.6 -25.65 Q34.45 -14.1 27.75 -4.0 25.1 -0.05 21.6 3.15 L20.6 3.75 20.7 4.35 20.8 4.9 21.7 5.6 Q24.95 8.35 24.7 12.9 L24.75 13.25 Q23.65 17.85 20.0 20.6 L19.95 21.35 20.05 21.4 20.35 21.7 Q19.85 23.6 17.8 24.9 L17.6 25.1 Q10.4 29.05 2.1 29.05 L2.0 29.25 Q-7.25 29.0 -15.25 24.65 -16.05 24.2 -16.5 23.3 -17.8 23.1 -18.55 22.35 L-19.15 22.15 -19.3 21.65 -20.5 21.45 -20.3 21.2 -20.0 20.9 -19.8 20.95 -19.95 20.45 -20.4 20.3 Q-27.5 12.85 -22.8 4.55 L-22.9 4.55 -26.85 -1.55 -27.25 -1.5 -27.0 -1.8 Q-31.0 -9.05 -32.55 -17.2 L-32.75 -17.25 -32.6 -17.35 -32.8 -18.45 -33.25 -23.95 Q-28.7 -29.2 -23.3 -33.6 -22.65 -34.15 -21.75 -34.15 L-21.45 -33.75 -21.25 -33.5 -20.5 -33.6 -20.5 -33.7 -19.25 -33.55 -18.9 -33.2 -18.9 -32.15 -18.9 -31.15 -18.65 -30.75 -18.4 -30.45 Q-17.55 -20.6 -12.1 -12.0 L-11.65 -11.3 Q-14.3 -12.45 -15.8 -15.65 -19.4 -23.65 -20.15 -32.15 -20.25 -32.3 -20.3 -32.25 L-21.4 -31.7 Q-21.75 -21.85 -17.75 -12.95 L-17.4 -11.55 -17.0 -11.2 -16.9 -10.85 -16.9 -10.15 -16.4 -9.8 -15.95 -8.7 -15.75 -8.15 -13.5 -10.3 -12.9 -10.75 -12.5 -11.05 -12.0 -11.15 -11.8 -11.2 -11.65 -11.3 M23.85 -31.15 L22.95 -27.2 Q28.1 -24.75 32.65 -21.4 L33.1 -24.65 Q29.35 -28.45 24.25 -30.9 L23.85 -31.15 M2.1 -22.05 L-4.25 -22.4 -4.25 -20.35 -4.25 -16.0 -3.5 -16.05 4.65 -15.7 Q4.65 -18.75 3.85 -21.65 L2.1 -22.05 M4.65 -13.55 Q4.55 -13.95 4.6 -14.3 L4.65 -15.25 Q0.45 -14.35 -4.25 -15.1 L-4.25 -13.15 2.0 -13.75 4.65 -13.55 M9.1 -12.1 L-0.5 -12.0 Q-4.05 -12.05 -7.5 -11.15 L-12.15 -10.35 Q-13.1 -8.7 -14.9 -7.05 -17.35 -4.9 -18.35 -1.75 L-19.45 1.85 -20.25 10.25 -19.25 10.35 -19.2 10.4 -19.0 10.1 -18.85 10.05 -18.65 10.05 Q-15.75 0.3 -6.3 -5.85 L-1.75 -8.4 Q-0.6 -8.95 0.75 -9.0 L1.0 -8.6 1.05 -8.5 1.35 -8.65 2.5 -8.65 Q13.65 -2.6 18.7 8.25 L18.75 8.35 19.1 8.95 19.2 10.0 19.25 10.15 19.4 10.15 19.6 10.05 18.75 4.55 18.6 4.55 18.25 4.25 18.6 3.9 18.4 2.85 Q17.5 -0.95 16.15 -4.6 15.2 -7.1 13.85 -9.4 L13.5 -9.95 12.2 -10.7 11.5 -11.3 Q10.35 -11.45 9.25 -12.0 L9.1 -12.1 M1.0 -8.3 Q-12.5 -2.05 -17.85 10.8 L-16.25 10.95 -16.0 11.3 Q0.1 11.3 16.45 10.35 L18.2 10.25 16.1 6.95 Q11.05 -1.55 2.25 -7.2 1.15 -7.95 1.0 -8.3 M16.25 -7.95 L16.2 -7.9 18.5 -3.25 22.15 0.05 24.3 -2.65 24.25 -2.65 Q20.35 -6.15 17.5 -10.15 L16.25 -7.95 M17.65 -10.55 L24.85 -3.4 26.95 -6.6 27.15 -6.9 Q22.65 -10.1 19.05 -14.25 L17.7 -10.7 17.65 -10.55 M31.45 -16.5 L31.5 -16.7 32.4 -20.0 22.9 -26.95 21.8 -22.85 21.75 -22.75 22.0 -22.8 22.25 -22.8 Q27.15 -20.15 31.15 -16.75 L31.25 -16.55 Q26.4 -18.75 21.65 -22.3 L20.6 -18.9 Q25.65 -16.05 29.95 -12.35 L31.45 -16.5 M29.35 -11.05 Q25.25 -14.95 20.35 -18.1 L19.2 -14.8 27.6 -7.75 29.35 -11.05 M-22.65 -32.35 Q-27.7 -28.4 -31.75 -23.35 L-31.45 -18.6 Q-27.35 -22.75 -22.5 -25.95 L-22.65 -31.0 -22.65 -32.35 M-21.7 -20.6 L-22.45 -25.75 -30.9 -17.7 -31.15 -17.45 -31.25 -17.4 Q-30.9 -15.0 -30.2 -12.65 -26.8 -17.0 -21.9 -20.55 L-21.7 -20.55 -21.7 -20.6 M-24.3 -0.4 L-23.45 0.8 Q-21.45 -1.65 -18.65 -4.0 L-16.75 -7.05 -16.9 -7.05 -17.3 -7.7 -17.75 -8.45 -17.85 -9.45 -18.05 -9.85 Q-21.0 -5.8 -25.6 -2.35 L-24.3 -0.4 M-18.5 -10.5 L-19.8 -13.7 Q-23.5 -9.8 -28.05 -6.85 L-25.95 -2.95 Q-22.7 -6.55 -18.9 -9.8 L-18.5 -10.15 -18.25 -10.2 -18.5 -10.5 M-28.2 -7.15 Q-24.9 -11.3 -20.15 -14.75 -21.0 -17.2 -21.5 -19.6 -25.55 -15.55 -30.1 -12.25 -29.35 -9.7 -28.2 -7.15 M-19.25 12.35 L-19.75 12.95 Q-20.35 13.65 -20.25 14.65 -19.35 15.9 -18.15 16.1 -17.75 17.4 -17.85 18.8 L-18.1 20.45 -17.85 21.2 8.75 22.5 17.9 21.55 17.9 21.3 17.75 21.15 17.9 21.05 17.9 21.0 Q17.9 19.4 18.35 17.85 L14.8 18.75 10.5 19.2 Q-2.95 19.8 -16.4 18.45 L-17.45 17.7 -17.65 17.45 -17.0 17.0 -16.75 16.95 Q-2.1 18.4 12.75 17.55 L15.5 17.3 18.6 17.05 18.75 16.85 Q19.45 16.25 20.5 16.35 L20.1 14.65 19.85 14.4 19.8 12.45 19.7 11.5 19.35 11.4 19.25 11.75 19.05 11.45 18.6 11.5 18.45 11.3 16.5 11.7 -11.0 12.95 -17.55 12.7 Q-18.0 12.35 -18.5 12.1 L-18.5 12.15 -19.0 12.25 -19.25 12.35 M-17.2 22.0 Q-8.6 26.0 0.95 27.95 L1.0 27.85 Q10.6 27.4 17.85 22.15 8.55 24.4 -1.25 23.7 L-17.2 22.0 M-23.4 0.8 L-21.9 3.1 Q-21.35 2.45 -20.5 2.15 -20.2 -0.2 -19.45 -2.25 -20.85 -0.7 -22.8 0.55 L-23.4 0.8 M-20.95 10.55 L-20.55 10.25 Q-21.0 7.2 -20.4 3.9 -24.8 8.35 -22.55 14.6 -21.7 16.9 -20.1 18.65 L-20.3 16.75 -20.7 16.2 -21.5 15.35 -21.55 11.85 -21.55 11.75 -21.7 11.65 -21.6 11.3 -21.5 11.3 -21.25 10.85 -21.25 10.8 -20.95 10.55 M21.8 0.45 L18.8 -2.45 Q19.7 -0.2 20.25 2.2 L21.8 0.45 M21.75 6.85 L20.95 6.25 21.2 9.75 21.6 9.9 Q22.25 13.45 21.85 16.7 24.25 12.4 21.9 7.25 L21.75 6.85 M20.05 19.1 L20.75 18.3 20.0 18.45 20.05 19.1" fill="#000000" fill-rule="evenodd" stroke="none"/>
    <path d="M2.1 -22.05 L3.85 -21.65 Q4.65 -18.75 4.65 -15.7 L-3.5 -16.05 -4.25 -16.0 -4.25 -20.35 -4.25 -22.4 2.1 -22.05 M23.85 -31.15 L24.25 -30.9 Q29.35 -28.45 33.1 -24.65 L32.65 -21.4 Q28.1 -24.75 22.95 -27.2 L23.85 -31.15 M17.65 -10.55 L17.7 -10.7 19.05 -14.25 Q22.65 -10.1 27.15 -6.9 L26.95 -6.6 24.85 -3.4 17.65 -10.55 M31.45 -16.5 L29.95 -12.35 Q25.65 -16.05 20.6 -18.9 L21.65 -22.3 Q26.4 -18.75 31.25 -16.55 L31.45 -16.5 M-22.65 -32.35 L-22.65 -31.0 -22.5 -25.95 Q-27.35 -22.75 -31.45 -18.6 L-31.75 -23.35 Q-27.7 -28.4 -22.65 -32.35 M-24.3 -0.4 L-25.6 -2.35 Q-21.0 -5.8 -18.05 -9.85 L-17.85 -9.45 -17.75 -8.45 -17.3 -7.7 -16.9 -7.05 -16.75 -7.05 -18.65 -4.0 Q-21.45 -1.65 -23.45 0.8 L-24.3 -0.4 M-28.2 -7.15 Q-29.35 -9.7 -30.1 -12.25 -25.55 -15.55 -21.5 -19.6 -21.0 -17.2 -20.15 -14.75 -24.9 -11.3 -28.2 -7.15 M21.8 0.45 L20.25 2.2 Q19.7 -0.2 18.8 -2.45 L21.8 0.45" fill="#333333" fill-rule="evenodd" stroke="none"/>
  </g>
</svg>
