<?xml version="1.0" encoding="UTF-8" standalone="no"?>
<svg xmlns:xlink="http://www.w3.org/1999/xlink" height="67.1px" width="59.3px" xmlns="http://www.w3.org/2000/svg">
  <g transform="matrix(1.0, 0.0, 0.0, 1.0, 29.55, 41.15)">
    <path d="M20.8 -40.65 L21.25 -40.4 25.1 -40.15 25.45 -39.75 25.35 -39.15 Q31.65 -31.5 27.55 -22.1 26.75 -20.4 26.25 -18.6 L23.15 -8.4 24.35 -4.95 Q27.55 -0.7 28.9 4.75 29.45 5.6 29.65 6.75 L29.75 7.1 29.35 8.65 29.2 10.45 29.25 11.25 29.35 11.6 28.8 12.4 28.75 12.5 28.55 12.7 28.5 12.7 28.45 12.75 28.4 12.8 28.2 12.9 28.2 13.1 27.2 13.55 Q24.1 19.2 19.5 23.85 L19.15 24.25 18.65 24.4 Q16.3 26.45 13.2 25.75 6.95 26.5 0.45 23.95 -8.75 20.35 -16.7 15.1 L-16.6 14.85 -16.45 14.75 -16.8 14.6 Q-18.55 7.3 -16.55 0.3 -20.9 -3.9 -23.2 -9.9 -25.1 -14.8 -26.15 -19.8 L-26.9 -20.0 -26.3 -20.55 Q-27.25 -25.0 -27.55 -29.5 L-27.65 -32.5 Q-23.85 -35.25 -20.35 -38.65 L-20.4 -39.25 -20.05 -39.65 -18.1 -40.0 -17.7 -40.35 -17.1 -40.65 -17.05 -40.75 -15.75 -40.65 -15.4 -40.25 -15.0 -39.9 -14.95 -39.5 -14.9 -38.4 -14.65 -38.0 -14.35 -37.65 Q-13.6 -28.25 -8.8 -20.15 L-8.7 -20.9 -8.7 -21.25 Q-0.05 -27.85 11.35 -28.55 L14.0 -28.9 15.8 -28.65 16.05 -28.3 17.6 -28.4 18.25 -28.15 18.2 -27.3 18.8 -33.65 Q18.9 -35.8 19.5 -37.75 19.0 -38.4 19.1 -39.25 L19.1 -39.6 Q18.7 -40.85 19.7 -41.15 L20.45 -41.0 20.8 -40.65 M18.15 -26.6 L17.6 -15.75 18.8 -15.45 Q21.15 -24.95 23.05 -34.75 L23.55 -38.5 20.3 -39.25 20.45 -38.5 20.7 -37.75 Q19.8 -34.1 19.9 -30.25 19.9 -28.05 18.9 -26.15 18.5 -26.3 18.25 -26.6 L18.15 -26.75 18.15 -26.6 M23.0 -25.9 L25.3 -22.8 26.2 -26.9 23.9 -30.85 23.0 -25.9 M27.05 -32.95 Q26.3 -35.4 25.1 -37.55 L24.1 -31.85 26.55 -28.55 27.15 -31.95 27.05 -32.95 M16.55 -26.5 L13.55 -26.5 Q13.25 -23.35 13.4 -20.25 L13.7 -20.2 13.9 -20.1 14.0 -20.15 15.7 -19.95 16.35 -25.85 16.55 -26.5 M4.55 -25.25 Q-2.4 -24.1 -7.9 -20.15 L-8.3 -19.35 -7.4 -17.95 -6.45 -16.5 Q-3.0 -18.75 1.6 -19.5 L9.35 -20.75 12.05 -20.45 12.1 -21.3 12.25 -26.8 4.55 -25.25 M13.5 -19.95 L13.4 -19.95 13.4 -19.9 13.5 -19.95 M-15.45 14.65 Q-4.0 20.0 8.15 23.55 L10.45 24.15 8.25 20.75 7.9 20.35 7.9 20.0 7.9 19.6 7.7 19.25 7.35 18.85 Q7.35 17.5 7.0 16.2 6.85 15.7 6.85 15.1 L6.7 14.75 6.35 14.35 6.35 13.25 5.7 12.5 6.35 12.45 6.4 9.05 Q6.2 6.5 6.5 4.0 L6.75 3.8 6.9 3.75 Q7.2 1.2 8.5 -1.4 11.35 -7.15 16.5 -11.0 L16.4 -11.15 16.55 -11.35 16.7 -11.45 17.1 -11.5 17.2 -11.5 17.35 -11.5 17.6 -11.5 17.85 -11.5 18.25 -11.15 18.05 -11.0 21.4 -8.3 Q21.3 -8.45 21.35 -8.65 L21.5 -9.15 21.45 -9.25 18.5 -13.5 16.55 -14.0 Q6.35 -16.45 -4.25 -13.9 L-4.95 -13.8 -3.6 -11.1 -2.8 -9.85 -2.75 -9.8 -3.1 -9.45 -3.35 -9.4 -3.65 -9.15 -3.75 -9.25 -3.75 -9.05 -5.1 -7.95 -9.2 -4.55 Q-12.25 -2.05 -13.85 1.1 L-14.2 1.5 -14.25 1.85 -14.3 2.0 -14.45 2.05 -14.5 2.1 -15.3 1.45 Q-16.3 7.55 -15.25 13.9 L-15.25 14.25 -15.65 14.55 -15.45 14.65 M13.45 -19.2 L13.7 -16.6 15.55 -16.25 15.6 -18.55 Q14.5 -18.7 13.45 -19.2 M12.05 -19.8 Q3.4 -18.85 -5.15 -16.4 L-6.2 -16.05 -5.5 -14.9 -4.05 -15.6 -3.6 -15.9 -3.1 -16.0 2.1 -17.0 Q7.55 -17.55 12.9 -16.75 12.15 -18.05 12.05 -19.8 M21.35 -17.2 L20.8 -15.35 20.15 -14.0 20.75 -12.9 22.0 -10.8 23.15 -14.6 23.2 -14.65 23.05 -14.65 21.6 -17.3 21.4 -17.6 21.35 -17.2 M23.65 -16.2 L25.0 -21.5 Q23.6 -23.05 22.8 -24.85 L21.75 -19.3 Q23.05 -17.95 23.65 -16.2 M22.8 4.1 L25.05 4.25 27.05 4.25 Q24.2 -4.3 17.25 -10.25 11.1 -4.5 8.65 3.15 L22.6 4.2 22.8 4.1 M27.55 11.0 L27.85 6.85 24.45 6.0 11.5 5.3 9.85 5.0 8.4 5.1 Q7.95 5.95 8.05 7.0 L8.05 8.1 8.05 8.5 8.0 9.65 8.2 12.35 Q13.4 12.0 19.15 12.25 L25.9 11.55 Q26.35 10.95 27.5 11.0 L27.55 11.0 M22.7 13.65 Q15.85 15.4 8.5 13.95 L9.45 17.45 9.5 17.45 9.85 17.35 10.1 17.35 10.75 17.75 11.15 18.0 22.65 17.5 25.85 13.25 22.7 13.65 M17.25 23.35 L17.4 23.0 17.6 22.75 20.95 19.4 Q15.65 21.0 10.15 19.2 L11.65 22.15 13.05 23.85 17.25 23.35 M1.9 9.15 L-7.6 10.2 -9.15 10.1 Q-8.8 11.85 -7.65 13.75 -6.6 15.5 -4.5 15.75 L0.0 16.0 Q2.5 12.55 1.9 9.15 M-9.8 5.85 L-9.55 5.15 Q-7.9 1.5 -4.0 0.6 L-1.95 0.9 -1.75 1.1 Q2.6 3.85 3.6 8.95 4.65 14.25 0.25 17.6 -8.95 18.95 -10.25 10.7 -10.65 8.2 -9.8 5.85 M-18.75 -38.0 Q-18.25 -32.25 -16.6 -26.9 L-16.3 -26.9 -16.5 -26.55 Q-13.95 -18.35 -8.7 -10.95 -8.35 -10.45 -8.4 -9.9 L-7.65 -9.15 -6.95 -9.15 -6.9 -9.2 Q-6.3 -9.0 -5.55 -9.5 L-5.4 -9.9 -5.4 -9.95 -4.55 -10.0 -7.4 -15.65 -8.0 -15.4 -7.95 -15.45 -7.5 -15.8 -8.0 -16.85 -7.95 -17.15 -7.9 -17.5 -8.25 -18.25 -9.55 -20.15 -9.7 -20.15 -13.0 -26.95 Q-14.55 -30.1 -14.8 -33.55 -15.1 -37.3 -17.05 -39.0 -17.5 -38.45 -18.1 -38.25 L-18.75 -38.0 M-25.6 -26.9 L-24.75 -22.0 Q-21.75 -24.65 -17.95 -26.45 L-19.05 -30.85 Q-21.95 -28.75 -25.15 -27.0 L-25.6 -26.9 Q-23.25 -30.25 -19.25 -31.8 L-20.15 -37.15 Q-22.7 -34.25 -25.8 -31.95 L-26.1 -31.65 -25.6 -26.9 M-16.35 -21.55 L-17.3 -24.3 -17.65 -25.3 -20.35 -23.4 -24.5 -20.8 -23.25 -16.35 -16.55 -21.5 -16.35 -21.55 M-22.85 -15.05 L-21.05 -10.4 Q-18.0 -13.75 -13.65 -16.15 L-15.25 -19.2 -15.8 -20.35 -18.4 -18.2 Q-20.1 -16.65 -22.25 -15.4 L-22.85 -15.05 M-10.7 -10.2 L-13.0 -8.2 Q-15.3 -6.4 -17.85 -5.0 L-18.6 -5.15 Q-17.15 -2.5 -14.65 -0.75 -11.45 -3.95 -8.65 -7.55 -9.6 -8.05 -10.25 -9.25 L-10.7 -10.2 M-11.2 -10.95 L-11.1 -11.0 -13.3 -15.35 Q-16.9 -12.4 -20.75 -9.55 L-19.0 -5.95 -11.2 -10.95 M-3.75 1.5 L-4.4 1.55 -4.75 1.6 Q-10.05 5.0 -9.25 9.75 L-6.25 8.9 -5.55 8.7 -5.5 8.6 1.85 9.0 Q1.35 6.55 -0.8 4.15 -2.15 2.65 -3.75 1.5" fill="#000000" fill-rule="evenodd" stroke="none"/>
    <path d="M4.55 -25.25 L12.25 -26.8 12.1 -21.3 12.05 -20.45 9.35 -20.75 1.6 -19.5 Q-3.0 -18.75 -6.45 -16.5 L-7.4 -17.95 -8.3 -19.35 -7.9 -20.15 Q-2.4 -24.1 4.55 -25.25 M16.55 -26.5 L16.35 -25.85 15.7 -19.95 14.0 -20.15 13.9 -20.1 13.7 -20.2 13.4 -20.25 Q13.25 -23.35 13.55 -26.5 L16.55 -26.5 M27.05 -32.95 L27.15 -31.95 26.55 -28.55 24.1 -31.85 25.1 -37.55 Q26.3 -35.4 27.05 -32.95 M23.65 -16.2 Q23.05 -17.95 21.75 -19.3 L22.8 -24.85 Q23.6 -23.05 25.0 -21.5 L23.65 -16.2 M-25.6 -26.9 L-26.1 -31.65 -25.8 -31.95 Q-22.7 -34.25 -20.15 -37.15 L-19.25 -31.8 Q-23.25 -30.25 -25.6 -26.9 M-16.55 -21.5 L-23.25 -16.35 -24.5 -20.8 -20.35 -23.4 -17.65 -25.3 -17.3 -24.3 -16.35 -21.55 -16.55 -21.5 M-11.2 -10.95 L-19.0 -5.95 -20.75 -9.55 Q-16.9 -12.4 -13.3 -15.35 L-11.1 -11.0 -11.2 -10.95" fill="#333333" fill-rule="evenodd" stroke="none"/>
    <path d="M18.25 -26.6 Q18.5 -26.3 18.9 -26.15 19.9 -28.05 19.9 -30.25 19.8 -34.1 20.7 -37.75 L20.45 -38.5 20.3 -39.25 23.55 -38.5 23.05 -34.75 Q21.15 -24.95 18.8 -15.45 L17.6 -15.75 18.15 -26.6 18.25 -26.6 M23.0 -25.9 L23.9 -30.85 26.2 -26.9 25.3 -22.8 23.0 -25.9 M-15.25 14.25 L-15.25 13.9 Q-16.3 7.55 -15.3 1.45 L-14.5 2.1 -14.45 2.05 -14.3 2.0 -14.25 1.85 -14.2 1.5 -13.85 1.1 Q-12.25 -2.05 -9.2 -4.55 L-5.1 -7.95 -3.75 -9.05 -3.75 -9.25 -3.65 -9.15 -3.35 -9.4 -3.1 -9.45 -2.75 -9.8 -2.8 -9.85 -3.6 -11.1 -4.95 -13.8 -4.25 -13.9 Q6.35 -16.45 16.55 -14.0 L18.5 -13.5 21.45 -9.25 21.5 -9.15 21.35 -8.65 Q21.3 -8.45 21.4 -8.3 L18.05 -11.0 18.25 -11.15 17.85 -11.5 17.6 -11.5 17.35 -11.5 17.2 -11.5 17.1 -11.5 16.7 -11.45 16.55 -11.35 16.4 -11.15 16.5 -11.0 Q11.35 -7.15 8.5 -1.4 7.2 1.2 6.9 3.75 L6.75 3.8 6.5 4.0 Q6.2 6.5 6.4 9.05 L6.35 12.45 5.7 12.5 6.35 13.25 6.35 14.35 6.7 14.75 6.85 15.1 Q6.85 15.7 7.0 16.2 7.35 17.5 7.35 18.85 L7.7 19.25 7.9 19.6 7.9 20.0 7.9 20.35 8.25 20.75 10.45 24.15 8.15 23.55 Q-4.0 20.0 -15.45 14.65 L-15.25 14.25 M23.15 -14.6 L22.0 -10.8 20.75 -12.9 20.15 -14.0 20.8 -15.35 21.35 -17.2 21.6 -17.3 23.05 -14.65 23.15 -14.6 M12.05 -19.8 Q12.15 -18.05 12.9 -16.75 7.55 -17.55 2.1 -17.0 L-3.1 -16.0 -3.6 -15.9 -4.05 -15.6 -5.5 -14.9 -6.2 -16.05 -5.15 -16.4 Q3.4 -18.85 12.05 -19.8 M13.45 -19.2 Q14.5 -18.7 15.6 -18.55 L15.55 -16.25 13.7 -16.6 13.45 -19.2 M22.8 4.1 L22.6 4.2 8.65 3.15 Q11.1 -4.5 17.25 -10.25 24.2 -4.3 27.05 4.25 L25.05 4.25 22.8 4.1 M27.55 11.0 L27.5 11.0 Q26.35 10.95 25.9 11.55 L19.15 12.25 Q13.4 12.0 8.2 12.35 L8.0 9.65 8.05 8.5 8.05 8.1 8.05 7.0 Q7.95 5.95 8.4 5.1 L9.85 5.0 11.5 5.3 24.45 6.0 27.85 6.85 27.55 11.0 M-9.8 5.85 Q-10.65 8.2 -10.25 10.7 -8.95 18.95 0.25 17.6 4.65 14.25 3.6 8.95 2.6 3.85 -1.75 1.1 L-1.95 0.9 -4.0 0.6 Q-7.9 1.5 -9.55 5.15 L-9.8 5.85 -10.25 5.75 -10.35 6.1 -9.8 5.85 M1.9 9.15 Q2.5 12.55 0.0 16.0 L-4.5 15.75 Q-6.6 15.5 -7.65 13.75 -8.8 11.85 -9.15 10.1 L-7.6 10.2 1.9 9.15 M17.25 23.35 L13.05 23.85 11.65 22.15 10.15 19.2 Q15.65 21.0 20.95 19.4 L17.6 22.75 17.4 23.0 17.25 23.35 M22.7 13.65 L25.85 13.25 22.65 17.5 11.15 18.0 10.75 17.75 10.1 17.35 9.85 17.35 9.5 17.45 9.45 17.45 8.5 13.95 Q15.85 15.4 22.7 13.65 M-25.6 -26.9 L-25.15 -27.0 Q-21.95 -28.75 -19.05 -30.85 L-17.95 -26.45 Q-21.75 -24.65 -24.75 -22.0 L-25.6 -26.9 M-18.75 -38.0 L-18.1 -38.25 Q-17.5 -38.45 -17.05 -39.0 -15.1 -37.3 -14.8 -33.55 -14.55 -30.1 -13.0 -26.95 L-9.7 -20.15 -9.55 -20.15 -8.25 -18.25 -7.9 -17.5 -7.95 -17.15 -8.0 -16.85 -7.5 -15.8 -7.95 -15.45 -8.0 -15.4 -7.4 -15.65 -4.55 -10.0 -5.4 -9.95 -5.4 -9.9 -5.55 -9.5 Q-6.3 -9.0 -6.9 -9.2 L-6.95 -9.15 -7.65 -9.15 -8.4 -9.9 Q-8.35 -10.45 -8.7 -10.95 -13.95 -18.35 -16.5 -26.55 L-16.3 -26.9 -16.6 -26.9 Q-18.25 -32.25 -18.75 -38.0 M-29.25 -14.45 L-29.55 -13.6 -29.55 -14.45 -29.25 -14.45 M-10.7 -10.2 L-10.25 -9.25 Q-9.6 -8.05 -8.65 -7.55 -11.45 -3.95 -14.65 -0.75 -17.15 -2.5 -18.6 -5.15 L-17.85 -5.0 Q-15.3 -6.4 -13.0 -8.2 L-10.7 -10.2 M-22.85 -15.05 L-22.25 -15.4 Q-20.1 -16.65 -18.4 -18.2 L-15.8 -20.35 -15.25 -19.2 -13.65 -16.15 Q-18.0 -13.75 -21.05 -10.4 L-22.85 -15.05 M-3.75 1.5 Q-2.15 2.65 -0.8 4.15 1.35 6.55 1.85 9.0 L-5.5 8.6 -5.55 8.7 -6.25 8.9 -9.25 9.75 Q-10.05 5.0 -4.75 1.6 L-4.4 1.55 -3.75 1.5" fill="#51684d" fill-rule="evenodd" stroke="none"/>
  </g>
</svg>
