<?xml version="1.0" encoding="UTF-8" standalone="no"?>
<svg xmlns:xlink="http://www.w3.org/1999/xlink" height="67.9px" width="64.3px" xmlns="http://www.w3.org/2000/svg">
  <g transform="matrix(1.0, 0.0, 0.0, 1.0, 26.6, 55.25)">
    <path d="M26.1 -52.75 L27.0 -53.15 31.25 -53.65 Q31.75 -54.3 32.5 -54.3 L32.5 -54.4 33.1 -54.15 33.3 -53.35 33.35 -53.0 33.35 -52.9 37.1 -48.5 37.6 -48.15 Q38.25 -41.1 35.45 -34.1 L33.6 -29.4 Q30.8 -21.7 25.5 -15.65 L25.45 -15.6 Q25.25 -12.45 24.65 -9.45 24.4 -8.05 23.6 -6.9 23.75 -5.65 23.1 -4.55 L22.5 -3.15 Q21.65 -2.6 21.3 -1.65 L21.15 -1.25 21.15 -1.15 21.6 0.0 21.4 0.25 21.15 0.4 Q20.6 9.15 10.45 11.8 -1.15 14.9 -10.15 6.9 L-11.35 5.8 Q-13.25 4.1 -14.65 1.9 L-14.9 2.0 -19.0 -6.65 -19.15 -7.0 -19.05 -7.05 -19.4 -7.5 Q-20.1 -12.35 -18.8 -16.5 -21.55 -21.55 -23.45 -27.15 L-25.15 -33.4 -25.9 -37.45 -26.25 -37.4 -26.1 -38.1 -26.0 -38.25 Q-26.9 -44.9 -26.4 -51.75 L-19.15 -53.8 -19.15 -53.9 Q-17.05 -54.4 -15.5 -55.25 L-14.75 -55.15 -14.4 -54.75 Q-12.45 -43.0 -7.35 -32.15 L-7.15 -32.35 -7.05 -32.1 -4.2 -33.4 -3.55 -33.25 -2.8 -34.15 Q-1.2 -35.85 1.0 -36.25 4.45 -36.65 7.45 -35.05 L7.95 -35.3 8.0 -35.4 Q12.7 -35.1 17.05 -33.0 L17.25 -32.75 17.25 -32.4 17.05 -31.7 18.55 -30.85 18.75 -30.9 Q20.15 -33.05 22.0 -35.0 L22.5 -35.1 22.55 -35.1 Q25.0 -41.45 25.85 -48.25 L25.85 -48.65 26.1 -49.0 26.35 -49.4 26.25 -52.0 26.1 -52.75 M31.1 -51.4 L31.1 -51.65 27.6 -51.4 Q26.75 -42.5 23.75 -34.1 22.45 -32.05 20.5 -30.15 L20.4 -29.75 20.5 -29.0 21.2 -28.6 21.5 -28.4 22.25 -28.85 22.4 -28.7 22.7 -29.2 24.2 -31.95 25.2 -33.95 26.1 -35.75 26.1 -35.9 26.35 -36.45 26.35 -36.5 26.4 -36.5 Q29.5 -43.65 31.1 -51.4 M36.0 -46.9 Q34.35 -48.9 32.95 -51.05 L31.45 -45.25 Q33.2 -44.6 34.35 -43.35 L34.6 -43.0 35.2 -42.6 35.5 -42.35 35.8 -43.9 36.0 -46.9 M30.25 -41.15 L34.05 -36.8 35.2 -41.15 34.6 -41.0 Q33.1 -42.85 31.15 -44.15 L30.15 -41.15 30.25 -41.15 M31.25 -30.15 Q29.25 -32.3 27.55 -34.65 L25.95 -31.2 Q27.75 -28.45 29.7 -25.9 L31.6 -30.0 31.75 -30.35 31.25 -30.15 M23.95 -27.35 Q26.1 -25.05 27.65 -22.05 L28.8 -24.15 25.4 -30.1 23.95 -27.35 M31.9 -31.35 L32.05 -31.15 32.1 -31.25 33.6 -35.4 Q31.2 -37.4 29.7 -39.9 L28.1 -35.9 31.9 -31.35 M5.25 -27.35 L5.75 -29.85 5.95 -29.7 Q6.25 -31.9 6.85 -33.95 2.45 -35.55 -1.05 -33.65 L0.7 -33.5 0.65 -33.3 Q3.7 -30.75 5.05 -27.25 L5.2 -26.85 5.25 -27.35 M13.2 -24.2 L13.9 -27.7 14.55 -28.2 14.6 -28.2 14.85 -28.65 14.95 -29.0 14.95 -29.75 14.85 -30.5 15.0 -30.85 15.2 -31.25 15.35 -31.9 12.5 -32.7 Q11.45 -32.95 10.5 -33.5 L8.6 -33.4 Q7.9 -31.35 7.7 -29.25 7.5 -27.2 6.65 -25.5 L13.15 -23.9 13.2 -24.2 M16.0 -29.75 L15.85 -28.65 15.6 -27.9 15.35 -27.5 15.35 -27.15 15.15 -26.0 14.8 -25.25 14.6 -24.9 14.45 -25.2 14.5 -25.4 14.0 -23.5 14.0 -23.45 13.45 -21.2 13.65 -20.5 13.75 -20.15 13.55 -19.8 13.25 -19.4 5.6 -21.0 5.5 -21.2 5.1 -21.0 5.05 -21.4 4.85 -21.45 4.7 -21.75 4.5 -22.15 4.35 -22.5 4.65 -23.6 Q3.35 -28.8 -0.05 -32.6 L-2.5 -32.0 -3.0 -32.15 Q-5.1 -31.75 -7.0 -30.75 L-5.45 -28.35 -5.25 -28.0 Q-5.75 -26.2 -7.75 -25.4 L-9.9 -25.4 -10.25 -25.75 -10.25 -26.15 -10.25 -26.5 -10.55 -26.8 -10.8 -26.8 -12.55 -24.25 -12.4 -24.15 -13.0 -23.55 -13.15 -23.4 -13.2 -23.35 -14.25 -22.2 Q-16.05 -19.95 -16.95 -17.35 L-15.1 -14.3 Q-14.55 -17.25 -14.55 -20.4 -14.55 -21.4 -14.15 -22.15 L-14.0 -22.2 -13.5 -22.4 -12.9 -22.15 Q-12.05 -13.65 -15.75 -6.0 -16.05 -5.4 -16.55 -5.15 L-15.05 -2.15 -15.0 -2.25 -14.5 -2.35 -14.35 -2.4 Q-8.35 -10.5 1.55 -13.65 4.3 -14.55 7.0 -14.75 L9.15 -14.45 Q8.95 -14.85 9.5 -15.0 14.3 -12.95 17.25 -8.15 L19.8 -3.85 20.65 -2.2 Q26.05 -13.85 21.35 -25.7 19.1 -28.2 16.3 -30.1 L16.1 -30.2 16.0 -30.15 16.0 -29.75 M12.6 -22.9 L6.6 -23.75 6.6 -22.65 6.6 -22.4 Q9.45 -21.45 12.6 -21.5 L12.6 -22.65 12.6 -22.9 M19.75 -0.95 Q15.85 -7.3 10.7 -12.75 L10.0 -13.5 Q2.45 -13.35 -4.5 -9.0 -6.8 -7.6 -8.7 -5.65 L-11.7 -2.95 Q-7.95 -1.4 -4.25 0.85 L-4.0 1.0 Q6.75 4.8 16.95 0.6 18.15 0.1 19.1 -0.9 L19.7 -0.75 19.75 -0.75 19.75 -0.95 M26.9 -20.8 Q25.45 -22.75 24.25 -24.8 24.8 -22.9 24.95 -20.75 L25.0 -20.4 25.25 -20.0 25.5 -19.65 25.55 -18.7 26.9 -20.8 M19.0 1.1 L19.65 0.0 18.8 0.95 Q15.75 4.1 11.0 4.5 -2.65 5.6 -13.25 -1.85 L-14.35 -1.15 -14.1 -0.5 -13.9 -0.15 -13.9 0.25 -13.9 0.6 Q-6.5 10.35 5.6 10.25 9.9 10.25 13.75 8.3 16.0 7.15 17.6 5.25 L17.9 4.45 18.0 4.1 Q19.0 3.0 19.0 1.5 L19.0 1.1 M-15.6 -52.75 L-15.65 -53.15 -15.7 -53.1 -17.75 -52.5 Q-17.65 -45.15 -15.3 -38.5 L-15.25 -38.5 -14.9 -38.15 -15.1 -37.95 Q-13.5 -33.45 -10.8 -29.25 L-10.55 -28.85 -10.5 -28.9 -10.4 -28.95 -10.3 -28.95 -10.25 -28.9 -10.45 -28.15 -10.45 -28.1 Q-9.85 -27.9 -9.25 -27.0 L-8.0 -27.0 -7.65 -27.4 -7.4 -27.75 Q-8.1 -29.9 -9.2 -31.85 L-9.65 -32.65 -9.65 -33.0 -9.65 -33.4 Q-10.05 -33.9 -10.1 -34.5 L-9.9 -34.6 Q-14.15 -43.2 -15.6 -52.75 M-24.65 -50.65 L-24.75 -44.45 Q-22.35 -46.55 -18.9 -47.7 L-19.2 -52.5 Q-21.45 -50.85 -24.65 -50.65 M-17.8 -41.5 Q-19.0 -40.35 -20.95 -39.45 -22.5 -38.7 -24.15 -38.05 L-23.3 -33.65 -16.75 -37.9 -17.8 -41.5 M-18.8 -46.7 Q-20.95 -44.8 -24.7 -44.1 L-24.35 -39.4 Q-21.3 -41.2 -18.05 -42.5 L-18.8 -46.7 M-20.0 -23.9 Q-20.35 -24.3 -19.7 -24.95 L-19.5 -25.25 -12.9 -29.65 -14.75 -33.1 Q-17.25 -29.8 -21.65 -27.9 L-20.7 -25.25 -20.1 -23.8 -17.8 -18.95 -16.2 -21.65 -15.5 -23.05 Q-14.25 -25.15 -12.45 -26.85 L-11.7 -27.75 -12.35 -28.75 Q-15.55 -25.9 -19.5 -24.1 L-20.0 -23.9 M-15.05 -33.75 L-16.35 -36.85 Q-19.45 -34.3 -23.05 -32.55 L-21.8 -28.35 -15.25 -33.6 -15.05 -33.75 M-17.1 -8.25 Q-16.15 -10.3 -15.55 -12.5 -16.55 -12.95 -17.25 -13.9 L-17.5 -14.25 -17.6 -14.45 -17.65 -14.25 Q-18.0 -11.5 -17.45 -8.4 L-17.25 -8.0 -17.1 -8.25" fill="#000000" fill-rule="evenodd" stroke="none"/>
    <path d="M36.0 -46.9 L35.8 -43.9 35.5 -42.35 35.2 -42.6 34.6 -43.0 34.35 -43.35 Q33.2 -44.6 31.45 -45.25 L32.95 -51.05 Q34.35 -48.9 36.0 -46.9 M23.95 -27.35 L25.4 -30.1 28.8 -24.15 27.65 -22.05 Q26.1 -25.05 23.95 -27.35 M32.1 -31.25 L31.9 -31.35 28.1 -35.9 29.7 -39.9 Q31.2 -37.4 33.6 -35.4 L32.1 -31.25 M5.05 -27.25 Q3.7 -30.75 0.65 -33.3 L0.7 -33.5 -1.05 -33.65 Q2.45 -35.55 6.85 -33.95 6.25 -31.9 5.95 -29.7 L5.75 -29.85 5.25 -27.35 5.05 -27.25 M13.15 -23.9 L6.65 -25.5 Q7.5 -27.2 7.7 -29.25 7.9 -31.35 8.6 -33.4 L10.5 -33.5 Q11.45 -32.95 12.5 -32.7 L15.35 -31.9 15.2 -31.25 15.0 -30.85 14.85 -30.5 14.95 -29.75 14.95 -29.0 14.85 -28.65 14.6 -28.2 14.55 -28.2 13.9 -27.7 13.2 -24.2 13.15 -23.9 M-17.8 -41.5 L-16.75 -37.9 -23.3 -33.65 -24.15 -38.05 Q-22.5 -38.7 -20.95 -39.45 -19.0 -40.35 -17.8 -41.5 M-24.65 -50.65 Q-21.45 -50.85 -19.2 -52.5 L-18.9 -47.7 Q-22.35 -46.55 -24.75 -44.45 L-24.65 -50.65 M-20.1 -23.8 L-20.7 -25.25 -21.65 -27.9 Q-17.25 -29.8 -14.75 -33.1 L-12.9 -29.65 -19.5 -25.25 -19.7 -24.95 Q-20.35 -24.3 -20.0 -23.9 L-20.1 -23.8" fill="#333333" fill-rule="evenodd" stroke="none"/>
    <path d="M31.1 -51.65 L31.1 -51.4 Q29.5 -43.65 26.4 -36.5 L26.35 -36.5 26.35 -36.45 26.1 -35.9 26.1 -35.75 25.2 -33.95 24.2 -31.95 22.7 -29.2 22.4 -28.7 22.25 -28.85 21.5 -28.4 21.2 -28.6 20.5 -29.0 20.4 -29.75 20.5 -30.15 Q22.45 -32.05 23.75 -34.1 26.75 -42.5 27.6 -51.4 L31.1 -51.65 M30.15 -41.15 L31.15 -44.15 Q33.1 -42.85 34.6 -41.0 L35.2 -41.15 34.05 -36.8 30.25 -41.15 30.15 -41.15 M31.6 -30.0 L29.7 -25.9 Q27.75 -28.45 25.95 -31.2 L27.55 -34.65 Q29.25 -32.3 31.25 -30.15 L31.6 -30.0 M16.3 -30.1 Q19.1 -28.2 21.35 -25.7 26.05 -13.85 20.65 -2.2 L19.8 -3.85 17.25 -8.15 Q14.3 -12.95 9.5 -15.0 8.95 -14.85 9.15 -14.45 L7.0 -14.75 Q4.3 -14.55 1.55 -13.65 -8.35 -10.5 -14.35 -2.4 L-14.5 -2.35 -15.0 -2.25 -15.05 -2.15 -16.55 -5.15 Q-16.05 -5.4 -15.75 -6.0 -12.05 -13.65 -12.9 -22.15 L-13.5 -22.4 -14.0 -22.2 -14.15 -22.15 Q-14.55 -21.4 -14.55 -20.4 -14.55 -17.25 -15.1 -14.3 L-16.95 -17.35 Q-16.05 -19.95 -14.25 -22.2 L-13.2 -23.35 -13.15 -23.4 -13.0 -23.55 -12.4 -24.15 -12.55 -24.25 -10.8 -26.8 -10.55 -26.8 -10.25 -26.5 -10.25 -26.15 -10.25 -25.75 -9.9 -25.4 -7.75 -25.4 Q-5.75 -26.2 -5.25 -28.0 L-5.45 -28.35 -7.0 -30.75 Q-5.1 -31.75 -3.0 -32.15 L-2.5 -32.0 -0.05 -32.6 Q3.35 -28.8 4.65 -23.6 L4.35 -22.5 4.5 -22.15 4.7 -21.75 4.85 -21.45 5.05 -21.4 5.1 -21.0 5.5 -21.2 5.6 -21.0 13.25 -19.4 13.55 -19.8 13.75 -20.15 13.65 -20.5 13.45 -21.2 14.0 -23.45 14.0 -23.5 14.5 -25.4 14.45 -25.2 14.6 -24.9 14.8 -25.25 15.15 -26.0 15.35 -27.15 15.35 -27.5 15.6 -27.9 15.85 -28.65 16.0 -29.75 16.3 -30.1 M19.7 -0.75 L19.1 -0.9 Q18.15 0.1 16.95 0.6 6.75 4.8 -4.0 1.0 L-4.25 0.85 Q-7.95 -1.4 -11.7 -2.95 L-8.7 -5.65 Q-6.8 -7.6 -4.5 -9.0 2.45 -13.35 10.0 -13.5 L10.7 -12.75 Q15.85 -7.3 19.75 -0.95 L19.7 -0.75 M12.6 -22.9 L12.6 -22.65 12.6 -21.5 Q9.45 -21.45 6.6 -22.4 L6.6 -22.65 6.6 -23.75 12.6 -22.9 M26.9 -20.8 L25.55 -18.7 25.5 -19.65 25.25 -20.0 25.0 -20.4 24.95 -20.75 Q24.8 -22.9 24.25 -24.8 25.45 -22.75 26.9 -20.8 M19.0 1.1 L19.0 1.5 Q19.0 3.0 18.0 4.1 L17.9 4.45 17.6 5.25 Q16.0 7.15 13.75 8.3 9.9 10.25 5.6 10.25 -6.5 10.35 -13.9 0.6 L-13.9 0.25 -13.9 -0.15 -14.1 -0.5 -14.35 -1.15 -13.25 -1.85 Q-2.65 5.6 11.0 4.5 15.75 4.1 18.8 0.95 L19.0 1.1 M-15.7 -53.1 L-15.6 -52.75 Q-14.15 -43.2 -9.9 -34.6 L-10.1 -34.5 Q-10.05 -33.9 -9.65 -33.4 L-9.65 -33.0 -9.65 -32.65 -9.2 -31.85 Q-8.1 -29.9 -7.4 -27.75 L-7.65 -27.4 -8.0 -27.0 -9.25 -27.0 Q-9.85 -27.9 -10.45 -28.1 L-10.45 -28.15 -10.25 -28.9 -10.3 -28.95 -10.4 -28.95 -10.5 -28.9 -10.8 -29.25 Q-13.5 -33.45 -15.1 -37.95 L-14.9 -38.15 -15.25 -38.5 -15.3 -38.5 Q-17.65 -45.15 -17.75 -52.5 L-15.7 -53.1 M-18.8 -46.7 L-18.05 -42.5 Q-21.3 -41.2 -24.35 -39.4 L-24.7 -44.1 Q-20.95 -44.8 -18.8 -46.7 M-20.1 -23.8 L-20.0 -23.9 -19.5 -24.1 Q-15.55 -25.9 -12.35 -28.75 L-11.7 -27.75 -12.45 -26.85 Q-14.25 -25.15 -15.5 -23.05 L-16.2 -21.65 -17.8 -18.95 -20.1 -23.8 M-17.5 -14.25 L-17.25 -13.9 Q-16.55 -12.95 -15.55 -12.5 -16.15 -10.3 -17.1 -8.25 L-17.45 -8.4 Q-18.0 -11.5 -17.65 -14.25 L-17.5 -14.25 M-15.05 -33.75 L-15.25 -33.6 -21.8 -28.35 -23.05 -32.55 Q-19.45 -34.3 -16.35 -36.85 L-15.05 -33.75" fill="#51684d" fill-rule="evenodd" stroke="none"/>
  </g>
</svg>
