<?xml version="1.0" encoding="UTF-8" standalone="no"?>
<svg xmlns:xlink="http://www.w3.org/1999/xlink" height="63.4px" width="67.85px" xmlns="http://www.w3.org/2000/svg">
  <g transform="matrix(1.0, 0.0, 0.0, 1.0, 34.25, 36.2)">
    <path d="M-20.3 2.3 L-20.2 1.7 -21.25 1.1 Q-24.75 -2.1 -27.4 -6.05 -34.1 -16.15 -34.25 -27.7 L-33.8 -28.1 Q-28.95 -31.9 -23.4 -34.65 L-20.3 -35.0 -19.9 -35.15 -19.65 -35.15 -19.2 -34.95 -19.0 -34.65 Q-19.35 -33.4 -19.05 -32.15 -16.6 -23.05 -12.55 -14.5 L-11.15 -15.15 -11.15 -15.1 -11.3 -14.9 -9.65 -14.95 -9.6 -14.95 -5.5 -15.5 -5.45 -14.6 -5.4 -14.1 -8.75 -14.15 -8.9 -14.05 Q-10.0 -13.5 -11.15 -13.35 L-11.85 -12.75 -13.15 -12.0 -13.5 -11.45 Q-14.85 -9.15 -15.8 -6.65 -17.1 -3.2 -17.9 0.35 L-19.15 2.85 -19.35 3.25 Q-20.3 7.45 -19.7 11.25 L-19.95 11.5 -19.85 13.25 -20.15 14.3 -19.7 14.3 Q-19.2 16.95 -17.45 19.15 L-17.55 19.25 -17.55 19.5 -17.15 19.55 -16.4 20.35 -17.45 20.1 Q-10.25 25.35 -0.65 25.8 L-0.6 25.9 Q8.95 23.95 17.55 19.95 L15.85 20.2 17.35 19.25 18.25 19.15 18.45 18.45 19.5 17.85 19.5 17.75 19.7 10.65 19.65 10.6 19.7 10.55 20.1 2.7 19.85 -0.2 18.7 -3.8 Q17.7 -6.95 15.25 -9.1 13.45 -10.75 12.5 -12.4 L7.85 -13.2 5.4 -13.7 Q5.2 -2.95 4.15 7.75 L3.8 8.1 -3.05 8.05 -3.7 7.85 -4.05 5.65 -4.2 3.85 -4.6 3.75 -4.6 3.4 -4.35 3.0 -4.3 3.0 Q-5.2 -7.45 -5.2 -18.0 L-5.2 -23.65 -4.85 -24.05 -4.8 -24.05 -4.75 -24.85 -4.4 -25.15 -3.9 -25.55 -1.75 -25.7 4.85 -26.1 4.9 -26.05 Q5.1 -25.9 5.35 -25.85 L5.75 -25.55 6.1 -25.15 6.15 -17.85 6.35 -17.8 6.75 -17.65 6.15 -17.45 6.1 -15.0 Q9.5 -14.45 12.0 -13.35 L12.45 -14.05 Q17.9 -22.65 18.75 -32.5 L19.0 -32.8 19.25 -33.2 19.25 -34.2 19.25 -35.25 19.6 -35.6 20.85 -35.75 20.85 -35.65 21.65 -35.55 21.8 -35.8 22.1 -36.2 Q23.0 -36.2 23.65 -35.65 29.05 -31.25 33.6 -26.0 L33.15 -20.5 32.95 -19.4 33.1 -19.3 32.95 -19.25 Q31.35 -11.1 27.35 -3.85 L27.6 -3.55 27.25 -3.6 Q25.45 -0.5 23.25 2.5 L23.2 2.5 Q27.85 10.8 20.75 18.25 L20.35 18.4 20.15 18.9 20.35 18.85 20.65 19.15 20.85 19.4 19.7 19.6 19.5 20.1 18.95 20.3 Q18.15 21.05 16.85 21.25 L15.6 22.6 Q7.6 26.95 -1.65 27.2 L-1.7 27.0 Q-10.05 27.0 -17.25 23.05 L-17.45 22.85 Q-19.5 21.55 -20.0 19.65 L-19.7 19.35 -19.6 19.3 -19.65 18.55 Q-23.3 15.8 -24.4 11.2 L-24.35 10.85 Q-24.6 6.3 -21.3 3.55 L-20.4 2.85 -20.3 2.3 M12.0 -13.35 L12.15 -13.25 12.35 -13.2 12.85 -13.1 13.25 -12.8 13.85 -12.35 16.15 -10.2 16.3 -10.75 16.75 -11.85 17.25 -12.2 17.25 -12.9 17.35 -13.25 17.75 -13.6 18.1 -15.0 Q22.1 -23.9 21.75 -33.75 L20.65 -34.3 20.5 -34.2 Q19.75 -25.7 16.15 -17.7 14.65 -14.5 12.0 -13.35 M-22.15 -33.05 L-21.4 -30.6 Q-19.5 -20.6 -14.95 -11.4 L-14.35 -12.3 -14.4 -12.4 -13.65 -13.3 -12.9 -14.3 -13.6 -15.65 Q-18.05 -22.55 -19.15 -30.25 L-19.4 -30.65 -19.65 -30.95 -19.65 -31.35 -19.65 -31.65 -19.9 -32.05 -20.15 -32.35 -20.15 -32.7 -20.15 -33.05 -20.15 -33.4 -22.15 -33.25 -22.2 -33.25 -22.15 -33.05 M-23.5 -33.2 L-23.9 -32.95 Q-29.0 -30.5 -32.75 -26.7 L-32.3 -23.45 Q-27.75 -26.8 -22.6 -29.25 L-23.5 -33.2 M-30.8 -18.8 Q-26.8 -22.2 -21.9 -24.85 L-21.65 -24.85 -21.4 -24.8 -21.4 -24.9 -22.5 -29.0 -32.0 -22.05 -31.15 -18.75 -31.1 -18.55 -29.55 -14.4 Q-25.3 -18.1 -20.25 -20.95 L-21.25 -24.35 Q-26.05 -20.8 -30.9 -18.6 L-30.8 -18.8 M-26.75 -8.95 L-26.6 -8.65 -24.5 -5.45 -17.3 -12.6 -17.35 -12.75 -18.65 -16.3 Q-22.3 -12.15 -26.75 -8.95 M-29.0 -13.1 L-27.25 -9.8 Q-23.25 -13.45 -18.85 -16.85 L-19.95 -20.15 Q-24.9 -17.0 -29.0 -13.1 M-23.9 -4.7 L-21.8 -2.0 -18.15 -5.3 Q-17.15 -7.7 -15.8 -9.95 L-15.9 -10.0 -17.1 -12.2 Q-20.0 -8.2 -23.9 -4.7 M23.0 -34.4 L23.0 -33.05 22.85 -28.0 Q27.7 -24.8 31.8 -20.65 L32.1 -25.4 Q28.05 -30.45 23.0 -34.4 M-18.45 -4.5 L-21.45 -1.6 -19.9 0.15 Q-19.35 -2.25 -18.45 -4.5 M-1.75 -24.1 L-3.5 -23.7 -3.65 -23.05 -3.65 -22.75 -3.65 -20.8 Q-3.55 -8.9 -2.65 2.95 L-1.6 2.85 -1.6 2.95 Q1.2 2.6 2.9 3.9 L4.55 -18.15 4.6 -18.2 4.6 -22.4 4.6 -24.45 -1.75 -24.1 M18.85 -12.2 L19.25 -11.85 Q23.05 -8.6 26.3 -5.0 L28.45 -8.9 Q23.85 -11.85 20.15 -15.75 L18.85 -12.55 18.6 -12.25 18.85 -12.2 M18.2 -11.5 L18.1 -10.5 17.65 -9.75 17.25 -9.1 17.1 -9.1 19.05 -6.05 Q21.8 -3.7 23.8 -1.25 L24.65 -2.45 25.95 -4.4 Q21.35 -7.85 18.4 -11.9 L18.2 -11.5 M22.25 -22.6 Q27.15 -19.05 30.6 -14.7 L31.65 -19.45 31.5 -19.5 31.25 -19.75 22.85 -27.8 22.1 -22.65 22.1 -22.6 22.25 -22.6 M21.9 -21.65 L20.55 -16.8 Q25.25 -13.35 28.55 -9.2 29.7 -11.75 30.45 -14.3 25.9 -17.6 21.9 -21.65 M23.8 -1.25 L23.15 -1.5 Q21.2 -2.75 19.8 -4.3 20.55 -2.25 20.85 0.1 21.7 0.4 22.25 1.05 L23.8 -1.25 M20.95 7.25 L21.0 9.8 21.9 9.75 21.95 9.8 22.8 10.1 Q23.25 10.2 23.5 10.45 24.4 5.5 20.8 1.85 21.3 4.7 21.05 7.35 L20.95 7.25 M-20.6 4.2 L-21.4 4.8 -21.55 5.2 Q-23.9 10.35 -21.5 14.65 -21.9 11.4 -21.25 7.85 L-20.85 7.7 -20.6 4.2 M-19.65 17.05 L-19.65 16.4 -20.4 16.25 -19.65 17.05 M2.65 6.5 L2.7 6.25 2.8 4.95 -2.55 4.2 -2.35 6.5 2.65 6.5 M23.2 11.6 L20.95 11.4 20.55 17.0 22.15 15.1 Q23.2 13.65 23.1 12.05 L23.2 11.6" fill="#000000" fill-rule="evenodd" stroke="none"/>
    <path d="M-20.3 2.3 L-20.4 2.85 -21.3 3.55 -20.3 2.3 M12.0 -13.35 Q14.65 -14.5 16.15 -17.7 19.75 -25.7 20.5 -34.2 L20.65 -34.3 21.75 -33.75 Q22.1 -23.9 18.1 -15.0 L17.75 -13.6 17.35 -13.25 17.25 -12.9 17.25 -12.2 16.75 -11.85 16.3 -10.75 16.15 -10.2 13.85 -12.35 13.25 -12.8 12.85 -13.1 12.35 -13.2 12.15 -13.25 12.0 -13.35 M-5.2 -18.0 Q-5.2 -7.45 -4.3 3.0 L-4.35 3.0 -4.6 3.4 -4.6 3.75 -4.2 3.85 -4.05 5.65 -3.7 7.85 -3.05 8.05 3.8 8.1 4.15 7.75 Q5.2 -2.95 5.4 -13.7 L7.85 -13.2 12.5 -12.4 Q13.45 -10.75 15.25 -9.1 17.7 -6.95 18.7 -3.8 L19.85 -0.2 20.1 2.7 19.7 10.55 19.65 10.6 19.7 10.65 19.5 17.75 19.5 17.85 18.45 18.45 18.25 19.15 17.35 19.25 15.85 20.2 17.55 19.95 Q8.95 23.95 -0.6 25.9 L-0.65 25.8 Q-10.25 25.35 -17.45 20.1 L-16.4 20.35 -17.15 19.55 -17.55 19.5 -17.55 19.25 -17.45 19.15 Q-19.2 16.95 -19.7 14.3 L-20.15 14.3 -19.85 13.25 -19.95 11.5 -19.7 11.25 Q-20.3 7.45 -19.35 3.25 L-19.15 2.85 -17.9 0.35 Q-17.1 -3.2 -15.8 -6.65 -14.85 -9.15 -13.5 -11.45 L-13.15 -12.0 -11.85 -12.75 -11.15 -13.35 Q-10.0 -13.5 -8.9 -14.05 L-8.75 -14.15 -5.4 -14.1 -5.45 -14.6 -5.5 -15.5 Q-5.55 -16.9 -5.2 -18.0 M-22.15 -33.25 L-20.15 -33.4 -20.15 -33.05 -20.15 -32.7 -20.15 -32.35 -19.9 -32.05 -19.65 -31.65 -19.65 -31.35 -19.65 -30.95 -19.4 -30.65 -19.15 -30.25 Q-18.05 -22.55 -13.6 -15.65 L-12.9 -14.3 -13.65 -13.3 -14.4 -12.4 -14.35 -12.3 -14.95 -11.4 Q-19.5 -20.6 -21.4 -30.6 L-22.15 -33.05 -22.15 -33.25 M-21.65 -24.85 L-21.9 -24.85 Q-26.8 -22.2 -30.8 -18.8 L-31.15 -18.75 -32.0 -22.05 -22.5 -29.0 -21.4 -24.9 -21.65 -24.85 M-23.9 -4.7 Q-20.0 -8.2 -17.1 -12.2 L-15.9 -10.0 -15.8 -9.95 Q-17.15 -7.7 -18.15 -5.3 L-21.8 -2.0 -23.9 -4.7 M-29.0 -13.1 Q-24.9 -17.0 -19.95 -20.15 L-18.85 -16.85 Q-23.25 -13.45 -27.25 -9.8 L-29.0 -13.1 M18.85 -12.55 L20.15 -15.75 Q23.85 -11.85 28.45 -8.9 L26.3 -5.0 Q23.05 -8.6 19.25 -11.85 L18.85 -12.2 18.85 -12.55 M22.1 -22.65 L22.85 -27.8 31.25 -19.75 31.5 -19.5 31.65 -19.45 30.6 -14.7 Q27.15 -19.05 22.25 -22.6 L22.1 -22.65 M23.8 -1.25 L22.25 1.05 Q21.7 0.4 20.85 0.1 20.55 -2.25 19.8 -4.3 21.2 -2.75 23.15 -1.5 L23.8 -1.25 M20.95 7.25 L21.05 7.35 Q21.3 4.7 20.8 1.85 24.4 5.5 23.5 10.45 23.25 10.2 22.8 10.1 L21.95 9.8 21.9 9.75 21.0 9.8 20.95 7.25 M23.2 11.6 L23.1 12.05 Q23.2 13.65 22.15 15.1 L20.55 17.0 20.95 11.4 23.2 11.6 M2.65 6.5 L-2.35 6.5 -2.55 4.2 2.8 4.95 2.7 6.25 2.65 6.5 M-19.65 17.05 L-20.4 16.25 -19.65 16.4 -19.65 17.05 M-20.6 4.2 L-20.85 7.7 -21.25 7.85 Q-21.9 11.4 -21.5 14.65 -23.9 10.35 -21.55 5.2 L-21.4 4.8 -20.6 4.2" fill="#51684d" fill-rule="evenodd" stroke="none"/>
    <path d="M-23.5 -33.2 L-22.6 -29.25 Q-27.75 -26.8 -32.3 -23.45 L-32.75 -26.7 Q-29.0 -30.5 -23.9 -32.95 L-23.5 -33.2 M-30.9 -18.6 Q-26.05 -20.8 -21.25 -24.35 L-20.25 -20.95 Q-25.3 -18.1 -29.55 -14.4 L-31.1 -18.55 -30.9 -18.6 M-26.75 -8.95 Q-22.3 -12.15 -18.65 -16.3 L-17.35 -12.75 -17.3 -12.6 -24.5 -5.45 -26.6 -8.65 -26.75 -8.95 M-1.75 -24.1 L4.6 -24.45 4.6 -22.4 4.6 -18.2 4.55 -18.15 2.9 3.9 Q1.2 2.6 -1.6 2.95 L-1.6 2.85 -2.65 2.95 Q-3.55 -8.9 -3.65 -20.8 L-3.65 -22.75 -3.65 -23.05 -3.5 -23.7 -1.75 -24.1 M-18.45 -4.5 Q-19.35 -2.25 -19.9 0.15 L-21.45 -1.6 -18.45 -4.5 M23.0 -34.4 Q28.05 -30.45 32.1 -25.4 L31.8 -20.65 Q27.7 -24.8 22.85 -28.0 L23.0 -33.05 23.0 -34.4 M18.2 -11.5 L18.4 -11.9 Q21.35 -7.85 25.95 -4.4 L24.65 -2.45 23.8 -1.25 Q21.8 -3.7 19.05 -6.05 L17.1 -9.1 17.25 -9.1 17.65 -9.75 18.1 -10.5 18.2 -11.5 M21.9 -21.65 Q25.9 -17.6 30.45 -14.3 29.7 -11.75 28.55 -9.2 25.25 -13.35 20.55 -16.8 L21.9 -21.65" fill="#333333" fill-rule="evenodd" stroke="none"/>
  </g>
</svg>
