<?xml version="1.0" encoding="UTF-8" standalone="no"?>
<svg xmlns:xlink="http://www.w3.org/1999/xlink" height="34.0px" width="8.25px" xmlns="http://www.w3.org/2000/svg">
  <g transform="matrix(1.0, 0.0, 0.0, 1.0, 4.35, 16.6)">
    <path d="M-2.6 16.05 L-2.7 16.4 Q-2.65 14.65 -2.95 12.95 -5.45 -0.45 -3.55 -14.3 L-3.3 -14.7 -3.0 -15.05 -3.0 -15.45 -3.0 -15.8 -2.75 -16.2 -2.4 -16.55 Q-0.7 -16.85 0.5 -15.7 L0.45 -14.8 0.65 -14.55 0.95 -13.6 1.05 -13.2 1.25 -12.3 1.6 -11.9 Q6.5 1.4 0.85 14.65 L0.7 15.05 0.6 15.1 0.65 16.9 0.3 17.3 -1.0 17.4 -1.0 17.35 -1.45 17.15 -2.0 16.35 -2.1 16.05 -1.9 15.7 -1.4 15.4 -0.75 15.85 -0.45 15.8 -0.4 14.65 -0.25 10.15 -0.5 9.8 -0.75 9.4 -0.75 7.9 Q-1.0 -2.95 -0.55 -13.95 L-0.5 -14.95 -1.9 -15.2 -2.0 -15.05 -2.35 -14.35 -2.55 -13.95 Q-3.85 -3.65 -3.25 6.7 L-2.85 9.55 Q-2.0 13.2 -2.6 16.05 M0.5 -12.3 L0.6 -12.7 0.65 -13.05 0.45 -13.45 0.4 -12.3 0.2 -0.7 2.85 -0.65 Q2.6 -5.8 0.95 -10.85 L0.9 -11.2 0.5 -12.3 M2.9 0.6 L2.5 0.55 Q1.0 0.3 0.2 -0.25 L0.25 9.05 0.5 9.4 0.75 9.8 0.7 10.9 0.6 14.6 Q3.0 7.55 2.9 0.6" fill="#000000" fill-rule="evenodd" stroke="none"/>
    <path d="M-2.6 16.05 Q-2.0 13.2 -2.85 9.55 L-3.25 6.7 Q-3.85 -3.65 -2.55 -13.95 L-2.35 -14.35 -2.0 -15.05 -1.9 -15.2 -0.5 -14.95 -0.55 -13.95 Q-1.0 -2.95 -0.75 7.9 L-0.75 9.4 -0.5 9.8 -0.25 10.15 -0.4 14.65 -0.45 15.8 -0.75 15.85 -1.4 15.4 -1.9 15.7 -2.1 16.05 -2.6 16.05 M0.5 -12.3 L0.9 -11.2 0.95 -10.85 Q2.6 -5.8 2.85 -0.65 L0.2 -0.7 0.4 -12.3 0.5 -12.3 M2.9 0.6 Q3.0 7.55 0.6 14.6 L0.7 10.9 0.75 9.8 0.5 9.4 0.25 9.05 0.2 -0.25 Q1.0 0.3 2.5 0.55 L2.9 0.6" fill="#333333" fill-rule="evenodd" stroke="none"/>
  </g>
</svg>
