<?xml version="1.0" encoding="UTF-8" standalone="no"?>
<svg xmlns:xlink="http://www.w3.org/1999/xlink" height="29.15px" width="24.8px" xmlns="http://www.w3.org/2000/svg">
  <g transform="matrix(1.0, 0.0, 0.0, 1.0, 12.3, 13.5)">
    <path d="M2.5 -8.3 L1.75 -8.3 Q2.3 -4.1 2.35 0.05 4.95 0.55 7.4 1.7 L7.4 -1.4 Q6.95 -6.45 2.5 -8.3 M1.25 -9.35 Q3.15 -8.95 4.75 -7.9 L6.55 -6.2 Q10.55 -1.0 8.15 5.35 L7.35 7.2 Q6.6 8.85 5.15 9.85 3.2 11.2 1.25 11.5 L1.15 11.85 1.0 12.1 1.1 11.55 Q-2.1 12.0 -5.4 9.9 L-7.25 5.4 -7.75 4.65 -7.6 2.6 -7.75 2.65 -7.55 2.5 -7.45 1.45 Q-7.5 -2.0 -5.05 -5.5 L-3.0 -7.75 -2.55 -7.9 -2.5 -8.0 -1.95 -7.95 Q-0.55 -8.8 1.25 -9.35 M9.7 -8.45 Q7.75 -10.95 4.75 -12.15 1.85 -13.15 -0.9 -12.15 -5.55 -10.3 -8.3 -6.1 -11.45 -1.35 -10.9 4.2 -10.75 5.45 -10.2 6.5 -9.2 8.3 -9.0 10.25 -6.0 13.0 -1.85 13.7 L1.3 13.85 Q5.95 13.3 8.55 9.05 12.7 2.3 10.6 -5.35 10.95 -6.8 9.7 -8.45 M0.65 -8.15 L-0.65 -7.65 -0.5 -7.5 -2.45 -6.75 -2.5 -6.75 Q-6.3 -3.15 -6.4 1.55 -4.75 0.35 -2.55 0.05 L-0.5 -0.35 1.8 -0.05 Q1.8 -4.1 1.4 -8.25 L0.65 -8.15 M11.65 -6.45 L12.2 -3.65 Q13.65 5.55 7.65 12.25 5.8 14.25 3.35 15.1 -1.95 16.75 -6.65 13.35 -8.4 12.1 -9.5 10.4 -13.55 4.35 -11.75 -2.35 -10.4 -7.5 -6.1 -10.45 -3.95 -12.0 -1.5 -12.9 0.65 -13.7 2.95 -13.4 9.75 -13.0 11.65 -6.45 M-7.25 3.1 L-7.3 2.8 -7.25 4.3 -7.25 3.1 M-6.25 4.15 Q-6.0 5.75 -5.0 7.15 -4.9 7.3 -4.95 7.4 L-5.2 7.65 -4.75 8.25 Q-2.35 10.7 1.25 10.05 1.8 5.5 1.8 0.8 -2.35 0.55 -6.4 2.15 L-6.25 4.15 M1.5 10.0 L2.95 9.6 Q5.5 8.75 6.4 6.2 7.15 4.1 7.4 2.0 4.85 1.05 2.35 0.85 2.25 5.45 1.5 10.0" fill="#000000" fill-rule="evenodd" stroke="none"/>
    <path d="M-7.25 3.1 L-7.25 4.3 -7.3 2.8 -7.25 3.1" fill="#9999cc" fill-rule="evenodd" stroke="none"/>
    <path d="M9.7 -8.45 Q10.95 -6.8 10.6 -5.35 12.7 2.3 8.55 9.05 5.95 13.3 1.3 13.85 L-1.85 13.7 Q-6.0 13.0 -9.0 10.25 -9.2 8.3 -10.2 6.5 -10.75 5.45 -10.9 4.2 -11.45 -1.35 -8.3 -6.1 -5.55 -10.3 -0.9 -12.15 1.85 -13.15 4.75 -12.15 7.75 -10.95 9.7 -8.45 M1.25 -9.35 Q-0.55 -8.8 -1.95 -7.95 L-2.5 -8.0 -2.55 -7.9 -3.0 -7.75 -5.05 -5.5 Q-7.5 -2.0 -7.45 1.45 L-7.55 2.5 -7.75 2.65 -7.6 2.6 -7.75 4.65 -7.25 5.4 -5.4 9.9 Q-2.1 12.0 1.1 11.55 L1.0 12.1 1.15 11.85 1.25 11.5 Q3.2 11.2 5.15 9.85 6.6 8.85 7.35 7.2 L8.15 5.35 Q10.55 -1.0 6.55 -6.2 L4.75 -7.9 Q3.15 -8.95 1.25 -9.35 M2.5 -8.3 Q6.95 -6.45 7.4 -1.4 L7.4 1.7 Q4.95 0.55 2.35 0.05 2.3 -4.1 1.75 -8.3 L2.5 -8.3 M0.65 -8.15 L1.4 -8.25 Q1.8 -4.1 1.8 -0.05 L-0.5 -0.35 -2.55 0.05 Q-4.75 0.35 -6.4 1.55 -6.3 -3.15 -2.5 -6.75 L-2.45 -6.75 -0.5 -7.5 -0.65 -7.65 0.65 -8.15 M-6.25 4.15 L-6.4 2.15 Q-2.35 0.55 1.8 0.8 1.8 5.5 1.25 10.05 -2.35 10.7 -4.75 8.25 L-5.2 7.65 -4.95 7.4 Q-4.9 7.3 -5.0 7.15 -6.0 5.75 -6.25 4.15 M1.5 10.0 Q2.25 5.45 2.35 0.85 4.85 1.05 7.4 2.0 7.15 4.1 6.4 6.2 5.5 8.75 2.95 9.6 L1.5 10.0" fill="#333333" fill-rule="evenodd" stroke="none"/>
  </g>
</svg>
