<?xml version="1.0" encoding="UTF-8" standalone="no"?>
<svg xmlns:xlink="http://www.w3.org/1999/xlink" height="34.3px" width="30.85px" xmlns="http://www.w3.org/2000/svg">
  <g transform="matrix(1.0, 0.0, 0.0, 1.0, 15.45, 17.15)">
    <path d="M10.95 4.55 Q11.45 5.1 12.2 5.25 L12.3 5.5 12.5 6.3 12.4 6.55 12.35 6.75 12.05 6.7 11.7 6.55 Q9.5 5.5 7.05 5.65 L5.25 5.7 Q0.2 5.45 -4.8 5.7 -8.9 5.95 -12.5 7.5 L-12.3 5.35 Q-11.65 -4.8 -6.55 -12.9 L-6.45 -12.85 -3.45 -14.5 Q-2.75 -14.85 -2.15 -15.45 3.0 -16.4 7.8 -14.5 L8.25 -13.95 9.05 -13.15 9.4 -12.85 9.4 -12.8 9.4 -12.65 9.55 -12.35 10.25 -11.7 Q10.7 -11.0 11.3 -10.45 L11.7 -10.1 11.7 -10.0 Q13.75 -4.75 11.85 0.6 10.2 -0.4 8.3 -0.85 L6.3 -0.85 -5.35 0.35 Q-3.7 0.8 -1.55 0.35 2.7 -0.5 6.6 0.15 L6.85 1.8 6.55 2.05 6.55 2.25 0.7 1.75 -0.1 1.9 -3.4 2.4 -4.1 2.5 -4.4 2.8 -5.55 3.55 -5.8 3.7 Q0.55 2.45 6.85 3.5 L6.7 4.7 6.2 5.15 6.9 5.3 7.0 5.15 7.55 3.6 11.0 4.4 10.95 4.55 M7.0 -11.15 L6.85 -11.1 6.4 -10.85 6.4 -10.6 Q7.5 -5.65 6.3 -0.9 L6.75 -1.0 6.9 -1.25 Q9.15 -6.05 7.0 -11.15 M11.95 3.05 L11.45 3.75 7.65 2.5 7.65 2.45 7.75 2.25 7.75 1.95 Q7.9 1.1 7.65 0.35 9.7 0.8 11.65 1.7 L11.95 3.05" fill="#95952f" fill-rule="evenodd" stroke="none"/>
    <path d="M7.0 -11.15 Q9.15 -6.05 6.9 -1.25 L6.75 -1.0 6.3 -0.9 Q7.5 -5.65 6.4 -10.6 L6.4 -10.85 6.85 -11.1 7.0 -11.15 M6.55 2.05 L6.85 1.8 6.6 0.15 Q2.7 -0.5 -1.55 0.35 -3.7 0.8 -5.35 0.35 L6.3 -0.85 8.3 -0.85 Q10.2 -0.4 11.85 0.6 13.75 -4.75 11.7 -10.0 L11.7 -10.1 11.3 -10.45 Q10.7 -11.0 10.25 -11.7 L9.55 -12.35 9.4 -12.65 9.4 -12.8 9.4 -12.85 9.05 -13.15 8.25 -13.95 7.8 -14.5 Q3.0 -16.4 -2.15 -15.45 -2.75 -14.85 -3.45 -14.5 L-6.45 -12.85 -6.55 -12.9 Q-11.65 -4.8 -12.3 5.35 L-12.5 7.5 Q-8.9 5.95 -4.8 5.7 0.2 5.45 5.25 5.7 L7.05 5.65 Q9.5 5.5 11.7 6.55 L12.05 6.7 12.35 6.75 12.4 6.55 12.5 6.3 12.3 5.5 12.2 5.25 Q11.45 5.1 10.95 4.55 L11.05 4.45 11.0 4.4 7.55 3.6 7.0 5.15 6.9 5.3 6.2 5.15 6.7 4.7 6.85 3.5 Q0.55 2.45 -5.8 3.7 L-5.55 3.55 -4.4 2.8 -4.1 2.5 -3.4 2.4 -0.1 1.9 0.7 1.75 6.55 2.25 6.6 2.25 6.55 2.05 M12.8 1.25 L13.65 1.9 13.75 2.15 13.2 2.5 12.85 2.3 12.85 3.65 12.75 3.9 Q13.55 4.95 13.9 6.3 L13.45 7.35 Q14.4 8.15 14.45 9.65 15.5 10.95 15.4 12.6 L15.05 16.95 14.95 17.0 14.6 17.05 Q12.8 16.25 11.0 17.0 L9.55 16.9 9.5 16.65 9.6 15.05 9.65 14.3 9.65 14.2 7.45 13.95 7.4 14.2 7.4 15.75 7.15 16.55 7.0 16.65 2.1 16.9 1.65 16.7 1.55 16.4 Q1.3 15.5 1.35 14.55 L1.25 13.8 1.25 13.65 -0.2 13.25 -0.2 13.5 -0.25 15.35 -0.4 16.35 -4.55 16.75 -6.35 16.55 -6.4 16.3 -6.25 13.95 -6.15 12.9 -6.15 12.8 -8.85 12.45 -8.85 12.7 -8.9 14.0 Q-8.9 14.45 -9.25 14.8 -12.1 16.0 -15.35 14.8 L-15.35 12.7 Q-15.05 10.45 -14.3 8.35 L-13.9 8.15 Q-13.3 -0.3 -10.2 -8.25 -9.05 -11.25 -6.8 -13.5 -6.25 -14.25 -5.2 -14.7 -3.7 -15.4 -2.45 -16.5 L-0.5 -16.75 1.95 -17.15 Q8.95 -16.95 12.1 -11.2 15.05 -7.05 14.1 -1.65 13.8 0.0 12.8 1.25 M11.95 3.05 L11.65 1.7 Q9.7 0.8 7.65 0.35 7.9 1.1 7.75 1.95 L7.75 2.25 7.65 2.45 7.65 2.5 11.45 3.75 11.95 3.05 M10.35 7.05 L9.05 6.95 6.35 6.75 Q-0.3 6.45 -6.75 7.0 -8.6 7.15 -10.25 7.8 -11.65 8.35 -12.8 9.3 L-13.15 11.05 -13.3 11.15 -13.6 11.25 -13.8 11.15 Q-14.15 12.3 -14.15 13.55 L-10.6 13.8 -10.15 13.7 -10.1 12.9 -10.1 12.65 -10.1 12.35 -10.1 11.85 -9.9 11.6 -9.5 11.2 -9.45 11.1 -5.55 11.45 -5.1 11.6 Q-4.85 12.1 -4.9 12.65 L-4.95 12.9 -5.1 14.75 -5.1 15.4 -3.0 15.45 -1.55 15.35 -1.45 14.3 -1.45 14.05 -1.4 12.45 Q-1.45 12.05 -1.1 11.8 L0.1 11.9 0.25 11.95 2.5 12.4 Q2.7 12.9 2.55 13.45 L2.5 13.7 2.65 15.25 2.7 15.45 6.0 15.4 6.2 14.4 6.2 14.15 6.35 12.85 6.5 12.65 8.4 12.6 10.35 12.9 10.8 13.05 10.9 14.1 10.9 14.35 10.8 15.65 12.3 15.45 12.65 15.4 13.95 15.3 13.75 14.25 13.8 13.95 Q14.05 12.95 13.8 11.95 L13.75 10.85 13.55 10.55 13.1 10.0 12.9 8.9 12.8 8.75 Q12.45 8.4 12.45 7.95 L12.45 7.9 11.8 7.4 10.35 7.05" fill="#000000" fill-rule="evenodd" stroke="none"/>
    <path d="M10.35 7.05 L11.8 7.4 12.45 7.9 12.45 7.95 Q12.45 8.4 12.8 8.75 L12.9 8.9 13.1 10.0 13.55 10.55 13.75 10.85 13.8 11.95 Q14.05 12.95 13.8 13.95 L13.75 14.25 13.95 15.3 12.65 15.4 12.3 15.45 10.8 15.65 10.9 14.35 10.9 14.1 10.8 13.05 10.35 12.9 8.4 12.6 6.5 12.65 6.35 12.85 6.2 14.15 6.2 14.4 6.0 15.4 2.7 15.45 2.65 15.25 2.5 13.7 2.55 13.45 Q2.7 12.9 2.5 12.4 L0.25 11.95 0.1 11.9 -1.1 11.8 Q-1.45 12.05 -1.4 12.45 L-1.45 14.05 -1.45 14.3 -1.55 15.35 -3.0 15.45 -5.1 15.4 -5.1 14.75 -4.95 12.9 -4.9 12.65 Q-4.85 12.1 -5.1 11.6 L-5.55 11.45 -9.45 11.1 -9.5 11.2 -9.9 11.6 -10.1 11.85 -10.1 12.35 -10.1 12.65 -10.1 12.9 -10.15 13.7 -10.6 13.8 -14.15 13.55 Q-14.15 12.3 -13.8 11.15 L-13.6 11.25 -13.3 11.15 -13.15 11.05 -12.8 9.3 Q-11.65 8.35 -10.25 7.8 -8.6 7.15 -6.75 7.0 -0.3 6.45 6.35 6.75 L9.05 6.95 10.35 7.05" fill="#678d32" fill-rule="evenodd" stroke="none"/>
  </g>
</svg>
