<?xml version="1.0" encoding="UTF-8" standalone="no"?>
<svg xmlns:xlink="http://www.w3.org/1999/xlink" height="43.95px" width="36.65px" xmlns="http://www.w3.org/2000/svg">
  <g transform="matrix(1.0, 0.0, 0.0, 1.0, 19.55, 17.85)">
    <path d="M10.45 -12.2 Q13.55 -3.1 14.2 6.55 L14.25 7.05 Q15.8 9.4 16.15 12.6 L16.8 18.15 Q17.2 20.95 17.05 23.8 L16.9 24.0 16.75 24.25 Q14.1 25.15 11.4 25.0 10.8 24.0 10.75 22.8 L10.75 22.3 8.65 22.1 8.45 24.25 8.25 24.65 2.85 24.65 Q2.1 25.45 1.05 25.0 0.25 24.05 0.4 22.8 L0.4 22.4 -3.3 22.4 -3.3 24.35 -3.3 25.05 -3.45 25.3 -3.65 25.55 -4.2 25.75 Q-7.25 26.6 -10.0 25.45 L-10.75 25.05 Q-11.05 24.05 -10.95 22.9 L-10.9 22.4 -13.1 22.0 Q-14.3 25.9 -17.7 24.05 L-19.55 22.4 Q-19.65 21.95 -19.25 21.65 L-19.1 21.45 Q-18.65 17.9 -17.7 14.4 L-17.75 14.35 -17.95 14.05 Q-18.35 9.85 -17.9 5.8 -17.1 -1.5 -14.25 -8.25 -12.0 -13.45 -7.6 -16.8 L-6.4 -17.45 -5.8 -17.65 Q2.8 -18.8 9.25 -13.85 10.1 -13.2 10.45 -12.2 M5.2 -14.9 L1.35 -15.5 Q-2.4 -15.75 -6.1 -15.4 -7.5 -15.25 -8.45 -14.1 -14.8 -6.0 -15.8 4.35 -16.05 7.15 -17.0 9.7 L-17.0 9.95 -17.0 11.75 Q-15.75 11.15 -13.85 11.75 -9.0 13.25 -3.8 13.0 L-2.5 13.0 Q-3.45 5.4 -3.25 -2.4 L-3.25 -2.85 -3.15 -2.9 -2.75 -2.9 -2.5 -2.65 Q-2.0 5.25 -2.1 13.0 L-1.7 13.0 Q5.9 13.45 12.5 10.15 L13.25 9.85 13.25 9.7 13.25 9.2 13.1 9.0 12.95 8.75 12.8 7.25 12.7 6.8 13.25 6.3 12.3 0.3 Q11.0 -6.35 8.3 -12.45 7.45 -14.4 5.2 -14.9 M13.55 11.1 Q12.05 13.1 9.0 13.5 L6.45 14.0 Q2.2 15.05 -2.15 14.85 L-2.25 14.95 -2.25 14.85 -3.8 14.7 -9.6 14.2 Q-13.5 13.95 -17.0 12.35 L-17.05 13.1 -17.1 13.85 -17.0 13.85 -16.75 14.05 Q-17.05 17.45 -17.75 20.85 L-17.8 21.6 Q-17.15 22.45 -16.0 22.95 L-15.85 23.0 -15.5 22.95 -14.2 20.55 -14.05 20.4 Q-10.9 19.45 -9.3 21.7 -9.15 21.95 -9.15 22.3 L-9.15 23.8 -5.1 23.85 Q-5.2 22.45 -4.75 21.2 L-4.5 20.7 1.0 20.15 Q2.45 20.8 2.2 22.5 L2.2 22.75 6.9 22.9 6.9 21.2 6.9 20.7 7.4 20.35 Q9.5 20.2 11.65 20.4 12.8 20.5 12.6 21.75 L12.6 22.95 15.2 22.55 13.6 11.9 13.6 11.15 13.55 11.1" fill="#000000" fill-rule="evenodd" stroke="none"/>
    <path d="M5.2 -14.9 Q7.45 -14.4 8.3 -12.45 11.0 -6.35 12.3 0.3 L13.25 6.3 12.7 6.8 12.8 7.25 12.95 8.75 13.1 9.0 13.25 9.2 13.25 9.7 13.25 9.85 12.5 10.15 Q5.9 13.45 -1.7 13.0 L-2.1 13.0 Q-2.0 5.25 -2.5 -2.65 L-2.75 -2.9 -3.15 -2.9 -3.25 -2.85 -3.25 -2.4 Q-3.45 5.4 -2.5 13.0 L-3.8 13.0 Q-9.0 13.25 -13.85 11.75 -15.75 11.15 -17.0 11.75 L-17.0 9.95 -17.0 9.7 Q-16.05 7.15 -15.8 4.35 -14.8 -6.0 -8.45 -14.1 -7.5 -15.25 -6.1 -15.4 -2.4 -15.75 1.35 -15.5 L5.2 -14.9" fill="#95952f" fill-rule="evenodd" stroke="none"/>
    <path d="M13.55 11.1 L13.6 11.15 13.6 11.9 15.2 22.55 12.6 22.95 12.6 21.75 Q12.8 20.5 11.65 20.4 9.5 20.2 7.4 20.35 L6.9 20.7 6.9 21.2 6.9 22.9 2.2 22.75 2.2 22.5 Q2.45 20.8 1.0 20.15 L-4.5 20.7 -4.75 21.2 Q-5.2 22.45 -5.1 23.85 L-9.15 23.8 -9.15 22.3 Q-9.15 21.95 -9.3 21.7 -10.9 19.45 -14.05 20.4 L-14.2 20.55 -15.5 22.95 -15.85 23.0 -16.0 22.95 Q-17.15 22.45 -17.8 21.6 L-17.75 20.85 Q-17.05 17.45 -16.75 14.05 L-17.0 13.85 -17.1 13.85 -17.05 13.1 -17.0 12.35 Q-13.5 13.95 -9.6 14.2 L-3.8 14.7 -2.25 14.85 -2.25 14.95 -2.15 14.85 Q2.2 15.05 6.45 14.0 L9.0 13.5 Q12.05 13.1 13.55 11.1" fill="#678d32" fill-rule="evenodd" stroke="none"/>
  </g>
</svg>
