<?xml version="1.0" encoding="UTF-8" standalone="no"?>
<svg xmlns:xlink="http://www.w3.org/1999/xlink" height="59.55px" width="39.3px" xmlns="http://www.w3.org/2000/svg">
  <g transform="matrix(1.0, 0.0, 0.0, 1.0, 18.5, 33.95)">
    <path d="M15.8 23.8 Q12.55 26.2 8.8 25.4 L8.8 25.2 6.05 24.75 -3.55 20.95 Q-9.8 18.4 -15.55 15.0 L-16.4 14.8 -16.7 14.5 -16.8 14.2 -16.8 13.95 -16.75 13.65 -16.65 13.55 -17.4 13.05 Q-17.25 12.0 -17.4 11.0 L-17.85 10.95 Q-18.2 10.0 -18.1 8.9 L-18.1 8.6 Q-18.55 6.05 -18.4 3.4 L-18.35 3.1 -17.85 3.1 Q-19.25 -7.85 -17.7 -18.85 L-17.55 -21.05 -17.6 -21.1 -17.55 -21.15 -17.6 -21.75 -17.0 -22.1 -16.9 -22.1 Q-15.7 -23.5 -13.5 -23.9 -9.1 -24.7 -5.0 -25.9 6.1 -26.8 16.15 -22.4 16.15 -27.3 15.2 -32.0 L15.1 -32.3 14.8 -32.6 14.8 -32.9 14.8 -33.45 15.5 -33.9 15.5 -33.95 15.9 -33.9 16.35 -33.75 17.05 -31.25 17.25 -31.25 Q20.9 -20.75 20.8 -9.45 L20.7 7.55 20.75 7.85 20.7 8.0 20.7 8.5 20.15 9.0 19.65 8.8 19.55 8.25 18.6 8.2 Q19.15 10.8 18.4 13.4 18.2 14.1 18.45 14.85 L18.5 15.4 18.4 15.45 18.8 15.5 19.1 15.75 19.15 15.8 19.05 16.2 19.2 16.4 Q19.5 19.45 18.0 21.65 L16.1 23.55 15.8 23.8 M16.0 -18.7 L16.05 -19.55 16.1 -21.05 Q5.85 -25.15 -5.35 -24.0 L-10.25 -23.05 -16.5 -21.05 Q-16.9 -13.25 -16.85 -5.3 -16.8 -1.05 -16.9 3.1 L-13.45 3.0 -7.3 2.65 -6.95 2.6 -6.75 2.6 -6.5 2.95 Q-5.5 2.5 -4.25 2.2 L-4.25 2.15 Q-2.85 2.35 -1.8 2.8 L-0.35 2.6 Q5.35 3.15 10.9 2.6 L14.05 2.25 Q15.05 -5.6 15.65 -13.45 L16.0 -18.7 M17.1 -29.7 L17.1 -29.75 17.05 -29.7 17.3 -21.75 17.65 -21.2 17.4 -20.95 17.3 -20.9 17.2 -15.5 16.75 -7.9 Q16.3 -2.05 15.2 3.6 7.55 4.9 0.0 3.95 1.0 4.9 1.45 6.3 L11.25 6.85 14.15 6.9 19.4 7.25 Q19.8 -3.4 19.25 -14.1 L19.1 -16.5 Q18.6 -23.2 17.1 -29.7 M10.15 9.95 L12.45 11.1 12.7 11.3 12.65 11.9 12.5 12.2 12.05 12.55 12.15 12.65 12.2 12.85 12.1 13.15 11.9 13.4 11.65 13.65 Q8.95 14.2 7.0 13.15 L5.05 11.6 Q4.85 11.05 5.1 10.5 L5.4 9.8 5.45 9.3 5.95 8.75 6.2 8.5 6.6 8.45 6.6 8.4 Q8.4 9.1 10.15 9.95 M1.45 9.85 Q0.55 12.4 -1.1 13.35 -2.3 13.95 -3.9 13.8 -5.25 13.65 -6.85 12.95 -8.05 12.4 -8.95 11.65 L-9.05 13.25 -9.15 13.55 -9.2 13.65 -6.4 13.8 -3.9 14.0 0.1 14.25 9.4 14.75 10.85 14.8 17.05 15.3 16.65 14.5 Q16.35 12.45 17.35 10.75 L17.4 10.7 17.55 10.45 17.35 8.1 Q11.55 7.8 5.85 7.85 L2.05 7.75 1.65 7.45 1.7 7.8 1.7 8.15 1.55 9.55 1.45 9.85 M0.8 7.35 Q-0.75 4.1 -4.45 3.3 L-4.7 3.6 -5.2 3.7 -5.3 3.4 -5.4 3.35 -5.6 3.4 Q-9.25 5.3 -9.55 9.2 L-9.55 9.5 Q-6.35 12.9 -1.5 12.3 0.1 10.75 0.5 8.55 L0.8 7.35 M9.25 24.5 Q12.0 24.05 14.35 22.55 16.15 21.9 17.35 20.4 L18.15 16.6 Q6.7 14.8 -5.8 15.45 L-9.15 15.25 Q-11.6 14.85 -13.25 15.2 -3.35 19.9 7.0 23.6 L8.5 24.2 9.25 24.5 M-15.55 13.3 L-10.15 13.6 -10.3 11.2 Q-13.3 11.4 -16.2 11.15 L-16.05 11.7 -15.95 12.0 -15.45 12.6 -15.55 13.15 -15.6 13.3 -15.55 13.3 M-16.9 6.7 Q-16.6 7.95 -16.7 9.3 -13.75 10.15 -10.5 9.4 -10.35 5.85 -8.1 3.95 L-17.1 4.35 -17.0 6.4 -16.9 6.7" fill="#000000" fill-rule="evenodd" stroke="none"/>
    <path d="M16.0 -18.7 Q12.55 -20.2 8.55 -20.2 L0.3 -19.65 -9.05 -19.0 Q-10.75 -18.9 -12.05 -17.8 L-12.8 -16.55 Q-14.95 -6.95 -13.45 3.0 L-16.9 3.1 Q-16.8 -1.05 -16.85 -5.3 -16.9 -13.25 -16.5 -21.05 L-10.25 -23.05 -5.35 -24.0 Q5.85 -25.15 16.1 -21.05 L16.05 -19.55 16.0 -18.7" fill="#9ac455" fill-rule="evenodd" stroke="none"/>
    <path d="M18.0 21.65 L17.85 22.25 16.75 23.25 15.8 23.8 16.1 23.55 18.0 21.65 M-13.45 3.0 Q-14.95 -6.95 -12.8 -16.55 L-12.05 -17.8 Q-10.75 -18.9 -9.05 -19.0 L0.3 -19.65 8.55 -20.2 Q12.55 -20.2 16.0 -18.7 L15.65 -13.45 Q15.05 -5.6 14.05 2.25 L10.9 2.6 Q5.35 3.15 -0.35 2.6 L-1.8 2.8 Q-2.85 2.35 -4.25 2.15 L-4.25 2.2 Q-5.5 2.5 -6.5 2.95 L-6.75 2.6 -6.95 2.6 -7.3 2.65 -13.45 3.0 M-15.55 13.15 L-15.45 12.6 -15.95 12.0 -16.05 11.7 -16.2 11.15 Q-13.3 11.4 -10.3 11.2 L-10.15 13.6 -15.55 13.3 -15.55 13.15 M9.25 24.5 L8.5 24.2 7.0 23.6 Q-3.35 19.9 -13.25 15.2 -11.6 14.85 -9.15 15.25 L-5.8 15.45 Q6.7 14.8 18.15 16.6 L17.35 20.4 Q16.15 21.9 14.35 22.55 12.0 24.05 9.25 24.5 M0.8 7.35 L0.5 8.55 Q0.1 10.75 -1.5 12.3 -6.35 12.9 -9.55 9.5 L-9.55 9.2 Q-9.25 5.3 -5.6 3.4 L-5.4 3.35 -5.3 3.4 -5.2 3.7 -4.7 3.6 -4.45 3.3 Q-0.75 4.1 0.8 7.35 M-16.9 6.7 L-17.0 6.4 -17.1 4.35 -8.1 3.95 Q-10.35 5.85 -10.5 9.4 -13.75 10.15 -16.7 9.3 -16.6 7.95 -16.9 6.7" fill="#678d32" fill-rule="evenodd" stroke="none"/>
    <path d="M17.05 -29.7 L17.1 -29.7 Q18.6 -23.2 19.1 -16.5 L18.9 -15.75 18.4 -15.4 17.2 -15.5 17.3 -20.9 17.4 -20.95 17.65 -21.2 17.3 -21.75 17.05 -29.7 M5.4 9.8 L5.1 10.5 Q4.85 11.05 5.05 11.6 L7.0 13.15 Q8.95 14.2 11.65 13.65 L11.9 13.4 12.1 13.15 12.2 12.85 12.15 12.65 12.05 12.55 12.5 12.2 12.65 11.9 12.7 11.3 12.45 11.1 10.15 9.95 17.4 10.7 17.35 10.75 Q16.35 12.45 16.65 14.5 L17.05 15.3 10.85 14.8 9.4 14.75 0.1 14.25 -0.6 14.2 -1.1 13.35 Q0.55 12.4 1.45 9.85 L1.55 9.85 Q3.45 9.75 5.4 9.8" fill="#bfc644" fill-rule="evenodd" stroke="none"/>
    <path d="M19.1 -16.5 L19.25 -14.1 Q19.8 -3.4 19.4 7.25 L14.15 6.9 11.25 6.85 1.45 6.3 Q1.0 4.9 0.0 3.95 7.55 4.9 15.2 3.6 16.3 -2.05 16.75 -7.9 L17.2 -15.5 18.4 -15.4 18.9 -15.75 19.1 -16.5 M5.4 9.8 Q3.45 9.75 1.55 9.85 L1.45 9.85 1.55 9.55 1.7 8.15 1.7 7.8 2.05 7.75 5.85 7.85 Q11.55 7.8 17.35 8.1 L17.55 10.45 17.4 10.7 10.15 9.95 Q8.4 9.1 6.6 8.4 L6.6 8.45 6.2 8.5 5.95 8.75 5.45 9.3 5.4 9.8 M-1.1 13.35 L-0.6 14.2 0.1 14.25 -3.9 14.0 -6.4 13.8 -9.2 13.65 -9.15 13.55 -9.05 13.25 -8.95 11.65 Q-8.05 12.4 -6.85 12.95 -5.25 13.65 -3.9 13.8 -2.3 13.95 -1.1 13.35" fill="#95952f" fill-rule="evenodd" stroke="none"/>
  </g>
</svg>
