<?xml version="1.0" encoding="UTF-8" standalone="no"?>
<svg xmlns:xlink="http://www.w3.org/1999/xlink" height="61.45px" width="37.95px" xmlns="http://www.w3.org/2000/svg">
  <g transform="matrix(1.0, 0.0, 0.0, 1.0, 15.0, 56.05)">
    <path d="M12.8 -36.8 Q10.7 -45.45 6.8 -53.35 L6.7 -51.45 7.1 -49.6 Q7.55 -46.35 7.65 -43.0 L7.65 -37.55 7.2 -29.7 7.0 -27.5 6.65 -24.5 5.5 -16.55 Q5.15 -14.5 3.65 -13.35 3.05 -12.85 2.15 -12.7 L2.05 -12.4 -4.2 -12.25 Q-3.85 -11.35 -3.85 -10.15 L-3.9 -9.6 -3.85 -9.15 Q0.65 -9.45 5.1 -9.35 L10.25 -9.35 10.2 -9.95 10.15 -10.55 10.15 -10.6 10.15 -10.75 10.35 -11.05 10.35 -11.25 10.45 -11.3 10.65 -11.2 10.65 -11.1 10.7 -11.05 10.7 -10.9 10.7 -10.55 10.75 -9.95 10.8 -9.35 21.95 -8.75 21.35 -12.2 21.35 -13.0 19.25 -13.35 17.15 -13.8 16.75 -16.5 16.5 -17.3 15.35 -24.5 14.8 -27.5 12.9 -36.35 12.8 -36.8 M6.2 -55.9 L6.5 -56.0 6.5 -56.05 Q8.95 -52.95 10.5 -48.9 L12.55 -43.15 12.6 -43.2 Q16.8 -42.65 19.8 -39.7 22.0 -37.55 21.65 -34.15 21.4 -31.65 21.55 -29.1 L21.6 -27.5 21.65 -24.5 Q21.65 -19.4 21.15 -14.45 L22.3 -14.35 Q22.75 -11.9 22.7 -9.25 L22.65 -8.7 22.85 -8.55 22.95 -8.3 22.95 -8.0 22.85 -7.75 22.75 -7.6 21.25 -7.6 21.4 -7.5 Q21.45 -3.8 20.7 -0.05 L20.35 0.55 Q13.9 6.15 5.3 5.3 L1.9 4.55 Q-5.75 1.65 -12.7 -2.4 L-14.35 -2.65 -13.3 -2.75 -14.2 -3.3 -14.4 -7.65 -14.45 -7.75 -14.45 -7.9 -14.55 -7.95 -14.55 -10.45 -14.55 -10.9 -14.55 -11.7 -14.6 -14.7 -14.8 -24.5 -15.0 -31.6 Q-15.1 -35.8 -14.55 -39.9 -13.55 -41.2 -12.05 -41.7 L-5.35 -43.45 -4.9 -43.5 -2.75 -43.9 3.65 -43.75 4.95 -43.65 4.95 -44.0 Q4.85 -50.1 6.0 -55.8 L6.2 -55.9 M19.05 -14.75 L20.45 -14.5 20.4 -24.5 20.35 -27.5 20.25 -30.6 20.15 -36.75 Q18.3 -40.75 13.65 -41.35 L13.05 -41.5 14.4 -36.9 16.2 -29.15 16.55 -27.5 17.05 -24.5 18.2 -15.0 19.05 -14.75 M6.45 -46.95 L6.4 -47.65 6.35 -46.95 5.15 -34.4 4.35 -27.5 4.0 -24.5 2.5 -14.55 2.3 -14.25 2.15 -14.0 2.15 -13.9 3.45 -13.9 Q4.95 -19.1 5.6 -24.5 L5.85 -26.85 5.95 -27.5 6.7 -40.2 6.65 -46.6 6.55 -46.75 6.45 -46.95 M0.9 -14.0 L0.9 -14.55 1.15 -14.8 2.85 -24.5 3.35 -27.5 4.25 -33.4 4.3 -33.8 4.35 -34.0 4.55 -35.65 4.65 -36.65 4.7 -37.2 4.45 -37.25 4.7 -37.25 4.95 -43.0 -4.9 -41.75 -5.75 -41.65 Q-8.95 -41.25 -11.95 -40.15 L-12.25 -39.9 -12.5 -39.65 -12.75 -39.35 -13.05 -39.1 Q-13.65 -37.0 -13.6 -34.8 L-13.3 -24.5 -13.15 -17.95 -13.1 -14.0 Q-12.45 -15.0 -11.15 -15.2 L-8.8 -15.4 -7.85 -15.45 -7.75 -15.4 -7.0 -15.1 -6.3 -14.75 -6.3 -14.8 -5.15 -13.85 Q-2.2 -14.05 0.9 -13.75 L0.9 -14.0 M15.0 -5.45 L14.9 -5.6 14.9 -5.75 15.15 -5.9 Q16.8 -6.65 18.25 -7.6 L11.0 -7.6 11.15 -6.75 11.15 -6.7 11.15 -6.65 11.15 -6.55 Q11.1 -5.8 10.3 -5.8 L9.85 -5.85 Q9.5 -5.85 9.25 -6.05 L9.2 -6.2 9.3 -6.35 9.35 -6.45 9.35 -6.5 10.05 -7.45 10.1 -7.6 4.2 -7.55 2.1 -7.75 4.4 -6.65 4.4 -6.55 4.4 -5.9 Q4.1 -4.15 1.7 -3.8 L0.1 -3.75 Q-0.9 -3.85 -1.5 -4.25 -2.5 -4.9 -2.5 -6.2 L-2.5 -6.25 -2.45 -6.6 -2.45 -6.9 -2.25 -7.65 -2.7 -7.45 -3.55 -7.4 -3.9 -7.65 -4.1 -7.6 -4.5 -7.3 -4.55 -6.95 -4.55 -6.8 -4.75 -6.55 -4.75 -6.65 Q-6.55 -4.25 -10.35 -4.8 -12.0 -5.05 -13.1 -6.0 L-12.9 -4.8 -12.75 -4.35 -10.8 -3.05 -10.7 -3.0 -9.6 -3.05 -4.05 -2.95 5.8 -2.55 19.85 -1.85 19.8 -1.9 19.5 -2.35 19.6 -4.45 Q18.95 -3.8 17.85 -3.55 L17.3 -3.45 Q16.2 -3.8 15.5 -4.7 L15.0 -5.45 M20.05 -7.6 L20.1 -7.5 20.1 -7.6 20.05 -7.6 M-5.05 -10.7 Q-5.25 -11.7 -5.75 -12.7 L-6.55 -13.75 -7.75 -14.25 -9.25 -14.8 -10.9 -14.35 -11.25 -14.3 Q-11.7 -13.9 -12.25 -13.7 L-12.45 -13.5 -12.5 -13.35 -12.6 -13.3 -12.95 -13.25 -13.15 -12.9 -13.15 -12.55 -13.65 -10.7 -13.6 -10.2 Q-13.75 -8.85 -13.1 -7.7 -11.5 -4.7 -8.25 -5.45 -5.0 -6.2 -5.05 -9.35 L-5.05 -10.7 M19.75 -0.95 L19.8 -1.05 19.9 -1.4 19.85 -1.8 Q18.85 -0.5 16.7 -0.85 L12.5 -1.3 -3.85 -2.05 -9.6 -2.25 -7.3 -0.95 Q-5.15 0.5 -2.7 1.45 L-2.3 1.6 -1.8 1.7 -1.55 1.7 -1.45 1.7 Q1.75 2.9 5.15 3.7 L8.55 4.05 8.75 4.15 11.3 3.7 11.8 3.5 Q15.25 2.0 18.4 0.05 L19.25 -0.5 19.75 -0.95" fill="#000000" fill-rule="evenodd" stroke="none"/>
    <path d="M7.65 -37.55 L7.65 -43.0 Q7.55 -46.35 7.1 -49.6 L6.7 -51.45 6.8 -53.35 Q10.7 -45.45 12.8 -36.8 L12.15 -37.05 7.65 -37.55 M19.25 -13.35 L21.35 -13.0 21.35 -12.2 21.95 -8.75 10.8 -9.35 10.75 -9.95 17.6 -10.2 Q18.2 -10.2 18.7 -10.55 19.15 -10.85 19.2 -11.35 L19.25 -13.35 M10.2 -9.95 L10.25 -9.35 5.1 -9.35 Q0.65 -9.45 -3.85 -9.15 L-3.9 -9.6 -3.85 -10.15 Q3.15 -9.8 10.2 -9.95 M6.35 -46.95 L6.4 -47.65 6.45 -46.95 6.35 -46.95 M4.4 -5.9 L6.5 -5.75 15.0 -5.45 15.5 -4.7 Q16.2 -3.8 17.3 -3.45 L17.85 -3.55 Q18.95 -3.8 19.6 -4.45 L19.5 -2.35 19.8 -1.9 19.85 -1.85 5.8 -2.55 -4.05 -2.95 -4.3 -5.8 Q-4.25 -6.45 -3.6 -6.7 L-3.05 -6.85 -2.45 -6.6 -2.5 -6.25 -2.5 -6.2 Q-2.5 -4.9 -1.5 -4.25 -0.9 -3.85 0.1 -3.75 L1.7 -3.8 Q4.1 -4.15 4.4 -5.9 M-5.05 -10.7 L-5.05 -9.35 -5.15 -10.65 -5.05 -10.7" fill="#bfc644" fill-rule="evenodd" stroke="none"/>
    <path d="M14.4 -36.9 L13.05 -41.5 13.65 -41.35 Q18.3 -40.75 20.15 -36.75 L20.25 -30.6 20.35 -27.5 20.4 -24.5 20.45 -14.5 19.05 -14.75 19.0 -16.65 18.75 -21.0 18.6 -24.5 18.4 -27.5 17.65 -34.3 Q17.6 -35.0 17.05 -35.4 L14.4 -36.9 M-8.8 -15.4 L-11.15 -15.2 Q-12.45 -15.0 -13.1 -14.0 L-13.15 -17.95 -13.3 -24.5 -13.6 -34.8 Q-13.65 -37.0 -13.05 -39.1 L-12.75 -39.35 -12.5 -39.65 -12.25 -39.9 -11.95 -40.15 Q-8.95 -41.25 -5.75 -41.65 L-4.9 -41.75 4.95 -43.0 4.7 -37.25 4.45 -37.25 -4.9 -37.25 -6.4 -37.3 -8.95 -36.4 -10.0 -35.35 Q-10.45 -34.1 -10.5 -32.65 -10.65 -28.55 -10.45 -24.5 L-10.1 -19.3 -9.8 -16.0 -9.75 -15.35 -8.8 -15.4" fill="#9ac455" fill-rule="evenodd" stroke="none"/>
    <path d="M7.65 -37.55 L12.15 -37.05 12.8 -36.8 12.9 -36.35 14.8 -27.5 15.35 -24.5 16.5 -17.3 16.75 -16.5 17.15 -13.8 19.25 -13.35 19.2 -11.35 Q19.15 -10.85 18.7 -10.55 18.2 -10.2 17.6 -10.2 L10.75 -9.95 10.7 -10.55 10.7 -10.9 10.7 -11.05 10.65 -11.1 10.65 -11.2 10.45 -11.3 10.35 -11.25 10.35 -11.05 10.15 -10.75 10.15 -10.6 10.15 -10.55 10.2 -9.95 Q3.15 -9.8 -3.85 -10.15 -3.85 -11.35 -4.2 -12.25 L2.05 -12.4 2.15 -12.7 Q3.05 -12.85 3.65 -13.35 5.15 -14.5 5.5 -16.55 L6.65 -24.5 7.0 -27.5 7.2 -29.7 7.65 -37.55 M6.35 -46.95 L6.45 -46.95 6.55 -46.75 6.65 -46.6 6.7 -40.2 5.95 -27.5 5.85 -26.85 5.6 -24.5 Q4.95 -19.1 3.45 -13.9 L2.15 -13.9 2.15 -14.0 2.3 -14.25 2.5 -14.55 4.0 -24.5 4.35 -27.5 5.15 -34.4 6.35 -46.95 M4.4 -5.9 L4.4 -6.55 4.4 -6.65 2.1 -7.75 4.2 -7.55 10.1 -7.6 10.05 -7.45 9.35 -6.5 9.35 -6.45 9.3 -6.35 9.2 -6.2 9.25 -6.05 Q9.5 -5.85 9.85 -5.85 L10.3 -5.8 Q11.1 -5.8 11.15 -6.55 L11.15 -6.65 11.15 -6.7 11.15 -6.75 11.0 -7.6 18.25 -7.6 Q16.8 -6.65 15.15 -5.9 L14.9 -5.75 14.9 -5.6 15.0 -5.45 6.5 -5.75 4.4 -5.9 M-4.05 -2.95 L-9.6 -3.05 -10.7 -3.0 -10.8 -3.05 -12.75 -4.35 -12.9 -4.8 -13.1 -6.0 Q-12.0 -5.05 -10.35 -4.8 -6.55 -4.25 -4.75 -6.65 L-4.75 -6.55 -4.55 -6.8 -4.55 -6.95 -4.5 -7.3 -4.1 -7.6 -3.9 -7.65 -3.55 -7.4 -2.7 -7.45 -2.25 -7.65 -2.45 -6.9 -2.45 -6.6 -3.05 -6.85 -3.6 -6.7 Q-4.25 -6.45 -4.3 -5.8 L-4.05 -2.95" fill="#95952f" fill-rule="evenodd" stroke="none"/>
    <path d="M14.4 -36.9 L17.05 -35.4 Q17.6 -35.0 17.65 -34.3 L18.4 -27.5 18.6 -24.5 18.75 -21.0 19.0 -16.65 19.05 -14.75 18.2 -15.0 17.05 -24.5 16.55 -27.5 16.2 -29.15 14.4 -36.9 M4.45 -37.25 L4.7 -37.2 4.65 -36.65 4.55 -35.65 4.35 -34.0 4.3 -33.8 4.25 -33.4 3.35 -27.5 2.85 -24.5 1.15 -14.8 0.9 -14.55 0.9 -14.0 0.9 -13.75 Q-2.2 -14.05 -5.15 -13.85 L-6.3 -14.8 -6.3 -14.75 -7.0 -15.1 -7.75 -15.4 -7.85 -15.45 -8.8 -15.4 -9.75 -15.35 -9.8 -16.0 -10.1 -19.3 -10.45 -24.5 Q-10.65 -28.55 -10.5 -32.65 -10.45 -34.1 -10.0 -35.35 L-8.95 -36.4 -6.4 -37.3 -4.9 -37.25 4.45 -37.25 M19.75 -0.95 L19.25 -0.5 18.4 0.05 Q15.25 2.0 11.8 3.5 L11.3 3.7 8.75 4.15 8.55 4.05 5.15 3.7 Q1.75 2.9 -1.45 1.7 L-1.55 1.7 -1.8 1.7 -2.3 1.6 -2.7 1.45 Q-5.15 0.5 -7.3 -0.95 L-9.6 -2.25 -3.85 -2.05 12.5 -1.3 16.7 -0.85 Q18.85 -0.5 19.85 -1.8 L19.9 -1.4 19.8 -1.05 19.75 -0.95 M-5.05 -9.35 Q-5.0 -6.2 -8.25 -5.45 -11.5 -4.7 -13.1 -7.7 -13.75 -8.85 -13.6 -10.2 L-13.65 -10.7 -13.15 -12.55 -13.15 -12.9 -12.95 -13.25 -12.6 -13.3 -12.5 -13.35 -12.45 -13.5 -12.25 -13.7 Q-11.7 -13.9 -11.25 -14.3 L-10.9 -14.35 -9.25 -14.8 -7.75 -14.25 -6.55 -13.75 -5.75 -12.7 Q-5.25 -11.7 -5.05 -10.7 L-5.15 -10.65 -5.05 -9.35" fill="#678d32" fill-rule="evenodd" stroke="none"/>
    <path d="M20.05 -7.6 L20.1 -7.6 20.1 -7.5 20.05 -7.6" fill="#d27606" fill-rule="evenodd" stroke="none"/>
  </g>
</svg>
