<?xml version="1.0" encoding="UTF-8" standalone="no"?>
<svg xmlns:xlink="http://www.w3.org/1999/xlink" height="61.65px" width="41.85px" xmlns="http://www.w3.org/2000/svg">
  <g transform="matrix(1.0, 0.0, 0.0, 1.0, 20.35, 36.15)">
    <path d="M-3.9 -23.55 Q-2.3 -30.2 0.95 -36.05 L1.1 -36.1 1.7 -36.15 1.9 -36.0 2.2 -36.05 Q4.85 -29.7 6.7 -23.15 L6.75 -23.0 6.8 -23.15 7.1 -23.55 7.3 -23.85 7.45 -23.9 7.95 -24.0 7.95 -24.1 17.45 -22.05 18.05 -21.85 Q18.5 -21.1 18.35 -20.3 L18.2 -18.5 18.2 -16.6 18.45 -16.2 18.7 -15.85 Q18.5 -9.0 18.45 -2.0 L18.45 5.1 18.55 5.15 18.7 5.25 18.7 5.3 Q21.95 7.95 21.45 13.0 L21.05 16.0 19.35 17.4 18.9 17.5 18.7 17.5 18.75 17.9 18.9 18.0 18.75 18.0 18.45 18.7 18.05 19.35 Q17.05 19.65 16.35 20.4 L15.8 20.75 15.65 21.1 15.55 21.35 Q5.05 28.15 -6.9 23.75 -12.1 21.7 -16.45 18.3 -16.85 17.15 -17.65 16.4 L-17.6 16.4 Q-18.45 14.9 -20.05 14.1 -21.1 9.1 -18.35 5.35 L-17.3 4.45 -17.0 4.25 Q-17.65 -3.6 -17.8 -11.45 -17.9 -16.55 -17.6 -21.6 L-10.25 -23.85 -7.55 -24.55 -4.45 -24.15 -4.3 -23.95 -4.25 -23.6 -4.55 -22.95 Q-10.2 -22.3 -15.5 -20.3 L-16.25 -20.05 -16.1 -4.35 -16.15 4.45 -16.0 4.8 -14.8 4.9 -14.4 4.95 -14.15 5.0 -12.5 4.85 -11.0 4.5 -7.4 4.6 -7.4 4.15 -7.35 2.95 -7.35 1.85 -7.3 1.3 -7.3 0.4 -7.25 -0.25 -4.9 -18.95 -4.2 -22.35 -3.9 -23.55 M15.9 4.05 L17.65 4.75 Q17.15 -1.65 17.25 -8.2 L17.2 -15.35 16.9 -15.7 16.7 -16.05 16.7 -16.85 16.7 -17.6 16.7 -19.05 16.7 -20.05 Q13.35 -21.7 9.45 -21.95 L8.7 -22.05 7.95 -21.9 7.45 -21.95 6.95 -22.25 7.05 -21.85 7.65 -19.5 7.75 -19.2 8.6 -15.2 9.1 -12.75 9.35 -11.3 9.9 -7.65 Q10.45 -3.3 11.6 1.0 11.9 2.1 11.85 3.25 L15.9 4.05 M5.6 -20.55 L4.75 -24.45 Q3.55 -29.9 1.75 -35.0 -1.4 -27.35 -3.15 -19.3 -4.4 -13.6 -4.9 -7.7 L-6.3 4.6 -5.95 5.05 -5.75 5.4 -6.6 5.6 -6.75 5.8 -7.4 5.8 -7.4 5.75 -11.7 6.3 -13.55 6.4 -14.85 6.05 -15.7 5.75 Q-15.15 7.5 -15.0 9.4 L-14.65 9.45 -12.85 9.5 0.85 8.85 0.95 6.25 0.95 5.9 Q1.2 5.6 1.5 5.45 L1.7 5.4 2.1 8.65 10.6 9.35 12.45 8.85 13.1 9.15 13.15 9.5 14.2 9.6 16.55 9.7 Q16.7 8.1 17.0 6.5 L17.25 5.7 14.25 5.25 11.45 5.5 10.55 5.4 10.2 5.05 10.2 4.2 9.95 4.05 Q8.1 -8.3 5.6 -20.55 M-7.3 10.45 L-7.45 10.45 -7.3 10.65 Q-5.35 10.8 -3.75 11.85 L-3.75 11.9 -3.8 12.65 -4.15 13.75 -5.6 14.3 -5.95 14.4 -5.55 14.4 Q1.85 13.55 8.95 14.5 L9.0 14.5 11.0 14.8 Q13.7 15.25 15.85 16.2 L16.65 16.55 16.6 15.95 16.55 15.8 16.55 15.65 16.4 13.45 Q16.35 11.65 16.55 9.85 L13.2 10.05 13.5 11.4 13.55 11.75 13.4 12.1 Q11.9 14.7 9.0 14.3 L8.2 14.1 6.55 12.35 6.45 12.3 Q7.45 11.0 8.8 10.2 L2.2 10.35 2.2 11.0 2.2 11.4 1.65 11.65 1.05 11.85 0.8 11.6 0.7 11.5 0.75 10.4 -7.3 10.45 M-18.0 6.15 Q-19.3 8.95 -18.95 12.15 L-18.9 12.85 Q-18.2 14.0 -16.9 14.85 L-16.7 10.4 -16.9 10.4 -17.2 9.95 -17.25 9.65 -16.65 9.35 -16.55 6.75 Q-16.55 5.5 -17.4 5.8 -17.75 5.9 -18.0 6.15 M-9.9 12.5 L-10.4 11.75 -10.5 11.4 -10.5 10.65 -10.45 10.45 -12.15 10.45 -14.95 10.4 -15.1 12.75 -15.15 13.25 -15.25 15.85 -13.8 15.5 Q-10.4 14.5 -7.0 14.4 L-9.3 13.65 -9.9 12.55 -9.9 12.5 M18.05 6.5 Q17.1 10.55 17.45 14.75 L17.45 15.1 17.9 15.75 18.9 15.75 19.55 15.0 Q20.2 10.45 18.3 6.45 L18.05 6.5 M15.15 19.25 L16.75 17.8 11.95 16.8 9.85 16.45 Q-3.15 15.6 -15.75 17.6 -4.2 26.1 10.15 21.9 12.8 21.05 15.15 19.25" fill="#000000" fill-rule="evenodd" stroke="none"/>
    <path d="M-3.15 -19.3 Q-1.4 -27.35 1.75 -35.0 3.55 -29.9 4.75 -24.45 L5.6 -20.55 -3.15 -19.3 M14.25 5.25 L17.25 5.7 17.0 6.5 Q16.7 8.1 16.55 9.7 L14.2 9.6 Q13.95 7.35 14.25 5.25 M-12.85 9.5 L-14.65 9.45 -15.0 9.4 Q-15.15 7.5 -15.7 5.75 L-14.85 6.05 -13.55 6.4 -11.7 6.3 -11.85 7.0 -12.25 9.5 -12.85 9.5 M0.8 11.6 L1.05 11.85 1.65 11.65 6.55 12.35 8.2 14.1 9.0 14.3 Q11.9 14.7 13.4 12.1 15.0 11.95 16.4 12.7 L16.4 13.45 16.55 15.65 16.55 15.8 16.6 15.95 16.55 15.95 15.85 16.2 Q13.7 15.25 11.0 14.8 L9.0 14.5 9.0 14.3 8.95 14.5 Q1.85 13.55 -5.55 14.4 L-5.6 14.3 -4.15 13.75 -3.8 12.65 -3.75 11.9 -3.55 11.85 0.8 11.6 M-15.15 13.25 L-13.05 12.75 -10.0 12.4 -9.9 12.5 -9.9 12.55 -9.3 13.65 -7.0 14.4 Q-10.4 14.5 -13.8 15.5 L-15.25 15.85 -15.15 13.25" fill="#bfc644" fill-rule="evenodd" stroke="none"/>
    <path d="M-3.15 -19.3 L5.6 -20.55 Q8.1 -8.3 9.95 4.05 L10.2 4.2 10.2 5.05 10.55 5.4 11.45 5.5 14.25 5.25 Q13.95 7.35 14.2 9.6 L13.15 9.5 13.1 9.15 12.45 8.85 10.6 9.35 2.1 8.65 1.7 5.4 1.5 5.45 Q1.2 5.6 0.95 5.9 L0.95 6.25 0.85 8.85 -12.85 9.5 -12.25 9.5 -11.85 7.0 -11.7 6.3 -7.4 5.75 -7.4 5.8 -6.75 5.8 -6.6 5.6 -5.75 5.4 -5.95 5.05 -6.3 4.6 -4.9 -7.7 Q-4.4 -13.6 -3.15 -19.3 M-7.3 10.65 L-7.3 10.45 0.75 10.4 0.7 11.5 0.8 11.6 -3.55 11.85 -3.75 11.9 -3.75 11.85 Q-5.35 10.8 -7.3 10.65 M1.65 11.65 L2.2 11.4 2.2 11.0 2.2 10.35 8.8 10.2 Q7.45 11.0 6.45 12.3 L6.55 12.35 1.65 11.65 M13.4 12.1 L13.55 11.75 13.5 11.4 13.2 10.05 16.55 9.85 Q16.35 11.65 16.4 13.45 L16.4 12.7 Q15.0 11.95 13.4 12.1 M16.6 15.95 L16.65 16.55 15.85 16.2 16.55 15.95 16.6 15.95 M-15.15 13.25 L-15.1 12.75 -14.95 10.4 -12.15 10.45 -10.45 10.45 -10.5 10.65 -10.5 11.4 -10.4 11.75 -9.9 12.5 -10.0 12.4 -13.05 12.75 -15.15 13.25" fill="#95952f" fill-rule="evenodd" stroke="none"/>
    <path d="M-4.9 -18.95 L-7.25 -0.25 -7.3 0.4 -7.3 1.3 -7.35 1.85 -7.35 2.95 -7.4 4.15 -7.4 4.6 -11.0 4.5 -12.5 4.85 -14.15 5.0 -14.4 4.95 -12.75 -14.15 Q-12.55 -16.2 -10.7 -17.25 -7.75 -19.0 -4.8 -19.65 L-4.9 -18.95 M7.65 -19.5 Q12.05 -19.05 15.3 -16.0 15.9 -15.45 15.95 -14.5 16.6 -5.2 15.9 4.05 L11.85 3.25 Q11.9 2.1 11.6 1.0 10.45 -3.3 9.9 -7.65 L9.35 -11.3 9.2 -12.15 9.2 -12.7 9.1 -12.75 8.6 -15.2 7.75 -19.2 7.65 -19.5 M-18.0 6.15 Q-17.75 5.9 -17.4 5.8 -16.55 5.5 -16.55 6.75 L-16.65 9.35 -17.25 9.65 -17.2 9.95 -16.9 10.4 -16.7 10.4 -16.9 14.85 Q-18.2 14.0 -18.9 12.85 L-18.95 12.15 Q-19.3 8.95 -18.0 6.15 M18.05 6.5 L18.3 6.45 Q20.2 10.45 19.55 15.0 L18.9 15.75 17.9 15.75 17.45 15.1 17.45 14.75 Q17.1 10.55 18.05 6.5 M15.15 19.25 Q12.8 21.05 10.15 21.9 -4.2 26.1 -15.75 17.6 -3.15 15.6 9.85 16.45 L11.95 16.8 16.75 17.8 15.15 19.25" fill="#678d32" fill-rule="evenodd" stroke="none"/>
    <path d="M-4.25 -23.6 L-3.9 -23.55 -4.2 -22.35 -4.9 -18.95 -4.8 -19.65 Q-7.75 -19.0 -10.7 -17.25 -12.55 -16.2 -12.75 -14.15 L-14.4 4.95 -14.8 4.9 -16.0 4.8 -16.15 4.45 -16.1 -4.35 -16.25 -20.05 -15.5 -20.3 Q-10.2 -22.3 -4.55 -22.95 L-4.25 -23.6 M7.45 -21.95 L7.95 -21.9 8.7 -22.05 9.45 -21.95 Q13.35 -21.7 16.7 -20.05 L16.7 -19.05 16.7 -17.6 16.7 -16.85 16.7 -16.05 16.9 -15.7 17.2 -15.35 17.25 -8.2 Q17.15 -1.65 17.65 4.75 L15.9 4.05 Q16.6 -5.2 15.95 -14.5 15.9 -15.45 15.3 -16.0 12.05 -19.05 7.65 -19.5 L7.05 -21.85 7.45 -21.95 M9.35 -11.3 L9.1 -12.75 9.2 -12.7 9.2 -12.15 9.35 -11.3" fill="#9ac455" fill-rule="evenodd" stroke="none"/>
  </g>
</svg>
