<?xml version="1.0" encoding="UTF-8" standalone="no"?>
<svg xmlns:xlink="http://www.w3.org/1999/xlink" height="58.55px" width="37.25px" xmlns="http://www.w3.org/2000/svg">
  <g transform="matrix(1.0, 0.0, 0.0, 1.0, 18.8, 34.15)">
    <path d="M1.0 -32.5 Q-0.45 -28.1 -2.95 -24.15 L-0.9 -24.3 0.35 -24.35 0.95 -24.4 1.6 -24.35 2.2 -24.35 4.4 -24.25 Q2.55 -28.2 1.05 -32.35 L1.0 -32.5 M1.6 -33.95 Q3.7 -29.4 5.15 -24.6 L5.3 -24.15 7.0 -23.95 8.15 -23.75 8.75 -23.6 10.5 -23.25 12.5 -22.6 12.75 -22.55 13.9 -22.1 17.35 -20.5 18.0 -20.55 18.05 -19.9 18.35 -19.35 18.35 -19.15 18.1 -18.8 18.25 -16.6 18.3 -14.5 18.4 -12.3 18.4 -10.2 18.45 -8.0 18.45 -5.9 18.4 -3.7 18.3 -0.9 18.3 0.9 18.25 2.1 18.25 3.3 18.25 3.95 18.25 5.75 18.2 8.15 18.25 8.85 18.25 9.45 18.3 11.85 18.35 14.25 18.4 16.65 18.3 20.3 17.6 20.65 17.15 20.4 15.15 21.05 13.05 21.6 10.95 22.15 8.85 22.65 6.75 23.15 3.6 23.85 1.4 24.25 0.3 24.4 -0.45 24.15 -0.55 24.1 -2.55 23.6 -4.55 23.0 -5.55 22.7 -6.55 22.4 -8.55 21.8 -10.5 21.25 -12.5 20.6 -16.9 19.15 -17.05 18.65 -17.3 16.85 -17.4 15.55 -17.55 14.25 -17.65 13.45 -17.85 11.1 -18.05 8.7 -18.15 7.05 -18.45 6.95 -18.6 6.7 -18.7 6.5 -18.8 6.25 -18.8 5.8 -18.2 5.4 -18.3 3.9 -18.4 1.5 -18.35 -0.9 Q-18.25 -2.8 -18.4 -4.5 L-18.4 -5.75 -18.4 -6.55 -18.35 -7.35 -18.35 -8.15 -18.35 -9.85 -18.35 -11.55 -18.35 -12.45 -18.35 -13.25 -18.35 -14.9 -18.35 -16.6 -18.35 -17.2 -18.3 -18.3 -17.85 -20.65 -17.1 -21.0 -15.3 -21.75 -13.6 -22.1 -12.0 -22.5 -10.3 -22.9 -8.65 -23.3 -6.85 -23.65 -5.1 -23.95 -4.9 -23.95 Q-2.1 -28.25 -0.3 -33.0 L0.5 -33.95 0.9 -34.15 1.2 -34.05 1.6 -33.95 M13.9 3.85 L14.55 4.05 16.4 4.55 16.4 3.65 16.4 2.5 16.45 1.3 16.5 0.1 16.55 -1.1 16.6 -2.3 16.65 -3.5 16.7 -4.7 16.7 -5.9 16.7 -7.7 16.8 -9.6 16.8 -10.8 16.85 -12.6 16.95 -14.45 16.95 -15.65 16.9 -16.85 17.0 -18.6 17.0 -18.75 16.35 -19.05 15.65 -19.35 14.95 -19.65 14.25 -19.95 13.55 -20.15 12.85 -20.45 12.5 -20.55 12.15 -20.65 11.4 -20.9 10.7 -21.05 9.95 -21.2 9.25 -21.4 8.45 -21.6 7.75 -21.7 6.95 -21.85 6.2 -21.95 5.4 -22.1 4.4 -22.15 3.3 -22.25 2.3 -22.25 1.2 -22.3 0.2 -22.25 -0.9 -22.25 -3.0 -22.15 -5.05 -21.9 -6.05 -21.7 -8.15 -21.35 -10.2 -20.9 -11.3 -20.7 -12.0 -20.5 -14.2 -20.0 -14.5 -19.8 -14.95 -19.4 -16.8 -19.1 -16.85 -17.9 -16.85 -17.2 -16.85 -14.55 -16.8 -13.45 -16.8 -12.35 -16.8 -11.25 -16.8 -10.15 -16.7 -8.95 -16.7 -7.85 -16.7 -6.7 -16.7 -5.6 -16.65 -4.4 -16.65 -3.3 -16.65 -2.2 -16.6 -1.1 -16.55 -0.2 -16.55 0.7 -16.55 1.6 -16.55 2.4 -16.45 3.3 -16.45 4.2 -16.45 4.55 -13.25 4.35 -12.5 4.45 -10.5 4.8 Q-9.1 3.8 -7.4 3.15 -5.7 2.5 -3.95 2.2 1.9 2.2 7.4 4.15 L8.05 4.3 Q9.9 2.5 12.55 3.4 L13.9 3.85 M13.85 12.75 L16.5 12.95 16.5 12.85 16.5 11.75 16.4 10.55 16.4 9.45 16.4 8.25 16.4 7.15 16.35 5.95 16.35 5.7 13.9 5.2 9.4 5.3 Q9.1 5.35 8.9 5.55 L7.6 6.25 Q8.0 8.85 7.8 11.5 L7.75 11.75 7.65 11.9 7.3 12.1 6.9 11.95 Q6.45 8.9 6.45 5.75 L6.25 5.5 Q0.2 3.55 -5.85 4.65 L-6.6 4.85 Q-7.9 5.3 -9.15 5.9 L-9.3 6.35 -9.4 6.55 -9.65 6.9 Q-9.4 9.8 -9.3 12.8 L-9.3 12.95 Q-6.2 12.85 -3.1 13.0 L0.05 13.1 Q3.45 13.15 6.1 12.1 L13.85 12.75 M13.9 14.25 L5.9 13.85 5.15 13.9 -5.8 14.25 -7.35 14.25 -12.5 14.65 -15.75 14.4 -16.0 14.15 -15.75 15.1 -15.6 15.7 Q-15.3 16.8 -15.4 17.8 L-14.6 18.1 -13.9 18.4 -13.2 18.7 -12.5 18.9 -12.3 19.0 -11.7 19.2 -11.0 19.4 -9.6 19.9 -8.1 20.4 -7.35 20.65 -5.85 21.1 -4.45 21.55 -3.75 21.7 -2.8 22.05 -0.2 23.05 Q0.15 22.8 0.55 22.6 L1.35 22.2 2.2 21.95 3.15 21.7 4.05 21.65 4.85 21.5 5.65 21.4 6.45 21.25 8.05 21.05 9.65 20.75 10.45 20.65 12.05 20.4 13.65 20.1 14.4 19.95 14.45 19.9 15.2 19.6 Q16.0 19.45 16.8 19.6 L16.75 18.5 16.7 17.4 16.65 16.3 16.55 15.1 16.55 14.15 16.4 14.15 13.9 14.25 M-13.05 6.2 L-16.4 6.45 -16.4 6.8 -16.35 8.6 -16.35 10.3 -16.35 11.1 -16.25 12.8 -16.2 13.05 -16.0 13.05 -15.7 13.25 -15.55 13.4 -12.6 13.1 -10.2 12.95 Q-10.65 10.15 -10.5 7.25 L-11.35 6.85 -11.5 6.65 Q-12.25 6.3 -13.05 6.2" fill="#000000" fill-rule="evenodd" stroke="none"/>
    <path d="M-13.25 4.35 L-16.45 4.55 -16.45 4.2 -16.45 3.3 -16.55 2.4 -16.55 1.6 -16.55 0.7 -16.55 -0.2 -16.6 -1.1 -16.65 -2.2 -16.65 -3.3 -16.65 -4.4 -16.7 -5.6 -16.7 -6.7 -16.7 -7.85 -16.7 -8.95 -16.8 -10.15 -16.8 -11.25 -16.8 -12.35 -16.8 -13.45 -16.85 -14.55 -16.85 -17.2 -16.85 -17.9 -16.8 -19.1 -14.95 -19.4 -14.5 -19.8 -14.2 -20.0 -12.0 -20.5 -11.3 -20.7 -10.2 -20.9 -8.15 -21.35 -6.05 -21.7 -5.05 -21.9 -3.0 -22.15 -0.9 -22.25 0.2 -22.25 1.2 -22.3 2.3 -22.25 3.3 -22.25 4.4 -22.15 5.4 -22.1 6.2 -21.95 6.95 -21.85 7.75 -21.7 8.45 -21.6 9.25 -21.4 9.95 -21.2 10.7 -21.05 11.4 -20.9 12.15 -20.65 12.5 -20.55 12.85 -20.45 13.55 -20.15 14.25 -19.95 14.95 -19.65 15.65 -19.35 16.35 -19.05 17.0 -18.75 17.0 -18.6 16.9 -16.85 16.95 -15.65 16.95 -14.45 16.85 -12.6 16.8 -10.8 16.8 -9.6 16.7 -7.7 16.7 -5.9 16.7 -4.7 16.65 -3.5 16.6 -2.3 16.55 -1.1 16.5 0.1 16.45 1.3 16.4 2.5 16.4 3.65 16.4 4.55 14.55 4.05 13.9 3.85 Q14.0 -7.45 13.6 -18.65 L12.5 -18.7 -8.25 -19.1 -14.15 -18.4 -14.05 -17.2 Q-13.7 -10.3 -13.65 -3.4 L-13.55 -0.4 -13.25 4.35 M13.9 5.2 L16.35 5.7 16.35 5.95 16.4 7.15 16.4 8.25 16.4 9.45 16.4 10.55 16.5 11.75 16.5 12.85 16.5 12.95 13.85 12.75 13.8 10.25 13.9 5.2 M13.9 14.25 L16.4 14.15 16.55 14.15 16.55 15.1 16.65 16.3 16.7 17.4 16.75 18.5 16.8 19.6 Q16.0 19.45 15.2 19.6 L14.45 19.9 14.4 19.95 14.15 17.7 13.9 14.25 M-12.3 19.0 L-12.5 18.9 -13.2 18.7 -13.9 18.4 -14.6 18.1 -15.4 17.8 Q-15.3 16.8 -15.6 15.7 L-15.75 15.1 -16.0 14.15 -15.75 14.4 -12.5 14.65 -12.3 19.0 M-12.6 13.1 L-15.55 13.4 -15.7 13.25 -16.0 13.05 -16.2 13.05 -16.25 12.8 -16.35 11.1 -16.35 10.3 -16.35 8.6 -16.4 6.8 -16.4 6.45 -13.05 6.2 -12.95 7.1 Q-12.75 8.65 -12.7 10.15 L-12.6 13.1" fill="#9ac455" fill-rule="evenodd" stroke="none"/>
    <path d="M13.9 3.85 L12.55 3.4 Q9.9 2.5 8.05 4.3 L7.4 4.15 Q1.9 2.2 -3.95 2.2 -5.7 2.5 -7.4 3.15 -9.1 3.8 -10.5 4.8 L-12.5 4.45 -13.25 4.35 -13.55 -0.4 -13.65 -3.4 Q-13.7 -10.3 -14.05 -17.2 L-14.15 -18.4 -8.25 -19.1 12.5 -18.7 13.6 -18.65 Q14.0 -7.45 13.9 3.85 M13.85 12.75 L6.1 12.1 Q3.45 13.15 0.05 13.1 L-3.1 13.0 Q-6.2 12.85 -9.3 12.95 L-9.3 12.8 Q-9.4 9.8 -9.65 6.9 L-9.4 6.55 -9.3 6.35 -9.15 5.9 Q-7.9 5.3 -6.6 4.85 L-5.85 4.65 Q0.2 3.55 6.25 5.5 L6.45 5.75 Q6.45 8.9 6.9 11.95 L7.3 12.1 7.65 11.9 7.75 11.75 7.8 11.5 Q8.0 8.85 7.6 6.25 L8.9 5.55 Q9.1 5.35 9.4 5.3 L13.9 5.2 13.8 10.25 13.85 12.75 M-12.5 14.65 L-7.35 14.25 -5.8 14.25 5.15 13.9 5.9 13.85 13.9 14.25 14.15 17.7 14.4 19.95 13.65 20.1 12.05 20.4 10.45 20.65 9.65 20.75 8.05 21.05 6.45 21.25 5.65 21.4 4.85 21.5 4.05 21.65 3.15 21.7 2.2 21.95 1.35 22.2 0.55 22.6 Q0.15 22.8 -0.2 23.05 L-2.8 22.05 -3.75 21.7 -4.45 21.55 -5.85 21.1 -7.35 20.65 -8.1 20.4 -9.6 19.9 -11.0 19.4 -11.7 19.2 -12.3 19.0 -12.5 14.65 M-13.05 6.2 Q-12.25 6.3 -11.5 6.65 L-11.35 6.85 -10.5 7.25 Q-10.65 10.15 -10.2 12.95 L-12.6 13.1 -12.7 10.15 Q-12.75 8.65 -12.95 7.1 L-13.05 6.2" fill="#678d32" fill-rule="evenodd" stroke="none"/>
    <path d="M1.0 -32.5 L1.05 -32.35 Q2.55 -28.2 4.4 -24.25 L2.2 -24.35 1.6 -24.35 0.95 -24.4 0.35 -24.35 -0.9 -24.3 -2.95 -24.15 Q-0.45 -28.1 1.0 -32.5" fill="#95952f" fill-rule="evenodd" stroke="none"/>
  </g>
</svg>
