<?xml version="1.0" encoding="UTF-8" standalone="no"?>
<svg xmlns:xlink="http://www.w3.org/1999/xlink" height="40.65px" width="43.65px" xmlns="http://www.w3.org/2000/svg">
  <g transform="matrix(1.0, 0.0, 0.0, 1.0, 21.35, 34.4)">
    <path d="M17.6 -14.6 L19.85 -15.6 21.4 -20.8 21.15 -21.55 21.15 -21.85 21.1 -22.4 Q19.6 -24.95 17.6 -26.85 16.6 -27.75 15.45 -28.45 6.75 -33.85 -3.5 -31.7 -9.65 -30.4 -15.0 -27.2 -14.55 -23.55 -12.65 -20.55 -11.7 -19.05 -10.4 -17.7 L-10.15 -17.45 -9.05 -16.55 Q-5.35 -13.85 -0.95 -12.85 L1.45 -12.75 3.2 -12.6 Q6.2 -17.6 7.7 -23.25 L7.8 -23.3 8.15 -23.35 8.15 -23.4 8.65 -23.25 Q9.85 -17.65 9.95 -11.95 11.6 -12.9 14.25 -13.55 L17.6 -14.6 M14.35 -3.3 L16.35 -4.05 19.75 -15.35 Q18.4 -14.0 16.75 -13.15 14.05 -11.85 10.5 -11.9 L9.95 -11.85 Q10.0 -7.05 9.3 -2.15 L9.55 -2.15 14.35 -3.3 M8.15 -19.35 L6.9 -15.95 Q4.85 -7.35 -2.1 -1.2 L-2.3 -1.05 Q-5.15 -1.45 -7.7 -2.45 -11.25 -3.15 -14.0 -5.95 -14.7 -5.0 -15.9 -4.75 -7.15 1.6 4.05 1.15 8.4 0.95 12.55 -0.45 L15.45 -1.1 15.6 -1.6 9.2 -1.15 9.0 -0.95 8.7 -0.65 8.25 -0.65 8.0 -0.95 Q9.4 -9.8 8.3 -18.75 L8.15 -19.35 M-16.1 -14.15 L-15.6 -14.15 -15.25 -14.2 Q-11.45 -11.15 -13.3 -7.15 -10.25 -4.3 -6.3 -2.8 L-5.9 -2.75 1.25 -10.2 2.7 -11.85 Q-1.75 -10.9 -5.95 -14.0 -8.4 -15.8 -11.0 -17.35 -11.55 -17.65 -11.9 -18.2 L-13.35 -20.55 Q-15.1 -23.75 -15.15 -27.1 L-15.35 -27.0 Q-16.5 -20.65 -18.2 -14.3 L-16.1 -14.15 M4.95 -12.25 Q1.4 -6.5 -4.5 -2.65 -2.05 -2.7 -0.1 -4.65 L2.2 -7.45 4.95 -12.25 M17.65 -0.3 L17.3 0.25 17.1 0.45 15.4 0.75 11.2 2.1 11.4 2.6 Q8.9 5.0 4.95 5.7 L2.95 6.05 Q-4.1 6.95 -10.6 3.75 -13.45 2.35 -15.9 0.35 -19.05 -2.2 -19.85 -5.65 -20.85 -6.65 -21.2 -8.55 -21.65 -10.95 -20.7 -13.2 -20.2 -13.8 -19.35 -14.0 L-18.85 -14.1 -18.85 -14.15 -18.85 -14.4 -19.0 -14.65 -19.25 -14.95 Q-18.85 -18.5 -18.0 -21.85 L-16.85 -27.7 -16.75 -27.9 -16.65 -27.95 -16.15 -27.95 -16.0 -27.8 -16.0 -27.9 -15.85 -28.7 Q-11.0 -32.15 -5.05 -33.5 L-1.1 -34.4 Q10.5 -34.7 18.95 -27.4 20.55 -26.05 21.35 -23.95 L22.3 -20.55 22.15 -20.35 21.95 -20.2 22.0 -20.15 Q20.0 -10.45 17.3 -1.0 L17.65 -0.3 M-18.7 -12.85 L-19.4 -12.55 Q-20.65 -9.95 -19.45 -7.6 L-19.25 -7.55 -19.05 -6.95 -18.9 -6.75 -18.4 -6.25 Q-16.3 -5.75 -14.95 -7.05 L-15.0 -7.1 -15.15 -7.35 -14.95 -7.9 -14.8 -8.1 -14.5 -8.1 -14.4 -8.1 Q-14.05 -10.2 -15.2 -12.05 L-15.6 -12.55 -16.85 -12.85 -17.3 -12.9 -17.25 -13.1 -17.1 -13.2 -18.1 -13.15 -18.3 -13.1 -18.7 -12.85 M-18.05 -4.7 Q-15.2 0.65 -8.65 2.6 L-4.05 3.75 Q1.2 4.9 6.2 2.95 -2.05 3.7 -10.2 0.2 -14.2 -1.55 -16.9 -4.6 L-18.05 -4.7" fill="#000000" fill-rule="evenodd" stroke="none"/>
    <path d="M8.15 -19.35 L8.3 -18.75 Q9.4 -9.8 8.0 -0.95 L8.25 -0.65 8.7 -0.65 9.0 -0.95 9.2 -1.15 15.6 -1.6 15.45 -1.1 12.55 -0.45 Q8.4 0.95 4.05 1.15 -7.15 1.6 -15.9 -4.75 -14.7 -5.0 -14.0 -5.95 -11.25 -3.15 -7.7 -2.45 -5.15 -1.45 -2.3 -1.05 L-2.1 -1.2 Q4.85 -7.35 6.9 -15.95 L8.15 -19.35 M4.95 -12.25 L2.2 -7.45 -0.1 -4.65 Q-2.05 -2.7 -4.5 -2.65 1.4 -6.5 4.95 -12.25" fill="#95952f" fill-rule="evenodd" stroke="none"/>
    <path d="M-12.65 -20.55 Q-14.55 -23.55 -15.0 -27.2 -9.65 -30.4 -3.5 -31.7 6.75 -33.85 15.45 -28.45 16.6 -27.75 17.6 -26.85 19.6 -24.95 21.1 -22.4 L21.15 -21.85 21.15 -21.55 21.4 -20.8 19.85 -15.6 17.6 -14.6 17.5 -15.9 Q17.25 -18.3 15.9 -20.15 9.9 -28.35 -0.75 -26.95 -7.6 -25.65 -12.65 -20.55 M16.75 -13.15 Q18.4 -14.0 19.75 -15.35 L16.35 -4.05 14.35 -3.3 15.2 -3.6 15.4 -6.4 Q15.45 -8.95 16.3 -11.35 L16.75 -13.15 M-13.35 -20.55 L-16.1 -14.15 -18.2 -14.3 Q-16.5 -20.65 -15.35 -27.0 L-15.15 -27.1 Q-15.1 -23.75 -13.35 -20.55" fill="#9ac455" fill-rule="evenodd" stroke="none"/>
    <path d="M-12.65 -20.55 Q-7.6 -25.65 -0.75 -26.95 9.9 -28.35 15.9 -20.15 17.25 -18.3 17.5 -15.9 L17.6 -14.6 14.25 -13.55 Q11.6 -12.9 9.95 -11.95 9.85 -17.65 8.65 -23.25 L8.15 -23.4 8.15 -23.35 7.8 -23.3 7.7 -23.25 Q6.2 -17.6 3.2 -12.6 L1.45 -12.75 -0.95 -12.85 Q-5.35 -13.85 -9.05 -16.55 L-10.15 -17.45 -10.4 -17.7 Q-11.7 -19.05 -12.65 -20.55 M16.75 -13.15 L16.3 -11.35 Q15.45 -8.95 15.4 -6.4 L15.2 -3.6 14.35 -3.3 9.55 -2.15 9.3 -2.15 Q10.0 -7.05 9.95 -11.85 L10.5 -11.9 Q14.05 -11.85 16.75 -13.15 M-13.35 -20.55 L-11.9 -18.2 Q-11.55 -17.65 -11.0 -17.35 -8.4 -15.8 -5.95 -14.0 -1.75 -10.9 2.7 -11.85 L1.25 -10.2 -5.9 -2.75 -6.3 -2.8 Q-10.25 -4.3 -13.3 -7.15 -11.45 -11.15 -15.25 -14.2 L-15.6 -14.15 -16.1 -14.15 -13.35 -20.55 M-18.05 -4.7 L-16.9 -4.6 Q-14.2 -1.55 -10.2 0.2 -2.05 3.7 6.2 2.95 1.2 4.9 -4.05 3.75 L-8.65 2.6 Q-15.2 0.65 -18.05 -4.7 M-18.7 -12.85 L-18.3 -13.1 -18.1 -13.15 -17.1 -13.2 -17.25 -13.1 -17.3 -12.9 -16.85 -12.85 -15.6 -12.55 -15.2 -12.05 Q-14.05 -10.2 -14.4 -8.1 L-14.5 -8.1 -14.8 -8.1 -14.95 -7.9 -15.15 -7.35 -15.0 -7.1 -14.95 -7.05 Q-16.3 -5.75 -18.4 -6.25 L-18.9 -6.75 -19.05 -6.95 -19.25 -7.55 -19.45 -7.6 Q-20.65 -9.95 -19.4 -12.55 L-18.7 -12.85" fill="#678d32" fill-rule="evenodd" stroke="none"/>
  </g>
</svg>
