<?xml version="1.0" encoding="UTF-8" standalone="no"?>
<svg xmlns:xlink="http://www.w3.org/1999/xlink" height="34.05px" width="31.0px" xmlns="http://www.w3.org/2000/svg">
  <g transform="matrix(1.0, 0.0, 0.0, 1.0, 15.55, 17.0)">
    <path d="M13.0 -13.75 L13.7 -13.8 14.0 -13.45 14.25 -11.7 Q14.25 -8.85 13.85 -6.0 13.5 -3.85 13.65 -1.2 L14.5 -0.2 14.85 1.5 Q15.15 2.85 14.05 3.6 L15.0 4.95 Q15.4 5.65 15.45 6.55 15.5 7.35 14.8 7.55 15.5 8.6 15.35 9.85 L15.15 10.9 Q14.8 12.35 14.8 14.0 14.8 14.8 14.1 14.95 2.9 14.4 -8.35 15.55 L-12.0 16.4 -14.55 17.05 -14.85 16.7 -14.65 11.05 -15.3 10.85 -15.15 10.35 -15.5 9.95 -15.15 7.7 -15.35 7.35 Q-15.7 5.55 -15.5 3.5 L-13.6 2.35 Q-13.4 -1.75 -12.05 -5.5 L-14.65 -6.3 Q-14.6 -9.65 -13.55 -12.55 -13.05 -13.85 -12.05 -14.8 -11.4 -15.45 -10.45 -15.6 L-1.8 -16.9 3.9 -16.95 Q8.85 -16.35 13.0 -13.75 M12.95 2.8 L13.4 2.3 13.35 1.7 13.2 1.2 12.55 0.1 12.5 -0.75 9.45 -4.25 3.15 -4.1 0.0 1.5 4.8 1.5 6.6 -3.05 7.15 -3.4 7.7 -2.95 9.8 1.1 9.75 1.8 12.95 2.85 12.95 2.9 12.95 2.8 M11.1 -6.8 L1.9 -6.95 -7.25 -7.9 -11.4 -8.4 -12.95 -8.7 -13.25 -7.35 Q-12.15 -6.7 -11.05 -6.5 L-10.75 -6.4 -10.45 -6.3 5.8 -5.4 11.35 -5.7 Q12.15 -5.65 12.7 -6.1 L12.8 -5.9 12.95 -6.75 13.0 -7.3 11.1 -6.8 M12.3 -4.05 L10.3 -4.3 12.4 -2.35 12.3 -4.05 M13.1 -7.95 L13.15 -10.05 13.1 -12.45 Q7.7 -16.55 0.45 -15.75 -5.8 -15.55 -11.65 -13.65 L-11.95 -13.5 -12.35 -12.05 -12.75 -9.65 -12.7 -9.65 -12.7 -9.7 1.9 -8.0 Q7.5 -7.75 13.1 -7.95 M10.45 3.7 Q10.9 4.8 10.55 6.0 L14.2 6.5 14.2 5.05 13.25 4.15 10.15 2.95 10.45 3.7 M10.5 7.25 L3.05 7.25 Q2.15 9.7 0.0 11.05 L-0.7 11.3 -13.5 12.3 -13.5 14.85 -8.1 14.5 1.75 13.35 11.7 13.2 13.65 13.15 13.7 11.7 13.2 11.3 12.8 10.95 11.35 8.85 10.6 7.6 10.5 7.35 10.6 7.25 10.5 7.25 M13.75 9.75 L13.4 7.7 12.3 7.6 13.75 9.75 M6.7 3.65 Q7.15 3.6 7.45 3.9 L7.6 4.1 Q7.8 4.9 6.95 5.15 5.3 5.55 4.4 4.6 L4.5 4.1 4.65 3.8 6.7 3.65 M6.0 1.5 L8.45 1.65 6.9 -1.05 6.0 1.5 M9.35 5.15 L9.1 2.9 3.5 2.75 3.2 5.65 9.2 5.25 9.35 5.15 M2.15 5.65 L2.7 2.75 -8.0 3.3 -9.15 6.3 2.15 5.65 M-10.3 -5.15 L-10.85 -4.05 -11.35 -4.05 -11.75 -2.8 -11.85 -2.35 -12.35 1.95 -10.6 -1.0 -10.3 -0.9 -10.2 -0.75 -9.35 -0.7 -8.6 -0.85 -7.2 -1.3 -6.1 -0.65 -7.35 1.8 -1.3 1.4 2.4 -4.1 -10.3 -5.15 M0.5 9.45 L2.2 7.3 -2.4 7.55 -3.6 10.0 0.5 9.45 M-13.85 9.35 L-14.1 9.95 -11.85 10.3 -11.25 7.9 Q-9.25 5.05 -8.4 1.45 L-8.3 0.85 -9.0 0.8 -10.6 0.9 -14.0 9.3 -14.1 9.5 -13.85 9.35 M-4.6 9.35 L-3.5 7.6 -9.6 7.7 -10.35 10.65 -4.6 9.95 -4.6 9.35 M-14.3 6.45 L-13.3 3.95 -14.15 4.2 -14.35 6.4 -14.35 6.5 -14.3 6.45" fill="#000000" fill-rule="evenodd" stroke="none"/>
    <path d="M12.95 2.85 L9.75 1.8 9.8 1.1 7.7 -2.95 7.15 -3.4 6.6 -3.05 4.8 1.5 0.0 1.5 3.15 -4.1 9.45 -4.25 12.5 -0.75 12.55 0.1 13.2 1.2 13.35 1.7 13.4 2.3 12.95 2.8 12.95 2.85 M11.1 -6.8 L13.0 -7.3 12.95 -6.75 12.8 -5.9 12.7 -6.1 Q12.15 -5.65 11.35 -5.7 L5.8 -5.4 -10.45 -6.3 -10.75 -6.4 -11.05 -6.5 Q-12.15 -6.7 -13.25 -7.35 L-12.95 -8.7 -11.4 -8.4 -7.25 -7.9 1.9 -6.95 11.1 -6.8 M13.1 -7.95 Q7.5 -7.75 1.9 -8.0 L-12.7 -9.7 -12.7 -9.65 -12.75 -9.65 -12.35 -12.05 -11.95 -13.5 -11.65 -13.65 Q-5.8 -15.55 0.45 -15.75 7.7 -16.55 13.1 -12.45 L13.15 -10.05 13.1 -7.95 M12.3 -4.05 L12.4 -2.35 10.3 -4.3 12.3 -4.05 M13.75 9.75 L12.3 7.6 13.4 7.7 13.75 9.75 M0.5 9.45 L-3.6 10.0 -2.4 7.55 2.2 7.3 0.5 9.45 M-10.3 -5.15 L2.4 -4.1 -1.3 1.4 -7.35 1.8 -6.1 -0.65 -7.2 -1.3 -8.6 -0.85 -9.35 -0.7 -10.2 -0.75 -10.3 -0.9 -10.6 -1.0 -12.35 1.95 -11.85 -2.35 -11.75 -2.8 -11.35 -4.05 -10.85 -4.05 -10.3 -5.15 M-4.6 9.35 L-4.6 9.95 -10.35 10.65 -9.6 7.7 -3.5 7.6 -4.6 9.35" fill="#6f5e55" fill-rule="evenodd" stroke="none"/>
    <path d="M10.5 7.35 L10.6 7.6 11.35 8.85 12.8 10.95 13.2 11.3 13.7 11.7 13.65 13.15 11.7 13.2 1.75 13.35 -8.1 14.5 -13.5 14.85 -13.5 12.3 -0.7 11.3 0.0 11.05 Q2.15 9.7 3.05 7.25 L10.5 7.25 10.5 7.35 M6.0 1.5 L6.9 -1.05 8.45 1.65 6.0 1.5" fill="#666666" fill-rule="evenodd" stroke="none"/>
    <path d="M10.45 3.7 L10.15 2.95 13.25 4.15 14.2 5.05 14.2 6.5 10.55 6.0 Q10.9 4.8 10.45 3.7 M2.15 5.65 L-9.15 6.3 -8.0 3.3 2.7 2.75 2.15 5.65 M-14.0 9.3 L-10.6 0.9 -9.0 0.8 -8.3 0.85 -8.4 1.45 Q-9.25 5.05 -11.25 7.9 L-11.85 10.3 -14.1 9.95 -13.85 9.35 -14.0 9.3 M-14.35 6.4 L-14.15 4.2 -13.3 3.95 -14.3 6.45 -14.35 6.4" fill="#886c4d" fill-rule="evenodd" stroke="none"/>
    <path d="M6.7 3.65 L4.65 3.8 4.5 4.1 4.4 4.6 Q5.3 5.55 6.95 5.15 7.8 4.9 7.6 4.1 L7.45 3.9 Q7.15 3.6 6.7 3.65 M9.35 5.15 L9.2 5.25 3.2 5.65 3.5 2.75 9.1 2.9 9.35 5.15" fill="#bc9318" fill-rule="evenodd" stroke="none"/>
  </g>
</svg>
