<?xml version="1.0" encoding="UTF-8" standalone="no"?>
<svg xmlns:xlink="http://www.w3.org/1999/xlink" height="39.45px" width="33.85px" xmlns="http://www.w3.org/2000/svg">
  <g transform="matrix(1.0, 0.0, 0.0, 1.0, 17.2, 17.55)">
    <path d="M-12.35 -8.1 L-12.25 -9.5 Q-3.15 -12.05 6.3 -11.1 L9.1 -10.85 9.35 -10.9 12.2 -9.8 12.65 -8.0 -6.55 -9.25 Q-9.25 -7.4 -12.35 -7.95 L-12.35 -8.1 M13.3 -1.2 Q9.9 2.8 4.4 4.9 -0.85 6.9 -6.55 6.95 -10.85 6.95 -14.8 5.35 L-13.3 -6.5 -5.1 -7.4 3.9 -7.8 12.75 -7.7 13.3 -1.2 M11.6 -11.3 L11.4 -11.35 Q5.4 -13.3 -1.2 -12.45 L-11.65 -10.85 -11.25 -13.4 Q-9.25 -15.05 -6.8 -15.65 L0.15 -16.45 Q6.3 -16.5 11.7 -13.4 L11.6 -11.3 M2.15 9.7 L2.7 12.7 Q6.05 12.45 8.7 10.25 L8.3 7.0 14.3 3.35 14.85 5.95 11.5 10.25 10.3 10.55 9.9 11.7 Q2.35 17.6 -7.35 16.6 -10.6 16.25 -13.9 15.05 L-15.3 13.75 -15.25 12.15 -8.65 12.0 -8.2 15.4 -1.05 13.95 -1.45 10.9 -1.5 10.7 2.1 9.6 2.15 9.7" fill="#6f5e55" fill-rule="evenodd" stroke="none"/>
    <path d="M12.5 -14.2 L12.8 -13.55 13.85 -1.8 14.75 -1.65 15.15 -0.55 15.8 4.65 16.15 4.5 16.2 4.55 16.25 4.75 15.9 5.45 16.65 8.55 14.85 11.05 10.95 12.35 11.2 14.25 Q8.0 17.55 3.35 18.65 L-5.25 20.75 Q-11.3 22.55 -17.2 21.55 L-16.8 17.05 -16.45 16.6 -16.6 5.25 -16.1 4.9 Q-15.95 -3.7 -12.75 -11.1 L-12.5 -13.9 Q-9.4 -16.95 -5.0 -17.55 1.4 -17.6 7.6 -16.05 10.15 -15.4 12.5 -14.2 M-12.35 -7.95 Q-9.25 -7.4 -6.55 -9.25 L12.65 -8.0 12.2 -9.8 9.35 -10.9 9.1 -10.85 6.3 -11.1 Q-3.15 -12.05 -12.25 -9.5 L-12.35 -8.1 -12.4 -8.0 -12.35 -7.95 M13.3 -1.2 L12.75 -7.7 3.9 -7.8 -5.1 -7.4 -13.3 -6.5 -14.8 5.35 Q-10.85 6.95 -6.55 6.95 -0.85 6.9 4.4 4.9 9.9 2.8 13.3 -1.2 M11.4 -11.35 L11.55 -11.2 11.6 -11.3 11.7 -13.4 Q6.3 -16.5 0.15 -16.45 L-6.8 -15.65 Q-9.25 -15.05 -11.25 -13.4 L-11.65 -10.85 -1.2 -12.45 Q5.4 -13.3 11.4 -11.35 M-1.45 10.9 L-1.05 13.95 -8.2 15.4 -8.65 12.0 -15.25 12.15 -15.3 13.75 -13.9 15.05 Q-10.6 16.25 -7.35 16.6 2.35 17.6 9.9 11.7 L10.3 10.55 11.5 10.25 14.85 5.95 14.3 3.35 8.3 7.0 8.7 10.25 Q6.05 12.45 2.7 12.7 L2.15 9.7 2.7 9.7 Q3.25 10.3 3.3 11.1 L3.35 11.35 Q5.25 11.6 7.25 10.15 7.25 8.7 7.5 7.4 4.9 8.65 2.1 9.6 L-1.5 10.7 -1.75 10.75 -1.45 10.9 M14.35 1.8 L14.15 1.1 14.0 0.9 Q13.15 1.15 12.45 1.65 6.85 5.6 0.15 7.2 -3.3 8.15 -6.95 8.1 -11.55 7.55 -15.5 6.4 L-15.5 10.35 Q-15.2 10.85 -14.65 11.05 L-9.1 11.15 Q-4.55 11.55 -0.4 9.85 7.55 6.85 14.35 1.8 M-15.45 15.4 L-16.05 20.45 Q-8.35 20.25 -0.8 18.4 L3.8 17.1 Q7.25 16.0 9.75 13.6 L9.75 12.9 7.8 14.25 Q2.8 17.35 -3.15 17.95 -9.6 18.45 -15.25 15.4 L-15.45 15.3 -15.45 15.4 M15.0 7.0 L12.85 9.95 14.05 9.65 15.15 8.45 15.0 7.0 M-2.05 10.85 L-7.7 11.9 -7.4 13.7 -2.4 13.05 -2.05 10.85" fill="#000000" fill-rule="evenodd" stroke="none"/>
    <path d="M2.1 9.6 Q4.9 8.65 7.5 7.4 7.25 8.7 7.25 10.15 5.25 11.6 3.35 11.35 L3.3 11.1 Q3.25 10.3 2.7 9.7 L2.15 9.7 2.1 9.6 M14.35 1.8 Q7.55 6.85 -0.4 9.85 -4.55 11.55 -9.1 11.15 L-14.65 11.05 Q-15.2 10.85 -15.5 10.35 L-15.5 6.4 Q-11.55 7.55 -6.95 8.1 -3.3 8.15 0.15 7.2 6.85 5.6 12.45 1.65 13.15 1.15 14.0 0.9 L14.15 1.1 14.35 1.8 M-2.05 10.85 L-2.4 13.05 -7.4 13.7 -7.7 11.9 -2.05 10.85" fill="#886c4d" fill-rule="evenodd" stroke="none"/>
    <path d="M15.0 7.0 L15.15 8.45 14.05 9.65 12.85 9.95 15.0 7.0 M-15.25 15.4 Q-9.6 18.45 -3.15 17.95 2.8 17.35 7.8 14.25 L9.75 12.9 9.75 13.6 Q7.25 16.0 3.8 17.1 L-0.8 18.4 Q-8.35 20.25 -16.05 20.45 L-15.45 15.4 -15.25 15.4" fill="#666666" fill-rule="evenodd" stroke="none"/>
  </g>
</svg>
