<?xml version="1.0" encoding="UTF-8" standalone="no"?>
<svg xmlns:xlink="http://www.w3.org/1999/xlink" height="67.1px" width="42.15px" xmlns="http://www.w3.org/2000/svg">
  <g transform="matrix(1.0, 0.0, 0.0, 1.0, 20.1, 32.8)">
    <path d="M14.0 -13.3 L18.4 -12.25 Q18.8 -9.4 18.5 -6.4 L18.2 -4.25 18.15 -4.25 16.3 -4.35 16.0 -6.95 Q15.55 -9.6 14.55 -12.05 L14.0 -13.3 M-14.2 -5.15 L-17.25 -5.1 Q-18.3 -7.95 -17.15 -10.55 L-16.05 -12.55 -12.3 -13.15 Q-14.0 -10.4 -14.1 -6.95 L-14.2 -5.15 M-14.15 -0.45 L-16.95 -0.35 -16.9 -3.75 -13.8 -3.75 -14.15 -0.45 M15.4 -3.05 L18.65 -2.95 18.6 -0.25 16.75 0.3 16.25 -3.0 15.4 -3.05 M16.95 1.25 L18.2 0.95 18.2 1.1 18.0 4.7 17.6 4.9 16.9 4.8 16.95 1.25 M-13.25 6.4 L-13.5 6.35 Q-15.45 6.0 -16.05 5.65 L-16.1 5.4 -16.15 5.2 -16.4 1.25 -16.25 0.8 -13.25 0.65 -13.4 5.2 -13.35 5.7 -13.3 6.15 -13.25 6.4" fill="#867168" fill-rule="evenodd" stroke="none"/>
    <path d="M1.3 -32.1 L1.8 -32.75 2.05 -32.8 3.2 -32.4 Q3.95 -32.05 4.0 -31.35 L4.0 -30.75 Q5.7 -27.4 7.65 -24.55 8.1 -23.9 8.7 -23.35 L10.15 -22.2 Q13.45 -19.95 15.75 -17.0 L17.55 -14.55 17.9 -14.25 18.8 -14.25 19.35 -12.65 Q19.75 -11.35 19.75 -9.95 19.8 -7.05 19.35 -4.15 L19.0 -3.15 19.5 0.5 18.85 0.75 19.1 4.7 19.4 5.2 Q20.7 7.5 20.3 10.3 21.55 10.95 21.95 12.6 L22.05 12.9 Q21.55 16.85 17.9 16.5 L18.0 19.15 18.0 19.45 17.6 20.05 16.75 19.95 16.65 20.2 16.4 20.55 16.4 20.85 16.4 21.1 16.3 21.4 16.0 21.7 16.0 22.0 16.0 22.3 Q12.85 25.55 8.3 26.75 7.95 27.9 8.1 29.15 L8.1 29.45 7.5 29.95 5.9 28.95 Q4.1 30.75 3.4 33.1 L3.35 33.4 Q3.15 34.0 2.55 34.3 L2.05 34.3 Q0.45 31.85 -0.8 29.2 L-1.3 28.35 -2.2 29.15 -3.1 29.15 Q-4.75 26.4 -7.75 24.7 L-13.3 21.55 -14.2 21.2 -14.75 17.8 Q-18.35 18.5 -20.0 15.25 L-20.1 15.0 Q-19.8 13.6 -19.0 12.4 L-18.35 11.6 Q-18.6 8.9 -17.2 6.7 L-17.35 5.2 -17.75 -3.75 Q-19.15 -5.7 -18.85 -8.2 -18.5 -11.35 -16.55 -13.85 L-15.25 -14.0 Q-14.05 -16.85 -11.75 -18.8 L-8.55 -21.25 -5.2 -23.45 Q-2.25 -25.35 -0.35 -28.3 L0.05 -28.95 0.7 -30.2 1.3 -32.1 M13.8 -13.95 L16.35 -13.9 16.3 -13.95 13.8 -17.5 Q11.25 -20.4 8.1 -22.65 6.55 -23.8 5.75 -25.5 L2.6 -31.55 1.65 -29.55 Q-0.15 -25.9 -3.55 -23.35 -4.9 -22.35 -6.35 -21.5 -11.1 -18.65 -14.1 -14.2 L-8.5 -14.4 -3.8 -14.05 5.6 -13.9 13.8 -13.95 M14.0 -13.3 L12.6 -13.35 3.65 -12.6 -6.25 -13.05 -12.3 -13.15 -16.05 -12.55 -17.15 -10.55 Q-18.3 -7.95 -17.25 -5.1 L-14.2 -5.15 -6.5 -5.1 -0.4 -5.05 0.05 -5.05 1.1 -5.05 8.7 -4.75 13.25 -4.5 16.3 -4.35 18.15 -4.25 18.2 -4.25 18.5 -6.4 Q18.8 -9.4 18.4 -12.25 L14.0 -13.3 M-14.15 -0.45 Q-11.4 -0.5 -8.85 0.4 -7.45 0.8 -6.15 1.45 L-5.1 2.05 -4.15 2.65 -3.45 3.2 -2.35 4.05 -1.95 4.4 -1.3 4.9 -1.0 4.95 -0.3 5.0 0.45 5.05 3.5 5.05 7.75 4.15 7.95 4.1 9.55 3.65 9.7 3.6 10.85 3.2 10.2 0.6 10.1 0.3 10.05 0.2 9.85 -0.25 9.15 -1.6 8.8 -2.15 8.7 -2.35 8.2 -2.55 8.0 -3.4 2.05 -3.8 0.45 -3.8 -0.1 -3.8 -6.55 -3.8 -13.8 -3.75 -16.9 -3.75 -16.95 -0.35 -14.15 -0.45 M16.75 0.3 L18.6 -0.25 18.65 -2.95 15.4 -3.05 9.4 -3.35 11.15 -0.45 16.75 0.3 M16.9 4.8 L17.6 4.9 18.0 4.7 18.2 1.1 18.2 0.95 16.95 1.25 11.8 1.0 11.75 1.15 12.05 3.85 16.9 4.8 M18.65 5.95 L18.5 6.15 17.65 6.1 17.45 6.05 17.4 6.05 16.9 6.0 15.6 5.85 15.2 5.75 12.35 5.2 10.65 5.5 Q9.95 5.6 9.55 5.2 L9.45 5.2 9.35 5.25 7.55 5.65 0.4 6.25 -0.4 6.25 -1.05 6.2 -1.5 6.15 -1.8 5.85 Q-1.6 6.35 -2.05 6.75 L-2.15 6.8 -2.4 7.05 -2.65 7.15 -3.7 7.45 -4.35 7.65 -5.4 7.85 -5.8 7.95 -6.95 8.1 -7.0 8.1 -11.7 8.2 -11.7 8.35 -11.4 8.65 -11.4 9.5 -9.7 8.75 -7.75 8.65 -7.0 8.7 -6.95 8.7 -5.85 8.85 -5.55 8.9 -5.45 8.95 -4.4 9.05 -4.15 9.05 -3.85 9.3 -3.7 9.45 -3.55 9.65 -3.15 10.15 -3.1 10.2 -2.95 10.45 -2.9 10.55 -2.85 10.75 -2.85 10.95 -2.9 11.15 -2.9 11.35 -2.75 11.4 -2.55 11.5 -2.6 11.95 -2.5 12.65 -2.65 12.85 -3.2 12.9 -4.3 12.95 -4.55 12.95 -5.25 12.95 Q-5.15 13.4 -5.2 14.0 L-5.4 14.55 -5.9 14.75 -6.2 14.85 -7.7 14.6 Q-8.25 13.8 -8.1 12.9 L-8.0 12.45 Q-9.75 11.9 -11.35 10.9 L-11.4 10.9 -11.25 16.4 -11.4 16.6 -11.4 16.7 -11.3 16.65 -11.1 16.55 -10.75 16.85 -10.65 17.0 -8.4 17.05 -8.3 17.05 -6.4 17.15 -6.25 17.15 -3.9 17.25 -2.3 17.3 -0.95 17.35 4.15 17.65 4.45 17.6 5.3 17.45 Q5.95 17.45 6.6 17.8 L7.85 17.85 8.25 17.85 14.25 18.15 14.2 15.25 14.2 14.85 14.15 14.25 14.15 14.1 14.2 14.1 14.3 11.1 Q12.95 12.1 11.5 12.55 L11.5 12.65 11.45 12.85 11.4 13.05 Q11.65 15.4 9.2 14.45 L8.85 14.15 Q8.65 13.55 8.8 13.0 L7.05 12.85 6.55 12.5 6.45 12.25 6.35 11.9 6.55 11.5 6.6 11.45 6.65 11.35 6.65 11.15 6.7 10.95 8.15 9.95 Q10.2 8.7 12.65 8.5 L13.65 8.7 14.5 8.85 Q14.6 7.4 14.85 6.0 14.9 5.8 15.15 5.85 15.05 11.95 15.5 18.25 L15.5 18.35 15.55 18.65 15.8 18.7 16.4 18.25 16.55 15.4 16.8 7.8 16.8 6.95 16.8 6.65 17.1 6.35 17.3 6.35 17.4 6.35 17.6 6.35 17.9 6.65 17.8 10.2 Q18.2 9.9 18.6 9.85 L19.15 9.9 19.05 8.25 Q19.15 7.05 18.85 5.95 L18.75 5.65 18.65 5.95 M1.35 10.1 L1.35 8.6 1.4 8.5 1.4 8.45 1.6 8.4 1.7 8.4 2.1 10.05 2.35 11.65 2.4 11.85 2.4 12.0 2.3 12.2 2.35 12.4 2.4 12.6 Q2.4 13.15 1.8 13.3 1.2 13.15 0.95 12.6 L0.95 11.85 0.95 11.65 1.35 11.25 1.35 10.1 M12.35 9.3 Q9.7 9.8 7.65 11.35 L7.55 11.5 7.55 11.7 7.65 12.0 Q11.3 12.15 14.15 9.7 13.6 9.35 12.35 9.3 M17.8 11.6 L17.85 15.75 Q19.8 15.35 20.45 13.4 20.85 12.2 20.05 11.5 L20.0 11.5 19.8 11.3 19.5 11.1 18.4 11.0 18.25 11.3 18.0 11.6 17.8 11.6 M8.1 18.5 L6.05 18.5 5.05 18.5 4.45 18.55 3.8 18.55 -4.15 18.2 -6.35 18.2 -6.65 18.2 -7.2 18.2 -8.45 18.25 -8.6 18.25 -10.15 18.3 -10.55 18.3 -10.55 18.5 -10.3 18.5 -10.3 18.45 -10.15 18.55 -8.85 19.35 -4.7 21.65 -4.3 21.9 -3.1 21.9 -2.6 21.35 -2.3 21.0 4.5 21.3 5.35 21.4 5.55 21.6 5.65 21.7 6.8 22.7 7.0 22.8 7.65 22.65 8.85 22.35 9.35 22.2 Q11.9 21.4 14.2 20.05 L14.25 18.8 12.25 18.85 11.5 18.75 8.15 18.5 8.1 18.5 M5.2 23.15 L4.2 22.65 Q1.55 21.45 -1.8 22.1 L-2.05 22.65 -2.5 23.2 Q-6.7 22.45 -10.5 19.9 L-10.6 19.85 -11.05 19.75 -11.0 20.85 -11.0 21.4 -11.95 21.65 -7.75 23.9 Q-4.85 25.4 -2.3 27.45 L-1.2 26.45 -0.7 26.75 Q0.2 29.45 2.0 31.6 L2.25 32.0 4.95 28.1 5.25 27.75 6.7 27.95 6.95 26.35 6.9 25.8 Q10.65 25.1 13.6 22.75 L14.4 22.05 14.15 21.95 14.2 20.85 13.05 21.45 12.65 21.65 11.65 22.15 11.3 22.35 10.1 22.9 7.3 24.0 6.4 24.0 6.25 23.9 5.5 23.35 5.2 23.15 M14.95 20.5 L14.9 20.5 14.9 20.6 14.9 20.95 15.1 20.6 15.2 20.4 14.95 20.45 14.95 20.5 M14.85 21.65 L14.85 21.6 14.85 21.3 14.85 21.65 M-13.25 6.4 L-11.1 6.7 -7.1 6.85 -6.85 6.8 -5.7 6.55 -5.4 6.45 -5.35 6.45 -4.25 6.0 -3.6 5.7 -3.0 5.5 -2.5 5.4 -2.2 5.4 -2.4 5.2 -2.45 5.2 -3.5 4.35 -4.4 3.7 -4.85 3.4 -6.35 2.5 Q-9.6 0.75 -13.25 0.65 L-16.25 0.8 -16.4 1.25 -16.15 5.2 -16.1 5.4 -16.05 5.65 Q-15.45 6.0 -13.5 6.35 L-13.25 6.4 M-10.0 9.85 L-10.35 10.0 Q-8.8 11.6 -6.0 11.65 L-5.8 11.65 -5.55 11.65 -4.5 11.7 -4.1 11.7 -3.4 11.7 -3.5 11.3 -3.65 10.75 -3.95 10.35 -4.3 9.85 -4.4 9.85 -5.45 9.8 -5.9 9.75 -9.5 9.6 -10.0 9.85 M-16.9 7.05 L-17.35 10.75 -17.05 10.55 -16.25 10.55 -15.65 10.7 -15.95 7.6 -15.9 7.35 -16.9 7.05 M-12.3 8.25 L-11.8 8.35 -11.8 8.2 -13.6 7.95 -14.9 7.65 Q-14.2 13.55 -13.9 19.55 L-13.9 19.85 Q-13.2 20.5 -12.1 20.35 L-12.25 18.55 -12.85 9.35 -12.9 8.75 -12.65 8.5 -12.3 8.25 M-18.65 14.8 L-18.2 15.35 -17.35 16.25 Q-15.95 15.95 -14.95 16.5 L-15.55 11.7 Q-17.15 12.0 -18.05 13.65 L-18.65 14.8" fill="#000000" fill-rule="evenodd" stroke="none"/>
    <path d="M-12.3 -13.15 L-6.25 -13.05 3.65 -12.6 12.6 -13.35 14.0 -13.3 14.55 -12.05 Q15.55 -9.6 16.0 -6.95 L16.3 -4.35 13.25 -4.5 8.7 -4.75 1.1 -5.05 0.05 -5.05 -0.4 -5.05 -6.5 -5.1 -14.2 -5.15 -14.1 -6.95 Q-14.0 -10.4 -12.3 -13.15 M-13.8 -3.75 L-6.55 -3.8 -0.1 -3.8 0.45 -3.8 2.05 -3.8 8.0 -3.4 8.2 -2.55 8.7 -2.35 8.8 -2.15 9.15 -1.6 9.85 -0.25 10.05 0.2 10.1 0.3 10.2 0.6 10.85 3.2 9.7 3.6 9.55 3.65 7.95 4.1 7.75 4.15 3.5 5.05 0.45 5.05 -0.3 5.0 -1.0 4.95 -1.3 4.9 -1.95 4.4 -2.35 4.05 -3.45 3.2 -4.15 2.65 -5.1 2.05 -6.15 1.45 Q-7.45 0.8 -8.85 0.4 -11.4 -0.5 -14.15 -0.45 L-13.8 -3.75 M15.4 -3.05 L16.25 -3.0 16.75 0.3 11.15 -0.45 9.4 -3.35 15.4 -3.05 M16.9 4.8 L12.05 3.85 11.75 1.15 11.8 1.0 16.95 1.25 16.9 4.8 M-13.25 0.65 Q-9.6 0.75 -6.35 2.5 L-4.85 3.4 -4.4 3.7 -3.5 4.35 -2.45 5.2 -2.4 5.2 -2.2 5.4 -2.5 5.4 -3.0 5.5 -3.6 5.7 -4.25 6.0 -5.35 6.45 -5.4 6.45 -5.7 6.55 -6.85 6.8 -7.1 6.85 -11.1 6.7 -13.25 6.4 -13.3 6.15 -13.35 5.7 -13.4 5.2 -13.25 0.65" fill="#6f5e55" fill-rule="evenodd" stroke="none"/>
    <path d="M-8.5 -14.4 L-14.1 -14.2 Q-11.1 -18.65 -6.35 -21.5 -4.9 -22.35 -3.55 -23.35 -0.15 -25.9 1.65 -29.55 L2.6 -31.55 5.75 -25.5 Q6.55 -23.8 8.1 -22.65 11.25 -20.4 13.8 -17.5 L16.3 -13.95 16.35 -13.9 13.8 -13.95 Q10.75 -17.2 6.65 -18.75 4.15 -19.65 1.35 -19.65 L-1.6 -19.3 Q-5.75 -18.05 -8.5 -14.4" fill="#796d4a" fill-rule="evenodd" stroke="none"/>
    <path d="M13.8 -13.95 L5.6 -13.9 -3.8 -14.05 -8.5 -14.4 Q-5.75 -18.05 -1.6 -19.3 L1.35 -19.65 Q4.15 -19.65 6.65 -18.75 10.75 -17.2 13.8 -13.95" fill="#5c5538" fill-rule="evenodd" stroke="none"/>
    <path d="M-3.1 10.2 L-3.15 10.15 -3.55 9.65 -3.7 9.45 -3.85 9.3 -4.15 9.05 -4.4 9.05 -5.45 8.95 -5.55 8.9 -5.85 8.85 -6.95 8.7 -7.0 8.7 -7.75 8.65 -9.7 8.75 -11.4 9.5 -11.4 8.65 -11.7 8.35 -11.7 8.2 -7.0 8.1 -6.95 8.1 -5.8 7.95 -5.4 7.85 -4.35 7.65 -3.7 7.45 -2.65 7.15 -2.4 7.05 -2.15 6.8 -2.05 6.75 Q-1.6 6.35 -1.8 5.85 L-1.5 6.15 -1.05 6.2 -0.4 6.25 0.4 6.25 7.55 5.65 9.35 5.25 9.45 5.2 9.55 5.2 Q9.95 5.6 10.65 5.5 L12.35 5.2 15.2 5.75 15.15 5.85 Q14.9 5.8 14.85 6.0 14.6 7.4 14.5 8.85 L13.65 8.7 12.65 8.5 Q10.2 8.7 8.15 9.95 L6.9 9.95 2.1 10.05 1.7 8.4 1.6 8.4 1.4 8.45 1.4 8.5 1.35 8.6 1.35 10.1 0.15 10.1 -0.8 10.15 -1.15 10.15 -2.15 10.2 -2.95 10.2 -3.1 10.2" fill="#765949" fill-rule="evenodd" stroke="none"/>
    <path d="M8.15 9.95 L6.7 10.95 6.65 11.15 6.65 11.35 6.6 11.45 6.55 11.5 6.35 11.9 6.45 12.25 6.55 12.5 7.05 12.85 8.8 13.0 Q8.65 13.55 8.85 14.15 L9.2 14.45 Q11.65 15.4 11.4 13.05 L11.45 12.85 11.5 12.65 11.5 12.55 Q12.95 12.1 14.3 11.1 L14.2 14.1 14.15 14.1 14.15 14.25 14.2 14.85 14.2 15.25 14.25 18.15 8.25 17.85 7.85 17.85 6.6 17.8 Q5.95 17.45 5.3 17.45 L4.45 17.6 4.15 17.65 -0.95 17.35 -2.3 17.3 -3.9 17.25 -6.25 17.15 -6.4 17.15 -8.3 17.05 -8.4 17.05 -10.65 17.0 -10.75 16.85 -11.1 16.55 -11.3 16.65 -11.4 16.7 -11.4 16.6 -11.25 16.4 -11.4 10.9 -11.35 10.9 Q-9.75 11.9 -8.0 12.45 L-8.1 12.9 Q-8.25 13.8 -7.7 14.6 L-6.2 14.85 -5.9 14.75 -5.4 14.55 -5.2 14.0 Q-5.15 13.4 -5.25 12.95 L-4.55 12.95 -4.3 12.95 -3.2 12.9 -2.65 12.85 -2.5 12.65 -2.6 11.95 -2.55 11.5 -2.75 11.4 -2.9 11.35 -2.9 11.15 -2.85 10.95 -2.85 10.75 -2.9 10.55 -2.95 10.45 -3.1 10.2 -2.95 10.2 -2.15 10.2 -1.15 10.15 -0.8 10.15 0.15 10.1 1.35 10.1 1.35 11.25 0.95 11.65 0.95 11.85 0.95 12.6 Q1.2 13.15 1.8 13.3 2.4 13.15 2.4 12.6 L2.35 12.4 2.3 12.2 2.4 12.0 2.4 11.85 2.35 11.65 2.1 10.05 6.9 9.95 8.15 9.95 M8.1 18.5 L8.15 18.5 11.5 18.75 12.25 18.85 14.25 18.8 14.2 20.05 Q11.9 21.4 9.35 22.2 L8.85 22.35 7.65 22.65 7.0 22.8 6.8 22.7 5.65 21.7 5.55 21.6 5.35 21.4 4.5 21.3 -2.3 21.0 -2.6 21.35 -3.1 21.9 -4.3 21.9 -4.7 21.65 -8.85 19.35 -10.15 18.55 -10.3 18.45 -10.3 18.5 -10.55 18.5 -10.55 18.3 -10.15 18.3 -8.6 18.25 -8.45 18.25 -7.2 18.2 -6.65 18.2 -6.35 18.2 -4.15 18.2 3.8 18.55 4.45 18.55 5.05 18.5 6.05 18.5 8.1 18.5 M17.8 11.6 L18.0 11.6 18.25 11.3 18.4 11.0 19.5 11.1 19.8 11.3 20.0 11.5 20.05 11.5 Q20.85 12.2 20.45 13.4 19.8 15.35 17.85 15.75 L17.8 11.6 M-18.65 14.8 L-18.05 13.65 Q-17.15 12.0 -15.55 11.7 L-14.95 16.5 Q-15.95 15.95 -17.35 16.25 L-18.2 15.35 -18.65 14.8" fill="#a58269" fill-rule="evenodd" stroke="none"/>
    <path d="M16.9 6.0 L17.4 6.05 17.45 6.05 17.65 6.1 18.5 6.15 18.65 5.95 18.85 5.95 Q19.15 7.05 19.05 8.25 L19.15 9.9 18.6 9.85 Q18.2 9.9 17.8 10.2 L17.9 6.65 17.6 6.35 17.4 6.35 17.3 6.35 17.1 6.35 16.8 6.65 16.9 6.0 M15.5 18.25 L16.4 18.25 15.8 18.7 15.55 18.65 15.5 18.35 15.5 18.25 M12.35 9.3 Q13.6 9.35 14.15 9.7 11.3 12.15 7.65 12.0 L7.55 11.7 7.55 11.5 7.65 11.35 Q9.7 9.8 12.35 9.3 M5.2 23.15 L5.5 23.35 6.25 23.9 6.4 24.0 7.3 24.0 10.1 22.9 11.3 22.35 11.65 22.15 12.65 21.65 13.05 21.45 14.2 20.85 14.15 21.95 14.4 22.05 13.6 22.75 Q10.65 25.1 6.9 25.8 L6.95 26.35 6.7 27.95 5.25 27.75 4.95 28.1 2.25 32.0 2.0 31.6 Q0.2 29.45 -0.7 26.75 L-1.2 26.45 -2.3 27.45 Q-4.85 25.4 -7.75 23.9 L-11.95 21.65 -11.0 21.4 -11.0 20.85 -11.05 19.75 -10.6 19.85 -10.5 19.9 Q-6.7 22.45 -2.5 23.2 L-2.05 22.65 -1.8 22.1 Q1.55 21.45 4.2 22.65 L5.2 23.15 M15.1 20.6 L14.9 20.95 14.9 20.6 14.9 20.5 14.95 20.5 15.1 20.6 M14.85 21.65 L14.85 21.3 14.85 21.6 14.85 21.65 M-16.9 7.05 L-15.9 7.35 -15.95 7.6 -15.65 10.7 -16.25 10.55 -17.05 10.55 -17.35 10.75 -16.9 7.05 M-10.0 9.85 L-9.5 9.6 -5.9 9.75 -5.45 9.8 -4.4 9.85 -4.3 9.85 -3.95 10.35 -3.65 10.75 -3.5 11.3 -3.4 11.7 -4.1 11.7 -4.5 11.7 -5.55 11.65 -5.8 11.65 -6.0 11.65 Q-8.8 11.6 -10.35 10.0 L-10.0 9.85" fill="#241f1c" fill-rule="evenodd" stroke="none"/>
    <path d="M16.9 6.0 L16.8 6.65 16.8 6.95 16.8 7.8 16.55 15.4 16.4 18.25 15.5 18.25 Q15.05 11.95 15.15 5.85 L15.2 5.75 15.6 5.85 16.9 6.0 M-12.3 8.25 L-12.65 8.5 -12.9 8.75 -12.85 9.35 -12.25 18.55 -12.1 20.35 Q-13.2 20.5 -13.9 19.85 L-13.9 19.55 Q-14.2 13.55 -14.9 7.65 L-13.6 7.95 -11.8 8.2 -11.8 8.35 -12.3 8.25" fill="#886c4d" fill-rule="evenodd" stroke="none"/>
  </g>
</svg>
