<?xml version="1.0" encoding="UTF-8" standalone="no"?>
<svg xmlns:xlink="http://www.w3.org/1999/xlink" height="51.9px" width="45.5px" xmlns="http://www.w3.org/2000/svg">
  <g transform="matrix(1.0, 0.0, 0.0, 1.0, 22.3, 41.85)">
    <path d="M15.65 -38.4 Q14.9 -34.65 16.3 -31.3 17.95 -27.3 19.9 -23.5 21.7 -22.25 22.45 -20.25 23.85 -16.7 22.65 -13.25 L19.05 -2.75 14.05 -1.4 14.9 -0.65 13.8 0.35 11.85 2.35 Q7.05 6.5 0.75 7.25 L0.1 8.5 -5.75 10.05 -7.25 5.75 -14.3 3.65 -15.0 1.4 -16.05 1.5 -16.5 0.6 -17.05 0.5 -17.65 -0.35 -20.0 -1.35 -20.75 -6.95 -21.65 -7.55 -22.3 -8.9 -22.15 -10.35 -21.4 -13.1 Q-20.9 -14.55 -19.45 -15.1 L-18.55 -19.05 -19.55 -24.7 -19.4 -25.0 -19.0 -26.15 Q-17.45 -29.95 -14.55 -32.3 L-9.45 -32.05 Q-5.45 -35.45 -0.7 -37.65 6.05 -40.7 13.5 -41.85 L15.75 -41.7 Q16.0 -40.0 15.65 -38.4 M15.4 -15.35 L19.7 -17.9 19.75 -20.65 19.4 -21.15 18.7 -23.3 18.65 -23.9 Q13.85 -30.25 13.95 -39.3 L14.3 -40.1 14.25 -40.35 Q0.3 -38.6 -10.3 -29.6 L-10.65 -27.3 -11.0 -26.75 -10.65 -24.1 -10.3 -23.55 -10.15 -22.55 Q-6.0 -16.6 1.15 -15.0 8.3 -13.2 15.4 -15.35 M19.55 -17.3 Q17.95 -14.75 15.35 -13.6 L13.8 -13.1 Q-1.85 -10.5 -11.7 -22.5 L-11.7 -23.05 -12.05 -23.55 -12.2 -27.5 -12.05 -29.45 -10.7 -30.9 -14.65 -30.45 -16.05 -29.15 -17.0 -27.25 Q-18.3 -24.55 -17.85 -21.55 L-17.2 -20.2 -17.4 -19.65 Q-15.25 -15.15 -10.95 -12.6 -4.45 -8.55 3.25 -7.95 9.7 -7.15 15.85 -7.8 17.0 -7.9 17.8 -8.65 23.55 -14.45 20.65 -21.6 L20.85 -20.6 Q21.55 -18.15 19.75 -17.15 L19.7 -17.55 19.55 -17.3 M15.2 -6.15 L7.45 -5.85 6.95 -4.3 14.95 -4.55 18.3 -5.05 19.3 -7.45 18.15 -6.5 15.2 -6.15 M4.15 -2.65 L6.05 -6.25 Q-0.25 -6.95 -6.3 -8.8 -14.1 -11.0 -18.0 -17.75 -19.2 -12.6 -15.05 -9.85 L-5.05 -3.35 Q-0.5 -0.55 4.15 -2.65 M6.9 -4.15 L5.15 -1.9 Q12.0 -1.7 17.95 -4.2 12.4 -2.8 6.9 -4.15 M13.35 -1.25 Q9.65 -0.2 5.65 -0.2 L4.5 -0.35 3.3 -0.7 Q2.05 0.05 0.6 -0.5 L-10.7 -5.05 -11.3 -5.4 -11.45 -5.2 Q-13.0 -3.1 -14.05 -0.75 L-14.35 -0.05 -14.5 0.65 -13.6 2.4 Q-9.65 2.7 -6.3 5.05 L-5.3 8.8 Q-2.4 7.95 -0.6 6.2 L2.35 5.55 4.65 4.85 2.05 4.35 2.05 2.75 Q5.55 -0.3 10.1 1.7 L10.45 2.05 13.35 -1.15 13.45 -1.25 13.35 -1.25 M-21.05 -10.25 L-20.5 -9.1 -19.2 -10.7 -18.3 -10.7 -19.3 -14.0 -19.6 -13.95 -21.05 -10.25 M-20.1 -7.75 Q-20.1 -6.9 -19.5 -6.3 -18.95 -5.75 -18.1 -5.75 -17.25 -5.75 -16.65 -6.3 -16.1 -6.9 -16.1 -7.75 -16.1 -8.6 -16.65 -9.15 -17.25 -9.75 -18.1 -9.75 -18.95 -9.75 -19.5 -9.15 -20.1 -8.6 -20.1 -7.75 M-16.75 -4.6 L-19.3 -4.6 -19.3 -2.05 -16.75 -2.05 -16.75 -4.6 M-15.6 -0.7 L-15.55 -0.55 -15.5 -0.65 -12.0 -5.9 -14.65 -7.65 -15.6 -0.7 M-11.1 0.55 L-11.55 -1.25 -9.6 -3.0 -8.35 -2.95 -3.8 1.05 -4.05 2.35 -4.05 2.4 Q-7.8 3.15 -11.1 0.55 M-1.6 2.65 L0.35 0.45 -0.1 2.2 -1.05 3.25 -1.7 2.8 -1.6 2.65 M-8.5 -1.8 L-9.6 -1.8 -10.45 -0.7 Q-8.05 1.65 -4.6 1.5 L-8.5 -1.8 M3.7 3.25 Q7.2 4.6 9.1 2.4 L8.9 2.1 Q6.15 1.75 3.75 2.85 L3.4 3.1 3.7 3.25" fill="#000000" fill-rule="evenodd" stroke="none"/>
    <path d="M15.4 -15.35 Q14.55 -22.8 8.0 -26.5 4.45 -28.55 0.45 -27.85 -5.8 -27.3 -10.15 -22.55 L-10.3 -23.55 -10.65 -24.1 -11.0 -26.75 -10.65 -27.3 -10.3 -29.6 Q0.3 -38.6 14.25 -40.35 L14.3 -40.1 13.95 -39.3 Q13.85 -30.25 18.65 -23.9 L18.7 -23.3 19.4 -21.15 19.75 -20.65 19.7 -17.9 15.4 -15.35" fill="#796d4a" fill-rule="evenodd" stroke="none"/>
    <path d="M-10.15 -22.55 Q-5.8 -27.3 0.45 -27.85 4.45 -28.55 8.0 -26.5 14.55 -22.8 15.4 -15.35 8.3 -13.2 1.15 -15.0 -6.0 -16.6 -10.15 -22.55" fill="#5c5538" fill-rule="evenodd" stroke="none"/>
    <path d="M15.35 -13.6 L15.85 -7.8 Q9.7 -7.15 3.25 -7.95 -4.45 -8.55 -10.95 -12.6 -15.25 -15.15 -17.4 -19.65 L-17.2 -20.2 -17.85 -21.55 Q-16.3 -25.4 -12.8 -27.2 L-12.2 -27.5 -12.05 -23.55 -11.7 -23.05 -11.7 -22.5 Q-1.85 -10.5 13.8 -13.1 L15.35 -13.6 M4.15 -2.65 Q-0.5 -0.55 -5.05 -3.35 L-15.05 -9.85 Q-19.2 -12.6 -18.0 -17.75 -14.1 -11.0 -6.3 -8.8 -0.25 -6.95 6.05 -6.25 L4.15 -2.65 M14.95 -4.55 L6.95 -4.3 7.45 -5.85 15.2 -6.15 14.95 -4.55 M6.9 -4.15 Q12.4 -2.8 17.95 -4.2 12.0 -1.7 5.15 -1.9 L6.9 -4.15" fill="#6f5e55" fill-rule="evenodd" stroke="none"/>
    <path d="M19.55 -17.3 L19.75 -17.15 Q21.55 -18.15 20.85 -20.6 L20.65 -21.6 Q23.55 -14.45 17.8 -8.65 17.0 -7.9 15.85 -7.8 L15.35 -13.6 Q17.95 -14.75 19.55 -17.3 M-12.2 -27.5 L-12.8 -27.2 Q-16.3 -25.4 -17.85 -21.55 -18.3 -24.55 -17.0 -27.25 L-16.05 -29.15 -14.65 -30.45 -10.7 -30.9 -12.05 -29.45 -12.2 -27.5 M15.2 -6.15 L18.15 -6.5 19.3 -7.45 18.3 -5.05 14.95 -4.55 15.2 -6.15" fill="#867168" fill-rule="evenodd" stroke="none"/>
    <path d="M-15.5 -0.65 L-15.6 -0.7 -14.65 -7.65 -12.0 -5.9 -15.5 -0.65" fill="#886c4d" fill-rule="evenodd" stroke="none"/>
    <path d="M-10.7 -5.05 L0.6 -0.5 Q2.05 0.05 3.3 -0.7 L4.5 -0.35 5.65 -0.2 Q9.65 -0.2 13.35 -1.25 L13.35 -1.15 10.45 2.05 10.1 1.7 Q5.55 -0.3 2.05 2.75 L-0.4 2.8 -0.1 2.2 0.35 0.45 -1.6 2.65 -4.05 2.35 -3.8 1.05 -8.35 -2.95 -9.6 -3.0 -11.55 -1.25 -11.1 0.55 -14.05 -0.75 Q-13.0 -3.1 -11.45 -5.2 L-10.7 -5.05" fill="#765949" fill-rule="evenodd" stroke="none"/>
    <path d="M2.05 2.75 L2.05 4.35 4.65 4.85 2.35 5.55 Q-4.25 4.7 -10.2 2.0 L-14.35 -0.05 -14.05 -0.75 -11.1 0.55 Q-7.8 3.15 -4.05 2.4 L-4.05 2.35 -1.6 2.65 -1.7 2.8 -1.05 3.25 -0.1 2.2 -0.4 2.8 2.05 2.75 M-11.45 -5.2 L-11.3 -5.4 -10.7 -5.05 -11.45 -5.2 M-20.1 -7.75 Q-20.1 -8.6 -19.5 -9.15 -18.95 -9.75 -18.1 -9.75 -17.25 -9.75 -16.65 -9.15 -16.1 -8.6 -16.1 -7.75 -16.1 -6.9 -16.65 -6.3 -17.25 -5.75 -18.1 -5.75 -18.95 -5.75 -19.5 -6.3 -20.1 -6.9 -20.1 -7.75" fill="#a58269" fill-rule="evenodd" stroke="none"/>
    <path d="M2.35 5.55 L-0.6 6.2 Q-2.4 7.95 -5.3 8.8 L-6.3 5.05 Q-9.65 2.7 -13.6 2.4 L-14.5 0.65 -14.35 -0.05 -10.2 2.0 Q-4.25 4.7 2.35 5.55 M-21.05 -10.25 L-19.6 -13.95 -19.3 -14.0 -18.3 -10.7 -19.2 -10.7 -20.5 -9.1 -21.05 -10.25 M-16.75 -4.6 L-16.75 -2.05 -19.3 -2.05 -19.3 -4.6 -16.75 -4.6 M-8.5 -1.8 L-4.6 1.5 Q-8.05 1.65 -10.45 -0.7 L-9.6 -1.8 -8.5 -1.8 M3.75 2.85 Q6.15 1.75 8.9 2.1 L9.1 2.4 Q7.2 4.6 3.7 3.25 L3.75 2.85" fill="#241f1c" fill-rule="evenodd" stroke="none"/>
  </g>
</svg>
