<?xml version="1.0" encoding="UTF-8" standalone="no"?>
<svg xmlns:xlink="http://www.w3.org/1999/xlink" height="67.25px" width="41.25px" xmlns="http://www.w3.org/2000/svg">
  <g transform="matrix(1.0, 0.0, 0.0, 1.0, 20.0, 35.5)">
    <path d="M15.9 -18.4 L5.8 -27.5 6.95 -34.85 6.1 -34.75 Q1.1 -32.7 -3.15 -29.8 -8.45 -26.0 -12.6 -20.75 L-11.5 -20.85 12.45 -18.95 15.9 -18.4 17.5 -18.1 18.45 -18.4 18.85 -18.25 19.3 -17.0 19.7 -14.9 Q20.15 -12.05 19.75 -8.85 19.6 -7.7 18.8 -6.95 L20.05 -3.8 19.15 -2.4 Q20.95 0.05 20.4 3.25 L20.05 4.0 18.9 5.0 19.05 7.25 Q20.4 7.35 21.25 8.5 L21.2 8.95 Q21.05 10.4 20.35 10.7 L19.2 10.95 19.3 20.2 Q18.5 21.25 17.25 21.15 L16.2 24.4 14.15 23.7 12.4 31.7 12.2 31.75 Q11.45 30.8 11.2 29.75 10.75 28.0 9.65 26.85 L9.3 27.2 9.15 27.9 8.6 28.3 7.95 27.9 Q7.85 26.15 6.7 25.05 L0.0 21.95 -0.95 22.2 Q-4.3 19.85 -8.4 19.3 L-8.95 18.35 -8.95 17.75 -12.4 17.9 -12.75 17.6 Q-13.7 16.4 -14.15 14.85 L-16.35 14.85 -16.85 14.15 -16.85 10.6 Q-17.75 11.15 -18.75 10.4 L-17.75 5.7 -19.2 5.7 -19.75 5.8 -19.75 5.7 -18.05 0.75 -18.85 0.45 Q-20.7 -3.65 -19.55 -8.0 L-18.85 -8.1 -18.65 -12.4 -19.0 -12.85 -18.9 -14.9 -18.85 -15.25 -17.55 -19.45 -16.7 -19.8 Q-15.45 -20.25 -14.2 -20.8 -12.95 -21.45 -12.3 -22.6 -11.45 -24.3 -10.0 -25.7 L-4.8 -30.05 Q0.2 -33.85 6.35 -35.5 L7.8 -35.2 6.95 -28.2 16.45 -19.35 15.9 -18.4 M14.25 -17.85 L3.65 -18.8 -5.15 -19.35 Q-9.7 -19.9 -14.1 -19.35 -16.55 -18.8 -17.45 -16.3 L-17.75 -14.9 -16.9 -11.95 -4.6 -8.95 -4.1 -9.2 -3.7 -9.05 11.5 -7.05 16.1 -7.0 17.8 -7.7 Q18.85 -11.2 18.4 -14.9 L17.8 -17.45 14.25 -17.85 M16.35 -5.0 L16.2 -5.3 16.25 -5.5 16.7 -5.65 18.6 -3.8 18.05 -6.45 16.2 -5.95 7.3 -6.25 -3.6 -7.9 -0.3 -6.7 8.35 -2.25 Q12.95 0.35 17.05 3.5 L17.95 4.2 19.0 4.3 19.4 1.9 Q18.65 -1.9 16.35 -5.0 M17.75 7.55 L17.8 5.7 15.4 5.45 12.35 4.7 3.35 5.05 3.2 7.55 3.05 14.85 3.0 17.7 7.1 18.2 11.05 18.9 Q11.25 18.1 12.1 17.8 14.15 17.1 16.25 16.55 L17.8 16.35 17.65 15.65 3.05 14.85 17.75 14.45 17.75 7.55 M6.25 8.75 L5.05 7.7 5.15 7.5 Q9.6 5.7 13.75 8.1 L14.0 9.3 Q14.4 10.9 13.05 11.7 L11.35 11.1 11.25 11.05 11.25 11.1 10.65 12.95 9.75 13.1 Q8.75 12.6 8.85 11.4 L9.0 9.8 6.25 8.75 M16.2 7.8 L16.2 6.75 16.7 6.45 16.85 7.7 17.0 10.25 16.3 10.6 16.05 10.35 16.2 7.8 M-12.8 2.1 Q-7.9 3.45 -2.4 3.6 2.95 4.1 8.2 3.7 L12.1 3.25 14.05 3.45 16.55 4.15 Q10.05 -0.65 2.85 -4.2 -0.75 -6.0 -4.7 -7.2 L-9.4 -8.55 -14.75 -7.55 -16.85 -7.0 -18.45 -6.6 -18.75 -6.1 Q-19.0 -3.3 -17.9 -0.65 L-16.9 -0.4 -15.5 0.7 -16.25 0.65 -12.8 2.1 M19.25 8.65 Q19.1 8.85 19.1 9.15 L19.25 9.65 19.5 9.85 19.8 9.65 19.9 9.15 19.8 8.65 19.5 8.45 19.25 8.65 M12.8 9.95 L12.8 8.75 12.0 7.9 7.0 7.65 12.8 9.95 M1.6 17.75 L2.0 5.05 -1.35 4.85 -1.1 5.7 -0.4 9.55 Q0.1 13.7 0.1 17.75 L1.6 17.75 M-18.45 4.3 L-15.65 4.2 -17.15 6.85 -17.45 9.15 -15.9 7.95 -15.35 8.0 -15.0 8.35 -15.55 13.35 -12.8 13.35 -12.15 16.15 -7.7 16.55 -7.55 17.75 Q-6.0 18.3 -4.5 19.0 L-1.5 20.25 1.85 21.65 Q3.45 22.3 5.05 23.1 L7.25 24.05 Q8.25 24.6 8.65 25.85 L9.1 25.75 9.55 25.2 10.6 25.3 11.85 28.55 13.2 22.5 15.45 22.5 15.9 20.45 17.8 19.55 17.8 17.95 13.1 18.2 11.95 20.1 9.9 20.25 5.8 19.35 3.65 18.85 3.05 18.9 2.95 19.5 2.85 19.65 2.55 19.7 1.85 19.15 1.0 19.25 0.25 18.95 -0.4 18.7 -1.1 18.15 Q-1.0 14.45 -1.45 10.85 -1.75 8.25 -2.35 5.7 L-2.6 4.75 -17.25 2.2 -18.55 4.15 -18.5 4.4 -18.45 4.3 M-15.3 -8.75 L-13.15 -9.4 -16.5 -10.45 -17.55 -10.85 -17.85 -8.25 -15.3 -8.75 M-7.3 11.25 L-6.55 11.85 Q-4.85 12.6 -3.0 11.8 L-3.0 9.05 -3.3 8.95 -4.7 8.25 Q-7.0 7.4 -7.95 9.85 L-7.3 11.25 M-2.15 12.0 Q-3.2 13.35 -4.75 13.75 -7.35 13.8 -8.45 11.3 -8.75 10.5 -8.65 9.7 -8.3 7.2 -5.7 6.45 -3.9 6.6 -2.8 7.85 L-2.15 8.35 -2.2 11.9 -2.2 11.95 -2.15 12.0" fill="#000000" fill-rule="evenodd" stroke="none"/>
    <path d="M12.45 -18.95 L-11.5 -20.85 Q-9.5 -22.2 -7.3 -23.15 -4.5 -24.4 -1.5 -24.8 L3.0 -24.5 Q8.7 -23.55 12.45 -18.95" fill="#5c5538" fill-rule="evenodd" stroke="none"/>
    <path d="M-11.5 -20.85 L-12.6 -20.75 Q-8.45 -26.0 -3.15 -29.8 1.1 -32.7 6.1 -34.75 L6.95 -34.85 5.8 -27.5 15.9 -18.4 12.45 -18.95 Q8.7 -23.55 3.0 -24.5 L-1.5 -24.8 Q-4.5 -24.4 -7.3 -23.15 -9.5 -22.2 -11.5 -20.85" fill="#796d4a" fill-rule="evenodd" stroke="none"/>
    <path d="M16.1 -7.0 L16.15 -8.95 Q16.25 -12.0 15.35 -14.9 L14.7 -16.9 14.25 -17.85 17.8 -17.45 18.4 -14.9 Q18.85 -11.2 17.8 -7.7 L16.1 -7.0 M-14.1 -19.35 Q-15.4 -17.25 -16.1 -14.9 L-16.9 -11.95 -17.75 -14.9 -17.45 -16.3 Q-16.55 -18.8 -14.1 -19.35 M16.25 -5.5 L16.2 -5.95 18.05 -6.45 18.6 -3.8 16.7 -5.65 16.25 -5.5 M17.05 3.5 L16.35 -5.0 Q18.65 -1.9 19.4 1.9 L19.0 4.3 17.95 4.2 17.05 3.5 M-16.9 -0.4 L-17.9 -0.65 Q-19.0 -3.3 -18.75 -6.1 L-18.45 -6.6 -16.85 -7.0 -16.85 -6.05 -17.7 -5.05 -16.9 -0.4 M-16.5 -10.45 L-16.4 -8.8 -15.3 -8.75 -17.85 -8.25 -17.55 -10.85 -16.5 -10.45" fill="#867168" fill-rule="evenodd" stroke="none"/>
    <path d="M14.25 -17.85 L14.7 -16.9 15.35 -14.9 Q16.25 -12.0 16.15 -8.95 L16.1 -7.0 11.5 -7.05 -3.7 -9.05 -4.1 -9.2 -4.6 -8.95 -16.9 -11.95 -16.1 -14.9 Q-15.4 -17.25 -14.1 -19.35 -9.7 -19.9 -5.15 -19.35 L3.65 -18.8 14.25 -17.85 M16.25 -5.5 L16.2 -5.3 16.35 -5.0 17.05 3.5 Q12.95 0.35 8.35 -2.25 L-0.3 -6.7 -3.6 -7.9 7.3 -6.25 16.2 -5.95 16.25 -5.5 M-16.85 -7.0 L-14.75 -7.55 -9.4 -8.55 -4.7 -7.2 Q-0.75 -6.0 2.85 -4.2 10.05 -0.65 16.55 4.15 L14.05 3.45 12.1 3.25 8.2 3.7 Q2.95 4.1 -2.4 3.6 -7.9 3.45 -12.8 2.1 L-15.5 0.7 -16.9 -0.4 -17.7 -5.05 -16.85 -6.05 -16.85 -7.0 M-15.3 -8.75 L-16.4 -8.8 -16.5 -10.45 -13.15 -9.4 -15.3 -8.75" fill="#6f5e55" fill-rule="evenodd" stroke="none"/>
    <path d="M3.2 7.55 L3.35 5.05 12.35 4.7 15.4 5.45 17.8 5.7 17.75 7.55 16.85 7.7 16.7 6.45 16.2 6.75 16.2 7.8 13.75 8.1 Q9.6 5.7 5.15 7.5 L5.05 7.7 6.25 8.75 3.2 8.8 3.2 7.55" fill="#765949" fill-rule="evenodd" stroke="none"/>
    <path d="M3.2 7.55 L3.2 8.8 6.25 8.75 9.0 9.8 8.85 11.4 Q8.75 12.6 9.75 13.1 L10.65 12.95 11.25 11.1 11.35 11.1 13.05 11.7 Q14.4 10.9 14.0 9.3 L13.75 8.1 16.2 7.8 16.05 10.35 16.3 10.6 17.0 10.25 16.85 7.7 17.75 7.55 17.75 14.45 3.05 14.85 17.65 15.65 17.8 16.35 16.25 16.55 Q14.15 17.1 12.1 17.8 11.25 18.1 11.05 18.9 L7.1 18.2 3.0 17.7 3.05 14.85 3.2 7.55 M-7.3 11.25 L-7.95 9.85 Q-7.0 7.4 -4.7 8.25 L-3.3 8.95 -3.0 9.05 -3.0 11.8 Q-4.85 12.6 -6.55 11.85 L-7.3 11.25" fill="#a58269" fill-rule="evenodd" stroke="none"/>
    <path d="M-12.8 2.1 L-16.25 0.65 -15.5 0.7 -12.8 2.1 M12.8 9.95 L7.0 7.65 12.0 7.9 12.8 8.75 12.8 9.95 M19.25 8.65 L19.5 8.45 19.8 8.65 19.9 9.15 19.8 9.65 19.5 9.85 19.25 9.65 19.1 9.15 Q19.1 8.85 19.25 8.65 M-18.55 4.15 L-17.25 2.2 -2.6 4.75 -2.35 5.7 Q-1.75 8.25 -1.45 10.85 -1.0 14.45 -1.1 18.15 L-0.4 18.7 0.25 18.95 1.0 19.25 1.85 19.15 2.55 19.7 2.85 19.65 2.95 19.5 3.05 18.9 3.65 18.85 5.8 19.35 9.9 20.25 11.95 20.1 13.1 18.2 17.8 17.95 17.8 19.55 15.9 20.45 15.45 22.5 13.2 22.5 11.85 28.55 10.6 25.3 9.55 25.2 9.1 25.75 8.65 25.85 Q8.25 24.6 7.25 24.05 L5.05 23.1 Q3.45 22.3 1.85 21.65 L-1.5 20.25 -4.5 19.0 Q-6.0 18.3 -7.55 17.75 L-7.7 16.55 -12.15 16.15 -12.8 13.35 -15.55 13.35 -15.0 8.35 -15.35 8.0 -15.9 7.95 -17.45 9.15 -17.15 6.85 -15.65 4.2 -18.45 4.3 -18.55 4.15 M-2.2 11.9 L-2.15 8.35 -2.8 7.85 Q-3.9 6.6 -5.7 6.45 -8.3 7.2 -8.65 9.7 -8.75 10.5 -8.45 11.3 -7.35 13.8 -4.75 13.75 -3.2 13.35 -2.15 12.0 L-2.2 11.9" fill="#241f1c" fill-rule="evenodd" stroke="none"/>
    <path d="M1.6 17.75 L0.1 17.75 Q0.1 13.7 -0.4 9.55 L-1.1 5.7 -1.35 4.85 2.0 5.05 1.6 17.75" fill="#886c4d" fill-rule="evenodd" stroke="none"/>
  </g>
</svg>
