<?xml version="1.0" encoding="UTF-8" standalone="no"?>
<svg xmlns:xlink="http://www.w3.org/1999/xlink" height="67.05px" width="41.95px" xmlns="http://www.w3.org/2000/svg">
  <g transform="matrix(1.0, 0.0, 0.0, 1.0, 21.45, 35.55)">
    <path d="M2.35 -34.75 Q4.35 -27.85 10.2 -23.7 13.8 -21.05 16.1 -17.35 L17.35 -17.05 Q19.05 -12.2 18.3 -6.9 17.95 -4.65 18.05 -2.3 L17.5 -1.6 18.85 7.5 Q21.95 9.9 19.3 12.85 18.35 13.9 16.75 13.75 L16.55 16.65 16.15 17.25 15.2 17.4 14.95 18.3 14.55 18.9 14.55 19.5 Q11.5 22.95 6.85 23.95 L6.65 26.35 6.05 27.15 4.45 26.15 1.1 31.5 -2.75 25.55 -3.65 26.35 -4.55 26.35 Q-8.75 20.75 -15.65 18.4 L-15.8 17.5 -18.05 15.25 Q-20.15 14.8 -21.45 12.45 L-19.8 8.8 -18.65 3.9 Q-18.4 -2.9 -19.85 -9.85 -20.15 -11.15 -19.85 -12.45 -19.3 -14.8 -18.0 -16.65 L-16.7 -16.8 Q-13.35 -23.05 -6.8 -26.5 -2.7 -28.7 -1.0 -33.1 L0.35 -35.55 2.35 -34.75 M12.35 -16.75 L14.9 -16.7 Q11.7 -21.85 6.55 -25.3 4.95 -26.4 4.15 -28.25 L1.15 -34.35 Q-1.1 -28.45 -6.45 -25.3 -11.85 -22.1 -15.55 -17.0 L-9.95 -17.2 12.35 -16.75 M14.85 -7.15 L16.75 -7.05 16.95 -15.05 12.55 -16.1 2.15 -16.35 -7.7 -15.85 -13.75 -15.95 -17.5 -15.35 -18.6 -13.35 Q-19.7 -10.85 -18.75 -8.1 L-15.8 -8.05 14.6 -6.9 14.65 -7.1 14.85 -7.15 M-16.45 -3.2 L-15.6 -3.25 -15.65 -2.75 -5.2 -2.05 2.85 -0.95 12.1 -1.4 15.1 -2.0 15.1 -2.5 15.3 -2.5 17.15 -3.05 17.2 -5.75 14.75 -5.85 -8.9 -7.1 -7.9 -7.0 -16.45 -6.3 -18.35 -6.3 -18.4 -3.15 -16.45 -3.2 M15.45 1.55 L16.2 1.35 16.3 1.4 16.45 1.7 16.7 -1.0 15.5 -0.75 Q5.3 1.05 -5.0 -0.55 L-15.8 -2.25 -15.85 -2.1 -17.7 -2.0 -17.55 2.6 -14.7 3.6 -3.65 4.05 -4.65 4.5 7.55 3.5 15.45 1.55 M17.4 3.15 L17.3 2.85 17.2 3.15 15.8 2.6 Q4.4 6.6 -7.65 5.5 L-16.3 5.25 -18.35 4.25 -18.5 7.75 -17.1 7.7 -15.95 8.3 -15.45 14.6 -16.4 14.5 -16.6 15.0 -17.4 15.0 -17.25 15.55 -15.05 16.75 -15.15 17.0 -15.1 17.25 -3.75 24.65 -2.65 23.65 -2.15 23.95 0.8 29.2 3.8 24.95 5.45 24.85 5.45 23.0 9.85 22.4 9.8 21.5 12.95 19.25 12.75 19.15 12.7 18.85 13.65 17.8 13.75 17.6 Q16.55 12.6 17.15 7.05 L17.7 7.1 17.4 3.15 M19.1 9.55 L18.55 8.7 17.45 8.35 16.8 12.85 Q19.0 12.05 19.1 9.55 M-17.0 8.9 L-20.1 12.0 -18.8 13.45 -16.4 13.7 -17.0 8.9" fill="#000000" fill-rule="evenodd" stroke="none"/>
    <path d="M-9.95 -17.2 L-15.55 -17.0 Q-11.85 -22.1 -6.45 -25.3 -1.1 -28.45 1.15 -34.35 L4.15 -28.25 Q4.95 -26.4 6.55 -25.3 11.7 -21.85 14.9 -16.7 L12.35 -16.75 Q7.85 -21.65 1.3 -22.35 -5.7 -22.7 -9.95 -17.2" fill="#796d4a" fill-rule="evenodd" stroke="none"/>
    <path d="M12.55 -16.1 L14.85 -7.15 14.65 -7.1 14.6 -6.9 -15.8 -8.05 -13.75 -15.95 -7.7 -15.85 2.15 -16.35 12.55 -16.1 M15.3 -2.5 L15.1 -2.5 15.1 -2.0 12.1 -1.4 2.85 -0.95 -5.2 -2.05 -15.65 -2.75 -15.6 -3.25 -16.45 -3.2 -16.45 -6.3 -7.9 -7.0 -8.9 -7.1 14.75 -5.85 15.3 -2.5 M15.45 1.55 L7.55 3.5 -3.65 4.05 -14.7 3.6 -14.8 0.55 -15.85 -2.1 -15.8 -2.25 -5.0 -0.55 Q5.3 1.05 15.5 -0.75 L15.45 1.55" fill="#6f5e55" fill-rule="evenodd" stroke="none"/>
    <path d="M12.55 -16.1 L16.95 -15.05 16.75 -7.05 14.85 -7.15 12.55 -16.1 M-15.8 -8.05 L-18.75 -8.1 Q-19.7 -10.85 -18.6 -13.35 L-17.5 -15.35 -13.75 -15.95 -15.8 -8.05 M15.3 -2.5 L14.75 -5.85 17.2 -5.75 17.15 -3.05 15.3 -2.5 M-16.45 -6.3 L-16.45 -3.2 -18.4 -3.15 -18.35 -6.3 -16.45 -6.3 M15.5 -0.75 L16.7 -1.0 16.45 1.7 16.3 1.4 16.2 1.35 15.45 1.55 15.5 -0.75 M-14.7 3.6 L-17.55 2.6 -17.7 -2.0 -15.85 -2.1 -14.8 0.55 -14.7 3.6" fill="#867168" fill-rule="evenodd" stroke="none"/>
    <path d="M-9.95 -17.2 Q-5.7 -22.7 1.3 -22.35 7.85 -21.65 12.35 -16.75 L-9.95 -17.2" fill="#5c5538" fill-rule="evenodd" stroke="none"/>
    <path d="M7.55 3.5 L-4.65 4.5 -3.65 4.05 7.55 3.5 M17.2 3.15 L17.4 3.15 17.7 7.1 17.15 7.05 Q16.55 12.6 13.75 17.6 L13.65 17.8 12.7 18.85 12.75 19.15 12.95 19.25 9.8 21.5 9.85 22.4 5.45 23.0 5.45 24.85 3.8 24.95 0.8 29.2 -2.15 23.95 -2.65 23.65 -3.75 24.65 -15.1 17.25 -15.15 17.0 -15.05 16.75 -17.25 15.55 -17.4 15.0 -16.6 15.0 -16.4 14.5 -15.45 14.6 -15.95 8.3 -17.1 7.7 -18.5 7.75 -18.35 4.25 -16.3 5.25 -7.65 5.5 Q4.4 6.6 15.8 2.6 L17.2 3.15" fill="#241f1c" fill-rule="evenodd" stroke="none"/>
    <path d="M19.1 9.55 Q19.0 12.05 16.8 12.85 L17.45 8.35 18.55 8.7 19.1 9.55 M-17.0 8.9 L-16.4 13.7 -18.8 13.45 -20.1 12.0 -17.0 8.9" fill="#a58269" fill-rule="evenodd" stroke="none"/>
  </g>
</svg>
