<?xml version="1.0" encoding="UTF-8" standalone="no"?>
<svg xmlns:xlink="http://www.w3.org/1999/xlink" height="64.05px" width="40.5px" xmlns="http://www.w3.org/2000/svg">
  <g transform="matrix(1.0, 0.0, 0.0, 1.0, 17.05, 55.7)">
    <path d="M4.15 -55.7 L4.35 -55.7 4.5 -55.7 4.65 -55.5 4.7 -55.45 4.7 -55.4 4.75 -55.3 4.65 -55.25 Q4.3 -52.1 6.3 -49.3 L6.4 -49.15 7.0 -48.85 Q10.2 -45.55 14.05 -42.75 16.6 -40.85 18.0 -38.15 20.05 -37.4 21.65 -35.85 L21.85 -35.65 21.9 -35.45 21.9 -35.05 22.15 -34.9 22.35 -33.95 Q22.75 -32.65 22.25 -31.3 L22.15 -31.1 Q22.85 -29.25 23.2 -27.25 L23.3 -27.1 23.3 -26.9 23.25 -26.85 23.45 -23.05 Q23.3 -21.1 21.6 -20.7 L21.75 -13.2 21.85 -13.15 22.0 -13.0 22.1 -12.8 22.0 -12.4 21.95 -12.25 21.7 -12.1 21.25 -4.75 20.75 -1.85 16.9 -0.15 16.6 1.05 16.0 2.9 15.9 2.95 15.6 3.05 15.15 2.95 12.9 2.4 Q12.7 2.5 12.65 2.55 L12.55 2.75 11.5 6.35 10.9 8.0 10.75 8.2 10.4 8.35 10.0 8.25 9.7 7.9 Q7.75 6.15 6.6 3.8 L6.5 3.6 6.35 3.75 5.9 4.4 5.6 4.8 5.25 4.9 Q4.55 5.1 4.1 4.6 L4.15 4.35 4.05 1.9 3.95 1.9 Q0.1 2.0 -3.3 0.95 -4.4 1.7 -5.45 1.15 -7.35 1.55 -8.3 0.4 L-9.65 -1.1 Q-10.6 -0.25 -11.7 0.25 L-12.15 0.1 Q-12.8 -1.8 -12.5 -4.0 L-13.85 -5.5 Q-14.55 -6.55 -14.4 -7.9 L-14.0 -9.35 -14.15 -9.5 -14.25 -9.55 -14.8 -9.95 -14.35 -12.05 -13.65 -14.45 -14.0 -14.6 Q-15.75 -15.45 -15.95 -17.3 L-15.95 -18.85 -16.05 -19.05 Q-16.3 -20.6 -16.05 -22.2 L-16.0 -22.4 -16.1 -23.55 -16.2 -25.65 -16.4 -26.05 -16.5 -26.3 -16.55 -26.5 -16.45 -26.8 -16.45 -26.85 -16.75 -27.45 -16.9 -27.65 -17.05 -28.25 -17.05 -30.0 Q-17.1 -31.0 -16.5 -31.75 -15.65 -35.0 -12.25 -36.7 L-10.2 -40.4 Q-4.95 -48.4 2.35 -54.5 L4.15 -55.7 M20.3 -30.75 L20.75 -30.9 21.15 -31.05 21.45 -32.15 Q21.65 -33.4 21.3 -34.6 20.85 -36.05 19.3 -36.75 L18.45 -37.15 16.85 -37.65 16.8 -37.7 14.45 -38.05 10.75 -37.9 -7.35 -36.65 -8.55 -36.5 -9.8 -36.25 -11.35 -35.7 -11.5 -35.65 -13.1 -34.7 -13.5 -34.4 -13.6 -34.35 -14.1 -33.85 -14.3 -33.7 -14.5 -33.45 -14.6 -33.3 -14.65 -33.25 -15.15 -32.6 Q-15.1 -31.9 -15.4 -31.25 -15.8 -30.45 -15.65 -29.5 L-15.7 -29.1 -15.6 -28.15 -15.5 -28.0 -15.25 -27.75 -15.2 -27.55 -13.75 -27.8 -13.2 -27.85 -11.9 -28.05 5.8 -29.35 6.9 -29.35 10.2 -29.35 10.8 -29.35 Q15.1 -29.3 19.2 -30.4 L20.3 -30.75 M19.8 -26.65 L20.0 -26.7 21.85 -27.1 21.8 -27.25 21.65 -27.65 21.65 -27.9 Q21.8 -29.0 21.4 -29.9 L19.4 -29.35 12.4 -28.15 14.5 -26.8 Q15.1 -27.0 15.9 -26.8 L19.8 -26.65 M19.9 -21.55 L22.0 -22.4 22.05 -22.6 Q22.65 -24.05 21.95 -25.4 L21.55 -26.0 21.6 -26.15 21.55 -26.15 20.5 -25.85 16.15 -25.55 18.55 -23.3 18.8 -22.9 18.9 -22.7 19.35 -22.05 18.85 -21.05 19.9 -21.55 M13.6 -38.9 L16.2 -38.65 Q12.85 -43.2 7.95 -46.1 L6.4 -47.35 5.25 -48.65 Q3.4 -51.45 3.8 -54.55 -2.15 -49.75 -6.75 -43.6 L-6.9 -43.4 -6.9 -43.35 Q-9.0 -40.5 -10.55 -37.4 L-9.7 -37.65 -6.35 -38.2 -5.6 -38.2 11.05 -38.7 13.6 -38.9 M7.35 -18.7 L8.45 -18.75 Q13.5 -19.0 17.8 -21.55 L17.35 -22.45 15.95 -23.75 15.8 -23.9 Q12.9 -26.4 9.55 -27.95 7.4 -27.9 5.2 -28.0 L-9.65 -27.1 -12.15 -26.7 -14.4 -26.3 -14.95 -26.25 Q-15.55 -25.0 -15.4 -23.35 L-14.35 -23.7 -14.35 -23.75 -14.15 -23.75 -12.8 -23.75 -6.05 -23.3 -3.5 -22.7 -3.45 -22.7 -3.35 -22.7 -3.2 -22.7 -2.55 -22.45 -0.9 -21.95 1.3 -21.2 5.5 -19.45 Q6.1 -18.95 6.8 -18.8 L7.05 -18.75 7.05 -18.7 7.35 -18.7 M18.65 -20.5 L18.65 -20.75 18.55 -20.6 Q17.2 -18.9 14.55 -18.55 L14.1 -18.45 Q10.1 -17.2 6.05 -18.0 L6.0 -18.0 Q1.3 -16.45 -3.15 -14.3 L-3.3 -12.3 Q-3.5 -8.8 -2.8 -5.3 -1.7 -5.95 -0.25 -6.05 L2.5 -6.35 8.75 -6.9 19.45 -6.75 19.95 -6.65 20.2 -11.2 19.1 -10.75 18.7 -9.3 18.4 -8.9 17.8 -8.8 17.35 -8.9 Q17.1 -9.6 17.0 -10.3 15.55 -10.7 15.35 -12.45 L15.35 -13.45 16.1 -14.1 16.25 -14.2 16.75 -14.4 17.05 -14.5 17.55 -14.6 17.65 -14.6 18.05 -14.65 18.15 -14.65 19.65 -14.55 20.3 -14.4 20.3 -14.45 20.4 -19.35 20.55 -20.25 18.65 -20.3 18.65 -20.5 M11.2 -13.5 L11.25 -14.3 11.3 -14.45 11.55 -14.55 11.65 -14.55 11.75 -14.4 11.8 -13.55 11.95 -11.1 12.0 -10.95 11.85 -10.55 11.75 -10.5 Q11.1 -10.35 10.8 -11.0 L10.95 -11.4 11.05 -11.55 11.2 -13.5 M16.25 -12.8 L16.25 -12.3 16.35 -12.15 16.45 -12.0 Q16.5 -11.8 16.7 -11.65 L17.25 -11.55 17.25 -11.6 20.25 -13.05 20.3 -13.55 Q18.3 -13.95 16.3 -13.1 L16.25 -12.95 16.25 -12.8 M5.05 -19.3 L4.85 -19.35 5.0 -19.25 5.05 -19.3 M7.25 -13.05 L7.5 -12.45 Q7.55 -11.7 7.2 -11.05 L7.15 -11.0 Q6.2 -10.55 5.35 -10.6 L5.35 -10.55 4.45 -10.55 4.35 -9.65 3.9 -8.4 2.1 -8.55 1.8 -8.75 Q1.45 -9.45 1.55 -10.2 L1.65 -10.8 Q-0.25 -11.15 -1.9 -11.95 L-1.95 -12.2 -1.95 -12.35 -1.95 -12.5 -1.9 -12.7 -0.7 -13.4 Q0.85 -14.25 2.5 -14.2 5.15 -14.7 7.1 -13.25 L7.25 -13.05 M0.15 -12.6 L5.25 -11.45 5.4 -11.35 Q6.1 -11.55 6.65 -12.05 L6.7 -12.2 6.7 -12.35 6.55 -12.7 Q3.15 -14.05 0.15 -12.6 M10.3 6.0 Q10.8 3.8 11.55 1.75 L11.9 1.15 12.1 1.1 15.0 1.35 15.2 1.15 15.65 -0.1 15.75 -0.55 17.2 -1.1 17.3 -1.25 17.4 -1.45 17.5 -1.75 19.75 -3.15 19.8 -3.85 Q18.15 -2.8 16.3 -2.8 L16.35 -2.7 14.2 -2.95 14.1 -2.9 13.35 -3.2 7.8 -2.95 7.3 -2.85 6.7 -2.1 6.5 -1.9 6.25 -1.55 Q5.4 -1.1 4.55 -0.75 L4.65 -0.95 Q1.0 0.1 -2.15 -0.85 L-2.2 0.0 4.0 0.6 4.0 0.55 Q4.5 0.75 5.2 0.55 4.95 1.7 5.3 2.95 L5.35 3.1 5.45 2.95 6.05 2.35 6.2 2.2 6.45 2.2 Q7.65 2.65 8.35 4.1 8.95 5.4 10.15 6.15 L10.3 6.0 M6.4 -3.95 L7.8 -4.3 13.7 -3.95 15.1 -3.55 15.45 -3.35 Q17.7 -3.75 19.85 -4.55 L19.9 -5.5 Q10.85 -6.1 1.85 -5.35 L-1.4 -4.85 -2.4 -4.65 -2.65 -4.5 -2.45 -3.65 -2.2 -2.0 0.7 -1.75 5.15 -2.0 5.2 -2.1 5.85 -2.8 5.9 -3.0 6.0 -3.4 6.25 -3.85 6.4 -3.95 M-11.7 -15.2 L-9.3 -14.8 -9.25 -14.85 -9.25 -14.9 -8.95 -14.75 -8.7 -14.7 -8.65 -14.65 Q-6.1 -14.65 -3.65 -15.55 L-2.45 -16.05 3.8 -18.8 -0.4 -20.8 -0.45 -20.85 -3.1 -21.65 Q-7.15 -22.65 -11.3 -22.5 L-14.05 -22.35 -14.4 -22.15 -14.75 -21.9 -14.8 -21.7 -14.95 -20.35 -14.85 -19.1 -15.05 -19.05 -15.15 -19.05 -15.2 -18.2 -15.2 -18.05 -15.25 -17.55 -15.25 -17.35 -13.95 -15.7 -12.9 -15.35 -11.7 -15.2 M-8.7 -13.3 Q-7.7 -7.05 -5.75 -0.85 L-5.7 -0.45 Q-5.1 -0.15 -4.3 -0.1 L-3.45 -0.7 Q-4.75 -6.9 -4.35 -13.25 L-4.3 -13.75 -5.65 -13.45 -8.7 -13.3 M-12.75 -13.15 L-12.95 -11.7 -13.1 -11.05 -13.2 -10.85 -13.1 -10.7 Q-12.4 -11.35 -11.3 -11.7 L-9.55 -11.35 -9.7 -13.4 -12.35 -13.95 -12.75 -13.15 M-11.3 -1.85 L-11.3 -1.65 -11.2 -1.7 Q-8.85 -3.15 -7.1 -0.45 L-7.0 -0.45 -7.0 -0.5 -7.25 -1.05 -8.2 -4.05 Q-9.95 -3.1 -11.35 -3.45 L-11.3 -1.85 M-11.25 -5.25 L-9.3 -5.2 -8.5 -5.35 -9.5 -10.65 Q-11.4 -10.7 -12.7 -9.3 -14.1 -6.2 -11.25 -5.25" fill="#000000" fill-rule="evenodd" stroke="none"/>
    <path d="M20.3 -14.45 L20.3 -14.4 19.65 -14.55 20.15 -14.45 20.3 -14.45 M16.1 -14.1 L15.35 -13.45 15.35 -12.45 Q15.55 -10.7 17.0 -10.3 17.1 -9.6 17.35 -8.9 L17.8 -8.8 18.4 -8.9 18.7 -9.3 19.1 -10.75 20.2 -11.2 19.95 -6.65 19.45 -6.75 8.75 -6.9 2.5 -6.35 -0.25 -6.05 Q-1.7 -5.95 -2.8 -5.3 -3.5 -8.8 -3.3 -12.3 L-1.95 -12.5 -1.95 -12.35 -1.95 -12.2 -1.9 -11.95 Q-0.25 -11.15 1.65 -10.8 L1.55 -10.2 Q1.45 -9.45 1.8 -8.75 L2.1 -8.55 3.9 -8.4 4.35 -9.65 4.45 -10.55 5.35 -10.55 5.35 -10.6 Q6.2 -10.55 7.15 -11.0 L7.2 -11.05 Q7.55 -11.7 7.5 -12.45 L7.25 -13.05 7.45 -13.1 11.2 -13.5 11.05 -11.55 10.95 -11.4 10.8 -11.0 Q11.1 -10.35 11.75 -10.5 L11.85 -10.55 12.0 -10.95 11.95 -11.1 11.8 -13.55 15.9 -14.0 16.1 -14.1 M6.4 -3.95 L6.25 -3.85 6.0 -3.4 5.9 -3.0 5.85 -2.8 5.2 -2.1 5.15 -2.0 0.7 -1.75 -2.2 -2.0 -2.45 -3.65 -2.65 -4.5 -2.4 -4.65 -1.4 -4.85 1.85 -5.35 Q10.85 -6.1 19.9 -5.5 L19.85 -4.55 Q17.7 -3.75 15.45 -3.35 L15.1 -3.55 13.7 -3.95 7.8 -4.3 6.4 -3.95 M-11.25 -5.25 Q-14.1 -6.2 -12.7 -9.3 -11.4 -10.7 -9.5 -10.65 L-8.5 -5.35 -9.3 -5.2 -11.25 -5.25" fill="#a58269" fill-rule="evenodd" stroke="none"/>
    <path d="M16.8 -37.7 L16.85 -37.6 17.8 -36.05 Q19.35 -33.75 20.2 -31.25 L20.3 -30.75 19.2 -30.4 Q15.1 -29.3 10.8 -29.35 L10.2 -29.35 6.9 -29.35 5.8 -29.35 -11.9 -28.05 -13.2 -27.85 -13.15 -28.25 -13.0 -29.55 -12.75 -31.05 -12.35 -33.25 -11.5 -35.65 -11.35 -35.7 -9.8 -36.25 -8.55 -36.5 -7.35 -36.65 10.75 -37.9 14.45 -38.05 16.8 -37.7 M19.4 -29.35 L19.8 -26.65 15.9 -26.8 Q15.1 -27.0 14.5 -26.8 L12.4 -28.15 19.4 -29.35 M19.9 -21.55 L18.85 -21.05 19.35 -22.05 18.9 -22.7 18.8 -22.9 18.55 -23.3 16.15 -25.55 20.5 -25.85 Q20.05 -23.7 19.9 -21.55 M-12.15 -26.7 L-9.65 -27.1 5.2 -28.0 Q7.4 -27.9 9.55 -27.95 12.9 -26.4 15.8 -23.9 L15.95 -23.75 17.35 -22.45 17.8 -21.55 Q13.5 -19.0 8.45 -18.75 L7.35 -18.7 7.05 -18.75 6.8 -18.8 Q6.1 -18.95 5.5 -19.45 L1.3 -21.2 -0.9 -21.95 -2.55 -22.45 -3.2 -22.7 -3.35 -22.7 -3.45 -22.7 -3.5 -22.7 -6.05 -23.3 -12.8 -23.75 Q-12.4 -25.2 -12.15 -26.7 M5.05 -19.3 L5.0 -19.25 4.85 -19.35 5.05 -19.3 M-11.3 -22.5 Q-7.15 -22.65 -3.1 -21.65 L-0.45 -20.85 -0.4 -20.8 3.8 -18.8 -2.45 -16.05 -3.65 -15.55 Q-6.1 -14.65 -8.65 -14.65 L-8.7 -14.7 -8.95 -14.75 -9.25 -14.9 -9.25 -14.85 -9.3 -14.8 -11.7 -15.2 -11.25 -15.15 Q-11.6 -17.25 -11.6 -19.45 L-11.4 -21.75 -11.3 -22.5 M-15.2 -18.2 L-15.15 -19.05 -15.2 -18.2" fill="#6f5e55" fill-rule="evenodd" stroke="none"/>
    <path d="M-8.7 -13.3 L-5.65 -13.45 -4.3 -13.75 -4.35 -13.25 Q-4.75 -6.9 -3.45 -0.7 L-4.3 -0.1 Q-5.1 -0.15 -5.7 -0.45 L-5.75 -0.85 Q-7.7 -7.05 -8.7 -13.3" fill="#886c4d" fill-rule="evenodd" stroke="none"/>
    <path d="M13.6 -38.9 L11.05 -38.7 -5.6 -38.2 -6.35 -38.2 -3.8 -41.4 Q-2.05 -43.25 0.45 -43.4 8.1 -43.85 13.6 -38.9 M-6.9 -43.35 L-6.9 -43.4 -6.85 -43.4 -6.9 -43.35" fill="#5c5538" fill-rule="evenodd" stroke="none"/>
    <path d="M-6.9 -43.4 L-6.75 -43.6 Q-2.15 -49.75 3.8 -54.55 3.4 -51.45 5.25 -48.65 L6.4 -47.35 7.95 -46.1 Q12.85 -43.2 16.2 -38.65 L13.6 -38.9 Q8.1 -43.85 0.45 -43.4 -2.05 -43.25 -3.8 -41.4 L-6.35 -38.2 -9.7 -37.65 -10.55 -37.4 Q-9.0 -40.5 -6.9 -43.35 L-6.85 -43.4 -6.9 -43.4" fill="#796d4a" fill-rule="evenodd" stroke="none"/>
    <path d="M16.8 -37.7 L16.85 -37.65 18.45 -37.15 19.3 -36.75 Q20.85 -36.05 21.3 -34.6 21.65 -33.4 21.45 -32.15 L21.15 -31.05 20.75 -30.9 20.3 -30.75 20.2 -31.25 Q19.35 -33.75 17.8 -36.05 L16.85 -37.6 16.8 -37.7 M-13.2 -27.85 L-13.75 -27.8 -15.2 -27.55 -15.25 -27.75 -15.5 -28.0 -15.6 -28.15 -15.7 -29.1 -15.65 -29.5 Q-15.8 -30.45 -15.4 -31.25 -15.1 -31.9 -15.15 -32.6 L-14.65 -33.25 -14.6 -33.3 -14.5 -33.45 -14.3 -33.7 -14.1 -33.85 -13.6 -34.35 -13.5 -34.4 -13.1 -34.7 -11.5 -35.65 -12.35 -33.25 -12.75 -31.05 -13.0 -29.55 -13.15 -28.25 -13.2 -27.85 M19.4 -29.35 L21.4 -29.9 Q21.8 -29.0 21.65 -27.9 L21.65 -27.65 21.8 -27.25 21.85 -27.1 20.0 -26.7 19.8 -26.65 19.4 -29.35 M21.55 -26.0 L21.95 -25.4 Q22.65 -24.05 22.05 -22.6 L22.0 -22.4 19.9 -21.55 Q20.05 -23.7 20.5 -25.85 L21.55 -26.15 21.55 -26.0 M-12.15 -26.7 Q-12.4 -25.2 -12.8 -23.75 L-14.15 -23.75 -14.35 -23.75 -14.35 -23.7 -15.4 -23.35 Q-15.55 -25.0 -14.95 -26.25 L-14.4 -26.3 -12.15 -26.7 M-11.3 -22.5 L-11.4 -21.75 -11.6 -19.45 Q-11.6 -17.25 -11.25 -15.15 L-11.7 -15.2 -12.9 -15.35 -13.95 -15.7 -15.25 -17.35 -15.25 -17.55 -15.2 -18.05 -15.2 -18.2 -15.15 -19.05 -15.05 -19.05 -14.85 -19.1 -14.95 -20.35 -14.8 -21.7 -14.75 -21.9 -14.4 -22.15 -14.05 -22.35 -11.3 -22.5" fill="#867168" fill-rule="evenodd" stroke="none"/>
    <path d="M16.25 -12.8 L16.25 -12.95 16.3 -13.1 Q18.3 -13.95 20.3 -13.55 L20.25 -13.05 17.25 -11.6 17.25 -11.55 16.7 -11.65 Q16.5 -11.8 16.45 -12.0 L16.35 -12.15 16.25 -12.3 16.25 -12.8 M5.3 2.95 Q4.95 1.7 5.2 0.55 4.5 0.75 4.0 0.55 L4.0 0.6 -2.2 0.0 -2.15 -0.85 Q1.0 0.1 4.65 -0.95 L4.55 -0.75 Q5.4 -1.1 6.25 -1.55 L6.5 -1.9 6.7 -2.1 7.3 -2.85 7.8 -2.95 13.35 -3.2 14.1 -2.9 14.2 -2.95 16.35 -2.7 16.3 -2.8 Q18.15 -2.8 19.8 -3.85 L19.75 -3.15 17.5 -1.75 17.4 -1.45 17.3 -1.25 17.2 -1.1 15.75 -0.55 15.65 -0.1 15.2 1.15 15.0 1.35 12.1 1.1 11.9 1.15 11.55 1.75 Q10.8 3.8 10.3 6.0 L10.15 6.15 Q8.95 5.4 8.35 4.1 7.65 2.65 6.45 2.2 L6.2 2.2 6.05 2.35 5.45 2.95 5.3 2.95 M0.15 -12.6 Q3.15 -14.05 6.55 -12.7 L6.7 -12.35 6.7 -12.2 6.65 -12.05 Q6.1 -11.55 5.4 -11.35 L5.25 -11.45 0.15 -12.6 M-12.75 -13.15 L-12.35 -13.95 -9.7 -13.4 -9.55 -11.35 -11.3 -11.7 Q-12.4 -11.35 -13.1 -10.7 L-13.2 -10.85 -13.1 -11.05 -12.95 -11.7 -12.75 -13.15 M-11.3 -1.85 L-11.35 -3.45 Q-9.95 -3.1 -8.2 -4.05 L-7.25 -1.05 -7.0 -0.5 -7.1 -0.45 Q-8.85 -3.15 -11.2 -1.7 L-11.3 -1.85" fill="#241f1c" fill-rule="evenodd" stroke="none"/>
    <path d="M18.65 -20.5 L18.65 -20.3 20.55 -20.25 20.4 -19.35 20.3 -14.45 20.15 -14.45 19.65 -14.55 18.15 -14.65 18.05 -14.65 17.65 -14.6 17.55 -14.6 17.05 -14.5 16.75 -14.4 16.25 -14.2 16.1 -14.1 15.9 -14.0 11.8 -13.55 11.75 -14.4 11.65 -14.55 11.55 -14.55 11.3 -14.45 11.25 -14.3 11.2 -13.5 7.45 -13.1 7.25 -13.05 7.1 -13.25 Q5.15 -14.7 2.5 -14.2 0.85 -14.25 -0.7 -13.4 L-1.9 -12.7 -1.95 -12.5 -3.3 -12.3 -3.15 -14.3 Q1.3 -16.45 6.0 -18.0 L6.05 -18.0 Q10.1 -17.2 14.1 -18.45 L14.55 -18.55 Q17.2 -18.9 18.55 -20.6 L18.65 -20.5" fill="#765949" fill-rule="evenodd" stroke="none"/>
  </g>
</svg>
