<?xml version="1.0" encoding="UTF-8" standalone="no"?>
<svg xmlns:xlink="http://www.w3.org/1999/xlink" height="40.9px" width="31.35px" xmlns="http://www.w3.org/2000/svg">
  <g transform="matrix(1.0, 0.0, 0.0, 1.0, 15.85, 18.0)">
    <path d="M1.4 -16.25 Q4.9 -17.2 7.15 -14.5 9.35 -11.9 10.95 -8.9 14.75 -2.0 13.8 6.2 L13.55 6.5 13.55 7.65 13.55 7.8 4.1 8.8 -2.75 8.8 Q-1.95 -1.0 0.05 -10.2 L-0.3 -10.1 Q-3.2 -0.95 -3.3 8.8 L-14.0 8.25 -13.4 6.15 Q-12.55 1.0 -10.35 -3.6 L-9.45 -5.8 Q-6.7 -14.25 1.4 -16.25 M9.0 20.5 Q-1.05 22.05 -10.95 20.4 -11.6 19.65 -12.45 19.3 L-12.45 19.1 -12.45 18.85 -12.6 18.55 -12.85 18.2 -12.85 17.95 -12.65 15.0 Q-8.6 16.15 -4.55 16.4 L-4.3 19.0 -3.95 18.9 -3.9 18.65 Q-3.55 17.5 -3.85 16.45 2.8 16.7 9.5 14.4 10.2 13.85 11.0 13.4 L11.05 13.5 10.3 19.5 8.95 20.1 9.0 20.5 M12.2 12.95 L12.1 12.75 Q13.2 12.15 14.35 11.75 14.1 13.25 14.1 14.9 13.3 16.85 12.1 18.15 12.4 15.5 12.2 12.95 M-13.4 14.75 L-13.45 15.0 Q-13.85 16.2 -13.85 17.4 L-14.25 17.0 -14.25 16.65 -14.25 14.5 -13.4 14.75" fill="#7e7616" fill-rule="evenodd" stroke="none"/>
    <path d="M1.4 -16.25 Q-6.7 -14.25 -9.45 -5.8 L-10.35 -3.6 Q-12.55 1.0 -13.4 6.15 L-14.0 8.25 -3.3 8.8 Q-3.2 -0.95 -0.3 -10.1 L0.05 -10.2 Q-1.95 -1.0 -2.75 8.8 L4.1 8.8 13.55 7.8 13.55 7.65 13.55 6.5 13.8 6.2 Q14.75 -2.0 10.95 -8.9 9.35 -11.9 7.15 -14.5 4.9 -17.2 1.4 -16.25 M10.9 -12.9 L12.4 -10.05 Q16.6 -1.6 15.15 7.9 15.65 9.2 15.25 10.55 15.3 13.25 14.95 16.0 L14.95 16.25 Q13.85 18.85 11.8 20.3 L11.7 20.85 11.65 21.15 Q7.5 23.2 2.45 22.7 L1.4 22.75 Q-5.7 23.45 -12.05 21.05 -13.0 20.7 -13.6 20.0 L-13.75 19.3 -15.85 17.05 Q-15.85 16.5 -15.4 16.15 L-15.35 11.75 -15.3 11.45 -14.95 11.25 -14.95 9.6 -14.95 9.05 -14.55 8.45 Q-15.2 5.4 -13.9 1.85 L-12.45 -1.7 -8.4 -10.25 Q-6.3 -14.55 -2.05 -16.75 -0.3 -17.65 1.4 -17.9 7.65 -18.6 10.9 -12.9 M13.55 8.8 L13.55 8.45 13.5 8.45 Q3.25 11.25 -7.4 9.75 L-9.6 9.55 -13.9 9.4 -13.9 11.2 -13.9 12.65 -13.9 12.95 Q-11.1 14.6 -7.35 14.7 L-4.6 14.9 Q4.15 15.95 11.85 11.45 L13.4 10.05 13.7 9.55 13.55 9.4 13.55 9.15 13.55 8.8 M9.0 20.5 L9.25 20.45 8.95 20.1 10.3 19.5 11.05 13.5 11.05 13.35 11.0 13.4 Q10.2 13.85 9.5 14.4 2.8 16.7 -3.85 16.45 -3.55 17.5 -3.9 18.65 L-3.95 18.9 -4.3 19.0 -4.55 16.4 Q-8.6 16.15 -12.65 15.0 L-12.85 17.95 -12.85 18.2 -12.6 18.55 -12.45 18.85 -12.45 19.1 -12.45 19.3 Q-11.6 19.65 -10.95 20.4 -1.05 22.05 9.0 20.5 M12.1 12.75 L11.9 12.85 12.2 12.95 Q12.4 15.5 12.1 18.15 13.3 16.85 14.1 14.9 14.1 13.25 14.35 11.75 13.2 12.15 12.1 12.75 M-13.4 14.75 L-14.25 14.5 -14.25 16.65 -14.25 17.0 -13.85 17.4 Q-13.85 16.2 -13.45 15.0 L-13.4 14.75" fill="#000000" fill-rule="evenodd" stroke="none"/>
    <path d="M13.55 8.8 L13.55 9.15 13.55 9.4 13.7 9.55 13.4 10.05 11.85 11.45 Q4.15 15.95 -4.6 14.9 L-7.35 14.7 Q-11.1 14.6 -13.9 12.95 L-13.9 12.65 -13.9 11.2 -13.9 9.4 -9.6 9.55 -7.4 9.75 Q3.25 11.25 13.5 8.45 L13.55 8.8" fill="#ac7c2d" fill-rule="evenodd" stroke="none"/>
  </g>
</svg>
