<?xml version="1.0" encoding="UTF-8" standalone="no"?>
<svg xmlns:xlink="http://www.w3.org/1999/xlink" height="34.3px" width="29.9px" xmlns="http://www.w3.org/2000/svg">
  <g transform="matrix(1.0, 0.0, 0.0, 1.0, 14.95, 17.15)">
    <path d="M-2.5 6.3 Q-8.1 6.4 -13.65 4.95 L-13.5 3.6 Q-12.2 -6.5 -6.75 -14.65 L-6.25 -14.5 Q-6.05 -14.5 -5.9 -14.6 L-5.7 -14.75 -5.35 -15.05 Q0.15 -15.8 5.6 -14.85 L6.6 -14.25 7.5 -14.05 7.6 -14.0 7.7 -13.85 7.8 -13.55 8.0 -13.35 8.4 -13.1 Q9.7 -11.3 10.5 -9.3 L10.55 -9.25 10.55 -9.2 10.35 -9.2 Q2.55 -8.15 -5.15 -10.25 L-5.15 -10.2 -5.4 -10.15 -5.5 -10.05 -5.7 -9.9 -5.7 -5.5 -5.55 -3.85 Q-5.15 -1.95 -5.35 0.0 L-5.05 0.3 -4.4 0.35 -4.15 0.3 Q3.4 -3.55 11.95 -2.5 L12.2 -0.65 12.7 3.0 12.45 2.9 12.1 2.85 9.85 4.05 9.95 3.85 9.95 3.8 10.15 3.35 10.3 2.9 10.35 2.7 10.4 2.6 10.4 2.5 Q11.0 0.5 10.0 -1.35 L9.35 -1.9 8.7 -1.8 4.4 -2.2 3.3 -1.95 Q-2.05 -1.05 -2.2 3.8 -2.2 4.65 -1.6 5.15 L-0.25 6.2 -0.4 6.2 -2.5 6.3 M10.95 9.65 L13.1 9.1 Q12.55 11.5 13.1 14.05 12.4 14.65 11.55 14.85 11.6 12.15 10.95 9.65 M4.55 15.55 L3.6 15.6 3.65 15.5 3.75 15.25 Q3.6 13.9 3.0 12.75 L2.5 11.85 7.9 10.5 10.0 9.9 Q9.95 12.35 10.5 15.0 L4.55 15.55 M-3.95 13.0 L-4.15 13.3 -4.45 13.85 -4.75 14.85 -4.9 15.55 -5.1 15.55 -5.15 15.55 -7.45 15.35 -7.45 15.05 -7.3 12.55 -3.6 12.55 -3.95 13.0 M-13.85 15.15 L-13.95 11.1 Q-12.9 12.05 -11.4 12.25 L-8.45 12.5 Q-8.85 13.55 -8.75 14.75 -11.45 15.7 -13.85 15.15" fill="#7e7616" fill-rule="evenodd" stroke="none"/>
    <path d="M10.5 -9.3 Q9.7 -11.3 8.4 -13.1 L8.0 -13.35 7.8 -13.55 7.7 -13.85 7.6 -14.0 7.5 -14.05 6.6 -14.25 5.6 -14.85 Q0.15 -15.8 -5.35 -15.05 L-5.7 -14.75 -5.9 -14.6 Q-6.05 -14.5 -6.25 -14.5 L-6.75 -14.65 Q-12.2 -6.5 -13.5 3.6 L-13.65 4.95 Q-8.1 6.4 -2.5 6.3 0.3 7.45 3.35 6.6 L7.7 5.15 Q9.05 4.65 9.95 3.85 L9.85 4.05 12.1 2.85 12.45 2.9 12.7 3.0 12.2 -0.65 12.3 -1.35 12.2 -3.05 11.8 -6.35 Q11.5 -8.2 10.5 -9.3 M6.85 -15.6 Q10.35 -13.8 11.75 -9.7 12.8 -6.6 13.0 -3.3 L13.0 -2.9 13.45 3.95 13.2 4.05 12.95 4.0 Q13.1 5.95 13.9 7.7 L14.1 8.0 14.15 8.3 14.1 8.85 14.05 8.9 Q14.25 11.9 14.95 14.8 L14.95 15.05 Q11.9 17.0 8.05 17.1 -0.55 17.3 -8.9 16.8 L-9.1 16.3 Q-10.5 17.2 -12.9 16.85 L-14.6 16.8 -14.9 16.55 Q-15.25 6.2 -12.9 -3.6 -11.4 -10.05 -7.3 -14.85 L-7.3 -14.95 -7.15 -15.2 -6.95 -15.75 -6.8 -16.05 -6.6 -16.15 -6.0 -16.3 -5.45 -16.5 -5.5 -16.45 -5.15 -16.5 Q-4.05 -16.65 -3.3 -17.05 1.95 -17.6 6.65 -15.7 L6.85 -15.6 M11.65 4.15 L9.05 5.35 8.9 5.55 Q5.4 8.15 2.1 7.3 L-9.5 6.9 -13.05 6.25 -13.45 8.45 -13.5 9.85 Q-13.05 10.6 -12.15 10.9 L-12.05 10.95 Q-6.85 11.45 -1.75 11.0 L-1.4 10.75 -1.1 10.75 -0.95 10.75 -0.65 10.85 Q5.9 10.1 12.2 7.8 L11.95 5.6 11.7 4.25 11.65 4.15 M10.95 9.65 Q11.6 12.15 11.55 14.85 12.4 14.65 13.1 14.05 12.55 11.5 13.1 9.1 L10.95 9.65 M4.55 15.55 L10.5 15.0 Q9.95 12.35 10.0 9.9 L7.9 10.5 2.5 11.85 2.45 11.85 Q1.9 11.95 1.5 12.25 L0.8 12.1 -1.85 12.4 -2.3 12.9 -3.95 13.0 -3.6 12.55 -7.3 12.55 -7.45 15.05 -7.45 15.35 -5.15 15.55 -5.1 15.55 -1.55 15.7 -1.35 15.75 3.7 15.85 4.55 15.55 M-13.85 15.15 Q-11.45 15.7 -8.75 14.75 -8.85 13.55 -8.45 12.5 L-11.4 12.25 Q-12.9 12.05 -13.95 11.1 L-13.85 15.15" fill="#000000" fill-rule="evenodd" stroke="none"/>
    <path d="M-2.5 6.3 L-0.4 6.2 -0.25 6.2 -1.6 5.15 Q-2.2 4.65 -2.2 3.8 -2.05 -1.05 3.3 -1.95 L4.4 -2.2 8.7 -1.8 9.35 -1.9 10.0 -1.35 Q11.0 0.5 10.4 2.5 L10.4 2.6 10.35 2.7 10.3 2.9 10.15 3.35 9.95 3.8 9.95 3.85 Q9.05 4.65 7.7 5.15 L3.35 6.6 Q0.3 7.45 -2.5 6.3 M12.2 -0.65 L11.95 -2.5 Q3.4 -3.55 -4.15 0.3 L-4.4 0.35 -5.05 0.3 -5.35 0.0 Q-5.15 -1.95 -5.55 -3.85 L-5.7 -5.5 -5.7 -9.9 -5.5 -10.05 -5.4 -10.15 -5.15 -10.2 -5.15 -10.25 Q2.55 -8.15 10.35 -9.2 L10.55 -9.2 10.55 -9.25 10.5 -9.3 Q11.5 -8.2 11.8 -6.35 L12.2 -3.05 12.3 -1.35 12.2 -0.65 M10.15 -8.15 Q2.55 -7.1 -4.6 -8.95 -4.75 -5.2 -4.3 -1.55 L-4.35 -1.25 Q0.2 -2.8 5.0 -3.6 L11.1 -4.3 Q11.3 -6.45 10.15 -8.15 M11.65 4.15 L11.7 4.25 11.95 5.6 12.2 7.8 Q5.9 10.1 -0.65 10.85 L-0.95 10.75 -1.1 10.75 -1.4 10.75 -1.75 11.0 Q-6.85 11.45 -12.05 10.95 L-12.15 10.9 Q-13.05 10.6 -13.5 9.85 L-13.45 8.45 -13.05 6.25 -9.5 6.9 2.1 7.3 Q5.4 8.15 8.9 5.55 L9.05 5.35 11.65 4.15 M-0.55 3.95 Q-0.5 5.65 1.2 6.1 L6.3 5.2 6.95 5.05 Q8.05 4.2 8.8 2.75 9.65 1.0 8.9 -0.7 L4.0 -1.0 Q-0.65 -0.25 -0.55 3.95 M2.5 11.85 L3.0 12.75 Q3.6 13.9 3.75 15.25 L3.65 15.5 3.6 15.6 4.55 15.55 3.7 15.85 -1.35 15.75 -1.55 15.7 -5.1 15.55 -4.9 15.55 -4.75 14.85 -4.45 13.85 -4.15 13.3 -3.95 13.0 -2.3 12.9 -3.05 13.9 -3.35 14.5 -3.35 14.6 -3.45 14.8 -3.5 15.05 2.75 15.25 Q2.55 14.1 1.95 13.05 L1.65 12.3 1.6 12.3 1.5 12.25 Q1.9 11.95 2.45 11.85 L2.5 11.85" fill="#ac7c2d" fill-rule="evenodd" stroke="none"/>
    <path d="M10.15 -8.15 Q11.3 -6.45 11.1 -4.3 L5.0 -3.6 Q0.2 -2.8 -4.35 -1.25 L-4.3 -1.55 Q-4.75 -5.2 -4.6 -8.95 2.55 -7.1 10.15 -8.15 M-0.55 3.95 Q-0.65 -0.25 4.0 -1.0 L8.9 -0.7 Q9.65 1.0 8.8 2.75 8.05 4.2 6.95 5.05 L6.3 5.2 1.2 6.1 Q-0.5 5.65 -0.55 3.95 M1.5 12.25 L1.6 12.3 1.65 12.3 1.95 13.05 Q2.55 14.1 2.75 15.25 L-3.5 15.05 -3.45 14.8 -3.35 14.6 -3.35 14.5 -3.05 13.9 -2.3 12.9 -1.85 12.4 0.8 12.1 1.5 12.25" fill="#ac8f62" fill-rule="evenodd" stroke="none"/>
  </g>
</svg>
