<?xml version="1.0" encoding="UTF-8" standalone="no"?>
<svg xmlns:xlink="http://www.w3.org/1999/xlink" height="74.65px" width="41.7px" xmlns="http://www.w3.org/2000/svg">
  <g transform="matrix(1.0, 0.0, 0.0, 1.0, 20.75, 46.05)">
    <path d="M0.3 -45.9 L0.75 -46.05 0.95 -46.05 1.2 -45.8 Q1.45 -40.6 3.3 -35.8 L3.45 -35.5 4.15 -31.7 4.2 -31.35 4.35 -31.1 4.55 -30.8 4.55 -30.5 4.55 -30.2 5.15 -29.0 5.25 -28.75 5.25 -28.4 Q8.45 -26.15 10.4 -22.75 L10.4 -22.7 Q12.25 -21.35 13.8 -19.4 L14.2 -19.8 16.25 -15.7 16.3 -15.6 18.3 -11.4 18.5 -10.55 19.6 -5.35 19.5 -5.4 19.6 -5.25 Q20.7 -3.7 20.45 -1.55 L20.45 -1.3 20.25 -0.9 20.45 0.35 19.95 0.2 20.15 0.85 20.65 2.25 20.95 6.25 19.55 8.35 19.2 8.45 16.7 8.75 Q17.35 14.3 17.25 20.1 L17.2 20.4 17.0 20.55 16.85 20.6 16.9 20.7 Q16.35 22.95 13.55 23.85 12.45 24.2 11.5 24.95 8.35 27.15 4.55 28.1 -2.45 29.8 -8.75 25.6 -9.25 25.25 -9.8 25.05 -13.95 23.5 -16.85 20.5 L-16.95 20.6 Q-17.15 20.45 -17.4 20.4 L-17.45 19.9 -17.85 19.4 -17.5 19.15 -18.15 10.5 -18.35 10.05 -18.2 9.95 -18.2 9.8 -18.2 9.55 -18.15 9.45 -19.05 8.55 -19.05 8.5 -19.75 8.25 -20.0 7.95 -20.3 7.65 -20.7 2.65 -20.75 2.25 -19.65 1.45 Q-19.2 0.4 -19.15 -0.75 L-18.95 -3.1 -18.9 -4.0 Q-18.45 -4.6 -18.25 -5.35 L-17.45 -9.5 -17.4 -9.75 -17.25 -10.3 Q-16.8 -12.75 -15.95 -14.95 L-15.4 -16.7 -14.85 -17.45 -14.8 -17.5 Q-12.05 -21.2 -8.2 -23.45 L-8.2 -23.55 Q-6.3 -26.25 -3.6 -27.95 L-3.45 -28.55 -3.4 -28.8 -3.2 -29.15 -3.05 -29.4 -0.2 -42.65 -0.15 -43.0 0.05 -43.25 0.2 -43.5 0.25 -45.6 0.3 -45.9 M1.65 -37.75 L0.75 -40.9 0.2 -38.75 0.05 -38.05 -1.05 -33.6 -1.55 -31.35 -2.35 -28.05 -2.4 -27.75 -5.9 -24.65 Q-3.5 -25.75 -0.7 -26.35 3.9 -26.2 7.6 -24.45 L4.1 -27.65 3.85 -28.85 3.8 -29.15 3.7 -29.4 3.45 -29.7 3.45 -30.0 3.45 -30.3 3.35 -30.6 3.1 -30.85 3.05 -31.15 2.3 -35.1 2.0 -36.45 1.95 -36.45 1.9 -36.7 1.95 -36.65 1.65 -37.75 M10.7 -17.05 L10.65 -17.05 10.95 -16.3 12.3 -10.9 12.35 -10.35 12.15 -10.4 12.05 -10.75 Q10.3 -17.2 7.1 -23.0 3.45 -24.75 -0.85 -24.35 L0.3 -10.25 -0.55 -10.2 Q-1.5 -17.15 -1.4 -24.3 L-2.65 -24.05 -3.6 -23.8 Q-4.95 -23.3 -6.15 -22.65 L-7.95 -20.55 Q-9.35 -18.95 -9.9 -16.7 L-10.9 -12.55 -11.35 -12.15 Q-10.6 -17.2 -8.2 -21.4 L-8.15 -21.5 -8.2 -21.45 -8.4 -21.35 -8.5 -21.3 -8.9 -21.0 Q-11.3 -19.35 -13.25 -17.1 L-13.25 -17.05 -14.75 -13.9 Q-15.95 -9.7 -16.4 -5.4 L-16.5 -5.0 -15.75 -4.95 -15.5 -4.95 -15.4 -5.1 -15.3 -5.2 -15.15 -5.2 -15.1 -5.2 -14.15 -5.0 -13.9 -5.0 -12.9 -5.0 -6.6 -5.8 -5.85 -5.85 -5.15 -5.95 11.75 -6.2 13.2 -6.25 13.3 -6.25 13.6 -6.25 14.55 -6.15 15.7 -5.85 16.4 -6.15 16.4 -6.2 16.6 -6.2 16.65 -6.35 17.35 -6.5 Q16.6 -10.05 15.45 -13.55 L12.95 -18.15 12.8 -18.35 12.55 -18.7 12.35 -18.9 9.25 -21.7 8.15 -22.4 7.7 -22.65 7.95 -22.25 9.5 -19.7 10.7 -17.05 M15.05 1.7 L14.85 -0.15 14.8 -1.15 14.75 -1.5 14.65 -4.5 14.65 -4.6 14.65 -4.8 14.3 -4.8 4.65 -4.7 4.6 -4.75 -5.35 -4.4 -5.35 -4.35 -6.1 -4.35 -8.1 -4.2 -9.0 -4.15 -12.15 -3.95 -14.1 -3.8 -15.0 -3.75 -15.05 -1.65 -14.8 0.4 -14.75 0.6 -14.95 0.7 -15.25 0.55 -15.25 0.65 -15.3 0.9 -15.4 1.15 -15.3 1.95 Q-14.1 1.65 -12.6 2.35 L13.2 1.55 14.95 1.7 15.05 1.75 15.05 1.7 M4.45 -1.05 L4.5 -1.55 5.15 -1.9 5.15 -1.95 5.85 -1.7 6.05 -1.55 Q6.35 -0.55 5.15 -0.15 L4.7 -0.3 Q4.4 -0.65 4.45 -1.05 M18.45 -4.95 L18.0 -5.1 16.55 -5.0 Q16.4 -4.8 16.0 -4.8 L15.75 -4.8 15.85 -1.15 15.85 -1.1 15.9 -1.1 15.9 -1.15 15.9 -1.2 19.15 -1.15 19.4 -1.05 19.4 -1.15 Q19.5 -3.2 18.6 -5.0 L18.45 -4.95 M12.05 -1.65 L12.1 -1.45 11.8 -1.0 11.6 -0.8 11.25 -0.7 Q10.6 -0.8 10.45 -1.35 10.35 -2.0 10.95 -2.25 L11.25 -2.35 Q11.85 -2.2 12.05 -1.65 M16.0 0.4 L16.5 6.55 16.55 6.85 Q18.65 7.8 20.05 5.4 19.9 3.0 18.65 0.65 L16.0 0.35 16.0 0.4 M-15.3 8.95 L-13.05 9.05 -5.15 9.85 10.85 8.85 Q12.3 8.65 13.5 8.05 L15.7 8.2 15.7 7.75 15.7 7.55 15.75 7.25 15.85 7.15 15.55 6.85 15.4 4.8 15.35 4.05 15.25 3.45 15.2 3.05 15.15 2.45 15.1 2.45 -5.7 3.55 -15.25 3.1 -15.2 3.8 -15.2 5.05 -15.15 5.85 -15.2 7.95 -15.2 8.05 -15.25 8.6 -15.25 8.65 -15.4 8.9 -15.35 8.9 -15.4 8.95 -15.3 8.95 M11.9 4.65 Q12.7 4.75 13.0 5.4 L13.05 5.65 12.75 6.1 12.55 6.25 12.25 6.35 Q11.2 6.1 11.4 5.0 L11.5 4.85 11.6 4.8 11.9 4.7 11.9 4.65 M15.8 16.7 L15.75 16.2 15.75 16.1 15.75 15.9 15.75 14.95 15.7 12.3 15.7 11.9 15.7 10.45 15.7 10.35 15.7 8.75 9.6 10.0 1.0 11.1 Q-7.9 11.3 -16.7 10.75 L-16.65 12.05 -16.65 12.25 -16.65 12.85 -16.6 14.1 -16.6 15.2 -16.55 15.6 -16.5 16.65 -16.5 16.7 -16.5 17.15 -16.5 17.6 -16.4 18.9 -16.4 19.35 -16.4 19.6 -14.9 20.6 -14.65 20.75 -14.55 20.8 -14.5 20.85 -14.35 20.95 -13.95 21.2 -13.45 21.5 -13.05 21.75 -12.3 22.15 -11.0 22.85 -8.15 24.2 -8.05 24.25 -7.15 24.6 -6.6 24.8 -6.55 24.8 -2.4 26.05 0.05 26.55 0.3 26.6 0.95 26.7 2.05 26.85 2.9 26.85 3.8 26.75 6.2 25.95 6.55 25.8 7.95 25.15 10.15 23.9 10.35 23.8 11.5 23.05 11.8 22.9 11.85 22.85 12.95 22.15 13.25 21.95 13.45 21.8 13.85 21.55 14.55 21.1 14.75 20.95 15.95 20.35 16.05 20.3 15.9 20.25 15.9 20.0 15.9 19.8 15.8 16.7 M6.1 6.6 Q5.1 6.95 4.7 6.05 4.55 5.4 5.15 5.15 L5.5 5.05 Q6.25 5.0 6.55 5.75 L6.6 5.95 6.35 6.4 6.1 6.6 M0.4 5.65 L0.55 5.85 0.6 6.35 0.5 6.75 0.35 6.8 0.0 6.9 -0.65 6.5 -0.65 6.05 -0.65 5.8 -0.3 5.6 0.0 5.45 0.4 5.65 M-15.85 -3.15 Q-16.9 -3.65 -18.05 -3.55 L-18.2 -2.6 Q-18.15 -1.2 -18.4 0.15 L-15.4 0.05 -15.8 -2.1 -15.85 -3.15 M-16.85 1.45 L-18.45 1.7 -18.9 2.3 -19.05 2.5 -19.45 2.9 -19.65 3.1 Q-19.25 4.5 -19.3 6.05 L-19.3 6.65 Q-18.45 7.15 -17.95 8.1 -17.4 8.7 -16.75 8.55 -16.3 5.8 -16.5 2.95 L-16.5 2.9 -16.7 2.65 -16.5 2.5 -16.5 2.35 -16.6 2.1 -16.85 1.5 -16.85 1.45 M-11.55 -1.7 Q-11.0 -1.55 -10.8 -1.05 L-10.75 -0.8 -11.05 -0.35 -11.25 -0.15 -11.55 -0.1 Q-12.2 -0.15 -12.4 -0.7 -12.5 -1.35 -11.9 -1.6 L-11.55 -1.7 M-6.35 -1.4 L-6.2 -1.2 -6.15 -0.75 -6.25 -0.3 -6.45 -0.25 -6.75 -0.15 -7.4 -0.55 -7.45 -1.05 -7.4 -1.3 -7.05 -1.5 -6.75 -1.6 -6.35 -1.4 M-1.6 -1.7 L-0.85 -1.25 -0.7 -1.05 Q-0.6 -0.45 -1.3 -0.2 L-1.6 -0.1 -2.3 -0.55 -2.4 -0.7 Q-2.5 -1.35 -1.9 -1.6 L-1.6 -1.7 M-6.35 5.45 L-6.1 6.2 -6.1 6.45 -6.45 6.8 -6.75 6.9 -7.4 6.5 Q-7.65 5.85 -7.05 5.45 L-6.75 5.3 -6.35 5.45 M-10.75 6.5 L-10.85 6.75 -11.1 7.15 -11.25 7.25 -11.55 7.3 Q-12.2 7.25 -12.4 6.7 -12.45 6.05 -11.85 5.75 L-11.55 5.65 Q-11.0 5.75 -10.85 6.25 L-10.75 6.5" fill="#000000" fill-rule="evenodd" stroke="none"/>
    <path d="M1.65 -37.75 L1.95 -36.65 1.9 -36.7 1.95 -36.45 2.0 -36.45 2.3 -35.1 3.05 -31.15 3.1 -30.85 3.35 -30.6 3.45 -30.3 3.45 -30.0 3.45 -29.7 3.7 -29.4 3.8 -29.15 3.85 -28.85 4.1 -27.65 7.6 -24.45 Q3.9 -26.2 -0.7 -26.35 -3.5 -25.75 -5.9 -24.65 L-2.4 -27.75 -2.35 -28.05 -1.55 -31.35 -1.05 -33.6 0.05 -38.05 0.2 -38.75 0.75 -40.9 1.65 -37.75 M14.95 1.7 L13.2 1.55 -12.6 2.35 Q-14.1 1.65 -15.3 1.95 L-15.4 1.15 -15.3 0.9 -15.25 0.65 -15.25 0.55 -14.95 0.7 -14.75 0.6 -14.8 0.4 -15.05 -1.65 -15.0 -3.75 -14.1 -3.8 -12.15 -3.95 -9.0 -4.15 -8.1 -4.2 -6.1 -4.35 -5.35 -4.35 -5.35 -4.4 4.6 -4.75 4.65 -4.7 14.3 -4.8 14.65 -4.8 14.65 -4.6 14.65 -4.5 14.75 -1.5 14.8 -1.15 14.85 -0.15 15.05 1.7 14.95 1.7 M15.85 -1.15 L15.75 -4.8 16.0 -4.8 Q16.4 -4.8 16.55 -5.0 L18.0 -5.1 18.45 -4.95 18.6 -5.0 Q19.5 -3.2 19.4 -1.15 L19.15 -1.15 15.9 -1.2 15.9 -1.15 15.9 -1.1 15.85 -1.15 M4.45 -1.05 Q4.4 -0.65 4.7 -0.3 L5.15 -0.15 Q6.35 -0.55 6.05 -1.55 L5.85 -1.7 5.15 -1.95 5.15 -1.9 4.5 -1.55 4.45 -1.05 M12.05 -1.65 Q11.85 -2.2 11.25 -2.35 L10.95 -2.25 Q10.35 -2.0 10.45 -1.35 10.6 -0.8 11.25 -0.7 L11.6 -0.8 11.8 -1.0 12.1 -1.45 12.05 -1.65 M16.0 0.4 L16.0 0.35 18.65 0.65 Q19.9 3.0 20.05 5.4 18.65 7.8 16.55 6.85 L16.5 6.55 16.0 0.4 M-15.25 8.65 L-15.25 8.6 -15.2 8.05 -15.2 7.95 -15.15 5.85 -15.2 5.05 -15.2 3.8 -15.25 3.1 -5.7 3.55 15.1 2.45 15.15 2.45 15.2 3.05 15.25 3.45 15.35 4.05 15.4 4.8 15.55 6.85 15.85 7.15 15.75 7.25 15.7 7.55 15.7 7.75 15.7 8.2 13.5 8.05 Q12.3 8.65 10.85 8.85 L-5.15 9.85 -13.05 9.05 -15.3 8.95 -15.25 8.65 M11.9 4.65 L11.9 4.7 11.6 4.8 11.5 4.85 11.4 5.0 Q11.2 6.1 12.25 6.35 L12.55 6.25 12.75 6.1 13.05 5.65 13.0 5.4 Q12.7 4.75 11.9 4.65 M0.4 5.65 L0.0 5.45 -0.3 5.6 -0.65 5.8 -0.65 6.05 -0.65 6.5 0.0 6.9 0.35 6.8 0.5 6.75 0.6 6.35 0.55 5.85 0.4 5.65 M6.1 6.6 L6.35 6.4 6.6 5.95 6.55 5.75 Q6.25 5.0 5.5 5.05 L5.15 5.15 Q4.55 5.4 4.7 6.05 5.1 6.95 6.1 6.6 M-1.6 -1.7 L-1.9 -1.6 Q-2.5 -1.35 -2.4 -0.7 L-2.3 -0.55 -1.6 -0.1 -1.3 -0.2 Q-0.6 -0.45 -0.7 -1.05 L-0.85 -1.25 -1.6 -1.7 M-6.35 -1.4 L-6.75 -1.6 -7.05 -1.5 -7.4 -1.3 -7.45 -1.05 -7.4 -0.55 -6.75 -0.15 -6.45 -0.25 -6.25 -0.3 -6.15 -0.75 -6.2 -1.2 -6.35 -1.4 M-11.55 -1.7 L-11.9 -1.6 Q-12.5 -1.35 -12.4 -0.7 -12.2 -0.15 -11.55 -0.1 L-11.25 -0.15 -11.05 -0.35 -10.75 -0.8 -10.8 -1.05 Q-11.0 -1.55 -11.55 -1.7 M-16.85 1.45 L-16.85 1.5 -16.6 2.1 -16.5 2.35 -16.5 2.5 -16.7 2.65 -16.5 2.9 -16.5 2.95 Q-16.3 5.8 -16.75 8.55 -17.4 8.7 -17.95 8.1 -18.45 7.15 -19.3 6.65 L-19.3 6.05 Q-19.25 4.5 -19.65 3.1 L-19.45 2.9 -19.05 2.5 -18.9 2.3 -18.45 1.7 -16.85 1.45 M-15.85 -3.15 L-15.8 -2.1 -15.4 0.05 -18.4 0.15 Q-18.15 -1.2 -18.2 -2.6 L-18.05 -3.55 Q-16.9 -3.65 -15.85 -3.15 M-6.35 5.45 L-6.75 5.3 -7.05 5.45 Q-7.65 5.85 -7.4 6.5 L-6.75 6.9 -6.45 6.8 -6.1 6.45 -6.1 6.2 -6.35 5.45 M-10.75 6.5 L-10.85 6.25 Q-11.0 5.75 -11.55 5.65 L-11.85 5.75 Q-12.45 6.05 -12.4 6.7 -12.2 7.25 -11.55 7.3 L-11.25 7.25 -11.1 7.15 -10.85 6.75 -10.75 6.5" fill="#ac7c2d" fill-rule="evenodd" stroke="none"/>
    <path d="M-8.2 -21.4 Q-10.6 -17.2 -11.35 -12.15 L-10.9 -12.55 -9.9 -16.7 Q-9.35 -18.95 -7.95 -20.55 L-6.15 -22.65 Q-4.95 -23.3 -3.6 -23.8 L-2.65 -24.05 -1.4 -24.3 Q-1.5 -17.15 -0.55 -10.2 L0.3 -10.25 -0.85 -24.35 Q3.45 -24.75 7.1 -23.0 10.3 -17.2 12.05 -10.75 L12.15 -10.4 12.35 -10.35 12.3 -10.9 10.95 -16.3 10.65 -17.05 10.7 -17.05 12.6 -12.9 14.55 -6.15 13.6 -6.25 13.3 -6.25 13.2 -6.25 11.75 -6.2 -5.15 -5.95 -5.85 -5.85 -6.6 -5.8 -12.9 -5.0 -13.9 -5.0 Q-13.2 -9.15 -12.1 -13.25 -11.0 -17.4 -8.9 -21.0 L-8.5 -21.3 -8.4 -21.35 -8.2 -21.45 -8.2 -21.4 M9.5 -19.7 L7.95 -22.25 8.15 -22.4 9.5 -19.7" fill="#ac8f62" fill-rule="evenodd" stroke="none"/>
    <path d="M10.7 -17.05 L9.5 -19.7 8.15 -22.4 9.25 -21.7 12.35 -18.9 12.55 -18.7 12.8 -18.35 12.95 -18.15 15.45 -13.55 Q16.6 -10.05 17.35 -6.5 L16.65 -6.35 16.6 -6.2 16.4 -6.2 16.4 -6.15 15.7 -5.85 14.55 -6.15 12.6 -12.9 10.7 -17.05 M-13.9 -5.0 L-14.15 -5.0 -15.1 -5.2 -15.15 -5.2 -15.3 -5.2 -15.4 -5.1 -15.5 -4.95 -15.75 -4.95 -16.5 -5.0 -16.4 -5.4 Q-15.95 -9.7 -14.75 -13.9 L-13.25 -17.05 -13.25 -17.1 Q-11.3 -19.35 -8.9 -21.0 -11.0 -17.4 -12.1 -13.25 -13.2 -9.15 -13.9 -5.0" fill="#c4b091" fill-rule="evenodd" stroke="none"/>
    <path d="M12.0 13.35 L12.9 13.2 13.05 13.05 13.3 12.8 15.05 12.8 15.45 13.25 15.45 13.5 15.45 14.25 15.3 14.5 14.95 15.2 14.4 15.7 12.0 15.7 11.8 15.55 Q11.1 15.05 11.2 14.55 L11.4 14.3 12.0 13.35 M10.2 13.65 L10.15 13.7 9.4 13.2 9.25 13.2 10.95 12.8 10.2 13.65 M15.8 16.7 L15.9 19.8 15.9 20.0 Q14.95 20.25 14.4 19.7 L14.3 19.45 13.45 20.4 14.55 21.1 13.85 21.55 13.45 21.8 13.8 21.55 12.55 21.1 14.5 19.15 14.45 18.65 14.4 18.2 14.35 18.1 14.95 17.05 Q15.35 16.8 15.8 16.7 M11.85 22.85 L11.8 22.9 11.6 22.4 11.75 22.8 11.85 22.85 M6.55 25.8 L6.2 25.95 3.8 26.75 2.9 26.85 2.05 26.85 0.95 26.7 1.15 26.55 1.45 26.3 6.4 25.85 6.55 25.8 M0.3 26.6 L0.05 26.55 0.3 26.5 0.25 26.55 0.3 26.6 M-6.6 24.8 L-7.15 24.6 -7.0 24.35 -7.0 24.45 -6.85 24.7 -6.6 24.8 M-8.15 24.2 L-11.0 22.85 -8.05 23.5 -8.15 23.95 -8.15 24.2 M-12.3 22.15 L-13.05 21.75 -11.75 21.45 -10.6 20.9 -10.55 21.3 Q-8.85 22.7 -6.65 22.8 L-6.9 23.2 -6.9 22.9 -6.85 22.8 Q-8.7 22.65 -10.15 21.65 L-11.25 21.7 -11.55 21.8 -12.3 22.15 M-14.65 20.75 L-14.9 20.6 -16.4 19.6 -16.4 19.35 -16.4 18.9 -16.5 17.6 -16.5 17.15 Q-13.3 17.6 -10.95 19.3 -12.35 20.7 -14.45 20.5 L-14.55 20.6 -14.65 20.75 M-16.6 15.2 L-16.6 14.1 -16.6 14.15 -16.3 14.9 -16.5 15.1 -16.6 15.2 M0.65 23.35 L0.85 23.55 1.45 24.1 1.7 24.55 -5.2 24.75 -5.6 24.3 -5.75 24.05 -5.8 23.55 -5.6 23.4 -3.35 22.7 Q-1.3 22.5 0.65 23.35 M2.65 22.85 L2.65 22.9 2.5 23.15 2.45 23.25 1.95 22.9 1.9 22.85 2.65 22.85 M3.7 23.4 Q3.75 23.0 3.95 22.7 L5.15 22.45 5.25 22.35 5.4 22.2 5.5 22.15 5.6 22.15 5.9 22.35 Q7.85 22.0 9.8 22.35 L10.3 23.0 Q7.45 25.75 3.65 23.65 L3.7 23.4 M1.45 18.5 L1.55 18.45 2.9 18.6 5.1 20.25 Q2.25 22.75 -0.3 20.45 L-0.3 20.2 -0.3 19.95 -0.3 19.7 -0.05 19.5 Q0.65 18.85 1.45 18.5 M1.0 14.65 L1.15 14.8 1.2 15.05 1.2 15.5 1.2 16.25 1.2 16.5 1.0 16.75 0.9 16.95 0.75 17.2 0.0 17.35 Q-3.55 18.1 -5.8 15.7 L-5.6 15.2 -5.45 14.95 -5.4 14.7 -4.2 14.45 -0.95 13.9 -0.8 13.95 1.0 14.65 M6.65 18.4 L6.2 18.9 6.1 18.6 5.9 18.4 6.65 18.4 M7.4 20.2 L7.2 19.95 7.0 19.7 7.2 19.5 Q8.85 18.4 10.65 17.45 L12.1 17.7 Q12.95 18.05 13.1 18.9 10.85 21.55 7.4 20.2 M7.35 13.75 Q8.15 13.6 8.85 14.2 L9.65 14.95 9.65 15.45 9.65 15.7 9.55 15.9 9.4 16.15 8.5 16.5 3.3 16.75 3.1 16.55 2.9 16.3 2.85 16.1 3.25 15.35 3.4 15.1 3.65 14.65 4.2 14.5 7.35 13.75 M2.5 14.15 L2.3 13.9 2.2 13.7 3.0 13.7 2.6 14.2 2.55 14.35 2.5 14.15 M2.7 24.75 L2.9 24.85 2.7 24.75 M6.5 20.7 L6.35 20.7 6.35 20.6 6.5 20.7 M11.35 21.7 L11.35 22.1 11.15 21.85 11.05 21.75 11.4 21.65 11.35 21.7 M-5.8 13.35 L-6.05 13.6 -6.45 14.0 -6.75 13.85 Q-7.3 13.5 -7.8 13.25 L-5.8 13.35 M-2.2 21.45 L-1.45 20.65 -1.0 21.65 -2.2 21.45 M-6.55 17.1 L-6.45 17.0 -6.25 17.15 -6.55 17.1 M-4.9 18.75 Q-3.4 19.15 -2.95 20.2 -6.25 21.95 -9.3 20.5 L-9.3 19.3 -9.15 18.8 -8.6 18.6 -7.7 18.4 -5.2 18.6 -4.9 18.75 M-15.9 16.2 L-15.7 16.0 -15.5 16.25 -15.9 16.2 M-14.85 15.1 L-14.8 14.9 Q-14.05 13.65 -12.55 13.5 -10.45 13.2 -8.9 14.65 L-7.7 14.8 Q-7.25 15.05 -7.15 15.5 -10.5 17.75 -14.3 15.85 L-14.55 15.6 -14.75 15.35 -14.85 15.1 M-15.85 12.8 L-16.3 12.5 -16.5 12.45 -16.0 12.5 -14.0 12.7 -15.25 13.45 -15.45 13.6 -15.6 13.05 -15.85 12.8" fill="#828282" fill-rule="evenodd" stroke="none"/>
    <path d="M10.2 13.65 L10.95 12.8 9.25 13.2 9.4 13.2 10.15 13.7 10.2 13.65 M12.0 13.35 L11.4 14.3 11.2 14.55 Q11.1 15.05 11.8 15.55 L12.0 15.7 14.4 15.7 14.95 15.2 15.3 14.5 15.45 14.25 15.45 13.5 15.45 13.25 15.05 12.8 13.3 12.8 13.05 13.05 12.9 13.2 12.0 13.35 M-16.6 14.1 L-16.65 12.85 -16.65 12.25 -16.65 12.05 -16.7 10.75 Q-7.9 11.3 1.0 11.1 L9.6 10.0 15.7 8.75 15.7 10.35 15.7 10.45 15.7 11.9 15.7 12.3 15.75 14.95 15.75 15.9 15.75 16.1 15.75 16.2 15.8 16.7 Q15.35 16.8 14.95 17.05 L14.35 18.1 14.4 18.2 14.45 18.65 14.5 19.15 12.55 21.1 13.8 21.55 13.45 21.8 13.25 21.95 12.95 22.15 11.85 22.85 11.75 22.8 11.6 22.4 11.8 22.9 11.5 23.05 10.35 23.8 10.15 23.9 7.95 25.15 6.55 25.8 6.4 25.85 1.45 26.3 1.15 26.55 0.95 26.7 0.3 26.6 0.25 26.55 0.3 26.5 0.05 26.55 -2.4 26.05 -6.55 24.8 -6.6 24.8 -6.85 24.7 -7.0 24.45 -7.0 24.35 -7.15 24.6 -8.05 24.25 -8.15 24.2 -8.15 23.95 -8.05 23.5 -11.0 22.85 -12.3 22.15 -11.55 21.8 -11.25 21.7 -10.15 21.65 Q-8.7 22.65 -6.85 22.8 L-6.9 22.9 -6.9 23.2 -6.65 22.8 Q-8.85 22.7 -10.55 21.3 L-10.6 20.9 -11.75 21.45 -13.05 21.75 -13.45 21.5 -13.95 21.2 -14.35 20.95 -14.5 20.85 -14.55 20.8 -14.65 20.75 -14.55 20.6 -14.45 20.5 Q-12.35 20.7 -10.95 19.3 -13.3 17.6 -16.5 17.15 L-16.5 16.7 -16.5 16.65 -16.55 15.6 -16.6 15.2 -16.5 15.1 -16.3 14.9 -16.6 14.15 -16.6 14.1 M15.9 20.0 L15.9 20.25 16.05 20.3 15.95 20.35 14.75 20.95 14.55 21.1 13.45 20.4 14.3 19.45 14.4 19.7 Q14.95 20.25 15.9 20.0 M2.5 14.15 L2.55 14.35 2.6 14.2 3.0 13.7 2.2 13.7 2.3 13.9 2.5 14.15 M7.35 13.75 L4.2 14.5 3.65 14.65 3.4 15.1 3.25 15.35 2.85 16.1 2.9 16.3 3.1 16.55 3.3 16.75 8.5 16.5 9.4 16.15 9.55 15.9 9.65 15.7 9.65 15.45 9.65 14.95 8.85 14.2 Q8.15 13.6 7.35 13.75 M7.4 20.2 Q10.85 21.55 13.1 18.9 12.95 18.05 12.1 17.7 L10.65 17.45 Q8.85 18.4 7.2 19.5 L7.0 19.7 7.2 19.95 7.4 20.2 M6.65 18.4 L5.9 18.4 6.1 18.6 6.2 18.9 6.65 18.4 M1.0 14.65 L-0.8 13.95 -0.95 13.9 -4.2 14.45 -5.4 14.7 -5.45 14.95 -5.6 15.2 -5.8 15.7 Q-3.55 18.1 0.0 17.35 L0.75 17.2 0.9 16.95 1.0 16.75 1.2 16.5 1.2 16.25 1.2 15.5 1.2 15.05 1.15 14.8 1.0 14.65 M1.45 18.5 Q0.65 18.85 -0.05 19.5 L-0.3 19.7 -0.3 19.95 -0.3 20.2 -0.3 20.45 Q2.25 22.75 5.1 20.25 L2.9 18.6 1.55 18.45 1.45 18.5 M3.7 23.4 L3.65 23.65 Q7.45 25.75 10.3 23.0 L9.8 22.35 Q7.85 22.0 5.9 22.35 L5.6 22.15 5.5 22.15 5.4 22.2 5.25 22.35 5.15 22.45 3.95 22.7 Q3.75 23.0 3.7 23.4 M2.65 22.85 L1.9 22.85 1.95 22.9 2.45 23.25 2.5 23.15 2.65 22.9 2.65 22.85 M0.65 23.35 Q-1.3 22.5 -3.35 22.7 L-5.6 23.4 -5.8 23.55 -5.75 24.05 -5.6 24.3 -5.2 24.75 1.7 24.55 1.45 24.1 0.85 23.55 0.65 23.35 M2.7 24.75 L2.9 24.85 2.7 24.75 M6.5 20.7 L6.35 20.6 6.35 20.7 6.5 20.7 M11.35 21.7 L11.4 21.65 11.05 21.75 11.15 21.85 11.35 22.1 11.35 21.7 M-5.8 13.35 L-7.8 13.25 Q-7.3 13.5 -6.75 13.85 L-6.45 14.0 -6.05 13.6 -5.8 13.35 M-15.85 12.8 L-15.6 13.05 -15.45 13.6 -15.25 13.45 -14.0 12.7 -16.0 12.5 -16.5 12.45 -16.3 12.5 -15.85 12.8 M-14.85 15.1 L-14.75 15.35 -14.55 15.6 -14.3 15.85 Q-10.5 17.75 -7.15 15.5 -7.25 15.05 -7.7 14.8 L-8.9 14.65 Q-10.45 13.2 -12.55 13.5 -14.05 13.65 -14.8 14.9 L-14.85 15.1 M-15.9 16.2 L-15.5 16.25 -15.7 16.0 -15.9 16.2 M-4.9 18.75 L-5.2 18.6 -7.7 18.4 -8.6 18.6 -9.15 18.8 -9.3 19.3 -9.3 20.5 Q-6.25 21.95 -2.95 20.2 -3.4 19.15 -4.9 18.75 M-6.55 17.1 L-6.25 17.15 -6.45 17.0 -6.55 17.1 M-2.2 21.45 L-1.0 21.65 -1.45 20.65 -2.2 21.45" fill="#666666" fill-rule="evenodd" stroke="none"/>
  </g>
</svg>
