<?xml version="1.0" encoding="UTF-8" standalone="no"?>
<svg xmlns:xlink="http://www.w3.org/1999/xlink" height="58.55px" width="42.25px" xmlns="http://www.w3.org/2000/svg">
  <g transform="matrix(1.0, 0.0, 0.0, 1.0, 21.4, 50.7)">
    <path d="M14.1 -50.65 L14.55 -50.7 14.8 -50.4 14.75 -48.8 14.75 -48.55 14.55 -48.25 14.45 -48.1 Q14.2 -40.8 13.5 -33.5 L14.15 -33.05 Q16.1 -32.4 17.2 -30.75 L17.35 -30.5 17.35 -30.25 17.25 -30.05 Q20.35 -26.2 20.8 -20.6 21.05 -17.1 20.35 -13.7 L20.55 -13.5 Q20.45 -6.9 17.5 -0.85 L17.35 -0.55 17.25 -0.5 17.25 -0.1 17.15 0.95 16.95 1.25 16.7 1.5 16.5 1.7 15.95 1.8 Q15.85 3.55 14.2 4.75 14.1 5.3 14.5 5.85 L14.65 6.1 Q13.1 8.35 10.25 6.7 L9.4 6.05 9.25 6.2 9.05 6.25 Q7.55 7.55 5.4 7.75 -0.65 8.25 -6.3 6.65 -8.4 6.65 -10.0 5.55 L-10.7 6.2 -10.8 6.25 Q-13.8 6.4 -16.05 3.95 L-17.6 2.15 -18.0 1.6 -18.0 0.8 -18.0 0.5 -17.9 0.4 Q-22.05 -0.45 -21.3 -5.25 L-20.4 -8.6 -19.85 -12.95 -19.95 -13.3 -20.05 -13.85 -19.95 -13.9 -20.05 -14.05 Q-19.45 -18.75 -17.3 -23.05 L-15.5 -26.45 Q-14.45 -28.4 -12.75 -29.8 L-12.5 -29.8 -12.5 -29.85 -12.1 -29.8 Q-9.15 -33.25 -4.15 -34.55 L-0.1 -35.7 1.8 -36.25 3.45 -36.1 3.9 -36.7 6.35 -40.15 Q9.85 -45.7 14.0 -50.6 L14.1 -50.65 M11.25 -26.4 Q11.65 -32.55 12.45 -38.65 L12.8 -42.7 13.5 -48.55 Q9.05 -42.45 4.95 -36.2 L4.5 -35.55 4.5 -35.5 4.45 -35.5 1.6 -31.1 1.6 -30.85 1.6 -30.55 0.55 -28.7 0.1 -28.7 -0.2 -28.95 Q0.45 -31.0 1.45 -32.9 -1.85 -31.75 -2.55 -28.5 L-2.5 -28.4 -2.6 -28.35 -2.7 -27.6 -2.5 -27.35 -2.35 -27.05 -2.35 -26.8 -2.35 -26.5 -0.45 -24.65 0.45 -23.85 Q4.95 -22.25 9.8 -22.95 L11.0 -23.95 11.3 -24.2 11.4 -25.65 11.15 -25.45 11.05 -25.6 11.2 -25.9 11.2 -26.0 11.25 -26.4 M2.85 -35.2 Q-5.55 -33.6 -11.9 -27.8 L-13.05 -26.4 -13.6 -25.6 -13.5 -25.35 -14.4 -22.5 -14.3 -22.4 Q-10.55 -26.5 -4.95 -28.4 L-3.6 -28.85 Q-3.25 -30.75 -1.35 -32.15 L0.7 -33.55 1.7 -33.3 2.85 -35.2 M13.55 -32.2 L13.4 -32.3 13.4 -32.25 13.0 -28.95 12.95 -28.25 13.0 -28.25 13.2 -27.7 13.3 -26.9 13.45 -26.6 13.65 -26.35 13.4 -24.6 17.65 -20.8 17.95 -20.5 18.45 -19.15 18.75 -18.1 18.65 -17.85 18.3 -17.65 17.85 -17.8 Q16.4 -21.55 13.15 -24.05 L13.1 -24.0 13.0 -23.75 Q12.55 -23.0 11.8 -22.4 L11.75 -22.2 11.55 -22.2 Q10.85 -21.75 10.0 -21.45 L8.05 -20.95 Q8.45 -12.35 7.45 -3.7 L7.35 -3.15 6.55 -2.8 6.3 -3.1 Q7.3 -11.9 7.35 -20.9 L4.25 -21.3 2.05 -21.95 Q1.15 -22.25 0.35 -22.65 -7.45 -16.3 -10.7 -6.95 L-11.15 -5.35 -10.15 -4.15 -9.9 -4.1 -9.65 -4.85 -9.35 -5.4 -9.0 -5.55 -9.0 -5.6 Q-0.25 -2.7 8.95 -1.7 11.85 -1.35 14.55 -1.8 L15.8 -2.1 16.15 -2.2 16.4 -2.1 Q18.05 -5.9 19.0 -10.0 L19.05 -10.1 18.75 -10.1 Q20.45 -19.25 16.75 -28.05 15.7 -30.5 13.55 -32.2 M15.45 -1.2 Q4.4 -0.45 -6.25 -4.3 L-8.7 -4.4 -8.95 -3.65 -9.1 -3.35 Q-5.65 -1.35 -1.15 -0.15 7.2 2.05 15.8 0.15 L15.8 -0.4 15.8 -0.65 15.45 -1.2 M10.55 2.5 L10.65 2.35 10.4 2.35 8.55 2.4 Q1.05 2.3 -5.95 -0.5 L-7.35 -1.05 -9.0 -1.85 -9.65 -0.9 -9.6 -0.75 -10.15 -0.2 -10.8 0.9 -10.95 1.15 -10.8 1.65 -9.85 3.85 -9.85 3.9 -9.8 3.95 -9.8 4.05 -9.75 4.25 -8.75 4.65 -7.9 4.95 -5.6 5.55 -4.95 5.7 -4.3 5.8 -1.5 6.15 2.35 6.4 6.85 6.4 7.0 6.15 Q7.5 5.4 8.35 5.0 L8.75 4.8 Q8.9 3.95 9.9 3.65 10.15 3.0 10.55 2.5 M12.65 5.65 L12.65 4.85 12.65 4.55 14.75 2.0 12.15 2.25 10.3 4.75 Q10.4 5.4 11.3 5.75 L12.65 5.65 M-15.25 -14.75 L-15.25 -14.7 Q-14.55 -10.1 -11.75 -6.15 -9.7 -14.4 -3.25 -20.35 L-0.3 -23.0 Q-2.15 -24.15 -3.4 -26.1 L-3.7 -28.0 -5.5 -27.25 Q-10.35 -25.15 -14.35 -21.45 L-14.7 -21.2 -15.35 -17.0 -15.45 -16.75 -15.45 -16.6 -15.3 -15.2 -15.25 -14.75 M-17.95 -18.95 L-18.0 -18.65 Q-18.6 -16.75 -18.7 -14.75 L-18.8 -14.7 -18.75 -12.9 Q-18.2 -9.65 -16.1 -7.1 L-16.05 -7.1 Q-15.15 -5.45 -13.9 -3.95 L-13.9 -3.85 -13.7 -3.7 -12.9 -3.05 -11.1 -1.7 -10.7 -1.45 Q-10.35 -1.65 -10.15 -2.1 L-10.0 -2.45 -10.25 -2.7 -10.2 -3.1 -10.7 -3.25 -11.0 -3.65 -10.95 -3.75 Q-11.35 -4.55 -12.1 -5.15 -14.3 -8.15 -16.1 -11.35 L-16.1 -11.6 -16.1 -11.9 -16.25 -12.15 -16.45 -12.4 -16.65 -16.2 Q-17.05 -18.5 -16.65 -20.85 L-17.95 -18.95 M-15.9 -22.45 L-16.05 -22.0 -16.1 -21.5 -15.9 -22.45 M-18.9 -9.15 L-19.1 -8.75 -19.3 -7.7 -19.4 -7.55 -19.55 -7.45 Q-20.45 -4.25 -19.2 -1.05 L-18.95 -0.75 Q-16.0 -0.7 -15.1 -3.6 L-17.2 -7.05 -17.25 -7.05 -17.6 -6.95 -18.05 -7.1 -18.65 -8.6 -18.75 -8.6 -18.9 -9.1 -18.9 -9.15 M-17.15 -5.5 Q-17.05 -4.8 -16.5 -4.35 L-16.35 -4.15 Q-16.3 -3.6 -16.7 -3.05 L-16.8 -2.8 -17.25 -2.65 Q-17.85 -2.8 -18.25 -3.35 L-18.3 -4.7 -18.25 -5.25 -17.65 -5.6 -17.6 -5.7 -17.15 -5.5 M-16.35 0.15 L-16.45 0.7 -16.55 0.95 Q-14.95 3.2 -12.5 4.9 L-11.25 4.9 -11.15 4.85 -11.35 4.55 -11.1 4.35 -10.95 4.25 -11.4 3.85 Q-11.4 2.65 -12.35 1.9 L-12.4 1.7 -11.2 -0.3 -14.25 -2.35 Q-14.85 -0.9 -16.4 0.05 L-16.45 0.1 -16.35 0.15" fill="#000000" fill-rule="evenodd" stroke="none"/>
    <path d="M4.95 -36.2 Q9.05 -42.45 13.5 -48.55 L12.8 -42.7 12.45 -38.65 Q11.65 -32.55 11.25 -26.4 6.7 -30.55 4.95 -36.2" fill="#cb9438" fill-rule="evenodd" stroke="none"/>
    <path d="M10.4 2.35 L10.55 2.5 Q10.15 3.0 9.9 3.65 8.9 3.95 8.75 4.8 L8.35 5.0 8.2 5.0 7.75 4.9 7.2 4.9 6.55 4.75 6.2 4.2 5.9 3.65 Q6.6 2.75 7.9 2.4 L8.55 2.4 10.4 2.35 M7.0 6.15 L6.85 6.4 2.35 6.4 Q3.5 5.6 4.95 5.3 6.2 5.45 7.0 6.15 M-1.5 6.15 L-4.3 5.8 -4.95 5.7 -5.6 5.55 -5.95 5.15 -5.95 5.0 -5.95 4.5 -5.95 4.35 -5.65 4.05 Q-5.3 3.85 -4.95 3.75 -2.55 3.7 -1.25 5.45 -1.0 5.8 -1.4 6.05 L-1.5 6.15 M-7.9 4.95 L-8.75 4.65 -9.55 4.35 -9.8 4.05 -9.8 3.95 -9.85 3.9 -9.85 3.85 -10.8 1.65 -9.45 2.15 Q-8.4 2.05 -8.2 3.05 L-8.15 3.2 Q-7.15 4.3 -7.9 4.95 M-7.35 -1.05 L-5.95 -0.5 -4.55 0.05 -4.25 0.45 -4.05 0.7 -4.0 0.95 -4.0 1.5 -4.05 1.8 Q-6.2 3.4 -8.25 1.4 -8.15 0.8 -8.4 0.3 -8.65 -0.25 -8.25 -0.75 L-7.35 -1.05 M3.95 3.1 L3.75 3.65 3.5 4.1 Q-0.15 4.95 -2.25 2.3 L-2.1 1.8 -2.0 1.5 -1.45 1.4 -1.45 1.35 Q1.5 1.5 3.8 2.95 L3.95 3.1" fill="#828282" fill-rule="evenodd" stroke="none"/>
    <path d="M4.95 -36.2 Q6.7 -30.55 11.25 -26.4 L11.2 -26.0 11.2 -25.9 11.05 -25.6 11.15 -25.45 11.4 -25.65 11.3 -24.2 11.0 -23.95 9.8 -22.95 Q4.95 -22.25 0.45 -23.85 L-0.45 -24.65 -2.35 -26.5 -2.35 -26.8 -2.35 -27.05 -2.5 -27.35 -2.7 -27.6 -2.6 -28.35 -2.5 -28.4 -2.55 -28.5 Q-1.85 -31.75 1.45 -32.9 0.45 -31.0 -0.2 -28.95 L0.1 -28.7 0.55 -28.7 1.6 -30.55 1.6 -30.85 1.6 -31.1 4.45 -35.5 4.5 -35.5 4.5 -35.55 4.95 -36.2 M15.45 -1.2 L15.8 -0.65 15.8 -0.4 15.8 0.15 Q7.2 2.05 -1.15 -0.15 -5.65 -1.35 -9.1 -3.35 L-8.95 -3.65 -8.7 -4.4 -6.25 -4.3 Q4.4 -0.45 15.45 -1.2 M12.65 5.65 L11.3 5.75 Q10.4 5.4 10.3 4.75 L12.15 2.25 14.75 2.0 12.65 4.55 12.65 4.85 12.65 5.65 M-15.9 -22.45 L-16.1 -21.5 -16.05 -22.0 -15.9 -22.45 M-17.95 -18.95 L-16.65 -20.85 Q-17.05 -18.5 -16.65 -16.2 L-16.45 -12.4 -16.25 -12.15 -16.1 -11.9 -16.1 -11.6 -16.1 -11.35 Q-14.3 -8.15 -12.1 -5.15 -11.35 -4.55 -10.95 -3.75 L-11.0 -3.65 -10.7 -3.25 -10.2 -3.1 -10.25 -2.7 -10.0 -2.45 -10.15 -2.1 Q-10.35 -1.65 -10.7 -1.45 L-11.1 -1.7 -12.9 -3.05 -13.7 -3.7 -13.9 -3.85 -13.9 -3.95 Q-15.15 -5.45 -16.05 -7.1 L-16.1 -7.1 Q-18.2 -9.65 -18.75 -12.9 L-18.8 -14.7 -18.7 -14.75 Q-18.6 -16.75 -18.0 -18.65 L-17.95 -18.95 M-16.4 0.05 Q-14.85 -0.9 -14.25 -2.35 L-11.2 -0.3 -12.4 1.7 -12.35 1.9 Q-11.4 2.65 -11.4 3.85 L-10.95 4.25 -11.1 4.35 -11.35 4.55 -11.15 4.85 -11.25 4.9 -12.5 4.9 Q-14.95 3.2 -16.55 0.95 L-16.45 0.7 -16.35 0.15 -16.4 0.05 M-17.15 -5.5 L-17.6 -5.7 -17.65 -5.6 -18.25 -5.25 -18.3 -4.7 -18.25 -3.35 Q-17.85 -2.8 -17.25 -2.65 L-16.8 -2.8 -16.7 -3.05 Q-16.3 -3.6 -16.35 -4.15 L-16.5 -4.35 Q-17.05 -4.8 -17.15 -5.5 M-18.9 -9.15 L-18.9 -9.1 -18.75 -8.6 -18.65 -8.6 -18.05 -7.1 -17.6 -6.95 -17.25 -7.05 -17.2 -7.05 -15.1 -3.6 Q-16.0 -0.7 -18.95 -0.75 L-19.2 -1.05 Q-20.45 -4.25 -19.55 -7.45 L-19.4 -7.55 -19.3 -7.7 -19.1 -8.75 -18.9 -9.15" fill="#ac7c2d" fill-rule="evenodd" stroke="none"/>
    <path d="M2.85 -35.2 L1.7 -33.3 0.7 -33.55 -1.35 -32.15 Q-3.25 -30.75 -3.6 -28.85 L-4.95 -28.4 Q-10.55 -26.5 -14.3 -22.4 L-14.4 -22.5 -13.5 -25.35 -13.6 -25.6 -13.05 -26.4 -11.9 -27.8 Q-5.55 -33.6 2.85 -35.2 M13.4 -32.25 L13.55 -32.2 Q15.7 -30.5 16.75 -28.05 20.45 -19.25 18.75 -10.1 L19.0 -10.0 Q18.05 -5.9 16.4 -2.1 L16.15 -2.2 15.8 -2.1 14.55 -1.8 Q15.8 -10.55 14.25 -19.3 L13.0 -23.75 13.1 -24.0 13.15 -24.05 Q16.4 -21.55 17.85 -17.8 L18.3 -17.65 18.65 -17.85 18.75 -18.1 18.45 -19.15 17.95 -20.5 17.65 -20.8 13.4 -24.6 13.65 -26.35 13.45 -26.6 13.3 -26.9 13.2 -27.7 13.0 -28.25 12.95 -28.25 13.0 -28.95 13.4 -32.25 M-5.5 -27.25 Q-10.2 -22.5 -13.95 -17.3 L-15.15 -15.0 -15.25 -14.75 -15.3 -15.2 -15.45 -16.6 -15.45 -16.75 -15.35 -17.0 -14.7 -21.2 -14.35 -21.45 Q-10.35 -25.15 -5.5 -27.25" fill="#c4b091" fill-rule="evenodd" stroke="none"/>
    <path d="M13.0 -23.75 L14.25 -19.3 Q15.8 -10.55 14.55 -1.8 11.85 -1.35 8.95 -1.7 -0.25 -2.7 -9.0 -5.6 L-9.0 -5.55 -9.35 -5.4 -9.65 -4.85 -9.9 -4.1 -10.15 -4.15 -11.15 -5.35 -10.7 -6.95 Q-7.45 -16.3 0.35 -22.65 1.15 -22.25 2.05 -21.95 L4.25 -21.3 7.35 -20.9 Q7.3 -11.9 6.3 -3.1 L6.55 -2.8 7.35 -3.15 7.45 -3.7 Q8.45 -12.35 8.05 -20.95 L10.0 -21.45 Q10.85 -21.75 11.55 -22.2 L11.75 -22.2 11.8 -22.4 Q12.55 -23.0 13.0 -23.75 M-5.5 -27.25 L-3.7 -28.0 -3.4 -26.1 Q-2.15 -24.15 -0.3 -23.0 L-3.25 -20.35 Q-9.7 -14.4 -11.75 -6.15 -14.55 -10.1 -15.25 -14.7 L-15.25 -14.75 -15.15 -15.0 -13.95 -17.3 Q-10.2 -22.5 -5.5 -27.25" fill="#ac8f62" fill-rule="evenodd" stroke="none"/>
    <path d="M10.55 2.5 L10.4 2.35 10.65 2.35 10.55 2.5 M8.55 2.4 L7.9 2.4 Q6.6 2.75 5.9 3.65 L6.2 4.2 6.55 4.75 7.2 4.9 7.75 4.9 8.2 5.0 8.35 5.0 Q7.5 5.4 7.0 6.15 6.2 5.45 4.95 5.3 3.5 5.6 2.35 6.4 L-1.5 6.15 -1.4 6.05 Q-1.0 5.8 -1.25 5.45 -2.55 3.7 -4.95 3.75 -5.3 3.85 -5.65 4.05 L-5.95 4.35 -5.95 4.5 -5.95 5.0 -5.95 5.15 -5.6 5.55 -7.9 4.95 Q-7.15 4.3 -8.15 3.2 L-8.2 3.05 Q-8.4 2.05 -9.45 2.15 L-10.8 1.65 -10.95 1.15 -10.8 0.9 -10.15 -0.2 -9.6 -0.75 -9.65 -0.9 -9.0 -1.85 -7.35 -1.05 -8.25 -0.75 Q-8.65 -0.25 -8.4 0.3 -8.15 0.8 -8.25 1.4 -6.2 3.4 -4.05 1.8 L-4.0 1.5 -4.0 0.95 -4.05 0.7 -4.25 0.45 -4.55 0.05 -5.95 -0.5 Q1.05 2.3 8.55 2.4 M-8.75 4.65 L-9.75 4.25 -9.8 4.05 -9.55 4.35 -8.75 4.65 M3.95 3.1 L3.8 2.95 Q1.5 1.5 -1.45 1.35 L-1.45 1.4 -2.0 1.5 -2.1 1.8 -2.25 2.3 Q-0.15 4.95 3.5 4.1 L3.75 3.65 3.95 3.1" fill="#666666" fill-rule="evenodd" stroke="none"/>
  </g>
</svg>
