<?xml version="1.0" encoding="UTF-8" standalone="no"?>
<svg xmlns:xlink="http://www.w3.org/1999/xlink" height="73.7px" width="43.2px" xmlns="http://www.w3.org/2000/svg">
  <g transform="matrix(1.0, 0.0, 0.0, 1.0, 18.7, 46.25)">
    <path d="M-2.9 -31.85 L-5.2 -24.5 -4.8 -23.95 -1.95 -24.4 2.15 -24.6 4.8 -24.5 3.35 -26.3 3.5 -26.85 2.95 -29.0 2.8 -29.3 Q1.2 -33.05 0.55 -37.2 0.0 -40.65 -0.9 -43.9 -1.3 -37.75 -2.9 -31.85 M4.0 -28.3 Q4.75 -26.85 5.8 -25.65 7.0 -24.15 8.5 -22.95 L11.2 -20.8 Q13.85 -18.6 15.7 -15.7 L16.9 -13.7 18.95 -9.45 22.55 -9.5 23.3 -8.35 24.05 -6.15 24.5 -4.1 19.05 -3.95 Q19.3 -3.2 19.05 -2.2 L18.9 -0.6 Q19.0 1.75 18.6 4.0 L18.05 4.15 18.05 6.05 18.4 6.3 18.5 6.45 Q18.7 11.1 18.2 15.65 L18.15 16.0 18.0 16.15 18.0 17.9 Q18.9 19.0 18.7 20.8 L18.0 25.4 18.0 25.6 17.95 25.65 17.95 25.7 17.65 26.0 17.45 26.15 12.65 27.3 Q7.25 27.95 2.2 25.9 L-1.8 24.15 -3.8 23.1 -10.05 19.7 -16.3 16.05 -16.75 10.85 -17.95 10.65 -18.7 -3.95 -17.95 -4.15 -17.7 -6.3 -15.7 -13.7 -15.5 -14.25 -14.7 -15.95 Q-12.1 -21.15 -6.95 -23.75 L-6.45 -24.85 Q-5.75 -26.25 -5.3 -27.75 -4.4 -30.65 -3.8 -33.65 L-1.25 -45.95 -0.95 -46.25 0.45 -43.3 4.0 -28.3 M12.95 -9.6 L17.5 -9.85 15.45 -13.7 14.05 -15.75 Q11.6 -19.0 8.25 -21.3 L4.9 -23.0 6.25 -19.25 7.7 -13.7 8.45 -9.55 12.95 -9.6 M1.55 -1.2 L1.95 -1.5 2.5 -1.3 2.8 -1.05 2.35 -0.35 1.95 -0.05 1.2 -0.55 1.55 -1.2 M6.0 -4.1 L5.8 -4.15 5.85 -3.85 5.9 -2.35 5.75 0.55 5.35 2.55 5.0 2.8 4.85 3.95 5.85 4.8 6.45 5.45 8.3 8.15 8.2 9.3 8.2 9.45 7.55 10.3 6.6 10.65 5.95 10.8 4.45 11.1 4.4 11.05 4.3 11.1 4.2 11.15 3.25 11.25 -1.75 11.05 -1.75 10.0 -4.05 12.5 -5.65 13.2 Q-5.85 12.95 -6.15 12.8 L-6.8 13.4 -7.55 13.25 Q-7.8 12.4 -8.5 12.8 L-8.65 13.1 -8.75 13.05 -9.0 12.85 Q-9.3 11.95 -10.35 11.55 L-10.55 10.95 -11.85 10.95 -12.95 10.95 -15.4 11.0 -15.3 12.45 -15.1 15.05 -15.05 15.55 -12.35 17.15 -9.6 18.75 -6.2 20.6 -5.55 20.95 -5.35 21.05 -1.0 23.3 0.0 23.6 1.3 23.95 4.25 24.7 4.65 24.8 4.9 24.85 7.1 25.35 Q7.3 26.15 8.2 25.75 L8.35 25.55 9.4 25.65 16.65 25.3 16.85 22.2 Q16.95 21.0 17.2 19.85 L16.8 19.25 16.8 18.95 16.8 18.85 17.25 18.05 16.85 17.1 16.85 16.6 Q17.35 16.15 17.1 15.6 L16.85 15.35 17.2 12.05 17.3 8.75 17.35 8.05 16.65 6.55 16.65 5.95 16.75 3.85 17.2 3.6 17.45 -3.95 16.3 -4.0 16.2 -4.05 Q14.05 -4.3 11.85 -4.05 L8.7 -3.9 7.4 -4.0 6.0 -4.1 M17.8 -8.55 L5.25 -7.8 5.4 -5.85 17.9 -5.65 22.55 -5.7 22.2 -8.5 17.8 -8.55 M4.5 -8.55 L7.75 -9.5 4.4 -23.1 -1.0 -23.4 Q-3.05 -18.7 -4.05 -13.7 L-4.9 -5.25 4.3 -5.25 4.5 -8.55 M3.9 2.9 L-0.8 3.05 -0.25 10.1 1.8 10.15 Q4.7 10.2 7.2 8.7 L6.35 6.85 3.9 5.4 3.9 2.9 M-15.65 1.7 L4.15 1.35 4.6 -3.8 -17.45 -3.15 -17.35 0.75 -17.35 1.5 -15.65 1.7 M-1.4 -23.35 L-4.75 -22.5 -5.7 -22.5 -6.4 -22.15 -6.6 -22.2 Q-7.3 -22.2 -8.0 -21.6 -10.15 -17.8 -11.45 -13.7 L-13.2 -5.1 -5.55 -5.3 -4.55 -13.7 -4.2 -15.1 -2.35 -20.85 -1.4 -23.35 M-8.85 -20.95 L-8.6 -21.3 -8.95 -21.05 Q-10.75 -19.8 -12.05 -18.1 -13.7 -16.05 -14.55 -13.7 L-16.9 -4.45 -15.65 -4.7 -13.95 -5.0 -12.15 -13.7 -11.85 -14.55 -8.85 -20.95 M-12.35 -0.9 L-12.4 -0.55 -12.7 -0.15 -13.55 0.0 -13.85 -0.4 -13.95 -0.75 -13.15 -1.2 -12.95 -1.25 -12.35 -0.9 M-4.8 -1.2 Q-4.5 -0.9 -4.5 -0.45 -4.5 0.0 -4.8 0.3 L-5.5 0.6 -6.2 0.3 -6.5 -0.45 -6.2 -1.2 -5.5 -1.5 -4.8 -1.2 M-2.2 3.15 L-2.15 3.1 -2.2 3.1 -11.35 3.3 -11.35 6.95 -10.0 9.9 -9.55 9.95 -9.05 10.65 -9.25 10.7 -9.1 10.85 -7.4 11.35 Q-5.05 11.35 -3.8 9.45 L-1.8 6.45 -2.2 3.15 M-8.2 6.25 L-8.05 6.65 -8.05 7.0 Q-7.45 7.3 -7.45 8.0 L-6.85 8.35 Q-5.9 7.4 -5.4 6.2 L-8.2 6.2 -8.25 6.2 -8.2 6.25 M-7.6 9.45 L-8.8 5.3 -4.55 5.85 -6.15 9.35 -7.6 9.45 M-13.1 6.0 L-12.95 6.3 Q-12.8 7.2 -13.7 7.3 -14.85 7.05 -14.8 5.95 -14.35 5.45 -13.7 5.55 L-13.45 5.6 -13.1 6.0 M-15.2 3.35 L-17.0 3.35 -16.9 9.2 -15.1 9.3 -11.25 9.5 -11.6 8.05 -12.1 7.3 -12.1 3.3 -15.2 3.35" fill="#000000" fill-rule="evenodd" stroke="none"/>
    <path d="M2.8 -29.3 L2.95 -29.0 3.5 -26.85 3.35 -26.3 4.8 -24.5 2.15 -24.6 -1.95 -24.4 -4.8 -23.95 -5.2 -24.5 -2.9 -31.85 2.55 -29.85 2.8 -29.3 M1.55 -1.2 L1.2 -0.55 1.95 -0.05 2.35 -0.35 2.8 -1.05 2.5 -1.3 1.95 -1.5 1.55 -1.2 M17.9 -5.65 L5.4 -5.85 5.25 -7.8 17.8 -8.55 17.9 -5.65 M3.9 2.9 L3.9 5.4 6.35 6.85 7.2 8.7 Q4.7 10.2 1.8 10.15 L-0.25 10.1 -0.8 3.05 3.9 2.9 M-17.35 0.75 L-17.45 -3.15 4.6 -3.8 4.15 1.35 -15.65 1.7 -15.5 -3.2 -17.2 -3.15 -17.35 0.75 M-4.8 -1.2 L-5.5 -1.5 -6.2 -1.2 -6.5 -0.45 -6.2 0.3 -5.5 0.6 -4.8 0.3 Q-4.5 0.0 -4.5 -0.45 -4.5 -0.9 -4.8 -1.2 M-12.35 -0.9 L-12.95 -1.25 -13.15 -1.2 -13.95 -0.75 -13.85 -0.4 -13.55 0.0 -12.7 -0.15 -12.4 -0.55 -12.35 -0.9 M-2.2 3.1 L-2.2 3.15 -1.8 6.45 -3.8 9.45 Q-5.05 11.35 -7.4 11.35 L-9.1 10.85 -9.05 10.65 -9.55 9.95 -10.0 9.9 -11.35 6.95 -11.35 3.3 -2.2 3.1 M-8.2 6.2 L-5.4 6.2 Q-5.9 7.4 -6.85 8.35 L-7.45 8.0 Q-7.45 7.3 -8.05 7.0 L-8.05 6.65 -8.2 6.25 -8.2 6.2 M-13.1 6.0 L-13.45 5.6 -13.7 5.55 Q-14.35 5.45 -14.8 5.95 -14.85 7.05 -13.7 7.3 -12.8 7.2 -12.95 6.3 L-13.1 6.0 M-7.6 9.45 L-6.15 9.35 -4.55 5.85 -8.8 5.3 -7.6 9.45 M-15.2 3.35 L-12.1 3.3 -12.1 7.3 -11.6 8.05 -11.25 9.5 -15.1 9.3 -15.2 3.35" fill="#ac7c2d" fill-rule="evenodd" stroke="none"/>
    <path d="M-2.9 -31.85 Q-1.3 -37.75 -0.9 -43.9 0.0 -40.65 0.55 -37.2 1.2 -33.05 2.8 -29.3 L2.55 -29.85 -2.9 -31.85 M17.9 -5.65 L17.8 -8.55 22.2 -8.5 22.55 -5.7 17.9 -5.65 M-17.35 0.75 L-17.2 -3.15 -15.5 -3.2 -15.65 1.7 -17.35 1.5 -17.35 0.75 M-15.1 9.3 L-16.9 9.2 -17.0 3.35 -15.2 3.35 -15.1 9.3" fill="#cb9438" fill-rule="evenodd" stroke="none"/>
    <path d="M8.25 -21.3 Q10.05 -18.05 11.45 -14.6 L11.8 -13.7 12.95 -9.6 8.45 -9.55 7.7 -13.7 6.25 -19.25 4.9 -23.0 8.25 -21.3 M4.5 -8.55 L4.3 -5.25 -4.9 -5.25 -4.05 -13.7 Q-3.05 -18.7 -1.0 -23.4 L4.4 -23.1 7.75 -9.5 4.5 -8.55 M-1.4 -23.35 L-2.35 -20.85 -4.2 -15.1 -4.55 -13.7 -5.55 -5.3 -13.2 -5.1 -11.45 -13.7 Q-10.15 -17.8 -8.0 -21.6 -7.3 -22.2 -6.6 -22.2 L-6.4 -22.15 -5.7 -22.5 -4.75 -22.5 -1.4 -23.35 M-8.95 -21.05 L-8.85 -20.95 -11.85 -14.55 -12.15 -13.7 -13.95 -5.0 -15.65 -4.7 Q-15.5 -9.3 -13.9 -13.7 L-13.45 -14.95 -12.05 -18.1 Q-10.75 -19.8 -8.95 -21.05" fill="#ac8f62" fill-rule="evenodd" stroke="none"/>
    <path d="M5.85 -3.85 L5.8 -4.15 6.0 -4.1 5.85 -3.85 M16.8 18.95 L16.8 19.25 16.65 19.05 16.8 18.95 M4.9 24.85 L4.65 24.8 5.1 21.85 6.5 22.35 6.85 23.4 6.15 24.35 4.9 24.85 M-1.0 23.3 L-5.35 21.05 -4.3 21.15 -1.0 23.2 -1.0 23.3 M-9.6 18.75 L-12.35 17.15 -11.65 16.5 -11.65 17.2 -11.15 17.6 -10.55 17.5 -10.35 16.85 -8.95 17.3 -9.6 18.75 M-15.1 15.05 L-15.3 12.45 -14.55 12.65 -14.4 13.15 -15.1 15.05 M-8.75 13.05 L-8.65 13.1 -9.1 14.6 -8.95 13.05 -8.75 13.05 M-5.65 13.2 L-4.05 12.5 -5.1 13.4 -5.65 13.2 M3.25 11.25 L4.2 11.15 3.95 11.35 Q3.8 11.55 3.8 11.9 L3.25 11.25 M4.45 11.1 L5.95 10.8 6.6 11.65 6.65 12.3 Q6.05 13.15 5.1 13.25 L4.95 11.5 4.45 11.1 M8.3 8.15 L6.45 5.45 8.2 6.15 7.8 6.8 8.55 7.7 9.1 7.6 8.3 8.15 M5.85 4.8 L4.85 3.95 5.0 2.8 5.35 2.55 5.85 4.8 M5.75 0.55 L5.9 -2.35 6.6 -2.4 6.95 -2.05 7.35 -2.25 Q7.3 -1.0 7.4 0.3 L5.75 0.55 M8.95 -1.2 L9.05 0.45 8.9 0.45 8.95 -1.2 M9.2 2.05 L9.5 2.8 9.1 2.7 9.05 2.1 9.2 2.05 M10.45 3.05 L10.65 3.0 10.65 3.15 10.45 3.05 M13.8 1.35 L13.6 1.35 13.5 1.2 13.8 1.35 M7.5 2.35 L7.8 3.75 10.6 4.65 10.6 5.5 6.95 4.4 6.65 2.45 7.5 2.35 M9.15 15.75 L8.75 15.5 8.6 14.85 9.25 15.55 9.15 15.75 M12.15 7.05 L12.35 7.6 12.2 7.55 12.1 7.1 12.15 7.05 M14.05 10.4 L14.15 10.5 13.9 10.85 13.85 10.85 13.7 10.6 13.7 10.4 14.05 10.4 M14.9 14.85 L16.1 15.2 15.1 15.5 14.9 14.85 M14.05 9.5 L13.7 9.4 14.15 9.2 14.05 9.5 M-3.15 14.65 L-3.15 15.1 -3.75 14.95 -3.15 14.65 M5.15 14.25 L6.25 13.8 6.8 13.8 7.3 16.65 4.85 16.35 5.35 15.75 5.15 14.25 M6.75 18.25 L6.3 18.7 5.85 18.2 6.75 18.25 M0.6 14.5 L0.2 13.85 0.5 14.05 0.6 14.5 M5.05 19.05 L5.45 19.4 5.5 19.85 5.55 20.15 5.1 20.25 5.05 19.05 M3.6 18.75 L3.55 18.65 3.6 18.65 3.6 18.75 M-2.9 18.4 L-4.5 18.75 -4.55 19.65 -4.6 19.65 -4.85 18.35 -3.2 18.05 -2.9 18.25 -2.9 18.4 M3.15 24.0 L3.65 23.6 3.9 24.25 3.15 24.0 M9.05 19.25 L8.8 20.3 8.65 20.6 9.05 19.25 M8.6 20.95 L8.55 21.85 8.55 22.05 8.55 21.85 8.6 20.95 M11.8 20.45 L11.7 19.1 11.75 19.15 11.85 20.45 11.8 20.45 M11.7 15.7 L11.75 14.95 11.7 15.7 M-7.55 15.45 L-7.45 13.5 -6.95 13.75 -6.8 15.25 -7.55 15.45 M-6.35 19.5 L-7.45 19.4 -8.25 18.9 Q-8.5 18.6 -8.35 18.3 -8.2 17.95 -7.7 17.75 L-6.5 17.5 -6.35 19.5" fill="#828282" fill-rule="evenodd" stroke="none"/>
    <path d="M5.85 -3.85 L6.0 -4.1 7.4 -4.0 7.35 -2.25 6.95 -2.05 6.6 -2.4 5.9 -2.35 5.85 -3.85 M9.4 25.65 L8.35 25.55 8.45 23.95 Q8.55 25.0 9.4 25.65 M7.1 25.35 L4.9 24.85 6.15 24.35 6.85 23.4 6.5 22.35 5.1 21.85 5.1 20.25 5.55 20.15 5.5 19.85 5.45 19.4 5.05 19.05 Q5.05 18.1 4.45 17.45 3.8 16.75 2.9 16.75 L2.4 16.75 2.15 16.8 2.2 16.3 2.75 16.6 2.8 16.65 2.75 16.6 Q3.95 17.1 4.85 16.35 L7.3 16.65 8.85 17.5 7.35 18.2 7.1 25.35 M4.25 24.7 L1.3 23.95 3.15 24.0 3.9 24.25 4.25 24.7 M0.0 23.6 L-1.0 23.3 -1.0 23.2 0.0 23.6 M-5.35 21.05 L-5.55 20.95 Q-5.15 20.95 -4.85 20.6 -4.6 20.2 -4.6 19.65 L-4.55 19.65 -4.3 21.15 -5.35 21.05 M-6.2 20.6 L-9.6 18.75 -8.95 17.3 -10.35 16.85 -10.3 16.25 Q-8.65 16.7 -7.65 15.7 L-7.55 15.45 -6.8 15.25 -4.9 16.55 -5.7 16.5 -6.5 17.5 -7.7 17.75 Q-8.2 17.95 -8.35 18.3 -8.5 18.6 -8.25 18.9 L-7.45 19.4 -6.35 19.5 -6.2 20.6 M-12.95 10.95 L-11.85 10.95 -10.55 10.95 -10.35 11.55 -11.6 11.2 -12.2 11.75 -12.65 11.65 -12.65 10.95 -12.95 10.95 M-9.0 12.85 L-8.75 13.05 -8.95 13.05 -9.0 12.85 M-7.55 13.25 L-6.8 13.4 -6.95 13.75 -7.45 13.5 -7.55 13.25 M-4.05 12.5 L-1.75 10.0 -1.75 11.05 -4.5 12.95 -4.75 14.75 -5.65 13.2 -5.1 13.4 -4.05 12.5 M5.95 10.8 L6.6 10.65 6.6 11.65 5.95 10.8 M7.55 10.3 L8.2 9.45 8.15 10.9 7.55 10.3 M6.45 5.45 L5.85 4.8 5.35 2.55 5.75 0.55 7.4 0.3 7.5 2.35 6.65 2.45 6.95 4.4 10.6 5.5 8.2 6.15 6.45 5.45 M9.05 0.45 L9.2 2.05 9.05 2.1 8.9 0.45 9.05 0.45 M13.6 1.35 L13.8 1.35 13.75 1.65 13.6 1.35 M12.05 1.1 L12.05 1.05 12.1 1.05 12.05 1.1 M10.25 7.2 L10.65 6.95 10.65 7.65 10.25 7.2 M10.35 15.2 L10.3 16.0 9.15 15.75 9.25 15.55 10.35 15.2 M12.05 6.65 L12.15 7.05 12.1 7.1 12.05 6.65 M14.15 10.5 L14.05 10.9 13.9 10.85 14.15 10.5 M14.05 9.5 L14.05 10.4 13.7 10.4 13.7 9.4 14.05 9.5 M13.85 10.85 L13.75 10.9 13.7 10.6 13.85 10.85 M2.95 15.0 L2.2 15.15 2.05 14.0 2.95 15.0 M1.85 13.4 L1.3 12.65 1.85 12.7 1.85 13.4 M5.1 13.25 Q6.05 13.15 6.65 12.3 L6.8 13.8 6.25 13.8 5.15 14.25 5.1 13.25 M6.75 18.25 L5.85 18.2 6.3 18.7 6.75 18.25 M1.5 20.55 L1.35 22.3 0.95 22.15 1.5 20.55 M11.75 14.95 Q11.8 13.85 12.0 12.75 L12.65 12.55 13.25 12.6 13.4 13.35 12.45 12.85 11.8 14.45 11.75 14.95 M13.6 20.25 L13.55 21.3 12.8 21.4 13.6 20.25 M12.35 21.45 L11.9 21.45 11.8 20.45 11.85 20.45 11.95 21.2 12.35 21.45 M11.7 19.1 L11.65 17.9 11.75 19.15 11.7 19.1 M-12.0 13.6 L-11.85 13.6 -11.85 13.7 -11.9 13.65 -12.0 13.6 M-2.9 18.25 L-3.2 18.05 -2.95 17.95 -2.9 18.25" fill="#666666" fill-rule="evenodd" stroke="none"/>
    <path d="M8.25 -21.3 Q11.6 -19.0 14.05 -15.75 L15.45 -13.7 17.5 -9.85 12.95 -9.6 11.8 -13.7 11.45 -14.6 Q10.05 -18.05 8.25 -21.3 M-12.05 -18.1 L-13.45 -14.95 -13.9 -13.7 Q-15.5 -9.3 -15.65 -4.7 L-16.9 -4.45 -14.55 -13.7 Q-13.7 -16.05 -12.05 -18.1" fill="#c4b091" fill-rule="evenodd" stroke="none"/>
    <path d="M8.7 -3.9 L11.85 -4.05 Q14.05 -4.3 16.2 -4.05 L16.3 -4.0 16.7 2.25 16.05 2.7 15.5 2.4 15.05 2.7 15.0 1.6 15.0 1.15 14.65 -0.55 11.1 -0.85 10.65 3.0 10.45 3.05 9.5 2.8 9.2 2.05 9.05 0.45 8.95 -1.2 8.7 -3.9 M17.3 8.75 L17.2 12.05 16.85 15.35 16.1 15.2 14.9 14.85 14.05 10.9 14.15 10.5 14.05 10.4 14.05 9.5 14.15 9.2 14.45 9.3 Q16.05 9.65 17.3 8.75 M16.85 16.6 L16.85 17.1 16.55 16.8 16.85 16.6 M16.85 22.2 L16.65 25.3 9.4 25.65 Q8.55 25.0 8.45 23.95 L8.55 22.05 8.55 21.85 8.6 20.95 8.65 20.6 8.8 20.3 Q8.8 20.8 9.6 21.2 L11.5 21.55 11.4 22.55 11.35 23.0 14.35 22.7 Q14.1 21.3 14.45 20.3 L16.85 22.2 M1.3 23.95 L0.0 23.6 -1.0 23.2 -4.3 21.15 -4.55 19.65 -4.5 18.75 -2.9 18.4 Q-2.9 19.95 -1.75 21.05 -0.65 22.15 0.95 22.15 L1.35 22.3 1.5 20.55 1.55 20.0 Q2.4 21.45 3.9 20.9 L3.65 23.6 3.15 24.0 1.3 23.95 M-12.35 17.15 L-15.05 15.55 -15.1 15.05 -14.4 13.15 -12.0 13.6 -11.9 13.65 -11.85 13.7 -11.65 14.0 Q-11.0 15.5 -11.65 16.5 L-12.35 17.15 M-15.3 12.45 L-15.4 11.0 -12.95 10.95 -12.65 10.95 -12.65 11.65 -14.0 11.95 Q-14.55 12.25 -14.55 12.65 L-15.3 12.45 M-10.35 11.55 Q-9.3 11.95 -9.0 12.85 L-8.95 13.05 -9.1 14.6 -10.3 14.7 -11.05 13.2 -12.2 11.75 -11.6 11.2 -10.35 11.55 M-1.75 11.05 L3.25 11.25 3.8 11.9 Q4.2 12.65 4.05 13.95 3.85 15.55 2.95 15.0 L2.05 14.0 1.85 13.4 1.85 12.7 1.3 12.65 Q-0.3 12.55 -1.95 13.15 -2.2 14.1 -3.15 14.65 L-3.75 14.95 -4.75 14.75 -4.5 12.95 -1.75 11.05 M8.2 9.45 L8.2 9.3 Q9.75 10.45 11.55 9.6 L11.55 10.75 11.55 11.2 10.35 15.2 9.25 15.55 8.6 14.85 8.15 10.9 8.2 9.45 M15.2 6.05 L15.2 5.95 15.3 6.0 15.2 6.05 M11.8 3.05 Q12.3 4.3 14.0 3.65 L14.2 3.6 13.65 7.45 13.4 7.65 12.35 7.6 12.15 7.05 12.05 6.65 11.8 3.05 M-1.65 15.95 Q-1.25 16.75 0.0 17.4 L0.4 17.3 0.85 16.85 1.0 16.55 0.35 20.1 -0.35 20.0 -1.1 19.35 Q-1.8 17.7 -1.65 15.95 M14.05 15.45 L13.6 20.25 12.8 21.4 12.35 21.45 11.95 21.2 11.85 20.45 11.75 19.15 11.65 17.9 11.7 15.7 11.75 14.95 11.8 14.45 11.85 14.55 Q13.0 16.45 14.05 15.45" fill="#727272" fill-rule="evenodd" stroke="none"/>
    <path d="M7.4 -4.0 L8.7 -3.9 8.95 -1.2 8.9 0.45 9.05 2.1 9.1 2.7 9.5 2.8 10.45 3.05 10.65 3.15 10.65 3.0 11.1 -0.85 14.65 -0.55 15.0 1.15 15.0 1.6 15.05 2.7 15.5 2.4 16.05 2.7 16.7 2.25 16.3 -4.0 17.45 -3.95 17.2 3.6 16.75 3.85 16.65 5.95 15.3 6.0 15.2 5.95 15.2 6.05 14.65 6.75 14.55 7.55 14.15 9.2 13.7 9.4 13.7 10.4 13.7 10.6 13.75 10.9 13.85 10.85 13.9 10.85 14.05 10.9 14.9 14.85 15.1 15.5 16.1 15.2 16.85 15.35 17.1 15.6 Q17.35 16.15 16.85 16.6 L16.55 16.8 16.85 17.1 17.25 18.05 16.8 18.85 16.0 18.45 15.05 19.3 14.45 20.3 Q14.1 21.3 14.35 22.7 L11.35 23.0 11.4 22.55 11.5 21.55 11.55 20.3 Q11.55 19.1 11.2 18.3 10.8 17.45 10.3 17.5 9.75 17.55 9.05 19.25 L8.65 20.6 8.6 20.95 8.55 21.85 8.55 22.05 8.45 23.95 8.35 25.55 8.2 25.75 Q7.3 26.15 7.1 25.35 L7.35 18.2 8.85 17.5 7.3 16.65 6.8 13.8 6.65 12.3 6.6 11.65 6.6 10.65 7.55 10.3 8.15 10.9 8.6 14.85 8.75 15.5 9.15 15.75 10.3 16.0 10.35 15.2 11.55 11.2 11.55 10.75 11.55 9.6 10.65 7.65 10.65 6.95 10.25 7.2 Q9.75 6.55 9.25 7.3 L9.1 7.6 8.55 7.7 7.8 6.8 8.2 6.15 10.6 5.5 10.6 4.65 7.8 3.75 7.5 2.35 7.4 0.3 Q7.3 -1.0 7.35 -2.25 L7.4 -4.0 M4.65 24.8 L4.25 24.7 3.9 24.25 3.65 23.6 3.9 20.9 3.6 18.75 3.6 18.65 3.55 18.65 2.65 17.65 Q1.15 18.25 1.55 20.0 L1.5 20.55 0.95 22.15 Q-0.65 22.15 -1.75 21.05 -2.9 19.95 -2.9 18.4 L-2.9 18.25 -2.95 17.95 -3.2 18.05 -4.85 18.35 -4.6 19.65 Q-4.6 20.2 -4.85 20.6 -5.15 20.95 -5.55 20.95 L-6.2 20.6 -6.35 19.5 -6.5 17.5 -5.7 16.5 -4.9 16.55 -6.8 15.25 -6.95 13.75 -6.8 13.4 -6.15 12.8 Q-5.85 12.95 -5.65 13.2 L-4.75 14.75 -3.75 14.95 -3.15 15.1 -3.15 14.65 Q-2.2 14.1 -1.95 13.15 -0.3 12.55 1.3 12.65 L1.85 13.4 2.05 14.0 2.2 15.15 2.95 15.0 Q3.85 15.55 4.05 13.95 4.2 12.65 3.8 11.9 3.8 11.55 3.95 11.35 L4.2 11.15 4.3 11.1 4.4 11.05 4.45 11.1 4.95 11.5 5.1 13.25 5.15 14.25 5.35 15.75 4.85 16.35 Q3.95 17.1 2.75 16.6 L2.8 16.65 2.75 16.6 2.2 16.3 2.15 16.8 2.4 16.75 2.9 16.75 Q3.8 16.75 4.45 17.45 5.05 18.1 5.05 19.05 L5.1 20.25 5.1 21.85 4.65 24.8 M-8.65 13.1 L-8.5 12.8 Q-7.8 12.4 -7.55 13.25 L-7.45 13.5 -7.55 15.45 -7.65 15.7 Q-8.65 16.7 -10.3 16.25 L-10.35 16.85 -10.55 17.5 -11.15 17.6 -11.65 17.2 -11.65 16.5 Q-11.0 15.5 -11.65 14.0 L-11.85 13.7 -11.85 13.6 -12.0 13.6 -14.4 13.15 -14.55 12.65 Q-14.55 12.25 -14.0 11.95 L-12.65 11.65 -12.2 11.75 -11.05 13.2 -10.3 14.7 -9.1 14.6 -8.65 13.1 M13.75 1.65 L13.8 1.35 13.5 1.2 12.65 0.6 12.1 1.05 12.05 1.05 12.05 1.1 11.8 3.05 12.05 6.65 12.1 7.1 12.2 7.55 12.35 7.6 13.4 7.65 13.65 7.45 14.2 3.6 13.75 1.65 M0.6 14.5 L0.5 14.05 0.2 13.85 -0.45 13.2 -1.25 13.8 -1.55 14.95 -1.65 15.95 Q-1.8 17.7 -1.1 19.35 L-0.35 20.0 0.35 20.1 1.0 16.55 0.6 14.5 M13.4 13.35 L13.25 12.6 12.65 12.55 12.0 12.75 Q11.8 13.85 11.75 14.95 L11.7 15.7 11.65 17.9 11.7 19.1 11.8 20.45 11.9 21.45 12.35 21.45 12.8 21.4 13.55 21.3 13.6 20.25 14.05 15.45 Q14.05 14.2 13.4 13.35" fill="#505050" fill-rule="evenodd" stroke="none"/>
    <path d="M16.65 5.95 L16.65 6.55 17.35 8.05 17.3 8.75 Q16.05 9.65 14.45 9.3 L14.15 9.2 14.55 7.55 14.65 6.75 15.2 6.05 15.3 6.0 16.65 5.95 M16.8 18.85 L16.8 18.95 16.65 19.05 16.8 19.25 17.2 19.85 Q16.95 21.0 16.85 22.2 L14.45 20.3 15.05 19.3 16.0 18.45 16.8 18.85 M8.2 9.3 L8.3 8.15 9.1 7.6 9.25 7.3 Q9.75 6.55 10.25 7.2 L10.65 7.65 11.55 9.6 Q9.75 10.45 8.2 9.3 M13.6 1.35 L13.75 1.65 14.2 3.6 14.0 3.65 Q12.3 4.3 11.8 3.05 L12.05 1.1 12.1 1.05 12.65 0.6 13.5 1.2 13.6 1.35 M0.2 13.85 L0.6 14.5 1.0 16.55 0.85 16.85 0.4 17.3 0.0 17.4 Q-1.25 16.75 -1.65 15.95 L-1.55 14.95 -1.25 13.8 -0.45 13.2 0.2 13.85 M3.55 18.65 L3.6 18.75 3.9 20.9 Q2.4 21.45 1.55 20.0 1.15 18.25 2.65 17.65 L3.55 18.65 M11.5 21.55 L9.6 21.2 Q8.8 20.8 8.8 20.3 L9.05 19.25 Q9.75 17.55 10.3 17.5 10.8 17.45 11.2 18.3 11.55 19.1 11.55 20.3 L11.5 21.55 M13.4 13.35 Q14.05 14.2 14.05 15.45 13.0 16.45 11.85 14.55 L11.8 14.45 12.45 12.85 13.4 13.35" fill="#8c8c8c" fill-rule="evenodd" stroke="none"/>
  </g>
</svg>
