<?xml version="1.0" encoding="UTF-8" standalone="no"?>
<svg xmlns:xlink="http://www.w3.org/1999/xlink" height="72.3px" width="41.65px" xmlns="http://www.w3.org/2000/svg">
  <g transform="matrix(1.0, 0.0, 0.0, 1.0, 15.8, 65.25)">
    <path d="M-1.85 -50.45 L0.0 -61.8 0.25 -60.5 2.15 -52.9 2.25 -52.65 -1.5 -50.6 -1.85 -50.45 M-10.05 -25.05 L-10.0 -23.7 -10.15 -23.75 -10.2 -23.7 -10.7 -23.6 -11.0 -23.4 -11.05 -23.2 Q-11.05 -22.75 -10.15 -22.7 L-10.05 -22.7 -10.1 -20.95 -12.75 -20.8 -12.75 -20.95 -12.8 -21.25 -12.95 -23.8 -12.95 -24.2 -12.95 -24.5 -12.85 -24.5 -12.8 -24.45 -12.75 -24.55 -12.5 -24.6 -10.05 -25.05 M17.35 -29.9 L17.75 -29.9 21.45 -29.7 21.35 -29.35 21.35 -28.65 21.35 -28.3 21.35 -27.05 21.35 -26.85 19.35 -27.1 17.45 -27.3 17.2 -27.3 17.1 -28.45 Q17.1 -29.3 17.35 -29.9 M-10.7 -14.05 Q-10.65 -12.45 -10.85 -10.9 L-10.95 -10.9 -11.0 -10.75 Q-12.4 -10.35 -13.05 -11.55 L-13.25 -11.6 -13.65 -14.35 -13.75 -15.8 -14.15 -19.05 -14.2 -19.25 -14.0 -19.4 -14.1 -20.55 -13.75 -20.5 -10.8 -20.35 Q-10.5 -19.35 -10.65 -18.1 L-12.1 -18.1 -12.3 -18.1 -12.35 -18.05 -13.1 -17.9 Q-12.65 -16.05 -12.45 -14.05 L-10.7 -14.05 M24.0 -17.45 L22.95 -15.65 23.0 -18.8 24.0 -17.45" fill="#cb9438" fill-rule="evenodd" stroke="none"/>
    <path d="M2.25 -52.65 L3.5 -48.95 Q3.7 -48.4 4.1 -48.25 6.75 -47.25 9.0 -45.75 L4.45 -46.55 4.45 -46.45 Q-0.1 -45.95 -4.25 -44.75 -2.15 -46.55 -2.1 -49.5 -1.9 -49.85 -1.85 -50.25 L-1.85 -50.45 -1.5 -50.6 2.25 -52.65 M-10.05 -25.05 L-9.3 -25.15 -6.2 -25.3 -4.05 -25.3 -1.8 -25.15 -0.75 -25.05 -0.7 -25.0 -0.65 -24.85 -0.55 -24.65 -0.5 -24.25 -0.55 -24.1 -0.55 -23.25 -0.5 -21.35 -0.9 -21.35 -0.9 -21.05 -2.3 -21.1 -4.95 -21.05 -5.0 -21.15 -10.1 -20.95 -10.05 -22.7 -9.6 -22.8 -9.45 -23.0 -9.4 -23.4 -9.65 -23.6 -10.0 -23.7 -10.05 -25.05 M17.2 -27.3 Q11.95 -27.8 6.7 -27.45 L5.85 -27.4 5.35 -27.55 4.6 -27.65 2.95 -27.7 1.5 -27.5 Q0.4 -27.6 -0.05 -26.8 L-0.05 -26.75 -0.25 -26.75 -0.25 -27.45 -0.25 -28.15 0.15 -28.5 1.35 -28.75 12.85 -30.2 17.35 -29.9 Q17.1 -29.3 17.1 -28.45 L17.2 -27.3 M-2.35 -20.15 L-1.6 -19.95 -1.6 -18.95 -1.6 -17.35 -1.2 -17.15 0.5 -16.7 Q3.25 -15.25 2.5 -13.75 0.1 -12.65 -2.5 -12.05 L-4.2 -12.35 -4.35 -14.35 Q-4.4 -15.6 -4.75 -16.7 -4.4 -18.55 -4.8 -20.45 L-2.35 -20.15 M-4.05 -23.1 L-4.1 -23.45 -4.35 -23.65 -4.9 -23.8 -4.9 -23.75 -5.3 -23.7 -5.55 -23.65 -5.75 -23.35 -5.75 -22.95 -4.9 -22.6 -4.4 -22.7 -4.2 -22.75 -4.05 -23.1 M-10.7 -14.05 L-10.65 -14.05 Q-9.7 -14.6 -9.45 -15.3 L-8.85 -17.85 -9.2 -18.05 -10.15 -18.1 -10.65 -18.1 Q-10.5 -19.35 -10.8 -20.35 L-6.45 -20.2 Q-5.6 -15.55 -9.55 -11.3 L-10.65 -10.9 -10.85 -10.9 Q-10.65 -12.45 -10.7 -14.05 M-10.4 -17.45 Q-10.05 -17.1 -10.2 -16.6 L-11.0 -14.8 -11.7 -14.75 -11.7 -14.8 Q-11.55 -15.35 -11.85 -15.75 -12.35 -16.5 -12.2 -17.3 L-10.4 -17.45" fill="#ac7c2d" fill-rule="evenodd" stroke="none"/>
    <path d="M-1.85 -50.45 L-1.85 -50.25 Q-1.9 -49.85 -2.1 -49.5 -2.15 -46.55 -4.25 -44.75 -0.1 -45.95 4.45 -46.45 L4.45 -46.55 9.0 -45.75 Q6.75 -47.25 4.1 -48.25 3.7 -48.4 3.5 -48.95 L2.25 -52.65 2.15 -52.9 0.25 -60.5 0.0 -61.8 -1.85 -50.45 M3.25 5.0 L1.35 4.4 -5.15 2.25 -9.45 0.7 Q-11.65 0.0 -13.5 -1.25 L-13.4 -1.55 -13.35 -1.65 -13.4 -8.0 -13.4 -9.55 -13.4 -10.4 -13.6 -10.3 -14.2 -10.45 -14.45 -11.2 -14.45 -11.25 Q-15.7 -16.15 -15.8 -21.15 L-14.3 -21.2 -14.25 -24.2 -14.2 -24.2 -14.15 -25.55 -13.65 -30.55 -13.6 -31.65 -13.2 -35.8 -13.2 -36.5 Q-10.45 -44.0 -3.85 -47.7 L-3.75 -48.1 -3.75 -48.45 -3.2 -49.15 -0.55 -64.5 -0.35 -65.15 -0.35 -65.2 0.0 -65.25 0.2 -65.25 0.35 -64.9 0.3 -64.55 Q1.85 -56.85 5.0 -49.7 5.3 -49.15 5.95 -48.95 9.5 -48.0 12.5 -45.45 12.85 -44.45 13.8 -44.0 14.2 -43.0 15.15 -42.6 18.05 -37.8 20.1 -32.6 L20.0 -31.65 20.8 -31.65 22.35 -31.6 22.65 -31.25 22.75 -30.9 22.9 -27.0 Q22.55 -26.35 22.5 -25.45 L22.15 -25.4 22.75 -22.6 22.95 -22.4 23.0 -21.35 25.85 -18.2 25.8 -16.75 25.75 -16.35 23.75 -13.9 23.55 -13.95 23.55 -13.85 22.85 -13.75 22.85 -13.7 Q22.8 -12.85 22.1 -12.3 L21.7 -12.1 21.85 -8.15 21.15 -8.85 20.8 -8.75 20.65 -8.65 20.5 -8.8 20.5 -9.2 20.45 -13.55 21.2 -13.5 21.55 -15.65 21.65 -16.5 22.2 -21.8 22.15 -22.0 22.0 -22.15 21.4 -22.5 21.4 -22.45 20.6 -22.35 20.55 -22.45 20.4 -22.55 20.4 -23.0 20.4 -24.55 20.4 -25.05 20.4 -25.1 20.4 -25.25 20.0 -25.25 19.6 -25.5 19.55 -25.5 19.15 -25.4 19.05 -25.25 18.95 -25.25 Q18.0 -25.85 16.85 -25.75 L16.3 -25.6 16.25 -25.6 15.9 -25.7 15.8 -25.85 15.2 -25.9 15.15 -25.9 15.05 -25.8 13.8 -25.95 13.55 -25.95 12.7 -25.95 Q12.35 -26.35 11.6 -26.35 L9.3 -26.45 5.0 -26.65 3.65 -26.55 3.1 -26.3 3.0 -26.1 2.9 -26.2 2.1 -26.25 1.85 -25.9 1.85 -25.85 0.85 -25.75 0.8 -25.7 0.55 -25.7 0.55 -25.65 0.45 -25.35 0.45 -25.3 0.45 -25.1 0.4 -25.1 0.3 -24.6 0.25 -24.2 0.2 -21.75 0.2 -21.7 0.15 -20.95 0.15 -20.75 0.15 -20.6 0.1 -20.3 0.1 -19.95 -0.1 -19.8 -0.1 -19.2 -0.15 -18.2 2.3 -17.3 3.35 -16.55 3.35 -16.5 3.45 -16.4 3.85 -15.9 Q4.3 -15.1 4.2 -14.05 L4.1 -13.55 Q3.2 -13.45 2.75 -12.65 L2.75 -12.55 2.65 -12.5 2.05 -12.3 1.2 -12.0 0.45 -11.8 -0.4 -11.6 -1.05 -12.0 -3.85 -11.5 Q-4.35 -12.05 -5.05 -11.8 L-5.05 -11.9 -5.25 -12.15 Q-5.2 -13.05 -5.95 -13.4 L-6.0 -13.35 -6.05 -13.45 -6.15 -13.25 -7.4 -11.8 -7.85 -11.2 -8.3 -10.6 -8.4 -10.55 -8.5 -10.5 -8.75 -10.6 -8.75 -10.55 -9.0 -10.5 -9.05 -10.5 -9.2 -10.35 -9.35 -10.15 -10.1 -9.9 -10.45 -9.85 -11.0 -9.8 -11.4 -10.05 -11.8 -9.85 -12.1 -9.9 -12.25 -9.95 -12.25 -9.25 -12.25 -8.5 -12.3 -8.0 -12.15 -6.7 -12.1 -6.55 -12.05 -6.25 -12.2 -6.15 -12.25 -5.85 -12.1 -3.4 -12.05 -2.45 -9.35 -1.1 -9.05 -1.0 -8.9 -0.85 Q-8.75 0.4 -7.55 0.75 L-4.8 1.5 -3.9 1.7 Q-3.4 1.75 -3.0 1.95 -2.3 2.4 -1.55 2.25 L-1.5 2.25 -1.35 2.3 -1.15 2.35 -1.15 2.5 -1.0 2.6 -0.7 2.65 -0.3 2.6 1.6 3.2 1.8 3.25 2.05 3.35 2.2 3.5 2.85 3.85 3.2 3.7 3.25 3.7 3.35 3.8 3.7 4.25 4.15 4.6 Q4.8 5.1 5.6 5.3 L8.8 6.15 Q10.6 6.6 12.05 5.7 L12.35 5.45 12.45 6.0 Q12.9 6.25 13.25 6.0 L13.4 5.65 13.4 5.3 13.6 5.3 13.9 5.25 14.4 5.25 14.5 5.2 16.7 4.3 Q18.6 4.7 20.3 3.5 L20.45 3.3 Q21.3 1.75 20.9 -0.05 L20.6 -0.4 20.6 -0.45 21.05 -0.65 21.15 -0.8 21.35 -1.1 21.85 -1.15 21.7 2.7 21.7 3.1 21.5 3.3 21.45 3.3 21.3 3.45 21.05 3.45 Q18.7 5.45 15.75 6.35 L14.85 7.0 14.1 7.05 Q9.1 6.9 4.35 5.4 L4.7 5.4 3.25 5.0 M-10.55 -26.1 L-8.4 -26.55 -8.2 -26.6 -8.35 -31.65 Q-7.95 -38.0 -4.3 -43.3 L-4.0 -43.65 -3.55 -43.75 -3.3 -43.8 Q-6.85 -38.4 -7.5 -31.65 L-7.6 -27.35 -7.6 -26.95 -8.0 -26.65 Q-4.85 -27.4 -1.7 -26.6 L-1.6 -26.85 Q-1.7 -28.55 -1.1 -30.05 3.35 -31.25 7.9 -31.65 L12.85 -31.85 Q12.8 -39.8 7.3 -44.65 4.6 -44.85 1.9 -44.7 2.3 -38.9 2.85 -33.15 L2.85 -32.8 2.45 -32.35 Q1.85 -38.5 1.7 -44.7 L-4.45 -43.9 -5.85 -43.55 -6.5 -43.4 -7.6 -42.45 Q-11.7 -37.7 -12.45 -31.65 -12.85 -29.0 -12.55 -26.1 L-12.5 -25.85 -12.4 -26.0 -12.25 -26.0 -11.95 -26.0 -11.05 -26.05 -10.55 -26.1 M-10.1 -20.95 L-5.0 -21.15 -4.95 -21.05 -2.3 -21.1 -0.9 -21.05 -0.9 -21.35 -0.5 -21.35 -0.55 -23.25 -0.55 -24.1 -0.5 -24.25 -0.55 -24.65 -0.65 -24.85 -0.7 -25.0 -0.75 -25.05 -1.8 -25.15 -4.05 -25.3 -6.2 -25.3 -9.3 -25.15 -10.05 -25.05 -12.5 -24.6 -12.75 -24.55 -12.8 -24.45 -12.85 -24.5 -12.95 -24.5 -12.95 -24.2 -12.95 -23.8 -12.8 -21.25 -12.75 -20.95 -12.75 -20.8 -10.1 -20.95 M-10.0 -23.7 L-9.65 -23.6 -9.4 -23.4 -9.45 -23.0 -9.6 -22.8 -10.05 -22.7 -10.15 -22.7 Q-11.05 -22.75 -11.05 -23.2 L-11.0 -23.4 -10.7 -23.6 -10.2 -23.7 -10.15 -23.75 -10.0 -23.7 M17.35 -29.9 L12.85 -30.2 1.35 -28.75 0.15 -28.5 -0.25 -28.15 -0.25 -27.45 -0.25 -26.75 -0.05 -26.75 -0.05 -26.8 Q0.4 -27.6 1.5 -27.5 L2.95 -27.7 4.6 -27.65 5.35 -27.55 5.85 -27.4 6.7 -27.45 Q11.95 -27.8 17.2 -27.3 L17.45 -27.3 19.35 -27.1 21.35 -26.85 21.35 -27.05 21.35 -28.3 21.35 -28.65 21.35 -29.35 21.45 -29.7 17.75 -29.9 17.35 -29.9 M-4.05 -23.1 L-4.2 -22.75 -4.4 -22.7 -4.9 -22.6 -5.75 -22.95 -5.75 -23.35 -5.55 -23.65 -5.3 -23.7 -4.9 -23.75 -4.9 -23.8 -4.35 -23.65 -4.1 -23.45 -4.05 -23.1 M-2.35 -20.15 L-4.8 -20.45 Q-4.4 -18.55 -4.75 -16.7 -4.4 -15.6 -4.35 -14.35 L-4.2 -12.35 -2.5 -12.05 Q0.1 -12.65 2.5 -13.75 3.25 -15.25 0.5 -16.7 L-1.2 -17.15 -1.6 -17.35 -1.6 -18.95 -1.6 -19.95 -2.35 -20.15 M-10.65 -18.1 L-10.15 -18.1 -9.2 -18.05 -8.85 -17.85 -9.45 -15.3 Q-9.7 -14.6 -10.65 -14.05 L-10.7 -14.05 -12.45 -14.05 Q-12.65 -16.05 -13.1 -17.9 L-12.35 -18.05 -12.3 -18.1 -12.1 -18.1 -10.65 -18.1 M-10.85 -10.9 L-10.65 -10.9 -9.55 -11.3 Q-5.6 -15.55 -6.45 -20.2 L-10.8 -20.35 -13.75 -20.5 -14.1 -20.55 -14.0 -19.4 -14.2 -19.25 -14.15 -19.05 -13.75 -15.8 -13.65 -14.35 -13.25 -11.6 -13.05 -11.55 Q-12.4 -10.35 -11.0 -10.75 L-10.95 -10.9 -10.85 -10.9 M-10.4 -17.45 L-12.2 -17.3 Q-12.35 -16.5 -11.85 -15.75 -11.55 -15.35 -11.7 -14.8 L-11.7 -14.75 -11.0 -14.8 -10.2 -16.6 Q-10.05 -17.1 -10.4 -17.45 M8.65 -44.55 L7.7 -44.65 8.0 -44.45 Q12.3 -41.3 13.35 -36.1 13.7 -34.3 13.65 -32.2 L13.65 -31.85 13.6 -31.8 15.5 -31.75 18.9 -31.7 18.9 -31.85 Q18.1 -33.2 17.8 -34.7 15.4 -40.55 11.1 -44.2 L8.65 -44.55 M24.0 -17.45 L23.0 -18.8 22.95 -15.65 24.0 -17.45" fill="#000000" fill-rule="evenodd" stroke="none"/>
    <path d="M-5.85 -43.55 L-4.45 -43.9 1.7 -44.7 Q1.85 -38.5 2.45 -32.35 L2.85 -32.8 2.85 -33.15 Q2.3 -38.9 1.9 -44.7 4.6 -44.85 7.3 -44.65 12.8 -39.8 12.85 -31.85 L7.9 -31.65 Q3.35 -31.25 -1.1 -30.05 -1.7 -28.55 -1.6 -26.85 L-1.7 -26.6 Q-4.85 -27.4 -8.0 -26.65 L-7.6 -26.95 -7.6 -27.35 -7.5 -31.65 Q-6.85 -38.4 -3.3 -43.8 L-3.55 -43.75 -4.0 -43.65 -4.3 -43.3 Q-7.95 -38.0 -8.35 -31.65 L-8.2 -26.6 -8.4 -26.55 -10.55 -26.1 Q-10.5 -28.95 -10.05 -31.65 -9.0 -37.7 -6.05 -43.25 L-5.85 -43.55 M8.0 -44.45 L7.7 -44.65 8.65 -44.55 7.85 -44.6 8.0 -44.45 M15.5 -31.75 L13.6 -31.8 13.65 -31.85 13.65 -32.2 Q13.7 -34.3 13.35 -36.1 L15.5 -31.75" fill="#ac8f62" fill-rule="evenodd" stroke="none"/>
    <path d="M-5.85 -43.55 L-6.05 -43.25 Q-9.0 -37.7 -10.05 -31.65 -10.5 -28.95 -10.55 -26.1 L-11.05 -26.05 -11.95 -26.0 -12.25 -26.0 -12.4 -26.0 -12.5 -25.85 -12.55 -26.1 Q-12.85 -29.0 -12.45 -31.65 -11.7 -37.7 -7.6 -42.45 L-6.5 -43.4 -5.85 -43.55 M8.0 -44.45 L7.85 -44.6 8.65 -44.55 11.1 -44.2 Q15.4 -40.55 17.8 -34.7 18.1 -33.2 18.9 -31.85 L18.9 -31.7 15.5 -31.75 13.35 -36.1 Q12.3 -41.3 8.0 -44.45" fill="#c4b091" fill-rule="evenodd" stroke="none"/>
    <path d="M2.3 -17.3 L-0.15 -18.2 -0.1 -19.2 -0.1 -19.8 0.1 -19.95 0.1 -20.3 1.9 -19.9 2.05 -18.75 2.2 -18.6 2.2 -17.95 2.2 -17.75 2.2 -17.5 2.3 -17.3 M0.55 -25.65 L0.55 -25.7 0.8 -25.7 0.55 -25.65 M15.9 -25.7 L16.25 -25.6 16.05 -25.65 15.9 -25.65 15.9 -25.7 M18.95 -25.25 L19.05 -25.25 19.05 -25.2 18.95 -25.25 M20.0 -25.25 L20.4 -25.25 20.4 -25.1 20.4 -25.05 20.4 -24.55 20.3 -25.0 20.15 -25.15 20.0 -25.25 M20.4 -23.0 L20.4 -22.55 20.3 -22.6 20.4 -23.0 M20.5 -9.2 L20.5 -8.8 19.75 -9.0 20.3 -9.1 20.45 -9.15 20.5 -9.2 M-6.0 -13.35 L-6.15 -13.25 -6.05 -13.45 -6.0 -13.35 M2.65 -12.5 L2.75 -12.55 2.75 -12.5 2.65 -12.5 M4.1 -13.55 L4.2 -14.05 Q4.3 -15.1 3.85 -15.9 L4.25 -15.7 4.2 -15.4 4.25 -15.2 4.25 -15.05 4.25 -14.15 4.15 -13.55 4.1 -13.55 M-10.45 -9.85 L-10.1 -9.9 -9.35 -10.15 -9.6 -9.8 -9.6 -9.5 -9.65 -8.5 -9.85 -8.6 -10.15 -9.75 -10.4 -9.85 -10.4 -9.8 -10.6 -9.7 -10.45 -9.85 M-11.95 -6.4 L-12.05 -6.25 -12.1 -6.55 -11.95 -6.4 M-10.85 -4.95 L-10.9 -5.35 -10.4 -5.5 Q-10.2 -5.55 -10.15 -5.65 L-9.95 -6.25 -9.85 -6.15 -9.85 -5.65 -9.85 -5.35 -9.7 -5.15 -9.75 -5.0 -10.85 -4.95 M0.2 -10.7 L1.3 -9.85 1.3 -7.95 0.05 -7.6 Q0.0 -9.2 0.2 -10.7 M-3.75 -9.1 L-3.75 -9.55 -3.65 -9.65 -3.75 -9.1 M-7.9 -5.65 L-7.15 -5.65 -7.15 -4.8 -7.9 -5.65 M-1.25 1.85 L-1.2 2.2 -1.35 2.3 -1.5 2.25 -1.35 2.1 -1.25 1.85 M-0.3 -0.15 L-0.15 -2.0 0.95 -1.7 1.05 -1.6 1.4 -1.2 0.8 -0.6 0.8 -0.45 -0.3 -0.15 M-3.05 -4.15 L-3.1 -5.75 Q-2.6 -5.7 -2.15 -5.45 L-2.05 -5.4 -2.4 -5.05 -2.4 -4.9 -2.4 -4.45 -3.05 -4.15 M-9.3 -1.2 L-9.15 -1.15 -8.9 -1.2 -8.9 -0.85 -9.05 -1.0 -9.3 -1.2 M3.05 -3.15 L1.45 -3.4 -0.7 -4.15 -0.65 -4.2 -0.5 -4.45 -0.15 -5.0 0.7 -4.6 1.4 -4.75 5.15 -4.45 5.15 -4.0 5.15 -3.7 5.15 -3.6 4.9 -3.6 3.05 -3.15 M13.85 -20.35 L13.95 -20.5 14.7 -20.5 14.7 -19.35 Q14.9 -18.85 15.45 -18.8 L16.15 -19.15 Q16.95 -19.0 17.7 -19.15 L17.85 -19.3 17.95 -19.45 17.9 -17.55 Q17.2 -17.8 16.25 -17.55 L16.2 -17.5 15.8 -17.4 15.6 -17.2 15.45 -17.0 15.4 -16.3 Q14.5 -16.5 13.6 -17.0 L13.4 -17.35 Q12.9 -18.0 12.7 -18.8 L13.65 -19.25 13.75 -19.45 13.85 -20.35 M17.95 -20.1 L18.0 -20.1 18.0 -20.05 17.95 -20.1 M15.25 -12.9 L15.25 -12.8 15.2 -12.85 15.25 -12.9 M15.2 -11.05 L15.2 -7.55 13.3 -7.25 13.35 -11.35 13.9 -11.25 15.2 -11.05 M16.1 -5.65 L17.45 -5.7 17.45 -4.9 Q16.25 -4.95 15.55 -4.15 L15.35 -4.45 15.45 -4.9 15.5 -5.1 15.7 -5.3 16.1 -5.65 M15.3 -1.7 L15.25 -0.4 Q14.35 0.25 13.4 0.45 L13.3 -1.7 13.6 -1.75 15.3 -1.7 M15.3 1.4 L15.45 3.1 13.45 2.8 13.45 2.45 Q14.1 1.9 14.9 1.55 L15.3 1.4 M20.45 -0.4 L20.6 -0.45 20.6 -0.4 20.55 -0.4 20.45 -0.4 M10.0 -22.3 L10.1 -22.6 10.15 -22.25 10.0 -22.3 M5.65 -19.65 L5.65 -19.55 5.55 -19.6 5.65 -19.65 M10.55 -18.0 L10.3 -18.0 10.35 -18.65 10.9 -18.55 10.75 -18.45 10.65 -18.15 10.55 -18.0 M13.3 -15.5 L14.15 -15.1 14.5 -14.6 14.1 -14.15 13.35 -13.8 13.3 -15.5 M16.8 -8.6 L16.75 -10.0 16.8 -9.9 16.85 -8.65 16.8 -8.6 M19.8 -13.65 L20.15 -12.8 20.1 -12.75 19.7 -12.55 19.65 -12.5 19.55 -12.5 19.35 -13.6 19.6 -13.55 19.8 -13.65 M8.5 -20.4 L9.0 -20.5 8.85 -19.85 8.5 -20.4 M7.15 -20.25 L7.45 -20.25 7.35 -19.95 7.25 -16.4 7.2 -16.4 7.15 -20.25 M4.15 -17.5 L3.5 -18.0 3.8 -18.4 5.15 -18.35 5.65 -18.45 5.65 -17.8 5.4 -17.8 4.15 -17.5 M1.95 2.6 L2.05 3.25 1.8 3.25 1.6 3.2 1.45 3.0 1.45 2.75 1.95 2.6 M5.55 -2.1 L5.7 -2.2 5.7 -2.0 5.55 -2.1 M13.4 5.3 L13.4 5.25 13.6 5.3 13.4 5.3 M12.15 -3.85 L10.05 -4.15 10.05 -4.1 9.95 -4.05 10.05 -5.65 11.6 -5.4 11.7 -5.25 12.2 -4.65 12.35 -4.4 12.25 -4.1 12.15 -3.85 M0.05 1.35 L1.1 1.15 0.3 1.65 0.05 1.35" fill="#828282" fill-rule="evenodd" stroke="none"/>
    <path d="M3.0 -26.1 L3.1 -26.3 3.65 -26.55 5.0 -26.65 9.3 -26.45 11.6 -26.35 Q12.35 -26.35 12.7 -25.95 L12.9 -25.35 12.85 -24.9 12.7 -24.5 Q12.95 -23.85 12.85 -22.9 L12.45 -21.15 12.1 -20.45 11.3 -19.75 10.75 -20.1 10.65 -20.25 10.4 -20.75 10.2 -21.35 10.2 -21.4 10.1 -21.55 10.15 -21.9 10.15 -22.2 10.15 -22.25 10.1 -22.6 10.0 -23.8 9.0 -24.1 6.95 -24.15 6.35 -24.05 6.35 -24.0 6.35 -23.45 6.35 -23.15 6.35 -23.05 6.1 -22.45 6.15 -22.3 6.15 -21.85 6.1 -21.55 5.95 -20.15 Q5.95 -19.75 5.65 -19.65 L5.55 -19.6 5.45 -19.6 Q4.4 -19.5 3.6 -20.05 L3.55 -20.1 3.2 -20.35 Q2.75 -20.8 2.8 -21.45 L2.75 -24.75 Q2.6 -25.55 3.0 -26.1 M16.3 -25.6 L16.85 -25.75 Q18.0 -25.85 18.95 -25.25 L19.05 -25.2 19.2 -25.1 19.35 -24.75 19.1 -22.15 18.6 -20.75 18.0 -20.15 18.0 -20.1 17.95 -20.1 17.95 -20.15 17.6 -20.1 17.3 -20.05 Q16.15 -19.85 16.0 -21.0 15.75 -23.05 16.05 -25.0 L16.1 -25.4 16.2 -25.55 16.3 -25.6 M21.65 -16.5 L21.55 -15.65 Q20.75 -15.15 20.0 -15.2 L20.05 -14.85 19.9 -14.9 Q19.4 -15.05 19.3 -15.35 L18.65 -15.75 Q18.6 -18.0 18.95 -20.15 L19.05 -20.6 19.4 -20.95 19.5 -21.45 20.0 -21.55 20.0 -21.75 20.5 -22.1 20.75 -22.2 Q21.9 -21.45 21.65 -19.8 L21.6 -17.65 21.65 -16.5 M20.45 -13.55 L20.5 -9.2 20.45 -9.15 20.3 -9.1 19.75 -9.0 19.55 -9.0 Q19.85 -10.75 19.55 -12.5 L19.65 -12.5 19.7 -12.55 20.1 -12.75 20.15 -12.8 19.8 -13.65 20.05 -13.9 20.1 -13.9 20.45 -13.55 M-6.0 -13.35 L-5.95 -13.4 Q-5.2 -13.05 -5.25 -12.15 L-5.3 -11.8 -5.45 -10.95 -5.6 -10.45 Q-5.65 -10.25 -5.85 -10.2 -6.0 -9.2 -6.4 -8.25 -6.65 -7.65 -7.05 -7.45 L-7.65 -7.35 -7.95 -7.4 -8.15 -7.5 -8.2 -7.55 Q-8.95 -7.9 -8.8 -8.85 L-8.4 -10.45 -8.35 -10.55 -8.3 -10.6 -7.85 -11.2 -7.4 -11.8 -6.15 -13.25 -6.0 -13.35 M2.75 -12.55 L2.75 -12.65 Q3.2 -13.45 4.1 -13.55 L4.15 -13.55 4.25 -14.15 4.2 -13.85 5.5 -12.8 Q5.9 -12.55 6.25 -12.45 L6.05 -8.25 5.95 -7.75 5.65 -7.5 5.35 -7.35 4.7 -7.75 3.65 -8.3 Q3.1 -8.3 2.85 -8.7 L2.8 -8.8 Q2.7 -10.05 2.75 -11.35 L2.75 -12.15 2.75 -12.5 2.75 -12.55 M-12.1 -6.55 L-12.15 -6.7 -12.3 -8.0 -12.25 -8.5 -12.25 -9.25 -12.25 -9.95 -12.1 -9.9 -11.8 -9.85 -11.4 -10.05 -11.0 -9.8 -10.45 -9.85 -10.6 -9.7 -10.8 -9.6 Q-10.5 -9.2 -10.45 -8.5 L-10.6 -7.2 Q-10.8 -6.25 -11.8 -6.35 L-11.95 -6.4 -12.1 -6.55 M-9.85 -8.6 L-9.65 -8.5 -9.45 -6.4 -9.4 -4.0 Q-10.05 -3.55 -9.95 -2.75 L-9.85 -1.55 -9.5 -1.3 -9.35 -1.2 -9.35 -1.1 -12.05 -2.45 -12.1 -3.4 -12.0 -2.65 Q-11.7 -2.05 -11.05 -2.35 L-11.0 -2.45 Q-10.7 -3.7 -10.85 -4.95 L-9.75 -5.0 -9.7 -5.15 -9.85 -5.35 -9.85 -5.65 -9.85 -6.15 -9.95 -6.25 Q-9.7 -7.4 -9.85 -8.6 M-0.9 -11.25 L-0.8 -11.15 Q-0.55 -10.8 -0.65 -10.25 L-1.05 -7.75 Q-1.1 -7.3 -1.45 -7.1 L-1.5 -7.1 -1.7 -7.05 -3.0 -7.15 -3.1 -7.2 -3.45 -7.4 -3.65 -7.8 -3.65 -8.05 -3.65 -8.1 -3.75 -9.1 -3.65 -9.65 -3.6 -9.9 -3.6 -10.15 Q-3.6 -10.85 -2.65 -11.1 L-1.85 -11.25 -1.35 -11.45 -1.35 -11.5 -0.9 -11.25 M-3.95 -4.8 L-3.95 -4.15 Q-3.85 -2.7 -4.15 -1.4 L-4.3 -1.1 -4.5 -1.0 -4.7 -0.9 Q-5.8 -0.65 -6.2 -1.65 L-6.3 -2.0 -6.3 -5.45 Q-5.95 -4.85 -5.3 -4.75 L-3.95 -4.8 M-8.9 -1.2 Q-8.95 -2.05 -8.5 -2.7 L-8.45 -2.75 -8.25 -2.85 -8.1 -2.9 Q-6.9 -2.75 -7.1 -1.45 L-7.15 -0.85 Q-5.45 -0.15 -3.55 0.2 L-3.7 -1.4 -3.7 -1.7 Q-3.4 -2.3 -2.75 -2.4 L-2.5 -2.4 -2.4 -2.5 -2.25 -2.7 -1.85 -2.75 -1.85 -2.8 Q-0.45 -1.5 -1.25 0.65 L-1.35 0.85 Q-1.1 1.3 -1.25 1.85 L-1.35 2.1 -1.5 2.25 -1.55 2.25 Q-2.3 2.4 -3.0 1.95 -3.4 1.75 -3.9 1.7 L-4.8 1.5 -7.55 0.75 Q-8.75 0.4 -8.9 -0.85 L-8.9 -1.2 M16.45 3.6 Q16.15 2.15 16.45 0.65 L16.5 -0.4 Q16.4 -1.85 16.8 -3.15 16.9 -3.35 17.1 -3.35 L17.25 -3.4 Q18.25 -3.25 18.25 -2.15 L18.45 -1.5 18.75 -0.9 20.45 -0.4 20.55 -0.4 20.6 -0.4 20.9 -0.05 Q21.3 1.75 20.45 3.3 L20.3 3.5 Q18.6 4.7 16.7 4.3 L16.55 4.1 16.45 3.6 M12.4 -13.1 L12.4 -8.5 Q12.4 -7.7 12.0 -7.0 L11.7 -6.75 10.3 -6.85 10.1 -7.0 10.05 -7.05 Q9.7 -7.3 9.75 -7.75 L10.05 -9.05 10.05 -9.35 10.05 -9.75 10.05 -9.9 9.9 -10.05 9.95 -10.45 9.95 -10.9 9.95 -11.85 9.9 -13.9 Q11.05 -13.35 12.4 -13.1 M16.5 -13.25 Q17.35 -12.65 18.45 -12.75 L18.5 -8.75 Q18.5 -7.75 17.65 -7.25 17.2 -6.95 16.9 -7.4 L16.85 -7.5 16.85 -8.65 16.8 -9.9 16.75 -10.0 Q16.5 -10.5 16.55 -11.15 L16.5 -12.45 16.5 -13.25 M7.45 -20.25 L7.45 -20.4 7.55 -20.55 7.7 -20.7 8.05 -20.8 8.5 -20.4 8.85 -19.85 Q9.25 -19.05 9.05 -17.95 L9.05 -16.45 Q9.4 -14.4 8.95 -12.4 L8.9 -12.15 8.55 -11.9 8.55 -11.85 8.25 -11.75 7.9 -11.9 Q7.5 -12.1 7.25 -12.5 L7.25 -16.4 7.35 -19.95 7.45 -20.25 M9.3 -6.05 L9.25 -5.5 Q9.05 -2.55 9.15 0.4 9.15 1.25 8.35 1.5 7.75 1.7 7.25 1.25 6.5 0.5 6.65 -0.7 L6.65 -1.05 Q6.6 -3.8 6.8 -6.45 7.15 -6.1 7.8 -5.95 L9.3 -6.05 M3.25 3.7 L3.2 3.65 Q2.85 2.65 2.9 1.5 L2.95 -0.3 3.1 -1.15 Q3.85 -0.65 5.2 -0.85 5.6 -0.65 5.95 -0.55 L6.2 1.5 6.3 1.65 6.75 2.95 Q7.7 3.65 8.95 3.6 8.65 2.65 9.45 2.0 L9.5 2.0 Q9.55 0.4 9.75 -1.15 L9.7 -0.5 9.95 -0.35 12.45 -0.1 12.4 0.45 12.45 3.25 12.4 3.5 12.45 4.1 12.45 4.7 12.45 5.05 12.35 5.45 12.05 5.7 Q10.6 6.6 8.8 6.15 L5.6 5.3 Q4.8 5.1 4.15 4.6 L3.7 4.25 3.35 3.8 3.25 3.7 M21.3 -4.3 L21.45 -2.95 21.4 -2.2 Q20.25 -1.25 19.25 -2.0 L19.15 -1.95 19.15 -2.1 18.8 -2.45 18.8 -4.75 20.65 -4.6 Q20.95 -4.35 21.3 -4.3" fill="#727272" fill-rule="evenodd" stroke="none"/>
    <path d="M4.35 5.4 L3.25 5.0 4.7 5.4 4.35 5.4 M2.3 -17.3 L2.2 -17.5 2.2 -17.75 2.2 -17.95 2.2 -18.6 2.4 -18.55 3.8 -18.4 3.5 -18.0 4.15 -17.5 3.65 -17.4 3.35 -16.9 3.35 -16.55 2.3 -17.3 M1.9 -19.9 L0.1 -20.3 0.15 -20.6 0.15 -20.75 0.15 -20.95 0.2 -21.7 0.2 -21.75 0.25 -24.2 0.3 -24.6 0.4 -25.1 0.45 -25.1 0.45 -25.3 0.45 -25.35 0.55 -25.65 0.8 -25.7 0.85 -25.75 1.85 -25.85 1.75 -25.7 1.75 -25.65 1.75 -25.4 1.7 -25.35 1.7 -24.75 1.8 -21.25 1.9 -19.9 M13.55 -25.95 L13.8 -25.95 15.05 -25.8 14.95 -25.7 14.8 -25.5 14.75 -24.55 14.7 -20.5 13.95 -20.5 13.85 -20.35 13.85 -22.9 13.7 -25.1 13.55 -25.95 M16.25 -25.6 L16.3 -25.6 16.2 -25.55 16.1 -25.4 16.05 -25.0 15.9 -25.65 16.05 -25.65 16.25 -25.6 M-8.3 -10.6 L-8.35 -10.55 -8.4 -10.45 -8.5 -10.5 -8.4 -10.55 -8.3 -10.6 M-8.2 -7.55 L-8.15 -7.5 -7.95 -7.4 -8.2 -7.45 -8.2 -7.55 M-7.65 -7.35 L-7.05 -7.45 -7.05 -7.1 -7.65 -7.35 M-0.4 -11.6 L0.45 -11.8 1.2 -12.0 2.05 -12.3 2.65 -12.5 2.75 -12.5 2.75 -12.15 2.75 -11.35 2.05 -12.3 2.05 -12.25 1.5 -12.0 1.25 -11.4 1.3 -9.85 0.2 -10.7 0.2 -10.85 0.05 -10.95 -0.4 -11.25 -0.7 -11.2 -0.8 -11.15 -0.9 -11.25 -0.25 -11.5 -0.4 -11.6 M3.85 -15.9 L3.45 -16.4 4.4 -16.0 4.3 -15.9 4.25 -15.7 3.85 -15.9 M-9.35 -1.1 L-9.35 -1.2 -9.3 -1.2 -9.05 -1.0 -9.35 -1.1 M-9.4 -4.0 L-9.45 -6.4 -9.45 -6.25 -9.1 -6.05 -8.4 -5.8 -7.9 -5.65 -7.15 -4.8 -7.2 -3.75 -8.95 -4.2 -8.95 -4.15 -9.2 -4.1 -9.3 -4.1 -9.4 -4.0 M-1.45 -7.1 L-1.5 -7.1 -1.45 -7.1 M-3.0 -7.15 L-3.1 -7.15 -3.1 -7.2 -3.0 -7.15 M-3.75 -9.55 L-3.6 -10.15 -3.6 -9.9 -3.65 -9.65 -3.75 -9.55 M-4.8 -7.7 L-4.35 -7.65 -4.35 -7.5 -4.35 -7.2 -4.4 -7.3 -4.8 -7.7 M-4.3 -1.1 L-4.3 -0.95 -4.7 -0.9 -4.5 -1.0 -4.3 -1.1 M-5.7 -7.35 L-5.65 -7.8 -5.25 -7.75 -5.6 -7.6 -5.65 -7.35 -5.7 -7.35 M-1.2 2.2 L-1.15 2.35 -1.35 2.3 -1.2 2.2 M-0.3 2.6 L-0.2 2.45 -0.1 2.25 -0.2 0.75 -0.3 -0.15 0.8 -0.45 0.8 -0.6 1.4 -1.2 1.05 -1.6 0.95 -1.7 -0.15 -2.0 -0.15 -2.15 -0.25 -2.3 Q-1.2 -4.0 -3.05 -3.8 L-3.05 -4.15 -2.4 -4.45 -2.4 -4.9 -2.4 -5.05 -2.05 -5.4 Q-0.8 -4.9 0.0 -5.65 L0.05 -6.1 0.05 -7.6 1.3 -7.95 1.3 -6.95 1.65 -6.7 Q2.35 -6.4 3.0 -6.05 5.15 -4.95 5.6 -6.5 5.55 -5.05 5.65 -3.55 L5.15 -3.6 5.15 -3.7 5.15 -4.0 5.15 -4.45 1.4 -4.75 0.7 -4.6 -0.15 -5.0 -0.5 -4.45 -0.65 -4.2 -0.7 -4.15 1.45 -3.4 3.05 -3.15 2.4 -2.95 Q1.85 -1.95 1.8 -0.7 1.75 1.0 1.95 2.6 L1.45 2.75 1.45 3.0 1.6 3.2 -0.3 2.6 M15.4 -16.3 L15.3 -14.3 15.25 -12.9 15.2 -12.85 15.25 -12.8 15.2 -11.05 13.9 -11.25 13.35 -11.35 13.35 -13.8 14.1 -14.15 14.5 -14.6 14.15 -15.1 13.3 -15.5 13.15 -17.6 13.0 -17.75 12.35 -18.1 12.05 -18.0 11.85 -17.9 11.75 -17.8 10.55 -18.0 10.65 -18.15 10.75 -18.45 10.9 -18.55 12.7 -18.8 Q12.9 -18.0 13.4 -17.35 L13.6 -17.0 Q14.5 -16.5 15.4 -16.3 M15.2 -7.55 L15.2 -6.2 15.35 -6.05 Q15.7 -5.8 16.1 -5.65 L15.7 -5.3 15.5 -5.1 15.45 -4.9 15.35 -4.45 15.55 -4.15 15.45 -4.05 15.4 -3.1 15.3 -1.7 13.6 -1.75 13.3 -1.7 13.25 -2.45 13.1 -2.6 13.0 -2.7 13.0 -2.8 13.15 -3.15 13.05 -3.3 12.15 -3.85 12.25 -4.1 12.35 -4.4 12.2 -4.65 11.7 -5.25 11.6 -5.4 13.05 -5.5 13.2 -5.8 13.3 -7.25 15.2 -7.55 M15.25 -0.4 L15.3 1.4 14.9 1.55 Q14.1 1.9 13.45 2.45 L13.4 0.45 Q14.35 0.25 15.25 -0.4 M15.45 3.1 L15.5 3.65 15.95 3.75 16.35 3.65 16.45 3.6 16.55 4.1 16.7 4.3 14.5 5.2 14.4 5.25 13.9 5.25 13.6 5.3 13.4 5.25 13.45 2.8 15.45 3.1 M10.65 -20.25 L10.75 -20.1 10.65 -20.1 10.65 -20.25 M10.15 -22.25 L10.15 -22.2 10.0 -22.3 10.15 -22.25 M6.15 -22.3 L6.4 -22.0 6.15 -21.85 6.15 -22.3 M3.6 -20.05 L3.55 -20.05 3.55 -20.1 3.6 -20.05 M10.3 -6.85 L10.1 -6.8 10.1 -7.0 10.3 -6.85 M10.05 -9.35 L9.95 -9.4 10.0 -9.6 10.05 -9.75 10.05 -9.35 M9.95 -10.45 L9.85 -10.65 9.9 -10.7 9.95 -10.9 9.95 -10.45 M16.9 -7.4 L16.8 -7.45 16.8 -7.55 16.8 -8.6 16.85 -8.65 16.85 -7.5 16.9 -7.4 M8.5 -20.4 L8.05 -20.8 7.7 -20.7 7.55 -20.55 7.45 -20.4 7.45 -20.25 7.15 -20.25 7.15 -20.6 7.6 -20.85 8.15 -21.05 8.8 -21.05 9.1 -20.9 9.0 -20.5 8.5 -20.4 M7.25 -16.4 L7.25 -12.5 Q7.5 -12.1 7.9 -11.9 L7.25 -11.7 7.2 -16.4 7.25 -16.4 M8.55 -11.85 L8.55 -11.9 8.9 -12.15 8.95 -12.4 9.05 -11.65 8.55 -11.85 M5.65 -7.5 L5.6 -6.75 Q4.25 -7.7 2.85 -8.15 L2.85 -8.7 Q3.1 -8.3 3.65 -8.3 L4.7 -7.75 5.35 -7.35 5.65 -7.5 M2.05 3.25 L2.05 3.35 1.8 3.25 2.05 3.25 M9.9 -2.55 L9.9 -2.65 9.95 -2.6 9.9 -2.55 M0.05 1.35 L0.3 1.65 1.1 1.15 0.05 1.35" fill="#666666" fill-rule="evenodd" stroke="none"/>
    <path d="M21.85 -8.15 Q22.95 -6.8 22.65 -4.6 L22.25 -2.0 Q22.15 -1.35 21.85 -1.15 L21.35 -1.1 21.15 -0.8 21.05 -0.65 20.6 -0.45 20.45 -0.4 18.75 -0.9 18.45 -1.5 18.25 -2.15 Q18.25 -3.25 17.25 -3.4 L17.1 -3.35 Q16.9 -3.35 16.8 -3.15 16.4 -1.85 16.5 -0.4 L16.45 0.65 Q16.15 2.15 16.45 3.6 L16.35 3.65 15.95 3.75 15.5 3.65 15.45 3.1 15.3 1.4 15.25 -0.4 15.3 -1.7 15.4 -3.1 15.45 -4.05 15.55 -4.15 Q16.25 -4.95 17.45 -4.9 L17.45 -5.7 16.1 -5.65 Q15.7 -5.8 15.35 -6.05 L15.2 -6.2 15.2 -7.55 15.2 -11.05 15.25 -12.8 15.25 -12.9 15.3 -14.3 15.4 -16.3 15.45 -17.0 15.6 -17.2 15.8 -17.4 16.2 -17.5 16.25 -17.55 Q17.2 -17.8 17.9 -17.55 L17.95 -19.45 17.85 -19.3 17.7 -19.15 Q16.95 -19.0 16.15 -19.15 L15.45 -18.8 Q14.9 -18.85 14.7 -19.35 L14.7 -20.5 14.75 -24.55 14.8 -25.5 14.95 -25.7 15.05 -25.8 15.15 -25.9 15.2 -25.9 15.8 -25.85 15.9 -25.7 15.9 -25.65 16.05 -25.0 Q15.75 -23.05 16.0 -21.0 16.15 -19.85 17.3 -20.05 L17.6 -20.1 17.95 -20.15 17.95 -20.1 18.0 -20.05 18.0 -20.1 18.0 -20.15 18.6 -20.75 19.1 -22.15 19.35 -24.75 19.2 -25.1 19.05 -25.2 19.05 -25.25 19.15 -25.4 19.55 -25.5 19.6 -25.5 20.0 -25.25 20.15 -25.15 20.3 -25.0 20.4 -24.55 20.4 -23.0 20.3 -22.6 20.4 -22.55 20.55 -22.45 20.6 -22.35 21.4 -22.45 21.4 -22.5 22.0 -22.15 22.15 -22.0 22.2 -21.8 21.65 -16.5 21.6 -17.65 21.65 -19.8 Q21.9 -21.45 20.75 -22.2 L20.5 -22.1 20.0 -21.75 20.0 -21.55 19.5 -21.45 19.4 -20.95 19.05 -20.6 18.95 -20.15 Q18.6 -18.0 18.65 -15.75 L19.3 -15.35 Q19.4 -15.05 19.9 -14.9 L20.05 -14.85 20.0 -15.2 Q20.75 -15.15 21.55 -15.65 L21.2 -13.5 20.45 -13.55 20.1 -13.9 20.05 -13.9 19.8 -13.65 19.6 -13.55 19.35 -13.6 19.55 -12.5 Q19.85 -10.75 19.55 -9.0 L19.75 -9.0 20.5 -8.8 20.65 -8.65 20.8 -8.75 21.15 -8.85 21.85 -8.15 M2.2 -18.6 L2.05 -18.75 1.9 -19.9 1.8 -21.25 1.7 -24.75 1.7 -25.35 1.75 -25.4 1.75 -25.65 1.75 -25.7 1.85 -25.85 1.85 -25.9 2.1 -26.25 2.9 -26.2 3.0 -26.1 Q2.6 -25.55 2.75 -24.75 L2.8 -21.45 Q2.75 -20.8 3.2 -20.35 L3.55 -20.1 3.55 -20.05 3.6 -20.05 Q4.4 -19.5 5.45 -19.6 L5.55 -19.6 5.65 -19.55 5.65 -19.65 Q5.95 -19.75 5.95 -20.15 L6.1 -21.55 6.15 -21.85 6.4 -22.0 6.15 -22.3 6.1 -22.45 6.35 -23.05 6.35 -23.15 6.35 -23.45 6.35 -24.0 6.35 -24.05 6.95 -24.15 9.0 -24.1 10.0 -23.8 10.1 -22.6 10.0 -22.3 10.15 -22.2 10.15 -21.9 10.1 -21.55 10.2 -21.4 10.2 -21.35 10.4 -20.75 10.65 -20.25 10.65 -20.1 10.75 -20.1 11.3 -19.75 12.1 -20.45 12.45 -21.15 12.85 -22.9 Q12.95 -23.85 12.7 -24.5 L12.85 -24.9 12.9 -25.35 12.7 -25.95 13.55 -25.95 13.7 -25.1 13.85 -22.9 13.85 -20.35 13.75 -19.45 13.65 -19.25 12.7 -18.8 10.9 -18.55 10.35 -18.65 10.3 -18.0 10.55 -18.0 11.75 -17.8 11.85 -17.9 12.05 -18.0 12.35 -18.1 13.0 -17.75 13.15 -17.6 13.3 -15.5 13.35 -13.8 13.35 -11.35 13.3 -7.25 13.2 -5.8 13.05 -5.5 11.6 -5.4 10.05 -5.65 9.95 -4.05 10.05 -4.1 10.05 -4.15 12.15 -3.85 13.05 -3.3 13.15 -3.15 13.0 -2.8 13.0 -2.7 13.1 -2.6 13.25 -2.45 13.3 -1.7 13.4 0.45 13.45 2.45 13.45 2.8 13.4 5.25 13.4 5.3 13.4 5.65 13.25 6.0 Q12.9 6.25 12.45 6.0 L12.35 5.45 12.45 5.05 12.45 4.7 12.45 4.1 12.4 3.5 12.45 3.25 12.4 0.45 12.45 -0.1 12.45 -2.05 12.35 -2.3 Q11.65 -2.85 10.6 -2.7 L9.95 -2.6 9.9 -2.65 9.9 -2.55 Q9.7 -2.45 9.65 -2.15 L9.75 -1.9 9.8 -1.85 9.75 -1.15 Q9.55 0.4 9.5 2.0 L9.45 2.0 Q8.65 2.65 8.95 3.6 7.7 3.65 6.75 2.95 L6.3 1.65 6.2 1.5 5.95 -0.55 5.9 -0.85 5.8 -1.5 5.9 -1.85 5.85 -1.9 5.7 -2.0 5.7 -2.2 5.55 -2.1 5.0 -2.4 3.9 -2.15 3.6 -1.9 3.5 -1.85 3.1 -1.15 2.95 -0.3 2.9 1.5 Q2.85 2.65 3.2 3.65 L3.25 3.7 3.2 3.7 2.85 3.85 2.2 3.5 2.05 3.35 2.05 3.25 1.95 2.6 Q1.75 1.0 1.8 -0.7 1.85 -1.95 2.4 -2.95 L3.05 -3.15 4.9 -3.6 5.15 -3.6 5.65 -3.55 Q5.55 -5.05 5.6 -6.5 5.15 -4.95 3.0 -6.05 2.35 -6.4 1.65 -6.7 L1.3 -6.95 1.3 -7.95 1.3 -9.85 1.25 -11.4 1.5 -12.0 2.05 -12.25 2.05 -12.3 2.75 -11.35 Q2.7 -10.05 2.8 -8.8 L2.85 -8.7 2.85 -8.15 Q4.25 -7.7 5.6 -6.75 L5.65 -7.5 5.95 -7.75 6.05 -8.25 6.25 -12.45 6.0 -16.1 5.85 -16.25 5.35 -16.55 Q4.8 -16.45 4.4 -16.0 L3.45 -16.4 3.35 -16.5 3.35 -16.55 3.35 -16.9 3.65 -17.4 4.15 -17.5 5.4 -17.8 5.65 -17.8 5.65 -18.45 5.15 -18.35 3.8 -18.4 2.4 -18.55 2.2 -18.6 M-8.4 -10.45 L-8.8 -8.85 Q-8.95 -7.9 -8.2 -7.55 L-8.2 -7.45 -7.95 -7.4 -7.65 -7.35 -7.05 -7.1 -7.05 -7.45 Q-6.65 -7.65 -6.4 -8.25 -6.0 -9.2 -5.85 -10.2 -5.65 -10.25 -5.6 -10.45 L-5.45 -10.95 -5.3 -11.8 -5.25 -12.15 -5.05 -11.9 -5.05 -11.8 Q-4.35 -12.05 -3.85 -11.5 L-1.05 -12.0 -0.4 -11.6 -0.25 -11.5 -0.9 -11.25 -1.35 -11.5 -1.35 -11.45 -1.85 -11.25 -2.65 -11.1 Q-3.6 -10.85 -3.6 -10.15 L-3.75 -9.55 -3.75 -9.1 -3.65 -8.1 -3.65 -8.05 -3.65 -7.8 -3.45 -7.4 -3.1 -7.2 -3.1 -7.15 -3.0 -7.15 -1.7 -7.05 -1.5 -7.1 -1.45 -7.1 Q-1.1 -7.3 -1.05 -7.75 L-0.65 -10.25 Q-0.55 -10.8 -0.8 -11.15 L-0.7 -11.2 -0.4 -11.25 0.05 -10.95 0.2 -10.85 0.2 -10.7 Q0.0 -9.2 0.05 -7.6 L0.05 -6.1 0.0 -5.65 Q-0.8 -4.9 -2.05 -5.4 L-2.15 -5.45 Q-2.6 -5.7 -3.1 -5.75 L-3.05 -4.15 -3.05 -3.8 Q-1.2 -4.0 -0.25 -2.3 L-0.15 -2.15 -0.15 -2.0 -0.3 -0.15 -0.2 0.75 -0.1 2.25 -0.2 2.45 -0.3 2.6 -0.7 2.65 -1.0 2.6 -1.15 2.5 -1.15 2.35 -1.2 2.2 -1.25 1.85 Q-1.1 1.3 -1.35 0.85 L-1.25 0.65 Q-0.45 -1.5 -1.85 -2.8 L-1.85 -2.75 -2.25 -2.7 -2.4 -2.5 -2.5 -2.4 -2.75 -2.4 Q-3.4 -2.3 -3.7 -1.7 L-3.7 -1.4 -3.55 0.2 Q-5.45 -0.15 -7.15 -0.85 L-7.1 -1.45 Q-6.9 -2.75 -8.1 -2.9 L-8.25 -2.85 -8.45 -2.75 -8.5 -2.7 Q-8.95 -2.05 -8.9 -1.2 L-9.15 -1.15 -9.3 -1.2 -9.35 -1.2 -9.5 -1.3 -9.85 -1.55 -9.95 -2.75 Q-10.05 -3.55 -9.4 -4.0 L-9.3 -4.1 -9.2 -4.1 -8.95 -4.15 -8.95 -4.2 -7.2 -3.75 -7.15 -4.8 -7.15 -5.65 -7.9 -5.65 -8.4 -5.8 -9.1 -6.05 -9.45 -6.25 -9.45 -6.4 -9.65 -8.5 -9.6 -9.5 -9.6 -9.8 -9.35 -10.15 -9.2 -10.35 -9.05 -10.5 -9.0 -10.5 -8.75 -10.55 -8.75 -10.6 -8.5 -10.5 -8.4 -10.45 M-10.6 -9.7 L-10.4 -9.8 -10.4 -9.85 -10.15 -9.75 -9.85 -8.6 Q-9.7 -7.4 -9.95 -6.25 L-10.15 -5.65 Q-10.2 -5.55 -10.4 -5.5 L-10.9 -5.35 -10.85 -4.95 Q-10.7 -3.7 -11.0 -2.45 L-11.05 -2.35 Q-11.7 -2.05 -12.0 -2.65 L-12.1 -3.4 -12.25 -5.85 -12.2 -6.15 -12.05 -6.25 -11.95 -6.4 -11.8 -6.35 Q-10.8 -6.25 -10.6 -7.2 L-10.45 -8.5 Q-10.5 -9.2 -10.8 -9.6 L-10.6 -9.7 M-4.35 -7.2 L-4.35 -7.5 -4.35 -7.65 -4.8 -7.7 -5.15 -7.85 -5.25 -7.75 -5.65 -7.8 -5.7 -7.35 Q-6.25 -7.0 -6.3 -6.2 L-6.3 -5.45 -6.3 -2.0 -6.2 -1.65 Q-5.8 -0.65 -4.7 -0.9 L-4.3 -0.95 -4.3 -1.1 -4.15 -1.4 Q-3.85 -2.7 -3.95 -4.15 L-3.95 -4.8 -3.95 -5.8 Q-3.9 -6.55 -4.25 -6.9 L-4.3 -7.1 -4.35 -7.2 M12.4 -13.1 L12.35 -14.4 12.4 -15.4 Q12.6 -16.7 11.45 -16.95 L10.55 -16.65 Q10.1 -16.45 10.0 -16.05 L9.9 -16.0 9.85 -15.9 9.85 -15.25 9.9 -13.9 9.95 -11.85 9.95 -10.9 9.9 -10.7 9.85 -10.65 9.95 -10.45 9.9 -10.05 10.05 -9.9 10.05 -9.75 10.0 -9.6 9.95 -9.4 10.05 -9.35 10.05 -9.05 9.75 -7.75 Q9.7 -7.3 10.05 -7.05 L10.1 -7.0 10.1 -6.8 10.3 -6.85 11.7 -6.75 12.0 -7.0 Q12.4 -7.7 12.4 -8.5 L12.4 -13.1 M18.45 -12.75 L18.3 -15.3 18.15 -15.45 17.9 -15.6 17.9 -16.0 17.55 -15.9 17.15 -16.15 16.9 -16.1 16.7 -15.9 Q16.45 -14.6 16.5 -13.25 L16.5 -12.45 16.55 -11.15 Q16.5 -10.5 16.75 -10.0 L16.8 -8.6 16.8 -7.55 16.8 -7.45 16.9 -7.4 Q17.2 -6.95 17.65 -7.25 18.5 -7.75 18.5 -8.75 L18.45 -12.75 M9.0 -20.5 L9.1 -20.9 8.8 -21.05 8.15 -21.05 7.6 -20.85 7.15 -20.6 7.15 -20.25 7.2 -16.4 7.25 -11.7 7.9 -11.9 8.25 -11.75 8.55 -11.85 9.05 -11.65 8.95 -12.4 Q9.4 -14.4 9.05 -16.45 L9.05 -17.95 Q9.25 -19.05 8.85 -19.85 L9.0 -20.5 M9.3 -6.05 L9.1 -8.0 9.3 -8.35 Q9.45 -9.5 8.3 -9.6 L8.25 -9.65 8.25 -9.6 7.95 -9.65 7.5 -9.4 Q6.85 -8.3 6.8 -7.0 L6.8 -6.85 6.8 -6.45 Q6.6 -3.8 6.65 -1.05 L6.65 -0.7 Q6.5 0.5 7.25 1.25 7.75 1.7 8.35 1.5 9.15 1.25 9.15 0.4 9.05 -2.55 9.25 -5.5 L9.3 -6.05 M21.3 -4.3 L21.15 -6.8 21.0 -7.1 20.95 -7.25 20.3 -7.45 20.3 -7.6 19.95 -7.45 19.8 -7.5 19.45 -7.65 19.2 -7.55 19.05 -7.5 18.9 -7.35 18.8 -7.2 18.8 -6.25 18.8 -4.75 18.8 -2.45 19.15 -2.1 19.15 -1.95 19.25 -2.0 Q20.25 -1.25 21.4 -2.2 L21.45 -2.95 21.3 -4.3" fill="#505050" fill-rule="evenodd" stroke="none"/>
    <path d="M-4.35 -7.2 L-4.3 -7.1 -4.25 -6.9 Q-3.9 -6.55 -3.95 -5.8 L-3.95 -4.8 -5.3 -4.75 Q-5.95 -4.85 -6.3 -5.45 L-6.3 -6.2 Q-6.25 -7.0 -5.7 -7.35 L-5.65 -7.35 -5.6 -7.6 -5.25 -7.75 -5.15 -7.85 -4.8 -7.7 -4.4 -7.3 -4.35 -7.2 M9.9 -13.9 L9.85 -15.25 9.85 -15.9 9.9 -16.0 10.0 -16.05 Q10.1 -16.45 10.55 -16.65 L11.45 -16.95 Q12.6 -16.7 12.4 -15.4 L12.35 -14.4 12.4 -13.1 Q11.05 -13.35 9.9 -13.9 M16.5 -13.25 Q16.45 -14.6 16.7 -15.9 L16.9 -16.1 17.15 -16.15 17.55 -15.9 17.9 -16.0 17.9 -15.6 18.15 -15.45 18.3 -15.3 18.45 -12.75 Q17.35 -12.65 16.5 -13.25 M4.25 -15.7 L4.3 -15.9 4.4 -16.0 Q4.8 -16.45 5.35 -16.55 L5.85 -16.25 6.0 -16.1 6.25 -12.45 Q5.9 -12.55 5.5 -12.8 L4.2 -13.85 4.25 -14.15 4.25 -15.05 4.25 -15.2 4.2 -15.4 4.25 -15.7 M6.8 -6.45 L6.8 -6.85 6.8 -7.0 Q6.85 -8.3 7.5 -9.4 L7.95 -9.65 8.25 -9.6 8.25 -9.65 8.3 -9.6 Q9.45 -9.5 9.3 -8.35 L9.1 -8.0 9.3 -6.05 7.8 -5.95 Q7.15 -6.1 6.8 -6.45 M3.1 -1.15 L3.5 -1.85 3.6 -1.9 3.9 -2.15 5.0 -2.4 5.55 -2.1 5.7 -2.0 5.85 -1.9 5.9 -1.85 5.8 -1.5 5.9 -0.85 5.95 -0.55 Q5.6 -0.65 5.2 -0.85 3.85 -0.65 3.1 -1.15 M9.75 -1.15 L9.8 -1.85 9.75 -1.9 9.65 -2.15 Q9.7 -2.45 9.9 -2.55 L9.95 -2.6 10.6 -2.7 Q11.65 -2.85 12.35 -2.3 L12.45 -2.05 12.45 -0.1 9.95 -0.35 9.7 -0.5 9.75 -1.15 M18.8 -4.75 L18.8 -6.25 18.8 -7.2 18.9 -7.35 19.05 -7.5 19.2 -7.55 19.45 -7.65 19.8 -7.5 19.95 -7.45 20.3 -7.6 20.3 -7.45 20.95 -7.25 21.0 -7.1 21.15 -6.8 21.3 -4.3 Q20.95 -4.35 20.65 -4.6 L18.8 -4.75" fill="#8c8c8c" fill-rule="evenodd" stroke="none"/>
  </g>
</svg>
