<?xml version="1.0" encoding="UTF-8" standalone="no"?>
<svg xmlns:xlink="http://www.w3.org/1999/xlink" height="34.25px" width="15.2px" xmlns="http://www.w3.org/2000/svg">
  <g transform="matrix(1.0, 0.0, 0.0, 1.0, 5.65, 16.05)">
    <path d="M1.15 -13.3 L-0.6 -13.6 -0.15 -7.85 0.55 -0.3 1.2 -0.45 Q2.35 -1.8 4.15 -2.65 5.3 -3.2 6.55 -3.55 L2.05 -6.2 Q0.9 -6.8 0.2 -7.9 L2.4 -10.3 4.65 -12.45 1.15 -13.3 M7.35 -13.15 L7.35 -12.8 7.2 -12.45 6.75 -11.9 6.65 -11.85 6.1 -11.7 4.45 -10.0 2.45 -8.0 Q3.9 -6.4 6.7 -4.9 8.15 -4.15 9.1 -3.0 6.0 -1.85 3.05 -0.15 L1.75 0.9 6.3 3.45 Q7.45 4.1 8.2 5.0 L8.2 5.35 8.05 5.65 7.9 5.9 Q4.7 5.6 2.75 7.9 L2.55 8.15 7.8 11.3 Q9.25 12.35 9.55 13.7 6.5 15.4 2.95 16.65 L2.0 17.05 2.1 17.3 2.1 17.6 Q-1.3 19.1 -5.25 16.7 L-5.65 -9.35 Q-5.65 -12.25 -5.25 -15.05 L-4.45 -15.7 Q-2.95 -15.45 -1.8 -16.05 L-1.35 -16.0 -0.8 -15.8 -0.7 -14.95 7.2 -13.35 7.35 -13.15 M0.75 1.85 L1.25 7.35 3.6 5.75 5.3 4.55 Q3.45 3.25 1.35 2.2 L0.75 1.85 M1.5 10.2 L1.75 15.15 Q3.55 13.9 5.95 13.4 L7.35 12.9 Q5.9 11.2 3.75 10.3 L1.4 9.0 1.5 10.2 M-4.35 -13.7 Q-4.55 -0.3 -3.9 13.0 L-3.9 15.35 Q-2.65 16.7 0.0 15.9 -1.65 2.65 -2.3 -10.8 L-2.25 -13.7 Q-3.3 -14.1 -4.35 -13.7" fill="#000000" fill-rule="evenodd" stroke="none"/>
    <path d="M1.15 -13.3 L4.65 -12.45 2.4 -10.3 0.2 -7.9 Q0.9 -6.8 2.05 -6.2 L6.55 -3.55 Q5.3 -3.2 4.15 -2.65 2.35 -1.8 1.2 -0.45 L0.55 -0.3 -0.15 -7.85 -0.6 -13.6 1.15 -13.3 M-4.35 -13.7 Q-3.3 -14.1 -2.25 -13.7 L-2.3 -10.8 Q-1.65 2.65 0.0 15.9 -2.65 16.7 -3.9 15.35 L-3.9 13.0 Q-4.55 -0.3 -4.35 -13.7 M1.5 10.2 L1.4 9.0 3.75 10.3 Q5.9 11.2 7.35 12.9 L5.95 13.4 Q3.55 13.9 1.75 15.15 L1.5 10.2 M0.75 1.85 L1.35 2.2 Q3.45 3.25 5.3 4.55 L3.6 5.75 1.25 7.35 0.75 1.85" fill="#ac7c2d" fill-rule="evenodd" stroke="none"/>
  </g>
</svg>
