<?xml version="1.0" encoding="UTF-8" standalone="no"?>
<svg xmlns:xlink="http://www.w3.org/1999/xlink" height="33.2px" width="25.05px" xmlns="http://www.w3.org/2000/svg">
  <g transform="matrix(1.0, 0.0, 0.0, 1.0, 12.05, 16.7)">
    <path d="M10.9 -5.45 L10.95 -6.65 9.8 -6.1 10.9 -5.45 M5.55 -4.35 L5.4 -1.35 5.45 -1.0 Q8.25 2.2 10.7 -1.25 L10.8 -3.3 10.0 -4.55 6.2 -5.0 5.9 -4.7 5.55 -4.35 M3.65 -5.35 L3.2 -6.0 3.1 -7.6 -2.7 -7.35 -1.35 9.35 Q1.3 10.15 4.1 9.35 L3.65 -5.35 M4.65 -8.3 L4.75 -6.6 5.2 -5.6 6.4 -6.35 4.65 -8.3 M7.3 -7.4 L9.55 -7.35 10.9 -8.0 11.0 -8.05 11.05 -10.85 Q9.7 -12.75 7.45 -13.15 3.3 -9.75 7.3 -7.4 M8.25 -14.7 L6.9 -14.6 -6.05 -12.6 Q-4.85 -11.85 -4.2 -10.15 -3.5 -8.2 -4.05 -6.35 L-5.85 -5.3 -3.2 -3.2 -3.6 -7.9 4.0 -8.8 4.45 -8.6 Q4.25 -9.2 4.35 -9.75 4.9 -13.35 8.25 -14.7 M11.1 -12.4 L11.1 -14.35 8.95 -14.7 9.95 -14.45 10.1 -14.4 10.2 -14.25 10.35 -13.9 8.35 -13.5 11.1 -12.4 M12.25 -11.45 L13.0 -10.6 Q11.8 -7.25 11.95 -3.75 12.05 -0.4 11.75 2.9 11.35 7.7 12.2 12.35 L11.65 16.45 -3.25 15.75 -8.5 15.35 Q-9.75 15.35 -10.5 14.45 L-11.3 2.8 -12.05 -11.2 -11.95 -13.9 -6.85 -14.25 Q-1.85 -14.9 3.0 -16.1 7.8 -17.4 12.35 -15.95 L12.25 -11.45 M-9.25 9.55 Q-9.75 9.75 -9.3 9.65 L-9.25 9.55 M-8.35 9.75 L-8.9 11.8 -8.5 13.0 -6.35 13.5 -4.6 12.55 Q-3.7 10.8 -4.6 9.4 L-5.05 8.9 -5.3 9.3 -6.4 9.45 -8.35 9.75 M-10.05 1.05 L-9.9 3.1 -8.85 2.05 -10.05 1.05 M-7.8 2.55 L-9.25 4.1 -9.15 8.1 Q-7.45 8.65 -5.8 7.7 L-5.5 7.25 Q-4.45 5.55 -5.15 3.55 L-7.8 2.55 M-8.8 -12.6 L-10.95 -12.5 -10.7 -9.15 Q-10.4 -11.25 -8.8 -12.6 M-5.15 -3.45 Q-6.5 -3.6 -7.35 -4.15 L-6.25 -4.45 -8.35 -4.55 Q-9.5 -3.0 -9.6 -0.9 L-9.6 -0.55 Q-6.2 3.65 -4.05 -1.9 -4.15 -2.8 -5.15 -3.45 M-4.8 -6.7 L-4.6 -7.8 Q-4.4 -10.5 -6.8 -11.8 L-8.15 -11.8 Q-10.1 -9.65 -9.8 -6.8 -7.4 -4.9 -4.8 -6.7 M-10.5 -6.0 L-10.35 -3.8 -9.1 -5.3 -10.5 -6.0 M9.0 10.0 Q6.6 10.25 5.1 12.1 L5.2 13.8 6.0 14.3 Q8.8 15.8 10.45 13.25 L10.3 11.1 9.0 10.0 M5.95 10.05 L8.35 9.1 5.8 8.9 5.95 10.05 M4.0 12.35 L4.8 11.0 -0.8 10.9 -1.35 11.25 -2.15 11.1 -3.0 -0.9 -5.45 2.05 -4.8 2.6 Q-2.55 5.0 -4.4 7.8 L-3.55 8.95 -3.25 9.55 Q-2.35 12.3 -4.4 13.85 L4.95 14.9 4.3 14.35 4.0 12.35 M8.1 2.1 L6.65 2.1 Q5.75 3.25 5.35 4.55 L5.6 7.55 Q8.4 9.15 10.2 5.45 10.05 3.25 8.1 2.1 M5.15 0.55 L5.2 2.1 5.9 1.3 5.15 0.55 M10.55 2.75 L10.5 0.9 9.45 1.75 10.55 2.75 M10.4 9.25 L10.45 7.7 9.45 8.6 10.4 9.25" fill="#000000" fill-rule="evenodd" stroke="none"/>
    <path d="M11.1 -12.4 L8.35 -13.5 10.35 -13.9 10.2 -14.25 10.1 -14.4 9.95 -14.45 8.95 -14.7 11.1 -14.35 11.1 -12.4 M8.25 -14.7 Q4.9 -13.35 4.35 -9.75 4.25 -9.2 4.45 -8.6 L4.0 -8.8 -3.6 -7.9 -3.2 -3.2 -5.85 -5.3 -4.05 -6.35 Q-3.5 -8.2 -4.2 -10.15 -4.85 -11.85 -6.05 -12.6 L6.9 -14.6 8.25 -14.7 M7.3 -7.4 Q3.3 -9.75 7.45 -13.15 9.7 -12.75 11.05 -10.85 L11.0 -8.05 10.9 -8.0 9.55 -7.35 7.3 -7.4 M4.65 -8.3 L6.4 -6.35 5.2 -5.6 4.75 -6.6 4.65 -8.3 M3.65 -5.35 L4.1 9.35 Q1.3 10.15 -1.35 9.35 L-2.7 -7.35 3.1 -7.6 3.2 -6.0 3.65 -5.35 M5.55 -4.35 L5.9 -4.7 6.2 -5.0 10.0 -4.55 10.8 -3.3 10.7 -1.25 Q8.25 2.2 5.45 -1.0 L5.4 -1.35 5.55 -4.35 M10.9 -5.45 L9.8 -6.1 10.95 -6.65 10.9 -5.45 M10.4 9.25 L9.45 8.6 10.45 7.7 10.4 9.25 M10.55 2.75 L9.45 1.75 10.5 0.9 10.55 2.75 M5.15 0.55 L5.9 1.3 5.2 2.1 5.15 0.55 M8.1 2.1 Q10.05 3.25 10.2 5.45 8.4 9.15 5.6 7.55 L5.35 4.55 Q5.75 3.25 6.65 2.1 L8.1 2.1 M4.0 12.35 L4.3 14.35 4.95 14.9 -4.4 13.85 Q-2.35 12.3 -3.25 9.55 L-3.55 8.95 -4.4 7.8 Q-2.55 5.0 -4.8 2.6 L-5.45 2.05 -3.0 -0.9 -2.15 11.1 -1.35 11.25 -0.8 10.9 4.8 11.0 4.0 12.35 M5.95 10.05 L5.8 8.9 8.35 9.1 5.95 10.05 M9.0 10.0 L10.3 11.1 10.45 13.25 Q8.8 15.8 6.0 14.3 L5.2 13.8 5.1 12.1 Q6.6 10.25 9.0 10.0 M-10.5 -6.0 L-9.1 -5.3 -10.35 -3.8 -10.5 -6.0 M-4.8 -6.7 Q-7.4 -4.9 -9.8 -6.8 -10.1 -9.65 -8.15 -11.8 L-6.8 -11.8 Q-4.4 -10.5 -4.6 -7.8 L-4.8 -6.7 M-5.15 -3.45 Q-4.15 -2.8 -4.05 -1.9 -6.2 3.65 -9.6 -0.55 L-9.6 -0.9 Q-9.5 -3.0 -8.35 -4.55 L-6.25 -4.45 -7.35 -4.15 Q-6.5 -3.6 -5.15 -3.45 M-8.8 -12.6 Q-10.4 -11.25 -10.7 -9.15 L-10.95 -12.5 -8.8 -12.6 M-7.8 2.55 L-5.15 3.55 Q-4.45 5.55 -5.5 7.25 L-5.8 7.7 Q-7.45 8.65 -9.15 8.1 L-9.25 4.1 -7.8 2.55 M-10.05 1.05 L-8.85 2.05 -9.9 3.1 -10.05 1.05 M-8.35 9.75 L-6.4 9.45 -5.3 9.3 -5.05 8.9 -4.6 9.4 Q-3.7 10.8 -4.6 12.55 L-6.35 13.5 -8.5 13.0 -8.9 11.8 -8.35 9.75 M-9.25 9.55 L-9.3 9.65 Q-9.75 9.75 -9.25 9.55" fill="#ac7c2d" fill-rule="evenodd" stroke="none"/>
  </g>
</svg>
