<?xml version="1.0" encoding="UTF-8" standalone="no"?>
<svg xmlns:xlink="http://www.w3.org/1999/xlink" height="47.1px" width="43.2px" xmlns="http://www.w3.org/2000/svg">
  <g transform="matrix(1.0, 0.0, 0.0, 1.0, 21.7, 37.75)">
    <path d="M17.7 -28.0 Q18.85 -24.75 19.25 -21.2 19.6 -17.85 17.5 -15.4 15.0 -12.5 11.3 -11.1 L8.05 -10.85 Q2.5 -12.25 -2.2 -15.65 -8.05 -19.8 -7.5 -26.65 -7.3 -28.7 -6.3 -30.35 -3.5 -34.9 1.8 -36.2 8.45 -37.25 14.0 -33.15 16.55 -31.3 17.7 -28.0 M16.25 -9.7 L12.45 -7.65 12.0 -7.75 Q5.55 -6.3 -0.7 -8.6 L-0.7 -13.45 Q3.8 -10.95 8.95 -9.8 10.45 -9.45 11.9 -10.05 L14.35 -11.3 16.25 -9.7 M-1.95 -7.9 L4.95 -6.15 4.55 -5.1 0.65 -5.3 Q0.8 -4.3 2.15 -4.05 L3.85 -3.85 4.25 -4.05 4.3 -3.2 -1.7 -1.2 -4.4 -1.95 Q-3.1 -4.9 -1.95 -7.9 M-8.05 -1.65 L1.85 -1.3 3.4 -1.9 1.65 6.1 -2.0 5.05 Q-2.45 3.45 -4.0 3.1 L-6.2 3.0 -6.6 3.1 -6.95 3.55 -7.45 3.35 -8.05 -1.65 M7.7 -5.95 L6.85 -4.2 5.0 -3.45 5.9 -5.65 7.7 -5.95 M7.15 -3.0 Q6.75 2.65 4.5 7.6 L1.7 7.9 2.5 6.5 Q4.25 2.45 3.65 -2.0 L7.15 -3.0 M13.55 -3.2 L11.8 -3.8 12.4 -6.45 13.7 -6.9 13.55 -3.2 M18.3 -2.45 Q19.1 -5.8 19.55 -9.25 L20.25 -8.45 20.3 -7.55 19.25 -3.2 18.3 -2.45 M16.95 -0.5 Q17.05 -0.4 17.25 -0.35 L17.55 -0.3 16.7 1.1 Q15.35 2.9 13.45 4.05 L10.15 4.6 Q11.4 1.0 11.05 -2.65 L17.05 -0.95 16.85 -0.6 16.95 -0.5" fill="#666666" fill-rule="evenodd" stroke="none"/>
    <path d="M17.95 -29.5 Q18.95 -27.85 19.3 -26.0 19.9 -22.5 19.95 -18.95 20.0 -15.1 19.65 -11.3 L19.65 -10.25 21.3 -8.9 Q22.25 -4.35 18.8 -1.2 L18.25 0.8 Q16.95 4.6 13.4 6.25 11.05 7.25 8.55 7.85 L3.95 9.2 Q2.6 9.5 1.25 9.2 -2.75 8.85 -6.0 7.45 -13.25 4.2 -19.35 -1.25 L-20.3 -2.45 Q-21.25 -4.0 -21.55 -5.7 -21.85 -7.25 -21.6 -8.8 -19.6 -21.1 -11.25 -30.25 L-10.65 -30.0 -4.65 -34.95 -4.2 -34.9 -2.0 -35.9 Q0.85 -37.15 3.85 -37.75 10.75 -37.6 15.4 -33.0 L17.95 -29.5 M17.7 -28.0 Q16.55 -31.3 14.0 -33.15 8.45 -37.25 1.8 -36.2 -3.5 -34.9 -6.3 -30.35 -7.3 -28.7 -7.5 -26.65 -8.05 -19.8 -2.2 -15.65 2.5 -12.25 8.05 -10.85 L11.3 -11.1 Q15.0 -12.5 17.5 -15.4 19.6 -17.85 19.25 -21.2 18.85 -24.75 17.7 -28.0 M16.25 -9.7 L17.25 -10.75 17.3 -11.05 18.0 -12.45 Q19.0 -14.55 18.95 -16.95 L18.1 -15.3 Q16.8 -12.75 14.35 -11.3 L11.9 -10.05 Q10.45 -9.45 8.95 -9.8 3.8 -10.95 -0.7 -13.45 L-3.55 -15.35 Q-4.8 -16.3 -5.8 -17.55 -11.05 -24.15 -7.35 -31.7 L-8.55 -30.6 -10.3 -28.4 Q-13.85 -22.45 -10.4 -16.6 -7.1 -10.95 -0.7 -8.6 5.55 -6.3 12.0 -7.75 L12.45 -7.65 16.25 -9.7 M4.55 -5.1 L4.95 -6.15 -1.95 -7.9 Q-8.2 -10.3 -11.25 -16.2 -13.15 -19.8 -13.1 -23.85 -13.05 -26.2 -11.8 -28.2 -17.95 -20.45 -20.5 -10.95 L-19.9 -11.7 Q-19.5 -12.15 -18.85 -12.2 L-16.45 -12.6 -15.5 -12.2 -15.0 -11.9 Q-13.05 -8.15 -14.8 -5.1 L-4.4 -1.95 -1.7 -1.2 4.3 -3.2 4.25 -4.05 4.55 -5.1 M-7.45 3.35 L-6.95 3.55 -6.6 3.1 -6.2 3.0 -4.0 3.1 Q-2.45 3.45 -2.0 5.05 L1.65 6.1 3.4 -1.9 1.85 -1.3 -8.05 -1.65 -15.3 -4.4 -16.55 -2.85 -15.4 -1.6 Q-12.15 1.8 -7.45 3.35 M7.7 -5.95 L5.9 -5.65 5.0 -3.45 6.85 -4.2 7.7 -5.95 M8.6 -6.15 L8.6 -4.0 10.85 -4.0 10.85 -6.15 8.6 -6.15 M7.15 -3.0 L3.65 -2.0 Q4.25 2.45 2.5 6.5 L1.7 7.9 4.5 7.6 Q6.75 2.65 7.15 -3.0 M13.55 -3.2 L16.45 -1.75 17.1 -1.75 18.2 -10.2 17.4 -9.3 Q15.8 -7.7 13.7 -6.9 L12.4 -6.45 11.8 -3.8 13.55 -3.2 M16.95 -0.5 L16.85 -0.6 17.05 -0.95 11.05 -2.65 Q11.4 1.0 10.15 4.6 L13.45 4.05 Q15.35 2.9 16.7 1.1 L17.55 -0.3 17.25 -0.35 Q17.05 -0.4 16.95 -0.5 M18.3 -2.45 L19.25 -3.2 20.3 -7.55 20.25 -8.45 19.55 -9.25 Q19.1 -5.8 18.3 -2.45 M10.65 -2.75 L7.45 -3.05 Q7.45 2.6 4.9 7.5 L6.2 7.2 8.3 6.6 Q10.2 2.1 10.65 -2.75 M11.65 4.6 Q11.35 4.85 11.35 5.25 11.35 5.65 11.65 5.95 L12.35 6.2 13.05 5.95 13.35 5.25 13.05 4.6 Q12.75 4.3 12.35 4.3 11.95 4.3 11.65 4.6 M-16.85 -11.55 L-17.4 -11.65 Q-21.45 -10.85 -21.15 -6.5 -20.85 -2.15 -17.3 -4.0 -16.25 -4.55 -15.7 -5.65 -14.1 -8.9 -16.35 -11.55 L-16.85 -11.55 M0.85 7.9 L1.05 7.45 Q-4.65 7.4 -9.4 4.25 L-12.65 2.05 Q-15.6 0.2 -17.0 -2.7 L-18.85 -1.95 -8.8 5.2 Q-4.45 8.25 0.85 7.9 M-3.95 3.8 Q-4.3 3.45 -4.75 3.45 -5.2 3.45 -5.5 3.8 -5.85 4.1 -5.85 4.6 -5.85 5.1 -5.5 5.45 -5.2 5.75 -4.75 5.75 L-3.95 5.45 Q-3.65 5.1 -3.65 4.6 -3.65 4.1 -3.95 3.8" fill="#000000" fill-rule="evenodd" stroke="none"/>
    <path d="M14.35 -11.3 Q16.8 -12.75 18.1 -15.3 L18.95 -16.95 Q19.0 -14.55 18.0 -12.45 L17.3 -11.05 17.25 -10.75 16.25 -9.7 14.35 -11.3 M-0.7 -8.6 Q-7.1 -10.95 -10.4 -16.6 -13.85 -22.45 -10.3 -28.4 L-8.55 -30.6 -7.35 -31.7 Q-11.05 -24.15 -5.8 -17.55 -4.8 -16.3 -3.55 -15.35 L-0.7 -13.45 -0.7 -8.6 M-4.4 -1.95 L-14.8 -5.1 Q-13.05 -8.15 -15.0 -11.9 L-15.5 -12.2 -16.45 -12.6 -18.85 -12.2 Q-19.5 -12.15 -19.9 -11.7 L-20.5 -10.95 Q-17.95 -20.45 -11.8 -28.2 -13.05 -26.2 -13.1 -23.85 -13.15 -19.8 -11.25 -16.2 -8.2 -10.3 -1.95 -7.9 -3.1 -4.9 -4.4 -1.95 M-7.45 3.35 Q-12.15 1.8 -15.4 -1.6 L-16.55 -2.85 -15.3 -4.4 -8.05 -1.65 -7.45 3.35 M8.6 -6.15 L10.85 -6.15 10.85 -4.0 8.6 -4.0 8.6 -6.15 M13.7 -6.9 Q15.8 -7.7 17.4 -9.3 L18.2 -10.2 17.1 -1.75 16.45 -1.75 13.55 -3.2 13.7 -6.9 M10.65 -2.75 Q10.2 2.1 8.3 6.6 L6.2 7.2 4.9 7.5 Q7.45 2.6 7.45 -3.05 L10.65 -2.75 M0.85 7.9 Q-4.45 8.25 -8.8 5.2 L-18.85 -1.95 -17.0 -2.7 Q-15.6 0.2 -12.65 2.05 L-9.4 4.25 Q-4.65 7.4 1.05 7.45 L0.85 7.9 M-16.85 -11.55 L-16.35 -11.55 Q-14.1 -8.9 -15.7 -5.65 -16.25 -4.55 -17.3 -4.0 -20.85 -2.15 -21.15 -6.5 -21.45 -10.85 -17.4 -11.65 L-16.85 -11.55 M-13.75 -5.95 Q-12.95 -4.3 -10.7 -4.2 L-10.15 -4.3 -13.75 -5.95 M-8.15 -6.45 L-10.25 -6.55 Q-10.15 -5.1 -8.05 -5.4 L-7.25 -5.7 -6.85 -8.6 -8.15 -6.45" fill="#525252" fill-rule="evenodd" stroke="none"/>
    <path d="M4.55 -5.1 L4.25 -4.05 3.85 -3.85 2.15 -4.05 Q0.8 -4.3 0.65 -5.3 L4.55 -5.1 M-8.15 -6.45 L-6.85 -8.6 -7.25 -5.7 -8.05 -5.4 Q-10.15 -5.1 -10.25 -6.55 L-8.15 -6.45 M-13.75 -5.95 L-10.15 -4.3 -10.7 -4.2 Q-12.95 -4.3 -13.75 -5.95" fill="#303030" fill-rule="evenodd" stroke="none"/>
    <path d="M11.65 4.6 Q11.95 4.3 12.35 4.3 12.75 4.3 13.05 4.6 L13.35 5.25 13.05 5.95 12.35 6.2 11.65 5.95 Q11.35 5.65 11.35 5.25 11.35 4.85 11.65 4.6 M-3.95 3.8 Q-3.65 4.1 -3.65 4.6 -3.65 5.1 -3.95 5.45 L-4.75 5.75 Q-5.2 5.75 -5.5 5.45 -5.85 5.1 -5.85 4.6 -5.85 4.1 -5.5 3.8 -5.2 3.45 -4.75 3.45 -4.3 3.45 -3.95 3.8" fill="#ffffff" fill-rule="evenodd" stroke="none"/>
  </g>
</svg>
