<?xml version="1.0" encoding="UTF-8" standalone="no"?>
<svg xmlns:xlink="http://www.w3.org/1999/xlink" height="54.25px" width="44.05px" xmlns="http://www.w3.org/2000/svg">
  <g transform="matrix(1.0, 0.0, 0.0, 1.0, 20.6, 25.1)">
    <path d="M14.2 -20.05 L14.8 -18.0 17.3 -7.9 18.95 -0.3 Q19.35 1.8 19.25 3.9 L19.25 3.95 20.6 4.95 20.75 4.75 20.85 4.7 21.0 4.65 21.15 4.65 Q21.95 4.75 22.6 5.25 L22.9 5.4 Q23.6 9.55 23.4 13.85 L23.2 14.8 20.45 14.9 20.4 15.15 20.3 15.4 19.15 15.85 Q14.45 20.55 9.15 24.75 6.65 26.8 3.65 28.05 L1.95 28.75 0.8 29.15 0.35 29.1 Q-4.2 28.4 -7.95 25.35 L-14.05 20.35 -14.35 20.1 -18.2 16.5 -20.05 15.85 -20.4 13.4 -20.6 10.75 Q-20.75 8.35 -18.8 7.85 L-18.55 6.45 -18.45 6.4 -17.55 1.65 Q-16.35 -7.0 -15.7 -15.1 L-15.15 -15.7 -13.9 -21.35 Q-12.6 -22.25 -11.25 -22.75 -6.35 -24.4 -1.0 -25.05 L-0.25 -25.1 Q4.75 -25.15 9.45 -23.65 11.3 -23.15 12.8 -22.1 13.7 -21.4 14.2 -20.05 M5.75 -20.15 L5.75 -20.1 6.45 -20.0 13.15 -18.45 12.35 -20.95 5.45 -23.05 2.95 -23.55 3.75 -23.65 -0.25 -23.8 -1.0 -23.8 -7.3 -22.65 Q-10.1 -22.25 -12.4 -20.7 L-13.05 -20.2 -13.9 -16.7 -7.4 -19.3 -5.85 -20.0 -1.0 -20.35 -0.25 -20.4 Q1.4 -19.9 2.6 -20.65 L2.65 -20.7 5.75 -20.15 M11.85 -0.8 L12.35 -0.5 14.45 0.75 14.75 0.95 18.45 3.4 15.9 -7.9 13.4 -17.6 9.05 -19.0 8.55 -19.05 3.5 -19.4 3.75 -18.15 Q4.2 -12.95 4.15 -7.9 L3.95 -4.85 11.85 -0.8 M2.45 -4.35 Q1.15 -4.9 0.05 -5.65 L0.35 10.3 0.55 26.65 0.45 27.45 0.3 27.75 0.45 28.15 0.5 28.3 Q1.55 27.45 3.0 26.9 9.45 24.25 14.45 19.25 15.9 17.75 17.45 16.4 13.9 17.35 10.05 17.3 L8.75 17.35 4.65 17.8 4.75 19.6 4.8 22.75 4.6 22.7 4.35 22.55 Q3.55 16.05 3.45 9.45 L3.55 8.85 3.35 7.2 3.45 7.2 3.45 6.4 Q3.5 1.05 2.95 -4.1 L2.45 -4.35 M3.35 -5.1 Q2.95 -6.35 3.0 -7.9 L2.65 -19.4 -0.25 -16.9 -0.4 -16.75 -0.25 -12.65 -0.25 -7.9 -0.3 -6.05 -0.15 -6.2 0.25 -6.4 0.25 -6.45 3.35 -5.1 M21.2 5.65 L21.15 5.85 21.05 6.0 Q21.6 9.8 21.05 13.6 L21.0 13.75 21.05 13.8 22.4 13.85 22.4 6.75 22.4 6.55 21.25 5.65 21.2 5.65 M14.65 6.2 L14.85 6.45 14.9 6.5 Q15.65 6.6 15.9 7.1 L17.65 7.3 20.1 7.45 19.95 6.2 20.0 5.6 Q18.5 4.9 16.95 3.8 L14.7 2.25 13.9 1.7 13.9 1.75 Q9.15 -1.35 4.0 -3.65 4.6 -0.3 4.5 3.2 L4.45 6.85 8.15 6.45 10.95 6.6 11.25 6.35 12.0 5.75 12.6 5.55 12.85 5.5 Q13.95 5.45 14.65 6.2 M13.1 6.75 L12.9 6.75 Q12.1 6.9 11.85 7.6 L11.9 7.95 Q12.65 9.05 13.9 9.0 L14.45 8.3 14.5 7.95 Q14.25 6.8 13.1 6.75 M19.7 8.5 L15.95 8.3 15.9 8.35 Q15.2 10.7 12.8 10.0 11.85 9.7 11.3 8.95 L10.9 8.35 10.9 8.3 4.45 8.65 4.65 17.15 17.85 15.05 19.65 14.5 19.7 14.45 19.75 14.3 19.9 14.05 Q20.3 11.3 20.2 8.5 L20.05 8.5 19.7 8.5 M-0.95 -19.3 L-1.0 -19.3 -3.25 -19.0 -1.45 -17.55 -1.0 -17.85 -0.25 -18.35 1.05 -19.4 -0.25 -19.35 -0.95 -19.3 M-6.2 -12.75 L-6.15 -14.45 -5.95 -18.5 -10.1 -17.1 -14.15 -15.15 -16.05 -3.05 -16.2 -1.7 -16.85 4.35 -10.8 -1.45 -6.25 -4.7 -6.2 -12.75 M-1.0 -15.9 L-5.1 -18.7 -5.65 -4.65 -5.0 -5.0 -4.8 -5.4 -1.0 -6.45 -0.8 -6.3 Q-0.7 -11.2 -1.0 -15.9 M-0.45 23.2 L-0.5 11.95 Q-0.5 3.75 -0.75 -4.4 -0.8 -5.15 -0.5 -5.6 L-0.7 -5.65 -0.8 -5.75 -0.8 -5.85 -1.0 -5.8 -4.1 -4.3 -4.1 20.1 -4.1 22.0 -4.15 23.2 -4.3 21.9 -4.45 20.1 -4.7 17.2 -11.0 16.95 -17.55 15.95 -12.75 20.1 -5.4 25.35 -3.05 26.95 Q-2.1 27.65 -0.85 27.65 L-0.7 27.5 -0.55 27.35 -0.45 27.35 -0.45 23.2 M-9.25 8.1 Q-9.25 7.6 -9.65 7.3 -10.05 6.95 -10.6 6.95 -11.15 6.95 -11.55 7.3 -11.95 7.6 -11.95 8.1 -11.95 8.6 -11.55 8.95 L-10.6 9.25 Q-10.05 9.25 -9.65 8.95 -9.25 8.6 -9.25 8.1 M-8.55 9.15 L-9.0 9.65 Q-9.95 10.7 -11.25 10.1 -11.75 9.95 -12.1 9.6 -12.8 9.0 -13.25 9.1 L-18.0 9.6 -17.6 15.0 -4.75 16.95 -5.25 8.95 -8.2 8.6 -8.55 9.15 M-11.15 6.0 L-8.7 6.55 -8.3 7.15 -5.05 7.05 -5.0 -3.8 -11.1 0.25 -18.05 7.4 -18.0 8.7 -13.0 7.7 -11.15 6.0 M-19.55 14.7 L-18.5 15.45 -19.2 8.6 -19.55 14.7" fill="#000000" fill-rule="evenodd" stroke="none"/>
    <path d="M5.45 -23.05 L12.35 -20.95 13.15 -18.45 6.45 -20.0 5.75 -20.1 5.75 -20.15 5.45 -23.05 M-7.4 -19.3 L-13.9 -16.7 -13.05 -20.2 -12.4 -20.7 Q-10.1 -22.25 -7.3 -22.65 L-7.4 -19.3 M8.55 -19.05 L9.05 -19.0 13.4 -17.6 15.9 -7.9 18.45 3.4 14.75 0.95 14.45 0.75 12.35 -0.5 11.85 -0.8 10.8 -7.9 8.55 -19.05 M13.9 1.75 L13.9 1.7 14.7 2.25 16.95 3.8 Q18.5 4.9 20.0 5.6 L19.95 6.2 20.1 7.45 17.65 7.3 15.9 7.1 Q15.65 6.6 14.9 6.5 L14.85 6.45 14.65 6.2 14.05 2.85 13.9 1.75 M21.2 5.65 L21.25 5.65 22.4 6.55 22.4 6.75 22.4 13.85 21.05 13.8 21.0 13.75 21.05 13.6 Q21.6 9.8 21.05 6.0 L21.15 5.85 21.2 5.65 M3.35 -5.1 L0.25 -6.45 0.25 -6.4 -0.15 -6.2 -0.3 -6.05 -0.25 -7.9 -0.25 -12.65 -0.4 -16.75 -0.25 -16.9 2.65 -19.4 3.0 -7.9 Q2.95 -6.35 3.35 -5.1 M2.45 -4.35 L2.95 -4.1 Q3.5 1.05 3.45 6.4 L3.45 7.2 3.35 7.2 3.55 8.85 3.45 9.45 Q3.55 16.05 4.35 22.55 L4.6 22.7 4.8 22.75 4.75 19.6 4.65 17.8 8.75 17.35 10.05 17.3 Q13.9 17.35 17.45 16.4 15.9 17.75 14.45 19.25 9.45 24.25 3.0 26.9 1.55 27.45 0.5 28.3 L0.45 28.15 0.3 27.75 0.45 27.45 0.55 26.65 0.35 10.3 0.05 -5.65 Q1.15 -4.9 2.45 -4.35 M20.05 8.5 L20.2 8.5 Q20.3 11.3 19.9 14.05 L19.75 14.3 19.7 14.45 19.65 14.5 17.85 15.05 4.65 17.15 4.45 8.65 10.9 8.3 10.9 8.35 11.3 8.95 Q11.85 9.7 12.8 10.0 15.2 10.7 15.9 8.35 L15.95 8.3 19.7 8.5 19.75 8.55 19.95 8.5 20.05 8.5 M-10.8 -1.45 L-16.85 4.35 -16.2 -1.7 -13.9 -3.55 -13.75 -7.0 -16.05 -3.05 -14.15 -15.15 -10.1 -17.1 -10.8 -1.45 M-4.1 22.0 L-2.6 22.65 -0.45 23.2 -0.45 27.35 -0.55 27.35 -0.7 27.5 -0.85 27.65 Q-2.1 27.65 -3.05 26.95 L-5.4 25.35 -12.75 20.1 -17.55 15.95 -11.0 16.95 -7.3 20.1 -4.3 21.9 -4.15 23.2 -4.1 22.0 M-8.55 9.15 L-8.2 8.6 -5.25 8.95 -4.75 16.95 -17.6 15.0 -18.0 9.6 -13.25 9.1 Q-12.8 9.0 -12.1 9.6 -11.75 9.95 -11.25 10.1 -9.95 10.7 -9.0 9.65 L-8.55 9.15 M-11.15 6.0 L-13.0 7.7 -18.0 8.7 -18.05 7.4 -11.1 0.25 -11.15 6.0 M-13.95 0.25 L-13.1 -2.05 -15.35 0.65 -13.95 0.25 M-19.55 14.7 L-19.2 8.6 -18.5 15.45 -19.55 14.7" fill="#525252" fill-rule="evenodd" stroke="none"/>
    <path d="M5.75 -20.15 L2.65 -20.7 2.6 -20.65 Q1.4 -19.9 -0.25 -20.4 L-1.0 -20.35 -5.85 -20.0 -7.4 -19.3 -7.3 -22.65 -1.0 -23.8 -0.25 -23.8 3.75 -23.65 2.95 -23.55 5.45 -23.05 5.75 -20.15 M8.55 -19.05 L10.8 -7.9 11.85 -0.8 3.95 -4.85 4.15 -7.9 Q4.2 -12.95 3.75 -18.15 L3.5 -19.4 8.55 -19.05 M13.9 1.75 L14.05 2.85 14.65 6.2 Q13.95 5.45 12.85 5.5 L12.6 5.55 12.0 5.75 11.25 6.35 10.95 6.6 8.15 6.45 4.45 6.85 4.5 3.2 Q4.6 -0.3 4.0 -3.65 9.15 -1.35 13.9 1.75 M20.05 8.5 L19.95 8.5 19.75 8.55 19.7 8.5 20.05 8.5 M-0.95 -19.3 L-0.25 -19.35 1.05 -19.4 -0.25 -18.35 -1.0 -17.85 -1.45 -17.55 -3.25 -19.0 -1.0 -19.3 -0.95 -19.3 M-6.15 -14.45 L-7.85 -14.1 -8.9 -13.35 -8.05 -12.85 -6.2 -12.75 -6.25 -4.7 -10.8 -1.45 -10.1 -17.1 -5.95 -18.5 -6.15 -14.45 M-1.0 -15.9 Q-0.7 -11.2 -0.8 -6.3 L-1.0 -6.45 -4.8 -5.4 -5.0 -5.0 -5.65 -4.65 -5.1 -18.7 -1.0 -15.9 M-4.1 22.0 L-4.1 20.1 -4.1 -4.3 -1.0 -5.8 -0.8 -5.85 -0.8 -5.75 -0.7 -5.65 -0.5 -5.6 Q-0.8 -5.15 -0.75 -4.4 -0.5 3.75 -0.5 11.95 L-0.45 23.2 -2.6 22.65 -4.1 22.0 M-11.0 16.95 L-4.7 17.2 -4.45 20.1 -4.3 21.9 -7.3 20.1 -11.0 16.95 M-11.1 0.25 L-5.0 -3.8 -5.05 7.05 -8.3 7.15 -8.7 6.55 -11.15 6.0 -11.1 0.25" fill="#666666" fill-rule="evenodd" stroke="none"/>
    <path d="M13.1 6.75 Q14.25 6.8 14.5 7.95 L14.45 8.3 13.9 9.0 Q12.65 9.05 11.9 7.95 L11.85 7.6 Q12.1 6.9 12.9 6.75 L13.1 6.75 M-9.25 8.1 Q-9.25 8.6 -9.65 8.95 -10.05 9.25 -10.6 9.25 L-11.55 8.95 Q-11.95 8.6 -11.95 8.1 -11.95 7.6 -11.55 7.3 -11.15 6.95 -10.6 6.95 -10.05 6.95 -9.65 7.3 -9.25 7.6 -9.25 8.1" fill="#ffffff" fill-rule="evenodd" stroke="none"/>
    <path d="M-6.15 -14.45 L-6.2 -12.75 -8.05 -12.85 -8.9 -13.35 -7.85 -14.1 -6.15 -14.45 M-16.2 -1.7 L-16.05 -3.05 -13.75 -7.0 -13.9 -3.55 -16.2 -1.7 M-13.95 0.25 L-15.35 0.65 -13.1 -2.05 -13.95 0.25" fill="#303030" fill-rule="evenodd" stroke="none"/>
  </g>
</svg>
