<?xml version="1.0" encoding="UTF-8" standalone="no"?>
<svg xmlns:xlink="http://www.w3.org/1999/xlink" height="53.1px" width="43.1px" xmlns="http://www.w3.org/2000/svg">
  <g transform="matrix(1.0, 0.0, 0.0, 1.0, 21.8, 26.25)">
    <path d="M8.75 -23.15 L3.0 -24.75 1.2 -24.85 0.4 -24.9 -1.8 -25.0 -8.4 -24.65 Q-12.0 -23.9 -15.2 -21.75 L-15.45 -21.65 -15.8 -21.55 -15.9 -21.35 -16.3 -18.55 Q-14.0 -19.8 -11.0 -20.35 L-8.6 -20.7 -4.0 -21.55 Q1.85 -21.75 7.5 -20.6 L9.5 -20.2 9.55 -20.2 9.7 -20.35 10.3 -20.4 10.55 -20.05 11.1 -20.0 10.7 -22.15 8.75 -23.15 M11.5 -22.1 L12.2 -19.55 12.45 -19.2 12.3 -19.2 15.6 -7.0 17.05 -2.2 Q17.7 -0.3 17.8 1.55 L20.3 4.9 20.3 5.05 20.3 5.25 21.25 6.1 21.3 6.5 21.3 6.9 21.0 7.15 Q20.6 10.55 18.55 13.65 L17.05 15.85 15.35 17.65 Q11.8 21.95 6.95 25.3 L6.65 25.5 4.9 26.85 Q1.55 25.35 -2.0 24.2 L-9.0 23.55 Q-13.45 22.75 -17.05 20.2 -17.55 17.9 -17.35 15.5 L-17.5 15.4 -17.65 15.3 -18.45 15.1 Q-22.4 13.35 -21.7 8.95 -21.45 7.65 -20.75 6.55 -20.0 5.45 -18.85 5.05 -19.15 -0.85 -18.35 -6.85 L-18.05 -10.85 Q-17.95 -14.4 -17.3 -17.8 L-17.35 -17.95 -17.3 -17.95 -16.5 -21.65 -14.9 -23.2 -14.4 -23.75 Q-11.45 -25.25 -8.05 -25.8 L-5.35 -26.25 Q2.5 -26.4 9.75 -23.7 L10.25 -23.5 11.1 -22.85 11.15 -22.85 11.35 -22.6 11.4 -22.5 11.6 -22.2 11.5 -22.1 M12.35 -3.65 L16.3 0.05 12.7 -13.25 Q11.9 -16.3 11.25 -19.3 L10.6 -19.35 10.55 -17.65 10.65 -9.15 10.6 -5.4 10.75 -5.2 10.8 -5.2 10.8 -5.15 11.95 -4.0 12.35 -3.65 M6.65 -20.1 L2.75 -20.7 Q4.2 -19.25 5.95 -17.95 L6.25 -17.75 6.55 -17.75 8.85 -19.65 6.65 -20.1 M2.35 -19.95 L2.3 -10.3 2.3 -6.75 5.2 -8.4 5.8 -8.65 Q5.65 -12.9 5.8 -17.05 L2.65 -19.8 2.35 -19.95 M1.25 -15.55 L1.4 -15.5 1.4 -16.25 1.4 -20.5 1.65 -20.75 -1.8 -20.75 -7.75 -20.0 -9.9 -19.6 -15.4 -18.2 -15.5 -18.05 -16.0 -17.65 -16.45 -17.4 -17.7 -5.5 -18.45 4.75 -18.8 5.05 -17.2 4.85 Q-15.5 3.1 -13.1 1.85 L-12.15 1.35 -8.25 -0.7 -7.7 -1.05 1.5 -6.3 1.4 -13.2 1.3 -13.25 1.1 -13.75 1.5 -14.2 1.5 -14.65 1.5 -15.05 1.4 -15.25 1.25 -15.55 M6.05 -16.85 Q6.7 -12.9 6.55 -8.75 L6.7 -8.8 6.75 -8.8 6.6 -9.1 6.8 -9.15 8.0 -8.0 9.85 -6.3 9.45 -14.85 9.45 -19.1 Q7.85 -18.4 6.9 -16.9 L6.7 -16.65 6.25 -16.6 6.05 -16.85 M6.85 -8.15 L6.9 -8.15 6.85 -8.15 M6.7 -8.3 L6.5 -8.1 6.5 -8.0 6.7 -8.05 6.75 -8.25 6.7 -8.3 M6.15 21.0 L6.2 20.95 6.4 19.7 7.6 10.65 7.6 10.25 7.65 9.7 Q8.25 1.6 6.6 -6.3 6.4 -7.25 6.6 -7.85 L6.5 -8.0 6.5 -7.85 6.15 -7.5 5.95 -7.55 3.9 -6.2 3.75 -6.05 3.85 -6.0 Q5.5 1.75 4.6 9.9 L4.4 11.7 4.3 12.45 Q4.05 16.5 3.45 20.45 L3.35 20.85 3.2 21.45 3.05 21.65 2.75 21.65 2.65 21.5 2.55 21.5 2.65 21.2 2.75 20.15 3.3 14.15 -6.3 13.2 -13.15 12.2 -14.35 11.85 -14.35 11.95 -14.45 12.2 -14.75 12.95 Q-15.35 13.95 -16.3 14.75 L-16.55 14.9 -16.85 15.1 Q-16.6 15.25 -16.3 15.5 -10.3 19.95 -3.25 22.75 L-0.8 23.6 0.4 23.95 0.9 24.1 Q3.0 24.8 4.95 25.65 L5.2 25.5 6.15 21.0 M7.05 -7.45 L7.0 -7.5 7.2 -6.35 Q8.35 0.55 8.15 7.7 7.85 15.85 5.9 23.75 L5.65 25.15 Q11.1 21.05 15.75 16.05 L16.75 14.35 16.75 14.4 17.9 12.65 Q14.55 14.25 10.9 13.65 L10.0 19.9 10.3 12.05 Q10.7 4.95 10.25 -2.2 9.75 -3.35 9.9 -4.65 L7.05 -7.45 M-5.7 4.2 L-5.35 4.1 -4.8 4.0 Q-3.35 4.15 -2.4 5.05 L3.55 4.9 2.9 -4.95 2.9 -5.6 1.95 -5.15 -3.5 -2.6 -3.8 -2.45 -3.9 -2.4 -4.85 -1.8 -16.2 5.2 -15.05 6.45 -7.2 5.35 Q-6.9 4.6 -6.0 4.25 L-5.7 4.2 M13.4 -1.1 L13.2 -1.25 11.25 -3.3 11.05 -3.5 Q11.65 0.95 11.6 5.55 L12.9 5.6 Q13.15 5.4 13.45 5.3 L13.95 4.8 14.85 4.45 Q16.55 4.55 17.35 5.8 L19.8 6.05 14.35 -0.05 13.4 -1.1 M20.35 7.7 L20.25 7.85 17.65 7.6 Q17.25 8.6 15.95 8.85 14.8 9.1 13.9 8.35 L13.05 7.45 12.9 7.2 11.55 7.1 11.25 10.85 10.95 13.55 Q14.85 13.0 18.3 11.35 L18.65 11.3 20.35 7.7 M16.0 7.65 L16.4 7.25 Q16.7 5.85 15.25 5.45 14.65 5.5 14.25 6.05 13.95 6.4 14.15 6.9 14.7 8.05 16.0 7.65 M3.55 7.15 L-1.7 7.2 -2.25 7.8 Q-3.1 8.45 -4.15 8.75 L-5.2 8.85 Q-6.6 8.6 -7.15 7.45 L-7.2 7.35 -14.45 7.65 Q-14.15 8.55 -14.1 9.65 L-14.15 10.95 Q-7.0 12.55 0.3 12.9 1.9 13.0 3.35 13.6 L3.55 8.35 3.55 7.15 M-4.55 5.15 L-4.75 5.15 Q-5.65 5.3 -5.85 6.2 -6.05 7.15 -5.1 7.45 -3.75 7.85 -3.2 6.7 L-3.15 6.35 Q-3.4 5.2 -4.55 5.15 M-18.45 5.75 L-19.0 5.75 Q-22.05 8.7 -20.3 12.5 -18.9 15.55 -16.25 13.75 L-15.9 13.45 -15.45 12.55 Q-14.6 9.15 -16.25 6.1 L-16.6 5.9 -16.75 5.95 -16.85 6.05 -17.3 5.9 -17.4 5.95 -17.55 5.85 -18.45 5.75 M-15.95 19.35 Q-11.0 22.4 -5.35 23.15 L-5.8 23.0 Q-11.75 20.5 -16.35 16.25 L-16.1 18.95 -15.95 19.35" fill="#000000" fill-rule="evenodd" stroke="none"/>
    <path d="M16.0 7.65 Q14.7 8.05 14.15 6.9 13.95 6.4 14.25 6.05 14.65 5.5 15.25 5.45 16.7 5.85 16.4 7.25 L16.0 7.65 M-4.55 5.15 Q-3.4 5.2 -3.15 6.35 L-3.2 6.7 Q-3.75 7.85 -5.1 7.45 -6.05 7.15 -5.85 6.2 -5.65 5.3 -4.75 5.15 L-4.55 5.15" fill="#ffffff" fill-rule="evenodd" stroke="none"/>
    <path d="M-8.4 -24.65 Q-8.75 -22.75 -8.6 -20.7 L-11.0 -20.35 Q-14.0 -19.8 -16.3 -18.55 L-15.9 -21.35 -15.8 -21.55 -15.45 -21.65 -15.2 -21.75 Q-12.0 -23.9 -8.4 -24.65 M9.5 -20.2 L9.5 -22.8 8.75 -23.15 10.7 -22.15 11.1 -20.0 10.55 -20.05 10.3 -20.4 9.7 -20.35 9.55 -20.2 9.5 -20.2 M10.55 -17.65 L10.6 -19.35 11.25 -19.3 Q11.9 -16.3 12.7 -13.25 L16.3 0.05 12.35 -3.65 Q12.0 -10.3 10.75 -16.85 L10.55 -17.65 M-7.75 -20.0 L-7.8 -19.45 -7.9 -17.5 Q-7.65 -10.1 -7.75 -2.7 L-7.7 -1.05 -8.25 -0.7 -12.15 1.35 -13.1 1.85 Q-15.5 3.1 -17.2 4.85 L-18.8 5.05 -18.45 4.75 -17.7 -5.5 -16.45 -17.4 -16.0 -17.65 -15.5 -18.05 -15.4 -18.2 -9.9 -19.6 -7.75 -20.0 M6.05 -16.85 L6.25 -16.6 6.7 -16.65 6.9 -16.9 Q7.85 -18.4 9.45 -19.1 L9.45 -14.85 9.85 -6.3 8.0 -8.0 6.8 -9.15 6.6 -9.1 6.75 -8.8 6.7 -8.8 6.55 -8.75 Q6.7 -12.9 6.05 -16.85 M3.35 20.85 L4.05 21.25 Q5.45 21.8 6.15 21.0 L5.2 25.5 4.95 25.65 Q3.0 24.8 0.9 24.1 L0.4 23.95 -0.8 23.6 -3.25 22.75 Q-10.3 19.95 -16.3 15.5 -16.6 15.25 -16.85 15.1 L-16.55 14.9 -16.3 14.75 Q-15.35 13.95 -14.75 12.95 L-14.45 12.2 -14.35 11.95 -14.35 11.85 -13.15 12.2 -6.3 13.2 -5.8 17.6 Q-1.65 19.15 2.75 20.15 L2.65 21.2 2.55 21.5 2.65 21.5 2.75 21.65 3.05 21.65 3.2 21.45 3.35 20.85 M7.2 -6.35 L7.1 -6.85 7.05 -7.45 9.9 -4.65 Q9.75 -3.35 10.25 -2.2 10.7 4.95 10.3 12.05 L10.0 19.9 10.9 13.65 Q14.55 14.25 17.9 12.65 L16.75 14.4 16.75 14.35 15.75 16.05 Q11.1 21.05 5.65 25.15 L5.9 23.75 Q7.85 15.85 8.15 7.7 8.35 0.55 7.2 -6.35 M-4.85 -1.8 L-5.1 -0.35 -5.7 4.2 -6.0 4.25 Q-6.9 4.6 -7.2 5.35 L-15.05 6.45 -16.2 5.2 -4.85 -1.8 M14.35 -0.05 L13.85 -0.15 13.9 -0.55 13.4 -1.1 14.35 -0.05 M20.35 7.7 L18.65 11.3 18.3 11.35 Q14.85 13.0 10.95 13.55 L11.25 10.85 11.55 7.1 12.9 7.2 13.05 7.45 13.9 8.35 Q14.8 9.1 15.95 8.85 17.25 8.6 17.65 7.6 L20.25 7.85 20.35 7.7 M3.55 7.15 L3.55 8.35 3.35 13.6 Q1.9 13.0 0.3 12.9 -7.0 12.55 -14.15 10.95 L-14.1 9.65 Q-14.15 8.55 -14.45 7.65 L-7.2 7.35 -7.15 7.45 Q-6.6 8.6 -5.2 8.85 L-4.15 8.75 Q-3.1 8.45 -2.25 7.8 L-1.7 7.2 3.55 7.15 M-10.55 -5.0 L-10.9 -4.95 -10.95 -4.9 -11.0 -4.7 -11.05 -4.5 -11.65 -3.65 Q-12.6 -2.55 -14.05 -2.05 L-13.65 -1.95 Q-12.5 -2.1 -11.75 -2.6 -10.7 -3.3 -10.3 -4.8 L-10.55 -5.0 M-10.9 -10.9 L-10.9 -10.95 -10.9 -11.1 -11.1 -11.3 -11.2 -11.3 -11.65 -11.05 -11.65 -10.85 -11.65 -7.4 Q-12.9 -6.65 -14.3 -6.2 -12.75 -5.7 -11.3 -6.75 L-10.9 -7.1 -10.85 -7.3 -10.9 -10.85 -10.9 -10.9 M-15.9 13.45 L-16.25 13.75 Q-18.9 15.55 -20.3 12.5 -22.05 8.7 -19.0 5.75 L-18.45 5.75 Q-18.45 9.15 -16.3 12.05 -15.9 12.6 -15.9 13.25 L-15.9 13.45 M-15.95 19.35 L-16.1 18.95 -16.35 16.25 Q-11.75 20.5 -5.8 23.0 L-5.35 23.15 Q-11.0 22.4 -15.95 19.35" fill="#525252" fill-rule="evenodd" stroke="none"/>
    <path d="M-8.4 -24.65 L-1.8 -25.0 0.4 -24.9 1.2 -24.85 3.0 -24.75 8.75 -23.15 9.5 -22.8 9.5 -20.2 7.5 -20.6 Q1.85 -21.75 -4.0 -21.55 L-8.6 -20.7 Q-8.75 -22.75 -8.4 -24.65 M10.55 -17.65 L10.75 -16.85 Q12.0 -10.3 12.35 -3.65 L11.95 -4.0 10.8 -5.15 10.8 -5.2 10.75 -5.2 10.6 -5.4 10.65 -9.15 10.55 -17.65 M2.35 -19.95 L2.65 -19.8 5.8 -17.05 Q5.65 -12.9 5.8 -8.65 L5.2 -8.4 2.3 -6.75 2.3 -10.3 2.35 -19.95 M6.65 -20.1 L8.85 -19.65 6.55 -17.75 6.25 -17.75 5.95 -17.95 Q4.2 -19.25 2.75 -20.7 L6.65 -20.1 M-7.75 -20.0 L-1.8 -20.75 1.65 -20.75 1.4 -20.5 1.4 -16.25 1.4 -15.5 1.25 -15.55 1.1 -15.6 -2.05 -15.2 -2.25 -15.0 -2.05 -14.8 0.8 -14.4 0.95 -14.05 1.1 -13.75 1.3 -13.25 1.4 -13.2 1.5 -6.3 -7.7 -1.05 -8.25 -0.7 -7.7 -1.05 -7.75 -2.7 Q-7.65 -10.1 -7.9 -17.5 L-7.8 -19.45 -7.75 -20.0 M3.35 20.85 L3.45 20.45 Q4.05 16.5 4.3 12.45 L4.4 11.7 4.6 9.9 Q5.5 1.75 3.85 -6.0 L3.75 -6.05 3.9 -6.2 5.95 -7.55 6.15 -7.5 6.5 -7.85 6.5 -8.0 6.6 -7.85 Q6.4 -7.25 6.6 -6.3 8.25 1.6 7.65 9.7 L7.6 10.25 7.6 10.65 6.4 19.7 6.2 20.95 6.15 21.0 Q5.45 21.8 4.05 21.25 L3.35 20.85 M6.7 -8.3 L6.75 -8.25 6.7 -8.05 6.5 -8.0 6.5 -8.1 6.7 -8.3 M6.85 -8.15 L6.9 -8.15 6.85 -8.15 M-6.3 13.2 L3.3 14.15 2.75 20.15 Q-1.65 19.15 -5.8 17.6 L-6.3 13.2 M7.05 -7.45 L7.1 -6.85 7.2 -6.35 7.0 -7.5 7.05 -7.45 M-4.85 -1.8 L-3.9 -2.4 -3.8 -2.45 -3.5 -2.6 1.95 -5.15 2.9 -5.6 2.9 -4.95 3.55 4.9 -2.4 5.05 Q-3.35 4.15 -4.8 4.0 L-5.35 4.1 -5.7 4.2 -5.1 -0.35 -4.85 -1.8 M14.35 -0.05 L19.8 6.05 17.35 5.8 Q16.55 4.55 14.85 4.45 L13.95 4.8 13.45 5.3 Q13.15 5.4 12.9 5.6 L11.6 5.55 Q11.65 0.95 11.05 -3.5 L11.25 -3.3 13.2 -1.25 13.4 -1.1 13.9 -0.55 13.85 -0.15 14.35 -0.05 M-15.9 13.45 L-15.9 13.25 Q-15.9 12.6 -16.3 12.05 -18.45 9.15 -18.45 5.75 L-17.55 5.85 -17.4 5.95 -17.3 5.9 -16.85 6.05 -16.75 5.95 -16.6 5.9 -16.25 6.1 Q-14.6 9.15 -15.45 12.55 L-15.9 13.45" fill="#666666" fill-rule="evenodd" stroke="none"/>
    <path d="M1.1 -13.75 L0.95 -14.05 0.8 -14.4 -2.05 -14.8 -2.25 -15.0 -2.05 -15.2 1.1 -15.6 1.25 -15.55 1.4 -15.25 1.5 -15.05 1.5 -14.65 1.5 -14.2 1.1 -13.75 M-10.9 -10.9 L-10.9 -10.85 -10.85 -7.3 -10.9 -7.1 -11.3 -6.75 Q-12.75 -5.7 -14.3 -6.2 -12.9 -6.65 -11.65 -7.4 L-11.65 -10.85 -11.65 -11.05 -11.2 -11.3 -11.1 -11.3 -10.9 -11.1 -10.9 -10.95 -10.9 -10.9 M-10.55 -5.0 L-10.3 -4.8 Q-10.7 -3.3 -11.75 -2.6 -12.5 -2.1 -13.65 -1.95 L-14.05 -2.05 Q-12.6 -2.55 -11.65 -3.65 L-11.05 -4.5 -11.0 -4.7 -10.95 -4.9 -10.9 -4.95 -10.55 -5.0" fill="#303030" fill-rule="evenodd" stroke="none"/>
  </g>
</svg>
