<?xml version="1.0" encoding="UTF-8" standalone="no"?>
<svg xmlns:xlink="http://www.w3.org/1999/xlink" height="51.85px" width="38.25px" xmlns="http://www.w3.org/2000/svg">
  <g transform="matrix(1.0, 0.0, 0.0, 1.0, 16.15, 25.0)">
    <path d="M-4.45 -19.55 L5.05 -20.5 Q8.6 -20.9 12.05 -19.9 L12.2 -20.05 Q13.2 -19.7 13.65 -19.0 L13.2 -21.7 Q8.75 -24.5 3.5 -24.05 L-4.7 -23.3 -8.5 -22.25 -9.85 -21.65 -11.1 -20.9 -13.25 -20.2 -13.65 -17.6 -4.45 -19.55 M14.35 -21.45 L14.35 -19.1 17.05 -4.3 Q19.5 0.4 21.55 5.45 22.5 8.0 21.8 10.75 19.65 19.0 16.25 26.6 L14.85 26.85 13.95 26.25 13.95 26.0 10.4 24.2 6.05 24.25 Q-5.35 24.05 -14.85 17.9 L-14.85 17.95 -15.95 16.7 -16.05 13.7 Q-16.5 -3.15 -14.45 -20.2 L-11.65 -21.9 -11.1 -21.8 -9.4 -22.85 -5.8 -24.15 4.2 -25.0 Q9.6 -24.95 14.2 -22.1 L14.35 -21.45 M14.4 -15.4 L14.15 -16.6 13.95 -16.85 13.95 -17.25 12.95 -18.2 13.05 -5.8 13.95 -6.3 13.95 -6.5 14.15 -6.65 15.45 -7.5 16.1 -7.0 14.4 -15.4 M12.15 -13.7 L12.15 -14.85 11.85 -19.3 Q7.05 -19.6 2.35 -19.5 L-5.95 -18.5 -13.8 -16.5 Q-14.75 -9.4 -15.2 -2.2 -15.85 7.35 -14.95 16.8 -9.85 20.55 -3.2 21.9 2.5 23.15 8.3 23.2 0.0 20.15 -7.8 15.85 L-7.65 15.75 5.95 21.3 Q10.0 22.95 13.95 24.9 L13.95 25.1 14.35 25.35 15.5 26.1 16.0 24.85 Q16.6 23.0 17.45 21.35 19.5 17.05 19.8 12.05 L19.6 7.0 Q19.35 4.45 18.6 2.1 L15.8 -4.9 Q16.85 -1.3 17.35 2.4 18.1 7.6 17.9 12.8 17.75 17.0 16.45 20.75 L15.25 23.45 15.35 21.45 16.9 15.35 3.05 15.25 -5.4 13.75 -6.4 13.85 -7.15 15.0 Q-8.4 16.6 -10.3 15.65 -14.15 13.85 -13.3 9.45 -12.55 5.25 -8.7 5.3 L-4.7 3.05 -4.55 2.9 Q3.6 -2.0 12.65 -5.6 L12.15 -13.7 M6.55 5.4 Q7.8 4.5 9.1 5.1 L9.85 5.4 10.3 5.9 10.55 6.4 13.95 6.15 13.95 6.1 17.1 5.8 Q16.8 2.4 16.0 -0.85 L15.55 -2.45 15.45 -2.65 14.7 -5.75 13.95 -5.3 13.95 -5.1 2.65 0.2 -8.25 5.6 -6.8 7.1 5.75 6.5 6.55 5.4 M-6.95 12.35 Q-5.85 8.95 -8.55 6.6 L-9.2 6.25 -9.1 6.1 Q-9.35 5.95 -9.7 5.9 L-11.8 7.6 Q-13.75 10.8 -11.6 13.75 -10.25 15.6 -8.45 14.8 -7.7 14.4 -7.35 13.35 L-6.95 12.35 M20.5 6.0 L20.65 5.8 20.1 4.5 20.5 6.0 M20.45 12.75 L21.7 8.2 21.3 7.25 Q20.8 7.65 20.45 7.1 20.7 9.85 20.45 12.75 M-6.05 12.95 L-5.6 12.75 Q1.55 14.45 8.75 15.15 L12.3 14.95 13.95 14.75 14.35 14.75 16.95 15.15 17.25 7.6 13.95 7.9 10.2 8.15 Q9.85 9.0 9.15 9.35 L8.75 9.55 8.3 9.6 Q6.7 9.3 5.85 8.0 L-6.45 7.65 Q-5.05 10.25 -6.05 12.95 M9.5 7.15 L9.2 6.4 Q8.85 6.05 8.4 6.05 7.95 6.05 7.65 6.4 7.3 6.7 7.3 7.15 7.3 7.6 7.65 7.95 7.95 8.25 8.4 8.25 L9.2 7.95 9.5 7.15" fill="#000000" fill-rule="evenodd" stroke="none"/>
    <path d="M-4.7 -23.3 L3.5 -24.05 Q8.75 -24.5 13.2 -21.7 L13.65 -19.0 Q13.2 -19.7 12.2 -20.05 L12.05 -19.9 Q8.6 -20.9 5.05 -20.5 L-4.45 -19.55 -4.7 -23.3 M14.15 -6.65 L13.95 -6.5 13.95 -6.3 13.05 -5.8 12.95 -18.2 13.95 -17.25 13.95 -16.85 14.15 -16.6 14.4 -15.4 14.15 -6.65 M12.15 -14.85 L9.1 -14.7 12.15 -13.7 12.65 -5.6 Q3.6 -2.0 -4.55 2.9 L-4.7 3.05 -5.3 -0.4 Q-3.9 -1.0 -3.6 -2.7 L-3.65 -2.9 -5.45 -1.45 Q-6.65 -7.8 -6.25 -14.2 L-5.95 -18.5 2.35 -19.5 Q7.05 -19.6 11.85 -19.3 L12.15 -14.85 M3.05 15.25 L16.9 15.35 15.35 21.45 13.95 20.6 13.95 20.4 3.05 15.25 M16.45 20.75 Q17.75 17.0 17.9 12.8 18.1 7.6 17.35 2.4 16.85 -1.3 15.8 -4.9 L18.6 2.1 Q19.35 4.45 19.6 7.0 L19.8 12.05 16.45 20.75 M2.65 0.2 L13.95 -5.1 13.95 -5.3 14.7 -5.75 15.45 -2.65 15.55 -2.45 16.0 -0.85 Q16.8 2.4 17.1 5.8 L13.95 6.1 13.95 6.15 10.55 6.4 10.3 5.9 9.85 5.4 9.1 5.1 Q7.8 4.5 6.55 5.4 4.45 2.85 2.65 0.2 M-2.65 -10.75 Q-3.25 -10.9 -3.2 -10.45 L-3.05 -6.85 -5.35 -4.55 Q-3.95 -4.55 -2.95 -5.5 L-2.2 -6.2 -2.65 -10.75 M-11.8 7.6 L-9.7 5.9 Q-9.35 5.95 -9.1 6.1 L-9.2 6.25 -8.55 6.6 Q-5.85 8.95 -6.95 12.35 -8.3 8.75 -11.8 7.6" fill="#666666" fill-rule="evenodd" stroke="none"/>
    <path d="M12.15 -14.85 L12.15 -13.7 9.1 -14.7 12.15 -14.85 M-5.45 -1.45 L-3.65 -2.9 -3.6 -2.7 Q-3.9 -1.0 -5.3 -0.4 L-6.75 -0.65 -5.45 -1.4 -5.45 -1.45 M-2.65 -10.75 L-2.2 -6.2 -2.95 -5.5 Q-3.95 -4.55 -5.35 -4.55 L-3.05 -6.85 -3.2 -10.45 Q-3.25 -10.9 -2.65 -10.75" fill="#303030" fill-rule="evenodd" stroke="none"/>
    <path d="M-4.45 -19.55 L-13.65 -17.6 -13.25 -20.2 -11.1 -20.9 -9.85 -21.65 -8.5 -22.25 -4.7 -23.3 -4.45 -19.55 M14.4 -15.4 L16.1 -7.0 15.45 -7.5 14.15 -6.65 14.4 -15.4 M-4.7 3.05 L-8.7 5.3 Q-12.55 5.25 -13.3 9.45 -14.15 13.85 -10.3 15.65 -8.4 16.6 -7.15 15.0 L-6.4 13.85 -5.4 13.75 3.05 15.25 13.95 20.4 13.95 20.6 15.35 21.45 15.25 23.45 16.45 20.75 19.8 12.05 Q19.5 17.05 17.45 21.35 16.6 23.0 16.0 24.85 L15.5 26.1 14.35 25.35 13.95 25.1 13.95 24.9 Q10.0 22.95 5.95 21.3 L-7.65 15.75 -7.8 15.85 Q0.0 20.15 8.3 23.2 2.5 23.15 -3.2 21.9 -9.85 20.55 -14.95 16.8 -15.85 7.35 -15.2 -2.2 -14.75 -9.4 -13.8 -16.5 L-5.95 -18.5 -6.25 -14.2 Q-6.65 -7.8 -5.45 -1.45 L-5.45 -1.4 -6.75 -0.65 -5.3 -0.4 -4.7 3.05 M6.55 5.4 L5.75 6.5 -6.8 7.1 -8.25 5.6 2.65 0.2 Q4.45 2.85 6.55 5.4 M-6.95 12.35 L-7.35 13.35 Q-7.7 14.4 -8.45 14.8 -10.25 15.6 -11.6 13.75 -13.75 10.8 -11.8 7.6 -8.3 8.75 -6.95 12.35 M-6.05 12.95 Q-5.05 10.25 -6.45 7.65 L5.85 8.0 Q6.7 9.3 8.3 9.6 L8.75 9.55 9.15 9.35 Q9.85 9.0 10.2 8.15 L13.95 7.9 17.25 7.6 16.95 15.15 14.35 14.75 13.95 14.75 12.3 14.95 8.75 15.15 Q1.55 14.45 -5.6 12.75 L-6.05 12.95 M20.45 12.75 Q20.7 9.85 20.45 7.1 20.8 7.65 21.3 7.25 L21.7 8.2 20.45 12.75 M20.5 6.0 L20.1 4.5 20.65 5.8 20.5 6.0" fill="#525252" fill-rule="evenodd" stroke="none"/>
    <path d="M9.5 7.15 L9.2 7.95 8.4 8.25 Q7.95 8.25 7.65 7.95 7.3 7.6 7.3 7.15 7.3 6.7 7.65 6.4 7.95 6.05 8.4 6.05 8.85 6.05 9.2 6.4 L9.5 7.15" fill="#ffffff" fill-rule="evenodd" stroke="none"/>
  </g>
</svg>
