<?xml version="1.0" encoding="UTF-8" standalone="no"?>
<svg xmlns:xlink="http://www.w3.org/1999/xlink" height="54.25px" width="41.55px" xmlns="http://www.w3.org/2000/svg">
  <g transform="matrix(1.0, 0.0, 0.0, 1.0, 21.65, 26.0)">
    <path d="M1.35 -25.95 Q6.7 -25.3 11.6 -23.65 12.95 -23.15 14.25 -22.25 L15.5 -16.6 16.05 -16.0 Q16.7 -7.9 17.9 0.75 L18.4 3.55 18.4 3.6 18.45 3.8 19.4 4.55 Q19.2 9.5 19.9 14.3 L19.7 15.2 Q18.75 15.6 17.8 16.1 L17.8 16.3 16.95 17.1 16.95 17.15 16.95 17.35 16.7 17.35 14.7 19.2 14.4 19.45 8.3 24.45 Q4.55 27.5 0.05 28.2 L-0.45 28.25 -1.6 27.85 -3.3 27.15 Q-6.3 25.9 -8.8 23.85 -13.7 19.95 -18.1 15.6 L-18.45 15.85 -18.5 15.25 -18.55 15.2 -19.95 14.5 -20.6 14.15 -21.15 14.2 -21.15 13.85 -21.6 13.55 Q-21.85 9.4 -21.25 5.3 L-21.15 4.2 -20.85 3.95 -20.85 3.75 -20.8 3.75 -20.65 3.75 -19.1 2.15 -19.05 2.1 -18.9 2.1 -18.6 -1.2 -16.9 -8.8 -14.45 -18.9 -13.85 -20.95 Q-13.35 -22.3 -12.45 -23.0 -10.95 -24.05 -9.1 -24.55 -4.4 -26.05 0.6 -26.0 L1.35 -25.95 M8.1 -19.75 L8.35 -19.7 8.45 -19.95 14.25 -17.6 13.4 -21.1 12.75 -21.6 12.5 -21.8 12.35 -21.85 12.0 -22.05 11.85 -22.15 11.7 -22.2 11.5 -22.35 9.1 -23.25 7.7 -23.55 1.35 -24.7 0.6 -24.7 -3.4 -24.55 -2.6 -24.45 -7.25 -23.3 -12.0 -21.85 -12.7 -19.65 -10.05 -20.45 -7.9 -20.85 -6.6 -20.95 Q0.6 -21.45 7.45 -19.95 L8.1 -19.75 M14.6 17.95 L16.3 16.5 16.25 16.4 Q16.05 9.75 16.7 3.25 L16.8 3.1 16.9 3.2 Q16.8 1.7 16.85 0.2 L16.85 0.05 16.6 -2.6 16.4 -3.95 14.5 -16.05 10.5 -18.0 9.05 -18.5 8.2 -18.8 2.25 -19.5 -2.55 -19.85 -8.4 -19.4 -12.95 -18.25 -13.1 -18.3 -15.5 -8.8 -15.9 -7.1 -15.3 -7.2 -15.0 -7.3 Q-13.95 -7.6 -13.75 -6.8 L-13.8 -6.6 Q-15.0 -5.9 -16.15 -6.05 L-18.1 2.5 -18.0 2.4 -18.05 14.35 -17.45 14.75 -17.4 14.9 -16.55 15.4 -16.0 15.75 -16.3 15.7 -17.1 15.5 -16.4 16.15 -14.1 18.35 -13.15 19.25 Q-13.0 17.3 -12.2 15.45 -11.45 13.7 -10.2 12.3 L-10.1 12.15 -6.1 11.85 Q0.75 12.65 7.35 14.4 L8.7 14.9 9.55 14.75 9.7 14.95 9.75 15.15 10.05 15.35 11.0 17.3 12.15 19.15 12.8 19.5 13.15 19.2 14.6 17.95 M12.25 0.45 L13.8 0.95 13.95 1.1 13.95 1.25 13.05 1.2 12.3 1.0 Q8.25 -0.05 3.95 -0.6 L4.1 -0.65 Q8.35 -0.75 12.25 0.45 M7.0 -3.05 L7.05 -3.0 Q3.05 -2.25 -0.9 -0.95 1.85 -2.6 5.1 -3.3 L5.35 -3.35 7.0 -3.05 M17.05 3.95 Q16.6 9.9 16.9 15.85 L16.95 15.5 17.05 15.4 17.4 15.25 17.65 15.2 Q18.4 15.1 18.55 14.55 L18.6 14.5 18.6 14.4 18.6 14.05 18.45 9.85 18.3 8.7 18.3 6.4 18.25 6.35 18.15 5.3 17.05 3.95 M10.7 17.95 L9.6 15.75 Q2.6 13.55 -4.95 12.85 -7.4 12.65 -9.9 12.95 L-11.4 16.05 -12.55 18.85 -12.7 19.1 -12.7 19.25 -12.75 19.45 -12.9 19.5 Q-8.5 23.5 -3.05 25.85 L-2.9 25.8 -0.75 26.7 0.9 26.55 0.95 26.5 1.0 26.55 3.4 26.05 Q4.5 25.2 5.75 24.45 L12.35 19.85 Q11.2 19.25 10.7 17.95 M-18.5 4.0 L-19.65 4.7 -20.05 5.05 -20.5 11.7 -20.5 12.65 -18.55 14.0 Q-18.85 8.25 -18.1 2.65 L-18.5 4.0" fill="#000000" fill-rule="evenodd" stroke="none"/>
    <path d="M9.1 -23.25 L8.25 -23.45 Q8.05 -21.65 8.1 -19.75 L7.45 -19.95 Q0.6 -21.45 -6.6 -20.95 L-7.9 -20.85 -7.25 -23.3 -2.6 -24.45 -3.4 -24.55 0.6 -24.7 1.35 -24.7 7.7 -23.55 9.1 -23.25 M14.6 17.95 L13.15 19.2 12.8 19.5 12.15 19.15 11.0 17.3 10.05 15.35 9.75 15.15 9.7 14.95 9.55 14.75 8.7 14.9 7.35 14.4 Q0.75 12.65 -6.1 11.85 L-10.1 12.15 -10.2 12.3 Q-11.45 13.7 -12.2 15.45 -13.0 17.3 -13.15 19.25 L-14.1 18.35 -16.4 16.15 -16.3 15.7 -16.0 15.75 -16.55 15.4 -16.25 15.6 -14.6 8.3 -11.15 -6.0 Q-9.6 -12.7 -8.4 -19.4 L-2.55 -19.85 2.25 -19.5 8.2 -18.8 9.05 -18.5 10.35 -10.95 12.25 0.45 Q8.35 -0.75 4.1 -0.65 L3.95 -0.6 Q8.25 -0.05 12.3 1.0 L12.65 3.7 14.5 17.45 14.6 17.95 M7.0 -3.05 L5.35 -3.35 5.1 -3.3 Q1.85 -2.6 -0.9 -0.95 3.05 -2.25 7.05 -3.0 L7.0 -3.05 M10.7 17.95 Q11.2 19.25 12.35 19.85 L5.75 24.45 Q4.5 25.2 3.4 26.05 L1.0 26.55 0.95 26.5 0.9 26.55 -0.75 26.7 -2.9 25.8 -3.05 25.85 Q-8.5 23.5 -12.9 19.5 L-12.75 19.45 -12.7 19.25 -12.7 19.1 -12.55 18.85 -11.4 16.05 -9.9 12.95 Q-7.4 12.65 -4.95 12.85 2.6 13.55 9.6 15.75 L10.7 17.95" fill="#525252" fill-rule="evenodd" stroke="none"/>
    <path d="M9.1 -23.25 L11.5 -22.35 11.7 -22.2 11.85 -22.15 12.0 -22.05 12.35 -21.85 12.5 -21.8 12.75 -21.6 13.4 -21.1 14.25 -17.6 8.45 -19.95 8.35 -19.7 8.1 -19.75 Q8.05 -21.65 8.25 -23.45 L9.1 -23.25 M-7.9 -20.85 L-10.05 -20.45 -12.7 -19.65 -12.0 -21.85 -7.25 -23.3 -7.9 -20.85 M9.05 -18.5 L10.5 -18.0 14.5 -16.05 16.4 -3.95 16.6 -2.6 16.85 0.05 16.85 0.2 Q16.8 1.7 16.9 3.2 L16.8 3.1 16.7 3.25 Q16.05 9.75 16.25 16.4 L16.3 16.5 14.6 17.95 14.5 17.45 12.65 3.7 12.3 1.0 13.05 1.2 13.95 1.25 13.95 1.1 13.8 0.95 12.25 0.45 10.35 -10.95 9.05 -18.5 M-16.4 16.15 L-17.1 15.5 -16.3 15.7 -16.4 16.15 M-16.55 15.4 L-17.4 14.9 -17.45 14.75 -18.05 14.35 -18.0 2.4 -18.1 2.5 -16.15 -6.05 Q-15.0 -5.9 -13.8 -6.6 L-13.75 -6.8 Q-13.95 -7.6 -15.0 -7.3 L-15.3 -7.2 -15.9 -7.1 -15.5 -8.8 -13.1 -18.3 -12.95 -18.25 -8.4 -19.4 Q-9.6 -12.7 -11.15 -6.0 L-14.6 8.3 -16.25 15.6 -16.55 15.4 M17.05 3.95 L18.15 5.3 18.25 6.35 18.3 6.4 18.3 8.7 18.45 9.85 18.6 14.05 18.6 14.4 18.6 14.5 18.55 14.55 Q18.4 15.1 17.65 15.2 L17.4 15.25 17.05 15.4 16.95 15.5 16.9 15.85 Q16.6 9.9 17.05 3.95 M-18.5 4.0 L-18.1 2.65 Q-18.85 8.25 -18.55 14.0 L-20.5 12.65 -20.5 11.7 -20.05 5.05 -19.65 4.7 -18.5 4.0" fill="#666666" fill-rule="evenodd" stroke="none"/>
  </g>
</svg>
