<?xml version="1.0" encoding="UTF-8" standalone="no"?>
<svg xmlns:xlink="http://www.w3.org/1999/xlink" height="25.15px" width="6.45px" xmlns="http://www.w3.org/2000/svg">
  <g transform="matrix(1.0, 0.0, 0.0, 1.0, 3.9, 10.65)">
    <path d="M1.1 -7.0 L1.2 -4.05 -2.3 -4.15 -2.25 -7.75 -1.35 -8.0 0.2 -8.65 0.95 -8.5 1.1 -8.3 1.1 -7.0 M0.45 11.95 L0.15 12.15 -1.9 12.5 -1.95 10.85 -2.0 9.6 -0.35 9.8 0.15 9.4 0.6 9.5 0.7 9.45 0.45 11.95 M0.6 9.0 L0.0 8.65 -2.05 9.15 -2.2 5.0 Q-0.55 5.15 1.1 4.3 L0.75 9.2 0.6 9.0 M1.1 3.8 L0.75 3.4 -1.0 3.25 -1.0 3.3 -2.25 3.55 -2.3 -3.3 1.2 -3.1 1.1 3.8" fill="#765949" fill-rule="evenodd" stroke="none"/>
    <path d="M1.1 -7.0 L1.1 -8.3 0.95 -8.5 0.2 -8.65 -1.35 -8.0 -2.25 -7.75 -2.3 -4.15 1.2 -4.05 1.1 -7.0 M2.25 -10.3 L2.55 -10.1 Q2.7 1.1 1.55 12.15 L1.4 13.5 Q-1.1 15.15 -3.55 14.05 L-3.7 9.45 -3.9 9.4 -3.7 9.4 Q-3.9 0.55 -3.55 -8.2 L-3.35 -9.85 -3.05 -10.1 -2.45 -10.3 -2.1 -9.95 Q-0.8 -10.05 0.4 -10.55 L0.45 -10.65 2.25 -10.3 M1.1 3.8 L1.2 -3.1 -2.3 -3.3 -2.25 3.55 -1.0 3.3 -1.0 3.25 0.75 3.4 1.1 3.8 M0.6 9.0 L0.75 9.2 1.1 4.3 Q-0.55 5.15 -2.2 5.0 L-2.05 9.15 0.0 8.65 0.6 9.0 M0.45 11.95 L0.7 9.45 0.6 9.5 0.15 9.4 -0.35 9.8 -2.0 9.6 -1.95 10.85 -1.9 12.5 0.15 12.15 0.45 11.95" fill="#000000" fill-rule="evenodd" stroke="none"/>
  </g>
</svg>
