<?xml version="1.0" encoding="UTF-8" standalone="no"?>
<svg xmlns:xlink="http://www.w3.org/1999/xlink" height="29.3px" width="24.0px" xmlns="http://www.w3.org/2000/svg">
  <g transform="matrix(1.0, 0.0, 0.0, 1.0, 12.0, 13.65)">
    <path d="M9.85 -5.7 L9.7 -3.65 9.2 2.5 Q3.05 0.2 -3.65 0.85 -6.5 1.05 -9.25 2.25 L-9.4 2.4 -8.9 2.6 Q0.35 1.25 9.2 2.7 L8.5 13.35 4.85 13.45 -1.25 13.75 Q-6.25 13.75 -10.55 11.95 L-10.55 10.55 -10.55 10.0 Q-1.25 10.35 8.2 10.05 L8.25 9.9 8.35 9.65 8.35 9.4 8.25 9.25 -6.9 8.5 -10.5 8.65 -10.35 6.4 -8.8 -5.45 -8.55 -5.5 Q0.85 -6.9 9.85 -5.7 M9.5 -9.05 L9.8 -9.1 9.9 -9.05 9.85 -5.95 7.1 -7.0 Q0.9 -8.7 -5.6 -7.85 L-5.95 -7.75 -8.55 -6.9 -8.0 -10.6 -7.25 -10.8 -3.4 -11.75 Q3.5 -12.05 9.5 -9.05" fill="#765949" fill-rule="evenodd" stroke="none"/>
    <path d="M10.0 -10.45 L10.25 -10.55 10.8 -10.7 Q12.25 -9.35 11.95 -6.8 L11.5 -2.7 Q10.55 5.75 10.5 14.3 L10.35 14.6 10.2 14.8 10.05 15.0 -1.2 15.35 -9.35 14.2 -10.6 13.95 Q-11.35 13.75 -11.85 13.15 L-11.85 9.95 -12.0 9.95 -11.9 9.75 -11.8 9.6 Q-11.7 5.95 -11.1 2.4 -10.35 -2.15 -10.15 -6.75 -10.05 -9.65 -8.9 -12.05 L-8.3 -12.5 -3.05 -13.65 Q3.8 -13.85 9.65 -10.65 L10.0 -10.45 M9.5 -9.05 Q3.5 -12.05 -3.4 -11.75 L-7.25 -10.8 -8.0 -10.6 -8.55 -6.9 -5.95 -7.75 -5.6 -7.85 Q0.9 -8.7 7.1 -7.0 L9.85 -5.95 9.9 -9.05 9.8 -9.1 9.5 -9.05 M9.85 -5.7 Q0.85 -6.9 -8.55 -5.5 L-8.8 -5.45 -10.35 6.4 -10.5 8.65 -6.9 8.5 8.25 9.25 8.35 9.4 8.35 9.65 8.25 9.9 8.2 10.05 Q-1.25 10.35 -10.55 10.0 L-10.55 10.55 -10.55 11.95 Q-6.25 13.75 -1.25 13.75 L4.85 13.45 8.5 13.35 9.2 2.7 Q0.35 1.25 -8.9 2.6 L-9.4 2.4 -9.25 2.25 Q-6.5 1.05 -3.65 0.85 3.05 0.2 9.2 2.5 L9.7 -3.65 9.85 -5.7" fill="#000000" fill-rule="evenodd" stroke="none"/>
  </g>
</svg>
