<?xml version="1.0" encoding="UTF-8" standalone="no"?>
<svg xmlns:xlink="http://www.w3.org/1999/xlink" height="32.5px" width="33.65px" xmlns="http://www.w3.org/2000/svg">
  <g transform="matrix(1.0, 0.0, 0.0, 1.0, 16.8, 16.25)">
    <path d="M5.85 -8.2 L2.4 -7.45 -6.6 -5.45 Q-9.55 -4.8 -11.3 -3.3 L-11.35 -6.05 -11.3 -6.2 -11.35 -6.5 -11.3 -6.9 -11.3 -7.15 Q-9.3 -10.75 -6.25 -13.35 L-5.25 -13.8 Q4.5 -15.4 10.3 -7.9 L5.85 -8.2 M13.85 1.65 L13.85 1.7 Q5.95 0.1 -2.1 0.0 L-2.1 -0.15 Q4.05 -1.45 10.3 -1.6 11.35 -1.6 12.2 -2.0 12.3 -0.3 13.3 1.45 L13.85 1.65 M-14.65 12.45 L-14.5 12.5 Q-10.8 11.05 -6.75 9.85 2.6 7.15 12.2 7.15 L14.7 7.55 14.85 7.5 14.95 8.2 15.25 8.85 15.25 9.2 15.25 10.85 9.85 9.75 7.65 9.6 Q-4.3 10.45 -15.5 14.15 L-15.35 13.85 -14.65 12.45" fill="#856a3f" fill-rule="evenodd" stroke="none"/>
    <path d="M5.85 -8.2 L10.3 -7.9 Q4.5 -15.4 -5.25 -13.8 L-6.25 -13.35 Q-9.3 -10.75 -11.3 -7.15 L-11.3 -6.9 -11.35 -6.5 -11.3 -6.2 -11.35 -6.05 -11.3 -3.3 Q-9.55 -4.8 -6.6 -5.45 L2.4 -7.45 5.85 -8.2 M-11.95 1.15 Q-0.5 -2.95 11.95 -4.2 L12.1 -4.55 12.15 -5.2 12.0 -5.85 11.75 -6.4 11.75 -6.45 10.05 -6.7 8.95 -6.85 Q-1.85 -6.4 -11.05 -1.05 L-11.5 -0.75 -11.6 -0.45 -11.85 0.2 -12.05 0.9 -12.15 1.2 -11.95 1.15 M13.85 1.7 L14.7 1.85 15.25 2.0 Q15.65 2.4 15.65 3.0 L15.6 4.0 15.6 4.65 15.6 6.3 16.2 7.75 16.25 8.1 16.6 8.3 Q16.95 9.75 16.85 11.3 L16.8 11.6 16.15 12.6 5.85 11.9 Q-1.4 11.75 -8.3 14.1 -12.0 15.35 -15.8 16.25 L-16.8 16.05 Q-16.55 12.05 -14.65 8.0 L-13.65 5.25 -13.6 4.6 -13.55 4.3 -13.5 4.25 -13.85 4.55 Q-14.15 1.15 -13.5 -2.1 -13.7 -4.25 -12.75 -5.95 L-12.55 -6.75 -12.6 -6.95 -12.6 -7.3 Q-11.3 -10.45 -9.1 -13.0 -7.8 -14.55 -5.8 -15.5 L-3.45 -16.25 Q6.8 -15.95 11.8 -7.8 L12.3 -7.85 12.55 -7.7 Q12.85 -7.5 13.15 -7.4 L13.35 -7.05 Q13.8 -6.1 13.7 -5.1 13.65 -4.25 13.85 -3.45 L13.4 -2.9 14.15 -0.65 14.15 -0.35 Q14.6 0.1 14.6 0.65 L14.6 1.0 14.2 1.5 13.85 1.65 13.3 1.45 Q12.3 -0.3 12.2 -2.0 11.35 -1.6 10.3 -1.6 4.05 -1.45 -2.1 -0.15 L-2.8 0.0 -2.1 0.0 Q5.95 0.1 13.85 1.7 M-11.85 3.4 Q-7.9 5.15 -2.75 4.4 L-1.45 4.35 13.85 5.2 13.85 4.55 13.85 3.65 Q4.3 1.7 -5.75 1.65 L-11.4 3.0 -11.85 3.3 -11.95 3.35 -11.85 3.4 M-12.75 6.0 Q-13.15 8.75 -14.25 11.5 -8.85 9.0 -2.55 7.55 1.3 6.65 5.2 6.3 -3.05 5.6 -11.3 6.05 L-12.7 6.0 -12.75 6.0 M-14.65 12.45 L-15.35 13.85 -15.5 14.15 Q-4.3 10.45 7.65 9.6 L9.85 9.75 15.25 10.85 15.25 9.2 15.25 8.85 14.95 8.2 14.85 7.5 14.7 7.55 12.2 7.15 Q2.6 7.15 -6.75 9.85 -10.8 11.05 -14.5 12.5 L-14.6 12.35 -14.65 12.45" fill="#000000" fill-rule="evenodd" stroke="none"/>
    <path d="M-12.05 0.9 L-11.85 0.2 -11.6 -0.45 -11.5 -0.75 -11.05 -1.05 Q-1.85 -6.4 8.95 -6.85 L10.05 -6.7 11.75 -6.45 11.75 -6.4 12.0 -5.85 12.15 -5.2 12.1 -4.55 11.95 -4.2 Q-0.5 -2.95 -11.95 1.15 L-12.05 0.9 M-11.85 3.3 L-11.4 3.0 -5.75 1.65 Q4.3 1.7 13.85 3.65 L13.85 4.55 13.85 5.2 -1.45 4.35 -2.75 4.4 Q-7.9 5.15 -11.85 3.4 L-11.85 3.3 M-12.75 6.0 L-12.7 6.0 -11.3 6.05 Q-3.05 5.6 5.2 6.3 1.3 6.65 -2.55 7.55 -8.85 9.0 -14.25 11.5 -13.15 8.75 -12.75 6.0" fill="#b47c3a" fill-rule="evenodd" stroke="none"/>
  </g>
</svg>
