<?xml version="1.0" encoding="UTF-8" standalone="no"?>
<svg xmlns:xlink="http://www.w3.org/1999/xlink" height="48.35px" width="41.3px" xmlns="http://www.w3.org/2000/svg">
  <g transform="matrix(1.0, 0.0, 0.0, 1.0, 20.15, 42.65)">
    <path d="M7.45 -39.25 L18.6 -27.35 19.15 -26.7 19.6 -26.1 20.3 -25.0 Q20.65 -21.8 21.15 -18.55 L20.9 -18.45 Q21.15 -11.7 19.15 -5.35 L19.55 -4.9 19.15 -3.9 18.8 -4.25 17.8 -1.6 17.65 -1.2 17.65 -0.7 17.55 -0.4 Q8.7 7.75 -3.7 5.0 L-7.15 3.9 Q-9.15 2.9 -10.9 1.55 -14.75 0.55 -17.5 -3.0 -19.4 -5.4 -19.4 -8.2 L-19.75 -8.5 -19.75 -8.8 -19.75 -9.1 -19.9 -9.35 -20.15 -9.65 Q-20.35 -11.85 -18.65 -13.2 L-18.6 -13.25 Q-18.75 -18.15 -16.85 -23.0 L-13.0 -32.6 -12.4 -34.15 -4.25 -38.8 Q-2.6 -39.7 -1.1 -40.7 L1.65 -42.1 3.1 -42.65 3.5 -42.55 3.5 -42.6 3.6 -42.5 3.95 -42.35 4.2 -42.1 4.2 -42.0 7.45 -39.25 M-15.25 -5.75 Q-12.55 -7.4 -9.9 -8.0 L-1.9 -8.6 Q3.4 -8.6 12.5 -4.45 14.85 -3.45 16.2 -1.9 L16.25 -1.9 16.45 -2.05 17.55 -5.25 Q8.45 -12.55 -3.75 -12.05 L-4.65 -12.25 -7.15 -11.9 -7.8 -11.95 -6.15 -12.35 -4.75 -12.75 -4.55 -13.05 -4.35 -13.3 -4.15 -13.35 -4.15 -15.05 -4.15 -16.2 -7.05 -16.25 -7.05 -16.55 -6.95 -17.15 -6.55 -17.4 -5.65 -17.75 -5.65 -17.8 -4.1 -17.65 -3.9 -21.3 Q-3.85 -22.0 -3.35 -22.5 L-3.0 -22.6 -0.35 -23.3 5.05 -23.55 5.1 -24.8 5.1 -25.1 5.75 -25.5 5.8 -25.5 6.3 -25.35 6.45 -23.35 Q10.9 -22.55 14.65 -19.3 L14.85 -19.05 Q14.6 -17.7 14.7 -16.15 L14.8 -14.7 Q16.05 -14.9 16.65 -13.95 L16.75 -13.65 Q15.85 -12.75 14.85 -12.8 L14.95 -9.05 17.95 -6.6 Q19.55 -12.55 19.8 -18.8 L19.55 -19.15 Q18.45 -26.7 12.5 -31.7 7.45 -35.9 3.25 -40.8 -2.65 -37.75 -8.85 -35.3 L-9.95 -34.4 -11.7 -31.3 -16.0 -19.6 -17.55 -14.6 -17.7 -13.75 -17.2 -13.95 Q-15.65 -14.1 -14.5 -13.0 L-14.3 -12.75 -14.35 -12.45 Q-14.4 -12.15 -13.65 -11.95 L-13.4 -11.75 Q-14.15 -7.85 -17.8 -7.8 L-15.95 -5.05 -15.4 -4.35 -15.6 -5.3 -15.25 -5.6 -15.2 -5.6 -15.25 -5.75 M13.75 -18.1 Q10.85 -20.85 6.8 -21.25 L6.7 -21.25 6.8 -20.75 6.75 -20.5 6.6 -20.25 6.2 -20.0 5.7 -20.2 5.3 -21.4 Q2.1 -21.65 -1.05 -21.5 -2.0 -21.45 -2.65 -20.85 L-2.65 -19.7 -2.6 -17.6 -1.15 -17.7 -0.55 -17.7 -0.3 -17.4 -0.15 -17.15 -2.6 -16.45 -2.55 -15.15 Q-2.5 -14.4 -2.6 -13.7 L0.8 -13.55 Q8.3 -13.25 14.05 -9.65 L13.95 -10.35 Q13.75 -11.75 13.7 -13.2 L13.15 -13.55 13.2 -13.85 Q13.2 -14.4 13.7 -14.4 L13.75 -17.5 13.75 -18.1 M-14.75 -4.85 Q-13.6 -2.25 -11.5 -0.5 L-11.2 -0.3 -11.05 -0.15 -10.7 0.1 Q-8.85 1.35 -6.4 2.05 L-3.8 2.75 Q4.8 4.7 12.3 0.5 L15.3 -1.3 Q5.4 -6.35 -5.75 -6.7 -10.4 -6.85 -14.5 -5.0 L-14.9 -5.15 -14.75 -4.85 M-17.45 -12.65 Q-18.3 -11.95 -18.65 -10.9 L-18.8 -10.65 -18.55 -9.75 -18.4 -9.3 Q-15.9 -8.8 -15.25 -11.35 L-15.0 -11.65 -14.7 -11.95 Q-15.35 -12.15 -15.8 -12.65 -16.65 -13.1 -17.45 -12.65" fill="#000000" fill-rule="evenodd" stroke="none"/>
    <path d="M-15.95 -5.05 L-17.8 -7.8 Q-14.15 -7.85 -13.4 -11.75 L-13.65 -11.95 Q-14.4 -12.15 -14.35 -12.45 L-14.3 -12.75 -14.5 -13.0 Q-15.65 -14.1 -17.2 -13.95 L-17.7 -13.75 -17.55 -14.6 -16.0 -19.6 -11.7 -31.3 -9.95 -34.4 -8.85 -35.3 Q-2.65 -37.75 3.25 -40.8 7.45 -35.9 12.5 -31.7 18.45 -26.7 19.55 -19.15 L19.8 -18.8 Q19.55 -12.55 17.95 -6.6 L14.95 -9.05 14.85 -12.8 Q15.85 -12.75 16.75 -13.65 L16.65 -13.95 Q16.05 -14.9 14.8 -14.7 L14.7 -16.15 Q14.6 -17.7 14.85 -19.05 L14.65 -19.3 Q10.9 -22.55 6.45 -23.35 L6.3 -25.35 5.8 -25.5 5.75 -25.5 5.1 -25.1 5.1 -24.8 5.05 -23.55 -0.35 -23.3 -3.0 -22.6 -3.35 -22.5 Q-3.85 -22.0 -3.9 -21.3 L-4.1 -17.65 -5.65 -17.8 -5.65 -17.75 -6.55 -17.4 -6.95 -17.15 -7.05 -16.55 -7.05 -16.25 -4.15 -16.2 -4.15 -15.05 -4.15 -13.35 -4.35 -13.3 -4.55 -13.05 -4.75 -12.75 -6.15 -12.35 -7.8 -11.95 -7.15 -11.9 -4.65 -12.25 -3.75 -12.05 Q8.45 -12.55 17.55 -5.25 L16.45 -2.05 16.25 -1.9 16.2 -1.9 Q14.85 -3.45 12.5 -4.45 3.4 -8.6 -1.9 -8.6 L-9.9 -8.0 Q-12.55 -7.4 -15.25 -5.75 L-15.25 -5.6 -15.6 -5.3 -15.95 -5.05" fill="#856a3f" fill-rule="evenodd" stroke="none"/>
    <path d="M13.75 -18.1 L13.75 -17.5 13.7 -14.4 Q13.2 -14.4 13.2 -13.85 L13.15 -13.55 13.7 -13.2 Q13.75 -11.75 13.95 -10.35 L14.05 -9.65 Q8.3 -13.25 0.8 -13.55 L-2.6 -13.7 Q-2.5 -14.4 -2.55 -15.15 L-2.6 -16.45 -0.15 -17.15 -0.3 -17.4 -0.55 -17.7 -1.15 -17.7 -2.6 -17.6 -2.65 -19.7 -2.65 -20.85 Q-2.0 -21.45 -1.05 -21.5 2.1 -21.65 5.3 -21.4 L5.7 -20.2 6.2 -20.0 6.6 -20.25 6.75 -20.5 6.8 -20.75 6.7 -21.25 6.8 -21.25 Q10.85 -20.85 13.75 -18.1" fill="#c0954e" fill-rule="evenodd" stroke="none"/>
    <path d="M-14.5 -5.0 Q-10.4 -6.85 -5.75 -6.7 5.4 -6.35 15.3 -1.3 L12.3 0.5 Q4.8 4.7 -3.8 2.75 L-6.4 2.05 Q-8.85 1.35 -10.7 0.1 L-11.05 -0.15 -11.2 -0.3 -11.5 -0.5 Q-13.6 -2.25 -14.75 -4.85 L-14.5 -5.0 M-17.45 -12.65 Q-16.65 -13.1 -15.8 -12.65 -15.35 -12.15 -14.7 -11.95 L-15.0 -11.65 -15.25 -11.35 Q-15.9 -8.8 -18.4 -9.3 L-18.55 -9.75 -18.8 -10.65 -18.65 -10.9 Q-18.3 -11.95 -17.45 -12.65" fill="#ffcc99" fill-rule="evenodd" stroke="none"/>
  </g>
</svg>
