<?xml version="1.0" encoding="UTF-8" standalone="no"?>
<svg xmlns:xlink="http://www.w3.org/1999/xlink" height="60.6px" width="37.55px" xmlns="http://www.w3.org/2000/svg">
  <g transform="matrix(1.0, 0.0, 0.0, 1.0, 17.9, 35.55)">
    <path d="M-15.1 11.25 L-15.1 11.95 -15.05 12.1 -13.2 18.25 Q-12.1 19.5 -10.6 20.05 -4.7 23.6 2.25 23.35 L4.2 23.15 Q9.55 22.0 13.9 19.0 L13.95 18.85 Q15.6 17.8 16.25 15.35 L16.75 12.3 16.8 10.9 16.85 11.55 17.05 11.55 17.35 2.8 15.45 -1.6 Q13.45 -6.25 9.75 -9.65 L9.9 -9.65 Q15.2 -5.6 17.35 0.3 L17.35 -6.3 Q17.3 -13.0 16.8 -19.55 L16.85 -19.75 16.9 -19.8 Q11.4 -26.4 4.7 -31.95 2.95 -33.4 1.15 -33.9 -6.85 -29.1 -13.7 -22.75 L-15.3 -20.1 -16.2 -19.25 Q-15.7 -16.55 -15.85 -13.55 -16.2 -8.75 -16.15 -3.95 L-16.1 -2.0 -15.9 -2.7 -15.7 -0.45 -15.65 0.0 -15.85 1.4 Q-14.75 -3.0 -11.9 -6.9 L-10.45 -8.45 -10.4 -8.5 -10.15 -8.55 -10.15 -8.6 -9.2 -8.35 -9.1 -8.2 -9.25 -8.1 -10.1 -7.9 Q-14.7 -2.45 -15.8 4.55 L-15.2 11.25 -15.1 11.25 M18.0 -19.75 Q18.45 -10.35 18.55 -0.75 L18.45 4.55 18.55 5.25 18.5 5.7 18.4 5.45 17.8 11.7 Q21.2 14.2 18.4 17.6 17.75 18.4 16.75 18.55 L16.4 18.5 16.05 18.95 15.9 19.15 15.85 19.2 Q14.15 21.15 11.6 22.4 4.05 26.15 -3.9 24.6 L-6.05 24.0 Q-8.9 23.0 -11.3 21.15 L-12.9 20.45 -13.25 20.85 -13.55 20.7 -13.85 19.85 -15.5 18.35 -15.7 18.3 -16.05 18.0 -16.05 17.95 Q-17.25 17.8 -17.85 16.4 -18.1 13.9 -16.45 12.1 L-16.3 12.0 Q-17.55 3.25 -17.35 -5.8 L-17.15 -19.45 -17.25 -19.65 -17.3 -19.85 -17.1 -20.35 -17.1 -20.5 -16.7 -20.8 -16.55 -20.8 -16.5 -20.6 Q-11.9 -27.45 -4.6 -31.8 L1.3 -35.55 Q9.2 -30.6 15.4 -23.1 L17.6 -20.1 17.8 -19.95 18.0 -19.75 M3.7 -13.2 Q6.35 -13.05 8.6 -11.65 L8.85 -11.45 Q7.6 -10.95 6.0 -12.0 5.25 -12.45 4.3 -12.4 L-0.8 -12.35 Q1.05 -13.0 3.0 -13.15 L3.7 -13.2 M8.85 -14.0 Q0.2 -17.25 -8.3 -14.25 L-10.3 -13.65 Q-9.9 -14.15 -9.25 -14.35 -7.95 -14.8 -7.0 -15.65 L-5.6 -16.0 -2.15 -16.65 Q3.55 -16.55 8.8 -14.3 L9.15 -14.15 8.85 -14.0 M-14.4 10.3 L-14.4 10.2 -14.4 10.3 M-12.85 6.45 L-13.0 6.7 -12.85 6.25 -12.85 6.45 M-15.45 13.85 L-16.1 13.5 Q-16.5 14.1 -16.6 15.05 L-16.5 16.1 Q-15.7 16.5 -14.8 16.55 L-15.35 13.85 -15.45 13.85 M16.65 17.3 Q19.35 15.85 17.55 13.15 17.3 15.25 16.65 17.3" fill="#000000" fill-rule="evenodd" stroke="none"/>
    <path d="M16.65 17.3 Q17.3 15.25 17.55 13.15 19.35 15.85 16.65 17.3 M-15.45 13.85 L-15.35 13.85 -14.8 16.55 Q-15.7 16.5 -16.5 16.1 L-16.6 15.05 Q-16.5 14.1 -16.1 13.5 L-15.45 13.85" fill="#ffcc99" fill-rule="evenodd" stroke="none"/>
    <path d="M-15.2 11.25 L-15.8 4.55 Q-14.7 -2.45 -10.1 -7.9 L-9.25 -8.1 -9.1 -8.2 -9.2 -8.35 -10.15 -8.6 -10.15 -8.55 -10.4 -8.5 -10.45 -8.45 -11.9 -6.9 Q-14.75 -3.0 -15.85 1.4 L-15.65 0.0 -15.7 -0.45 -15.9 -2.7 -16.1 -2.0 -16.15 -3.95 Q-16.2 -8.75 -15.85 -13.55 -15.7 -16.55 -16.2 -19.25 L-15.3 -20.1 -13.7 -22.75 Q-6.85 -29.1 1.15 -33.9 2.95 -33.4 4.7 -31.95 11.4 -26.4 16.9 -19.8 L16.85 -19.75 16.8 -19.55 Q17.3 -13.0 17.35 -6.3 L17.35 0.3 Q15.2 -5.6 9.9 -9.65 L9.75 -9.65 Q13.45 -6.25 15.45 -1.6 L17.35 2.8 17.05 11.55 16.85 11.55 16.8 10.9 16.75 12.3 16.25 15.35 Q15.6 17.8 13.95 18.85 L13.9 19.0 Q9.55 22.0 4.2 23.15 L2.25 23.35 Q-4.7 23.6 -10.6 20.05 -12.1 19.5 -13.2 18.25 L-15.05 12.1 -15.1 11.95 -15.1 11.25 -15.2 11.25 M8.85 -14.0 L9.15 -14.15 8.8 -14.3 Q3.55 -16.55 -2.15 -16.65 L-5.6 -16.0 -7.0 -15.65 Q-7.95 -14.8 -9.25 -14.35 -9.9 -14.15 -10.3 -13.65 L-8.3 -14.25 Q0.2 -17.25 8.85 -14.0 M3.7 -13.2 L3.0 -13.15 Q1.05 -13.0 -0.8 -12.35 L4.3 -12.4 Q5.25 -12.45 6.0 -12.0 7.6 -10.95 8.85 -11.45 L8.6 -11.65 Q6.35 -13.05 3.7 -13.2 M-12.85 6.45 L-12.85 6.25 -13.0 6.7 -12.85 6.45 M-14.4 10.3 L-14.4 10.2 -14.4 10.3" fill="#856a3f" fill-rule="evenodd" stroke="none"/>
  </g>
</svg>
