<?xml version="1.0" encoding="UTF-8" standalone="no"?>
<svg xmlns:xlink="http://www.w3.org/1999/xlink" height="60.6px" width="37.55px" xmlns="http://www.w3.org/2000/svg">
  <g transform="matrix(1.0, 0.0, 0.0, 1.0, 17.9, 35.55)">
    <path d="M-14.95 11.2 L-14.3 11.4 -14.4 10.2 -13.95 10.2 -11.65 2.4 -10.25 -0.6 -9.55 -1.65 -9.3 -1.95 -7.3 -3.75 Q-6.3 -5.35 -4.5 -6.2 L-0.85 -7.4 Q2.0 -7.6 4.55 -6.8 6.05 -5.95 7.7 -5.2 L8.5 -4.8 10.4 -3.2 10.85 -2.75 12.0 -1.65 14.0 1.05 Q15.55 3.65 16.05 6.95 L16.2 8.1 16.35 8.05 16.6 8.3 16.85 11.55 17.05 11.55 Q17.45 2.7 17.35 -6.3 17.3 -13.0 16.8 -19.55 L16.85 -19.75 16.9 -19.8 Q11.4 -26.4 4.7 -31.95 2.95 -33.4 1.15 -33.9 -6.85 -29.1 -13.7 -22.75 L-15.3 -20.1 -16.2 -19.25 Q-15.7 -16.55 -15.85 -13.55 -16.2 -8.75 -16.15 -3.95 L-16.1 -2.0 Q-15.3 -4.95 -13.45 -7.7 L-13.3 -7.9 -13.2 -7.95 -12.8 -8.0 -12.6 -7.75 Q-15.6 -2.95 -15.9 2.45 L-15.2 11.25 -14.95 11.2 M17.6 -20.1 L17.8 -19.95 18.0 -19.75 Q18.45 -10.35 18.55 -0.75 18.6 5.65 17.8 11.7 21.2 14.2 18.4 17.6 17.75 18.4 16.75 18.55 L16.4 18.5 Q14.6 20.9 11.6 22.4 4.05 26.15 -3.9 24.6 L-6.05 24.0 Q-8.9 23.0 -11.3 21.15 -13.75 20.3 -15.5 18.35 L-15.7 18.3 -16.05 18.0 -16.05 17.95 Q-17.25 17.8 -17.85 16.4 -18.1 13.9 -16.45 12.1 L-16.3 12.0 Q-17.55 3.25 -17.35 -5.8 L-17.15 -19.45 -17.25 -19.65 -17.3 -19.85 -17.1 -20.35 -17.1 -20.5 -16.7 -20.8 -16.55 -20.8 -16.5 -20.6 Q-11.9 -27.45 -4.6 -31.8 L1.3 -35.55 Q9.2 -30.6 15.4 -23.1 L17.6 -20.1 M-7.15 -8.1 L-7.4 -8.3 -7.35 -11.45 -7.1 -13.9 -7.9 -14.25 -7.85 -14.45 -7.7 -14.9 -6.95 -14.95 -6.45 -17.45 -6.3 -17.7 -5.7 -18.65 -5.55 -18.8 -0.4 -19.7 0.35 -19.85 1.7 -19.85 Q1.55 -21.25 2.25 -22.65 L2.3 -22.9 2.8 -23.25 2.85 -23.3 3.25 -23.15 2.85 -19.8 Q7.15 -19.5 11.3 -18.0 L11.5 -17.85 Q11.4 -15.6 11.45 -13.25 L11.45 -12.75 14.4 -12.45 14.5 -12.3 14.55 -12.1 14.45 -11.8 14.35 -11.65 11.45 -11.25 11.2 -7.35 Q12.85 -6.3 14.0 -4.6 15.4 -2.55 16.4 -0.35 L16.35 -0.2 16.05 -0.05 Q13.6 -3.9 10.1 -6.55 7.35 -8.55 4.2 -9.4 -3.55 -11.55 -8.95 -5.05 L-12.3 -1.55 -13.15 -0.3 -13.45 -0.2 -13.4 -0.4 -13.25 -0.95 -13.1 -1.4 -13.05 -1.65 Q-10.35 -5.15 -7.0 -7.9 L-6.95 -7.95 -7.15 -8.1 M10.45 -17.05 Q6.25 -18.6 2.2 -18.5 L2.1 -18.3 Q1.75 -18.0 1.8 -18.5 -1.75 -18.4 -5.2 -17.05 L-5.45 -15.1 -4.3 -15.35 -3.9 -15.15 -3.75 -14.95 -3.8 -14.5 -3.9 -14.25 Q-4.8 -13.8 -5.6 -13.75 L-6.05 -10.3 -6.3 -8.5 -4.8 -9.65 Q-2.65 -11.2 -0.25 -11.5 5.45 -11.0 10.45 -7.85 L10.35 -9.9 10.4 -11.5 Q9.65 -11.8 8.95 -12.3 8.8 -12.4 8.8 -12.65 L8.95 -12.8 9.05 -12.85 9.35 -12.9 9.35 -12.95 10.45 -12.85 10.45 -17.05 M14.0 4.1 Q12.9 0.9 10.6 -1.65 7.0 -4.1 2.95 -5.55 L-1.5 -5.65 Q-5.15 -4.65 -7.65 -1.65 L-7.7 -1.6 Q-9.3 0.45 -10.25 2.85 L-10.45 3.35 -11.55 7.4 -12.15 9.6 Q-12.45 13.3 -11.8 17.0 L4.35 17.1 Q9.35 17.15 14.2 17.35 14.95 13.0 14.8 8.55 L14.8 8.3 15.2 8.1 15.05 7.65 14.1 4.4 14.0 4.1 M-10.7 14.35 L-11.0 13.55 Q-10.9 12.8 -10.25 12.35 L-9.7 12.05 Q-7.25 12.35 -8.4 14.7 L-8.55 15.0 Q-9.05 15.4 -9.7 15.2 L-10.2 15.05 -10.7 14.35 M-15.0 13.6 L-15.2 13.75 -15.45 13.85 -16.1 13.5 Q-16.5 14.1 -16.6 15.05 L-16.5 16.1 Q-15.4 16.65 -14.0 16.55 L-14.35 12.7 -14.35 12.55 -14.45 12.45 -14.85 12.55 -14.95 13.35 -15.0 13.6 M-13.55 12.85 L-13.5 13.0 -13.5 12.85 -13.55 12.85 M-11.3 19.45 L-11.3 19.6 Q-5.1 23.65 2.25 23.35 L4.2 23.15 Q9.55 22.0 13.9 19.0 L14.0 18.4 4.35 18.9 Q-3.65 18.95 -11.5 18.55 L-11.45 18.7 -11.3 19.45 M10.55 11.7 Q11.9 11.6 12.5 12.8 L12.6 13.05 12.35 14.05 12.1 14.8 Q11.3 15.7 10.1 15.05 9.4 14.3 9.5 13.3 L9.5 12.55 9.95 12.05 10.1 11.85 10.2 11.8 10.55 11.75 10.55 11.7 M17.05 12.85 L16.85 12.8 Q16.8 15.1 16.4 17.3 L16.55 17.35 Q19.5 15.85 17.4 12.95 L17.2 12.95 17.05 12.85" fill="#000000" fill-rule="evenodd" stroke="none"/>
    <path d="M-10.25 2.85 Q-9.3 0.45 -7.7 -1.6 L-7.65 -1.65 Q-5.15 -4.65 -1.5 -5.65 L2.95 -5.55 Q7.0 -4.1 10.6 -1.65 12.9 0.9 14.0 4.1 L14.0 4.4 14.1 4.4 15.05 7.65 15.2 8.1 14.8 8.3 14.8 8.55 Q14.95 13.0 14.2 17.35 9.35 17.15 4.35 17.1 L-11.8 17.0 Q-12.45 13.3 -12.15 9.6 L-11.55 7.4 -10.45 3.35 -10.25 3.35 -10.25 2.85 M17.05 12.85 L17.2 12.95 17.4 12.95 Q19.5 15.85 16.55 17.35 L16.4 17.3 Q16.8 15.1 16.85 12.8 L17.05 12.85 M10.55 11.7 L10.55 11.75 10.2 11.8 10.1 11.85 9.95 12.05 9.5 12.55 9.5 13.3 Q9.4 14.3 10.1 15.05 11.3 15.7 12.1 14.8 L12.35 14.05 12.6 13.05 12.5 12.8 Q11.9 11.6 10.55 11.7 M-11.3 19.45 L-11.45 18.7 -11.5 18.55 Q-3.65 18.95 4.35 18.9 L14.0 18.4 13.9 19.0 Q9.55 22.0 4.2 23.15 L2.25 23.35 Q-5.1 23.65 -11.3 19.6 L-11.3 19.45 M-13.55 12.85 L-13.5 12.85 -13.5 13.0 -13.55 12.85 M-15.0 13.6 L-14.95 13.35 -14.85 12.55 -14.45 12.45 -14.35 12.55 -14.35 12.7 -14.0 16.55 Q-15.4 16.65 -16.5 16.1 L-16.6 15.05 Q-16.5 14.1 -16.1 13.5 L-15.45 13.85 -15.2 13.75 -15.0 13.6 M-10.7 14.35 L-10.2 15.05 -9.7 15.2 Q-9.05 15.4 -8.55 15.0 L-8.4 14.7 Q-7.25 12.35 -9.7 12.05 L-10.25 12.35 Q-10.9 12.8 -11.0 13.55 L-10.7 14.35" fill="#ffcc99" fill-rule="evenodd" stroke="none"/>
    <path d="M-15.2 11.25 L-15.9 2.45 Q-15.6 -2.95 -12.6 -7.75 L-12.8 -8.0 -13.2 -7.95 -13.3 -7.9 -13.45 -7.7 Q-15.3 -4.95 -16.1 -2.0 L-16.15 -3.95 Q-16.2 -8.75 -15.85 -13.55 -15.7 -16.55 -16.2 -19.25 L-15.3 -20.1 -13.7 -22.75 Q-6.85 -29.1 1.15 -33.9 2.95 -33.4 4.7 -31.95 11.4 -26.4 16.9 -19.8 L16.85 -19.75 16.8 -19.55 Q17.3 -13.0 17.35 -6.3 17.45 2.7 17.05 11.55 L16.85 11.55 16.6 8.3 16.35 8.05 16.2 8.1 16.05 6.95 Q15.55 3.65 14.0 1.05 L12.0 -1.65 10.85 -2.75 10.4 -3.2 8.5 -4.8 7.7 -5.2 Q6.05 -5.95 4.55 -6.8 2.0 -7.6 -0.85 -7.4 L-4.5 -6.2 Q-6.3 -5.35 -7.3 -3.75 L-9.3 -1.95 -9.55 -1.65 -10.25 -0.6 -11.65 2.4 -13.95 10.2 -14.4 10.2 -14.3 11.4 -14.95 11.2 -15.2 11.25 M-7.0 -7.9 Q-10.35 -5.15 -13.05 -1.65 L-13.1 -1.4 -13.25 -0.95 -13.4 -0.4 -13.45 -0.2 -13.15 -0.3 -12.3 -1.55 -8.95 -5.05 Q-3.55 -11.55 4.2 -9.4 7.35 -8.55 10.1 -6.55 13.6 -3.9 16.05 -0.05 L16.35 -0.2 16.4 -0.35 Q15.4 -2.55 14.0 -4.6 12.85 -6.3 11.2 -7.35 L11.45 -11.25 14.35 -11.65 14.45 -11.8 14.55 -12.1 14.5 -12.3 14.4 -12.45 11.45 -12.75 11.45 -13.25 Q11.4 -15.6 11.5 -17.85 L11.3 -18.0 Q7.15 -19.5 2.85 -19.8 L3.25 -23.15 2.85 -23.3 2.8 -23.25 2.3 -22.9 2.25 -22.65 Q1.55 -21.25 1.7 -19.85 L0.35 -19.85 -0.4 -19.7 -5.55 -18.8 -5.7 -18.65 -6.3 -17.7 -6.45 -17.45 -6.95 -14.95 -7.7 -14.9 -7.85 -14.45 -7.9 -14.25 -7.1 -13.9 -7.35 -11.45 -7.4 -8.3 -7.15 -8.1 -7.0 -7.9" fill="#856a3f" fill-rule="evenodd" stroke="none"/>
    <path d="M10.45 -17.05 L10.45 -12.85 9.35 -12.95 9.35 -12.9 9.05 -12.85 8.95 -12.8 8.8 -12.65 Q8.8 -12.4 8.95 -12.3 9.65 -11.8 10.4 -11.5 L10.35 -9.9 10.45 -7.85 Q5.45 -11.0 -0.25 -11.5 -2.65 -11.2 -4.8 -9.65 L-6.3 -8.5 -6.05 -10.3 -5.6 -13.75 Q-4.8 -13.8 -3.9 -14.25 L-3.8 -14.5 -3.75 -14.95 -3.9 -15.15 -4.3 -15.35 -5.45 -15.1 -5.2 -17.05 Q-1.75 -18.4 1.8 -18.5 1.75 -18.0 2.1 -18.3 L2.2 -18.5 Q6.25 -18.6 10.45 -17.05" fill="#c0954e" fill-rule="evenodd" stroke="none"/>
  </g>
</svg>
