<?xml version="1.0" encoding="UTF-8" standalone="no"?>
<svg xmlns:xlink="http://www.w3.org/1999/xlink" height="59.0px" width="40.5px" xmlns="http://www.w3.org/2000/svg">
  <g transform="matrix(1.0, 0.0, 0.0, 1.0, 16.25, 54.55)">
    <path d="M-8.0 1.95 L-6.15 2.3 -2.3 2.6 -1.3 2.6 -2.9 0.5 -4.65 -2.75 -4.65 -2.15 -4.95 -2.8 -5.3 -3.8 -5.4 -4.45 -5.75 -7.2 -5.65 -7.6 Q-4.7 -12.0 -2.35 -15.9 L-0.7 -18.55 -0.45 -18.7 5.95 -23.35 Q8.7 -25.2 12.05 -26.05 L17.95 -26.3 21.2 -25.4 21.3 -25.35 21.45 -25.3 21.6 -25.2 21.9 -25.1 22.1 -25.05 22.7 -25.15 22.75 -25.25 22.85 -26.0 22.85 -26.05 22.8 -26.1 21.7 -28.0 21.5 -28.0 21.5 -28.3 21.25 -28.35 16.05 -28.9 14.1 -29.1 14.05 -29.05 13.95 -28.9 13.8 -28.8 7.6 -26.85 5.3 -26.4 5.0 -26.45 Q-0.15 -23.4 -3.7 -18.95 -6.2 -15.8 -7.8 -12.3 L-7.85 -12.1 -8.15 -11.3 -8.25 -11.3 -8.3 -12.15 -8.25 -12.3 -8.3 -12.45 -8.45 -12.8 Q-7.2 -17.05 -4.05 -20.45 -0.25 -24.6 4.65 -27.4 L4.05 -31.55 4.05 -31.7 1.95 -31.2 Q1.3 -31.1 1.1 -31.65 1.6 -32.8 3.4 -32.65 L3.95 -32.6 3.55 -35.45 3.25 -37.95 Q5.35 -39.35 7.95 -39.75 L11.85 -40.15 14.25 -40.0 14.5 -39.95 Q14.3 -40.75 14.25 -41.55 L14.35 -41.7 14.55 -41.8 14.75 -41.9 15.1 -41.75 15.65 -39.85 20.55 -39.05 20.4 -41.35 Q15.8 -44.8 10.8 -47.15 L4.4 -50.2 Q1.75 -51.6 -1.05 -52.7 L-4.15 -49.15 -8.25 -44.45 -10.2 -42.2 -10.6 -41.55 -11.35 -40.0 -11.45 -39.55 -11.75 -38.3 -11.85 -37.9 -11.65 -31.35 -11.7 -26.1 -11.8 -23.25 -11.75 -22.9 -11.7 -22.65 -8.75 -28.05 -8.3 -28.2 -7.5 -29.6 -7.45 -29.6 -7.9 -28.4 -8.05 -28.2 -8.0 -27.9 -7.85 -27.75 Q-9.9 -24.2 -11.15 -20.45 L-11.05 -20.35 -10.95 -20.15 -11.0 -20.05 -10.95 -19.95 Q-8.1 -24.25 -2.9 -25.85 L-2.25 -25.95 -2.05 -25.65 Q-8.95 -23.2 -11.1 -16.9 L-11.95 -15.7 Q-12.65 -14.5 -12.6 -12.9 L-12.75 -12.8 -12.75 -12.45 -12.85 -8.85 Q-12.35 -8.45 -11.7 -8.45 L-11.65 -8.3 -11.35 -7.8 -11.3 -7.2 -11.3 -5.25 -11.6 -3.05 -12.25 -2.8 -12.25 -2.65 -12.45 -2.6 -12.5 -2.55 -12.65 -2.15 -12.65 -1.1 -12.65 -0.9 -12.25 -0.6 -12.05 -0.45 -11.75 -0.3 -11.7 -0.1 Q-10.95 0.7 -10.05 1.1 L-8.25 1.75 -7.6 1.9 -7.95 1.9 -8.2 1.9 -8.0 1.95 M-12.5 -42.15 Q-11.95 -42.55 -11.55 -43.1 L-8.55 -46.65 -1.65 -54.55 Q3.7 -51.95 9.2 -49.6 16.4 -46.65 22.2 -41.85 L22.3 -39.45 22.8 -39.1 23.2 -32.8 23.35 -28.6 23.5 -28.5 24.2 -25.95 24.2 -25.9 24.25 -25.75 24.15 -25.4 24.05 -25.0 23.8 -23.65 23.3 -23.2 23.2 -20.2 22.8 -13.9 22.35 -8.4 21.95 -2.95 21.25 -2.55 20.9 -2.2 21.1 -2.0 17.4 0.6 13.4 2.9 Q11.5 3.9 9.25 4.3 L7.7 4.45 6.3 4.35 0.45 3.3 0.4 3.3 0.35 3.55 0.3 3.75 0.0 3.85 -0.2 3.95 Q-5.5 3.65 -10.35 2.1 -12.2 1.5 -13.55 0.2 -13.65 -0.65 -14.1 -1.2 L-13.9 -1.3 -13.75 -2.15 -13.9 -2.45 -15.7 -4.1 -16.25 -4.5 -16.25 -6.75 -14.25 -8.85 -13.95 -8.85 -14.0 -10.55 -14.0 -10.75 -14.15 -10.95 -14.3 -11.15 -14.0 -15.1 -14.0 -15.25 -13.85 -15.45 -13.75 -15.65 Q-13.65 -16.7 -13.05 -17.65 L-13.05 -18.9 -13.25 -22.3 -13.45 -24.8 -13.5 -27.3 -13.7 -30.55 Q-13.7 -35.0 -13.1 -39.35 L-12.85 -40.6 -12.75 -40.65 -12.75 -40.7 -12.65 -40.75 -12.5 -42.15 M-1.0 -15.95 L-2.45 -14.15 Q-4.45 -9.75 -4.65 -4.95 L-4.1 -3.75 2.0 -3.65 9.15 -3.45 19.85 -3.2 19.85 -5.45 18.65 -5.45 Q18.15 -5.5 17.8 -5.95 16.85 -7.05 17.95 -8.1 L18.75 -8.5 Q19.7 -8.35 20.1 -7.85 L20.7 -13.75 21.15 -19.8 21.25 -22.95 20.45 -23.55 Q19.05 -24.3 17.55 -24.65 L13.55 -24.85 Q9.25 -24.1 5.6 -21.75 L2.6 -19.4 Q1.25 -18.8 0.2 -17.75 L-1.0 -15.95 M-14.65 -6.75 L-14.6 -6.5 -14.6 -6.25 -14.45 -5.5 -14.1 -4.8 -13.6 -4.35 -13.1 -3.95 -12.75 -4.65 Q-11.95 -6.0 -12.4 -7.5 L-14.25 -7.4 -14.65 -6.75 M-0.35 -9.6 Q2.15 -8.8 1.0 -7.25 L0.65 -6.7 Q0.25 -6.35 -0.25 -6.35 -0.65 -6.3 -1.05 -6.55 -3.0 -7.7 -1.35 -9.2 L-0.35 -9.6 M21.3 -34.2 L20.75 -35.0 20.6 -38.2 15.7 -38.7 15.6 -38.6 15.45 -38.5 15.25 -38.4 14.85 -38.5 14.8 -38.7 7.95 -38.5 Q6.35 -38.35 5.0 -37.6 L5.6 -32.65 7.05 -33.0 7.6 -32.55 7.65 -32.35 Q7.25 -31.7 6.35 -31.8 L5.75 -31.8 6.35 -27.9 Q9.0 -28.55 11.9 -29.7 L13.25 -29.9 15.15 -30.1 15.95 -30.1 21.25 -29.25 21.45 -29.2 21.45 -29.25 21.5 -29.3 21.3 -34.2 M18.5 -2.0 L-3.65 -2.75 -1.45 0.8 -1.35 0.8 4.05 1.85 9.5 2.2 Q11.85 1.7 14.1 0.65 L16.1 -0.25 Q16.95 -0.65 17.75 -1.2 L18.5 -1.75 19.1 -2.0 18.5 -2.0" fill="#000000" fill-rule="evenodd" stroke="none"/>
    <path d="M-7.95 1.9 L-7.6 1.9 -8.25 1.75 -10.05 1.1 Q-10.95 0.7 -11.7 -0.1 L-11.75 -0.3 -12.05 -0.45 -12.25 -0.6 -12.65 -0.9 -12.65 -1.1 -12.65 -2.15 -12.5 -2.55 -12.45 -2.6 -12.25 -2.65 -12.25 -2.8 -11.6 -3.05 -11.3 -5.25 -11.3 -7.2 -11.35 -7.8 -11.65 -8.3 -11.7 -8.45 Q-12.35 -8.45 -12.85 -8.85 L-12.75 -12.45 -12.75 -12.8 -12.6 -12.9 Q-12.65 -14.5 -11.95 -15.7 L-11.1 -16.9 Q-8.95 -23.2 -2.05 -25.65 L-2.25 -25.95 -2.9 -25.85 Q-8.1 -24.25 -10.95 -19.95 L-11.0 -20.05 -10.95 -20.15 -11.05 -20.35 -11.15 -20.45 Q-9.9 -24.2 -7.85 -27.75 L-8.0 -27.9 -8.05 -28.2 -7.9 -28.4 -7.45 -29.6 -7.5 -29.6 -8.3 -28.2 -8.75 -28.05 -11.7 -22.65 -11.75 -22.9 -11.8 -23.25 -11.7 -26.1 -11.65 -31.35 -11.85 -37.9 -11.75 -38.3 -11.45 -39.55 -11.35 -40.0 -10.6 -41.55 -10.2 -42.2 -8.25 -44.45 -4.15 -49.15 -1.05 -52.7 Q1.75 -51.6 4.4 -50.2 L10.8 -47.15 Q15.8 -44.8 20.4 -41.35 L20.55 -39.05 15.65 -39.85 15.1 -41.75 14.75 -41.9 14.55 -41.8 14.35 -41.7 14.25 -41.55 Q14.3 -40.75 14.5 -39.95 L14.25 -40.0 11.85 -40.15 7.95 -39.75 Q5.35 -39.35 3.25 -37.95 L3.55 -35.45 3.95 -32.6 3.4 -32.65 Q1.6 -32.8 1.1 -31.65 1.3 -31.1 1.95 -31.2 L4.05 -31.7 4.05 -31.55 4.65 -27.4 Q-0.25 -24.6 -4.05 -20.45 -7.2 -17.05 -8.45 -12.8 L-8.3 -12.45 -8.25 -12.3 -8.3 -12.15 -8.25 -11.3 -8.15 -11.3 -7.85 -12.1 -7.8 -12.3 Q-6.2 -15.8 -3.7 -18.95 -0.15 -23.4 5.0 -26.45 L5.3 -26.4 7.6 -26.85 13.8 -28.8 13.95 -28.9 14.05 -29.05 14.1 -29.1 16.05 -28.9 21.25 -28.35 21.5 -28.3 21.5 -28.0 21.7 -28.0 22.8 -26.1 22.85 -26.05 22.85 -26.0 22.75 -25.25 22.7 -25.15 22.1 -25.05 21.9 -25.1 21.6 -25.2 21.45 -25.3 21.3 -25.35 21.2 -25.4 17.95 -26.3 12.05 -26.05 Q8.7 -25.2 5.95 -23.35 L-0.45 -18.7 -0.7 -18.55 -2.35 -15.9 Q-4.7 -12.0 -5.65 -7.6 L-5.75 -7.2 -5.4 -4.45 -5.3 -3.8 -4.95 -2.8 -4.65 -2.15 -4.65 -2.75 -2.9 0.5 -1.3 2.6 -2.3 2.6 -6.15 2.3 -8.0 1.95 -7.95 1.9" fill="#856a3f" fill-rule="evenodd" stroke="none"/>
    <path d="M-1.0 -15.95 L0.2 -17.75 Q1.25 -18.8 2.6 -19.4 L5.6 -21.75 Q9.25 -24.1 13.55 -24.85 L17.55 -24.65 Q19.05 -24.3 20.45 -23.55 L21.25 -22.95 21.15 -19.8 20.7 -13.75 20.1 -7.85 Q19.7 -8.35 18.75 -8.5 L17.95 -8.1 Q16.85 -7.05 17.8 -5.95 18.15 -5.5 18.65 -5.45 L19.85 -5.45 19.85 -3.2 9.15 -3.45 2.0 -3.65 -4.1 -3.75 -4.65 -4.95 Q-4.45 -9.75 -2.45 -14.15 L-1.0 -15.95 M-0.35 -9.6 L-1.35 -9.2 Q-3.0 -7.7 -1.05 -6.55 -0.65 -6.3 -0.25 -6.35 0.25 -6.35 0.65 -6.7 L1.0 -7.25 Q2.15 -8.8 -0.35 -9.6 M-14.65 -6.75 L-14.25 -7.4 -12.4 -7.5 Q-11.95 -6.0 -12.75 -4.65 L-13.1 -3.95 -13.6 -4.35 -14.1 -4.8 -14.45 -5.5 -14.6 -6.25 -14.6 -6.5 -14.65 -6.75 M18.5 -1.75 L17.75 -1.2 Q16.95 -0.65 16.1 -0.25 L14.1 0.65 Q11.85 1.7 9.5 2.2 L4.05 1.85 -1.35 0.8 -1.45 0.8 -3.65 -2.75 18.5 -2.0 18.5 -1.75" fill="#ffcc99" fill-rule="evenodd" stroke="none"/>
    <path d="M21.3 -34.2 L21.5 -29.3 21.45 -29.25 21.45 -29.2 21.25 -29.25 15.95 -30.1 15.15 -30.1 13.25 -29.9 11.9 -29.7 Q9.0 -28.55 6.35 -27.9 L5.75 -31.8 6.35 -31.8 Q7.25 -31.7 7.65 -32.35 L7.6 -32.55 7.05 -33.0 5.6 -32.65 5.0 -37.6 Q6.35 -38.35 7.95 -38.5 L14.8 -38.7 14.85 -38.5 15.25 -38.4 15.45 -38.5 15.6 -38.6 15.7 -38.7 20.6 -38.2 20.75 -35.0 21.3 -34.2" fill="#c0954e" fill-rule="evenodd" stroke="none"/>
  </g>
</svg>
