<?xml version="1.0" encoding="UTF-8" standalone="no"?>
<svg xmlns:xlink="http://www.w3.org/1999/xlink" height="59.45px" width="37.9px" xmlns="http://www.w3.org/2000/svg">
  <g transform="matrix(1.0, 0.0, 0.0, 1.0, 15.35, 34.75)">
    <path d="M3.8 -31.65 Q2.25 -31.95 0.7 -32.55 L-0.15 -32.7 Q-5.5 -28.4 -10.0 -23.45 L-12.05 -21.55 -12.25 -21.55 -13.2 1.15 Q-11.4 -6.1 -7.9 -12.95 L-7.7 -13.2 -7.55 -13.3 -6.95 -13.35 -6.55 -12.95 Q-9.75 -5.95 -12.05 1.45 -10.5 -1.5 -8.2 -4.15 -4.55 -8.45 0.6 -10.5 L-6.75 -4.3 Q-11.9 0.2 -13.4 7.1 -14.4 11.85 -14.6 16.7 L-0.2 21.15 Q-0.5 19.05 -0.1 16.8 L0.1 16.75 0.35 19.85 0.4 20.25 1.25 21.6 4.85 22.7 5.1 22.6 5.1 22.55 5.45 22.6 5.0 21.15 4.55 17.75 3.7 17.4 4.1 17.05 4.55 17.1 Q4.2 6.5 13.45 -1.05 15.75 -2.95 18.45 -3.75 L20.15 -3.35 Q20.9 -4.95 20.7 -6.45 11.8 -6.35 6.05 1.5 4.95 3.0 4.2 4.7 4.15 1.2 7.65 -2.1 9.35 -3.75 11.4 -5.05 L12.35 -5.6 12.4 -6.05 12.25 -7.15 Q11.95 -7.75 11.95 -8.35 L11.9 -10.3 10.1 -10.65 10.2 -10.95 10.75 -11.65 10.9 -11.75 11.25 -11.85 11.25 -11.9 11.4 -11.9 Q11.25 -12.6 11.25 -13.35 L11.2 -14.1 11.0 -16.4 11.2 -16.7 Q12.25 -17.55 13.3 -17.8 L17.55 -17.45 17.55 -17.95 17.55 -18.7 Q12.9 -25.2 6.15 -29.75 L3.8 -31.65 M13.8 -26.4 L15.6 -24.5 18.15 -21.15 18.45 -20.95 Q18.75 -20.75 19.05 -20.65 19.7 -16.4 20.85 -12.3 21.4 -10.45 21.15 -8.75 L21.9 -7.7 22.15 -7.3 22.15 -7.2 22.25 -7.2 22.55 -6.75 22.55 -6.4 22.2 -6.4 Q22.25 -3.45 19.6 -2.1 19.7 9.15 18.2 20.25 L18.15 20.6 17.55 20.9 18.0 21.0 18.15 21.25 18.2 21.6 17.9 22.3 Q12.45 24.1 6.75 24.7 L6.45 24.3 6.4 24.0 5.75 23.55 5.25 23.8 4.6 23.5 4.55 23.2 Q-3.75 22.45 -12.0 19.1 L-13.75 18.55 -14.6 17.5 -14.65 18.3 -15.05 18.2 -15.25 17.9 Q-15.65 12.9 -14.65 8.4 -15.05 -6.2 -13.65 -20.8 L-13.35 -22.95 -13.2 -23.05 -12.6 -23.1 -12.3 -22.8 Q-8.45 -27.7 -3.25 -31.65 -1.75 -32.8 -0.9 -34.5 L-0.55 -34.55 -0.05 -34.65 0.0 -34.75 Q7.8 -32.35 13.8 -26.4 M12.35 -12.95 L12.4 -11.85 Q13.75 -11.7 14.85 -10.75 L14.85 -10.5 12.55 -10.25 13.1 -7.15 13.2 -6.1 16.9 -7.85 20.25 -7.5 20.0 -8.35 19.9 -8.5 19.85 -8.85 19.05 -12.65 18.6 -14.9 18.2 -16.15 12.95 -16.0 12.4 -15.65 Q12.3 -14.3 12.35 -12.95 M19.6 -2.7 L19.6 -2.5 19.85 -2.8 19.6 -2.7 M12.0 12.35 L12.3 12.7 Q12.15 16.2 9.2 13.95 L9.15 13.55 9.1 12.8 9.35 12.45 9.75 12.05 10.15 11.85 10.75 11.65 12.0 12.35 M7.45 23.55 Q11.7 21.85 16.35 20.7 L16.4 20.6 16.65 20.65 16.85 17.6 5.9 17.9 Q6.15 20.65 7.45 23.55 M16.9 17.35 L18.15 -2.05 Q11.85 1.15 8.15 7.65 5.6 12.15 5.8 16.9 L16.9 17.35 M-9.15 11.4 L-8.95 11.0 Q-8.65 10.35 -8.2 10.25 L-5.45 10.55 Q-5.3 10.55 -5.15 10.75 L-5.2 10.8 -5.15 10.8 -4.9 10.75 -3.25 12.3 -2.95 12.7 -3.25 13.45 -3.6 14.2 -4.7 14.55 -4.5 14.7 Q-6.9 17.95 -9.45 14.25 -10.0 13.5 -9.9 12.55 L-9.55 12.15 -9.15 11.4 M-8.25 11.9 L-8.55 12.7 -8.6 13.05 Q-8.65 13.7 -8.2 14.2 L-5.55 14.3 -4.9 14.35 -4.85 14.4 -4.7 13.85 -4.5 13.05 Q-4.95 12.2 -5.7 11.45 L-5.75 11.15 -5.7 11.05 -8.1 11.5 -8.25 11.9" fill="#000000" fill-rule="evenodd" stroke="none"/>
    <path d="M16.9 17.35 L5.8 16.9 Q5.6 12.15 8.15 7.65 11.85 1.15 18.15 -2.05 L16.9 17.35 M7.45 23.55 Q6.15 20.65 5.9 17.9 L16.85 17.6 16.65 20.65 16.4 20.6 16.35 20.7 Q11.7 21.85 7.45 23.55 M12.0 12.35 L10.75 11.65 10.15 11.85 9.75 12.05 9.35 12.45 9.1 12.8 9.15 13.55 9.2 13.95 Q12.15 16.2 12.3 12.7 L12.0 12.35 M-8.25 11.9 L-8.1 11.5 -5.7 11.05 -5.75 11.15 -5.7 11.45 Q-4.95 12.2 -4.5 13.05 L-4.7 13.85 -4.85 14.4 -4.9 14.35 -5.55 14.3 -8.2 14.2 Q-8.65 13.7 -8.6 13.05 L-8.55 12.7 -8.25 11.9" fill="#ffcc99" fill-rule="evenodd" stroke="none"/>
    <path d="M3.8 -31.65 L6.15 -29.75 Q12.9 -25.2 17.55 -18.7 L17.55 -17.95 17.55 -17.45 13.3 -17.8 Q12.25 -17.55 11.2 -16.7 L11.0 -16.4 11.2 -14.1 11.25 -13.35 Q11.25 -12.6 11.4 -11.9 L11.25 -11.9 11.25 -11.85 10.9 -11.75 10.75 -11.65 10.2 -10.95 10.1 -10.65 11.9 -10.3 11.95 -8.35 Q11.95 -7.75 12.25 -7.15 L12.4 -6.05 12.35 -5.6 11.4 -5.05 Q9.35 -3.75 7.65 -2.1 4.15 1.2 4.2 4.7 4.95 3.0 6.05 1.5 11.8 -6.35 20.7 -6.45 20.9 -4.95 20.15 -3.35 L18.45 -3.75 Q15.75 -2.95 13.45 -1.05 4.2 6.5 4.55 17.1 L4.1 17.05 3.7 17.4 4.55 17.75 5.0 21.15 5.45 22.6 5.1 22.55 5.1 22.6 4.85 22.7 1.25 21.6 0.4 20.25 0.35 19.85 0.1 16.75 -0.1 16.8 Q-0.5 19.05 -0.2 21.15 L-14.6 16.7 Q-14.4 11.85 -13.4 7.1 -11.9 0.2 -6.75 -4.3 L0.6 -10.5 Q-4.55 -8.45 -8.2 -4.15 -10.5 -1.5 -12.05 1.45 -9.75 -5.95 -6.55 -12.95 L-6.95 -13.35 -7.55 -13.3 -7.7 -13.2 -7.9 -12.95 Q-11.4 -6.1 -13.2 1.15 L-12.25 -21.55 -12.05 -21.55 -10.0 -23.45 Q-5.5 -28.4 -0.15 -32.7 L0.7 -32.55 Q2.25 -31.95 3.8 -31.65 M-9.15 11.4 L-9.55 12.15 -9.9 12.55 Q-10.0 13.5 -9.45 14.25 -6.9 17.95 -4.5 14.7 L-4.7 14.55 -3.6 14.2 -3.25 13.45 -2.95 12.7 -3.25 12.3 -4.9 10.75 -5.15 10.8 -5.2 10.8 -5.15 10.75 Q-5.3 10.55 -5.45 10.55 L-8.2 10.25 Q-8.65 10.35 -8.95 11.0 L-9.15 11.4" fill="#856a3f" fill-rule="evenodd" stroke="none"/>
    <path d="M12.35 -12.95 Q12.3 -14.3 12.4 -15.65 L12.95 -16.0 18.2 -16.15 18.6 -14.9 19.05 -12.65 19.85 -8.85 19.9 -8.5 20.0 -8.35 20.25 -7.5 16.9 -7.85 13.2 -6.1 13.1 -7.15 12.55 -10.25 14.85 -10.5 14.85 -10.75 Q13.75 -11.7 12.4 -11.85 L12.35 -12.95" fill="#c0954e" fill-rule="evenodd" stroke="none"/>
  </g>
</svg>
