<?xml version="1.0" encoding="UTF-8" standalone="no"?>
<svg xmlns:xlink="http://www.w3.org/1999/xlink" height="38.25px" width="41.9px" xmlns="http://www.w3.org/2000/svg">
  <g transform="matrix(1.0, 0.0, 0.0, 1.0, 20.95, 19.15)">
    <path d="M14.35 -14.4 L14.5 -14.2 14.4 -9.45 14.15 -7.9 Q16.55 -6.45 19.05 -5.4 18.4 -2.95 16.7 -0.65 L16.1 0.5 Q18.65 2.7 20.3 5.55 19.55 6.8 18.2 7.75 L18.0 7.9 18.0 8.15 17.95 8.35 17.9 8.6 Q20.0 10.3 20.95 12.65 L20.85 12.85 20.7 13.1 19.0 13.25 16.8 15.05 16.55 15.15 Q14.6 14.1 12.55 13.5 L12.35 13.7 12.15 13.9 Q11.1 16.7 8.35 14.8 7.45 14.2 6.35 14.25 L5.95 15.15 5.75 15.75 Q2.55 16.1 -0.4 15.0 L-0.95 16.65 -1.4 17.2 Q-2.9 17.55 -4.4 16.55 -4.65 16.0 -5.05 15.6 L-5.3 15.35 -5.9 17.15 Q-6.0 17.7 -6.4 18.15 -7.7 18.4 -8.25 16.9 L-8.55 16.4 -8.85 16.4 Q-10.4 17.45 -11.5 18.9 -12.05 19.35 -12.6 18.9 L-12.85 18.65 -12.65 16.25 -13.05 16.25 Q-13.6 16.75 -14.3 17.05 L-14.95 17.25 -15.45 17.0 -15.7 16.75 -15.85 16.5 -15.9 15.7 Q-15.9 15.2 -16.05 14.7 L-18.85 13.85 -19.15 13.05 Q-19.2 12.5 -18.9 12.05 -20.4 11.65 -20.85 10.3 L-20.95 9.8 -20.55 9.1 -20.0 8.1 -20.15 7.85 -20.3 7.6 -20.65 7.05 -20.7 6.8 -20.7 6.55 -20.65 5.8 Q-18.8 4.5 -16.35 4.4 L-16.65 3.85 Q-16.8 3.5 -16.6 3.1 L-16.4 2.95 -16.25 2.9 -15.9 2.8 Q-13.6 3.1 -12.05 4.55 L-11.85 1.8 -11.55 0.45 Q-11.05 -0.1 -10.8 -0.9 L-10.5 -1.5 Q-10.8 -1.95 -11.8 -1.75 -12.2 -1.45 -12.7 -1.25 L-12.95 -1.15 -13.4 -1.35 Q-13.4 -3.85 -12.15 -6.3 -11.25 -7.95 -10.0 -9.25 -10.95 -9.2 -11.75 -9.95 -10.95 -13.1 -7.8 -14.8 -5.75 -16.0 -3.55 -16.8 L-3.15 -17.1 -2.8 -17.45 -2.35 -17.6 -2.05 -17.65 Q-0.05 -16.45 2.05 -15.7 L5.25 -18.85 5.4 -19.0 5.55 -19.05 5.85 -19.1 5.85 -19.15 Q8.15 -17.6 9.0 -14.8 L9.0 -14.6 Q11.45 -14.1 14.0 -14.6 L14.35 -14.4 M13.95 -6.25 L12.5 -7.25 Q12.4 -7.55 12.45 -7.9 L12.5 -8.15 Q13.25 -9.8 13.2 -11.75 L13.2 -12.85 8.0 -13.1 Q7.65 -13.75 7.6 -14.45 L7.6 -14.7 6.2 -17.3 5.8 -17.45 Q4.2 -15.4 2.0 -14.3 L1.2 -14.4 Q-0.7 -15.45 -2.7 -15.95 -6.9 -14.3 -10.0 -10.95 -8.55 -11.25 -7.5 -10.25 -8.3 -8.55 -9.85 -6.85 L-11.05 -5.05 -11.8 -3.05 -9.55 -2.65 -9.1 -2.4 -10.5 2.3 -10.9 4.05 -10.75 4.2 -9.65 4.05 -9.15 4.5 -9.65 5.6 -11.1 9.6 -11.85 11.95 -11.75 11.95 -11.45 11.9 -10.95 12.3 -11.3 14.6 -11.3 15.15 -11.35 15.65 -11.45 16.8 -11.5 16.9 -11.2 16.9 -8.9 14.85 -8.55 14.8 -7.1 16.2 Q-6.65 15.6 -6.55 14.9 L-6.5 14.45 Q-5.95 13.8 -5.15 13.75 -4.05 15.3 -2.3 15.85 L-1.45 14.1 -1.05 13.5 4.8 14.3 5.35 13.2 5.4 13.0 Q8.0 12.7 10.65 14.05 12.05 10.8 15.45 13.0 L16.4 13.45 Q17.55 12.55 18.8 11.9 L16.75 8.85 Q16.45 8.45 16.6 7.85 17.05 6.4 18.5 5.5 L14.75 0.8 14.65 0.65 Q15.3 -0.25 15.35 -1.25 L17.3 -4.3 17.55 -4.7 Q15.65 -5.25 13.95 -6.25 M-11.5 6.05 L-12.1 6.45 -13.75 4.8 Q-14.0 4.5 -14.4 4.35 L-14.3 4.6 -14.2 4.9 -13.95 5.4 -14.0 5.65 -14.1 5.9 -14.45 6.4 -14.9 6.5 -18.95 6.4 Q-19.05 6.95 -18.65 7.45 -18.25 7.95 -18.25 8.5 L-18.75 9.25 -19.25 9.9 Q-17.5 9.85 -15.85 10.65 -15.65 11.6 -16.7 12.2 L-17.25 12.75 Q-14.7 12.55 -14.4 15.0 L-14.4 15.25 -14.25 15.15 -13.25 14.5 -13.45 14.3 Q-13.4 11.75 -12.65 9.35 -12.1 7.7 -11.2 6.2 L-11.2 6.15 -11.5 6.05" fill="#000000" fill-rule="evenodd" stroke="none"/>
    <path d="M-9.65 5.6 L-9.15 4.5 -9.65 4.05 -10.75 4.2 -10.9 4.05 -10.5 2.3 -9.1 -2.4 -9.55 -2.65 -11.8 -3.05 -11.05 -5.05 -9.85 -6.85 Q-8.3 -8.55 -7.5 -10.25 -8.55 -11.25 -10.0 -10.95 -6.9 -14.3 -2.7 -15.95 -0.7 -15.45 1.2 -14.4 L2.0 -14.3 Q4.2 -15.4 5.8 -17.45 L6.2 -17.3 7.6 -14.7 7.6 -14.45 Q7.65 -13.75 8.0 -13.1 L13.2 -12.85 13.2 -11.75 Q13.25 -9.8 12.5 -8.15 L12.45 -7.9 Q12.4 -7.55 12.5 -7.25 L13.95 -6.25 13.85 -6.1 Q10.6 -4.8 7.5 -2.8 6.35 -2.1 5.15 -2.35 L5.15 -2.4 Q5.8 -4.9 3.35 -5.0 L3.1 -5.2 Q1.8 -5.7 1.2 -6.9 L1.05 -6.9 0.85 -6.9 0.75 -6.8 0.5 -6.35 Q0.9 -4.85 2.35 -3.95 L2.25 -3.85 1.85 -4.05 1.8 -3.55 1.75 -3.55 1.7 -3.3 Q1.55 -2.85 1.65 -2.4 L1.7 -2.35 1.55 -0.45 Q1.5 0.6 0.9 1.5 L0.75 1.55 0.45 1.6 Q-1.6 0.75 -3.8 0.75 -4.65 1.5 -5.15 2.5 L-5.3 2.7 -5.2 3.15 Q-5.1 3.5 -5.3 3.85 L-9.65 5.6" fill="#cccccc" fill-rule="evenodd" stroke="none"/>
    <path d="M1.7 -2.35 L1.65 -2.4 Q1.55 -2.85 1.7 -3.3 L1.75 -3.55 1.8 -3.55 2.25 -3.85 2.35 -3.95 Q0.9 -4.85 0.5 -6.35 L0.75 -6.8 0.85 -6.9 1.05 -6.9 1.2 -6.9 Q1.8 -5.7 3.1 -5.2 L3.35 -5.0 Q5.8 -4.9 5.15 -2.4 L5.15 -2.35 4.85 -1.55 Q5.15 -1.25 5.9 -1.55 L6.6 -0.9 6.5 -0.25 6.4 -0.05 5.6 0.3 5.15 2.75 Q5.05 3.2 5.1 3.65 L4.95 3.85 4.75 4.1 4.75 4.3 4.7 4.55 4.45 4.5 4.4 4.4 4.3 3.9 4.15 3.7 4.05 2.1 4.05 1.15 3.9 0.95 3.7 0.7 3.8 -0.9 3.8 -1.55 1.7 -2.35 M15.35 -1.25 Q15.3 -0.25 14.65 0.65 L14.55 0.75 14.35 1.0 Q14.75 1.95 14.2 2.8 L14.05 3.0 13.65 3.15 12.7 2.75 12.65 2.3 12.7 2.1 Q12.1 0.2 13.7 -0.8 14.1 -1.75 13.95 -2.75 L13.95 -3.15 14.1 -3.2 14.4 -3.25 14.8 -3.05 15.35 -1.25 M11.1 5.55 Q11.15 5.95 10.8 6.2 L10.75 8.25 10.65 9.15 10.55 9.35 10.35 9.55 10.3 9.8 10.25 10.2 10.15 10.4 Q9.65 9.0 9.9 7.5 L9.8 6.35 Q8.9 6.2 8.35 5.2 L8.3 5.05 8.35 4.8 8.5 4.6 8.75 4.4 8.7 3.9 8.8 3.25 9.0 3.1 9.15 3.05 9.45 3.0 9.85 3.2 10.4 3.45 Q11.1 4.4 11.1 5.55 M-14.4 15.0 Q-14.7 12.55 -17.25 12.75 L-16.7 12.2 Q-15.65 11.6 -15.85 10.65 -17.5 9.85 -19.25 9.9 L-18.75 9.25 -18.25 8.5 Q-18.25 7.95 -18.65 7.45 -19.05 6.95 -18.95 6.4 L-14.9 6.5 -14.45 6.4 -14.1 5.9 -14.0 5.65 -13.95 5.4 -14.2 4.9 -14.3 4.6 -14.4 4.35 Q-14.0 4.5 -13.75 4.8 L-12.1 6.45 -11.5 6.05 -11.2 6.2 Q-12.1 7.7 -12.65 9.35 -13.4 11.75 -13.45 14.3 L-13.25 14.5 -14.25 15.15 -14.4 15.0" fill="#ff0000" fill-rule="evenodd" stroke="none"/>
    <path d="M-9.65 5.6 L-5.3 3.85 Q-5.1 3.5 -5.2 3.15 L-5.3 2.7 -5.15 2.5 Q-4.65 1.5 -3.8 0.75 -1.6 0.75 0.45 1.6 L0.75 1.55 0.9 1.5 Q1.5 0.6 1.55 -0.45 L1.7 -2.35 3.8 -1.55 3.8 -0.9 3.7 0.7 3.9 0.95 4.05 1.15 4.05 2.1 4.15 3.7 4.3 3.9 4.4 4.4 4.45 4.5 4.7 4.55 4.75 4.3 4.75 4.1 4.95 3.85 5.1 3.65 Q5.05 3.2 5.15 2.75 L5.6 0.3 6.4 -0.05 6.5 -0.25 6.6 -0.9 5.9 -1.55 Q5.15 -1.25 4.85 -1.55 L5.15 -2.35 Q6.35 -2.1 7.5 -2.8 10.6 -4.8 13.85 -6.1 L13.95 -6.25 Q15.65 -5.25 17.55 -4.7 L17.3 -4.3 15.35 -1.25 14.8 -3.05 14.4 -3.25 14.1 -3.2 13.95 -3.15 13.95 -2.75 Q14.1 -1.75 13.7 -0.8 12.1 0.2 12.7 2.1 L12.65 2.3 12.7 2.75 13.65 3.15 14.05 3.0 14.2 2.8 Q14.75 1.95 14.35 1.0 L14.55 0.75 14.65 0.65 14.75 0.8 18.5 5.5 Q17.05 6.4 16.6 7.85 16.45 8.45 16.75 8.85 L18.8 11.9 Q17.55 12.55 16.4 13.45 L15.45 13.0 Q12.05 10.8 10.65 14.05 8.0 12.7 5.4 13.0 L5.35 13.2 4.8 14.3 -1.05 13.5 -1.45 14.1 -2.3 15.85 Q-4.05 15.3 -5.15 13.75 -5.95 13.8 -6.5 14.45 L-6.55 14.9 Q-6.65 15.6 -7.1 16.2 L-8.55 14.8 -8.9 14.85 -11.2 16.9 -11.45 16.8 -11.35 15.65 -11.3 15.15 -11.3 14.6 -10.95 12.3 -11.45 11.9 -11.75 11.95 -11.85 11.95 -11.1 9.6 -9.65 5.6 M1.8 -3.55 L1.85 -4.05 2.25 -3.85 1.8 -3.55 M11.1 5.55 Q11.1 4.4 10.4 3.45 L9.85 3.2 9.45 3.0 9.15 3.05 9.0 3.1 8.8 3.25 8.7 3.9 8.75 4.4 8.5 4.6 8.35 4.8 8.3 5.05 8.35 5.2 Q8.9 6.2 9.8 6.35 L9.9 7.5 Q9.65 9.0 10.15 10.4 L10.25 10.2 10.3 9.8 10.35 9.55 10.55 9.35 10.65 9.15 10.75 8.25 10.8 6.2 Q11.15 5.95 11.1 5.55" fill="#ffffff" fill-rule="evenodd" stroke="none"/>
  </g>
</svg>
