<?xml version="1.0" encoding="UTF-8" standalone="no"?>
<svg xmlns:xlink="http://www.w3.org/1999/xlink" height="44.0px" width="37.35px" xmlns="http://www.w3.org/2000/svg">
  <g transform="matrix(1.0, 0.0, 0.0, 1.0, 19.6, 18.75)">
    <path d="M13.1 -2.85 L13.1 -5.15 13.5 -5.65 13.5 -6.2 13.85 -6.7 14.15 -8.3 Q12.65 -9.7 11.0 -10.7 8.3 -12.1 6.35 -13.7 L6.9 -14.95 6.7 -15.7 6.6 -15.9 Q-1.8 -19.15 -8.7 -13.75 L-8.9 -13.5 -7.55 -12.4 -7.9 -11.7 -12.8 -6.55 -9.9 -4.85 -9.7 -4.1 -14.8 -0.2 -15.2 -0.1 -14.5 0.75 -13.8 1.5 -13.1 2.55 -13.75 3.4 Q-15.9 5.9 -17.45 8.65 L-15.2 9.35 -16.6 13.1 -17.75 18.6 -14.35 18.45 -13.85 18.6 -13.0 22.35 Q-7.6 19.25 -2.75 22.5 L-2.05 22.6 -0.35 20.65 6.5 22.25 9.05 19.25 12.35 19.3 11.25 18.0 11.35 16.95 13.85 15.4 11.05 12.8 11.05 11.7 14.7 7.85 13.85 4.4 15.4 2.55 13.1 -2.85 M7.85 -17.25 Q8.9 -15.8 8.7 -14.05 11.65 -13.05 14.0 -11.05 16.75 -8.65 15.6 -5.1 15.3 -4.2 15.5 -3.4 16.25 -0.15 17.75 2.6 L15.8 5.0 16.7 7.95 14.35 11.0 13.05 12.7 16.15 14.55 Q15.95 15.95 15.05 16.7 13.9 17.7 13.75 18.2 14.85 19.5 15.75 20.95 L15.75 21.35 15.05 21.75 9.9 20.75 8.7 22.2 Q8.05 23.1 7.55 24.3 L7.3 24.25 Q3.65 22.5 0.05 22.4 L-0.35 23.2 -0.65 24.0 -0.85 24.45 Q-1.1 25.2 -1.9 25.25 L-2.45 25.05 Q-4.2 22.7 -7.15 22.05 -8.7 21.9 -9.8 22.75 -12.2 24.85 -14.3 23.75 L-15.1 20.55 -16.25 20.65 Q-18.3 20.75 -19.6 19.85 L-19.55 19.35 -19.2 18.25 -17.75 11.65 -17.45 10.85 -19.25 9.7 Q-18.5 5.45 -15.35 2.25 L-17.3 0.05 -16.95 -0.5 -12.75 -4.35 -15.2 -6.3 -10.5 -11.8 -11.95 -12.5 Q-7.5 -17.05 -1.2 -18.2 L-0.75 -18.65 -0.4 -18.7 Q3.9 -19.05 7.85 -17.25 M-2.55 5.1 Q-2.9 4.25 -3.6 4.4 L-9.35 5.9 -9.0 6.25 Q-8.15 7.05 -8.5 8.3 L-10.75 9.25 -10.5 9.95 -11.7 12.4 -11.9 13.2 -11.05 13.3 -10.2 12.5 -8.95 12.6 -8.5 16.6 Q-7.2 15.95 -5.85 15.55 -4.0 15.15 -3.6 14.5 -2.9 12.6 -0.55 12.4 L-1.5 11.1 -1.6 10.05 -0.1 8.2 -0.75 6.45 -1.8 6.45 -2.55 5.1 M-6.3 2.9 Q-3.25 2.15 -1.65 4.45 -0.55 4.85 0.5 5.2 L1.4 7.0 Q2.1 8.75 1.2 10.0 L1.0 10.2 1.65 13.3 1.5 13.7 -1.6 14.8 -1.7 16.15 Q-3.65 16.95 -5.85 16.75 L-6.95 17.7 Q-7.4 18.05 -7.95 18.0 -9.3 18.35 -10.2 17.2 L-10.2 14.8 Q-12.05 15.3 -13.5 14.2 -14.05 11.9 -12.25 10.2 L-12.8 9.45 -12.8 8.4 -12.05 7.6 -10.55 7.05 -10.95 5.2 Q-8.9 3.5 -6.3 2.9" fill="#000000" fill-rule="evenodd" stroke="none"/>
    <path d="M-14.8 -0.2 L-9.7 -4.1 -9.9 -4.85 -12.8 -6.55 -7.9 -11.7 -7.55 -12.4 -8.9 -13.5 -8.7 -13.75 Q-1.8 -19.15 6.6 -15.9 L6.7 -15.7 6.9 -14.95 6.35 -13.7 Q8.3 -12.1 11.0 -10.7 12.65 -9.7 14.15 -8.3 L13.85 -6.7 13.5 -6.2 13.5 -5.65 13.1 -5.15 13.1 -2.85 8.95 -3.1 Q6.9 -3.1 5.15 -2.35 2.45 -1.1 -0.3 0.35 -3.35 -2.25 -7.35 -3.8 L-8.1 -3.9 -13.8 1.5 -14.5 0.75 -14.8 -0.2" fill="#cccccc" fill-rule="evenodd" stroke="none"/>
    <path d="M13.1 -2.85 L15.4 2.55 13.85 4.4 14.7 7.85 11.05 11.7 11.05 12.8 13.85 15.4 11.35 16.95 11.25 18.0 12.35 19.3 9.05 19.25 6.5 22.25 -0.35 20.65 -2.05 22.6 -2.75 22.5 Q-7.6 19.25 -13.0 22.35 L-13.85 18.6 -14.35 18.45 -17.75 18.6 -16.6 13.1 -15.2 9.35 -17.45 8.65 Q-15.9 5.9 -13.75 3.4 L-13.1 2.55 -13.8 1.5 -8.1 -3.9 -7.35 -3.8 Q-3.35 -2.25 -0.3 0.35 2.45 -1.1 5.15 -2.35 6.9 -3.1 8.95 -3.1 L13.1 -2.85 M-14.5 0.75 L-15.2 -0.1 -14.8 -0.2 -14.5 0.75 M-6.3 2.9 Q-8.9 3.5 -10.95 5.2 L-10.55 7.05 -12.05 7.6 -12.8 8.4 -12.8 9.45 -12.25 10.2 Q-14.05 11.9 -13.5 14.2 -12.05 15.3 -10.2 14.8 L-10.2 17.2 Q-9.3 18.35 -7.95 18.0 -7.4 18.05 -6.95 17.7 L-5.85 16.75 Q-3.65 16.95 -1.7 16.15 L-1.6 14.8 1.5 13.7 1.65 13.3 1.0 10.2 1.2 10.0 Q2.1 8.75 1.4 7.0 L0.5 5.2 Q-0.55 4.85 -1.65 4.45 -3.25 2.15 -6.3 2.9" fill="#ffffff" fill-rule="evenodd" stroke="none"/>
    <path d="M-2.55 5.1 L-1.8 6.45 -0.75 6.45 -0.1 8.2 -1.6 10.05 -1.5 11.1 -0.55 12.4 Q-2.9 12.6 -3.6 14.5 -4.0 15.15 -5.85 15.55 -7.2 15.95 -8.5 16.6 L-8.95 12.6 -10.2 12.5 -11.05 13.3 -11.9 13.2 -11.7 12.4 -10.5 9.95 -10.75 9.25 -8.5 8.3 Q-8.15 7.05 -9.0 6.25 L-9.35 5.9 -3.6 4.4 Q-2.9 4.25 -2.55 5.1" fill="#ff0000" fill-rule="evenodd" stroke="none"/>
  </g>
</svg>
