<?xml version="1.0" encoding="UTF-8" standalone="no"?>
<svg xmlns:xlink="http://www.w3.org/1999/xlink" height="62.95px" width="56.1px" xmlns="http://www.w3.org/2000/svg">
  <g transform="matrix(1.0, 0.0, 0.0, 1.0, 29.7, 32.55)">
    <path d="M23.05 -31.15 Q26.15 -29.95 26.1 -26.7 26.05 -24.8 26.4 -22.85 L25.9 -21.95 25.35 -21.7 Q25.35 -19.9 23.8 -18.95 L19.45 -16.55 19.0 -16.7 18.35 -13.85 Q20.25 -10.6 20.05 -7.0 L19.4 -6.4 19.7 -2.65 18.65 -2.3 18.7 3.05 18.15 3.45 Q18.75 11.35 17.15 18.65 L16.3 20.25 Q15.25 21.5 13.65 22.25 11.9 24.85 8.55 25.15 7.45 27.2 5.4 27.6 L4.9 27.55 3.85 29.0 2.95 28.65 1.35 30.4 0.9 30.1 Q-3.25 28.55 -6.95 26.15 L-7.35 26.5 -10.35 24.1 -16.85 20.5 -17.5 20.55 Q-19.7 13.2 -19.05 5.5 L-19.45 5.35 -19.15 -0.75 -19.8 -1.35 -19.3 -8.05 -20.2 -7.8 -20.55 -8.1 -19.15 -14.0 Q-25.5 -13.55 -28.4 -19.45 L-29.2 -21.55 -29.7 -23.15 -29.7 -25.5 Q-29.05 -29.75 -25.55 -32.0 -19.75 -32.9 -14.35 -31.1 L-12.5 -27.3 -12.5 -26.8 -12.45 -27.65 -10.2 -27.6 -9.85 -28.2 -8.05 -28.8 -5.2 -28.45 -4.8 -29.25 -1.8 -29.5 -1.45 -29.95 -0.2 -30.05 0.6 -30.95 2.7 -28.7 3.2 -29.65 4.7 -29.3 5.6 -29.95 6.95 -29.9 7.15 -29.3 8.75 -30.0 9.55 -29.75 9.55 -28.9 11.5 -29.3 12.75 -29.3 17.2 -32.55 22.75 -31.75 23.05 -31.15 M17.8 -11.6 L16.65 -15.8 17.2 -15.4 17.2 -15.55 17.95 -17.65 Q21.5 -18.2 23.4 -21.1 L25.1 -23.35 23.9 -29.15 17.5 -31.35 15.9 -29.95 15.2 -29.85 13.0 -27.85 8.65 -27.55 7.95 -28.1 6.9 -27.9 5.45 -28.55 5.05 -28.2 3.85 -28.25 3.2 -27.4 2.75 -27.4 Q1.65 -27.7 1.0 -28.6 L-4.0 -28.3 -4.95 -27.45 -7.1 -27.8 -7.65 -26.9 -8.4 -27.2 -9.25 -27.05 -9.8 -26.3 -11.25 -26.5 -11.4 -26.6 -11.3 -26.4 -11.9 -25.05 -13.55 -25.6 -13.55 -26.45 -15.4 -30.05 Q-21.05 -32.7 -25.9 -28.8 -28.3 -26.8 -28.4 -23.65 -27.25 -19.55 -24.35 -16.2 -20.65 -14.6 -17.65 -14.7 L-18.9 -11.35 -19.25 -9.7 -17.45 -9.55 -18.95 -3.4 -19.0 -3.1 -18.8 -3.2 -17.75 -3.65 -18.45 2.4 -17.9 2.2 -17.45 2.5 -17.85 8.05 -17.45 8.6 -17.2 18.5 Q-13.05 21.75 -8.55 24.4 -8.2 24.55 -7.9 24.9 -3.25 25.6 0.75 28.9 L2.95 26.8 3.8 26.95 4.15 26.35 6.45 25.9 16.8 17.95 17.2 2.35 17.6 2.2 17.35 -3.1 18.0 -3.85 17.95 -9.1 18.7 -9.5 17.8 -11.6" fill="#000000" fill-rule="evenodd" stroke="none"/>
    <path d="M-11.25 -26.5 L-9.8 -26.3 -9.25 -27.05 -8.4 -27.2 -7.65 -26.9 -7.1 -27.8 -4.95 -27.45 -4.0 -28.3 1.0 -28.6 Q1.65 -27.7 2.75 -27.4 L3.2 -27.4 3.85 -28.25 5.05 -28.2 5.45 -28.55 6.9 -27.9 7.95 -28.1 8.65 -27.55 13.0 -27.85 15.2 -29.85 15.9 -29.95 17.5 -31.35 23.9 -29.15 25.1 -23.35 23.4 -21.1 Q21.5 -18.2 17.95 -17.65 L17.2 -15.55 17.2 -15.4 16.65 -15.8 17.8 -11.6 16.85 -12.0 16.55 -12.6 15.8 -13.4 13.35 -13.5 11.7 -16.8 11.2 -17.4 9.9 -17.4 8.55 -15.3 Q7.45 -15.45 6.65 -17.5 L6.0 -18.55 3.15 -18.7 2.45 -20.0 0.0 -21.0 Q-1.7 -20.25 -2.1 -18.55 L-2.1 -18.3 -2.65 -18.35 -3.75 -19.0 -7.35 -19.0 -8.2 -18.1 -8.2 -16.4 -8.65 -15.95 Q-10.85 -16.1 -12.25 -14.25 L-12.35 -11.6 -15.4 -9.65 -15.55 -7.5 -16.25 -7.0 Q-15.9 -9.1 -17.35 -10.45 -18.1 -11.1 -18.9 -11.35 L-17.65 -14.7 Q-20.65 -14.6 -24.35 -16.2 -27.25 -19.55 -28.4 -23.65 -28.3 -26.8 -25.9 -28.8 -21.05 -32.7 -15.4 -30.05 L-13.55 -26.45 -13.55 -25.6 -11.9 -25.05 -11.3 -26.4 -11.25 -26.5" fill="#ffffff" fill-rule="evenodd" stroke="none"/>
    <path d="M-18.9 -11.35 Q-18.1 -11.1 -17.35 -10.45 -15.9 -9.1 -16.25 -7.0 L-15.55 -7.5 -15.4 -9.65 -12.35 -11.6 -12.25 -14.25 Q-10.85 -16.1 -8.65 -15.95 L-8.2 -16.4 -8.2 -18.1 -7.35 -19.0 -3.75 -19.0 -2.65 -18.35 -2.1 -18.3 -2.1 -18.55 Q-1.7 -20.25 0.0 -21.0 L2.45 -20.0 3.15 -18.7 6.0 -18.55 6.65 -17.5 Q7.45 -15.45 8.55 -15.3 L9.9 -17.4 11.2 -17.4 11.7 -16.8 13.35 -13.5 15.8 -13.4 16.55 -12.6 16.85 -12.0 17.8 -11.6 18.7 -9.5 17.95 -9.1 18.0 -3.85 17.35 -3.1 17.6 2.2 17.2 2.35 16.8 17.95 6.45 25.9 4.15 26.35 3.8 26.95 2.95 26.8 0.75 28.9 Q-3.25 25.6 -7.9 24.9 -8.2 24.55 -8.55 24.4 -13.05 21.75 -17.2 18.5 L-17.45 8.6 -17.85 8.05 -17.45 2.5 -17.9 2.2 -18.45 2.4 -17.75 -3.65 -18.8 -3.2 -18.95 -3.4 -17.45 -9.55 -19.25 -9.7 -18.9 -11.35" fill="#cccccc" fill-rule="evenodd" stroke="none"/>
  </g>
</svg>
