<?xml version="1.0" encoding="UTF-8" standalone="no"?>
<svg xmlns:xlink="http://www.w3.org/1999/xlink" height="64.2px" width="42.95px" xmlns="http://www.w3.org/2000/svg">
  <g transform="matrix(1.0, 0.0, 0.0, 1.0, 22.4, 38.95)">
    <path d="M9.7 -32.3 L10.3 -34.65 14.3 -35.3 Q17.05 -35.8 19.0 -33.75 19.35 -33.2 19.1 -32.65 L18.2 -31.6 18.15 -30.55 18.45 -30.1 18.4 -29.6 20.55 -23.65 20.25 -22.55 19.4 -22.4 19.7 -20.45 19.2 -19.65 18.5 -19.35 19.35 -16.3 18.15 -15.25 Q19.55 -13.25 18.65 -11.15 L18.85 -10.7 18.0 -8.75 18.05 -8.1 17.9 -2.05 17.8 -1.2 17.3 -0.7 17.2 -0.55 17.4 4.85 Q18.55 7.0 18.65 9.4 L18.65 9.65 18.05 10.6 17.05 11.25 17.05 11.65 Q16.95 12.0 17.15 12.3 L17.35 12.5 17.45 14.1 17.5 14.1 17.6 14.35 17.55 14.55 17.5 14.65 17.7 16.35 17.55 16.55 17.4 16.8 17.2 18.3 17.3 24.15 17.0 24.5 14.85 24.95 7.35 24.65 4.25 23.65 3.6 24.3 0.2 23.55 Q-1.7 24.05 -3.65 22.85 L-3.95 23.5 Q-6.7 24.0 -8.25 21.45 L-8.85 23.55 Q-9.8 23.65 -10.5 22.9 -11.25 22.15 -11.3 21.1 L-11.8 21.4 -13.5 20.75 -14.25 19.65 -15.2 19.5 -15.75 18.3 -15.75 18.2 -15.9 18.0 -16.05 17.8 -16.05 17.55 -16.05 17.35 -16.2 17.15 -16.35 16.9 Q-16.2 15.0 -16.75 13.3 L-16.9 12.15 -16.95 12.0 -17.45 11.5 -17.6 10.6 -17.75 9.8 -17.9 9.55 -18.05 9.35 Q-17.95 8.2 -18.2 7.15 L-18.35 6.1 -18.45 5.9 -18.6 5.65 -18.6 5.45 -18.6 5.0 -18.6 4.9 -19.3 4.6 -19.75 4.25 Q-20.35 2.15 -20.4 -0.1 -20.4 -0.8 -20.05 -1.4 -20.8 -1.45 -21.15 -2.1 L-21.6 -2.7 -21.6 -6.15 -21.6 -7.45 -21.9 -7.8 -22.4 -8.1 -21.4 -19.55 -21.05 -20.1 Q-20.4 -20.9 -21.1 -21.35 L-21.6 -21.65 Q-21.5 -23.55 -20.1 -24.9 L-20.6 -25.55 -18.1 -29.15 -18.4 -29.6 Q-18.3 -31.7 -17.05 -33.1 L-17.2 -34.75 Q-14.05 -37.9 -9.75 -38.95 L-6.65 -37.85 Q-4.9 -37.3 -3.5 -36.0 -2.1 -34.75 -1.6 -32.65 L1.2 -33.0 2.8 -33.2 4.4 -32.95 5.35 -33.0 Q7.0 -33.5 7.55 -32.4 L9.7 -32.3 M17.1 -18.95 L17.05 -20.45 18.15 -20.95 18.0 -23.75 19.05 -24.1 17.35 -29.3 17.2 -29.35 16.85 -29.1 12.2 -29.75 Q10.4 -29.4 9.25 -30.8 L6.3 -31.25 6.3 -31.7 Q4.55 -30.95 3.05 -32.05 L-2.55 -31.0 -4.6 -34.95 -5.2 -35.3 -5.6 -36.0 -8.15 -36.5 Q-12.5 -37.35 -15.85 -34.2 L-15.95 -32.8 -16.4 -31.45 -16.85 -30.15 -16.0 -28.15 -16.55 -27.3 -16.4 -26.6 -16.0 -24.8 Q-15.8 -24.15 -16.5 -23.15 L-17.6 -23.6 -17.6 -25.45 -17.85 -26.0 Q-18.1 -27.0 -18.25 -26.2 L-18.25 -25.2 -19.8 -23.25 -19.8 -22.6 -19.4 -21.85 -19.5 -20.3 -20.15 -18.6 -19.85 -18.3 Q-19.5 -17.75 -19.85 -17.4 L-20.1 -17.05 -21.25 -10.15 -20.7 -11.2 -19.8 -11.4 -20.25 -8.1 -20.4 -4.7 -20.4 -3.2 Q-19.95 -3.55 -19.75 -4.25 L-19.25 -5.35 -18.9 -5.4 -18.55 -5.3 Q-19.1 -2.05 -19.05 1.4 L-18.9 2.8 -18.75 2.4 -18.35 1.85 -18.05 1.85 -17.7 1.9 -17.0 8.2 -16.55 9.5 -16.2 9.65 -14.9 14.8 -14.4 16.15 -14.5 16.35 -14.7 16.8 -14.55 17.2 -14.4 17.85 -13.55 18.2 -13.2 18.3 -12.0 19.85 -11.65 19.0 -10.95 18.55 -10.5 19.15 -10.4 19.5 -10.4 20.6 -9.55 21.85 -9.45 20.65 -8.55 19.9 -5.5 21.95 -5.4 21.95 -5.6 21.15 -5.3 20.75 Q-3.5 21.35 -1.7 22.1 L-0.85 22.05 -0.65 21.95 2.8 22.9 3.1 22.5 3.6 21.9 Q6.3 23.1 9.15 23.35 L9.4 22.55 10.3 22.55 11.35 23.65 15.95 23.2 15.55 19.05 12.35 18.3 Q10.8 18.0 9.25 18.3 L7.45 19.1 6.9 18.7 7.6 18.3 Q9.1 17.45 11.0 17.3 L15.8 17.6 15.9 17.6 15.95 17.25 15.75 17.1 15.5 16.9 15.05 16.5 15.05 16.25 15.05 16.05 15.05 15.5 14.9 15.4 13.7 15.15 13.0 14.65 12.95 14.55 12.95 14.35 13.0 14.15 13.7 13.7 16.0 13.75 16.0 11.45 15.8 11.45 15.9 11.2 16.1 10.65 9.15 10.85 Q9.4 13.1 6.75 14.1 L6.7 14.1 6.6 14.2 6.55 14.2 4.25 14.75 3.35 14.6 3.4 14.65 1.95 14.1 1.85 13.85 Q1.15 13.35 1.0 12.7 L0.75 12.4 Q0.55 11.65 0.65 10.85 L0.7 10.45 0.8 10.3 Q0.95 9.85 1.55 9.8 L1.8 9.8 1.85 9.75 2.1 9.65 2.75 9.75 7.3 9.5 7.8 9.5 8.4 9.45 8.55 9.45 8.95 9.45 15.6 9.35 16.9 9.35 17.25 9.35 Q17.75 7.0 16.0 5.65 L16.0 4.55 16.0 4.5 16.0 2.3 16.0 2.1 16.2 0.75 Q16.0 0.05 16.1 -0.75 L16.15 -1.4 16.35 -1.6 16.5 -1.75 16.6 -1.85 16.55 -6.35 Q16.5 -6.85 16.85 -7.25 L16.85 -7.45 16.6 -7.9 16.6 -8.1 17.15 -10.45 16.55 -11.35 16.6 -11.8 17.2 -12.4 17.5 -12.65 17.5 -13.95 17.0 -14.55 16.7 -15.65 18.0 -16.75 17.1 -18.95 M16.1 10.65 L16.7 10.7 16.8 10.6 16.1 10.65 M16.7 -30.6 L17.4 -33.15 16.5 -33.85 10.95 -33.5 10.75 -31.55 16.6 -30.35 16.7 -30.35 16.7 -30.6 M5.2 11.05 L5.05 11.25 5.05 11.65 5.1 11.85 Q6.55 13.25 7.3 11.5 L7.25 11.3 Q7.05 10.6 6.3 10.5 L5.95 10.6 5.6 10.65 5.2 11.05 M-1.35 14.7 L0.55 15.75 Q-0.9 16.4 -2.0 14.9 L-2.05 14.7 -2.1 14.45 -2.3 14.25 -2.2 13.25 -1.95 13.15 -1.45 14.5 -1.35 14.7" fill="#000000" fill-rule="evenodd" stroke="none"/>
    <path d="M-19.5 -20.3 L-19.4 -21.85 -19.8 -22.6 -19.8 -23.25 -18.25 -25.2 -18.25 -26.2 Q-18.1 -27.0 -17.85 -26.0 L-17.6 -25.45 -17.6 -23.6 -16.5 -23.15 Q-15.8 -24.15 -16.0 -24.8 L-16.4 -26.6 -16.55 -27.3 -16.0 -28.15 -16.85 -30.15 -16.4 -31.45 -15.95 -32.8 -15.85 -34.2 Q-12.5 -37.35 -8.15 -36.5 L-5.6 -36.0 -5.2 -35.3 -4.6 -34.95 -2.55 -31.0 3.05 -32.05 Q4.55 -30.95 6.3 -31.7 L6.3 -31.25 9.25 -30.8 Q10.4 -29.4 12.2 -29.75 L16.85 -29.1 17.2 -29.35 17.35 -29.3 19.05 -24.1 18.0 -23.75 18.15 -20.95 17.05 -20.45 17.1 -18.95 16.7 -19.2 14.8 -17.45 15.05 -14.65 15.8 -13.85 17.25 -14.15 17.0 -14.55 17.5 -13.95 17.5 -12.65 17.3 -12.65 Q15.0 -11.3 13.55 -8.85 L13.15 -8.1 Q12.55 -6.5 13.3 -4.7 L13.7 -4.0 Q14.2 -2.8 15.0 -2.25 14.75 0.3 15.05 2.95 15.5 2.95 15.7 2.5 L15.75 2.05 16.0 2.1 16.0 2.3 16.0 4.5 16.0 4.55 16.0 5.65 Q17.75 7.0 17.25 9.35 L16.9 9.35 16.7 9.3 15.6 9.35 8.95 9.45 8.55 9.45 8.4 9.45 7.3 9.5 2.75 9.75 2.1 9.65 1.85 9.75 1.8 9.8 1.55 9.8 Q0.95 9.85 0.8 10.3 L0.7 10.45 0.65 10.85 Q0.55 11.65 0.75 12.4 L1.0 12.7 Q1.15 13.35 1.85 13.85 L1.95 14.1 3.4 14.65 3.85 14.75 Q8.45 15.3 13.0 14.65 L13.7 15.15 14.9 15.4 15.05 15.5 15.05 16.05 15.05 16.25 15.05 16.5 15.5 16.9 15.75 17.1 15.95 17.25 15.9 17.6 15.8 17.6 11.0 17.3 Q9.1 17.45 7.6 18.3 L6.9 18.7 7.45 19.1 9.25 18.3 Q10.8 18.0 12.35 18.3 L15.55 19.05 15.95 23.2 11.35 23.65 10.3 22.55 9.4 22.55 9.15 23.35 Q6.3 23.1 3.6 21.9 L3.1 22.5 0.85 20.75 Q-1.95 18.5 -5.1 18.8 L-5.15 18.3 -5.2 18.0 -5.15 13.7 -5.3 13.45 Q-5.65 13.0 -6.15 13.15 L-6.55 13.55 -6.8 13.75 -7.0 13.5 -7.3 13.1 -7.35 12.7 -7.7 10.7 Q-8.25 10.3 -8.95 10.15 L-9.05 9.75 -9.3 9.3 -9.3 8.65 -9.3 5.6 -9.45 5.4 Q-9.8 4.9 -10.35 5.1 L-10.55 5.25 -11.05 5.75 -11.05 5.15 -11.05 3.45 -10.9 3.2 -10.8 3.0 -10.75 2.6 Q-10.35 1.0 -9.55 -0.45 L-9.5 -0.85 -9.3 -2.2 Q-10.95 -2.95 -13.05 -2.75 -13.7 -3.8 -13.55 -5.1 L-13.4 -8.1 -13.35 -10.7 -13.9 -11.0 -15.85 -10.9 -15.15 -15.6 -17.85 -16.1 -18.5 -16.95 -18.55 -17.85 -18.85 -18.25 -19.5 -20.3 M16.6 -30.35 L10.75 -31.55 10.95 -33.5 16.5 -33.85 17.4 -33.15 16.7 -30.6 16.6 -30.35 M12.4 -14.8 Q11.8 -14.8 11.35 -14.25 10.9 -13.7 10.9 -12.95 10.9 -12.2 11.35 -11.65 11.8 -11.1 12.4 -11.1 13.0 -11.1 13.45 -11.65 13.9 -12.2 13.9 -12.95 13.9 -13.7 13.45 -14.25 L12.4 -14.8 M10.1 -6.85 L9.95 -6.8 9.7 -6.4 Q9.5 -6.15 9.6 -5.8 10.05 -4.95 10.95 -5.35 L11.15 -5.75 11.35 -6.15 11.3 -6.35 Q11.0 -6.85 10.45 -6.95 L10.1 -6.85 M5.2 11.05 L5.6 10.65 5.95 10.6 6.3 10.5 Q7.05 10.6 7.25 11.3 L7.3 11.5 Q6.55 13.25 5.1 11.85 L5.05 11.65 5.05 11.25 5.2 11.05 M-10.25 -25.7 Q-9.4 -24.75 -8.15 -24.75 -6.9 -24.75 -6.0 -25.7 -5.15 -26.7 -5.15 -28.1 -5.15 -29.5 -6.0 -30.45 -6.9 -31.45 -8.15 -31.45 -9.4 -31.45 -10.25 -30.45 -11.15 -29.5 -11.15 -28.1 -11.15 -26.7 -10.25 -25.7 M-1.35 14.7 L-1.45 14.5 -1.95 13.15 -2.2 13.25 -2.3 14.25 -2.1 14.45 -2.05 14.7 -2.0 14.9 Q-0.9 16.4 0.55 15.75 L-1.35 14.7" fill="#ffffff" fill-rule="evenodd" stroke="none"/>
    <path d="M17.1 -18.95 L18.0 -16.75 16.7 -15.65 17.0 -14.55 17.25 -14.15 15.8 -13.85 15.05 -14.65 14.8 -17.45 16.7 -19.2 17.1 -18.95 M17.2 -12.4 L16.6 -11.8 16.55 -11.35 17.15 -10.45 16.6 -8.1 16.6 -7.9 16.85 -7.45 16.85 -7.25 Q16.5 -6.85 16.55 -6.35 L16.6 -1.85 16.5 -1.75 16.05 -1.8 16.05 -1.4 15.75 2.05 15.7 2.5 Q15.5 2.95 15.05 2.95 14.75 0.3 15.0 -2.25 14.2 -2.8 13.7 -4.0 L13.3 -4.7 Q12.55 -6.5 13.15 -8.1 L13.55 -8.85 Q15.0 -11.3 17.3 -12.65 L17.2 -12.4 M12.4 -14.8 L13.45 -14.25 Q13.9 -13.7 13.9 -12.95 13.9 -12.2 13.45 -11.65 13.0 -11.1 12.4 -11.1 11.8 -11.1 11.35 -11.65 10.9 -12.2 10.9 -12.95 10.9 -13.7 11.35 -14.25 11.8 -14.8 12.4 -14.8 M10.1 -6.85 L10.45 -6.95 Q11.0 -6.85 11.3 -6.35 L11.35 -6.15 11.15 -5.75 10.95 -5.35 Q10.05 -4.95 9.6 -5.8 9.5 -6.15 9.7 -6.4 L9.95 -6.8 10.1 -6.85" fill="#ff0000" fill-rule="evenodd" stroke="none"/>
    <path d="M16.9 9.35 L15.6 9.35 16.7 9.3 16.9 9.35 M8.4 9.45 L7.8 9.5 7.3 9.5 8.4 9.45 M3.4 14.65 L3.35 14.6 4.25 14.75 6.55 14.2 6.6 14.2 6.7 14.1 6.75 14.1 Q9.4 13.1 9.15 10.85 L16.1 10.65 15.9 11.2 15.8 11.45 16.0 11.45 16.0 13.75 13.7 13.7 13.0 14.15 12.95 14.35 12.95 14.55 13.0 14.65 Q8.45 15.3 3.85 14.75 L3.4 14.65 M3.1 22.5 L2.8 22.9 -0.65 21.95 -0.85 22.05 -1.7 22.1 Q-3.5 21.35 -5.3 20.75 L-5.6 21.15 -5.4 21.95 -5.5 21.95 -8.55 19.9 -9.45 20.65 -9.55 21.85 -10.4 20.6 -10.4 19.5 -10.5 19.15 -10.95 18.55 -11.65 19.0 -12.0 19.85 -13.2 18.3 -13.55 18.2 -14.4 17.85 -14.55 17.2 -14.7 16.8 -14.5 16.35 -14.4 16.15 -14.9 14.8 -16.2 9.65 -16.55 9.5 -17.0 8.2 -17.7 1.9 -18.05 1.85 -18.35 1.85 -18.75 2.4 -18.9 2.8 -19.05 1.4 Q-19.1 -2.05 -18.55 -5.3 L-18.9 -5.4 -19.25 -5.35 -19.75 -4.25 Q-19.95 -3.55 -20.4 -3.2 L-20.4 -4.7 -20.25 -8.1 -19.8 -11.4 -20.7 -11.2 -21.25 -10.15 -20.1 -17.05 -19.85 -17.4 Q-19.5 -17.75 -19.85 -18.3 L-20.15 -18.6 -19.5 -20.3 -18.85 -18.25 -18.55 -17.85 -18.5 -16.95 -17.85 -16.1 -15.15 -15.6 -15.85 -10.9 -13.9 -11.0 -13.35 -10.7 -13.4 -8.1 -13.55 -5.1 Q-13.7 -3.8 -13.05 -2.75 -10.95 -2.95 -9.3 -2.2 L-9.5 -0.85 -9.55 -0.45 Q-10.35 1.0 -10.75 2.6 L-10.8 3.0 -10.9 3.2 -11.05 3.45 -11.05 5.15 -11.05 5.75 -10.55 5.25 -10.35 5.1 Q-9.8 4.9 -9.45 5.4 L-9.3 5.6 -9.3 8.65 -9.3 9.3 -9.05 9.75 -8.95 10.15 Q-8.25 10.3 -7.7 10.7 L-7.35 12.7 -7.3 13.1 -7.0 13.5 -6.8 13.75 -6.55 13.55 -6.15 13.15 Q-5.65 13.0 -5.3 13.45 L-5.15 13.7 -5.2 18.0 -5.15 18.3 -5.1 18.8 Q-1.95 18.5 0.85 20.75 L3.1 22.5" fill="#cccccc" fill-rule="evenodd" stroke="none"/>
    <path d="M-10.25 -25.7 Q-11.15 -26.7 -11.15 -28.1 -11.15 -29.5 -10.25 -30.45 -9.4 -31.45 -8.15 -31.45 -6.9 -31.45 -6.0 -30.45 -5.15 -29.5 -5.15 -28.1 -5.15 -26.7 -6.0 -25.7 -6.9 -24.75 -8.15 -24.75 -9.4 -24.75 -10.25 -25.7" fill="#ff99cc" fill-rule="evenodd" stroke="none"/>
  </g>
</svg>
