<?xml version="1.0" encoding="UTF-8" standalone="no"?>
<svg xmlns:xlink="http://www.w3.org/1999/xlink" height="62.95px" width="56.05px" xmlns="http://www.w3.org/2000/svg">
  <g transform="matrix(1.0, 0.0, 0.0, 1.0, 29.75, 35.35)">
    <path d="M17.75 -14.4 L16.6 -18.6 17.2 -18.05 17.15 -18.35 16.95 -18.45 17.1 -19.1 17.1 -19.15 17.9 -20.45 19.8 -21.0 Q22.1 -21.9 23.3 -23.95 L24.25 -25.4 25.05 -26.15 24.9 -29.45 23.85 -31.95 21.8 -33.35 17.45 -34.15 15.85 -32.75 15.15 -32.65 14.9 -32.25 13.25 -30.8 12.95 -30.65 12.75 -30.6 12.7 -30.4 10.8 -30.45 10.8 -30.5 9.8 -30.2 8.6 -30.35 7.9 -30.9 7.85 -31.05 6.85 -30.7 Q6.05 -30.95 5.4 -31.35 L5.0 -31.0 3.8 -31.05 3.15 -30.2 2.25 -30.35 1.5 -30.85 Q0.9 -31.7 0.4 -31.45 L-4.05 -31.1 -5.0 -30.25 -7.15 -30.6 -7.2 -30.45 -7.7 -29.7 -8.45 -30.0 -9.3 -29.85 -9.85 -29.1 -11.3 -29.3 -11.45 -29.4 -11.35 -29.2 -11.3 -28.85 Q-11.75 -27.55 -13.1 -27.85 L-12.85 -29.2 -12.4 -29.15 -12.5 -30.45 -10.25 -30.2 -10.25 -30.4 -10.25 -30.6 Q-10.05 -31.1 -9.3 -31.2 L-8.75 -31.2 Q-8.45 -31.25 -8.2 -31.4 L-8.15 -31.45 -8.1 -31.6 -5.25 -31.25 -4.85 -32.05 -1.85 -32.3 -1.5 -32.75 -0.25 -32.85 0.25 -33.7 Q0.8 -33.9 1.0 -33.3 1.2 -32.55 1.7 -32.15 L2.65 -31.5 3.15 -32.45 4.65 -32.1 5.55 -32.75 6.9 -32.7 7.1 -32.1 8.7 -32.8 9.5 -32.55 9.5 -31.7 11.15 -31.95 11.2 -32.15 11.35 -32.0 11.45 -32.05 11.5 -32.0 12.7 -32.1 17.15 -35.35 22.7 -34.55 23.0 -33.95 Q26.05 -32.8 26.0 -29.5 26.0 -27.85 26.25 -26.3 26.5 -25.05 25.3 -24.5 25.45 -23.6 24.85 -22.8 L23.75 -21.75 19.4 -19.35 18.95 -19.5 18.65 -17.7 18.5 -17.75 18.3 -16.65 19.0 -15.1 Q20.2 -12.45 20.0 -9.8 L19.35 -9.2 19.65 -5.45 18.6 -5.1 18.65 0.25 18.1 0.65 17.95 13.9 17.7 15.1 17.0 16.6 Q15.7 18.55 13.6 19.45 12.65 21.0 11.0 21.6 L8.5 22.35 7.8 23.2 6.65 24.4 4.85 24.75 3.8 26.2 2.9 25.85 1.3 27.6 0.85 27.3 -0.2 27.15 Q-2.1 25.95 -4.05 24.9 L-7.0 23.35 -7.4 23.7 -9.2 22.9 -10.4 21.3 -12.45 20.35 -16.9 17.7 -17.55 17.75 Q-18.45 15.7 -18.65 13.8 -19.15 8.45 -19.1 2.7 L-19.5 2.55 Q-19.95 -0.3 -19.25 -3.2 -19.05 -4.0 -19.85 -4.15 L-20.0 -5.85 Q-19.9 -8.4 -19.35 -10.85 L-20.25 -10.6 -20.6 -10.9 -20.05 -13.85 -19.05 -17.45 -19.7 -17.5 -18.0 -18.3 -17.85 -18.4 -17.6 -18.4 -18.95 -14.15 -19.3 -12.5 -17.5 -12.35 -19.0 -6.2 -19.05 -5.9 -18.85 -6.0 -18.0 -6.6 -17.75 -6.35 Q-18.4 -3.25 -18.5 -0.4 L-17.95 -0.6 -17.5 -0.3 -17.9 5.25 -17.5 5.8 -17.55 13.2 -17.25 15.7 -15.25 17.55 -14.25 18.0 Q-12.6 19.3 -10.75 20.0 -9.0 20.6 -7.95 22.1 -6.7 21.6 -5.4 22.55 L-4.4 23.2 0.7 26.1 2.9 24.0 3.75 24.15 4.1 23.55 6.4 23.1 Q8.75 20.15 12.3 19.1 L15.35 16.45 16.75 15.15 16.6 14.95 17.15 -0.45 17.55 -0.6 17.25 -5.55 Q17.15 -6.5 17.95 -6.65 L18.05 -8.1 Q17.75 -10.0 17.9 -11.9 L18.65 -12.3 17.75 -14.4 M-8.2 10.0 L-8.2 10.05 Q-8.75 10.1 -9.2 10.5 L-9.25 10.7 -9.3 11.25 -7.8 11.35 -7.7 11.15 Q-7.55 10.6 -7.85 10.15 L-8.2 10.0 M8.25 13.95 Q6.05 12.2 7.4 9.65 L-5.95 9.65 -5.65 10.55 Q-5.15 12.55 -6.5 13.75 -8.3 15.2 -10.4 14.4 -11.4 14.1 -11.95 13.25 -13.45 10.85 -11.4 8.9 L-0.3 8.5 -0.35 7.2 -0.1 6.2 0.0 6.05 0.4 6.55 0.6 7.1 0.3 7.5 0.75 8.5 Q4.85 8.75 8.9 8.4 L12.45 9.15 Q14.1 9.75 14.15 11.4 14.15 12.5 13.5 13.2 11.15 15.7 8.25 13.95 M-0.45 13.9 L1.5 13.9 2.55 15.3 1.1 16.15 1.05 17.8 9.75 18.4 8.85 18.9 -9.0 18.85 -9.45 18.35 Q-9.2 17.7 -8.45 17.7 L-0.95 17.75 -0.95 17.6 -0.5 16.95 -0.65 16.15 -2.2 15.15 -0.45 13.9 M11.95 9.9 L11.6 9.8 11.1 9.75 Q10.85 9.75 10.7 10.05 L10.55 11.0 10.75 11.2 12.0 11.1 12.2 10.5 11.95 9.9" fill="#000000" fill-rule="evenodd" stroke="none"/>
    <path d="M-11.3 -29.3 L-9.85 -29.1 -9.3 -29.85 -8.45 -30.0 -7.7 -29.7 -7.2 -30.45 -7.15 -30.6 -5.0 -30.25 -4.05 -31.1 0.4 -31.45 Q0.9 -31.7 1.5 -30.85 L2.25 -30.35 3.15 -30.2 3.8 -31.05 5.0 -31.0 5.4 -31.35 Q6.05 -30.95 6.85 -30.7 L7.85 -31.05 7.9 -30.9 8.6 -30.35 9.8 -30.2 10.8 -30.5 10.8 -30.45 12.7 -30.4 12.75 -30.6 12.95 -30.65 13.25 -30.8 14.9 -32.25 15.15 -32.65 15.85 -32.75 17.45 -34.15 21.8 -33.35 23.85 -31.95 24.9 -29.45 25.05 -26.15 24.25 -25.4 23.3 -23.95 Q22.1 -21.9 19.8 -21.0 L17.9 -20.45 17.1 -19.15 17.1 -19.1 16.95 -18.45 17.15 -18.35 17.2 -18.05 16.6 -18.6 17.75 -14.4 15.75 -15.2 16.8 -5.35 16.1 -5.45 14.8 -5.35 14.15 -5.05 15.8 3.45 16.05 6.65 Q15.2 8.05 15.3 9.65 15.55 13.0 15.35 16.45 L12.3 19.1 Q8.75 20.15 6.4 23.1 L4.1 23.55 3.75 24.15 2.9 24.0 0.7 26.1 -4.4 23.2 -5.4 22.55 Q-6.7 21.6 -7.95 22.1 -9.0 20.6 -10.75 20.0 -12.6 19.3 -14.25 18.0 -16.35 13.4 -15.7 8.45 L-15.05 5.6 -14.35 3.65 Q-13.5 1.6 -15.45 0.6 L-15.7 -0.2 -15.65 -1.0 -15.45 -3.15 Q-15.1 -4.7 -15.45 -6.05 L-16.0 -8.25 Q-16.35 -9.45 -16.35 -10.7 -16.4 -13.5 -18.95 -14.15 L-17.6 -18.4 -17.85 -18.4 -16.1 -19.9 Q-15.35 -20.55 -15.1 -21.6 L-14.6 -22.9 -13.9 -24.3 -13.65 -24.85 -13.1 -27.85 Q-11.75 -27.55 -11.3 -28.85 L-11.35 -29.2 -11.3 -29.3 M15.45 -28.15 Q14.45 -25.65 16.85 -24.65 19.45 -23.55 20.55 -25.9 22.15 -29.5 18.4 -30.5 16.2 -30.25 15.45 -28.15 M4.1 -15.8 Q3.7 -14.0 2.2 -12.95 L2.2 -12.15 Q3.6 -10.25 5.85 -10.25 L6.2 -10.85 Q6.15 -12.95 4.6 -14.55 L4.85 -15.4 4.7 -16.0 4.1 -15.8 M1.0 -15.25 L0.5 -16.25 -0.85 -17.15 -1.15 -18.85 -1.6 -17.25 -2.75 -15.8 -2.4 -13.5 Q-0.85 -12.45 0.7 -13.15 1.35 -14.15 1.0 -15.25 M0.55 -11.5 L-0.1 -11.6 Q-3.45 -9.85 -3.0 -6.0 -2.85 -4.55 -1.7 -3.55 L-1.45 1.6 -0.85 1.65 -0.75 -3.2 1.35 -3.0 1.65 -0.8 2.4 -3.3 2.95 -3.5 Q3.95 -4.65 4.05 -6.2 L4.05 -7.1 Q4.1 -10.85 0.55 -11.5 M-6.9 -12.75 Q-7.5 -11.15 -6.2 -10.0 -4.8 -8.7 -3.15 -9.7 -3.15 -12.3 -5.9 -13.25 L-6.2 -13.3 -6.9 -12.75 M-8.2 10.0 L-7.85 10.15 Q-7.55 10.6 -7.7 11.15 L-7.8 11.35 -9.3 11.25 -9.25 10.7 -9.2 10.5 Q-8.75 10.1 -8.2 10.05 L-8.2 10.0 M8.25 13.95 Q11.15 15.7 13.5 13.2 14.15 12.5 14.15 11.4 14.1 9.75 12.45 9.15 L8.9 8.4 Q4.85 8.75 0.75 8.5 L0.3 7.5 0.6 7.1 0.4 6.55 0.0 6.05 -0.1 6.2 -0.35 7.2 -0.3 8.5 -11.4 8.9 Q-13.45 10.85 -11.95 13.25 -11.4 14.1 -10.4 14.4 -8.3 15.2 -6.5 13.75 L-0.45 13.9 -2.2 15.15 -0.65 16.15 -0.5 16.95 -0.95 17.6 -0.95 17.75 -8.45 17.7 Q-9.2 17.7 -9.45 18.35 L-9.0 18.85 8.85 18.9 9.75 18.4 1.05 17.8 1.1 16.15 2.55 15.3 1.5 13.9 8.25 13.95 M11.95 9.9 L12.2 10.5 12.0 11.1 10.75 11.2 10.55 11.0 10.7 10.05 Q10.85 9.75 11.1 9.75 L11.6 9.8 11.95 9.9" fill="#ffffff" fill-rule="evenodd" stroke="none"/>
    <path d="M15.45 -28.15 Q16.2 -30.25 18.4 -30.5 22.15 -29.5 20.55 -25.9 19.45 -23.55 16.85 -24.65 14.45 -25.65 15.45 -28.15" fill="#ff99cc" fill-rule="evenodd" stroke="none"/>
    <path d="M17.75 -14.4 L18.65 -12.3 17.9 -11.9 Q17.75 -10.0 18.05 -8.1 L17.95 -6.65 Q17.15 -6.5 17.25 -5.55 L17.55 -0.6 17.15 -0.45 16.6 14.95 16.75 15.15 15.35 16.45 Q15.55 13.0 15.3 9.65 15.2 8.05 16.05 6.65 L15.8 3.45 14.15 -5.05 14.8 -5.35 16.1 -5.45 16.8 -5.35 15.75 -15.2 17.75 -14.4 M-14.25 18.0 L-15.25 17.55 -17.25 15.7 -17.55 13.2 -17.5 5.8 -17.9 5.25 -17.5 -0.3 -17.95 -0.6 -18.5 -0.4 Q-18.4 -3.25 -17.75 -6.35 L-18.0 -6.6 -18.85 -6.0 -19.0 -6.2 -17.5 -12.35 -19.3 -12.5 -18.95 -14.15 Q-16.4 -13.5 -16.35 -10.7 -16.35 -9.45 -16.0 -8.25 L-15.45 -6.05 Q-15.1 -4.7 -15.45 -3.15 L-15.65 -1.0 -15.7 -0.2 -15.45 0.6 Q-13.5 1.6 -14.35 3.65 L-15.05 5.6 -15.7 8.45 Q-16.35 13.4 -14.25 18.0 M-6.5 13.75 Q-5.15 12.55 -5.65 10.55 L-5.95 9.65 7.4 9.65 Q6.05 12.2 8.25 13.95 L1.5 13.9 -0.45 13.9 -6.5 13.75" fill="#cccccc" fill-rule="evenodd" stroke="none"/>
    <path d="M0.55 -11.5 Q4.1 -10.85 4.05 -7.1 L4.05 -6.2 Q3.95 -4.65 2.95 -3.5 L2.4 -3.3 1.65 -0.8 1.35 -3.0 -0.75 -3.2 -0.85 1.65 -1.45 1.6 -1.7 -3.55 Q-2.85 -4.55 -3.0 -6.0 -3.45 -9.85 -0.1 -11.6 L0.55 -11.5 M1.0 -15.25 Q1.35 -14.15 0.7 -13.15 -0.85 -12.45 -2.4 -13.5 L-2.75 -15.8 -1.6 -17.25 -1.15 -18.85 -0.85 -17.15 0.5 -16.25 1.0 -15.25 M4.1 -15.8 L4.7 -16.0 4.85 -15.4 4.6 -14.55 Q6.15 -12.95 6.2 -10.85 L5.85 -10.25 Q3.6 -10.25 2.2 -12.15 L2.2 -12.95 Q3.7 -14.0 4.1 -15.8 M-6.9 -12.75 L-6.2 -13.3 -5.9 -13.25 Q-3.15 -12.3 -3.15 -9.7 -4.8 -8.7 -6.2 -10.0 -7.5 -11.15 -6.9 -12.75" fill="#ff0000" fill-rule="evenodd" stroke="none"/>
    <path d="M-17.55 -17.65 L-17.7 -17.55 Q-18.65 -17.05 -19.55 -16.65 L-22.3 -16.8 Q-24.45 -17.3 -26.0 -18.9 L-26.85 -19.75 Q-29.3 -21.95 -29.3 -25.25 L-29.75 -25.95 -29.75 -28.3 -29.45 -28.75 -29.35 -29.65 -29.15 -30.45 Q-28.25 -33.65 -25.6 -34.8 L-24.75 -34.7 Q-23.6 -34.7 -22.7 -35.15 L-16.5 -34.7 -16.1 -34.5 -14.4 -33.9 -13.45 -30.95 -12.6 -30.1 -12.6 -29.65 -12.05 -29.5 -12.3 -28.05 -12.6 -28.1 -13.65 -28.4 -13.65 -29.25 -15.2 -31.65 -15.45 -32.85 -17.35 -33.7 -21.7 -33.65 Q-24.25 -33.4 -26.1 -31.75 -28.35 -29.8 -28.5 -26.45 L-28.0 -25.85 -27.85 -25.1 Q-27.75 -23.25 -26.5 -21.8 L-24.4 -19.0 -21.7 -17.95 -17.55 -17.65" fill="#000000" fill-rule="evenodd" stroke="none"/>
    <path d="M-17.55 -17.65 L-21.7 -17.95 -24.4 -19.0 -26.5 -21.8 Q-27.75 -23.25 -27.85 -25.1 L-28.0 -25.85 -28.5 -26.45 Q-28.35 -29.8 -26.1 -31.75 -24.25 -33.4 -21.7 -33.65 L-17.35 -33.7 -15.45 -32.85 -15.2 -31.65 -13.65 -29.25 -13.65 -28.4 -12.6 -28.1 -12.3 -28.05 -12.9 -24.75 -13.2 -24.15 -13.95 -22.6 -14.5 -21.15 Q-14.8 -20.0 -15.6 -19.3 L-17.55 -17.65 M-21.25 -28.8 Q-23.75 -28.0 -23.35 -25.5 -22.8 -21.95 -18.9 -22.15 -16.75 -22.3 -16.65 -24.35 -16.4 -28.9 -20.85 -28.9 L-21.25 -28.8" fill="#ffffff" fill-rule="evenodd" stroke="none"/>
    <path d="M-21.25 -28.8 L-20.85 -28.9 Q-16.4 -28.9 -16.65 -24.35 -16.75 -22.3 -18.9 -22.15 -22.8 -21.95 -23.35 -25.5 -23.75 -28.0 -21.25 -28.8" fill="#ff99cc" fill-rule="evenodd" stroke="none"/>
  </g>
</svg>
