<?xml version="1.0" encoding="UTF-8" standalone="no"?>
<svg xmlns:xlink="http://www.w3.org/1999/xlink" height="66.6px" width="54.55px" xmlns="http://www.w3.org/2000/svg">
  <g transform="matrix(1.0, 0.0, 0.0, 1.0, 25.15, 57.9)">
    <path d="M13.8 -47.8 Q11.45 -46.55 9.65 -48.6 L9.0 -48.6 Q8.25 -47.75 7.15 -47.85 L6.7 -47.95 6.5 -48.25 6.4 -48.5 Q4.65 -48.2 4.0 -49.8 L3.65 -49.35 3.5 -49.05 3.05 -48.9 Q2.0 -48.95 1.35 -49.85 L1.0 -50.2 1.0 -49.35 1.0 -48.8 0.9 -48.5 0.45 -48.35 -0.2 -48.35 -0.75 -49.15 -0.95 -49.9 Q-1.55 -48.35 -3.25 -48.55 L-3.8 -48.7 -4.05 -48.4 -4.2 -48.15 -4.3 -47.95 Q-5.55 -47.6 -6.85 -48.3 L-6.9 -48.15 -7.0 -47.9 -7.0 -47.85 -6.9 -47.75 -6.8 -47.6 -7.0 -47.5 -7.35 -47.45 -7.9 -47.4 -8.05 -47.7 -8.2 -48.8 -8.2 -49.65 -8.2 -49.9 -8.4 -50.15 -8.65 -50.45 -8.65 -50.75 -8.6 -51.85 -8.45 -52.4 -8.25 -52.7 -8.4 -52.85 -9.85 -53.15 -10.15 -53.45 -10.75 -54.55 Q-10.85 -55.15 -11.25 -55.65 L-11.65 -55.9 -12.65 -56.7 -13.95 -56.7 -14.25 -56.4 Q-14.4 -56.25 -14.6 -56.15 L-15.05 -56.15 -15.35 -56.4 -15.6 -56.6 -15.8 -56.65 -17.85 -56.6 -17.95 -56.3 -18.0 -56.15 -18.15 -56.05 -19.95 -55.35 -20.9 -55.0 -21.0 -54.75 -20.9 -54.2 -20.8 -53.9 -21.0 -53.6 -21.2 -53.35 -21.45 -53.05 -21.85 -52.95 -23.05 -52.5 -23.0 -52.25 -22.75 -51.65 -22.65 -51.4 -23.0 -50.85 -23.7 -49.4 -23.85 -48.35 -23.7 -48.05 -23.15 -46.95 -22.95 -46.05 -23.05 -45.8 -22.95 -45.6 -21.8 -44.7 -21.25 -44.25 -21.2 -43.95 -21.2 -43.7 -21.15 -43.6 -20.25 -43.15 -19.8 -43.2 -19.45 -42.95 -19.15 -42.65 Q-19.35 -40.7 -21.2 -39.6 L-19.05 -39.6 -18.7 -39.3 -18.4 -39.05 Q-18.65 -37.5 -19.95 -36.25 L-20.15 -36.0 -20.15 -35.15 -20.15 -34.7 -19.6 -34.6 -18.65 -34.4 -18.45 -34.1 -18.3 -33.85 -18.65 -33.55 Q-20.05 -32.4 -20.45 -30.5 L-20.55 -29.95 Q-19.15 -30.2 -18.3 -29.3 -18.2 -28.5 -19.15 -28.2 L-19.45 -27.65 -20.7 -24.85 -20.8 -24.0 Q-20.65 -23.9 -20.4 -24.35 L-19.95 -24.85 -19.6 -24.95 -19.2 -24.7 -19.05 -24.45 Q-19.8 -22.35 -19.95 -20.0 L-19.85 -18.05 -19.5 -18.15 -17.7 -18.1 -17.3 -18.05 Q-17.1 -15.8 -18.1 -13.55 -18.3 -13.2 -18.1 -12.85 L-16.2 -12.75 -16.05 -12.55 Q-17.15 -10.35 -16.05 -8.15 L-16.0 -8.0 -15.95 -8.05 -15.8 -8.05 -15.75 -4.45 -15.7 -4.25 -13.55 -4.15 -13.25 -3.9 -12.95 -1.1 -12.9 -0.8 -12.25 -0.9 -12.15 -1.2 -12.05 -1.45 Q-10.95 -2.2 -10.2 -1.0 L-10.15 -0.7 -10.1 -0.45 -9.3 0.4 Q-6.45 1.45 -3.9 3.25 L-3.35 3.0 -3.25 3.05 -2.85 3.2 -2.8 3.3 -2.5 3.75 -2.1 4.15 -2.05 4.2 0.95 4.5 Q3.35 3.7 5.0 6.45 L8.0 6.8 Q8.25 5.75 9.3 5.5 10.3 5.6 10.95 6.35 12.05 5.1 13.75 5.6 L13.85 5.15 13.95 4.85 14.4 4.4 14.5 4.3 Q15.35 3.95 16.0 4.65 L16.65 3.95 16.7 3.85 17.95 3.65 18.2 3.2 18.4 2.9 Q19.15 2.3 19.95 2.9 L20.1 1.9 20.05 1.6 20.35 1.3 20.4 0.55 20.1 0.6 20.1 0.05 20.4 0.15 20.45 -0.2 20.6 -2.4 20.6 -2.55 21.0 -5.45 20.85 -5.15 Q20.0 -3.5 18.65 -3.5 17.45 -2.95 16.45 -4.15 14.95 -5.95 16.1 -7.55 L16.55 -8.25 14.0 -8.4 11.2 -8.3 9.5 -8.45 9.3 -8.35 7.6 -8.4 Q5.35 -8.2 3.05 -8.4 3.65 -7.4 3.8 -5.85 3.9 -4.55 3.35 -3.75 2.8 -3.1 1.75 -2.75 L1.05 -2.55 0.9 -2.55 0.35 -2.45 Q-1.55 -2.3 -2.45 -3.55 L-2.9 -3.85 -2.95 -3.9 -3.05 -4.15 -3.5 -4.45 -3.65 -4.8 -3.7 -4.8 -3.8 -5.1 -3.85 -6.0 -4.1 -6.6 -4.05 -6.85 -4.05 -7.0 -3.9 -7.4 -3.75 -7.85 -3.75 -7.9 Q-3.25 -9.05 -2.0 -9.6 L-1.5 -9.65 -1.45 -9.65 -1.35 -9.65 2.4 -9.7 3.55 -9.65 5.0 -9.5 6.15 -9.3 6.2 -9.3 6.2 -9.45 10.05 -9.35 10.05 -10.85 9.65 -11.4 Q9.7 -12.1 10.5 -11.95 L10.75 -9.35 14.0 -9.4 16.4 -9.3 20.15 -9.1 20.65 -8.7 20.8 -8.65 20.8 -8.7 21.25 -9.25 21.45 -9.55 21.0 -13.75 21.0 -14.55 21.2 -14.8 21.55 -15.0 22.75 -14.95 22.15 -17.05 22.0 -17.55 21.55 -19.95 21.5 -20.2 21.45 -20.8 21.6 -21.0 21.9 -21.25 21.95 -21.25 Q22.25 -23.4 21.55 -25.55 L21.35 -26.7 22.05 -27.1 22.35 -27.15 21.85 -29.6 Q21.65 -30.3 21.8 -30.95 L22.35 -31.4 22.45 -31.6 21.4 -34.05 21.0 -34.95 21.25 -35.45 21.65 -35.7 23.0 -35.5 21.45 -38.0 21.0 -38.6 21.0 -38.85 21.0 -39.15 21.0 -39.4 Q22.85 -40.3 23.6 -41.9 L23.5 -42.2 23.4 -42.4 23.3 -42.5 Q22.2 -42.35 21.45 -43.05 21.5 -43.65 22.15 -44.0 L23.0 -44.35 23.6 -45.05 23.85 -45.15 24.0 -45.1 Q24.75 -46.1 26.75 -46.45 26.95 -47.05 26.75 -47.65 L26.55 -48.7 27.7 -49.6 27.85 -49.8 Q27.4 -50.75 26.05 -51.3 L25.7 -51.5 25.7 -52.3 Q25.65 -52.8 25.95 -53.2 L26.1 -53.45 26.05 -53.45 23.75 -53.9 23.55 -54.45 23.3 -55.0 Q22.75 -55.0 22.05 -54.15 L21.45 -53.55 20.6 -53.55 19.85 -54.35 19.7 -54.65 19.1 -54.65 18.25 -55.1 17.35 -55.4 Q15.6 -53.7 15.95 -51.2 L16.05 -49.8 Q16.8 -49.1 16.95 -48.15 L16.9 -47.05 15.3 -46.7 14.1 -46.85 13.85 -47.4 13.85 -47.7 13.85 -47.85 13.8 -47.8 M-6.35 -6.05 L-6.2 -6.0 Q-6.4 -3.0 -3.1 -2.15 L-3.05 -2.05 Q-5.45 -2.0 -6.3 -3.45 -6.85 -4.4 -6.75 -6.0 L-6.6 -6.15 -6.35 -6.05 M13.3 -3.0 L13.25 -3.0 13.25 -2.95 13.35 -2.85 13.3 -2.55 13.2 -2.3 13.1 -2.15 Q11.65 -2.15 11.25 -1.65 11.45 -1.2 11.1 -0.85 L10.9 -0.6 11.55 -0.65 10.75 -0.3 10.75 -0.25 14.2 -0.15 16.9 0.25 Q17.15 0.3 17.4 0.5 17.1 0.95 16.55 0.85 L16.05 0.8 12.85 0.55 10.2 0.6 9.6 0.55 Q8.35 -0.85 6.45 -0.15 L3.55 0.5 1.2 1.0 0.4 0.75 0.35 0.7 Q3.5 -0.5 6.95 -0.6 L7.75 -0.8 8.5 -0.9 9.6 -0.4 9.65 -0.35 9.8 -0.25 10.5 -0.25 9.7 -0.45 Q9.4 -0.9 9.4 -1.45 L9.35 -2.15 8.8 -2.35 Q8.55 -2.4 8.3 -2.65 L8.15 -2.85 8.1 -3.25 8.15 -3.65 Q8.55 -4.0 9.1 -4.05 L11.1 -4.25 11.6 -4.3 12.8 -3.55 13.2 -3.1 13.3 -3.0 M0.85 -51.9 L1.2 -52.05 2.15 -51.3 2.4 -50.75 Q2.95 -50.55 3.4 -51.05 L3.8 -51.3 Q4.5 -51.4 4.9 -50.85 L5.3 -50.3 6.75 -50.2 7.5 -49.7 7.7 -49.45 Q9.5 -51.05 11.05 -49.25 L11.3 -49.0 Q13.0 -49.15 14.55 -50.0 L14.8 -53.6 14.95 -55.3 16.5 -56.4 17.55 -56.85 18.75 -56.75 19.6 -56.7 20.55 -55.6 21.0 -54.75 Q21.8 -55.0 22.2 -55.9 L22.85 -56.7 23.65 -56.7 24.05 -56.4 24.3 -56.15 24.4 -55.85 24.45 -55.6 24.5 -55.3 Q26.35 -55.6 27.4 -54.35 L27.65 -53.55 27.4 -52.4 Q27.9 -51.7 28.95 -51.25 L29.25 -51.0 Q29.65 -49.85 28.8 -48.8 L27.85 -47.95 Q29.05 -44.3 24.85 -44.55 L24.05 -43.85 Q24.1 -43.35 24.55 -43.0 L24.8 -42.75 Q25.3 -40.15 22.75 -39.05 L22.45 -38.85 Q24.05 -37.1 24.45 -34.95 L24.3 -34.2 23.85 -34.05 23.1 -33.85 23.85 -31.35 Q23.9 -30.7 23.6 -30.2 L23.45 -30.05 23.1 -29.85 Q23.7 -28.1 23.65 -26.25 23.6 -25.55 23.0 -25.1 L23.45 -22.9 23.3 -21.75 22.85 -21.2 22.65 -20.95 22.75 -20.85 22.65 -20.6 22.4 -20.3 23.9 -15.0 23.95 -14.45 Q23.6 -13.5 22.5 -13.55 L23.0 -9.65 23.05 -8.8 22.7 -8.4 22.45 -8.1 22.5 -8.0 22.3 -7.95 22.25 -7.25 22.1 -6.65 22.0 -6.5 21.75 -6.35 Q22.05 -1.2 21.5 4.1 L21.45 4.4 19.3 4.5 18.6 5.5 17.45 5.7 17.3 5.95 17.2 6.15 Q16.1 6.65 15.25 5.8 15.15 6.55 14.65 7.1 L14.5 7.25 12.55 7.25 12.0 8.1 Q10.6 8.8 9.65 7.8 7.9 8.95 5.6 8.65 3.75 7.85 2.4 6.35 L1.85 7.1 1.5 7.15 Q0.7 6.95 0.2 6.25 -2.55 6.5 -3.7 4.65 L-4.1 4.75 Q-6.15 3.65 -7.9 2.05 -8.35 2.0 -8.55 2.55 L-8.9 2.6 Q-10.3 1.55 -11.4 0.2 L-12.15 0.85 -12.25 0.95 -12.6 1.05 Q-15.0 -0.3 -14.3 -2.95 L-16.25 -2.85 -16.55 -3.15 Q-17.1 -5.0 -16.6 -6.8 L-16.65 -6.8 Q-18.35 -8.1 -18.1 -10.35 L-18.0 -10.9 Q-18.15 -11.4 -19.3 -11.55 -19.95 -13.85 -18.75 -15.95 -18.5 -16.35 -18.5 -16.85 L-19.25 -16.45 -19.7 -16.65 -19.95 -17.55 -20.35 -17.3 -20.8 -17.5 Q-21.65 -19.0 -21.3 -20.85 L-21.2 -21.95 -22.1 -22.9 Q-22.3 -24.95 -21.35 -26.75 L-20.8 -27.9 Q-20.9 -28.45 -21.65 -28.9 -21.8 -30.65 -21.1 -32.3 L-20.6 -33.1 -21.35 -33.45 -21.65 -33.75 Q-21.65 -35.95 -20.25 -37.6 L-19.7 -38.4 -22.5 -38.3 -22.75 -38.6 Q-22.45 -40.45 -20.85 -41.8 L-20.8 -41.85 Q-21.35 -42.4 -22.15 -42.75 L-22.5 -42.95 -22.5 -43.2 -22.5 -43.5 -22.6 -43.6 Q-23.4 -43.9 -23.8 -44.65 L-24.25 -45.25 -24.25 -45.55 -24.35 -46.65 -24.65 -47.45 -24.9 -47.75 -25.1 -48.6 Q-25.3 -49.5 -24.85 -50.3 L-24.25 -51.4 -24.3 -51.65 -24.35 -52.5 -24.35 -53.05 -24.15 -53.35 -23.6 -53.9 -23.3 -54.2 -22.95 -54.3 -22.55 -54.45 Q-22.45 -55.5 -21.55 -56.0 L-18.1 -57.9 -15.05 -57.55 -14.6 -57.5 -14.3 -57.8 Q-12.2 -57.95 -10.9 -56.2 L-9.55 -54.35 -9.2 -54.4 -8.65 -54.45 -8.1 -54.2 -7.15 -53.35 -7.15 -53.05 Q-7.1 -52.5 -7.3 -51.95 L-7.55 -51.4 -7.45 -51.15 Q-7.15 -50.65 -7.2 -50.05 L-6.05 -49.6 -5.6 -49.45 -5.45 -49.55 -5.4 -49.8 -5.4 -50.1 -5.15 -50.3 -4.75 -50.55 Q-3.55 -49.8 -2.25 -49.9 L-1.65 -50.65 -0.95 -51.4 -0.45 -51.4 -0.1 -50.9 0.1 -50.85 0.25 -51.4 0.35 -51.65 0.85 -51.9 M1.7 -7.55 Q1.35 -8.3 0.6 -8.4 L0.15 -8.3 -0.55 -7.7 Q-0.85 -5.9 1.05 -6.05 L1.45 -6.45 Q1.8 -6.85 1.8 -7.35 L1.7 -7.55 M18.85 -8.1 Q17.7 -7.6 18.05 -6.4 L18.4 -6.05 19.5 -5.95 Q21.5 -7.3 19.25 -8.2 L18.85 -8.1 M-16.3 -52.25 L-16.35 -52.2 -16.35 -52.25 -16.3 -52.25" fill="#000000" fill-rule="evenodd" stroke="none"/>
    <path d="M-19.6 -34.6 L-20.15 -34.7 -20.15 -35.15 -20.15 -36.0 -19.95 -36.25 Q-18.65 -37.5 -18.4 -39.05 L-18.7 -39.3 -19.05 -39.6 -21.2 -39.6 Q-19.35 -40.7 -19.15 -42.65 L-19.45 -42.95 -19.8 -43.2 -20.25 -43.15 -21.15 -43.6 -21.2 -43.7 -21.2 -43.95 -21.25 -44.25 -21.8 -44.7 -22.95 -45.6 -23.05 -45.8 -22.95 -46.05 -23.15 -46.95 -23.7 -48.05 -23.85 -48.35 -23.7 -49.4 -23.0 -50.85 -22.65 -51.4 -22.75 -51.65 -23.0 -52.25 -23.05 -52.5 -21.85 -52.95 -21.45 -53.05 -21.2 -53.35 -21.0 -53.6 -20.8 -53.9 -20.9 -54.2 -21.0 -54.75 -20.9 -55.0 -19.95 -55.35 -18.15 -56.05 -18.0 -56.15 -17.95 -56.3 -17.85 -56.6 -15.8 -56.65 -15.6 -56.6 -15.35 -56.4 -15.05 -56.15 -14.6 -56.15 Q-14.4 -56.25 -14.25 -56.4 L-13.95 -56.7 -12.65 -56.7 -11.65 -55.9 -11.25 -55.65 Q-10.85 -55.15 -10.75 -54.55 L-10.15 -53.45 -9.85 -53.15 -8.4 -52.85 -8.25 -52.7 -8.45 -52.4 -8.6 -51.85 -8.65 -50.75 -8.65 -50.45 -8.4 -50.15 -8.2 -49.9 -8.2 -49.65 -8.2 -48.8 -8.05 -47.7 -7.9 -47.4 -7.35 -47.45 -7.0 -47.5 -6.8 -47.6 -6.9 -47.75 -7.0 -47.85 -7.0 -47.9 -6.9 -48.15 -6.85 -48.3 Q-5.55 -47.6 -4.3 -47.95 L-4.2 -48.15 -4.05 -48.4 -3.8 -48.7 -3.25 -48.55 Q-1.55 -48.35 -0.95 -49.9 L-0.75 -49.15 -0.2 -48.35 0.45 -48.35 0.9 -48.5 1.0 -48.8 1.0 -49.35 1.0 -50.2 1.35 -49.85 Q2.0 -48.95 3.05 -48.9 L3.5 -49.05 3.65 -49.35 4.0 -49.8 Q4.65 -48.2 6.4 -48.5 L6.5 -48.25 6.7 -47.95 7.15 -47.85 Q8.25 -47.75 9.0 -48.6 L9.65 -48.6 Q11.45 -46.55 13.8 -47.8 L13.85 -47.7 13.85 -47.4 14.1 -46.85 15.3 -46.7 16.9 -47.05 16.95 -48.15 Q16.8 -49.1 16.05 -49.8 L15.95 -51.2 Q15.6 -53.7 17.35 -55.4 L18.25 -55.1 19.1 -54.65 19.7 -54.65 19.85 -54.35 20.6 -53.55 21.45 -53.55 22.05 -54.15 Q22.75 -55.0 23.3 -55.0 L23.55 -54.45 23.75 -53.9 26.05 -53.45 25.95 -53.2 Q25.65 -52.8 25.7 -52.3 L25.7 -51.5 26.05 -51.3 Q27.4 -50.75 27.85 -49.8 L27.7 -49.6 26.55 -48.7 26.75 -47.65 Q26.95 -47.05 26.75 -46.45 24.75 -46.1 24.0 -45.1 L23.85 -45.15 23.6 -45.05 23.0 -44.35 22.15 -44.0 Q21.5 -43.65 21.45 -43.05 22.2 -42.35 23.3 -42.5 L23.4 -42.4 23.5 -42.2 23.6 -41.9 Q22.85 -40.3 21.0 -39.4 L21.0 -39.15 21.0 -38.85 21.0 -38.6 21.45 -38.0 23.0 -35.5 21.65 -35.7 21.25 -35.45 21.0 -34.95 21.4 -34.05 22.45 -31.6 22.35 -31.4 21.8 -30.95 Q21.65 -30.3 21.85 -29.6 L22.35 -27.15 22.05 -27.1 21.35 -26.7 21.55 -25.55 Q22.25 -23.4 21.95 -21.25 L21.9 -21.25 21.6 -21.0 21.45 -20.8 21.5 -20.2 21.55 -19.95 22.0 -17.55 21.85 -17.3 22.15 -17.05 22.75 -14.95 21.55 -15.0 21.2 -14.8 21.0 -14.55 21.0 -13.75 21.45 -9.55 21.25 -9.25 20.8 -8.7 20.8 -8.65 20.65 -8.7 20.15 -9.1 16.4 -9.3 14.0 -9.4 10.75 -9.35 10.5 -11.95 Q9.7 -12.1 9.65 -11.4 L10.05 -10.85 10.05 -9.35 6.2 -9.45 6.2 -9.3 6.15 -9.3 5.0 -9.5 3.55 -9.65 2.4 -9.7 -1.35 -9.65 -1.45 -9.65 -1.5 -9.65 -2.0 -9.6 Q-3.25 -9.05 -3.75 -7.9 L-3.75 -7.85 -3.9 -7.4 -4.05 -7.0 -4.0 -7.2 -4.15 -7.25 -4.1 -7.1 -4.05 -7.05 -4.05 -6.9 -4.1 -6.6 -3.85 -6.0 -3.8 -5.1 -3.7 -4.8 -3.65 -4.8 -3.5 -4.45 -3.05 -4.15 -2.95 -3.9 -2.9 -3.85 -2.45 -3.55 Q-1.55 -2.3 0.35 -2.45 L0.9 -2.55 0.4 -2.25 1.0 -2.15 1.65 -2.15 2.5 -2.6 1.9 -2.35 1.5 -2.25 1.05 -2.55 1.75 -2.75 Q2.8 -3.1 3.35 -3.75 L5.2 -3.6 8.1 -3.4 8.1 -3.25 8.15 -2.85 8.3 -2.65 Q8.55 -2.4 8.8 -2.35 L9.35 -2.15 9.4 -1.45 Q9.4 -0.9 9.7 -0.45 L10.5 -0.25 9.8 -0.25 9.65 -0.35 9.6 -0.4 8.5 -0.9 7.75 -0.8 6.95 -0.6 Q3.5 -0.5 0.35 0.7 L0.4 0.75 1.2 1.0 3.55 0.5 6.45 -0.15 Q8.35 -0.85 9.6 0.55 L10.2 0.6 12.85 0.55 12.4 0.55 Q12.7 0.9 13.25 0.8 L13.3 0.9 13.4 1.05 14.15 1.25 14.25 2.2 14.55 3.3 14.85 3.3 14.9 3.15 14.95 3.05 15.1 2.75 15.05 2.05 14.95 1.15 18.05 1.0 18.15 0.85 18.2 0.7 18.15 0.6 Q17.5 -0.9 15.65 -1.1 L15.35 -1.05 Q14.95 -0.9 14.85 -0.5 L14.4 -0.35 14.2 -0.15 10.75 -0.25 10.75 -0.3 11.55 -0.65 10.9 -0.6 11.1 -0.85 Q11.45 -1.2 11.25 -1.65 11.65 -2.15 13.1 -2.15 L13.2 -2.3 13.3 -2.55 13.35 -2.85 13.25 -2.95 13.25 -3.0 13.3 -3.0 20.6 -2.4 20.45 -0.2 20.4 0.15 20.1 0.05 20.1 0.6 20.4 0.55 20.35 1.3 20.05 1.6 20.1 1.9 19.95 2.9 Q19.15 2.3 18.4 2.9 L18.2 3.2 17.95 3.65 16.7 3.85 16.65 3.95 16.0 4.65 Q15.35 3.95 14.5 4.3 L14.4 4.4 13.95 4.85 13.85 5.15 13.75 5.6 Q12.05 5.1 10.95 6.35 10.3 5.6 9.3 5.5 8.25 5.75 8.0 6.8 L5.0 6.45 Q3.35 3.7 0.95 4.5 L-2.05 4.2 -2.1 4.15 -2.5 3.75 -2.8 3.3 -2.85 3.2 -3.25 3.05 -4.8 0.75 -5.4 -0.45 -6.15 -2.55 -6.3 -3.45 Q-5.45 -2.0 -3.05 -2.05 L-3.1 -2.15 Q-6.4 -3.0 -6.2 -6.0 L-6.35 -6.05 -6.2 -7.15 -6.15 -7.65 -5.95 -9.15 -7.25 -10.0 -7.2 -10.1 -7.35 -10.35 Q-8.55 -11.85 -10.1 -13.15 L-10.0 -14.7 Q-9.85 -16.85 -10.9 -18.65 L-11.4 -18.85 -12.3 -18.35 -12.85 -18.45 -12.6 -17.75 -13.85 -20.9 -13.8 -21.1 Q-13.1 -23.7 -13.15 -26.1 L-13.85 -26.6 Q-14.6 -26.45 -15.05 -25.8 L-15.4 -25.75 -15.3 -25.35 -16.0 -28.0 -16.05 -28.25 Q-16.1 -29.25 -15.3 -29.9 -13.65 -31.1 -13.55 -32.6 L-14.25 -33.1 -17.5 -32.9 -17.75 -33.2 Q-18.25 -33.75 -18.35 -34.45 L-17.8 -34.7 Q-15.85 -35.6 -15.8 -37.2 L-15.9 -37.2 -16.1 -37.2 -16.6 -37.1 -17.25 -36.6 -17.4 -36.8 -17.6 -36.65 -17.55 -36.35 -19.6 -34.6 M22.15 -51.7 L21.0 -51.8 19.85 -51.15 Q18.4 -49.9 18.55 -47.95 L18.7 -47.75 18.8 -47.55 18.8 -47.35 18.85 -47.0 18.95 -46.8 Q19.5 -46.6 19.65 -46.05 L19.8 -45.85 21.0 -45.8 21.2 -45.85 22.15 -46.4 22.4 -46.45 22.85 -46.4 23.1 -46.55 23.25 -46.75 23.25 -48.45 Q23.2 -49.45 23.7 -50.35 L22.85 -51.15 22.15 -51.7 M16.15 -31.5 L15.25 -32.95 14.6 -34.05 14.65 -34.3 Q15.0 -34.95 14.7 -35.5 L14.5 -35.45 14.1 -35.3 Q13.75 -34.05 12.9 -33.1 L12.2 -32.45 12.2 -32.15 Q12.1 -31.65 12.4 -31.3 L13.95 -30.3 14.75 -29.85 15.0 -29.75 15.85 -29.75 16.2 -30.35 16.2 -30.6 16.15 -31.5 M4.1 -26.7 L3.85 -26.95 3.4 -27.2 3.4 -27.1 2.95 -27.0 2.7 -26.65 2.65 -26.4 Q2.65 -25.75 3.4 -25.65 L3.9 -25.85 4.0 -26.15 4.1 -26.7 M4.2 -32.85 L4.15 -32.9 4.15 -32.85 3.8 -32.8 3.7 -32.75 Q3.3 -32.6 3.1 -32.25 L2.95 -31.95 2.95 -31.5 2.9 -31.4 2.9 -30.95 3.05 -30.25 3.15 -30.15 4.35 -29.05 4.4 -29.05 5.2 -28.75 Q6.0 -28.65 6.85 -29.2 L6.9 -29.45 6.7 -30.5 Q6.1 -32.05 4.5 -32.75 L4.2 -32.85 M9.9 -31.1 L9.9 -31.05 9.55 -31.0 9.25 -30.8 8.35 -29.95 Q5.1 -26.4 8.3 -23.05 L8.3 -22.7 Q8.2 -21.7 8.35 -20.75 L8.55 -17.9 9.15 -17.85 9.35 -17.9 9.25 -20.1 9.25 -22.2 9.25 -22.7 10.15 -22.75 10.65 -22.7 11.35 -22.5 Q11.8 -21.7 11.6 -20.8 11.45 -20.15 11.9 -20.2 L12.15 -21.9 Q12.2 -22.35 12.4 -22.8 L12.95 -23.0 13.15 -23.15 Q14.1 -24.8 14.05 -26.6 14.0 -28.65 13.05 -29.75 12.15 -30.8 10.55 -31.0 L9.9 -31.1 M9.0 -38.05 L8.85 -38.35 8.7 -38.3 8.65 -38.1 Q8.35 -37.45 8.4 -36.75 L7.85 -36.1 7.25 -35.3 7.25 -35.0 Q7.3 -34.0 7.6 -33.0 L8.35 -32.6 10.0 -32.45 10.7 -32.65 10.75 -32.75 11.2 -33.85 Q11.4 -34.9 10.5 -35.75 L10.15 -36.05 9.15 -36.65 9.15 -36.95 9.0 -38.05 M1.7 -7.55 L1.8 -7.35 Q1.8 -6.85 1.45 -6.45 L1.05 -6.05 Q-0.85 -5.9 -0.55 -7.7 L0.15 -8.3 0.6 -8.4 Q1.35 -8.3 1.7 -7.55 M18.85 -8.1 L19.25 -8.2 Q21.5 -7.3 19.5 -5.95 L18.4 -6.05 18.05 -6.4 Q17.7 -7.6 18.85 -8.1 M-16.35 -52.2 L-16.9 -51.8 -17.15 -51.5 -17.35 -51.25 -17.6 -48.75 -17.85 -46.25 -17.5 -45.95 -17.25 -45.7 -17.0 -45.4 Q-15.05 -44.8 -13.1 -44.95 L-13.0 -45.1 -12.9 -45.4 Q-11.7 -46.0 -11.6 -47.35 L-11.5 -49.0 -12.15 -50.7 Q-12.2 -51.2 -12.6 -51.5 L-13.1 -51.35 -13.6 -51.5 Q-14.9 -52.15 -16.3 -52.25 L-16.35 -52.25 -16.35 -52.2 M-16.05 -8.15 L-15.8 -8.05 -15.95 -8.05 -16.05 -8.15" fill="#ffffff" fill-rule="evenodd" stroke="none"/>
    <path d="M22.15 -51.7 L22.85 -51.15 23.7 -50.35 Q23.2 -49.45 23.25 -48.45 L23.25 -46.75 23.1 -46.55 22.85 -46.4 22.4 -46.45 22.15 -46.4 21.2 -45.85 21.0 -45.8 19.8 -45.85 19.65 -46.05 Q19.5 -46.6 18.95 -46.8 L18.85 -47.0 18.8 -47.35 18.8 -47.55 18.7 -47.75 18.55 -47.95 Q18.4 -49.9 19.85 -51.15 L21.0 -51.8 22.15 -51.7 M-16.3 -52.25 Q-14.9 -52.15 -13.6 -51.5 L-13.1 -51.35 -12.6 -51.5 Q-12.2 -51.2 -12.15 -50.7 L-11.5 -49.0 -11.6 -47.35 Q-11.7 -46.0 -12.9 -45.4 L-13.0 -45.1 -13.1 -44.95 Q-15.05 -44.8 -17.0 -45.4 L-17.25 -45.7 -17.5 -45.95 -17.85 -46.25 -17.6 -48.75 -17.35 -51.25 -17.15 -51.5 -16.9 -51.8 -16.35 -52.2 -16.3 -52.25" fill="#ff99cc" fill-rule="evenodd" stroke="none"/>
    <path d="M14.2 -0.15 L14.4 -0.35 14.85 -0.5 Q14.95 -0.9 15.35 -1.05 L15.65 -1.1 Q17.5 -0.9 18.15 0.6 L18.2 0.7 18.15 0.85 18.05 1.0 14.95 1.15 15.05 2.05 15.1 2.75 14.95 3.05 14.9 3.15 14.85 3.3 14.55 3.3 14.25 2.2 14.15 1.25 13.4 1.05 13.3 0.9 13.25 0.8 Q12.7 0.9 12.4 0.55 L12.85 0.55 16.05 0.8 16.55 0.85 Q17.1 0.95 17.4 0.5 17.15 0.3 16.9 0.25 L14.2 -0.15 M22.15 -17.05 L21.85 -17.3 22.0 -17.55 22.15 -17.05 M9.0 -38.05 L9.15 -36.95 9.15 -36.65 10.15 -36.05 10.5 -35.75 Q11.4 -34.9 11.2 -33.85 L10.75 -32.75 10.7 -32.65 10.0 -32.45 8.35 -32.6 7.6 -33.0 Q7.3 -34.0 7.25 -35.0 L7.25 -35.3 7.85 -36.1 8.4 -36.75 Q8.35 -37.45 8.65 -38.1 L8.7 -38.3 8.85 -38.35 9.0 -38.05 M9.9 -31.1 L10.55 -31.0 Q12.15 -30.8 13.05 -29.75 14.0 -28.65 14.05 -26.6 14.1 -24.8 13.15 -23.15 L12.95 -23.0 12.4 -22.8 Q12.2 -22.35 12.15 -21.9 L11.9 -20.2 Q11.45 -20.15 11.6 -20.8 11.8 -21.7 11.35 -22.5 L10.65 -22.7 10.15 -22.75 9.25 -22.7 9.25 -22.2 9.25 -20.1 9.35 -17.9 9.15 -17.85 8.55 -17.9 8.35 -20.75 Q8.2 -21.7 8.3 -22.7 L8.3 -23.05 Q5.1 -26.4 8.35 -29.95 L9.25 -30.8 9.55 -31.0 9.9 -31.05 9.9 -31.1 M4.2 -32.85 L4.5 -32.75 Q6.1 -32.05 6.7 -30.5 L6.9 -29.45 6.85 -29.2 Q6.0 -28.65 5.2 -28.75 L4.4 -29.05 4.35 -29.05 3.15 -30.15 3.05 -30.25 2.9 -30.95 2.9 -31.4 2.95 -31.5 2.95 -31.95 3.1 -32.25 Q3.3 -32.6 3.7 -32.75 L3.8 -32.8 4.15 -32.85 4.15 -32.9 4.2 -32.85 M4.1 -26.7 L4.0 -26.15 3.9 -25.85 3.4 -25.65 Q2.65 -25.75 2.65 -26.4 L2.7 -26.65 2.95 -27.0 3.4 -27.1 3.4 -27.2 3.85 -26.95 4.1 -26.7 M16.15 -31.5 L16.2 -30.6 16.2 -30.35 15.85 -29.75 15.0 -29.75 14.75 -29.85 13.95 -30.3 12.4 -31.3 Q12.1 -31.65 12.2 -32.15 L12.2 -32.45 12.9 -33.1 Q13.75 -34.05 14.1 -35.3 L14.5 -35.45 14.7 -35.5 Q15.0 -34.95 14.65 -34.3 L14.6 -34.05 15.25 -32.95 16.15 -31.5" fill="#ff0000" fill-rule="evenodd" stroke="none"/>
    <path d="M-19.6 -34.6 L-17.55 -36.35 -17.6 -36.65 -17.4 -36.8 -17.25 -36.6 -16.6 -37.1 -16.1 -37.2 -15.9 -37.2 -15.8 -37.2 Q-15.85 -35.6 -17.8 -34.7 L-18.35 -34.45 Q-18.25 -33.75 -17.75 -33.2 L-17.5 -32.9 -14.25 -33.1 -13.55 -32.6 Q-13.65 -31.1 -15.3 -29.9 -16.1 -29.25 -16.05 -28.25 L-16.0 -28.0 -15.3 -25.35 -15.4 -25.75 -15.05 -25.8 Q-14.6 -26.45 -13.85 -26.6 L-13.15 -26.1 Q-13.1 -23.7 -13.8 -21.1 L-13.85 -20.9 -12.6 -17.75 -12.85 -18.45 -12.3 -18.35 -11.4 -18.85 -10.9 -18.65 Q-9.85 -16.85 -10.0 -14.7 L-10.1 -13.15 Q-8.55 -11.85 -7.35 -10.35 L-7.2 -10.1 -7.25 -10.0 -5.95 -9.15 -6.15 -7.65 -6.2 -7.15 -6.35 -6.05 -6.6 -6.15 -6.75 -6.0 Q-6.85 -4.4 -6.3 -3.45 L-6.15 -2.55 -5.4 -0.45 -4.8 0.75 -3.25 3.05 -3.35 3.0 -3.9 3.25 Q-6.45 1.45 -9.3 0.4 L-10.1 -0.45 -10.15 -0.7 -10.2 -1.0 Q-10.95 -2.2 -12.05 -1.45 L-12.15 -1.2 -12.25 -0.9 -12.9 -0.8 -12.95 -1.1 -13.25 -3.9 -13.55 -4.15 -15.7 -4.25 -15.75 -4.45 -15.8 -8.05 -16.05 -8.15 Q-17.15 -10.35 -16.05 -12.55 L-16.2 -12.75 -18.1 -12.85 Q-18.3 -13.2 -18.1 -13.55 -17.1 -15.8 -17.3 -18.05 L-17.7 -18.1 -19.5 -18.15 -19.85 -18.05 -19.95 -20.0 Q-19.8 -22.35 -19.05 -24.45 L-19.2 -24.7 -19.6 -24.95 -19.95 -24.85 -20.4 -24.35 Q-20.65 -23.9 -20.8 -24.0 L-20.7 -24.85 -19.45 -27.65 -19.15 -28.2 Q-18.2 -28.5 -18.3 -29.3 -19.15 -30.2 -20.55 -29.95 L-20.45 -30.5 Q-20.05 -32.4 -18.65 -33.55 L-18.3 -33.85 -18.45 -34.1 -18.65 -34.4 -19.6 -34.6 M20.6 -2.4 L13.3 -3.0 13.2 -3.1 12.8 -3.55 11.6 -4.3 11.1 -4.25 9.1 -4.05 Q8.55 -4.0 8.15 -3.65 L8.1 -3.25 8.1 -3.4 5.2 -3.6 3.35 -3.75 Q3.9 -4.55 3.8 -5.85 3.65 -7.4 3.05 -8.4 5.35 -8.2 7.6 -8.4 L9.3 -8.35 9.5 -8.45 11.2 -8.3 14.0 -8.4 16.55 -8.25 16.1 -7.55 Q14.95 -5.95 16.45 -4.15 17.45 -2.95 18.65 -3.5 20.0 -3.5 20.85 -5.15 L21.0 -5.45 20.6 -2.55 20.6 -2.4 M-4.05 -6.9 L-4.05 -7.05 -4.1 -7.1 -4.15 -7.25 -4.0 -7.2 -4.05 -7.0 -4.05 -6.85 -4.05 -6.9" fill="#cccccc" fill-rule="evenodd" stroke="none"/>
  </g>
</svg>
