<?xml version="1.0" encoding="UTF-8" standalone="no"?>
<svg xmlns:xlink="http://www.w3.org/1999/xlink" height="54.75px" width="61.0px" xmlns="http://www.w3.org/2000/svg">
  <g transform="matrix(1.0, 0.0, 0.0, 1.0, 23.45, 47.9)">
    <path d="M27.1 -37.9 Q28.15 -38.8 29.35 -38.4 31.6 -37.5 33.8 -36.95 34.7 -36.75 34.85 -36.05 L34.85 -35.5 36.35 -34.25 Q37.85 -32.95 37.45 -31.05 L36.3 -30.05 Q37.35 -27.65 35.9 -25.5 34.0 -22.7 30.6 -22.7 L25.1 -22.55 24.1 -18.75 22.9 -18.65 22.95 -18.0 Q23.05 -16.55 22.7 -15.2 22.5 -14.45 21.85 -14.2 L20.65 -14.2 Q21.05 -9.55 20.1 -5.0 L19.2 -4.9 17.5 -0.55 16.7 -0.3 15.65 1.65 15.4 2.45 15.15 2.85 14.75 3.15 14.45 3.3 13.95 3.05 11.45 5.15 Q10.9 6.85 9.25 6.85 7.95 6.85 6.95 5.85 L-0.45 6.2 -0.55 6.75 -1.55 6.6 -2.55 6.5 -2.6 6.3 -2.6 5.85 -7.7 4.45 -11.4 4.35 Q-13.05 3.6 -13.35 1.85 -17.5 -0.3 -20.45 -3.8 L-20.45 -4.35 -20.85 -4.9 -20.75 -6.3 -21.5 -7.15 -21.5 -8.0 -21.1 -8.55 -21.05 -10.2 -20.65 -10.75 -19.45 -14.95 -20.0 -15.75 -20.0 -18.0 -17.05 -23.55 -17.8 -24.2 -17.8 -26.15 -17.4 -26.7 -17.4 -27.25 -17.05 -27.8 -17.05 -28.35 -15.75 -31.4 Q-17.25 -31.65 -18.6 -32.25 L-20.25 -33.35 -21.7 -33.45 -22.35 -36.1 -23.15 -36.4 -23.45 -41.4 -22.6 -42.95 -22.25 -44.2 -21.5 -44.9 Q-20.2 -45.85 -18.6 -45.4 L-18.35 -47.1 -15.3 -47.9 Q-11.35 -47.95 -7.85 -45.8 L-8.45 -40.95 -7.05 -43.05 -6.2 -42.7 -6.2 -42.45 -6.1 -41.9 -6.0 -41.8 -5.65 -41.8 -4.7 -43.45 -3.5 -43.45 -2.8 -42.35 -2.8 -41.8 -2.15 -40.75 -1.5 -40.8 0.0 -42.35 0.55 -42.25 0.95 -41.6 1.65 -41.6 2.2 -42.15 3.8 -42.25 4.1 -42.55 5.2 -42.3 6.15 -41.65 6.4 -41.35 11.45 -41.6 12.15 -40.7 15.25 -40.7 15.55 -40.4 17.1 -40.2 19.6 -39.2 Q21.25 -38.7 21.75 -37.05 L24.35 -35.85 25.75 -36.15 Q26.25 -37.15 27.1 -37.9 M-10.35 -1.5 L-6.5 0.2 -6.4 0.85 0.2 2.2 1.5 -0.2 1.95 -0.1 1.4 2.35 12.0 2.25 13.9 1.8 15.2 -1.3 15.55 -1.85 15.55 -3.25 16.3 -4.0 17.4 -4.1 17.9 -8.55 19.25 -9.0 19.55 -16.4 21.1 -16.3 21.95 -20.65 23.7 -21.4 23.7 -23.65 24.2 -24.2 33.4 -25.0 35.1 -28.0 34.45 -29.4 34.45 -31.05 35.95 -31.95 32.8 -35.3 28.9 -36.6 28.35 -36.5 Q27.25 -34.05 24.85 -34.2 22.45 -34.7 20.5 -36.05 L20.5 -36.6 19.55 -37.65 Q18.4 -37.35 17.55 -38.0 L17.05 -38.45 14.5 -38.55 13.7 -38.85 Q12.25 -38.35 11.15 -39.3 10.4 -39.85 10.1 -40.6 L7.8 -39.4 4.65 -40.6 -0.25 -40.1 -0.95 -39.55 -2.5 -39.55 -4.0 -42.05 -5.55 -40.2 -6.6 -40.3 -7.2 -41.25 -7.3 -40.5 -8.5 -39.2 -9.1 -39.4 -9.55 -44.95 -14.9 -46.15 -15.55 -45.8 -17.15 -45.95 -17.3 -44.4 -17.85 -44.1 -18.15 -43.85 -20.65 -43.55 -20.7 -41.9 -21.7 -40.5 -21.4 -38.0 -20.65 -37.15 -20.3 -35.2 -14.25 -32.45 -14.15 -31.15 -15.6 -27.8 -15.95 -26.7 -15.0 -26.1 -14.55 -25.75 -15.1 -24.2 Q-16.4 -20.75 -18.55 -17.5 L-18.55 -16.7 -17.4 -17.35 -16.95 -17.15 -16.75 -16.3 -17.5 -15.25 Q-19.05 -13.1 -19.35 -10.5 L-18.6 -9.9 -19.05 -7.75 Q-19.25 -6.3 -18.65 -5.2 L-17.5 -3.75 -13.2 -0.25 -12.5 -1.5 -12.1 -1.8 -11.4 -2.2 -10.75 -1.65 -10.3 -1.4 -10.35 -1.5 M5.65 3.95 Q5.45 3.4 5.6 2.9 -0.85 4.0 -6.4 1.5 L-6.65 2.9 -6.7 3.2 Q-0.5 4.85 5.65 3.95 M9.6 3.7 Q9.3 3.7 9.1 3.95 L8.9 4.45 9.1 5.0 Q9.3 5.2 9.6 5.2 L10.1 5.0 10.3 4.45 10.1 3.95 Q9.9 3.7 9.6 3.7 M-8.35 0.85 Q-8.6 0.6 -8.9 0.6 -9.2 0.6 -9.4 0.85 L-9.65 1.4 -9.4 2.0 Q-9.2 2.2 -8.9 2.2 L-8.35 2.0 -8.15 1.4 -8.35 0.85" fill="#000000" fill-rule="evenodd" stroke="none"/>
    <path d="M-15.6 -27.8 L-14.15 -31.15 -14.25 -32.45 -20.3 -35.2 -20.65 -37.15 -21.4 -38.0 -21.7 -40.5 -20.7 -41.9 -20.65 -43.55 -18.15 -43.85 -17.85 -44.1 -17.3 -44.4 -17.15 -45.95 -15.55 -45.8 -14.9 -46.15 -9.55 -44.95 -9.1 -39.4 -8.5 -39.2 -7.3 -40.5 -7.2 -41.25 -6.6 -40.3 -5.55 -40.2 -4.0 -42.05 -2.5 -39.55 -0.95 -39.55 -0.25 -40.1 4.65 -40.6 7.8 -39.4 10.1 -40.6 Q10.4 -39.85 11.15 -39.3 12.25 -38.35 13.7 -38.85 L14.5 -38.55 17.05 -38.45 17.55 -38.0 Q18.4 -37.35 19.55 -37.65 L20.5 -36.6 20.5 -36.05 Q22.45 -34.7 24.85 -34.2 27.25 -34.05 28.35 -36.5 L28.9 -36.6 32.8 -35.3 35.95 -31.95 34.45 -31.05 34.45 -29.4 35.1 -28.0 33.4 -25.0 24.2 -24.2 23.7 -23.65 23.7 -21.4 21.95 -20.65 21.1 -16.3 19.55 -16.4 19.25 -9.0 17.9 -8.55 17.4 -4.1 16.3 -4.0 15.55 -3.25 15.55 -1.85 15.2 -1.3 13.9 1.8 12.0 2.25 1.4 2.35 1.95 -0.1 1.5 -0.2 0.2 2.2 -6.4 0.85 -6.5 0.2 -10.35 -1.5 Q-11.7 -3.9 -11.65 -6.85 -12.95 -8.35 -13.2 -10.35 L-13.35 -11.6 -12.95 -12.15 -12.95 -12.7 Q-12.5 -13.4 -12.35 -14.4 L-12.25 -16.05 -13.45 -17.35 Q-12.85 -17.95 -12.55 -19.0 -12.35 -19.8 -12.3 -20.65 L-13.6 -22.05 -14.55 -25.75 -15.0 -26.1 -14.6 -25.9 -15.1 -27.6 -15.6 -27.8 M28.15 -31.7 L25.0 -29.1 25.0 -28.55 Q26.15 -26.6 28.5 -27.15 29.2 -27.2 29.8 -27.65 31.15 -28.75 30.5 -30.4 L29.4 -31.45 28.15 -31.7 M11.05 -17.45 L10.0 -18.0 9.45 -17.8 7.95 -15.85 8.05 -14.75 10.75 -14.65 Q11.7 -16.0 11.05 -17.45 M5.55 -22.8 Q4.7 -21.85 4.25 -20.6 L3.7 -18.1 5.1 -17.35 Q6.85 -17.85 7.0 -19.75 7.1 -21.05 6.0 -22.05 L5.95 -22.9 5.55 -22.8 M0.25 -19.35 L-0.75 -18.7 Q-1.2 -18.1 -1.2 -17.2 -1.2 -16.3 -0.75 -15.65 -0.35 -15.05 0.25 -15.05 0.85 -15.05 1.3 -15.65 1.7 -16.3 1.7 -17.2 1.7 -18.1 1.3 -18.7 0.85 -19.35 0.25 -19.35 M7.85 -10.85 Q7.65 -14.95 4.1 -15.75 1.0 -15.5 -0.95 -12.9 L-0.95 -11.2 -0.95 -9.3 Q-0.1 -7.15 2.1 -6.65 7.0 -5.5 7.8 -10.05 L7.85 -10.85 M9.6 3.7 Q9.9 3.7 10.1 3.95 L10.3 4.45 10.1 5.0 9.6 5.2 Q9.3 5.2 9.1 5.0 L8.9 4.45 9.1 3.95 Q9.3 3.7 9.6 3.7 M-17.25 -38.2 Q-17.25 -36.85 -16.45 -35.9 -15.65 -35.0 -14.5 -35.0 -13.35 -35.0 -12.55 -35.9 -11.75 -36.85 -11.75 -38.2 -11.75 -39.55 -12.55 -40.45 -13.35 -41.4 -14.5 -41.4 -15.65 -41.4 -16.45 -40.45 -17.25 -39.55 -17.25 -38.2 M-8.35 0.85 L-8.15 1.4 -8.35 2.0 -8.9 2.2 Q-9.2 2.2 -9.4 2.0 L-9.65 1.4 -9.4 0.85 Q-9.2 0.6 -8.9 0.6 -8.6 0.6 -8.35 0.85" fill="#ffffff" fill-rule="evenodd" stroke="none"/>
    <path d="M28.15 -31.7 L29.4 -31.45 30.5 -30.4 Q31.15 -28.75 29.8 -27.65 29.2 -27.2 28.5 -27.15 26.15 -26.6 25.0 -28.55 L25.0 -29.1 28.15 -31.7 M-17.25 -38.2 Q-17.25 -39.55 -16.45 -40.45 -15.65 -41.4 -14.5 -41.4 -13.35 -41.4 -12.55 -40.45 -11.75 -39.55 -11.75 -38.2 -11.75 -36.85 -12.55 -35.9 -13.35 -35.0 -14.5 -35.0 -15.65 -35.0 -16.45 -35.9 -17.25 -36.85 -17.25 -38.2" fill="#ff99cc" fill-rule="evenodd" stroke="none"/>
    <path d="M-10.35 -1.5 L-10.3 -1.4 -10.75 -1.65 -11.4 -2.2 -12.1 -1.8 -12.5 -1.5 -13.2 -0.25 -17.5 -3.75 -18.65 -5.2 Q-19.25 -6.3 -19.05 -7.75 L-18.6 -9.9 -19.35 -10.5 Q-19.05 -13.1 -17.5 -15.25 L-16.75 -16.3 -16.95 -17.15 -17.4 -17.35 -18.55 -16.7 -18.55 -17.5 Q-16.4 -20.75 -15.1 -24.2 L-14.55 -25.75 -13.6 -22.05 -12.3 -20.65 Q-12.35 -19.8 -12.55 -19.0 -12.85 -17.95 -13.45 -17.35 L-12.25 -16.05 -12.35 -14.4 Q-12.5 -13.4 -12.95 -12.7 L-12.95 -12.15 -13.35 -11.6 -13.2 -10.35 Q-12.95 -8.35 -11.65 -6.85 -11.7 -3.9 -10.35 -1.5 M-15.0 -26.1 L-15.95 -26.7 -15.6 -27.8 -15.1 -27.6 -14.6 -25.9 -15.0 -26.1 M5.65 3.95 Q-0.5 4.85 -6.7 3.2 L-6.65 2.9 -6.4 1.5 Q-0.85 4.0 5.6 2.9 5.45 3.4 5.65 3.95" fill="#cccccc" fill-rule="evenodd" stroke="none"/>
    <path d="M7.85 -10.85 L7.8 -10.05 Q7.0 -5.5 2.1 -6.65 -0.1 -7.15 -0.95 -9.3 L-0.95 -11.2 -0.95 -12.9 Q1.0 -15.5 4.1 -15.75 7.65 -14.95 7.85 -10.85 M0.25 -19.35 Q0.85 -19.35 1.3 -18.7 1.7 -18.1 1.7 -17.2 1.7 -16.3 1.3 -15.65 0.85 -15.05 0.25 -15.05 -0.35 -15.05 -0.75 -15.65 -1.2 -16.3 -1.2 -17.2 -1.2 -18.1 -0.75 -18.7 L0.25 -19.35 M5.55 -22.8 L5.95 -22.9 6.0 -22.05 Q7.1 -21.05 7.0 -19.75 6.85 -17.85 5.1 -17.35 L3.7 -18.1 4.25 -20.6 Q4.7 -21.85 5.55 -22.8 M11.05 -17.45 Q11.7 -16.0 10.75 -14.65 L8.05 -14.75 7.95 -15.85 9.45 -17.8 10.0 -18.0 11.05 -17.45" fill="#ff0000" fill-rule="evenodd" stroke="none"/>
  </g>
</svg>
