<?xml version="1.0" encoding="UTF-8" standalone="no"?>
<svg xmlns:xlink="http://www.w3.org/1999/xlink" height="74.8px" width="63.55px" xmlns="http://www.w3.org/2000/svg">
  <g transform="matrix(1.0, 0.0, 0.0, 1.0, 32.75, 68.45)">
    <path d="M26.85 -62.9 Q28.15 -56.45 28.65 -49.9 29.5 -39.15 29.35 -28.35 24.65 -26.7 21.35 -23.4 L21.45 -25.15 Q21.75 -26.45 21.7 -27.7 L21.7 -29.85 21.7 -29.95 21.7 -30.05 21.7 -32.0 21.6 -34.65 20.85 -46.7 Q21.45 -46.8 22.05 -47.3 23.8 -46.85 24.7 -47.9 L24.85 -48.45 26.85 -62.9 M19.95 -20.65 L20.0 -20.6 20.05 -18.35 19.9 -17.25 19.9 -17.3 Q17.85 -18.75 16.0 -20.65 L10.55 -26.3 10.55 -26.8 10.65 -27.35 11.15 -26.9 18.45 -20.0 19.95 -18.55 19.95 -20.65 M-14.95 -39.8 Q-11.25 -41.5 -7.2 -42.6 -1.05 -44.25 5.25 -44.2 L9.25 -43.9 9.5 -33.05 3.3 -32.1 -4.75 -30.05 Q-9.75 -28.85 -14.35 -26.95 L-14.65 -35.1 -14.95 -39.8 M9.65 -25.65 L9.65 -25.85 9.65 -26.45 Q7.15 -24.55 4.1 -23.45 2.95 -23.0 1.95 -22.4 L-2.5 -20.0 -8.2 -16.9 -10.55 -15.4 Q-12.0 -14.35 -13.55 -13.65 L-13.6 -13.55 -13.7 -13.55 -13.7 -13.6 -13.7 -13.95 -13.8 -14.1 -13.8 -14.5 Q-8.7 -17.75 -3.25 -20.7 1.65 -23.45 6.75 -25.8 L9.15 -27.4 9.5 -27.05 9.75 -26.7 9.65 -25.65 M-13.45 -13.25 L-12.85 -12.6 -12.35 -12.25 -12.45 -12.2 -13.6 -12.85 -13.7 -13.2 -13.7 -13.45 -13.45 -13.25 M-28.4 -65.05 L-28.2 -65.05 Q-26.25 -56.7 -24.45 -48.35 -20.2 -47.4 -16.4 -45.3 L-16.55 -45.0 -16.4 -44.9 -16.1 -34.4 -16.0 -30.5 -15.85 -24.8 -30.2 -28.15 -30.75 -30.05 Q-31.65 -37.5 -31.1 -45.05 -30.35 -55.2 -28.4 -65.05" fill="#404040" fill-rule="evenodd" stroke="none"/>
    <path d="M26.85 -62.9 L24.85 -48.45 24.7 -47.9 Q23.8 -46.85 22.05 -47.3 21.45 -46.8 20.85 -46.7 L21.6 -34.65 21.7 -32.0 21.7 -30.05 21.7 -29.95 21.7 -29.85 21.7 -27.7 Q21.75 -26.45 21.45 -25.15 L21.35 -23.4 Q24.65 -26.7 29.35 -28.35 29.5 -39.15 28.65 -49.9 28.15 -56.45 26.85 -62.9 M27.25 -67.3 Q30.05 -56.8 30.6 -45.8 31.0 -36.6 30.55 -27.45 30.55 -27.15 30.2 -26.95 25.6 -24.65 21.5 -21.75 L21.3 -21.85 21.25 -17.25 21.3 -17.2 21.25 -17.05 21.4 -6.95 21.2 -6.65 21.15 -5.25 21.45 -4.95 Q17.0 -0.15 12.0 4.05 L8.3 6.35 -15.2 -3.2 -15.2 -3.6 -15.95 -4.6 Q-17.4 -8.25 -16.3 -12.0 L-15.5 -13.55 -15.8 -23.15 Q-23.75 -25.2 -31.7 -26.75 -33.35 -36.95 -32.4 -47.4 L-30.45 -62.45 Q-30.05 -64.8 -29.15 -66.95 L-28.4 -68.25 -28.3 -68.3 -27.95 -68.4 -27.9 -68.45 -27.45 -68.25 -23.2 -49.85 -23.1 -49.3 Q-19.25 -48.15 -15.95 -46.0 L-15.8 -46.2 -15.1 -46.45 -14.45 -46.85 -13.05 -47.5 -7.55 -49.75 Q-1.65 -51.9 4.6 -51.55 11.5 -51.4 17.7 -48.5 L19.55 -48.1 19.85 -48.2 23.4 -49.2 Q24.5 -57.85 26.0 -66.45 L26.05 -67.05 26.3 -67.3 26.75 -67.45 26.8 -67.5 27.25 -67.3 M20.05 -42.55 L20.05 -44.25 20.05 -44.85 20.05 -45.7 19.85 -46.65 19.55 -46.9 18.95 -47.3 18.95 -47.35 17.9 -47.25 16.7 -47.4 Q14.25 -47.95 12.0 -48.75 L10.15 -49.15 10.4 -44.1 10.4 -43.65 10.55 -32.0 10.5 -27.5 11.15 -26.9 10.65 -27.35 10.55 -26.8 10.55 -26.3 10.45 -26.4 10.45 -26.3 10.35 -22.95 10.35 -22.9 Q10.05 -22.65 10.2 -22.35 L10.3 -22.15 9.75 -13.9 Q9.75 -12.8 9.9 -11.65 L9.85 -11.65 9.8 -11.5 9.8 -11.35 9.85 -11.2 9.95 -11.1 10.0 -11.05 10.2 -9.7 10.2 -9.65 12.5 -9.65 12.9 -9.75 12.9 -9.8 13.25 -9.6 13.8 -9.6 19.95 -12.25 19.9 -17.25 20.05 -18.35 20.0 -20.6 19.95 -20.65 20.05 -24.05 20.15 -27.15 20.1 -29.15 20.05 -42.55 M9.25 -43.9 L9.25 -45.05 9.55 -45.55 9.75 -49.4 8.2 -49.7 Q3.9 -50.35 -0.3 -49.75 -6.0 -48.75 -11.45 -47.05 -13.6 -46.2 -15.45 -44.85 L-14.95 -39.8 -14.65 -35.1 -14.35 -26.95 -14.15 -18.55 Q-13.8 -16.6 -13.8 -14.5 L-13.8 -14.1 -13.7 -13.95 -13.7 -13.6 -13.7 -13.55 -13.75 -13.55 -13.45 -13.25 -13.7 -13.45 -13.7 -13.2 -13.6 -12.85 -12.45 -12.2 -12.35 -12.25 Q-11.7 -11.6 -11.5 -10.45 L-11.45 -9.85 -11.3 -9.3 Q-11.2 -8.6 -11.45 -7.95 -11.6 -5.8 -12.6 -3.9 L-13.4 -3.25 -4.7 0.05 -2.75 0.8 -2.85 -2.4 -1.9 -2.6 Q-1.25 -1.15 -1.4 0.6 L-1.5 0.85 -1.7 1.0 -1.85 1.15 -1.75 1.15 0.55 2.0 0.2 -2.95 1.4 -3.2 Q1.95 -0.45 2.0 2.5 L3.5 3.1 Q3.5 -0.4 3.75 -3.8 L4.65 -4.05 Q5.6 -0.45 4.7 3.3 L4.6 3.4 4.55 3.4 4.45 3.45 4.6 3.5 8.15 4.6 Q7.8 0.9 8.15 -2.5 L8.7 -8.05 Q2.6 -4.15 -5.3 -4.45 -6.15 -4.5 -6.65 -5.05 L-6.7 -5.1 -6.95 -5.5 -7.55 -6.15 -7.55 -6.3 -7.85 -6.85 -8.05 -7.0 -8.05 -7.15 -8.4 -8.0 -8.55 -8.5 -8.9 -8.8 -8.95 -9.3 -9.25 -10.05 Q-9.35 -10.6 -9.75 -11.05 L-9.75 -11.25 -9.75 -11.6 -9.75 -11.95 -9.65 -12.1 -9.5 -12.3 -9.15 -12.4 -7.1 -12.2 3.55 -9.7 8.45 -9.65 8.7 -11.1 8.65 -11.25 8.95 -11.55 9.4 -16.6 Q9.7 -21.15 9.65 -25.65 L9.75 -26.7 9.5 -27.05 9.15 -27.4 9.5 -27.65 9.5 -27.7 9.6 -27.8 9.5 -33.05 9.25 -43.9 M1.25 -18.1 L1.2 -18.2 1.25 -18.2 1.25 -18.1 M5.7 -8.65 L5.8 -8.6 5.85 -8.65 5.7 -8.65 M17.1 -9.85 Q16.45 -9.8 15.95 -9.3 L15.95 -8.95 15.95 -8.6 16.35 -8.35 16.95 -7.95 Q18.75 -6.7 20.4 -7.65 L20.35 -8.15 20.2 -9.0 19.95 -9.15 20.0 -10.6 17.45 -9.85 17.1 -9.85 M0.9 -9.0 L0.7 -8.95 0.45 -8.8 Q-2.65 -9.45 -5.45 -10.55 L-5.5 -10.5 -5.65 -10.45 -5.85 -10.8 -6.15 -10.9 -6.15 -10.85 -6.55 -10.6 -6.6 -10.45 -6.6 -10.1 -5.25 -7.2 Q-4.85 -6.4 -4.05 -6.2 -0.55 -5.4 1.05 -7.75 L1.25 -7.9 1.25 -8.05 1.5 -8.55 0.9 -9.0 M12.1 -8.95 L9.35 -8.6 Q8.85 -2.05 8.65 4.65 L9.15 4.65 11.65 2.5 11.65 2.3 11.85 2.0 Q11.5 -1.15 11.75 -4.2 L12.7 -4.0 12.95 -4.0 13.3 1.05 15.15 -0.6 14.95 -0.7 14.75 -3.85 15.3 -3.75 16.05 -3.65 16.25 -1.55 19.5 -4.45 19.65 -5.45 Q15.2 -5.5 12.05 -8.8 L12.1 -8.95 M-28.2 -65.05 L-28.3 -65.6 -28.4 -65.05 Q-30.35 -55.2 -31.1 -45.05 -31.65 -37.5 -30.75 -30.05 L-30.2 -28.15 -15.85 -24.8 -16.0 -30.5 -16.1 -34.4 -16.4 -44.9 -16.55 -45.0 -16.4 -45.3 Q-20.2 -47.4 -24.45 -48.35 -26.25 -56.7 -28.2 -65.05 M-15.5 -11.7 Q-16.0 -10.6 -15.9 -9.05 -15.85 -7.6 -15.4 -6.25 -15.2 -4.7 -14.0 -4.55 L-14.0 -4.05 -13.75 -4.1 -13.45 -4.5 -13.2 -4.7 Q-12.55 -6.1 -12.5 -7.7 L-12.5 -8.15 -12.5 -8.55 -12.4 -9.15 -12.35 -9.65 Q-12.7 -11.3 -14.0 -12.7 L-14.05 -12.7 -14.15 -12.75 -14.85 -12.45 -14.85 -12.6 -15.45 -11.7 -15.45 -11.75 -15.5 -11.7" fill="#000000" fill-rule="evenodd" stroke="none"/>
    <path d="M10.4 -44.1 L10.15 -49.15 12.0 -48.75 Q14.25 -47.95 16.7 -47.4 L17.9 -47.25 18.95 -47.35 18.95 -47.3 19.55 -46.9 19.85 -46.65 20.05 -45.7 20.05 -44.85 20.05 -44.25 20.05 -42.55 Q15.25 -43.75 10.4 -44.1 M20.1 -29.15 L20.15 -27.15 20.05 -24.05 19.95 -20.65 19.95 -18.55 18.45 -20.0 11.15 -26.9 10.5 -27.5 10.55 -32.0 20.1 -29.15 M19.9 -17.25 L19.95 -12.25 13.8 -9.6 13.25 -9.6 12.9 -9.8 12.9 -9.75 12.5 -9.65 10.2 -9.65 10.2 -9.7 10.0 -11.05 9.95 -11.1 9.85 -11.2 9.8 -11.35 9.8 -11.5 9.85 -11.65 9.9 -11.65 Q9.75 -12.8 9.75 -13.9 L10.3 -22.15 10.2 -22.35 Q10.05 -22.65 10.35 -22.9 L10.35 -22.95 10.45 -26.3 10.45 -26.4 10.55 -26.3 16.0 -20.65 Q17.85 -18.75 19.9 -17.3 L19.9 -17.25 M12.1 -8.95 L12.05 -8.8 Q15.2 -5.5 19.65 -5.45 L19.5 -4.45 16.25 -1.55 16.05 -3.65 15.3 -3.75 14.75 -3.85 14.95 -0.7 15.15 -0.6 13.3 1.05 12.95 -4.0 12.7 -4.0 11.75 -4.2 Q11.5 -1.15 11.85 2.0 L11.65 2.3 11.65 2.5 9.15 4.65 8.65 4.65 Q8.85 -2.05 9.35 -8.6 L12.1 -8.95" fill="#6a6a6a" fill-rule="evenodd" stroke="none"/>
    <path d="M20.05 -42.55 L20.1 -29.15 10.55 -32.0 10.4 -43.65 10.4 -44.1 Q15.25 -43.75 20.05 -42.55 M9.25 -43.9 L5.25 -44.2 Q-1.05 -44.25 -7.2 -42.6 -11.25 -41.5 -14.95 -39.8 L-15.45 -44.85 Q-13.6 -46.2 -11.45 -47.05 -6.0 -48.75 -0.3 -49.75 3.9 -50.35 8.2 -49.7 L9.75 -49.4 9.55 -45.55 9.25 -45.05 9.25 -43.9 M-14.35 -26.95 Q-9.75 -28.85 -4.75 -30.05 L3.3 -32.1 9.5 -33.05 9.6 -27.8 9.5 -27.7 9.5 -27.65 9.15 -27.4 6.75 -25.8 Q1.65 -23.45 -3.25 -20.7 -8.7 -17.75 -13.8 -14.5 -13.8 -16.6 -14.15 -18.55 L-14.35 -26.95 M-13.7 -13.55 L-13.6 -13.55 -13.55 -13.65 Q-12.0 -14.35 -10.55 -15.4 L-8.2 -16.9 -2.5 -20.0 1.95 -22.4 Q2.95 -23.0 4.1 -23.45 7.15 -24.55 9.65 -26.45 L9.65 -25.85 9.65 -25.65 Q9.7 -21.15 9.4 -16.6 L8.95 -11.55 8.65 -11.25 8.7 -11.1 8.45 -9.65 3.55 -9.7 -7.1 -12.2 -9.15 -12.4 -9.5 -12.3 -9.65 -12.1 -9.75 -11.95 -9.75 -11.6 -9.75 -11.25 -9.75 -11.05 Q-9.35 -10.6 -9.25 -10.05 L-8.95 -9.3 -8.9 -8.8 -8.55 -8.5 -8.4 -8.0 -8.05 -7.15 -8.05 -7.0 -7.85 -6.85 -7.55 -6.3 -7.55 -6.15 -6.95 -5.5 -6.7 -5.1 -6.65 -5.05 Q-6.15 -4.5 -5.3 -4.45 2.6 -4.15 8.7 -8.05 L8.15 -2.5 Q7.8 0.9 8.15 4.6 L4.6 3.5 4.6 3.4 4.7 3.3 Q5.6 -0.45 4.65 -4.05 L3.75 -3.8 Q3.5 -0.4 3.5 3.1 L2.0 2.5 Q1.95 -0.45 1.4 -3.2 L0.2 -2.95 0.55 2.0 -1.75 1.15 -1.7 1.0 -1.5 0.85 -1.4 0.6 Q-1.25 -1.15 -1.9 -2.6 L-2.85 -2.4 -2.75 0.8 -4.7 0.05 -13.4 -3.25 -12.6 -3.9 Q-11.6 -5.8 -11.45 -7.95 -11.2 -8.6 -11.3 -9.3 L-11.45 -9.85 -11.5 -10.45 Q-11.7 -11.6 -12.35 -12.25 L-12.85 -12.6 -13.45 -13.25 -13.75 -13.55 -13.7 -13.55 M1.25 -18.1 L1.25 -18.2 1.2 -18.2 1.25 -18.1 M-15.45 -11.7 L-14.85 -12.6 -14.85 -12.45 -14.15 -12.75 -14.05 -12.7 -14.0 -12.7 Q-12.7 -11.3 -12.35 -9.65 L-12.4 -9.15 -12.5 -8.55 -12.5 -8.15 -12.5 -7.7 Q-12.55 -6.1 -13.2 -4.7 L-13.45 -4.5 -13.75 -4.1 -14.0 -4.05 -14.0 -4.55 Q-15.2 -4.7 -15.4 -6.25 -15.85 -7.6 -15.9 -9.05 -16.0 -10.6 -15.5 -11.7 L-15.45 -11.7" fill="#4a4a4a" fill-rule="evenodd" stroke="none"/>
    <path d="M0.9 -9.0 L1.5 -8.55 1.25 -8.05 1.25 -7.9 1.05 -7.75 Q-0.55 -5.4 -4.05 -6.2 -4.85 -6.4 -5.25 -7.2 L-6.6 -10.1 -6.6 -10.45 -6.55 -10.6 -6.15 -10.85 -6.15 -10.9 -5.85 -10.8 -5.65 -10.45 -5.5 -10.5 -5.45 -10.55 Q-2.65 -9.45 0.45 -8.8 L0.7 -8.95 0.9 -9.0 M17.1 -9.85 L17.45 -9.85 20.0 -10.6 19.95 -9.15 20.2 -9.0 20.35 -8.15 20.4 -7.65 Q18.75 -6.7 16.95 -7.95 L16.35 -8.35 15.95 -8.6 15.95 -8.95 15.95 -9.3 Q16.45 -9.8 17.1 -9.85" fill="#ff0000" fill-rule="evenodd" stroke="none"/>
    <path d="M4.6 3.4 L4.6 3.5 4.55 3.4 4.6 3.4" fill="#666666" fill-rule="evenodd" stroke="none"/>
  </g>
</svg>
