<?xml version="1.0" encoding="UTF-8" standalone="no"?>
<svg xmlns:xlink="http://www.w3.org/1999/xlink" height="30.9px" width="25.55px" xmlns="http://www.w3.org/2000/svg">
  <g transform="matrix(1.0, 0.0, 0.0, 1.0, 12.75, 14.9)">
    <path d="M11.3 -12.6 L11.55 -12.85 11.35 -12.85 -1.6 -13.45 -3.7 -12.8 -6.6 -12.55 Q-7.5 -11.9 -8.6 -11.6 L-11.5 -10.75 -10.55 1.4 -9.1 13.5 -8.95 13.8 -8.75 14.0 -8.75 14.25 -8.75 14.45 11.55 13.5 Q11.2 7.45 11.25 1.4 L11.3 -9.1 11.3 -12.6 M12.7 -13.3 L12.7 -13.1 12.7 -12.85 12.7 -12.6 12.5 -12.35 12.4 -12.15 12.25 -5.4 Q12.0 3.95 12.15 13.3 L12.4 13.75 12.8 14.25 12.8 14.45 12.5 14.95 -4.05 15.95 -7.8 15.75 -9.3 15.8 -9.7 15.7 Q-10.0 15.3 -9.9 14.8 L-9.9 14.55 -10.1 14.05 -10.15 13.85 -10.2 12.95 -10.3 12.7 -10.45 12.45 -10.45 11.55 -10.5 11.25 -10.65 10.8 -10.75 10.6 -10.8 9.4 -11.7 2.65 Q-12.4 -4.35 -12.75 -11.35 L-12.05 -12.05 -11.9 -12.2 -11.8 -12.3 Q-9.95 -12.6 -8.2 -13.35 -5.7 -14.5 -2.8 -14.55 L-1.55 -14.8 -1.25 -14.9 12.15 -14.05 12.5 -14.0 12.7 -13.3 M9.4 -10.85 L9.3 -10.25 9.15 -9.7 9.2 -9.45 9.3 -8.35 9.15 -8.0 9.15 -5.5 9.15 -0.4 Q8.75 6.0 8.85 12.3 1.15 13.6 -6.95 13.55 -7.85 13.55 -8.55 13.0 L-9.3 5.8 Q-10.25 -1.45 -9.7 -8.6 L-9.5 -8.9 -9.5 -9.2 -9.55 -9.4 -9.6 -9.7 -9.5 -9.9 -9.4 -9.95 -9.2 -10.1 -9.2 -10.15 Q-1.5 -13.25 6.45 -11.95 L7.75 -11.5 8.1 -11.6 8.3 -11.65 8.6 -11.8 9.45 -10.95 9.4 -10.85 M7.9 -9.8 L7.95 -10.1 8.05 -10.35 Q4.0 -12.45 -0.9 -11.2 L-8.4 -9.1 -8.45 -8.85 -8.6 -8.55 Q-9.15 0.8 -8.2 10.3 L-7.85 11.55 Q-5.2 13.1 -1.6 12.1 L-0.05 11.9 7.65 11.1 Q7.55 2.5 7.75 -6.1 L7.75 -6.35 7.95 -6.65 7.8 -7.4 7.75 -7.7 8.05 -8.8 7.95 -9.55 7.9 -9.8 M5.75 -8.15 Q-0.5 -10.0 -5.7 -5.65 L-6.0 -5.6 -6.1 -5.6 -6.35 -5.7 -6.4 -5.95 -6.45 -6.2 -6.4 -6.5 -5.9 -6.95 -5.7 -7.25 -5.55 -7.4 -5.35 -7.55 -4.2 -8.1 -3.8 -8.35 Q1.4 -10.2 6.25 -8.55 L6.6 -8.35 6.55 -8.2 6.3 -8.0 6.2 -8.0 5.55 7.85 5.55 8.15 5.05 8.65 5.1 8.7 Q2.6 10.4 -1.1 9.95 L-4.85 9.6 -5.7 9.4 Q-7.25 2.55 -6.5 -4.65 L-6.45 -5.2 -6.15 -5.4 -6.0 -5.45 Q-6.05 1.25 -5.25 8.05 L-5.2 8.3 Q-0.6 9.4 4.35 8.3 L4.5 8.3 Q4.4 7.9 4.75 7.65 4.75 -0.05 5.7 -7.65 L5.75 -7.9 5.9 -8.1 5.75 -8.15" fill="#000000" fill-rule="evenodd" stroke="none"/>
    <path d="M11.35 -12.85 L11.3 -12.6 11.3 -9.1 11.25 1.4 Q11.2 7.45 11.55 13.5 L-8.75 14.45 -8.75 14.25 -8.75 14.0 -8.95 13.8 -9.1 13.5 -10.55 1.4 -11.5 -10.75 -8.6 -11.6 Q-7.5 -11.9 -6.6 -12.55 L-3.7 -12.8 -1.6 -13.45 11.35 -12.85 M5.75 -7.9 L5.7 -7.65 Q4.75 -0.05 4.75 7.65 4.4 7.9 4.5 8.3 L4.35 8.3 Q-0.6 9.4 -5.2 8.3 L-5.25 8.05 Q-6.05 1.25 -6.0 -5.45 L-6.15 -5.4 -6.45 -5.2 -6.5 -4.65 Q-7.25 2.55 -5.7 9.4 L-4.85 9.6 -1.1 9.95 Q2.6 10.4 5.1 8.7 L5.05 8.65 5.55 8.15 5.55 7.85 6.2 -8.0 6.3 -8.0 6.55 -8.2 6.6 -8.35 6.25 -8.55 Q1.4 -10.2 -3.8 -8.35 L-4.2 -8.1 -5.35 -7.55 -5.55 -7.4 -5.7 -7.25 -5.9 -6.95 -6.4 -6.5 -6.45 -6.2 -6.4 -5.95 -6.35 -5.7 -6.1 -5.6 -6.0 -5.6 -5.7 -5.65 Q-0.5 -10.0 5.75 -8.15 L5.75 -7.9 M7.9 -9.8 L7.95 -9.55 8.05 -8.8 7.75 -7.7 7.8 -7.4 7.95 -6.65 7.75 -6.35 7.75 -6.1 Q7.55 2.5 7.65 11.1 L-0.05 11.9 -1.6 12.1 Q-5.2 13.1 -7.85 11.55 L-8.2 10.3 Q-9.15 0.8 -8.6 -8.55 L-8.45 -8.85 -8.4 -9.1 -0.9 -11.2 Q4.0 -12.45 8.05 -10.35 L7.95 -10.1 7.9 -9.8 M9.4 -10.85 L9.45 -10.95 8.6 -11.8 8.3 -11.65 8.1 -11.6 7.75 -11.5 6.45 -11.95 Q-1.5 -13.25 -9.2 -10.15 L-9.2 -10.1 -9.4 -9.95 -9.5 -9.9 -9.6 -9.7 -9.55 -9.4 -9.5 -9.2 -9.5 -8.9 -9.7 -8.6 Q-10.25 -1.45 -9.3 5.8 L-8.55 13.0 Q-7.85 13.55 -6.95 13.55 1.15 13.6 8.85 12.3 8.75 6.0 9.15 -0.4 L9.15 -5.5 9.15 -8.0 9.3 -8.35 9.2 -9.45 9.15 -9.7 9.3 -10.25 9.4 -10.85" fill="#555555" fill-rule="evenodd" stroke="none"/>
  </g>
</svg>
