<?xml version="1.0" encoding="UTF-8" standalone="no"?>
<svg xmlns:xlink="http://www.w3.org/1999/xlink" height="37.35px" width="32.1px" xmlns="http://www.w3.org/2000/svg">
  <g transform="matrix(1.0, 0.0, 0.0, 1.0, 16.05, 18.7)">
    <path d="M6.1 -9.9 L8.35 -13.85 11.6 -13.3 11.1 -12.7 10.85 -11.2 6.1 -9.9 M0.95 -9.3 L-3.45 -9.3 -5.4 -14.65 -4.2 -14.85 0.95 -9.3" fill="#d5d5d5" fill-rule="evenodd" stroke="none"/>
    <path d="M10.85 -11.2 L11.1 -12.7 11.6 -13.3 8.35 -13.85 6.1 -9.9 4.25 -5.4 5.75 -4.85 8.85 -7.55 9.65 -7.55 10.85 -11.2 M11.85 -13.25 L9.2 -1.3 8.85 -1.15 8.9 -1.15 9.05 -1.0 8.95 -0.2 9.0 0.05 7.5 6.7 Q8.85 5.2 9.65 3.25 L10.75 0.25 12.3 -5.25 14.05 -11.4 14.05 -12.6 11.85 -13.25 M16.05 -12.95 Q15.55 -9.6 14.6 -6.35 13.5 -2.7 12.9 1.0 12.3 4.5 12.35 8.05 L12.65 11.55 13.25 15.05 9.0 15.15 Q8.4 14.65 7.65 14.45 L7.0 15.05 6.85 15.2 6.8 15.3 6.75 15.4 6.3 15.5 6.05 15.4 5.1 14.3 2.9 13.95 1.6 15.15 1.25 15.3 -0.75 14.1 -4.3 15.3 -4.6 15.2 -5.5 15.5 -7.8 16.3 -13.9 18.5 -15.25 18.45 -15.7 18.1 -15.7 16.8 -16.0 16.3 -16.05 16.25 Q-15.45 13.95 -15.05 9.05 L-14.65 3.0 -14.55 0.75 -14.25 -2.35 -14.15 -4.7 -14.25 -13.35 -13.7 -14.0 -5.0 -16.65 -4.55 -18.1 2.15 -18.65 Q5.05 -18.5 7.45 -16.95 L9.0 -15.85 11.05 -15.45 Q13.8 -14.8 16.05 -12.95 M6.1 -16.55 L-3.3 -16.65 -3.25 -16.3 -2.9 -15.65 2.15 -9.15 3.65 -7.4 7.55 -14.7 6.1 -16.55 M-3.45 -9.3 L-1.65 -6.05 -0.55 -7.1 2.95 -4.9 3.75 -5.3 3.7 -6.2 3.25 -6.35 0.95 -9.3 -4.2 -14.85 -5.4 -14.65 -3.45 -9.3 M3.15 -3.1 L3.95 -2.55 4.55 -2.7 Q5.85 -4.0 4.15 -4.65 2.9 -4.35 3.15 -3.1 M0.75 -5.35 L0.55 -5.5 0.0 -5.55 0.05 -1.7 Q0.75 -1.55 1.35 -2.2 L2.25 -3.9 0.95 -5.2 0.75 -5.35 M0.35 -0.8 L0.3 -0.15 2.5 7.45 2.6 7.75 3.4 7.8 Q2.9 7.35 3.2 6.55 L3.45 6.25 3.8 6.05 3.75 4.2 3.1 3.75 3.1 3.3 3.1 2.9 3.75 2.4 3.7 1.25 3.7 0.45 3.4 0.25 Q3.1 -0.05 3.1 -0.4 L3.4 -1.0 3.75 -1.25 3.75 -1.4 2.85 -2.0 1.95 -1.2 1.45 -1.45 1.2 -1.4 0.75 -0.95 0.5 -0.85 0.35 -0.8 M4.15 -1.25 L4.65 -1.0 4.9 -0.4 4.65 0.25 4.2 0.5 4.25 2.45 4.35 2.5 4.5 2.6 4.8 3.6 4.75 3.85 4.3 4.2 4.35 5.8 4.35 6.1 Q5.25 6.4 4.7 7.5 L4.5 7.85 6.3 7.95 7.55 3.05 8.0 0.7 8.15 -0.05 8.15 -0.2 Q8.1 -1.45 7.3 -1.05 L7.35 -1.3 5.75 -2.3 5.0 -1.65 Q4.55 -1.4 4.15 -1.4 L4.15 -1.25 M8.2 -5.65 L6.4 -4.1 6.4 -3.35 Q6.55 -2.75 7.1 -2.4 8.45 -1.5 8.65 -3.0 L8.75 -3.45 Q9.3 -4.9 8.2 -5.65 M10.4 7.85 Q9.3 10.65 9.35 13.5 L10.15 13.8 11.55 13.3 10.75 7.6 Q10.6 7.4 10.4 7.85 M4.15 8.75 L4.1 8.7 2.95 8.6 3.85 11.9 3.85 12.05 3.95 12.15 4.05 12.3 4.1 12.5 5.5 12.8 6.15 8.75 4.3 8.7 4.25 8.7 4.15 8.75 M1.95 9.05 Q-2.1 5.75 -4.5 0.9 L-5.9 -2.0 Q-7.8 -6.3 -7.85 -11.1 L-8.2 -11.65 -8.05 -14.0 -11.55 -12.55 -10.65 -9.4 -8.75 -2.05 -7.6 1.6 -5.5 6.3 -2.0 12.4 1.15 14.15 1.3 14.2 2.65 13.1 2.95 12.55 2.25 9.7 2.25 9.55 2.15 9.45 2.05 9.3 2.05 9.15 1.95 9.05 M9.4 7.4 L9.6 6.7 9.2 7.2 8.75 7.65 7.05 9.1 6.85 9.95 6.25 13.15 5.85 13.85 6.25 14.25 6.35 14.4 6.45 14.45 6.6 14.4 6.65 14.3 6.75 14.15 7.05 14.0 8.35 10.3 9.25 7.95 9.4 7.4 M-7.0 -14.3 L-7.7 -14.1 Q-6.95 -6.75 -3.85 -0.15 L-1.75 3.6 -0.95 4.6 1.4 7.1 Q0.45 4.4 -0.05 1.6 L-0.05 1.45 -0.6 -0.4 -1.0 -0.5 -4.15 -7.3 -7.0 -14.3 M-13.5 -2.6 L-13.85 1.6 -14.25 16.3 -14.2 16.5 -3.2 13.15 -3.65 11.9 -5.5 7.9 -8.35 1.6 -9.95 -2.95 -11.15 -7.75 -12.05 -12.65 -13.25 -12.1 Q-13.0 -7.25 -13.5 -2.6 M-8.35 10.65 L-8.15 10.6 -8.3 10.5 -9.8 9.45 -10.8 11.25 -8.35 10.65 M-10.1 8.6 L-7.05 11.3 -8.15 11.3 -11.15 11.9 -12.0 11.8 -11.55 11.45 -10.1 8.6" fill="#000000" fill-rule="evenodd" stroke="none"/>
    <path d="M11.85 -13.25 L14.05 -12.6 14.05 -11.4 12.3 -5.25 10.75 0.25 9.65 3.25 Q8.85 5.2 7.5 6.7 L9.0 0.05 8.95 -0.2 9.05 -1.0 8.9 -1.15 8.85 -1.15 9.2 -1.3 11.85 -13.25 M4.15 8.75 L4.25 8.7 4.3 8.7 6.15 8.75 5.5 12.8 4.1 12.5 4.05 12.3 3.95 12.15 3.85 12.05 3.85 11.9 2.95 8.6 4.1 8.7 4.15 8.75 M-7.0 -14.3 L-4.15 -7.3 -1.0 -0.5 -0.6 -0.4 -0.05 1.45 -0.05 1.6 Q0.45 4.4 1.4 7.1 L-0.95 4.6 -1.75 3.6 -3.85 -0.15 Q-6.95 -6.75 -7.7 -14.1 L-7.0 -14.3" fill="#555555" fill-rule="evenodd" stroke="none"/>
    <path d="M6.1 -16.55 L7.55 -14.7 3.65 -7.4 2.15 -9.15 -2.9 -15.65 -3.25 -16.3 -3.3 -16.65 6.1 -16.55" fill="#999999" fill-rule="evenodd" stroke="none"/>
    <path d="M6.1 -9.9 L10.85 -11.2 9.65 -7.55 8.85 -7.55 5.75 -4.85 4.25 -5.4 6.1 -9.9 M0.95 -9.3 L3.25 -6.35 3.7 -6.2 3.75 -5.3 2.95 -4.9 -0.55 -7.1 -1.65 -6.05 -3.45 -9.3 0.95 -9.3 M0.35 -0.8 L0.5 -0.85 0.75 -0.95 1.2 -1.4 1.45 -1.45 1.95 -1.2 2.85 -2.0 3.75 -1.4 3.75 -1.25 3.4 -1.0 3.1 -0.4 Q3.1 -0.05 3.4 0.25 L3.7 0.45 3.7 1.25 3.75 2.4 3.1 2.9 3.1 3.3 3.1 3.75 3.75 4.2 3.8 6.05 3.45 6.25 3.2 6.55 Q2.9 7.35 3.4 7.8 L2.6 7.75 2.5 7.45 0.3 -0.15 0.35 -0.8 M4.15 -1.25 L4.15 -1.4 Q4.55 -1.4 5.0 -1.65 L5.75 -2.3 7.35 -1.3 7.3 -1.05 Q8.1 -1.45 8.15 -0.2 L8.15 -0.05 8.0 0.7 7.55 3.05 6.3 7.95 4.5 7.85 4.7 7.5 Q5.25 6.4 4.35 6.1 L4.35 5.8 4.3 4.2 4.75 3.85 4.8 3.6 4.5 2.6 4.35 2.5 4.25 2.45 4.2 0.5 4.65 0.25 4.9 -0.4 4.65 -1.0 4.15 -1.25" fill="#ffffff" fill-rule="evenodd" stroke="none"/>
    <path d="M10.4 7.85 Q10.6 7.4 10.75 7.6 L11.55 13.3 10.15 13.8 9.35 13.5 Q9.3 10.65 10.4 7.85 M9.4 7.4 L9.25 7.95 8.35 10.3 7.05 14.0 6.75 14.15 6.65 14.3 6.6 14.4 6.45 14.45 6.35 14.4 6.25 14.25 5.85 13.85 6.25 13.15 6.85 9.95 7.05 9.1 8.75 7.65 9.2 7.2 9.6 6.7 9.4 7.4 M1.95 9.05 L2.05 9.15 2.05 9.3 2.15 9.45 2.25 9.55 2.25 9.7 2.95 12.55 2.65 13.1 1.3 14.2 1.15 14.15 -2.0 12.4 -5.5 6.3 -7.6 1.6 -8.75 -2.05 -10.65 -9.4 -11.55 -12.55 -8.05 -14.0 -8.2 -11.65 -7.85 -11.1 Q-7.8 -6.3 -5.9 -2.0 L-4.5 0.9 Q-2.1 5.75 1.95 9.05 M-13.5 -2.6 Q-13.0 -7.25 -13.25 -12.1 L-12.05 -12.65 -11.15 -7.75 -9.95 -2.95 -8.35 1.6 -5.5 7.9 -3.65 11.9 -3.2 13.15 -14.2 16.5 -14.25 16.3 -13.85 1.6 -13.5 -2.6 M-8.35 10.65 L-8.3 10.5 -8.15 10.6 -8.35 10.65 M-10.1 8.6 L-11.55 11.45 -12.0 11.8 -11.15 11.9 -8.15 11.3 -7.05 11.3 -10.1 8.6" fill="#2d2d2d" fill-rule="evenodd" stroke="none"/>
    <path d="M0.75 -5.35 L0.95 -5.2 2.25 -3.9 1.35 -2.2 Q0.75 -1.55 0.05 -1.7 L0.0 -5.55 0.55 -5.5 0.75 -5.35 M3.15 -3.1 Q2.9 -4.35 4.15 -4.65 5.85 -4.0 4.55 -2.7 L3.95 -2.55 3.15 -3.1 M8.2 -5.65 Q9.3 -4.9 8.75 -3.45 L8.65 -3.0 Q8.45 -1.5 7.1 -2.4 6.55 -2.75 6.4 -3.35 L6.4 -4.1 8.2 -5.65 M-8.3 10.5 L-8.35 10.65 -10.8 11.25 -9.8 9.45 -8.3 10.5" fill="#ff3300" fill-rule="evenodd" stroke="none"/>
  </g>
</svg>
