<?xml version="1.0" encoding="UTF-8" standalone="no"?>
<svg xmlns:xlink="http://www.w3.org/1999/xlink" height="46.2px" width="34.7px" xmlns="http://www.w3.org/2000/svg">
  <g transform="matrix(1.0, 0.0, 0.0, 1.0, 18.45, 22.7)">
    <path d="M10.9 -17.1 L11.4 -16.45 Q14.3 -15.9 16.25 -13.65 L15.8 -6.65 Q15.15 -1.7 13.5 2.9 12.05 7.1 9.4 10.7 L5.8 15.65 Q1.4 21.65 -5.6 23.5 L-6.05 22.85 -5.45 20.3 -13.1 20.65 Q-15.5 22.7 -18.45 22.15 L-17.75 20.6 Q-16.5 18.25 -16.2 15.75 L-15.9 15.3 -15.9 14.7 -15.85 13.85 Q-15.75 9.5 -15.3 5.1 L-14.3 -2.95 -13.75 -6.15 -12.85 -11.3 -7.55 -16.7 -7.95 -17.75 -7.95 -18.4 -7.55 -18.8 -7.45 -19.65 -6.25 -20.55 Q-2.5 -22.7 1.75 -22.65 4.6 -22.9 7.05 -21.8 L9.45 -20.75 Q10.75 -20.15 10.9 -19.05 L10.9 -17.1 M14.9 -12.7 L13.3 -14.2 10.05 -15.25 9.9 -16.35 Q6.0 -18.85 1.5 -18.8 -3.15 -19.1 -6.5 -16.1 L-6.95 -15.95 -11.75 -10.45 -12.35 -7.05 -13.9 3.15 Q-14.4 6.1 -14.35 9.05 -14.25 15.25 -16.5 20.85 -12.6 19.05 -9.75 15.9 -6.95 12.65 -5.95 8.3 -5.4 6.0 -4.4 3.7 -4.05 2.95 -3.9 3.5 L-4.7 7.95 -4.6 12.5 -4.25 19.2 Q-4.2 19.85 -4.45 20.5 -4.8 21.55 -4.25 21.85 L-3.35 21.4 Q0.9 18.9 4.1 15.5 9.3 10.05 11.85 3.05 L11.85 2.6 12.1 2.2 12.1 1.75 12.4 1.35 12.4 0.9 13.55 -3.35 13.7 -3.8 Q15.1 -8.15 14.9 -12.7 M8.45 -19.8 L6.7 -20.7 Q0.35 -22.6 -5.7 -19.75 L-6.55 -18.25 -6.5 -18.05 Q-1.55 -20.4 3.95 -19.6 5.95 -19.1 7.6 -18.0 L10.05 -18.05 9.95 -18.35 8.45 -19.8 M-5.4 13.7 L-5.75 13.25 -5.85 10.3 Q-7.45 15.6 -11.55 19.25 -8.55 18.4 -5.4 19.35 L-5.4 13.7" fill="#000000" fill-rule="evenodd" stroke="none"/>
    <path d="M14.9 -12.7 Q15.1 -8.15 13.7 -3.8 L13.55 -3.35 12.4 0.9 12.4 1.35 12.1 1.75 12.1 2.2 11.85 2.6 11.85 3.05 Q9.3 10.05 4.1 15.5 0.9 18.9 -3.35 21.4 L-4.25 21.85 Q-4.8 21.55 -4.45 20.5 -4.2 19.85 -4.25 19.2 L-4.6 12.5 -4.7 7.95 -3.9 3.5 Q-4.05 2.95 -4.4 3.7 -5.4 6.0 -5.95 8.3 -6.95 12.65 -9.75 15.9 -12.6 19.05 -16.5 20.85 -14.25 15.25 -14.35 9.05 -14.4 6.1 -13.9 3.15 L-12.35 -7.05 -11.75 -10.45 -6.95 -15.95 -6.5 -16.1 Q-3.15 -19.1 1.5 -18.8 6.0 -18.85 9.9 -16.35 L10.05 -15.25 13.3 -14.2 14.9 -12.7 M-5.4 13.7 L-5.4 19.35 Q-8.55 18.4 -11.55 19.25 -7.45 15.6 -5.85 10.3 L-5.75 13.25 -5.4 13.7" fill="#2d2d2d" fill-rule="evenodd" stroke="none"/>
    <path d="M8.45 -19.8 L9.95 -18.35 10.05 -18.05 7.6 -18.0 Q5.95 -19.1 3.95 -19.6 -1.55 -20.4 -6.5 -18.05 L-6.55 -18.25 -5.7 -19.75 Q0.35 -22.6 6.7 -20.7 L8.45 -19.8" fill="#ffffff" fill-rule="evenodd" stroke="none"/>
  </g>
</svg>
