<?xml version="1.0" encoding="UTF-8" standalone="no"?>
<svg xmlns:xlink="http://www.w3.org/1999/xlink" height="56.25px" width="43.05px" xmlns="http://www.w3.org/2000/svg">
  <g transform="matrix(1.0, 0.0, 0.0, 1.0, 21.7, 44.7)">
    <path d="M21.0 -42.65 L20.85 -41.3 21.1 -40.85 21.35 -40.35 20.3 -6.05 20.3 -5.95 20.2 -1.75 20.55 -1.4 20.2 -1.25 20.1 -1.25 19.5 2.0 19.45 2.45 19.25 2.55 19.25 2.6 19.1 2.6 Q10.5 8.05 0.8 11.55 -11.05 4.95 -21.35 -3.45 L-21.4 -3.45 -21.4 -3.5 -21.7 -3.75 -21.45 -3.9 Q-21.7 -5.65 -21.2 -7.55 L-21.65 -7.45 Q-14.6 -31.35 9.85 -40.85 L17.05 -43.65 19.2 -44.7 20.8 -44.55 Q21.2 -43.7 21.0 -42.65 M15.95 1.6 L17.6 1.65 17.95 1.4 Q18.4 -2.2 19.45 -5.6 19.95 -20.65 19.95 -35.55 L20.1 -39.75 19.9 -40.2 19.55 -40.7 19.65 -41.6 19.75 -43.0 16.5 -42.1 Q6.4 -39.05 -2.45 -32.5 L-6.5 -29.25 Q-16.15 -21.0 -19.3 -9.45 L-20.25 -8.5 -20.45 -8.25 Q-20.05 -6.45 -20.35 -4.35 L-20.4 -4.1 Q-13.4 1.4 -5.8 5.95 0.2 8.0 6.6 7.55 11.35 5.75 15.8 2.85 6.9 3.5 -2.15 3.2 L-2.4 2.95 -2.55 2.75 -10.65 1.85 Q-10.6 1.05 -11.0 0.35 L-10.8 0.3 -10.7 0.3 -10.15 0.8 -10.0 1.05 Q-4.15 2.75 2.15 1.75 L2.65 1.65 Q8.35 2.55 13.75 1.5 L15.95 1.6 M4.95 8.15 Q0.35 8.5 -3.8 7.15 L0.35 9.4 4.95 8.15" fill="#000000" fill-rule="evenodd" stroke="none"/>
    <path d="M-2.45 -32.5 Q6.4 -39.05 16.5 -42.1 L19.75 -43.0 19.65 -41.6 19.55 -40.7 19.9 -40.2 20.1 -39.75 19.95 -35.55 Q19.95 -20.65 19.45 -5.6 18.4 -2.2 17.95 1.4 L17.6 1.65 15.95 1.6 16.45 -33.85 16.5 -38.75 13.85 -37.9 Q5.6 -35.55 -2.45 -32.5" fill="#6a6a6a" fill-rule="evenodd" stroke="none"/>
    <path d="M-2.45 -32.5 Q5.6 -35.55 13.85 -37.9 L16.5 -38.75 16.45 -33.85 15.95 1.6 13.75 1.5 Q8.35 2.55 2.65 1.65 L2.15 1.75 Q-4.15 2.75 -10.0 1.05 L-10.15 0.8 -10.7 0.3 -10.8 0.3 -11.0 0.35 Q-10.6 1.05 -10.65 1.85 L-2.55 2.75 -2.4 2.95 -2.15 3.2 Q6.9 3.5 15.8 2.85 11.35 5.75 6.6 7.55 0.2 8.0 -5.8 5.95 -13.4 1.4 -20.4 -4.1 L-20.35 -4.35 Q-20.05 -6.45 -20.45 -8.25 L-20.25 -8.5 -19.3 -9.45 Q-16.15 -21.0 -6.5 -29.25 L-2.45 -32.5 M4.95 8.15 L0.35 9.4 -3.8 7.15 Q0.35 8.5 4.95 8.15" fill="#555555" fill-rule="evenodd" stroke="none"/>
  </g>
</svg>
