<?xml version="1.0" encoding="UTF-8" standalone="no"?>
<svg xmlns:xlink="http://www.w3.org/1999/xlink" height="70.55px" width="38.95px" xmlns="http://www.w3.org/2000/svg">
  <g transform="matrix(1.0, 0.0, 0.0, 1.0, 19.3, 44.55)">
    <path d="M-0.55 -43.65 L-0.25 -43.85 -0.15 -43.85 Q2.75 -38.0 5.35 -31.8 L10.4 -19.5 12.8 -13.05 Q14.95 -6.7 17.35 -0.45 18.75 3.25 19.6 6.95 19.75 7.55 19.5 8.15 L19.35 8.25 Q19.45 10.65 18.45 13.1 17.3 15.95 15.7 18.6 14.1 21.25 11.95 23.45 L11.65 23.75 11.55 24.15 Q10.4 24.65 10.15 25.9 L10.05 26.0 Q-1.9 24.65 -13.85 21.55 -15.75 21.05 -17.25 20.05 L-17.55 20.0 -18.6 18.65 -18.6 18.35 Q-18.6 17.55 -18.85 17.0 -19.6 6.45 -19.15 -4.15 L-18.7 -8.05 -18.35 -8.15 Q-13.5 -18.8 -8.8 -29.65 -5.45 -37.35 -1.25 -44.45 L-0.85 -44.55 -0.65 -44.55 -0.35 -44.25 -0.6 -43.65 -2.85 -38.35 -9.9 -22.7 Q-13.45 -14.9 -17.4 -7.25 L-18.1 -6.6 -18.05 -3.9 Q-17.9 5.65 -17.05 15.25 L-17.05 17.7 -15.0 18.9 Q-6.55 20.75 2.3 20.4 L13.3 19.45 Q15.85 16.0 17.15 11.75 L17.3 11.25 17.35 11.2 17.3 11.2 16.95 11.2 -5.8 10.25 13.85 9.35 16.4 9.55 17.75 9.75 18.4 7.4 14.6 -4.2 9.95 -16.4 4.8 -28.85 Q2.2 -35.05 -0.1 -41.4 L-0.55 -43.65 M11.2 20.75 L5.1 21.15 Q-1.2 21.6 -7.4 21.2 L5.25 23.55 8.9 24.35 9.55 23.95 9.55 23.6 9.6 23.4 12.45 20.55 11.2 20.75 M9.5 24.25 L9.25 24.45 9.4 24.5 9.5 24.25" fill="#000000" fill-rule="evenodd" stroke="none"/>
    <path d="M-0.55 -43.65 L-0.1 -41.4 Q2.2 -35.05 4.8 -28.85 L9.95 -16.4 14.6 -4.2 18.4 7.4 17.75 9.75 16.4 9.55 9.35 -9.9 Q5.05 -21.15 0.05 -32.05 L-1.65 -35.75 -8.9 -21.55 Q-12.6 -13.7 -16.85 -6.1 L-18.05 -3.9 -18.1 -6.6 -17.4 -7.25 Q-13.45 -14.9 -9.9 -22.7 L-2.85 -38.35 -0.6 -43.65 -0.55 -43.65 M16.95 11.2 L17.3 11.2 17.3 11.25 17.15 11.75 16.95 11.2" fill="#6a6a6a" fill-rule="evenodd" stroke="none"/>
    <path d="M16.4 9.55 L13.85 9.35 -5.8 10.25 16.95 11.2 17.15 11.75 Q15.85 16.0 13.3 19.45 L2.3 20.4 Q-6.55 20.75 -15.0 18.9 L-17.05 17.7 -17.05 15.25 Q-17.9 5.65 -18.05 -3.9 L-16.85 -6.1 Q-12.6 -13.7 -8.9 -21.55 L-1.65 -35.75 0.05 -32.05 Q5.05 -21.15 9.35 -9.9 L16.4 9.55 M5.2 16.5 L5.15 17.05 Q5.1 17.6 5.4 17.95 L7.2 17.85 7.35 17.25 7.3 16.4 7.0 16.1 6.3 15.6 5.95 15.75 Q5.5 16.05 5.2 16.5 M11.55 15.7 L11.4 16.3 Q11.3 16.75 11.45 17.2 11.9 17.8 12.65 17.95 L13.1 17.7 13.35 17.45 13.45 17.15 Q13.65 16.35 13.15 15.7 L12.65 15.5 12.25 15.4 12.25 15.45 11.85 15.55 11.55 15.7 M11.2 20.75 L12.45 20.55 9.6 23.4 9.55 23.6 9.55 23.95 8.9 24.35 5.25 23.55 -7.4 21.2 Q-1.2 21.6 5.1 21.15 L11.2 20.75 M-5.1 15.7 L-5.6 15.55 -6.0 15.5 -6.35 15.65 Q-6.95 16.0 -6.9 16.7 -5.95 18.2 -4.8 16.9 L-4.8 16.6 -5.1 15.7 M-0.45 16.0 L-0.95 16.35 Q-1.3 16.9 -1.05 17.45 L-0.65 17.8 0.05 18.35 0.75 18.25 1.0 17.95 1.35 17.35 1.15 17.05 Q0.75 15.95 -0.45 16.0" fill="#555555" fill-rule="evenodd" stroke="none"/>
    <path d="M11.55 15.7 L11.85 15.55 12.25 15.45 12.25 15.4 12.65 15.5 13.15 15.7 Q13.65 16.35 13.45 17.15 L13.35 17.45 13.1 17.7 12.65 17.95 Q11.9 17.8 11.45 17.2 11.3 16.75 11.4 16.3 L11.55 15.7 M5.2 16.5 Q5.5 16.05 5.95 15.75 L6.3 15.6 7.0 16.1 7.3 16.4 7.35 17.25 7.2 17.85 5.4 17.95 Q5.1 17.6 5.15 17.05 L5.2 16.5 M-0.45 16.0 Q0.75 15.95 1.15 17.05 L1.35 17.35 1.0 17.95 0.75 18.25 0.05 18.35 -0.65 17.8 -1.05 17.45 Q-1.3 16.9 -0.95 16.35 L-0.45 16.0 M-5.1 15.7 L-4.8 16.6 -4.8 16.9 Q-5.95 18.2 -6.9 16.7 -6.95 16.0 -6.35 15.65 L-6.0 15.5 -5.6 15.55 -5.1 15.7" fill="#2d2d2d" fill-rule="evenodd" stroke="none"/>
  </g>
</svg>
