<?xml version="1.0" encoding="UTF-8" standalone="no"?>
<svg xmlns:xlink="http://www.w3.org/1999/xlink" height="69.95px" width="40.0px" xmlns="http://www.w3.org/2000/svg">
  <g transform="matrix(1.0, 0.0, 0.0, 1.0, 17.5, 61.5)">
    <path d="M4.15 -61.35 L4.4 -60.5 Q6.15 -55.15 8.35 -49.75 L18.95 -22.85 20.45 -18.9 20.7 -18.2 22.45 -13.7 22.5 -13.1 Q21.5 -8.15 19.4 -3.65 18.2 -1.0 16.1 1.25 12.9 4.75 9.0 7.65 L8.65 8.45 3.35 6.85 Q0.6 5.9 -1.95 4.55 L-10.65 -0.4 Q-14.6 -2.7 -17.15 -5.85 -17.15 -11.55 -17.45 -17.2 L-17.45 -18.9 Q-17.35 -20.65 -16.85 -22.65 L-16.8 -22.85 -16.35 -24.05 -14.65 -27.45 -10.35 -36.0 Q-4.0 -49.15 3.7 -61.5 L4.15 -61.35 M18.25 -7.7 L19.55 -7.7 20.15 -7.45 21.25 -11.2 21.3 -11.25 Q20.6 -14.1 19.55 -16.75 L18.7 -18.9 17.2 -22.85 15.1 -28.6 11.8 -37.5 8.4 -46.3 5.9 -52.95 4.7 -56.05 3.45 -58.5 2.2 -56.6 -2.6 -48.0 -7.15 -39.2 -15.25 -22.85 -15.35 -22.7 -15.0 -22.0 -15.5 -18.1 Q-16.1 -12.35 -15.95 -6.5 -10.6 -0.2 -2.1 1.55 L0.65 2.0 Q8.2 2.9 14.5 0.15 L15.8 -1.1 15.5 -1.45 Q16.35 -1.45 17.0 -1.85 17.6 -2.25 17.6 -2.85 L19.2 -4.8 19.6 -5.8 19.5 -5.85 19.3 -5.95 19.0 -5.85 18.85 -5.9 18.7 -5.95 18.3 -5.65 5.9 -6.4 -8.65 -7.05 -8.7 -7.2 -8.55 -7.25 -8.5 -7.25 3.4 -7.8 18.25 -7.7 M11.6 3.0 L8.55 3.65 Q2.35 4.45 -3.45 2.7 1.9 5.75 7.7 6.85 L11.6 3.0" fill="#000000" fill-rule="evenodd" stroke="none"/>
    <path d="M18.25 -7.7 L2.75 -53.15 3.05 -52.2 -3.45 -40.95 -8.85 -31.2 -13.15 -22.85 -13.95 -21.3 -15.1 -18.9 -15.5 -18.1 -15.0 -22.0 -15.35 -22.7 -15.25 -22.85 -7.15 -39.2 -2.6 -48.0 2.2 -56.6 3.45 -58.5 4.7 -56.05 5.9 -52.95 8.4 -46.3 11.8 -37.5 15.1 -28.6 17.2 -22.85 18.7 -18.9 19.55 -16.75 Q20.6 -14.1 21.3 -11.25 L21.25 -11.2 20.15 -7.45 19.55 -7.7 18.25 -7.7" fill="#6a6a6a" fill-rule="evenodd" stroke="none"/>
    <path d="M15.5 -1.45 Q15.5 -2.05 16.15 -2.45 16.75 -2.85 17.6 -2.85 17.6 -2.25 17.0 -1.85 16.35 -1.45 15.5 -1.45 M11.85 -2.6 L12.2 -2.65 13.05 -1.9 13.15 -1.65 Q13.0 -0.75 12.2 -0.6 11.15 -0.6 10.95 -1.65 11.05 -2.4 11.85 -2.6 M4.4 -1.6 Q4.4 -2.2 4.7 -2.65 L5.45 -3.1 Q5.9 -3.1 6.2 -2.65 L6.5 -1.6 6.2 -0.55 Q5.9 -0.1 5.45 -0.1 L4.7 -0.55 Q4.4 -1.0 4.4 -1.6 M0.2 -2.4 L0.5 -1.6 0.2 -0.75 Q-0.15 -0.45 -0.6 -0.45 -1.05 -0.45 -1.35 -0.75 -1.7 -1.1 -1.7 -1.6 -1.7 -2.1 -1.35 -2.4 L-0.6 -2.75 Q-0.15 -2.75 0.2 -2.4 M-5.65 -3.7 L-5.2 -3.5 Q-4.95 -2.95 -5.0 -2.4 L-5.1 -2.1 Q-5.75 -1.2 -6.9 -1.8 -7.2 -2.15 -7.1 -2.65 L-7.05 -2.95 Q-6.45 -3.6 -5.65 -3.7" fill="#2d2d2d" fill-rule="evenodd" stroke="none"/>
    <path d="M-15.5 -18.1 L-15.1 -18.9 -13.95 -21.3 -13.15 -22.85 -8.85 -31.2 -3.45 -40.95 3.05 -52.2 2.75 -53.15 18.25 -7.7 3.4 -7.8 -8.5 -7.25 -8.55 -7.25 -8.7 -7.2 -8.65 -7.05 5.9 -6.4 18.3 -5.65 18.7 -5.95 18.85 -5.9 19.2 -4.8 17.6 -2.85 Q16.75 -2.85 16.15 -2.45 15.5 -2.05 15.5 -1.45 L15.8 -1.1 14.5 0.15 Q8.2 2.9 0.65 2.0 L-2.1 1.55 Q-10.6 -0.2 -15.95 -6.5 -16.1 -12.35 -15.5 -18.1 M0.2 -2.4 Q-0.15 -2.75 -0.6 -2.75 L-1.35 -2.4 Q-1.7 -2.1 -1.7 -1.6 -1.7 -1.1 -1.35 -0.75 -1.05 -0.45 -0.6 -0.45 -0.15 -0.45 0.2 -0.75 L0.5 -1.6 0.2 -2.4 M4.4 -1.6 Q4.4 -1.0 4.7 -0.55 L5.45 -0.1 Q5.9 -0.1 6.2 -0.55 L6.5 -1.6 6.2 -2.65 Q5.9 -3.1 5.45 -3.1 L4.7 -2.65 Q4.4 -2.2 4.4 -1.6 M11.85 -2.6 Q11.05 -2.4 10.95 -1.65 11.15 -0.6 12.2 -0.6 13.0 -0.75 13.15 -1.65 L13.05 -1.9 12.2 -2.65 11.85 -2.6 M11.6 3.0 L7.7 6.85 Q1.9 5.75 -3.45 2.7 2.35 4.45 8.55 3.65 L11.6 3.0 M-5.65 -3.7 Q-6.45 -3.6 -7.05 -2.95 L-7.1 -2.65 Q-7.2 -2.15 -6.9 -1.8 -5.75 -1.2 -5.1 -2.1 L-5.0 -2.4 Q-4.95 -2.95 -5.2 -3.5 L-5.65 -3.7" fill="#555555" fill-rule="evenodd" stroke="none"/>
    <path d="M19.2 -4.8 L18.85 -5.9 19.0 -5.85 19.3 -5.95 19.5 -5.85 19.6 -5.8 19.2 -4.8" fill="#606060" fill-rule="evenodd" stroke="none"/>
  </g>
</svg>
