<?xml version="1.0" encoding="UTF-8" standalone="no"?>
<svg xmlns:xlink="http://www.w3.org/1999/xlink" height="68.7px" width="39.85px" xmlns="http://www.w3.org/2000/svg">
  <g transform="matrix(1.0, 0.0, 0.0, 1.0, 19.9, 41.85)">
    <path d="M17.95 3.15 L17.6 2.35 16.6 -0.05 15.95 -1.6 12.25 -9.95 7.55 -19.7 2.85 -29.05 Q1.9 -31.6 0.1 -33.25 L-2.15 -30.35 -7.5 -19.7 -12.2 -9.95 -15.95 -1.6 -16.6 -0.05 -17.6 2.35 -17.9 3.15 -17.7 -0.75 -18.1 -1.45 -18.05 -1.6 -11.1 -17.95 -7.2 -26.75 -3.8 -33.8 -2.95 -35.1 -2.05 -36.65 -1.3 -37.75 Q-0.3 -39.1 0.05 -40.45 1.35 -37.8 2.8 -35.25 L4.5 -32.5 7.2 -26.75 11.1 -17.95 18.05 -1.6 18.1 -1.45 17.7 -0.75 17.95 3.15" fill="#6a6a6a" fill-rule="evenodd" stroke="none"/>
    <path d="M17.95 3.15 L17.7 -0.75 18.1 -1.45 18.05 -1.6 11.1 -17.95 7.2 -26.75 4.5 -32.5 2.8 -35.25 Q1.35 -37.8 0.05 -40.45 -0.3 -39.1 -1.3 -37.75 L-2.05 -36.65 -2.95 -35.1 -3.8 -33.8 -7.2 -26.75 -11.1 -17.95 -18.05 -1.6 -18.1 -1.45 -17.7 -0.75 -17.9 3.15 Q-18.1 8.9 -17.5 14.75 -14.75 17.75 -11.35 19.75 L-11.2 20.25 -10.9 20.45 -10.6 20.6 -10.3 20.55 -10.0 20.45 Q-6.8 22.05 -3.05 22.8 L-2.85 22.85 -2.8 22.8 -2.45 22.7 -1.05 22.8 1.05 22.9 2.25 22.95 3.1 22.8 Q6.5 22.1 9.5 20.7 L10.1 20.75 10.25 20.6 10.55 20.15 Q14.45 18.1 17.55 14.75 18.1 8.9 17.95 3.15 M3.35 -36.95 L3.4 -37.45 Q9.3 -26.45 14.1 -14.75 L17.75 -6.2 19.2 -2.8 19.6 -1.6 19.6 -1.4 19.95 2.35 19.8 4.05 Q19.1 9.7 18.7 15.4 15.9 18.55 11.8 20.85 L2.75 25.8 1.6 26.4 1.55 26.4 1.45 26.6 -1.05 26.5 -1.05 26.6 -2.7 25.8 -11.75 20.85 Q-15.9 18.55 -18.65 15.4 -19.1 9.7 -19.8 4.05 L-19.9 2.35 Q-19.95 0.6 -19.6 -1.4 L-19.55 -1.6 -19.2 -2.8 -17.75 -6.2 -14.05 -14.75 Q-10.25 -24.1 -5.7 -33.0 L-5.75 -33.1 -4.05 -36.2 -3.2 -37.8 -3.15 -37.7 -0.95 -41.05 -0.85 -41.25 -0.45 -41.45 -0.5 -41.6 -0.5 -41.8 -0.45 -41.85 0.45 -41.85 3.35 -36.95 M-10.95 12.95 L-1.05 13.1 1.05 13.1 3.6 13.15 16.6 13.65 10.35 14.0 10.2 14.0 10.3 14.05 10.35 14.05 10.3 14.2 1.05 14.7 1.05 14.45 -1.05 14.5 -1.05 14.7 -4.7 14.55 -11.25 14.5 Q-13.2 14.45 -14.95 13.8 L-14.95 13.6 -14.7 13.4 Q-13.3 12.85 -11.7 13.0 L-11.25 13.05 -10.95 13.0 -10.95 12.95 M1.05 25.6 L4.05 24.1 2.7 24.4 1.05 24.75 1.05 24.5 -1.05 24.25 -1.05 24.75 -4.35 23.95 -1.25 25.5 -1.05 25.45 -0.85 25.35 1.05 25.75 1.05 25.6" fill="#000000" fill-rule="evenodd" stroke="none"/>
    <path d="M-17.9 3.15 L-17.6 2.35 -16.6 -0.05 -15.95 -1.6 -12.2 -9.95 -7.5 -19.7 -2.15 -30.35 0.1 -33.25 Q1.9 -31.6 2.85 -29.05 L7.55 -19.7 12.25 -9.95 15.95 -1.6 16.6 -0.05 17.6 2.35 17.95 3.15 Q18.1 8.9 17.55 14.75 14.45 18.1 10.55 20.15 11.35 18.75 9.75 18.15 8.95 18.2 8.45 19.0 L8.45 19.4 8.5 19.85 Q8.85 20.55 9.5 20.7 6.5 22.1 3.1 22.8 L2.25 22.95 1.05 22.9 -1.05 22.8 -2.45 22.7 -2.8 22.8 -2.85 22.85 -3.05 22.8 Q-6.8 22.05 -10.0 20.45 L-9.9 20.4 -9.75 20.25 Q-9.05 19.0 -10.3 18.45 L-10.3 18.5 -10.8 18.6 -10.95 18.8 -11.35 19.2 -11.35 19.65 -11.35 19.75 Q-14.75 17.75 -17.5 14.75 -18.1 8.9 -17.9 3.15 M-10.95 12.95 L-10.95 13.0 -11.25 13.05 -11.7 13.0 Q-13.3 12.85 -14.7 13.4 L-14.95 13.6 -14.95 13.8 Q-13.2 14.45 -11.25 14.5 L-4.7 14.55 -1.05 14.7 -1.05 14.5 1.05 14.45 1.05 14.7 10.3 14.2 10.35 14.05 10.3 14.05 10.2 14.0 10.35 14.0 16.6 13.65 3.6 13.15 1.05 13.1 -1.05 13.1 -10.95 12.95 M-5.85 18.45 L-5.85 18.5 Q-6.6 18.4 -6.8 19.05 L-6.85 19.5 -6.75 20.1 Q-5.7 20.95 -4.95 19.85 L-4.95 19.65 Q-5.0 18.7 -5.85 18.45 M-0.25 18.4 L-0.55 18.45 -0.85 18.5 -0.95 18.65 -1.45 19.3 -1.45 19.7 -1.4 19.9 Q-0.55 21.35 0.7 20.6 L0.8 20.4 Q0.95 19.0 -0.25 18.4 M-1.05 25.45 L-1.25 25.5 -4.35 23.95 -1.05 24.75 -1.05 24.25 1.05 24.5 1.05 24.75 2.7 24.4 4.05 24.1 1.05 25.6 1.05 25.75 -0.85 25.35 -1.05 25.35 -1.05 25.45 M4.3 20.8 L4.75 20.95 Q5.7 20.65 6.0 19.75 L5.9 19.55 Q5.6 18.8 4.75 18.8 L4.75 18.85 4.3 18.95 4.15 19.15 4.05 19.35 4.05 19.75 Q4.0 20.35 4.3 20.8" fill="#555555" fill-rule="evenodd" stroke="none"/>
    <path d="M-11.35 19.75 L-11.35 19.65 -11.35 19.2 -10.95 18.8 -10.8 18.6 -10.3 18.5 -10.3 18.45 Q-9.05 19.0 -9.75 20.25 L-9.9 20.4 -10.0 20.45 -10.3 20.55 -10.6 20.6 -10.9 20.45 -11.2 20.25 -11.35 19.75 M9.5 20.7 Q8.85 20.55 8.5 19.85 L8.45 19.4 8.45 19.0 Q8.95 18.2 9.75 18.15 11.35 18.75 10.55 20.15 L10.25 20.6 10.1 20.75 9.5 20.7 M-0.25 18.4 Q0.95 19.0 0.8 20.4 L0.7 20.6 Q-0.55 21.35 -1.4 19.9 L-1.45 19.7 -1.45 19.3 -0.95 18.65 -0.85 18.5 -0.55 18.45 -0.25 18.4 M-5.85 18.45 Q-5.0 18.7 -4.95 19.65 L-4.95 19.85 Q-5.7 20.95 -6.75 20.1 L-6.85 19.5 -6.8 19.05 Q-6.6 18.4 -5.85 18.5 L-5.85 18.45 M4.3 20.8 Q4.0 20.35 4.05 19.75 L4.05 19.35 4.15 19.15 4.3 18.95 4.75 18.85 4.75 18.8 Q5.6 18.8 5.9 19.55 L6.0 19.75 Q5.7 20.65 4.75 20.95 L4.3 20.8" fill="#2d2d2d" fill-rule="evenodd" stroke="none"/>
  </g>
</svg>
