<?xml version="1.0" encoding="UTF-8" standalone="no"?>
<svg xmlns:xlink="http://www.w3.org/1999/xlink" height="68.7px" width="39.85px" xmlns="http://www.w3.org/2000/svg">
  <g transform="matrix(1.0, 0.0, 0.0, 1.0, 19.3, 39.7)">
    <path d="M0.15 -39.7 L1.05 -39.7 3.95 -34.8 4.0 -35.3 Q9.9 -24.3 14.7 -12.6 L18.35 -4.05 19.8 -0.65 20.2 0.55 20.2 0.75 20.55 4.5 20.4 6.2 Q19.7 11.85 19.3 17.55 16.5 20.7 12.4 23.0 L3.35 27.95 2.2 28.55 2.15 28.55 2.05 28.75 -0.45 28.65 -0.45 28.75 -2.1 27.95 -11.15 23.0 Q-14.7 21.05 -17.25 18.45 L-18.05 17.55 Q-18.5 11.85 -19.2 6.2 L-19.3 4.5 Q-19.35 2.75 -19.0 0.75 L-18.95 0.55 -18.6 -0.65 -17.15 -4.05 -13.45 -12.6 Q-9.65 -21.95 -5.1 -30.85 L-5.15 -30.95 -3.45 -34.05 -2.6 -35.65 -2.55 -35.55 -0.35 -38.9 -0.25 -39.1 0.15 -39.3 0.1 -39.45 0.1 -39.65 0.15 -39.7 M18.55 5.3 L18.3 1.4 18.7 0.7 18.65 0.55 11.7 -15.8 7.8 -24.6 5.1 -30.35 3.4 -33.1 Q1.95 -35.65 0.65 -38.3 0.3 -36.95 -0.7 -35.6 L-1.45 -34.5 -2.35 -32.95 -3.2 -31.65 -6.6 -24.6 -10.5 -15.8 -17.45 0.55 -17.5 0.7 -17.1 1.4 -17.3 5.3 Q-17.5 11.05 -16.9 16.9 -14.15 19.9 -10.75 21.85 L-10.75 21.9 -7.0 23.65 -2.45 24.95 -2.25 25.0 -2.2 24.95 -1.85 24.85 -0.45 24.95 1.65 25.05 2.85 25.1 3.7 24.95 Q7.1 24.25 10.1 22.85 L10.7 22.9 10.85 22.75 11.15 22.3 Q15.05 20.25 18.15 16.9 18.7 11.05 18.55 5.3 M1.7 16.85 L1.65 16.85 1.65 16.6 1.7 16.85 M10.9 16.2 L10.95 16.2 10.9 16.35 10.9 16.2 M1.65 27.75 L4.65 26.25 3.3 26.55 1.65 26.9 1.65 26.65 -0.45 26.4 -0.45 26.9 -3.75 26.1 -0.65 27.65 -0.45 27.6 -0.25 27.5 1.65 27.9 1.65 27.75 M-14.1 15.55 L-14.2 16.0 -14.35 15.95 -14.35 15.75 -14.1 15.55" fill="#000000" fill-rule="evenodd" stroke="none"/>
    <path d="M-17.3 5.3 L-17.1 1.4 -17.5 0.7 -17.45 0.55 -10.5 -15.8 -6.6 -24.6 -3.2 -31.65 -2.35 -32.95 -1.45 -34.5 -0.7 -35.6 Q0.3 -36.95 0.65 -38.3 1.95 -35.65 3.4 -33.1 L5.1 -30.35 7.8 -24.6 11.7 -15.8 18.65 0.55 18.7 0.7 18.3 1.4 18.55 5.3 18.2 4.5 17.2 2.1 16.55 0.55 12.85 -7.8 8.15 -17.55 3.45 -26.9 Q2.5 -29.45 0.7 -31.1 L-1.55 -28.2 -6.9 -17.55 -11.6 -7.8 -15.35 0.55 -16.0 2.1 -17.0 4.5 -17.3 5.3" fill="#6a6a6a" fill-rule="evenodd" stroke="none"/>
    <path d="M-17.3 5.3 L-17.0 4.5 -16.0 2.1 -15.35 0.55 -11.6 -7.8 -6.9 -17.55 -1.55 -28.2 0.7 -31.1 Q2.5 -29.45 3.45 -26.9 L8.15 -17.55 12.85 -7.8 16.55 0.55 17.2 2.1 18.2 4.5 18.55 5.3 Q18.7 11.05 18.15 16.9 15.05 20.25 11.15 22.3 L10.85 22.75 10.7 22.9 10.1 22.85 Q7.1 24.25 3.7 24.95 L2.85 25.1 1.65 25.05 -0.45 24.95 -1.85 24.85 -2.2 24.95 -2.25 25.0 -2.45 24.95 -7.0 23.65 -10.75 21.9 -10.75 21.85 Q-14.15 19.9 -16.9 16.9 -17.5 11.05 -17.3 5.3 M-0.45 27.6 L-0.65 27.65 -3.75 26.1 -0.45 26.9 -0.45 26.4 1.65 26.65 1.65 26.9 3.3 26.55 4.65 26.25 1.65 27.75 1.65 27.9 -0.25 27.5 -0.45 27.5 -0.45 27.6 M10.9 16.2 L10.9 16.35 10.95 16.2 10.9 16.2 M1.7 16.85 L1.65 16.6 1.65 16.85 1.7 16.85 M-14.1 15.55 L-14.35 15.75 -14.35 15.95 -14.2 16.0 -14.1 15.55" fill="#555555" fill-rule="evenodd" stroke="none"/>
  </g>
</svg>
