<?xml version="1.0" encoding="UTF-8" standalone="no"?>
<svg xmlns:xlink="http://www.w3.org/1999/xlink" height="53.45px" width="51.3px" xmlns="http://www.w3.org/2000/svg">
  <g transform="matrix(1.0, 0.0, 0.0, 1.0, 27.7, 28.7)">
    <path d="M1.75 -28.7 L2.15 -28.55 3.8 -25.25 3.95 -25.05 Q8.9 -26.2 13.7 -25.1 L12.85 -22.1 23.6 -19.35 21.05 -16.95 Q19.65 -15.4 18.7 -13.35 L18.25 -5.45 Q17.45 -5.1 17.2 -5.9 L17.05 -6.35 17.0 -6.95 16.7 -7.35 16.6 -8.3 16.55 -2.55 16.8 -2.55 16.45 21.4 13.8 24.5 11.45 24.75 3.1 23.9 Q-5.5 22.4 -13.85 19.15 L-13.85 19.2 -14.0 18.8 -14.5 18.7 -18.1 12.1 -18.15 11.9 -18.1 11.45 -18.1 11.25 -17.85 11.05 -18.0 10.15 -18.25 6.8 -19.05 5.8 -19.1 3.45 -21.45 0.85 -21.25 0.4 -20.75 0.3 -20.8 -1.6 -20.5 -2.9 -20.95 -3.75 -26.05 -4.1 -25.95 -5.2 -22.35 -11.35 Q-23.2 -13.3 -24.7 -15.1 L-25.6 -16.1 -27.65 -18.4 -27.7 -18.75 -17.0 -18.55 -17.0 -18.3 -16.5 -18.05 Q-16.8 -18.8 -16.75 -19.65 L-16.7 -20.75 -16.1 -21.1 Q-14.25 -20.45 -12.35 -20.4 L-10.9 -21.75 -9.25 -23.5 -9.15 -23.7 -7.7 -24.8 -6.8 -25.65 -4.7 -24.6 1.75 -28.7 M12.55 -11.05 Q13.95 -12.45 15.9 -11.55 L17.25 -9.7 17.3 -14.35 19.0 -16.3 19.05 -16.75 22.05 -18.65 Q18.5 -19.95 14.95 -20.6 10.25 -21.65 5.85 -20.15 8.35 -22.1 11.65 -22.2 L12.15 -24.4 5.15 -24.15 4.75 -22.95 3.9 -23.45 Q3.1 -23.75 2.35 -24.75 L1.3 -26.4 Q-1.75 -25.9 -3.75 -23.6 L-3.65 -23.4 -4.0 -23.0 -4.3 -22.8 Q-5.45 -23.05 -6.45 -23.7 L-6.8 -23.7 -10.0 -20.9 Q-10.8 -18.75 -12.65 -19.05 L-12.75 -19.05 -12.9 -18.95 -15.3 -19.45 -15.6 -18.05 -15.5 -17.65 -15.5 -17.45 -15.6 -17.3 -15.65 -17.1 -15.75 -16.85 -16.1 -16.7 -16.4 -16.7 -17.0 -16.65 -17.3 -16.6 -17.3 -16.95 -18.1 -17.4 -25.6 -17.8 -22.0 -13.2 -20.9 -12.6 -20.65 -11.9 -23.8 -5.55 -22.2 -5.35 -21.9 -5.65 -19.6 -4.35 -18.95 -11.65 -18.7 -9.6 Q-18.45 -6.35 -19.25 -3.4 L-18.85 -3.15 -19.5 0.8 Q-18.55 1.45 -17.65 2.05 L-16.75 7.0 -16.7 7.65 Q-16.6 9.4 -16.8 11.1 L-16.8 11.35 Q-15.65 14.35 -13.7 17.3 L-12.45 16.1 -12.9 15.55 -13.3 13.75 Q-13.6 12.6 -13.5 11.35 L-13.45 11.15 -13.1 10.7 Q-12.3 9.95 -11.4 9.65 -9.4 9.2 -8.25 10.45 L-7.85 10.65 -7.3 10.55 -7.75 8.15 -4.45 7.5 -6.45 4.5 -5.6 -1.65 -5.75 -1.65 -4.7 -9.5 -3.05 -10.6 -1.35 -11.2 4.1 -12.3 5.95 -12.15 Q7.9 -7.95 8.15 -3.35 9.0 -4.45 9.3 -5.6 L10.65 -9.85 Q11.0 -10.75 12.0 -11.4 L12.55 -11.05 Q11.0 -7.75 9.95 -4.2 L9.4 -2.55 9.05 -1.65 7.85 -1.65 6.15 -9.65 5.0 -10.9 -3.65 -9.5 -4.95 -1.65 -4.8 -1.65 -5.8 4.15 -2.75 8.4 -6.65 9.2 -6.25 10.1 Q-5.7 11.35 -6.45 12.25 L-7.1 12.05 -8.1 11.5 -8.2 11.55 -8.5 11.65 -8.8 11.45 -9.15 11.2 -11.35 11.15 -11.45 11.2 -11.7 11.4 -12.05 11.55 -12.25 12.45 -11.65 14.85 -11.25 15.3 -7.85 15.5 Q-8.4 16.6 -9.6 16.8 L-9.65 16.9 -9.8 17.15 -9.95 17.3 -10.25 17.3 -10.5 17.3 -10.55 17.3 -10.6 17.3 -10.95 17.2 -11.0 17.15 -11.5 16.95 -12.25 17.7 -10.6 18.95 5.05 22.65 12.35 23.3 14.55 21.55 14.9 18.2 Q7.4 18.85 -0.2 18.35 L-2.4 18.1 -2.35 17.85 -2.55 17.15 -2.55 17.05 14.85 17.1 14.9 15.35 14.6 14.9 Q14.5 6.6 15.05 -1.65 L14.8 -1.65 14.9 -2.55 Q15.1 -5.8 15.45 -9.05 L15.35 -10.35 14.8 -10.8 12.55 -11.05 M8.4 12.3 L8.5 12.45 8.55 12.9 8.45 14.25 Q5.65 16.2 5.3 12.9 L5.3 12.45 5.75 12.05 6.45 11.65 Q7.6 11.45 8.4 12.3" fill="#000000" fill-rule="evenodd" stroke="none"/>
    <path d="M12.55 -11.05 L12.0 -11.4 Q11.0 -10.75 10.65 -9.85 L9.3 -5.6 Q9.0 -4.45 8.15 -3.35 7.9 -7.95 5.95 -12.15 L4.1 -12.3 -1.35 -11.2 -3.05 -10.6 -4.7 -9.5 -5.75 -1.65 -5.6 -1.65 -6.45 4.5 -4.45 7.5 -7.75 8.15 -7.3 10.55 -7.85 10.65 -8.25 10.45 Q-9.4 9.2 -11.4 9.65 -12.3 9.95 -13.1 10.7 L-13.45 11.15 -13.5 11.35 Q-13.6 12.6 -13.3 13.75 L-12.9 15.55 -12.45 16.1 -13.7 17.3 Q-15.65 14.35 -16.8 11.35 L-16.8 11.1 Q-16.6 9.4 -16.7 7.65 L-16.75 7.0 -17.65 2.05 Q-18.55 1.45 -19.5 0.8 L-18.85 -3.15 -19.25 -3.4 Q-18.45 -6.35 -18.7 -9.6 L-18.95 -11.65 -19.6 -4.35 -21.9 -5.65 -22.2 -5.35 -23.8 -5.55 -20.65 -11.9 -20.9 -12.6 -22.0 -13.2 -25.6 -17.8 -18.1 -17.4 -17.3 -16.95 -17.3 -16.6 -17.0 -16.65 -16.4 -16.7 -16.1 -16.7 -15.75 -16.85 -15.65 -17.1 -15.6 -17.3 -15.5 -17.45 -15.5 -17.65 -15.6 -18.05 -15.3 -19.45 -12.9 -18.95 -12.75 -19.05 -12.65 -19.05 Q-10.8 -18.75 -10.0 -20.9 L-6.8 -23.7 -6.45 -23.7 Q-5.45 -23.05 -4.3 -22.8 L-4.0 -23.0 -3.65 -23.4 -3.75 -23.6 Q-1.75 -25.9 1.3 -26.4 L2.35 -24.75 Q3.1 -23.75 3.9 -23.45 L4.75 -22.95 5.15 -24.15 12.15 -24.4 11.65 -22.2 Q8.35 -22.1 5.85 -20.15 10.25 -21.65 14.95 -20.6 18.5 -19.95 22.05 -18.65 L19.05 -16.75 19.0 -16.3 17.3 -14.35 17.25 -9.7 15.9 -11.55 Q13.95 -12.45 12.55 -11.05" fill="#996633" fill-rule="evenodd" stroke="none"/>
    <path d="M12.55 -11.05 L14.8 -10.8 15.35 -10.35 15.45 -9.05 Q15.1 -5.8 14.9 -2.55 L14.8 -1.65 15.05 -1.65 Q14.5 6.6 14.6 14.9 L14.9 15.35 14.85 17.1 -2.55 17.05 -2.55 17.15 -2.35 17.85 -2.4 18.1 -0.2 18.35 Q7.4 18.85 14.9 18.2 L14.55 21.55 12.35 23.3 5.05 22.65 -10.6 18.95 -12.25 17.7 -11.5 16.95 -11.0 17.15 -10.95 17.2 -10.6 17.3 -10.55 17.3 -10.5 17.3 -10.25 17.3 -9.95 17.3 -9.8 17.15 -9.65 16.9 -9.6 16.8 Q-8.4 16.6 -7.85 15.5 L-11.25 15.3 -11.65 14.85 -12.25 12.45 -12.05 11.55 -11.7 11.4 -11.45 11.2 -11.35 11.15 -9.15 11.2 -8.8 11.45 -8.5 11.65 -8.2 11.55 -8.1 11.5 -7.1 12.05 -6.45 12.25 Q-5.7 11.35 -6.25 10.1 L-6.65 9.2 -2.75 8.4 -5.8 4.15 -4.8 -1.65 -4.95 -1.65 -3.65 -9.5 5.0 -10.9 6.15 -9.65 7.85 -1.65 9.05 -1.65 9.4 -2.55 9.95 -4.2 Q11.0 -7.75 12.55 -11.05 M8.4 12.3 Q7.6 11.45 6.45 11.65 L5.75 12.05 5.3 12.45 5.3 12.9 Q5.65 16.2 8.45 14.25 L8.55 12.9 8.5 12.45 8.4 12.3" fill="#ffcc99" fill-rule="evenodd" stroke="none"/>
  </g>
</svg>
