<?xml version="1.0" encoding="UTF-8" standalone="no"?>
<svg xmlns:xlink="http://www.w3.org/1999/xlink" height="58.15px" width="47.35px" xmlns="http://www.w3.org/2000/svg">
  <g transform="matrix(1.0, 0.0, 0.0, 1.0, 23.55, 29.85)">
    <path d="M10.65 -23.6 L11.75 -22.8 12.15 -19.3 14.0 -18.5 Q17.95 -20.85 22.6 -20.85 L19.6 -12.4 23.8 -4.8 Q22.05 -3.75 20.2 -4.5 20.6 4.1 17.35 12.2 L19.35 12.35 19.7 12.45 19.6 17.85 Q18.55 18.45 17.45 19.0 L16.9 18.85 Q9.5 25.55 0.05 28.3 L-0.65 27.7 Q-10.65 25.35 -17.85 17.8 -20.3 18.05 -20.3 15.5 L-20.25 12.3 -18.65 11.4 Q-23.5 2.6 -21.55 -7.2 L-23.55 -8.2 Q-22.45 -11.65 -19.05 -13.35 L-16.8 -14.35 -17.25 -16.75 -17.6 -17.35 -17.9 -18.8 Q-15.25 -19.8 -12.6 -18.8 L-12.55 -19.5 -8.4 -21.8 Q-7.75 -23.85 -8.45 -25.95 L-7.9 -26.25 Q-4.6 -25.4 -2.25 -22.9 L-1.8 -23.0 -1.2 -29.65 -0.3 -29.85 Q3.6 -26.7 5.0 -21.9 L7.8 -21.8 9.3 -22.6 10.65 -23.6 M8.9 -3.6 L9.25 -3.8 13.35 -0.55 12.8 0.05 9.35 -2.25 7.9 -0.3 Q6.7 1.7 5.85 3.9 L3.85 8.85 3.5 9.05 Q1.35 7.1 -0.3 4.7 L-4.55 -2.1 3.4 7.45 Q4.3 1.1 8.9 -3.6 M15.85 -17.75 L14.85 -17.05 12.8 -17.3 10.65 -19.0 10.25 -21.35 Q9.65 -21.0 9.05 -20.8 L7.85 -20.3 7.25 -20.15 3.95 -20.45 4.15 -21.5 Q2.85 -25.2 -0.05 -27.6 L-0.4 -22.3 -1.4 -20.85 -1.85 -20.65 -6.2 -25.05 -6.95 -25.05 -6.5 -23.4 Q-6.1 -21.75 -7.4 -20.45 L-10.45 -19.2 Q-6.1 -18.15 -2.25 -16.55 -1.0 -16.15 -0.9 -14.9 -4.15 -16.25 -7.5 -17.2 L-11.4 -18.0 -12.05 -11.7 -12.8 -11.2 -13.35 -11.6 -12.75 -17.5 -16.2 -17.85 -15.7 -15.65 -15.7 -13.45 -16.25 -13.25 -16.75 -13.35 -21.95 -8.95 -20.05 -7.5 -20.2 -3.75 Q-19.95 4.0 -17.35 11.6 L-17.2 10.75 -16.75 12.4 Q-15.15 16.05 -12.8 19.2 L-12.65 19.4 Q-11.4 21.15 -9.55 22.5 -6.1 25.0 -1.75 25.4 3.05 25.25 7.35 23.3 8.9 22.6 10.15 21.55 11.4 20.45 12.25 18.9 L14.8 13.65 16.7 9.45 16.7 10.3 18.2 2.75 19.3 -4.9 18.75 -5.25 19.4 -5.75 19.6 -7.9 20.0 -6.0 21.75 -5.95 20.35 -8.3 18.75 -11.25 Q18.35 -12.0 18.45 -12.75 18.9 -16.15 20.35 -19.3 L15.85 -17.75 M-17.95 12.85 L-18.85 13.15 -18.85 15.2 -15.05 18.4 -17.95 12.85 M18.65 13.85 L16.45 13.1 12.45 20.7 18.15 16.45 18.65 13.85 M-12.8 19.2 L-12.75 19.2 -12.75 19.25 -12.8 19.2" fill="#000000" fill-rule="evenodd" stroke="none"/>
    <path d="M15.85 -17.75 L20.35 -19.3 Q18.9 -16.15 18.45 -12.75 18.35 -12.0 18.75 -11.25 L20.35 -8.3 21.75 -5.95 20.0 -6.0 19.6 -7.9 19.4 -5.75 18.75 -5.25 19.3 -4.9 18.2 2.75 16.7 10.3 16.7 9.45 14.8 13.65 12.25 18.9 Q11.4 20.45 10.15 21.55 8.9 22.6 7.35 23.3 3.05 25.25 -1.75 25.4 -6.1 25.0 -9.55 22.5 -11.4 21.15 -12.65 19.4 L-12.8 19.2 Q-15.15 16.05 -16.75 12.4 L-17.2 10.75 -17.35 11.6 Q-19.95 4.0 -20.2 -3.75 L-20.05 -7.5 -21.95 -8.95 -16.75 -13.35 -16.25 -13.25 -15.7 -13.45 -15.7 -15.65 -16.2 -17.85 -12.75 -17.5 -13.35 -11.6 -12.8 -11.2 -12.05 -11.7 -11.4 -18.0 -7.5 -17.2 Q-4.15 -16.25 -0.9 -14.9 -1.0 -16.15 -2.25 -16.55 -6.1 -18.15 -10.45 -19.2 L-7.4 -20.45 Q-6.1 -21.75 -6.5 -23.4 L-6.95 -25.05 -6.2 -25.05 -1.85 -20.65 -1.4 -20.85 -0.4 -22.3 -0.05 -27.6 Q2.85 -25.2 4.15 -21.5 L3.95 -20.45 7.25 -20.15 7.85 -20.3 9.05 -20.8 Q9.65 -21.0 10.25 -21.35 L10.65 -19.0 12.8 -17.3 14.85 -17.05 15.85 -17.75 M8.9 -3.6 Q4.3 1.1 3.4 7.45 L-4.55 -2.1 -0.3 4.7 Q1.35 7.1 3.5 9.05 L3.85 8.85 5.85 3.9 Q6.7 1.7 7.9 -0.3 L9.35 -2.25 12.8 0.05 13.35 -0.55 9.25 -3.8 8.9 -3.6 M-12.8 19.2 L-12.75 19.25 -12.75 19.2 -12.8 19.2" fill="#996633" fill-rule="evenodd" stroke="none"/>
    <path d="M18.65 13.85 L18.15 16.45 12.45 20.7 16.45 13.1 18.65 13.85 M-17.95 12.85 L-15.05 18.4 -18.85 15.2 -18.85 13.15 -17.95 12.85" fill="#ffcc99" fill-rule="evenodd" stroke="none"/>
  </g>
</svg>
