<?xml version="1.0" encoding="UTF-8" standalone="no"?>
<svg xmlns:xlink="http://www.w3.org/1999/xlink" height="53.5px" width="51.65px" xmlns="http://www.w3.org/2000/svg">
  <g transform="matrix(1.0, 0.0, 0.0, 1.0, 21.4, 47.7)">
    <path d="M-2.45 -41.75 L-2.6 -41.45 -2.75 -41.15 -3.5 -40.45 -3.7 -40.15 -4.6 -39.0 -3.95 -39.15 -3.4 -39.45 -0.8 -40.9 1.2 -42.3 3.8 -43.3 4.55 -42.7 5.75 -41.6 6.45 -40.95 7.5 -40.95 7.7 -41.1 8.45 -41.6 13.75 -45.15 13.85 -42.35 13.95 -40.55 14.45 -38.7 14.95 -38.5 17.6 -39.75 Q20.05 -40.85 22.65 -41.45 L21.4 -40.35 Q20.65 -39.55 20.7 -38.5 L20.55 -38.25 20.5 -38.15 20.3 -37.85 20.25 -37.25 20.2 -36.65 20.2 -36.6 19.9 -36.65 19.35 -36.65 18.2 -36.5 Q17.4 -36.35 17.0 -35.8 14.0 -36.1 12.9 -34.8 L19.45 -35.5 19.6 -35.55 19.6 -35.4 20.5 -35.3 Q20.9 -35.1 21.4 -35.0 L22.35 -34.85 23.3 -34.75 26.75 -33.65 26.95 -33.55 27.05 -33.55 28.4 -32.95 Q25.0 -31.6 21.65 -29.9 L20.5 -29.35 20.1 -27.8 19.8 -26.7 19.7 -26.0 19.35 -25.7 19.35 -25.35 19.3 -25.1 19.15 -24.85 Q18.4 -25.5 18.0 -26.45 L16.7 -28.95 Q15.45 -29.45 14.15 -28.95 L13.85 -28.65 13.35 -28.05 12.4 -24.95 Q11.85 -23.5 11.6 -22.1 10.85 -25.3 9.3 -28.2 8.75 -29.15 7.75 -29.3 2.5 -30.1 -2.65 -28.55 -4.1 -26.3 -5.05 -23.7 -6.45 -19.8 -8.15 -16.05 L-8.15 -15.05 -7.95 -13.9 -7.75 -13.6 -7.55 -13.3 -7.6 -10.85 -7.4 -8.85 -7.65 -8.85 Q-8.2 -9.8 -9.2 -10.3 L-9.6 -10.0 -9.65 -9.75 -10.0 -9.1 -10.1 -7.85 -10.5 -7.0 -10.95 -6.55 -11.15 -6.75 -11.65 -7.35 -11.65 -7.65 -11.65 -7.95 -11.65 -8.25 -11.85 -8.55 -11.95 -8.7 -12.25 -9.1 -12.0 -13.65 Q-11.75 -15.6 -12.0 -17.3 -12.25 -18.7 -12.85 -19.9 L-12.1 -24.35 -10.85 -28.65 -10.75 -28.95 -10.8 -28.9 -11.0 -28.8 -12.1 -26.05 Q-12.95 -23.6 -13.35 -21.0 L-13.5 -21.05 -17.5 -21.25 -15.85 -23.15 Q-14.4 -24.45 -13.4 -26.2 L-13.5 -26.75 Q-14.9 -30.05 -17.5 -32.95 -19.4 -35.0 -20.35 -36.95 L-18.65 -37.05 Q-16.4 -35.95 -14.1 -35.5 L-14.0 -35.7 -13.5 -36.35 -13.4 -36.65 -13.4 -36.95 -13.4 -37.25 Q-9.4 -37.55 -6.95 -40.65 L-6.45 -42.55 -6.0 -44.6 -5.5 -44.35 Q-4.1 -42.7 -2.3 -42.0 L-2.45 -41.75 M22.8 -28.95 L22.85 -28.9 23.0 -28.75 23.05 -28.65 Q23.6 -23.75 22.6 -19.05 L22.0 -16.95 21.4 -15.4 21.05 -14.55 20.7 -23.95 20.3 -24.25 20.2 -24.25 21.2 -28.15 21.7 -28.4 22.8 -28.95" fill="#996633" fill-rule="evenodd" stroke="none"/>
    <path d="M24.85 -42.45 L25.0 -42.15 Q22.3 -40.8 21.5 -38.15 L21.3 -37.85 21.2 -37.7 21.3 -36.5 Q24.85 -36.1 28.05 -34.4 L28.3 -34.2 28.15 -33.9 28.15 -33.85 30.25 -32.55 24.05 -29.6 Q25.6 -24.95 24.45 -20.1 L23.35 -16.35 22.65 -14.4 Q22.05 -12.95 21.15 -11.75 L20.8 -7.05 20.4 -1.6 19.75 -1.2 19.45 -0.85 19.6 -0.65 16.2 1.95 12.5 4.25 Q10.75 5.25 8.65 5.65 L7.2 5.8 5.9 5.7 0.5 4.65 -7.35 2.2 -11.25 0.8 -11.55 0.25 -12.2 0.15 -12.4 -0.35 -12.8 -1.1 -14.45 -2.75 -14.95 -3.15 -14.95 -5.4 -13.45 -7.1 -13.6 -14.6 -13.6 -18.7 -14.2 -19.25 -14.4 -19.55 -14.4 -19.75 -18.95 -19.25 -19.25 -19.55 Q-18.65 -23.35 -15.6 -26.25 -14.55 -27.25 -14.95 -28.75 -17.95 -32.75 -21.4 -36.45 -19.2 -39.95 -15.35 -37.15 L-14.95 -37.15 -14.8 -38.05 -14.85 -38.4 Q-11.85 -38.65 -9.45 -40.5 L-8.9 -41.15 Q-7.0 -42.25 -7.35 -44.5 L-7.35 -44.85 -7.15 -45.15 -6.95 -45.45 -6.95 -45.75 -6.95 -46.05 -6.15 -46.45 Q-3.95 -45.05 -2.15 -43.1 L1.3 -43.7 1.85 -44.1 2.15 -44.0 4.3 -44.95 4.95 -44.85 5.25 -44.5 5.35 -43.9 5.45 -43.6 6.35 -42.7 Q11.15 -43.95 15.05 -47.7 L15.4 -47.7 15.6 -47.7 15.9 -47.4 Q15.2 -44.55 15.15 -41.55 15.15 -40.95 15.4 -40.3 19.75 -42.4 24.6 -42.8 L24.85 -42.45 M-7.4 -8.85 L-7.6 -10.85 -7.55 -13.3 -7.75 -13.6 -7.95 -13.9 -8.15 -15.05 -8.15 -16.05 Q-6.45 -19.8 -5.05 -23.7 -4.1 -26.3 -2.65 -28.55 2.5 -30.1 7.75 -29.3 8.75 -29.15 9.3 -28.2 10.85 -25.3 11.6 -22.1 11.85 -23.5 12.4 -24.95 L13.35 -28.05 13.85 -28.65 14.15 -28.95 Q15.45 -29.45 16.7 -28.95 L18.0 -26.45 Q18.4 -25.5 19.15 -24.85 L19.3 -25.1 19.35 -25.35 19.35 -25.7 19.7 -26.0 19.8 -26.7 20.1 -27.8 20.5 -29.35 21.65 -29.9 Q25.0 -31.6 28.4 -32.95 L27.05 -33.55 26.95 -33.55 26.75 -33.65 23.3 -34.75 22.35 -34.85 21.4 -35.0 Q20.9 -35.1 20.5 -35.3 L19.6 -35.4 19.6 -35.55 19.45 -35.5 12.9 -34.8 Q14.0 -36.1 17.0 -35.8 17.4 -36.35 18.2 -36.5 L19.35 -36.65 19.9 -36.65 20.2 -36.6 20.2 -36.65 20.25 -37.25 20.3 -37.85 20.5 -38.15 20.55 -38.25 20.7 -38.5 Q20.65 -39.55 21.4 -40.35 L22.65 -41.45 Q20.05 -40.85 17.6 -39.75 L14.95 -38.5 14.45 -38.7 13.95 -40.55 13.85 -42.35 13.75 -45.15 8.45 -41.6 7.7 -41.1 7.5 -40.95 6.45 -40.95 5.75 -41.6 4.55 -42.7 3.8 -43.3 1.2 -42.3 -0.8 -40.9 -3.4 -39.45 -3.95 -39.15 -4.6 -39.0 -3.7 -40.15 -3.5 -40.45 -2.75 -41.15 -2.6 -41.45 -2.45 -41.75 -2.05 -41.9 -2.3 -42.0 Q-4.1 -42.7 -5.5 -44.35 L-6.0 -44.6 -6.45 -42.55 -6.95 -40.65 Q-9.4 -37.55 -13.4 -37.25 L-13.4 -36.95 -13.4 -36.65 -13.5 -36.35 -14.0 -35.7 -14.1 -35.5 Q-16.4 -35.95 -18.65 -37.05 L-20.35 -36.95 Q-19.4 -35.0 -17.5 -32.95 -14.9 -30.05 -13.5 -26.75 L-13.4 -26.2 Q-14.4 -24.45 -15.85 -23.15 L-17.5 -21.25 -13.5 -21.05 -13.35 -20.85 -13.35 -21.0 Q-12.95 -23.6 -12.1 -26.05 L-11.0 -28.8 -10.8 -28.9 -10.75 -28.95 -10.85 -28.65 -12.1 -24.35 -12.85 -19.9 Q-12.25 -18.7 -12.0 -17.3 -11.75 -15.6 -12.0 -13.65 L-12.25 -9.1 -11.95 -8.7 -11.85 -8.55 -11.65 -8.25 -11.65 -7.95 -11.65 -7.65 -11.65 -7.35 -11.15 -6.75 -10.95 -6.55 -10.5 -7.0 -10.1 -7.85 -10.0 -9.1 -9.65 -9.75 -9.6 -10.0 -9.2 -10.3 Q-8.2 -9.8 -7.65 -8.85 L-7.25 -8.25 -7.4 -8.85 M22.8 -28.95 L21.7 -28.4 21.2 -28.15 20.2 -24.25 20.3 -24.25 20.7 -23.95 21.05 -14.55 21.4 -15.4 22.0 -16.95 22.6 -19.05 Q23.6 -23.75 23.05 -28.65 L23.0 -28.75 22.85 -28.9 22.85 -29.0 22.8 -28.95 M24.05 -25.8 L24.05 -23.85 24.1 -25.8 24.05 -25.8 M17.25 -0.65 L-6.9 -1.55 -6.8 -2.1 -6.8 -2.45 -4.65 -2.45 1.95 -2.3 8.55 -2.1 18.45 -1.85 18.45 -4.1 17.35 -4.1 16.55 -4.6 Q15.7 -5.7 16.7 -6.75 L17.45 -7.15 Q18.3 -7.0 18.7 -6.5 L19.25 -12.4 19.65 -18.45 19.8 -21.85 19.6 -20.45 19.6 -19.85 Q19.1 -19.3 18.35 -19.65 L18.05 -19.95 Q18.15 -23.65 16.1 -26.7 L15.9 -27.0 14.75 -27.5 14.05 -27.2 Q12.35 -23.5 12.5 -19.55 L12.5 -18.9 11.9 -18.6 11.75 -19.25 11.7 -19.55 10.75 -20.75 Q9.95 -24.8 7.5 -28.15 2.25 -28.9 -2.45 -26.8 L-6.55 -17.1 Q-7.2 -15.75 -7.15 -14.2 L-6.95 -13.9 -6.75 -13.6 Q-6.9 -10.6 -6.4 -7.75 L-6.35 -7.15 -7.05 -6.75 Q-8.15 -7.65 -8.8 -8.9 L-9.9 -6.3 -9.85 -6.15 -9.95 -5.95 -10.1 -5.75 -10.1 -5.7 -10.35 -4.7 -10.45 -4.4 -10.85 -4.15 -11.65 -4.7 -11.95 -5.9 -12.0 -6.1 -12.25 -6.1 -12.5 -6.05 -12.9 -5.9 -13.1 -6.0 -13.5 -5.4 -13.45 -5.15 -13.45 -4.9 -13.3 -4.15 -12.95 -3.45 -12.5 -3.0 -11.95 -2.55 -11.85 -2.55 -11.75 -2.35 -11.55 -1.75 -11.05 -1.3 -11.15 -0.9 -6.15 0.85 -1.15 2.15 3.85 3.2 8.9 3.55 Q11.05 3.05 13.15 2.0 L15.0 1.1 16.5 0.15 17.25 -0.4 17.75 -0.65 17.25 -0.65 M0.7 -5.35 Q0.35 -5.0 -0.15 -5.0 -0.5 -4.95 -0.9 -5.2 -2.7 -6.35 -1.15 -7.85 -0.7 -8.25 -0.25 -8.25 2.1 -7.45 1.05 -5.9 L0.7 -5.35" fill="#000000" fill-rule="evenodd" stroke="none"/>
    <path d="M-7.65 -8.85 L-7.4 -8.85 -7.25 -8.25 -7.65 -8.85 M17.25 -0.4 L16.5 0.15 15.0 1.1 13.15 2.0 Q11.05 3.05 8.9 3.55 L3.85 3.2 -1.15 2.15 -6.15 0.85 -11.15 -0.9 -11.05 -1.3 -11.55 -1.75 -11.75 -2.35 -11.85 -2.55 -11.95 -2.55 -12.5 -3.0 -12.95 -3.45 -13.3 -4.15 -13.45 -4.9 -13.45 -5.15 -13.5 -5.4 -13.1 -6.0 -12.9 -5.9 -12.5 -6.05 -12.25 -6.1 -12.0 -6.1 -11.95 -5.9 -11.65 -4.7 -10.85 -4.15 -10.45 -4.4 -10.35 -4.7 -10.1 -5.7 -10.1 -5.75 -9.95 -5.95 -9.85 -6.15 -9.9 -6.3 -8.8 -8.9 Q-8.15 -7.65 -7.05 -6.75 L-6.35 -7.15 -6.4 -7.75 Q-6.9 -10.6 -6.75 -13.6 L-6.95 -13.9 -7.15 -14.2 Q-7.2 -15.75 -6.55 -17.1 L-2.45 -26.8 Q2.25 -28.9 7.5 -28.15 9.95 -24.8 10.75 -20.75 L11.7 -19.55 11.75 -19.25 11.9 -18.6 12.5 -18.9 12.5 -19.55 Q12.35 -23.5 14.05 -27.2 L14.75 -27.5 15.9 -27.0 16.1 -26.7 Q18.15 -23.65 18.05 -19.95 L18.35 -19.65 Q19.1 -19.3 19.6 -19.85 L19.6 -20.45 19.8 -21.85 19.65 -18.45 19.25 -12.4 18.7 -6.5 Q18.3 -7.0 17.45 -7.15 L16.7 -6.75 Q15.7 -5.7 16.55 -4.6 L17.35 -4.1 18.45 -4.1 18.45 -1.85 8.55 -2.1 1.95 -2.3 -4.65 -2.45 -6.8 -2.45 -6.8 -2.1 -6.9 -1.55 17.25 -0.65 17.25 -0.4 M0.7 -5.35 L1.05 -5.9 Q2.1 -7.45 -0.25 -8.25 -0.7 -8.25 -1.15 -7.85 -2.7 -6.35 -0.9 -5.2 -0.5 -4.95 -0.15 -5.0 0.35 -5.0 0.7 -5.35" fill="#ffcc99" fill-rule="evenodd" stroke="none"/>
  </g>
</svg>
