<?xml version="1.0" encoding="UTF-8" standalone="no"?>
<svg xmlns:xlink="http://www.w3.org/1999/xlink" height="48.8px" width="48.1px" xmlns="http://www.w3.org/2000/svg">
  <g transform="matrix(1.0, 0.0, 0.0, 1.0, 22.5, 41.0)">
    <path d="M23.45 -32.9 Q23.55 -31.65 23.0 -30.75 L22.15 -29.6 18.55 -26.3 22.2 -24.25 23.65 -20.95 25.6 -19.55 22.35 -17.25 21.05 -15.45 20.9 -14.65 23.8 -11.75 19.1 -9.2 17.8 -5.35 15.2 0.45 Q13.6 3.85 10.15 5.5 L8.6 6.2 Q6.4 7.45 4.05 7.8 L1.05 7.25 Q-3.55 6.3 -8.0 4.65 -14.35 2.15 -19.4 -2.3 L-21.2 -2.6 -21.9 -3.3 Q-22.1 -5.45 -21.95 -7.55 -21.8 -9.15 -20.6 -10.35 L-20.35 -13.8 -21.3 -15.0 -22.15 -16.2 -22.35 -16.9 -22.5 -17.65 -21.9 -18.3 -21.2 -18.8 -18.9 -19.9 -19.15 -21.0 Q-20.6 -22.75 -21.5 -24.95 L-21.55 -25.3 -21.4 -25.65 -19.2 -25.75 -17.25 -25.35 -17.1 -25.3 -16.7 -24.75 -14.65 -27.85 -14.5 -28.5 -11.0 -35.3 -11.45 -37.75 -10.35 -38.2 -9.9 -38.0 -6.7 -33.8 1.15 -35.25 Q4.05 -38.2 7.85 -40.05 L8.2 -41.0 9.55 -40.7 9.0 -33.2 Q16.3 -34.5 23.45 -32.9 M7.5 -31.95 L8.3 -38.35 Q4.6 -36.9 2.2 -33.7 -0.05 -33.7 -2.1 -32.8 L-7.85 -32.65 -9.45 -34.6 -11.55 -30.8 Q-12.6 -28.85 -13.8 -27.05 -14.8 -25.55 -16.1 -24.2 L-16.3 -24.05 -19.5 -24.35 -17.95 -21.8 Q-17.65 -21.2 -17.7 -20.75 L-17.25 -20.05 -17.25 -19.2 -18.05 -19.1 -18.25 -18.25 -21.1 -17.25 -18.75 -14.8 -18.95 -10.5 -18.05 -10.05 -16.2 -8.5 Q-14.85 -7.5 -14.1 -5.95 L-11.8 -12.95 -12.65 -17.05 -11.95 -17.5 -10.75 -13.2 -10.15 -12.45 Q-5.4 -13.15 -1.0 -11.25 L0.6 -7.3 0.7 -1.85 8.05 -7.05 8.15 -7.75 9.0 -8.75 9.5 -8.85 10.1 -8.6 12.35 -3.9 12.75 -4.05 13.55 -4.9 Q14.2 -5.75 14.15 -7.05 L14.65 -7.75 14.4 -9.2 19.15 -11.8 19.65 -11.55 21.05 -11.85 20.05 -12.85 Q15.65 -16.8 9.85 -18.45 L10.45 -19.2 Q15.7 -18.35 20.1 -15.25 L21.5 -17.85 22.85 -19.3 21.45 -20.7 21.8 -20.95 21.75 -21.05 21.65 -22.1 17.1 -25.15 Q13.7 -27.25 9.8 -27.35 7.7 -27.05 6.3 -27.4 6.55 -28.2 7.8 -28.35 12.6 -28.9 16.85 -26.4 L21.65 -31.5 7.5 -31.95 M-5.95 1.7 Q-6.45 2.1 -7.1 2.1 -7.75 2.1 -8.2 1.7 -8.7 1.3 -8.7 0.7 -8.7 0.1 -8.2 -0.3 L-7.1 -0.7 Q-6.45 -0.7 -5.95 -0.3 -5.5 0.1 -5.5 0.7 -5.5 1.3 -5.95 1.7 M-0.75 -5.35 L-1.85 -9.35 -2.45 -10.0 Q-3.75 -11.05 -5.3 -10.75 L-5.7 -11.15 -10.75 -10.3 -11.35 -10.55 -11.5 -11.1 -12.45 -7.9 -13.25 -3.95 -14.0 -3.8 -15.3 -5.65 -16.05 -6.45 -17.6 -7.75 -19.55 -7.55 -20.0 -6.95 -20.0 -4.8 -18.0 -3.7 -17.25 -3.65 -17.0 -2.95 -17.65 -2.6 -13.8 -0.2 -10.05 2.15 Q-5.45 5.15 -0.1 5.9 L6.25 5.4 Q9.1 4.45 11.15 2.3 L11.05 0.9 13.25 0.5 14.05 -0.2 14.8 -1.4 17.45 -8.55 15.85 -8.0 15.85 -6.9 12.85 -0.8 12.35 -0.55 11.5 -0.65 11.15 -1.05 11.5 -2.1 9.95 -6.1 1.4 -0.05 1.05 0.65 0.0 0.8 -0.4 0.4 Q0.35 -1.1 0.15 -2.85 L0.1 -3.5 Q0.05 -4.6 -0.75 -5.35" fill="#000000" fill-rule="evenodd" stroke="none"/>
    <path d="M7.5 -31.95 L21.65 -31.5 16.85 -26.4 Q12.6 -28.9 7.8 -28.35 6.55 -28.2 6.3 -27.4 7.7 -27.05 9.8 -27.35 13.7 -27.25 17.1 -25.15 L21.65 -22.1 21.75 -21.05 21.8 -20.95 21.45 -20.7 22.85 -19.3 21.5 -17.85 20.1 -15.25 Q15.7 -18.35 10.45 -19.2 L9.85 -18.45 Q15.65 -16.8 20.05 -12.85 L21.05 -11.85 19.65 -11.55 19.15 -11.8 14.4 -9.2 14.65 -7.75 14.15 -7.05 Q14.2 -5.75 13.55 -4.9 L12.75 -4.05 12.35 -3.9 10.1 -8.6 9.5 -8.85 9.0 -8.75 8.15 -7.75 8.05 -7.05 0.7 -1.85 0.6 -7.3 -1.0 -11.25 Q-5.4 -13.15 -10.15 -12.45 L-10.75 -13.2 -11.95 -17.5 -12.65 -17.05 -11.8 -12.95 -14.1 -5.95 Q-14.85 -7.5 -16.2 -8.5 L-18.05 -10.05 -18.95 -10.5 -18.75 -14.8 -21.1 -17.25 -18.25 -18.25 -18.05 -19.1 -17.25 -19.2 -17.25 -20.05 -17.7 -20.75 Q-17.65 -21.2 -17.95 -21.8 L-19.5 -24.35 -16.3 -24.05 -16.1 -24.2 Q-14.8 -25.55 -13.8 -27.05 -12.6 -28.85 -11.55 -30.8 L-9.45 -34.6 -7.85 -32.65 -2.1 -32.8 Q-0.05 -33.7 2.2 -33.7 4.6 -36.9 8.3 -38.35 L7.5 -31.95" fill="#996633" fill-rule="evenodd" stroke="none"/>
    <path d="M-0.75 -5.35 Q0.05 -4.6 0.1 -3.5 L0.15 -2.85 Q0.35 -1.1 -0.4 0.4 L0.0 0.8 1.05 0.65 1.4 -0.05 9.95 -6.1 11.5 -2.1 11.15 -1.05 11.5 -0.65 12.35 -0.55 12.85 -0.8 15.85 -6.9 15.85 -8.0 17.45 -8.55 14.8 -1.4 14.05 -0.2 13.25 0.5 11.05 0.9 11.15 2.3 Q9.1 4.45 6.25 5.4 L-0.1 5.9 Q-5.45 5.15 -10.05 2.15 L-13.8 -0.2 -17.65 -2.6 -17.0 -2.95 -17.25 -3.65 -18.0 -3.7 -20.0 -4.8 -20.0 -6.95 -19.55 -7.55 -17.6 -7.75 -16.05 -6.45 -15.3 -5.65 -14.0 -3.8 -13.25 -3.95 -12.45 -7.9 -11.5 -11.1 -11.35 -10.55 -10.75 -10.3 -5.7 -11.15 -5.3 -10.75 Q-3.75 -11.05 -2.45 -10.0 L-1.85 -9.35 -0.75 -5.35 M-5.95 1.7 Q-5.5 1.3 -5.5 0.7 -5.5 0.1 -5.95 -0.3 -6.45 -0.7 -7.1 -0.7 L-8.2 -0.3 Q-8.7 0.1 -8.7 0.7 -8.7 1.3 -8.2 1.7 -7.75 2.1 -7.1 2.1 -6.45 2.1 -5.95 1.7" fill="#ffcc99" fill-rule="evenodd" stroke="none"/>
  </g>
</svg>
