<?xml version="1.0" encoding="UTF-8" standalone="no"?>
<svg xmlns:xlink="http://www.w3.org/1999/xlink" height="58.15px" width="47.35px" xmlns="http://www.w3.org/2000/svg">
  <g transform="matrix(1.0, 0.0, 0.0, 1.0, 24.15, 32.05)">
    <path d="M6.6 -27.25 L5.85 -27.25 1.5 -22.85 1.05 -23.05 0.05 -24.5 -0.3 -29.8 Q-3.25 -27.35 -4.5 -23.7 L-4.3 -22.65 -5.6 -22.5 Q-8.3 -22.0 -10.6 -23.55 L-11.0 -21.2 -11.65 -20.5 -13.15 -19.5 Q-14.9 -18.7 -16.15 -20.05 L-20.7 -21.5 -18.95 -17.35 Q-17.8 -14.95 -19.2 -12.85 -20.75 -10.6 -22.1 -8.15 L-20.35 -8.2 -19.95 -10.1 -19.75 -7.95 -19.1 -7.45 -19.65 -7.1 Q-19.25 0.65 -17.05 8.1 -17.15 0.0 -15.3 -7.6 L-13.95 -8.55 Q-13.25 -9.05 -12.45 -9.0 L-5.35 -9.65 -4.6 -9.15 -4.85 -8.55 -1.75 -0.5 Q-1.95 -4.0 0.0 -6.8 2.35 -10.05 6.15 -8.85 L7.55 -6.7 Q8.15 -8.55 9.8 -9.45 L12.55 -8.05 12.95 -7.3 13.4 -7.2 15.75 -8.55 16.55 -7.55 Q16.25 -3.0 16.5 1.45 L16.9 9.4 17.1 9.4 17.25 8.85 Q19.4 2.15 20.05 -4.75 20.3 -7.2 19.7 -9.7 L21.6 -11.15 16.4 -15.55 15.9 -15.45 15.35 -15.65 Q14.75 -17.95 15.85 -20.05 L12.4 -19.7 13.0 -13.8 12.45 -13.4 11.7 -13.9 11.05 -20.2 7.05 -19.75 Q3.75 -18.8 0.55 -17.1 0.55 -18.15 1.9 -18.75 5.75 -20.55 10.1 -21.4 L7.05 -22.65 6.25 -24.05 Q5.85 -24.7 6.05 -25.6 L6.6 -27.25 M1.45 -25.2 L1.9 -25.1 Q4.25 -27.6 7.55 -28.45 L8.1 -28.15 Q7.4 -26.05 8.05 -24.0 L12.2 -21.7 12.25 -21.0 Q14.9 -22.0 17.55 -21.0 L17.25 -19.55 16.9 -18.95 16.45 -16.55 18.7 -15.55 Q22.1 -13.85 23.2 -10.4 L21.2 -9.4 Q23.15 0.4 18.3 9.2 L19.9 10.1 19.95 13.3 Q19.95 15.85 17.5 15.6 10.3 23.15 0.3 25.5 L-0.4 26.1 Q-9.85 23.35 -17.25 16.65 L-17.8 16.8 -19.95 15.65 -20.05 10.25 -19.7 10.15 -17.7 10.0 Q-20.95 1.9 -20.55 -6.7 -22.4 -5.95 -24.15 -7.0 L-19.95 -14.6 -22.95 -23.05 Q-18.3 -23.05 -14.35 -20.7 L-12.5 -21.5 -12.1 -25.0 -11.0 -25.8 -9.65 -24.8 -8.15 -24.0 -5.35 -24.1 Q-3.95 -28.9 -0.05 -32.05 L0.85 -31.85 1.45 -25.2 M-12.8 11.15 Q-12.35 10.7 -11.75 10.7 -11.15 10.7 -10.7 11.15 -10.25 11.55 -10.25 12.15 -10.25 12.75 -10.7 13.2 -11.15 13.6 -11.75 13.6 L-12.8 13.2 Q-13.25 12.75 -13.25 12.15 -13.25 11.55 -12.8 11.15 M10.45 11.15 Q11.15 11.15 11.7 11.6 12.2 12.05 12.2 12.7 12.2 13.35 11.7 13.8 11.15 14.25 10.45 14.25 9.75 14.25 9.25 13.8 8.7 13.35 8.7 12.7 8.7 12.05 9.25 11.6 9.75 11.15 10.45 11.15 M5.85 -7.4 Q3.05 -8.85 0.65 -6.85 0.25 -6.5 0.2 -6.0 L-1.1 2.1 -1.55 2.3 -2.0 2.1 -2.4 1.25 -2.5 0.4 -5.45 -8.6 Q-10.1 -8.9 -14.0 -6.5 L-14.95 -3.6 -15.35 -3.0 -16.15 9.6 -16.4 9.95 -16.3 10.9 -17.2 10.85 -19.0 11.65 -18.5 14.25 -14.4 17.3 -14.35 16.55 Q-14.1 16.15 -12.3 16.3 L-3.05 16.7 12.45 17.0 11.25 17.55 6.25 17.8 Q-4.05 18.45 -14.25 17.4 -11.25 19.7 -7.75 21.2 -4.25 22.6 -0.65 23.15 3.6 23.55 7.1 21.55 L11.15 18.85 16.3 14.95 16.5 14.55 18.5 13.0 18.5 10.95 17.2 10.5 16.6 11.3 15.75 11.25 15.45 -6.8 14.8 -6.7 13.75 -5.55 13.65 -4.65 12.25 -4.65 11.4 -6.65 10.15 -8.4 8.3 -2.3 7.45 -2.4 5.85 -7.4" fill="#000000" fill-rule="evenodd" stroke="none"/>
    <path d="M6.6 -27.25 L6.05 -25.6 Q5.85 -24.7 6.25 -24.05 L7.05 -22.65 10.1 -21.4 Q5.75 -20.55 1.9 -18.75 0.55 -18.15 0.55 -17.1 3.75 -18.8 7.05 -19.75 L11.05 -20.2 11.7 -13.9 12.45 -13.4 13.0 -13.8 12.4 -19.7 15.85 -20.05 Q14.75 -17.95 15.35 -15.65 L15.9 -15.45 16.4 -15.55 21.6 -11.15 19.7 -9.7 Q20.3 -7.2 20.05 -4.75 19.4 2.15 17.25 8.85 L17.1 9.4 16.9 9.4 16.5 1.45 Q16.25 -3.0 16.55 -7.55 L15.75 -8.55 13.4 -7.2 12.95 -7.3 12.55 -8.05 9.8 -9.45 Q8.15 -8.55 7.55 -6.7 L6.15 -8.85 Q2.35 -10.05 0.0 -6.8 -1.95 -4.0 -1.75 -0.5 L-4.85 -8.55 -4.6 -9.15 -5.35 -9.65 -12.45 -9.0 Q-13.25 -9.05 -13.95 -8.55 L-15.3 -7.6 Q-17.15 0.0 -17.05 8.1 -19.25 0.65 -19.65 -7.1 L-19.1 -7.45 -19.75 -7.95 -19.95 -10.1 -20.35 -8.2 -22.1 -8.15 Q-20.75 -10.6 -19.2 -12.85 -17.8 -14.95 -18.95 -17.35 L-20.7 -21.5 -16.15 -20.05 Q-14.9 -18.7 -13.15 -19.5 L-11.65 -20.5 -11.0 -21.2 -10.6 -23.55 Q-8.3 -22.0 -5.6 -22.5 L-4.3 -22.65 -4.5 -23.7 Q-3.25 -27.35 -0.3 -29.8 L0.05 -24.5 1.05 -23.05 1.5 -22.85 5.85 -27.25 6.6 -27.25" fill="#996633" fill-rule="evenodd" stroke="none"/>
    <path d="M5.85 -7.4 L7.45 -2.4 8.3 -2.3 10.15 -8.4 11.4 -6.65 12.25 -4.65 13.65 -4.65 13.75 -5.55 14.8 -6.7 15.45 -6.8 15.75 11.25 16.6 11.3 17.2 10.5 18.5 10.95 18.5 13.0 16.5 14.55 16.3 14.95 11.15 18.85 7.1 21.55 Q3.6 23.55 -0.65 23.15 -4.25 22.6 -7.75 21.2 -11.25 19.7 -14.25 17.4 -4.05 18.45 6.25 17.8 L11.25 17.55 12.45 17.0 -3.05 16.7 -12.3 16.3 Q-14.1 16.15 -14.35 16.55 L-14.4 17.3 -18.5 14.25 -19.0 11.65 -17.2 10.85 -16.3 10.9 -16.4 9.95 -16.15 9.6 -15.35 -3.0 -14.95 -3.6 -14.0 -6.5 Q-10.1 -8.9 -5.45 -8.6 L-2.5 0.4 -2.4 1.25 -2.0 2.1 -1.55 2.3 -1.1 2.1 0.2 -6.0 Q0.25 -6.5 0.65 -6.85 3.05 -8.85 5.85 -7.4 M10.45 11.15 Q9.75 11.15 9.25 11.6 8.7 12.05 8.7 12.7 8.7 13.35 9.25 13.8 9.75 14.25 10.45 14.25 11.15 14.25 11.7 13.8 12.2 13.35 12.2 12.7 12.2 12.05 11.7 11.6 11.15 11.15 10.45 11.15 M-12.8 11.15 Q-13.25 11.55 -13.25 12.15 -13.25 12.75 -12.8 13.2 L-11.75 13.6 Q-11.15 13.6 -10.7 13.2 -10.25 12.75 -10.25 12.15 -10.25 11.55 -10.7 11.15 -11.15 10.7 -11.75 10.7 -12.35 10.7 -12.8 11.15" fill="#ffcc99" fill-rule="evenodd" stroke="none"/>
  </g>
</svg>
