<?xml version="1.0" encoding="UTF-8" standalone="no"?>
<svg xmlns:xlink="http://www.w3.org/1999/xlink" height="51.95px" width="42.55px" xmlns="http://www.w3.org/2000/svg">
  <g transform="matrix(1.0, 0.0, 0.0, 1.0, 18.05, 25.9)">
    <path d="M16.6 -19.4 L16.6 -19.85 Q8.1 -24.15 -1.55 -23.65 -6.35 -23.5 -10.85 -21.95 -13.8 -20.85 -15.8 -19.5 L-16.0 14.5 -16.15 14.55 -16.0 14.6 -13.1 15.45 -9.0 16.7 Q-9.85 14.05 -9.35 11.3 -8.95 9.25 -7.2 7.7 L-4.7 6.85 7.5 -3.75 7.05 -4.25 7.75 -19.55 8.15 -19.5 14.4 -15.6 16.35 -17.55 16.5 -17.6 16.6 -19.4 M13.35 -14.35 Q11.45 -16.7 8.65 -18.5 L8.35 -5.2 8.65 -4.8 17.2 -12.3 17.2 -12.9 16.85 -13.05 16.8 -15.7 14.85 -14.5 13.35 -14.35 M18.05 -13.4 L18.45 -12.9 18.8 -12.25 19.7 -9.7 Q21.7 -1.75 24.5 5.5 L24.35 6.3 22.7 7.3 Q19.9 8.8 16.6 9.4 L16.35 14.8 16.0 15.1 17.1 15.0 17.6 15.6 Q18.0 16.25 17.95 17.0 L17.5 25.55 16.75 26.05 16.2 25.9 3.75 22.05 -1.45 20.35 Q-9.7 18.05 -17.25 14.6 L-17.25 14.0 -17.65 13.35 -17.9 1.7 -18.0 -10.15 -17.75 -20.85 -16.55 -21.7 -16.0 -21.7 -16.45 -22.0 Q-13.2 -22.9 -10.1 -24.15 -3.65 -26.5 3.15 -25.7 11.1 -24.9 17.8 -20.45 L18.05 -13.4 M11.1 -3.5 L10.75 -4.35 10.75 -4.85 1.7 2.65 Q6.9 0.65 12.2 -0.7 L11.7 -1.55 11.7 -2.0 11.4 -2.4 11.1 -3.5 M11.75 -5.25 L12.05 -4.6 13.1 -1.4 13.15 -1.2 13.2 0.05 13.15 0.3 -3.05 6.35 -2.65 6.5 Q-0.2 7.4 0.75 9.9 L1.1 10.9 1.3 12.1 1.4 13.35 Q2.6 12.2 4.0 11.75 L14.35 8.55 23.0 5.6 17.9 -11.0 11.75 -5.25 M10.75 6.05 L11.2 5.1 10.75 4.2 9.6 3.8 Q8.95 3.8 8.5 4.2 8.0 4.55 8.0 5.1 8.0 5.65 8.5 6.05 8.95 6.4 9.6 6.4 10.25 6.4 10.75 6.05 M-6.5 8.5 L-6.75 8.95 -7.2 9.5 Q-8.8 12.45 -7.75 16.05 L-6.05 17.55 -1.35 18.9 -0.55 17.05 Q-0.15 15.65 -0.1 14.2 -0.1 12.95 -0.35 11.75 L-0.75 10.35 Q-1.3 8.55 -3.25 8.1 L-6.5 8.5 M11.4 3.6 Q12.1 4.25 12.1 5.2 12.1 6.15 11.4 6.8 10.65 7.45 9.6 7.45 8.55 7.45 7.85 6.8 7.1 6.15 7.1 5.2 7.1 4.25 7.85 3.6 8.55 2.95 9.6 2.95 10.65 2.95 11.4 3.6 M10.0 13.45 L9.65 13.8 Q7.6 15.7 5.85 13.4 L5.8 12.9 4.55 13.35 1.55 14.15 1.3 15.7 14.8 15.15 14.9 13.55 15.0 12.4 Q15.0 11.1 15.15 9.85 L9.65 11.6 Q10.6 12.45 10.0 13.45 M3.0 16.8 L1.3 16.85 0.45 18.7 9.95 18.1 10.9 18.2 11.1 21.5 11.5 22.45 16.05 24.2 16.15 18.85 16.15 16.6 3.0 16.8 M10.3 22.25 L10.05 19.25 0.75 19.5 10.3 22.35 10.35 22.35 10.3 22.25" fill="#000000" fill-rule="evenodd" stroke="none"/>
    <path d="M-16.0 14.5 L-15.8 -19.5 Q-13.8 -20.85 -10.85 -21.95 -6.35 -23.5 -1.55 -23.65 8.1 -24.15 16.6 -19.85 L16.6 -19.4 Q1.5 -20.85 -13.6 -19.2 L-13.5 -0.15 -13.2 11.1 -13.1 15.45 -16.0 14.6 -16.0 14.5 M13.35 -14.35 L14.85 -14.5 16.8 -15.7 16.85 -13.05 17.2 -12.9 17.2 -12.3 8.65 -4.8 8.35 -5.2 8.65 -18.5 Q11.45 -16.7 13.35 -14.35 M11.75 -5.25 L17.9 -11.0 23.0 5.6 14.35 8.55 4.0 11.75 Q2.6 12.2 1.4 13.35 L1.3 12.1 1.1 10.9 0.75 9.9 Q-0.2 7.4 -2.65 6.5 L-3.05 6.35 13.15 0.3 13.2 0.05 13.15 -1.2 13.1 -1.4 12.05 -4.6 11.75 -5.25 M11.4 3.6 Q10.65 2.95 9.6 2.95 8.55 2.95 7.85 3.6 7.1 4.25 7.1 5.2 7.1 6.15 7.85 6.8 8.55 7.45 9.6 7.45 10.65 7.45 11.4 6.8 12.1 6.15 12.1 5.2 12.1 4.25 11.4 3.6 M9.95 18.1 L0.45 18.7 1.3 16.85 3.0 16.8 9.95 18.1 M16.15 18.85 L16.05 24.2 11.5 22.45 11.1 21.5 10.9 18.2 16.15 18.85" fill="#ffffff" fill-rule="evenodd" stroke="none"/>
    <path d="M16.6 -19.4 L16.5 -17.6 16.35 -17.55 14.4 -15.6 8.15 -19.5 7.75 -19.55 7.05 -4.25 7.5 -3.75 -4.7 6.85 -7.2 7.7 Q-8.95 9.25 -9.35 11.3 -9.85 14.05 -9.0 16.7 L-13.1 15.45 -13.2 11.1 -13.5 -0.15 -13.6 -19.2 Q1.5 -20.85 16.6 -19.4 M11.1 -3.5 L11.4 -2.4 11.7 -2.0 11.7 -1.55 12.2 -0.7 Q6.9 0.65 1.7 2.65 L10.75 -4.85 10.75 -4.35 11.1 -3.5 M-6.5 8.5 L-3.25 8.1 Q-1.3 8.55 -0.75 10.35 L-0.35 11.75 Q-0.1 12.95 -0.1 14.2 -0.15 15.65 -0.55 17.05 L-1.35 18.9 -6.05 17.55 -7.75 16.05 Q-8.8 12.45 -7.2 9.5 L-6.75 8.95 -6.5 8.5 M10.75 6.05 Q10.25 6.4 9.6 6.4 8.95 6.4 8.5 6.05 8.0 5.65 8.0 5.1 8.0 4.55 8.5 4.2 8.95 3.8 9.6 3.8 L10.75 4.2 11.2 5.1 10.75 6.05 M10.3 22.35 L0.75 19.5 10.05 19.25 10.3 22.25 10.3 22.35" fill="#999da6" fill-rule="evenodd" stroke="none"/>
    <path d="M10.0 13.45 Q10.6 12.45 9.65 11.6 L15.15 9.85 Q15.0 11.1 15.0 12.4 L14.9 13.55 10.0 13.45 M4.55 13.35 L5.8 12.9 5.85 13.4 4.55 13.35" fill="#e27c41" fill-rule="evenodd" stroke="none"/>
    <path d="M5.85 13.4 Q7.6 15.7 9.65 13.8 L10.0 13.45 14.9 13.55 14.8 15.15 1.3 15.7 1.55 14.15 4.55 13.35 5.85 13.4" fill="#eba074" fill-rule="evenodd" stroke="none"/>
  </g>
</svg>
