<?xml version="1.0" encoding="UTF-8" standalone="no"?>
<svg xmlns:xlink="http://www.w3.org/1999/xlink" height="40.3px" width="43.9px" xmlns="http://www.w3.org/2000/svg">
  <g transform="matrix(1.0, 0.0, 0.0, 1.0, 20.5, 34.15)">
    <path d="M14.1 -30.7 L16.95 -29.0 18.45 -27.7 Q20.8 -25.15 22.5 -22.2 L23.0 -21.45 Q23.6 -20.45 23.3 -19.4 20.25 -9.8 17.85 0.1 L17.05 1.05 Q11.15 4.05 4.45 5.9 L3.3 6.15 Q-3.7 5.4 -10.25 3.15 -14.0 1.8 -16.75 -0.95 L-16.65 -2.0 Q-19.25 -2.0 -20.15 -4.55 -21.05 -7.3 -19.6 -9.95 L-19.55 -10.15 Q-19.0 -14.45 -18.0 -18.35 L-15.75 -26.2 Q-15.35 -27.45 -14.4 -28.5 L-13.2 -29.55 Q-11.5 -30.7 -9.65 -31.65 -4.45 -34.1 1.5 -34.15 8.2 -33.6 14.1 -30.7 M18.15 -25.4 Q13.85 -29.45 8.05 -31.15 3.0 -32.65 -2.2 -31.95 -8.7 -31.05 -13.85 -26.85 L-14.0 -26.1 -13.95 -23.25 -13.75 -22.15 Q-12.25 -17.35 -7.85 -14.8 -3.5 -12.3 1.35 -11.45 6.1 -10.7 10.85 -11.6 13.45 -12.05 15.9 -13.1 18.45 -14.2 20.75 -15.95 L21.6 -18.8 Q21.3 -19.55 21.35 -20.25 L21.3 -20.6 21.0 -21.3 20.8 -21.65 20.5 -22.1 20.05 -22.5 19.95 -22.85 Q19.25 -24.3 18.15 -25.4 M6.0 -6.2 L9.95 -4.05 10.6 -7.6 6.0 -6.2 M3.5 -5.7 L0.1 -5.6 -1.05 -2.7 -10.95 -5.25 -14.65 -5.1 -14.55 -4.6 Q-14.5 -4.1 -14.7 -3.65 L-14.95 -1.7 -11.55 0.3 Q-5.5 3.25 1.2 3.95 5.4 4.6 9.4 2.8 L7.4 1.95 7.2 0.75 9.75 -1.05 10.45 -0.9 11.0 -0.6 12.1 0.1 12.25 0.25 12.35 1.5 14.5 0.55 11.05 -1.5 Q8.3 -1.1 5.75 -2.15 L5.95 -4.3 3.5 -5.7 M2.1 -7.55 L2.1 -7.65 -1.1 -9.2 -1.75 -7.25 2.1 -7.55 M-8.1 -2.35 Q-8.65 -2.35 -9.05 -1.95 -9.45 -1.55 -9.45 -0.95 -9.45 -0.35 -9.05 0.05 -8.65 0.45 -8.1 0.45 -7.55 0.45 -7.15 0.05 -6.75 -0.35 -6.75 -0.95 -6.75 -1.55 -7.15 -1.95 -7.55 -2.35 -8.1 -2.35 M-18.45 -9.2 L-18.8 -8.2 Q-19.45 -5.45 -17.45 -3.5 L-16.4 -3.25 -15.9 -4.85 -17.35 -9.4 -18.45 -9.2 M8.55 1.5 L9.55 1.7 Q10.95 1.25 10.85 0.25 L9.8 -0.1 8.4 0.6 8.15 1.3 8.55 1.5 M11.15 -9.65 L11.85 -9.35 10.9 -3.55 16.35 -0.7 16.75 -2.65 Q18.85 -8.65 20.35 -14.7 17.95 -11.9 14.2 -10.9 10.65 -9.9 6.95 -9.8 -1.3 -9.6 -8.35 -14.0 -11.85 -16.1 -13.5 -19.75 L-14.05 -21.15 Q-14.65 -22.75 -14.6 -24.5 L-18.1 -10.75 Q-17.35 -10.5 -16.9 -9.95 -15.3 -8.25 -15.6 -6.05 L-14.65 -6.45 -13.4 -6.45 -3.1 -7.1 -2.15 -10.2 -1.4 -10.7 4.15 -7.25 11.15 -9.65 M6.8 -3.75 Q7.65 -3.25 8.6 -2.9 L6.65 -3.9 Q6.65 -3.75 6.8 -3.75 M-9.7 -2.5 Q-9.05 -3.2 -8.1 -3.2 -7.15 -3.2 -6.45 -2.5 -5.8 -1.85 -5.8 -0.9 -5.8 0.05 -6.45 0.75 -7.15 1.4 -8.1 1.4 -9.05 1.4 -9.7 0.75 -10.4 0.05 -10.4 -0.9 -10.4 -1.85 -9.7 -2.5 M-1.8 -4.15 L-1.25 -5.55 -9.2 -5.5 -1.8 -4.15" fill="#000000" fill-rule="evenodd" stroke="none"/>
    <path d="M2.1 -7.55 L-1.75 -7.25 -1.1 -9.2 2.1 -7.65 2.1 -7.55 M3.5 -5.7 L5.95 -4.3 5.75 -2.15 Q8.3 -1.1 11.05 -1.5 L14.5 0.55 12.35 1.5 12.25 0.25 12.1 0.1 11.0 -0.6 10.45 -0.9 9.75 -1.05 7.2 0.75 7.4 1.95 9.4 2.8 Q5.4 4.6 1.2 3.95 -5.5 3.25 -11.55 0.3 L-14.95 -1.7 -14.7 -3.65 Q-14.5 -4.1 -14.55 -4.6 L-14.65 -5.1 -10.95 -5.25 -1.05 -2.7 0.1 -5.6 3.5 -5.7 M6.0 -6.2 L10.6 -7.6 9.95 -4.05 6.0 -6.2 M-9.7 -2.5 Q-10.4 -1.85 -10.4 -0.9 -10.4 0.05 -9.7 0.75 -9.05 1.4 -8.1 1.4 -7.15 1.4 -6.45 0.75 -5.8 0.05 -5.8 -0.9 -5.8 -1.85 -6.45 -2.5 -7.15 -3.2 -8.1 -3.2 -9.05 -3.2 -9.7 -2.5" fill="#ffffff" fill-rule="evenodd" stroke="none"/>
    <path d="M18.15 -25.4 Q19.25 -24.3 19.95 -22.85 L20.05 -22.5 20.5 -22.1 20.8 -21.65 21.0 -21.3 21.3 -20.6 21.35 -20.25 Q21.3 -19.55 21.6 -18.8 L20.75 -15.95 Q18.45 -14.2 15.9 -13.1 13.45 -12.05 10.85 -11.6 6.1 -10.7 1.35 -11.45 -3.5 -12.3 -7.85 -14.8 -12.25 -17.35 -13.75 -22.15 L-13.95 -23.25 -14.0 -26.1 -13.85 -26.85 Q-8.7 -31.05 -2.2 -31.95 3.0 -32.65 8.05 -31.15 13.85 -29.45 18.15 -25.4 M6.8 -3.75 Q6.65 -3.75 6.65 -3.9 L8.6 -2.9 Q7.65 -3.25 6.8 -3.75 M11.15 -9.65 L4.15 -7.25 -1.4 -10.7 -2.15 -10.2 -3.1 -7.1 -13.4 -6.45 -14.65 -6.45 -15.6 -6.05 Q-15.3 -8.25 -16.9 -9.95 -17.35 -10.5 -18.1 -10.75 L-14.6 -24.5 Q-14.65 -22.75 -14.05 -21.15 L-13.5 -19.75 Q-11.85 -16.1 -8.35 -14.0 -1.3 -9.6 6.95 -9.8 10.65 -9.9 14.2 -10.9 17.95 -11.9 20.35 -14.7 18.85 -8.65 16.75 -2.65 L16.35 -0.7 10.9 -3.55 11.85 -9.35 11.15 -9.65 M8.55 1.5 L8.15 1.3 8.4 0.6 9.8 -0.1 10.85 0.25 Q10.95 1.25 9.55 1.7 L8.55 1.5 M-18.45 -9.2 L-17.35 -9.4 -15.9 -4.85 -16.4 -3.25 -17.45 -3.5 Q-19.45 -5.45 -18.8 -8.2 L-18.45 -9.2 M-8.1 -2.35 Q-7.55 -2.35 -7.15 -1.95 -6.75 -1.55 -6.75 -0.95 -6.75 -0.35 -7.15 0.05 -7.55 0.45 -8.1 0.45 -8.65 0.45 -9.05 0.05 -9.45 -0.35 -9.45 -0.95 -9.45 -1.55 -9.05 -1.95 -8.65 -2.35 -8.1 -2.35 M-1.8 -4.15 L-9.2 -5.5 -1.25 -5.55 -1.8 -4.15" fill="#999da6" fill-rule="evenodd" stroke="none"/>
  </g>
</svg>
