<?xml version="1.0" encoding="UTF-8" standalone="no"?>
<svg xmlns:xlink="http://www.w3.org/1999/xlink" height="48.6px" width="37.0px" xmlns="http://www.w3.org/2000/svg">
  <g transform="matrix(1.0, 0.0, 0.0, 1.0, 18.5, 24.2)">
    <path d="M-15.05 -8.3 L-15.3 -8.05 -16.7 -5.8 -16.75 -5.7 -16.75 -6.7 -16.75 -7.85 -16.75 -8.95 -16.85 -10.15 -16.85 -11.25 -16.85 -12.35 -16.85 -13.45 -16.9 -14.55 -16.9 -17.9 -16.85 -19.1 Q-15.85 -19.0 -15.0 -19.4 L-14.55 -19.8 -14.25 -20.0 -12.05 -20.5 -11.35 -20.7 -10.25 -20.9 -8.2 -21.35 -7.65 -21.45 -7.65 -21.6 -6.75 -21.6 -6.1 -21.7 -5.1 -21.9 -3.05 -22.15 -0.95 -22.25 0.15 -22.25 1.15 -22.3 2.25 -22.25 3.25 -22.25 4.35 -22.15 5.35 -22.1 6.15 -21.95 6.9 -21.85 7.7 -21.7 8.4 -21.6 9.2 -21.4 9.9 -21.2 10.65 -21.05 11.35 -20.9 12.1 -20.65 12.8 -20.45 13.5 -20.15 14.2 -19.95 14.9 -19.65 15.6 -19.35 16.3 -19.05 16.95 -18.75 16.85 -17.7 16.85 -16.85 16.9 -15.65 16.9 -14.45 16.8 -12.6 16.75 -10.8 16.75 -9.6 16.65 -7.7 16.65 -6.3 15.25 -7.95 15.25 -8.0 15.1 -9.5 Q14.55 -13.5 14.8 -17.6 L7.55 -18.1 7.55 -18.7 7.7 -20.45 7.75 -20.75 7.7 -20.9 Q7.6 -21.35 7.1 -21.4 4.25 -19.9 1.15 -18.85 L0.55 -19.2 0.4 -19.1 -0.9 -18.55 -1.65 -18.2 -2.2 -18.2 -2.95 -18.75 Q-4.65 -19.95 -6.5 -20.95 L-6.7 -20.9 -6.85 -20.8 -7.0 -20.7 -7.1 -20.55 -7.1 -18.05 -7.1 -18.0 -15.0 -17.3 -15.05 -10.75 -15.05 -8.3 M0.7 -17.55 L2.35 -16.4 3.25 -15.75 5.2 -14.25 5.05 -13.15 5.15 -13.0 5.3 -12.7 5.25 -12.55 Q5.15 -11.9 5.45 -11.3 L5.4 -11.05 Q5.2 -8.85 5.4 -6.75 5.5 -6.6 5.65 -6.6 L14.15 -5.55 15.05 -5.15 Q16.0 -4.4 16.65 -4.75 L16.65 -4.7 16.6 -3.5 16.55 -2.3 16.5 -1.1 16.45 0.1 16.4 1.3 16.35 2.5 16.35 3.65 16.3 4.85 16.3 5.45 16.25 5.45 16.05 5.45 15.4 7.15 15.6 7.2 15.1 8.4 15.05 8.35 Q12.45 6.4 9.5 4.9 L0.25 0.35 -0.25 0.5 -0.55 0.65 Q-2.6 1.35 -4.6 2.45 L-8.15 4.2 Q-11.65 5.7 -14.65 8.05 -14.85 7.45 -15.2 7.0 -16.25 6.55 -16.55 5.1 L-16.5 4.4 -16.5 4.2 -16.5 3.3 -16.6 2.4 -16.6 1.6 -16.6 0.7 -16.6 -0.2 -16.65 -1.1 -16.7 -2.2 -16.7 -3.3 -16.7 -3.75 -16.65 -3.75 -15.85 -4.75 -15.6 -5.05 -15.5 -5.05 -13.75 -5.15 -7.3 -6.15 Q-7.05 -6.15 -7.0 -6.45 L-6.6 -13.25 Q-3.15 -15.75 0.7 -17.55 M5.25 -19.05 L6.65 -19.4 6.65 -18.95 6.95 -14.55 4.85 -16.25 2.6 -17.9 Q3.95 -18.25 5.25 -19.05 M8.95 -4.05 L8.65 -3.95 Q5.75 -3.15 6.35 -0.45 7.35 0.6 8.75 0.85 9.5 0.95 10.0 0.55 12.25 -1.0 10.8 -3.4 10.65 -3.45 10.55 -3.55 L8.95 -4.05 M5.15 16.9 L5.1 16.9 5.05 16.9 5.0 16.9 4.9 17.05 Q4.75 17.2 4.75 17.45 L4.55 21.0 4.5 22.05 4.45 22.15 3.85 22.35 1.5 23.05 1.45 23.05 1.4 23.05 0.4 23.0 -0.05 22.95 -0.1 22.95 -0.25 23.05 -2.15 22.3 -2.15 22.2 -2.25 21.4 -2.5 18.85 -2.75 16.65 -2.75 16.6 -2.85 16.5 -3.1 16.3 -3.25 16.35 -3.4 16.4 -3.45 16.5 -3.5 16.6 -3.5 16.7 -3.5 16.85 -3.75 16.8 -4.8 16.75 -5.9 16.6 -8.4 16.55 -8.75 16.6 -14.65 16.6 -14.9 16.55 -13.5 16.3 Q-3.15 14.1 7.6 15.0 L11.2 15.55 13.9 15.95 15.85 15.95 16.2 16.7 16.55 17.35 14.4 17.05 10.4 16.85 9.7 16.85 9.2 16.95 6.8 16.85 5.9 16.9 5.7 17.0 5.6 16.9 5.45 17.0 5.2 16.85 5.15 16.9 M-5.5 -16.0 L-5.7 -15.85 -5.75 -16.25 -5.9 -19.0 -3.6 -18.0 -3.2 -17.65 -3.05 -17.5 -5.5 -16.0 M-12.5 -1.8 L-12.6 -0.1 Q-12.1 1.2 -10.7 1.35 -8.95 1.5 -7.95 0.1 -6.95 -1.25 -7.95 -2.55 -9.05 -4.0 -11.05 -3.6 L-11.05 -3.55 -11.3 -3.5 -11.45 -3.45 Q-12.25 -2.8 -12.5 -1.8" fill="#ffffff" fill-rule="evenodd" stroke="none"/>
    <path d="M15.25 -7.95 L16.65 -6.3 16.65 -7.7 16.75 -9.6 16.75 -10.8 16.8 -12.6 16.9 -14.45 16.9 -15.65 16.85 -16.85 16.85 -17.7 16.95 -18.75 16.3 -19.05 15.6 -19.35 14.9 -19.65 14.2 -19.95 13.5 -20.15 12.8 -20.45 12.1 -20.65 11.35 -20.9 10.65 -21.05 9.9 -21.2 9.2 -21.4 8.4 -21.6 7.7 -21.7 6.9 -21.85 6.15 -21.95 5.35 -22.1 4.35 -22.15 3.25 -22.25 2.25 -22.25 1.15 -22.3 0.15 -22.25 -0.95 -22.25 -3.05 -22.15 -5.1 -21.9 -6.1 -21.7 -6.75 -21.6 -7.65 -21.6 -7.65 -21.45 -8.2 -21.35 -10.25 -20.9 -11.35 -20.7 -12.05 -20.5 -14.25 -20.0 -14.55 -19.8 -15.0 -19.4 Q-15.85 -19.0 -16.85 -19.1 L-16.9 -17.9 -16.9 -14.55 -16.85 -13.45 -16.85 -12.35 -16.85 -11.25 -16.85 -10.15 -16.75 -8.95 -16.75 -7.85 -16.75 -6.7 -16.75 -5.7 -16.7 -5.8 -15.3 -8.05 -15.05 -8.3 -14.4 -8.9 -13.9 -9.35 Q-10.65 -12.35 -7.0 -14.95 L-7.1 -18.0 -7.1 -18.05 -7.1 -20.55 -7.0 -20.7 -6.85 -20.8 -6.7 -20.9 -6.5 -20.95 Q-4.65 -19.95 -2.95 -18.75 L-2.2 -18.2 -2.0 -18.05 -0.9 -18.55 0.4 -19.1 0.55 -19.2 1.15 -18.85 Q4.25 -19.9 7.1 -21.4 7.6 -21.35 7.7 -20.9 L7.75 -20.75 7.7 -20.45 7.55 -18.7 7.55 -18.0 7.55 -17.6 7.65 -17.45 7.75 -17.3 Q7.7 -15.5 7.8 -13.8 L8.25 -13.45 12.55 -10.25 Q14.05 -9.2 15.25 -7.95 M17.3 -20.5 L17.95 -20.55 18.0 -19.9 18.3 -19.35 18.3 -19.15 18.05 -18.8 18.2 -16.6 18.25 -14.5 18.35 -12.3 18.35 -10.2 18.4 -8.0 18.4 -5.9 18.35 -3.7 18.25 -0.9 18.25 0.9 18.2 2.1 18.2 3.3 18.2 3.95 18.2 5.75 18.15 8.15 18.2 8.85 18.2 9.45 18.25 11.85 18.3 14.25 18.35 16.65 18.35 18.05 18.45 18.15 18.45 18.4 18.35 18.6 18.3 19.9 16.1 20.75 15.1 21.05 13.0 21.6 10.9 22.15 8.8 22.65 6.7 23.15 3.55 23.85 1.35 24.25 0.25 24.4 -0.5 24.15 -0.6 24.1 -2.6 23.6 -4.6 23.0 -5.6 22.7 -6.6 22.4 -8.6 21.8 -10.55 21.25 -12.55 20.6 -16.95 19.15 -17.1 18.65 -17.35 16.85 -17.45 15.55 -17.6 14.25 -17.7 13.45 -17.9 11.1 -18.1 8.7 -18.25 6.3 -18.35 3.9 -18.45 1.5 -18.4 -0.9 Q-18.3 -2.8 -18.45 -4.5 L-18.45 -5.75 -18.45 -6.55 -18.4 -7.35 -18.4 -8.15 -18.4 -9.85 -18.4 -11.55 -18.4 -12.45 -18.4 -13.25 -18.4 -14.9 -18.4 -16.6 -18.35 -18.3 -17.9 -20.65 -17.15 -21.0 -15.35 -21.75 -13.65 -22.1 -12.05 -22.5 -10.35 -22.9 -8.7 -23.3 -6.9 -23.65 -5.15 -23.95 -3.35 -24.15 -2.3 -24.2 4.95 -24.2 6.95 -23.95 8.1 -23.75 8.7 -23.6 10.45 -23.25 12.7 -22.55 13.85 -22.1 17.3 -20.5 M5.25 -19.05 Q3.95 -18.25 2.6 -17.9 L4.85 -16.25 6.95 -14.55 6.65 -18.95 6.65 -19.4 5.25 -19.05 M0.7 -17.55 Q-3.15 -15.75 -6.6 -13.25 L-7.0 -6.45 Q-7.05 -6.15 -7.3 -6.15 L-13.75 -5.15 -15.5 -5.05 -15.6 -5.05 -15.85 -4.75 -16.65 -3.75 -16.7 -3.75 -16.7 -3.3 -16.7 -2.2 -16.65 -1.1 -16.6 -0.2 -16.6 0.7 -16.6 1.6 -16.6 2.4 -16.5 3.3 -16.5 4.2 -16.5 4.4 -16.55 5.1 Q-16.25 6.55 -15.2 7.0 -14.85 7.45 -14.65 8.05 -11.65 5.7 -8.15 4.2 L-4.6 2.45 Q-2.6 1.35 -0.55 0.65 L-0.25 0.5 0.25 0.35 9.5 4.9 Q12.45 6.4 15.05 8.35 L15.1 8.4 15.6 7.2 15.4 7.15 16.05 5.45 16.25 5.45 16.3 5.45 16.3 4.85 16.35 3.65 16.35 2.5 16.4 1.3 16.45 0.1 16.5 -1.1 16.55 -2.3 16.6 -3.5 16.65 -4.7 16.65 -4.75 Q16.0 -4.4 15.05 -5.15 L14.15 -5.55 5.65 -6.6 Q5.5 -6.6 5.4 -6.75 5.2 -8.85 5.4 -11.05 L5.45 -11.3 Q5.15 -11.9 5.25 -12.55 L5.3 -12.7 5.15 -13.0 5.05 -13.15 5.2 -14.25 3.25 -15.75 2.35 -16.4 0.7 -17.55 M6.3 -13.25 L6.65 -8.1 6.65 -7.75 Q10.95 -7.85 15.0 -6.5 L11.6 -9.45 6.25 -13.45 6.25 -13.4 6.3 -13.25 M8.95 -4.05 L10.55 -3.55 Q10.65 -3.45 10.8 -3.4 12.25 -1.0 10.0 0.55 9.5 0.95 8.75 0.85 7.35 0.6 6.35 -0.45 5.75 -3.15 8.65 -3.95 L8.95 -4.05 M7.3 -1.35 Q8.2 -0.1 9.8 -0.35 10.35 -1.1 10.05 -2.0 L9.75 -2.8 9.45 -2.85 9.1 -2.9 9.0 -2.9 Q7.9 -2.45 7.3 -1.5 L7.3 -1.35 M14.8 11.95 Q14.7 10.75 14.85 9.5 L14.9 9.25 Q13.8 9.1 12.75 8.3 L12.6 8.2 Q7.65 6.1 3.0 3.6 L0.1 2.0 -1.75 3.1 Q-5.25 4.45 -8.6 6.15 L-12.25 7.95 -12.6 8.1 -14.5 8.8 -14.3 10.3 -14.2 11.7 -14.2 12.7 -14.25 13.35 -14.4 14.3 -14.5 14.7 -14.55 14.9 -14.35 14.85 -4.45 13.4 Q-2.7 13.3 -0.95 13.35 L7.95 13.75 8.5 13.8 15.45 15.0 15.4 14.8 15.3 14.6 15.25 14.4 15.2 14.25 14.8 11.95 M-9.6 11.5 L-10.45 10.75 Q-11.45 8.95 -9.65 8.1 L-9.2 7.9 Q-7.05 7.5 -6.95 9.45 -6.8 11.0 -7.75 11.45 L-9.05 11.6 -9.3 11.55 -9.6 11.5 M8.3 11.25 Q7.1 10.45 7.85 8.8 8.2 8.05 9.05 7.9 L9.45 7.8 Q12.0 7.85 11.55 10.25 L11.2 11.2 Q10.65 12.0 9.3 11.65 L8.75 11.5 8.3 11.25 M16.45 11.75 L16.35 10.55 16.35 9.45 16.35 8.25 16.35 7.65 Q15.3 10.45 15.95 13.6 L16.55 15.4 16.5 15.1 16.5 14.0 16.45 12.85 16.45 11.75 M5.15 16.9 L5.2 16.85 5.45 17.0 5.6 16.9 5.7 17.0 5.9 16.9 6.8 16.85 9.2 16.95 9.7 16.85 10.4 16.85 14.4 17.05 16.55 17.35 16.2 16.7 15.85 15.95 13.9 15.95 11.2 15.55 7.6 15.0 Q-3.15 14.1 -13.5 16.3 L-14.9 16.55 -14.65 16.6 -8.75 16.6 -8.4 16.55 -5.9 16.6 -4.8 16.75 -3.75 16.8 -3.5 16.85 -3.5 16.7 -3.5 16.6 -3.45 16.5 -3.4 16.4 -3.25 16.35 -3.1 16.3 -2.85 16.5 -2.75 16.6 -2.75 16.65 -2.5 18.85 -2.25 21.4 -2.15 22.2 -2.15 22.3 -0.25 23.05 -0.1 22.95 -0.05 22.95 0.4 23.0 1.4 23.05 1.45 23.05 1.5 23.05 3.85 22.35 4.45 22.15 4.5 22.05 4.55 21.0 4.75 17.45 Q4.75 17.2 4.9 17.05 L5.0 16.9 5.05 16.9 5.1 16.9 5.15 16.9 M6.15 18.35 L6.05 21.3 6.4 21.25 8.0 21.05 9.6 20.75 10.4 20.65 12.0 20.4 13.6 20.1 14.15 19.95 14.15 20.0 14.4 19.9 15.15 19.6 Q15.95 19.45 16.75 19.6 L16.7 18.5 16.7 18.15 15.6 18.3 14.3 18.15 12.05 17.95 6.55 18.15 6.15 18.15 6.15 18.35 M-5.5 -16.0 L-3.05 -17.5 -3.2 -17.65 -3.6 -18.0 -5.9 -19.0 -5.75 -16.25 -5.7 -15.85 -5.5 -16.0 M-12.5 -1.8 Q-12.25 -2.8 -11.45 -3.45 L-11.3 -3.5 -11.05 -3.55 -11.05 -3.6 Q-9.05 -4.0 -7.95 -2.55 -6.95 -1.25 -7.95 0.1 -8.95 1.5 -10.7 1.35 -12.1 1.2 -12.6 -0.1 L-12.5 -1.8 M-11.05 -0.05 L-10.95 0.1 Q-9.35 0.15 -8.85 -1.35 -9.1 -2.55 -10.5 -2.4 -11.4 -1.95 -11.3 -0.9 L-11.35 -0.75 Q-11.4 -0.35 -11.05 -0.05 M-7.8 -12.35 L-9.15 -11.35 Q-11.75 -9.3 -13.95 -6.85 L-8.2 -7.5 -7.8 -12.35 M-16.4 10.3 L-16.4 11.1 -16.3 12.8 -16.1 14.05 -15.8 15.1 -15.75 15.25 -15.4 14.1 -15.2 13.1 Q-14.9 9.85 -16.4 7.1 L-16.4 8.6 -16.4 10.3 M-13.95 18.4 L-13.25 18.7 -12.55 18.9 -11.75 19.2 -11.05 19.4 -9.65 19.9 -8.15 20.4 -7.4 20.65 -5.9 21.1 -4.5 21.55 -3.8 21.7 -3.4 21.85 Q-3.75 20.1 -3.75 18.35 L-4.4 18.3 -5.3 18.25 -14.6 17.8 -15.4 17.65 -15.45 17.8 -14.65 18.1 -14.6 18.15 -13.95 18.4" fill="#000000" fill-rule="evenodd" stroke="none"/>
    <path d="M15.25 -7.95 Q14.05 -9.2 12.55 -10.25 L8.25 -13.45 7.8 -13.8 Q7.7 -15.5 7.75 -17.3 L7.65 -17.45 7.55 -17.6 7.55 -18.0 7.55 -18.7 7.55 -18.1 14.8 -17.6 Q14.55 -13.5 15.1 -9.5 L15.25 -8.0 15.25 -7.95 M-0.9 -18.55 L-2.0 -18.05 -2.2 -18.2 -1.65 -18.2 -0.9 -18.55 M-7.1 -18.0 L-7.0 -14.95 Q-10.65 -12.35 -13.9 -9.35 L-14.4 -8.9 -15.05 -8.3 -15.05 -10.75 -15.0 -17.3 -7.1 -18.0 M6.3 -13.25 L6.25 -13.4 6.25 -13.45 11.6 -9.45 15.0 -6.5 Q10.95 -7.85 6.65 -7.75 L6.65 -8.1 6.3 -13.25 M7.3 -1.35 L7.3 -1.5 Q7.9 -2.45 9.0 -2.9 L9.1 -2.9 9.45 -2.85 9.75 -2.8 10.05 -2.0 Q10.35 -1.1 9.8 -0.35 8.2 -0.1 7.3 -1.35 M16.45 11.75 L16.45 12.85 16.5 14.0 16.5 15.1 16.55 15.4 15.95 13.6 Q15.3 10.45 16.35 7.65 L16.35 8.25 16.35 9.45 16.35 10.55 16.45 11.75 M6.15 18.35 L6.15 18.15 6.55 18.15 12.05 17.95 14.3 18.15 15.6 18.3 16.7 18.15 16.7 18.5 16.75 19.6 Q15.95 19.45 15.15 19.6 L14.4 19.9 14.15 20.0 14.15 19.95 13.6 20.1 12.0 20.4 10.4 20.65 9.6 20.75 8.0 21.05 6.4 21.25 6.05 21.3 6.15 18.35 M-7.8 -12.35 L-8.2 -7.5 -13.95 -6.85 Q-11.75 -9.3 -9.15 -11.35 L-7.8 -12.35 M-11.05 -0.05 Q-11.4 -0.35 -11.35 -0.75 L-11.3 -0.9 Q-11.4 -1.95 -10.5 -2.4 -9.1 -2.55 -8.85 -1.35 -9.35 0.15 -10.95 0.1 L-11.05 -0.05 M-16.4 10.3 L-16.4 8.6 -16.4 7.1 Q-14.9 9.85 -15.2 13.1 L-15.4 14.1 -15.75 15.25 -15.8 15.1 -16.1 14.05 -16.3 12.8 -16.4 11.1 -16.4 10.3 M-13.95 18.4 L-14.6 18.15 -14.65 18.1 -15.45 17.8 -15.4 17.65 -14.6 17.8 -5.3 18.25 -4.4 18.3 -3.75 18.35 Q-3.75 20.1 -3.4 21.85 L-3.8 21.7 -4.5 21.55 -5.9 21.1 -7.4 20.65 -8.15 20.4 -9.65 19.9 -11.05 19.4 -11.75 19.2 -12.55 18.9 -13.25 18.7 -13.95 18.4" fill="#999da6" fill-rule="evenodd" stroke="none"/>
    <path d="M-14.2 11.7 L-14.3 10.3 -14.5 8.8 -12.6 8.1 -12.25 7.95 -8.6 6.15 Q-5.25 4.45 -1.75 3.1 L0.1 2.0 3.0 3.6 Q7.65 6.1 12.6 8.2 L12.75 8.3 Q13.8 9.1 14.9 9.25 L14.85 9.5 Q14.7 10.75 14.8 11.95 L14.75 11.15 13.0 11.15 11.2 11.2 11.55 10.25 Q12.0 7.85 9.45 7.8 L9.05 7.9 Q8.2 8.05 7.85 8.8 7.1 10.45 8.3 11.25 L2.65 11.1 -3.9 11.45 -7.75 11.45 Q-6.8 11.0 -6.95 9.45 -7.05 7.5 -9.2 7.9 L-9.65 8.1 Q-11.45 8.95 -10.45 10.75 L-9.6 11.5 -10.95 11.55 -14.2 11.7" fill="#e27c41" fill-rule="evenodd" stroke="none"/>
    <path d="M-14.2 11.7 L-10.95 11.55 -9.6 11.5 -9.3 11.55 -9.05 11.6 -7.75 11.45 -3.9 11.45 2.65 11.1 8.3 11.25 8.75 11.5 9.3 11.65 Q10.65 12.0 11.2 11.2 L13.0 11.15 14.75 11.15 14.8 11.95 15.2 14.25 15.25 14.4 15.3 14.6 15.4 14.8 15.45 15.0 8.5 13.8 7.95 13.75 -0.95 13.35 Q-2.7 13.3 -4.45 13.4 L-14.35 14.85 -14.55 14.9 -14.5 14.7 -14.4 14.3 -14.25 13.35 -14.2 12.7 -14.2 11.7" fill="#eba074" fill-rule="evenodd" stroke="none"/>
  </g>
</svg>
