<?xml version="1.0" encoding="UTF-8" standalone="no"?>
<svg xmlns:xlink="http://www.w3.org/1999/xlink" height="53.35px" width="39.75px" xmlns="http://www.w3.org/2000/svg">
  <g transform="matrix(1.0, 0.0, 0.0, 1.0, 14.95, 45.25)">
    <path d="M21.7 -36.05 Q22.45 -31.75 21.8 -27.45 23.7 -25.65 24.65 -23.4 L24.8 -22.6 24.65 -21.0 24.15 -17.75 23.65 -15.45 Q22.45 -10.85 20.9 -6.3 L20.4 -6.05 20.4 -5.95 20.35 -5.85 20.2 -4.5 Q20.35 -1.95 19.7 0.4 L19.95 0.65 19.8 1.05 19.65 1.45 Q13.65 4.15 8.15 7.6 L8.15 7.65 7.7 8.0 7.4 8.1 -9.0 1.4 -11.65 0.05 -12.0 -0.15 -14.15 -1.0 -13.9 -4.7 -14.2 -4.9 -14.2 -5.15 -14.2 -5.35 -14.8 -6.5 Q-15.35 -9.5 -13.85 -11.75 L-13.85 -12.0 -13.8 -12.45 -13.75 -16.75 -13.7 -19.05 -13.7 -19.9 -13.65 -22.45 -13.65 -24.5 -13.8 -27.35 Q-14.1 -33.1 -13.9 -38.7 L-14.05 -39.85 -14.1 -40.5 -13.65 -41.0 Q-12.85 -41.65 -11.9 -42.0 L-4.45 -44.15 0.65 -45.25 Q4.5 -45.4 8.25 -44.45 L15.8 -42.1 18.3 -40.95 20.5 -39.45 Q22.0 -38.15 21.7 -36.05 M14.2 -38.55 L16.45 -39.55 16.95 -39.1 17.0 -38.5 17.0 -38.4 17.25 -32.5 19.25 -30.3 20.8 -28.55 19.9 -38.1 19.5 -38.55 Q19.0 -38.45 18.4 -38.85 L17.3 -39.4 12.35 -41.5 Q8.2 -43.05 3.9 -43.3 -0.9 -43.55 -5.55 -42.3 L-5.75 -42.25 -12.3 -40.2 -12.25 -13.2 -12.2 -13.15 -10.35 -13.75 Q-9.95 -13.8 -10.1 -13.45 L-10.0 -13.45 -9.8 -13.7 1.55 -24.5 2.2 -38.9 2.35 -40.4 2.75 -40.55 4.85 -39.2 9.95 -35.75 14.2 -38.55 M15.95 -34.1 L15.9 -37.95 15.1 -37.35 Q14.1 -36.65 13.1 -36.05 L10.9 -34.75 9.45 -34.2 3.35 -38.4 2.4 -25.35 13.7 -35.8 15.9 -34.1 15.95 -34.0 15.95 -34.1 M20.15 -26.9 L13.75 -34.15 4.5 -25.45 4.25 -23.8 4.7 -20.95 4.1 -20.5 Q3.45 -20.15 2.75 -19.95 0.2 -19.15 -2.25 -18.9 L-8.6 -12.95 -8.3 -12.65 Q-7.2 -12.05 -6.55 -11.0 L-5.8 -9.2 -5.55 -8.75 -5.55 -8.6 -5.55 -8.45 -5.45 -8.3 -5.35 -8.2 -5.45 -7.05 -5.55 -6.35 -4.65 -6.85 -4.55 -6.9 -4.15 -7.05 -3.4 -7.3 -1.45 -8.1 0.6 -9.1 8.0 -11.7 10.15 -12.25 Q11.4 -12.4 12.25 -12.9 14.85 -11.05 17.6 -9.3 L17.65 -9.3 17.8 -9.1 19.45 -8.1 19.5 -8.1 19.55 -8.4 19.6 -8.5 19.75 -8.35 19.85 -8.45 19.9 -8.65 19.9 -8.7 19.95 -8.7 22.5 -18.0 19.3 -20.9 20.15 -26.9 M19.05 -13.5 Q19.55 -13.5 19.95 -13.8 20.3 -14.15 20.3 -14.6 L19.95 -15.35 Q19.55 -15.7 19.05 -15.7 18.55 -15.7 18.2 -15.35 17.8 -15.05 17.8 -14.6 17.8 -14.15 18.2 -13.8 18.55 -13.5 19.05 -13.5 M18.5 -12.75 Q17.5 -13.1 17.0 -14.2 L17.6 -15.9 18.2 -16.3 20.3 -16.6 20.65 -16.2 Q21.45 -15.05 21.1 -13.65 20.15 -12.25 18.5 -12.75 M1.35 -16.3 Q0.65 -16.3 0.2 -15.85 -0.3 -15.4 -0.3 -14.8 -0.3 -14.2 0.2 -13.75 0.65 -13.3 1.35 -13.3 2.05 -13.3 2.55 -13.75 3.0 -14.2 3.0 -14.8 3.0 -15.4 2.55 -15.85 2.05 -16.3 1.35 -16.3 M3.25 -24.05 L3.15 -24.15 -0.2 -20.8 3.45 -21.7 3.25 -24.05 M3.9 -14.8 Q3.9 -13.85 3.2 -13.2 2.45 -12.55 1.45 -12.55 0.45 -12.55 -0.25 -13.2 -1.0 -13.85 -1.0 -14.8 -1.0 -15.75 -0.25 -16.4 0.45 -17.05 1.45 -17.05 2.45 -17.05 3.2 -16.4 3.9 -15.75 3.9 -14.8 M15.3 -5.05 L15.15 -5.25 15.1 -5.3 Q14.85 -6.6 15.75 -7.5 16.05 -7.85 16.45 -8.0 L16.5 -8.0 16.35 -8.15 15.75 -8.65 12.15 -11.25 10.6 -10.65 Q8.65 -10.3 6.8 -9.6 L0.85 -7.4 0.95 -6.9 Q1.05 -5.8 0.1 -5.05 L-0.3 -4.75 -0.7 -4.45 -1.05 -4.45 -2.35 -4.65 Q-3.05 -5.05 -3.25 -5.9 L-4.55 -5.45 -6.05 -4.55 -7.85 -3.5 -7.7 -2.65 18.6 -2.75 18.65 -2.95 18.7 -2.95 18.8 -3.0 18.85 -3.05 18.9 -3.2 18.9 -3.5 18.95 -3.55 19.05 -4.5 19.15 -5.3 19.3 -6.15 19.35 -6.3 19.2 -6.4 19.2 -6.45 18.8 -6.5 18.85 -5.4 Q18.8 -4.9 18.35 -4.65 16.6 -3.65 15.3 -5.05 M18.35 -1.25 L15.1 -1.1 7.8 -1.15 -7.95 -1.25 -8.1 -0.7 -8.1 -0.2 Q-7.05 0.35 -5.9 0.3 L2.8 -0.1 3.35 4.55 7.25 6.3 7.35 6.05 7.7 5.95 8.0 5.9 10.5 4.55 10.8 0.1 18.25 0.55 18.35 -1.25 M22.75 -19.6 L22.65 -23.7 20.85 -26.05 20.45 -21.6 22.7 -19.5 22.75 -19.4 22.75 -19.6 M11.45 3.85 L11.45 4.05 11.55 4.0 Q13.9 2.8 16.2 1.55 L11.9 1.05 11.45 3.85 M2.35 3.85 L2.1 0.95 -4.65 1.15 -4.75 1.15 -4.7 1.25 -4.65 1.25 1.15 3.6 2.25 4.05 2.35 4.1 2.35 3.85 M-12.55 -11.85 L-12.55 -11.8 -12.6 -11.15 -12.65 -11.0 -12.75 -10.95 -12.85 -10.1 Q-13.7 -8.3 -13.15 -6.1 L-12.5 -5.6 -12.35 -5.45 Q-10.15 -3.55 -7.85 -5.15 -6.2 -6.3 -6.75 -8.15 L-7.2 -9.25 -7.2 -9.4 -7.4 -9.65 Q-8.75 -11.9 -11.6 -12.0 L-12.15 -11.8 -12.3 -11.75 -12.55 -11.85 M-10.5 -1.2 L-9.2 -0.75 -9.3 -2.95 Q-11.35 -2.65 -12.75 -4.1 L-12.55 -2.1 -10.5 -1.25 -10.55 -1.2 -10.5 -1.2" fill="#000000" fill-rule="evenodd" stroke="none"/>
    <path d="M17.0 -38.4 L17.0 -38.5 16.95 -39.1 16.45 -39.55 14.2 -38.55 4.85 -39.2 2.75 -40.55 2.35 -40.4 2.2 -38.9 -9.35 -38.45 -9.8 -13.7 -10.0 -13.45 -10.1 -13.45 Q-9.95 -13.8 -10.35 -13.75 L-12.2 -13.15 -12.25 -13.2 -12.3 -40.2 -5.75 -42.25 -5.3 -42.25 -5.55 -42.3 Q-0.9 -43.55 3.9 -43.3 8.2 -43.05 12.35 -41.5 L17.3 -39.4 18.4 -38.85 Q19.0 -38.45 19.5 -38.55 L19.9 -38.1 20.8 -28.55 19.25 -30.3 19.2 -37.65 17.05 -38.25 17.0 -38.4 M15.9 -34.1 L13.7 -35.8 2.4 -25.35 3.35 -38.4 9.45 -34.2 10.9 -34.75 13.1 -36.05 Q14.1 -36.65 15.1 -37.35 L15.9 -37.95 15.95 -34.1 15.9 -34.1 M20.15 -26.9 L19.3 -20.9 22.5 -18.0 19.95 -8.7 19.9 -8.7 19.9 -8.65 19.85 -8.45 19.75 -8.35 19.6 -8.5 19.55 -8.4 19.5 -8.1 19.45 -8.1 17.8 -9.1 17.65 -9.3 17.6 -9.3 Q14.85 -11.05 12.25 -12.9 11.4 -12.4 10.15 -12.25 L8.0 -11.7 0.6 -9.1 -1.45 -8.1 -3.4 -7.3 -4.15 -7.05 -4.55 -6.9 -4.65 -6.85 -5.55 -6.35 -5.45 -7.05 -5.35 -8.2 -5.45 -8.3 -5.55 -8.45 -5.55 -8.6 -5.55 -8.75 -5.8 -9.2 -6.55 -11.0 Q-7.2 -12.05 -8.3 -12.65 L-8.6 -12.95 -2.25 -18.9 Q0.2 -19.15 2.75 -19.95 3.45 -20.15 4.1 -20.5 L4.7 -20.95 4.25 -23.8 4.5 -25.45 13.75 -34.15 20.15 -26.9 M18.5 -12.75 Q20.15 -12.25 21.1 -13.65 21.45 -15.05 20.65 -16.2 L20.3 -16.6 18.2 -16.3 17.6 -15.9 17.0 -14.2 Q17.5 -13.1 18.5 -12.75 M3.9 -14.8 Q3.9 -15.75 3.2 -16.4 2.45 -17.05 1.45 -17.05 0.45 -17.05 -0.25 -16.4 -1.0 -15.75 -1.0 -14.8 -1.0 -13.85 -0.25 -13.2 0.45 -12.55 1.45 -12.55 2.45 -12.55 3.2 -13.2 3.9 -13.85 3.9 -14.8 M18.35 -1.25 L18.25 0.55 10.8 0.1 10.5 4.55 8.0 5.9 7.7 5.95 7.35 6.05 7.25 6.3 3.35 4.55 2.8 -0.1 -5.9 0.3 Q-7.05 0.35 -8.1 -0.2 L-8.1 -0.7 -7.95 -1.25 7.8 -1.15 15.1 -1.1 18.35 -1.25 M-10.5 -1.25 L-10.5 -1.2 -10.55 -1.2 -10.5 -1.25" fill="#ffffff" fill-rule="evenodd" stroke="none"/>
    <path d="M17.0 -38.4 L17.05 -38.25 19.2 -37.65 19.25 -30.3 17.25 -32.5 17.0 -38.4 M-5.55 -42.3 L-5.3 -42.25 -5.75 -42.25 -5.55 -42.3 M-9.8 -13.7 L-9.35 -38.45 2.2 -38.9 1.55 -24.5 -9.8 -13.7 M4.85 -39.2 L14.2 -38.55 9.95 -35.75 4.85 -39.2 M19.05 -13.5 Q18.55 -13.5 18.2 -13.8 17.8 -14.15 17.8 -14.6 17.8 -15.05 18.2 -15.35 18.55 -15.7 19.05 -15.7 19.55 -15.7 19.95 -15.35 L20.3 -14.6 Q20.3 -14.15 19.95 -13.8 19.55 -13.5 19.05 -13.5 M3.25 -24.05 L3.45 -21.7 -0.2 -20.8 3.15 -24.15 3.25 -24.05 M1.35 -16.3 Q2.05 -16.3 2.55 -15.85 3.0 -15.4 3.0 -14.8 3.0 -14.2 2.55 -13.75 2.05 -13.3 1.35 -13.3 0.65 -13.3 0.2 -13.75 -0.3 -14.2 -0.3 -14.8 -0.3 -15.4 0.2 -15.85 0.65 -16.3 1.35 -16.3 M22.75 -19.6 L22.7 -19.5 20.45 -21.6 20.85 -26.05 22.65 -23.7 22.75 -19.6 M11.55 4.0 L11.45 3.85 11.9 1.05 16.2 1.55 Q13.9 2.8 11.55 4.0 M-4.65 1.15 L2.1 0.95 2.35 3.85 2.25 4.05 1.15 3.6 -4.65 1.25 -4.65 1.15 M-12.55 -11.85 L-12.3 -11.75 -12.15 -11.8 -11.6 -12.0 Q-8.75 -11.9 -7.4 -9.65 L-7.2 -9.4 -7.2 -9.25 -6.75 -8.15 Q-6.2 -6.3 -7.85 -5.15 -10.15 -3.55 -12.35 -5.45 L-12.5 -5.6 -13.15 -6.1 Q-13.7 -8.3 -12.85 -10.1 L-12.75 -10.95 -12.65 -11.0 -12.6 -11.15 -12.55 -11.8 -12.55 -11.85 M-10.5 -1.25 L-12.55 -2.1 -12.75 -4.1 Q-11.35 -2.65 -9.3 -2.95 L-9.2 -0.75 -10.5 -1.2 -10.5 -1.25" fill="#999da6" fill-rule="evenodd" stroke="none"/>
    <path d="M-0.3 -4.75 L0.1 -5.05 Q1.05 -5.8 0.95 -6.9 L0.85 -7.4 6.8 -9.6 Q8.65 -10.3 10.6 -10.65 L12.15 -11.25 15.75 -8.65 16.35 -8.15 16.5 -8.0 16.45 -8.0 Q16.05 -7.85 15.75 -7.5 14.85 -6.6 15.1 -5.3 L15.15 -5.25 15.3 -5.05 Q11.25 -5.5 7.2 -5.2 L-0.3 -4.75 M18.35 -4.65 Q18.8 -4.9 18.85 -5.4 L18.8 -6.5 19.2 -6.45 19.2 -6.4 19.35 -6.3 19.3 -6.15 19.15 -5.3 19.05 -4.5 18.35 -4.6 18.35 -4.65 M-6.05 -4.55 L-4.55 -5.45 -3.25 -5.9 Q-3.05 -5.05 -2.35 -4.65 L-6.05 -4.55" fill="#e27c41" fill-rule="evenodd" stroke="none"/>
    <path d="M-0.3 -4.75 L7.2 -5.2 Q11.25 -5.5 15.3 -5.05 16.6 -3.65 18.35 -4.65 L18.35 -4.6 19.05 -4.5 18.95 -3.55 18.9 -3.5 18.9 -3.2 18.85 -3.05 18.8 -3.0 18.7 -2.95 18.65 -2.95 18.6 -2.75 -7.7 -2.65 -7.85 -3.5 -6.05 -4.55 -2.35 -4.65 -1.05 -4.45 -0.7 -4.45 -0.3 -4.75" fill="#eba074" fill-rule="evenodd" stroke="none"/>
    <path d="M11.45 3.85 L11.55 4.0 11.45 4.05 11.45 3.85 M-4.65 1.15 L-4.65 1.25 -4.7 1.25 -4.75 1.15 -4.65 1.15 M2.25 4.05 L2.35 3.85 2.35 4.1 2.25 4.05" fill="#66cc66" fill-rule="evenodd" stroke="none"/>
  </g>
</svg>
