<?xml version="1.0" encoding="UTF-8" standalone="no"?>
<svg xmlns:xlink="http://www.w3.org/1999/xlink" height="44.0px" width="36.6px" xmlns="http://www.w3.org/2000/svg">
  <g transform="matrix(1.0, 0.0, 0.0, 1.0, 21.55, 20.6)">
    <path d="M11.35 -14.35 L10.45 -15.25 Q7.05 -18.5 2.25 -19.15 -1.0 -19.4 -3.85 -17.75 -11.1 -13.55 -13.85 -5.5 L-11.9 -6.45 Q-2.75 -10.65 6.6 -8.1 11.0 -6.95 13.6 -3.1 L13.8 -5.7 Q14.25 -10.6 11.35 -14.35 M15.05 -10.25 L14.8 -2.6 Q14.4 5.85 11.45 13.55 L13.3 15.25 12.75 16.5 12.95 17.15 10.05 19.3 6.8 20.0 6.65 21.95 3.1 21.05 2.1 22.3 -1.25 21.95 -1.8 22.85 -3.0 23.05 -4.6 21.55 -6.1 22.65 -7.95 21.55 -8.75 22.7 Q-9.45 23.7 -10.35 23.3 L-11.45 21.15 -11.95 21.8 Q-12.75 23.3 -14.15 23.3 L-14.85 22.55 -15.3 20.75 -19.0 22.5 -18.65 19.15 -21.5 18.45 -21.5 17.75 Q-21.35 17.1 -20.9 16.8 -19.35 15.55 -19.35 14.1 L-18.35 13.05 -18.45 10.75 Q-18.6 6.3 -17.55 1.95 -16.4 -2.85 -14.4 -7.15 -12.15 -11.95 -8.75 -15.95 -5.35 -19.8 -0.25 -20.55 4.45 -21.0 8.3 -18.25 12.8 -15.1 15.05 -10.25 M9.15 11.1 L0.8 10.0 -17.2 10.7 -17.4 12.7 -13.55 12.9 -12.35 12.0 -9.6 12.6 -8.65 12.0 -5.5 13.6 -5.25 12.25 -2.9 12.65 Q-1.55 12.95 -0.55 13.9 L0.1 12.4 2.65 14.25 3.15 13.15 5.1 12.6 5.85 14.55 7.9 12.05 10.2 13.2 10.85 11.0 9.15 11.1 M10.9 10.9 L11.4 9.25 10.1 8.55 Q6.75 6.5 2.95 5.45 -1.4 4.35 -6.25 4.75 L-11.0 5.05 -13.85 5.4 Q-15.75 5.5 -16.8 6.4 L-17.1 9.8 -7.0 8.75 0.95 9.05 Q6.0 9.45 10.9 10.9 M11.45 9.1 L12.7 3.95 Q10.2 2.3 7.5 1.2 2.0 -1.05 -3.85 -1.1 -10.05 -1.15 -15.95 0.85 L-16.65 5.05 -13.65 4.45 -7.0 3.85 2.2 4.45 Q5.15 5.15 8.0 6.15 10.25 7.0 11.45 9.1 M13.6 -2.7 Q12.6 -2.8 11.9 -4.1 11.15 -5.4 9.75 -6.1 3.45 -9.2 -3.65 -7.9 -9.3 -6.85 -14.35 -4.3 L-15.65 -0.35 -8.9 -2.1 Q-0.55 -3.0 7.2 -0.2 10.5 0.95 12.85 3.25 L13.55 -2.3 13.6 -2.7 M9.6 15.4 L8.3 13.25 5.65 16.4 4.2 13.7 2.9 16.3 2.25 16.2 0.7 13.85 0.5 15.75 0.0 16.1 -4.2 13.3 -4.1 14.6 -4.65 15.25 Q-6.55 14.35 -8.5 13.4 L-8.85 14.95 Q-10.55 14.1 -12.35 13.85 L-12.6 14.25 -13.3 14.55 -16.6 14.25 -20.4 17.6 -16.05 18.1 -17.7 20.7 -14.4 19.85 -13.85 21.85 -11.8 19.7 Q-10.7 19.75 -10.35 20.85 L-10.05 21.95 -8.3 19.7 -5.8 21.25 -4.7 19.7 -2.35 21.55 -2.1 19.95 -1.55 19.65 1.65 21.05 2.0 19.3 5.6 20.35 5.2 18.95 10.85 17.0 10.5 16.1 11.45 15.1 10.25 15.5 9.6 15.4" fill="#000000" fill-rule="evenodd" stroke="none"/>
    <path d="M11.35 -14.35 Q14.25 -10.6 13.8 -5.7 L13.6 -3.1 Q11.0 -6.95 6.6 -8.1 -2.75 -10.65 -11.9 -6.45 L-13.85 -5.5 Q-11.1 -13.55 -3.85 -17.75 -1.0 -19.4 2.25 -19.15 7.05 -18.5 10.45 -15.25 L11.35 -14.35 M13.6 -2.7 L13.55 -2.3 12.85 3.25 Q10.5 0.95 7.2 -0.2 -0.55 -3.0 -8.9 -2.1 L-15.65 -0.35 -14.35 -4.3 Q-9.3 -6.85 -3.65 -7.9 3.45 -9.2 9.75 -6.1 11.15 -5.4 11.9 -4.1 12.6 -2.8 13.6 -2.7 M11.45 9.1 Q10.25 7.0 8.0 6.15 5.15 5.15 2.2 4.45 L-7.0 3.85 -13.65 4.45 -16.65 5.05 -15.95 0.85 Q-10.05 -1.15 -3.85 -1.1 2.0 -1.05 7.5 1.2 10.2 2.3 12.7 3.95 L11.45 9.1 M10.9 10.9 Q6.0 9.45 0.95 9.05 L-7.0 8.75 -17.1 9.8 -16.8 6.4 Q-15.75 5.5 -13.85 5.4 L-11.0 5.05 -6.25 4.75 Q-1.4 4.35 2.95 5.45 6.75 6.5 10.1 8.55 L11.4 9.25 10.9 10.9 M9.15 11.1 L10.85 11.0 10.2 13.2 7.9 12.05 5.85 14.55 5.1 12.6 3.15 13.15 2.65 14.25 0.1 12.4 -0.55 13.9 Q-1.55 12.95 -2.9 12.65 L-5.25 12.25 -5.5 13.6 -8.65 12.0 -9.6 12.6 -12.35 12.0 -13.55 12.9 -17.4 12.7 -17.2 10.7 0.8 10.0 9.15 11.1" fill="#555555" fill-rule="evenodd" stroke="none"/>
    <path d="M9.6 15.4 L10.25 15.5 11.45 15.1 10.5 16.1 10.85 17.0 5.2 18.95 5.6 20.35 2.0 19.3 1.65 21.05 -1.55 19.65 -2.1 19.95 -2.35 21.55 -4.7 19.7 -5.8 21.25 -8.3 19.7 -10.05 21.95 -10.35 20.85 Q-10.7 19.75 -11.8 19.7 L-13.85 21.85 -14.4 19.85 -17.7 20.7 -16.05 18.1 -20.4 17.6 -16.6 14.25 -13.3 14.55 -12.6 14.25 -12.35 13.85 Q-10.55 14.1 -8.85 14.95 L-8.5 13.4 Q-6.55 14.35 -4.65 15.25 L-4.1 14.6 -4.2 13.3 0.0 16.1 0.5 15.75 0.7 13.85 2.25 16.2 2.9 16.3 4.2 13.7 5.65 16.4 8.3 13.25 9.6 15.4" fill="#534b37" fill-rule="evenodd" stroke="none"/>
  </g>
</svg>
