<?xml version="1.0" encoding="UTF-8" standalone="no"?>
<svg xmlns:xlink="http://www.w3.org/1999/xlink" height="35.7px" width="35.75px" xmlns="http://www.w3.org/2000/svg">
  <g transform="matrix(1.0, 0.0, 0.0, 1.0, 17.9, 17.85)">
    <path d="M9.6 -4.35 L9.5 -2.7 13.65 -3.4 14.2 -5.65 9.6 -4.35 M8.4 -1.85 L8.5 -3.75 Q4.9 -7.55 -0.2 -8.8 L-0.35 -5.65 Q4.6 -4.9 8.4 -1.85 M9.6 -1.85 L9.25 -0.2 13.25 -0.55 13.8 -2.7 9.6 -1.85 M8.2 -0.05 L7.9 -1.4 Q4.25 -4.25 -0.3 -4.65 L0.2 -2.2 Q4.4 -2.15 8.2 -0.05 M9.1 0.55 L8.9 1.5 13.05 3.0 13.05 0.05 9.1 0.55 M8.0 1.3 L7.95 0.35 Q4.1 -1.2 0.05 -0.85 L0.2 -0.7 0.15 1.7 2.9 0.9 8.0 1.3 M8.7 -4.85 L8.85 -7.15 -0.75 -13.25 -0.35 -9.95 -0.15 -10.0 Q4.85 -8.3 8.7 -4.85 M9.55 -7.05 L9.6 -4.9 10.65 -5.65 14.25 -6.3 14.1 -9.1 9.55 -7.05 M13.9 -9.8 L13.6 -10.35 Q12.95 -11.0 12.55 -11.75 11.6 -13.5 9.7 -14.5 4.35 -17.2 -1.65 -16.45 L-0.95 -14.05 9.25 -8.2 13.9 -9.8 M15.5 -8.9 L16.3 -5.1 16.35 -4.5 15.6 4.3 15.2 9.15 16.05 9.15 15.45 10.55 16.7 11.55 15.65 12.05 17.65 14.5 16.15 15.3 17.85 16.85 15.6 17.5 15.1 17.85 13.55 16.65 10.45 16.2 9.6 17.3 8.1 15.8 6.6 16.2 Q5.7 16.1 5.15 15.05 L3.5 16.7 1.65 15.35 1.35 15.8 0.75 16.45 0.45 16.65 0.1 16.8 -0.3 16.8 Q-1.2 16.9 -1.35 16.05 L-3.65 15.25 -5.3 16.5 -5.95 16.2 -6.65 16.95 -7.4 17.15 -9.1 15.8 -9.55 16.25 -10.55 16.65 -11.75 16.85 -12.0 16.4 -14.15 17.1 -15.15 16.4 -15.2 15.9 -15.4 15.55 -15.5 15.65 -17.15 15.4 -16.6 13.5 -17.9 12.8 -17.15 11.8 Q-15.9 10.35 -13.95 9.65 L-14.15 8.3 -13.3 6.75 -14.1 5.55 -13.35 -1.6 -12.85 -2.05 -13.25 -2.7 -12.6 -6.05 -11.25 -7.2 -11.5 -7.95 Q-11.35 -9.55 -10.2 -10.9 L-6.45 -14.1 Q-4.8 -15.2 -3.55 -16.65 -2.4 -17.95 -0.2 -17.85 L5.25 -17.15 Q10.0 -16.4 13.05 -12.9 L15.55 -9.7 15.5 -8.9 M15.35 -6.3 L14.25 0.85 Q13.35 5.1 14.25 9.15 L14.6 9.15 Q14.35 8.1 14.4 7.0 14.7 2.7 15.25 -1.7 15.5 -3.85 15.35 -6.05 L15.35 -6.3 M12.85 5.0 L13.0 3.55 8.7 2.5 8.35 3.0 7.5 2.25 0.15 1.75 0.1 3.5 12.85 5.0 M12.7 6.25 L12.8 5.5 3.35 4.4 0.15 4.55 0.35 5.55 2.7 5.4 7.2 6.0 12.7 6.25 M16.2 14.05 Q14.7 13.35 14.5 11.75 14.45 11.35 13.55 11.0 13.6 9.4 10.8 10.7 L10.55 10.45 8.15 11.1 7.85 9.65 7.45 9.3 4.5 11.55 3.5 9.0 2.05 11.4 -0.9 9.9 -1.4 10.8 -3.65 9.05 -4.5 10.8 -5.95 10.1 -6.8 10.75 -8.05 10.2 -8.0 9.4 -10.35 10.7 -10.85 9.85 -11.6 10.9 Q-14.4 10.05 -16.8 12.4 L-14.45 13.45 -15.7 14.3 -14.25 14.1 -13.95 16.2 -11.6 15.1 -10.8 16.05 -9.0 14.25 -8.05 14.9 -7.75 16.15 -6.3 14.65 -5.2 15.3 -3.5 14.0 -2.4 14.95 -1.2 14.55 0.0 15.6 1.4 13.95 3.75 15.35 4.05 14.4 5.35 13.9 6.9 15.1 8.25 14.55 8.85 14.85 9.4 15.35 14.5 15.75 15.15 16.5 14.9 14.95 16.2 14.05 M12.05 9.6 L12.75 9.6 12.6 7.5 0.05 6.25 0.0 9.05 -0.05 9.2 -0.35 9.35 1.25 10.4 2.6 8.25 4.7 8.75 5.45 10.15 6.7 8.6 7.6 8.25 8.5 8.8 8.95 9.75 11.7 8.95 12.05 9.6 M-11.1 -2.2 L-11.7 -1.35 -12.65 2.85 Q-7.45 -0.45 -1.25 -1.15 L-1.3 -1.25 -1.45 -4.4 -11.1 -2.2 M-10.15 -8.2 L-9.95 -7.15 -11.45 -5.35 -11.55 -2.8 -1.75 -5.5 -1.4 -9.45 -10.15 -8.2 M-4.85 -10.45 L-1.4 -10.1 -2.3 -14.95 -2.95 -15.45 -9.1 -9.75 -4.85 -10.45 M-8.2 5.45 L-6.8 5.25 -5.8 5.1 -0.75 5.75 -1.15 -0.25 -8.05 1.55 Q-10.5 2.4 -12.75 3.65 L-12.8 5.1 -12.1 5.85 -12.1 5.9 -9.65 5.55 -8.2 5.45 M-8.35 8.35 L-7.35 7.95 -6.75 9.05 -5.0 9.3 -4.3 8.1 -1.45 8.6 -0.95 8.9 -0.7 6.15 -0.75 6.15 -7.55 6.3 -8.25 6.35 -12.2 6.2 -12.9 8.85 -13.0 8.9 -12.9 9.05 -12.05 9.75 -11.0 8.9 -9.6 9.35 -8.35 8.35" fill="#000000" fill-rule="evenodd" stroke="none"/>
    <path d="M13.9 -9.8 L9.25 -8.2 -0.95 -14.05 -1.65 -16.45 Q4.35 -17.2 9.7 -14.5 11.6 -13.5 12.55 -11.75 12.95 -11.0 13.6 -10.35 L13.9 -9.8 M9.55 -7.05 L14.1 -9.1 14.25 -6.3 10.65 -5.65 9.6 -4.9 9.55 -7.05 M8.7 -4.85 Q4.85 -8.3 -0.15 -10.0 L-0.35 -9.95 -0.75 -13.25 8.85 -7.15 8.7 -4.85 M8.0 1.3 L2.9 0.9 0.15 1.7 0.2 -0.7 0.05 -0.85 Q4.1 -1.2 7.95 0.35 L8.0 1.3 M9.1 0.55 L13.05 0.05 13.05 3.0 8.9 1.5 9.1 0.55 M8.2 -0.05 Q4.4 -2.15 0.2 -2.2 L-0.3 -4.65 Q4.25 -4.25 7.9 -1.4 L8.2 -0.05 M9.6 -1.85 L13.8 -2.7 13.25 -0.55 9.25 -0.2 9.6 -1.85 M8.4 -1.85 Q4.6 -4.9 -0.35 -5.65 L-0.2 -8.8 Q4.9 -7.55 8.5 -3.75 L8.4 -1.85 M9.6 -4.35 L14.2 -5.65 13.65 -3.4 9.5 -2.7 9.6 -4.35 M12.85 5.0 L0.1 3.5 0.15 1.75 7.5 2.25 8.35 3.0 8.7 2.5 13.0 3.55 12.85 5.0 M12.05 9.6 L11.7 8.95 8.95 9.75 8.5 8.8 7.6 8.25 6.7 8.6 5.45 10.15 4.7 8.75 2.6 8.25 1.25 10.4 -0.35 9.35 -0.05 9.2 0.0 9.05 0.05 6.25 12.6 7.5 12.75 9.6 12.05 9.6" fill="#831701" fill-rule="evenodd" stroke="none"/>
    <path d="M15.35 -6.3 L15.35 -6.05 Q15.5 -3.85 15.25 -1.7 14.7 2.7 14.4 7.0 14.35 8.1 14.6 9.15 L14.25 9.15 Q13.35 5.1 14.25 0.85 L15.35 -6.3 M-8.05 1.55 L-1.15 -0.25 -0.75 5.75 -5.8 5.1 -6.8 5.25 -8.2 5.45 -8.05 1.55 M-8.25 6.35 L-7.55 6.3 -0.75 6.15 -0.7 6.15 -0.95 8.9 -1.45 8.6 -4.3 8.1 -5.0 9.3 -6.75 9.05 -7.35 7.95 -8.35 8.35 -8.25 6.35 M-12.9 9.05 L-13.0 8.9 -12.9 8.85 -12.9 9.05" fill="#666666" fill-rule="evenodd" stroke="none"/>
    <path d="M12.7 6.25 L7.2 6.0 2.7 5.4 0.35 5.55 0.15 4.55 3.35 4.4 12.8 5.5 12.7 6.25 M-4.85 -10.45 L-9.1 -9.75 -2.95 -15.45 -2.3 -14.95 -1.4 -10.1 -4.85 -10.45 M-10.15 -8.2 L-1.4 -9.45 -1.75 -5.5 -11.55 -2.8 -11.45 -5.35 -9.95 -7.15 -10.15 -8.2 M-11.1 -2.2 L-1.45 -4.4 -1.3 -1.25 -1.25 -1.15 Q-7.45 -0.45 -12.65 2.85 L-11.7 -1.35 -11.1 -2.2 M-8.2 5.45 L-9.65 5.55 -12.1 5.9 -12.1 5.85 -12.8 5.1 -12.75 3.65 Q-10.5 2.4 -8.05 1.55 L-8.2 5.45 M-8.35 8.35 L-9.6 9.35 -11.0 8.9 -12.05 9.75 -12.9 9.05 -12.9 8.85 -12.2 6.2 -8.25 6.35 -8.35 8.35" fill="#555555" fill-rule="evenodd" stroke="none"/>
    <path d="M16.2 14.05 L14.9 14.95 15.15 16.5 14.5 15.75 9.4 15.35 8.85 14.85 8.25 14.55 6.9 15.1 5.35 13.9 4.05 14.4 3.75 15.35 1.4 13.95 0.0 15.6 -1.2 14.55 -2.4 14.95 -3.5 14.0 -5.2 15.3 -6.3 14.65 -7.75 16.15 -8.05 14.9 -9.0 14.25 -10.8 16.05 -11.6 15.1 -13.95 16.2 -14.25 14.1 -15.7 14.3 -14.45 13.45 -16.8 12.4 Q-14.4 10.05 -11.6 10.9 L-10.85 9.85 -10.35 10.7 -8.0 9.4 -8.05 10.2 -6.8 10.75 -5.95 10.1 -4.5 10.8 -3.65 9.05 -1.4 10.8 -0.9 9.9 2.05 11.4 3.5 9.0 4.5 11.55 7.45 9.3 7.85 9.65 8.15 11.1 10.55 10.45 10.8 10.7 Q13.6 9.4 13.55 11.0 14.45 11.35 14.5 11.75 14.7 13.35 16.2 14.05" fill="#534b37" fill-rule="evenodd" stroke="none"/>
  </g>
</svg>
