<?xml version="1.0" encoding="UTF-8" standalone="no"?>
<svg xmlns:xlink="http://www.w3.org/1999/xlink" height="59.95px" width="48.05px" xmlns="http://www.w3.org/2000/svg">
  <g transform="matrix(1.0, 0.0, 0.0, 1.0, 25.85, 36.65)">
    <path d="M9.7 -11.15 L10.2 -8.75 Q10.25 -7.4 9.9 -5.85 L9.75 -5.4 7.75 -2.4 Q6.25 -1.05 4.6 -0.55 2.35 0.0 -0.15 -0.95 -1.8 -1.35 -3.05 -2.6 -3.9 -3.5 -4.55 -4.8 L-5.3 -6.55 Q-5.65 -7.5 -5.35 -8.4 L-5.0 -9.3 Q-4.25 -14.95 1.9 -15.95 4.65 -16.55 6.8 -14.85 8.85 -13.2 9.7 -11.15 M13.05 22.0 L15.95 21.45 16.0 19.05 4.3 16.5 4.5 15.9 4.75 15.95 6.6 -0.5 6.75 -0.55 6.7 -0.7 Q11.7 -5.2 17.6 -3.3 L18.1 -3.5 Q18.4 -3.15 18.8 -2.95 L19.0 -3.15 18.6 -6.05 Q17.95 -7.6 16.4 -8.6 L13.65 -9.85 16.3 -9.3 18.85 -7.35 18.1 -8.75 17.8 -9.8 16.8 -11.3 18.1 -10.75 14.75 -25.25 11.95 -26.65 0.9 -29.25 -7.65 -29.5 1.1 -30.6 Q-2.6 -33.6 -7.35 -34.25 L-7.55 -33.8 -8.25 -30.95 -7.35 -29.65 Q-8.55 -30.2 -9.6 -30.85 -10.8 -31.7 -12.05 -32.25 -18.25 -34.7 -25.1 -35.9 L-25.75 -36.65 Q-16.45 -36.75 -9.05 -31.9 L-8.05 -36.05 -8.05 -36.1 Q-1.65 -35.05 2.8 -30.55 L6.05 -30.1 Q11.3 -29.0 15.65 -26.15 L16.05 -25.5 15.9 -24.95 18.95 -14.25 Q20.3 -13.45 21.1 -11.9 23.65 -6.8 20.3 -2.15 L19.4 -1.15 18.9 2.15 17.4 2.7 17.9 18.6 17.5 19.15 17.8 20.9 Q18.05 22.15 17.1 23.25 3.4 23.9 -9.9 18.35 L-10.45 18.7 -12.7 18.0 -13.5 19.8 -16.3 18.6 -18.35 16.95 -19.6 17.0 -20.3 16.1 -21.65 15.8 -22.35 14.9 -22.1 13.25 -23.5 11.75 -22.95 10.85 -23.45 10.25 -23.45 8.75 -22.15 7.75 -22.45 6.85 -20.8 5.55 Q-21.75 -10.8 -20.35 -27.0 -22.9 -29.8 -25.05 -32.8 -26.55 -34.9 -25.15 -35.8 L-18.5 -27.05 -19.4 -26.35 -19.45 6.25 -19.5 7.05 -22.45 9.45 -20.05 10.3 -21.85 11.6 -19.65 12.3 -20.8 14.45 -19.3 13.1 -18.8 13.4 -19.05 14.9 -19.05 15.05 -18.8 14.95 -18.4 14.8 -16.8 16.8 -15.7 15.5 -15.2 15.8 -13.9 18.2 -13.6 16.4 -12.7 16.4 -11.75 17.1 -10.65 17.0 -9.85 16.4 -9.15 16.9 -6.75 16.95 -6.45 17.5 -7.45 18.05 -6.45 18.35 13.05 22.0 M5.55 -13.9 Q4.2 -14.65 2.55 -14.65 -0.05 -14.65 -1.85 -12.8 -3.3 -11.4 -3.6 -9.45 L-3.7 -8.4 Q-3.7 -5.8 -1.85 -3.95 -0.1 -2.2 2.45 -2.15 L2.55 -2.15 Q5.15 -2.15 7.0 -3.95 8.8 -5.8 8.8 -8.4 L8.6 -10.1 Q8.15 -11.65 7.0 -12.8 L5.55 -13.9 M19.4 -11.05 L19.25 -11.25 19.1 -9.85 19.55 -9.05 19.75 -8.3 19.6 -6.3 19.6 -6.1 19.45 -6.05 19.7 -4.9 19.7 -4.3 20.1 -5.35 Q20.95 -8.4 19.55 -11.05 L19.35 -11.35 19.4 -11.05 M17.1 -2.6 L17.2 -2.8 17.1 -2.8 Q12.0 -3.3 7.75 -0.5 L7.3 4.35 7.65 4.35 9.75 4.75 9.55 12.0 12.9 11.45 14.05 2.15 16.9 0.85 17.1 0.8 17.4 0.95 17.45 1.0 17.8 -1.4 17.1 -2.6 M16.3 3.05 L15.55 2.95 15.0 3.2 13.25 11.7 13.45 12.6 9.85 13.7 9.25 14.25 8.25 13.9 8.45 6.65 8.2 5.85 7.65 5.35 5.9 16.2 16.15 17.2 16.3 3.05 M-16.45 -30.0 L-17.3 -30.15 -14.0 -26.5 -13.8 -26.25 Q-12.75 -26.1 -12.4 -27.25 L-11.8 -27.55 -12.8 -28.3 -10.65 -27.35 -13.1 -24.7 -13.9 -24.6 -18.1 -30.75 -16.45 -30.0 M-3.7 3.55 Q-5.8 2.4 -4.75 2.9 L-0.6 3.7 -3.7 3.55 M-4.25 0.85 Q-7.5 -1.05 -6.65 -3.15 -3.45 2.2 2.6 1.3 -0.9 2.9 -4.25 0.85" fill="#000000" fill-rule="evenodd" stroke="none"/>
    <path d="M0.9 -29.25 L3.4 -26.1 Q-5.4 -26.45 -12.55 -21.65 L-15.6 -19.3 -15.95 7.7 Q-17.65 6.85 -19.45 6.25 L-19.4 -26.35 -18.5 -27.05 -25.15 -35.8 -25.1 -35.9 Q-18.25 -34.7 -12.05 -32.25 -10.8 -31.7 -9.6 -30.85 -8.55 -30.2 -7.35 -29.65 L-8.25 -30.95 -7.55 -33.8 -7.35 -34.25 Q-2.6 -33.6 1.1 -30.6 L-7.65 -29.5 0.9 -29.25 M5.4 19.3 L13.05 22.0 -6.45 18.35 Q-6.25 16.8 -6.9 15.3 L5.4 19.3 M18.6 -6.05 L16.55 -6.7 16.4 -8.6 Q17.95 -7.6 18.6 -6.05 M16.3 -9.3 L15.9 -12.4 Q15.0 -20.0 11.95 -26.65 L14.75 -25.25 18.1 -10.75 16.8 -11.3 17.8 -9.8 18.1 -8.75 18.85 -7.35 16.3 -9.3 M-16.45 -30.0 L-18.1 -30.75 -13.9 -24.6 -13.1 -24.7 -10.65 -27.35 -12.8 -28.3 Q-14.55 -29.55 -16.45 -30.0" fill="#b42001" fill-rule="evenodd" stroke="none"/>
    <path d="M3.4 -26.1 L0.9 -29.25 11.95 -26.65 Q15.0 -20.0 15.9 -12.4 L16.3 -9.3 13.65 -9.85 16.4 -8.6 16.55 -6.7 18.6 -6.05 19.0 -3.15 18.8 -2.95 Q18.4 -3.15 18.1 -3.5 L17.6 -3.3 Q11.7 -5.2 6.7 -0.7 L6.6 -0.5 4.75 15.95 4.5 15.9 4.3 16.5 16.0 19.05 15.95 21.45 13.05 22.0 5.4 19.3 2.9 17.8 4.6 -0.55 Q6.25 -1.05 7.75 -2.4 L9.75 -5.4 9.9 -5.85 Q10.25 -7.4 10.2 -8.75 L9.7 -11.15 9.1 -13.65 Q7.5 -20.45 3.4 -26.1 M-19.45 6.25 Q-17.65 6.85 -15.95 7.7 -12.25 9.5 -9.2 12.3 -7.6 13.75 -6.9 15.3 -6.25 16.8 -6.45 18.35 L-7.45 18.05 -6.45 17.5 -6.75 16.95 -9.15 16.9 -9.85 16.4 -10.65 17.0 -11.75 17.1 -12.7 16.4 -13.6 16.4 -13.9 18.2 -15.2 15.8 -15.7 15.5 -16.8 16.8 -18.4 14.8 -18.8 14.95 -19.05 15.05 -19.05 14.9 -18.8 13.4 -19.3 13.1 -20.8 14.45 -19.65 12.3 -21.85 11.6 -20.05 10.3 -22.45 9.45 -19.5 7.05 -19.45 6.25" fill="#5e2222" fill-rule="evenodd" stroke="none"/>
    <path d="M3.4 -26.1 Q7.5 -20.45 9.1 -13.65 L9.7 -11.15 Q8.85 -13.2 6.8 -14.85 4.65 -16.55 1.9 -15.95 -4.25 -14.95 -5.0 -9.3 L-5.35 -8.4 Q-5.65 -7.5 -5.3 -6.55 L-4.55 -4.8 Q-3.9 -3.5 -3.05 -2.6 -1.8 -1.35 -0.15 -0.95 2.35 0.0 4.6 -0.55 L2.9 17.8 5.4 19.3 -6.9 15.3 Q-7.6 13.75 -9.2 12.3 -12.25 9.5 -15.95 7.7 L-15.6 -19.3 -12.55 -21.65 Q-5.4 -26.45 3.4 -26.1 M-12.8 -28.3 L-11.8 -27.55 -12.4 -27.25 Q-12.75 -26.1 -13.8 -26.25 L-14.0 -26.5 -17.3 -30.15 -16.45 -30.0 Q-14.55 -29.55 -12.8 -28.3 M-3.7 3.55 L-0.6 3.7 -4.75 2.9 Q-5.8 2.4 -3.7 3.55 M-4.25 0.85 Q-0.9 2.9 2.6 1.3 -3.45 2.2 -6.65 -3.15 -7.5 -1.05 -4.25 0.85" fill="#831701" fill-rule="evenodd" stroke="none"/>
    <path d="M5.55 -13.9 L7.0 -12.8 Q8.15 -11.65 8.6 -10.1 L8.8 -8.4 Q8.8 -5.8 7.0 -3.95 5.15 -2.15 2.55 -2.15 L2.45 -2.15 Q-0.1 -2.2 -1.85 -3.95 -3.7 -5.8 -3.7 -8.4 L-3.6 -9.45 Q-3.3 -11.4 -1.85 -12.8 -0.05 -14.65 2.55 -14.65 4.2 -14.65 5.55 -13.9 M6.35 -10.4 L6.65 -10.8 Q7.5 -12.4 4.7 -13.4 L4.05 -13.1 3.9 -13.0 3.3 -12.6 Q2.15 -12.6 1.25 -11.7 L0.5 -10.75 Q-0.55 -9.1 -0.65 -6.8 L-0.65 -6.25 -1.5 -5.55 -1.45 -4.45 -0.15 -3.35 1.35 -4.25 3.35 -3.85 Q6.0 -3.8 6.75 -7.05 7.2 -8.8 6.35 -10.4 M19.55 -11.05 Q20.95 -8.4 20.1 -5.35 L19.7 -4.3 19.7 -4.9 19.45 -6.05 19.6 -6.1 19.6 -6.3 19.75 -8.3 19.55 -9.05 19.1 -9.85 19.25 -11.25 19.4 -11.05 19.55 -11.05" fill="#f5ff2f" fill-rule="evenodd" stroke="none"/>
    <path d="M3.3 -12.6 L3.9 -13.0 4.05 -13.1 4.7 -13.4 Q7.5 -12.4 6.65 -10.8 L6.35 -10.4 6.2 -10.2 5.5 -9.55 Q4.4 -8.75 3.45 -9.7 L2.9 -10.4 Q2.4 -11.25 2.75 -11.9 L3.3 -12.6 M1.35 -4.25 L-0.15 -3.35 -1.45 -4.45 -1.5 -5.55 -0.65 -6.25 -0.2 -6.35 Q1.3 -5.7 1.55 -5.05 1.75 -4.65 1.35 -4.25" fill="#ffffff" fill-rule="evenodd" stroke="none"/>
    <path d="M3.3 -12.6 L2.75 -11.9 Q2.4 -11.25 2.9 -10.4 L3.45 -9.7 Q4.4 -8.75 5.5 -9.55 L6.2 -10.2 6.35 -10.4 Q7.2 -8.8 6.75 -7.05 6.0 -3.8 3.35 -3.85 L1.35 -4.25 Q1.75 -4.65 1.55 -5.05 1.3 -5.7 -0.2 -6.35 L-0.65 -6.25 -0.65 -6.8 Q-0.55 -9.1 0.5 -10.75 L1.25 -11.7 Q2.15 -12.6 3.3 -12.6 M3.95 -9.25 L3.95 -9.2 3.25 -9.0 3.15 -8.95 2.7 -8.45 2.75 -7.9 2.95 -7.4 3.35 -7.2 Q5.05 -6.55 5.0 -8.5 L4.8 -8.7 3.95 -9.25" fill="#a3a201" fill-rule="evenodd" stroke="none"/>
    <path d="M3.95 -9.25 L4.8 -8.7 5.0 -8.5 Q5.05 -6.55 3.35 -7.2 L2.95 -7.4 2.75 -7.9 2.7 -8.45 3.15 -8.95 3.25 -9.0 3.95 -9.2 3.95 -9.25" fill="#6d6d01" fill-rule="evenodd" stroke="none"/>
    <path d="M17.1 -2.8 L17.1 -2.6 17.8 -1.4 17.45 1.0 17.4 0.95 17.1 0.8 16.9 0.85 14.05 2.15 12.9 11.45 9.55 12.0 9.75 4.75 7.65 4.35 7.3 4.35 7.75 -0.5 Q12.0 -3.3 17.1 -2.8 M16.3 3.05 L16.15 17.2 5.9 16.2 7.65 5.35 8.2 5.85 8.45 6.65 8.25 13.9 9.25 14.25 9.85 13.7 13.45 12.6 13.25 11.7 15.0 3.2 15.55 2.95 16.3 3.05" fill="#d6d0b4" fill-rule="evenodd" stroke="none"/>
  </g>
</svg>
