<?xml version="1.0" encoding="UTF-8" standalone="no"?>
<svg xmlns:xlink="http://www.w3.org/1999/xlink" height="60.45px" width="52.7px" xmlns="http://www.w3.org/2000/svg">
  <g transform="matrix(1.0, 0.0, 0.0, 1.0, 25.6, 31.7)">
    <path d="M17.8 -31.35 L19.1 -31.7 Q22.1 -24.3 19.8 -16.25 L19.1 -15.85 19.1 -14.55 Q19.85 -13.45 20.85 -12.6 L23.4 -10.2 Q26.35 -7.45 25.4 -3.5 24.35 0.95 19.65 1.75 L21.15 12.45 26.15 14.75 26.1 15.8 27.1 19.25 27.0 19.45 26.6 19.7 25.8 19.4 24.9 19.1 Q24.5 19.15 24.3 19.35 L24.5 19.55 24.8 20.7 24.65 20.85 23.4 21.35 22.0 20.9 22.35 25.25 20.05 24.4 20.3 26.15 18.5 26.6 Q11.3 28.65 3.9 28.75 -4.8 28.85 -12.55 24.8 L-13.3 25.25 -14.65 24.05 -15.65 24.8 -16.85 24.45 -17.3 24.15 -17.7 23.45 -18.85 24.15 -20.0 23.45 -19.95 21.55 -21.25 21.9 -21.85 21.8 -22.5 21.4 -21.55 18.6 -23.2 18.25 -23.5 17.75 Q-21.65 15.25 -18.75 14.5 L-17.75 3.1 Q-23.8 1.95 -25.4 -4.2 -25.95 -6.35 -24.85 -8.2 -22.7 -11.9 -18.85 -13.45 L-18.85 -14.2 -18.5 -14.75 Q-18.25 -18.25 -20.05 -21.3 -22.65 -25.75 -24.75 -30.45 L-24.55 -30.75 -22.2 -30.1 Q-15.05 -27.8 -9.8 -22.65 L-7.45 -23.85 Q1.6 -26.7 10.65 -23.6 L11.25 -24.7 Q13.6 -28.9 17.8 -31.35 M16.2 10.5 L19.65 11.75 16.55 -12.05 19.2 -0.5 Q21.65 -3.25 21.85 -6.1 L22.1 -5.25 Q22.35 -1.3 19.35 1.0 24.2 -0.65 23.85 -6.1 23.7 -8.65 21.5 -10.1 17.65 -12.55 17.75 -17.1 L18.5 -17.55 Q19.6 -23.95 18.5 -30.45 13.7 -26.8 10.9 -21.65 L10.0 -22.0 10.55 -23.3 8.55 -23.25 2.75 -23.95 Q-4.65 -24.0 -10.95 -21.1 L-10.35 -22.3 Q-15.8 -27.05 -23.1 -29.05 L-16.7 -17.8 -17.3 -12.25 -21.8 -9.65 Q-23.5 -8.45 -23.6 -6.65 -24.05 -0.3 -17.95 1.65 -21.3 -0.2 -21.95 -4.1 -22.45 -6.95 -20.9 -7.0 L-21.4 -6.2 Q-21.15 -1.8 -17.6 0.65 L-15.85 -10.45 -15.7 -10.2 -15.95 -4.3 Q-16.1 -1.45 -16.55 1.4 -16.95 4.05 -16.55 7.7 L-17.05 8.1 -16.8 12.25 -15.4 12.9 -14.4 11.1 Q-12.45 11.8 -11.4 14.15 L-9.8 14.75 -9.05 18.8 -8.15 17.9 -7.3 18.0 -6.3 20.45 -2.95 20.55 -3.25 22.85 -1.9 22.25 0.6 23.7 Q1.7 22.4 3.5 22.85 L6.85 19.25 8.1 20.15 8.55 18.75 Q9.2 18.4 9.15 17.8 L8.95 17.45 Q10.4 13.45 15.5 12.7 13.55 11.9 14.1 10.55 L16.2 10.5 M25.0 17.75 L24.15 17.3 Q22.05 16.4 22.5 14.75 L19.8 13.55 19.75 12.65 15.6 11.5 17.55 13.05 Q13.4 13.8 10.25 16.55 L13.35 16.2 9.6 19.25 9.65 19.8 7.85 21.85 7.0 21.65 7.0 21.4 7.0 21.15 6.9 20.75 6.55 20.55 6.2 22.3 5.1 22.35 4.15 24.4 3.75 24.65 3.4 24.4 3.15 23.95 1.65 24.15 0.95 25.3 -0.15 25.05 -0.65 23.7 -1.8 23.1 -2.35 23.7 Q-3.25 24.7 -4.05 23.85 L-3.9 21.15 Q-6.15 21.4 -7.75 22.95 L-7.9 19.15 -8.6 19.85 -8.95 20.9 -10.05 21.0 -10.75 15.35 -11.6 18.55 Q-13.05 18.95 -12.8 17.15 -12.45 14.2 -13.9 12.8 L-14.15 14.3 -15.0 15.0 -16.45 13.8 -17.35 14.05 -17.55 16.05 -19.85 16.2 -20.7 16.9 -19.5 17.5 -20.35 20.4 -18.35 19.55 -18.35 22.35 -17.9 21.15 -17.25 20.9 -16.6 21.05 -16.2 23.3 -15.7 22.9 -15.4 22.0 -14.8 21.8 -14.2 22.0 -13.25 23.2 Q-4.9 27.2 4.55 26.85 11.75 26.35 18.85 24.8 L19.0 23.1 21.15 23.3 21.3 19.8 22.5 19.3 22.35 17.75 25.0 17.75" fill="#000000" fill-rule="evenodd" stroke="none"/>
    <path d="M-14.4 11.1 L-15.4 12.9 -16.8 12.25 -17.05 8.1 -16.55 7.7 Q-16.95 4.05 -16.55 1.4 -16.1 -1.45 -15.95 -4.3 L-15.7 -10.2 -15.85 -10.45 -17.6 0.65 Q-21.15 -1.8 -21.4 -6.2 L-20.9 -7.0 Q-22.45 -6.95 -21.95 -4.1 -21.3 -0.2 -17.95 1.65 -24.05 -0.3 -23.6 -6.65 -23.5 -8.45 -21.8 -9.65 L-17.3 -12.25 -16.7 -17.8 -23.1 -29.05 Q-15.8 -27.05 -10.35 -22.3 L-10.95 -21.1 Q-4.65 -24.0 2.75 -23.95 L8.55 -23.25 10.55 -23.3 10.0 -22.0 10.9 -21.65 Q13.7 -26.8 18.5 -30.45 19.6 -23.95 18.5 -17.55 L17.75 -17.1 Q17.65 -12.55 21.5 -10.1 23.7 -8.65 23.85 -6.1 24.2 -0.65 19.35 1.0 22.35 -1.3 22.1 -5.25 L21.85 -6.1 Q21.65 -3.25 19.2 -0.5 L16.55 -12.05 19.65 11.75 16.2 10.5 17.0 10.6 13.7 -6.75 11.4 -16.85 Q11.05 -18.15 9.65 -18.85 3.0 -22.15 -4.4 -20.55 -8.8 -19.65 -10.55 -16.15 -12.65 -11.95 -13.3 -7.05 -14.5 2.0 -14.4 11.1" fill="#b42001" fill-rule="evenodd" stroke="none"/>
    <path d="M25.0 17.75 L22.35 17.75 22.5 19.3 21.3 19.8 21.15 23.3 19.0 23.1 18.85 24.8 Q11.75 26.35 4.55 26.85 -4.9 27.2 -13.25 23.2 L-14.2 22.0 -14.8 21.8 -15.4 22.0 -15.7 22.9 -16.2 23.3 -16.6 21.05 -17.25 20.9 -17.9 21.15 -18.35 22.35 -18.35 19.55 -20.35 20.4 -19.5 17.5 -20.7 16.9 -19.85 16.2 -17.55 16.05 -17.35 14.05 -16.45 13.8 -15.0 15.0 -14.15 14.3 -13.9 12.8 Q-12.45 14.2 -12.8 17.15 -13.05 18.95 -11.6 18.55 L-10.75 15.35 -10.05 21.0 -8.95 20.9 -8.6 19.85 -7.9 19.15 -7.75 22.95 Q-6.15 21.4 -3.9 21.15 L-4.05 23.85 Q-3.25 24.7 -2.35 23.7 L-1.8 23.1 -0.65 23.7 -0.15 25.05 0.95 25.3 1.65 24.15 3.15 23.95 3.4 24.4 3.75 24.65 4.15 24.4 5.1 22.35 6.2 22.3 6.55 20.55 6.9 20.75 7.0 21.15 7.0 21.4 7.0 21.65 7.85 21.85 9.65 19.8 9.6 19.25 13.35 16.2 10.25 16.55 Q13.4 13.8 17.55 13.05 L15.6 11.5 19.75 12.65 19.8 13.55 22.5 14.75 Q22.05 16.4 24.15 17.3 L25.0 17.75" fill="#5e2222" fill-rule="evenodd" stroke="none"/>
    <path d="M16.2 10.5 L14.1 10.55 Q13.55 11.9 15.5 12.7 10.4 13.45 8.95 17.45 L9.15 17.8 Q9.2 18.4 8.55 18.75 L8.1 20.15 6.85 19.25 3.5 22.85 Q1.7 22.4 0.6 23.7 L-1.9 22.25 -3.25 22.85 -2.95 20.55 -6.3 20.45 -7.3 18.0 -8.15 17.9 -9.05 18.8 -9.8 14.75 -11.4 14.15 Q-12.45 11.8 -14.4 11.1 -14.5 2.0 -13.3 -7.05 -12.65 -11.95 -10.55 -16.15 -8.8 -19.65 -4.4 -20.55 3.0 -22.15 9.65 -18.85 11.05 -18.15 11.4 -16.85 L13.7 -6.75 17.0 10.6 16.2 10.5" fill="#831701" fill-rule="evenodd" stroke="none"/>
  </g>
</svg>
