<?xml version="1.0" encoding="UTF-8" standalone="no"?>
<svg xmlns:xlink="http://www.w3.org/1999/xlink" height="63.85px" width="58.9px" xmlns="http://www.w3.org/2000/svg">
  <g transform="matrix(1.0, 0.0, 0.0, 1.0, 27.6, 54.85)">
    <path d="M24.55 -23.05 L24.6 -23.5 24.4 -23.6 Q24.65 -27.4 24.4 -31.1 L24.3 -31.35 24.3 -31.6 24.35 -31.7 23.95 -35.05 23.75 -36.05 22.15 -42.1 22.0 -41.9 21.75 -42.05 Q20.85 -44.15 19.45 -46.25 17.7 -48.95 15.3 -51.25 12.85 -53.6 9.45 -53.25 L12.3 -45.15 16.65 -44.0 17.45 -43.45 17.05 -42.95 11.55 -43.45 8.65 -43.95 -1.5 -45.5 -7.65 -45.75 -8.25 -46.85 -9.3 -47.8 -11.15 -49.0 -13.25 -50.5 Q-14.35 -51.25 -15.55 -51.85 L-16.8 -52.45 -25.95 -52.8 -16.6 -39.95 -16.85 -30.25 -17.15 -18.6 -17.2 -17.0 -17.3 -15.55 -18.8 -7.05 -20.9 -4.05 -17.05 -4.0 -16.95 -3.1 -18.25 -2.85 -19.35 -1.3 Q-18.65 -0.65 -17.8 -1.65 L-17.3 -2.25 -17.2 -2.3 -16.0 -1.75 -16.55 -0.95 -17.15 1.1 -17.15 1.2 -17.0 1.4 Q-16.65 1.7 -16.5 1.2 L-16.0 0.6 -15.0 -0.8 -14.2 -1.05 -13.45 2.55 -12.75 1.45 -11.45 2.5 Q-11.3 3.65 -10.6 3.8 L-10.2 3.1 -9.5 2.7 -8.9 2.9 -8.65 3.4 -8.1 3.3 Q-6.3 3.65 -4.7 4.4 L0.4 6.4 Q2.75 7.25 5.35 7.45 8.05 7.65 10.8 7.35 L12.9 7.1 18.55 5.95 21.05 4.75 22.1 4.45 23.0 3.25 22.85 1.2 22.85 1.1 22.8 1.2 21.65 2.5 19.45 2.55 12.95 2.65 8.55 2.65 4.15 2.65 -0.45 2.6 Q-2.65 2.35 -4.55 1.55 L-5.2 1.2 -5.85 0.75 -6.45 0.05 Q-6.2 -4.55 -5.4 -9.05 L-4.45 -13.9 -4.05 -15.55 -3.65 -17.0 -2.45 -20.85 Q0.5 -22.6 4.3 -22.9 L5.5 -23.0 8.9 -23.25 11.35 -23.5 12.0 -23.6 14.75 -23.5 Q18.65 -23.25 22.4 -21.9 L22.6 -21.7 22.6 -21.2 22.85 -21.05 22.95 -20.95 23.1 -17.7 23.8 -19.2 23.85 -19.3 24.15 -19.75 24.05 -19.9 24.05 -20.15 24.1 -20.25 24.1 -20.45 24.15 -20.7 24.4 -20.95 24.55 -23.05 M7.8 -54.6 L9.55 -54.75 Q11.25 -54.75 13.0 -53.95 15.35 -53.05 17.05 -51.15 L20.0 -47.45 22.5 -43.55 22.45 -43.45 22.7 -43.5 22.85 -43.55 25.4 -35.05 25.8 -32.05 26.7 -31.75 Q29.1 -31.0 30.25 -29.4 31.05 -28.25 31.25 -26.75 31.4 -25.35 31.05 -23.6 L30.7 -22.45 30.25 -21.5 Q29.1 -19.55 26.7 -19.2 L25.5 -19.15 24.45 -17.0 24.05 -16.15 23.75 -15.55 23.05 -5.7 22.55 -5.15 22.8 -1.65 23.95 -1.05 24.25 1.2 24.15 3.85 24.1 4.35 21.6 6.05 21.4 6.2 20.7 6.4 13.6 8.15 8.85 9.0 6.05 8.55 0.45 7.15 -4.1 5.65 -6.3 4.75 -7.35 4.45 -7.95 5.05 -9.3 4.55 -10.35 5.2 -10.65 5.15 Q-11.2 5.05 -11.65 4.75 L-12.0 4.35 -12.3 3.85 -12.6 3.8 -12.95 3.9 -13.35 4.0 -13.8 4.25 -14.7 3.6 -14.9 2.25 -15.0 2.15 Q-15.6 2.3 -16.1 2.6 -16.5 2.75 -16.8 3.05 L-16.85 3.15 -17.2 3.25 -17.85 2.95 -18.5 2.55 -18.35 0.0 -19.55 0.3 -20.4 -1.35 -19.2 -3.3 -21.95 -2.5 -22.1 -4.05 -19.55 -7.25 -19.05 -15.55 -18.95 -16.7 -18.9 -17.0 Q-18.4 -26.0 -18.2 -35.05 L-18.15 -38.9 -17.65 -39.6 -22.95 -46.75 Q-25.4 -50.2 -27.5 -53.75 L-27.5 -54.4 -24.0 -54.35 -16.45 -53.1 Q-14.35 -52.65 -12.6 -51.6 L-10.25 -50.1 Q-8.7 -49.0 -8.05 -47.55 L-7.6 -47.05 1.55 -46.65 10.6 -45.45 7.8 -54.6 M14.6 -27.5 L18.95 -27.15 19.75 -27.0 20.0 -26.8 20.85 -26.0 21.3 -25.45 21.35 -25.25 21.1 -25.1 Q19.95 -26.2 18.35 -26.25 L14.65 -26.25 11.4 -26.05 Q7.15 -25.7 3.0 -24.7 L1.85 -24.45 3.0 -25.05 Q6.3 -26.7 10.2 -27.05 L11.35 -27.2 13.4 -27.45 14.6 -27.5 M11.3 -28.55 L9.75 -28.35 6.0 -27.5 6.2 -27.75 Q7.45 -28.5 8.85 -28.8 L9.35 -28.9 11.3 -29.25 11.65 -29.4 14.45 -29.25 18.25 -28.95 18.9 -28.8 18.85 -28.65 18.55 -28.4 14.5 -28.75 11.3 -28.55 M28.95 -28.3 L28.25 -29.1 26.7 -30.25 25.9 -30.65 25.95 -27.15 25.65 -23.7 25.6 -23.45 25.65 -22.5 25.65 -21.8 25.7 -21.75 25.7 -20.75 26.7 -20.75 Q28.25 -21.2 29.05 -22.45 L29.25 -22.75 Q29.6 -23.4 29.75 -24.5 L29.85 -25.6 29.85 -25.65 29.7 -26.75 29.4 -27.6 29.0 -28.2 28.95 -28.3 M-1.7 -23.95 Q-1.85 -21.0 -4.2 -19.6 -5.15 -19.05 -6.45 -18.75 -10.85 -17.75 -13.75 -20.45 L-14.5 -21.25 -15.3 -22.3 -15.4 -22.45 Q-17.9 -26.15 -15.35 -29.85 L-14.8 -30.6 -13.8 -31.6 Q-12.1 -33.05 -9.7 -33.4 -2.55 -32.9 -1.75 -25.5 L-1.7 -23.95 M21.5 -19.75 L21.45 -20.5 20.2 -21.4 19.9 -21.5 19.4 -21.65 19.35 -21.65 14.75 -22.05 12.7 -21.95 6.45 -21.4 4.0 -21.0 2.25 -20.7 1.0 -20.45 -0.35 -20.2 -0.9 -20.15 -1.05 -19.9 -1.15 -19.65 -1.4 -19.4 -1.5 -18.95 -1.75 -18.25 -2.15 -17.0 -2.6 -15.55 -2.8 -14.75 -2.5 -14.25 Q-3.65 -12.8 -3.85 -10.75 L-5.0 -2.7 -5.15 -1.8 -5.1 -0.3 -3.15 0.55 -2.65 0.75 0.55 1.2 5.45 1.7 8.15 1.95 12.9 1.4 15.25 1.2 16.45 1.1 21.05 0.55 Q21.65 0.6 21.55 0.2 L21.5 -0.4 21.45 -1.0 21.1 -5.4 21.45 -6.7 Q21.9 -6.6 21.95 -7.1 L22.2 -9.05 22.25 -10.55 22.25 -15.55 22.25 -15.95 22.3 -17.0 Q22.25 -18.4 21.75 -19.7 L21.55 -19.75 21.5 -19.75 M-16.6 -43.8 L-19.1 -49.2 Q-19.25 -49.7 -18.8 -49.35 L-12.2 -44.4 -15.2 -41.0 -16.6 -43.8 M-18.0 -48.1 L-15.15 -42.45 -13.2 -44.45 -18.0 -48.1 M-14.15 -29.05 Q-14.9 -27.45 -14.7 -25.05 -14.5 -23.0 -12.85 -21.6 -8.15 -17.8 -4.2 -22.05 -3.45 -22.9 -3.3 -23.95 L-3.25 -24.05 -3.2 -24.2 Q-2.8 -27.65 -4.5 -30.0 L-5.55 -31.0 -6.6 -31.85 -7.55 -31.95 -9.25 -31.95 Q-12.6 -31.55 -13.9 -29.45 L-14.15 -29.05 M-14.5 -19.25 L-14.9 -17.75 -15.25 -18.45 -15.3 -18.65 -15.85 -20.25 -15.9 -20.4 -15.85 -21.15 -15.5 -21.3 -15.3 -21.35 -14.5 -19.25 M-14.1 -13.3 L-14.8 -13.8 -14.7 -15.35 -13.75 -14.0 -14.1 -13.3" fill="#000000" fill-rule="evenodd" stroke="none"/>
    <path d="M16.65 -44.0 L12.3 -45.15 9.45 -53.25 Q12.85 -53.6 15.3 -51.25 17.7 -48.95 19.45 -46.25 20.85 -44.15 21.75 -42.05 L22.0 -41.9 22.15 -42.1 23.75 -36.05 23.95 -35.05 24.35 -31.7 24.3 -31.6 24.3 -31.35 24.4 -31.1 Q24.65 -27.4 24.4 -23.6 L24.6 -23.5 24.55 -23.05 23.8 -23.95 22.45 -25.1 22.5 -24.25 21.55 -31.8 20.85 -35.05 Q19.65 -39.8 17.6 -44.15 L16.65 -44.0 M23.0 3.25 L22.1 4.45 21.05 4.75 18.55 5.95 12.9 7.1 10.8 7.35 Q8.05 7.65 5.35 7.45 2.75 7.25 0.4 6.4 L-4.7 4.4 Q-6.3 3.65 -8.1 3.3 L-9.0 1.2 -9.3 0.75 Q-11.65 -2.85 -15.0 -5.35 L-18.8 -7.05 -17.3 -15.55 -17.2 -17.0 -17.15 -18.6 -16.85 -30.25 -16.6 -39.95 -25.95 -52.8 -16.8 -52.45 -15.55 -51.85 Q-14.35 -51.25 -13.25 -50.5 L-11.15 -49.0 -9.3 -47.8 -8.25 -46.85 -7.65 -45.75 -1.5 -45.5 0.9 -38.5 Q-6.6 -39.45 -12.8 -35.05 L-13.75 -34.35 -13.8 -31.6 -14.8 -30.6 -15.35 -29.85 Q-17.9 -26.15 -15.4 -22.45 L-15.3 -22.3 -14.5 -21.25 -13.75 -20.45 -13.9 -18.2 -14.2 -18.65 -14.45 -19.1 -14.5 -19.25 -15.3 -21.35 -15.5 -21.3 -15.85 -21.15 -15.9 -20.4 -15.85 -20.25 -15.3 -18.65 -15.25 -18.45 -14.9 -17.75 -14.6 -17.3 -14.35 -17.0 -13.85 -16.4 -13.55 -13.9 -13.75 -14.0 -14.7 -15.35 -14.8 -13.8 -14.1 -13.3 -14.1 -13.2 -13.35 -12.8 Q-12.9 -10.9 -12.1 -9.05 -11.1 -6.8 -9.6 -4.7 -8.5 -3.15 -7.05 -2.0 L-7.1 -0.75 Q-7.05 0.4 -6.55 1.2 L-5.0 2.2 Q-3.65 2.85 -2.1 3.2 L2.5 3.85 7.2 4.15 11.9 4.15 16.6 4.05 19.0 4.1 22.05 3.65 23.0 3.25 M8.65 -43.95 L11.55 -43.45 13.2 -37.45 10.1 -38.4 8.65 -43.95 M-16.6 -43.8 L-15.2 -41.0 -12.2 -44.4 -18.8 -49.35 Q-19.25 -49.7 -19.1 -49.2 L-16.6 -43.8" fill="#b42001" fill-rule="evenodd" stroke="none"/>
    <path d="M11.35 -27.2 L11.3 -28.55 14.5 -28.75 14.6 -27.5 13.4 -27.45 11.35 -27.2 M11.3 -29.25 L10.7 -35.05 10.1 -38.4 13.2 -37.45 13.65 -35.05 14.45 -29.25 11.65 -29.4 11.3 -29.25 M0.9 -38.5 L1.7 -35.05 Q2.65 -30.2 3.0 -25.2 L-0.55 -24.45 -1.7 -23.95 -1.75 -25.5 Q-2.55 -32.9 -9.7 -33.4 -12.1 -33.05 -13.8 -31.6 L-13.75 -34.35 -12.8 -35.05 Q-6.6 -39.45 0.9 -38.5 M-4.2 -19.6 L-4.45 -18.75 -4.7 -17.75 -4.9 -17.0 -5.25 -15.55 -6.35 -9.4 -6.4 -9.05 -6.95 -4.05 -7.05 -2.0 Q-8.5 -3.15 -9.6 -4.7 -11.1 -6.8 -12.1 -9.05 -12.9 -10.9 -13.35 -12.8 L-7.85 -12.0 -13.55 -13.9 -13.85 -16.4 -12.9 -15.55 Q-11.0 -14.1 -7.95 -14.05 -6.65 -14.5 -5.8 -15.3 L-6.0 -15.55 -9.8 -15.55 Q-11.6 -15.9 -12.85 -17.0 L-13.9 -18.2 -13.75 -20.45 Q-10.85 -17.75 -6.45 -18.75 -5.15 -19.05 -4.2 -19.6 M-18.0 -48.1 L-13.2 -44.45 -15.15 -42.45 -18.0 -48.1" fill="#831701" fill-rule="evenodd" stroke="none"/>
    <path d="M24.55 -23.05 L24.4 -20.95 24.15 -20.7 24.1 -20.45 24.1 -20.25 24.05 -20.15 24.05 -19.9 24.15 -19.75 23.85 -19.3 23.8 -19.2 23.1 -17.7 22.95 -20.95 22.85 -21.05 22.6 -21.2 22.6 -21.7 22.4 -21.9 Q18.65 -23.25 14.75 -23.5 L12.0 -23.6 11.35 -23.5 8.9 -23.25 5.5 -23.0 4.3 -22.9 Q0.5 -22.6 -2.45 -20.85 L-3.65 -17.0 -4.05 -15.55 -4.45 -13.9 -5.4 -9.05 Q-6.2 -4.55 -6.45 0.05 L-5.85 0.75 -5.2 1.2 -4.55 1.55 Q-2.65 2.35 -0.45 2.6 L4.15 2.65 8.55 2.65 12.95 2.65 19.45 2.55 21.65 2.5 22.8 1.2 22.85 1.1 22.85 1.2 23.0 3.25 22.05 3.65 19.0 4.1 16.6 4.05 11.9 4.15 7.2 4.15 2.5 3.85 -2.1 3.2 Q-3.65 2.85 -5.0 2.2 L-6.55 1.2 Q-7.05 0.4 -7.1 -0.75 L-7.05 -2.0 -6.95 -4.05 -6.4 -9.05 -6.35 -9.4 -5.25 -15.55 -4.9 -17.0 -4.7 -17.75 -4.45 -18.75 -4.2 -19.6 Q-1.85 -21.0 -1.7 -23.95 L-0.55 -24.45 3.0 -25.2 Q2.65 -30.2 1.7 -35.05 L0.9 -38.5 -1.5 -45.5 8.65 -43.95 10.1 -38.4 10.7 -35.05 11.3 -29.25 9.35 -28.9 8.85 -28.8 Q7.45 -28.5 6.2 -27.75 L6.0 -27.5 9.75 -28.35 11.3 -28.55 11.35 -27.2 10.2 -27.05 Q6.3 -26.7 3.0 -25.05 L1.85 -24.45 3.0 -24.7 Q7.15 -25.7 11.4 -26.05 L14.65 -26.25 18.35 -26.25 Q19.95 -26.2 21.1 -25.1 L21.35 -25.25 21.3 -25.45 20.85 -26.0 20.0 -26.8 19.75 -27.0 18.95 -27.15 14.6 -27.5 14.5 -28.75 18.55 -28.4 18.85 -28.65 18.9 -28.8 18.25 -28.95 14.45 -29.25 13.65 -35.05 13.2 -37.45 11.55 -43.45 17.05 -42.95 17.45 -43.45 16.65 -44.0 17.6 -44.15 Q19.65 -39.8 20.85 -35.05 L21.55 -31.8 22.5 -24.25 22.45 -25.1 23.8 -23.95 24.55 -23.05 M-8.1 3.3 L-8.65 3.4 -8.9 2.9 -9.5 2.7 -10.2 3.1 -10.6 3.8 Q-11.3 3.65 -11.45 2.5 L-12.75 1.45 -13.45 2.55 -14.2 -1.05 -15.0 -0.8 -16.0 0.6 -16.5 1.2 Q-16.65 1.7 -17.0 1.4 L-17.15 1.2 -17.15 1.1 -16.55 -0.95 -16.0 -1.75 -17.2 -2.3 -17.3 -2.25 -17.8 -1.65 Q-18.65 -0.65 -19.35 -1.3 L-18.25 -2.85 -16.95 -3.1 -17.05 -4.0 -20.9 -4.05 -18.8 -7.05 -15.0 -5.35 Q-11.65 -2.85 -9.3 0.75 L-9.0 1.2 -8.1 3.3" fill="#5e2222" fill-rule="evenodd" stroke="none"/>
    <path d="M28.5 -28.4 L27.85 -28.5 27.7 -28.5 Q27.2 -28.45 26.7 -28.0 L25.95 -27.15 25.9 -30.65 26.7 -30.25 28.25 -29.1 28.95 -28.3 28.5 -28.4 M29.25 -22.75 L29.05 -22.45 Q28.25 -21.2 26.7 -20.75 L25.7 -20.75 25.7 -21.75 25.85 -21.6 Q26.35 -21.15 26.7 -21.35 L27.0 -21.65 27.3 -22.2 29.25 -22.75 M25.65 -22.5 L25.6 -23.45 25.95 -22.9 25.65 -22.5 M-14.15 -29.05 L-13.9 -29.45 Q-12.6 -31.55 -9.25 -31.95 L-7.55 -31.95 -6.6 -31.85 -5.55 -31.0 -4.5 -30.0 Q-2.8 -27.65 -3.2 -24.2 L-3.25 -24.05 -3.3 -23.95 Q-3.45 -22.9 -4.2 -22.05 -8.15 -17.8 -12.85 -21.6 -14.5 -23.0 -14.7 -25.05 -14.9 -27.45 -14.15 -29.05 M-8.8 -29.9 L-9.65 -29.65 Q-11.8 -28.85 -12.75 -26.8 L-13.05 -25.5 -12.75 -23.95 Q-13.2 -23.7 -13.2 -23.15 -13.25 -21.25 -11.25 -21.6 L-10.8 -21.9 -9.25 -21.55 -7.95 -21.6 Q-4.75 -22.25 -4.85 -25.45 -4.9 -26.55 -5.2 -27.4 L-5.0 -27.85 Q-5.6 -29.3 -7.05 -30.45 L-7.35 -30.75 -8.25 -30.35 -8.8 -29.9" fill="#f5ff2f" fill-rule="evenodd" stroke="none"/>
    <path d="M27.85 -28.5 L28.5 -28.4 29.0 -28.2 29.4 -27.6 29.4 -26.75 Q29.0 -25.95 28.55 -26.1 L28.25 -26.2 Q27.1 -26.75 27.25 -28.0 L27.7 -28.4 27.85 -28.5 M25.7 -21.75 L25.65 -21.8 25.65 -22.5 25.95 -22.9 26.2 -23.05 26.7 -23.05 Q27.45 -22.85 27.3 -22.2 L27.0 -21.65 26.7 -21.35 Q26.35 -21.15 25.85 -21.6 L25.7 -21.75 M-8.8 -29.9 L-8.25 -30.35 -7.35 -30.75 -7.05 -30.45 Q-5.6 -29.3 -5.0 -27.85 L-5.2 -27.4 Q-5.55 -26.9 -6.25 -26.75 -8.3 -26.2 -9.0 -28.25 -9.35 -29.25 -8.8 -29.9 M-10.8 -21.9 L-11.25 -21.6 Q-13.25 -21.25 -13.2 -23.15 -13.2 -23.7 -12.75 -23.95 L-12.65 -24.0 -12.4 -24.0 -12.4 -24.05 Q-10.15 -23.95 -10.8 -21.95 L-10.8 -21.9" fill="#ffffff" fill-rule="evenodd" stroke="none"/>
    <path d="M28.5 -28.4 L28.95 -28.3 29.0 -28.2 28.5 -28.4 M25.95 -27.15 L26.7 -28.0 Q27.2 -28.45 27.7 -28.5 L27.85 -28.5 27.7 -28.4 27.25 -28.0 Q27.1 -26.75 28.25 -26.2 L28.55 -26.1 Q29.0 -25.95 29.4 -26.75 L29.4 -27.6 29.7 -26.75 29.85 -25.65 29.85 -25.6 29.75 -24.5 Q29.6 -23.4 29.25 -22.75 L27.3 -22.2 Q27.45 -22.85 26.7 -23.05 L26.2 -23.05 25.95 -22.9 25.6 -23.45 25.65 -23.7 25.95 -27.15 M27.65 -26.05 Q27.3 -26.05 27.1 -25.7 26.7 -25.15 26.9 -24.45 27.4 -23.85 28.25 -24.0 L28.65 -24.4 28.85 -25.2 28.85 -25.3 28.25 -25.9 27.65 -26.05 M-12.75 -23.95 L-13.05 -25.5 -12.75 -26.8 Q-11.8 -28.85 -9.65 -29.65 L-8.8 -29.9 Q-9.35 -29.25 -9.0 -28.25 -8.3 -26.2 -6.25 -26.75 -5.55 -26.9 -5.2 -27.4 -4.9 -26.55 -4.85 -25.45 -4.75 -22.25 -7.95 -21.6 L-9.25 -21.55 -10.8 -21.9 -10.8 -21.95 Q-10.15 -23.95 -12.4 -24.05 L-12.4 -24.0 -12.65 -24.0 -12.75 -23.95 M-8.35 -26.7 L-8.55 -26.65 Q-9.25 -26.4 -9.55 -25.85 L-9.65 -25.35 -9.55 -24.7 Q-9.1 -24.2 -8.45 -24.1 -7.9 -24.15 -7.6 -24.55 -6.35 -26.0 -8.35 -26.7" fill="#a3a201" fill-rule="evenodd" stroke="none"/>
    <path d="M27.65 -26.05 L28.25 -25.9 28.85 -25.3 28.85 -25.2 28.65 -24.4 28.25 -24.0 Q27.4 -23.85 26.9 -24.45 26.7 -25.15 27.1 -25.7 27.3 -26.05 27.65 -26.05 M-8.35 -26.7 Q-6.35 -26.0 -7.6 -24.55 -7.9 -24.15 -8.45 -24.1 -9.1 -24.2 -9.55 -24.7 L-9.65 -25.35 -9.55 -25.85 Q-9.25 -26.4 -8.55 -26.65 L-8.35 -26.7" fill="#6d6d01" fill-rule="evenodd" stroke="none"/>
    <path d="M-1.75 -18.25 L-1.25 -18.7 -0.85 -18.8 -0.65 -18.85 -0.25 -19.1 0.15 -19.2 0.15 -19.15 Q0.55 -18.5 1.2 -18.85 L1.65 -19.45 1.75 -19.7 2.1 -19.9 2.3 -20.0 4.2 -20.25 Q4.55 -19.1 5.8 -19.35 L6.1 -19.7 Q6.05 -20.15 6.15 -20.5 L10.7 -20.8 13.1 -20.8 13.1 -20.85 Q13.25 -20.3 13.75 -20.2 15.15 -19.95 14.9 -21.35 L14.95 -20.75 18.25 -20.5 Q18.45 -20.1 19.05 -20.0 19.5 -19.95 19.7 -20.3 L19.75 -20.35 20.4 -20.25 Q20.9 -20.15 21.25 -19.85 L21.4 -19.75 21.5 -19.75 21.55 -19.75 21.75 -19.7 Q22.25 -18.4 22.3 -17.0 L22.25 -15.95 22.25 -15.55 22.25 -10.55 22.2 -9.05 21.95 -7.1 Q21.9 -6.6 21.45 -6.7 L20.95 -7.0 20.4 -6.9 20.4 -15.55 20.35 -16.2 Q19.9 -16.75 19.2 -16.8 18.0 -16.45 17.0 -15.75 L17.0 -15.55 16.65 -4.65 13.9 -4.0 13.8 -15.55 13.8 -17.0 13.8 -17.15 13.6 -17.35 13.55 -17.4 13.45 -17.35 11.75 -17.0 8.3 -16.35 8.05 -16.1 8.05 -15.85 8.0 -15.55 7.35 -4.25 4.6 -3.7 5.15 -15.55 5.2 -16.8 5.0 -17.0 4.95 -17.05 4.65 -17.0 Q3.7 -16.85 2.85 -17.0 L1.35 -17.4 1.0 -17.0 0.85 -16.85 0.8 -16.6 0.65 -15.55 -0.95 -4.85 -3.1 -5.45 -2.5 -14.25 -2.8 -14.75 -2.6 -15.55 -2.15 -17.0 -1.75 -18.25 M-3.85 -10.75 L-3.4 -12.65 -3.65 -9.05 -3.7 -4.25 Q-1.95 -4.5 -0.65 -3.45 L0.15 -3.8 0.65 -9.05 Q1.05 -12.3 1.8 -15.55 L1.85 -15.9 3.15 -16.0 4.15 -15.55 3.3 -2.55 8.6 -3.4 8.4 -4.15 9.0 -15.25 9.85 -15.55 12.85 -15.65 12.85 -15.55 13.1 -3.05 15.05 -3.4 15.2 -3.55 16.2 -3.6 16.75 -3.55 17.55 -3.45 18.0 -3.8 18.1 -15.15 19.05 -15.55 19.15 -15.6 19.2 -15.55 19.8 -5.5 21.1 -5.4 21.45 -1.0 20.8 -0.8 19.8 -1.3 Q17.8 -2.45 16.95 -0.5 L14.9 -0.65 14.55 -1.1 13.5 -1.15 Q12.15 0.05 10.35 -0.2 9.7 -0.9 8.75 -0.65 L8.25 -0.55 5.4 -0.45 0.45 -0.15 0.4 -0.3 Q-0.45 -2.0 -1.45 -0.4 L-3.6 -1.2 -3.7 -1.3 -3.75 -1.45 Q-3.7 -2.8 -5.0 -2.7 L-3.85 -10.75" fill="#d6d0b4" fill-rule="evenodd" stroke="none"/>
    <path d="M21.5 -19.75 L21.4 -19.75 21.25 -19.85 Q20.9 -20.15 20.4 -20.25 L19.75 -20.35 19.7 -20.3 Q19.5 -19.95 19.05 -20.0 18.45 -20.1 18.25 -20.5 L14.95 -20.75 14.9 -21.35 Q15.15 -19.95 13.75 -20.2 13.25 -20.3 13.1 -20.85 L13.1 -20.8 10.7 -20.8 6.15 -20.5 Q6.05 -20.15 6.1 -19.7 L5.8 -19.35 Q4.55 -19.1 4.2 -20.25 L2.3 -20.0 2.1 -19.9 1.75 -19.7 1.65 -19.45 1.2 -18.85 Q0.55 -18.5 0.15 -19.15 L0.15 -19.2 -0.25 -19.1 -0.65 -18.85 -0.85 -18.8 -1.25 -18.7 -1.75 -18.25 -1.5 -18.95 -1.4 -19.4 -1.15 -19.65 -1.05 -19.9 -0.9 -20.15 -0.35 -20.2 1.0 -20.45 2.25 -20.7 4.0 -21.0 6.45 -21.4 12.7 -21.95 14.75 -22.05 19.35 -21.65 19.4 -21.65 19.9 -21.5 20.2 -21.4 21.45 -20.5 21.5 -19.75 M-5.0 -2.7 Q-3.7 -2.8 -3.75 -1.45 L-3.7 -1.3 -3.6 -1.2 -1.45 -0.4 Q-0.45 -2.0 0.4 -0.3 L0.45 -0.15 5.4 -0.45 8.25 -0.55 8.75 -0.65 Q9.7 -0.9 10.35 -0.2 12.15 0.05 13.5 -1.15 L14.55 -1.1 14.9 -0.65 16.95 -0.5 Q17.8 -2.45 19.8 -1.3 L20.8 -0.8 21.45 -1.0 21.5 -0.4 21.55 0.2 Q21.65 0.6 21.05 0.55 L16.45 1.1 15.25 1.2 12.9 1.4 8.15 1.95 5.45 1.7 0.55 1.2 -2.65 0.75 -3.15 0.55 -5.1 -0.3 -5.15 -1.8 -5.0 -2.7" fill="#9d7777" fill-rule="evenodd" stroke="none"/>
    <path d="M-2.5 -14.25 L-3.1 -5.45 -0.95 -4.85 0.65 -15.55 0.8 -16.6 0.85 -16.85 1.0 -17.0 1.35 -17.4 2.85 -17.0 Q3.7 -16.85 4.65 -17.0 L4.95 -17.05 5.0 -17.0 5.2 -16.8 5.15 -15.55 4.6 -3.7 7.35 -4.25 8.0 -15.55 8.05 -15.85 8.05 -16.1 8.3 -16.35 11.75 -17.0 13.45 -17.35 13.55 -17.4 13.6 -17.35 13.8 -17.15 13.8 -17.0 13.8 -15.55 13.9 -4.0 16.65 -4.65 17.0 -15.55 17.0 -15.75 Q18.0 -16.45 19.2 -16.8 19.9 -16.75 20.35 -16.2 L20.4 -15.55 20.4 -6.9 20.95 -7.0 21.45 -6.7 21.1 -5.4 19.8 -5.5 19.2 -15.55 19.15 -15.6 19.05 -15.55 18.1 -15.15 18.0 -3.8 17.55 -3.45 16.75 -3.55 16.2 -3.6 15.2 -3.55 15.05 -3.4 13.1 -3.05 12.85 -15.55 12.85 -15.65 9.85 -15.55 9.0 -15.25 8.4 -4.15 8.6 -3.4 3.3 -2.55 4.15 -15.55 3.15 -16.0 1.85 -15.9 1.8 -15.55 Q1.05 -12.3 0.65 -9.05 L0.15 -3.8 -0.65 -3.45 Q-1.95 -4.5 -3.7 -4.25 L-3.65 -9.05 -3.4 -12.65 -3.85 -10.75 Q-3.65 -12.8 -2.5 -14.25" fill="#3e3722" fill-rule="evenodd" stroke="none"/>
    <path d="M-13.9 -18.2 L-12.85 -17.0 Q-11.6 -15.9 -9.8 -15.55 L-6.0 -15.55 -5.8 -15.3 Q-6.65 -14.5 -7.95 -14.05 -11.0 -14.1 -12.9 -15.55 L-13.85 -16.4 -14.35 -17.0 -14.6 -17.3 -14.9 -17.75 -14.5 -19.25 -14.45 -19.1 -14.2 -18.65 -13.9 -18.2 M-13.55 -13.9 L-7.85 -12.0 -13.35 -12.8 -14.1 -13.2 -14.1 -13.3 -13.75 -14.0 -13.55 -13.9" fill="#380701" fill-rule="evenodd" stroke="none"/>
  </g>
</svg>
