<?xml version="1.0" encoding="UTF-8" standalone="no"?>
<svg xmlns:xlink="http://www.w3.org/1999/xlink" height="60.85px" width="52.95px" xmlns="http://www.w3.org/2000/svg">
  <g transform="matrix(1.0, 0.0, 0.0, 1.0, 26.3, 32.3)">
    <path d="M18.55 -32.3 L19.6 -32.3 Q23.3 -23.75 20.1 -15.0 L19.6 -14.8 19.5 -13.15 22.4 -12.5 23.1 -11.8 23.3 -11.5 23.3 -11.2 23.3 -10.9 Q28.45 -6.3 24.15 -1.5 L23.45 -0.8 20.05 1.2 22.2 14.45 25.45 14.75 25.65 15.9 23.8 16.8 26.65 18.65 26.55 20.05 22.55 20.4 23.6 21.55 23.6 22.45 23.15 22.5 19.75 22.1 14.4 26.3 14.25 27.2 -1.2 28.55 Q-8.35 28.6 -13.8 23.85 L-14.8 24.85 -16.95 22.7 -18.7 24.1 -19.8 23.6 -19.3 20.75 -20.65 20.95 -22.35 20.4 -22.5 19.2 -19.4 16.0 -17.85 2.2 -23.95 -0.8 Q-25.0 -1.65 -25.65 -3.05 -26.75 -5.4 -26.05 -7.8 -25.15 -11.05 -22.65 -12.5 L-18.8 -13.55 -18.4 -16.3 -25.45 -30.6 -24.55 -31.3 -13.95 -27.0 Q-11.85 -26.2 -11.05 -24.2 L-11.1 -23.6 -10.8 -22.2 -9.75 -22.9 Q0.95 -27.25 11.65 -23.3 L18.55 -32.3 M14.35 -11.05 Q15.35 -12.0 16.55 -12.5 L18.2 -13.0 17.55 -18.55 18.35 -19.1 18.85 -18.9 19.15 -18.0 Q20.75 -23.95 18.75 -29.65 L12.55 -22.85 12.4 -22.5 12.1 -22.15 10.25 -22.6 2.55 -23.5 -0.4 -23.4 -8.95 -21.7 -10.5 -21.15 -10.55 -21.05 -11.2 -20.65 -11.65 -21.3 Q-12.35 -23.1 -13.85 -24.25 -17.75 -27.35 -22.6 -28.3 L-16.45 -15.8 -17.2 -15.25 -17.45 -13.45 -15.45 -12.5 -15.45 -12.45 -15.5 -12.15 -14.7 -11.75 Q-11.75 -10.05 -12.2 -6.55 L-12.5 -5.2 -12.6 -4.85 -12.7 -4.5 -13.45 -2.8 -14.05 -1.95 Q-14.55 -1.3 -15.2 -0.8 -16.2 -0.05 -17.5 0.3 L-19.3 0.5 -17.2 1.5 -16.2 1.95 -16.8 2.25 -17.5 7.2 -17.5 7.25 Q-18.0 11.8 -18.1 16.55 L-18.25 17.15 -19.3 17.65 -20.6 19.3 -20.75 19.4 -20.4 19.4 -18.15 19.0 -17.35 20.1 -17.85 21.05 -15.6 21.9 -15.0 21.55 -14.2 22.0 Q-10.25 24.3 -5.55 25.15 3.55 26.95 12.9 25.9 L13.55 25.4 18.55 21.4 19.9 20.3 20.9 20.9 20.5 19.55 22.55 18.9 24.0 18.45 23.3 18.35 Q22.1 18.35 21.25 17.3 20.4 16.25 20.4 14.75 18.5 8.6 18.8 1.85 L18.0 2.15 16.6 2.4 15.05 2.15 16.5 1.35 17.6 0.65 16.35 0.1 14.4 -0.8 Q12.35 -2.4 12.0 -5.5 11.75 -8.0 13.35 -10.05 L14.35 -11.05 M17.95 -24.2 L18.8 -23.8 18.9 -23.6 19.0 -23.3 Q19.05 -22.8 18.35 -22.45 L17.2 -19.9 16.4 -20.4 17.95 -24.2 M-0.7 -14.8 L0.65 -15.3 0.65 -15.35 2.75 -14.95 Q4.65 -14.45 6.35 -13.35 L6.65 -13.1 6.55 -12.9 6.3 -12.75 Q4.55 -13.9 2.75 -14.25 1.05 -14.6 -0.7 -14.25 L-1.35 -14.15 Q-2.05 -14.0 -2.25 -14.4 L-1.05 -14.75 -0.7 -14.8 M2.8 -12.4 Q5.25 -12.1 7.4 -10.6 L7.65 -10.4 7.6 -10.2 7.3 -10.05 Q5.1 -11.2 2.8 -11.55 L-0.75 -11.65 -3.4 -11.2 -4.1 -11.25 -3.3 -11.55 -0.8 -12.2 -0.75 -12.2 Q-0.5 -12.25 -0.35 -12.35 L2.8 -12.4 M10.4 -5.55 L11.8 -0.8 Q15.55 9.1 17.1 19.4 L15.95 19.65 Q14.1 20.85 11.5 21.5 1.4 24.1 -9.0 21.75 -11.65 21.05 -13.95 19.7 L-14.9 19.65 -14.55 11.8 Q-14.1 5.45 -12.45 -0.8 L-11.7 -3.4 -9.45 -5.5 Q-6.75 -7.6 -3.1 -8.25 L-0.75 -8.6 1.95 -8.85 3.6 -8.85 8.95 -7.1 9.15 -6.95 9.9 -6.35 9.95 -6.35 10.25 -6.05 10.35 -5.95 10.4 -5.9 10.45 -5.75 10.4 -5.55 M8.7 -5.8 Q6.6 -7.65 3.8 -7.9 L3.5 -7.9 3.2 -7.9 2.85 -7.9 2.5 -7.9 0.85 -7.7 -3.1 -6.85 Q-7.9 -5.7 -10.2 -2.3 L-11.1 -0.8 -12.4 4.9 -12.6 6.5 -12.85 9.7 -12.95 9.15 -13.45 18.1 -13.45 19.05 Q-6.15 21.3 1.4 21.35 9.35 22.2 15.4 18.35 L14.7 15.0 14.2 12.9 10.55 -0.8 9.85 -2.9 8.85 -5.65 8.7 -5.8 M13.95 -4.35 Q14.45 -1.8 17.0 -1.25 19.4 -0.75 21.0 -1.2 L21.0 -1.3 21.2 -1.35 21.25 -1.3 Q23.6 -2.2 24.1 -5.4 24.25 -6.05 24.0 -6.75 23.35 -8.8 22.25 -10.65 L22.2 -10.9 22.25 -11.2 Q21.25 -12.35 19.5 -11.8 12.7 -10.65 13.95 -4.35 M-22.0 -1.3 L-21.75 -1.35 -21.65 -1.15 -19.65 -0.8 -19.35 -0.8 Q-16.75 -0.85 -15.0 -3.45 -12.15 -7.55 -15.55 -11.3 L-16.35 -11.7 -19.6 -12.05 Q-26.15 -10.3 -24.05 -4.5 L-22.6 -1.55 -22.0 -1.3 M-18.4 -21.95 L-17.9 -23.35 -17.05 -23.3 -15.0 -19.2 Q-15.65 -18.35 -16.5 -19.3 L-18.4 -21.95" fill="#000000" fill-rule="evenodd" stroke="none"/>
    <path d="M10.25 -22.6 L12.1 -22.15 12.4 -22.5 12.55 -22.85 18.75 -29.65 Q20.75 -23.95 19.15 -18.0 L18.85 -18.9 18.35 -19.1 17.55 -18.55 18.2 -13.0 16.55 -12.5 Q15.35 -12.0 14.35 -11.05 L14.15 -11.4 Q12.65 -14.0 10.35 -15.4 L10.25 -22.6 M16.35 0.1 L17.6 0.65 16.5 1.35 16.35 0.1 M16.6 2.4 L18.0 2.15 18.8 1.85 Q18.5 8.6 20.4 14.75 L19.9 15.35 Q17.6 18.5 18.55 21.4 L13.55 25.4 15.4 21.35 Q16.75 20.2 17.85 18.65 18.35 17.9 18.3 16.95 18.1 13.1 17.05 9.4 L16.6 2.4 M23.3 18.35 L24.0 18.45 22.55 18.9 23.3 18.35 M-20.4 19.4 L-20.75 19.4 -20.6 19.3 -20.45 19.3 -20.4 19.4 M-18.1 16.55 Q-18.0 11.8 -17.5 7.25 L-17.35 8.15 -16.25 16.6 -16.2 16.25 -16.35 17.55 -18.1 16.55 M-17.2 1.5 L-19.3 0.5 -17.5 0.3 -17.6 1.3 -17.2 1.5 M-14.7 -11.75 L-15.5 -12.15 -15.45 -12.45 -15.45 -12.5 -17.45 -13.45 -17.2 -15.25 -16.45 -15.8 -22.6 -28.3 Q-17.75 -27.35 -13.85 -24.25 -12.35 -23.1 -11.65 -21.3 L-11.2 -20.65 -10.55 -21.05 -10.5 -21.15 -8.95 -21.7 -9.25 -16.1 Q-13.0 -14.95 -14.7 -11.75 M-0.4 -23.4 L2.55 -23.5 2.7 -15.9 -0.65 -16.25 -0.4 -23.4 M17.95 -24.2 L16.4 -20.4 17.2 -19.9 18.35 -22.45 Q19.05 -22.8 19.0 -23.3 L18.9 -23.6 18.8 -23.8 17.95 -24.2 M-18.4 -21.95 L-16.5 -19.3 Q-15.65 -18.35 -15.0 -19.2 L-17.05 -23.3 -17.9 -23.35 -18.4 -21.95" fill="#b42001" fill-rule="evenodd" stroke="none"/>
    <path d="M20.4 14.75 Q20.4 16.25 21.25 17.3 22.1 18.35 23.3 18.35 L22.55 18.9 20.5 19.55 20.9 20.9 19.9 20.3 18.55 21.4 Q17.6 18.5 19.9 15.35 L20.4 14.75 M-14.2 22.0 L-15.0 21.55 -15.6 21.9 -17.85 21.05 -17.35 20.1 -18.15 19.0 -20.4 19.4 -20.45 19.3 -20.6 19.3 -19.3 17.65 -18.25 17.15 -18.1 16.55 -16.35 17.55 -16.2 16.25 -14.25 -0.8 -14.05 -1.95 -13.45 -2.8 -12.7 -4.5 -12.6 -4.85 -12.5 -5.2 -12.2 -6.55 -12.15 -7.0 Q-10.75 -8.35 -9.5 -8.0 L-9.45 -12.5 -9.25 -16.1 -8.95 -21.7 -0.4 -23.4 -0.65 -16.25 -0.7 -14.8 -1.05 -14.75 -2.25 -14.4 Q-2.05 -14.0 -1.35 -14.15 L-0.7 -14.25 -0.75 -12.5 -0.75 -12.2 -0.8 -12.2 -3.3 -11.55 -4.1 -11.25 -3.4 -11.2 -0.75 -11.65 -0.75 -10.6 -0.4 -10.65 2.8 -10.8 2.8 -11.55 Q5.1 -11.2 7.3 -10.05 L7.6 -10.2 7.65 -10.4 7.4 -10.6 Q5.25 -12.1 2.8 -12.4 L2.8 -12.5 2.75 -14.25 Q4.55 -13.9 6.3 -12.75 L6.55 -12.9 6.65 -13.1 6.35 -13.35 Q4.65 -14.45 2.75 -14.95 L2.7 -15.9 2.55 -23.5 10.25 -22.6 10.35 -15.4 10.4 -12.5 10.45 -10.65 10.4 -5.9 10.35 -5.95 10.25 -6.05 9.95 -6.35 9.9 -6.35 9.15 -6.95 8.95 -7.1 3.6 -8.85 1.95 -8.85 -0.75 -8.6 -3.1 -8.25 Q-6.75 -7.6 -9.45 -5.5 L-11.7 -3.4 -12.45 -0.8 Q-14.1 5.45 -14.55 11.8 L-14.9 19.65 -13.95 19.7 Q-11.65 21.05 -9.0 21.75 1.4 24.1 11.5 21.5 14.1 20.85 15.95 19.65 L17.1 19.4 Q15.55 9.1 11.8 -0.8 L10.4 -5.55 12.65 -0.8 14.2 2.45 14.35 2.7 Q16.05 6.0 17.05 9.4 18.1 13.1 18.3 16.95 18.35 17.9 17.85 18.65 16.75 20.2 15.4 21.35 11.4 24.8 5.6 24.85 L-3.75 24.05 -14.2 22.0" fill="#5e2222" fill-rule="evenodd" stroke="none"/>
    <path d="M14.35 -11.05 L13.35 -10.05 Q11.75 -8.0 12.0 -5.5 12.35 -2.4 14.4 -0.8 L16.35 0.1 16.5 1.35 15.05 2.15 16.6 2.4 17.05 9.4 Q16.05 6.0 14.35 2.7 L14.2 2.45 12.65 -0.8 10.4 -5.55 10.45 -5.75 10.4 -5.9 10.45 -10.65 10.4 -12.5 10.35 -15.4 Q12.65 -14.0 14.15 -11.4 L14.35 -11.05 M13.55 25.4 L12.9 25.9 Q3.55 26.95 -5.55 25.15 -10.25 24.3 -14.2 22.0 L-3.75 24.05 5.6 24.85 Q11.4 24.8 15.4 21.35 L13.55 25.4 M-17.5 7.25 L-17.5 7.2 -16.8 2.25 -16.2 1.95 -17.2 1.5 -17.6 1.3 -17.5 0.3 Q-16.2 -0.05 -15.2 -0.8 -14.55 -1.3 -14.05 -1.95 L-14.25 -0.8 -16.2 16.25 -16.25 16.6 -17.35 8.15 -17.5 7.25 M-12.2 -6.55 Q-11.75 -10.05 -14.7 -11.75 -13.0 -14.95 -9.25 -16.1 L-9.45 -12.5 -9.5 -8.0 Q-10.75 -8.35 -12.15 -7.0 L-12.2 -6.55 M2.7 -15.9 L2.75 -14.95 0.65 -15.35 0.65 -15.3 -0.7 -14.8 -0.65 -16.25 2.7 -15.9 M2.75 -14.25 L2.8 -12.5 2.8 -12.4 -0.35 -12.35 Q-0.5 -12.25 -0.75 -12.2 L-0.75 -12.5 -0.7 -14.25 Q1.05 -14.6 2.75 -14.25 M2.8 -11.55 L2.8 -10.8 -0.4 -10.65 -0.75 -10.6 -0.75 -11.65 2.8 -11.55" fill="#831701" fill-rule="evenodd" stroke="none"/>
    <path d="M19.25 -9.9 L18.75 -10.05 Q14.75 -9.7 15.05 -6.15 L15.15 -5.45 14.45 -4.95 14.4 -4.4 14.45 -3.2 Q15.55 -2.2 17.0 -2.85 L19.7 -2.75 Q20.95 -3.0 21.5 -4.15 22.4 -6.05 22.1 -7.35 L22.45 -7.6 22.6 -7.9 Q23.3 -10.65 20.7 -11.0 L20.7 -10.95 20.3 -10.9 20.1 -10.8 19.65 -10.3 19.25 -9.9 M13.95 -4.35 Q12.7 -10.65 19.5 -11.8 21.25 -12.35 22.25 -11.2 L22.2 -10.9 22.25 -10.65 Q23.35 -8.8 24.0 -6.75 24.25 -6.05 24.1 -5.4 23.6 -2.2 21.25 -1.3 L21.2 -1.35 21.0 -1.3 21.0 -1.2 Q19.4 -0.75 17.0 -1.25 14.45 -1.8 13.95 -4.35 M-21.2 -3.1 Q-18.0 -0.85 -16.4 -4.6 -15.45 -6.85 -15.95 -8.25 -14.05 -10.75 -17.15 -11.4 L-17.15 -11.35 -17.75 -11.2 -18.3 -10.6 -18.55 -10.35 -19.9 -10.65 Q-21.05 -10.6 -22.0 -9.6 -23.75 -7.7 -23.5 -6.05 L-23.65 -5.7 Q-23.85 -4.55 -23.4 -3.4 L-22.75 -2.9 -22.25 -2.65 Q-21.6 -2.7 -21.2 -3.1 M-22.0 -1.3 L-22.6 -1.55 -24.05 -4.5 Q-26.15 -10.3 -19.6 -12.05 L-16.35 -11.7 -15.55 -11.3 Q-12.15 -7.55 -15.0 -3.45 -16.75 -0.85 -19.35 -0.8 L-19.65 -0.8 -21.65 -1.15 -21.75 -1.35 -22.0 -1.3" fill="#f5ff2f" fill-rule="evenodd" stroke="none"/>
    <path d="M19.25 -9.9 L19.65 -10.3 20.1 -10.8 20.3 -10.9 20.7 -10.95 20.7 -11.0 Q23.3 -10.65 22.6 -7.9 L22.45 -7.6 22.1 -7.35 Q20.3 -6.3 19.05 -8.3 L19.0 -8.85 19.15 -9.75 19.25 -9.9 M17.0 -2.85 Q15.55 -2.2 14.45 -3.2 L14.4 -4.4 14.45 -4.95 15.15 -5.45 15.6 -5.5 15.6 -5.55 Q17.8 -5.15 17.05 -3.0 L17.0 -2.85 M-23.5 -6.05 L-23.0 -6.35 -21.4 -6.05 -21.15 -5.85 Q-20.85 -5.45 -20.9 -4.95 L-20.65 -3.8 -21.1 -3.25 -21.2 -3.1 Q-21.6 -2.7 -22.25 -2.65 L-22.75 -2.9 -23.4 -3.4 Q-23.85 -4.55 -23.65 -5.7 L-23.5 -6.05 M-15.95 -8.25 L-16.0 -8.25 Q-16.65 -7.4 -17.65 -8.0 -18.25 -8.3 -18.7 -8.85 L-18.8 -9.15 -18.8 -9.75 -18.8 -10.05 -18.55 -10.35 -18.3 -10.6 -17.75 -11.2 -17.15 -11.35 -17.15 -11.4 Q-14.05 -10.75 -15.95 -8.25" fill="#ffffff" fill-rule="evenodd" stroke="none"/>
    <path d="M15.15 -5.45 L15.05 -6.15 Q14.75 -9.7 18.75 -10.05 L19.25 -9.9 19.15 -9.75 19.0 -8.85 19.05 -8.3 Q20.3 -6.3 22.1 -7.35 22.4 -6.05 21.5 -4.15 20.95 -3.0 19.7 -2.75 L17.0 -2.85 17.05 -3.0 Q17.8 -5.15 15.6 -5.55 L15.6 -5.5 15.15 -5.45 M18.75 -7.55 L18.35 -7.5 18.15 -7.4 17.95 -7.25 Q17.25 -6.8 17.35 -6.05 17.55 -5.35 18.35 -5.25 L18.7 -5.4 Q19.45 -5.75 19.7 -6.55 L19.65 -6.8 Q19.4 -7.45 18.75 -7.6 L18.75 -7.55 M-20.45 -7.75 L-20.65 -7.6 -20.85 -7.0 -20.75 -6.15 -20.45 -5.9 -18.9 -5.85 -18.75 -6.05 -18.6 -6.35 -18.5 -6.65 -18.65 -6.9 Q-18.95 -7.75 -19.9 -8.0 L-19.9 -7.95 -20.45 -7.75 M-21.2 -3.1 L-21.1 -3.25 -20.65 -3.8 -20.9 -4.95 Q-20.85 -5.45 -21.15 -5.85 L-21.4 -6.05 -23.0 -6.35 -23.5 -6.05 Q-23.75 -7.7 -22.0 -9.6 -21.05 -10.6 -19.9 -10.65 L-18.55 -10.35 -18.8 -10.05 -18.8 -9.75 -18.8 -9.15 -18.7 -8.85 Q-18.25 -8.3 -17.65 -8.0 -16.65 -7.4 -16.0 -8.25 L-15.95 -8.25 Q-15.45 -6.85 -16.4 -4.6 -18.0 -0.85 -21.2 -3.1" fill="#a3a201" fill-rule="evenodd" stroke="none"/>
    <path d="M18.75 -7.55 L18.75 -7.6 Q19.4 -7.45 19.65 -6.8 L19.7 -6.55 Q19.45 -5.75 18.7 -5.4 L18.35 -5.25 Q17.55 -5.35 17.35 -6.05 17.25 -6.8 17.95 -7.25 L18.15 -7.4 18.35 -7.5 18.75 -7.55 M-20.45 -7.75 L-19.9 -7.95 -19.9 -8.0 Q-18.95 -7.75 -18.65 -6.9 L-18.5 -6.65 -18.6 -6.35 -18.75 -6.05 -18.9 -5.85 -20.45 -5.9 -20.75 -6.15 -20.85 -7.0 -20.65 -7.6 -20.45 -7.75" fill="#6d6d01" fill-rule="evenodd" stroke="none"/>
    <path d="M-10.2 -2.3 Q-7.9 -5.7 -3.1 -6.85 L0.85 -7.7 2.5 -7.9 2.85 -7.9 3.2 -7.9 3.5 -7.9 3.8 -7.9 Q6.6 -7.65 8.7 -5.8 8.35 -5.4 7.85 -5.45 -1.8 -6.1 -10.2 -2.3 M15.4 18.35 Q9.35 22.2 1.4 21.35 -6.15 21.3 -13.45 19.05 L-13.45 18.1 -12.45 17.75 -11.2 18.35 -8.95 17.75 -7.5 18.85 -6.9 18.85 -5.45 17.75 -4.85 18.05 -4.5 18.85 0.45 18.1 1.0 18.75 15.4 18.35" fill="#9d7777" fill-rule="evenodd" stroke="none"/>
    <path d="M-10.2 -2.3 Q-1.8 -6.1 7.85 -5.45 8.35 -5.4 8.7 -5.8 L8.85 -5.65 9.85 -2.9 10.55 -0.8 14.2 12.9 12.6 12.0 11.4 3.2 Q10.15 1.85 8.3 2.65 7.9 2.8 7.6 3.05 L8.1 3.9 7.9 15.5 4.5 14.55 3.6 1.35 -0.85 1.25 -0.6 15.0 -4.65 13.75 -4.55 1.0 -5.45 0.6 -7.8 1.0 -8.25 1.3 -9.95 14.45 -11.1 14.55 -12.6 6.5 -12.4 4.9 -11.1 -0.8 -10.2 -2.3 M14.7 15.0 L15.4 18.35 1.0 18.75 0.45 18.1 -4.5 18.85 -4.85 18.05 -5.45 17.75 -6.9 18.85 -7.5 18.85 -8.95 17.75 -11.2 18.35 -12.45 17.75 -13.45 18.1 -12.95 9.15 -12.85 9.7 -11.9 15.8 -8.85 15.5 -7.2 2.65 -6.1 2.35 -5.15 15.0 -0.3 16.5 0.8 16.05 0.2 2.35 2.55 2.65 4.0 16.1 9.05 17.0 9.1 3.9 10.35 4.0 11.6 14.35 12.5 14.45 12.7 13.85 14.7 15.0" fill="#d6d0b4" fill-rule="evenodd" stroke="none"/>
    <path d="M14.2 12.9 L14.7 15.0 12.7 13.85 12.5 14.45 11.6 14.35 10.35 4.0 9.1 3.9 9.05 17.0 4.0 16.1 2.55 2.65 0.2 2.35 0.8 16.05 -0.3 16.5 -5.15 15.0 -6.1 2.35 -7.2 2.65 -8.85 15.5 -11.9 15.8 -12.85 9.7 -12.6 6.5 -11.1 14.55 -9.95 14.45 -8.25 1.3 -7.8 1.0 -5.45 0.6 -4.55 1.0 -4.65 13.75 -0.6 15.0 -0.85 1.25 3.6 1.35 4.5 14.55 7.9 15.5 8.1 3.9 7.6 3.05 Q7.9 2.8 8.3 2.65 10.15 1.85 11.4 3.2 L12.6 12.0 14.2 12.9" fill="#3e3722" fill-rule="evenodd" stroke="none"/>
  </g>
</svg>
