<?xml version="1.0" encoding="UTF-8" standalone="no"?>
<svg xmlns:xlink="http://www.w3.org/1999/xlink" height="49.05px" width="50.45px" xmlns="http://www.w3.org/2000/svg">
  <g transform="matrix(1.0, 0.0, 0.0, 1.0, 23.7, 43.25)">
    <path d="M-14.0 0.6 L-14.45 1.1 -14.75 1.15 -15.0 0.9 -15.4 0.55 -15.5 0.5 -16.65 1.4 -17.2 1.4 -17.45 0.65 -17.95 0.25 -18.1 -2.2 -20.0 -1.5 -20.75 -1.65 -21.15 -3.2 -20.65 -3.95 -21.0 -5.85 -23.45 -6.15 -23.7 -7.65 -20.65 -10.05 -19.2 -18.7 Q-17.95 -23.95 -15.8 -28.9 -15.35 -35.05 -14.25 -41.2 -14.05 -42.25 -13.35 -43.0 L-13.2 -43.1 -12.85 -43.2 -12.85 -43.25 Q-10.1 -41.25 -8.65 -37.5 L-7.6 -34.4 -7.2 -34.45 -2.45 -35.0 -0.55 -35.45 Q8.4 -36.15 16.05 -32.45 17.85 -35.8 18.25 -39.8 L18.3 -40.2 18.55 -40.35 19.2 -40.45 Q24.55 -33.65 24.95 -25.45 L25.2 -25.2 25.0 -23.15 24.95 -22.4 24.95 -22.15 24.85 -22.15 24.3 -18.7 22.9 -12.45 Q26.1 -10.85 26.65 -7.2 26.9 -5.6 26.45 -4.15 24.6 1.45 18.3 -0.2 L17.65 0.9 16.9 1.05 15.75 3.6 8.15 4.65 7.15 4.1 5.25 5.0 4.6 5.8 0.2 5.05 Q-7.4 3.85 -13.9 0.6 L-14.0 -0.5 -13.15 -1.95 -14.15 -2.25 Q-17.35 -3.2 -18.9 -6.15 L-18.9 -6.2 Q-19.7 -7.65 -19.55 -9.1 -20.1 -8.3 -21.5 -7.7 L-21.9 -7.4 -21.6 -7.3 Q-20.15 -6.9 -18.95 -6.15 L-19.0 -3.25 -17.3 -3.3 -16.8 -0.5 -15.9 -1.25 -15.15 -1.4 -14.0 0.6 M18.25 -3.5 Q21.0 -10.9 22.75 -18.7 L23.95 -25.2 24.05 -25.45 Q23.75 -31.6 20.05 -36.85 L19.45 -37.65 Q19.1 -34.2 17.4 -31.7 L17.6 -31.3 Q17.0 -31.65 16.25 -31.8 L14.6 -32.05 9.2 -33.45 5.6 -33.95 5.25 -34.0 5.1 -34.0 1.9 -34.15 1.75 -34.15 -2.35 -33.95 -6.2 -33.4 -7.3 -33.25 Q-6.55 -30.25 -6.25 -27.15 L-6.95 -27.0 -7.25 -26.6 Q-7.9 -32.0 -10.35 -36.85 L-11.05 -38.4 -11.65 -38.8 -12.05 -39.15 -12.15 -40.3 -12.45 -41.1 -12.6 -40.4 -14.4 -30.1 -14.45 -29.7 -14.1 -29.45 Q-14.3 -28.65 -14.8 -27.9 L-15.15 -27.5 -17.4 -18.7 -19.25 -10.65 -18.4 -12.1 Q-16.75 -14.45 -14.1 -15.2 -10.8 -15.2 -8.45 -12.85 -6.15 -10.5 -6.15 -7.15 L-7.85 -3.2 -4.7 -3.55 Q6.5 -4.8 17.15 -0.65 L17.7 -2.05 18.25 -3.5 M8.0 -10.3 L12.4 -8.05 7.3 -9.65 2.8 -10.3 2.55 -10.35 3.4 -10.55 8.0 -10.3 M6.6 -7.1 L14.9 -4.7 -4.9 -6.75 -3.75 -7.15 Q-0.65 -8.5 2.6 -7.7 L6.6 -7.1 M19.15 -2.7 L18.85 -1.4 Q21.7 -0.25 23.75 -2.55 27.95 -7.35 22.45 -11.85 L21.95 -10.65 20.95 -7.55 20.8 -7.2 20.1 -5.15 19.15 -2.7 M5.35 2.6 L6.6 1.9 7.65 2.85 14.85 2.2 16.1 0.25 16.15 0.15 Q3.95 -2.8 -8.25 -2.7 -9.15 -2.25 -10.25 -2.15 L-11.25 -2.0 -11.6 -1.45 -12.3 -0.6 -9.35 1.4 -8.05 1.8 -4.1 2.1 -3.55 2.3 -3.35 2.7 -3.25 2.85 Q-0.05 4.8 3.8 3.85 L5.35 2.6 M-12.05 -31.85 Q-12.05 -30.05 -12.55 -28.4 L-12.55 -28.15 Q-11.6 -28.0 -10.5 -27.5 L-10.0 -27.65 Q-11.2 -29.7 -11.9 -31.85 L-12.05 -31.85 M-11.65 -33.0 Q-11.0 -30.8 -9.95 -28.85 L-9.6 -28.4 -9.55 -28.0 -9.5 -27.65 -9.15 -27.25 -9.0 -27.0 Q-10.05 -26.6 -11.05 -27.25 L-13.1 -27.0 -12.8 -32.75 Q-12.8 -33.5 -12.2 -33.4 L-11.65 -33.0 M-16.35 -12.3 Q-17.95 -10.75 -17.95 -8.55 -17.95 -6.35 -16.35 -4.75 -14.8 -3.2 -12.6 -3.2 -10.4 -3.2 -8.8 -4.75 -7.25 -6.35 -7.25 -8.55 -7.25 -10.75 -8.8 -12.3 -10.4 -13.9 -12.6 -13.9 -14.8 -13.9 -16.35 -12.3" fill="#000000" fill-rule="evenodd" stroke="none"/>
    <path d="M-18.9 -6.2 L-18.9 -6.15 -18.95 -6.15 -18.9 -6.2 M16.25 -31.8 Q17.0 -31.65 17.6 -31.3 L17.4 -31.7 Q19.1 -34.2 19.45 -37.65 L20.05 -36.85 Q23.75 -31.6 24.05 -25.45 L23.95 -25.2 22.75 -18.7 Q21.0 -10.9 18.25 -3.5 L16.05 -5.1 Q19.9 -11.7 17.25 -17.9 L16.75 -18.7 16.05 -19.2 Q17.2 -25.6 16.5 -31.75 L16.25 -31.8 M-14.1 -15.2 Q-16.75 -14.45 -18.4 -12.1 L-19.25 -10.65 -17.4 -18.7 -15.15 -27.5 -14.8 -27.9 Q-14.3 -28.65 -14.1 -29.45 L-14.45 -29.7 -14.4 -30.1 -12.6 -40.4 -12.15 -40.3 -12.05 -39.15 -11.65 -38.8 -11.05 -38.4 -10.35 -36.85 Q-7.9 -32.0 -7.25 -26.6 L-6.95 -27.0 -6.25 -27.15 Q-6.55 -30.25 -7.3 -33.25 L-6.2 -33.4 -2.35 -33.95 -3.75 -33.75 Q-3.6 -27.85 -4.0 -21.95 L-7.7 -21.75 Q-9.95 -21.35 -12.15 -20.0 L-13.2 -18.8 -13.2 -18.7 -14.1 -15.2 M5.6 -33.95 L9.2 -33.45 9.25 -32.85 Q9.75 -26.3 9.1 -19.85 L4.85 -20.55 Q5.45 -27.2 5.6 -33.95 M-11.65 -33.0 L-12.2 -33.4 Q-12.8 -33.5 -12.8 -32.75 L-13.1 -27.0 -11.05 -27.25 Q-10.05 -26.6 -9.0 -27.0 L-9.15 -27.25 -9.5 -27.65 -9.55 -28.0 -9.6 -28.4 -9.95 -28.85 Q-11.0 -30.8 -11.65 -33.0" fill="#b42001" fill-rule="evenodd" stroke="none"/>
    <path d="M-13.9 0.6 L-14.0 0.6 -15.15 -1.4 -15.9 -1.25 -16.8 -0.5 -17.3 -3.3 -19.0 -3.25 -18.95 -6.15 Q-20.15 -6.9 -21.6 -7.3 L-21.5 -7.7 Q-20.1 -8.3 -19.55 -9.1 -19.7 -7.65 -18.9 -6.2 L-18.95 -6.15 -18.9 -6.15 Q-17.35 -3.2 -14.15 -2.25 L-13.15 -1.95 -14.0 -0.5 -13.9 0.6 M18.25 -3.5 L17.7 -2.05 17.15 -0.65 Q6.5 -4.8 -4.7 -3.55 L-7.85 -3.2 -6.15 -7.15 -4.3 -18.7 -4.0 -21.95 Q-3.6 -27.85 -3.75 -33.75 L-2.35 -33.95 1.75 -34.15 1.9 -34.15 5.1 -34.0 5.25 -34.0 5.6 -33.95 Q5.45 -27.2 4.85 -20.55 L4.65 -18.7 3.4 -10.55 2.55 -10.35 2.8 -10.3 2.6 -7.7 Q-0.65 -8.5 -3.75 -7.15 L-4.9 -6.75 14.9 -4.7 6.6 -7.1 7.3 -9.65 12.4 -8.05 8.0 -10.3 9.0 -18.7 9.1 -19.85 Q9.75 -26.3 9.25 -32.85 L9.2 -33.45 14.6 -32.05 16.25 -31.8 16.5 -31.75 Q17.2 -25.6 16.05 -19.2 L15.95 -18.7 13.0 -6.1 16.05 -5.1 18.25 -3.5" fill="#5e2222" fill-rule="evenodd" stroke="none"/>
    <path d="M-6.15 -7.15 Q-6.15 -10.5 -8.45 -12.85 -10.8 -15.2 -14.1 -15.2 L-13.2 -18.7 -13.2 -18.8 -12.15 -20.0 Q-9.95 -21.35 -7.7 -21.75 L-4.0 -21.95 -4.3 -18.7 -6.15 -7.15 M16.05 -19.2 L16.75 -18.7 17.25 -17.9 Q19.9 -11.7 16.05 -5.1 L13.0 -6.1 15.95 -18.7 16.05 -19.2 M3.4 -10.55 L4.65 -18.7 4.85 -20.55 9.1 -19.85 9.0 -18.7 8.0 -10.3 3.4 -10.55 M7.3 -9.65 L6.6 -7.1 2.6 -7.7 2.8 -10.3 7.3 -9.65 M-12.05 -31.85 L-11.9 -31.85 Q-11.2 -29.7 -10.0 -27.65 L-10.5 -27.5 Q-11.6 -28.0 -12.55 -28.15 L-12.55 -28.4 Q-12.05 -30.05 -12.05 -31.85" fill="#831701" fill-rule="evenodd" stroke="none"/>
    <path d="M21.95 -10.65 L22.45 -11.85 Q27.95 -7.35 23.75 -2.55 21.7 -0.25 18.85 -1.4 L19.15 -2.7 Q24.35 -1.95 23.85 -7.0 L23.7 -7.85 21.95 -10.65 M-12.55 -12.2 Q-14.0 -12.2 -15.05 -10.6 -16.1 -9.05 -16.1 -6.8 -16.5 -6.6 -16.5 -6.1 -16.55 -4.4 -14.75 -4.7 L-14.35 -5.0 Q-8.85 -3.6 -9.15 -9.1 L-9.3 -9.95 -10.95 -12.65 -12.55 -12.2 M-16.35 -12.3 Q-14.8 -13.9 -12.6 -13.9 -10.4 -13.9 -8.8 -12.3 -7.25 -10.75 -7.25 -8.55 -7.25 -6.35 -8.8 -4.75 -10.4 -3.2 -12.6 -3.2 -14.8 -3.2 -16.35 -4.75 -17.95 -6.35 -17.95 -8.55 -17.95 -10.75 -16.35 -12.3" fill="#f5ff2f" fill-rule="evenodd" stroke="none"/>
    <path d="M20.95 -7.55 L21.95 -10.65 23.7 -7.85 Q23.4 -7.4 22.75 -7.25 L21.3 -7.3 20.95 -7.55 M-9.3 -9.95 Q-9.6 -9.5 -10.25 -9.35 -12.1 -8.85 -12.7 -10.7 -13.05 -11.6 -12.55 -12.2 L-10.95 -12.65 -9.3 -9.95 M-16.1 -6.8 L-14.4 -6.35 -14.35 -5.0 -14.75 -4.7 Q-16.55 -4.4 -16.5 -6.1 -16.5 -6.6 -16.1 -6.8" fill="#ffffff" fill-rule="evenodd" stroke="none"/>
    <path d="M19.15 -2.7 L20.1 -5.15 21.3 -5.25 22.2 -5.85 Q22.45 -6.25 22.15 -6.65 21.8 -7.05 20.8 -7.2 L20.95 -7.55 21.3 -7.3 22.75 -7.25 Q23.4 -7.4 23.7 -7.85 L23.85 -7.0 Q24.35 -1.95 19.15 -2.7 M-13.3 -8.1 L-13.2 -7.5 Q-12.85 -7.05 -12.2 -7.0 -11.75 -7.0 -11.5 -7.35 -10.35 -8.65 -12.15 -9.3 L-12.35 -9.25 -13.2 -8.55 -13.3 -8.1 M-12.55 -12.2 Q-13.05 -11.6 -12.7 -10.7 -12.1 -8.85 -10.25 -9.35 -9.6 -9.5 -9.3 -9.95 L-9.15 -9.1 Q-8.85 -3.6 -14.35 -5.0 L-14.4 -6.35 -16.1 -6.8 Q-16.1 -9.05 -15.05 -10.6 -14.0 -12.2 -12.55 -12.2" fill="#a3a201" fill-rule="evenodd" stroke="none"/>
    <path d="M20.1 -5.15 L20.8 -7.2 Q21.8 -7.05 22.15 -6.65 22.45 -6.25 22.2 -5.85 L21.3 -5.25 20.1 -5.15 M-13.3 -8.1 L-13.2 -8.55 -12.35 -9.25 -12.15 -9.3 Q-10.35 -8.65 -11.5 -7.35 -11.75 -7.0 -12.2 -7.0 -12.85 -7.05 -13.2 -7.5 L-13.3 -8.1" fill="#6d6d01" fill-rule="evenodd" stroke="none"/>
    <path d="M-10.25 -2.15 Q-9.15 -2.25 -8.25 -2.7 3.95 -2.8 16.15 0.15 L16.1 0.25 14.85 2.2 7.65 2.85 6.6 1.9 5.35 2.6 5.25 1.3 4.85 0.9 Q0.75 -1.0 -3.45 0.15 L-4.1 2.1 -8.05 1.8 Q-8.05 0.25 -8.7 -0.85 -9.35 -1.95 -10.25 -1.95 L-10.25 -2.15 M3.8 3.85 Q-0.05 4.8 -3.25 2.85 L-3.35 2.7 -3.15 1.6 Q0.7 0.35 3.8 2.85 L3.8 3.85 M-11.6 -1.45 Q-9.85 -0.95 -8.85 0.25 L-9.35 1.4 -12.3 -0.6 -11.6 -1.45" fill="#d6d0b4" fill-rule="evenodd" stroke="none"/>
    <path d="M-10.25 -1.95 Q-9.35 -1.95 -8.7 -0.85 -8.05 0.25 -8.05 1.8 L-9.35 1.4 -8.85 0.25 Q-9.85 -0.95 -11.6 -1.45 L-11.25 -2.0 -10.25 -1.95 M-4.1 2.1 L-3.45 0.15 Q0.75 -1.0 4.85 0.9 L5.25 1.3 5.35 2.6 3.8 3.85 3.8 2.85 Q0.7 0.35 -3.15 1.6 L-3.35 2.7 -3.55 2.3 -4.1 2.1" fill="#3e3722" fill-rule="evenodd" stroke="none"/>
  </g>
</svg>
