<?xml version="1.0" encoding="UTF-8" standalone="no"?>
<svg xmlns:xlink="http://www.w3.org/1999/xlink" height="37.4px" width="35.45px" xmlns="http://www.w3.org/2000/svg">
  <g transform="matrix(1.0, 0.0, 0.0, 1.0, 17.7, 18.7)">
    <path d="M5.35 -13.65 L5.35 -14.45 Q1.15 -18.7 -4.45 -15.75 -5.45 -15.25 -5.65 -14.25 L-5.7 -13.2 -5.25 -13.25 -3.5 -13.4 Q0.9 -13.85 4.8 -12.2 L5.4 -11.95 5.35 -13.65 M6.7 -12.85 L6.65 -11.45 Q7.3 -10.2 7.25 -8.85 L16.15 -6.95 17.6 -6.15 17.65 1.2 17.4 1.25 17.25 1.25 17.05 1.4 16.9 1.6 16.75 1.8 16.7 2.0 16.7 2.15 16.7 2.35 17.55 2.75 Q17.3 6.3 16.65 9.75 L16.3 9.8 15.7 10.3 15.7 10.7 Q15.7 11.65 16.7 11.75 L14.9 18.7 Q11.85 17.85 8.55 17.55 5.95 18.9 2.35 18.5 L-2.5 18.0 -8.35 18.55 -15.0 18.25 -15.3 18.05 -17.7 16.4 -17.45 12.65 Q-15.65 0.85 -11.15 -9.9 L-9.25 -10.7 -7.7 -10.55 -7.75 -11.65 -7.7 -12.45 -7.15 -12.8 -7.15 -13.3 Q-7.45 -14.2 -7.4 -15.2 L-7.35 -15.7 -7.0 -16.0 -7.0 -16.5 Q-4.35 -18.35 -1.2 -18.7 3.7 -18.85 6.75 -15.25 L6.7 -13.55 6.75 -13.45 6.8 -13.25 6.7 -12.85 M5.4 -9.15 L5.45 -9.15 5.35 -10.95 5.3 -11.15 -5.6 -12.35 -5.6 -12.3 -5.75 -10.5 5.4 -9.15 M13.45 -6.15 Q10.55 -6.8 8.05 -5.4 L8.3 -0.3 8.35 0.9 15.95 0.8 16.15 -1.5 16.15 -1.75 15.75 -5.35 15.6 -5.4 15.55 -5.45 13.45 -6.15 M6.35 -1.8 Q6.95 -4.65 5.1 -6.65 -0.45 -8.95 -6.4 -8.75 L-7.45 -9.0 -8.45 -8.9 -8.85 -8.95 -8.85 -8.9 Q-9.55 -8.9 -10.05 -8.4 L-10.05 -8.25 -10.2 -8.25 -11.5 -4.85 -11.95 -2.0 6.1 0.05 6.35 -1.8 M15.85 5.7 L15.95 2.6 8.45 4.6 8.35 6.3 7.7 9.65 15.45 9.0 15.85 5.7 M14.75 12.05 L13.3 12.25 7.25 13.0 Q-1.15 13.25 -9.6 11.8 L-14.9 11.15 -15.55 15.55 Q-14.35 15.7 -13.15 16.15 -10.9 14.8 -8.05 14.55 -3.65 13.9 -0.2 16.7 L2.65 16.6 5.75 16.35 6.2 15.95 Q8.1 14.85 10.35 15.15 11.85 15.2 12.9 16.4 L13.8 17.65 14.4 17.65 14.75 12.05 M2.1 2.15 L1.35 2.05 -5.8 0.95 -12.3 -0.2 -14.25 6.05 -14.85 9.5 4.95 10.2 5.15 7.7 5.55 3.9 Q4.1 2.45 2.1 2.15" fill="#000000" fill-rule="evenodd" stroke="none"/>
    <path d="M5.35 -13.65 L5.4 -11.95 4.8 -12.2 Q0.9 -13.85 -3.5 -13.4 L-5.25 -13.25 -5.7 -13.2 -5.65 -14.25 Q-5.45 -15.25 -4.45 -15.75 1.15 -18.7 5.35 -14.45 L5.35 -13.65 M5.4 -9.15 L-5.75 -10.5 -5.6 -12.3 -5.6 -12.35 5.3 -11.15 5.35 -10.95 5.45 -9.15 5.4 -9.15 M8.3 -0.3 L16.15 -1.5 15.95 0.8 8.35 0.9 8.3 -0.3 M6.35 -1.8 L6.1 0.05 -11.95 -2.0 -11.5 -4.85 6.35 -1.8 M15.85 5.7 L15.45 9.0 7.7 9.65 8.35 6.3 15.85 5.7 M14.75 12.05 L14.4 17.65 13.8 17.65 12.9 16.4 Q11.85 15.2 10.35 15.15 8.1 14.85 6.2 15.95 L5.75 16.35 2.65 16.6 -0.2 16.7 Q-3.65 13.9 -8.05 14.55 -10.9 14.8 -13.15 16.15 -14.35 15.7 -15.55 15.55 L-14.9 11.15 -9.6 11.8 Q-1.15 13.25 7.25 13.0 L13.3 12.25 14.75 12.05 M-14.25 6.05 L-11.5 6.7 5.15 7.7 4.95 10.2 -14.85 9.5 -14.25 6.05" fill="#cccccc" fill-rule="evenodd" stroke="none"/>
    <path d="M3.95 -5.7 L3.45 -6.0 Q2.45 -6.05 1.55 -5.45 L1.5 -4.95 1.55 -4.7 Q1.9 -4.15 2.6 -4.0 L4.1 -4.5 4.25 -4.95 4.15 -5.45 3.95 -5.7 M8.3 -0.3 L8.05 -5.4 Q10.55 -6.8 13.45 -6.15 L13.3 -5.8 13.35 -5.55 13.55 -5.05 13.5 -4.5 13.45 -4.0 13.85 -3.5 14.6 -2.0 15.1 -1.8 15.45 -1.9 15.6 -2.0 15.7 -2.1 15.8 -2.0 16.15 -1.75 16.15 -1.5 8.3 -0.3 M-11.5 -4.85 L-10.2 -8.25 -10.05 -8.25 -10.05 -8.4 Q-9.55 -8.9 -8.85 -8.9 L-8.85 -8.95 -8.45 -8.9 -7.45 -9.0 -6.4 -8.75 Q-0.45 -8.95 5.1 -6.65 6.95 -4.65 6.35 -1.8 L-11.5 -4.85 M8.35 6.3 L8.45 4.6 15.95 2.6 15.85 5.7 8.35 6.3 M-5.8 0.95 L-5.75 1.3 -5.45 1.55 Q-4.8 2.1 -4.0 2.35 L-3.65 2.3 -2.0 2.55 -2.4 2.75 -2.6 2.95 -2.7 3.5 -2.45 4.25 -1.9 4.4 Q-0.25 4.65 1.2 3.9 L1.35 3.75 1.45 3.5 1.9 3.3 2.1 3.2 2.25 2.8 2.35 2.55 2.1 2.15 Q4.1 2.45 5.55 3.9 L5.15 7.7 -11.5 6.7 -14.25 6.05 -12.3 -0.2 -5.8 0.95 M-6.75 3.8 L-7.15 3.55 -7.15 3.6 Q-8.65 4.1 -8.95 5.9 -8.25 7.25 -6.8 6.8 L-6.6 6.6 -6.0 5.85 -6.1 5.55 -6.5 4.0 -6.75 3.8" fill="#ffffff" fill-rule="evenodd" stroke="none"/>
    <path d="M3.95 -5.7 L4.15 -5.45 4.25 -4.95 4.1 -4.5 2.6 -4.0 Q1.9 -4.15 1.55 -4.7 L1.5 -4.95 1.55 -5.45 Q2.45 -6.05 3.45 -6.0 L3.95 -5.7 M16.15 -1.75 L15.8 -2.0 15.7 -2.1 15.6 -2.0 15.45 -1.9 15.1 -1.8 14.6 -2.0 13.85 -3.5 13.45 -4.0 13.5 -4.5 13.55 -5.05 13.35 -5.55 13.3 -5.8 13.45 -6.15 15.55 -5.45 15.6 -5.4 15.75 -5.35 16.15 -1.75 M2.1 2.15 L2.35 2.55 2.25 2.8 2.1 3.2 1.9 3.3 1.45 3.5 1.35 3.75 1.2 3.9 Q-0.25 4.65 -1.9 4.4 L-2.45 4.25 -2.7 3.5 -2.6 2.95 -2.4 2.75 -2.0 2.55 -3.65 2.3 -4.0 2.35 Q-4.8 2.1 -5.45 1.55 L-5.75 1.3 -5.8 0.95 1.35 2.05 2.1 2.15 M-6.75 3.8 L-6.5 4.0 -6.1 5.55 -6.0 5.85 -6.6 6.6 -6.8 6.8 Q-8.25 7.25 -8.95 5.9 -8.65 4.1 -7.15 3.6 L-7.15 3.55 -6.75 3.8" fill="#947645" fill-rule="evenodd" stroke="none"/>
  </g>
</svg>
