<?xml version="1.0" encoding="UTF-8" standalone="no"?>
<svg xmlns:xlink="http://www.w3.org/1999/xlink" height="41.5px" width="35.05px" xmlns="http://www.w3.org/2000/svg">
  <g transform="matrix(1.0, 0.0, 0.0, 1.0, 19.1, 18.1)">
    <path d="M5.4 -14.7 Q6.1 -12.8 5.85 -10.7 L5.9 -10.6 5.75 -9.1 Q11.65 -7.3 15.65 -2.85 L15.85 -2.55 15.75 -2.35 Q16.15 -1.3 15.8 0.1 L15.2 3.35 Q14.75 3.55 14.5 4.1 13.75 5.45 14.75 6.1 L13.7 9.6 12.85 14.65 12.85 14.8 12.75 16.95 8.8 19.8 8.45 19.95 7.6 19.85 7.1 19.9 3.7 20.95 3.05 21.45 2.0 21.85 1.5 21.9 0.75 22.3 -0.5 22.8 -0.55 22.8 -1.65 22.7 -2.5 23.05 Q-3.4 23.5 -4.4 23.35 L-9.45 22.65 -15.1 21.7 -18.05 21.1 -18.85 20.65 -18.9 19.05 -18.95 19.05 -19.1 16.8 -18.5 16.65 -18.35 16.5 -18.2 16.15 -18.15 15.95 -18.25 15.8 Q-18.55 15.3 -19.1 15.25 L-19.05 11.9 -18.9 11.85 Q-17.95 11.7 -18.15 10.8 L-18.3 10.6 Q-18.6 10.3 -18.95 10.3 L-18.5 5.1 -18.3 5.05 -17.9 4.75 -17.65 4.05 -17.7 3.85 -18.25 3.25 Q-17.8 0.15 -16.75 -2.8 L-16.35 -3.4 -16.1 -3.9 -16.15 -4.0 -15.95 -4.2 Q-13.1 -6.8 -9.15 -7.35 L-8.65 -7.15 -7.95 -11.55 -7.95 -11.85 -7.85 -12.05 -7.8 -12.1 -7.55 -12.95 -7.5 -14.15 -7.3 -14.45 -7.25 -14.7 -6.85 -15.0 Q-4.5 -17.95 -0.5 -18.0 L0.25 -18.1 Q4.15 -18.05 5.4 -14.7 M4.35 -14.3 Q3.95 -15.4 2.95 -16.15 L0.85 -16.7 Q-0.75 -16.7 -2.55 -15.9 L-4.9 -14.9 -4.9 -14.7 -4.9 -14.55 -5.35 -13.55 -3.2 -13.9 -1.1 -14.15 Q2.15 -14.65 4.65 -13.15 L4.35 -14.3 M4.4 -10.8 L4.45 -11.25 4.55 -12.1 Q-0.8 -14.35 -5.95 -12.2 L-6.25 -9.9 -4.2 -10.65 -1.9 -11.25 Q1.35 -11.35 4.1 -10.1 L4.4 -10.75 4.4 -10.8 M3.95 -9.4 L-2.1 -9.8 Q-4.4 -9.6 -6.4 -8.65 L-6.6 -7.5 0.7 -8.45 2.45 -8.45 3.8 -8.2 4.05 -8.5 4.25 -9.05 4.15 -9.15 3.85 -9.3 3.95 -9.35 3.95 -9.4 M13.65 2.0 L14.1 -1.25 14.15 -2.6 12.05 -4.25 Q6.0 -7.85 -1.65 -6.75 L-4.6 -6.3 -5.25 -6.15 -6.1 -6.0 -6.35 -5.95 -6.85 -5.8 -7.4 -5.7 -7.55 -5.65 -11.0 -4.6 -11.3 -4.5 Q-13.25 -3.8 -14.75 -2.55 L-14.7 -2.4 -15.05 -1.1 -15.4 0.25 -15.8 2.15 -15.35 2.0 -15.35 1.95 Q-14.25 1.8 -13.3 1.95 -10.1 0.65 -6.4 0.35 L1.95 -0.15 Q6.3 0.45 9.85 2.4 L11.0 2.65 12.35 3.0 12.95 3.05 13.6 2.35 13.65 2.0 M12.05 9.25 L12.15 8.9 12.2 7.5 12.35 7.3 12.45 5.15 Q8.0 1.9 2.2 1.4 L-1.9 1.2 Q-9.45 1.5 -16.15 4.35 L-16.15 4.45 -16.55 8.6 -16.05 8.5 -15.85 8.4 Q-15.2 8.3 -14.75 8.75 L-1.65 7.75 -0.15 7.75 1.85 7.85 2.0 7.85 3.45 8.1 4.4 8.3 4.75 8.35 Q7.45 9.05 9.8 10.6 9.85 10.5 10.0 10.5 L10.25 10.4 11.65 10.7 12.05 9.25 M5.8 18.35 L5.9 18.3 6.35 18.1 6.9 17.9 7.4 17.6 8.45 17.65 Q9.3 17.7 10.0 17.1 L11.0 16.35 Q10.8 15.9 10.9 15.4 L10.75 14.6 10.65 14.6 Q3.25 17.05 -4.7 16.4 L-11.15 15.75 -16.85 15.25 -17.2 17.25 -17.2 19.3 Q-11.8 20.9 -5.6 21.45 L-2.25 21.1 -1.75 20.95 -1.55 20.9 -1.25 20.85 -0.75 20.7 -0.6 20.6 5.8 18.35 M10.9 12.95 L10.95 12.8 11.0 12.6 10.9 12.3 Q2.95 7.6 -6.55 9.1 L-14.3 10.2 -16.6 10.55 -16.6 11.55 -16.6 12.0 -16.75 13.15 Q-15.7 13.05 -14.35 13.6 L-12.65 14.15 Q-0.65 15.95 10.95 13.4 L10.95 13.35 10.85 13.15 10.9 12.95" fill="#000000" fill-rule="evenodd" stroke="none"/>
    <path d="M3.95 -9.4 L3.95 -9.35 3.85 -9.3 4.15 -9.15 4.25 -9.05 4.05 -8.5 3.8 -8.2 2.45 -8.45 0.7 -8.45 -6.6 -7.5 -6.4 -8.65 Q-4.4 -9.6 -2.1 -9.8 L3.95 -9.4 M4.4 -10.8 L4.4 -10.75 4.1 -10.1 Q1.35 -11.35 -1.9 -11.25 L-4.2 -10.65 -6.25 -9.9 -5.95 -12.2 Q-0.8 -14.35 4.55 -12.1 L4.45 -11.25 4.4 -10.8 M4.35 -14.3 L4.65 -13.15 Q2.15 -14.65 -1.1 -14.15 L-3.2 -13.9 -5.35 -13.55 -4.9 -14.55 -4.9 -14.7 -4.9 -14.9 -2.55 -15.9 Q-0.75 -16.7 0.85 -16.7 L2.95 -16.15 Q3.95 -15.4 4.35 -14.3 M-4.6 -6.3 L-3.4 -6.0 -4.2 -6.2 -5.25 -6.15 -4.6 -6.3 M-15.4 0.25 L-13.75 -0.35 Q-2.8 -3.6 8.45 -0.95 L13.65 2.0 13.6 2.35 12.95 3.05 12.35 3.0 11.0 2.65 9.85 2.4 Q6.3 0.45 1.95 -0.15 L-6.4 0.35 Q-10.1 0.65 -13.3 1.95 -14.25 1.8 -15.35 1.95 L-15.35 2.0 -15.8 2.15 -15.4 0.25 M12.05 9.25 L11.65 10.7 10.25 10.4 10.0 10.5 Q9.85 10.5 9.8 10.6 7.45 9.05 4.75 8.35 L4.7 8.3 4.55 8.15 Q3.65 7.5 3.9 6.45 L3.8 6.3 Q3.4 5.85 2.75 5.85 L2.75 5.9 2.45 5.95 2.3 6.0 Q2.2 6.0 2.15 6.1 L1.95 6.3 1.9 6.45 1.8 6.85 Q0.8 7.25 -0.15 7.75 L-1.65 7.75 -14.75 8.75 Q-15.2 8.3 -15.85 8.4 L-16.05 8.5 -16.55 8.6 -16.15 4.45 -11.5 4.4 Q-3.6 4.3 4.35 5.6 6.0 5.85 7.55 6.5 10.0 7.5 12.05 9.25 M5.8 18.35 L-0.6 20.6 -0.75 20.7 -1.25 20.85 -1.55 20.9 -1.75 20.95 -2.25 21.1 -5.6 21.45 Q-11.8 20.9 -17.2 19.3 L-17.2 17.25 -16.85 15.25 -11.15 15.75 -4.7 16.4 Q3.25 17.05 10.65 14.6 L10.75 14.6 10.9 15.4 Q10.8 15.9 11.0 16.35 L10.0 17.1 Q9.3 17.7 8.45 17.65 L7.4 17.6 6.9 17.9 6.35 18.1 5.9 18.3 5.8 18.35 M10.9 12.95 L10.85 13.15 10.95 13.35 10.95 13.4 Q-0.65 15.95 -12.65 14.15 L-14.35 13.6 Q-15.7 13.05 -16.75 13.15 L-16.6 12.0 -16.6 11.55 -10.5 12.1 -9.15 12.6 -8.9 12.5 -8.6 12.25 -8.6 12.2 Q-2.8 12.55 3.1 12.5 L10.9 12.95" fill="#cccccc" fill-rule="evenodd" stroke="none"/>
    <path d="M8.85 -3.5 Q8.75 -3.15 9.0 -2.75 L9.35 -1.8 Q11.0 -0.25 12.15 -1.55 L11.9 -2.1 11.55 -2.65 11.55 -2.85 Q11.25 -4.15 9.75 -4.1 L9.25 -4.0 9.1 -3.85 8.85 -3.5 M-4.6 -6.3 L-1.65 -6.75 Q6.0 -7.85 12.05 -4.25 L14.15 -2.6 14.1 -1.25 13.65 2.0 8.45 -0.95 Q-2.8 -3.6 -13.75 -0.35 L-15.4 0.25 -15.05 -1.1 -14.7 -2.4 -14.75 -2.55 Q-13.25 -3.8 -11.3 -4.5 L-11.0 -4.6 -7.55 -5.65 -7.4 -5.7 -6.85 -5.8 -6.35 -5.95 -6.1 -6.0 -5.25 -6.15 -4.2 -6.2 -3.4 -6.0 -4.6 -6.3 M-16.15 4.45 L-16.15 4.35 Q-9.45 1.5 -1.9 1.2 L2.2 1.4 Q8.0 1.9 12.45 5.15 L12.35 7.3 12.2 7.5 12.15 8.9 12.05 9.25 Q10.0 7.5 7.55 6.5 6.0 5.85 4.35 5.6 -3.6 4.3 -11.5 4.4 L-16.15 4.45 M-16.6 11.55 L-16.6 10.55 -14.3 10.2 -6.55 9.1 Q2.95 7.6 10.9 12.3 L11.0 12.6 10.95 12.8 10.9 12.95 3.1 12.5 Q-2.8 12.55 -8.6 12.2 L-8.65 11.9 -8.75 11.5 -9.1 11.4 Q-9.75 11.05 -10.4 11.05 L-10.65 11.1 -10.8 11.15 -10.95 11.3 -11.0 11.45 -11.0 11.65 -10.95 11.85 -10.75 11.95 -10.45 12.1 -10.5 12.1 -16.6 11.55 M-5.9 -3.1 L-5.95 -3.25 Q-6.45 -4.05 -7.3 -4.1 L-7.55 -4.05 Q-8.05 -3.85 -8.0 -3.4 L-7.85 -3.25 -6.55 -2.35 -6.25 -2.5 Q-5.9 -2.75 -5.9 -3.1" fill="#ffffff" fill-rule="evenodd" stroke="none"/>
    <path d="M8.85 -3.5 L9.1 -3.85 9.25 -4.0 9.75 -4.1 Q11.25 -4.15 11.55 -2.85 L11.55 -2.65 11.9 -2.1 12.15 -1.55 Q11.0 -0.25 9.35 -1.8 L9.0 -2.75 Q8.75 -3.15 8.85 -3.5 M4.75 8.35 L4.4 8.3 3.45 8.1 2.0 7.85 1.85 7.85 -0.15 7.75 Q0.8 7.25 1.8 6.85 L1.9 6.45 1.95 6.3 2.15 6.1 Q2.2 6.0 2.3 6.0 L2.45 5.95 2.75 5.9 2.75 5.85 Q3.4 5.85 3.8 6.3 L3.9 6.45 Q3.65 7.5 4.55 8.15 L4.7 8.3 4.75 8.35 M-10.5 12.1 L-10.45 12.1 -10.75 11.95 -10.95 11.85 -11.0 11.65 -11.0 11.45 -10.95 11.3 -10.8 11.15 -10.65 11.1 -10.4 11.05 Q-9.75 11.05 -9.1 11.4 L-8.75 11.5 -8.65 11.9 -8.6 12.2 -8.6 12.25 -8.9 12.5 -9.15 12.6 -10.5 12.1 M-5.9 -3.1 Q-5.9 -2.75 -6.25 -2.5 L-6.55 -2.35 -7.85 -3.25 -8.0 -3.4 Q-8.05 -3.85 -7.55 -4.05 L-7.3 -4.1 Q-6.45 -4.05 -5.95 -3.25 L-5.9 -3.1" fill="#947645" fill-rule="evenodd" stroke="none"/>
  </g>
</svg>
