<?xml version="1.0" encoding="UTF-8" standalone="no"?>
<svg xmlns:xlink="http://www.w3.org/1999/xlink" height="42.7px" width="41.4px" xmlns="http://www.w3.org/2000/svg">
  <g transform="matrix(1.0, 0.0, 0.0, 1.0, 20.2, 22.5)">
    <path d="M-3.1 -20.45 L-2.65 -19.25 Q1.4 -17.6 5.8 -16.15 L5.85 -15.95 Q6.95 -14.3 8.3 -12.85 L8.7 -13.1 8.45 -13.45 Q7.05 -14.9 6.35 -16.75 L5.6 -17.15 Q2.55 -18.1 -0.15 -19.55 L-0.6 -20.0 -1.0 -20.8 -1.45 -20.75 -0.5 -20.9 0.65 -20.9 3.35 -20.5 Q7.3 -19.4 10.3 -17.15 13.6 -14.65 15.7 -10.8 L17.15 -7.9 18.7 -4.2 19.05 -2.35 Q19.3 -1.15 18.15 4.7 16.95 10.55 16.25 12.5 15.55 14.4 15.8 13.4 L15.9 13.2 15.9 13.15 15.9 13.05 15.65 11.05 15.8 10.7 Q15.8 8.7 15.3 6.65 13.65 -0.65 8.5 -6.15 L4.9 -9.35 Q-1.3 -13.85 -8.85 -13.7 L-11.1 -13.25 -12.85 -12.65 -16.2 -10.9 Q-11.8 -18.45 -3.1 -20.45" fill="#ffffff" fill-rule="evenodd" stroke="none"/>
    <path d="M-1.45 -20.75 L-1.0 -20.8 -0.6 -20.0 -0.15 -19.55 Q2.55 -18.1 5.6 -17.15 L6.35 -16.75 Q7.05 -14.9 8.45 -13.45 L8.7 -13.1 8.3 -12.85 Q6.95 -14.3 5.85 -15.95 L5.8 -16.15 Q1.4 -17.6 -2.65 -19.25 L-3.1 -20.45 -1.55 -20.75 -1.45 -20.75" fill="#a2a2a2" fill-rule="evenodd" stroke="none"/>
    <path d="M-3.1 -20.45 Q-11.8 -18.45 -16.2 -10.9 L-16.6 -10.2 -16.7 -10.1 -17.35 -8.65 -17.85 -7.25 -18.05 -6.4 -18.1 -5.95 -18.2 -5.4 -18.2 -5.0 -18.2 -2.7 -18.15 -2.5 -17.3 0.8 -16.9 1.65 -16.85 1.8 -16.85 1.85 -15.4 4.1 -13.4 6.45 Q-10.2 9.5 -5.6 10.7 L-4.35 11.0 0.55 11.25 0.55 11.45 2.55 12.15 Q5.2 12.5 7.7 13.55 L8.25 13.85 Q8.65 14.4 8.6 15.1 L8.4 17.2 8.35 18.15 12.75 18.55 13.5 18.6 13.75 18.1 15.65 13.8 15.8 13.4 Q15.55 14.4 16.25 12.5 16.95 10.55 18.15 4.7 19.3 -1.15 19.05 -2.35 L18.7 -4.2 17.15 -7.9 15.7 -10.8 Q13.6 -14.65 10.3 -17.15 7.3 -19.4 3.35 -20.5 L0.65 -20.9 -0.5 -20.9 -1.45 -20.75 -1.55 -20.75 -3.1 -20.45 M17.4 -11.4 Q18.9 -9.6 19.8 -7.2 21.2 -3.75 21.2 -1.15 21.2 1.4 20.4 4.75 19.6 8.1 17.5 13.25 L15.0 19.3 14.35 20.2 13.75 20.05 6.2 19.6 6.05 18.35 Q6.05 17.4 6.35 16.5 L6.5 15.6 -1.75 13.85 -6.65 12.65 Q-8.15 12.15 -10.35 10.9 L-12.6 9.5 Q-16.6 7.6 -18.65 3.3 -20.0 0.5 -20.2 -2.55 L-19.95 -6.0 -19.95 -6.6 -19.55 -8.9 Q-18.75 -11.5 -17.05 -13.4 -14.5 -17.35 -9.6 -19.75 -5.05 -21.95 -0.2 -22.5 6.45 -22.5 11.65 -18.15 15.2 -15.15 17.4 -11.4 M10.95 3.15 L11.5 3.35 12.05 3.6 Q13.7 6.2 12.35 8.05 L12.0 8.7 Q11.35 9.75 10.05 9.8 L10.0 9.8 9.85 9.8 9.5 9.75 Q7.1 9.5 5.85 7.4 5.8 5.55 6.9 4.4 L6.9 4.35 7.15 4.15 Q7.85 3.45 9.0 3.0 L10.1 2.65 10.5 2.85 10.95 3.15" fill="#000000" fill-rule="evenodd" stroke="none"/>
    <path d="M-16.2 -10.9 L-12.85 -12.65 -11.1 -13.25 -8.85 -13.7 Q-1.3 -13.85 4.9 -9.35 L8.5 -6.15 Q13.65 -0.65 15.3 6.65 15.8 8.7 15.8 10.7 L15.65 11.05 15.9 13.05 15.9 13.15 15.9 13.2 15.8 13.4 15.65 13.8 13.75 18.1 13.5 18.6 12.75 18.55 8.35 18.15 8.4 17.2 8.6 15.1 Q8.65 14.4 8.25 13.85 L7.7 13.55 Q5.2 12.5 2.55 12.15 L0.55 11.45 0.55 11.25 -4.35 11.0 -5.6 10.7 Q-10.2 9.5 -13.4 6.45 L-15.4 4.1 -16.85 1.85 -16.85 1.8 -16.9 1.65 -17.3 0.8 -18.15 -2.5 -18.2 -2.7 -18.2 -5.0 -18.2 -5.4 -18.1 -5.95 -18.05 -6.4 -17.85 -7.25 -17.35 -8.65 -16.7 -10.1 -16.6 -10.2 -16.2 -10.9 M10.95 3.15 L10.5 2.85 10.1 2.65 9.0 3.0 Q7.85 3.45 7.15 4.15 L6.9 4.35 6.9 4.4 Q5.8 5.55 5.85 7.4 7.1 9.5 9.5 9.75 L9.85 9.8 10.0 9.8 10.05 9.8 Q11.35 9.75 12.0 8.7 L12.35 8.05 Q13.7 6.2 12.05 3.6 L11.5 3.35 10.95 3.15" fill="#cccccc" fill-rule="evenodd" stroke="none"/>
  </g>
</svg>
