<?xml version="1.0" encoding="UTF-8" standalone="no"?>
<svg xmlns:xlink="http://www.w3.org/1999/xlink" height="40.05px" width="42.3px" xmlns="http://www.w3.org/2000/svg">
  <g transform="matrix(1.0, 0.0, 0.0, 1.0, 20.95, 21.65)">
    <path d="M-3.8 -18.3 L-3.45 -14.8 Q-2.0 -14.55 -0.95 -13.9 -0.7 -13.0 0.25 -12.35 L1.0 -12.15 1.15 -12.05 1.25 -11.8 1.3 -11.4 2.05 -11.4 Q2.2 -11.4 2.35 -11.55 0.5 -12.75 -0.4 -14.55 L-0.9 -15.0 -1.45 -15.75 -1.45 -16.55 -1.4 -18.55 Q7.85 -19.05 14.75 -11.2 22.1 -2.8 17.25 6.4 L11.35 10.35 11.5 8.25 11.55 7.6 Q12.65 7.45 13.5 6.6 14.5 5.6 14.55 4.1 14.5 2.6 13.5 1.6 12.5 0.6 11.05 0.6 L9.7 0.85 Q5.05 -9.05 -6.85 -10.1 -14.9 -8.45 -18.4 -2.45 -17.4 -11.3 -9.8 -16.15 -8.0 -17.3 -5.95 -17.85 L-3.8 -18.3" fill="#ffffff" fill-rule="evenodd" stroke="none"/>
    <path d="M-3.8 -18.3 L-5.95 -17.85 Q-8.0 -17.3 -9.8 -16.15 -17.4 -11.3 -18.4 -2.45 L-18.55 -0.95 Q-18.75 3.25 -16.9 7.3 L-15.35 8.75 -14.65 9.4 Q-14.0 9.95 -11.9 10.8 L-8.25 12.2 -4.75 12.85 Q-4.45 13.8 -4.55 14.95 L-4.6 16.1 -0.75 16.25 -1.1 12.95 -1.2 12.55 Q-0.95 11.7 0.0 11.9 L0.25 11.9 Q1.2 13.95 1.4 16.3 L6.65 16.35 6.6 13.8 8.75 12.1 11.35 10.35 17.25 6.4 Q22.1 -2.8 14.75 -11.2 7.85 -19.05 -1.4 -18.55 L-3.8 -18.3 M9.7 0.85 L11.05 0.6 Q12.5 0.6 13.5 1.6 14.5 2.6 14.55 4.1 14.5 5.6 13.5 6.6 12.65 7.45 11.55 7.6 L11.05 7.6 Q9.6 7.6 8.6 6.6 7.6 5.6 7.6 4.1 7.6 2.6 8.6 1.6 L9.7 0.85 M-15.6 -14.45 Q-9.5 -21.15 -0.55 -21.65 13.1 -19.7 19.55 -7.7 23.2 -0.95 19.5 5.8 19.05 6.95 17.65 8.45 L16.15 10.1 16.3 9.95 16.6 9.45 14.5 11.1 11.25 13.3 9.1 14.65 9.2 17.15 9.0 18.4 -4.0 18.4 -6.05 18.35 Q-6.45 18.35 -6.85 17.95 L-7.0 15.55 -6.95 14.4 -7.35 14.0 Q-11.6 13.5 -14.55 11.35 L-14.9 11.15 -15.95 10.5 -16.3 10.3 -17.65 9.0 -17.7 9.0 -17.9 8.7 -18.55 7.9 -18.6 7.6 Q-22.25 1.5 -20.25 -6.05 -18.95 -10.75 -15.6 -14.45 M-7.5 6.6 Q-8.5 7.6 -9.95 7.6 -11.4 7.6 -12.4 6.6 -13.4 5.6 -13.4 4.1 -13.4 2.6 -12.4 1.6 -11.4 0.6 -9.95 0.6 -8.5 0.6 -7.5 1.6 -6.5 2.6 -6.45 4.1 -6.5 5.6 -7.5 6.6" fill="#000000" fill-rule="evenodd" stroke="none"/>
    <path d="M-18.4 -2.45 Q-14.9 -8.45 -6.85 -10.1 5.05 -9.05 9.7 0.85 L8.6 1.6 Q7.6 2.6 7.6 4.1 7.6 5.6 8.6 6.6 9.6 7.6 11.05 7.6 L11.55 7.6 11.5 8.25 11.35 10.35 8.75 12.1 6.6 13.8 6.65 16.35 1.4 16.3 Q1.2 13.95 0.25 11.9 L0.0 11.9 Q-0.95 11.7 -1.2 12.55 L-1.1 12.95 -0.75 16.25 -4.6 16.1 -4.55 14.95 Q-4.45 13.8 -4.75 12.85 L-8.25 12.2 -11.9 10.8 Q-14.0 9.95 -14.65 9.4 L-15.35 8.75 -16.9 7.3 Q-18.75 3.25 -18.55 -0.95 L-18.4 -2.45 M-7.5 6.6 Q-6.5 5.6 -6.45 4.1 -6.5 2.6 -7.5 1.6 -8.5 0.6 -9.95 0.6 -11.4 0.6 -12.4 1.6 -13.4 2.6 -13.4 4.1 -13.4 5.6 -12.4 6.6 -11.4 7.6 -9.95 7.6 -8.5 7.6 -7.5 6.6" fill="#cccccc" fill-rule="evenodd" stroke="none"/>
    <path d="M-1.4 -18.55 L-1.45 -16.55 -1.45 -15.75 -0.9 -15.0 -0.4 -14.55 Q0.5 -12.75 2.35 -11.55 2.2 -11.4 2.05 -11.4 L1.3 -11.4 1.25 -11.8 1.15 -12.05 1.0 -12.15 0.25 -12.35 Q-0.7 -13.0 -0.95 -13.9 -2.0 -14.55 -3.45 -14.8 L-3.8 -18.3 -1.4 -18.55" fill="#a2a2a2" fill-rule="evenodd" stroke="none"/>
  </g>
</svg>
