<?xml version="1.0" encoding="UTF-8" standalone="no"?>
<svg xmlns:xlink="http://www.w3.org/1999/xlink" height="39.7px" width="41.35px" xmlns="http://www.w3.org/2000/svg">
  <g transform="matrix(1.0, 0.0, 0.0, 1.0, 14.9, 42.0)">
    <path d="M25.1 -26.7 Q26.5 -23.25 26.45 -19.65 26.45 -18.15 26.0 -16.75 L24.85 -14.05 24.0 -12.35 Q23.3 -11.1 22.2 -10.1 L20.5 -8.65 Q20.0 -5.8 19.0 -3.1 L18.9 -2.85 18.65 -2.7 18.35 -2.6 Q15.55 -3.6 12.35 -2.7 9.2 -1.8 6.6 -3.0 L6.6 -3.35 6.55 -3.4 6.4 -3.6 6.15 -4.0 6.0 -4.2 6.0 -4.85 6.0 -5.65 6.0 -5.9 4.05 -6.4 2.2 -6.5 1.1 -6.7 Q-2.0 -6.9 -5.05 -8.6 L-7.3 -10.0 Q-11.3 -11.9 -13.35 -16.2 -14.7 -19.0 -14.9 -22.05 L-14.65 -25.5 -14.65 -26.1 -14.25 -28.4 Q-13.45 -31.0 -11.75 -32.9 -9.2 -36.85 -4.3 -39.25 0.25 -41.45 5.1 -42.0 11.75 -42.0 16.95 -37.65 20.5 -34.65 22.7 -30.9 24.2 -29.1 25.1 -26.7 M18.85 -9.45 L22.2 -12.3 22.45 -12.55 22.75 -13.1 22.7 -13.1 20.6 -13.25 Q17.6 -14.65 19.1 -17.65 19.85 -19.2 21.4 -19.6 23.65 -19.4 24.45 -17.8 L24.5 -18.05 24.55 -22.05 22.45 -27.4 21.0 -30.3 Q18.9 -34.15 15.6 -36.65 12.6 -38.9 8.65 -40.0 L5.95 -40.4 4.8 -40.4 3.75 -40.25 Q-6.6 -38.5 -11.4 -29.6 L-12.05 -28.15 -12.55 -26.75 -12.8 -25.45 -12.9 -24.9 -12.9 -24.5 -12.9 -22.2 -12.85 -22.0 -12.0 -18.7 -11.6 -17.85 -11.55 -17.7 -11.55 -17.65 -10.1 -15.4 -8.1 -13.05 Q-4.9 -10.0 -0.3 -8.8 L0.95 -8.5 6.35 -8.35 6.35 -8.55 6.75 -8.8 7.0 -9.0 7.4 -8.8 7.55 -8.5 7.65 -8.3 7.7 -8.15 Q8.3 -6.55 8.15 -4.7 L8.15 -4.45 12.55 -4.4 Q12.45 -6.3 13.0 -8.25 L13.1 -8.5 13.5 -8.65 13.65 -8.65 Q14.1 -6.6 14.15 -4.45 L17.9 -4.85 Q18.55 -7.0 18.8 -9.2 L18.8 -9.45 18.85 -9.45 M6.25 -15.9 Q6.45 -12.85 3.3 -12.25 1.75 -12.0 0.45 -12.95 -2.1 -14.85 -0.35 -17.4 0.8 -19.1 2.65 -19.6 6.05 -19.3 6.25 -15.9" fill="#000000" fill-rule="evenodd" stroke="none"/>
    <path d="M5.95 -40.4 L8.65 -40.0 Q12.6 -38.9 15.6 -36.65 18.9 -34.15 21.0 -30.3 L22.45 -27.4 24.55 -22.05 24.5 -18.05 24.45 -17.8 Q23.65 -19.4 21.4 -19.6 19.85 -19.2 19.1 -17.65 17.6 -14.65 20.6 -13.25 L22.7 -13.1 22.75 -13.1 22.45 -12.55 22.2 -12.3 18.85 -9.45 18.85 -10.25 Q19.0 -17.65 15.9 -24.4 11.55 -33.95 0.9 -34.6 -6.6 -34.0 -10.3 -27.85 L-11.95 -24.65 -12.3 -23.8 -12.9 -22.2 -12.9 -24.5 -12.9 -24.9 -12.8 -25.45 -12.55 -26.75 -12.05 -28.15 -11.4 -29.6 Q-6.6 -38.5 3.75 -40.25 L4.8 -40.4 4.4 -37.65 Q7.0 -36.25 9.95 -35.6 12.15 -33.0 14.45 -31.7 11.15 -36.2 5.95 -38.05 L5.95 -38.65 5.95 -40.4" fill="#ffffff" fill-rule="evenodd" stroke="none"/>
    <path d="M5.95 -40.4 L5.95 -38.65 5.95 -38.05 Q11.15 -36.2 14.45 -31.7 12.15 -33.0 9.95 -35.6 7.0 -36.25 4.4 -37.65 L4.8 -40.4 5.95 -40.4" fill="#a2a2a2" fill-rule="evenodd" stroke="none"/>
    <path d="M-12.9 -22.2 L-12.3 -23.8 -11.95 -24.65 -10.3 -27.85 Q-6.6 -34.0 0.9 -34.6 11.55 -33.95 15.9 -24.4 19.0 -17.65 18.85 -10.25 L18.85 -9.45 18.8 -9.45 18.8 -9.2 Q18.55 -7.0 17.9 -4.85 L14.15 -4.45 Q14.1 -6.6 13.65 -8.65 L13.5 -8.65 13.1 -8.5 13.0 -8.25 Q12.45 -6.3 12.55 -4.4 L8.15 -4.45 8.15 -4.7 Q8.3 -6.55 7.7 -8.15 L7.65 -8.3 7.55 -8.5 7.4 -8.8 7.0 -9.0 6.75 -8.8 6.35 -8.55 6.35 -8.35 0.95 -8.5 -0.3 -8.8 Q-4.9 -10.0 -8.1 -13.05 L-10.1 -15.4 -11.55 -17.65 -11.55 -17.7 -11.6 -17.85 -12.0 -18.7 -12.85 -22.0 -12.9 -22.2 M6.25 -15.9 Q6.05 -19.3 2.65 -19.6 0.8 -19.1 -0.35 -17.4 -2.1 -14.85 0.45 -12.95 1.75 -12.0 3.3 -12.25 6.45 -12.85 6.25 -15.9" fill="#cccccc" fill-rule="evenodd" stroke="none"/>
  </g>
</svg>
