<?xml version="1.0" encoding="UTF-8" standalone="no"?>
<svg xmlns:xlink="http://www.w3.org/1999/xlink" height="40.0px" width="42.0px" xmlns="http://www.w3.org/2000/svg">
  <g transform="matrix(1.0, 0.0, 0.0, 1.0, 18.9, 30.0)">
    <path d="M-0.95 -18.4 L-1.3 -19.0 0.0 -24.75 -0.85 -27.25 Q7.9 -28.55 15.4 -21.85 21.9 -16.0 21.05 -8.8 20.8 -6.8 20.05 -4.7 L16.4 -1.65 16.4 -1.9 16.05 -2.3 14.65 -2.75 Q14.85 -3.85 14.65 -5.1 14.3 -7.05 13.6 -8.8 9.9 -16.2 1.7 -17.75 L-0.95 -18.4 M-1.8 -27.1 L-3.2 -25.35 -3.2 -23.0 -3.85 -22.0 -3.7 -18.45 Q-11.4 -17.3 -15.6 -10.6 L-16.45 -9.1 Q-15.9 -22.1 -3.8 -26.45 L-1.8 -27.1" fill="#ffffff" fill-rule="evenodd" stroke="none"/>
    <path d="M-3.7 -18.45 L-1.6 -16.9 -0.65 -15.0 0.95 -13.1 1.9 -12.95 Q1.9 -12.8 2.0 -12.9 L-0.95 -18.4 1.7 -17.75 Q9.9 -16.2 13.6 -8.8 14.3 -7.05 14.65 -5.1 14.85 -3.85 14.65 -2.75 L13.4 -2.7 12.8 -2.45 Q11.0 -1.2 10.2 0.65 L10.3 1.05 Q11.0 2.1 12.0 2.35 L11.45 2.9 Q5.25 4.6 -1.0 4.4 L-1.35 4.4 -4.55 4.15 -4.75 4.15 -4.8 4.1 -5.6 3.95 -4.15 2.4 -4.35 1.9 Q-5.55 -1.2 -8.95 -0.8 L-10.8 0.1 -11.65 0.8 -11.65 1.3 -11.6 1.95 -12.0 1.65 -13.7 0.4 Q-16.05 -3.45 -16.35 -7.6 L-16.45 -8.8 -16.45 -9.1 -15.6 -10.6 Q-11.4 -17.3 -3.7 -18.45 M10.4 3.95 L10.75 6.5 5.95 7.05 5.25 4.95 4.65 4.75 10.4 3.95 M-0.45 7.6 L-0.55 6.45 -0.85 4.8 4.2 4.75 3.95 4.9 Q2.95 6.05 3.2 7.3 L-0.45 7.6" fill="#cccccc" fill-rule="evenodd" stroke="none"/>
    <path d="M-0.85 -27.25 L-1.3 -27.45 -1.8 -27.1 -3.8 -26.45 Q-15.9 -22.1 -16.45 -9.1 L-16.45 -8.8 -16.35 -7.6 Q-16.05 -3.45 -13.7 0.4 L-12.0 1.65 -11.6 1.95 -11.65 1.3 -11.65 0.8 -10.8 0.1 -8.95 -0.8 Q-5.55 -1.2 -4.35 1.9 L-4.15 2.4 -5.6 3.95 -4.8 4.1 -4.75 4.15 -4.55 4.15 -1.35 4.4 -1.0 4.4 Q5.25 4.6 11.45 2.9 L12.0 2.35 Q11.0 2.1 10.3 1.05 L10.2 0.65 Q11.0 -1.2 12.8 -2.45 L13.4 -2.7 14.65 -2.75 16.05 -2.3 16.4 -1.9 16.4 -1.65 20.05 -4.7 Q20.8 -6.8 21.05 -8.8 21.9 -16.0 15.4 -21.85 7.9 -28.55 -0.85 -27.25 M19.8 -1.6 L17.9 0.3 14.95 2.9 13.0 4.5 13.4 6.95 13.3 8.25 0.4 9.8 -1.6 10.0 Q-2.0 10.05 -2.45 9.7 L-2.9 7.35 -3.0 6.2 -3.4 5.85 Q-7.75 5.85 -10.9 4.1 L-11.25 3.95 -12.4 3.45 -12.75 3.3 Q-13.75 2.85 -14.3 2.15 L-14.55 1.9 -15.3 1.2 -15.4 0.9 Q-18.7 -3.35 -18.9 -8.8 -19.1 -15.6 -14.95 -21.25 -5.85 -33.7 8.45 -28.4 22.75 -23.2 23.1 -8.8 22.85 -7.2 22.2 -5.6 L22.2 -5.55 Q21.85 -4.4 20.7 -2.75 L19.4 -0.9 19.5 -1.05 19.8 -1.6 M-0.45 7.6 L3.2 7.3 Q2.95 6.05 3.95 4.9 L4.2 4.75 -0.85 4.8 -0.55 6.45 -0.45 7.6 M10.4 3.95 L4.65 4.75 5.25 4.95 5.95 7.05 10.75 6.5 10.4 3.95" fill="#000000" fill-rule="evenodd" stroke="none"/>
    <path d="M-0.95 -18.4 L2.0 -12.9 Q1.9 -12.8 1.9 -12.95 L0.95 -13.1 -0.65 -15.0 -1.6 -16.9 -3.7 -18.45 -3.85 -22.0 -3.2 -23.0 -3.2 -25.35 -1.8 -27.1 -1.3 -27.45 -0.85 -27.25 0.0 -24.75 -1.3 -19.0 -0.95 -18.4" fill="#808080" fill-rule="evenodd" stroke="none"/>
  </g>
</svg>
