<?xml version="1.0" encoding="UTF-8" standalone="no"?>
<svg xmlns:xlink="http://www.w3.org/1999/xlink" height="40.05px" width="42.3px" xmlns="http://www.w3.org/2000/svg">
  <g transform="matrix(1.0, 0.0, 0.0, 1.0, 20.95, 23.35)">
    <path d="M11.35 8.65 L11.5 6.55 11.5 6.45 Q12.0 5.2 11.95 3.65 11.7 -2.15 7.7 -6.3 L7.55 -6.5 Q2.75 -10.3 -3.25 -11.9 L-3.25 -11.85 -3.85 -11.8 -4.0 -11.8 -6.0 -11.7 -6.85 -11.8 Q-14.9 -10.15 -18.4 -4.15 -17.4 -13.0 -9.8 -17.85 -8.0 -19.0 -5.95 -19.55 L-3.8 -20.0 -1.4 -20.25 Q7.85 -20.75 14.75 -12.9 22.1 -4.5 17.25 4.7 L11.35 8.65" fill="#ffffff" fill-rule="evenodd" stroke="none"/>
    <path d="M-18.4 -4.15 Q-14.9 -10.15 -6.85 -11.8 L-6.0 -11.7 -4.0 -11.8 -3.85 -11.8 -3.25 -11.85 -3.25 -11.9 Q2.75 -10.3 7.55 -6.5 L7.7 -6.3 Q11.7 -2.15 11.95 3.65 12.0 5.2 11.5 6.45 L11.5 6.55 11.35 8.65 8.75 10.4 7.8 11.2 Q1.4 12.1 -4.75 11.15 L-5.1 11.1 -8.25 10.5 -8.45 10.45 -8.5 10.4 -11.9 9.1 Q-14.0 8.25 -14.65 7.7 L-15.35 7.05 -16.9 5.6 Q-18.75 1.55 -18.55 -2.65 L-18.4 -4.15 M-4.55 13.25 L-4.65 11.55 6.6 12.1 6.65 14.65 1.4 14.6 1.4 14.55 -0.8 14.4 -0.75 14.55 -4.6 14.4 -4.55 13.25" fill="#cccccc" fill-rule="evenodd" stroke="none"/>
    <path d="M11.35 8.65 L17.25 4.7 Q22.1 -4.5 14.75 -12.9 7.85 -20.75 -1.4 -20.25 L-3.8 -20.0 -5.95 -19.55 Q-8.0 -19.0 -9.8 -17.85 -17.4 -13.0 -18.4 -4.15 L-18.55 -2.65 Q-18.75 1.55 -16.9 5.6 L-15.35 7.05 -14.65 7.7 Q-14.0 8.25 -11.9 9.1 L-8.5 10.4 -8.45 10.45 -8.25 10.5 -5.1 11.1 -4.75 11.15 Q1.4 12.1 7.8 11.2 L8.75 10.4 11.35 8.65 M-0.55 -23.35 Q13.1 -21.4 19.55 -9.4 23.2 -2.65 19.5 4.1 19.05 5.25 17.65 6.75 L16.15 8.4 16.3 8.25 16.6 7.75 14.5 9.4 11.25 11.6 9.1 12.95 9.2 15.45 9.0 16.7 -4.0 16.7 -6.05 16.65 Q-6.45 16.65 -6.85 16.25 L-7.0 13.85 -6.95 12.7 -7.35 12.3 Q-11.6 11.8 -14.55 9.65 L-14.9 9.45 -15.95 8.8 -16.3 8.6 -17.65 7.3 -17.7 7.3 -17.9 7.0 -18.55 6.2 -18.6 5.9 Q-22.25 -0.2 -20.25 -7.75 -18.95 -12.45 -15.6 -16.15 -9.5 -22.85 -0.55 -23.35 M-4.55 13.25 L-4.6 14.4 -0.75 14.55 -0.8 14.4 1.4 14.55 1.4 14.6 6.65 14.65 6.6 12.1 -4.65 11.55 -4.55 13.25" fill="#000000" fill-rule="evenodd" stroke="none"/>
  </g>
</svg>
