<?xml version="1.0" encoding="UTF-8" standalone="no"?>
<svg xmlns:xlink="http://www.w3.org/1999/xlink" height="31.85px" width="11.0px" xmlns="http://www.w3.org/2000/svg">
  <g transform="matrix(1.0, 0.0, 0.0, 1.0, 5.45, 14.85)">
    <path d="M3.7 -14.15 Q4.2 -13.05 4.2 -11.8 L4.1 -11.2 Q6.6 -1.5 4.8 8.45 4.15 12.15 2.9 15.7 L3.05 16.6 2.5 16.7 2.45 16.7 2.1 16.95 1.8 16.8 Q-1.45 17.15 -4.85 16.95 L-5.3 16.8 -5.4 16.5 -5.45 14.7 -5.45 13.65 -5.2 13.4 Q-5.05 6.5 -5.2 -0.4 -5.3 -7.4 -4.7 -14.25 L-4.15 -14.35 -0.7 -14.85 2.95 -14.55 3.55 -14.4 3.7 -14.15 M-1.75 -9.15 L-1.65 -12.5 Q-1.3 -12.95 -0.7 -12.9 L2.8 -12.65 2.6 -12.95 2.3 -13.55 2.1 -13.65 -2.45 -13.3 -3.55 -13.1 Q-4.05 -5.95 -4.0 1.3 L-4.0 3.3 -3.95 5.85 -3.95 7.35 -3.9 7.35 -3.9 7.7 -3.95 7.7 -3.9 8.8 -3.9 14.0 -4.1 14.25 -4.25 14.5 -4.25 14.8 -4.25 15.05 -4.25 15.2 1.4 15.55 1.4 15.3 1.4 14.5 1.4 14.35 1.15 14.8 0.9 14.0 -1.8 13.3 -2.15 9.1 -2.15 8.75 -2.25 2.05 -2.25 1.55 -2.05 -3.15 -1.95 -4.75 -1.75 -8.45 -1.75 -9.15 M1.15 -10.85 L-0.35 -10.95 Q-0.35 -4.0 -0.7 2.9 -1.0 7.55 -0.7 12.15 L-0.7 12.2 0.65 12.45 0.7 9.8 Q1.8 -0.4 1.15 -10.75 L1.15 -10.85 M3.05 -10.75 L2.2 -10.8 Q2.7 -0.95 2.15 8.8 L1.8 12.6 2.35 12.7 Q4.3 4.55 3.9 -3.8 L3.05 -10.75" fill="#000000" fill-rule="evenodd" stroke="none"/>
    <path d="M-4.0 1.3 Q-4.05 -5.95 -3.55 -13.1 L-2.45 -13.3 2.1 -13.65 2.3 -13.55 2.6 -12.95 2.8 -12.65 -0.7 -12.9 Q-1.3 -12.95 -1.65 -12.5 L-1.75 -9.15 Q-2.45 -9.1 -2.85 -8.4 L-3.05 -7.95 Q-4.05 -6.1 -3.3 -4.25 L-2.0 -4.1 -1.95 -4.75 -2.05 -3.15 -2.25 1.55 -2.8 0.95 -2.8 1.0 -4.0 1.3 M-3.9 7.35 L-3.45 7.55 -3.8 7.65 -3.9 7.7 -3.9 7.35 M-3.9 8.8 Q-3.05 9.3 -2.15 9.1 L-1.8 13.3 0.9 14.0 1.15 14.8 1.4 14.35 1.4 14.5 1.4 15.3 1.4 15.55 -4.25 15.2 -4.25 15.05 -4.25 14.8 -4.25 14.5 -4.1 14.25 -3.9 14.0 -3.9 8.8" fill="#999999" fill-rule="evenodd" stroke="none"/>
    <path d="M3.05 -10.75 L3.9 -3.8 Q4.3 4.55 2.35 12.7 L1.8 12.6 2.15 8.8 Q2.7 -0.95 2.2 -10.8 L3.05 -10.75 M1.15 -10.85 L1.15 -10.75 Q1.8 -0.4 0.7 9.8 L0.65 12.45 -0.7 12.2 -0.7 12.15 Q-1.0 7.55 -0.7 2.9 -0.35 -4.0 -0.35 -10.95 L1.15 -10.85" fill="#996633" fill-rule="evenodd" stroke="none"/>
    <path d="M-4.0 1.3 L-2.8 1.0 -2.8 0.95 -2.25 1.55 -2.25 2.05 -2.15 8.75 -2.15 9.1 Q-3.05 9.3 -3.9 8.8 L-3.95 7.7 -3.9 7.7 -3.8 7.65 -3.45 7.55 -3.9 7.35 -3.95 7.35 -3.95 5.85 -4.0 3.3 -4.0 1.3 M-1.95 -4.75 L-2.0 -4.1 -3.3 -4.25 Q-4.05 -6.1 -3.05 -7.95 L-2.85 -8.4 Q-2.45 -9.1 -1.75 -9.15 L-1.75 -8.45 -1.95 -4.75" fill="#947645" fill-rule="evenodd" stroke="none"/>
  </g>
</svg>
