<?xml version="1.0" encoding="UTF-8" standalone="no"?>
<svg xmlns:xlink="http://www.w3.org/1999/xlink" height="30.3px" width="29.35px" xmlns="http://www.w3.org/2000/svg">
  <g transform="matrix(1.0, 0.0, 0.0, 1.0, 13.6, 14.15)">
    <path d="M0.5 -14.1 L9.85 -13.5 Q11.5 -13.3 11.1 -12.2 12.4 -10.7 13.35 -8.85 15.25 -5.3 15.6 -1.35 16.15 4.75 14.45 10.7 14.05 12.1 13.1 13.2 12.2 14.25 12.55 15.1 L11.5 15.4 11.1 15.5 Q0.65 16.9 -9.65 15.25 L-9.5 15.15 -10.9 12.75 Q-15.45 3.65 -12.3 -5.85 -11.4 -8.55 -9.85 -10.8 -9.0 -12.0 -8.6 -13.5 L0.5 -14.1 M6.4 -12.65 L4.4 -12.8 -7.7 -12.0 -9.0 -10.25 -9.15 -10.2 Q-9.5 -10.1 -9.85 -9.1 L-10.4 -8.15 Q-13.55 -2.55 -12.35 4.1 L-10.85 9.35 -7.95 14.5 11.35 14.55 12.65 11.35 Q14.5 6.35 14.15 1.05 L13.5 -3.95 Q12.65 -8.35 10.35 -12.05 L6.4 -12.65 M4.0 -11.4 L5.95 -11.25 9.4 -10.65 11.9 -2.35 12.05 -0.05 Q12.1 2.05 11.75 4.25 11.05 8.9 8.9 12.9 L8.55 13.15 -6.65 12.7 -9.1 8.65 -10.6 1.6 Q-10.7 -1.8 -9.6 -4.85 L-8.15 -7.9 -5.8 -10.8 -5.3 -11.05 4.0 -11.4 M8.15 -9.55 L5.1 -10.0 6.05 -6.3 Q7.7 2.75 5.6 11.95 L7.7 11.65 Q9.9 7.15 10.5 2.1 11.3 -4.2 8.15 -9.55 M4.0 -10.1 L2.0 -10.15 1.45 12.05 4.55 11.65 4.65 10.85 5.05 10.4 Q5.85 6.6 5.85 2.55 L5.95 -1.4 Q6.15 -6.4 4.0 -10.1 M-2.25 -9.95 L-4.7 -9.7 Q-9.85 -4.7 -8.9 2.5 L-8.3 5.8 Q-7.55 9.05 -5.4 11.1 L-4.6 11.25 -4.65 11.05 -5.0 3.3 Q-5.2 -3.75 -2.25 -9.95 M0.75 11.65 L1.35 -10.15 -1.5 -10.0 Q-4.05 -4.65 -4.4 1.2 -4.65 6.0 -3.75 10.7 L-3.7 10.95 -3.55 11.55 0.75 11.65" fill="#000000" fill-rule="evenodd" stroke="none"/>
    <path d="M6.4 -12.65 L10.35 -12.05 Q12.65 -8.35 13.5 -3.95 12.85 -3.95 12.4 -3.45 11.9 -3.0 11.9 -2.35 L9.4 -10.65 5.95 -11.25 Q7.2 -11.9 6.4 -12.65 M14.15 1.05 Q14.5 6.35 12.65 11.35 L11.35 14.55 -7.95 14.5 -10.85 9.35 -9.1 8.65 -6.65 12.7 8.55 13.15 8.9 12.9 Q11.05 8.9 11.75 4.25 12.1 2.05 12.05 -0.05 L12.2 0.4 Q12.9 2.3 14.15 1.05 M-12.35 4.1 Q-13.55 -2.55 -10.4 -8.15 -11.1 -6.55 -10.05 -5.2 L-9.6 -4.85 Q-10.7 -1.8 -10.6 1.6 -11.85 1.75 -12.2 3.15 L-12.35 4.1 M-9.0 -10.25 L-7.7 -12.0 4.4 -12.8 Q3.8 -12.45 3.95 -11.45 L4.0 -11.4 -5.3 -11.05 -5.8 -10.8 -8.15 -7.9 -8.15 -8.8 -8.5 -9.9 -9.0 -10.25 M9.85 11.9 Q9.4 12.15 9.5 12.6 10.1 15.1 11.65 12.95 L11.6 12.75 Q11.4 11.75 10.35 11.8 L10.0 11.85 9.85 11.9" fill="#999999" fill-rule="evenodd" stroke="none"/>
    <path d="M4.4 -12.8 L6.4 -12.65 Q7.2 -11.9 5.95 -11.25 L4.0 -11.4 3.95 -11.45 Q3.8 -12.45 4.4 -12.8 M13.5 -3.95 L14.15 1.05 Q12.9 2.3 12.2 0.4 L12.05 -0.05 11.9 -2.35 Q11.9 -3.0 12.4 -3.45 12.85 -3.95 13.5 -3.95 M-10.85 9.35 L-12.35 4.1 -12.2 3.15 Q-11.85 1.75 -10.6 1.6 L-9.1 8.65 -10.85 9.35 M-10.4 -8.15 L-9.85 -9.1 Q-9.5 -10.1 -9.15 -10.2 L-9.0 -10.25 -8.5 -9.9 -8.15 -8.8 -8.15 -7.9 -9.6 -4.85 -10.05 -5.2 Q-11.1 -6.55 -10.4 -8.15 M9.85 11.9 L10.0 11.85 10.35 11.8 Q11.4 11.75 11.6 12.75 L11.65 12.95 Q10.1 15.1 9.5 12.6 9.4 12.15 9.85 11.9" fill="#947645" fill-rule="evenodd" stroke="none"/>
    <path d="M4.0 -10.1 Q6.15 -6.4 5.95 -1.4 L5.85 2.55 Q5.85 6.6 5.05 10.4 L4.65 10.85 4.55 11.65 1.45 12.05 2.0 -10.15 4.0 -10.1 M8.15 -9.55 Q11.3 -4.2 10.5 2.1 9.9 7.15 7.7 11.65 L5.6 11.95 Q7.7 2.75 6.05 -6.3 L5.1 -10.0 8.15 -9.55 M0.75 11.65 L-3.55 11.55 -3.7 10.95 -3.75 10.7 Q-4.65 6.0 -4.4 1.2 -4.05 -4.65 -1.5 -10.0 L1.35 -10.15 0.75 11.65 M-2.25 -9.95 Q-5.2 -3.75 -5.0 3.3 L-4.65 11.05 -4.6 11.25 -5.4 11.1 Q-7.55 9.05 -8.3 5.8 L-8.9 2.5 Q-9.85 -4.7 -4.7 -9.7 L-2.25 -9.95" fill="#996633" fill-rule="evenodd" stroke="none"/>
  </g>
</svg>
