<?xml version="1.0" encoding="UTF-8" standalone="no"?>
<svg xmlns:xlink="http://www.w3.org/1999/xlink" height="35.55px" width="35.0px" xmlns="http://www.w3.org/2000/svg">
  <g transform="matrix(1.0, 0.0, 0.0, 1.0, 17.5, 17.8)">
    <path d="M2.1 -16.6 L1.9 -16.8 1.9 -17.05 2.25 -17.55 2.65 -17.7 5.5 -16.65 Q7.15 -16.1 7.95 -14.55 L14.95 -16.3 15.55 -15.65 11.75 -10.9 17.5 -8.95 13.7 -7.1 14.95 -5.95 16.05 -4.85 Q17.6 -3.55 16.4 -3.0 L12.5 -3.1 14.0 -1.35 13.3 1.75 16.45 6.65 13.4 7.5 14.15 8.85 15.65 11.1 Q16.15 11.95 15.4 12.5 L14.1 12.15 12.2 12.55 11.6 13.4 10.4 14.4 9.55 14.65 8.35 12.7 7.2 12.6 5.75 13.75 4.9 15.0 2.25 13.0 -0.35 17.0 -1.05 17.15 -3.7 14.55 -5.05 14.55 -9.15 17.7 -9.9 17.75 -11.1 14.35 -13.95 16.15 -14.55 16.0 -15.1 12.2 -16.95 12.9 -16.85 10.75 Q-16.7 9.1 -16.1 7.7 L-14.25 3.7 -14.45 3.2 -14.85 3.65 -15.1 2.1 -14.3 0.0 -15.9 -2.5 -17.5 -3.15 -14.55 -9.6 -15.7 -9.4 -16.6 -9.85 Q-15.3 -12.5 -12.95 -14.35 -5.9 -19.9 2.05 -16.55 L3.5 -15.35 2.85 -14.95 Q-7.2 -19.4 -14.75 -11.1 L-11.7 -10.35 Q-14.45 -8.2 -15.85 -4.5 L-12.65 -0.8 -13.65 1.75 -9.25 1.35 Q1.4 1.45 11.2 -2.45 L11.0 -3.7 11.65 -4.65 14.5 -4.85 13.3 -5.9 11.75 -6.85 Q11.65 -7.0 11.7 -7.1 12.75 -8.55 14.85 -8.6 L14.9 -8.75 9.7 -10.0 12.65 -14.5 7.2 -12.9 6.7 -13.15 6.75 -13.75 4.4 -16.1 2.1 -16.6 M14.85 -8.6 L15.25 -8.65 14.9 -8.75 14.85 -8.6 M-13.25 2.55 L-13.05 4.6 -14.5 7.8 Q-2.4 9.85 9.4 6.05 L13.45 4.25 12.0 1.15 12.8 -0.5 11.5 -2.0 8.95 -0.5 Q5.2 1.25 1.2 1.6 L-13.2 2.4 -13.4 2.45 -13.25 2.55 M-14.95 8.75 L-15.25 11.0 -13.55 10.6 -12.9 11.3 -13.55 12.2 -13.85 14.55 -8.6 12.65 -9.6 14.75 -9.35 16.25 Q-5.55 12.25 -1.05 15.35 L1.8 11.7 4.55 13.05 8.65 11.35 10.4 12.7 13.6 10.65 11.9 6.85 14.6 5.6 13.85 4.75 12.5 5.55 Q0.75 10.6 -12.05 9.05 L-12.75 9.4 -14.95 8.75" fill="#000000" fill-rule="evenodd" stroke="none"/>
    <path d="M2.1 -16.6 L4.4 -16.1 6.75 -13.75 6.7 -13.15 7.2 -12.9 12.65 -14.5 9.7 -10.0 14.9 -8.75 14.85 -8.6 Q12.75 -8.55 11.7 -7.1 11.65 -7.0 11.75 -6.85 L13.3 -5.9 14.5 -4.85 11.65 -4.65 11.0 -3.7 11.2 -2.45 Q1.4 1.45 -9.25 1.35 L-13.65 1.75 -12.65 -0.8 -15.85 -4.5 Q-14.45 -8.2 -11.7 -10.35 L-14.75 -11.1 Q-7.2 -19.4 2.85 -14.95 L3.5 -15.35 2.05 -16.55 2.1 -16.6" fill="#05bdfa" fill-rule="evenodd" stroke="none"/>
    <path d="M-13.2 2.4 L1.2 1.6 Q5.2 1.25 8.95 -0.5 L11.5 -2.0 12.8 -0.5 12.0 1.15 13.45 4.25 9.4 6.05 Q-2.4 9.85 -14.5 7.8 L-13.05 4.6 -13.25 2.55 -13.2 2.4" fill="#83defc" fill-rule="evenodd" stroke="none"/>
    <path d="M-14.95 8.75 L-12.75 9.4 -12.05 9.05 Q0.75 10.6 12.5 5.55 L13.85 4.75 14.6 5.6 11.9 6.85 13.6 10.65 10.4 12.7 8.65 11.35 4.55 13.05 1.8 11.7 -1.05 15.35 Q-5.55 12.25 -9.35 16.25 L-9.6 14.75 -8.6 12.65 -13.85 14.55 -13.55 12.2 -12.9 11.3 -13.55 10.6 -15.25 11.0 -14.95 8.75" fill="#33cafb" fill-rule="evenodd" stroke="none"/>
  </g>
</svg>
