<?xml version="1.0" encoding="UTF-8" standalone="no"?>
<svg xmlns:xlink="http://www.w3.org/1999/xlink" height="58.9px" width="54.05px" xmlns="http://www.w3.org/2000/svg">
  <g transform="matrix(1.0, 0.0, 0.0, 1.0, 26.55, 49.35)">
    <path d="M24.7 -20.45 L24.1 -19.5 23.55 -17.0 23.4 -16.9 23.4 -19.4 23.35 -21.5 Q23.3 -23.05 22.75 -24.25 20.9 -28.3 16.6 -29.2 L14.3 -35.45 9.9 -30.35 8.85 -30.35 Q5.65 -33.1 1.6 -34.05 L0.0 -32.3 -0.45 -29.95 -0.95 -29.65 -6.95 -34.6 -8.25 -24.25 -9.6 -23.9 -13.5 -26.9 -13.9 -16.3 -18.6 -17.55 Q-18.1 -11.55 -15.05 -6.8 L-16.65 -5.75 -19.2 -6.0 Q-17.75 -1.8 -14.9 1.5 -8.45 8.75 1.1 7.1 L1.25 7.05 1.1 6.85 2.5 6.45 3.2 6.65 4.7 6.15 5.5 6.45 4.95 7.1 Q10.9 8.2 16.25 5.75 20.4 3.75 22.15 -0.55 L22.05 -1.6 22.7 -1.25 22.75 -0.6 24.3 -3.35 25.0 -5.35 Q27.5 -12.9 24.85 -20.45 L24.8 -20.6 24.7 -20.45 M6.25 -4.25 L3.8 -14.5 7.05 -4.0 7.2 -3.75 7.3 -3.9 10.25 -14.15 9.45 -14.15 9.65 -14.7 10.6 -15.2 Q11.25 -15.0 11.2 -13.8 10.9 -8.25 8.25 -3.2 L8.4 -3.3 17.2 -10.45 16.65 -9.45 Q14.2 -5.0 9.6 -2.55 L7.45 -1.15 7.55 0.4 15.9 1.35 7.6 1.3 7.5 5.25 6.7 5.15 6.8 1.15 5.75 1.0 2.3 5.15 5.0 0.85 4.4 0.7 -2.8 3.3 2.8 0.3 -3.8 -2.45 3.85 -0.3 6.55 -2.25 6.3 -4.25 6.25 -4.25 M0.2 -33.95 L0.1 -35.3 Q4.35 -36.25 7.45 -33.1 8.25 -32.3 9.35 -32.1 L9.9 -32.3 11.8 -34.65 Q3.95 -39.95 -2.65 -46.95 L-9.6 -38.25 -16.3 -29.45 Q-19.3 -25.4 -18.8 -20.2 L-15.35 -18.7 Q-15.65 -20.6 -15.6 -22.5 L-15.05 -28.4 -14.7 -28.75 -9.6 -25.85 Q-9.35 -30.25 -8.2 -34.35 -7.8 -35.75 -6.5 -36.35 L-1.75 -32.1 0.2 -33.95 M14.3 -37.75 L18.35 -30.9 21.1 -29.55 Q23.85 -27.5 24.45 -24.25 24.65 -23.15 25.0 -22.1 L26.05 -19.25 Q29.55 -9.95 24.7 -1.2 24.1 -0.15 22.75 -0.05 22.8 1.25 22.1 2.55 20.25 5.9 16.95 7.65 10.35 11.15 3.5 8.15 -1.5 9.75 -6.55 8.15 -13.5 6.05 -17.7 0.0 -19.7 -2.95 -20.65 -6.35 L-24.25 -8.05 -24.05 -9.7 -25.65 -10.4 -25.65 -12.1 -25.4 -12.7 -26.2 -12.8 -26.55 -13.15 -26.55 -13.95 Q-26.45 -15.5 -25.05 -16.15 L-26.55 -16.85 Q-25.85 -18.05 -24.75 -18.7 -22.75 -19.85 -20.6 -20.15 L-20.35 -26.1 Q-14.85 -35.6 -7.5 -43.75 -6.4 -45.0 -5.6 -46.45 -4.55 -48.45 -3.25 -49.35 L-2.1 -48.7 -2.0 -48.0 12.25 -35.3 14.3 -37.75 M-24.1 -11.6 Q-22.25 -11.35 -22.1 -9.85 L-22.4 -9.45 -20.7 -8.35 -20.1 -8.4 -19.3 -7.7 -17.55 -7.4 -19.35 -17.95 -19.85 -17.65 -20.55 -18.1 -23.7 -17.65 -22.4 -16.6 Q-22.8 -15.0 -24.6 -14.9 L-23.05 -14.05 -24.0 -11.95 -24.2 -11.6 -24.1 -11.6 M6.5 0.2 L6.75 0.25 6.7 -0.45 6.5 0.2" fill="#000000" fill-rule="evenodd" stroke="none"/>
    <path d="M0.2 -33.95 L-1.75 -32.1 -6.5 -36.35 Q-7.8 -35.75 -8.2 -34.35 -9.35 -30.25 -9.6 -25.85 L-14.7 -28.75 -15.05 -28.4 -15.6 -22.5 Q-15.65 -20.6 -15.35 -18.7 L-18.8 -20.2 Q-19.3 -25.4 -16.3 -29.45 L-9.6 -38.25 -2.65 -46.95 Q3.95 -39.95 11.8 -34.65 L9.9 -32.3 9.35 -32.1 Q8.25 -32.3 7.45 -33.1 4.35 -36.25 0.1 -35.3 L0.2 -33.95" fill="#33cafb" fill-rule="evenodd" stroke="none"/>
    <path d="M-18.6 -17.55 L-13.9 -16.3 -13.5 -26.9 -9.6 -23.9 -8.25 -24.25 -6.95 -34.6 -0.95 -29.65 -0.45 -29.95 0.0 -32.3 1.6 -34.05 Q5.65 -33.1 8.85 -30.35 L9.9 -30.35 14.3 -35.45 16.6 -29.2 Q20.9 -28.3 22.75 -24.25 23.3 -23.05 23.35 -21.5 L23.4 -19.4 23.4 -16.9 23.55 -17.0 24.1 -19.5 24.7 -20.45 24.85 -20.45 Q27.5 -12.9 25.0 -5.35 L24.3 -3.35 Q18.9 -0.85 13.0 -1.0 L11.3 -1.15 9.6 -2.55 Q14.2 -5.0 16.65 -9.45 L17.2 -10.45 8.4 -3.3 8.35 -3.35 8.25 -3.2 Q10.9 -8.25 11.2 -13.8 11.25 -15.0 10.6 -15.2 L9.65 -14.7 9.45 -14.15 10.25 -14.15 7.3 -3.9 7.05 -4.0 3.8 -14.5 6.25 -4.25 3.05 -5.0 Q-2.35 -5.35 -7.25 -7.5 -14.5 -10.8 -18.6 -17.55" fill="#a2e7fd" fill-rule="evenodd" stroke="none"/>
    <path d="M24.3 -3.35 L22.75 -0.6 22.7 -1.25 22.05 -1.6 22.15 -0.55 Q20.4 3.75 16.25 5.75 10.9 8.2 4.95 7.1 L5.5 6.45 4.7 6.15 3.2 6.65 2.5 6.45 1.1 6.85 1.1 7.1 Q-8.45 8.75 -14.9 1.5 -17.75 -1.8 -19.2 -6.0 L-16.65 -5.75 -15.05 -6.8 Q-18.1 -11.55 -18.6 -17.55 -14.5 -10.8 -7.25 -7.5 -2.35 -5.35 3.05 -5.0 L6.25 -4.25 6.3 -4.25 6.55 -2.25 3.85 -0.3 -3.8 -2.45 2.8 0.3 -2.8 3.3 4.4 0.7 5.0 0.85 2.3 5.15 5.75 1.0 6.8 1.15 6.7 5.15 7.5 5.25 7.6 1.3 15.9 1.35 7.55 0.4 7.45 -1.15 9.6 -2.55 11.3 -1.15 13.0 -1.0 Q18.9 -0.85 24.3 -3.35 M7.05 -4.0 L7.3 -3.9 7.2 -3.75 7.05 -4.0 M8.25 -3.2 L8.35 -3.35 8.4 -3.3 8.25 -3.2 M-24.0 -11.95 L-23.05 -14.05 -24.6 -14.9 Q-22.8 -15.0 -22.4 -16.6 L-23.7 -17.65 -20.55 -18.1 -19.85 -17.65 -19.35 -17.95 -17.55 -7.4 -19.3 -7.7 -20.1 -8.4 -20.7 -8.35 -22.4 -9.45 -22.1 -9.85 Q-22.25 -11.35 -24.1 -11.6 L-24.0 -11.95" fill="#83defc" fill-rule="evenodd" stroke="none"/>
  </g>
</svg>
