<?xml version="1.0" encoding="UTF-8" standalone="no"?>
<svg xmlns:xlink="http://www.w3.org/1999/xlink" height="60.85px" width="58.15px" xmlns="http://www.w3.org/2000/svg">
  <g transform="matrix(1.0, 0.0, 0.0, 1.0, 28.85, 34.25)">
    <path d="M0.8 -34.15 L1.05 -34.25 1.4 -34.1 1.7 -33.5 1.8 -33.3 Q7.85 -27.85 12.2 -20.85 L12.9 -19.75 15.7 -17.7 16.7 -16.25 16.85 -16.2 16.95 -15.8 17.05 -15.75 17.4 -15.55 17.6 -15.55 17.85 -15.55 Q22.7 -11.55 21.6 -5.25 L21.4 -4.65 21.7 -3.5 Q23.05 -2.8 23.25 -0.95 L23.4 0.3 Q25.65 1.0 27.8 2.05 L28.0 2.1 28.2 2.2 28.25 2.25 28.5 2.4 28.3 3.05 28.3 3.1 Q27.85 3.9 26.7 4.4 L26.6 4.45 29.1 6.65 29.25 6.8 29.25 7.45 29.1 7.75 Q27.85 8.25 26.7 8.35 L26.75 8.4 Q27.1 9.25 27.1 10.2 L26.95 10.8 22.95 10.95 22.8 11.15 22.7 11.35 22.5 11.6 21.5 13.6 20.95 14.1 20.7 14.25 20.75 14.5 20.85 14.7 20.8 14.9 20.65 15.1 20.45 15.1 20.4 18.1 20.35 18.3 Q15.2 25.9 5.95 26.55 L4.05 26.5 Q1.45 26.25 -0.8 25.05 -2.15 25.65 -3.85 25.75 -9.75 26.0 -14.25 22.55 L-16.05 20.55 -16.15 20.35 -16.25 20.4 -16.3 20.1 Q-16.8 19.1 -16.6 18.3 -19.45 17.95 -21.55 15.5 -23.2 13.55 -23.9 11.4 L-25.15 10.55 -25.25 9.75 -25.15 9.15 Q-25.35 8.95 -25.65 8.9 -26.25 9.05 -26.85 9.35 L-27.25 9.15 -27.45 9.05 -27.65 8.85 -27.55 7.55 -27.55 7.15 -27.45 6.2 -28.45 5.95 -28.65 5.95 -28.85 5.7 -28.85 5.55 -28.85 5.35 -28.65 4.95 -28.6 4.7 -28.6 4.5 -28.6 4.3 -28.55 4.2 -28.55 4.1 -28.35 3.85 Q-27.05 1.25 -24.35 0.15 -24.65 -1.45 -24.3 -3.25 -23.3 -8.15 -19.4 -11.2 -18.7 -15.95 -14.55 -18.9 -11.95 -20.75 -8.95 -21.2 -6.35 -25.2 -3.2 -28.85 -1.15 -31.25 0.45 -34.0 L0.8 -34.15 M1.35 -26.75 Q3.95 -26.65 6.15 -25.35 L6.55 -25.1 1.7 -26.3 Q0.95 -26.45 1.35 -26.75 M1.35 -32.5 L-7.1 -21.3 Q-5.75 -21.25 -4.7 -20.3 0.25 -21.9 5.4 -21.65 8.5 -21.6 11.15 -20.6 L7.0 -26.45 Q4.6 -29.9 1.35 -32.5 M22.15 2.6 L22.15 2.5 21.75 -0.2 21.65 -0.55 21.2 -2.4 21.15 -2.45 20.8 -3.15 20.5 -3.8 19.85 -4.3 19.7 -4.45 19.7 -4.65 19.7 -4.85 19.7 -5.05 19.8 -5.25 20.0 -5.6 19.95 -5.7 Q19.85 -5.9 20.1 -5.8 20.75 -10.3 17.75 -13.95 L17.2 -15.0 17.05 -15.1 Q17.25 -13.3 16.7 -11.5 16.7 -14.05 15.85 -16.4 L15.65 -16.55 15.4 -16.65 Q14.2 -17.95 12.45 -18.45 L12.4 -18.4 Q8.55 -20.6 3.7 -20.35 L-3.0 -19.7 -4.6 -19.35 -4.65 -19.35 -4.7 -19.35 -4.9 -19.3 -8.15 -19.85 -9.9 -19.65 Q-11.85 -19.2 -13.65 -17.8 -16.5 -15.55 -17.7 -12.45 L-17.7 -11.4 -17.6 -11.3 -17.5 -11.15 -17.7 -10.95 Q-17.65 -8.5 -17.05 -6.1 L-17.0 -5.9 -17.2 -5.5 -17.55 -5.5 Q-18.55 -7.75 -18.7 -10.1 -23.05 -6.1 -22.75 -0.35 L-22.7 0.2 -22.7 0.5 -22.6 1.05 -22.5 1.65 -22.5 1.75 -22.45 2.05 -22.45 2.45 -22.35 2.6 -22.35 2.65 -22.3 2.6 -22.0 2.75 -21.85 2.9 -21.95 3.25 -21.9 3.45 -22.0 3.6 -22.15 3.75 -22.2 3.9 -22.5 5.15 -22.6 5.9 -22.65 6.7 -22.3 10.0 Q-21.05 15.15 -16.1 17.15 -15.6 15.5 -14.2 14.15 -14.65 15.25 -14.7 16.4 L-15.4 17.95 -15.25 19.2 -15.2 19.6 Q-12.4 23.75 -7.2 23.95 L-1.8 23.95 -2.1 23.75 -1.65 23.7 -1.6 23.7 -0.9 23.5 0.15 23.9 0.35 23.95 Q9.35 27.05 16.55 20.5 L19.2 17.6 19.7 14.25 19.5 14.05 19.45 13.6 19.5 13.5 18.65 12.25 18.6 12.05 18.7 11.95 18.95 11.85 19.1 11.85 20.05 12.95 20.55 12.6 Q22.25 8.4 22.2 4.1 L22.15 3.1 22.15 2.6 M-8.55 5.9 L-9.7 5.7 -10.05 5.35 Q-10.6 5.35 -10.8 5.0 L-6.3 5.3 -1.9 5.45 -1.85 5.35 -2.65 3.95 -3.7 2.0 -6.55 -4.2 Q-6.95 -5.15 -6.45 -5.6 -4.7 -0.3 -1.85 4.4 L-1.5 4.9 -1.2 4.55 -1.2 4.25 -1.2 3.8 -0.95 0.45 Q-0.35 -5.95 2.4 -11.55 2.75 -9.65 1.85 -7.4 1.05 -5.5 0.7 -3.45 0.15 -0.15 -0.1 3.15 2.3 0.4 5.2 -1.75 7.25 -3.3 9.55 -4.25 5.45 -1.25 2.05 2.6 L1.15 3.7 0.95 3.9 0.9 3.95 -0.1 5.2 -0.2 5.35 -0.2 5.45 4.1 5.35 5.45 5.3 10.25 4.95 Q9.8 5.5 8.85 5.8 L8.2 5.95 8.15 5.95 6.0 6.25 5.6 6.25 4.85 6.25 -0.2 6.2 -0.25 6.2 -0.25 6.8 1.15 8.75 6.8 16.15 6.5 16.45 Q2.75 12.45 -0.25 7.9 L-0.1 12.8 Q0.0 14.45 -0.2 16.0 -0.55 16.05 -0.9 16.25 -1.4 11.55 -1.3 6.8 L-1.7 7.35 Q-4.4 11.25 -5.9 15.65 L-6.2 15.7 -6.35 15.55 -6.5 15.3 Q-5.25 10.4 -2.4 6.2 L-2.55 6.2 -6.65 6.05 -6.8 6.05 -7.4 6.05 -8.55 5.9 M5.8 -22.6 L-3.35 -23.0 -3.2 -23.2 0.45 -23.85 Q5.15 -24.75 8.3 -21.8 L8.45 -21.6 8.4 -21.45 8.25 -21.45 8.05 -21.6 7.9 -21.75 5.8 -22.6 M25.65 3.7 L27.25 2.75 Q25.95 2.25 23.75 2.05 L23.6 2.0 23.7 2.9 23.8 5.0 23.75 6.55 23.2 9.55 25.15 9.75 26.05 9.85 25.95 8.85 25.75 8.3 Q25.45 7.65 24.75 7.35 L24.65 7.15 24.6 6.95 Q24.55 6.6 24.75 6.4 L25.1 6.35 26.7 6.2 27.0 6.15 26.0 5.45 25.65 5.3 25.6 5.3 24.7 5.2 24.55 5.0 24.5 4.8 24.65 4.55 Q24.95 4.05 25.55 3.7 L25.65 3.7 M-23.9 1.45 L-24.05 1.35 Q-25.4 1.8 -26.4 2.7 L-27.7 4.25 -27.85 4.45 -27.5 4.5 -26.05 4.55 -25.1 4.5 -24.85 4.9 -24.85 4.95 -24.8 5.35 Q-24.9 5.6 -25.2 5.65 L-25.9 5.75 -26.0 6.0 -26.1 6.15 -26.5 7.15 -26.65 7.7 -24.45 7.6 -24.4 7.25 -24.35 6.55 -24.3 6.3 -24.05 5.15 -23.95 4.9 -23.75 4.15 -23.0 3.05 -23.1 2.9 -23.4 2.45 -23.9 1.55 -23.9 1.45" fill="#000000" fill-rule="evenodd" stroke="none"/>
    <path d="M-22.5 1.65 L-22.6 1.05 -22.7 0.5 -22.7 0.2 -22.75 -0.35 Q-23.05 -6.1 -18.7 -10.1 -18.55 -7.75 -17.55 -5.5 L-17.2 -5.5 -17.0 -5.9 -17.05 -6.1 Q-17.65 -8.5 -17.7 -10.95 L-17.5 -11.15 -17.6 -11.3 -17.7 -11.4 -17.7 -12.45 Q-16.5 -15.55 -13.65 -17.8 -11.85 -19.2 -9.9 -19.65 L-8.15 -19.85 -4.9 -19.3 -4.7 -19.35 -4.65 -19.35 -4.6 -19.35 -3.0 -19.7 3.7 -20.35 Q8.55 -20.6 12.4 -18.4 L12.45 -18.45 Q14.2 -17.95 15.4 -16.65 L15.65 -16.55 15.85 -16.4 Q16.7 -14.05 16.7 -11.5 17.25 -13.3 17.05 -15.1 L17.2 -15.0 17.75 -13.95 Q20.75 -10.3 20.1 -5.8 19.85 -5.9 19.95 -5.7 L20.0 -5.6 19.8 -5.25 19.7 -5.05 19.7 -4.85 19.7 -4.65 19.7 -4.45 19.85 -4.3 20.5 -3.8 20.8 -3.15 21.15 -2.45 21.2 -2.4 21.65 -0.55 21.75 -0.2 22.15 2.5 22.15 2.6 21.2 2.7 Q18.45 3.7 16.05 5.8 L14.95 6.45 Q10.35 7.85 6.0 6.25 L8.15 5.95 8.2 5.95 8.85 5.8 Q9.8 5.5 10.25 4.95 L5.45 5.3 4.1 5.35 3.4 4.85 3.3 4.75 Q2.4 3.9 1.5 3.9 L1.4 3.9 1.3 3.9 1.05 3.9 0.95 3.9 0.9 3.95 0.95 3.9 1.15 3.7 2.05 2.6 Q5.45 -1.25 9.55 -4.25 7.25 -3.3 5.2 -1.75 2.3 0.4 -0.1 3.15 0.15 -0.15 0.7 -3.45 1.05 -5.5 1.85 -7.4 2.75 -9.65 2.4 -11.55 -0.35 -5.95 -0.95 0.45 L-1.2 3.8 -1.35 3.8 -2.15 3.85 -1.85 4.4 Q-4.7 -0.3 -6.45 -5.6 -6.95 -5.15 -6.55 -4.2 L-3.7 2.0 -2.65 3.95 Q-3.5 4.1 -4.35 4.5 L-6.3 5.3 -10.8 5.0 Q-10.6 5.35 -10.05 5.35 L-9.7 5.7 -8.55 5.9 Q-13.8 7.0 -19.2 5.0 L-21.8 2.45 -22.45 1.7 -22.5 1.65" fill="#a2e7fd" fill-rule="evenodd" stroke="none"/>
    <path d="M1.35 -32.5 Q4.6 -29.9 7.0 -26.45 L11.15 -20.6 Q8.5 -21.6 5.4 -21.65 0.25 -21.9 -4.7 -20.3 -5.75 -21.25 -7.1 -21.3 L1.35 -32.5 M1.35 -26.75 Q0.95 -26.45 1.7 -26.3 L6.55 -25.1 6.15 -25.35 Q3.95 -26.65 1.35 -26.75 M5.8 -22.6 L7.9 -21.75 8.05 -21.6 8.25 -21.45 8.4 -21.45 8.45 -21.6 8.3 -21.8 Q5.15 -24.75 0.45 -23.85 L-3.2 -23.2 -3.35 -23.0 5.8 -22.6" fill="#33cafb" fill-rule="evenodd" stroke="none"/>
    <path d="M22.15 2.6 L22.15 3.1 22.2 4.1 Q22.25 8.4 20.55 12.6 L20.05 12.95 19.1 11.85 18.95 11.85 18.7 11.95 18.6 12.05 18.65 12.25 19.5 13.5 19.45 13.6 19.5 14.05 19.7 14.25 19.2 17.6 16.55 20.5 Q9.35 27.05 0.35 23.95 L0.15 23.9 -0.9 23.5 -1.6 23.7 -1.65 23.7 -2.1 23.75 -1.8 23.95 -7.2 23.95 Q-12.4 23.75 -15.2 19.6 L-15.25 19.2 -15.4 17.95 -14.7 16.4 Q-14.65 15.25 -14.2 14.15 -15.6 15.5 -16.1 17.15 -21.05 15.15 -22.3 10.0 L-22.65 6.7 -22.6 5.9 -22.5 5.15 -22.2 3.9 -22.15 3.75 -22.0 3.6 -21.9 3.45 -21.95 3.25 -21.85 2.9 -22.0 2.75 -22.3 2.6 -22.35 2.65 -22.35 2.6 -22.45 2.45 -22.45 2.05 -22.5 1.75 -22.5 1.65 -22.45 1.7 -21.8 2.45 -19.2 5.0 Q-13.8 7.0 -8.55 5.9 L-7.4 6.05 -6.8 6.05 -6.65 6.05 -2.55 6.2 -2.4 6.2 Q-5.25 10.4 -6.5 15.3 L-6.35 15.55 -6.2 15.7 -5.9 15.65 Q-4.4 11.25 -1.7 7.35 L-1.3 6.8 Q-1.4 11.55 -0.9 16.25 -0.55 16.05 -0.2 16.0 0.0 14.45 -0.1 12.8 L-0.25 7.9 Q2.75 12.45 6.5 16.45 L6.8 16.15 1.15 8.75 -0.25 6.8 -0.25 6.2 -0.2 6.2 4.85 6.25 5.6 6.25 6.0 6.25 Q10.35 7.85 14.95 6.45 L16.05 5.8 Q18.45 3.7 21.2 2.7 L22.15 2.6 M-6.3 5.3 L-4.35 4.5 Q-3.5 4.1 -2.65 3.95 L-1.85 5.35 -1.9 5.45 -6.3 5.3 M-1.85 4.4 L-2.15 3.85 -1.35 3.8 -1.2 3.8 -1.2 4.25 -1.2 4.55 -1.5 4.9 -1.85 4.4 M0.9 3.95 L0.95 3.9 1.05 3.9 1.3 3.9 1.4 3.9 1.5 3.9 Q2.4 3.9 3.3 4.75 L3.4 4.85 4.1 5.35 -0.2 5.45 -0.2 5.35 -0.1 5.2 0.9 3.95 M25.65 3.7 L25.55 3.7 Q24.95 4.05 24.65 4.55 L24.5 4.8 24.55 5.0 24.7 5.2 25.6 5.3 25.65 5.3 26.0 5.45 27.0 6.15 26.7 6.2 25.1 6.35 24.75 6.4 Q24.55 6.6 24.6 6.95 L24.65 7.15 24.75 7.35 Q25.45 7.65 25.75 8.3 L25.95 8.85 26.05 9.85 25.15 9.75 23.2 9.55 23.75 6.55 23.8 5.0 23.7 2.9 23.6 2.0 23.75 2.05 Q25.95 2.25 27.25 2.75 L25.65 3.7 M-23.9 1.45 L-23.9 1.55 -23.4 2.45 -23.1 2.9 -23.0 3.05 -23.75 4.15 -23.95 4.9 -24.05 5.15 -24.3 6.3 -24.35 6.55 -24.4 7.25 -24.45 7.6 -26.65 7.7 -26.5 7.15 -26.1 6.15 -26.0 6.0 -25.9 5.75 -25.2 5.65 Q-24.9 5.6 -24.8 5.35 L-24.85 4.95 -24.85 4.9 -25.1 4.5 -26.05 4.55 -27.5 4.5 -27.85 4.45 -27.7 4.25 -26.4 2.7 Q-25.4 1.8 -24.05 1.35 L-23.9 1.45" fill="#83defc" fill-rule="evenodd" stroke="none"/>
  </g>
</svg>
