<?xml version="1.0" encoding="UTF-8" standalone="no"?>
<svg xmlns:xlink="http://www.w3.org/1999/xlink" height="58.8px" width="60.3px" xmlns="http://www.w3.org/2000/svg">
  <g transform="matrix(1.0, 0.0, 0.0, 1.0, 32.75, 52.15)">
    <path d="M27.15 -28.1 L27.35 -27.8 27.55 -27.55 27.55 -25.85 27.55 -24.15 27.35 -23.9 27.15 -23.6 Q27.25 -21.2 26.35 -18.9 L26.8 -16.8 Q27.95 -13.2 26.95 -9.45 L26.3 -6.1 Q25.35 -2.75 23.25 -0.45 L21.95 1.15 Q19.0 4.75 14.6 4.95 L13.95 5.3 13.8 5.5 13.15 5.7 Q7.8 8.05 2.0 4.6 L1.95 4.55 0.05 4.2 -0.55 4.3 -0.8 4.25 -0.95 4.2 -1.15 4.1 Q-4.95 3.85 -8.65 1.8 L-9.95 1.0 -11.45 -0.1 Q-15.75 -1.1 -19.3 -4.2 L-21.0 -6.3 -21.2 -6.5 -21.1 -6.5 -21.85 -7.75 -21.95 -7.35 -22.05 -6.75 Q-24.8 -6.4 -25.8 -9.55 L-25.85 -9.8 Q-26.0 -10.05 -26.25 -9.45 L-26.7 -8.85 -26.85 -8.8 -27.25 -8.7 -28.3 -8.95 Q-29.85 -10.8 -28.9 -13.0 L-28.5 -13.75 -30.55 -13.65 -31.85 -13.4 -32.4 -13.65 -32.6 -13.85 -32.7 -14.7 -32.6 -15.25 Q-31.65 -16.1 -31.0 -17.2 L-30.85 -17.4 -27.85 -19.45 -29.8 -19.95 -29.95 -20.25 -30.05 -21.05 -30.0 -21.35 Q-27.5 -23.9 -23.95 -24.2 L-23.85 -24.8 -23.25 -30.6 -23.5 -35.35 Q-23.75 -43.3 -22.05 -50.9 L-21.5 -52.0 -21.4 -52.05 -21.05 -52.1 -21.0 -52.15 Q-16.65 -48.9 -11.85 -46.25 L-11.55 -46.3 Q-8.9 -46.1 -6.7 -44.7 L-5.9 -44.8 Q-4.7 -44.7 -3.65 -44.25 L-0.6 -44.5 Q1.85 -44.2 4.0 -43.3 L4.15 -43.3 6.35 -43.35 7.5 -43.55 Q13.45 -43.2 17.15 -39.3 18.8 -37.9 19.8 -36.0 24.9 -34.1 27.1 -28.35 L27.15 -28.1 M25.45 -11.85 Q26.15 -14.65 25.4 -17.15 L25.05 -18.05 24.7 -18.75 24.4 -19.3 24.3 -19.45 24.7 -20.15 24.9 -20.6 Q25.9 -22.8 25.7 -25.2 L25.45 -26.6 Q24.65 -29.85 22.55 -32.2 L20.7 -33.9 20.35 -34.15 20.1 -34.35 19.5 -34.75 19.2 -32.75 19.2 -32.7 18.25 -35.15 18.2 -35.15 18.15 -35.2 Q18.05 -35.25 18.05 -35.25 L17.9 -35.6 18.0 -35.55 18.05 -35.55 18.1 -35.55 17.7 -36.65 17.25 -37.3 15.85 -38.65 Q12.95 -41.1 9.25 -42.0 L5.6 -42.5 10.4 -38.45 10.55 -37.3 10.0 -36.55 9.55 -37.9 4.5 -41.6 2.7 -42.3 2.65 -42.35 2.5 -42.35 0.5 -42.8 -2.45 -42.9 -2.75 -42.8 -3.05 -42.85 Q-6.25 -42.55 -9.7 -40.8 L-10.75 -40.15 Q-6.15 -39.25 -3.25 -35.4 L-3.15 -35.15 -3.3 -34.9 -3.5 -34.7 -3.45 -34.65 Q-3.65 -33.3 -5.85 -34.0 L-9.2 -34.5 -8.85 -33.95 -8.25 -33.35 -8.05 -33.15 -7.85 -33.1 -7.7 -33.05 -7.2 -31.75 Q-8.05 -30.6 -9.9 -30.15 -10.55 -30.0 -11.2 -29.55 L-12.05 -29.0 Q-9.45 -27.95 -6.35 -25.85 L-3.8 -23.9 -3.8 -23.6 -3.85 -23.35 -4.0 -23.05 -4.1 -23.0 -4.0 -22.85 -4.0 -22.6 -4.2 -22.3 Q-9.0 -22.9 -12.7 -20.1 L-12.75 -20.1 -13.2 -19.7 -13.7 -19.3 -14.85 -18.5 -11.15 -17.8 Q-9.0 -17.3 -7.1 -16.2 L-5.35 -14.15 -5.15 -13.95 -4.6 -13.15 -4.65 -13.0 -5.3 -11.85 Q-8.25 -9.5 -11.95 -8.9 L-14.1 -8.4 Q-9.35 -5.0 -3.5 -4.6 L-3.45 -4.3 -3.35 -3.75 Q-5.05 -1.8 -7.8 -1.35 L-8.4 -1.25 -10.25 -1.0 -10.5 -1.0 -9.65 -0.4 -8.35 0.4 -6.8 1.2 -6.2 1.45 Q-3.1 2.85 0.4 3.4 L0.9 3.25 1.45 3.1 1.9 2.9 3.3 2.2 4.5 1.4 5.85 0.25 4.5 2.15 4.3 2.3 3.0 3.15 2.7 3.35 2.95 3.45 3.85 3.85 4.5 4.15 5.95 4.7 6.5 4.9 Q9.9 5.75 13.25 4.25 L14.65 3.5 15.0 3.4 15.0 3.65 15.8 3.55 Q17.35 3.25 18.6 2.25 L19.05 1.85 Q22.05 -1.05 23.65 -4.65 25.1 -7.95 25.45 -11.85 M12.55 -22.85 L10.75 -28.25 14.45 -19.85 16.05 -13.65 17.85 -19.8 17.8 -19.75 Q19.8 -23.35 18.7 -30.1 L18.75 -30.1 Q20.6 -24.6 18.8 -18.95 L16.75 -13.35 20.95 -16.55 22.1 -18.2 22.35 -17.35 21.35 -16.2 16.4 -12.3 16.35 -11.55 Q16.8 -7.45 16.3 -3.65 16.05 -1.65 14.65 -0.55 L15.4 -9.55 15.35 -10.25 15.0 -9.5 14.15 -7.95 Q12.25 -4.45 8.7 -2.6 L8.4 -2.95 Q12.65 -6.75 15.15 -11.7 L14.2 -11.35 Q9.4 -9.15 4.5 -10.95 L4.45 -11.0 4.5 -11.0 Q10.1 -10.05 15.15 -12.5 L14.7 -15.1 14.65 -15.25 12.55 -22.85 M-6.3 -12.8 L-6.25 -12.9 -5.8 -13.5 -7.5 -15.0 Q-11.25 -18.05 -16.25 -17.8 -14.4 -21.55 -9.6 -22.65 L-6.25 -23.5 -5.15 -23.4 Q-7.75 -25.75 -11.0 -27.1 -13.6 -28.2 -16.4 -27.85 L-16.6 -28.2 -16.65 -28.45 Q-13.3 -29.35 -10.15 -31.15 L-8.7 -32.3 -9.75 -33.45 -10.7 -34.75 Q-11.3 -35.7 -10.45 -35.95 L-10.45 -36.0 Q-7.1 -35.0 -3.75 -34.8 -7.0 -38.2 -11.35 -39.5 L-11.5 -39.65 -11.75 -39.6 -10.5 -41.0 Q-10.1 -41.35 -10.05 -41.85 L-7.0 -43.3 Q-10.65 -43.25 -14.2 -41.5 -11.7 -43.55 -8.25 -44.4 -12.7 -46.0 -17.3 -43.3 L-17.8 -43.2 Q-16.05 -44.85 -13.8 -45.7 L-16.35 -46.9 -20.75 -50.0 Q-21.95 -44.25 -21.95 -38.15 L-21.95 -35.6 -21.95 -35.4 -21.95 -33.9 -21.95 -29.45 -22.0 -25.8 -22.0 -24.75 -21.85 -24.8 -20.85 -24.75 Q-18.25 -24.4 -17.05 -21.9 L-16.9 -21.7 -17.05 -21.5 -17.1 -21.45 -17.95 -22.15 -18.5 -22.7 -18.55 -22.75 -18.8 -22.9 -20.05 -23.5 -20.95 -23.75 -21.35 -23.8 -21.35 -23.75 -21.65 -23.7 -21.8 -23.6 -22.0 -23.45 -22.1 -23.25 -22.1 -23.15 -22.15 -23.1 -22.25 -22.95 -22.25 -22.75 -22.25 -22.6 -22.2 -22.4 -21.85 -22.15 -21.4 -21.85 -21.2 -21.7 -20.5 -21.1 Q-19.65 -19.35 -19.5 -17.3 L-19.35 -17.15 -19.3 -17.15 -19.6 -16.6 -19.25 -16.05 -19.3 -16.05 -18.7 -15.25 -17.95 -14.55 -17.75 -14.4 -17.15 -14.05 -17.1 -13.9 -17.15 -13.9 Q-19.0 -11.4 -19.45 -8.3 L-19.5 -7.4 -19.1 -6.35 -19.2 -6.1 Q-17.9 -5.1 -16.45 -4.2 L-16.5 -4.05 Q-15.15 -2.85 -13.3 -2.25 L-12.45 -2.05 -11.95 -2.05 -11.35 -2.2 -11.2 -2.2 Q-9.1 -2.1 -7.05 -3.05 -6.4 -3.15 -5.8 -3.65 -9.3 -4.45 -12.55 -5.75 -14.7 -7.0 -15.95 -8.6 L-13.85 -9.65 Q-9.9 -10.25 -6.45 -12.65 L-6.3 -12.8 M-10.85 -40.05 L-10.8 -40.1 -10.85 -40.05 M-20.9 -16.4 L-20.9 -17.2 -20.75 -17.45 -20.55 -17.75 -20.5 -18.9 -20.65 -19.75 -21.35 -20.7 -21.8 -21.15 -22.45 -21.7 -22.85 -21.85 -23.1 -21.95 -23.5 -22.1 -24.05 -22.2 -24.15 -22.25 -24.45 -22.3 -26.15 -22.3 -27.4 -21.65 -27.45 -21.55 -27.2 -21.45 -25.8 -20.7 -25.05 -20.1 -24.95 -20.0 -24.8 -19.8 -24.6 -19.55 -25.25 -19.35 -26.25 -18.95 -26.35 -18.9 Q-28.85 -17.75 -30.45 -15.45 L-30.4 -15.25 -25.6 -15.1 -27.0 -13.75 -27.5 -12.7 -27.6 -12.2 -27.7 -11.95 Q-27.95 -11.15 -27.65 -10.45 L-27.5 -10.45 -27.4 -9.95 -27.3 -9.9 -26.2 -11.9 -25.65 -12.5 -25.6 -12.55 -25.3 -12.65 -25.0 -12.6 -24.7 -13.05 -24.4 -12.85 -24.25 -12.65 -24.25 -12.4 -24.5 -11.8 Q-24.6 -10.75 -24.35 -9.8 -24.15 -8.8 -23.3 -8.2 -22.65 -8.75 -22.75 -9.7 L-22.75 -9.8 -22.8 -11.1 -22.7 -11.2 -22.6 -11.35 -22.15 -11.6 -21.75 -11.35 -21.2 -10.85 -21.15 -10.55 -21.1 -10.0 -20.75 -9.4 -20.25 -8.75 -20.2 -8.95 -20.15 -9.8 -20.15 -10.1 -19.25 -11.75 -18.75 -13.2 -20.05 -15.0 -20.9 -16.05 -20.9 -16.3 -20.9 -16.4" fill="#000000" fill-rule="evenodd" stroke="none"/>
    <path d="M-12.7 -20.1 Q-9.0 -22.9 -4.2 -22.3 L-4.0 -22.6 -4.0 -22.85 -4.1 -23.0 -4.0 -23.05 -3.85 -23.35 -3.8 -23.6 -3.8 -23.9 -6.35 -25.85 Q-9.45 -27.95 -12.05 -29.0 L-11.2 -29.55 Q-10.55 -30.0 -9.9 -30.15 -8.05 -30.6 -7.2 -31.75 L-7.7 -33.05 -7.85 -33.1 -8.05 -33.15 -8.25 -33.35 -8.85 -33.95 -9.2 -34.5 -5.85 -34.0 Q-3.65 -33.3 -3.45 -34.65 L-3.5 -34.7 -3.3 -34.9 -3.15 -35.15 -3.25 -35.4 Q-6.15 -39.25 -10.75 -40.15 L-9.7 -40.8 Q-6.25 -42.55 -3.05 -42.85 L-2.75 -42.8 -2.45 -42.9 0.5 -42.8 2.5 -42.35 2.65 -42.35 2.7 -42.3 4.5 -41.6 9.55 -37.9 10.0 -36.55 10.55 -37.3 10.4 -38.45 5.6 -42.5 9.25 -42.0 Q12.95 -41.1 15.85 -38.65 L17.25 -37.3 17.7 -36.65 18.1 -35.55 18.05 -35.55 18.0 -35.55 17.9 -35.6 18.05 -35.25 Q18.05 -35.25 18.15 -35.2 L18.2 -35.15 18.25 -35.15 19.2 -32.7 19.2 -32.75 19.5 -34.75 20.1 -34.35 20.35 -34.15 20.7 -33.9 22.55 -32.2 Q24.65 -29.85 25.45 -26.6 L25.7 -25.2 Q25.9 -22.8 24.9 -20.6 L24.7 -20.15 24.3 -19.45 24.4 -19.3 24.7 -18.75 25.05 -18.05 25.4 -17.15 Q26.15 -14.65 25.45 -11.85 L24.9 -11.15 24.0 -10.65 22.65 -10.55 21.95 -10.65 Q20.3 -11.95 20.25 -14.15 L21.35 -16.2 22.35 -17.35 22.1 -18.2 20.95 -16.55 18.55 -17.4 18.2 -16.7 19.15 -19.5 18.8 -18.95 Q20.6 -24.6 18.75 -30.1 L18.7 -30.1 Q19.8 -23.35 17.8 -19.75 L15.25 -19.2 14.45 -19.85 10.75 -28.25 12.55 -22.85 12.15 -24.0 11.75 -23.75 11.75 -22.9 Q12.7 -21.3 12.35 -19.1 12.1 -17.4 11.25 -16.0 9.15 -12.35 4.5 -13.3 1.1 -13.75 -2.1 -16.35 -2.55 -16.7 -3.1 -16.9 -7.75 -18.85 -12.7 -20.1 M-5.3 -11.85 L-4.65 -13.0 -4.45 -12.5 Q-4.05 -11.55 -3.05 -11.4 L-3.0 -11.3 -5.25 -11.9 -5.3 -11.85 M-5.15 -13.95 L-5.35 -14.15 -5.3 -14.15 -5.15 -13.95 M14.7 -15.1 L14.65 -15.15 14.65 -15.25 14.7 -15.1 M15.0 -9.5 L15.35 -10.25 15.4 -9.55 15.0 -9.5 M-27.5 -12.7 L-27.0 -13.75 -25.6 -15.1 -30.4 -15.25 -30.45 -15.45 Q-28.85 -17.75 -26.35 -18.9 L-26.25 -18.95 -25.25 -19.35 -24.6 -19.55 -24.8 -19.8 -24.95 -20.0 -25.05 -20.1 -25.8 -20.7 -27.2 -21.45 -27.45 -21.55 -27.4 -21.65 -26.15 -22.3 -24.45 -22.3 -24.15 -22.25 -24.05 -22.2 -23.5 -22.1 -23.1 -21.95 -22.85 -21.85 -22.45 -21.7 -21.8 -21.15 -21.35 -20.7 -20.65 -19.75 -20.5 -18.9 -20.55 -17.75 -20.75 -17.45 -20.9 -17.2 -20.9 -16.4 -22.25 -16.25 -22.75 -16.2 -23.45 -16.1 -25.0 -15.8 -25.05 -15.65 -26.4 -13.75 -27.2 -13.0 -27.5 -12.7" fill="#a2e7fd" fill-rule="evenodd" stroke="none"/>
    <path d="M25.45 -11.85 Q25.1 -7.95 23.65 -4.65 22.05 -1.05 19.05 1.85 L18.6 2.25 Q17.35 3.25 15.8 3.55 L15.0 3.65 15.0 3.4 14.65 3.5 13.25 4.25 Q9.9 5.75 6.5 4.9 L5.95 4.7 4.5 4.15 3.85 3.85 2.95 3.45 2.7 3.35 3.0 3.15 4.3 2.3 4.5 2.15 5.85 0.25 4.5 1.4 3.3 2.2 1.9 2.9 1.45 3.1 0.9 3.25 0.4 3.4 Q-3.1 2.85 -6.2 1.45 L-6.8 1.2 -8.35 0.4 -9.65 -0.4 -10.5 -1.0 -10.25 -1.0 -8.4 -1.25 -7.8 -1.35 Q-5.05 -1.8 -3.35 -3.75 L-3.45 -4.3 -3.5 -4.6 Q-9.35 -5.0 -14.1 -8.4 L-11.95 -8.9 Q-8.25 -9.5 -5.3 -11.85 L-5.25 -11.9 -3.0 -11.3 -3.05 -11.4 Q-4.05 -11.55 -4.45 -12.5 L-4.65 -13.0 -4.6 -13.15 -5.15 -13.95 -5.3 -14.15 -5.35 -14.15 -7.1 -16.2 Q-9.0 -17.3 -11.15 -17.8 L-14.85 -18.5 -13.7 -19.3 -13.2 -19.7 -12.75 -20.1 -12.7 -20.1 Q-7.75 -18.85 -3.1 -16.9 -2.55 -16.7 -2.1 -16.35 1.1 -13.75 4.5 -13.3 9.15 -12.35 11.25 -16.0 12.1 -17.4 12.35 -19.1 12.7 -21.3 11.75 -22.9 L11.75 -23.75 12.15 -24.0 12.55 -22.85 14.65 -15.25 14.65 -15.15 14.7 -15.1 15.15 -12.5 Q10.1 -10.05 4.5 -11.0 L4.45 -11.0 4.5 -10.95 Q9.4 -9.15 14.2 -11.35 L15.15 -11.7 Q12.65 -6.75 8.4 -2.95 L8.7 -2.6 Q12.25 -4.45 14.15 -7.95 L15.0 -9.5 15.4 -9.55 14.65 -0.55 Q16.05 -1.65 16.3 -3.65 16.8 -7.45 16.35 -11.55 L16.4 -12.3 21.35 -16.2 20.25 -14.15 Q20.3 -11.95 21.95 -10.65 L22.65 -10.55 24.0 -10.65 24.9 -11.15 25.45 -11.85 M14.45 -19.85 L15.25 -19.2 17.8 -19.75 17.85 -19.8 16.05 -13.65 14.45 -19.85 M18.8 -18.95 L19.15 -19.5 18.2 -16.7 18.55 -17.4 20.95 -16.55 16.75 -13.35 18.8 -18.95 M-27.5 -12.7 L-27.2 -13.0 -26.4 -13.75 -25.05 -15.65 -25.0 -15.8 -23.45 -16.1 -22.75 -16.2 -22.25 -16.25 -20.9 -16.4 -20.9 -16.3 -20.9 -16.05 -20.05 -15.0 -18.75 -13.2 -19.25 -11.75 -20.15 -10.1 -20.15 -9.8 -20.2 -8.95 -20.25 -8.75 -20.75 -9.4 -21.1 -10.0 -21.15 -10.55 -21.2 -10.85 -21.75 -11.35 -22.15 -11.6 -22.6 -11.35 -22.7 -11.2 -22.8 -11.1 -22.75 -9.8 -22.75 -9.7 Q-22.65 -8.75 -23.3 -8.2 -24.15 -8.8 -24.35 -9.8 -24.6 -10.75 -24.5 -11.8 L-24.25 -12.4 -24.25 -12.65 -24.4 -12.85 -24.7 -13.05 -25.0 -12.6 -25.3 -12.65 -25.6 -12.55 -25.65 -12.5 -26.2 -11.9 -27.3 -9.9 -27.4 -9.95 -27.5 -10.45 -27.65 -10.45 Q-27.95 -11.15 -27.7 -11.95 L-27.6 -12.2 -27.5 -12.7" fill="#83defc" fill-rule="evenodd" stroke="none"/>
    <path d="M-19.25 -16.05 L-19.6 -16.6 -19.3 -17.15 -19.35 -17.15 -19.5 -17.3 Q-19.65 -19.35 -20.5 -21.1 L-21.2 -21.7 -21.4 -21.85 -21.85 -22.15 -22.2 -22.4 -22.25 -22.6 -22.25 -22.75 -22.25 -22.95 -22.15 -23.1 -22.1 -23.15 -22.1 -23.25 -22.0 -23.45 -21.8 -23.6 -21.65 -23.7 -21.35 -23.75 -21.35 -23.8 -20.95 -23.75 -20.05 -23.5 -18.8 -22.9 -18.55 -22.75 -18.5 -22.7 -17.95 -22.15 -17.1 -21.45 -17.05 -21.5 -16.9 -21.7 -17.05 -21.9 Q-18.25 -24.4 -20.85 -24.75 L-21.85 -24.8 -22.0 -24.75 -22.0 -25.8 -21.95 -29.45 -21.95 -33.9 -21.95 -35.4 -21.95 -35.6 -21.95 -38.15 Q-21.95 -44.25 -20.75 -50.0 L-16.35 -46.9 -13.8 -45.7 Q-16.05 -44.85 -17.8 -43.2 L-17.3 -43.3 Q-12.7 -46.0 -8.25 -44.4 -11.7 -43.55 -14.2 -41.5 -10.65 -43.25 -7.0 -43.3 L-10.05 -41.85 Q-10.1 -41.35 -10.5 -41.0 L-11.75 -39.6 -11.5 -39.65 -11.35 -39.5 Q-7.0 -38.2 -3.75 -34.8 -7.1 -35.0 -10.45 -36.0 L-10.45 -35.95 Q-11.3 -35.7 -10.7 -34.75 L-9.75 -33.45 -8.7 -32.3 -10.15 -31.15 Q-13.3 -29.35 -16.65 -28.45 L-16.6 -28.2 -16.4 -27.85 Q-13.6 -28.2 -11.0 -27.1 -7.75 -25.75 -5.15 -23.4 L-6.25 -23.5 -9.6 -22.65 Q-14.4 -21.55 -16.25 -17.8 -11.25 -18.05 -7.5 -15.0 L-5.8 -13.5 -6.25 -12.9 -6.3 -12.8 -6.55 -12.85 -7.8 -13.05 -15.2 -14.85 -19.25 -16.05" fill="#33cafb" fill-rule="evenodd" stroke="none"/>
    <path d="M-19.25 -16.05 L-15.2 -14.85 -7.8 -13.05 -6.55 -12.85 -6.3 -12.8 -6.45 -12.65 Q-9.9 -10.25 -13.85 -9.65 L-15.95 -8.6 Q-14.7 -7.0 -12.55 -5.75 -9.3 -4.45 -5.8 -3.65 -6.4 -3.15 -7.05 -3.05 -9.1 -2.1 -11.2 -2.2 L-11.35 -2.2 -11.95 -2.05 -12.45 -2.05 -13.3 -2.25 Q-15.15 -2.85 -16.5 -4.05 L-16.45 -4.2 Q-17.9 -5.1 -19.2 -6.1 L-19.1 -6.35 -19.5 -7.4 -19.45 -8.3 Q-19.0 -11.4 -17.15 -13.9 L-17.1 -13.9 -17.15 -14.05 -17.75 -14.4 -17.95 -14.55 -18.7 -15.25 -19.3 -16.05 -19.25 -16.05" fill="#05bdfa" fill-rule="evenodd" stroke="none"/>
  </g>
</svg>
