<?xml version="1.0" encoding="UTF-8" standalone="no"?>
<svg xmlns:xlink="http://www.w3.org/1999/xlink" height="60.9px" width="57.4px" xmlns="http://www.w3.org/2000/svg">
  <g transform="matrix(1.0, 0.0, 0.0, 1.0, 27.4, 34.5)">
    <path d="M2.95 -28.2 L-1.9 -33.45 -6.55 -28.1 -11.25 -22.45 -12.2 -21.35 -15.35 -17.5 Q-13.15 -18.65 -10.75 -19.3 L-3.1 -20.7 Q1.5 -21.0 5.7 -19.3 L5.85 -19.15 Q-3.1 -20.35 -11.9 -18.0 L-15.95 -16.75 -17.6 -14.7 -18.45 -13.55 -18.15 -13.5 -17.8 -13.2 Q-18.9 -9.95 -19.25 -6.4 L-19.0 5.7 -17.9 6.35 -16.7 6.95 -16.4 7.4 -16.0 7.6 Q-13.25 11.55 -13.05 16.05 L-12.95 16.35 -13.0 16.4 -13.05 18.05 Q-13.1 18.75 -13.5 19.25 L-13.5 18.95 -13.85 21.2 -12.55 22.0 Q-9.7 23.65 -6.3 24.4 3.15 26.35 12.25 22.4 L12.2 22.3 11.85 21.7 11.75 21.55 11.55 17.8 11.6 16.9 11.75 15.15 Q12.35 13.1 13.1 11.2 13.7 9.15 14.75 7.2 L15.35 6.2 15.8 5.35 17.5 4.0 18.15 -6.4 18.55 -9.05 18.4 -9.7 18.35 -10.0 Q15.25 -14.5 11.8 -18.65 L11.5 -18.7 Q10.3 -20.45 8.55 -21.4 L7.25 -22.0 3.75 -22.65 -3.75 -22.95 -3.75 -23.25 -3.55 -23.45 -3.55 -23.5 Q2.3 -24.4 7.15 -22.4 L8.8 -21.65 9.7 -21.1 8.6 -22.3 7.5 -23.55 7.4 -23.65 6.0 -25.15 3.05 -28.1 2.95 -28.2 M8.5 -25.1 Q11.0 -24.7 13.15 -23.7 14.95 -23.1 16.35 -21.85 18.95 -20.25 20.55 -17.35 L20.8 -17.0 20.7 -16.4 20.7 -16.35 20.8 -16.15 20.7 -15.8 20.65 -15.65 20.65 -15.45 20.65 -15.0 20.8 -15.0 Q25.0 -11.6 24.5 -6.4 24.45 -4.7 23.8 -3.25 22.95 -1.5 21.8 -0.7 L22.75 -0.65 Q25.2 2.2 24.9 5.95 L25.85 5.95 26.65 6.6 26.3 7.05 26.35 7.15 25.2 9.6 Q28.25 11.5 30.0 14.55 L29.95 14.8 29.1 15.35 28.75 15.65 24.95 16.65 Q26.7 18.7 28.1 21.1 L28.3 21.45 28.25 22.05 28.1 22.75 27.85 22.9 27.45 23.05 Q24.7 21.65 21.7 20.85 L20.9 20.85 21.3 24.8 21.25 25.15 20.5 25.65 18.6 24.55 13.6 23.25 13.5 23.35 Q13.3 23.35 13.3 23.45 L13.35 23.6 Q2.4 27.75 -9.1 25.8 L-8.9 25.3 Q-12.4 24.4 -14.35 22.45 -15.8 22.9 -17.0 23.7 L-17.05 23.75 -17.1 23.75 -17.4 23.95 -17.75 23.75 -18.05 23.7 -18.15 23.5 -18.25 23.4 -18.25 23.25 -19.6 19.8 -20.75 20.0 -20.95 20.7 -21.5 21.2 -23.0 21.1 -23.65 18.3 Q-23.75 16.6 -22.45 15.35 L-24.65 16.3 -25.8 16.2 -26.55 15.25 -25.9 13.0 Q-25.3 11.4 -24.05 10.45 L-27.1 10.3 -27.4 10.0 Q-26.1 8.3 -24.25 7.2 L-24.0 6.95 -23.85 3.0 -23.8 2.8 -23.7 2.7 -23.55 2.7 Q-23.05 0.7 -21.8 -1.05 -24.7 -4.4 -23.55 -9.5 L-23.5 -9.8 -22.9 -10.75 -22.75 -11.0 -22.6 -11.1 -21.85 -12.2 -22.15 -14.0 -22.2 -15.8 -22.3 -16.65 Q-20.6 -20.6 -16.7 -22.3 L-13.9 -23.1 -13.0 -23.0 -8.6 -28.1 -2.8 -33.85 -2.55 -34.1 -2.45 -34.1 -2.75 -34.5 -2.55 -34.5 -2.0 -34.1 -1.95 -34.1 -1.95 -34.05 5.35 -28.1 8.5 -25.1 M22.9 -9.4 Q22.3 -11.75 20.6 -14.1 L20.3 -14.5 20.0 -14.45 19.9 -14.8 19.1 -17.2 Q16.9 -21.8 10.7 -22.9 L10.55 -22.9 11.15 -22.25 15.6 -16.9 17.95 -13.95 Q20.05 -11.35 19.75 -8.4 L19.55 -6.4 19.45 -4.85 19.05 3.2 19.8 2.9 20.75 3.35 19.1 6.85 23.95 6.0 Q22.95 2.15 20.8 -0.4 L20.9 -1.05 21.15 -1.05 21.3 -1.05 21.3 -1.15 21.4 -1.25 21.45 -1.35 23.15 -6.4 Q23.25 -7.9 22.9 -9.4 M24.6 7.3 L24.35 7.45 Q21.95 6.6 19.6 8.65 L18.85 9.15 18.35 8.95 17.8 8.0 18.3 4.95 14.0 11.2 Q13.45 12.75 13.05 14.4 L13.4 21.0 Q15.95 23.3 19.35 23.25 L19.25 21.7 18.35 20.15 18.4 20.15 19.05 19.9 20.7 19.6 Q23.2 19.4 25.6 20.8 L23.0 15.75 28.0 14.4 22.95 10.85 22.85 9.6 24.6 7.3 M-20.5 -12.9 L-20.45 -12.65 -20.05 -12.3 -20.8 -11.6 -21.0 -11.35 -21.55 -10.55 Q-22.85 -8.65 -22.45 -6.4 L-20.8 -2.5 -20.55 -6.4 -19.6 -12.15 -19.45 -12.9 -19.4 -13.0 -19.1 -14.1 Q-18.95 -14.4 -18.95 -14.65 L-14.5 -21.1 -14.0 -21.7 -14.45 -21.9 Q-20.8 -20.05 -20.8 -14.3 L-20.6 -13.25 -20.55 -13.15 -20.5 -12.9 M-16.7 8.75 Q-18.0 7.65 -20.05 6.85 L-20.85 6.75 -20.95 6.75 -24.1 8.3 -20.95 9.7 -24.25 11.6 -25.3 15.05 -22.75 14.2 -20.6 14.55 -22.2 19.0 Q-20.85 18.15 -19.45 17.7 -18.3 17.45 -17.7 18.2 L-17.6 18.9 -17.8 20.45 -16.7 20.75 -14.7 19.3 -14.4 15.7 -14.2 15.35 -14.15 14.85 Q-14.9 11.95 -16.4 9.25 L-16.7 8.75 M-20.85 0.2 L-21.75 1.8 -22.55 6.2 -20.8 5.35 -20.75 5.3 -20.35 5.1 -20.85 0.2" fill="#000000" fill-rule="evenodd" stroke="none"/>
    <path d="M2.95 -28.2 L3.05 -28.1 6.0 -25.15 7.4 -23.65 7.5 -23.55 8.6 -22.3 9.7 -21.1 8.8 -21.65 7.15 -22.4 Q2.3 -24.4 -3.55 -23.5 L-3.55 -23.45 -3.75 -23.25 -3.75 -22.95 3.75 -22.65 7.25 -22.0 8.55 -21.4 Q10.3 -20.45 11.5 -18.7 L11.8 -18.65 Q15.25 -14.5 18.35 -10.0 L18.4 -9.7 18.55 -9.05 18.15 -6.4 17.5 4.0 15.8 5.35 15.35 6.2 14.75 7.2 Q13.7 9.15 13.1 11.2 12.35 13.1 11.75 15.15 L11.6 16.9 11.55 17.8 11.75 21.55 11.85 21.7 12.2 22.3 12.25 22.4 Q3.15 26.35 -6.3 24.4 -9.7 23.65 -12.55 22.0 L-13.85 21.2 -13.5 18.95 -13.5 19.25 Q-13.1 18.75 -13.05 18.05 L-13.0 16.4 -12.95 16.35 -13.05 16.05 Q-13.25 11.55 -16.0 7.6 L-16.4 7.4 -16.7 6.95 -17.9 6.35 -19.0 5.7 -19.25 -6.4 Q-18.9 -9.95 -17.8 -13.2 L-18.15 -13.5 -18.45 -13.55 -17.6 -14.7 -15.95 -16.75 -11.9 -18.0 Q-3.1 -20.35 5.85 -19.15 L5.7 -19.3 Q1.5 -21.0 -3.1 -20.7 L-10.75 -19.3 Q-13.15 -18.65 -15.35 -17.5 L-12.2 -21.35 -11.25 -22.45 -6.55 -28.1 -1.9 -33.45 2.95 -28.2" fill="#33cafb" fill-rule="evenodd" stroke="none"/>
    <path d="M19.45 -4.85 L19.55 -6.4 19.75 -8.4 Q20.05 -11.35 17.95 -13.95 L15.6 -16.9 11.15 -22.25 10.55 -22.9 10.7 -22.9 Q16.9 -21.8 19.1 -17.2 L19.9 -14.8 20.0 -14.45 20.3 -14.5 20.6 -14.1 Q22.3 -11.75 22.9 -9.4 L20.6 -6.4 19.45 -4.85 M-20.5 -12.9 L-20.55 -13.15 -20.6 -13.25 -20.8 -14.3 Q-20.8 -20.05 -14.45 -21.9 L-14.0 -21.7 -14.5 -21.1 -18.95 -14.65 Q-18.95 -14.4 -19.1 -14.1 L-19.4 -13.0 -19.45 -12.9 -19.6 -12.15 -20.55 -6.4 -20.8 -2.5 -22.45 -6.4 Q-22.85 -8.65 -21.55 -10.55 L-21.0 -11.35 -20.8 -11.6 -20.05 -12.3 -20.45 -12.65 -20.5 -12.9" fill="#a2e7fd" fill-rule="evenodd" stroke="none"/>
    <path d="M19.45 -4.85 L20.6 -6.4 22.9 -9.4 Q23.25 -7.9 23.15 -6.4 L21.45 -1.35 21.4 -1.25 21.3 -1.15 21.3 -1.05 21.15 -1.05 20.9 -1.05 20.8 -0.4 Q22.95 2.15 23.95 6.0 L19.1 6.85 20.75 3.35 19.8 2.9 19.05 3.2 19.45 -4.85 M24.6 7.3 L22.85 9.6 22.95 10.85 28.0 14.4 23.0 15.75 25.6 20.8 Q23.2 19.4 20.7 19.6 L19.05 19.9 18.4 20.15 18.35 20.15 19.25 21.7 19.35 23.25 Q15.95 23.3 13.4 21.0 L13.05 14.4 Q13.45 12.75 14.0 11.2 L18.3 4.95 17.8 8.0 18.35 8.95 18.85 9.15 19.6 8.65 Q21.95 6.6 24.35 7.45 L24.6 7.3 M-16.7 8.75 L-16.4 9.25 Q-14.9 11.95 -14.15 14.85 L-14.2 15.35 -14.4 15.7 -14.7 19.3 -16.7 20.75 -17.8 20.45 -17.6 18.9 -17.7 18.2 Q-18.3 17.45 -19.45 17.7 -20.85 18.15 -22.2 19.0 L-20.6 14.55 -22.75 14.2 -25.3 15.05 -24.25 11.6 -20.95 9.7 -24.1 8.3 -20.95 6.75 -20.85 6.75 -20.05 6.85 Q-18.0 7.65 -16.7 8.75 M-20.85 0.2 L-20.35 5.1 -20.75 5.3 -20.8 5.35 -22.55 6.2 -21.75 1.8 -20.85 0.2" fill="#83defc" fill-rule="evenodd" stroke="none"/>
  </g>
</svg>
