<?xml version="1.0" encoding="UTF-8" standalone="no"?>
<svg xmlns:xlink="http://www.w3.org/1999/xlink" height="56.1px" width="49.65px" xmlns="http://www.w3.org/2000/svg">
  <g transform="matrix(1.0, 0.0, 0.0, 1.0, 23.4, 32.0)">
    <path d="M3.1 -25.3 L3.35 -24.9 4.9 -24.2 Q12.75 -26.45 19.8 -22.5 21.7 -20.2 22.7 -17.5 L24.25 -11.4 24.7 -6.6 Q27.55 -0.4 25.2 5.8 26.3 7.4 26.05 9.3 25.25 14.2 22.45 18.45 21.9 19.25 20.95 19.55 L20.7 20.85 17.7 23.4 Q14.95 24.8 12.0 23.4 L11.25 23.0 11.8 22.45 Q4.5 23.9 -2.6 21.65 L-6.3 20.35 -7.3 20.85 Q-11.2 21.7 -13.15 18.05 L-14.7 18.85 -15.0 19.7 -15.65 19.7 -16.2 19.45 -17.05 18.85 Q-18.3 17.35 -18.1 15.5 L-20.6 16.25 -22.5 15.95 -21.15 9.8 -23.35 9.0 -23.35 8.8 -22.6 7.9 -21.85 7.25 -22.0 5.3 -22.5 5.2 -21.9 4.55 -21.85 4.1 -21.7 4.05 Q-22.35 3.0 -20.7 -9.25 -18.6 -24.8 -19.5 -31.45 L-18.7 -32.0 -3.35 -26.05 -2.2 -26.0 3.1 -25.3 M24.9 0.85 Q25.15 -1.85 23.7 -4.35 22.2 -6.75 19.8 -8.6 L19.55 -8.8 23.65 -6.35 22.55 -11.4 Q21.65 -13.6 19.95 -15.6 L18.15 -17.05 Q17.35 -17.5 17.85 -18.2 L21.8 -16.3 21.25 -17.55 20.5 -18.7 Q15.15 -23.95 7.35 -23.2 L6.35 -23.1 Q5.15 -22.9 4.75 -22.35 L4.7 -22.25 5.7 -22.1 5.95 -22.1 6.5 -21.65 6.45 -21.25 6.45 -21.2 6.45 -21.15 6.3 -21.15 2.35 -22.65 3.95 -23.75 0.15 -23.4 -6.75 -21.55 0.75 -24.95 Q-4.15 -25.65 -8.55 -23.2 L-4.15 -25.8 -7.95 -26.8 -17.25 -29.75 Q-16.8 -25.95 -17.6 -21.05 L-19.25 -10.7 Q-20.05 -5.2 -19.95 3.55 L-15.35 3.5 -14.3 3.5 -14.2 3.15 -13.6 0.0 -12.85 -0.95 -11.65 -0.25 -9.35 5.05 -8.95 5.3 -8.15 5.6 -8.0 5.8 -6.55 8.0 -6.25 9.55 -6.65 9.7 -8.8 14.5 -6.5 18.95 -4.05 18.55 -0.3 18.85 6.95 14.8 -1.2 10.0 2.45 8.25 7.15 6.0 Q3.3 1.9 -2.25 0.9 1.75 -4.3 8.9 -4.05 L9.35 -4.4 Q3.95 -8.3 -2.6 -9.4 L-3.45 -9.55 -3.25 -10.5 4.6 -12.45 4.15 -14.4 9.2 -14.7 9.75 -15.25 12.1 -15.55 Q9.55 -18.35 6.35 -20.1 L4.25 -21.25 7.6 -20.3 Q10.55 -19.1 12.55 -16.5 L12.6 -16.5 13.75 -14.75 10.15 -14.05 9.55 -13.5 5.35 -13.6 6.95 -10.7 -0.35 -10.3 Q3.15 -8.4 7.1 -7.05 10.4 -5.9 11.95 -3.0 7.2 -3.15 2.85 -1.35 L0.55 -0.3 -0.35 0.25 Q4.35 1.3 7.45 4.9 L8.0 5.5 8.8 5.85 1.25 10.65 8.65 15.05 7.55 15.15 Q4.5 19.6 -1.4 19.9 L-1.8 20.0 Q5.75 23.15 13.4 20.0 L14.05 20.2 12.0 22.4 Q18.15 23.9 20.25 18.85 20.65 17.8 21.45 16.9 24.8 12.95 24.2 8.1 L24.1 7.45 19.8 11.3 Q23.7 6.65 24.9 0.85 M-8.5 7.9 L-10.6 4.85 -10.65 4.25 Q-11.15 2.15 -12.85 2.0 L-13.05 5.0 -15.2 4.55 -19.6 4.55 -16.3 6.25 -19.45 7.8 -20.8 8.4 -19.5 9.0 -21.25 14.85 -17.35 13.65 -16.75 13.9 -16.1 17.45 -14.2 16.35 -12.25 16.45 -9.25 19.35 -10.5 13.9 -7.3 9.7 -8.5 7.9 M7.25 15.1 L7.4 15.05 7.3 15.0 7.25 15.1" fill="#000000" fill-rule="evenodd" stroke="none"/>
    <path d="M4.75 -22.35 Q5.15 -22.9 6.35 -23.1 L7.35 -23.2 Q15.15 -23.95 20.5 -18.7 L21.25 -17.55 21.8 -16.3 17.85 -18.2 Q17.35 -17.5 18.15 -17.05 L19.95 -15.6 Q21.65 -13.6 22.55 -11.4 L23.65 -6.35 19.55 -8.8 19.8 -8.6 Q22.2 -6.75 23.7 -4.35 25.15 -1.85 24.9 0.85 L22.8 2.4 Q16.2 6.5 7.8 2.75 L0.55 -0.3 2.85 -1.35 Q7.2 -3.15 11.95 -3.0 10.4 -5.9 7.1 -7.05 3.15 -8.4 -0.35 -10.3 L6.95 -10.7 5.35 -13.6 9.55 -13.5 10.15 -14.05 13.75 -14.75 12.6 -16.5 12.55 -16.5 Q10.55 -19.1 7.6 -20.3 L6.45 -21.15 6.45 -21.2 6.45 -21.25 6.5 -21.65 5.95 -22.1 5.7 -22.1 5.0 -22.2 4.75 -22.35 M-8.5 7.9 L-9.95 8.4 Q-11.5 9.05 -13.15 8.95 -16.25 8.8 -19.05 7.9 L-19.45 7.8 -16.3 6.25 -19.6 4.55 -15.2 4.55 -13.05 5.0 -12.85 2.0 Q-11.15 2.15 -10.65 4.25 L-10.6 4.85 -8.5 7.9 M-9.45 11.0 L-9.9 11.1 -10.4 11.0 -9.8 10.9 -9.35 10.95 -9.45 11.0" fill="#a2e7fd" fill-rule="evenodd" stroke="none"/>
    <path d="M24.9 0.85 Q23.7 6.65 19.8 11.3 L24.1 7.45 24.2 8.1 Q24.8 12.95 21.45 16.9 20.65 17.8 20.25 18.85 18.15 23.9 12.0 22.4 L14.05 20.2 13.4 20.0 Q5.75 23.15 -1.8 20.0 L-1.4 19.9 Q4.5 19.6 7.55 15.15 L8.65 15.05 1.25 10.65 8.8 5.85 8.0 5.5 7.45 4.9 Q4.35 1.3 -0.35 0.25 L0.55 -0.3 7.8 2.75 Q16.2 6.5 22.8 2.4 L24.9 0.85 M-9.45 11.0 L-9.35 10.95 -9.8 10.9 -10.4 11.0 -9.9 11.1 -9.45 11.0 M-19.45 7.8 L-19.05 7.9 Q-16.25 8.8 -13.15 8.95 -11.5 9.05 -9.95 8.4 L-8.5 7.9 -7.3 9.7 -10.5 13.9 -9.25 19.35 -12.25 16.45 -14.2 16.35 -16.1 17.45 -16.75 13.9 -17.35 13.65 -21.25 14.85 -19.5 9.0 -20.8 8.4 -19.45 7.8" fill="#83defc" fill-rule="evenodd" stroke="none"/>
    <path d="M7.6 -20.3 L4.25 -21.25 6.35 -20.1 Q9.55 -18.35 12.1 -15.55 L9.75 -15.25 9.2 -14.7 4.15 -14.4 4.6 -12.45 -3.25 -10.5 -3.45 -9.55 -2.6 -9.4 Q3.95 -8.3 9.35 -4.4 L8.9 -4.05 Q1.75 -4.3 -2.25 0.9 3.3 1.9 7.15 6.0 L2.45 8.25 -2.6 7.35 -8.0 5.8 -8.15 5.6 -8.95 5.3 -9.35 5.05 -11.65 -0.25 -12.85 -0.95 -13.6 0.0 -14.2 3.15 -14.6 3.15 -14.6 3.2 -15.1 3.25 -15.35 3.5 -19.95 3.55 Q-20.05 -5.2 -19.25 -10.7 L-17.6 -21.05 Q-16.8 -25.95 -17.25 -29.75 L-7.95 -26.8 -4.15 -25.8 -8.55 -23.2 Q-4.15 -25.65 0.75 -24.95 L-6.75 -21.55 0.15 -23.4 3.95 -23.75 2.35 -22.65 6.3 -21.15 6.45 -21.15 7.6 -20.3 M5.7 -22.1 L4.7 -22.25 4.75 -22.35 5.0 -22.2 5.7 -22.1" fill="#33cafb" fill-rule="evenodd" stroke="none"/>
    <path d="M2.45 8.25 L-1.2 10.0 6.95 14.8 -0.3 18.85 -4.05 18.55 -6.5 18.95 -8.8 14.5 -6.65 9.7 -6.25 9.55 -6.55 8.0 -8.0 5.8 -2.6 7.35 2.45 8.25 M-14.2 3.15 L-14.3 3.5 -15.35 3.5 -15.1 3.25 -14.6 3.2 -14.6 3.15 -14.2 3.15 M7.25 15.1 L7.3 15.0 7.4 15.05 7.25 15.1" fill="#05bdfa" fill-rule="evenodd" stroke="none"/>
  </g>
</svg>
