<?xml version="1.0" encoding="UTF-8" standalone="no"?>
<svg xmlns:xlink="http://www.w3.org/1999/xlink" height="31.7px" width="28.3px" xmlns="http://www.w3.org/2000/svg">
  <g transform="matrix(1.0, 0.0, 0.0, 1.0, 13.2, 15.3)">
    <path d="M12.1 -9.05 L9.6 -13.1 2.2 -13.8 -5.75 -12.35 Q-9.25 -11.35 -11.15 -8.4 -11.6 -7.7 -11.6 -6.7 L-11.65 -5.8 -11.6 -5.75 -11.5 5.75 -9.55 10.5 Q-8.75 12.3 -7.55 13.95 -6.7 15.05 -5.25 14.95 L-1.65 15.1 7.05 14.55 10.15 14.0 Q11.65 11.75 12.55 9.2 13.45 6.55 13.6 3.8 13.8 0.0 13.0 -4.0 L12.1 -9.05 M2.7 -10.8 L6.1 -10.85 Q8.15 -10.9 9.4 -9.5 L9.55 -8.9 10.1 -6.2 9.15 -8.85 1.45 -9.5 -3.55 -8.55 -6.0 -7.7 -8.5 -4.0 -5.4 -9.15 2.7 -10.8 M10.25 -13.95 Q12.5 -10.85 13.45 -7.15 L14.9 0.85 Q15.4 4.95 14.55 8.7 13.85 11.95 11.5 14.5 10.0 16.05 7.8 16.35 L-4.55 16.35 -3.85 16.4 Q-6.0 16.35 -7.85 15.35 L-9.3 14.05 Q-11.6 10.95 -12.45 7.45 L-12.95 3.9 -13.2 -2.6 Q-13.3 -6.55 -11.4 -9.8 L-9.7 -11.75 Q-7.0 -13.8 -3.65 -14.35 L3.5 -15.3 Q7.05 -15.4 10.25 -13.95 M7.75 10.2 L11.6 6.2 Q11.35 8.6 9.5 10.05 7.35 11.85 4.35 11.95 L-5.75 12.75 -6.05 12.6 Q-6.4 12.3 -5.85 12.4 L7.75 10.2" fill="#000eb5" fill-rule="evenodd" stroke="none"/>
    <path d="M2.2 -13.8 L2.7 -10.8 -5.4 -9.15 -5.75 -12.35 2.2 -13.8 M10.4 -6.5 L12.1 -9.05 13.0 -4.0 11.4 2.2 10.4 -6.5 M-1.65 15.1 L-5.25 14.95 -5.75 12.75 4.35 11.95 -1.65 15.1 M-11.5 5.75 L-11.6 -5.75 -9.85 -4.65 -11.5 5.75 M-4.6 -7.2 L9.25 -4.45 10.2 2.35 Q3.9 0.0 -2.4 -1.75 -5.0 -2.45 -6.7 -4.6 L-5.55 -6.75 -4.6 -7.2 M7.75 10.2 L-5.85 12.4 -6.65 10.2 9.8 5.9 7.75 10.2 M-7.7 -10.85 L-6.95 -7.75 -8.8 -6.0 -10.95 -7.7 -7.7 -10.85" fill="#83defc" fill-rule="evenodd" stroke="none"/>
    <path d="M9.55 -8.9 L10.4 -6.5 11.4 2.2 13.0 -4.0 Q13.8 0.0 13.6 3.8 13.45 6.55 12.55 9.2 11.65 11.75 10.15 14.0 L7.05 14.55 -1.65 15.1 4.35 11.95 Q7.35 11.85 9.5 10.05 11.35 8.6 11.6 6.2 L7.75 10.2 9.8 5.9 -6.65 10.2 -5.85 12.4 Q-6.4 12.3 -6.05 12.6 L-5.75 12.75 -5.25 14.95 Q-6.7 15.05 -7.55 13.95 -8.75 12.3 -9.55 10.5 L-11.5 5.75 -9.85 -4.65 -11.6 -5.75 -11.65 -5.8 -11.6 -6.7 Q-11.6 -7.7 -11.15 -8.4 -9.25 -11.35 -5.75 -12.35 L-5.4 -9.15 -8.5 -4.0 -6.0 -7.7 -3.55 -8.55 1.45 -9.5 9.15 -8.85 10.1 -6.2 9.55 -8.9 M9.25 -4.45 L7.55 -8.55 -4.6 -7.2 -5.55 -6.75 -6.7 -4.6 Q-5.0 -2.45 -2.4 -1.75 3.9 0.0 10.2 2.35 L9.25 -4.45 M-7.7 -10.85 L-10.95 -7.7 -8.8 -6.0 -6.95 -7.75 -7.7 -10.85" fill="#05bdfa" fill-rule="evenodd" stroke="none"/>
    <path d="M2.2 -13.8 L9.6 -13.1 12.1 -9.05 10.4 -6.5 9.55 -8.9 9.4 -9.5 Q8.15 -10.9 6.1 -10.85 L2.7 -10.8 2.2 -13.8 M-4.6 -7.2 L7.55 -8.55 9.25 -4.45 -4.6 -7.2" fill="#b0eafd" fill-rule="evenodd" stroke="none"/>
  </g>
</svg>
