<?xml version="1.0" encoding="UTF-8" standalone="no"?>
<svg xmlns:xlink="http://www.w3.org/1999/xlink" height="33.8px" width="19.8px" xmlns="http://www.w3.org/2000/svg">
  <g transform="matrix(1.0, 0.0, 0.0, 1.0, 7.05, 16.3)">
    <path d="M3.55 -14.85 L4.7 -14.1 5.1 -13.0 5.65 -10.2 5.7 -9.95 8.3 -5.2 Q10.1 -1.75 12.6 1.2 L12.75 1.85 10.9 4.85 7.15 10.8 Q5.45 13.4 5.25 16.2 3.7 17.4 1.65 17.5 L-2.85 16.9 -3.7 17.35 -4.15 17.2 -4.4 16.25 Q-4.8 12.1 -5.85 7.85 -7.5 1.05 -6.9 -5.8 L-6.5 -11.75 -6.45 -12.65 -1.45 -16.3 3.55 -14.85 M3.2 -13.15 L2.5 -13.65 2.4 -14.1 -1.35 -15.0 -5.0 -12.0 -5.25 -8.4 -5.6 -0.7 -5.55 1.2 -4.6 7.95 -4.55 8.35 -3.35 15.05 Q-0.75 15.85 2.0 15.7 L3.85 15.5 3.95 13.8 1.35 10.35 4.45 12.55 10.65 2.55 11.05 1.85 4.15 -9.7 -0.5 -7.2 -0.6 -7.1 -0.75 -6.95 -1.4 -4.5 -1.8 -1.9 -2.4 0.0 -2.45 -1.0 -2.5 -1.7 Q-2.95 -4.3 -1.9 -6.75 L3.85 -10.15 3.8 -12.35 3.2 -13.15" fill="#000eb5" fill-rule="evenodd" stroke="none"/>
    <path d="M-5.25 -8.4 L-5.0 -12.0 -1.35 -15.0 2.4 -14.1 2.5 -13.65 3.2 -13.15 -3.3 -7.7 -5.25 -8.4 M-0.6 -7.1 L-0.5 -7.2 4.15 -9.7 11.05 1.85 10.65 2.55 9.7 3.2 8.75 2.15 Q4.35 -2.85 -0.6 -7.1 M-4.55 8.35 L-4.6 7.95 -0.95 10.3 -0.5 12.15 -2.55 12.8 -4.55 8.35 M7.65 3.3 L7.9 3.6 8.35 4.1 0.8 9.25 -3.95 6.6 -2.5 4.35 -2.35 4.5 Q-1.7 4.6 -1.6 3.95 -1.1 3.5 0.0 3.5 L0.05 3.05 -0.05 3.85 7.65 3.3" fill="#83defc" fill-rule="evenodd" stroke="none"/>
    <path d="M3.2 -13.15 L3.8 -12.35 3.85 -10.15 -1.9 -6.75 Q-2.95 -4.3 -2.5 -1.7 L-2.45 -1.0 -2.4 0.0 -1.8 -1.9 -1.8 -0.9 -1.4 -4.5 -0.75 -6.95 -0.6 -7.1 Q4.35 -2.85 8.75 2.15 L9.7 3.2 10.65 2.55 4.45 12.55 1.35 10.35 3.95 13.8 3.85 15.5 2.0 15.7 Q-0.75 15.85 -3.35 15.05 L-4.55 8.35 -2.55 12.8 -0.5 12.15 -0.95 10.3 -4.6 7.95 -5.55 1.2 -5.6 -0.7 -5.25 -8.4 -3.3 -7.7 3.2 -13.15 M0.05 3.05 L0.0 3.5 Q-1.1 3.5 -1.6 3.95 -1.7 4.6 -2.35 4.5 L-2.5 4.35 -3.95 6.6 0.8 9.25 8.35 4.1 7.9 3.6 7.65 3.3 7.8 3.3 8.2 3.6 0.65 -4.1 0.05 3.0 0.05 3.05" fill="#05bdfa" fill-rule="evenodd" stroke="none"/>
    <path d="M-1.8 -1.9 L-1.4 -4.5 -1.8 -0.9 -1.8 -1.9 M7.65 3.3 L-0.05 3.85 0.05 3.05 0.05 3.0 0.65 -4.1 8.2 3.6 7.8 3.3 7.65 3.3" fill="#b0eafd" fill-rule="evenodd" stroke="none"/>
  </g>
</svg>
