<?xml version="1.0" encoding="UTF-8" standalone="no"?>
<svg xmlns:xlink="http://www.w3.org/1999/xlink" height="34.75px" width="29.55px" xmlns="http://www.w3.org/2000/svg">
  <g transform="matrix(1.0, 0.0, 0.0, 1.0, 14.75, 16.55)">
    <path d="M9.35 -6.35 L8.2 -9.0 Q6.85 -1.9 6.8 5.5 L7.0 5.85 9.35 -6.35 M11.05 -1.3 L9.8 -5.1 7.55 5.8 9.7 5.75 11.05 -1.3 M6.35 -12.65 L5.2 -13.3 1.5 -14.55 -5.65 -14.85 -2.9 -10.55 Q-1.65 -8.4 -0.7 -6.05 1.75 -0.1 2.2 6.3 L5.7 5.95 7.55 -10.3 6.35 -12.65 M7.0 -13.0 L7.05 -13.0 Q12.35 -4.1 13.85 6.05 L14.4 7.1 14.0 9.15 14.8 15.9 11.25 14.15 9.75 17.15 7.0 13.75 3.45 17.4 -1.0 15.25 -2.5 17.15 -6.6 15.65 -11.35 18.0 Q-12.45 18.6 -12.75 17.45 -14.3 12.4 -14.65 7.1 -15.05 1.2 -14.15 -4.8 L-13.55 -7.65 Q-11.7 -14.85 -4.7 -16.25 1.75 -17.55 7.0 -13.0 M-0.55 -2.4 Q-2.05 -9.1 -6.25 -14.55 L-10.15 -11.65 Q-7.55 -9.0 -5.55 -6.1 -1.55 -0.15 0.2 6.55 L1.5 6.4 -0.55 -2.4 M-10.65 -11.05 L-12.5 -6.65 -12.8 -4.85 Q-5.55 -0.7 -2.15 6.85 L-0.65 6.65 -2.15 2.6 Q-5.3 -5.05 -10.65 -11.05 M10.5 5.8 L12.6 5.95 11.35 -0.3 10.5 5.8 M-12.65 14.05 L-12.2 16.45 -6.6 14.4 -2.65 15.8 -2.1 14.7 -0.65 13.85 2.9 16.2 6.2 12.75 7.95 12.75 9.45 15.1 11.0 12.6 13.35 13.75 13.3 9.15 5.35 10.3 -12.65 14.05 M-0.4 7.65 L-2.0 7.9 Q-8.0 8.5 -13.15 10.85 L-12.75 13.15 -6.7 11.5 Q-0.25 9.55 6.35 8.4 L12.8 7.7 12.5 6.55 -0.4 7.65 M-2.9 6.95 Q-4.55 3.6 -7.2 0.9 -9.75 -1.8 -12.95 -3.95 L-13.2 9.75 -2.9 6.95" fill="#000000" fill-rule="evenodd" stroke="none"/>
    <path d="M-2.9 6.95 L-13.2 9.75 -12.95 -3.95 Q-9.75 -1.8 -7.2 0.9 -4.55 3.6 -2.9 6.95 M-0.4 7.65 L12.5 6.55 12.8 7.7 6.35 8.4 Q-0.25 9.55 -6.7 11.5 L-12.75 13.15 -13.15 10.85 Q-8.0 8.5 -2.0 7.9 L-0.4 7.65 M-12.65 14.05 L5.35 10.3 13.3 9.15 13.35 13.75 11.0 12.6 9.45 15.1 7.95 12.75 6.2 12.75 2.9 16.2 -0.65 13.85 -2.1 14.7 -2.65 15.8 -6.6 14.4 -12.2 16.45 -12.65 14.05 M10.5 5.8 L11.35 -0.3 12.6 5.95 10.5 5.8" fill="#50639a" fill-rule="evenodd" stroke="none"/>
    <path d="M11.05 -1.3 L9.7 5.75 7.55 5.8 9.8 -5.1 11.05 -1.3 M9.35 -6.35 L7.0 5.85 6.8 5.5 Q6.85 -1.9 8.2 -9.0 L9.35 -6.35 M6.35 -12.65 L7.55 -10.3 5.7 5.95 2.2 6.3 Q1.75 -0.1 -0.7 -6.05 -1.65 -8.4 -2.9 -10.55 L-5.65 -14.85 1.5 -14.55 5.2 -13.3 6.35 -12.65 M-10.65 -11.05 Q-5.3 -5.05 -2.15 2.6 L-0.65 6.65 -2.15 6.85 Q-5.55 -0.7 -12.8 -4.85 L-12.5 -6.65 -10.65 -11.05 M-0.55 -2.4 L1.5 6.4 0.2 6.55 Q-1.55 -0.15 -5.55 -6.1 -7.55 -9.0 -10.15 -11.65 L-6.25 -14.55 Q-2.05 -9.1 -0.55 -2.4" fill="#435381" fill-rule="evenodd" stroke="none"/>
  </g>
</svg>
