<?xml version="1.0" encoding="UTF-8" standalone="no"?>
<svg xmlns:xlink="http://www.w3.org/1999/xlink" height="38.95px" width="31.3px" xmlns="http://www.w3.org/2000/svg">
  <g transform="matrix(1.0, 0.0, 0.0, 1.0, 17.15, 15.15)">
    <path d="M2.2 -14.75 Q8.55 -13.85 14.15 -11.2 13.75 0.1 11.25 10.95 11.1 11.45 11.25 12.0 12.1 15.05 11.4 18.0 L6.6 16.85 5.9 21.0 5.3 21.2 -0.1 19.65 -2.45 23.75 -3.3 23.4 Q-4.15 22.95 -4.7 22.25 L-5.85 20.85 Q-6.15 20.45 -6.55 20.2 L-10.25 23.8 -12.65 19.3 -15.65 20.5 -16.6 19.5 -16.65 17.25 -16.85 14.95 -17.1 13.4 Q-17.4 12.1 -16.45 11.8 L-17.0 9.95 -16.15 9.2 -16.05 4.95 -16.05 4.65 Q-16.9 -4.45 -15.1 -13.25 L-11.4 -14.35 2.2 -14.75 M6.2 5.6 L6.9 2.85 Q8.8 -3.7 12.75 -9.0 L12.95 -10.15 8.25 -12.25 1.5 5.9 5.2 -8.2 Q3.55 -6.65 1.3 -6.1 -3.1 -5.3 -6.55 -7.7 L-4.05 6.0 -4.55 6.8 -6.95 -4.65 Q-7.95 -9.15 -9.65 -13.45 L-14.05 -11.9 -14.2 -10.9 -11.3 -3.85 Q-9.15 1.65 -9.95 7.5 L-10.55 3.35 Q-11.6 -3.55 -14.35 -9.85 L-15.1 8.7 -9.85 7.9 5.8 6.3 10.45 6.0 11.25 5.35 12.65 -8.0 6.2 5.6 M2.5 -7.7 Q4.4 -8.35 5.6 -9.25 L7.5 -12.5 2.05 -13.7 Q-3.4 -14.6 -8.9 -13.6 L-6.65 -8.0 Q-2.15 -6.1 2.5 -7.7 M-14.55 18.2 L-11.9 18.25 -10.15 21.75 -6.45 18.7 -3.15 22.5 -0.3 18.1 5.0 19.8 5.3 16.3 5.5 15.5 10.6 16.3 10.45 13.0 1.5 13.4 Q-6.95 14.05 -15.3 13.55 L-15.2 18.55 -14.55 18.2 M-15.3 10.3 L-15.35 12.35 9.7 11.75 10.5 6.8 -15.3 10.3" fill="#000000" fill-rule="evenodd" stroke="none"/>
    <path d="M-9.95 7.5 Q-9.15 1.65 -11.3 -3.85 L-14.2 -10.9 -14.05 -11.9 -9.65 -13.45 Q-7.95 -9.15 -6.95 -4.65 L-4.55 6.8 -4.05 6.0 -6.55 -7.7 Q-3.1 -5.3 1.3 -6.1 3.55 -6.65 5.2 -8.2 L1.5 5.9 8.25 -12.25 12.95 -10.15 12.75 -9.0 Q8.8 -3.7 6.9 2.85 L6.2 5.6 5.8 6.3 -9.85 7.9 -9.85 6.9 -9.95 7.5 M2.5 -7.7 Q-2.15 -6.1 -6.65 -8.0 L-8.9 -13.6 Q-3.4 -14.6 2.05 -13.7 L7.5 -12.5 5.6 -9.25 Q4.4 -8.35 2.5 -7.7" fill="#435381" fill-rule="evenodd" stroke="none"/>
    <path d="M6.2 5.6 L12.65 -8.0 11.25 5.35 10.45 6.0 5.8 6.3 6.2 5.6 M-9.85 7.9 L-15.1 8.7 -14.35 -9.85 Q-11.6 -3.55 -10.55 3.35 L-9.95 7.5 -9.85 6.9 -9.85 7.9 M-15.3 10.3 L10.5 6.8 9.7 11.75 -15.35 12.35 -15.3 10.3 M-14.55 18.2 L-15.2 18.55 -15.3 13.55 Q-6.95 14.05 1.5 13.4 L10.45 13.0 10.6 16.3 5.5 15.5 5.3 16.3 5.0 19.8 -0.3 18.1 -3.15 22.5 -6.45 18.7 -10.15 21.75 -11.9 18.25 -14.55 18.2" fill="#50639a" fill-rule="evenodd" stroke="none"/>
  </g>
</svg>
