<?xml version="1.0" encoding="UTF-8" standalone="no"?>
<svg xmlns:xlink="http://www.w3.org/1999/xlink" height="48.1px" width="44.6px" xmlns="http://www.w3.org/2000/svg">
  <g transform="matrix(1.0, 0.0, 0.0, 1.0, 19.85, 42.0)">
    <path d="M22.3 -28.9 L22.55 -29.0 Q21.45 -32.2 19.0 -34.2 L16.95 -35.65 Q14.6 -37.15 11.9 -38.15 3.5 -41.3 -5.45 -40.1 L-5.5 -40.1 -7.1 -39.75 Q-9.8 -39.0 -11.9 -40.1 L-12.5 -39.8 -11.25 -37.1 -11.05 -37.0 -10.75 -37.7 -10.65 -37.75 -10.6 -37.75 -10.25 -37.7 -10.0 -37.45 -9.9 -37.25 -10.1 -36.75 -10.75 -35.35 -10.8 -35.3 Q-11.65 -33.5 -12.05 -28.9 -12.45 -24.4 -11.95 -18.75 L-11.95 -18.45 -11.9 -18.45 -11.75 -15.9 -11.7 -17.05 -11.5 -18.55 Q-10.95 -22.7 -8.8 -26.3 -7.65 -28.35 -6.0 -30.3 -4.25 -32.25 -2.0 -33.5 L-1.9 -33.5 Q-2.45 -31.8 -3.85 -30.8 -5.25 -29.75 -6.45 -28.0 -8.45 -25.0 -9.65 -21.45 L-11.25 -15.8 -11.0 -15.55 -11.0 -15.5 -9.1 -18.65 Q-6.3 -23.55 -1.9 -27.2 0.75 -29.35 4.2 -30.45 L4.75 -30.0 Q1.9 -28.75 -0.7 -26.9 L0.85 -27.0 2.95 -27.0 7.7 -27.25 8.25 -27.35 9.35 -27.6 10.95 -27.8 11.6 -27.85 Q12.1 -29.2 13.65 -29.85 L14.85 -29.6 Q16.3 -29.3 16.95 -28.05 18.1 -28.9 19.65 -28.8 L21.7 -28.85 22.3 -28.9 M23.8 -29.05 L24.0 -28.6 24.25 -28.5 24.7 -24.3 Q24.9 -20.8 23.65 -17.5 L23.7 -15.8 23.35 -12.25 Q23.65 -6.6 22.6 -0.95 L22.55 -0.45 21.55 0.45 21.5 0.5 20.5 1.3 20.0 1.5 17.2 2.7 Q15.1 3.6 13.0 4.6 L11.85 5.15 10.5 5.75 10.45 5.95 9.25 6.1 6.65 5.05 Q5.35 4.9 3.95 4.3 L-14.05 -3.95 -14.75 -4.4 -15.15 -4.85 -15.15 -6.45 Q-15.4 -8.25 -15.05 -9.9 L-15.2 -9.85 Q-16.25 -9.1 -17.4 -8.7 L-17.65 -8.4 Q-18.05 -8.25 -18.35 -8.4 -19.05 -8.35 -19.4 -9.05 -20.0 -10.3 -19.8 -11.75 L-16.5 -15.2 Q-16.65 -17.2 -14.5 -17.8 -14.35 -25.55 -13.7 -33.4 L-13.4 -36.75 -13.4 -36.8 -13.4 -37.3 -13.5 -37.5 -13.75 -37.8 -13.75 -38.0 -13.75 -38.1 -15.0 -39.55 -15.05 -39.8 Q-15.2 -40.6 -14.65 -41.2 -14.25 -41.7 -13.75 -41.7 L-8.95 -41.4 0.0 -42.0 7.65 -41.15 Q12.75 -39.85 17.25 -37.3 22.05 -34.65 23.55 -29.55 L23.8 -29.05 M8.55 -23.7 L7.3 -24.75 Q6.85 -25.15 7.05 -25.85 L4.65 -25.35 4.75 -18.8 8.05 -18.55 9.5 -18.45 9.3 -18.9 8.5 -19.5 8.5 -20.2 10.35 -22.15 8.55 -23.7 M8.9 -26.0 L8.65 -25.8 Q11.6 -21.4 16.65 -19.6 17.35 -19.25 17.7 -19.85 L16.05 -22.55 Q14.15 -22.05 12.75 -22.95 L10.1 -26.35 8.9 -26.0 M11.05 -26.65 L11.15 -26.6 11.2 -26.65 11.05 -26.65 M17.35 -25.9 L17.2 -25.05 16.65 -23.95 16.65 -23.2 17.25 -22.8 18.9 -24.75 17.35 -25.9 M13.4 -28.8 L12.1 -25.9 13.95 -24.75 13.95 -23.8 15.45 -24.15 15.4 -25.1 16.1 -25.65 16.05 -28.25 15.55 -28.65 13.4 -28.8 M14.05 -27.1 L14.45 -27.45 14.9 -27.1 15.05 -26.3 14.9 -25.45 14.45 -25.15 Q14.2 -25.15 14.05 -25.45 L13.85 -26.3 14.05 -27.1 M17.95 -22.2 L19.6 -20.05 18.85 -19.05 22.75 -19.0 23.4 -27.1 17.2 -27.4 20.65 -25.3 20.6 -24.25 17.95 -22.2 M13.5 -20.05 L11.35 -21.45 10.85 -21.25 10.0 -19.95 10.95 -18.65 11.5 -18.65 13.5 -20.05 M16.2 -18.25 L16.2 -18.3 14.4 -19.5 13.0 -18.3 16.2 -18.25 M3.2 -17.35 L3.3 -17.35 3.15 -17.6 Q3.0 -21.8 3.6 -26.1 L-0.9 -25.75 -1.75 -25.6 Q-2.05 -25.65 -2.15 -25.8 -5.05 -23.5 -7.15 -20.8 -8.7 -18.75 -9.7 -16.45 L-4.65 -17.1 -0.9 -17.2 -0.3 -17.2 1.35 -17.15 3.2 -17.35 M-3.0 -6.6 L-6.0 -7.8 0.25 -6.6 9.7 -6.0 Q13.95 -5.9 19.85 -7.3 L21.3 -7.65 Q20.65 -7.6 20.8 -7.8 L21.2 -9.2 21.1 -10.15 21.0 -10.0 21.0 -10.55 20.55 -10.4 19.2 -10.1 Q15.1 -9.1 11.05 -8.95 3.15 -8.9 -4.45 -10.25 L-4.45 -11.05 -3.75 -11.4 0.65 -11.65 Q7.1 -12.0 13.65 -11.6 L20.9 -12.0 21.0 -12.0 21.0 -12.05 21.35 -12.1 21.35 -12.25 21.8 -12.85 21.9 -13.85 22.05 -15.75 22.05 -16.55 21.65 -16.95 21.35 -17.1 21.25 -17.15 21.05 -17.15 20.9 -17.1 3.25 -16.55 3.2 -16.45 3.1 -16.25 -9.6 -15.65 -10.0 -15.8 -10.65 -14.0 -11.35 -12.85 -11.9 -12.9 -12.9 -11.2 -13.0 -11.25 -13.1 -11.05 -13.2 -10.85 -13.5 -10.05 -13.65 -9.35 -13.7 -8.8 -13.55 -5.85 -13.5 -5.7 -13.45 -5.3 -13.25 -4.75 -11.45 -4.0 -8.7 -2.95 Q-6.25 -1.95 -3.8 -1.05 L-3.65 -1.0 Q-0.1 0.25 3.35 1.85 L8.55 4.35 8.85 4.5 9.7 4.95 9.7 4.8 13.65 3.05 13.85 2.9 13.95 2.95 Q16.9 1.2 20.15 0.15 21.4 -1.45 21.45 -4.3 L21.45 -4.75 21.4 -6.0 21.35 -6.4 19.5 -5.85 Q15.85 -4.85 12.05 -4.7 L4.35 -4.95 3.85 -5.0 -3.0 -6.6 M-16.2 -13.55 L-17.95 -11.9 -18.1 -11.8 -18.4 -11.0 -18.5 -10.85 -17.85 -10.05 -17.7 -10.05 -15.55 -11.5 -15.45 -11.55 -15.75 -12.5 -15.85 -13.0 -16.0 -13.75 -16.2 -13.55 M-14.5 -16.0 L-14.7 -15.95 -14.8 -15.9 -15.0 -15.85 -14.75 -13.6 -14.6 -13.0 -14.35 -12.25 -13.85 -13.25 -13.7 -13.5 -13.6 -13.65 -13.6 -14.4 -13.6 -14.9 -13.6 -16.45 -14.5 -16.0 M-9.7 -11.2 L-9.6 -11.3 Q-7.7 -8.0 -9.7 -4.8 -8.65 -7.95 -9.7 -11.2" fill="#000000" fill-rule="evenodd" stroke="none"/>
    <path d="M22.55 -29.0 L22.3 -28.9 22.55 -29.0" fill="#273487" fill-rule="evenodd" stroke="none"/>
    <path d="M22.55 -29.0 L22.3 -28.9 21.7 -28.85 19.65 -28.8 Q18.1 -28.9 16.95 -28.05 16.3 -29.3 14.85 -29.6 L13.65 -29.85 Q12.1 -29.2 11.6 -27.85 L10.95 -27.8 9.35 -27.6 8.25 -27.35 7.7 -27.25 2.95 -27.0 0.85 -27.0 -0.7 -26.9 Q1.9 -28.75 4.75 -30.0 L4.2 -30.45 Q0.75 -29.35 -1.9 -27.2 -6.3 -23.55 -9.1 -18.65 L-11.0 -15.5 -11.0 -15.55 -11.25 -15.8 -9.65 -21.45 Q-8.45 -25.0 -6.45 -28.0 -5.25 -29.75 -3.85 -30.8 -2.45 -31.8 -1.9 -33.5 L-2.0 -33.5 Q-4.25 -32.25 -6.0 -30.3 -7.65 -28.35 -8.8 -26.3 -10.95 -22.7 -11.5 -18.55 L-11.7 -17.05 -11.75 -15.9 -11.9 -18.45 -11.95 -18.45 -11.95 -18.75 Q-12.45 -24.4 -12.05 -28.9 -11.65 -33.5 -10.8 -35.3 L-10.75 -35.35 -10.1 -36.75 -9.9 -37.25 -10.0 -37.45 -10.25 -37.7 -10.6 -37.75 -10.65 -37.75 -10.75 -37.7 -11.05 -37.0 -11.25 -37.1 -12.5 -39.8 -11.9 -40.1 Q-9.8 -39.0 -7.1 -39.75 L-5.5 -40.1 -5.45 -40.1 Q3.5 -41.3 11.9 -38.15 14.6 -37.15 16.95 -35.65 L19.0 -34.2 Q21.45 -32.2 22.55 -29.0 M11.05 -26.65 L11.2 -26.65 11.15 -26.6 11.05 -26.65 M3.15 -17.6 L3.2 -17.35 1.35 -17.15 -0.3 -17.2 -0.9 -17.2 -4.65 -17.1 -9.7 -16.45 Q-8.7 -18.75 -7.15 -20.8 -5.05 -23.5 -2.15 -25.8 -2.05 -25.65 -1.75 -25.6 L-0.9 -25.75 3.6 -26.1 Q3.0 -21.8 3.15 -17.6 M21.45 -4.75 L21.45 -4.3 Q21.4 -1.45 20.15 0.15 16.9 1.2 13.95 2.95 L13.85 2.9 13.65 3.05 9.7 4.8 9.7 4.95 8.85 4.5 8.55 4.35 3.35 1.85 Q-0.1 0.25 -3.65 -1.0 L-3.8 -1.05 Q-6.25 -1.95 -8.7 -2.95 L-11.45 -4.0 -13.25 -4.75 -13.45 -5.3 -13.5 -5.7 -13.55 -5.85 -13.7 -8.8 -13.65 -9.35 -13.5 -10.05 -13.2 -10.85 -13.1 -11.05 -13.0 -11.25 -12.9 -11.2 -11.9 -12.9 -11.35 -12.85 -10.65 -14.0 -10.0 -15.8 -9.6 -15.65 3.1 -16.25 3.2 -16.45 3.25 -16.55 20.9 -17.1 21.05 -17.15 21.25 -17.15 21.35 -17.1 21.65 -16.95 22.05 -16.55 22.05 -15.75 21.9 -13.85 21.8 -12.85 21.35 -12.25 21.35 -12.1 21.0 -12.05 21.0 -12.0 20.9 -12.0 13.65 -11.6 Q7.1 -12.0 0.65 -11.65 L-3.75 -11.4 -4.45 -11.05 -4.45 -10.25 Q3.15 -8.9 11.05 -8.95 15.1 -9.1 19.2 -10.1 L20.55 -10.4 21.0 -10.55 21.0 -10.0 21.1 -10.15 21.2 -9.2 20.8 -7.8 Q20.65 -7.6 21.3 -7.65 L19.85 -7.3 Q13.95 -5.9 9.7 -6.0 L0.25 -6.6 -6.0 -7.8 -3.0 -6.6 -3.95 -6.95 -3.95 -6.9 Q-2.85 -6.1 -1.5 -5.65 L4.3 -3.8 Q11.05 -1.7 17.6 -3.95 L19.6 -4.25 20.1 -4.4 21.45 -4.75 M-14.5 -16.0 L-13.6 -16.45 -13.6 -14.9 -13.6 -14.4 -13.6 -13.65 -13.7 -13.5 -13.85 -13.25 -14.35 -12.25 -14.6 -13.0 -14.75 -13.6 -15.0 -15.85 -14.8 -15.9 -14.7 -15.95 -14.5 -16.0 M-16.2 -13.55 L-16.0 -13.75 -15.85 -13.0 -15.75 -12.5 -15.45 -11.55 -15.55 -11.5 -17.7 -10.05 -17.85 -10.05 -18.5 -10.85 -18.4 -11.0 -18.1 -11.8 -17.95 -11.9 -16.2 -13.55 M-9.7 -11.2 Q-8.65 -7.95 -9.7 -4.8 -7.7 -8.0 -9.6 -11.3 L-9.7 -11.2" fill="#50639a" fill-rule="evenodd" stroke="none"/>
    <path d="M8.9 -26.0 L10.1 -26.35 12.75 -22.95 Q14.15 -22.05 16.05 -22.55 L17.7 -19.85 Q17.35 -19.25 16.65 -19.6 11.6 -21.4 8.65 -25.8 L8.9 -26.0 M14.05 -27.1 L13.85 -26.3 14.05 -25.45 Q14.2 -25.15 14.45 -25.15 L14.9 -25.45 15.05 -26.3 14.9 -27.1 14.45 -27.45 14.05 -27.1 M13.4 -28.8 L15.55 -28.65 16.05 -28.25 16.1 -25.65 15.4 -25.1 15.45 -24.15 13.95 -23.8 13.95 -24.75 12.1 -25.9 13.4 -28.8 M17.35 -25.9 L18.9 -24.75 17.25 -22.8 16.65 -23.2 16.65 -23.95 17.2 -25.05 17.35 -25.9 M13.5 -20.05 L11.5 -18.65 10.95 -18.65 10.0 -19.95 10.85 -21.25 11.35 -21.45 13.5 -20.05" fill="#ffffff" fill-rule="evenodd" stroke="none"/>
    <path d="M8.05 -18.55 L4.75 -18.8 4.65 -25.35 7.05 -25.85 Q6.85 -25.15 7.3 -24.75 L8.55 -23.7 8.1 -24.05 7.9 -22.0 Q7.6 -20.0 8.05 -18.55 M17.95 -22.2 L20.6 -24.25 20.65 -25.3 17.2 -27.4 23.4 -27.1 22.75 -19.0 18.85 -19.05 19.6 -20.05 17.95 -22.2" fill="#828282" fill-rule="evenodd" stroke="none"/>
    <path d="M8.55 -23.7 L10.35 -22.15 8.5 -20.2 8.5 -19.5 9.3 -18.9 9.5 -18.45 8.05 -18.55 Q7.6 -20.0 7.9 -22.0 L8.1 -24.05 8.55 -23.7 M16.2 -18.25 L13.0 -18.3 14.4 -19.5 16.2 -18.3 16.2 -18.25" fill="#727272" fill-rule="evenodd" stroke="none"/>
    <path d="M21.45 -4.75 L20.1 -4.4 19.6 -4.25 17.6 -3.95 Q11.05 -1.7 4.3 -3.8 L-1.5 -5.65 Q-2.85 -6.1 -3.95 -6.9 L-3.95 -6.95 -3.0 -6.6 3.85 -5.0 4.35 -4.95 12.05 -4.7 Q15.85 -4.85 19.5 -5.85 L21.35 -6.4 21.4 -6.0 21.45 -4.75" fill="#435381" fill-rule="evenodd" stroke="none"/>
  </g>
</svg>
