<?xml version="1.0" encoding="UTF-8" standalone="no"?>
<svg xmlns:xlink="http://www.w3.org/1999/xlink" height="48.6px" width="44.55px" xmlns="http://www.w3.org/2000/svg">
  <g transform="matrix(1.0, 0.0, 0.0, 1.0, 20.45, 24.0)">
    <path d="M-8.75 -23.65 Q-5.7 -23.9 -2.55 -23.6 3.95 -23.15 10.1 -21.25 15.95 -19.3 19.4 -14.55 L21.45 -11.0 22.1 -10.75 23.4 -9.45 Q24.0 -8.45 24.1 -7.5 24.25 -5.4 22.5 -4.65 L23.15 -2.55 23.55 -1.7 22.05 0.4 22.05 0.75 Q21.75 1.85 22.05 2.95 22.85 5.75 21.05 7.9 L21.3 9.4 21.75 11.5 Q21.9 12.35 21.3 13.3 L20.85 14.4 Q20.05 16.85 18.85 19.2 17.3 22.1 15.6 23.6 14.0 24.95 11.8 24.45 2.4 22.35 -6.55 19.0 -11.55 17.0 -14.9 12.95 L-14.85 12.3 -15.2 11.8 -17.05 15.4 -18.25 14.95 -20.45 11.1 -18.65 7.3 -19.5 6.3 -19.4 5.2 -18.95 3.05 Q-18.65 1.8 -17.6 1.25 L-16.5 1.5 -15.15 -18.65 -17.6 -22.7 Q-16.55 -24.15 -14.4 -24.0 L-8.75 -23.65 M1.0 14.65 L-0.9 14.0 2.8 14.05 3.6 14.05 Q12.05 14.25 19.55 12.75 L20.5 10.95 19.7 9.4 19.75 8.75 19.0 8.95 18.4 8.95 0.95 7.9 0.55 7.45 2.05 6.05 2.2 6.15 15.55 5.25 Q17.9 5.3 19.7 6.15 L20.25 1.55 -5.2 1.35 -6.7 2.65 Q-5.1 0.1 -3.0 -2.0 L1.2 -6.1 Q6.1 -10.6 11.85 -11.9 L9.0 -9.85 13.65 -9.6 14.85 -10.0 15.75 -9.1 17.35 -9.65 19.5 -11.2 18.9 -12.4 18.25 -12.8 Q17.35 -15.4 15.1 -16.85 11.85 -19.05 8.05 -20.15 L4.1 -21.2 Q-2.25 -22.45 -8.65 -21.4 L-9.15 -21.75 -15.35 -21.8 -12.95 -18.45 -13.75 -17.75 -14.6 2.4 -11.3 3.7 Q-10.3 1.95 -9.6 0.1 -8.0 -4.0 -5.4 -7.4 L-2.6 -10.75 1.9 -15.75 2.15 -15.65 Q-3.45 -9.25 -7.5 -1.65 L-8.9 1.35 Q-9.75 3.5 -10.7 5.3 L-10.6 6.7 -10.9 9.3 Q-11.05 10.25 -11.8 10.9 L-13.3 11.25 -12.85 12.75 -7.4 16.25 -5.75 17.1 Q4.15 20.8 14.45 23.15 L18.0 17.15 19.1 14.85 10.95 15.55 Q5.85 15.8 1.0 14.65 M8.6 -8.1 L8.7 -0.25 14.8 -0.55 13.5 -1.75 15.1 -3.7 12.2 -7.45 12.25 -7.9 12.35 -8.15 12.15 -8.25 11.55 -8.55 8.6 -8.1 M14.95 -8.65 L13.6 -7.7 15.5 -5.1 17.2 -5.55 17.05 -6.9 14.95 -8.65 M19.7 -7.65 Q19.7 -8.1 19.95 -8.4 20.15 -8.75 20.5 -8.75 20.85 -8.75 21.1 -8.4 L21.3 -7.65 21.1 -6.85 Q20.85 -6.55 20.5 -6.55 20.15 -6.55 19.95 -6.85 19.7 -7.2 19.7 -7.65 M19.25 -2.5 L16.7 -0.4 20.3 0.0 19.25 -2.5 M21.4 -2.8 L20.55 -1.95 20.85 -1.15 21.65 -1.45 21.45 -3.7 21.4 -2.8 M19.15 -4.3 L19.5 -4.4 19.95 -4.1 20.05 -5.5 Q22.1 -5.75 22.6 -7.8 L21.5 -9.65 21.15 -9.75 Q18.8 -10.2 18.35 -8.0 L19.15 -4.3 M17.45 -3.9 L16.7 -3.1 15.1 -2.15 15.65 -1.45 17.9 -3.0 17.45 -3.9 M-16.3 9.05 L-17.85 8.05 -19.05 9.8 -17.6 12.7 -16.15 10.75 -16.3 9.05 M-16.05 3.2 L-17.45 2.7 -18.25 5.85 -16.35 7.4 -16.05 3.2 M-12.1 4.0 L-15.1 4.0 -15.1 9.75 -12.1 9.75 -12.1 4.0 M-5.85 7.4 Q-6.6 6.05 -6.55 5.5 -2.5 9.65 -6.15 13.6 -6.3 12.5 -5.65 11.1 -4.8 9.2 -5.85 7.4 M1.9 0.5 L7.45 0.75 7.5 -9.1 -4.75 1.0 1.9 0.5" fill="#000000" fill-rule="evenodd" stroke="none"/>
    <path d="M18.0 17.15 L14.45 23.15 Q4.15 20.8 -5.75 17.1 L-7.4 16.25 -12.85 12.75 -13.3 11.25 -11.8 10.9 Q-11.05 10.25 -10.9 9.3 L-10.6 6.7 -10.7 5.3 Q-9.75 3.5 -8.9 1.35 L-7.5 -1.65 Q-3.45 -9.25 2.15 -15.65 L1.9 -15.75 -2.6 -10.75 -5.4 -7.4 Q-8.0 -4.0 -9.6 0.1 -10.3 1.95 -11.3 3.7 L-14.6 2.4 -13.75 -17.75 -12.95 -18.45 -15.35 -21.8 -9.15 -21.75 -8.65 -21.4 Q-2.25 -22.45 4.1 -21.2 L8.05 -20.15 Q11.85 -19.05 15.1 -16.85 17.35 -15.4 18.25 -12.8 L18.9 -12.4 19.5 -11.2 17.35 -9.65 15.75 -9.1 14.85 -10.0 13.65 -9.6 9.0 -9.85 11.85 -11.9 Q6.1 -10.6 1.2 -6.1 L-3.0 -2.0 Q-5.1 0.1 -6.7 2.65 L-5.2 1.35 20.25 1.55 19.7 6.15 Q17.9 5.3 15.55 5.25 L2.2 6.15 2.05 6.05 0.55 7.45 0.95 7.9 18.4 8.95 19.0 8.95 19.75 8.75 19.7 9.4 20.5 10.95 19.55 12.75 Q12.05 14.25 3.6 14.05 L2.8 14.05 -0.9 14.0 1.0 14.65 Q0.9 15.55 1.75 15.75 7.65 17.45 13.95 17.3 L18.0 17.15 M1.9 0.5 L-4.75 1.0 7.5 -9.1 7.45 0.75 1.9 0.5 M-5.85 7.4 Q-4.8 9.2 -5.65 11.1 -6.3 12.5 -6.15 13.6 -2.5 9.65 -6.55 5.5 -6.6 6.05 -5.85 7.4 M-12.1 4.0 L-12.1 9.75 -15.1 9.75 -15.1 4.0 -12.1 4.0 M-16.05 3.2 L-16.35 7.4 -18.25 5.85 -17.45 2.7 -16.05 3.2 M-16.3 9.05 L-16.15 10.75 -17.6 12.7 -19.05 9.8 -17.85 8.05 -16.3 9.05" fill="#50639a" fill-rule="evenodd" stroke="none"/>
    <path d="M8.6 -8.1 L11.55 -8.55 12.15 -8.25 12.35 -8.15 12.25 -7.9 12.2 -7.45 15.1 -3.7 13.5 -1.75 14.8 -0.55 8.7 -0.25 8.6 -8.1 M19.25 -2.5 L20.3 0.0 16.7 -0.4 19.25 -2.5" fill="#828282" fill-rule="evenodd" stroke="none"/>
    <path d="M19.7 -7.65 Q19.7 -7.2 19.95 -6.85 20.15 -6.55 20.5 -6.55 20.85 -6.55 21.1 -6.85 L21.3 -7.65 21.1 -8.4 Q20.85 -8.75 20.5 -8.75 20.15 -8.75 19.95 -8.4 19.7 -8.1 19.7 -7.65 M14.95 -8.65 L17.05 -6.9 17.2 -5.55 15.5 -5.1 13.6 -7.7 14.95 -8.65 M17.45 -3.9 L17.9 -3.0 15.65 -1.45 15.1 -2.15 16.7 -3.1 17.45 -3.9 M19.15 -4.3 L18.35 -8.0 Q18.8 -10.2 21.15 -9.75 L21.5 -9.65 22.6 -7.8 Q22.1 -5.75 20.05 -5.5 L19.95 -4.1 19.5 -4.4 19.15 -4.3 M21.4 -2.8 L21.45 -3.7 21.65 -1.45 20.85 -1.15 20.55 -1.95 21.4 -2.8" fill="#ffffff" fill-rule="evenodd" stroke="none"/>
    <path d="M1.0 14.65 Q5.85 15.8 10.95 15.55 L19.1 14.85 18.0 17.15 13.95 17.3 Q7.65 17.45 1.75 15.75 0.9 15.55 1.0 14.65" fill="#435381" fill-rule="evenodd" stroke="none"/>
  </g>
</svg>
