<?xml version="1.0" encoding="UTF-8" standalone="no"?>
<svg xmlns:xlink="http://www.w3.org/1999/xlink" height="50.1px" width="44.25px" xmlns="http://www.w3.org/2000/svg">
  <g transform="matrix(1.0, 0.0, 0.0, 1.0, 21.55, 43.1)">
    <path d="M6.8 -35.95 L7.1 -36.05 6.9 -36.15 Q2.85 -38.3 -0.9 -41.0 L-1.15 -41.25 -1.2 -41.1 -2.95 -36.2 Q-4.2 -32.7 -5.3 -33.05 L-5.25 -33.4 -5.55 -33.1 Q-9.55 -31.95 -12.25 -28.75 -17.55 -22.45 -18.25 -13.8 L-16.9 -15.55 Q-14.6 -18.1 -11.55 -19.9 L-11.45 -19.9 -18.15 -12.95 -18.25 -12.85 -18.35 -12.8 -18.2 -12.8 -18.5 -10.35 -16.4 -12.2 -15.75 -12.65 -15.85 -12.65 Q-13.15 -14.65 -9.7 -13.8 -9.1 -13.55 -9.6 -13.15 -12.2 -13.5 -14.3 -12.65 L-18.65 -9.15 -19.0 -8.05 -19.8 -8.0 -19.65 -12.0 -21.5 -14.35 -21.55 -16.45 -20.15 -17.65 -18.7 -17.4 Q-18.15 -23.65 -14.35 -28.7 -11.35 -32.7 -6.85 -34.7 L-5.1 -34.25 -1.7 -43.1 0.05 -42.15 0.25 -41.5 6.3 -37.7 Q7.9 -36.75 9.7 -36.2 18.05 -33.3 21.1 -24.95 23.4 -18.75 22.35 -12.35 21.25 -5.95 17.75 -0.35 L4.25 7.0 1.0 6.25 Q-2.85 5.15 -6.35 3.4 -13.3 -0.15 -18.55 -5.75 L-19.4 -7.35 -18.85 -7.9 -17.45 -7.15 -17.25 -6.15 Q-14.15 -2.15 -10.7 -1.3 L0.85 1.4 0.25 0.45 -6.2 -1.55 -5.2 -9.4 -9.95 -11.75 -4.8 -10.45 1.65 -8.9 2.65 -8.5 3.1 -8.85 5.4 -10.05 7.45 -8.8 7.5 -8.9 7.9 -9.4 Q14.4 -9.7 20.1 -12.8 L14.3 -9.5 15.15 -2.1 12.4 -1.45 5.0 1.35 4.0 1.25 3.2 -0.15 1.65 1.55 4.05 1.4 Q8.0 1.25 10.25 2.3 L10.1 2.5 10.3 2.35 12.9 0.5 Q18.85 -3.5 20.0 -10.55 L20.95 -13.3 21.0 -13.5 Q22.75 -20.15 19.25 -26.25 16.8 -30.5 12.4 -32.75 5.5 -36.25 -2.3 -36.2 L0.45 -37.1 6.8 -35.95 M5.2 -6.3 L5.65 -6.65 6.1 -6.3 6.3 -5.45 6.1 -4.6 5.65 -4.25 Q5.4 -4.25 5.2 -4.6 L5.0 -5.45 5.2 -6.3 M6.45 -6.65 L6.6 -6.9 Q6.4 -8.45 5.1 -8.7 L2.85 -7.0 3.25 -5.5 4.0 -5.1 3.8 -3.15 6.25 -3.05 7.0 -5.95 6.45 -6.65 M8.05 -7.95 L8.2 -7.1 10.45 -6.7 11.25 -4.85 9.5 -3.5 9.0 -2.55 8.4 -2.2 7.4 -2.0 8.6 -0.8 13.45 -2.95 13.15 -7.75 8.05 -7.95 M7.9 -5.5 L7.85 -4.2 8.0 -3.3 9.8 -5.55 7.9 -5.5 M2.5 -3.45 L1.55 -5.5 1.45 -7.15 -0.05 -6.05 2.5 -3.45 M4.2 -0.6 L4.45 -0.25 Q5.55 -0.2 6.5 -1.0 L5.95 -1.65 4.6 -1.65 5.1 -0.9 4.2 -0.6 M1.65 -0.25 L2.6 -1.0 1.25 -2.75 -0.05 -1.35 1.65 -0.25 M-18.8 -16.95 L-20.1 -16.3 -20.45 -14.95 -19.45 -13.5 -18.8 -16.95 M-4.7 -6.75 L-4.9 -2.6 -1.4 -1.35 0.35 -3.65 -1.8 -5.5 0.35 -8.25 -4.05 -8.95 -4.7 -6.75 M-4.1 2.75 L-3.7 2.9 Q2.35 5.7 8.05 3.75 1.9 4.9 -4.1 2.75" fill="#000000" fill-rule="evenodd" stroke="none"/>
    <path d="M6.9 -36.15 L6.8 -35.95 0.45 -37.1 -2.3 -36.2 Q5.5 -36.25 12.4 -32.75 16.8 -30.5 19.25 -26.25 22.75 -20.15 21.0 -13.5 L20.95 -13.3 20.0 -10.55 14.3 -9.5 20.1 -12.8 Q14.4 -9.7 7.9 -9.4 L7.5 -8.9 7.4 -8.9 7.45 -8.8 5.4 -10.05 3.1 -8.85 1.65 -8.9 -4.8 -10.45 -9.6 -13.15 Q-9.1 -13.55 -9.7 -13.8 -13.15 -14.65 -15.85 -12.65 L-18.15 -12.95 -11.45 -19.9 -11.55 -19.9 Q-14.6 -18.1 -16.9 -15.55 L-18.25 -13.8 Q-17.55 -22.45 -12.25 -28.75 -9.55 -31.95 -5.55 -33.1 L-5.3 -33.05 Q-4.2 -32.7 -2.95 -36.2 L-1.2 -41.1 -0.9 -41.0 Q2.85 -38.3 6.9 -36.15 M-14.3 -12.65 Q-12.2 -13.5 -9.6 -13.15 L-14.3 -12.65 M-18.8 -16.95 L-19.45 -13.5 -20.45 -14.95 -20.1 -16.3 -18.8 -16.95" fill="#50639a" fill-rule="evenodd" stroke="none"/>
    <path d="M6.45 -6.65 L7.0 -5.95 6.25 -3.05 3.8 -3.15 4.0 -5.1 3.25 -5.5 2.85 -7.0 5.1 -8.7 Q6.4 -8.45 6.6 -6.9 L6.45 -6.65 M5.2 -6.3 L5.0 -5.45 5.2 -4.6 Q5.4 -4.25 5.65 -4.25 L6.1 -4.6 6.3 -5.45 6.1 -6.3 5.65 -6.65 5.2 -6.3 M1.65 -0.25 L-0.05 -1.35 1.25 -2.75 2.6 -1.0 1.65 -0.25 M4.2 -0.6 L5.1 -0.9 4.6 -1.65 5.95 -1.65 6.5 -1.0 Q5.55 -0.2 4.45 -0.25 L4.2 -0.6 M2.5 -3.45 L-0.05 -6.05 1.45 -7.15 1.55 -5.5 2.5 -3.45 M7.9 -5.5 L9.8 -5.55 8.0 -3.3 7.85 -4.2 7.9 -5.5" fill="#ffffff" fill-rule="evenodd" stroke="none"/>
    <path d="M8.05 -7.95 L13.15 -7.75 13.45 -2.95 8.6 -0.8 7.4 -2.0 8.4 -2.2 9.0 -2.55 9.5 -3.5 11.25 -4.85 10.45 -6.7 8.2 -7.1 8.05 -7.95 M-4.7 -6.75 L-4.05 -8.95 0.35 -8.25 -1.8 -5.5 0.35 -3.65 -1.4 -1.35 -4.9 -2.6 -4.7 -6.75" fill="#828282" fill-rule="evenodd" stroke="none"/>
    <path d="M-18.15 -12.95 L-15.85 -12.65 -15.75 -12.65 -16.4 -12.2 -18.5 -10.35 -18.2 -12.8 -18.25 -12.85 -18.15 -12.95 M-9.6 -13.15 L-4.8 -10.45 -9.95 -11.75 -5.2 -9.4 -6.2 -1.55 0.25 0.45 0.85 1.4 -10.7 -1.3 Q-14.15 -2.15 -17.25 -6.15 L-17.45 -7.15 -18.85 -7.9 -19.0 -8.05 -18.65 -9.15 -14.3 -12.65 -9.6 -13.15 M1.65 -8.9 L3.1 -8.85 2.65 -8.5 1.65 -8.9 M7.45 -8.8 L7.4 -8.9 7.5 -8.9 7.45 -8.8 M14.3 -9.5 L20.0 -10.55 Q18.85 -3.5 12.9 0.5 L10.3 2.35 10.25 2.3 Q8.0 1.25 4.05 1.4 L1.65 1.55 3.2 -0.15 4.0 1.25 5.0 1.35 12.4 -1.45 15.15 -2.1 14.3 -9.5 M-6.35 3.4 Q-2.85 5.15 1.0 6.25 -2.7 5.95 -6.35 3.4 M-4.1 2.75 Q1.9 4.9 8.05 3.75 2.35 5.7 -3.7 2.9 L-4.1 2.75" fill="#435381" fill-rule="evenodd" stroke="none"/>
  </g>
</svg>
