<?xml version="1.0" encoding="UTF-8" standalone="no"?>
<svg xmlns:xlink="http://www.w3.org/1999/xlink" height="52.3px" width="39.9px" xmlns="http://www.w3.org/2000/svg">
  <g transform="matrix(1.0, 0.0, 0.0, 1.0, 19.55, 27.05)">
    <path d="M2.65 -27.05 L3.6 -25.6 4.8 -24.35 6.75 -24.45 8.85 -22.95 Q16.85 -17.3 18.4 -7.85 L18.3 -7.75 18.85 -3.4 18.85 -3.35 18.95 -3.15 18.9 -1.7 18.9 -1.55 18.95 -1.05 18.9 -0.9 18.7 6.15 19.4 7.0 20.15 7.8 20.1 8.0 20.2 8.15 20.25 8.15 20.25 8.2 Q20.5 11.1 19.95 14.1 L20.0 14.2 19.8 14.7 19.75 14.85 19.75 14.9 19.75 14.95 19.7 15.1 19.5 15.2 18.5 16.35 18.4 16.5 18.2 16.95 18.2 18.75 18.0 19.5 17.9 19.6 17.6 19.7 17.45 19.65 16.3 20.45 8.3 23.1 2.05 24.85 Q1.7 25.35 0.65 25.2 -0.3 25.1 -0.95 24.45 L-1.95 24.15 Q-6.1 23.2 -10.05 21.6 L-13.3 20.55 Q-14.95 20.0 -15.75 18.95 L-16.7 18.45 -16.65 18.05 -17.05 16.6 Q-17.9 16.35 -18.5 15.55 L-19.05 8.15 -19.1 7.65 -18.15 6.75 Q-18.55 4.8 -19.3 3.1 L-19.5 2.65 -19.05 2.2 Q-20.15 -2.55 -18.75 -7.45 L-18.15 -8.05 -18.1 -9.0 -17.25 -9.65 Q-16.9 -12.35 -15.45 -14.7 -10.75 -22.2 -2.2 -24.8 L-1.05 -24.45 2.65 -27.05 M6.25 -22.9 L5.95 -22.9 4.25 -23.45 2.6 -25.35 -0.85 -23.05 -1.05 -22.85 Q-3.85 -22.85 -6.6 -21.2 -10.65 -18.75 -13.6 -14.9 -14.95 -13.1 -14.25 -12.35 L-17.1 -7.6 -17.65 -7.05 -18.0 0.7 Q-17.2 -6.95 -11.4 -12.0 L-14.25 -7.25 -10.55 -7.95 -8.65 -7.95 Q-5.5 -7.45 -3.5 -9.55 L-2.95 -9.5 -2.3 -8.8 -0.85 -10.35 0.4 -10.75 3.35 -8.4 6.25 -9.8 6.75 -9.05 12.25 -9.15 13.15 -8.3 17.45 0.9 17.6 -0.5 17.6 -0.55 17.6 -0.65 Q17.35 -5.45 14.9 -9.85 L16.85 -6.55 16.1 -9.6 Q13.85 -18.05 6.25 -22.9 M6.9 -7.4 L6.2 -6.95 4.5 -4.95 6.6 -1.5 5.2 -0.15 8.65 -0.2 9.35 -7.55 6.9 -7.4 M3.85 -4.15 L2.95 -3.65 2.9 -2.9 4.75 -1.6 5.2 -2.0 3.85 -4.15 M0.25 -7.95 Q0.45 -8.25 0.75 -8.25 L1.3 -7.95 1.5 -7.25 1.3 -6.55 Q1.05 -6.25 0.75 -6.25 0.45 -6.25 0.25 -6.55 0.0 -6.85 0.0 -7.25 L0.25 -7.95 M1.4 -9.3 L0.4 -9.55 -1.25 -8.25 -1.6 -6.55 -0.95 -5.45 -0.15 -5.2 0.5 -3.55 1.8 -3.3 1.6 -4.95 2.25 -5.7 1.4 -9.3 M2.4 -1.7 L1.05 -2.0 0.1 -1.75 -2.3 0.25 4.1 -0.05 2.4 -1.7 M3.6 -7.7 L3.8 -5.55 5.4 -8.1 3.6 -7.7 M11.6 -7.8 L10.45 -7.75 10.05 0.65 16.6 1.95 12.15 -7.75 11.6 -7.8 M-3.25 -8.35 L-3.95 -7.65 -2.25 -5.4 -2.5 -7.8 -3.25 -8.35 M-5.1 -7.35 L-7.75 -6.85 -7.4 0.35 -3.35 0.3 -3.95 -0.8 -4.95 -1.25 -2.4 -4.3 -5.1 -7.35 M-0.8 -2.75 L-1.3 -4.05 -3.5 -1.9 -2.9 -0.85 -0.8 -2.75 M-8.85 -6.9 L-14.85 -6.0 -16.8 1.15 -16.4 1.4 -8.95 0.65 -8.85 -6.9 M-16.3 6.05 L-16.2 6.55 -16.45 7.2 -16.45 7.25 Q-16.45 7.65 -16.75 8.0 L-16.9 8.2 Q-17.1 11.15 -16.65 13.95 L-16.6 14.25 -16.25 14.6 Q-15.95 14.8 -15.75 15.15 L-15.65 15.3 -15.35 15.9 -15.4 16.1 -15.35 16.45 -15.3 17.0 -15.2 17.5 -15.15 17.6 Q-7.8 20.65 0.1 22.65 L1.45 23.2 16.5 18.85 Q16.25 17.55 16.9 16.55 L17.0 16.4 16.9 15.95 Q17.45 14.9 18.3 14.05 L18.5 8.35 18.3 8.15 Q17.45 7.8 16.8 7.0 L17.2 3.4 9.6 1.8 9.1 1.4 -16.15 2.4 Q-16.5 4.2 -16.3 6.05 M-11.95 9.65 Q-12.4 9.55 -12.25 9.0 L-11.8 8.9 Q-7.95 8.05 -4.05 7.95 L5.15 8.2 Q9.55 8.65 13.8 9.75 14.65 9.9 13.95 10.5 L-11.95 9.65 M14.35 15.0 Q4.3 16.6 -5.8 15.0 L-8.85 14.45 -10.1 13.95 Q-10.65 13.7 -11.15 13.5 L15.1 14.7 14.35 15.0" fill="#000000" fill-rule="evenodd" stroke="none"/>
    <path d="M6.25 -22.9 Q13.85 -18.05 16.1 -9.6 L16.85 -6.55 14.9 -9.85 Q17.35 -5.45 17.6 -0.65 L17.6 -0.55 17.6 -0.5 17.45 0.9 13.15 -8.3 12.25 -9.15 6.75 -9.05 6.25 -9.8 3.35 -8.4 0.4 -10.75 -0.85 -10.35 -2.3 -8.8 -2.95 -9.5 -3.5 -9.55 Q-5.5 -7.45 -8.65 -7.95 L-10.55 -7.95 -14.25 -7.25 -11.4 -12.0 Q-17.2 -6.95 -18.0 0.7 L-17.65 -7.05 -17.1 -7.6 -14.25 -12.35 Q-14.95 -13.1 -13.6 -14.9 -10.65 -18.75 -6.6 -21.2 -3.85 -22.85 -1.05 -22.85 L-0.85 -23.05 2.6 -25.35 4.25 -23.45 5.95 -22.9 6.25 -22.9 M11.6 -7.8 L12.15 -7.75 16.6 1.95 10.05 0.65 10.45 -7.75 11.6 -7.8 M-8.85 -6.9 L-8.95 0.65 -16.4 1.4 -16.8 1.15 -14.85 -6.0 -8.85 -6.9 M-16.3 6.05 Q-16.5 4.2 -16.15 2.4 L9.1 1.4 9.6 1.8 17.2 3.4 16.8 7.0 Q17.45 7.8 18.3 8.15 L18.5 8.35 18.3 14.05 Q17.45 14.9 16.9 15.95 L17.0 16.4 16.9 16.55 Q16.25 17.55 16.5 18.85 L1.45 23.2 0.1 22.65 Q-7.8 20.65 -15.15 17.6 L-15.2 17.5 -15.3 17.0 -15.35 16.45 -15.4 16.1 -15.35 15.9 -15.65 15.3 -15.75 15.15 Q-15.95 14.8 -16.25 14.6 L-16.6 14.25 -16.65 13.95 Q-17.1 11.15 -16.9 8.2 L-16.75 8.0 Q-16.45 7.65 -16.45 7.25 L-16.45 7.2 -16.2 6.55 -16.3 6.05 M-11.95 9.65 L13.95 10.5 Q14.65 9.9 13.8 9.75 9.55 8.65 5.15 8.2 L-4.05 7.95 Q-7.95 8.05 -11.8 8.9 L-12.25 9.0 Q-12.4 9.55 -11.95 9.65 M-10.1 13.95 Q-11.45 15.3 -8.8 16.35 -6.9 17.1 -4.7 17.15 L8.1 17.4 Q11.85 18.0 14.25 15.3 L14.35 15.0 15.1 14.7 -11.15 13.5 Q-10.65 13.7 -10.1 13.95" fill="#50639a" fill-rule="evenodd" stroke="none"/>
    <path d="M6.9 -7.4 L9.35 -7.55 8.65 -0.2 5.2 -0.15 6.6 -1.5 4.5 -4.95 6.2 -6.95 6.9 -7.4 M2.4 -1.7 L4.1 -0.05 -2.3 0.25 0.1 -1.75 1.05 -2.0 2.4 -1.7 M-5.1 -7.35 L-2.4 -4.3 -4.95 -1.25 -3.95 -0.8 -3.35 0.3 -7.4 0.35 -7.75 -6.85 -5.1 -7.35" fill="#828282" fill-rule="evenodd" stroke="none"/>
    <path d="M1.4 -9.3 L2.25 -5.7 1.6 -4.95 1.8 -3.3 0.5 -3.55 -0.15 -5.2 -0.95 -5.45 -1.6 -6.55 -1.25 -8.25 0.4 -9.55 1.4 -9.3 M0.25 -7.95 L0.0 -7.25 Q0.0 -6.85 0.25 -6.55 0.45 -6.25 0.75 -6.25 1.05 -6.25 1.3 -6.55 L1.5 -7.25 1.3 -7.95 0.75 -8.25 Q0.45 -8.25 0.25 -7.95 M3.85 -4.15 L5.2 -2.0 4.75 -1.6 2.9 -2.9 2.95 -3.65 3.85 -4.15 M3.6 -7.7 L5.4 -8.1 3.8 -5.55 3.6 -7.7 M-3.25 -8.35 L-2.5 -7.8 -2.25 -5.4 -3.95 -7.65 -3.25 -8.35 M-0.8 -2.75 L-2.9 -0.85 -3.5 -1.9 -1.3 -4.05 -0.8 -2.75" fill="#ffffff" fill-rule="evenodd" stroke="none"/>
    <path d="M-10.1 13.95 L-8.85 14.45 -5.8 15.0 Q4.3 16.6 14.35 15.0 L14.25 15.3 Q11.85 18.0 8.1 17.4 L-4.7 17.15 Q-6.9 17.1 -8.8 16.35 -11.45 15.3 -10.1 13.95" fill="#435381" fill-rule="evenodd" stroke="none"/>
  </g>
</svg>
