<?xml version="1.0" encoding="UTF-8" standalone="no"?>
<svg xmlns:xlink="http://www.w3.org/1999/xlink" height="52.25px" width="39.35px" xmlns="http://www.w3.org/2000/svg">
  <g transform="matrix(1.0, 0.0, 0.0, 1.0, 20.65, 25.5)">
    <path d="M5.15 -22.9 Q10.25 -19.7 13.55 -14.7 16.2 -10.7 16.85 -6.2 17.85 0.65 17.1 7.7 L18.55 9.35 18.35 9.8 Q19.05 13.05 18.3 16.25 L18.0 16.85 16.8 18.05 16.6 20.7 15.35 21.65 Q7.95 24.65 0.45 26.4 L-0.05 26.75 Q-1.9 26.75 -3.7 26.05 -7.6 24.4 -11.7 23.35 -15.4 22.4 -18.3 20.0 L-18.65 18.15 -20.1 17.1 -20.65 9.7 -19.75 8.3 -19.9 7.6 -19.1 7.25 -17.3 -12.65 Q-14.8 -16.5 -11.25 -19.25 -7.8 -21.95 -3.8 -23.25 L-2.65 -22.9 1.05 -25.5 2.0 -24.05 3.2 -22.8 5.15 -22.9 M9.65 -17.1 Q7.35 -19.65 4.45 -21.2 L2.65 -21.9 1.0 -23.8 Q-1.75 -21.1 -5.35 -20.55 -8.05 -20.1 -10.2 -18.4 -13.25 -16.1 -14.95 -12.4 -15.85 -10.45 -16.1 -8.25 L-16.6 -3.9 -13.9 3.0 -14.6 3.6 -16.85 -1.75 Q-17.25 5.3 -18.25 11.3 -18.65 13.5 -18.2 15.8 L-16.8 19.05 -0.15 24.75 14.9 20.4 15.3 17.5 16.7 15.6 16.9 9.9 15.4 8.8 15.55 1.85 15.85 2.45 15.2 -3.85 Q13.2 1.35 9.35 4.75 L14.7 -6.95 Q13.75 -12.6 9.65 -17.1 M2.4 17.3 L2.5 10.1 -0.55 13.05 -0.3 18.2 2.4 17.3 M3.45 5.0 Q2.3 3.9 3.5 3.55 7.8 6.3 5.45 11.1 L4.4 10.55 Q4.95 9.25 4.9 8.05 4.8 6.2 3.45 5.0 M3.75 8.75 L3.35 9.25 4.0 17.5 4.3 18.9 -0.65 20.5 -1.6 19.9 -2.15 13.5 -5.8 8.7 Q-5.15 3.75 -0.3 2.95 L0.55 3.45 Q3.45 5.2 3.75 8.75 M1.85 7.95 L0.0 5.1 -3.35 5.65 -4.3 7.8 -1.65 10.95 1.85 7.95" fill="#000000" fill-rule="evenodd" stroke="none"/>
    <path d="M9.65 -17.1 Q13.75 -12.6 14.7 -6.95 L9.35 4.75 Q13.2 1.35 15.2 -3.85 L15.85 2.45 15.55 1.85 15.4 8.8 16.9 9.9 16.7 15.6 15.3 17.5 14.9 20.4 -0.15 24.75 -16.8 19.05 -18.2 15.8 Q-18.65 13.5 -18.25 11.3 -17.25 5.3 -16.85 -1.75 L-14.6 3.6 -13.9 3.0 -16.6 -3.9 -16.1 -8.25 Q-15.85 -10.45 -14.95 -12.4 -13.25 -16.1 -10.2 -18.4 -8.05 -20.1 -5.35 -20.55 -1.75 -21.1 1.0 -23.8 L2.65 -21.9 4.45 -21.2 Q7.35 -19.65 9.65 -17.1 M1.85 7.95 L-1.65 10.95 -4.3 7.8 -3.35 5.65 0.0 5.1 1.85 7.95 M3.75 8.75 Q3.45 5.2 0.55 3.45 L-0.3 2.95 Q-5.15 3.75 -5.8 8.7 L-2.15 13.5 -1.6 19.9 -0.65 20.5 4.3 18.9 4.0 17.5 3.35 9.25 3.75 8.75 M3.45 5.0 Q4.8 6.2 4.9 8.05 4.95 9.25 4.4 10.55 L5.45 11.1 Q7.8 6.3 3.5 3.55 2.3 3.9 3.45 5.0 M2.4 17.3 L-0.3 18.2 -0.55 13.05 2.5 10.1 2.4 17.3" fill="#50639a" fill-rule="evenodd" stroke="none"/>
  </g>
</svg>
