<?xml version="1.0" encoding="UTF-8" standalone="no"?>
<svg xmlns:xlink="http://www.w3.org/1999/xlink" height="19.15px" width="15.35px" xmlns="http://www.w3.org/2000/svg">
  <g transform="matrix(1.0, 0.0, 0.0, 1.0, 7.4, 9.55)">
    <path d="M-4.35 -6.4 L-4.65 -6.2 Q-2.5 -3.7 1.25 -4.0 L2.0 -2.2 Q-1.75 -1.95 -5.35 -3.25 L-5.7 -5.5 Q-5.7 -6.45 -4.7 -7.15 -3.7 -7.85 -2.3 -7.85 L-4.2 -6.5 -4.6 -6.5 -4.35 -6.4 M3.05 -2.3 L2.95 -3.75 5.35 -5.4 5.25 -6.6 2.45 -7.95 6.0 -7.55 6.1 -5.05 5.65 -2.85 3.05 -2.3 M3.0 -1.5 Q4.4 -1.8 5.6 -2.45 L3.3 2.75 3.0 -1.5 M-5.2 -2.35 L2.0 -1.35 2.0 2.85 2.4 3.25 Q-3.05 4.8 -4.8 -0.45 L-5.2 -2.35" fill="#a5a5a5" fill-rule="evenodd" stroke="none"/>
    <path d="M-4.35 -6.4 L-3.6 -6.15 Q0.3 -5.05 4.35 -6.6 L2.8 -7.0 -4.2 -6.5 -2.3 -7.85 2.45 -7.95 5.25 -6.6 5.35 -5.4 2.95 -3.75 3.05 -2.3 2.0 -2.2 1.25 -4.0 Q-2.5 -3.7 -4.65 -6.2 L-4.35 -6.4 M2.0 -1.35 L3.0 -1.5 3.3 2.75 3.25 3.0 Q2.95 3.85 2.4 3.25 L2.0 2.85 2.0 -1.35" fill="#b17d58" fill-rule="evenodd" stroke="none"/>
    <path d="M-4.2 -6.5 L2.8 -7.0 4.35 -6.6 Q0.3 -5.05 -3.6 -6.15 L-4.35 -6.4 -4.6 -6.5 -4.2 -6.5 M2.0 -2.2 L3.05 -2.3 5.65 -2.85 6.1 -5.05 6.0 -7.55 2.45 -7.95 -2.3 -7.85 Q-3.7 -7.85 -4.7 -7.15 -5.7 -6.45 -5.7 -5.5 L-5.35 -3.25 Q-1.75 -1.95 2.0 -2.2 M3.0 -1.5 L2.0 -1.35 -5.2 -2.35 -5.6 -2.5 -5.8 -2.75 -5.75 -2.45 -4.85 6.1 -4.85 6.25 -4.75 6.05 -4.3 7.6 6.5 7.85 6.15 -2.8 5.6 -2.45 Q4.4 -1.8 3.0 -1.5 M-1.55 -9.45 Q2.7 -9.9 6.8 -8.2 8.55 -0.85 7.65 6.75 L7.35 8.95 Q0.35 10.5 -6.05 8.35 L-7.4 -7.65 Q-5.3 -8.9 -1.55 -9.45" fill="#000000" fill-rule="evenodd" stroke="none"/>
    <path d="M5.6 -2.45 L6.15 -2.8 6.5 7.85 -4.3 7.6 -4.75 6.05 -4.85 6.1 -5.75 -2.45 -5.6 -2.5 -5.2 -2.35 -4.8 -0.45 Q-3.05 4.8 2.4 3.25 2.95 3.85 3.25 3.0 L3.3 2.75 5.6 -2.45" fill="#808080" fill-rule="evenodd" stroke="none"/>
  </g>
</svg>
