<?xml version="1.0" encoding="UTF-8" standalone="no"?>
<svg xmlns:xlink="http://www.w3.org/1999/xlink" height="18.85px" width="17.7px" xmlns="http://www.w3.org/2000/svg">
  <g transform="matrix(1.0, 0.0, 0.0, 1.0, 7.15, 10.5)">
    <path d="M8.65 -6.15 L8.55 -8.65 7.55 -8.6 5.0 -9.05 4.05 -9.3 0.45 -8.85 0.4 -8.95 0.3 -8.95 0.25 -8.95 -0.35 -9.05 Q-0.45 -8.95 -0.6 -8.95 -1.4 -8.75 -1.9 -8.25 L-2.7 -8.5 -3.25 -7.9 -3.15 -6.6 -3.05 -4.45 -2.8 -4.35 Q0.8 -3.05 4.55 -3.3 L5.6 -3.4 8.2 -3.95 8.7 -4.1 8.65 -6.15 M5.35 -8.1 L6.9 -7.7 Q1.75 -6.05 -2.05 -7.6 L-1.1 -7.75 1.1 -7.8 5.35 -8.1 M4.55 -2.45 L3.0 -2.4 Q0.0 -2.5 -2.65 -3.45 L-3.65 -3.8 -5.25 -2.4 -5.0 -1.1 Q-2.9 -1.35 -2.2 0.55 -1.85 1.5 -1.95 2.75 L-2.0 3.05 -2.25 3.4 -2.55 3.8 -4.4 3.95 -4.4 4.25 -4.0 4.7 -3.45 4.9 -2.7 4.95 -1.95 4.95 -1.75 6.5 9.05 6.75 8.7 -3.9 8.15 -3.55 Q6.95 -2.9 5.55 -2.6 L4.55 -2.45 M9.35 -9.3 Q10.35 -5.45 10.5 -1.15 10.7 3.55 9.9 7.85 L3.75 8.35 Q0.3 8.35 -2.85 7.6 L-2.95 6.15 -5.65 5.15 -5.6 3.2 -2.9 2.1 -3.6 0.2 -5.4 0.5 -6.45 -1.85 -7.15 -2.65 -5.4 -4.85 -4.7 -4.7 -4.85 -5.15 -4.7 -5.2 -4.5 -5.1 -4.5 -8.9 -0.2 -9.9 Q4.65 -11.3 9.35 -9.3" fill="#000000" fill-rule="evenodd" stroke="none"/>
    <path d="M5.0 -9.05 L5.15 -8.9 5.3 -8.65 Q6.75 -8.75 7.8 -7.7 L8.1 -7.3 Q8.1 -6.35 7.2 -6.05 6.15 -5.75 5.55 -5.1 L5.5 -4.85 5.55 -4.35 5.65 -4.05 5.6 -3.4 4.55 -3.3 4.55 -3.55 4.45 -3.8 Q4.05 -4.25 3.9 -4.8 L3.8 -5.1 Q2.15 -5.05 0.05 -5.7 -1.1 -6.1 -2.05 -6.8 L-2.05 -7.05 -2.1 -7.3 -2.1 -7.8 Q-1.15 -8.7 0.25 -8.95 L0.3 -8.95 0.4 -8.95 0.45 -8.85 4.05 -9.3 5.0 -9.05 M5.35 -8.1 L1.1 -7.8 -1.1 -7.75 -2.05 -7.6 Q1.75 -6.05 6.9 -7.7 L5.35 -8.1 M4.95 2.15 L4.55 1.75 4.55 -0.55 4.55 -2.45 5.55 -2.6 5.5 -1.3 Q5.5 0.2 5.85 1.65 L5.9 1.9 5.9 2.0 5.8 2.2 5.4 2.45 5.0 2.2 4.95 2.15" fill="#b17d58" fill-rule="evenodd" stroke="none"/>
    <path d="M5.0 -9.05 L7.55 -8.6 8.55 -8.65 8.65 -6.15 Q8.3 -5.9 8.3 -5.5 L8.2 -3.95 5.6 -3.4 5.65 -4.05 5.55 -4.35 5.5 -4.85 5.55 -5.1 Q6.15 -5.75 7.2 -6.05 8.1 -6.35 8.1 -7.3 L7.8 -7.7 Q6.75 -8.75 5.3 -8.65 L5.15 -8.9 5.0 -9.05 M0.25 -8.95 Q-1.15 -8.7 -2.1 -7.8 L-2.1 -7.3 -2.05 -7.05 -2.05 -6.8 Q-1.1 -6.1 0.05 -5.7 2.15 -5.05 3.8 -5.1 L3.9 -4.8 Q4.05 -4.25 4.45 -3.8 L4.55 -3.55 4.55 -3.3 Q0.8 -3.05 -2.8 -4.35 L-3.15 -6.6 -3.25 -7.9 -2.7 -8.5 -1.9 -8.25 Q-1.4 -8.75 -0.6 -8.95 -0.45 -8.95 -0.35 -9.05 L0.25 -8.95 M-2.65 -3.45 Q0.0 -2.5 3.0 -2.4 L4.55 -2.45 4.55 -0.55 4.55 1.75 4.95 2.15 Q0.9 3.35 -2.2 0.0 L-2.65 -3.45 M5.55 -2.6 Q6.95 -2.9 8.15 -3.55 7.65 -0.7 5.85 1.6 L5.85 1.65 Q5.5 0.2 5.5 -1.3 L5.55 -2.6" fill="#a5a5a5" fill-rule="evenodd" stroke="none"/>
    <path d="M8.2 -3.95 L8.3 -5.5 Q8.3 -5.9 8.65 -6.15 L8.7 -4.1 8.2 -3.95 M-2.65 -3.45 L-2.2 0.0 Q0.9 3.35 4.95 2.15 L5.0 2.2 5.4 2.45 5.8 2.2 5.9 2.0 5.9 1.9 5.85 1.65 5.85 1.6 Q7.65 -0.7 8.15 -3.55 L8.7 -3.9 9.05 6.75 -1.75 6.5 -1.95 4.95 -2.7 4.95 -3.45 4.9 -4.0 4.7 -4.4 4.25 -4.4 3.95 -2.55 3.8 -2.25 3.4 -2.0 3.05 -1.95 2.75 Q-1.85 1.5 -2.2 0.55 -2.9 -1.35 -5.0 -1.1 L-5.25 -2.4 -3.65 -3.8 -2.65 -3.45 M-3.15 -6.6 L-2.8 -4.35 -3.05 -4.45 -3.15 -6.6" fill="#808080" fill-rule="evenodd" stroke="none"/>
  </g>
</svg>
