<?xml version="1.0" encoding="UTF-8" standalone="no"?>
<svg xmlns:xlink="http://www.w3.org/1999/xlink" height="36.45px" width="31.2px" xmlns="http://www.w3.org/2000/svg">
  <g transform="matrix(1.0, 0.0, 0.0, 1.0, 15.6, 20.85)">
    <path d="M8.95 -5.65 L9.5 -1.4 Q3.85 0.3 -1.15 -3.1 L-2.2 -3.9 -2.25 -14.15 7.55 -12.25 8.8 -6.65 Q3.3 -4.05 -1.35 -8.4 -2.2 -7.9 -0.9 -6.9 4.0 -3.25 8.95 -5.65 M11.45 -3.0 L11.75 -3.0 11.7 -2.8 11.55 -2.75 11.45 -3.0 M12.4 6.35 L14.25 7.6 13.25 12.25 -4.05 11.7 Q-6.55 11.55 -8.95 12.3 L-13.85 14.2 -14.0 13.9 -13.65 8.95 -12.85 7.75 -12.5 8.45 -12.5 7.2 Q-11.45 6.6 -10.3 6.25 L-2.3 5.35 -2.15 -2.2 2.25 -0.25 Q1.05 2.95 3.75 5.1 L4.35 5.55 4.95 5.05 Q3.85 3.5 3.75 1.4 3.7 0.75 3.8 0.15 L9.6 -0.05 9.75 6.1 12.4 6.35" fill="#740c0c" fill-rule="evenodd" stroke="none"/>
    <path d="M0.95 -15.75 L0.95 -15.55 -1.95 -15.5 Q-3.3 -15.7 -4.4 -14.95 -9.1 -11.8 -11.85 -6.6 -13.15 -4.1 -13.8 -1.5 -13.85 -8.65 -12.75 -15.5 L-11.85 -16.55 Q-6.4 -20.7 0.0 -17.35 L0.95 -15.75 M9.5 -1.4 L8.95 -5.65 10.45 -6.55 10.65 -8.0 8.8 -6.65 7.55 -12.25 Q12.0 -9.5 11.85 -4.2 L11.75 -3.0 11.45 -3.0 9.5 -1.4 M-2.25 -14.15 L-2.2 -3.9 -6.1 -9.0 -6.3 -8.7 -6.2 -8.4 -6.0 -8.1 Q-5.75 -4.25 -2.15 -2.2 L-2.3 5.35 -10.3 6.25 -9.6 6.05 -11.15 5.65 -12.5 6.35 Q-13.85 -4.8 -5.85 -12.4 -4.4 -13.8 -2.25 -14.15 M9.6 -0.05 L11.65 -0.75 12.8 5.45 12.45 5.85 12.4 6.35 9.75 6.1 9.6 -0.05" fill="#4a4f31" fill-rule="evenodd" stroke="none"/>
    <path d="M0.95 -15.55 L1.05 -15.55 0.95 -15.75 0.0 -17.35 Q-6.4 -20.7 -11.85 -16.55 L-12.75 -15.5 Q-13.85 -8.65 -13.8 -1.5 -13.15 -4.1 -11.85 -6.6 -9.1 -11.8 -4.4 -14.95 -3.3 -15.7 -1.95 -15.5 L0.95 -15.55 M3.8 -15.15 Q7.45 -14.2 10.65 -11.4 L11.45 -10.75 12.55 -8.35 Q14.1 -4.75 12.15 -1.3 L13.75 6.05 Q16.6 8.35 15.1 11.95 14.3 14.0 12.25 13.65 L4.1 12.05 Q-5.95 10.85 -14.8 15.5 L-15.6 15.55 -14.3 7.7 Q-14.65 5.15 -14.5 2.7 -15.25 -3.4 -14.75 -9.65 -14.55 -12.0 -14.65 -14.45 L-14.45 -14.75 -14.3 -15.0 -14.3 -15.6 -14.3 -15.85 Q-11.2 -21.25 -4.5 -20.8 L-4.5 -20.85 Q0.1 -20.4 2.6 -16.9 L3.8 -15.15 M8.95 -5.65 Q4.0 -3.25 -0.9 -6.9 -2.2 -7.9 -1.35 -8.4 3.3 -4.05 8.8 -6.65 L10.65 -8.0 10.45 -6.55 8.95 -5.65 M7.55 -12.25 L-2.25 -14.15 Q-4.4 -13.8 -5.85 -12.4 -13.85 -4.8 -12.5 6.35 L-11.15 5.65 -9.6 6.05 -10.3 6.25 Q-11.45 6.6 -12.5 7.2 L-12.5 8.45 -12.85 7.75 -13.65 8.95 -14.0 13.9 -13.85 14.2 -8.95 12.3 Q-6.55 11.55 -4.05 11.7 L13.25 12.25 14.25 7.6 12.4 6.35 12.45 5.85 12.8 5.45 11.65 -0.75 9.6 -0.05 3.8 0.15 2.25 -0.25 -2.15 -2.2 Q-5.75 -4.25 -6.0 -8.1 L-6.2 -8.4 -6.3 -8.7 -6.1 -9.0 -2.2 -3.9 -1.15 -3.1 Q3.85 0.3 9.5 -1.4 L11.45 -3.0 11.55 -2.75 11.7 -2.8 11.75 -3.0 11.85 -4.2 Q12.0 -9.5 7.55 -12.25" fill="#000000" fill-rule="evenodd" stroke="none"/>
    <path d="M3.8 0.15 Q3.7 0.75 3.75 1.4 3.85 3.5 4.95 5.05 L4.35 5.55 3.75 5.1 Q1.05 2.95 2.25 -0.25 L3.8 0.15" fill="#cc9933" fill-rule="evenodd" stroke="none"/>
  </g>
</svg>
