<?xml version="1.0" encoding="UTF-8" standalone="no"?>
<svg xmlns:xlink="http://www.w3.org/1999/xlink" height="38.15px" width="33.7px" xmlns="http://www.w3.org/2000/svg">
  <g transform="matrix(1.0, 0.0, 0.0, 1.0, 19.05, 14.45)">
    <path d="M-16.45 15.15 L-16.05 14.65 -16.45 14.1 Q-17.5 3.8 -12.6 -5.0 -11.45 -7.15 -9.75 -8.6 -12.55 -0.65 -11.55 7.65 -9.5 9.6 -6.55 9.4 0.7 9.1 6.45 4.95 L7.35 4.25 7.15 3.4 6.75 3.1 7.0 -9.45 10.9 -8.05 12.05 -4.7 12.45 -4.1 Q13.95 5.4 12.05 14.5 7.55 13.4 2.7 13.3 -6.9 13.6 -16.45 15.15 M5.9 -10.3 L5.8 3.6 Q-1.35 8.3 -9.7 7.15 -10.75 3.75 -10.2 0.2 L-9.7 -4.15 Q-9.05 -11.35 -2.5 -13.15 L4.85 -13.1 Q5.9 -11.9 5.9 -10.3" fill="#4a4f31" fill-rule="evenodd" stroke="none"/>
    <path d="M10.5 -10.05 Q12.65 -8.7 13.25 -6.3 L13.4 -5.3 Q14.85 -1.1 14.35 3.35 13.6 9.55 14.15 14.95 L14.65 17.25 Q13.4 19.35 11.1 20.2 L3.25 22.45 Q-4.2 24.4 -11.45 23.3 -16.2 22.7 -19.05 19.35 L-18.55 14.45 -17.4 14.0 -16.55 4.15 -15.9 -0.75 Q-14.95 -7.25 -9.35 -9.5 L-8.15 -12.0 Q-5.95 -13.5 -3.35 -14.1 L5.9 -13.75 7.3 -11.0 Q9.05 -10.9 10.5 -10.05 M12.05 14.5 Q13.95 5.4 12.45 -4.1 L12.05 -4.7 10.9 -8.05 7.0 -9.45 6.75 3.1 7.15 3.4 7.35 4.25 6.45 4.95 Q0.7 9.1 -6.55 9.4 -9.5 9.6 -11.55 7.65 -12.55 -0.65 -9.75 -8.6 -11.45 -7.15 -12.6 -5.0 -17.5 3.8 -16.45 14.1 L-16.05 14.65 -16.45 15.15 -17.6 15.35 -17.9 18.8 -16.65 20.0 -15.25 20.8 Q-0.3 24.65 12.9 17.05 L12.8 15.8 12.25 15.5 12.05 14.5 M5.9 -10.3 Q5.9 -11.9 4.85 -13.1 L-2.5 -13.15 Q-9.05 -11.35 -9.7 -4.15 L-10.2 0.2 Q-10.75 3.75 -9.7 7.15 -1.35 8.3 5.8 3.6 L5.9 -10.3" fill="#000000" fill-rule="evenodd" stroke="none"/>
    <path d="M12.05 14.5 L12.25 15.5 12.8 15.8 12.9 17.05 Q-0.3 24.65 -15.25 20.8 L-16.65 20.0 -17.9 18.8 -17.6 15.35 -16.45 15.15 Q-6.9 13.6 2.7 13.3 7.55 13.4 12.05 14.5" fill="#740c0c" fill-rule="evenodd" stroke="none"/>
  </g>
</svg>
