<?xml version="1.0" encoding="UTF-8" standalone="no"?>
<svg xmlns:xlink="http://www.w3.org/1999/xlink" height="60.45px" width="45.8px" xmlns="http://www.w3.org/2000/svg">
  <g transform="matrix(1.0, 0.0, 0.0, 1.0, 22.2, 33.25)">
    <path d="M4.05 -30.7 Q5.25 -28.35 6.95 -26.35 8.45 -24.55 10.25 -23.05 L16.4 -18.05 19.7 0.85 22.65 4.6 Q24.0 6.5 23.45 8.65 22.5 12.1 20.35 15.0 L18.55 17.5 Q16.7 20.3 13.65 22.0 L6.95 25.35 Q4.0 26.9 0.55 26.9 L0.4 27.2 -1.35 26.6 Q-9.5 24.1 -16.4 19.0 L-17.1 16.55 -17.9 16.25 -18.0 15.95 Q-21.5 10.9 -22.2 4.8 -21.15 3.15 -20.4 1.4 -18.75 -2.4 -17.9 -6.4 -17.1 -10.15 -15.4 -13.6 -13.25 -17.85 -9.65 -21.4 L-9.0 -21.5 -8.45 -21.9 -8.2 -22.15 -1.15 -31.6 Q-0.2 -32.85 1.25 -33.25 L4.05 -30.7 M12.2 -19.85 L11.85 -20.2 12.1 -19.8 12.1 -19.75 12.05 -19.7 9.9 -21.4 Q5.1 -26.2 1.4 -31.85 -0.25 -31.2 -1.3 -29.7 L-8.4 -19.05 -9.3 -19.5 -9.05 -20.3 -9.05 -20.35 -9.1 -20.3 -11.95 -16.8 Q-16.8 -10.15 -16.6 -2.0 L-13.35 -9.55 -17.7 1.9 -18.05 0.65 -18.05 0.5 -18.15 0.65 -21.05 5.25 -20.25 8.0 Q-18.95 12.1 -16.45 15.6 L-15.95 16.7 -16.3 15.55 Q-17.5 10.0 -15.7 4.95 L-15.9 11.05 Q-15.9 14.1 -15.2 17.05 -14.85 18.5 -13.45 19.55 -10.25 22.0 -6.35 23.25 L-0.05 26.2 8.7 23.1 9.2 22.85 9.35 22.8 Q10.1 22.45 10.8 22.05 L14.55 19.4 Q16.05 18.2 16.4 16.6 17.55 10.7 17.5 4.7 L17.15 4.35 17.3 3.65 Q19.1 9.35 18.1 15.6 L22.5 7.15 18.6 1.3 18.85 2.25 17.9 0.65 17.65 0.1 Q15.75 -4.25 15.05 -8.75 L18.45 -0.45 18.5 -0.4 18.5 -0.45 15.15 -17.25 12.2 -19.85 M-6.7 21.1 L-6.35 21.1 -6.3 21.1 -6.15 21.15 7.55 20.75 8.4 20.6 9.55 20.35 13.35 19.05 9.5 21.1 8.45 21.35 7.6 21.55 -1.5 22.1 -4.5 21.65 -5.35 21.45 -6.7 21.1 M-6.5 16.75 L-11.85 16.1 -6.5 15.9 -0.15 16.45 9.7 16.1 15.0 15.75 9.7 17.05 -6.5 16.75 M-6.45 11.35 L-8.15 11.55 -7.8 7.95 -6.5 7.85 9.55 8.05 10.8 8.05 11.5 7.45 Q9.7 9.25 10.55 11.4 L9.7 11.35 -6.45 11.35" fill="#000000" fill-rule="evenodd" stroke="none"/>
    <path d="M12.1 -19.8 L12.2 -19.85 15.15 -17.25 18.5 -0.45 18.45 -0.45 15.05 -8.75 Q15.75 -4.25 17.65 0.1 L17.9 0.65 18.85 2.25 18.6 1.3 22.5 7.15 18.1 15.6 Q19.1 9.35 17.3 3.65 L17.15 4.35 17.5 4.7 Q17.55 10.7 16.4 16.6 16.05 18.2 14.55 19.4 L10.8 22.05 Q10.1 22.45 9.35 22.8 L9.5 21.1 13.35 19.05 9.55 20.35 9.7 17.05 15.0 15.75 9.7 16.1 9.7 11.35 10.55 11.4 Q13.3 14.0 15.6 11.05 16.0 10.55 16.05 9.9 16.25 7.45 13.85 7.3 L11.5 7.45 10.8 8.05 9.55 8.05 8.95 2.45 8.0 -3.05 5.9 -11.8 Q5.25 -14.0 3.45 -15.4 1.9 -16.55 -0.45 -15.65 L-2.15 -14.85 -2.35 -14.4 -2.45 -14.35 Q-4.5 -13.75 -5.3 -11.7 -6.3 -8.95 -6.35 -6.1 L-6.5 7.85 -7.8 7.95 Q-8.85 7.35 -9.85 6.8 -13.8 7.1 -13.65 10.9 -11.2 14.05 -8.15 11.55 L-6.45 11.35 -6.5 15.9 -11.85 16.1 -6.5 16.75 -6.7 21.05 -6.35 21.1 -6.7 21.1 -6.85 23.0 -6.35 23.25 Q-10.25 22.0 -13.45 19.55 -14.85 18.5 -15.2 17.05 -15.9 14.1 -15.9 11.05 L-15.7 4.95 Q-17.5 10.0 -16.3 15.55 L-16.45 15.6 Q-18.95 12.1 -20.25 8.0 L-21.05 5.25 -18.15 0.65 -18.05 0.65 -17.7 1.9 -13.35 -9.55 -16.6 -2.0 Q-16.8 -10.15 -11.95 -16.8 L-9.1 -20.3 -9.05 -20.3 -9.3 -19.5 -8.4 -19.05 -1.3 -29.7 Q-0.25 -31.2 1.4 -31.85 5.1 -26.2 9.9 -21.4 L12.05 -19.7 12.1 -19.75 12.1 -19.8" fill="#4a4f31" fill-rule="evenodd" stroke="none"/>
    <path d="M-6.35 23.25 L-6.85 23.0 -6.7 21.1 -5.35 21.45 -4.5 21.65 -1.5 22.1 7.6 21.55 8.45 21.35 9.5 21.1 9.35 22.8 9.2 22.85 8.7 23.1 -0.05 26.2 -6.35 23.25 M-6.35 21.1 L-6.7 21.05 -6.5 16.75 9.7 17.05 9.55 20.35 8.4 20.6 7.55 20.75 -6.15 21.15 -6.3 21.1 -6.35 21.1 M-6.5 15.9 L-6.45 11.35 9.7 11.35 9.7 16.1 -0.15 16.45 -6.5 15.9 M-6.5 7.85 L-6.35 -6.1 Q-6.3 -8.95 -5.3 -11.7 -4.5 -13.75 -2.45 -14.35 L-2.35 -14.4 -2.15 -14.85 -0.45 -15.65 Q1.9 -16.55 3.45 -15.4 5.25 -14.0 5.9 -11.8 L8.0 -3.05 8.95 2.45 9.55 8.05 -6.5 7.85" fill="#740c0c" fill-rule="evenodd" stroke="none"/>
    <path d="M-8.15 11.55 Q-11.2 14.05 -13.65 10.9 -13.8 7.1 -9.85 6.8 -8.85 7.35 -7.8 7.95 L-8.15 11.55 M11.5 7.45 L13.85 7.3 Q16.25 7.45 16.05 9.9 16.0 10.55 15.6 11.05 13.3 14.0 10.55 11.4 9.7 9.25 11.5 7.45 M-9.3 11.05 Q-8.75 10.5 -8.75 9.75 -8.75 9.0 -9.3 8.45 -9.85 7.9 -10.65 7.9 -11.45 7.9 -12.0 8.45 -12.55 9.0 -12.55 9.75 -12.55 10.5 -12.0 11.05 -11.45 11.6 -10.65 11.6 -9.85 11.6 -9.3 11.05 M14.45 8.45 Q13.9 7.9 13.1 7.9 12.3 7.9 11.75 8.45 11.2 9.0 11.2 9.75 11.2 10.5 11.75 11.05 12.3 11.6 13.1 11.6 13.9 11.6 14.45 11.05 15.0 10.5 15.0 9.75 15.0 9.0 14.45 8.45" fill="#ac0d0d" fill-rule="evenodd" stroke="none"/>
    <path d="M-9.3 11.05 Q-9.85 11.6 -10.65 11.6 -11.45 11.6 -12.0 11.05 -12.55 10.5 -12.55 9.75 -12.55 9.0 -12.0 8.45 -11.45 7.9 -10.65 7.9 -9.85 7.9 -9.3 8.45 -8.75 9.0 -8.75 9.75 -8.75 10.5 -9.3 11.05 M14.45 8.45 Q15.0 9.0 15.0 9.75 15.0 10.5 14.45 11.05 13.9 11.6 13.1 11.6 12.3 11.6 11.75 11.05 11.2 10.5 11.2 9.75 11.2 9.0 11.75 8.45 12.3 7.9 13.1 7.9 13.9 7.9 14.45 8.45" fill="#fabebe" fill-rule="evenodd" stroke="none"/>
  </g>
</svg>
