<?xml version="1.0" encoding="UTF-8" standalone="no"?>
<svg xmlns:xlink="http://www.w3.org/1999/xlink" height="53.35px" width="43.45px" xmlns="http://www.w3.org/2000/svg">
  <g transform="matrix(1.0, 0.0, 0.0, 1.0, 18.25, 28.1)">
    <path d="M20.55 6.15 Q20.7 0.85 20.1 -4.6 19.6 -9.25 18.35 -13.55 17.45 -16.65 14.3 -17.75 12.7 -16.6 12.45 -14.55 11.8 -8.45 12.3 -2.35 12.65 2.05 12.65 6.55 L8.6 6.5 6.55 5.3 5.45 5.55 Q2.15 7.6 3.75 11.25 L5.5 11.9 7.2 11.15 Q8.0 10.8 8.6 10.05 L12.45 10.0 11.95 14.4 11.95 14.45 -0.55 14.05 Q-0.5 14.7 0.3 14.85 L11.8 15.45 11.0 20.15 Q8.5 19.8 6.05 20.2 L5.4 20.5 10.8 21.15 10.1 24.1 -1.05 20.95 -6.75 19.0 Q-10.85 17.55 -13.75 15.35 L-14.3 12.35 -12.25 13.75 -12.2 13.65 -12.5 13.2 Q-12.3 12.7 -12.6 12.35 -15.05 8.95 -16.5 5.15 L-17.45 2.55 -13.4 -5.6 -13.95 -6.45 Q-13.6 -6.65 -13.65 -7.05 L-13.4 -9.45 Q-12.8 -11.7 -13.35 -14.05 -14.45 -18.6 -15.15 -23.2 -15.5 -25.35 -16.7 -27.1 L4.1 -23.65 4.05 -23.55 Q7.75 -21.85 11.6 -20.35 14.25 -19.25 16.45 -17.2 L18.5 -14.9 Q20.55 -12.05 21.2 -8.55 22.15 -3.15 21.8 2.6 L21.6 6.8 20.55 6.15 M22.0 11.2 Q21.15 11.0 21.05 11.9 L20.9 12.45 20.2 12.4 20.4 10.1 20.95 10.7 22.05 11.15 22.05 11.25 22.0 11.2 M20.05 13.75 L20.5 13.6 20.3 14.0 19.7 16.5 20.05 13.75 M-5.05 -14.3 Q-5.3 -10.6 -7.2 -7.4 L-7.6 -6.95 Q-6.95 -7.25 -6.45 -7.7 -6.0 -8.0 -5.7 -8.5 -4.15 -11.35 -4.85 -14.35 L-5.05 -14.3 M-10.8 -6.35 Q-10.75 -6.25 -10.55 -6.25 L-10.3 -6.3 -10.15 -6.6 Q-9.1 -10.05 -10.2 -13.45 L-11.05 -7.15 -10.8 -6.35 M-3.0 -0.7 Q-2.3 2.6 -3.15 5.9 L-3.8 7.9 Q-1.9 5.4 -2.15 2.35 -2.3 0.75 -2.8 -0.7 L-3.0 -0.7 M-1.3 6.45 Q-1.7 6.3 -1.85 6.9 L-2.9 10.65 Q-2.5 10.65 -2.3 10.3 -1.2 8.6 -1.2 6.65 L-1.3 6.45 M-12.15 14.8 Q-10.0 15.4 -8.1 14.3 L-7.75 14.0 -7.75 13.55 -12.5 14.4 -12.15 14.8" fill="#4a4f31" fill-rule="evenodd" stroke="none"/>
    <path d="M12.65 6.55 Q12.65 2.05 12.3 -2.35 11.8 -8.45 12.45 -14.55 12.7 -16.6 14.3 -17.75 17.45 -16.65 18.35 -13.55 19.6 -9.25 20.1 -4.6 20.7 0.85 20.55 6.15 L12.65 6.6 12.65 6.55 M10.1 24.1 L10.8 21.15 17.05 20.6 Q15.75 21.95 14.05 22.75 12.35 23.55 10.55 24.05 L10.1 24.1 M11.0 20.15 L11.8 15.45 20.05 13.75 19.7 16.5 19.65 16.8 18.3 18.7 11.0 20.15 M11.95 14.4 L12.45 10.0 18.25 9.85 18.6 10.2 20.4 10.1 20.2 12.4 Q19.2 13.1 18.15 13.3 L12.75 14.35 11.95 14.4" fill="#740c0c" fill-rule="evenodd" stroke="none"/>
    <path d="M20.55 6.15 L21.6 6.8 21.8 2.6 Q22.15 -3.15 21.2 -8.55 20.55 -12.05 18.5 -14.9 L16.45 -17.2 Q14.25 -19.25 11.6 -20.35 7.75 -21.85 4.05 -23.55 L5.05 -23.45 4.1 -23.65 -16.7 -27.1 Q-15.5 -25.35 -15.15 -23.2 -14.45 -18.6 -13.35 -14.05 -12.8 -11.7 -13.4 -9.45 L-13.65 -7.05 Q-13.6 -6.65 -13.95 -6.45 L-13.4 -5.6 -17.45 2.55 -16.5 5.15 Q-15.05 8.95 -12.6 12.35 -12.3 12.7 -12.5 13.2 L-12.2 13.65 -12.25 13.75 -14.3 12.35 -13.75 15.35 Q-10.85 17.55 -6.75 19.0 L-1.05 20.95 10.1 24.1 10.55 24.05 Q12.35 23.55 14.05 22.75 15.75 21.95 17.05 20.6 L10.8 21.15 5.4 20.5 6.05 20.2 Q8.5 19.8 11.0 20.15 L18.3 18.7 19.65 16.8 19.7 16.5 20.3 14.0 20.5 13.6 20.05 13.75 11.8 15.45 0.3 14.85 Q-0.5 14.7 -0.55 14.05 L11.95 14.45 12.75 14.35 18.15 13.3 Q19.2 13.1 20.2 12.4 L20.9 12.45 21.05 11.9 Q21.15 11.0 22.0 11.2 L22.4 11.8 22.25 12.3 21.6 14.75 Q21.15 17.05 19.85 19.1 17.65 22.75 13.9 24.55 11.65 25.6 9.4 25.1 L5.5 24.35 Q-2.5 22.65 -9.85 18.7 -11.75 17.75 -13.5 16.6 L-14.35 15.8 -15.1 15.0 -14.95 11.6 Q-17.55 7.35 -18.2 2.4 -18.3 1.65 -18.05 1.05 -16.55 -2.8 -15.4 -6.75 -14.8 -8.9 -15.1 -11.05 L-17.6 -26.95 -17.55 -27.45 -17.0 -27.4 -16.6 -28.1 -8.35 -27.1 -0.4 -25.65 6.95 -24.1 Q10.5 -23.1 13.9 -21.55 L15.2 -20.75 17.9 -18.25 Q20.6 -15.65 22.0 -12.3 L22.65 -10.05 23.15 -5.4 Q23.45 0.6 23.1 6.55 22.2 6.55 21.6 7.75 20.95 8.95 20.95 10.7 L20.4 10.1 18.6 10.2 18.25 9.85 12.45 10.0 8.6 10.05 8.6 6.5 12.65 6.55 12.65 6.6 20.55 6.15 M-16.7 -27.1 L-16.75 -27.1 -16.7 -27.1 M-12.15 14.8 L-12.5 14.4 -7.75 13.55 -7.75 14.0 -8.1 14.3 Q-10.0 15.4 -12.15 14.8 M-1.3 6.45 L-1.2 6.65 Q-1.2 8.6 -2.3 10.3 -2.5 10.65 -2.9 10.65 L-1.85 6.9 Q-1.7 6.3 -1.3 6.45 M-3.0 -0.7 L-2.8 -0.7 Q-2.3 0.75 -2.15 2.35 -1.9 5.4 -3.8 7.9 L-3.15 5.9 Q-2.3 2.6 -3.0 -0.7 M-10.8 -6.35 L-11.05 -7.15 -10.2 -13.45 Q-9.1 -10.05 -10.15 -6.6 L-10.3 -6.3 -10.55 -6.25 Q-10.75 -6.25 -10.8 -6.35 M-5.05 -14.3 L-4.85 -14.35 Q-4.15 -11.35 -5.7 -8.5 -6.0 -8.0 -6.45 -7.7 -6.95 -7.25 -7.6 -6.95 L-7.2 -7.4 Q-5.3 -10.6 -5.05 -14.3" fill="#000000" fill-rule="evenodd" stroke="none"/>
    <path d="M8.6 10.05 Q8.0 10.8 7.2 11.15 L5.5 11.9 3.75 11.25 Q2.15 7.6 5.45 5.55 L6.55 5.3 8.6 6.5 8.6 10.05 M22.4 11.8 L22.0 11.2 22.05 11.25 22.3 11.4 22.4 11.8 M23.5 8.7 L23.2 7.75 Q22.9 7.35 22.5 7.4 22.1 7.35 21.8 7.75 21.5 8.15 21.5 8.7 21.5 9.25 21.8 9.65 22.1 10.0 22.5 10.0 22.9 10.0 23.2 9.65 L23.5 8.7 M23.1 6.55 Q24.2 6.85 24.8 7.65 25.35 8.45 25.1 9.35 24.85 10.25 23.95 10.8 23.05 11.3 22.05 11.15 L20.95 10.7 Q20.95 8.95 21.6 7.75 22.2 6.55 23.1 6.55 M4.8 9.95 Q5.35 10.5 6.15 10.55 6.95 10.5 7.5 9.95 8.05 9.4 8.05 8.65 8.05 7.9 7.5 7.35 6.95 6.75 6.15 6.8 5.35 6.75 4.8 7.35 4.25 7.9 4.25 8.65 4.25 9.4 4.8 9.95" fill="#ac0d0d" fill-rule="evenodd" stroke="none"/>
    <path d="M23.5 8.7 L23.2 9.65 Q22.9 10.0 22.5 10.0 22.1 10.0 21.8 9.65 21.5 9.25 21.5 8.7 21.5 8.15 21.8 7.75 22.1 7.35 22.5 7.4 22.9 7.35 23.2 7.75 L23.5 8.7 M4.8 9.95 Q4.25 9.4 4.25 8.65 4.25 7.9 4.8 7.35 5.35 6.75 6.15 6.8 6.95 6.75 7.5 7.35 8.05 7.9 8.05 8.65 8.05 9.4 7.5 9.95 6.95 10.5 6.15 10.55 5.35 10.5 4.8 9.95" fill="#fabebe" fill-rule="evenodd" stroke="none"/>
  </g>
</svg>
