<?xml version="1.0" encoding="UTF-8" standalone="no"?>
<svg xmlns:xlink="http://www.w3.org/1999/xlink" height="60.45px" width="45.8px" xmlns="http://www.w3.org/2000/svg">
  <g transform="matrix(1.0, 0.0, 0.0, 1.0, 24.2, 30.75)">
    <path d="M8.45 -17.75 L8.7 -17.0 7.8 -16.55 0.7 -27.2 Q-0.35 -28.7 -2.0 -29.35 -5.7 -23.7 -10.5 -18.9 L-12.65 -17.2 -12.7 -17.25 -12.65 -17.3 -12.45 -17.7 -12.8 -17.35 -15.75 -14.75 -19.05 2.05 -15.65 -6.25 Q-16.35 -1.75 -18.25 2.6 L-18.5 3.15 -19.45 4.75 -19.2 3.8 -23.1 9.65 -18.7 18.1 Q-19.7 11.85 -17.9 6.15 L-17.75 6.85 -18.1 7.2 Q-18.15 13.2 -17.0 19.1 -16.65 20.7 -15.15 21.9 L-11.4 24.55 -9.95 25.3 -9.75 25.35 -9.3 25.6 -0.55 28.7 5.75 25.75 Q9.65 24.5 12.85 22.05 14.25 21.0 14.6 19.55 15.3 16.6 15.3 13.55 L15.1 7.45 Q16.9 12.5 15.75 18.05 L15.35 19.2 15.9 18.1 Q18.35 14.6 19.65 10.5 L20.45 7.75 17.55 3.15 17.45 3.0 17.45 3.15 17.1 4.4 12.75 -7.05 16.0 0.5 Q16.2 -7.65 11.35 -14.3 L8.5 -17.8 8.45 -17.85 8.45 -17.75 M7.85 -19.4 L8.4 -19.0 9.05 -18.9 Q12.65 -15.35 14.8 -11.1 16.5 -7.65 17.3 -3.9 18.15 0.1 19.8 3.9 20.55 5.65 21.6 7.3 20.9 13.4 17.4 18.45 L17.3 18.75 16.5 19.05 15.8 21.5 Q8.9 26.6 0.75 29.1 L-1.0 29.7 -1.15 29.4 Q-4.6 29.4 -7.55 27.85 L-14.25 24.5 Q-17.3 22.8 -19.15 20.0 L-20.95 17.5 Q-23.1 14.6 -24.05 11.15 -24.6 9.0 -23.25 7.1 L-20.3 3.35 -17.0 -15.55 -10.85 -20.55 Q-9.05 -22.05 -7.55 -23.85 -5.85 -25.85 -4.65 -28.2 L-1.85 -30.75 Q-0.4 -30.35 0.55 -29.1 L7.6 -19.65 7.85 -19.4 M6.7 22.7 Q-1.2 26.05 -8.95 23.8 -1.4 24.0 6.05 22.35 L6.05 22.25 6.55 22.55 6.7 22.7 M7.9 13.0 L8.0 13.15 Q5.35 14.1 2.8 15.45 L2.6 15.55 -5.0 15.95 Q1.6 16.25 6.95 12.7 L7.9 13.0 M10.5 20.55 L-13.5 20.85 Q-14.55 20.85 -15.0 20.3 -4.5 21.1 5.65 19.75 L10.55 20.35 10.5 20.55 M-19.05 2.05 L-19.1 2.1 -19.05 2.05" fill="#000000" fill-rule="evenodd" stroke="none"/>
    <path d="M-12.65 -17.3 L-12.7 -17.25 -12.65 -17.2 -10.5 -18.9 Q-5.7 -23.7 -2.0 -29.35 -0.35 -28.7 0.7 -27.2 L7.8 -16.55 8.7 -17.0 8.45 -17.75 8.5 -17.8 11.35 -14.3 Q16.2 -7.65 16.0 0.5 L12.75 -7.05 17.1 4.4 17.45 3.15 17.55 3.15 20.45 7.75 19.65 10.5 Q18.35 14.6 15.9 18.1 L15.75 18.05 Q16.9 12.5 15.1 7.45 L15.3 13.55 Q15.3 16.6 14.6 19.55 14.25 21.0 12.85 22.05 9.65 24.5 5.75 25.75 L-0.55 28.7 -9.3 25.6 -9.75 25.35 -9.95 25.3 -11.4 24.55 -15.15 21.9 Q-16.65 20.7 -17.0 19.1 -18.15 13.2 -18.1 7.2 L-17.75 6.85 -17.9 6.15 Q-19.7 11.85 -18.7 18.1 L-23.1 9.65 -19.2 3.8 -19.45 4.75 -18.5 3.15 -18.25 2.6 Q-16.35 -1.75 -15.65 -6.25 L-19.05 2.05 -15.75 -14.75 -12.8 -17.35 -12.65 -17.3 M7.9 13.0 L6.95 12.7 Q1.6 16.25 -5.0 15.95 L2.6 15.55 2.8 15.45 Q5.35 14.1 8.0 13.15 L7.9 13.0 M6.7 22.7 L6.55 22.55 6.05 22.25 6.05 22.35 Q-1.4 24.0 -8.95 23.8 -1.2 26.05 6.7 22.7 M10.5 20.55 L10.55 20.35 5.65 19.75 Q-4.5 21.1 -15.0 20.3 -14.55 20.85 -13.5 20.85 L10.5 20.55" fill="#4a4f31" fill-rule="evenodd" stroke="none"/>
  </g>
</svg>
