<?xml version="1.0" encoding="UTF-8" standalone="no"?>
<svg xmlns:xlink="http://www.w3.org/1999/xlink" height="57.65px" width="44.95px" xmlns="http://www.w3.org/2000/svg">
  <g transform="matrix(1.0, 0.0, 0.0, 1.0, 22.25, 51.45)">
    <path d="M20.95 -13.4 Q20.8 -15.8 20.95 -18.2 21.15 -22.05 20.55 -25.75 L19.6 -30.7 19.55 -30.8 Q18.6 -34.6 15.75 -36.7 14.7 -37.5 13.45 -38.05 L8.85 -39.95 3.0 -41.85 2.35 -42.05 1.8 -42.2 1.1 -42.5 1.05 -42.55 -0.6 -43.6 -2.3 -44.65 -3.7 -45.55 -11.2 -49.75 -11.25 -49.75 -11.5 -49.9 Q-13.7 -46.3 -14.6 -42.05 -15.35 -38.5 -15.55 -34.9 L-15.6 -31.8 -15.75 -31.6 -15.2 -27.45 -14.95 -25.15 -14.8 -23.4 -13.65 -26.0 -10.6 -32.4 -10.45 -32.5 -10.25 -32.3 Q-11.2 -29.35 -12.45 -26.55 L-13.3 -24.7 -13.15 -24.65 -12.75 -24.85 -11.7 -26.0 Q-8.75 -29.15 -6.1 -32.55 L-6.05 -32.55 -5.9 -32.35 -5.8 -32.2 Q-7.8 -28.55 -10.7 -25.65 L-13.45 -23.35 -15.3 -21.75 -15.85 -21.2 -16.8 -20.25 -17.75 -19.2 -19.25 -17.7 -20.3 -16.45 Q-18.65 -12.45 -16.0 -8.9 L-15.3 -8.6 Q-12.75 -7.45 -9.95 -6.75 L-9.8 -6.6 -9.7 -6.2 -9.65 -6.05 -9.85 -5.85 Q-12.85 -6.0 -15.25 -7.3 L-15.3 -7.25 -15.35 -7.25 -15.35 -7.2 -15.45 -7.1 -15.35 -6.95 Q-14.5 -5.9 -13.1 -5.3 L-12.75 -5.15 -12.55 -4.75 -12.4 -4.55 -12.85 -4.4 -13.1 -4.35 Q-14.4 -4.8 -15.35 -5.7 L-15.6 -5.95 -15.65 -5.5 -15.65 -5.15 -15.45 -5.0 Q-8.6 -0.65 -0.75 2.05 L5.5 4.35 7.5 5.15 8.05 5.4 8.5 5.15 8.55 5.1 9.65 4.9 13.85 3.1 17.35 0.9 17.4 0.75 17.45 0.55 17.15 0.7 13.9 1.35 Q9.7 1.7 5.5 1.45 L5.45 1.45 1.9 0.85 Q0.95 0.65 0.7 -0.05 L5.45 0.4 5.7 0.45 Q12.3 1.45 18.25 -0.85 L18.45 -0.9 18.8 -1.05 19.7 -2.95 19.7 -3.4 19.95 -6.3 Q19.5 -5.85 18.45 -5.55 L18.15 -5.45 Q12.45 -4.05 6.6 -4.25 L6.4 -4.25 3.65 -4.45 -1.6 -5.15 Q-2.35 -5.25 -2.7 -5.7 0.8 -6.0 4.45 -5.6 L6.55 -5.4 17.4 -6.35 18.5 -6.65 19.8 -6.95 20.0 -7.0 20.15 -8.15 21.65 -8.55 21.65 -7.15 21.5 -5.5 Q21.75 -3.15 20.9 -1.0 L20.8 -0.8 20.65 -0.7 20.6 -0.65 Q20.15 0.5 18.8 1.35 L17.7 2.4 12.35 5.05 11.15 5.45 10.5 5.55 10.3 5.75 10.1 5.95 8.35 6.05 8.05 6.2 Q-0.5 3.55 -8.75 -0.05 -12.4 -1.65 -15.8 -3.65 L-16.35 -4.15 Q-17.05 -4.2 -17.35 -5.0 -17.1 -6.7 -17.4 -8.15 L-18.6 -9.65 -20.6 -13.6 -20.65 -13.65 Q-21.5 -14.65 -21.85 -15.75 L-22.25 -16.35 -22.05 -16.85 -22.1 -17.55 -21.8 -18.0 Q-19.95 -19.3 -18.6 -21.35 L-17.0 -23.35 Q-17.25 -28.25 -17.0 -33.2 L-16.75 -35.95 -16.55 -39.35 Q-16.2 -43.0 -15.0 -46.55 -14.1 -49.2 -12.25 -51.3 L-11.8 -51.4 -11.8 -51.45 Q-10.9 -51.35 -10.2 -50.75 L-10.1 -50.65 -8.3 -49.7 Q-3.45 -47.65 1.25 -45.1 L12.4 -40.8 Q20.6 -37.4 21.75 -28.85 22.3 -24.85 22.35 -20.75 22.35 -17.35 22.65 -13.9 L22.7 -12.6 Q22.1 -13.2 20.95 -13.4 M6.7 -8.3 L6.4 -8.3 2.9 -8.05 2.1 -7.9 2.0 -7.85 1.95 -7.85 Q2.6 -8.7 2.8 -9.85 3.05 -11.45 2.5 -12.45 L4.65 -12.15 6.75 -12.2 7.15 -12.2 7.55 -12.15 8.2 -12.05 17.9 -12.45 18.1 -12.45 18.25 -12.4 Q17.4 -11.5 17.8 -9.8 L17.75 -9.6 17.8 -9.75 18.1 -9.4 18.45 -8.95 18.35 -8.9 18.0 -9.0 17.95 -9.05 17.65 -9.0 7.5 -8.3 6.7 -8.3 M-5.8 -13.7 Q-5.2 -9.85 -8.1 -7.1 L-8.25 -6.95 -8.6 -6.85 Q-6.1 -9.8 -5.9 -13.65 L-5.8 -13.7 M-7.1 -17.8 Q-5.9 -12.6 -9.35 -8.5 L-9.6 -8.4 Q-6.5 -13.6 -8.3 -19.4 L-8.6 -20.2 -9.3 -20.65 -9.2 -20.7 Q-7.6 -19.85 -7.1 -17.8" fill="#000000" fill-rule="evenodd" stroke="none"/>
    <path d="M-15.3 -7.25 L-15.25 -7.3 Q-12.85 -6.0 -9.85 -5.85 L-9.65 -6.05 -9.7 -6.2 -9.8 -6.6 -9.95 -6.75 Q-12.75 -7.45 -15.3 -8.6 L-16.0 -8.9 Q-18.65 -12.45 -20.3 -16.45 L-19.25 -17.7 -17.75 -19.2 -16.8 -20.25 -15.85 -21.2 -15.3 -21.75 -13.45 -23.35 -10.7 -25.65 Q-7.8 -28.55 -5.8 -32.2 L-5.9 -32.35 -6.05 -32.55 -6.1 -32.55 Q-8.75 -29.15 -11.7 -26.0 L-12.75 -24.85 -13.15 -24.65 -13.3 -24.7 -12.45 -26.55 Q-11.2 -29.35 -10.25 -32.3 L-10.45 -32.5 -10.6 -32.4 -13.65 -26.0 -14.8 -23.4 -14.95 -25.15 -15.2 -27.45 -15.75 -31.6 -15.6 -31.8 -15.55 -34.9 Q-15.35 -38.5 -14.6 -42.05 -13.7 -46.3 -11.5 -49.9 L-11.25 -49.75 -11.2 -49.75 -3.7 -45.55 -2.3 -44.65 -0.6 -43.6 1.05 -42.55 1.1 -42.5 1.8 -42.2 2.35 -42.05 3.0 -41.85 8.85 -39.95 13.45 -38.05 Q14.7 -37.5 15.75 -36.7 18.6 -34.6 19.55 -30.8 L19.6 -30.7 20.55 -25.75 Q21.15 -22.05 20.95 -18.2 20.8 -15.8 20.95 -13.4 L20.95 -13.35 20.8 -13.4 20.55 -13.35 20.3 -13.25 20.1 -13.3 20.0 -13.25 19.65 -13.15 Q18.9 -12.85 18.25 -12.35 L18.25 -12.4 18.1 -12.45 17.9 -12.45 Q17.55 -18.7 16.8 -24.85 16.25 -29.5 14.15 -33.65 12.85 -36.35 10.1 -36.45 8.25 -36.35 7.3 -34.7 L6.85 -33.3 6.3 -31.1 Q5.95 -30.0 6.0 -28.9 L6.65 -14.0 6.75 -12.2 4.65 -12.15 2.5 -12.45 2.45 -12.45 2.45 -12.4 1.95 -12.3 1.9 -12.25 1.5 -12.6 Q1.3 -13.15 0.4 -13.2 L-0.6 -12.9 -1.05 -12.75 Q-3.55 -11.7 -2.95 -9.05 -2.15 -7.65 -0.55 -7.45 0.95 -7.25 1.9 -7.9 L1.95 -7.85 2.0 -7.85 2.1 -7.9 2.9 -8.05 6.4 -8.3 6.7 -8.3 6.55 -5.4 4.45 -5.6 Q0.8 -6.0 -2.7 -5.7 -2.35 -5.25 -1.6 -5.15 L3.65 -4.45 6.4 -4.25 5.7 0.45 5.45 0.4 0.7 -0.05 Q0.95 0.65 1.9 0.85 L5.45 1.45 5.5 1.45 4.8 4.1 5.5 4.35 -0.75 2.05 Q-8.6 -0.65 -15.45 -5.0 L-15.65 -5.15 -15.65 -5.5 -15.6 -5.95 -15.35 -5.7 Q-14.4 -4.8 -13.1 -4.35 L-12.85 -4.4 -12.4 -4.55 -12.55 -4.75 -12.75 -5.15 -13.1 -5.3 Q-14.5 -5.9 -15.35 -6.95 L-15.45 -7.1 -15.35 -7.2 -15.3 -7.25 M20.15 -8.15 L20.0 -7.0 19.8 -6.95 18.5 -6.65 17.4 -6.35 18.1 -6.55 18.0 -9.0 18.35 -8.9 18.45 -8.95 18.5 -9.0 Q19.0 -8.55 19.8 -8.5 L20.15 -8.5 20.15 -8.2 20.15 -8.15 M18.15 -5.45 L18.45 -5.55 Q19.5 -5.85 19.95 -6.3 L19.7 -3.4 19.7 -2.95 18.8 -1.05 18.45 -0.9 18.25 -0.85 18.15 -5.45 M-7.1 -17.8 Q-7.6 -19.85 -9.2 -20.7 L-9.3 -20.65 -8.6 -20.2 -8.3 -19.4 Q-6.5 -13.6 -9.6 -8.4 L-9.35 -8.5 Q-5.9 -12.6 -7.1 -17.8 M-5.8 -13.7 L-5.9 -13.65 Q-6.1 -9.8 -8.6 -6.85 L-8.25 -6.95 -8.1 -7.1 Q-5.2 -9.85 -5.8 -13.7" fill="#4a4f31" fill-rule="evenodd" stroke="none"/>
    <path d="M5.5 4.35 L4.8 4.1 5.5 1.45 Q9.7 1.7 13.9 1.35 L17.15 0.7 17.45 0.55 17.4 0.75 17.35 0.9 13.85 3.1 9.65 4.9 8.55 5.1 8.5 5.15 8.05 5.4 7.5 5.15 5.5 4.35 M5.7 0.45 L6.4 -4.25 6.6 -4.25 Q12.45 -4.05 18.15 -5.45 L18.25 -0.85 Q12.3 1.45 5.7 0.45 M6.55 -5.4 L6.7 -8.3 7.5 -8.3 17.65 -9.0 17.95 -9.05 18.0 -9.0 18.1 -6.55 17.4 -6.35 6.55 -5.4 M6.75 -12.2 L6.65 -14.0 6.0 -28.9 Q5.95 -30.0 6.3 -31.1 L6.85 -33.3 7.3 -34.7 Q8.25 -36.35 10.1 -36.45 12.85 -36.35 14.15 -33.65 16.25 -29.5 16.8 -24.85 17.55 -18.7 17.9 -12.45 L8.2 -12.05 7.55 -12.15 7.15 -12.2 6.75 -12.2" fill="#740c0c" fill-rule="evenodd" stroke="none"/>
    <path d="M20.9 -9.55 L21.0 -9.6 21.0 -9.55 20.9 -9.55" fill="#ffff66" fill-rule="evenodd" stroke="none"/>
    <path d="M1.5 -9.65 L1.15 -9.15 0.4 -8.7 Q-0.15 -8.55 -0.6 -8.7 L-1.6 -9.4 -1.9 -9.6 -2.0 -10.15 -1.9 -10.45 -1.8 -10.5 -1.8 -10.55 Q-1.2 -11.8 0.3 -12.05 2.15 -11.55 1.5 -9.65 M20.9 -9.55 L20.45 -9.25 19.85 -9.15 Q19.1 -9.25 18.65 -10.15 18.4 -10.65 18.45 -11.0 L18.4 -11.1 18.45 -11.3 18.5 -11.45 19.25 -12.1 19.95 -12.25 20.65 -12.1 20.7 -11.8 Q21.7 -11.0 21.0 -9.6 L20.9 -9.55" fill="#fabebe" fill-rule="evenodd" stroke="none"/>
    <path d="M17.8 -9.75 L17.75 -9.6 17.8 -9.8 17.8 -9.75" fill="#f02f2f" fill-rule="evenodd" stroke="none"/>
    <path d="M1.95 -7.85 L1.9 -7.9 Q0.95 -7.25 -0.55 -7.45 -2.15 -7.65 -2.95 -9.05 -3.55 -11.7 -1.05 -12.75 L-0.6 -12.9 0.4 -13.2 Q1.3 -13.15 1.5 -12.6 L1.9 -12.25 1.95 -12.3 2.45 -12.4 2.45 -12.45 2.5 -12.45 Q3.05 -11.45 2.8 -9.85 2.6 -8.7 1.95 -7.85 M18.25 -12.4 L18.25 -12.35 Q18.9 -12.85 19.65 -13.15 L20.0 -13.25 20.1 -13.3 20.3 -13.25 20.55 -13.35 20.8 -13.4 20.95 -13.35 20.95 -13.4 Q22.1 -13.2 22.7 -12.6 L22.55 -11.3 22.4 -9.85 Q22.2 -9.05 21.65 -8.7 L21.65 -8.55 20.15 -8.15 20.15 -8.2 20.15 -8.5 19.8 -8.5 Q19.0 -8.55 18.5 -9.0 L18.45 -8.95 18.1 -9.4 17.8 -9.75 17.8 -9.8 Q17.4 -11.5 18.25 -12.4 M1.5 -9.65 Q2.15 -11.55 0.3 -12.05 -1.2 -11.8 -1.8 -10.55 L-1.8 -10.5 -1.9 -10.45 -2.0 -10.15 -1.9 -9.6 -1.6 -9.4 -0.6 -8.7 Q-0.15 -8.55 0.4 -8.7 L1.15 -9.15 1.5 -9.65 M21.0 -9.6 Q21.7 -11.0 20.7 -11.8 L20.65 -12.1 19.95 -12.25 19.25 -12.1 18.5 -11.45 18.45 -11.3 18.4 -11.1 18.45 -11.0 Q18.4 -10.65 18.65 -10.15 19.1 -9.25 19.85 -9.15 L20.45 -9.25 20.9 -9.55 21.0 -9.55 21.0 -9.6" fill="#ac0d0d" fill-rule="evenodd" stroke="none"/>
  </g>
</svg>
