<?xml version="1.0" encoding="UTF-8" standalone="no"?>
<svg xmlns:xlink="http://www.w3.org/1999/xlink" height="31.25px" width="26.2px" xmlns="http://www.w3.org/2000/svg">
  <g transform="matrix(1.0, 0.0, 0.0, 1.0, 13.8, 14.75)">
    <path d="M12.3 -12.9 L11.95 -12.4 12.25 15.0 10.4 15.8 3.0 16.5 -11.95 15.2 -13.8 -11.0 -7.15 -12.3 10.8 -14.75 12.4 -14.15 12.2 -13.65 12.3 -12.9 M10.45 3.95 L10.4 -6.75 Q9.5 -4.45 8.1 -2.6 L8.25 -2.55 7.85 4.6 Q7.7 7.95 7.7 11.3 L7.7 11.55 -8.35 12.75 Q-8.9 9.15 -8.85 5.6 L-8.75 2.85 -8.75 2.4 -8.15 2.45 Q-8.0 2.45 -7.95 2.6 L-8.15 5.65 Q-8.2 8.5 -7.85 11.4 L-7.85 11.65 6.55 10.75 7.2 4.75 7.5 -1.9 Q5.95 -0.1 3.9 1.15 -0.85 4.0 -5.75 1.6 L-8.9 -0.25 Q-7.2 -0.5 -5.85 0.15 -3.7 1.3 -1.1 1.7 2.1 1.6 4.8 -0.55 9.15 -3.95 10.3 -9.6 L10.9 -13.7 -12.2 -10.25 -11.3 5.3 -10.65 14.1 Q3.15 16.7 10.65 14.2 L10.45 3.95 M3.85 -5.4 Q4.95 -7.05 6.05 -6.5 3.5 -1.3 -2.35 -1.3 -7.35 -1.3 -9.5 -5.25 L-8.6 -4.7 -7.4 -4.0 Q-2.7 -1.1 2.1 -3.8 3.15 -4.4 3.85 -5.4" fill="#000000" fill-rule="evenodd" stroke="none"/>
    <path d="M7.85 4.6 L8.25 -2.55 8.1 -2.6 Q9.5 -4.45 10.4 -6.75 L10.45 3.95 7.85 4.6 M-11.3 5.3 L-12.2 -10.25 10.9 -13.7 10.3 -9.6 Q9.15 -3.95 4.8 -0.55 2.1 1.6 -1.1 1.7 -3.7 1.3 -5.85 0.15 -7.2 -0.5 -8.9 -0.25 L-5.75 1.6 Q-0.85 4.0 3.9 1.15 5.95 -0.1 7.5 -1.9 L7.2 4.75 5.25 5.1 -8.15 5.65 -7.95 2.6 Q-8.0 2.45 -8.15 2.45 L-8.75 2.4 -8.75 2.85 -8.85 5.6 -11.3 5.3 M3.85 -5.4 Q3.15 -4.4 2.1 -3.8 -2.7 -1.1 -7.4 -4.0 L-8.6 -4.7 -9.5 -5.25 Q-7.35 -1.3 -2.35 -1.3 3.5 -1.3 6.05 -6.5 4.95 -7.05 3.85 -5.4" fill="#41442b" fill-rule="evenodd" stroke="none"/>
    <path d="M7.85 4.6 L10.45 3.95 10.65 14.2 Q3.15 16.7 -10.65 14.1 L-11.3 5.3 -8.85 5.6 Q-8.9 9.15 -8.35 12.75 L7.7 11.55 7.7 11.3 Q7.7 7.95 7.85 4.6 M7.2 4.75 L6.55 10.75 -7.85 11.65 -7.85 11.4 Q-8.2 8.5 -8.15 5.65 L5.25 5.1 7.2 4.75" fill="#640b0b" fill-rule="evenodd" stroke="none"/>
  </g>
</svg>
