<?xml version="1.0" encoding="UTF-8" standalone="no"?>
<svg xmlns:xlink="http://www.w3.org/1999/xlink" height="33.0px" width="9.2px" xmlns="http://www.w3.org/2000/svg">
  <g transform="matrix(1.0, 0.0, 0.0, 1.0, 2.95, 16.1)">
    <path d="M3.95 5.4 L4.0 2.4 2.65 3.4 2.15 3.2 Q1.5 2.9 1.1 2.1 L0.8 1.55 0.9 1.55 2.4 2.5 Q3.0 2.7 3.55 2.1 L4.05 1.45 4.05 0.95 4.3 0.4 4.3 -0.2 Q5.05 -1.4 5.15 -3.35 5.25 -7.4 4.15 -11.1 L4.05 -8.95 3.55 -3.85 3.05 -2.45 2.65 -1.85 1.7 -1.95 0.6 -4.85 Q0.1 -6.35 -0.1 -8.0 L-0.3 -9.8 1.75 -2.9 3.0 -3.3 Q3.75 -8.15 3.4 -13.15 L3.35 -14.15 2.75 -14.4 Q0.9 -15.2 -1.0 -14.75 L-1.2 -14.75 -1.85 -13.55 -1.85 -12.7 -2.1 -12.1 -1.7 5.5 -1.45 15.5 1.25 15.15 2.4 14.85 3.8 14.35 3.95 5.4 M2.4 -16.05 L3.65 -15.4 Q5.9 -10.95 6.25 -5.0 6.35 -2.5 5.65 -0.15 5.3 1.15 5.2 2.45 4.9 6.8 4.95 11.15 L4.95 14.95 Q2.3 16.45 -0.45 16.9 -1.45 16.7 -2.3 15.7 L-2.3 14.4 -2.5 13.95 -2.9 -6.55 -2.9 -14.25 Q-1.35 -16.4 0.8 -16.05 L2.4 -16.05" fill="#000000" fill-rule="evenodd" stroke="none"/>
    <path d="M-1.0 -14.75 L-1.2 -14.75 -1.0 -14.75" fill="#740c0c" fill-rule="evenodd" stroke="none"/>
    <path d="M-1.7 5.5 Q1.3 6.65 3.95 5.4 L3.8 14.35 2.4 14.85 1.25 15.15 -1.45 15.5 -1.7 5.5" fill="#640b0b" fill-rule="evenodd" stroke="none"/>
    <path d="M-1.0 -14.75 Q0.9 -15.2 2.75 -14.4 L3.35 -14.15 3.4 -13.15 Q3.75 -8.15 3.0 -3.3 L1.75 -2.9 -0.3 -9.8 -0.1 -8.0 Q0.1 -6.35 0.6 -4.85 L1.7 -1.95 2.65 -1.85 3.05 -2.45 3.55 -3.85 4.05 -8.95 4.15 -11.1 Q5.25 -7.4 5.15 -3.35 5.05 -1.4 4.3 -0.2 L4.3 0.4 4.05 0.95 4.05 1.45 3.55 2.1 Q3.0 2.7 2.4 2.5 L0.9 1.55 0.8 1.55 1.1 2.1 Q1.5 2.9 2.15 3.2 L2.65 3.4 4.0 2.4 3.95 5.4 Q1.3 6.65 -1.7 5.5 L-2.1 -12.1 -1.85 -12.7 -1.85 -13.55 -1.2 -14.75 -1.0 -14.75" fill="#41442b" fill-rule="evenodd" stroke="none"/>
  </g>
</svg>
