<?xml version="1.0" encoding="UTF-8" standalone="no"?>
<svg xmlns:xlink="http://www.w3.org/1999/xlink" height="37.7px" width="29.35px" xmlns="http://www.w3.org/2000/svg">
  <g transform="matrix(1.0, 0.0, 0.0, 1.0, 14.7, 18.85)">
    <path d="M7.45 -13.9 L7.6 -13.6 8.3 -12.9 8.65 -12.35 8.7 -12.15 9.85 -9.45 Q10.95 -5.8 11.55 -2.0 L11.7 -1.25 12.15 3.1 10.15 2.4 Q7.3 1.65 4.3 1.45 L1.3 1.75 -6.2 1.0 -6.8 1.1 Q-9.85 1.1 -12.5 2.45 L-11.95 -3.25 -11.85 -3.9 -11.0 -7.8 -10.9 -8.2 -10.25 -9.75 Q-9.9 -11.3 -9.15 -12.6 -7.55 -15.05 -4.75 -16.4 L-4.65 -16.45 -4.1 -16.6 Q2.45 -18.25 7.45 -13.9 M2.7 -6.95 L2.05 -6.7 Q1.05 -6.15 0.65 -5.05 0.6 -4.45 0.8 -3.95 1.8 -1.7 3.75 -0.1 4.45 0.5 5.3 0.25 8.75 -1.0 9.1 -4.4 9.25 -5.55 8.35 -6.25 6.45 -7.75 5.1 -5.7 L4.95 -5.8 Q4.1 -6.9 2.7 -6.95 M1.95 6.35 L-1.1 7.7 Q-7.9 10.5 -11.95 16.3 L-12.0 15.45 -12.25 12.6 -12.45 7.8 -10.7 7.2 -10.25 7.1 0.0 6.2 1.95 6.2 1.95 6.35 M12.65 7.5 L12.6 7.7 12.75 8.1 Q13.3 10.7 13.35 13.3 L11.95 11.6 Q9.45 8.7 6.2 7.1 L4.1 6.25 Q8.45 6.5 12.65 7.5" fill="#ffffff" fill-rule="evenodd" stroke="none"/>
    <path d="M7.45 -13.9 Q2.45 -18.25 -4.1 -16.6 L-4.65 -16.45 -4.75 -16.4 Q-7.55 -15.05 -9.15 -12.6 -9.9 -11.3 -10.25 -9.75 L-10.9 -8.2 -11.0 -7.8 -11.85 -3.9 -11.95 -3.25 -12.5 2.45 Q-9.85 1.1 -6.8 1.1 L-6.2 1.0 1.3 1.75 4.3 1.45 Q7.3 1.65 10.15 2.4 L12.15 3.1 11.7 -1.25 11.55 -2.0 Q10.95 -5.8 9.85 -9.45 L8.7 -12.15 8.65 -12.35 8.3 -12.9 7.6 -13.6 7.45 -13.9 M12.35 -4.95 Q13.3 0.0 13.55 5.1 14.65 6.85 14.1 8.95 L14.1 9.35 14.25 10.55 Q14.9 12.75 14.55 14.85 L14.5 16.45 14.45 16.6 14.35 16.65 14.25 16.7 13.3 15.2 13.3 15.05 13.2 15.0 12.9 14.6 12.85 14.5 12.8 14.3 Q9.3 9.7 4.3 6.8 L4.35 6.7 Q-1.05 8.35 -6.05 11.6 -9.65 13.95 -11.7 17.75 L-11.7 17.9 -11.55 18.2 -11.7 18.35 -11.8 18.7 -11.9 18.75 -12.15 18.85 -12.5 18.7 -12.6 18.25 -12.65 18.2 -12.85 17.35 -12.9 17.35 -13.15 17.1 Q-14.1 13.05 -13.8 8.85 -15.15 6.9 -14.5 4.25 L-14.4 3.95 -14.1 3.8 -13.75 1.45 Q-13.5 -3.0 -12.65 -7.4 -12.35 -9.15 -11.65 -10.85 L-10.0 -14.2 -9.95 -14.25 -9.7 -14.25 Q-7.85 -17.1 -4.6 -18.5 L-4.35 -18.55 -4.6 -18.35 -3.65 -18.8 Q-1.9 -18.95 -0.3 -18.75 6.15 -18.5 9.85 -13.1 L10.35 -12.25 Q11.9 -9.75 12.15 -6.6 L12.35 -4.95 M0.0 5.2 Q6.0 5.25 11.8 6.6 L12.6 6.9 12.75 6.8 13.05 6.85 13.1 6.8 13.25 6.75 13.3 6.7 13.3 6.65 Q13.2 5.65 12.1 5.45 6.95 2.95 1.1 2.55 L-1.9 2.35 Q-4.15 2.2 -6.3 2.4 L-7.6 2.35 -9.3 2.55 -10.1 2.6 -11.5 2.9 Q-12.9 3.35 -13.8 4.5 L-13.8 4.6 -13.95 5.1 -14.0 6.1 -14.0 6.45 -13.95 6.6 -13.9 6.75 -13.85 6.85 -13.7 6.9 -13.65 7.1 Q-12.55 7.15 -11.65 6.6 L-8.8 6.0 -0.7 5.25 0.0 5.2 M1.95 6.2 L0.0 6.2 -10.25 7.1 -10.7 7.2 -12.45 7.8 -12.25 12.6 -12.0 15.45 -11.95 16.3 Q-7.9 10.5 -1.1 7.7 L1.95 6.35 2.3 6.2 1.95 6.2 M12.15 3.6 L8.15 2.65 4.8 2.25 3.65 2.2 Q6.75 2.9 9.8 3.95 L12.2 5.0 12.15 3.6 M12.65 7.5 Q8.45 6.5 4.1 6.25 L6.2 7.1 Q9.45 8.7 11.95 11.6 L13.35 13.3 Q13.3 10.7 12.75 8.1 L12.6 7.7 12.65 7.5" fill="#000000" fill-rule="evenodd" stroke="none"/>
    <path d="M2.7 -6.95 Q4.1 -6.9 4.95 -5.8 L5.1 -5.7 Q6.45 -7.75 8.35 -6.25 9.25 -5.55 9.1 -4.4 8.75 -1.0 5.3 0.25 4.45 0.5 3.75 -0.1 1.8 -1.7 0.8 -3.95 0.6 -4.45 0.65 -5.05 1.05 -6.15 2.05 -6.7 L2.7 -6.95 M0.0 5.2 L-0.7 5.25 -8.8 6.0 -11.65 6.6 Q-12.55 7.15 -13.65 7.1 L-13.7 6.9 -13.85 6.85 -13.9 6.75 -13.95 6.6 -14.0 6.45 -14.0 6.1 -13.95 5.1 -13.8 4.6 -13.8 4.5 Q-12.9 3.35 -11.5 2.9 L-10.1 2.6 -9.3 2.55 -7.6 2.35 -6.3 2.4 Q-4.15 2.2 -1.9 2.35 L1.1 2.55 Q6.95 2.95 12.1 5.45 13.2 5.65 13.3 6.65 L13.3 6.7 13.25 6.75 13.1 6.8 13.05 6.85 12.75 6.8 12.6 6.9 11.8 6.6 Q6.0 5.25 0.0 5.2 M12.15 3.6 L12.2 5.0 9.8 3.95 Q6.75 2.9 3.65 2.2 L4.8 2.25 8.15 2.65 12.15 3.6" fill="#ff7575" fill-rule="evenodd" stroke="none"/>
  </g>
</svg>
