<?xml version="1.0" encoding="UTF-8" standalone="no"?>
<svg xmlns:xlink="http://www.w3.org/1999/xlink" height="40.7px" width="43.95px" xmlns="http://www.w3.org/2000/svg">
  <g transform="matrix(1.0, 0.0, 0.0, 1.0, 21.3, 34.2)">
    <path d="M15.1 -31.2 L17.35 -29.1 Q20.55 -26.2 22.0 -22.2 L22.65 -20.35 21.4 -15.75 17.4 -0.7 16.5 -0.15 Q13.65 1.8 10.4 3.4 L5.15 6.0 3.2 6.25 0.4 6.15 -2.15 5.3 Q-9.4 3.3 -15.85 -0.45 L-15.9 -0.65 -16.0 -0.85 Q-17.0 -1.25 -16.85 -1.6 L-18.15 -2.9 -19.1 -2.9 Q-22.1 -5.25 -21.0 -8.9 -20.55 -10.35 -20.35 -11.75 -19.4 -18.6 -17.6 -25.25 L-16.85 -27.9 Q-13.05 -32.6 -6.95 -33.2 L-1.1 -33.8 Q7.9 -35.35 15.1 -31.2 M4.05 -32.2 Q2.45 -32.6 0.6 -32.25 L-1.15 -31.95 Q-6.3 -31.65 -11.1 -29.45 -12.95 -28.7 -14.35 -27.35 L-14.55 -26.1 -14.35 -25.15 -14.35 -25.1 Q-14.6 -23.45 -13.9 -21.65 -12.25 -18.05 -8.7 -16.0 -4.5 -13.55 0.35 -12.5 10.0 -10.1 19.05 -14.3 L19.4 -14.5 20.85 -19.75 Q20.65 -23.5 17.85 -26.4 L16.0 -28.3 Q10.75 -32.05 4.05 -32.2 M14.9 -2.55 L15.25 -2.6 16.1 -2.7 19.25 -14.0 18.95 -13.8 10.9 -10.65 9.9 -4.85 9.7 -3.65 9.25 -1.25 12.7 -2.05 14.9 -2.55 M3.85 -5.95 L3.8 -5.95 2.9 -6.0 2.55 -6.35 -1.2 -10.15 -1.45 -10.3 -1.5 -10.2 -2.95 -4.8 -3.35 -3.3 -3.6 -2.5 -4.3 -2.15 -4.15 -2.1 -3.95 -1.9 -4.7 -1.25 Q-11.15 -3.55 -15.95 -8.4 L-15.95 -3.9 -16.6 -3.15 -16.65 -3.05 -12.75 -0.85 -12.8 -0.95 -12.8 -1.15 -12.75 -1.35 Q-12.6 -1.6 -12.2 -1.65 L-11.15 -1.7 Q-8.3 -0.5 -5.45 0.35 L-5.2 0.35 -4.9 0.5 -4.8 0.65 -4.8 0.85 -4.85 1.05 -4.95 1.25 -5.05 1.45 Q-7.8 1.45 -10.55 0.15 L-10.6 0.15 -6.75 2.1 -2.75 3.35 -2.7 3.35 -1.7 3.65 -0.5 4.0 0.0 4.15 0.05 4.2 Q0.75 4.7 1.5 4.65 L1.75 4.65 2.8 4.9 Q3.3 4.55 4.0 4.55 L5.8 3.8 6.8 3.4 8.8 2.35 6.3 2.4 6.15 2.2 6.1 2.0 Q8.55 1.0 11.35 1.05 L15.65 -1.0 15.85 -1.75 7.95 -0.05 8.35 -2.5 8.4 -2.8 9.4 -9.0 3.85 -5.95 M3.65 -7.65 L9.0 -10.7 Q4.2 -10.05 -0.55 -11.4 L3.65 -7.65 M2.2 2.0 L2.25 1.95 2.2 2.15 2.2 2.0 M-3.55 -6.7 L-2.0 -11.8 -4.3 -12.6 Q-10.3 -14.95 -14.15 -20.05 L-14.95 -22.8 -15.7 -25.45 -16.15 -24.85 -19.1 -11.9 -16.6 -11.4 -16.2 -9.8 -15.35 -9.1 -10.05 -5.7 -7.45 -4.05 -4.85 -2.4 -4.15 -4.7 -3.55 -6.7 M-19.75 -10.1 L-19.85 -10.1 -19.95 -9.85 Q-21.2 -8.15 -20.6 -6.0 L-19.6 -5.15 -18.1 -4.4 -17.45 -4.5 -17.75 -6.7 Q-17.5 -8.6 -18.1 -10.25 L-18.25 -10.3 -18.4 -11.2 -18.45 -10.4 -18.75 -10.45 -19.2 -10.5 -19.6 -10.3 -19.75 -10.1" fill="#000000" fill-rule="evenodd" stroke="none"/>
    <path d="M2.55 -6.35 L-2.95 -4.8 -1.5 -10.2 -1.2 -10.15 2.55 -6.35 M-3.35 -3.3 Q-0.25 -3.5 3.05 -5.25 L4.3 -4.5 Q6.35 -3.25 8.35 -2.5 L7.95 -0.05 15.85 -1.75 15.65 -1.0 11.35 1.05 Q8.55 1.0 6.1 2.0 L6.15 2.2 6.3 2.4 8.8 2.35 6.8 3.4 5.8 3.8 4.0 4.55 Q3.3 4.55 2.8 4.9 L1.75 4.65 1.5 4.65 Q0.75 4.7 0.05 4.2 L0.0 4.15 -0.5 4.0 -1.7 3.65 -2.7 3.35 -2.75 3.35 -6.75 2.1 -10.6 0.15 -10.55 0.15 Q-7.8 1.45 -5.05 1.45 L-4.95 1.25 -4.85 1.05 -4.8 0.85 -4.8 0.65 -4.9 0.5 -5.2 0.35 -5.45 0.35 Q-8.3 -0.5 -11.15 -1.7 L-12.2 -1.65 Q-12.6 -1.6 -12.75 -1.35 L-12.8 -1.15 -12.8 -0.95 -12.75 -0.85 -16.65 -3.05 -16.6 -3.15 -15.95 -3.9 -15.95 -8.4 Q-11.15 -3.55 -4.7 -1.25 L-3.95 -1.9 -4.15 -2.1 -4.3 -2.15 -3.6 -2.5 -3.35 -3.3 M8.4 -2.8 L8.5 -3.35 Q6.05 -4.6 3.85 -5.95 L9.4 -9.0 8.4 -2.8 M2.2 2.0 L2.2 2.15 2.25 1.95 2.2 2.0" fill="#ffffff" fill-rule="evenodd" stroke="none"/>
    <path d="M2.55 -6.35 L2.9 -6.0 3.8 -5.95 3.85 -5.95 Q6.05 -4.6 8.5 -3.35 L8.4 -2.8 8.35 -2.5 Q6.35 -3.25 4.3 -4.5 L3.05 -5.25 Q-0.25 -3.5 -3.35 -3.3 L-2.95 -4.8 2.55 -6.35" fill="#999999" fill-rule="evenodd" stroke="none"/>
    <path d="M4.05 -32.2 Q10.75 -32.05 16.0 -28.3 L17.85 -26.4 Q20.65 -23.5 20.85 -19.75 L19.4 -14.5 19.05 -14.3 Q10.0 -10.1 0.35 -12.5 -4.5 -13.55 -8.7 -16.0 -12.25 -18.05 -13.9 -21.65 -14.6 -23.45 -14.35 -25.1 L-14.35 -25.15 -14.55 -26.1 -14.35 -27.35 Q-12.95 -28.7 -11.1 -29.45 -6.3 -31.65 -1.15 -31.95 L0.6 -32.25 Q2.45 -32.6 4.05 -32.2" fill="#feb6b6" fill-rule="evenodd" stroke="none"/>
    <path d="M9.9 -4.85 L10.9 -10.65 18.95 -13.8 19.25 -14.0 16.1 -2.7 15.25 -2.6 14.9 -2.55 9.9 -4.85 M12.7 -2.05 L9.25 -1.25 9.7 -3.65 12.7 -2.05 M3.65 -7.65 L-0.55 -11.4 Q4.2 -10.05 9.0 -10.7 L3.65 -7.65 M-10.05 -5.7 L-15.35 -9.1 -16.2 -9.8 -16.6 -11.4 -19.1 -11.9 -16.15 -24.85 -15.7 -25.45 -14.95 -22.8 -14.15 -20.05 Q-10.3 -14.95 -4.3 -12.6 L-2.0 -11.8 -3.55 -6.7 -10.05 -5.7 M-4.15 -4.7 L-4.85 -2.4 -7.45 -4.05 -4.15 -4.7 M-19.75 -10.1 L-19.6 -10.3 -19.2 -10.5 -18.75 -10.45 -18.45 -10.4 -18.4 -11.2 -18.25 -10.3 -18.1 -10.25 Q-17.5 -8.6 -17.75 -6.7 L-17.45 -4.5 -18.1 -4.4 -19.6 -5.15 -20.6 -6.0 Q-21.2 -8.15 -19.95 -9.85 L-19.85 -10.1 -19.75 -10.1" fill="#ff7575" fill-rule="evenodd" stroke="none"/>
    <path d="M14.9 -2.55 L12.7 -2.05 9.7 -3.65 9.9 -4.85 14.9 -2.55 M-3.55 -6.7 L-4.15 -4.7 -7.45 -4.05 -10.05 -5.7 -3.55 -6.7" fill="#ff4040" fill-rule="evenodd" stroke="none"/>
  </g>
</svg>
