<?xml version="1.0" encoding="UTF-8" standalone="no"?>
<svg xmlns:xlink="http://www.w3.org/1999/xlink" height="50.75px" width="37.25px" xmlns="http://www.w3.org/2000/svg">
  <g transform="matrix(1.0, 0.0, 0.0, 1.0, 14.65, 44.35)">
    <path d="M21.55 -40.35 L21.75 -39.4 22.15 -39.05 22.45 -31.4 22.6 -25.95 22.6 -21.6 22.5 -15.9 22.5 -14.5 22.5 -13.1 22.45 -11.7 22.4 -10.4 22.4 -9.2 22.4 -8.0 22.35 -6.8 22.3 -5.7 22.3 -4.6 22.3 -3.5 22.25 -2.4 21.95 -0.5 21.9 -0.2 9.45 6.4 9.15 6.05 7.65 5.6 6.25 5.05 4.55 4.45 2.65 3.75 1.65 3.35 0.75 3.0 -0.25 2.65 -1.2 2.2 -2.2 1.85 -3.1 1.45 -4.1 1.05 -6.9 -0.15 -8.9 -0.95 -9.9 -1.4 -11.4 -2.05 -12.6 -2.65 -13.8 -3.3 -14.65 -40.45 -13.95 -40.9 Q-10.5 -42.25 -6.75 -42.95 L-0.95 -44.05 5.85 -44.35 9.1 -44.15 12.85 -43.45 Q17.6 -42.5 21.55 -40.35 M20.65 -38.05 L20.75 -38.85 Q19.0 -39.8 17.15 -40.4 L14.75 -41.2 12.3 -41.85 9.75 -42.35 6.0 -42.65 2.2 -42.55 0.2 -42.35 -2.95 -41.8 -7.1 -40.85 -10.5 -40.0 -12.35 -39.55 -12.4 -12.3 -9.75 -12.4 -8.1 -12.7 1.95 -13.05 1.95 -21.55 1.95 -23.15 1.75 -37.8 2.05 -39.2 4.35 -37.8 Q7.25 -35.85 9.9 -33.55 12.05 -36.2 14.9 -38.1 L16.3 -38.15 16.45 -20.95 16.45 -19.5 16.5 -13.4 20.9 -12.4 20.95 -13.7 20.95 -15.6 20.65 -38.05 M15.55 -22.0 L15.7 -37.55 10.45 -32.6 9.65 -32.4 2.9 -37.55 3.05 -22.5 3.05 -22.1 3.1 -15.9 3.05 -13.25 3.0 -11.65 -9.5 -10.85 -9.0 -10.4 Q-7.9 -9.3 -7.6 -7.85 L-7.35 -6.1 -7.3 -5.1 -7.35 -4.4 -7.45 -3.85 -7.7 -3.25 -8.05 -2.7 -8.3 -2.25 -7.25 -1.8 -4.9 -0.85 -4.5 -0.75 -4.35 -0.75 -3.7 -0.75 -3.1 -0.8 -2.05 -0.8 -1.05 -0.85 -0.05 -0.85 0.95 -0.95 1.95 -0.95 2.95 -1.05 4.95 -1.15 5.05 -1.15 5.2 -1.1 5.55 0.8 5.6 3.5 9.5 5.25 12.75 3.5 12.75 2.8 12.85 1.2 12.95 -0.05 12.95 -0.75 12.95 -0.8 13.0 -0.9 13.05 -0.95 20.5 -0.5 20.9 -11.15 15.9 -11.55 15.75 -11.85 15.7 -12.4 15.7 -12.75 15.7 -12.85 15.65 -12.9 15.6 -15.9 15.55 -20.05 15.55 -22.0 M17.35 -8.25 L18.05 -7.45 19.4 -5.95 Q19.95 -5.4 19.85 -4.5 L19.65 -4.45 18.65 -4.25 18.15 -5.0 Q17.7 -5.95 16.75 -6.1 L15.25 -5.2 Q14.2 -4.6 13.2 -4.7 L13.1 -5.5 17.35 -8.25 M3.65 -7.2 L4.35 -6.3 4.8 -5.2 Q4.95 -4.65 4.45 -4.65 L4.0 -4.65 Q3.75 -4.75 3.6 -4.9 L1.75 -6.9 0.95 -6.45 -0.35 -5.65 -0.85 -5.35 -2.5 -4.85 Q-3.3 -4.55 -3.25 -5.1 L-3.2 -5.4 -2.1 -6.45 -1.5 -6.9 -0.9 -7.35 1.75 -8.65 2.35 -8.3 3.65 -7.2 M15.4 2.2 L16.8 1.4 18.45 0.5 14.15 0.0 14.0 0.05 13.75 2.0 13.7 3.0 15.4 2.2 M4.6 3.05 L4.35 -0.1 -2.55 0.1 Q-1.9 0.7 -1.25 0.9 0.4 1.35 1.95 2.05 L4.6 3.05 M-12.3 -10.65 L-12.4 -10.4 -12.4 -9.0 -12.4 -7.6 -12.45 -6.2 -12.5 -4.85 -12.55 -4.2 -9.15 -2.6 -8.65 -4.45 Q-8.45 -5.35 -8.55 -6.2 L-9.0 -7.9 -10.0 -9.5 -11.35 -11.0 -12.3 -10.65" fill="#000000" fill-rule="evenodd" stroke="none"/>
    <path d="M-9.75 -12.4 L-12.4 -12.3 -12.35 -39.55 -10.5 -40.0 -7.1 -40.85 -2.95 -41.8 0.2 -42.35 2.2 -42.55 6.0 -42.65 9.75 -42.35 12.3 -41.85 14.75 -41.2 17.15 -40.4 Q19.0 -39.8 20.75 -38.85 L20.65 -38.05 16.3 -38.15 14.9 -38.1 4.35 -37.8 2.05 -39.2 1.75 -37.8 -9.7 -38.0 -9.75 -12.6 -9.75 -12.4" fill="#feb6b6" fill-rule="evenodd" stroke="none"/>
    <path d="M3.05 -22.5 L2.9 -37.55 9.65 -32.4 10.45 -32.6 15.7 -37.55 15.55 -22.0 9.0 -28.0 3.05 -23.8 3.05 -22.5 M15.55 -20.05 L15.6 -15.9 15.65 -12.9 15.7 -12.85 15.7 -12.75 15.7 -12.4 15.75 -11.85 15.9 -11.55 20.9 -11.15 20.5 -0.5 13.05 -0.95 13.0 -0.9 12.95 -0.8 12.95 -0.75 12.95 -0.05 12.85 1.2 12.75 2.8 12.75 3.5 9.5 5.25 5.6 3.5 5.55 0.8 5.2 -1.1 5.05 -1.15 4.95 -1.15 2.95 -1.05 1.95 -0.95 0.95 -0.95 -0.05 -0.85 -1.05 -0.85 -2.05 -0.8 -3.1 -0.8 -3.7 -0.75 -4.35 -0.75 -4.5 -0.75 -4.9 -0.85 -7.25 -1.8 -8.3 -2.25 -8.05 -2.7 -7.7 -3.25 -7.45 -3.85 -7.35 -4.4 -7.3 -5.1 -7.35 -6.1 -7.6 -7.85 Q-7.9 -9.3 -9.0 -10.4 L-9.5 -10.85 3.0 -11.65 3.05 -13.25 3.1 -15.9 3.05 -22.1 9.2 -26.5 15.55 -20.05 M3.65 -7.2 L2.35 -8.3 1.75 -8.65 -0.9 -7.35 -1.5 -6.9 -2.1 -6.45 -3.2 -5.4 -3.25 -5.1 Q-3.3 -4.55 -2.5 -4.85 L-0.85 -5.35 -0.35 -5.65 0.95 -6.45 1.75 -6.9 3.6 -4.9 Q3.75 -4.75 4.0 -4.65 L4.45 -4.65 Q4.95 -4.65 4.8 -5.2 L4.35 -6.3 3.65 -7.2 M17.35 -8.25 L13.1 -5.5 13.2 -4.7 Q14.2 -4.6 15.25 -5.2 L16.75 -6.1 Q17.7 -5.95 18.15 -5.0 L18.65 -4.25 19.65 -4.45 19.85 -4.5 Q19.95 -5.4 19.4 -5.95 L18.05 -7.45 17.35 -8.25" fill="#ffffff" fill-rule="evenodd" stroke="none"/>
    <path d="M-9.75 -12.6 L-9.7 -38.0 1.75 -37.8 1.95 -23.15 -9.75 -12.6 M4.35 -37.8 L14.9 -38.1 Q12.05 -36.2 9.9 -33.55 7.25 -35.85 4.35 -37.8 M16.3 -38.15 L20.65 -38.05 20.95 -15.6 20.75 -15.9 16.45 -20.95 16.3 -38.15 M20.95 -13.7 L20.9 -12.4 16.5 -13.4 16.45 -19.5 19.35 -15.9 20.95 -13.7 M1.95 -21.55 L1.95 -13.05 -8.1 -12.7 1.95 -21.55 M15.4 2.2 L13.7 3.0 13.75 2.0 14.0 0.05 14.15 0.0 18.45 0.5 16.8 1.4 15.4 2.2 M-12.3 -10.65 L-11.35 -11.0 -10.0 -9.5 -9.0 -7.9 -8.55 -6.2 Q-8.45 -5.35 -8.65 -4.45 L-9.15 -2.6 -12.55 -4.2 -12.5 -4.85 -12.45 -6.2 -12.4 -7.6 -12.4 -9.0 -12.4 -10.4 -12.3 -10.65 M4.6 3.05 L1.95 2.05 Q0.4 1.35 -1.25 0.9 -1.9 0.7 -2.55 0.1 L4.35 -0.1 4.6 3.05" fill="#ff7575" fill-rule="evenodd" stroke="none"/>
    <path d="M15.55 -22.0 L15.55 -20.05 9.2 -26.5 3.05 -22.1 3.05 -22.5 3.05 -23.8 9.0 -28.0 15.55 -22.0" fill="#999999" fill-rule="evenodd" stroke="none"/>
    <path d="M-9.75 -12.4 L-9.75 -12.6 1.95 -23.15 1.95 -21.55 -8.1 -12.7 -9.75 -12.4 M20.95 -15.6 L20.95 -13.7 19.35 -15.9 16.45 -19.5 16.45 -20.95 20.75 -15.9 20.95 -15.6" fill="#ff4040" fill-rule="evenodd" stroke="none"/>
  </g>
</svg>
