<?xml version="1.0" encoding="UTF-8" standalone="no"?>
<svg xmlns:xlink="http://www.w3.org/1999/xlink" height="28.85px" width="21.35px" xmlns="http://www.w3.org/2000/svg">
  <g transform="matrix(1.0, 0.0, 0.0, 1.0, 10.9, 13.8)">
    <path d="M0.6 -13.7 Q4.85 -14.15 8.6 -12.85 L9.55 -13.2 10.45 -12.1 9.85 13.6 Q1.05 15.1 -7.75 15.05 -8.7 15.05 -9.5 14.4 L-10.4 6.45 Q-11.1 0.25 -10.85 -5.55 -10.75 -7.8 -10.8 -9.95 -10.8 -10.7 -10.45 -11.15 L-10.25 -11.3 -8.05 -12.1 Q-3.85 -13.5 0.6 -13.7 M6.4 -9.1 L4.7 -9.45 Q0.45 -10.15 -3.3 -8.2 L-6.7 -6.25 -7.15 -6.7 -7.1 -6.9 -6.35 -8.15 -5.95 -8.45 Q-1.9 -10.7 2.9 -10.35 L6.9 -9.35 7.25 -9.15 7.05 -8.9 6.65 -0.2 6.2 9.0 5.65 9.6 4.2 10.35 Q2.1 11.25 -0.15 11.15 L-6.35 10.4 -7.1 2.65 Q-7.3 -1.25 -7.1 -5.2 L-6.85 -6.05 -5.8 9.15 -0.55 9.8 5.0 9.15 6.35 -8.85 6.45 -9.05 6.4 -9.1 M6.7 -12.45 L1.7 -12.95 Q-4.1 -12.1 -9.4 -9.9 -10.35 1.5 -8.75 12.8 L-7.1 13.3 -2.7 13.65 -0.9 13.25 8.5 12.25 8.8 -11.3 8.85 -11.45 6.7 -12.45" fill="#000000" fill-rule="evenodd" stroke="none"/>
    <path d="M6.7 -12.45 L8.85 -11.45 8.8 -11.3 8.5 12.25 -0.9 13.25 -2.7 13.65 -7.1 13.3 -8.75 12.8 Q-10.35 1.5 -9.4 -9.9 -4.1 -12.1 1.7 -12.95 L6.7 -12.45 M6.35 -8.85 L5.0 9.15 -0.55 9.8 -5.8 9.15 -6.85 -6.05 -7.1 -5.2 Q-7.3 -1.25 -7.1 2.65 L-6.35 10.4 -0.15 11.15 Q2.1 11.25 4.2 10.35 L5.65 9.6 6.2 9.0 6.65 -0.2 7.05 -8.9 7.25 -9.15 6.9 -9.35 2.9 -10.35 Q-1.9 -10.7 -5.95 -8.45 L-6.35 -8.15 -7.1 -6.9 -7.15 -6.7 -6.7 -6.25 -3.3 -8.2 Q0.45 -10.15 4.7 -9.45 L6.4 -9.1 6.35 -8.85" fill="#ff7575" fill-rule="evenodd" stroke="none"/>
  </g>
</svg>
