<?xml version="1.0" encoding="UTF-8" standalone="no"?>
<svg xmlns:xlink="http://www.w3.org/1999/xlink" height="51.9px" width="36.65px" xmlns="http://www.w3.org/2000/svg">
  <g transform="matrix(1.0, 0.0, 0.0, 1.0, 18.35, 25.95)">
    <path d="M16.65 -19.5 L16.65 -19.95 Q5.05 -25.85 -7.95 -22.85 -10.8 -22.05 -13.5 -20.75 L-14.75 -20.25 Q-15.2 -19.95 -15.75 -19.8 L-15.75 -19.6 -15.75 -19.05 -15.9 -15.15 -15.95 -14.65 Q-16.15 -6.3 -15.85 2.1 -15.65 7.35 -15.95 12.65 L-16.1 12.95 Q-15.8 13.6 -15.95 14.4 L-16.1 14.45 -15.95 14.5 -13.05 15.35 -8.95 16.6 Q-9.85 14.1 -9.4 11.2 -9.1 9.2 -7.5 8.1 L-7.15 7.6 Q-5.35 6.8 -3.35 6.5 L-2.4 6.4 -2.3 6.35 -2.25 6.4 -0.8 6.05 4.05 5.9 4.05 5.85 7.9 5.95 7.55 -2.5 7.5 -3.85 7.4 -16.25 Q7.4 -18.0 7.75 -19.55 L7.8 -19.55 7.8 -19.65 8.15 -19.8 8.35 -19.85 14.45 -15.7 16.4 -17.65 16.75 -17.65 16.65 -19.5 M17.9 -20.25 L17.8 -20.0 Q18.5 -8.6 18.25 2.95 L17.85 18.1 Q17.95 21.6 17.65 25.1 L17.55 25.45 16.8 25.95 16.25 25.8 16.0 25.85 4.0 22.05 3.5 21.7 Q-6.4 18.85 -16.05 15.2 L-16.85 14.8 -16.9 14.8 -17.0 14.7 -17.2 14.5 -17.2 14.2 -17.2 13.9 -17.6 13.25 Q-17.75 1.6 -18.3 -10.25 -18.45 -14.2 -17.7 -17.7 L-17.75 -18.8 -17.7 -20.95 -16.85 -21.5 -16.55 -21.65 -16.5 -21.8 -16.5 -21.7 -16.2 -21.8 -15.95 -21.8 -16.4 -22.1 Q-12.0 -23.1 -7.85 -24.65 -5.0 -25.7 -2.15 -25.9 8.75 -26.55 17.7 -20.8 L17.85 -20.55 17.9 -20.25 M17.0 -7.8 L16.85 -15.8 14.9 -14.6 14.85 -14.55 14.75 -14.35 13.95 -14.35 13.4 -14.45 13.25 -14.8 12.9 -15.4 8.7 -18.6 8.75 -4.8 8.75 -3.4 8.6 4.5 8.55 6.7 7.9 6.65 7.9 6.6 -0.5 7.35 Q0.45 8.2 1.0 9.75 L1.15 10.05 Q1.65 12.95 1.45 15.95 L0.95 18.1 0.5 18.6 Q4.35 17.65 8.55 17.9 L10.85 18.0 11.15 18.3 11.15 19.25 11.15 21.4 11.35 21.7 11.55 22.05 11.55 22.35 11.55 22.6 16.1 24.1 Q15.95 20.35 16.65 16.55 L16.65 15.15 15.4 15.0 Q15.0 12.65 15.15 10.05 L15.15 9.45 15.6 9.1 15.8 9.05 Q16.1 9.6 16.0 10.3 L16.0 10.6 16.7 11.7 16.95 -5.3 16.95 -5.5 17.0 -7.8 M8.0 11.0 L11.5 13.6 11.5 14.5 11.4 14.8 Q8.65 17.9 5.75 14.8 L5.7 14.2 Q5.65 13.4 5.75 12.65 L6.3 12.05 7.0 11.2 7.2 11.1 8.0 11.0 M0.1 14.1 L0.0 11.95 -0.15 11.65 -0.4 11.3 Q-1.45 6.5 -6.45 8.4 L-6.7 8.85 -7.15 9.15 -7.3 9.35 -7.65 9.85 -8.05 12.25 Q-8.35 14.15 -7.7 15.95 L-7.1 16.45 -6.3 17.0 -6.0 17.45 -1.3 18.8 -0.25 17.0 0.0 16.6 0.1 14.1 M10.35 22.15 L10.1 21.85 10.1 21.5 10.1 19.15 0.8 19.4 6.6 21.1 10.35 22.25 10.4 22.25 10.35 22.15" fill="#000000" fill-rule="evenodd" stroke="none"/>
    <path d="M8.75 -4.8 L8.7 -18.6 12.9 -15.4 13.25 -14.8 13.4 -14.45 13.95 -14.35 14.75 -14.35 14.85 -14.55 14.9 -14.6 16.85 -15.8 17.0 -7.8 14.75 -10.0 14.5 -10.0 13.85 -9.9 13.65 -9.5 13.5 -9.15 8.75 -4.8 M16.95 -5.5 L16.95 -5.3 16.7 11.7 16.0 10.6 16.0 10.3 Q16.1 9.6 15.8 9.05 L15.6 9.1 15.15 9.45 15.15 10.05 Q15.0 12.65 15.4 15.0 L16.65 15.15 16.65 16.55 Q15.95 20.35 16.1 24.1 L11.55 22.6 11.55 22.35 11.55 22.05 11.35 21.7 11.15 21.4 11.15 19.25 11.15 18.3 10.85 18.0 8.55 17.9 Q4.35 17.65 0.5 18.6 L0.95 18.1 1.45 15.95 Q1.65 12.95 1.15 10.05 L1.0 9.75 Q0.45 8.2 -0.5 7.35 L7.9 6.6 7.9 6.65 8.55 6.7 8.6 4.5 8.75 -3.4 12.35 -7.4 13.1 -7.9 Q13.6 -8.35 14.25 -8.65 L16.95 -5.5 M8.0 11.0 L7.2 11.1 7.0 11.2 6.3 12.05 5.75 12.65 Q5.65 13.4 5.7 14.2 L5.75 14.8 Q8.65 17.9 11.4 14.8 L11.5 14.5 11.5 13.6 8.0 11.0" fill="#ffffff" fill-rule="evenodd" stroke="none"/>
    <path d="M8.75 -4.8 L13.5 -9.15 13.65 -9.5 13.85 -9.9 14.5 -10.0 14.75 -10.0 17.0 -7.8 16.95 -5.5 14.25 -8.65 Q13.6 -8.35 13.1 -7.9 L12.35 -7.4 8.75 -3.4 8.75 -4.8" fill="#999999" fill-rule="evenodd" stroke="none"/>
    <path d="M-13.05 15.35 L-13.15 11.0 -13.45 -0.25 -13.55 -19.3 Q1.55 -20.95 16.65 -19.5 L16.75 -17.65 16.4 -17.65 14.45 -15.7 8.35 -19.85 8.15 -19.8 7.8 -19.65 7.8 -19.55 7.75 -19.55 Q7.4 -18.0 7.4 -16.25 L7.5 -3.85 Q2.95 1.0 -2.15 5.35 L-3.35 6.5 Q-5.35 6.8 -7.15 7.6 L-7.5 8.1 Q-9.1 9.2 -9.4 11.2 -9.85 14.1 -8.95 16.6 L-13.05 15.35 M7.55 -2.5 L7.9 5.95 4.05 5.85 4.05 5.9 -0.8 6.05 7.55 -2.5 M10.35 22.25 L6.6 21.1 0.8 19.4 10.1 19.15 10.1 21.5 10.1 21.85 10.35 22.15 10.35 22.25 M0.1 14.1 L0.0 16.6 -0.25 17.0 -1.3 18.8 -6.0 17.45 -6.3 17.0 -7.1 16.45 -7.7 15.95 Q-8.35 14.15 -8.05 12.25 L-7.65 9.85 -7.3 9.35 -7.15 9.15 -6.7 8.85 -6.45 8.4 Q-1.45 6.5 -0.4 11.3 L-0.15 11.65 0.0 11.95 0.1 14.1" fill="#6699ff" fill-rule="evenodd" stroke="none"/>
    <path d="M7.5 -3.85 L7.55 -2.5 -0.8 6.05 -2.25 6.4 -2.3 6.35 -2.4 6.4 -3.35 6.5 -2.15 5.35 Q2.95 1.0 7.5 -3.85" fill="#1069fe" fill-rule="evenodd" stroke="none"/>
    <path d="M-15.95 14.4 Q-15.8 13.6 -16.1 12.95 L-15.95 12.65 Q-15.65 7.35 -15.85 2.1 -16.15 -6.3 -15.95 -14.65 L-15.9 -15.15 -15.75 -19.05 -15.75 -19.6 -15.75 -19.8 Q-15.2 -19.95 -14.75 -20.25 L-13.5 -20.75 Q-10.8 -22.05 -7.95 -22.85 5.05 -25.85 16.65 -19.95 L16.65 -19.5 Q1.55 -20.95 -13.55 -19.3 L-13.45 -0.25 -13.15 11.0 -13.05 15.35 -15.95 14.5 -15.95 14.4" fill="#9ac0fe" fill-rule="evenodd" stroke="none"/>
  </g>
</svg>
