<?xml version="1.0" encoding="UTF-8" standalone="no"?>
<svg xmlns:xlink="http://www.w3.org/1999/xlink" height="39.95px" width="34.4px" xmlns="http://www.w3.org/2000/svg">
  <g transform="matrix(1.0, 0.0, 0.0, 1.0, 16.95, 17.95)">
    <path d="M-15.0 7.55 L-15.3 7.65 Q-15.9 7.55 -15.9 7.1 L-15.5 4.05 -14.9 0.95 Q-14.0 -4.9 -11.75 -10.3 -11.0 -12.15 -9.85 -13.75 -9.05 -14.9 -7.8 -15.65 -6.25 -16.6 -4.5 -17.2 0.95 -18.75 6.25 -17.0 8.8 -16.15 10.9 -14.45 L12.15 -12.8 13.4 -9.35 15.4 -0.25 15.8 0.95 Q16.9 3.55 17.45 6.5 L11.6 6.65 8.05 13.1 Q3.5 15.9 -1.45 18.2 -7.55 21.05 -14.05 22.0 L-16.9 21.55 Q-17.25 17.45 -15.4 13.65 L-15.75 13.45 -16.25 12.8 Q-16.8 11.4 -16.6 9.15 L-15.85 7.8 -15.3 7.65 -15.0 7.75 -13.35 8.05 -11.7 8.1 -8.35 7.45 -2.9 6.6 -3.35 4.05 -14.2 5.6 -14.6 5.8 -15.0 7.55 M4.3 1.2 L12.6 -1.1 13.05 -0.8 14.2 -1.4 13.15 -7.75 8.75 -2.9 -10.35 -0.9 -12.15 -1.85 -12.85 -1.8 -13.0 -2.0 Q-13.95 1.35 -14.45 4.8 L-14.4 4.95 -11.45 4.3 -3.4 2.85 -3.25 1.05 3.35 -1.35 3.95 -1.25 4.3 1.2 4.6 3.55 9.55 0.95 4.3 1.2 M-10.3 -11.65 Q-12.25 -7.6 -12.9 -3.15 L-12.85 -3.15 Q-11.9 -2.4 -10.7 -2.25 L-4.65 -2.85 8.85 -4.1 13.0 -8.3 12.45 -9.75 11.2 -12.65 Q10.35 -14.45 8.5 -15.3 5.35 -16.6 2.05 -16.8 -2.3 -17.1 -6.35 -15.4 -9.05 -14.35 -10.3 -11.65 M10.7 6.55 Q11.25 5.95 11.9 5.8 L16.1 5.6 15.05 2.1 Q14.6 3.3 13.5 4.1 9.45 7.0 5.1 9.2 1.95 10.75 -1.6 11.85 L-6.2 13.2 Q-10.55 14.55 -14.85 13.95 L-16.1 19.65 -16.1 20.65 Q-8.75 20.7 -2.2 17.45 L3.2 15.0 Q5.55 14.0 7.35 11.95 8.6 10.6 9.15 9.1 9.65 7.65 10.7 6.55 M3.5 1.9 L0.45 5.45 -2.25 4.3 -1.95 6.25 -1.6 6.1 Q-1.15 6.3 -1.2 6.8 1.7 7.15 4.0 5.4 L3.5 1.9 M0.3 4.7 L3.3 1.4 2.9 -0.5 -2.45 1.8 -2.3 3.4 0.3 4.7 M12.9 2.85 Q14.3 1.9 14.6 0.4 L14.3 -0.15 4.65 4.05 4.9 5.75 4.15 7.0 2.55 7.45 -0.8 7.6 -2.55 7.85 Q-6.9 8.2 -11.1 9.2 L-15.35 8.95 -15.4 12.45 -14.0 13.25 Q-9.0 13.25 -4.2 11.95 0.35 10.65 4.5 8.4 L7.95 6.35 12.9 2.85" fill="#000000" fill-rule="evenodd" stroke="none"/>
    <path d="M4.3 1.2 L3.95 -1.25 3.35 -1.35 -3.25 1.05 -3.4 2.85 -11.45 4.3 -14.4 4.95 -14.45 4.8 Q-13.95 1.35 -13.0 -2.0 L-12.85 -1.8 -12.15 -1.85 -10.35 -0.9 8.75 -2.9 13.15 -7.75 14.2 -1.4 13.05 -0.8 12.6 -1.1 4.3 1.2 M11.35 -1.95 L12.75 -1.95 12.75 -3.35 11.35 -3.35 11.35 -1.95 M12.9 2.85 L7.95 6.35 4.5 8.4 Q0.35 10.65 -4.2 11.95 -9.0 13.25 -14.0 13.25 L-15.4 12.45 -15.35 8.95 -11.1 9.2 Q-6.9 8.2 -2.55 7.85 L-0.8 7.6 2.55 7.45 4.15 7.0 4.9 5.75 4.65 4.05 14.3 -0.15 14.6 0.4 Q14.3 1.9 12.9 2.85 M0.3 4.7 L-2.3 3.4 -2.45 1.8 2.9 -0.5 3.3 1.4 0.3 4.7 M3.5 1.9 L4.0 5.4 Q1.7 7.15 -1.2 6.8 -1.15 6.3 -1.6 6.1 L-1.95 6.25 -2.25 4.3 0.45 5.45 3.5 1.9 M-10.25 0.7 L-11.6 0.7 -11.6 2.0 -10.25 2.0 -10.25 0.7" fill="#5c5538" fill-rule="evenodd" stroke="none"/>
    <path d="M-15.0 7.55 L-14.6 5.8 -14.2 5.6 -3.35 4.05 -2.9 6.6 -8.35 7.45 -11.7 8.1 -13.35 8.05 -15.0 7.75 -15.0 7.55 M4.3 1.2 L9.55 0.95 4.6 3.55 4.3 1.2 M11.35 -1.95 L11.35 -3.35 12.75 -3.35 12.75 -1.95 11.35 -1.95 M10.7 6.55 Q9.65 7.65 9.15 9.1 8.6 10.6 7.35 11.95 5.55 14.0 3.2 15.0 L-2.2 17.45 Q-8.75 20.7 -16.1 20.65 L-16.1 19.65 -14.85 13.95 Q-10.55 14.55 -6.2 13.2 L-1.6 11.85 Q1.95 10.75 5.1 9.2 9.45 7.0 13.5 4.1 14.6 3.3 15.05 2.1 L16.1 5.6 11.9 5.8 Q11.25 5.95 10.7 6.55 M-10.25 0.7 L-10.25 2.0 -11.6 2.0 -11.6 0.7 -10.25 0.7" fill="#ffffff" fill-rule="evenodd" stroke="none"/>
    <path d="M-10.3 -11.65 Q-9.05 -14.35 -6.35 -15.4 -2.3 -17.1 2.05 -16.8 5.35 -16.6 8.5 -15.3 10.35 -14.45 11.2 -12.65 L12.45 -9.75 13.0 -8.3 8.85 -4.1 -4.65 -2.85 -10.7 -2.25 Q-11.9 -2.4 -12.85 -3.15 L-12.9 -3.15 Q-12.25 -7.6 -10.3 -11.65" fill="#666666" fill-rule="evenodd" stroke="none"/>
  </g>
</svg>
