<?xml version="1.0" encoding="UTF-8" standalone="no"?>
<svg xmlns:xlink="http://www.w3.org/1999/xlink" height="37.3px" width="30.85px" xmlns="http://www.w3.org/2000/svg">
  <g transform="matrix(1.0, 0.0, 0.0, 1.0, 16.15, 18.65)">
    <path d="M9.15 -10.3 Q6.55 -9.6 4.0 -8.4 L0.6 -6.65 Q-3.05 -4.65 -6.55 -2.45 L-6.55 -2.2 -6.55 -2.05 -6.2 -1.85 -6.05 -1.6 Q-3.75 0.4 -0.9 1.65 L-6.15 1.2 -9.55 -1.7 Q-11.05 -1.25 -12.45 -0.4 L-12.1 -3.05 -12.0 -3.7 -11.7 -5.0 -11.4 -5.05 -11.35 -5.15 -11.25 -5.3 Q-10.85 -5.4 -10.5 -5.7 L-10.45 -5.8 -10.4 -5.95 -3.25 -9.55 Q1.85 -12.0 7.25 -13.55 L7.4 -13.55 7.45 -13.4 8.15 -12.7 8.5 -12.15 8.55 -11.95 9.35 -10.35 9.15 -10.3 M7.5 -11.25 L7.25 -11.65 6.9 -11.75 6.65 -11.8 6.65 -11.75 5.65 -11.0 5.6 -10.8 5.75 -10.15 6.7 -10.1 6.85 -10.25 7.6 -11.05 7.5 -11.25 M0.45 -8.5 L0.3 -8.65 -0.6 -8.85 -0.9 -8.55 Q-1.2 -7.9 -0.95 -7.2 -0.05 -6.8 0.4 -7.7 L0.45 -8.1 0.45 -8.5 M13.15 6.9 L12.1 6.75 8.2 6.1 2.3 5.5 Q-2.1 5.15 -6.55 5.45 L-10.65 6.25 -13.4 7.1 -13.7 7.2 -13.85 7.2 -13.85 7.1 -14.0 7.05 -14.05 6.95 -14.1 6.8 -14.15 6.65 -14.15 6.3 -14.1 5.3 -13.95 4.8 -13.95 4.7 Q-13.05 3.55 -11.65 3.1 L-10.25 2.8 -9.45 2.75 -7.75 2.55 -6.45 2.6 Q-4.3 2.4 -2.05 2.55 L0.95 2.75 Q6.8 3.15 11.95 5.65 L12.05 5.65 Q13.05 5.9 13.15 6.85 L13.15 6.9 M12.0 3.8 L12.05 5.2 Q10.9 4.55 9.65 4.15 L4.6 2.65 3.5 2.4 4.65 2.45 8.0 2.85 12.0 3.8 M-14.6 -5.25 L-13.1 -5.45 -13.85 1.0 -15.05 0.15 -15.0 -1.45 -14.6 -5.25 M-7.35 -3.7 L-7.35 -4.3 -7.45 -4.75 -7.8 -4.8 -8.4 -4.85 -8.75 -4.55 Q-8.95 -3.85 -8.75 -3.2 L-8.15 -3.15 Q-7.55 -3.15 -7.35 -3.7" fill="#5c5538" fill-rule="evenodd" stroke="none"/>
    <path d="M9.35 -10.35 L8.55 -11.95 8.5 -12.15 8.15 -12.7 7.45 -13.4 7.4 -13.55 7.25 -13.55 Q1.85 -12.0 -3.25 -9.55 L-10.4 -5.95 -10.45 -5.8 -10.5 -5.7 Q-10.85 -5.4 -11.25 -5.3 L-11.35 -5.15 -11.4 -5.05 -11.7 -5.0 -12.0 -3.7 -12.1 -3.05 -12.45 -0.4 Q-11.05 -1.25 -9.55 -1.7 L-6.15 1.2 -0.9 1.65 Q-3.75 0.4 -6.05 -1.6 L-6.2 -1.85 -6.55 -2.05 -6.55 -2.2 -6.55 -2.45 Q-3.05 -4.65 0.6 -6.65 L4.0 -8.4 Q6.55 -9.6 9.15 -10.3 L9.4 -10.25 9.35 -10.35 M5.25 -13.6 L6.9 -14.05 Q2.0 -18.0 -4.25 -16.4 L-4.8 -16.25 -4.9 -16.2 Q-7.7 -14.85 -9.3 -12.4 -10.05 -11.1 -10.4 -9.55 L-11.05 -8.0 -11.15 -7.6 -11.5 -5.9 Q-8.95 -7.95 -5.75 -9.35 L3.15 -12.95 5.25 -13.6 M4.6 1.7 Q7.35 1.9 10.0 2.6 L12.0 3.3 11.55 -1.05 11.4 -1.8 Q10.8 -5.6 9.7 -9.25 L9.6 -9.55 Q7.8 -9.4 5.95 -8.6 1.6 -6.65 -2.55 -4.25 L-5.55 -2.15 Q-2.45 0.45 1.45 1.95 L3.8 1.7 4.6 1.7 M12.2 -4.75 Q13.15 0.2 13.4 5.3 L14.1 7.1 14.4 7.15 14.55 7.25 14.65 7.45 14.7 7.8 14.7 8.0 14.7 8.05 13.9 8.05 Q14.95 11.8 14.45 15.7 L14.35 16.05 14.2 16.1 13.95 16.2 13.55 16.05 Q9.3 11.05 4.1 7.05 -0.95 7.2 -4.9 10.75 L-10.0 15.25 -10.4 16.05 -10.6 16.25 -10.65 16.7 -10.6 17.1 Q-10.95 17.55 -10.95 18.1 L-11.0 18.3 -11.2 18.5 -11.5 18.65 -11.9 18.55 -12.1 18.1 -12.1 17.9 Q-12.6 17.4 -12.7 16.7 L-12.7 16.25 -12.8 16.1 -13.0 15.85 Q-13.95 12.65 -14.0 9.3 L-13.95 8.9 -14.2 8.4 -14.3 8.3 -14.5 8.1 -14.55 8.05 -15.3 8.05 -14.75 7.1 Q-15.0 5.9 -14.65 4.45 L-14.55 4.15 -14.25 4.0 -14.05 2.45 Q-14.9 2.25 -15.5 1.45 L-15.65 1.4 -16.05 1.25 Q-16.5 -2.55 -15.25 -6.15 L-14.85 -6.35 -12.9 -6.5 -12.8 -7.2 Q-12.5 -8.95 -11.8 -10.65 L-10.15 -14.0 -10.1 -14.05 -9.85 -14.05 Q-8.0 -16.9 -4.75 -18.3 L-4.5 -18.35 -4.75 -18.15 -3.8 -18.6 Q-2.05 -18.75 -0.45 -18.55 6.0 -18.3 9.7 -12.9 L10.2 -12.05 Q11.75 -9.55 12.0 -6.4 L12.2 -4.75 M13.15 6.85 Q13.05 5.9 12.05 5.65 L11.95 5.65 Q6.8 3.15 0.95 2.75 L-2.05 2.55 Q-4.3 2.4 -6.45 2.6 L-7.75 2.55 -9.45 2.75 -10.25 2.8 -11.65 3.1 Q-13.05 3.55 -13.95 4.7 L-13.95 4.8 -14.1 5.3 -14.15 6.3 -14.15 6.65 -14.1 6.8 -14.05 6.95 -14.0 7.05 -13.85 7.1 -13.85 7.2 -13.7 7.2 -13.4 7.1 -10.65 6.25 -6.55 5.45 Q-2.1 5.15 2.3 5.5 L8.2 6.1 12.1 6.75 13.15 6.9 13.15 6.85 M12.0 3.8 L8.0 2.85 4.65 2.45 3.5 2.4 4.6 2.65 9.65 4.15 Q10.9 4.55 12.05 5.2 L12.0 3.8 M11.45 7.9 L8.45 6.95 8.1 6.85 7.95 6.85 5.45 6.7 9.15 10.0 Q9.9 10.3 10.2 11.0 L13.45 14.1 Q13.35 11.1 12.7 8.05 L11.85 8.05 11.6 7.95 11.55 7.95 11.45 7.9 M-14.6 -5.25 L-15.0 -1.45 -15.05 0.15 -13.85 1.0 -13.1 -5.45 -14.6 -5.25 M-9.65 -0.75 L-12.55 0.6 -12.65 2.65 Q-10.1 1.35 -7.15 1.3 L-8.85 0.15 -8.9 0.0 -8.95 -0.15 -9.6 -0.65 -9.65 -0.75 M-11.3 15.45 L-11.25 15.05 -11.2 14.85 Q-7.25 10.6 -2.35 7.4 L-0.8 6.6 -6.7 6.8 Q-10.05 7.0 -13.2 8.25 -12.65 11.95 -11.4 15.4 L-11.3 15.45" fill="#000000" fill-rule="evenodd" stroke="none"/>
    <path d="M5.25 -13.6 L3.15 -12.95 -5.75 -9.35 Q-8.95 -7.95 -11.5 -5.9 L-11.15 -7.6 -11.05 -8.0 -10.4 -9.55 Q-10.05 -11.1 -9.3 -12.4 -7.7 -14.85 -4.9 -16.2 L-4.8 -16.25 -4.25 -16.4 Q2.0 -18.0 6.9 -14.05 L5.25 -13.6" fill="#666666" fill-rule="evenodd" stroke="none"/>
    <path d="M9.15 -10.3 L9.35 -10.35 9.4 -10.25 9.15 -10.3 M7.5 -11.25 L7.6 -11.05 6.85 -10.25 6.7 -10.1 5.75 -10.15 5.6 -10.8 5.65 -11.0 6.65 -11.75 6.65 -11.8 6.9 -11.75 7.25 -11.65 7.5 -11.25 M3.8 1.7 L1.45 1.95 Q-2.45 0.45 -5.55 -2.15 L-2.55 -4.25 Q1.6 -6.65 5.95 -8.6 7.8 -9.4 9.6 -9.55 L9.7 -9.25 Q10.8 -5.6 11.4 -1.8 L11.55 -1.05 12.0 3.3 10.0 2.6 Q7.35 1.9 4.6 1.7 L5.85 1.65 5.8 -0.55 8.9 -0.6 8.9 -3.1 8.9 -3.85 8.9 -4.05 6.9 -4.35 5.75 -4.55 5.65 -7.05 3.2 -7.1 3.0 -6.65 2.85 -6.45 2.85 -5.75 2.85 -5.55 2.7 -5.35 2.65 -4.7 1.15 -4.6 1.15 -4.55 -1.55 -4.35 -1.55 -4.3 -1.55 -3.0 -1.55 -1.9 -1.55 -1.35 -1.55 -1.2 2.35 -0.75 2.35 1.0 2.45 1.7 3.8 1.7 M0.45 -8.5 L0.45 -8.1 0.4 -7.7 Q-0.05 -6.8 -0.95 -7.2 -1.2 -7.9 -0.9 -8.55 L-0.6 -8.85 0.3 -8.65 0.45 -8.5 M11.45 7.9 L11.55 7.95 11.6 7.95 11.85 8.05 12.7 8.05 Q13.35 11.1 13.45 14.1 L10.2 11.0 Q9.9 10.3 9.15 10.0 L5.45 6.7 7.95 6.85 8.1 6.85 8.45 6.95 11.45 7.9 M-7.35 -3.7 Q-7.55 -3.15 -8.15 -3.15 L-8.75 -3.2 Q-8.95 -3.85 -8.75 -4.55 L-8.4 -4.85 -7.8 -4.8 -7.45 -4.75 -7.35 -4.3 -7.35 -3.7 M-11.4 15.4 Q-12.65 11.95 -13.2 8.25 -10.05 7.0 -6.7 6.8 L-0.8 6.6 -2.35 7.4 Q-7.25 10.6 -11.2 14.85 L-11.25 15.05 -11.3 15.45 -11.4 15.4 M-9.65 -0.75 L-9.6 -0.65 -8.95 -0.15 -8.9 0.0 -8.85 0.15 -7.15 1.3 Q-10.1 1.35 -12.65 2.65 L-12.55 0.6 -9.65 -0.75" fill="#ffffff" fill-rule="evenodd" stroke="none"/>
    <path d="M3.8 1.7 L2.45 1.7 2.35 1.0 2.35 -0.75 -1.55 -1.2 -1.55 -1.35 -1.55 -1.9 -1.55 -3.0 -1.55 -4.3 -1.55 -4.35 1.15 -4.55 1.15 -4.6 2.65 -4.7 2.7 -5.35 2.85 -5.55 2.85 -5.75 2.85 -6.45 3.0 -6.65 3.2 -7.1 5.65 -7.05 5.75 -4.55 6.9 -4.35 8.9 -4.05 8.9 -3.85 8.9 -3.1 8.9 -0.6 5.8 -0.55 5.85 1.65 4.6 1.7 3.8 1.7" fill="#663399" fill-rule="evenodd" stroke="none"/>
    <path d="M13.15 6.9 L13.15 6.85 13.15 6.9" fill="#999da6" fill-rule="evenodd" stroke="none"/>
  </g>
</svg>
