<?xml version="1.0" encoding="UTF-8" standalone="no"?>
<svg xmlns:xlink="http://www.w3.org/1999/xlink" height="74.05px" width="85.5px" xmlns="http://www.w3.org/2000/svg">
  <g transform="matrix(1.0, 0.0, 0.0, 1.0, 42.35, 48.65)">
    <path d="M36.55 -45.9 L38.65 -44.35 37.25 -34.55 33.2 -27.4 33.2 -26.55 32.4 -24.7 32.55 -24.3 35.9 -23.4 38.05 -26.0 Q39.2 -27.4 39.4 -29.15 L40.6 -29.2 42.55 -28.6 43.15 -28.25 43.0 -25.15 Q42.5 -21.65 40.55 -18.85 39.75 -17.7 38.4 -17.05 L26.85 -19.3 Q26.0 -19.6 25.25 -19.0 L19.8 -14.55 18.85 -13.9 18.65 -13.9 18.65 -13.45 18.65 -13.4 18.6 -12.35 18.6 -11.25 19.35 -11.3 Q20.9 -10.85 20.6 -9.0 L20.2 -5.75 Q19.4 -5.15 18.65 -5.25 L18.7 7.15 19.95 7.2 20.15 7.65 Q21.3 12.75 20.0 17.65 L19.25 18.3 18.65 19.1 Q18.45 19.65 18.65 19.8 L18.0 20.25 17.75 20.4 15.95 21.1 11.5 22.55 6.45 24.0 1.55 25.2 -0.55 25.35 -1.35 25.0 -4.6 23.5 -5.05 23.35 Q-8.05 22.5 -10.8 21.1 L-11.0 21.1 -11.05 21.1 -16.65 18.75 -17.1 18.45 -19.25 16.1 Q-20.25 11.35 -19.4 6.8 L-17.85 6.65 -17.85 4.45 -17.9 -0.1 -17.9 -5.0 -17.9 -5.25 -18.85 -6.0 Q-19.95 -7.3 -19.7 -9.2 -19.55 -10.0 -19.55 -10.8 L-19.5 -10.95 -19.4 -11.05 -19.25 -11.15 -19.2 -11.2 -19.0 -11.2 -19.0 -11.25 -17.85 -11.1 -17.85 -12.35 -17.85 -13.9 -18.05 -13.9 -19.0 -14.55 Q-21.65 -16.95 -24.45 -19.0 -25.2 -19.6 -26.05 -19.3 L-37.6 -17.05 Q-38.95 -17.7 -39.75 -18.85 -41.7 -21.65 -42.2 -25.15 L-42.35 -28.25 -41.75 -28.6 -39.8 -29.2 -38.6 -29.15 Q-38.4 -27.4 -37.25 -26.0 L-35.1 -23.4 -31.75 -24.3 -31.6 -24.7 -32.4 -26.55 -32.4 -27.4 -36.45 -34.55 -37.85 -44.35 -35.75 -45.9 -34.8 -45.8 -33.1 -38.95 -32.45 -46.25 Q-32.35 -47.45 -31.6 -48.5 L-30.9 -48.65 Q-29.05 -48.65 -27.5 -47.7 L-27.25 -47.5 Q-28.95 -37.4 -26.6 -27.65 L-26.05 -27.3 -25.6 -29.5 -24.65 -33.85 Q-24.0 -36.45 -25.4 -38.35 L-25.25 -39.8 -24.55 -40.35 -23.25 -40.25 -20.7 -37.75 -20.95 -36.3 -21.3 -35.75 -21.3 -26.55 -17.25 -22.45 -15.0 -22.0 -12.8 -22.9 -8.3 -24.0 -4.6 -24.6 -0.45 -24.85 4.15 -24.95 9.2 -24.35 13.4 -23.35 Q14.85 -22.85 16.05 -22.05 L18.05 -22.45 22.1 -26.55 22.1 -35.75 21.75 -36.3 21.5 -37.75 24.05 -40.25 25.35 -40.35 26.05 -39.8 26.2 -38.35 Q24.8 -36.45 25.45 -33.85 L26.4 -29.5 26.85 -27.3 27.4 -27.65 Q29.75 -37.4 28.05 -47.5 L28.3 -47.7 Q29.85 -48.65 31.7 -48.65 L32.4 -48.5 Q33.15 -47.45 33.25 -46.25 L33.9 -38.95 35.6 -45.8 36.55 -45.9 M33.6 -31.6 L33.6 -31.55 34.95 -34.75 35.7 -35.1 36.25 -37.1 37.25 -44.05 36.55 -44.6 36.0 -44.5 34.85 -37.35 Q33.1 -36.6 32.75 -38.65 32.45 -40.65 32.3 -42.7 L31.9 -46.45 31.8 -46.75 29.35 -46.4 29.35 -45.0 29.75 -44.4 29.85 -39.05 29.85 -38.4 Q30.15 -32.25 28.15 -26.55 L27.4 -26.25 27.5 -26.15 Q27.95 -23.6 28.85 -21.15 L28.95 -21.0 28.95 -20.75 33.65 -19.85 37.65 -19.2 38.95 -19.0 Q41.15 -22.8 41.65 -27.3 L41.0 -27.45 39.8 -25.6 39.65 -25.35 39.6 -25.2 39.5 -25.1 39.35 -24.85 37.15 -22.5 35.8 -21.55 31.15 -23.3 30.55 -24.7 33.6 -31.6 M22.95 -37.25 L23.4 -36.15 23.5 -25.8 Q21.8 -23.25 19.35 -21.75 L18.6 -21.3 20.15 -17.5 21.75 -19.35 23.7 -20.75 Q25.05 -21.4 26.7 -21.1 L27.8 -20.95 27.1 -24.05 Q26.35 -24.95 26.1 -26.05 L25.95 -26.3 Q25.15 -28.15 24.65 -30.1 23.85 -33.4 24.05 -37.05 L25.25 -38.75 24.35 -39.05 22.95 -37.25 M13.45 -17.7 L13.3 -18.05 Q12.7 -19.65 13.05 -21.3 L10.55 -22.15 7.35 -22.8 4.1 -23.1 -1.95 -22.95 -7.45 -22.0 -12.15 -20.65 Q-12.05 -19.3 -12.5 -18.05 L-12.55 -17.8 Q-12.85 -17.05 -13.3 -16.4 L-13.45 -16.2 Q-14.2 -15.15 -15.15 -14.55 L-14.2 -13.1 -14.1 -12.9 -14.0 -12.65 -13.85 -12.35 -13.5 -11.2 Q-13.1 -9.65 -13.25 -7.95 -13.5 -5.35 -13.3 -2.75 L-13.2 1.85 -13.1 5.25 -13.1 5.3 -9.0 5.0 -5.1 5.2 -5.55 -2.45 -5.55 -3.95 -5.55 -4.6 -5.5 -12.35 -5.55 -15.0 -5.55 -17.8 -5.55 -18.9 -5.55 -19.6 -5.65 -19.75 -5.65 -20.05 -5.3 -20.4 -5.1 -20.45 -5.0 -20.4 -4.9 -20.4 -4.9 -20.45 -4.3 -19.85 -3.1 -18.9 -2.6 -18.5 -1.8 -17.85 -1.7 -17.8 1.5 -15.8 4.35 -17.75 5.5 -18.6 6.0 -18.9 6.4 -19.3 Q7.4 -20.15 8.6 -20.05 L8.8 -20.1 Q9.7 -19.55 9.6 -18.3 L9.6 -18.2 9.55 -17.75 9.45 -15.55 9.45 -12.35 9.45 -5.15 9.3 1.85 9.3 2.15 9.3 3.4 Q9.45 3.95 9.2 4.65 L9.2 4.75 15.3 5.3 15.0 2.9 14.9 1.3 14.85 -3.3 14.95 -7.35 15.0 -11.4 15.15 -11.55 15.95 -12.35 16.85 -13.3 16.85 -14.15 Q15.85 -14.5 15.05 -15.25 L14.25 -16.2 13.45 -17.7 M14.45 -19.2 L15.0 -17.7 15.0 -17.65 Q15.65 -16.5 16.85 -15.7 L17.15 -15.55 Q17.95 -15.65 18.65 -16.05 L19.45 -16.6 17.35 -20.8 15.0 -20.4 14.05 -20.45 13.9 -20.05 14.45 -19.2 M8.15 -4.6 L8.15 -5.1 8.2 -5.95 8.2 -12.35 8.2 -15.05 8.2 -19.0 Q5.55 -17.15 2.95 -15.1 L2.85 -14.95 2.7 -14.9 2.4 -14.75 Q1.3 -13.95 -0.05 -15.0 L-1.8 -16.2 -4.15 -18.0 -4.3 -15.9 -4.3 -12.35 -4.3 -5.5 -4.3 -5.2 -4.3 -3.55 -4.6 4.95 -4.6 5.3 -4.65 5.4 -4.55 5.55 -4.6 5.65 -4.65 5.8 -4.7 5.9 -4.8 6.0 -13.5 6.3 -13.7 6.4 -13.8 6.3 -15.6 6.25 -15.7 16.0 -5.15 16.6 -2.25 13.75 0.8 11.05 1.55 10.45 2.35 11.1 2.5 11.25 2.75 11.45 3.0 11.65 4.7 13.2 5.75 14.25 7.95 16.35 16.7 17.1 16.9 13.2 17.0 10.85 16.95 7.25 16.95 7.0 14.45 6.5 12.15 6.15 8.95 6.0 8.75 6.0 8.25 5.8 8.1 4.15 8.1 4.0 8.15 3.9 8.25 3.75 8.25 3.2 Q7.95 0.15 8.05 -2.9 L8.05 -3.1 8.15 -4.6 M19.2 -9.95 L18.6 -9.85 18.65 -6.55 18.95 -6.7 19.2 -9.4 19.2 -9.95 M16.35 -10.25 L16.25 -9.55 16.2 0.85 16.15 4.55 15.95 5.45 16.95 5.75 16.9 1.0 16.9 -4.2 16.85 -9.45 16.85 -11.35 16.35 -10.25 M8.95 10.25 L9.65 9.75 10.2 9.45 12.25 8.75 12.45 8.85 12.6 9.1 12.65 9.2 12.8 9.3 Q13.55 11.55 12.1 13.15 L11.45 13.7 Q10.65 14.3 9.75 14.25 L9.5 14.2 8.7 13.95 7.85 13.4 7.55 13.15 6.7 12.2 6.65 11.9 6.7 11.7 7.1 11.45 7.6 11.15 8.25 10.7 8.95 10.25 M19.1 8.5 L18.65 8.45 18.2 12.4 18.15 14.9 18.25 17.35 18.8 16.85 19.25 12.75 Q19.5 10.55 19.1 8.5 M-29.05 -38.25 L-29.05 -38.4 -28.95 -44.4 -28.55 -45.0 -28.55 -46.4 -31.0 -46.75 -31.1 -46.45 -31.5 -42.7 -31.95 -38.65 Q-32.3 -36.6 -34.05 -37.35 L-35.2 -44.5 -35.75 -44.6 -36.45 -44.05 -35.45 -37.1 -34.9 -35.1 -34.15 -34.75 -32.95 -32.0 -32.95 -31.95 -29.75 -24.7 -30.35 -23.3 -35.0 -21.55 -36.9 -23.0 Q-38.15 -24.15 -39.0 -25.6 L-40.2 -27.45 -40.85 -27.3 Q-40.35 -23.0 -38.35 -19.35 L-38.2 -19.1 -38.15 -19.0 -32.85 -19.85 -31.5 -20.15 -31.05 -20.25 -28.25 -20.75 Q-26.75 -23.3 -26.4 -26.2 L-27.35 -26.55 -27.6 -27.3 -29.05 -38.25 M0.4 24.25 L0.85 24.1 2.9 23.7 10.15 21.6 8.3 21.65 -5.8 21.7 -1.85 23.2 Q-0.7 23.65 0.4 24.25 M7.45 17.1 L7.35 17.0 1.7 11.75 -4.55 17.8 -15.65 17.15 -15.6 18.25 -11.25 19.75 -9.05 20.55 0.0 20.6 8.3 20.55 12.2 20.8 12.5 20.95 15.05 20.1 17.2 19.3 17.05 18.45 8.3 17.65 7.45 17.1 M-22.6 -35.2 L-22.6 -36.15 -22.15 -37.25 -23.55 -39.05 -24.45 -38.75 -23.25 -37.05 -23.25 -34.4 -23.25 -34.35 Q-23.35 -32.15 -23.85 -30.1 -24.35 -28.15 -25.15 -26.3 L-25.55 -25.7 Q-25.95 -23.3 -26.9 -20.95 L-25.9 -21.1 Q-24.25 -21.4 -22.9 -20.75 L-20.95 -19.35 -19.6 -17.85 -18.0 -21.35 -17.95 -21.4 -18.55 -21.75 Q-21.0 -23.25 -22.7 -25.8 L-22.6 -35.2 M-13.65 -19.2 L-13.1 -20.05 -13.25 -20.45 -16.9 -20.9 -17.35 -21.1 Q-17.7 -18.9 -19.1 -17.15 -18.55 -16.4 -17.8 -16.0 -17.15 -15.65 -16.35 -15.55 L-15.45 -16.15 Q-14.05 -17.35 -13.65 -19.2 M-15.45 -12.35 L-15.5 -12.4 -15.6 5.3 -14.15 5.3 Q-14.6 0.95 -14.55 -3.5 -14.55 -7.4 -15.0 -11.25 L-15.3 -12.1 -15.45 -12.35 M-18.4 -10.1 L-18.4 -8.95 -18.4 -7.45 -17.85 -6.85 -17.85 -10.15 -18.4 -10.1 M-4.4 13.45 L-5.25 13.85 -6.15 14.0 -7.5 14.0 -7.95 13.95 -8.05 13.95 -8.15 13.95 -8.35 13.9 -8.7 13.8 -9.3 13.3 Q-10.85 11.3 -10.85 8.75 L-10.65 8.6 -10.4 8.5 -9.3 8.7 Q-7.25 9.15 -5.3 10.0 L-3.95 10.7 Q-2.7 11.4 -3.5 12.5 L-4.4 13.45 M-17.55 8.15 L-17.55 8.1 Q-17.85 7.5 -18.55 7.75 L-18.5 9.75 Q-18.4 12.75 -17.75 15.6 -17.6 16.2 -16.95 16.6 L-17.55 8.15" fill="#000000" fill-rule="evenodd" stroke="none"/>
    <path d="M29.85 -39.05 L29.75 -44.4 29.35 -45.0 29.35 -46.4 31.8 -46.75 31.9 -46.45 32.3 -42.7 Q32.45 -40.65 32.75 -38.65 33.1 -36.6 34.85 -37.35 L36.0 -44.5 36.55 -44.6 37.25 -44.05 36.25 -37.1 35.7 -35.1 34.95 -34.75 33.6 -31.55 33.6 -31.6 Q32.15 -35.55 29.85 -39.0 L29.85 -39.05 M37.15 -22.5 L39.35 -24.85 39.5 -25.1 39.6 -25.2 39.65 -25.35 39.8 -25.6 41.0 -27.45 41.65 -27.3 Q41.15 -22.8 38.95 -19.0 L37.65 -19.2 36.7 -22.1 37.15 -22.5 M-12.55 -17.8 L-12.5 -18.05 Q-12.05 -19.3 -12.15 -20.65 L-7.45 -22.0 -1.95 -22.95 4.1 -23.1 7.35 -22.8 10.55 -22.15 13.05 -21.3 Q12.7 -19.65 13.3 -18.05 L13.45 -17.7 9.55 -17.75 9.6 -18.2 9.6 -18.3 Q9.7 -19.55 8.8 -20.1 L8.6 -20.05 Q7.4 -20.15 6.4 -19.3 L6.0 -18.9 5.5 -18.6 4.35 -17.75 -1.7 -17.8 -1.8 -17.85 -2.6 -18.5 -3.1 -18.9 -4.3 -19.85 -4.9 -20.45 -4.9 -20.4 -5.0 -20.4 -5.1 -20.45 -5.3 -20.4 -5.65 -20.05 -5.65 -19.75 -5.55 -19.6 -5.55 -18.9 -5.55 -17.8 -12.55 -17.8 M15.05 -15.25 Q15.85 -14.5 16.85 -14.15 L16.85 -13.3 15.95 -12.35 15.15 -11.55 15.15 -12.35 15.15 -13.0 15.05 -15.25 M-13.5 -11.2 L-13.85 -12.35 -14.0 -12.65 -14.1 -12.9 -14.2 -13.1 -15.15 -14.55 Q-14.2 -15.15 -13.45 -16.2 L-13.3 -16.4 -13.4 -12.35 -13.5 -11.2 M19.2 -9.95 L19.2 -9.4 18.95 -6.7 18.65 -6.55 18.6 -9.85 19.2 -9.95 M16.35 -10.25 L16.85 -11.35 16.85 -9.45 16.9 -4.2 16.9 1.0 16.95 5.75 15.95 5.45 16.15 4.55 16.2 0.85 16.25 -9.55 16.35 -10.25 M19.1 8.5 Q19.5 10.55 19.25 12.75 L18.8 16.85 18.25 17.35 18.15 14.9 18.2 12.4 18.65 8.45 19.1 8.5 M-29.05 -38.25 L-27.6 -27.3 -27.35 -26.6 Q-29.05 -23.3 -31.05 -20.25 L-31.5 -20.15 -32.85 -19.85 -38.15 -19.0 -38.2 -19.1 -38.35 -19.35 -36.9 -23.0 -35.0 -21.55 -30.35 -23.3 -29.75 -24.7 -32.95 -31.95 -32.95 -32.0 Q-31.2 -35.25 -29.05 -38.25 M-23.25 -34.4 L-23.25 -37.05 -24.45 -38.75 -23.55 -39.05 -22.15 -37.25 -22.6 -36.15 -22.6 -35.2 -23.25 -34.4 M-18.4 -10.1 L-17.85 -10.15 -17.85 -6.85 -18.4 -7.45 -18.4 -8.95 -18.4 -10.1 M-15.45 -12.35 L-15.3 -12.1 -15.0 -11.25 Q-14.55 -7.4 -14.55 -3.5 -14.6 0.95 -14.15 5.3 L-15.6 5.3 -15.5 -12.4 -15.45 -12.35 M-17.55 8.15 L-16.95 16.6 Q-17.6 16.2 -17.75 15.6 -18.4 12.75 -18.5 9.75 L-18.55 7.75 Q-17.85 7.5 -17.55 8.1 L-17.55 8.15" fill="#8f6ac4" fill-rule="evenodd" stroke="none"/>
    <path d="M29.85 -39.05 L29.85 -39.0 Q32.15 -35.55 33.6 -31.6 L30.55 -24.7 31.15 -23.3 35.8 -21.55 37.15 -22.5 36.7 -22.1 37.65 -19.2 33.65 -19.85 28.95 -20.75 28.95 -21.0 28.85 -21.15 Q27.95 -23.6 27.5 -26.15 L27.4 -26.25 28.15 -26.55 Q30.15 -32.25 29.85 -38.4 L29.85 -39.05 M22.95 -37.25 L24.35 -39.05 25.25 -38.75 24.05 -37.05 Q23.85 -33.4 24.65 -30.1 25.15 -28.15 25.95 -26.3 L26.1 -26.05 Q26.35 -24.95 27.1 -24.05 L27.8 -20.95 26.7 -21.1 Q25.05 -21.4 23.7 -20.75 L21.75 -19.35 20.15 -17.5 18.6 -21.3 19.35 -21.75 Q21.8 -23.25 23.5 -25.8 L23.4 -36.15 22.95 -37.25 M13.45 -17.7 L14.25 -16.2 15.05 -15.25 15.15 -13.0 15.15 -12.35 15.15 -11.55 15.0 -11.4 14.95 -7.35 14.85 -3.3 14.9 1.3 10.45 -2.45 10.25 -2.6 9.45 -3.25 9.45 -1.65 11.0 -0.5 15.0 2.9 15.3 5.3 9.2 4.75 9.2 4.65 Q9.45 3.95 9.3 3.4 L9.3 2.15 9.3 1.85 9.45 -5.15 9.45 -12.35 9.45 -15.55 9.55 -17.75 13.45 -17.7 M4.35 -17.75 L1.5 -15.8 -1.7 -17.8 4.35 -17.75 M-5.55 -17.8 L-5.55 -15.0 -5.5 -12.35 -5.55 -4.6 -5.55 -3.95 -8.85 -1.3 Q-11.15 0.25 -13.2 2.15 L-13.15 3.95 Q-9.65 0.55 -5.7 -2.35 L-5.55 -2.45 -5.1 5.2 -9.0 5.0 -13.1 5.3 -13.1 5.25 -13.2 1.85 -13.3 -2.75 Q-13.5 -5.35 -13.25 -7.95 -13.1 -9.65 -13.5 -11.2 L-13.4 -12.35 -13.3 -16.4 Q-12.85 -17.05 -12.55 -17.8 L-5.55 -17.8 M14.45 -19.2 L13.9 -20.05 14.05 -20.45 15.0 -20.4 17.35 -20.8 19.45 -16.6 18.65 -16.05 Q17.95 -15.65 17.15 -15.55 L16.85 -15.7 Q15.65 -16.5 15.0 -17.65 L15.0 -17.7 14.45 -19.2 M7.45 17.1 L8.3 17.65 17.05 18.45 17.2 19.3 15.05 20.1 12.5 20.95 12.2 20.8 8.3 20.55 0.0 20.6 -9.05 20.55 -11.25 19.75 -15.6 18.25 -15.65 17.15 -4.55 17.8 1.7 11.75 7.35 17.0 7.45 17.1 M0.4 24.25 Q-0.7 23.65 -1.85 23.2 L-5.8 21.7 8.3 21.65 10.15 21.6 2.9 23.7 0.85 24.1 0.4 24.25 M-32.95 -32.0 L-34.15 -34.75 -34.9 -35.1 -35.45 -37.1 -36.45 -44.05 -35.75 -44.6 -35.2 -44.5 -34.05 -37.35 Q-32.3 -36.6 -31.95 -38.65 L-31.5 -42.7 -31.1 -46.45 -31.0 -46.75 -28.55 -46.4 -28.55 -45.0 -28.95 -44.4 -29.05 -38.4 -29.05 -38.25 Q-31.2 -35.25 -32.95 -32.0 M-27.6 -27.3 L-27.35 -26.55 -26.4 -26.2 Q-26.75 -23.3 -28.25 -20.75 L-31.05 -20.25 Q-29.05 -23.3 -27.35 -26.6 L-27.6 -27.3 M-38.35 -19.35 Q-40.35 -23.0 -40.85 -27.3 L-40.2 -27.45 -39.0 -25.6 Q-38.15 -24.15 -36.9 -23.0 L-38.35 -19.35 M-22.6 -35.2 L-22.7 -25.8 Q-21.0 -23.25 -18.55 -21.75 L-17.95 -21.4 -18.0 -21.35 -19.6 -17.85 -20.95 -19.35 -22.9 -20.75 Q-24.25 -21.4 -25.9 -21.1 L-26.9 -20.95 Q-25.95 -23.3 -25.55 -25.7 L-25.15 -26.3 Q-24.35 -28.15 -23.85 -30.1 -23.35 -32.15 -23.25 -34.35 L-23.25 -34.4 -22.6 -35.2 M-13.65 -19.2 Q-14.05 -17.35 -15.45 -16.15 L-16.35 -15.55 Q-17.15 -15.65 -17.8 -16.0 -18.55 -16.4 -19.1 -17.15 -17.7 -18.9 -17.35 -21.1 L-16.9 -20.9 -13.25 -20.45 -13.1 -20.05 -13.65 -19.2" fill="#7246ae" fill-rule="evenodd" stroke="none"/>
    <path d="M-4.3 -5.2 L-4.3 -5.5 -4.3 -12.35 -4.3 -15.9 -4.15 -18.0 -1.8 -16.2 -0.05 -15.0 Q1.3 -13.95 2.4 -14.75 L2.7 -14.9 2.85 -14.95 2.95 -15.1 Q5.55 -17.15 8.2 -19.0 L8.2 -15.05 8.2 -12.35 8.2 -5.95 8.15 -5.1 8.15 -4.6 Q5.3 -7.05 2.2 -9.1 L2.15 -9.05 1.7 -9.2 Q-1.2 -7.5 -4.0 -5.4 L-4.3 -5.2 M8.05 -2.9 Q7.95 0.15 8.25 3.2 L8.25 3.75 8.15 3.9 8.1 4.0 8.1 4.15 8.25 5.8 8.75 6.0 8.95 6.0 12.15 6.15 14.45 6.5 16.95 7.0 16.95 7.25 17.0 10.85 16.9 13.2 16.7 17.1 7.95 16.35 5.75 14.25 4.7 13.2 5.25 13.7 7.85 13.4 8.7 13.95 9.5 14.2 9.75 14.25 Q10.65 14.3 11.45 13.7 L12.1 13.15 Q13.55 11.55 12.8 9.3 L12.65 9.2 12.6 9.1 12.45 8.85 12.25 8.75 10.2 9.45 9.65 9.75 8.95 10.25 3.25 11.1 2.35 11.1 1.55 10.45 0.8 11.05 Q-2.3 10.9 -5.3 10.0 -7.25 9.15 -9.3 8.7 L-10.4 8.5 -10.65 8.6 -10.85 8.75 Q-10.85 11.3 -9.3 13.3 L-8.7 13.8 -8.35 13.9 -8.15 13.95 -8.05 13.95 -7.95 13.95 -7.5 14.0 -6.15 14.0 -5.25 13.85 -4.4 13.45 -3.35 13.6 -2.25 13.75 -5.15 16.6 -15.7 16.0 -15.6 6.25 -13.8 6.3 -13.7 6.4 -13.5 6.3 -4.8 6.0 -4.7 5.9 -4.65 5.8 -4.6 5.65 -4.55 5.55 -4.65 5.4 -4.6 5.3 -4.6 4.95 -4.3 -3.55 0.9 -7.05 1.95 -8.0 3.15 -6.9 8.05 -2.9" fill="#ffffff" fill-rule="evenodd" stroke="none"/>
    <path d="M-4.3 -5.2 L-4.0 -5.4 Q-1.2 -7.5 1.7 -9.2 L2.15 -9.05 2.2 -9.1 Q5.3 -7.05 8.15 -4.6 L8.05 -3.1 8.05 -2.9 3.15 -6.9 1.95 -8.0 0.9 -7.05 -4.3 -3.55 -4.3 -5.2" fill="#999999" fill-rule="evenodd" stroke="none"/>
    <path d="M14.9 1.3 L15.0 2.9 11.0 -0.5 9.45 -1.65 9.45 -3.25 10.25 -2.6 10.45 -2.45 14.9 1.3 M-5.55 -3.95 L-5.55 -2.45 -5.7 -2.35 Q-9.65 0.55 -13.15 3.95 L-13.2 2.15 Q-11.15 0.25 -8.85 -1.3 L-5.55 -3.95" fill="#4f2778" fill-rule="evenodd" stroke="none"/>
    <path d="M4.7 13.2 L3.0 11.65 2.75 11.45 2.5 11.25 2.35 11.1 3.25 11.1 8.95 10.25 8.25 10.7 7.6 11.15 7.1 11.45 6.7 11.7 6.65 11.9 6.7 12.2 7.55 13.15 7.85 13.4 5.25 13.7 4.7 13.2 M0.8 11.05 L-2.25 13.75 -3.35 13.6 -4.4 13.45 -3.5 12.5 Q-2.7 11.4 -3.95 10.7 L-5.3 10.0 Q-2.3 10.9 0.8 11.05" fill="#dfdfdf" fill-rule="evenodd" stroke="none"/>
  </g>
</svg>
