<?xml version="1.0" encoding="UTF-8" standalone="no"?>
<svg xmlns:xlink="http://www.w3.org/1999/xlink" height="58.05px" width="73.6px" xmlns="http://www.w3.org/2000/svg">
  <g transform="matrix(1.0, 0.0, 0.0, 1.0, 31.3, 51.8)">
    <path d="M38.75 -45.1 L38.9 -44.95 37.3 -37.55 37.1 -36.6 37.25 -36.45 Q37.5 -36.3 37.8 -36.25 38.7 -38.45 40.45 -39.8 L41.1 -39.8 42.3 -39.2 40.95 -33.5 40.6 -32.6 36.7 -31.6 Q34.8 -28.4 33.5 -24.95 L33.3 -24.55 36.3 -24.5 Q37.85 -26.4 39.75 -28.0 L40.0 -28.05 40.3 -27.9 40.45 -27.75 39.25 -23.7 39.25 -22.9 Q36.85 -19.35 32.95 -20.15 L29.9 -20.85 Q28.8 -21.1 28.2 -22.1 L28.2 -22.3 28.2 -22.5 Q28.0 -23.05 27.45 -23.2 L26.75 -23.45 26.3 -23.4 26.0 -22.9 23.0 -19.15 22.65 -19.05 22.15 -17.25 22.3 -17.1 17.25 -3.5 Q16.8 -2.35 16.75 -1.2 L16.8 -1.1 16.7 -1.05 16.7 -0.7 Q16.45 -0.15 15.85 0.0 15.55 -0.05 15.45 -0.2 L10.15 2.75 5.15 5.2 3.15 5.9 3.25 6.05 Q1.5 6.6 -0.55 5.5 -1.9 4.75 -3.4 4.25 -4.5 4.2 -5.35 3.55 L-5.3 3.55 Q-11.15 1.45 -16.7 -1.2 -18.05 -1.85 -19.25 -2.6 L-19.25 -2.8 Q-22.3 -4.85 -22.05 -8.75 -21.9 -11.65 -20.1 -13.4 -20.15 -15.05 -19.7 -16.75 L-19.6 -16.95 -19.5 -17.05 -19.35 -17.1 -19.35 -18.25 -19.1 -19.45 -19.0 -19.5 -19.05 -22.5 Q-20.6 -22.75 -21.65 -24.6 -22.8 -26.6 -24.45 -28.25 -27.9 -29.1 -31.0 -30.55 L-31.2 -36.2 -31.3 -38.35 Q-30.65 -39.2 -29.35 -38.95 L-28.65 -38.45 -28.4 -36.55 -28.0 -34.55 -27.25 -34.6 -26.7 -34.75 -26.75 -35.35 -26.9 -35.75 -27.0 -35.95 Q-27.35 -38.95 -28.5 -41.7 -28.85 -42.5 -29.55 -43.15 L-29.0 -47.8 -28.65 -49.7 -28.6 -49.75 -28.3 -49.85 -26.7 -49.45 -26.45 -48.25 -26.3 -46.5 -26.25 -46.5 -26.0 -46.6 -25.3 -49.7 -24.7 -51.45 -24.2 -51.75 -24.15 -51.8 Q-22.6 -51.25 -21.0 -50.55 L-20.85 -50.4 -21.75 -43.95 Q-22.2 -41.05 -22.15 -38.15 L-22.2 -36.8 -22.2 -34.65 -21.9 -34.05 -21.9 -33.85 -21.85 -33.65 Q-20.6 -39.0 -19.85 -44.95 -19.7 -45.95 -18.95 -46.7 L-16.55 -46.65 Q-16.55 -43.4 -17.4 -40.0 -17.9 -38.05 -17.75 -35.95 L-16.75 -34.6 Q-16.3 -34.0 -16.45 -33.2 -17.0 -32.3 -17.15 -31.25 L-17.4 -29.5 -15.9 -28.15 -13.75 -29.65 -13.1 -30.05 Q-9.15 -32.8 -4.25 -33.3 L2.35 -33.7 Q10.15 -34.55 16.35 -30.15 19.2 -28.15 20.9 -25.45 L21.0 -25.55 21.05 -25.6 21.15 -25.6 22.35 -26.5 Q22.9 -27.7 23.05 -29.05 L23.1 -29.25 25.5 -30.05 25.9 -30.7 28.75 -38.05 28.85 -38.2 28.9 -38.25 29.25 -38.25 29.95 -38.8 30.4 -39.25 30.65 -39.25 31.25 -39.2 Q31.35 -34.6 30.0 -30.0 L29.9 -28.85 Q33.25 -34.7 34.7 -41.5 L35.4 -44.85 37.65 -45.3 38.75 -45.1 M34.65 -30.05 L35.65 -32.25 Q37.55 -33.1 39.75 -33.6 L40.9 -37.65 41.05 -38.45 41.0 -38.6 40.75 -38.85 40.25 -38.85 Q39.3 -36.8 37.95 -35.0 L37.65 -34.85 Q36.55 -35.2 35.85 -36.15 36.15 -39.5 37.15 -42.8 L37.5 -43.75 37.15 -43.8 36.4 -43.75 36.1 -42.4 33.4 -33.4 33.15 -32.7 32.4 -30.8 Q31.8 -29.3 30.7 -28.15 L30.65 -27.95 30.5 -27.55 30.45 -27.4 Q29.9 -27.1 29.45 -27.15 L29.5 -25.45 29.3 -23.4 29.4 -23.2 29.45 -23.0 29.5 -22.6 Q32.15 -21.1 35.45 -21.35 36.0 -21.4 36.45 -21.8 37.25 -22.6 38.15 -23.25 L38.2 -23.35 38.55 -24.8 38.7 -25.6 37.65 -24.45 37.3 -24.05 36.95 -23.5 Q34.4 -22.55 32.2 -23.85 32.8 -27.0 34.55 -29.9 L34.65 -30.05 M30.2 -37.7 L29.7 -36.6 29.25 -35.8 Q28.65 -33.4 27.45 -31.4 L26.8 -29.3 26.7 -29.1 Q25.75 -28.6 24.7 -28.25 23.9 -27.05 23.7 -25.6 24.95 -25.1 25.6 -23.95 L26.25 -24.5 27.15 -24.65 28.35 -24.25 Q28.25 -25.9 28.7 -27.45 L28.6 -27.55 28.55 -27.75 28.6 -28.15 28.8 -28.35 Q29.35 -32.65 30.3 -36.9 L30.4 -37.45 30.35 -37.8 30.35 -37.9 30.2 -37.7 M22.95 -24.95 Q22.25 -24.4 21.55 -24.45 L21.5 -24.45 21.5 -24.4 22.75 -21.15 25.1 -23.45 Q24.25 -24.55 23.0 -24.95 L22.95 -24.95 M18.0 -26.95 Q11.35 -33.7 1.7 -32.15 L1.05 -32.1 Q-5.5 -32.3 -11.15 -29.4 L-12.9 -28.35 -14.9 -26.65 -14.8 -26.4 -14.95 -26.0 -15.05 -25.8 -15.15 -25.05 Q-15.0 -22.55 -13.4 -20.5 -8.8 -14.75 -1.6 -12.35 5.55 -10.0 12.85 -12.2 16.8 -13.35 19.75 -16.2 21.2 -17.6 21.75 -19.35 L21.65 -19.55 21.65 -19.95 21.95 -20.3 21.9 -20.45 21.85 -21.05 21.8 -21.25 21.55 -21.65 20.65 -23.8 20.55 -23.85 Q20.4 -24.0 20.4 -24.2 L18.65 -26.3 18.0 -26.95 M8.65 -2.6 L9.55 -9.3 9.5 -9.7 Q8.1 -9.7 6.6 -8.5 L4.7 -7.35 3.15 -6.65 2.6 -6.45 2.25 -6.55 2.2 -6.8 2.2 -6.85 -1.65 -9.5 Q-2.7 -7.1 -3.35 -4.5 L-3.5 -4.0 -3.55 -3.85 -3.95 -2.3 -4.35 -1.0 -5.65 -1.3 -6.3 -1.5 Q-8.75 -2.3 -11.15 -3.6 -13.6 -4.95 -15.8 -6.65 -15.85 -6.25 -16.05 -5.95 -16.0 -4.3 -16.2 -2.6 L-16.2 -2.2 Q-14.15 -1.2 -12.0 -0.25 L-11.9 -0.45 -11.7 -0.65 -11.5 -0.75 -11.2 -0.8 -11.15 -0.85 Q-8.0 -0.6 -5.6 1.15 L-5.5 1.3 -5.85 1.9 -6.05 2.05 -5.4 2.3 -3.35 3.1 2.1 1.8 Q3.7 2.4 4.95 3.6 L5.0 3.75 4.65 3.9 4.2 3.95 Q2.4 2.25 -0.1 3.35 L-1.3 3.85 2.45 5.4 5.05 3.85 6.4 3.15 6.25 2.45 6.3 2.05 Q8.25 0.95 10.65 0.75 L10.85 0.8 15.6 -1.45 15.65 -1.45 16.05 -2.9 Q15.15 -2.05 13.5 -1.7 L11.95 -1.25 11.35 -1.05 10.15 -0.8 9.35 -0.75 9.2 -0.2 9.1 -0.1 8.85 0.0 8.3 -0.35 8.4 -0.75 7.85 -0.85 8.4 -1.0 8.5 -1.7 8.65 -2.6 M10.2 -4.7 L9.9 -3.15 9.5 -1.35 12.2 -2.2 12.25 -2.2 12.6 -2.35 13.65 -2.7 16.3 -3.65 Q17.95 -9.25 20.25 -14.65 L20.35 -14.8 19.5 -14.15 Q15.95 -11.6 11.65 -10.45 L10.45 -10.2 Q10.65 -7.65 10.25 -5.0 L10.2 -4.7 M-3.55 -6.9 L-3.3 -7.75 -2.2 -10.65 -2.05 -10.75 -1.85 -10.8 -1.8 -10.85 2.6 -7.55 7.55 -10.0 Q0.15 -9.95 -6.35 -13.45 L-11.5 -16.75 Q-15.25 -19.65 -15.6 -23.95 L-16.1 -23.45 -16.65 -22.95 -17.0 -22.8 -16.95 -22.8 -15.15 -17.6 -14.1 -16.0 -14.05 -15.8 -14.35 -15.4 -15.65 -7.9 Q-12.85 -5.45 -9.55 -3.85 L-8.35 -3.3 -5.15 -2.15 -4.05 -5.3 -3.55 -6.9 M-18.25 -41.5 L-17.75 -43.85 -17.5 -44.75 -17.35 -45.15 -17.4 -45.35 -17.4 -45.55 -18.5 -45.6 -19.65 -39.15 -20.35 -33.7 Q-20.45 -33.0 -21.05 -32.55 L-21.0 -32.4 Q-21.2 -31.9 -21.75 -32.0 -22.5 -30.6 -23.6 -29.5 -23.2 -29.3 -22.9 -28.9 -21.9 -27.4 -20.7 -26.05 L-18.7 -28.65 -18.7 -28.8 -18.7 -28.95 -18.45 -29.05 -18.2 -31.2 -18.2 -31.4 -17.85 -31.75 Q-17.8 -32.8 -17.35 -33.7 L-17.95 -34.7 Q-18.15 -34.95 -18.5 -35.0 -18.85 -38.3 -18.25 -41.5 M-16.0 -26.4 L-16.55 -27.4 -16.6 -27.5 -16.65 -27.55 -17.55 -28.25 -18.2 -28.4 Q-19.0 -26.85 -20.2 -25.5 L-18.3 -23.65 Q-16.55 -23.95 -16.1 -25.4 L-16.0 -26.4 M-22.5 -45.25 L-22.0 -48.8 -21.75 -49.2 Q-22.45 -50.35 -23.95 -50.35 L-25.05 -46.05 -25.1 -45.85 -27.2 -45.8 Q-27.15 -47.0 -27.35 -48.15 L-27.4 -48.35 -27.85 -48.55 -28.6 -44.25 -28.65 -44.05 Q-27.75 -42.55 -26.35 -41.5 L-26.3 -41.25 Q-25.55 -37.9 -25.5 -34.5 -25.5 -34.0 -25.85 -33.6 L-28.7 -33.35 -29.15 -34.1 -29.6 -37.25 -29.6 -37.45 -30.0 -37.5 -29.75 -32.6 -29.75 -31.85 Q-28.1 -30.85 -26.25 -30.2 L-24.65 -29.8 Q-23.55 -30.8 -22.8 -32.1 L-22.7 -32.25 -22.7 -32.4 -22.7 -32.55 -22.4 -32.85 Q-23.05 -33.35 -23.0 -34.55 L-22.6 -44.1 -22.5 -45.25 M-18.1 -22.5 Q-18.15 -21.1 -18.35 -19.65 L-16.9 -19.2 -16.55 -19.05 -16.8 -19.75 -17.5 -21.4 -18.05 -22.5 -18.1 -22.5 M-18.7 -18.85 L-18.6 -16.85 -18.6 -16.7 -17.65 -16.55 -17.6 -17.15 -17.6 -17.35 -17.4 -17.55 Q-17.25 -17.95 -17.4 -18.35 L-18.5 -18.9 -18.7 -18.85 M-18.85 -15.5 L-19.0 -14.3 -18.6 -14.55 -18.1 -14.3 -17.85 -14.1 -17.85 -13.9 -17.85 -13.7 Q-16.7 -11.0 -16.3 -8.25 L-16.1 -8.3 -16.05 -8.25 -15.6 -12.45 Q-15.1 -14.9 -15.7 -17.2 L-16.5 -18.9 Q-16.3 -17.6 -16.75 -16.35 L-17.0 -15.35 Q-17.8 -14.8 -18.8 -15.5 L-18.85 -15.5 M-18.75 -13.4 Q-22.15 -9.55 -19.85 -5.1 -19.5 -4.35 -18.75 -3.9 -17.9 -3.4 -16.95 -3.3 -16.35 -8.05 -18.0 -12.75 -18.25 -13.45 -18.75 -13.4 M-16.1 -6.9 L-16.1 -6.5 -16.0 -6.65 -16.0 -6.8 -16.1 -6.9" fill="#000000" fill-rule="evenodd" stroke="none"/>
    <path d="M3.15 -6.65 L4.7 -7.35 6.6 -8.5 Q8.1 -9.7 9.5 -9.7 L9.55 -9.3 8.65 -2.6 8.8 -3.55 Q5.8 -4.85 3.15 -6.65 M8.5 -1.7 L8.4 -1.0 7.85 -0.85 8.4 -0.75 8.3 -0.35 8.85 0.0 9.1 -0.1 9.2 -0.2 9.35 -0.75 10.15 -0.8 11.15 -0.7 11.3 -0.95 11.35 -1.05 11.95 -1.25 13.5 -1.7 Q15.15 -2.05 16.05 -2.9 L15.65 -1.45 15.6 -1.45 10.85 0.8 10.65 0.75 Q8.25 0.95 6.3 2.05 L6.25 2.45 6.4 3.15 5.05 3.85 5.0 3.75 4.95 3.6 Q3.7 2.4 2.1 1.8 L-3.35 3.1 -5.4 2.3 -6.05 2.05 -5.85 1.9 -5.5 1.3 -5.6 1.15 Q-8.0 -0.6 -11.15 -0.85 L-11.2 -0.8 -11.5 -0.75 -11.7 -0.65 -11.9 -0.45 -12.0 -0.25 Q-14.15 -1.2 -16.2 -2.2 L-16.2 -2.6 Q-16.0 -4.3 -16.05 -5.95 -15.85 -6.25 -15.8 -6.65 -13.6 -4.95 -11.15 -3.6 -8.75 -2.3 -6.3 -1.5 L-6.35 -1.5 -5.7 -1.3 -5.65 -1.3 -4.35 -1.0 -3.95 -2.3 2.75 -5.4 Q3.8 -4.45 5.15 -3.8 6.9 -2.95 8.5 -1.7 M-3.35 -4.5 Q-2.7 -7.1 -1.65 -9.5 L2.2 -6.85 2.2 -6.8 1.55 -6.65 Q0.45 -5.55 -1.1 -5.3 L-3.35 -4.5" fill="#ffffff" fill-rule="evenodd" stroke="none"/>
    <path d="M3.15 -6.65 Q5.8 -4.85 8.8 -3.55 L8.65 -2.6 8.5 -1.7 Q6.9 -2.95 5.15 -3.8 3.8 -4.45 2.75 -5.4 L-3.95 -2.3 -3.55 -3.85 -3.5 -4.0 -3.35 -4.5 -1.1 -5.3 Q0.45 -5.55 1.55 -6.65 L2.2 -6.8 2.25 -6.55 2.6 -6.45 3.15 -6.65 M10.15 -0.8 L11.35 -1.05 11.3 -0.95 11.15 -0.7 10.15 -0.8 M-6.3 -1.5 L-5.65 -1.3 -5.7 -1.3 -6.35 -1.5 -6.3 -1.5" fill="#999999" fill-rule="evenodd" stroke="none"/>
    <path d="M33.15 -32.7 L34.65 -30.05 34.55 -29.9 Q32.8 -27.0 32.2 -23.85 34.4 -22.55 36.95 -23.5 L37.3 -24.05 37.65 -24.45 38.2 -23.35 38.15 -23.25 Q37.25 -22.6 36.45 -21.8 36.0 -21.4 35.45 -21.35 32.15 -21.1 29.5 -22.6 L29.45 -23.0 29.4 -23.2 29.3 -23.4 29.5 -25.45 29.45 -27.15 Q29.9 -27.1 30.45 -27.4 L30.5 -27.55 30.65 -27.95 30.7 -28.15 Q31.8 -29.3 32.4 -30.8 L33.15 -32.7 M30.4 -37.45 L30.3 -36.9 Q29.35 -32.65 28.8 -28.35 L28.6 -28.15 28.55 -27.75 28.6 -27.55 28.7 -27.45 Q28.25 -25.9 28.35 -24.25 L27.15 -24.65 26.25 -24.5 25.6 -23.95 Q24.95 -25.1 23.7 -25.6 23.9 -27.05 24.7 -28.25 25.75 -28.6 26.7 -29.1 L26.8 -29.3 27.45 -31.4 Q28.65 -33.4 29.25 -35.8 L29.7 -36.6 30.2 -37.7 30.4 -37.45 M22.95 -24.95 L23.0 -24.95 Q24.25 -24.55 25.1 -23.45 L22.75 -21.15 21.5 -24.4 21.5 -24.45 21.55 -24.45 Q22.25 -24.4 22.95 -24.95 M5.05 3.85 L2.45 5.4 -1.3 3.85 -0.1 3.35 Q2.4 2.25 4.2 3.95 L4.65 3.9 5.0 3.75 5.05 3.85 M12.2 -2.2 L9.5 -1.35 9.9 -3.15 10.2 -4.7 10.05 -3.8 12.2 -2.2 M10.25 -5.0 Q10.65 -7.65 10.45 -10.2 L11.65 -10.45 Q15.95 -11.6 19.5 -14.15 L20.35 -14.8 20.25 -14.65 Q17.95 -9.25 16.3 -3.65 L13.65 -2.7 10.25 -5.0 M-9.55 -3.85 Q-12.85 -5.45 -15.65 -7.9 L-14.35 -15.4 -14.05 -15.8 -14.1 -16.0 -15.15 -17.6 -16.95 -22.8 -17.0 -22.8 -16.65 -22.95 -16.1 -23.45 -15.6 -23.95 Q-15.25 -19.65 -11.5 -16.75 L-6.35 -13.45 Q0.15 -9.95 7.55 -10.0 L2.6 -7.55 -1.8 -10.85 -1.85 -10.8 -2.05 -10.75 -2.2 -10.65 -3.3 -7.75 -3.55 -6.9 -5.9 -5.8 Q-7.7 -4.75 -9.55 -3.85 M-4.05 -5.3 L-5.15 -2.15 -8.35 -3.3 -4.05 -5.3 M-19.65 -39.15 L-18.35 -40.95 -18.25 -41.5 Q-18.85 -38.3 -18.5 -35.0 -18.15 -34.95 -17.95 -34.7 L-17.35 -33.7 Q-17.8 -32.8 -17.85 -31.75 L-18.2 -31.4 -18.2 -31.2 -18.45 -29.05 -18.7 -28.95 -18.7 -28.8 -18.7 -28.65 -20.7 -26.05 Q-21.9 -27.4 -22.9 -28.9 -23.2 -29.3 -23.6 -29.5 -22.5 -30.6 -21.75 -32.0 -21.2 -31.9 -21.0 -32.4 L-21.05 -32.55 Q-20.45 -33.0 -20.35 -33.7 L-19.65 -39.15 M-16.0 -26.4 L-16.1 -25.4 Q-16.55 -23.95 -18.3 -23.65 L-20.2 -25.5 Q-19.0 -26.85 -18.2 -28.4 L-17.55 -28.25 -16.65 -27.55 -16.6 -27.5 -16.55 -27.4 -16.0 -26.4 M-26.3 -41.25 L-26.35 -41.5 Q-27.75 -42.55 -28.65 -44.05 L-28.6 -44.25 -27.85 -48.55 -27.4 -48.35 -27.35 -48.15 Q-27.15 -47.0 -27.2 -45.8 L-25.1 -45.85 -25.05 -46.05 -23.95 -50.35 Q-22.45 -50.35 -21.75 -49.2 L-22.0 -48.8 -22.5 -45.25 -22.45 -45.9 -26.3 -41.25 M-23.0 -34.55 Q-23.05 -33.35 -22.4 -32.85 L-22.7 -32.55 -22.7 -32.4 -22.7 -32.25 -22.8 -32.1 Q-23.55 -30.8 -24.65 -29.8 L-26.25 -30.2 -23.0 -34.55 M-16.1 -6.9 L-16.0 -6.8 -16.0 -6.65 -16.1 -6.5 -16.1 -6.9 M-18.75 -13.4 Q-18.25 -13.45 -18.0 -12.75 -16.35 -8.05 -16.95 -3.3 -17.9 -3.4 -18.75 -3.9 -19.5 -4.35 -19.85 -5.1 -22.15 -9.55 -18.75 -13.4 M-18.85 -15.5 L-18.8 -15.5 Q-17.8 -14.8 -17.0 -15.35 L-16.75 -16.35 Q-16.3 -17.6 -16.5 -18.9 L-15.7 -17.2 Q-15.1 -14.9 -15.6 -12.45 L-16.05 -8.25 -16.1 -8.3 -16.3 -8.25 Q-16.7 -11.0 -17.85 -13.7 L-17.85 -13.9 -17.85 -14.1 -18.1 -14.3 -18.6 -14.55 -19.0 -14.3 -18.85 -15.5 M-18.7 -18.85 L-18.5 -18.9 -17.4 -18.35 Q-17.25 -17.95 -17.4 -17.55 L-17.6 -17.35 -17.6 -17.15 -17.65 -16.55 -18.6 -16.7 -18.6 -16.85 -18.7 -18.85 M-18.1 -22.5 L-18.05 -22.5 -17.5 -21.4 -16.8 -19.75 -16.55 -19.05 -16.9 -19.2 -18.35 -19.65 Q-18.15 -21.1 -18.1 -22.5" fill="#7246ae" fill-rule="evenodd" stroke="none"/>
    <path d="M33.15 -32.7 L33.4 -33.4 36.1 -42.4 36.4 -43.75 37.15 -43.8 37.5 -43.75 37.15 -42.8 Q36.15 -39.5 35.85 -36.15 36.55 -35.2 37.65 -34.85 L37.95 -35.0 Q39.3 -36.8 40.25 -38.85 L40.75 -38.85 41.0 -38.6 41.05 -38.45 40.9 -37.65 39.75 -33.6 Q37.55 -33.1 35.65 -32.25 L34.65 -30.05 33.15 -32.7 M37.65 -24.45 L38.7 -25.6 38.55 -24.8 38.2 -23.35 37.65 -24.45 M30.4 -37.45 L30.2 -37.7 30.35 -37.9 30.35 -37.8 30.4 -37.45 M18.0 -26.95 L18.65 -26.3 20.4 -24.2 Q20.4 -24.0 20.55 -23.85 L20.65 -23.8 21.55 -21.65 21.8 -21.25 21.85 -21.05 21.9 -20.45 21.95 -20.3 21.65 -19.95 21.65 -19.55 21.75 -19.35 Q21.2 -17.6 19.75 -16.2 16.8 -13.35 12.85 -12.2 5.55 -10.0 -1.6 -12.35 -8.8 -14.75 -13.4 -20.5 -15.0 -22.55 -15.15 -25.05 L-15.05 -25.8 -14.95 -26.0 -14.8 -26.4 -14.9 -26.65 -12.9 -28.35 -11.15 -29.4 Q-5.5 -32.3 1.05 -32.1 L1.7 -32.15 Q11.35 -33.7 18.0 -26.95 M-19.65 -39.15 L-18.5 -45.6 -17.4 -45.55 -17.4 -45.35 -17.35 -45.15 -17.5 -44.75 -17.75 -43.85 -18.25 -41.5 -18.35 -40.95 -19.65 -39.15 M-22.5 -45.25 L-22.6 -44.1 -23.0 -34.55 -26.25 -30.2 Q-28.1 -30.85 -29.75 -31.85 L-29.75 -32.6 -30.0 -37.5 -29.6 -37.45 -29.6 -37.25 -29.15 -34.1 -28.7 -33.35 -25.85 -33.6 Q-25.5 -34.0 -25.5 -34.5 -25.55 -37.9 -26.3 -41.25 L-22.45 -45.9 -22.5 -45.25" fill="#8f6ac4" fill-rule="evenodd" stroke="none"/>
    <path d="M12.2 -2.2 L10.05 -3.8 10.2 -4.7 10.25 -5.0 13.65 -2.7 12.6 -2.35 12.25 -2.2 12.2 -2.2 M-9.55 -3.85 Q-7.7 -4.75 -5.9 -5.8 L-3.55 -6.9 -4.05 -5.3 -8.35 -3.3 -9.55 -3.85" fill="#4f2778" fill-rule="evenodd" stroke="none"/>
  </g>
</svg>
