<?xml version="1.0" encoding="UTF-8" standalone="no"?>
<svg xmlns:xlink="http://www.w3.org/1999/xlink" height="73.7px" width="46.4px" xmlns="http://www.w3.org/2000/svg">
  <g transform="matrix(1.0, 0.0, 0.0, 1.0, 25.5, 48.15)">
    <path d="M20.25 -27.9 L20.05 -27.6 19.85 -27.3 19.85 -27.05 19.85 -26.75 Q17.8 -24.75 14.8 -24.15 L14.4 -22.65 17.7 -20.8 17.85 -20.55 17.9 -20.25 17.8 -20.0 Q18.45 -9.25 18.3 1.65 L18.25 2.95 17.85 9.2 17.75 10.55 Q17.65 12.25 17.8 13.95 L17.35 14.3 17.35 25.15 17.2 25.45 16.55 25.55 15.25 25.35 11.05 24.3 9.6 23.85 4.25 22.15 4.05 22.05 3.8 21.95 1.1 21.0 -9.0 17.85 Q-10.3 18.15 -11.95 17.2 L-13.5 16.5 Q-16.35 15.45 -18.85 13.85 L-19.1 13.4 Q-19.35 9.9 -18.75 6.45 -18.45 6.0 -17.95 5.75 L-17.75 5.7 -17.85 1.65 -18.05 -9.0 Q-18.2 -13.9 -17.7 -17.7 L-17.75 -18.8 -17.7 -20.95 -16.85 -21.5 -16.55 -21.65 -16.5 -21.8 -16.5 -21.7 -16.2 -21.8 -15.95 -21.8 -16.4 -22.1 -16.15 -22.15 -16.4 -22.65 Q-20.1 -21.35 -23.3 -22.65 L-25.5 -33.6 Q-23.7 -35.25 -21.7 -34.4 L-20.35 -28.35 -19.75 -27.55 -18.05 -29.1 -19.75 -38.6 -20.15 -46.95 -16.7 -47.05 -16.2 -41.6 -15.45 -45.05 -15.05 -45.6 -14.8 -46.8 -13.7 -47.8 -12.1 -47.4 -11.75 -47.05 -11.3 -46.95 -11.6 -43.15 -11.4 -42.85 -11.7 -40.3 -11.3 -40.15 -10.65 -29.5 Q-9.45 -27.55 -8.55 -25.4 L-8.3 -24.45 -7.85 -24.65 Q-5.0 -25.7 -2.15 -25.9 3.55 -26.25 8.7 -24.8 L8.75 -25.7 8.75 -26.25 9.0 -26.55 Q9.1 -28.25 9.85 -29.7 L10.1 -30.0 11.3 -39.5 11.3 -40.1 12.1 -41.25 12.3 -41.45 12.4 -41.5 12.65 -41.55 12.65 -41.6 12.3 -45.85 12.1 -46.7 Q12.95 -47.9 14.6 -48.15 L15.15 -48.05 15.45 -47.75 16.3 -43.75 16.4 -43.35 16.7 -43.55 17.0 -43.85 19.0 -43.85 19.3 -43.55 Q19.45 -39.55 19.05 -35.5 18.9 -34.3 19.0 -33.0 L19.95 -33.25 20.75 -33.0 20.9 -32.8 20.25 -28.45 20.25 -27.9 M13.15 -46.15 Q13.8 -43.75 13.6 -41.1 L14.0 -37.0 14.35 -30.3 14.3 -29.75 Q15.45 -29.5 16.35 -28.8 L16.85 -29.35 17.1 -29.55 17.1 -30.0 17.25 -30.3 17.45 -30.6 Q18.2 -35.25 18.2 -40.1 L18.25 -42.6 18.25 -42.65 17.45 -42.6 17.15 -39.95 17.1 -39.4 16.55 -38.9 16.1 -38.65 15.65 -38.85 14.95 -44.6 14.6 -46.3 13.45 -46.4 13.15 -46.15 M12.4 -39.1 L11.35 -30.1 11.3 -29.55 Q10.65 -28.8 10.3 -27.85 L10.1 -27.5 10.1 -26.95 10.1 -26.85 13.9 -25.5 Q15.1 -26.3 16.6 -26.65 L16.6 -26.7 16.6 -26.85 Q16.15 -27.3 16.2 -27.9 L16.2 -27.95 13.7 -29.1 13.15 -29.05 12.85 -29.35 12.95 -31.05 12.9 -36.1 12.65 -39.1 12.45 -39.6 12.4 -39.1 M9.7 -25.8 L9.65 -24.55 12.65 -23.45 12.9 -24.55 12.95 -24.85 13.25 -25.05 9.85 -26.0 9.7 -25.8 M18.6 -31.6 L18.6 -30.85 18.6 -30.3 18.5 -30.05 18.25 -29.7 18.25 -29.45 18.25 -29.35 18.25 -29.3 18.25 -28.85 18.1 -28.6 17.85 -28.3 17.05 -27.75 17.1 -27.6 17.45 -26.85 18.35 -26.95 18.85 -29.05 19.0 -30.2 19.05 -30.95 19.2 -31.45 18.6 -31.6 M16.65 -19.5 L16.65 -19.95 Q5.05 -25.85 -7.95 -22.85 L-8.4 -22.7 -8.55 -22.3 -7.5 -21.6 -6.95 -19.85 -6.5 -18.45 -7.0 -16.7 Q-8.5 -15.45 -10.1 -15.2 L-9.15 -13.95 -5.55 -9.0 -4.45 -7.6 -4.2 -6.9 Q-4.5 -1.0 -4.35 5.0 L-4.35 6.8 -3.35 6.5 -0.8 6.05 7.9 5.95 7.7 1.65 7.55 -2.5 7.5 -3.85 7.4 -16.25 Q7.4 -18.0 7.75 -19.55 L7.8 -19.55 7.8 -19.65 8.15 -19.8 8.35 -19.85 14.45 -15.7 16.4 -17.65 16.75 -17.65 16.65 -19.5 M17.0 -7.8 L16.85 -15.8 14.9 -14.6 14.85 -14.55 14.75 -14.35 13.95 -14.35 13.4 -14.45 13.25 -14.8 12.9 -15.4 8.7 -18.6 8.75 -4.8 8.75 -3.4 8.7 1.65 8.55 6.7 -0.5 7.35 0.7 9.85 Q1.25 11.35 1.35 13.0 L1.5 15.95 Q1.55 17.3 0.5 18.6 L10.45 18.0 13.15 15.25 13.5 14.9 14.2 14.2 14.9 13.5 14.85 13.5 16.5 11.85 16.55 11.85 16.75 9.25 16.85 1.65 16.95 -5.3 16.95 -5.5 17.0 -7.8 M11.05 15.3 Q10.6 16.0 9.6 16.25 L8.65 16.35 Q6.9 16.25 5.75 14.8 L5.75 12.65 7.2 11.1 8.0 11.0 11.5 13.6 11.3 14.75 11.05 15.3 M8.6 19.1 L8.4 19.2 0.8 19.4 6.5 21.1 9.6 20.9 15.6 20.8 15.7 15.2 15.05 15.15 Q13.2 16.85 11.5 18.7 11.25 18.95 11.15 19.35 L9.6 19.15 8.6 19.1 M11.15 22.3 L10.65 22.3 11.15 22.5 Q11.45 23.1 12.4 23.25 L15.1 23.9 15.65 23.85 15.6 22.1 11.15 22.3 M-13.9 -45.6 L-14.3 -44.75 -15.05 -40.45 -15.3 -39.6 -15.65 -39.35 -17.0 -39.75 -17.75 -45.75 -19.3 -45.7 -18.9 -40.5 Q-16.25 -35.05 -16.4 -28.7 L-17.3 -27.55 Q-18.65 -25.65 -20.7 -26.05 -22.7 -29.55 -22.9 -33.3 L-24.1 -33.05 -21.95 -23.85 -16.1 -24.15 -16.1 -24.2 Q-15.2 -25.45 -14.55 -26.8 L-14.45 -27.05 -13.45 -28.2 -13.35 -28.3 Q-13.7 -35.1 -13.0 -41.7 L-12.95 -42.3 -12.7 -42.55 -12.8 -46.05 -13.15 -46.5 -13.9 -45.6 M-12.7 -28.2 L-12.8 -27.6 -12.8 -27.45 -12.85 -27.3 -12.9 -27.3 -15.3 -23.85 -14.3 -22.6 -13.25 -20.85 -13.15 -20.6 -11.35 -20.65 Q-10.35 -21.0 -9.65 -21.65 L-9.7 -21.7 -9.8 -24.0 -9.4 -24.6 -11.5 -28.6 -12.15 -36.05 -12.75 -28.25 -12.7 -28.2 M-7.95 -18.85 L-9.2 -20.9 Q-10.7 -19.45 -12.7 -19.7 L-12.55 -19.4 -11.7 -16.9 -11.2 -16.65 -8.35 -17.7 -7.95 -18.85 M-13.55 -17.05 L-15.1 -20.05 -15.75 -19.8 -15.75 -19.6 -15.75 -19.05 -15.9 -15.8 -13.55 -16.0 -13.05 -16.05 -13.55 -17.05 M-13.55 -14.65 L-15.95 -14.8 -15.95 -14.65 Q-16.15 -6.55 -15.85 1.65 L-15.9 6.1 -13.3 6.65 -5.65 7.2 -5.1 7.0 Q-5.4 5.3 -5.35 3.4 L-5.35 -4.45 -5.25 -7.0 Q-8.55 -10.5 -11.3 -14.55 L-13.55 -14.65 M-13.5 -4.35 Q-15.4 -5.45 -14.45 -7.95 -14.15 -8.75 -13.5 -9.25 L-12.85 -9.65 -11.65 -9.5 -11.45 -9.5 -10.75 -9.1 -10.3 -8.8 Q-8.35 -6.3 -10.6 -4.55 -11.15 -4.15 -11.85 -4.0 L-12.25 -3.9 -13.5 -4.35 M-13.5 -5.8 L-13.0 -5.3 Q-12.35 -4.7 -11.5 -5.15 -9.55 -6.2 -11.15 -8.1 L-11.6 -8.6 -12.8 -8.8 -13.5 -8.1 Q-14.5 -6.95 -13.5 -5.8 M-6.45 8.4 L-7.25 9.4 -7.6 9.9 Q-8.55 12.9 -7.7 15.95 L-6.0 17.45 -1.3 18.8 -0.5 16.9 0.1 14.1 -0.3 11.65 -0.8 10.3 Q-1.2 9.45 -1.85 8.85 -2.45 8.35 -3.25 8.2 L-4.3 8.1 -4.35 8.1 -5.95 8.3 -6.45 8.4 M-13.05 14.5 L-10.05 15.5 -9.25 15.8 Q-9.65 14.3 -9.5 12.65 L-9.0 10.35 -8.15 8.75 -7.85 8.4 -13.25 8.3 -13.85 8.25 -17.3 7.95 -17.35 7.95 -17.65 8.3 -17.65 9.5 -17.65 12.85 Q-16.55 13.7 -15.4 13.65 L-14.3 14.0 Q-14.1 14.05 -13.9 14.25 L-13.05 14.5" fill="#000000" fill-rule="evenodd" stroke="none"/>
    <path d="M8.75 -4.8 L8.7 -18.6 12.9 -15.4 13.25 -14.8 13.4 -14.45 13.95 -14.35 14.75 -14.35 14.85 -14.55 14.9 -14.6 16.85 -15.8 17.0 -7.8 14.75 -10.0 14.5 -10.0 13.85 -9.9 13.65 -9.5 13.5 -9.15 8.75 -4.8 M16.95 -5.5 L16.95 -5.3 16.85 1.65 16.75 9.25 16.55 11.85 16.5 11.85 14.85 13.5 12.7 13.6 11.5 13.6 8.0 11.0 7.2 11.1 5.75 12.65 5.75 14.8 Q6.9 16.25 8.65 16.35 L9.6 16.25 Q10.6 16.0 11.05 15.3 L13.15 15.25 10.45 18.0 0.5 18.6 Q1.55 17.3 1.5 15.95 L1.35 13.0 Q1.25 11.35 0.7 9.85 L-0.5 7.35 8.55 6.7 8.7 1.65 8.75 -3.4 12.35 -7.4 13.1 -7.9 Q13.6 -8.35 14.25 -8.65 L16.95 -5.5" fill="#ffffff" fill-rule="evenodd" stroke="none"/>
    <path d="M8.75 -4.8 L13.5 -9.15 13.65 -9.5 13.85 -9.9 14.5 -10.0 14.75 -10.0 17.0 -7.8 16.95 -5.5 14.25 -8.65 Q13.6 -8.35 13.1 -7.9 L12.35 -7.4 8.75 -3.4 8.75 -4.8 M14.85 13.5 L14.9 13.5 14.2 14.2 13.5 14.9 13.15 15.25 11.05 15.3 11.3 14.75 11.5 13.6 12.7 13.6 14.85 13.5" fill="#999999" fill-rule="evenodd" stroke="none"/>
    <path d="M-6.95 -19.85 L-7.5 -21.6 -8.55 -22.3 -8.4 -22.7 -7.95 -22.85 Q5.05 -25.85 16.65 -19.95 L16.65 -19.5 Q4.85 -20.6 -6.95 -19.85 M-13.55 -16.0 L-15.9 -15.8 -15.75 -19.05 -15.75 -19.6 -15.75 -19.8 -15.1 -20.05 -13.55 -17.05 -13.55 -16.0 M-13.3 6.65 L-15.9 6.1 -15.85 1.65 Q-16.15 -6.55 -15.95 -14.65 L-15.95 -14.8 -13.55 -14.65 -13.5 -9.25 Q-14.15 -8.75 -14.45 -7.95 -15.4 -5.45 -13.5 -4.35 L-13.45 -0.25 -13.4 1.65 -13.3 6.65 M-13.5 -8.1 L-13.5 -5.8 Q-14.5 -6.95 -13.5 -8.1 M-13.25 8.3 L-13.05 14.5 -13.9 14.25 Q-14.1 14.05 -14.3 14.0 L-15.4 13.65 Q-16.55 13.7 -17.65 12.85 L-17.65 9.5 -17.65 8.3 -17.35 7.95 -17.3 7.95 -13.85 8.25 -13.25 8.3" fill="#8f6ac4" fill-rule="evenodd" stroke="none"/>
    <path d="M13.15 -46.15 L13.45 -46.4 14.6 -46.3 14.95 -44.6 15.65 -38.85 16.1 -38.65 16.55 -38.9 17.1 -39.4 17.15 -39.95 17.45 -42.6 18.25 -42.65 18.25 -42.6 18.2 -40.1 Q18.2 -35.25 17.45 -30.6 L17.25 -30.3 17.1 -30.0 17.1 -29.55 16.85 -29.35 16.35 -28.8 Q15.45 -29.5 14.3 -29.75 L14.35 -30.3 14.0 -37.0 13.6 -41.1 Q13.8 -43.75 13.15 -46.15 M12.4 -39.1 L12.65 -39.1 12.9 -36.1 12.95 -31.05 12.85 -29.35 13.15 -29.05 13.7 -29.1 16.2 -27.95 16.2 -27.9 Q16.15 -27.3 16.6 -26.85 L16.6 -26.7 16.6 -26.65 Q15.1 -26.3 13.9 -25.5 L10.1 -26.85 10.1 -26.95 10.1 -27.5 10.3 -27.85 Q10.65 -28.8 11.3 -29.55 L11.35 -30.1 12.4 -39.1 M18.6 -31.6 L19.2 -31.45 19.05 -30.95 19.0 -30.2 18.85 -29.05 18.35 -26.95 17.45 -26.85 17.1 -27.6 17.05 -27.75 17.85 -28.3 18.1 -28.6 18.25 -28.85 18.25 -29.3 18.25 -29.35 18.25 -29.45 18.25 -29.7 18.5 -30.05 18.6 -30.3 18.6 -30.85 18.6 -31.6 M9.7 -25.8 L9.85 -26.0 13.25 -25.05 12.95 -24.85 12.9 -24.55 12.65 -23.45 9.65 -24.55 9.7 -25.8 M-6.95 -19.85 Q4.85 -20.6 16.65 -19.5 L16.75 -17.65 16.4 -17.65 14.45 -15.7 8.35 -19.85 8.15 -19.8 7.8 -19.65 7.8 -19.55 7.75 -19.55 Q7.4 -18.0 7.4 -16.25 L7.5 -3.85 2.0 1.65 -3.35 6.5 -4.35 6.8 -4.35 5.0 Q-4.5 -1.0 -4.2 -6.9 L-4.45 -7.6 -5.55 -9.0 -9.15 -13.95 -10.1 -15.2 Q-8.5 -15.45 -7.0 -16.7 L-6.5 -18.45 -6.95 -19.85 M7.55 -2.5 L7.7 1.65 7.9 5.95 -0.8 6.05 3.5 1.65 7.55 -2.5 M8.6 19.1 L9.6 19.15 11.15 19.35 Q11.25 18.95 11.5 18.7 13.2 16.85 15.05 15.15 L15.7 15.2 15.6 20.8 9.6 20.9 6.5 21.1 0.8 19.4 8.4 19.2 8.6 19.1 M11.15 22.5 L11.15 22.3 15.6 22.1 15.65 23.85 15.1 23.9 12.4 23.25 Q11.45 23.1 11.15 22.5 M-13.9 -45.6 L-13.15 -46.5 -12.8 -46.05 -12.7 -42.55 -12.95 -42.3 -13.0 -41.7 Q-13.7 -35.1 -13.35 -28.3 L-13.45 -28.2 -14.45 -27.05 -14.55 -26.8 Q-15.2 -25.45 -16.1 -24.2 L-16.1 -24.15 -21.95 -23.85 -24.1 -33.05 -22.9 -33.3 Q-22.7 -29.55 -20.7 -26.05 -18.65 -25.65 -17.3 -27.55 L-16.4 -28.7 Q-16.25 -35.05 -18.9 -40.5 L-19.3 -45.7 -17.75 -45.75 -17.0 -39.75 -15.65 -39.35 -15.3 -39.6 -15.05 -40.45 -14.3 -44.75 -13.9 -45.6 M-12.7 -28.2 L-12.75 -28.25 -12.15 -36.05 -11.5 -28.6 -9.4 -24.6 -9.8 -24.0 -9.7 -21.7 -9.65 -21.65 Q-10.35 -21.0 -11.35 -20.65 L-13.15 -20.6 -13.25 -20.85 -14.3 -22.6 -15.3 -23.85 -12.9 -27.3 -12.85 -27.3 -12.8 -27.45 -12.8 -27.6 -12.7 -28.2 M-7.95 -18.85 L-8.35 -17.7 -11.2 -16.65 -11.7 -16.9 -12.55 -19.4 -12.7 -19.7 Q-10.7 -19.45 -9.2 -20.9 L-7.95 -18.85 M-13.55 -16.0 L-13.55 -17.05 -13.05 -16.05 -13.55 -16.0 M-13.3 6.65 L-13.4 1.65 -13.45 -0.25 -13.5 -4.35 -12.25 -3.9 -11.85 -4.0 Q-11.15 -4.15 -10.6 -4.55 -8.35 -6.3 -10.3 -8.8 L-10.75 -9.1 -11.45 -9.5 -11.65 -9.5 -12.85 -9.65 -13.5 -9.25 -13.55 -14.65 -11.3 -14.55 Q-8.55 -10.5 -5.25 -7.0 L-5.35 -4.45 -5.35 3.4 Q-5.4 5.3 -5.1 7.0 L-5.65 7.2 -13.3 6.65 M-13.5 -8.1 L-12.8 -8.8 -11.6 -8.6 -11.15 -8.1 Q-9.55 -6.2 -11.5 -5.15 -12.35 -4.7 -13.0 -5.3 L-13.5 -5.8 -13.5 -8.1 M-6.45 8.4 L-5.95 8.3 -4.35 8.1 -4.3 8.1 -3.25 8.2 Q-2.45 8.35 -1.85 8.85 -1.2 9.45 -0.8 10.3 L-0.3 11.65 0.1 14.1 -0.5 16.9 -1.3 18.8 -6.0 17.45 -7.7 15.95 Q-8.55 12.9 -7.6 9.9 L-7.25 9.4 -6.45 8.4 M-13.25 8.3 L-7.85 8.4 -8.15 8.75 -9.0 10.35 -9.5 12.65 Q-9.65 14.3 -9.25 15.8 L-10.05 15.5 -13.05 14.5 -13.25 8.3" fill="#7246ae" fill-rule="evenodd" stroke="none"/>
    <path d="M7.5 -3.85 L7.55 -2.5 3.5 1.65 -0.8 6.05 -3.35 6.5 2.0 1.65 7.5 -3.85" fill="#4f2778" fill-rule="evenodd" stroke="none"/>
    <path d="M11.15 22.3 L11.15 22.5 10.65 22.3 11.15 22.3" fill="#bd7a37" fill-rule="evenodd" stroke="none"/>
  </g>
</svg>
