<?xml version="1.0" encoding="UTF-8" standalone="no"?>
<svg xmlns:xlink="http://www.w3.org/1999/xlink" height="72.5px" width="85.5px" xmlns="http://www.w3.org/2000/svg">
  <g transform="matrix(1.0, 0.0, 0.0, 1.0, 43.1, 48.1)">
    <path d="M37.9 -43.8 L36.5 -34.0 32.45 -26.85 32.45 -26.0 31.65 -24.15 31.8 -23.75 35.15 -22.85 37.3 -25.45 Q38.45 -26.85 38.65 -28.6 L39.85 -28.65 41.8 -28.05 42.4 -27.7 42.25 -24.6 Q41.75 -21.1 39.8 -18.3 39.0 -17.15 37.65 -16.5 L26.1 -18.75 Q25.25 -19.05 24.5 -18.45 21.7 -16.4 19.05 -14.0 L18.35 -13.5 18.4 -12.3 18.4 -12.15 Q22.0 -9.8 20.6 -5.45 L20.55 -5.25 Q19.55 -4.6 18.4 -4.25 L18.4 -3.7 18.3 -0.9 18.3 0.9 18.25 2.1 18.25 3.3 18.25 3.95 18.25 5.75 18.25 6.7 Q19.35 7.0 20.25 7.75 L20.4 7.95 Q20.85 12.8 20.5 17.6 20.45 18.75 19.6 19.45 L18.35 20.1 18.3 20.3 17.6 20.65 17.15 20.4 15.15 21.05 13.05 21.6 10.95 22.15 8.85 22.65 6.75 23.15 3.6 23.85 1.4 24.25 0.3 24.4 -0.45 24.15 -0.55 24.1 -2.55 23.6 -4.55 23.0 -5.55 22.7 -6.55 22.4 -8.55 21.8 -10.5 21.25 -12.5 20.6 -16.9 19.15 -17.0 18.75 Q-19.3 18.1 -19.4 15.25 L-19.55 9.45 -19.5 7.5 Q-19.1 7.05 -18.4 7.1 L-18.25 6.85 -18.15 6.75 -18.2 6.3 -18.3 3.9 -18.4 1.5 -18.35 -0.9 Q-18.25 -2.75 -18.4 -4.45 -19.15 -4.65 -19.85 -5.4 L-20.35 -5.8 Q-20.45 -8.35 -19.75 -10.7 L-19.0 -11.85 -18.65 -11.95 -18.35 -11.95 -18.35 -12.45 -18.35 -12.85 -18.6 -12.85 -18.6 -13.35 -18.8 -13.35 -19.75 -14.0 Q-22.4 -16.4 -25.2 -18.45 -25.95 -19.05 -26.8 -18.75 L-38.35 -16.5 Q-39.7 -17.15 -40.5 -18.3 -42.45 -21.1 -42.95 -24.6 L-43.1 -27.7 -42.5 -28.05 -40.55 -28.65 -39.35 -28.6 Q-39.15 -26.85 -38.0 -25.45 L-35.85 -22.85 -32.5 -23.75 -32.35 -24.15 -33.15 -26.0 -33.15 -26.85 -37.2 -34.0 -38.6 -43.8 -36.5 -45.35 -35.55 -45.25 -33.85 -38.4 -33.2 -45.7 Q-33.1 -46.9 -32.35 -47.95 L-31.65 -48.1 Q-29.8 -48.1 -28.25 -47.15 L-28.0 -46.95 Q-29.7 -36.85 -27.35 -27.1 L-26.8 -26.75 -26.35 -28.95 -25.4 -33.3 Q-24.75 -35.9 -26.15 -37.8 L-26.0 -39.25 -25.3 -39.8 -24.0 -39.7 -21.45 -37.2 -21.7 -35.75 -22.05 -35.2 -22.05 -26.0 -18.0 -21.9 -16.0 -21.5 -15.3 -21.75 -14.9 -21.8 -13.55 -22.35 -9.05 -23.45 -5.35 -24.05 -1.2 -24.3 -0.9 -24.3 -0.75 -24.3 0.35 -24.35 0.95 -24.4 1.55 -24.35 1.6 -24.35 3.4 -24.4 8.45 -23.8 12.65 -22.8 15.3 -21.5 17.3 -21.9 21.35 -26.0 21.35 -35.2 21.0 -35.75 20.75 -37.2 23.3 -39.7 24.6 -39.8 25.3 -39.25 25.45 -37.8 Q24.05 -35.9 24.7 -33.3 L25.65 -28.95 26.1 -26.75 26.65 -27.1 Q29.0 -36.85 27.3 -46.95 L27.55 -47.15 Q29.1 -48.1 30.95 -48.1 L31.65 -47.95 Q32.4 -46.9 32.5 -45.7 L33.15 -38.4 34.85 -45.25 35.8 -45.35 37.9 -43.8 M32.85 -31.05 L32.85 -31.0 34.2 -34.2 34.95 -34.55 35.5 -36.55 36.5 -43.5 35.8 -44.05 35.25 -43.95 34.1 -36.8 Q32.35 -36.05 32.0 -38.1 L31.55 -42.15 31.15 -45.9 31.05 -46.2 28.6 -45.85 28.6 -44.45 29.0 -43.85 29.1 -38.5 29.1 -37.85 Q29.4 -31.7 27.4 -26.0 L27.25 -25.95 27.5 -24.25 27.9 -22.7 28.25 -20.2 32.9 -19.3 36.9 -18.65 38.2 -18.45 Q40.4 -22.25 40.9 -26.75 L40.25 -26.9 39.05 -25.05 38.9 -24.8 38.85 -24.65 38.75 -24.55 38.6 -24.3 36.4 -21.95 35.05 -21.0 30.4 -22.75 29.8 -24.15 32.85 -31.05 M23.6 -38.5 L22.2 -36.7 22.65 -35.6 22.75 -25.25 Q21.05 -22.7 18.6 -21.2 L17.4 -20.55 19.95 -17.65 21.0 -18.8 22.95 -20.2 Q24.3 -20.85 25.95 -20.55 L27.1 -20.4 Q26.35 -22.8 26.05 -25.3 L25.75 -25.05 25.2 -25.75 Q24.4 -27.6 23.9 -29.55 23.1 -32.85 23.3 -36.5 L24.5 -38.2 23.6 -38.5 M16.85 -19.85 L16.65 -20.0 16.4 -20.2 14.45 -19.85 14.25 -19.85 13.3 -19.9 13.15 -19.5 13.7 -18.65 Q13.85 -17.85 14.25 -17.15 L14.25 -17.1 Q14.9 -15.95 16.1 -15.15 L16.4 -15.0 16.95 -15.1 17.9 -15.5 18.3 -15.75 19.15 -16.6 19.25 -16.7 16.95 -19.05 16.85 -19.45 16.85 -19.85 M12.25 -18.7 Q12.1 -19.65 12.25 -20.6 L12.15 -20.65 11.4 -20.9 10.7 -21.05 9.95 -21.2 9.25 -21.4 8.45 -21.6 7.75 -21.7 6.95 -21.85 6.2 -21.95 5.4 -22.1 4.4 -22.15 3.3 -22.25 2.3 -22.25 1.2 -22.3 0.2 -22.25 -0.9 -22.25 -3.0 -22.15 -5.05 -21.9 -6.05 -21.7 -8.15 -21.35 -10.2 -20.9 -10.95 -20.75 -12.9 -20.1 Q-12.85 -19.4 -12.95 -18.65 L-13.25 -17.5 -13.3 -17.25 -14.0 -15.9 -14.05 -15.85 -14.2 -15.65 Q-14.9 -14.65 -15.8 -14.1 L-13.9 -14.1 -8.9 -14.1 -5.8 -14.1 -5.75 -14.05 -5.55 -14.15 -5.35 -14.2 Q-2.45 -12.5 -0.15 -10.1 1.85 -12.45 4.55 -13.95 L4.75 -14.0 5.15 -13.8 5.45 -14.0 13.75 -14.0 15.2 -14.05 14.3 -14.7 13.7 -15.4 13.5 -15.65 12.7 -17.15 12.55 -17.5 12.25 -18.7 M13.75 -13.0 L12.3 -13.0 5.3 -12.9 3.6 -11.9 3.0 -11.45 2.3 -10.95 0.35 -9.2 -0.2 -8.6 -0.45 -8.55 Q-3.2 -10.35 -5.05 -12.7 L-8.9 -12.65 Q-11.45 -12.55 -13.85 -12.75 L-16.7 -13.05 -16.8 -13.0 -16.8 -12.35 -16.8 -11.25 -16.8 -10.15 -16.7 -8.95 -16.7 -7.85 -16.7 -6.7 -16.7 -5.6 -16.65 -4.4 -16.65 -3.3 -16.65 -2.2 -16.6 -1.1 -16.55 -0.2 -16.55 0.7 -16.55 1.6 -16.55 2.4 -16.45 3.3 -16.45 4.2 -16.45 5.1 -16.45 5.9 -16.4 6.8 Q-14.6 7.45 -12.8 8.2 L-1.75 12.6 -0.75 12.65 8.45 9.9 13.85 8.15 16.4 7.3 16.4 7.15 16.35 5.95 16.35 4.85 16.4 3.65 16.4 2.5 16.45 1.3 16.5 0.1 16.55 -1.1 16.6 -2.3 16.65 -3.5 16.7 -4.7 16.7 -5.9 16.7 -7.7 16.8 -9.6 16.8 -10.8 16.85 -12.6 16.9 -12.9 16.6 -12.9 13.75 -13.0 M18.4 -10.2 L18.45 -8.0 18.45 -5.9 18.45 -5.7 19.55 -6.05 Q20.35 -9.05 18.4 -11.05 L18.4 -10.2 M13.85 9.5 L12.4 9.95 Q5.5 11.85 -1.15 14.25 L-1.45 14.3 -12.7 9.4 -14.55 8.55 -14.75 8.45 -16.35 8.15 -16.35 8.6 -16.35 9.4 -13.5 11.05 -13.35 11.15 -12.65 11.55 Q-6.6 14.65 -0.25 16.75 0.25 16.9 0.55 16.45 L13.8 12.6 16.5 11.75 16.4 10.55 16.4 9.45 16.4 8.4 13.85 9.5 M-12.3 19.0 L-11.7 19.2 -11.0 19.4 -9.6 19.9 -8.1 20.4 -7.35 20.65 -5.85 21.1 -4.45 21.55 -3.75 21.7 -2.8 22.05 -0.2 23.05 Q0.15 22.8 0.55 22.6 L1.35 22.2 2.2 21.95 3.15 21.7 4.05 21.65 4.85 21.5 5.65 21.4 6.45 21.25 8.05 21.05 9.65 20.75 10.45 20.65 12.05 20.4 13.65 20.1 14.4 19.95 14.45 19.9 15.2 19.6 Q16.0 19.45 16.8 19.6 L16.75 18.5 16.7 17.4 16.65 16.3 16.55 15.1 16.55 14.0 16.5 12.85 16.5 12.35 13.85 13.25 Q7.45 15.45 1.15 17.75 L-0.55 18.0 -1.8 17.7 Q-7.3 15.3 -12.6 12.6 L-14.2 11.75 -16.35 10.7 -16.35 11.1 -16.25 12.8 -16.05 14.05 -15.75 15.1 -15.6 15.7 Q-15.3 16.8 -15.4 17.8 L-14.6 18.1 -13.9 18.4 -13.2 18.7 -12.5 18.9 -12.3 19.0 M18.2 7.95 L18.2 8.15 18.25 8.85 18.25 9.45 18.3 11.85 18.35 14.25 18.4 16.65 18.4 18.4 18.95 18.1 19.2 17.7 19.55 17.25 Q19.3 13.65 19.2 9.95 L19.1 8.45 18.2 7.95 M-37.65 -22.45 Q-38.9 -23.6 -39.75 -25.05 L-40.95 -26.9 -41.6 -26.75 Q-41.1 -22.45 -39.1 -18.8 L-38.95 -18.55 -38.9 -18.45 -33.6 -19.3 -32.25 -19.6 -31.8 -19.7 -27.5 -20.4 -28.0 -25.55 -28.0 -25.7 -27.8 -25.9 -28.1 -26.0 -28.35 -26.75 -29.8 -37.7 -29.8 -37.85 -29.7 -43.85 -29.3 -44.45 -29.3 -45.85 -31.75 -46.2 -31.85 -45.9 -32.25 -42.15 Q-32.4 -40.1 -32.7 -38.1 -33.05 -36.05 -34.8 -36.8 L-35.95 -43.95 -36.5 -44.05 -37.2 -43.5 -36.2 -36.55 -35.65 -34.55 -34.9 -34.2 -33.7 -31.45 -33.7 -31.4 -30.5 -24.15 -31.1 -22.75 -35.75 -21.0 -37.65 -22.45 M-23.35 -34.65 L-23.35 -35.6 -22.9 -36.7 -24.3 -38.5 -25.2 -38.2 -24.0 -36.5 -24.0 -33.85 -24.0 -33.8 Q-24.1 -31.6 -24.6 -29.55 -25.1 -27.6 -25.9 -25.75 L-26.45 -25.05 -26.65 -25.25 -26.65 -20.55 -23.65 -20.2 -21.7 -18.8 -20.45 -17.4 Q-19.75 -19.25 -18.4 -20.7 L-19.3 -21.2 Q-21.75 -22.7 -23.45 -25.25 L-23.35 -34.65 M-14.4 -18.65 L-13.85 -19.5 -14.0 -19.9 -14.4 -19.85 Q-16.1 -19.8 -17.65 -20.35 L-17.9 -20.45 Q-18.65 -18.45 -19.75 -16.45 L-18.55 -15.45 -18.35 -15.35 -17.1 -15.0 -16.85 -15.1 -16.2 -15.6 Q-14.8 -16.8 -14.4 -18.65 M-18.35 -10.55 L-18.8 -10.6 Q-19.55 -9.5 -19.35 -8.0 L-19.3 -6.75 -18.4 -5.9 -18.4 -6.55 -18.35 -7.35 -18.35 -8.15 -18.35 -9.85 -18.35 -10.55 M-18.05 8.15 L-18.35 8.3 Q-18.75 12.3 -17.7 16.25 L-17.4 17.25 -17.25 17.25 -17.3 16.85 -17.4 15.55 -17.55 14.25 -17.65 13.45 -17.85 11.1 -18.05 8.7 -18.05 8.15" fill="#000000" fill-rule="evenodd" stroke="none"/>
    <path d="M29.1 -38.5 L29.0 -43.85 28.6 -44.45 28.6 -45.85 31.05 -46.2 31.15 -45.9 31.55 -42.15 32.0 -38.1 Q32.35 -36.05 34.1 -36.8 L35.25 -43.95 35.8 -44.05 36.5 -43.5 35.5 -36.55 34.95 -34.55 34.2 -34.2 32.85 -31.0 32.85 -31.05 Q31.4 -35.0 29.1 -38.45 L29.1 -38.5 M36.4 -21.95 L38.6 -24.3 38.75 -24.55 38.85 -24.65 38.9 -24.8 39.05 -25.05 40.25 -26.9 40.9 -26.75 Q40.4 -22.25 38.2 -18.45 L36.9 -18.65 35.95 -21.55 36.4 -21.95 M-12.95 -18.65 Q-12.85 -19.4 -12.9 -20.1 L-10.95 -20.75 -10.2 -20.9 -8.15 -21.35 -6.05 -21.7 -5.05 -21.9 -3.0 -22.15 -0.9 -22.25 0.2 -22.25 1.2 -22.3 2.3 -22.25 3.3 -22.25 4.4 -22.15 5.4 -22.1 6.2 -21.95 6.95 -21.85 7.75 -21.7 8.45 -21.6 9.25 -21.4 9.95 -21.2 10.7 -21.05 11.4 -20.9 12.15 -20.65 12.25 -20.6 Q12.1 -19.65 12.25 -18.7 L-8.25 -19.1 -12.95 -18.65 M13.7 -15.4 L14.3 -14.7 15.2 -14.05 13.75 -14.0 13.7 -15.4 M-13.9 -14.1 L-15.8 -14.1 Q-14.9 -14.65 -14.2 -15.65 L-14.05 -15.85 -14.0 -15.9 -13.9 -14.1 M-13.85 -12.75 L-13.65 -3.4 -13.55 -0.4 -12.95 7.1 -12.8 8.2 Q-14.6 7.45 -16.4 6.8 L-16.45 5.9 -16.45 5.1 -16.45 4.2 -16.45 3.3 -16.55 2.4 -16.55 1.6 -16.55 0.7 -16.55 -0.2 -16.6 -1.1 -16.65 -2.2 -16.65 -3.3 -16.65 -4.4 -16.7 -5.6 -16.7 -6.7 -16.7 -7.85 -16.7 -8.95 -16.8 -10.15 -16.8 -11.25 -16.8 -12.35 -16.8 -13.0 -16.7 -13.05 -13.85 -12.75 M13.85 8.15 Q14.0 -2.45 13.75 -13.0 L16.6 -12.9 16.9 -12.9 16.85 -12.6 16.8 -10.8 16.8 -9.6 16.7 -7.7 16.7 -5.9 16.7 -4.7 16.65 -3.5 16.6 -2.3 16.55 -1.1 16.5 0.1 16.45 1.3 16.4 2.5 16.4 3.65 16.35 4.85 16.35 5.95 16.4 7.15 16.4 7.3 13.85 8.15 M18.4 -10.2 L18.4 -11.05 Q20.35 -9.05 19.55 -6.05 L18.45 -5.7 18.45 -5.9 18.45 -8.0 18.4 -10.2 M13.8 12.6 L13.8 10.25 13.85 9.5 16.4 8.4 16.4 9.45 16.4 10.55 16.5 11.75 13.8 12.6 M-12.7 9.4 L-12.7 10.15 -12.65 11.55 -13.35 11.15 -13.5 11.05 -16.35 9.4 -16.35 8.6 -16.35 8.15 -14.75 8.45 -14.55 8.55 -12.7 9.4 M-12.3 19.0 L-12.5 18.9 -13.2 18.7 -13.9 18.4 -14.6 18.1 -15.4 17.8 Q-15.3 16.8 -15.6 15.7 L-15.75 15.1 -16.05 14.05 -16.25 12.8 -16.35 11.1 -16.35 10.7 -14.2 11.75 -12.6 12.6 -12.3 19.0 M13.85 13.25 L16.5 12.35 16.5 12.85 16.55 14.0 16.55 15.1 16.65 16.3 16.7 17.4 16.75 18.5 16.8 19.6 Q16.0 19.45 15.2 19.6 L14.45 19.9 14.4 19.95 14.15 17.7 13.85 13.25 M-37.65 -22.45 L-35.75 -21.0 -31.1 -22.75 -30.5 -24.15 -33.7 -31.4 -33.7 -31.45 Q-31.95 -34.7 -29.8 -37.7 L-28.35 -26.75 -28.1 -26.05 Q-29.8 -22.75 -31.8 -19.7 L-32.25 -19.6 -33.6 -19.3 -38.9 -18.45 -38.95 -18.55 -39.1 -18.8 -37.65 -22.45 M-24.0 -33.85 L-24.0 -36.5 -25.2 -38.2 -24.3 -38.5 -22.9 -36.7 -23.35 -35.6 -23.35 -34.65 -24.0 -33.85 M-18.35 -10.55 L-18.35 -9.85 -18.35 -8.15 -18.35 -7.35 -18.4 -6.55 -18.4 -5.9 -19.3 -6.75 -19.35 -8.0 Q-19.55 -9.5 -18.8 -10.6 L-18.35 -10.55" fill="#8f6ac4" fill-rule="evenodd" stroke="none"/>
    <path d="M29.1 -38.5 L29.1 -38.45 Q31.4 -35.0 32.85 -31.05 L29.8 -24.15 30.4 -22.75 35.05 -21.0 36.4 -21.95 35.95 -21.55 36.9 -18.65 32.9 -19.3 28.25 -20.2 27.9 -22.7 27.5 -24.25 27.25 -25.95 27.4 -26.0 Q29.4 -31.7 29.1 -37.85 L29.1 -38.5 M16.85 -19.85 L16.85 -19.45 16.95 -19.05 19.25 -16.7 19.15 -16.6 18.3 -15.75 17.9 -15.5 16.95 -15.1 16.4 -15.0 16.1 -15.15 Q14.9 -15.95 14.25 -17.1 L14.25 -17.15 Q13.85 -17.85 13.7 -18.65 L13.15 -19.5 13.3 -19.9 14.25 -19.85 14.45 -19.85 16.4 -20.2 16.65 -20.0 16.85 -19.85 M23.6 -38.5 L24.5 -38.2 23.3 -36.5 Q23.1 -32.85 23.9 -29.55 24.4 -27.6 25.2 -25.75 L25.75 -25.05 26.05 -25.3 Q26.35 -22.8 27.1 -20.4 L25.95 -20.55 Q24.3 -20.85 22.95 -20.2 L21.0 -18.8 19.95 -17.65 17.4 -20.55 18.6 -21.2 Q21.05 -22.7 22.75 -25.25 L22.65 -35.6 22.2 -36.7 23.6 -38.5 M12.25 -18.7 L12.55 -17.5 12.7 -17.15 13.5 -15.65 13.7 -15.4 13.75 -14.0 5.45 -14.0 5.15 -13.8 4.75 -14.0 4.55 -13.95 Q1.85 -12.45 -0.15 -10.1 -2.45 -12.5 -5.35 -14.2 L-5.55 -14.15 -5.75 -14.05 -5.8 -14.1 -8.9 -14.1 -13.9 -14.1 -14.0 -15.9 -13.3 -17.25 -13.25 -17.5 -12.95 -18.65 -8.25 -19.1 12.25 -18.7 M-13.85 -12.75 Q-11.45 -12.55 -8.9 -12.65 L-5.05 -12.7 Q-3.2 -10.35 -0.45 -8.55 L-0.2 -8.6 0.35 -9.2 2.3 -10.95 3.0 -11.45 3.6 -11.9 5.3 -12.9 12.3 -13.0 13.75 -13.0 Q14.0 -2.45 13.85 8.15 L8.45 9.9 -0.75 12.65 -1.75 12.6 -12.8 8.2 -12.95 7.1 -13.55 -0.4 -13.65 -3.4 -13.85 -12.75 M13.85 9.5 L13.8 10.25 13.8 12.6 0.55 16.45 Q0.25 16.9 -0.25 16.75 -6.6 14.65 -12.65 11.55 L-12.7 10.15 -12.7 9.4 -1.45 14.3 -1.15 14.25 Q5.5 11.85 12.4 9.95 L13.85 9.5 M18.2 7.95 L19.1 8.45 19.2 9.95 Q19.3 13.65 19.55 17.25 L19.2 17.7 18.95 18.1 18.4 18.4 18.4 16.65 18.35 14.25 18.3 11.85 18.25 9.45 18.25 8.85 18.2 8.15 18.2 7.95 M14.4 19.95 L13.65 20.1 12.05 20.4 10.45 20.65 9.65 20.75 8.05 21.05 6.45 21.25 5.65 21.4 4.85 21.5 4.05 21.65 3.15 21.7 2.2 21.95 1.35 22.2 0.55 22.6 Q0.15 22.8 -0.2 23.05 L-2.8 22.05 -3.75 21.7 -4.45 21.55 -5.85 21.1 -7.35 20.65 -8.1 20.4 -9.6 19.9 -11.0 19.4 -11.7 19.2 -12.3 19.0 -12.6 12.6 Q-7.3 15.3 -1.8 17.7 L-0.55 18.0 1.15 17.75 Q7.45 15.45 13.85 13.25 L14.15 17.7 14.4 19.95 M-39.1 -18.8 Q-41.1 -22.45 -41.6 -26.75 L-40.95 -26.9 -39.75 -25.05 Q-38.9 -23.6 -37.65 -22.45 L-39.1 -18.8 M-33.7 -31.45 L-34.9 -34.2 -35.65 -34.55 -36.2 -36.55 -37.2 -43.5 -36.5 -44.05 -35.95 -43.95 -34.8 -36.8 Q-33.05 -36.05 -32.7 -38.1 -32.4 -40.1 -32.25 -42.15 L-31.85 -45.9 -31.75 -46.2 -29.3 -45.85 -29.3 -44.45 -29.7 -43.85 -29.8 -37.85 -29.8 -37.7 Q-31.95 -34.7 -33.7 -31.45 M-28.35 -26.75 L-28.1 -26.0 -27.8 -25.9 -28.0 -25.7 -28.0 -25.55 -27.5 -20.4 -31.8 -19.7 Q-29.8 -22.75 -28.1 -26.05 L-28.35 -26.75 M-23.35 -34.65 L-23.45 -25.25 Q-21.75 -22.7 -19.3 -21.2 L-18.4 -20.7 Q-19.75 -19.25 -20.45 -17.4 L-21.7 -18.8 -23.65 -20.2 -26.65 -20.55 -26.65 -25.25 -26.45 -25.05 -25.9 -25.75 Q-25.1 -27.6 -24.6 -29.55 -24.1 -31.6 -24.0 -33.8 L-24.0 -33.85 -23.35 -34.65 M-14.4 -18.65 Q-14.8 -16.8 -16.2 -15.6 L-16.85 -15.1 -17.1 -15.0 -18.35 -15.35 -18.55 -15.45 -19.75 -16.45 Q-18.65 -18.45 -17.9 -20.45 L-17.65 -20.35 Q-16.1 -19.8 -14.4 -19.85 L-14.0 -19.9 -13.85 -19.5 -14.4 -18.65 M-18.05 8.15 L-18.05 8.7 -17.85 11.1 -17.65 13.45 -17.55 14.25 -17.4 15.55 -17.3 16.85 -17.25 17.25 -17.4 17.25 -17.7 16.25 Q-18.75 12.3 -18.35 8.3 L-18.05 8.15" fill="#7246ae" fill-rule="evenodd" stroke="none"/>
  </g>
</svg>
