<?xml version="1.0" encoding="UTF-8" standalone="no"?>
<svg xmlns:xlink="http://www.w3.org/1999/xlink" height="73.65px" width="79.1px" xmlns="http://www.w3.org/2000/svg">
  <g transform="matrix(1.0, 0.0, 0.0, 1.0, 36.7, 67.0)">
    <path d="M35.95 -62.2 L36.5 -59.0 Q36.0 -58.45 36.0 -57.4 L35.95 -52.95 33.8 -51.9 32.75 -50.0 31.4 -45.75 31.25 -45.3 32.2 -43.05 36.25 -42.95 Q36.9 -44.75 37.9 -46.4 L39.2 -48.1 41.3 -46.1 42.1 -45.35 42.35 -45.25 42.4 -44.95 40.0 -41.0 38.3 -38.05 Q32.75 -37.6 27.7 -39.75 L24.6 -38.5 Q24.25 -35.7 22.2 -34.15 L22.2 -3.25 22.8 -2.45 22.55 -0.2 22.1 -0.05 21.35 0.05 20.0 0.65 19.7 0.85 Q15.0 4.0 9.9 6.35 L9.8 6.4 9.25 6.65 Q1.9 4.5 -4.85 0.95 L-10.35 -1.6 -12.3 -2.3 -12.35 -2.4 Q-13.45 -2.75 -14.45 -3.45 L-14.9 -12.0 -14.9 -19.45 -14.85 -20.9 -16.25 -21.75 Q-17.15 -24.4 -16.65 -27.3 L-16.6 -27.65 -15.5 -28.0 -15.5 -29.45 -15.7 -31.15 -15.65 -34.15 Q-18.45 -35.7 -18.9 -39.0 L-22.0 -40.25 Q-27.05 -38.1 -32.6 -38.55 L-34.3 -41.5 -36.7 -45.45 -36.65 -45.75 -36.4 -45.85 -35.6 -46.6 -33.5 -48.6 -32.2 -46.9 Q-31.2 -45.25 -30.55 -43.45 L-26.5 -43.55 -25.55 -45.8 -25.7 -46.25 -27.05 -50.5 Q-27.45 -51.55 -28.1 -52.4 L-30.25 -53.45 -30.3 -57.9 Q-30.3 -58.95 -30.8 -59.5 L-30.25 -62.7 -28.45 -64.35 -27.95 -63.35 Q-27.5 -62.3 -27.45 -61.2 -27.3 -59.35 -26.7 -57.75 L-26.05 -57.25 -26.0 -64.4 Q-25.95 -65.75 -25.05 -66.95 -22.6 -67.25 -20.35 -66.1 L-20.55 -65.2 Q-21.55 -61.8 -21.55 -57.9 -21.55 -54.45 -21.15 -51.05 -20.95 -49.0 -20.1 -47.15 -19.75 -46.3 -18.9 -45.85 L-18.2 -45.65 -18.05 -46.75 -19.05 -47.9 -18.55 -57.95 -16.75 -59.95 Q-16.0 -60.8 -15.15 -60.65 -15.25 -57.05 -15.5 -53.6 -15.65 -51.05 -14.65 -48.85 L-13.6 -46.5 Q-12.75 -44.35 -12.95 -42.15 L-12.85 -42.1 -13.0 -41.65 -13.05 -41.5 -12.7 -41.2 -12.0 -41.45 -10.15 -42.0 Q-6.1 -43.65 -1.75 -44.2 L-0.15 -44.45 8.75 -44.15 Q12.5 -43.65 16.05 -42.4 L18.7 -41.4 Q18.4 -43.7 19.3 -46.0 L20.35 -48.35 Q21.35 -50.55 21.2 -53.1 20.95 -56.55 20.85 -60.15 21.7 -60.3 22.45 -59.45 L24.25 -57.45 24.75 -47.4 23.75 -46.25 23.9 -45.15 24.6 -45.35 Q25.45 -45.8 25.8 -46.65 26.65 -48.5 26.85 -50.55 27.25 -53.95 27.25 -57.4 27.25 -61.3 26.25 -64.7 L26.05 -65.6 Q28.3 -66.75 30.75 -66.45 31.65 -65.25 31.7 -63.9 L31.75 -56.75 32.4 -57.25 Q33.0 -58.85 33.15 -60.7 33.2 -61.8 33.65 -62.85 L34.15 -63.85 35.95 -62.2 M30.8 -49.95 L31.1 -51.4 33.05 -53.0 34.15 -53.55 34.3 -53.7 34.8 -56.15 35.5 -59.4 Q35.9 -61.05 34.6 -61.45 L33.8 -56.6 31.4 -55.1 30.65 -55.7 30.05 -65.0 28.1 -64.65 Q27.9 -63.4 28.15 -61.65 28.7 -57.8 28.65 -53.85 L28.65 -53.7 28.6 -52.75 28.35 -49.9 28.25 -48.2 27.9 -47.45 29.55 -45.75 29.7 -45.6 29.9 -45.5 30.45 -48.4 30.8 -49.95 M35.85 -41.5 L31.25 -41.8 31.1 -43.2 30.85 -43.55 30.6 -43.5 Q29.95 -43.75 29.45 -44.25 L29.4 -44.4 27.4 -46.4 26.75 -45.35 25.8 -44.25 Q24.35 -43.1 22.65 -43.95 22.7 -46.9 23.05 -49.9 23.3 -52.3 23.2 -54.75 L23.0 -57.25 22.4 -57.85 22.4 -53.45 Q22.5 -50.55 21.7 -47.8 L21.3 -47.4 20.15 -45.55 20.05 -42.95 20.25 -43.0 Q22.3 -42.05 24.0 -40.55 L24.05 -40.5 Q25.65 -41.7 27.5 -41.3 L32.35 -40.1 35.65 -39.7 35.7 -39.7 37.5 -40.05 39.5 -43.05 40.45 -44.75 39.35 -46.7 36.8 -41.7 35.85 -41.5 M21.9 -37.45 L22.0 -36.65 22.1 -36.75 22.2 -37.75 Q22.45 -38.9 23.25 -39.75 21.5 -40.35 20.0 -41.8 L19.95 -40.35 Q21.0 -39.75 21.6 -38.5 L21.9 -37.45 M20.9 -37.75 L20.9 -38.95 19.1 -39.7 18.95 -39.75 Q16.0 -41.0 12.95 -41.85 L6.65 -42.8 -0.7 -42.7 -3.8 -42.3 Q-7.6 -41.55 -11.1 -39.95 L-10.15 -39.15 Q-9.95 -37.85 -10.3 -36.45 -10.7 -34.8 -12.15 -34.3 L-10.35 -31.9 -8.25 -28.6 -8.15 -28.45 -8.1 -28.4 -7.85 -28.35 -7.7 -28.2 -7.8 -25.15 -7.85 -23.7 -8.0 -18.6 -8.05 -17.2 -8.1 -16.2 -8.05 -14.55 -8.05 -13.55 -8.0 -13.0 -6.25 -13.0 1.9 -13.15 1.85 -37.75 1.85 -38.55 2.65 -39.05 4.1 -38.05 4.55 -37.75 Q7.0 -36.05 9.55 -34.45 L9.9 -34.35 13.7 -37.75 14.25 -38.25 15.25 -38.75 16.05 -39.05 16.5 -38.9 16.6 -38.8 16.65 -38.55 16.7 -38.55 16.7 -38.4 17.0 -37.75 16.95 -36.7 16.85 -35.55 16.8 -26.6 16.8 -25.05 16.8 -23.55 16.8 -23.25 16.8 -22.35 16.85 -20.25 16.8 -18.7 16.8 -18.0 16.8 -17.65 16.8 -16.45 16.7 -13.0 19.9 -12.6 20.6 -12.6 21.0 -12.55 20.95 -14.95 20.95 -15.65 20.95 -15.75 20.95 -16.55 20.95 -16.75 20.95 -18.1 20.95 -23.95 20.95 -25.55 20.9 -32.95 20.9 -37.75 M15.5 -21.05 L15.45 -23.35 15.4 -24.85 15.35 -28.4 15.55 -33.55 15.5 -37.3 11.2 -32.9 Q10.6 -32.3 9.75 -32.3 9.0 -32.3 8.4 -32.8 L4.8 -35.7 4.1 -36.2 3.45 -36.8 3.4 -34.6 3.45 -34.35 Q3.75 -30.55 3.65 -26.8 L3.6 -24.5 3.6 -23.3 3.6 -22.85 3.55 -21.8 3.55 -17.65 3.55 -15.9 3.55 -12.4 3.55 -12.05 -6.25 -11.75 -6.35 -11.75 -8.05 -11.8 -7.95 -10.5 -7.5 -9.75 -7.15 -8.95 -7.0 -8.45 -6.7 -6.4 -6.7 -5.95 Q-6.65 -4.5 -6.85 -3.1 L-5.35 -3.0 -3.1 -2.7 0.6 -2.4 3.6 -2.6 4.2 -2.6 4.55 -2.6 5.15 -3.1 6.45 -4.4 7.15 -5.1 7.45 -5.4 8.0 -5.9 8.85 -6.7 9.2 -7.05 9.25 -7.1 10.3 -7.05 10.35 -7.05 11.05 -6.5 11.2 -6.35 11.25 -6.35 12.05 -5.65 13.05 -4.7 13.3 -4.4 13.5 -4.15 14.85 -2.55 14.95 -2.6 15.0 -2.6 15.15 -2.5 16.35 -2.4 17.65 -2.7 20.8 -3.15 20.9 -3.15 21.0 -3.25 21.3 -3.2 21.35 -3.2 21.3 -4.25 21.25 -5.15 21.15 -7.8 21.05 -11.3 17.4 -11.2 16.8 -11.3 17.4 -11.2 16.2 -11.15 Q15.9 -11.15 15.7 -11.4 L15.6 -16.05 15.6 -17.0 15.55 -17.7 15.5 -19.9 15.5 -21.05 M16.7 -7.4 L16.85 -7.45 16.8 -7.45 18.0 -8.2 18.05 -8.25 19.0 -8.95 Q19.9 -8.65 20.15 -7.85 L20.15 -7.75 20.15 -7.35 20.15 -7.3 20.1 -7.15 20.1 -6.9 20.05 -6.3 20.05 -6.25 19.6 -5.25 Q18.95 -4.5 17.75 -4.25 L17.2 -4.15 Q16.3 -4.45 15.65 -5.05 L15.7 -5.05 15.4 -5.35 15.4 -5.4 15.0 -5.95 14.9 -6.15 14.8 -6.3 14.8 -6.45 14.85 -6.5 15.05 -6.6 15.1 -6.6 15.15 -6.6 15.25 -6.65 15.35 -6.7 16.1 -7.05 16.7 -7.4 M3.7 -5.4 L3.5 -5.2 3.4 -5.15 3.45 -5.15 Q2.75 -4.7 1.6 -4.5 L0.0 -4.45 Q-1.0 -4.55 -1.6 -4.95 -2.5 -5.55 -2.6 -6.65 L-2.6 -7.1 -2.55 -7.6 -2.05 -9.0 -1.6 -9.55 -1.4 -9.5 2.2 -8.35 3.85 -7.6 4.0 -7.55 4.05 -7.5 4.0 -7.5 4.15 -7.45 4.25 -7.4 4.3 -7.35 4.3 -7.25 4.3 -7.1 4.3 -6.8 4.3 -6.75 4.05 -5.85 3.7 -5.4 M4.3 -1.35 Q3.2 -1.1 0.75 -1.35 L-5.8 -1.9 -7.0 -2.1 -7.1 -1.55 -0.7 1.3 7.5 2.0 15.55 1.7 19.85 -0.7 20.65 -0.8 21.4 -1.2 21.45 -1.2 21.55 -2.0 21.15 -2.2 21.0 -2.1 20.6 -2.2 19.9 -2.1 19.85 -2.1 19.0 -2.0 18.75 -1.95 18.15 -1.9 14.95 -1.4 14.75 -1.55 14.6 -1.5 14.35 -1.75 14.25 -1.75 14.1 -1.8 14.05 -1.95 14.05 -2.0 13.85 -2.2 13.55 -2.45 11.4 -4.55 10.75 -5.15 9.95 -5.9 6.9 -3.15 6.15 -2.4 6.0 -2.25 Q5.25 -1.65 4.6 -1.4 L4.3 -1.35 M13.4 2.8 L9.45 3.05 2.5 2.7 9.2 5.5 Q10.1 4.4 11.7 3.65 L13.4 2.8 M-22.85 -57.7 L-22.45 -62.15 Q-22.2 -63.9 -22.4 -65.15 L-24.35 -65.5 -24.95 -56.2 -25.7 -55.6 -28.1 -57.1 -28.9 -61.95 Q-30.2 -61.55 -29.8 -59.9 L-29.1 -56.65 -28.6 -54.2 -28.45 -54.05 -27.35 -53.5 -25.7 -52.15 -25.4 -51.9 -24.75 -48.9 -24.15 -45.95 -22.35 -48.0 -22.3 -48.15 -22.55 -48.7 -22.65 -50.4 -22.9 -53.25 -22.95 -54.35 -22.85 -57.7 M-16.7 -52.75 L-16.7 -53.95 -16.7 -58.35 -17.3 -57.75 -17.5 -55.25 -17.45 -52.0 -17.35 -50.4 Q-17.0 -47.4 -16.95 -44.45 -18.65 -43.6 -20.1 -44.75 L-21.05 -45.85 -21.9 -47.4 Q-23.2 -45.55 -24.8 -43.8 L-24.95 -43.65 -25.25 -43.6 -25.4 -43.7 -25.55 -42.3 Q-28.3 -41.55 -31.1 -42.2 L-33.65 -47.2 -34.75 -45.25 -33.8 -43.55 -31.8 -40.55 -30.0 -40.2 -26.65 -40.6 -21.8 -41.8 Q-19.9 -42.2 -18.3 -40.95 L-16.9 -39.4 -14.25 -41.05 -14.45 -46.05 -15.6 -47.9 -16.0 -48.3 Q-16.65 -50.5 -16.7 -52.75 M-16.55 -38.55 Q-16.4 -37.95 -16.4 -37.25 L-13.55 -35.1 -13.15 -35.15 -12.25 -35.95 -11.7 -37.4 Q-11.3 -38.35 -12.1 -39.2 L-13.9 -40.4 -14.0 -40.35 -14.05 -40.15 -14.2 -39.9 -16.3 -38.55 -16.55 -38.55 M-9.1 -25.55 L-9.05 -27.4 -9.0 -27.95 Q-11.15 -30.6 -12.9 -33.4 L-13.6 -33.45 -14.4 -33.55 -14.3 -31.55 -14.45 -29.7 -14.45 -28.25 -13.7 -28.35 Q-11.35 -25.55 -12.45 -21.65 L-12.5 -21.5 Q-13.05 -21.1 -13.55 -20.95 L-13.5 -15.9 -13.45 -13.25 -13.35 -13.3 Q-11.05 -13.0 -9.5 -12.0 L-8.95 -11.55 -9.1 -25.55 M-13.9 -26.35 Q-14.45 -27.05 -15.5 -26.7 -15.9 -24.95 -15.5 -23.1 L-15.45 -22.95 -14.95 -22.35 -13.8 -22.4 Q-13.2 -24.3 -13.8 -26.15 L-13.9 -26.35 M-13.4 -11.9 L-13.25 -5.2 -13.2 -4.8 Q-11.55 -4.1 -10.3 -3.0 L-8.05 -2.0 -8.0 -2.05 -7.9 -2.35 -8.05 -2.5 -7.85 -2.65 Q-7.35 -5.1 -8.05 -7.2 L-8.45 -8.2 -9.9 -10.4 -11.55 -11.45 -13.35 -11.9 -13.4 -11.9" fill="#000000" fill-rule="evenodd" stroke="none"/>
    <path d="M28.65 -53.7 L28.65 -53.85 Q28.7 -57.8 28.15 -61.65 27.9 -63.4 28.1 -64.65 L30.05 -65.0 30.65 -55.7 31.4 -55.1 33.8 -56.6 34.6 -61.45 Q35.9 -61.05 35.5 -59.4 L34.8 -56.15 34.3 -53.7 34.15 -53.55 33.05 -53.0 31.1 -51.4 30.8 -49.95 28.65 -53.7 M35.65 -39.7 L35.75 -40.0 35.85 -41.5 36.8 -41.7 39.35 -46.7 40.45 -44.75 39.5 -43.05 37.5 -40.05 35.7 -39.7 35.65 -39.7 M-8.25 -28.6 L-10.35 -31.9 -12.15 -34.3 Q-10.7 -34.8 -10.3 -36.45 -9.95 -37.85 -10.15 -39.15 L-11.1 -39.95 Q-7.6 -41.55 -3.8 -42.3 L-0.7 -42.7 6.65 -42.8 12.95 -41.85 Q16.0 -41.0 18.95 -39.75 L19.1 -39.7 20.9 -38.95 20.9 -37.75 17.0 -37.75 16.7 -38.4 16.7 -38.55 16.65 -38.55 16.6 -38.8 16.5 -38.9 16.05 -39.05 15.25 -38.75 14.25 -38.25 13.7 -37.75 4.55 -37.75 4.1 -38.05 2.65 -39.05 1.85 -38.55 1.85 -37.75 -8.35 -37.75 -8.3 -34.75 -8.25 -28.6 M-22.85 -57.7 L-22.95 -54.35 -22.9 -53.25 -22.65 -50.4 -22.55 -48.7 -22.3 -48.15 -22.35 -48.0 -24.15 -45.95 -24.75 -48.9 -25.4 -51.9 -25.7 -52.15 -26.0 -52.45 -24.1 -55.7 -22.85 -57.7 M-17.45 -52.0 L-17.5 -55.25 -17.3 -57.75 -16.7 -58.35 -16.7 -53.95 -16.7 -52.75 -17.45 -52.0 M-13.5 -15.9 L-13.55 -20.95 Q-13.05 -21.1 -12.5 -21.5 L-12.45 -21.65 Q-11.35 -25.55 -13.7 -28.35 L-14.45 -28.25 -14.45 -29.7 -14.3 -31.55 -14.4 -33.55 -13.6 -33.45 -12.9 -33.4 Q-11.15 -30.6 -9.0 -27.95 L-9.05 -27.4 -9.1 -25.55 -9.1 -26.15 -9.5 -24.9 Q-10.95 -20.15 -13.5 -15.9 M-13.9 -26.35 L-13.8 -26.15 Q-13.2 -24.3 -13.8 -22.4 L-14.95 -22.35 -15.45 -22.95 -15.5 -23.1 Q-15.9 -24.95 -15.5 -26.7 -14.45 -27.05 -13.9 -26.35" fill="#8f6ac4" fill-rule="evenodd" stroke="none"/>
    <path d="M28.65 -53.7 L30.8 -49.95 30.45 -48.4 29.9 -45.5 29.7 -45.6 29.55 -45.75 27.9 -47.45 28.25 -48.2 28.35 -49.9 28.6 -52.75 28.65 -53.7 M35.65 -39.7 L32.35 -40.1 27.5 -41.3 Q25.65 -41.7 24.05 -40.5 L24.0 -40.55 Q22.3 -42.05 20.25 -43.0 L20.05 -42.95 20.15 -45.55 21.3 -47.4 21.7 -47.8 Q22.5 -50.55 22.4 -53.45 L22.4 -57.85 23.0 -57.25 23.2 -54.75 Q23.3 -52.3 23.05 -49.9 22.7 -46.9 22.65 -43.95 24.35 -43.1 25.8 -44.25 L26.75 -45.35 27.4 -46.4 29.4 -44.4 29.45 -44.25 Q29.95 -43.75 30.6 -43.5 L30.85 -43.55 31.1 -43.2 31.25 -41.8 35.85 -41.5 35.75 -40.0 35.65 -39.7 M21.9 -37.45 L21.6 -38.5 Q21.0 -39.75 19.95 -40.35 L20.0 -41.8 Q21.5 -40.35 23.25 -39.75 22.45 -38.9 22.2 -37.75 L22.1 -36.75 22.0 -36.65 21.9 -37.45 M-8.25 -28.6 L-8.3 -34.75 -8.35 -37.75 1.85 -37.75 1.9 -13.15 -6.25 -13.0 -8.0 -13.0 -7.25 -13.65 -1.4 -18.25 1.9 -20.8 1.9 -22.2 -3.5 -18.05 -8.05 -14.55 -8.1 -16.2 -8.05 -17.2 -8.0 -18.6 -7.85 -23.7 -7.8 -25.15 -7.7 -28.2 -7.85 -28.35 -8.1 -28.4 -8.15 -28.45 -8.25 -28.6 M4.55 -37.75 L13.7 -37.75 9.9 -34.35 9.55 -34.45 Q7.0 -36.05 4.55 -37.75 M17.0 -37.75 L20.9 -37.75 20.9 -32.95 20.95 -25.55 20.95 -23.95 20.95 -18.1 20.95 -16.75 20.35 -17.3 16.85 -20.25 16.8 -22.35 16.8 -23.25 16.8 -23.55 16.8 -25.05 16.8 -26.6 16.85 -35.55 16.95 -36.7 17.0 -37.75 M20.95 -14.95 L21.0 -12.55 20.6 -12.6 19.9 -12.6 16.7 -13.0 16.8 -16.45 16.8 -17.65 16.8 -18.0 16.8 -18.7 19.5 -16.3 20.95 -14.95 M4.3 -1.35 L4.6 -1.4 Q5.25 -1.65 6.0 -2.25 L6.15 -2.4 6.9 -3.15 9.95 -5.9 10.75 -5.15 11.4 -4.55 13.55 -2.45 13.85 -2.2 14.05 -2.0 14.05 -1.95 14.1 -1.8 14.25 -1.75 14.35 -1.75 14.6 -1.5 14.75 -1.55 14.95 -1.4 18.15 -1.9 18.75 -1.95 19.0 -2.0 19.85 -2.1 19.9 -2.1 20.6 -2.2 21.0 -2.1 21.15 -2.2 21.55 -2.0 21.45 -1.2 21.4 -1.2 20.65 -0.8 19.85 -0.7 15.55 1.7 7.5 2.0 -0.7 1.3 -7.1 -1.55 -7.0 -2.1 -5.8 -1.9 0.75 -1.35 Q3.2 -1.1 4.3 -1.35 M13.4 2.8 L11.7 3.65 Q10.1 4.4 9.2 5.5 L2.5 2.7 9.45 3.05 13.4 2.8 M-25.7 -52.15 L-27.35 -53.5 -28.45 -54.05 -28.6 -54.2 -29.1 -56.65 -29.8 -59.9 Q-30.2 -61.55 -28.9 -61.95 L-28.1 -57.1 -25.7 -55.6 -24.95 -56.2 -24.35 -65.5 -22.4 -65.15 Q-22.2 -63.9 -22.45 -62.15 L-22.85 -57.7 -24.1 -55.7 -26.0 -52.45 -25.7 -52.15 M-16.7 -52.75 Q-16.65 -50.5 -16.0 -48.3 L-15.6 -47.9 -14.45 -46.05 -14.25 -41.05 -16.9 -39.4 -18.3 -40.95 Q-19.9 -42.2 -21.8 -41.8 L-26.65 -40.6 -30.0 -40.2 -31.8 -40.55 -33.8 -43.55 -34.75 -45.25 -33.65 -47.2 -31.1 -42.2 Q-28.3 -41.55 -25.55 -42.3 L-25.4 -43.7 -25.25 -43.6 -24.95 -43.65 -24.8 -43.8 Q-23.2 -45.55 -21.9 -47.4 L-21.05 -45.85 -20.1 -44.75 Q-18.65 -43.6 -16.95 -44.45 -17.0 -47.4 -17.35 -50.4 L-17.45 -52.0 -16.7 -52.75 M-16.55 -38.55 L-16.3 -38.55 -14.2 -39.9 -14.05 -40.15 -14.0 -40.35 -13.9 -40.4 -12.1 -39.2 Q-11.3 -38.35 -11.7 -37.4 L-12.25 -35.95 -13.15 -35.15 -13.55 -35.1 -16.4 -37.25 Q-16.4 -37.95 -16.55 -38.55 M-13.5 -15.9 Q-10.95 -20.15 -9.5 -24.9 L-9.1 -26.15 -9.1 -25.55 -8.95 -11.55 -9.5 -12.0 Q-11.05 -13.0 -13.35 -13.3 L-13.45 -13.25 -13.5 -15.9 M-13.4 -11.9 L-13.35 -11.9 -11.55 -11.45 -9.9 -10.4 -8.45 -8.2 -8.05 -7.2 Q-7.35 -5.1 -7.85 -2.65 L-8.05 -2.5 -7.9 -2.35 -8.0 -2.05 -8.05 -2.0 -10.3 -3.0 Q-11.55 -4.1 -13.2 -4.8 L-13.25 -5.2 -13.4 -11.9" fill="#7246ae" fill-rule="evenodd" stroke="none"/>
    <path d="M3.6 -23.3 L3.6 -24.5 3.65 -26.8 Q3.75 -30.55 3.45 -34.35 L3.4 -34.6 3.45 -36.8 4.1 -36.2 4.8 -35.7 8.4 -32.8 Q9.0 -32.3 9.75 -32.3 10.6 -32.3 11.2 -32.9 L15.5 -37.3 15.55 -33.55 15.35 -28.4 15.4 -24.85 15.45 -23.35 15.5 -21.05 15.45 -21.75 14.45 -22.75 11.75 -25.45 10.0 -26.95 10.0 -27.05 9.95 -27.1 9.7 -27.3 9.5 -27.25 9.3 -27.1 8.95 -26.8 8.95 -26.7 5.85 -24.8 4.65 -24.05 3.6 -23.3 M15.5 -19.9 L15.55 -17.7 15.6 -17.0 15.6 -16.05 15.7 -11.4 Q15.9 -11.15 16.2 -11.15 L17.4 -11.2 16.8 -11.3 17.4 -11.2 21.05 -11.3 21.15 -7.8 21.25 -5.15 21.3 -4.25 21.35 -3.2 21.3 -3.2 21.0 -3.25 20.9 -3.15 20.8 -3.15 17.65 -2.7 16.35 -2.4 15.15 -2.5 15.0 -2.6 14.95 -2.6 14.85 -2.55 13.5 -4.15 13.3 -4.4 13.05 -4.7 13.8 -4.8 15.3 -5.0 15.65 -5.05 Q16.3 -4.45 17.2 -4.15 L17.75 -4.25 Q18.95 -4.5 19.6 -5.25 L20.05 -6.25 20.05 -6.3 20.1 -6.9 20.1 -7.15 20.15 -7.3 20.15 -7.35 20.15 -7.75 20.15 -7.85 Q19.9 -8.65 19.0 -8.95 L18.05 -8.25 18.0 -8.2 16.8 -7.45 16.85 -7.45 16.7 -7.4 Q13.85 -7.2 10.95 -7.45 L10.05 -7.5 9.85 -7.6 9.7 -7.55 9.65 -7.5 Q6.85 -7.45 4.0 -7.55 L3.85 -7.6 2.2 -8.35 -1.4 -9.5 -1.6 -9.55 -2.05 -9.0 -2.55 -7.6 -2.6 -7.1 -2.6 -6.65 Q-2.5 -5.55 -1.6 -4.95 -1.0 -4.55 0.0 -4.45 L1.6 -4.5 Q2.75 -4.7 3.45 -5.15 L3.4 -5.15 3.5 -5.2 3.7 -5.4 7.15 -5.1 6.45 -4.4 5.15 -3.1 4.55 -2.6 4.2 -2.6 3.6 -2.6 0.6 -2.4 -3.1 -2.7 -5.35 -3.0 -6.85 -3.1 Q-6.65 -4.5 -6.7 -5.95 L-6.7 -6.4 -7.0 -8.45 -7.15 -8.95 -7.5 -9.75 -7.95 -10.5 -8.05 -11.8 -6.35 -11.75 -6.25 -11.75 3.55 -12.05 3.55 -12.4 3.55 -15.9 3.55 -17.65 3.55 -21.8 Q5.75 -23.4 8.1 -24.7 L9.35 -25.7 9.75 -25.3 12.55 -22.7 15.5 -19.9" fill="#ffffff" fill-rule="evenodd" stroke="none"/>
    <path d="M3.6 -23.3 L4.65 -24.05 5.85 -24.8 8.95 -26.7 8.95 -26.8 9.3 -27.1 9.5 -27.25 9.7 -27.3 9.95 -27.1 10.0 -27.05 10.0 -26.95 11.75 -25.45 14.45 -22.75 15.45 -21.75 15.5 -21.05 15.5 -19.9 12.55 -22.7 9.75 -25.3 9.35 -25.7 8.1 -24.7 Q5.75 -23.4 3.55 -21.8 L3.6 -22.85 3.6 -23.3" fill="#999999" fill-rule="evenodd" stroke="none"/>
    <path d="M20.95 -16.75 L20.95 -16.55 20.95 -15.75 20.95 -15.65 20.95 -14.95 19.5 -16.3 16.8 -18.7 16.85 -20.25 20.35 -17.3 20.95 -16.75 M-8.05 -14.55 L-3.5 -18.05 1.9 -22.2 1.9 -20.8 -1.4 -18.25 -7.25 -13.65 -8.0 -13.0 -8.05 -13.55 -8.05 -14.55" fill="#4f2778" fill-rule="evenodd" stroke="none"/>
    <path d="M13.05 -4.7 L12.05 -5.65 11.25 -6.35 11.2 -6.35 11.05 -6.5 10.35 -7.05 10.3 -7.05 9.25 -7.1 9.2 -7.05 8.85 -6.7 8.0 -5.9 7.45 -5.4 7.15 -5.1 3.7 -5.4 4.05 -5.85 4.3 -6.75 4.3 -6.8 4.3 -7.1 4.3 -7.25 4.3 -7.35 4.25 -7.4 4.15 -7.45 4.0 -7.5 4.05 -7.5 4.0 -7.55 Q6.85 -7.45 9.65 -7.5 L9.7 -7.55 9.85 -7.6 10.05 -7.5 10.95 -7.45 Q13.85 -7.2 16.7 -7.4 L16.1 -7.05 15.35 -6.7 15.25 -6.65 15.15 -6.6 15.1 -6.6 15.05 -6.6 14.85 -6.5 14.8 -6.45 14.8 -6.3 14.9 -6.15 15.0 -5.95 15.4 -5.4 15.4 -5.35 15.7 -5.05 15.65 -5.05 15.3 -5.0 13.8 -4.8 13.05 -4.7" fill="#dfdfdf" fill-rule="evenodd" stroke="none"/>
  </g>
</svg>
