<?xml version="1.0" encoding="UTF-8" standalone="no"?>
<svg xmlns:xlink="http://www.w3.org/1999/xlink" height="30.25px" width="22.55px" xmlns="http://www.w3.org/2000/svg">
  <g transform="matrix(1.0, 0.0, 0.0, 1.0, 11.55, 15.55)">
    <path d="M11.0 -13.75 L10.85 -13.1 10.65 -12.4 10.7 -12.15 10.85 -10.85 10.7 -10.45 10.65 -7.5 10.65 -1.6 Q10.2 5.85 10.35 13.25 1.35 14.75 -8.1 14.7 -9.15 14.7 -10.0 14.05 -10.3 9.85 -10.9 5.65 -11.95 -2.8 -11.3 -11.1 L-11.1 -11.5 -11.05 -11.85 -11.1 -12.1 -11.2 -12.4 -11.05 -12.65 -10.95 -12.75 -10.75 -12.9 -10.75 -12.95 Q-1.75 -16.6 7.5 -15.1 L9.0 -14.55 9.45 -14.65 9.7 -14.7 10.05 -14.9 11.0 -13.85 11.0 -13.75 M9.2 -12.55 L9.25 -12.9 9.4 -13.2 Q4.7 -15.65 -1.05 -14.15 L-9.8 -11.75 -9.85 -11.45 -10.05 -11.1 Q-10.65 -0.15 -9.55 10.9 L-9.15 12.4 Q-6.05 14.2 -1.85 13.05 L-0.05 12.75 8.95 11.8 Q8.8 1.8 9.05 -8.2 L9.05 -8.5 9.25 -8.85 9.1 -9.75 9.05 -10.05 9.4 -11.35 9.3 -12.25 9.2 -12.55 M6.7 -10.6 Q-0.6 -12.75 -6.7 -7.7 L-7.0 -7.65 -7.1 -7.65 -7.4 -7.75 -7.5 -8.05 -7.5 -8.35 -7.45 -8.7 -6.85 -9.25 -6.65 -9.55 -6.45 -9.75 -6.25 -9.95 -4.9 -10.55 -4.4 -10.85 Q1.65 -13.0 7.3 -11.05 L7.7 -10.9 7.65 -10.65 7.35 -10.45 7.25 -10.45 6.5 8.05 6.5 8.4 5.9 8.95 5.95 9.05 Q3.05 11.0 -1.25 10.5 L-5.7 10.1 -6.65 9.85 Q-8.45 1.85 -7.55 -6.5 L-7.5 -7.15 -7.2 -7.4 -7.0 -7.5 Q-7.05 0.35 -6.15 8.3 L-6.1 8.55 Q-0.7 9.85 5.05 8.55 L5.25 8.55 Q5.15 8.15 5.55 7.85 5.55 -1.15 6.65 -10.0 L6.7 -10.35 6.9 -10.55 6.7 -10.6 M4.25 -7.4 L3.7 4.3 3.6 5.85 3.65 6.2 Q3.05 7.0 2.0 7.0 L-4.45 7.1 -4.95 6.95 -5.05 -4.75 -4.9 -6.8 Q-2.15 -7.95 0.75 -8.25 2.5 -8.2 4.1 -7.5 L4.25 -7.4 M2.95 -6.65 Q2.5 -7.3 1.75 -7.25 -0.95 -7.15 -3.45 -6.15 L-3.8 -5.95 -3.8 2.6 -3.8 5.9 2.4 5.35 Q3.15 1.15 2.9 -3.2 2.8 -4.8 3.1 -6.35 L2.95 -6.65" fill="#000000" fill-rule="evenodd" stroke="none"/>
    <path d="M6.7 -10.35 L6.65 -10.0 Q5.55 -1.15 5.55 7.85 5.15 8.15 5.25 8.55 L5.05 8.55 Q-0.7 9.85 -6.1 8.55 L-6.15 8.3 Q-7.05 0.35 -7.0 -7.5 L-7.2 -7.4 -7.5 -7.15 -7.55 -6.5 Q-8.45 1.85 -6.65 9.85 L-5.7 10.1 -1.25 10.5 Q3.05 11.0 5.95 9.05 L5.9 8.95 6.5 8.4 6.5 8.05 7.25 -10.45 7.35 -10.45 7.65 -10.65 7.7 -10.9 7.3 -11.05 Q1.65 -13.0 -4.4 -10.85 L-4.9 -10.55 -6.25 -9.95 -6.45 -9.75 -6.65 -9.55 -6.85 -9.25 -7.45 -8.7 -7.5 -8.35 -7.5 -8.05 -7.4 -7.75 -7.1 -7.65 -7.0 -7.65 -6.7 -7.7 Q-0.6 -12.75 6.7 -10.6 L6.7 -10.35 M9.2 -12.55 L9.3 -12.25 9.4 -11.35 9.05 -10.05 9.1 -9.75 9.25 -8.85 9.05 -8.5 9.05 -8.2 Q8.8 1.8 8.95 11.8 L-0.05 12.75 -1.85 13.05 Q-6.05 14.2 -9.15 12.4 L-9.55 10.9 Q-10.65 -0.15 -10.05 -11.1 L-9.85 -11.45 -9.8 -11.75 -1.05 -14.15 Q4.7 -15.65 9.4 -13.2 L9.25 -12.9 9.2 -12.55 M2.95 -6.65 L3.1 -6.35 Q2.8 -4.8 2.9 -3.2 3.15 1.15 2.4 5.35 L-3.8 5.9 -3.8 2.6 -3.8 -5.95 -3.45 -6.15 Q-0.95 -7.15 1.75 -7.25 2.5 -7.3 2.95 -6.65 M4.25 -7.4 L4.1 -7.5 Q2.5 -8.2 0.75 -8.25 -2.15 -7.95 -4.9 -6.8 L-5.05 -4.75 -4.95 6.95 -4.45 7.1 2.0 7.0 Q3.05 7.0 3.65 6.2 L3.6 5.85 3.7 4.3 4.25 -7.4" fill="#7246ae" fill-rule="evenodd" stroke="none"/>
  </g>
</svg>
