<?xml version="1.0" encoding="UTF-8" standalone="no"?>
<svg xmlns:xlink="http://www.w3.org/1999/xlink" height="32.95px" width="11.2px" xmlns="http://www.w3.org/2000/svg">
  <g transform="matrix(1.0, 0.0, 0.0, 1.0, 3.55, 14.7)">
    <path d="M5.9 -8.95 L7.35 -8.9 7.65 11.9 6.7 12.5 6.7 13.85 4.15 14.1 4.15 17.8 3.4 18.25 2.7 17.75 -3.55 18.1 -3.0 -14.7 3.65 -14.6 3.6 -11.55 5.6 -11.3 5.9 -8.95 M2.65 -11.6 L2.5 -13.6 -2.15 -13.5 -1.35 16.3 2.9 16.25 2.9 14.15 0.3 14.25 -0.1 -11.5 2.65 -11.6 M4.4 -9.9 L1.4 -10.0 1.0 13.05 5.25 13.2 5.15 12.05 2.8 12.2 2.9 -7.7 4.15 -7.6 4.3 10.4 6.1 10.35 6.25 -7.75 2.9 -7.7 2.8 -9.05 4.45 -9.0 4.4 -9.9" fill="#000000" fill-rule="evenodd" stroke="none"/>
    <path d="M4.4 -9.9 L4.45 -9.0 2.8 -9.05 2.9 -7.7 6.25 -7.75 6.1 10.35 4.3 10.4 4.15 -7.6 2.9 -7.7 2.8 12.2 5.15 12.05 5.25 13.2 1.0 13.05 1.4 -10.0 4.4 -9.9 M2.65 -11.6 L-0.1 -11.5 0.3 14.25 2.9 14.15 2.9 16.25 -1.35 16.3 -2.15 -13.5 2.5 -13.6 2.65 -11.6" fill="#7246ae" fill-rule="evenodd" stroke="none"/>
  </g>
</svg>
