<?xml version="1.0" encoding="UTF-8" standalone="no"?>
<svg xmlns:xlink="http://www.w3.org/1999/xlink" height="46.2px" width="34.7px" xmlns="http://www.w3.org/2000/svg">
  <g transform="matrix(1.0, 0.0, 0.0, 1.0, 18.45, 22.7)">
    <path d="M-5.7 -19.75 L-6.55 -18.25 -6.5 -18.05 Q-1.55 -20.4 3.95 -19.6 5.95 -19.1 7.6 -18.0 L10.05 -18.05 9.95 -18.35 8.45 -19.8 6.7 -20.7 Q0.35 -22.6 -5.7 -19.75 M-7.55 -16.7 L-7.95 -17.75 -7.95 -18.4 -7.55 -18.8 -7.45 -19.65 -6.25 -20.55 Q-2.5 -22.7 1.75 -22.65 4.6 -22.9 7.05 -21.8 L9.45 -20.75 Q10.75 -20.15 10.9 -19.05 L10.9 -17.1 11.4 -16.45 Q14.3 -15.9 16.25 -13.65 L15.8 -6.65 Q15.15 -1.7 13.5 2.9 12.05 7.1 9.4 10.7 L5.8 15.65 Q1.4 21.65 -5.6 23.5 L-6.05 22.85 -5.45 20.3 -13.1 20.65 Q-15.5 22.7 -18.45 22.15 L-17.75 20.6 Q-16.5 18.25 -16.2 15.75 L-15.9 15.3 -15.9 14.7 -15.85 13.85 Q-15.75 9.5 -15.3 5.1 L-14.3 -2.95 -13.75 -6.15 -12.85 -11.3 -7.55 -16.7 M7.45 11.45 Q10.2 7.55 11.85 3.05 L11.85 2.6 12.1 2.2 12.1 1.75 12.4 1.35 12.4 0.9 13.55 -3.35 13.7 -3.8 Q15.1 -8.15 14.9 -12.7 L13.3 -14.2 10.05 -15.25 9.9 -16.35 Q6.0 -18.85 1.5 -18.8 -3.15 -19.1 -6.5 -16.1 L-6.95 -15.95 -11.75 -10.45 -12.35 -7.05 -13.9 3.15 Q-14.4 6.1 -14.35 9.05 -14.3 12.65 -15.0 16.1 L-16.25 20.25 -16.5 20.85 Q-12.6 19.05 -9.75 15.9 -6.95 12.65 -5.95 8.3 -5.4 6.0 -4.4 3.7 -4.05 2.95 -3.9 3.5 L-4.7 7.95 -4.6 12.5 -4.25 19.2 Q-4.2 19.85 -4.45 20.5 -4.8 21.55 -4.25 21.85 L-3.35 21.4 Q0.9 18.9 4.1 15.5 L7.45 11.45 M-9.3 16.95 L-11.15 18.9 -11.55 19.25 Q-8.55 18.4 -5.4 19.35 L-5.4 16.65 -5.4 13.7 -5.75 13.25 -5.85 10.3 Q-6.95 14.0 -9.3 16.95" fill="#000000" fill-rule="evenodd" stroke="none"/>
    <path d="M-5.7 -19.75 Q0.35 -22.6 6.7 -20.7 L8.45 -19.8 9.95 -18.35 10.05 -18.05 7.6 -18.0 Q5.95 -19.1 3.95 -19.6 -1.55 -20.4 -6.5 -18.05 L-6.55 -18.25 -5.7 -19.75" fill="#ffffff" fill-rule="evenodd" stroke="none"/>
    <path d="M-15.0 16.1 Q-14.3 12.65 -14.35 9.05 -14.4 6.1 -13.9 3.15 L-12.35 -7.05 -11.75 -10.45 -6.95 -15.95 -6.5 -16.1 Q-3.15 -19.1 1.5 -18.8 6.0 -18.85 9.9 -16.35 L10.05 -15.25 13.3 -14.2 14.9 -12.7 Q15.1 -8.15 13.7 -3.8 L13.55 -3.35 12.4 0.9 12.4 1.35 12.1 1.75 12.1 2.2 11.85 2.6 11.85 3.05 Q10.2 7.55 7.45 11.45 L6.85 11.95 Q2.6 15.5 -2.05 18.45 L-2.8 13.55 Q-3.4 9.5 -2.9 5.45 -2.6 3.2 -4.25 2.3 L-4.3 2.3 Q-5.6 2.7 -5.7 4.3 L-7.75 9.45 Q-8.85 12.15 -10.35 14.6 -11.75 16.9 -14.2 17.65 L-15.0 16.15 -15.0 16.1 M-9.3 16.95 Q-6.95 14.0 -5.85 10.3 L-5.75 13.25 -5.4 13.7 -5.4 16.65 -9.0 16.55 -9.3 16.95" fill="#40332f" fill-rule="evenodd" stroke="none"/>
    <path d="M7.45 11.45 L4.1 15.5 Q0.9 18.9 -3.35 21.4 L-4.25 21.85 Q-4.8 21.55 -4.45 20.5 -4.2 19.85 -4.25 19.2 L-4.6 12.5 -4.7 7.95 -3.9 3.5 Q-4.05 2.95 -4.4 3.7 -5.4 6.0 -5.95 8.3 -6.95 12.65 -9.75 15.9 -12.6 19.05 -16.5 20.85 L-16.25 20.25 -15.0 16.1 -15.0 16.15 -14.2 17.65 Q-11.75 16.9 -10.35 14.6 -8.85 12.15 -7.75 9.45 L-5.7 4.3 Q-5.6 2.7 -4.3 2.3 L-4.25 2.3 Q-2.6 3.2 -2.9 5.45 -3.4 9.5 -2.8 13.55 L-2.05 18.45 Q2.6 15.5 6.85 11.95 L7.45 11.45 M-5.4 16.65 L-5.4 19.35 Q-8.55 18.4 -11.55 19.25 L-11.15 18.9 -9.3 16.95 -9.0 16.55 -5.4 16.65" fill="#ac8c2d" fill-rule="evenodd" stroke="none"/>
  </g>
</svg>
