<?xml version="1.0" encoding="UTF-8" standalone="no"?>
<svg xmlns:xlink="http://www.w3.org/1999/xlink" height="36.45px" width="33.0px" xmlns="http://www.w3.org/2000/svg">
  <g transform="matrix(1.0, 0.0, 0.0, 1.0, 16.5, 18.7)">
    <path d="M11.85 -13.8 L11.95 -13.7 Q13.05 -13.15 14.4 -12.95 13.9 -7.85 12.2 -2.9 10.75 1.1 8.4 4.55 L8.0 5.15 7.9 3.85 7.75 3.65 7.7 3.6 7.75 3.0 7.7 2.9 8.45 1.95 8.4 1.5 8.35 0.7 9.35 0.25 9.25 0.1 9.05 -0.15 8.95 -0.15 9.0 -1.05 Q9.6 -1.9 9.8 -2.95 L11.7 -13.2 11.85 -13.8 M10.15 11.3 L12.6 12.55 12.7 13.3 12.75 14.4 12.75 14.85 12.75 14.95 Q12.2 14.6 11.6 14.4 L9.75 13.55 9.15 13.2 8.7 12.95 10.15 11.3 M4.25 11.95 L4.05 11.2 3.1 7.25 5.9 7.65 5.85 9.2 6.0 12.15 4.25 11.95 M-8.8 -14.65 L-7.8 -14.75 -7.7 -14.55 -0.95 -1.2 -0.6 -0.55 1.4 5.35 Q-2.05 2.3 -4.25 -1.75 -7.75 -7.8 -8.8 -14.65 M-14.8 13.1 L-14.75 12.8 -14.55 12.9 Q-12.9 13.9 -11.0 14.25 -9.2 14.65 -7.8 13.3 L-6.45 12.05 -3.55 9.9 -2.85 11.05 Q-6.9 13.0 -9.85 16.4 L-12.4 16.05 Q-14.25 15.55 -14.85 14.55 L-14.8 13.1" fill="#ac8c2d" fill-rule="evenodd" stroke="none"/>
    <path d="M10.6 -14.0 L8.4 -14.9 8.35 -14.85 Q7.95 -13.45 6.95 -12.35 L5.9 -11.5 6.25 -11.35 8.75 -4.45 10.05 -12.1 Q10.1 -12.95 10.5 -13.7 L10.6 -14.0 M11.85 -13.8 L11.7 -13.2 9.8 -2.95 Q9.6 -1.9 9.0 -1.05 L8.95 -0.15 9.05 -0.15 9.25 0.1 9.35 0.25 8.35 0.7 8.4 1.5 8.45 1.95 7.7 2.9 7.75 3.0 7.7 3.6 7.75 3.65 7.9 3.85 8.0 5.15 8.4 4.55 Q10.75 1.1 12.2 -2.9 13.9 -7.85 14.4 -12.95 13.05 -13.15 11.95 -13.7 L11.85 -13.8 M5.45 -16.85 L-3.1 -16.5 0.65 -12.0 0.8 -11.85 5.2 -11.7 Q6.25 -13.25 7.1 -14.95 L7.3 -15.5 6.1 -16.4 5.45 -16.85 M6.65 -17.8 L8.55 -16.4 11.95 -15.2 Q15.55 -15.25 16.45 -12.35 L16.5 -11.35 Q15.85 -3.3 13.15 4.2 L12.4 6.1 Q13.75 10.4 14.15 14.9 L14.0 16.6 Q11.4 16.65 9.05 15.0 L7.95 14.2 7.9 13.6 6.95 14.25 6.5 14.1 6.25 13.9 6.2 13.55 3.85 13.5 3.5 13.55 3.2 13.35 3.15 13.35 Q1.6 14.0 -0.25 13.0 L-2.8 12.55 -9.9 17.65 -10.7 17.7 -16.3 15.9 -16.4 15.45 -16.5 14.2 -16.35 13.95 -16.2 13.75 -15.05 -0.5 Q-14.55 -7.15 -14.6 -13.85 L-14.65 -15.35 Q-13.0 -16.55 -10.8 -16.35 L-9.3 -16.1 -9.0 -16.0 -9.0 -15.95 -7.15 -16.25 -6.8 -16.1 -6.65 -15.9 -4.45 -17.4 -4.15 -17.65 -2.8 -18.55 -2.55 -18.55 -2.55 -18.6 6.25 -18.0 6.65 -17.8 M5.25 -10.3 Q3.7 -11.05 1.75 -10.6 L1.25 -10.4 1.25 -9.75 1.25 -9.3 1.1 -9.1 0.95 -8.9 1.0 -8.7 1.05 -8.45 0.2 -3.35 0.2 -2.95 Q4.1 -0.45 8.2 -2.5 7.15 -6.45 5.25 -10.2 L5.25 -10.3 M8.25 -0.5 L8.3 -0.7 8.25 -1.0 7.8 -0.85 0.4 -1.15 1.15 0.6 3.85 0.5 5.3 0.5 7.55 0.1 7.65 0.05 7.95 -0.05 8.25 -0.5 M13.9 -4.1 L11.75 1.55 Q9.9 5.4 7.4 8.95 L7.05 9.1 7.05 9.6 7.1 12.35 Q9.65 9.6 11.05 5.8 L13.25 -1.5 13.9 -4.1 M12.7 13.3 L12.2 10.6 11.7 8.0 11.2 9.3 10.15 11.3 8.7 12.95 9.15 13.2 12.75 15.05 12.75 14.95 12.75 14.85 12.75 14.4 12.7 13.3 M7.85 0.9 Q4.75 2.05 1.45 1.45 L1.95 2.9 Q4.5 3.8 6.55 2.9 L6.55 2.85 Q7.8 2.4 8.0 0.95 L7.85 0.9 M6.9 4.55 L6.95 4.15 6.85 4.0 2.35 4.4 2.7 6.15 6.2 6.25 6.8 5.4 6.85 5.2 6.9 4.55 M4.25 11.95 L6.0 12.15 5.85 9.2 5.9 7.65 3.1 7.25 4.05 11.2 4.25 11.95 M1.8 7.45 L1.8 7.25 1.85 7.05 Q-4.9 1.65 -7.95 -6.5 -9.45 -10.6 -9.9 -14.75 L-9.9 -14.8 -10.9 -14.8 -11.1 -14.75 -11.65 -14.65 -13.2 -14.5 Q-11.95 -7.25 -8.25 -0.8 L-0.9 11.35 Q0.9 12.4 2.85 11.9 L2.3 9.15 1.8 7.45 M-8.8 -14.65 Q-7.75 -7.8 -4.25 -1.75 -2.05 2.3 1.4 5.35 L-0.6 -0.55 -0.95 -1.2 -7.7 -14.55 -7.8 -14.75 -8.8 -14.65 M-6.15 -14.8 L-1.0 -4.05 Q-0.85 -6.5 -0.25 -8.8 L-0.05 -10.65 Q-1.7 -13.5 -4.05 -15.75 L-4.25 -16.0 -4.65 -15.8 -6.2 -14.9 -6.15 -14.8 M-3.55 9.9 Q-7.95 2.65 -11.7 -5.0 -12.85 -7.35 -13.4 -9.45 -13.25 -1.35 -14.25 6.65 L-14.8 13.1 -14.85 14.55 Q-14.25 15.55 -12.4 16.05 L-9.85 16.4 Q-6.9 13.0 -2.85 11.05 L-3.55 9.9" fill="#000000" fill-rule="evenodd" stroke="none"/>
    <path d="M5.25 -10.3 L5.25 -10.2 Q7.15 -6.45 8.2 -2.5 4.1 -0.45 0.2 -2.95 L0.2 -3.35 1.05 -8.45 1.0 -8.7 0.95 -8.9 1.1 -9.1 1.25 -9.3 1.25 -9.75 1.25 -10.4 1.75 -10.6 Q3.7 -11.05 5.25 -10.3" fill="#aa3300" fill-rule="evenodd" stroke="none"/>
    <path d="M10.6 -14.0 L10.5 -13.7 Q10.1 -12.95 10.05 -12.1 L8.75 -4.45 6.25 -11.35 5.9 -11.5 6.95 -12.35 Q7.95 -13.45 8.35 -14.85 L8.4 -14.9 10.6 -14.0 M8.25 -0.5 L7.95 -0.05 7.65 0.05 7.55 0.1 5.3 0.5 3.85 0.5 1.15 0.6 0.4 -1.15 7.8 -0.85 8.25 -1.0 8.3 -0.7 8.25 -0.5 M6.9 4.55 L6.85 5.2 6.8 5.4 6.2 6.25 2.7 6.15 2.35 4.4 6.85 4.0 6.95 4.15 6.9 4.55 M7.85 0.9 L8.0 0.95 Q7.8 2.4 6.55 2.85 L6.55 2.9 Q4.5 3.8 1.95 2.9 L1.45 1.45 Q4.75 2.05 7.85 0.9 M-6.15 -14.8 L-6.2 -14.9 -4.65 -15.8 -4.25 -16.0 -4.05 -15.75 Q-1.7 -13.5 -0.05 -10.65 L-0.25 -8.8 Q-0.85 -6.5 -1.0 -4.05 L-6.15 -14.8" fill="#ffffff" fill-rule="evenodd" stroke="none"/>
    <path d="M10.15 11.3 L11.2 9.3 11.7 8.0 12.2 10.6 12.7 13.3 12.6 12.55 10.15 11.3 M13.9 -4.1 L13.25 -1.5 11.05 5.8 Q9.65 9.6 7.1 12.35 L7.05 9.6 7.05 9.1 7.4 8.95 Q9.9 5.4 11.75 1.55 L13.9 -4.1 M12.75 14.95 L12.75 15.05 9.15 13.2 9.75 13.55 11.6 14.4 Q12.2 14.6 12.75 14.95 M1.8 7.45 L2.3 9.15 2.85 11.9 Q0.9 12.4 -0.9 11.35 L-8.25 -0.8 Q-11.95 -7.25 -13.2 -14.5 L-11.65 -14.65 -11.1 -14.75 -10.9 -14.8 -9.9 -14.8 -9.9 -14.75 Q-9.45 -10.6 -7.95 -6.5 -4.9 1.65 1.85 7.05 L1.8 7.25 1.8 7.45 M-14.8 13.1 L-14.25 6.65 Q-13.25 -1.35 -13.4 -9.45 -12.85 -7.35 -11.7 -5.0 -7.95 2.65 -3.55 9.9 L-6.45 12.05 -7.8 13.3 Q-9.2 14.65 -11.0 14.25 -12.9 13.9 -14.55 12.9 L-14.75 12.8 -14.8 13.1" fill="#40332f" fill-rule="evenodd" stroke="none"/>
    <path d="M5.45 -16.85 L6.1 -16.4 7.3 -15.5 7.1 -14.95 Q6.25 -13.25 5.2 -11.7 L0.8 -11.85 0.65 -12.0 -3.1 -16.5 5.45 -16.85" fill="#aaaaaa" fill-rule="evenodd" stroke="none"/>
  </g>
</svg>
