<?xml version="1.0" encoding="UTF-8" standalone="no"?>
<svg xmlns:xlink="http://www.w3.org/1999/xlink" height="74.15px" width="41.0px" xmlns="http://www.w3.org/2000/svg">
  <g transform="matrix(1.0, 0.0, 0.0, 1.0, 20.7, 49.85)">
    <path d="M12.4 -24.1 Q13.35 -23.6 14.35 -23.05 14.75 -21.3 14.65 -19.6 L14.45 -16.55 14.45 -15.15 15.05 -14.6 Q17.3 -12.05 17.6 -8.6 L20.3 -7.55 20.3 23.75 20.1 24.0 18.65 24.1 Q15.35 24.0 12.0 24.15 L9.05 24.15 2.05 24.0 0.6 24.1 -0.9 24.1 -2.25 24.15 -3.7 24.15 -5.2 24.15 -5.7 24.15 -6.25 24.15 -11.0 24.25 -20.5 23.6 -20.4 15.95 -20.45 8.8 Q-20.6 0.6 -20.15 -7.55 L-19.6 -11.5 -17.7 -12.0 -17.35 -13.35 -15.55 -14.6 -15.95 -16.3 -16.3 -17.8 -17.55 -23.85 Q-18.55 -29.85 -19.9 -35.55 -20.5 -38.15 -20.7 -40.7 -20.8 -41.75 -20.2 -42.65 -18.45 -45.2 -15.7 -46.45 -9.85 -49.3 -3.25 -49.85 L1.05 -49.2 Q7.65 -48.4 13.15 -44.75 L15.1 -43.15 16.7 -41.3 13.9 -24.05 12.4 -24.15 14.9 -40.95 13.7 -42.1 Q11.75 -43.8 9.55 -44.95 L9.5 -45.0 Q7.05 -46.4 4.15 -46.95 -3.15 -48.7 -10.2 -46.45 -14.5 -45.1 -17.8 -42.4 L-18.9 -40.85 Q-19.2 -40.0 -18.95 -38.95 L-16.85 -30.55 Q-15.5 -25.65 -14.9 -20.6 -12.7 -21.9 -10.3 -22.65 L-9.25 -23.05 Q-2.85 -25.3 3.7 -23.85 L5.45 -24.7 7.2 -24.9 7.75 -24.9 7.85 -24.9 11.6 -24.2 12.4 -24.1 M12.65 -22.15 L12.35 -22.55 5.15 -22.9 4.35 -21.8 4.3 -21.7 4.2 -17.2 8.35 -17.0 8.4 -20.15 Q10.3 -22.2 12.55 -20.35 L12.4 -16.1 13.05 -15.7 12.65 -22.15 M14.35 -9.35 L15.5 -9.1 14.4 -13.0 13.25 -13.65 11.6 -14.6 10.0 -14.7 -8.2 -15.35 -15.6 -12.5 -16.05 -11.65 -5.6 -11.65 -0.15 -11.65 5.7 -11.65 Q6.1 -11.4 6.6 -11.3 L9.9 -10.45 11.05 -10.15 12.25 -9.85 14.35 -9.35 M11.35 -16.5 L11.3 -19.75 9.35 -19.6 9.05 -16.85 11.35 -16.5 M3.1 -22.55 L-8.2 -22.05 -14.65 -19.1 -14.5 -15.2 Q-12.05 -16.35 -9.45 -17.0 L-8.2 -17.15 3.05 -17.2 3.1 -22.55 M17.15 15.65 Q16.85 15.1 16.9 14.4 17.0 13.05 18.2 12.6 L18.4 12.7 18.4 -6.65 15.9 -7.15 14.1 -7.55 6.5 -8.75 5.95 -8.25 5.95 -7.55 6.05 -5.85 6.2 1.2 6.2 6.7 6.15 8.2 6.1 13.25 6.0 17.8 5.95 18.45 7.4 18.25 7.65 18.3 9.0 18.25 9.65 18.15 10.7 18.15 17.75 18.3 17.95 18.3 18.0 18.3 18.2 18.3 18.4 18.3 18.4 16.75 17.7 16.4 17.7 16.35 17.4 16.1 17.15 15.65 M7.9 13.25 L8.05 12.9 Q8.4 12.1 9.1 11.95 11.3 12.35 11.0 14.5 L10.55 15.6 10.45 15.75 10.2 15.9 Q9.55 16.85 8.35 15.9 7.95 15.5 7.85 14.95 L7.8 14.85 Q7.5 14.1 7.9 13.25 M7.85 19.7 L5.9 19.65 Q5.9 20.95 6.3 22.2 L7.9 22.2 10.35 22.15 15.95 22.1 16.2 22.1 16.4 22.1 17.3 22.1 17.65 22.1 18.4 22.1 18.4 19.45 18.05 19.45 17.4 19.5 16.95 19.5 10.55 19.7 8.45 19.7 7.85 19.7 M4.05 -9.35 L-18.25 -10.05 -18.2 -7.55 -18.2 -5.0 -18.0 2.5 -17.95 5.0 -17.95 7.55 -17.95 9.95 -17.95 13.0 -18.0 15.95 -18.05 18.15 Q-17.75 19.85 -17.85 21.7 L-17.85 22.2 -14.6 22.0 -12.6 21.85 -10.6 21.75 -8.6 21.75 -6.65 21.7 -5.7 21.7 -5.25 21.7 -5.2 21.7 -1.65 21.8 4.0 22.0 4.05 -9.35" fill="#000000" fill-rule="evenodd" stroke="none"/>
    <path d="M12.4 -24.1 L11.6 -24.2 12.15 -28.6 13.7 -42.1 14.9 -40.95 12.4 -24.15 12.4 -24.1 M7.2 -24.9 L5.45 -24.7 3.7 -23.85 Q-2.85 -25.3 -9.25 -23.05 L-10.3 -22.65 Q-12.7 -21.9 -14.9 -20.6 -15.5 -25.65 -16.85 -30.55 L-18.95 -38.95 Q-19.2 -40.0 -18.9 -40.85 L-17.8 -42.4 Q-14.5 -45.1 -10.2 -46.45 -3.15 -48.7 4.15 -46.95 7.05 -46.4 9.5 -45.0 L8.2 -33.3 7.2 -24.9 M13.25 -13.65 L14.4 -13.0 15.5 -9.1 14.35 -9.35 13.3 -13.55 13.25 -13.65 M9.9 -10.45 L6.6 -11.3 Q6.1 -11.4 5.7 -11.65 L-0.15 -11.65 -5.6 -11.65 -16.05 -11.65 -15.6 -12.5 -8.2 -15.35 10.0 -14.7 9.25 -14.7 Q9.5 -12.6 9.9 -10.45" fill="#525252" fill-rule="evenodd" stroke="none"/>
    <path d="M11.6 -24.2 L7.85 -24.9 7.75 -24.9 7.2 -24.9 8.2 -33.3 9.5 -45.0 9.55 -44.95 Q11.75 -43.8 13.7 -42.1 L12.15 -28.6 11.6 -24.2 M14.35 -9.35 L12.25 -9.85 11.05 -10.15 9.9 -10.45 Q9.5 -12.6 9.25 -14.7 L10.0 -14.7 11.6 -14.6 13.25 -13.65 13.3 -13.55 14.35 -9.35" fill="#b1b1b1" fill-rule="evenodd" stroke="none"/>
    <path d="M11.35 -16.5 L9.05 -16.85 9.35 -19.6 11.3 -19.75 11.35 -16.5 M3.1 -22.55 L3.05 -17.2 -8.2 -17.15 -9.45 -17.0 Q-12.05 -16.35 -14.5 -15.2 L-14.65 -19.1 -8.2 -22.05 3.1 -22.55" fill="#9c6407" fill-rule="evenodd" stroke="none"/>
    <path d="M12.65 -22.15 L13.05 -15.7 12.4 -16.1 12.55 -20.35 Q10.3 -22.2 8.4 -20.15 L8.35 -17.0 4.2 -17.2 4.3 -21.7 4.35 -21.8 5.15 -22.9 12.35 -22.55 12.65 -22.15" fill="#f8c26b" fill-rule="evenodd" stroke="none"/>
    <path d="M4.05 -9.35 L4.0 22.0 -1.65 21.8 -5.2 21.7 -5.25 21.7 -5.7 21.7 -6.65 21.7 -8.6 21.75 -10.6 21.75 -12.6 21.85 -14.6 22.0 -17.85 22.2 -17.85 21.7 Q-17.75 19.85 -18.05 18.15 L-18.0 15.95 -17.95 13.0 -17.95 9.95 -17.95 7.55 -17.95 5.0 -18.0 2.5 -18.2 -5.0 -18.2 -7.55 -18.25 -10.05 4.05 -9.35" fill="#cccccc" fill-rule="evenodd" stroke="none"/>
    <path d="M7.65 18.3 L7.4 18.25 5.95 18.45 6.0 17.8 6.1 13.25 6.15 8.2 6.2 6.7 6.2 1.2 6.05 -5.85 5.95 -7.55 5.95 -8.25 6.5 -8.75 14.1 -7.55 15.9 -7.15 18.4 -6.65 18.4 12.7 18.2 12.6 Q17.0 13.05 16.9 14.4 16.85 15.1 17.15 15.65 16.95 16.95 17.05 18.25 L17.75 18.3 10.7 18.15 10.55 15.6 11.0 14.5 Q11.3 12.35 9.1 11.95 8.4 12.1 8.05 12.9 L7.9 13.25 7.7 13.45 Q7.6 14.0 7.65 14.5 L7.65 18.3 M7.9 22.2 L6.3 22.2 Q5.9 20.95 5.9 19.65 L7.85 19.7 7.9 22.2 M10.55 19.7 L16.95 19.5 16.9 22.1 16.4 22.1 16.2 22.1 15.95 22.1 10.35 22.15 10.5 20.4 10.55 19.7" fill="#ffffff" fill-rule="evenodd" stroke="none"/>
    <path d="M7.65 18.3 L7.65 14.5 Q7.6 14.0 7.7 13.45 L7.9 13.25 Q7.5 14.1 7.8 14.85 L7.85 14.95 Q7.95 15.5 8.35 15.9 9.55 16.85 10.2 15.9 L10.45 15.75 10.55 15.6 10.7 18.15 9.65 18.15 9.0 18.25 7.65 18.3 M17.75 18.3 L17.05 18.25 Q16.95 16.95 17.15 15.65 L17.4 16.1 17.7 16.35 17.7 16.4 18.4 16.75 18.4 18.3 18.2 18.3 18.0 18.3 17.95 18.3 17.75 18.3 M7.9 22.2 L7.85 19.7 8.45 19.7 10.55 19.7 10.5 20.4 10.35 22.15 7.9 22.2 M16.95 19.5 L17.4 19.5 18.05 19.45 18.4 19.45 18.4 22.1 17.65 22.1 17.3 22.1 16.9 22.1 16.95 19.5" fill="#8edeff" fill-rule="evenodd" stroke="none"/>
  </g>
</svg>
