<?xml version="1.0" encoding="UTF-8" standalone="no"?>
<svg xmlns:xlink="http://www.w3.org/1999/xlink" height="65.95px" width="52.9px" xmlns="http://www.w3.org/2000/svg">
  <g transform="matrix(1.0, 0.0, 0.0, 1.0, 20.9, 60.65)">
    <path d="M28.75 -49.5 Q26.55 -53.55 22.7 -55.85 L18.4 -58.0 Q14.6 -59.45 10.45 -59.5 3.8 -59.05 1.3 -53.15 0.5 -51.3 0.75 -49.45 1.2 -45.9 3.95 -43.2 6.7 -40.55 10.15 -39.0 14.05 -37.3 18.15 -36.5 L25.1 -35.95 24.2 -36.3 25.3 -36.55 27.0 -37.5 Q28.75 -38.4 29.6 -39.85 L30.25 -41.2 Q30.95 -42.65 30.7 -44.15 30.15 -46.95 28.75 -49.5 M0.3 -53.95 Q1.9 -57.5 5.35 -59.15 9.15 -61.05 13.55 -60.55 18.95 -60.0 23.45 -57.05 27.6 -54.4 30.15 -50.0 L31.2 -47.75 31.9 -45.1 Q32.45 -41.15 29.9 -38.0 L29.2 -36.9 28.45 -35.5 22.7 -26.1 22.8 -24.95 22.7 -23.9 22.25 -21.95 23.9 -15.9 23.8 -15.7 23.95 -15.55 24.05 -15.35 Q22.5 -10.0 20.2 -4.7 L17.45 1.8 16.15 4.25 15.7 5.15 15.45 5.2 11.3 5.25 Q-2.35 5.4 -15.95 5.0 -16.2 4.8 -16.4 4.7 L-18.85 -4.7 -20.55 -11.25 -20.7 -11.75 -20.7 -12.05 -20.65 -12.25 -20.9 -12.95 -20.85 -13.25 -20.7 -13.35 -20.45 -13.5 -19.95 -16.05 -13.95 -33.9 -13.9 -34.2 -9.95 -34.45 -8.9 -36.0 Q-8.0 -37.35 -6.5 -38.0 L-5.2 -38.55 Q-3.2 -43.7 -1.45 -49.05 L-1.15 -50.3 -1.0 -50.55 -0.95 -50.6 -0.45 -52.2 0.3 -53.95 M19.7 -27.15 L21.55 -28.35 Q24.4 -31.8 26.8 -35.5 L26.85 -35.6 26.6 -35.5 23.65 -34.8 22.2 -34.7 19.7 -34.8 19.45 -34.85 17.9 -35.25 17.0 -35.5 16.85 -35.55 9.55 -38.35 Q6.7 -39.5 4.45 -41.6 L2.4 -43.75 Q0.5 -45.75 -0.35 -48.45 L-0.4 -48.25 -3.05 -39.35 Q-2.25 -37.25 -0.95 -35.5 1.0 -32.6 4.0 -30.7 L6.05 -29.55 12.4 -28.5 14.25 -28.25 17.7 -27.7 18.5 -26.95 19.7 -27.15 M5.1 -28.75 L4.3 -29.15 Q0.05 -31.35 -2.3 -35.5 L-3.55 -37.8 -4.45 -34.85 -4.95 -33.05 -5.5 -32.9 -5.25 -31.9 Q-4.7 -29.85 -3.25 -28.35 -1.45 -26.5 0.7 -25.2 L3.15 -24.1 3.15 -24.2 3.65 -25.25 3.7 -25.9 5.1 -28.75 M7.45 -28.2 L6.0 -28.25 3.85 -23.7 5.95 -23.2 6.05 -23.4 6.3 -24.1 Q6.75 -25.45 7.8 -25.95 L14.85 -24.15 14.35 -22.4 16.35 -22.7 17.0 -24.05 Q17.25 -24.6 17.1 -25.3 L17.4 -25.95 12.7 -27.25 7.45 -28.2 M18.05 -22.95 L18.8 -23.3 Q21.15 -24.55 22.2 -27.2 L18.65 -26.35 18.05 -22.95 M18.05 -21.55 L16.35 -20.9 12.4 -20.45 12.25 -20.45 8.25 -21.2 Q4.05 -22.35 0.15 -24.05 -2.7 -25.4 -4.35 -28.15 L-6.75 -32.2 -6.4 -36.6 -6.8 -36.5 -8.25 -34.8 -8.35 -34.5 Q-9.85 -29.4 -7.15 -24.85 -4.6 -20.5 0.1 -19.0 0.9 -18.7 1.8 -18.55 L11.95 -17.95 12.65 -18.05 14.35 -18.4 14.65 -18.45 15.05 -18.55 17.8 -19.5 18.3 -19.7 Q19.85 -20.4 20.7 -21.9 L20.4 -23.05 Q19.25 -22.15 18.05 -21.55 M13.5 -22.4 L13.85 -23.35 8.0 -25.0 7.15 -23.75 7.0 -22.9 Q10.45 -21.85 13.5 -22.4 M16.85 -17.8 Q12.35 -16.5 7.9 -16.45 L0.75 -17.65 Q-0.75 -17.9 -2.1 -18.55 -4.25 -19.55 -5.95 -20.95 -7.95 -22.65 -8.95 -25.05 -10.15 -28.05 -10.1 -31.3 -10.4 -32.35 -10.25 -33.3 L-12.1 -33.3 -8.8 -15.4 22.4 -15.05 21.2 -19.95 18.95 -18.55 Q17.9 -18.05 16.85 -17.8 M12.9 2.3 L15.1 2.3 18.55 -4.7 Q20.7 -9.35 22.2 -14.15 14.45 -13.65 6.85 -13.75 L2.85 -13.8 -1.25 -13.9 -9.6 -14.15 Q-10.55 -9.4 -12.15 -4.7 L-13.6 -0.1 -13.55 -0.1 -14.4 2.45 -11.2 2.35 -7.0 2.2 Q1.2 2.0 9.45 2.25 L10.75 2.25 12.9 2.3 M-9.9 -0.15 L-9.95 -0.55 -9.95 -0.7 Q-10.35 -2.05 -8.9 -2.95 L-8.0 -3.2 Q-5.45 -3.1 -5.7 -0.7 -5.9 0.5 -6.65 0.95 L-6.8 1.05 -7.25 1.15 -8.15 1.1 -8.85 0.9 -9.75 0.25 -9.9 -0.15 M10.1 -0.45 L10.0 -0.85 Q9.85 -1.7 10.6 -2.4 11.3 -3.05 12.25 -3.15 14.3 -2.45 14.1 -0.75 L14.15 -0.55 14.15 -0.35 14.1 -0.35 13.95 0.0 13.85 0.3 13.7 0.55 13.25 0.9 13.15 0.95 13.0 1.0 12.0 1.2 Q11.0 1.15 10.4 0.15 L10.15 -0.3 10.1 -0.45 M-18.5 -15.1 L-19.4 -12.45 -17.35 -4.7 -15.75 1.95 -14.2 -4.7 -12.1 -10.45 Q-11.1 -12.7 -10.45 -15.15 L-10.5 -15.25 -10.7 -16.05 -13.35 -33.2 -18.15 -16.05 -18.5 -15.1 M-11.7 3.8 L-9.8 3.8 -9.55 3.8 -7.35 3.7 Q1.0 3.55 9.4 3.7 L11.35 3.7 11.85 3.75 14.65 3.85 14.45 3.7 14.85 2.85 12.7 2.9 9.7 3.0 -7.2 2.95 -11.15 2.8 -14.45 2.65 -14.8 3.7 -11.7 3.8 M15.35 3.7 L15.3 3.8 15.35 3.8 15.35 3.7" fill="#000000" fill-rule="evenodd" stroke="none"/>
    <path d="M19.7 -27.15 L18.5 -26.95 17.7 -27.7 14.25 -28.25 17.9 -35.25 19.45 -34.85 19.7 -34.8 22.2 -34.7 23.65 -34.8 19.7 -27.15 M12.4 -20.45 L16.35 -20.9 18.05 -21.55 17.8 -19.5 15.05 -18.55 14.65 -18.45 14.35 -18.4 12.65 -18.05 12.25 -18.0 12.4 -20.45" fill="#b1b1b1" fill-rule="evenodd" stroke="none"/>
    <path d="M28.75 -49.5 Q30.15 -46.95 30.7 -44.15 30.95 -42.65 30.25 -41.2 L29.6 -39.85 Q28.75 -38.4 27.0 -37.5 L25.3 -36.55 24.2 -36.3 25.1 -35.95 18.15 -36.5 Q14.05 -37.3 10.15 -39.0 6.7 -40.55 3.95 -43.2 1.2 -45.9 0.75 -49.45 0.5 -51.3 1.3 -53.15 3.8 -59.05 10.45 -59.5 14.6 -59.45 18.4 -58.0 L22.7 -55.85 Q26.55 -53.55 28.75 -49.5 M23.65 -34.8 L26.6 -35.5 26.85 -35.6 26.8 -35.5 Q24.4 -31.8 21.55 -28.35 L19.7 -27.15 23.65 -34.8 M14.25 -28.25 L12.4 -28.5 6.05 -29.55 4.0 -30.7 Q1.0 -32.6 -0.95 -35.5 -2.25 -37.25 -3.05 -39.35 L-0.4 -48.25 -0.35 -48.45 Q0.5 -45.75 2.4 -43.75 L4.45 -41.6 Q6.7 -39.5 9.55 -38.35 L16.85 -35.55 17.0 -35.5 17.9 -35.25 14.25 -28.25 M18.05 -21.55 Q19.25 -22.15 20.4 -23.05 L20.7 -21.9 Q19.85 -20.4 18.3 -19.7 L17.8 -19.5 18.05 -21.55 M12.65 -18.05 L11.95 -17.95 1.8 -18.55 Q0.9 -18.7 0.1 -19.0 -4.6 -20.5 -7.15 -24.85 -9.85 -29.4 -8.35 -34.5 L-8.25 -34.8 -6.8 -36.5 -6.4 -36.6 -6.75 -32.2 -4.35 -28.15 Q-2.7 -25.4 0.15 -24.05 4.05 -22.35 8.25 -21.2 L12.25 -20.45 12.4 -20.45 12.25 -18.0 12.65 -18.05" fill="#525252" fill-rule="evenodd" stroke="none"/>
    <path d="M7.45 -28.2 L12.7 -27.25 17.4 -25.95 17.1 -25.3 Q17.25 -24.6 17.0 -24.05 L16.35 -22.7 14.35 -22.4 14.85 -24.15 7.8 -25.95 Q6.75 -25.45 6.3 -24.1 L6.05 -23.4 5.95 -23.2 3.85 -23.7 6.0 -28.25 7.45 -28.2" fill="#f8c26b" fill-rule="evenodd" stroke="none"/>
    <path d="M5.1 -28.75 L3.7 -25.9 3.65 -25.25 3.15 -24.2 3.15 -24.1 0.7 -25.2 Q-1.45 -26.5 -3.25 -28.35 -4.7 -29.85 -5.25 -31.9 L-5.5 -32.9 -4.95 -33.05 -4.45 -34.85 -3.55 -37.8 -2.3 -35.5 Q0.05 -31.35 4.3 -29.15 L5.1 -28.75 M18.05 -22.95 L18.65 -26.35 22.2 -27.2 Q21.15 -24.55 18.8 -23.3 L18.05 -22.95 M13.5 -22.4 Q10.45 -21.85 7.0 -22.9 L7.15 -23.75 8.0 -25.0 13.85 -23.35 13.5 -22.4" fill="#9c6407" fill-rule="evenodd" stroke="none"/>
    <path d="M16.85 -17.8 Q17.9 -18.05 18.95 -18.55 L21.2 -19.95 22.4 -15.05 -8.8 -15.4 -12.1 -33.3 -10.25 -33.3 Q-10.4 -32.35 -10.1 -31.3 -10.15 -28.05 -8.95 -25.05 -7.95 -22.65 -5.95 -20.95 -4.25 -19.55 -2.1 -18.55 -0.75 -17.9 0.75 -17.65 L7.9 -16.45 Q12.35 -16.5 16.85 -17.8 M-11.2 2.35 L-14.4 2.45 -13.55 -0.1 -13.6 -0.1 -12.15 -4.7 Q-10.55 -9.4 -9.6 -14.15 L-1.25 -13.9 2.85 -13.8 6.85 -13.75 Q14.45 -13.65 22.2 -14.15 20.7 -9.35 18.55 -4.7 L15.1 2.3 12.9 2.3 13.15 0.95 13.25 0.9 13.7 0.55 13.85 0.3 13.95 0.0 14.1 -0.35 14.15 -0.35 14.15 -0.55 14.1 -0.75 Q14.3 -2.45 12.25 -3.15 11.3 -3.05 10.6 -2.4 9.85 -1.7 10.0 -0.85 L10.1 -0.45 Q9.7 0.85 9.45 2.25 1.2 2.0 -7.0 2.2 L-6.8 1.05 -6.65 0.95 Q-5.9 0.5 -5.7 -0.7 -5.45 -3.1 -8.0 -3.2 L-8.9 -2.95 Q-10.35 -2.05 -9.95 -0.7 L-9.95 -0.55 -9.9 -0.15 Q-10.7 0.95 -11.2 2.35 M-7.35 3.7 L-7.2 2.95 9.7 3.0 9.4 3.7 Q1.0 3.55 -7.35 3.7 M-11.15 2.8 L-11.7 3.55 -11.7 3.8 -14.8 3.7 -14.45 2.65 -11.15 2.8 M12.7 2.9 L14.85 2.85 14.45 3.7 14.65 3.85 11.85 3.75 12.5 3.75 12.7 2.9" fill="#ffffff" fill-rule="evenodd" stroke="none"/>
    <path d="M-18.5 -15.1 L-18.15 -16.05 -13.35 -33.2 -10.7 -16.05 -10.5 -15.25 -10.45 -15.15 Q-11.1 -12.7 -12.1 -10.45 L-14.2 -4.7 -15.75 1.95 -17.35 -4.7 -19.4 -12.45 -18.5 -15.1" fill="#cccccc" fill-rule="evenodd" stroke="none"/>
    <path d="M12.9 2.3 L10.75 2.25 9.45 2.25 Q9.7 0.85 10.1 -0.45 L10.15 -0.3 10.4 0.15 Q11.0 1.15 12.0 1.2 L13.0 1.0 13.15 0.95 12.9 2.3 M-7.0 2.2 L-11.2 2.35 Q-10.7 0.95 -9.9 -0.15 L-9.75 0.25 -8.85 0.9 -8.15 1.1 -7.25 1.15 -6.8 1.05 -7.0 2.2 M-7.35 3.7 L-9.55 3.8 -9.8 3.8 -11.7 3.8 -11.7 3.55 -11.15 2.8 -7.2 2.95 -7.35 3.7 M11.85 3.75 L11.35 3.7 9.4 3.7 9.7 3.0 12.7 2.9 12.5 3.75 11.85 3.75" fill="#8edeff" fill-rule="evenodd" stroke="none"/>
  </g>
</svg>
