<?xml version="1.0" encoding="UTF-8" standalone="no"?>
<svg xmlns:xlink="http://www.w3.org/1999/xlink" height="75.35px" width="42.2px" xmlns="http://www.w3.org/2000/svg">
  <g transform="matrix(1.0, 0.0, 0.0, 1.0, 18.85, 71.2)">
    <path d="M13.1 -66.15 L10.95 -51.5 10.25 -45.95 10.1 -44.85 5.35 -46.1 5.1 -46.15 4.7 -46.25 6.0 -57.8 Q6.45 -63.15 7.4 -68.3 L7.95 -68.2 10.75 -67.3 11.85 -66.75 13.1 -66.15 M12.55 -35.85 L12.6 -35.05 12.6 -33.0 5.3 -33.0 5.05 -35.65 5.0 -36.75 12.3 -35.9 12.55 -35.85" fill="#b1b1b1" fill-rule="evenodd" stroke="none"/>
    <path d="M19.0 -63.4 Q18.2 -60.55 17.8 -57.6 L16.2 -45.65 16.1 -44.85 15.9 -43.1 15.9 -42.35 16.1 -41.3 16.4 -39.85 16.65 -38.15 16.8 -36.95 16.85 -36.45 17.75 -36.2 17.95 -36.1 17.9 -35.8 17.85 -35.7 18.1 -35.05 18.2 -34.65 18.7 -32.75 21.0 -32.75 23.35 -32.1 23.1 -10.05 Q22.95 -5.25 23.05 -0.45 L23.05 -0.4 Q22.9 0.0 22.9 0.5 L22.6 2.1 22.55 2.85 Q22.4 3.55 22.65 4.15 L22.6 4.15 8.15 4.1 Q1.8 3.75 -4.45 3.8 L-4.5 3.95 -7.45 3.7 Q-10.9 2.15 -14.45 0.95 L-17.25 0.0 -17.3 -0.2 Q-17.75 -2.9 -17.6 -5.8 -17.25 -16.5 -16.2 -27.0 L-15.75 -27.3 -14.25 -28.0 Q-15.15 -31.0 -15.05 -34.05 L-13.25 -35.45 -13.7 -37.05 -13.8 -37.7 -13.85 -38.65 -13.95 -38.75 Q-14.75 -41.6 -15.2 -44.55 -16.5 -52.4 -18.65 -60.1 -19.4 -62.65 -17.4 -64.4 -13.7 -67.65 -8.85 -69.3 -4.95 -70.7 -0.95 -71.15 7.85 -71.55 15.5 -66.8 17.7 -65.45 19.0 -63.4 M10.1 -44.85 L12.1 -44.0 13.4 -43.35 14.7 -42.95 14.7 -45.75 14.85 -47.75 17.25 -63.0 Q15.3 -64.85 13.1 -66.15 L11.85 -66.75 10.75 -67.3 7.95 -68.2 6.45 -68.55 Q-5.95 -70.65 -15.65 -63.25 -17.55 -61.85 -16.85 -59.6 -14.35 -51.4 -12.75 -43.05 L-12.6 -41.45 -10.0 -42.85 -8.65 -43.4 -7.95 -43.65 -6.6 -44.1 -4.6 -44.45 -3.65 -45.25 -2.55 -45.9 -1.25 -46.2 0.4 -46.4 1.9 -46.4 3.25 -46.5 5.0 -46.15 5.35 -46.1 10.1 -44.85 M18.9 -2.55 L20.5 -2.0 Q20.55 -8.05 20.75 -14.1 20.85 -19.65 21.3 -25.15 L21.3 -30.0 17.55 -30.0 7.6 -30.4 7.0 -30.4 3.2 -30.55 -2.3 -30.45 -4.95 -30.35 Q-5.3 -23.7 -5.25 -16.5 L-5.05 -3.4 -3.45 -3.4 -0.15 -3.35 4.3 -3.3 15.55 -2.85 17.75 -2.75 18.9 -2.55 M-3.3 -6.05 L-3.45 -6.4 -3.55 -6.8 -3.55 -6.95 Q-3.9 -8.35 -2.45 -9.2 L-1.55 -9.45 Q1.0 -9.35 0.75 -6.95 0.55 -5.75 -0.2 -5.3 L-1.7 -5.15 -2.4 -5.35 Q-2.95 -5.6 -3.3 -6.05 M15.8 -5.6 L15.55 -6.05 Q15.05 -7.25 16.0 -8.15 16.7 -8.8 17.65 -8.85 19.7 -8.2 19.5 -6.5 L19.55 -6.25 19.55 -6.1 19.35 -5.75 19.25 -5.45 19.1 -5.2 18.65 -4.8 18.4 -4.7 17.4 -4.55 Q16.4 -4.6 15.8 -5.6 M14.7 -41.4 L14.7 -41.45 14.7 -41.55 14.7 -41.65 14.45 -41.75 13.55 -42.05 13.5 -42.1 13.15 -42.1 12.8 -42.2 12.8 -37.55 12.75 -37.4 14.45 -37.05 15.1 -36.9 15.5 -36.8 15.95 -36.7 15.6 -36.95 15.6 -37.0 15.35 -38.85 Q15.25 -40.2 14.7 -41.4 M11.9 -41.2 Q11.8 -41.75 11.85 -42.25 L11.15 -42.6 9.6 -43.35 8.0 -43.95 6.25 -44.35 4.25 -44.7 2.15 -44.85 -0.95 -44.45 -2.9 -43.85 -3.45 -43.5 Q-3.55 -42.2 -3.3 -40.95 L-3.1 -39.3 -3.1 -38.5 -0.1 -38.65 -0.45 -40.45 Q0.25 -41.2 1.35 -41.4 L3.15 -41.9 4.15 -42.1 5.3 -42.0 7.7 -41.7 8.8 -41.5 8.9 -39.75 9.0 -38.55 9.15 -38.05 10.4 -37.8 11.7 -37.6 11.75 -37.7 11.95 -39.1 11.9 -41.2 M0.45 -39.95 L0.7 -38.7 7.85 -38.2 7.85 -40.2 5.8 -40.7 0.45 -39.95 M5.0 -36.75 Q0.35 -37.0 -4.35 -36.55 L-5.4 -36.4 Q-8.6 -35.9 -11.4 -34.35 L-13.25 -33.35 -13.3 -29.05 -10.2 -30.45 Q-8.55 -31.25 -6.95 -32.1 L-5.9 -32.8 -5.55 -32.8 -5.35 -32.95 17.05 -32.9 17.35 -32.9 16.65 -34.75 16.6 -34.95 15.6 -35.2 12.55 -35.85 12.3 -35.9 5.0 -36.75 M18.6 2.4 L19.15 2.45 20.45 2.45 20.45 -0.35 19.75 -0.5 18.8 -0.75 15.45 -1.25 12.95 -1.25 Q6.95 -0.95 1.05 -1.3 L-0.25 -1.35 -3.65 -1.5 -5.05 -1.55 -4.95 1.05 -3.8 0.95 -3.85 1.05 -3.8 1.15 -0.8 1.45 -0.45 1.35 -0.45 1.25 15.5 2.4 15.5 2.45 15.5 2.55 15.55 2.65 16.2 2.6 17.9 2.55 17.95 2.55 17.95 2.45 18.0 2.4 18.6 2.4 M-7.5 -42.25 L-8.75 -41.55 -10.1 -40.95 -12.35 -39.95 -12.55 -39.8 -12.35 -37.3 -12.35 -36.95 -12.15 -36.05 -10.65 -36.8 -7.0 -38.0 -4.6 -38.35 -4.85 -39.7 -4.95 -41.1 -5.0 -43.5 -6.2 -42.85 -7.5 -42.25 M-7.8 -29.7 Q-10.2 -27.45 -13.05 -25.7 L-14.65 -24.5 Q-15.95 -12.6 -15.45 -0.75 L-7.15 1.7 Q-7.0 0.45 -7.0 -0.75 L-7.1 -30.15 -7.2 -30.1 -7.8 -29.7" fill="#000000" fill-rule="evenodd" stroke="none"/>
    <path d="M13.1 -66.15 Q15.3 -64.85 17.25 -63.0 L14.85 -47.75 14.7 -45.75 14.7 -42.95 13.4 -43.35 12.1 -44.0 10.1 -44.85 10.25 -45.95 10.95 -51.5 13.1 -66.15 M5.35 -46.1 L5.0 -46.15 3.25 -46.5 1.9 -46.4 0.4 -46.4 -1.25 -46.2 -2.55 -45.9 -3.65 -45.25 -4.6 -44.45 -6.6 -44.1 -7.95 -43.65 -8.65 -43.4 -10.0 -42.85 -12.6 -41.45 -12.75 -43.05 Q-14.35 -51.4 -16.85 -59.6 -17.55 -61.85 -15.65 -63.25 -5.95 -70.65 6.45 -68.55 L7.95 -68.2 7.4 -68.3 Q6.45 -63.15 6.0 -57.8 L4.7 -46.25 5.1 -46.15 5.35 -46.1 M5.0 -36.75 L5.05 -35.65 5.3 -33.0 12.6 -33.0 12.6 -35.05 12.55 -35.85 15.6 -35.2 16.6 -34.95 16.65 -34.75 17.35 -32.9 17.05 -32.9 -5.35 -32.95 -5.55 -32.8 -5.9 -32.8 -6.95 -32.1 Q-8.55 -31.25 -10.2 -30.45 L-13.3 -29.05 -13.25 -33.35 -11.4 -34.35 Q-8.6 -35.9 -5.4 -36.4 L-4.35 -36.55 Q0.35 -37.0 5.0 -36.75" fill="#525252" fill-rule="evenodd" stroke="none"/>
    <path d="M14.7 -41.4 Q15.25 -40.2 15.35 -38.85 L15.6 -37.0 15.6 -36.95 15.95 -36.7 15.5 -36.8 15.1 -36.9 14.45 -37.05 12.75 -37.4 12.8 -37.55 12.8 -42.2 13.15 -42.1 13.5 -42.1 13.55 -42.05 14.45 -41.75 14.7 -41.65 14.7 -41.55 14.7 -41.45 14.7 -41.4 M0.45 -39.95 L5.8 -40.7 7.85 -40.2 7.85 -38.2 0.7 -38.7 0.45 -39.95 M-7.5 -42.25 L-6.2 -42.85 -5.0 -43.5 -4.95 -41.1 -4.85 -39.7 -4.6 -38.35 -7.0 -38.0 -10.65 -36.8 -12.15 -36.05 -12.35 -36.95 -12.35 -37.3 -12.55 -39.8 -12.35 -39.95 -10.1 -40.95 -8.75 -41.55 -7.5 -42.25" fill="#9c6407" fill-rule="evenodd" stroke="none"/>
    <path d="M11.9 -41.2 L11.95 -39.1 11.75 -37.7 11.7 -37.6 10.4 -37.8 9.15 -38.05 9.0 -38.55 8.9 -39.75 8.8 -41.5 7.7 -41.7 5.3 -42.0 4.15 -42.1 3.15 -41.9 1.35 -41.4 Q0.25 -41.2 -0.45 -40.45 L-0.1 -38.65 -3.1 -38.5 -3.1 -39.3 -3.3 -40.95 Q-3.55 -42.2 -3.45 -43.5 L-2.9 -43.85 -0.95 -44.45 2.15 -44.85 4.25 -44.7 6.25 -44.35 8.0 -43.95 9.6 -43.35 11.15 -42.6 11.85 -42.25 Q11.8 -41.75 11.9 -41.2" fill="#f8c26b" fill-rule="evenodd" stroke="none"/>
    <path d="M-3.45 -3.4 L-5.05 -3.4 -5.25 -16.5 Q-5.3 -23.7 -4.95 -30.35 L-2.3 -30.45 3.2 -30.55 7.0 -30.4 7.6 -30.4 17.55 -30.0 21.3 -30.0 21.3 -25.15 Q20.85 -19.65 20.75 -14.1 20.55 -8.05 20.5 -2.0 L18.9 -2.55 19.1 -4.65 19.1 -5.2 19.25 -5.45 19.35 -5.75 19.55 -6.1 19.55 -6.25 19.5 -6.5 Q19.7 -8.2 17.65 -8.85 16.7 -8.8 16.0 -8.15 15.05 -7.25 15.55 -6.05 L15.8 -5.6 15.75 -5.3 15.55 -2.85 4.3 -3.3 -0.15 -3.35 -0.2 -4.35 -0.2 -5.3 Q0.55 -5.75 0.75 -6.95 1.0 -9.35 -1.55 -9.45 L-2.45 -9.2 Q-3.9 -8.35 -3.55 -6.95 L-3.55 -6.8 -3.45 -6.4 -3.3 -6.05 -3.45 -3.4 M18.8 -0.75 L19.75 -0.5 20.45 -0.35 20.45 2.45 19.15 2.45 18.6 2.4 18.65 2.0 18.8 -0.75 M15.5 2.4 L-0.45 1.25 -0.4 1.25 Q-0.15 0.3 -0.4 -0.55 L-0.25 -1.35 1.05 -1.3 Q6.95 -0.95 12.95 -1.25 L15.45 -1.25 15.55 2.2 15.5 2.25 15.5 2.35 15.5 2.4 M-3.8 0.95 L-4.95 1.05 -5.05 -1.55 -3.65 -1.5 -3.8 0.95" fill="#ffffff" fill-rule="evenodd" stroke="none"/>
    <path d="M-3.45 -3.4 L-3.3 -6.05 Q-2.95 -5.6 -2.4 -5.35 L-1.7 -5.15 -0.2 -5.3 -0.2 -4.35 -0.15 -3.35 -3.45 -3.4 M15.55 -2.85 L15.75 -5.3 15.8 -5.6 Q16.4 -4.6 17.4 -4.55 L18.4 -4.7 18.65 -4.8 19.1 -5.2 19.1 -4.65 18.9 -2.55 17.75 -2.75 15.55 -2.85 M18.8 -0.75 L18.65 2.0 18.6 2.4 18.0 2.4 17.95 2.45 17.95 2.55 17.9 2.55 16.2 2.6 15.55 2.65 15.5 2.55 15.5 2.45 15.5 2.4 15.5 2.35 15.5 2.25 15.55 2.2 15.45 -1.25 18.8 -0.75 M-0.45 1.25 L-0.45 1.35 -0.8 1.45 -3.8 1.15 -3.85 1.05 -3.8 0.95 -3.65 -1.5 -0.25 -1.35 -0.4 -0.55 Q-0.15 0.3 -0.4 1.25 L-0.45 1.25" fill="#8edeff" fill-rule="evenodd" stroke="none"/>
    <path d="M-7.8 -29.7 L-7.2 -30.1 -7.1 -30.15 -7.0 -0.75 Q-7.0 0.45 -7.15 1.7 L-15.45 -0.75 Q-15.95 -12.6 -14.65 -24.5 L-13.05 -25.7 Q-10.2 -27.45 -7.8 -29.7" fill="#cccccc" fill-rule="evenodd" stroke="none"/>
  </g>
</svg>
