<?xml version="1.0" encoding="UTF-8" standalone="no"?>
<svg xmlns:xlink="http://www.w3.org/1999/xlink" height="73.75px" width="37.85px" xmlns="http://www.w3.org/2000/svg">
  <g transform="matrix(1.0, 0.0, 0.0, 1.0, 18.6, 49.5)">
    <path d="M18.15 -41.7 L18.0 -41.25 Q18.6 -40.3 18.1 -38.8 17.0 -35.45 16.6 -31.9 L16.1 -27.55 Q15.65 -22.8 15.7 -17.95 L15.9 -15.8 Q17.8 -13.75 17.3 -10.9 L17.35 -10.8 18.95 -10.7 19.05 -10.4 19.25 -6.55 19.25 23.95 19.15 23.95 18.8 23.95 18.55 24.25 17.55 24.25 17.35 23.95 -14.05 24.2 -15.95 24.1 -15.95 24.0 -17.05 23.75 -17.25 23.65 -17.25 -10.55 -16.95 -10.7 -16.6 -10.85 -16.5 -11.0 -16.4 -11.1 -16.15 -11.25 -15.9 -11.1 -15.7 -12.0 -15.4 -13.2 -13.75 -14.5 -17.0 -32.1 -18.45 -38.35 Q-19.1 -40.9 -17.15 -42.65 -13.5 -45.95 -8.8 -47.6 -5.0 -48.95 -1.05 -49.45 7.5 -49.85 14.8 -45.1 16.95 -43.75 18.15 -41.7 M9.0 -22.0 L12.25 -21.65 13.25 -21.35 13.6 -21.2 13.8 -24.05 14.25 -27.55 14.85 -32.1 16.45 -41.3 15.85 -41.85 12.5 -44.45 11.3 -45.05 10.75 -45.35 10.2 -45.6 7.55 -46.5 6.1 -46.8 3.85 -47.15 Q-6.8 -48.25 -15.45 -41.5 -17.35 -40.15 -16.7 -37.85 L-15.25 -32.1 -12.95 -19.75 -8.4 -21.95 -8.0 -22.5 -7.4 -22.45 -5.25 -23.65 Q-3.3 -24.5 -1.05 -24.4 L1.9 -24.0 3.1 -23.7 3.65 -23.55 6.45 -22.75 7.55 -22.4 7.55 -22.45 8.8 -22.05 9.0 -22.0 M13.8 -18.4 L13.6 -19.7 9.85 -20.15 Q9.55 -17.85 9.4 -15.55 L14.75 -15.0 Q13.85 -16.3 13.8 -18.4 M9.75 -10.85 L15.7 -10.8 15.4 -12.85 Q15.1 -13.5 14.4 -13.45 L14.35 -13.45 10.95 -13.9 Q11.05 -14.2 9.6 -14.5 L8.95 -14.6 8.9 -14.6 8.1 -14.7 6.95 -14.8 5.8 -14.85 4.95 -14.85 1.75 -14.75 -6.2 -14.65 Q-8.4 -14.3 -10.5 -13.25 L-11.75 -12.65 -13.1 -11.95 -13.1 -10.95 3.75 -10.85 9.75 -10.85 M4.65 -18.2 L-2.55 -17.95 -2.4 -16.75 4.6 -16.2 4.65 -18.2 M8.3 -15.65 L8.5 -20.25 Q4.15 -22.75 -0.8 -22.9 -3.9 -23.05 -6.3 -21.3 L-6.05 -16.55 -3.15 -16.65 -3.45 -18.45 Q-1.9 -19.7 0.05 -19.9 L5.6 -19.5 5.85 -16.05 8.3 -15.65 M14.3 18.05 L17.3 18.1 17.3 8.45 17.35 -7.25 Q17.3 -8.2 17.5 -9.0 L-15.3 -9.3 -15.15 -8.55 Q-14.95 -7.0 -15.05 -5.3 L-15.3 2.65 -15.05 18.0 -13.05 18.0 -12.15 18.0 -8.8 18.0 1.85 18.0 10.45 18.05 14.3 18.05 M-12.1 15.45 L-12.25 15.25 -12.45 14.9 -12.5 14.45 -12.5 14.35 Q-12.85 12.95 -11.45 12.1 -11.05 11.8 -10.55 11.85 -8.1 11.9 -8.35 14.35 L-8.85 15.6 -9.25 15.95 -10.7 16.15 -11.45 15.9 -12.1 15.45 M10.75 15.45 L10.6 15.15 10.35 14.7 Q9.85 13.55 10.75 12.65 11.45 11.95 12.4 11.9 14.4 12.6 14.2 14.25 L14.25 14.5 14.25 14.65 14.15 14.85 14.05 15.0 13.9 15.35 13.8 15.55 13.35 15.95 13.1 16.05 12.15 16.2 12.05 16.2 12.0 16.2 11.95 16.2 Q11.6 16.15 11.35 15.95 L11.05 15.75 10.9 15.6 10.75 15.45 M14.4 19.7 L10.6 19.75 -9.3 19.7 -12.0 19.65 -15.05 19.55 -15.35 22.25 -14.05 22.2 -11.95 22.2 -8.5 22.2 10.5 22.3 14.4 22.35 17.3 22.35 17.3 19.65 14.4 19.7 M-7.5 -16.35 L-7.85 -20.55 -12.9 -18.05 -12.6 -14.3 -7.5 -16.35" fill="#000000" fill-rule="evenodd" stroke="none"/>
    <path d="M10.75 -45.35 L9.55 -33.3 9.15 -27.55 9.0 -22.0 8.8 -22.05 7.55 -22.45 7.55 -22.4 6.45 -22.75 3.65 -23.55 3.1 -23.7 3.25 -27.55 3.45 -37.95 Q3.4 -42.6 3.85 -47.15 L6.1 -46.8 7.55 -46.5 10.2 -45.6 10.75 -45.35 M9.6 -14.5 L9.75 -10.85 3.75 -10.85 4.0 -14.8 4.95 -14.85 5.8 -14.85 6.95 -14.8 8.1 -14.7 8.9 -14.6 8.95 -14.6 9.6 -14.5" fill="#b1b1b1" fill-rule="evenodd" stroke="none"/>
    <path d="M10.75 -45.35 L11.3 -45.05 12.5 -44.45 15.85 -41.85 16.45 -41.3 14.85 -32.1 14.25 -27.55 13.8 -24.05 13.6 -21.2 13.25 -21.35 12.25 -21.65 9.0 -22.0 9.15 -27.55 9.55 -33.3 10.75 -45.35 M3.1 -23.7 L1.9 -24.0 -1.05 -24.4 Q-3.3 -24.5 -5.25 -23.65 L-7.4 -22.45 -8.0 -22.5 -8.4 -21.95 -12.95 -19.75 -15.25 -32.1 -16.7 -37.85 Q-17.35 -40.15 -15.45 -41.5 -6.8 -48.25 3.85 -47.15 3.4 -42.6 3.45 -37.95 L3.25 -27.55 3.1 -23.7 M9.6 -14.5 Q11.05 -14.2 10.95 -13.9 L14.35 -13.45 14.4 -13.45 Q15.1 -13.5 15.4 -12.85 L15.7 -10.8 9.75 -10.85 9.6 -14.5 M3.75 -10.85 L-13.1 -10.95 -13.1 -11.95 -11.75 -12.65 -10.5 -13.25 Q-8.4 -14.3 -6.2 -14.65 L1.75 -14.75 4.95 -14.85 4.0 -14.8 3.75 -10.85" fill="#525252" fill-rule="evenodd" stroke="none"/>
    <path d="M8.3 -15.65 L5.85 -16.05 5.6 -19.5 0.05 -19.9 Q-1.9 -19.7 -3.45 -18.45 L-3.15 -16.65 -6.05 -16.55 -6.3 -21.3 Q-3.9 -23.05 -0.8 -22.9 4.15 -22.75 8.5 -20.25 L8.3 -15.65" fill="#f8c26b" fill-rule="evenodd" stroke="none"/>
    <path d="M13.8 -18.4 Q13.85 -16.3 14.75 -15.0 L9.4 -15.55 Q9.55 -17.85 9.85 -20.15 L13.6 -19.7 13.8 -18.4 M4.65 -18.2 L4.6 -16.2 -2.4 -16.75 -2.55 -17.95 4.65 -18.2 M-7.5 -16.35 L-12.6 -14.3 -12.9 -18.05 -7.85 -20.55 -7.5 -16.35" fill="#9c6407" fill-rule="evenodd" stroke="none"/>
    <path d="M-12.15 18.0 L-13.05 18.0 -15.05 18.0 -15.3 2.65 -15.05 -5.3 Q-14.95 -7.0 -15.15 -8.55 L-15.3 -9.3 17.5 -9.0 Q17.3 -8.2 17.35 -7.25 L17.3 8.45 17.3 18.1 14.3 18.05 14.4 16.95 Q14.55 15.65 14.15 14.85 L14.25 14.65 14.25 14.5 14.2 14.25 Q14.4 12.6 12.4 11.9 11.45 11.95 10.75 12.65 9.85 13.55 10.35 14.7 L10.6 15.15 10.75 15.45 10.6 16.9 10.45 18.05 1.85 18.0 -8.8 18.0 Q-8.75 16.8 -8.85 15.6 L-8.35 14.35 Q-8.1 11.9 -10.55 11.85 -11.05 11.8 -11.45 12.1 -12.85 12.95 -12.5 14.35 L-12.5 14.45 -12.45 14.9 -12.25 15.25 -12.1 15.45 -12.15 18.0 M10.6 19.75 L10.5 22.3 -8.5 22.2 -8.5 21.35 -8.5 19.7 -9.3 19.7 10.6 19.75 M14.4 22.35 L14.4 19.7 17.3 19.65 17.3 22.35 14.4 22.35 M-12.0 19.65 L-11.95 22.2 -14.05 22.2 -15.35 22.25 -15.05 19.55 -12.0 19.65" fill="#ffffff" fill-rule="evenodd" stroke="none"/>
    <path d="M-12.15 18.0 L-12.1 15.45 -11.45 15.9 -10.7 16.15 -9.25 15.95 -8.85 15.6 Q-8.75 16.8 -8.8 18.0 L-12.15 18.0 M10.45 18.05 L10.6 16.9 10.75 15.45 10.9 15.6 11.05 15.75 11.35 15.95 Q11.6 16.15 11.95 16.2 L12.0 16.2 12.05 16.2 12.15 16.2 13.1 16.05 13.35 15.95 13.8 15.55 13.9 15.35 14.05 15.0 14.15 14.85 Q14.55 15.65 14.4 16.95 L14.3 18.05 10.45 18.05 M10.6 19.75 L14.4 19.7 14.4 22.35 10.5 22.3 10.6 19.75 M-11.95 22.2 L-12.0 19.65 -9.3 19.7 -8.5 19.7 -8.5 21.35 -8.5 22.2 -11.95 22.2" fill="#8edeff" fill-rule="evenodd" stroke="none"/>
  </g>
</svg>
