<?xml version="1.0" encoding="UTF-8" standalone="no"?>
<svg xmlns:xlink="http://www.w3.org/1999/xlink" height="73.75px" width="37.75px" xmlns="http://www.w3.org/2000/svg">
  <g transform="matrix(1.0, 0.0, 0.0, 1.0, 18.6, 49.75)">
    <path d="M11.45 -45.25 L11.3 -45.3 10.75 -45.6 10.2 -45.85 7.55 -46.75 7.4 -46.75 7.0 -46.85 6.75 -46.9 6.4 -47.0 6.1 -47.05 3.85 -47.4 Q-6.8 -48.5 -15.45 -41.75 -17.35 -40.4 -16.7 -38.1 L-15.25 -32.35 -12.95 -20.0 -11.9 -20.5 -11.9 -20.4 -11.85 -20.4 Q-7.85 -21.9 -3.35 -22.25 L3.7 -22.9 4.7 -22.9 9.8 -22.5 12.1 -22.15 13.6 -21.85 13.8 -24.3 14.25 -27.8 14.85 -32.35 16.45 -41.55 15.85 -42.1 12.5 -44.7 11.45 -45.25 M18.1 -39.05 Q17.0 -35.7 16.6 -32.15 L16.1 -27.8 Q15.65 -23.05 15.7 -18.2 L15.7 -17.8 15.9 -16.05 Q17.3 -14.65 17.4 -12.45 L17.35 -11.05 19.05 -10.65 19.15 23.7 18.8 23.7 17.55 23.85 17.35 23.85 -2.2 24.0 Q-9.3 24.1 -15.95 23.75 L-17.25 23.4 -16.95 -10.95 -16.35 -11.35 -15.9 -11.35 -15.4 -13.45 -13.75 -14.75 -17.0 -32.35 -18.45 -38.6 Q-19.1 -41.15 -17.15 -42.9 -13.5 -46.2 -8.8 -47.85 -5.0 -49.2 -1.05 -49.7 7.5 -50.1 14.8 -45.35 16.95 -44.0 18.15 -41.95 L18.0 -41.5 Q18.6 -40.55 18.1 -39.05 M13.6 -19.95 L12.3 -20.1 11.5 -20.3 9.6 -20.7 Q0.7 -21.7 -8.1 -19.9 L-11.95 -19.05 -11.95 -18.8 -12.9 -18.3 -12.6 -14.55 -11.8 -14.9 -11.75 -14.45 -10.1 -15.0 -3.1 -16.0 Q5.9 -17.1 14.7 -15.3 L13.9 -17.8 13.8 -18.65 13.6 -19.95 M6.35 -14.6 L5.0 -14.7 5.0 -14.6 -2.25 -14.5 -11.35 -13.3 -11.3 -13.15 -13.1 -12.2 -13.05 -11.2 5.2 -11.1 10.25 -11.1 15.7 -11.05 15.3 -13.35 Q11.7 -14.65 7.9 -14.65 L6.35 -14.6 M17.35 22.1 L17.55 -9.25 -15.25 -9.55 Q-14.9 -7.6 -15.05 -5.55 -15.45 0.4 -15.3 6.25 L-15.15 14.0 -15.15 19.35 -15.3 22.0 17.35 22.1" fill="#000000" fill-rule="evenodd" stroke="none"/>
    <path d="M6.4 -47.0 L6.75 -46.9 7.0 -46.85 7.4 -46.75 7.55 -46.75 10.2 -45.85 10.75 -45.6 11.3 -45.3 11.45 -45.25 10.75 -35.5 Q10.1 -29.0 9.8 -22.5 L4.7 -22.9 5.3 -31.35 Q5.65 -38.35 6.25 -45.25 L6.4 -47.0 M6.35 -14.6 L10.1 -14.4 10.25 -11.1 5.2 -11.1 5.0 -14.6 5.0 -14.7 6.35 -14.6" fill="#b1b1b1" fill-rule="evenodd" stroke="none"/>
    <path d="M11.45 -45.25 L12.5 -44.7 15.85 -42.1 16.45 -41.55 14.85 -32.35 14.25 -27.8 13.8 -24.3 13.6 -21.85 12.1 -22.15 9.8 -22.5 Q10.1 -29.0 10.75 -35.5 L11.45 -45.25 M4.7 -22.9 L3.7 -22.9 -3.35 -22.25 Q-7.85 -21.9 -11.85 -20.4 L-11.9 -20.5 -12.95 -20.0 -15.25 -32.35 -16.7 -38.1 Q-17.35 -40.4 -15.45 -41.75 -6.8 -48.5 3.85 -47.4 L6.1 -47.05 6.4 -47.0 6.25 -45.25 Q5.65 -38.35 5.3 -31.35 L4.7 -22.9 M10.25 -11.1 L10.1 -14.4 6.35 -14.6 7.9 -14.65 Q11.7 -14.65 15.3 -13.35 L15.7 -11.05 10.25 -11.1 M5.0 -14.6 L5.2 -11.1 -13.05 -11.2 -13.1 -12.2 -11.3 -13.15 -11.35 -13.3 -2.25 -14.5 5.0 -14.6" fill="#525252" fill-rule="evenodd" stroke="none"/>
    <path d="M13.6 -19.95 L13.8 -18.65 13.9 -17.8 14.7 -15.3 Q5.9 -17.1 -3.1 -16.0 L-10.1 -15.0 -11.75 -14.45 -11.8 -14.9 -12.6 -14.55 -12.9 -18.3 -11.95 -18.8 -11.95 -19.05 -8.1 -19.9 Q0.7 -21.7 9.6 -20.7 L11.5 -20.3 12.3 -20.1 13.6 -19.95" fill="#9c6407" fill-rule="evenodd" stroke="none"/>
    <path d="M17.35 22.1 L-15.3 22.0 -15.15 19.35 -15.15 14.0 -15.3 6.25 Q-15.45 0.4 -15.05 -5.55 -14.9 -7.6 -15.25 -9.55 L17.55 -9.25 17.35 22.1" fill="#ffffff" fill-rule="evenodd" stroke="none"/>
  </g>
</svg>
