<?xml version="1.0" encoding="UTF-8" standalone="no"?>
<svg xmlns:xlink="http://www.w3.org/1999/xlink" height="44.75px" width="36.3px" xmlns="http://www.w3.org/2000/svg">
  <g transform="matrix(1.0, 0.0, 0.0, 1.0, 18.05, 22.4)">
    <path d="M11.05 -15.2 L11.45 -15.0 13.35 -11.9 13.95 -7.8 14.15 -0.1 Q13.8 0.35 13.25 0.55 5.5 3.45 -2.5 5.5 L-7.55 6.7 -9.4 7.15 -11.3 7.55 -11.7 7.6 -14.85 7.4 -14.75 5.0 -14.55 2.7 -13.8 -2.25 -13.45 -3.7 -13.4 -4.0 -13.3 -4.25 -11.75 -8.95 -11.1 -10.45 -11.05 -10.45 -10.7 -11.2 -8.7 -14.8 -8.5 -15.05 -7.85 -15.25 -7.55 -15.55 -6.55 -16.3 -1.15 -17.25 Q5.2 -17.6 11.05 -15.2 M10.1 -16.75 L10.25 -16.55 9.6 -16.9 10.1 -16.75 M-16.65 20.6 L-16.65 20.35 Q-16.4 17.95 -15.65 15.6 -15.2 14.2 -15.25 13.15 L-15.1 13.15 -9.8 13.4 -9.65 13.3 -9.55 13.15 -5.75 12.4 -3.15 11.8 Q2.45 10.15 7.5 7.3 L9.05 6.45 Q12.5 4.6 14.55 1.8 L15.15 1.15 15.2 1.1 Q16.15 2.85 16.6 4.9 L16.3 5.15 12.6 5.35 12.1 5.55 Q9.15 8.2 8.95 12.45 L7.15 13.95 Q4.15 15.95 0.85 17.4 -7.8 21.15 -16.65 20.6" fill="#ffffff" fill-rule="evenodd" stroke="none"/>
    <path d="M11.05 -15.2 Q5.2 -17.6 -1.15 -17.25 L-6.55 -16.3 -7.55 -15.55 -7.85 -15.25 -8.5 -15.05 -8.7 -14.8 -10.7 -11.2 -11.05 -10.45 -11.1 -10.45 -11.75 -8.95 -13.3 -4.25 -13.4 -4.0 -13.45 -3.7 -13.8 -2.25 -14.55 2.7 -14.75 5.0 -14.85 7.4 -11.7 7.6 -11.3 7.55 -9.4 7.15 -7.55 6.7 -2.5 5.5 Q5.5 3.45 13.25 0.55 13.8 0.35 14.15 -0.1 L13.95 -7.8 13.35 -11.9 11.45 -15.0 11.05 -15.2 M10.1 -16.75 L11.05 -16.5 12.8 -15.25 13.25 -15.0 13.6 -14.75 13.55 -14.55 13.5 -14.45 13.95 -13.0 14.2 -12.75 14.35 -12.5 Q15.15 -9.95 15.1 -7.25 L14.85 -0.5 14.9 -0.35 15.25 0.0 15.4 0.2 15.5 0.3 15.8 0.25 15.8 0.2 Q17.55 2.4 18.25 5.4 L18.2 5.65 Q15.5 7.05 12.2 7.15 L11.7 7.85 11.5 8.1 Q10.85 10.35 10.45 12.7 L10.35 13.15 Q4.75 18.2 -3.0 20.05 L-7.95 21.4 Q-13.1 23.05 -18.05 21.8 L-16.1 14.35 -15.65 13.05 -15.75 12.9 -16.55 12.55 Q-16.15 10.75 -16.45 8.7 L-16.35 8.45 Q-16.5 3.1 -15.3 -2.25 -13.6 -9.75 -9.4 -16.2 L-9.0 -16.75 -8.6 -16.75 -8.1 -17.05 -7.65 -17.2 -7.6 -17.25 -7.45 -17.4 -7.4 -17.45 -7.3 -17.45 Q-2.1 -18.5 3.1 -18.55 6.65 -18.4 9.6 -16.9 L10.25 -16.55 10.1 -16.75 M-0.95 -22.25 L-1.2 -22.3 -1.15 -22.3 1.05 -22.4 -0.9 -22.25 -0.95 -22.25 M-5.95 11.0 L4.75 7.5 Q6.4 6.95 7.85 6.0 L13.3 2.25 Q3.0 5.9 -7.8 8.35 -11.3 9.15 -14.8 9.15 L-14.5 11.75 Q-11.9 12.85 -8.6 11.8 L-5.95 11.0 M-16.65 20.6 Q-7.8 21.15 0.85 17.4 4.15 15.95 7.15 13.95 L8.95 12.45 Q9.15 8.2 12.1 5.55 L12.6 5.35 16.3 5.15 16.6 4.9 Q16.15 2.85 15.2 1.1 L15.15 1.15 14.55 1.8 Q12.5 4.6 9.05 6.45 L7.5 7.3 Q2.45 10.15 -3.15 11.8 L-5.75 12.4 -9.55 13.15 -9.65 13.3 -9.8 13.4 -15.1 13.15 -15.25 13.15 Q-15.2 14.2 -15.65 15.6 -16.4 17.95 -16.65 20.35 L-16.65 20.6" fill="#000000" fill-rule="evenodd" stroke="none"/>
    <path d="M-5.95 11.0 L-8.6 11.8 Q-11.9 12.85 -14.5 11.75 L-14.8 9.15 Q-11.3 9.15 -7.8 8.35 3.0 5.9 13.3 2.25 L7.85 6.0 Q6.4 6.95 4.75 7.5 L-5.95 11.0" fill="#ff0000" fill-rule="evenodd" stroke="none"/>
  </g>
</svg>
