<?xml version="1.0" encoding="UTF-8" standalone="no"?>
<svg xmlns:xlink="http://www.w3.org/1999/xlink" height="37.7px" width="29.35px" xmlns="http://www.w3.org/2000/svg">
  <g transform="matrix(1.0, 0.0, 0.0, 1.0, 14.85, 18.9)">
    <path d="M8.15 -12.95 L8.5 -12.4 8.55 -12.2 Q9.3 -10.95 9.7 -9.5 10.8 -5.85 11.4 -2.05 L11.55 -1.3 12.0 3.05 10.0 2.35 Q7.15 1.6 4.15 1.4 L1.15 1.7 -6.35 0.95 -6.95 1.05 Q-10.0 1.05 -12.65 2.4 L-12.1 -3.3 -12.0 -3.95 -11.15 -7.85 -11.05 -8.25 -10.4 -9.8 Q-10.05 -11.35 -9.3 -12.65 -7.7 -15.1 -4.9 -16.45 L-4.8 -16.5 -4.25 -16.65 Q2.3 -18.3 7.3 -13.95 L7.45 -13.65 8.15 -12.95 M5.55 -6.2 L5.5 -6.35 4.0 -6.6 3.75 -6.5 3.55 -6.25 3.35 -4.55 2.1 -4.8 1.9 -4.7 Q1.3 -4.15 1.3 -3.25 1.3 -2.7 1.85 -2.6 L3.05 -2.35 2.8 -0.8 Q2.75 -0.5 2.95 -0.35 3.35 0.2 4.1 0.05 4.95 0.6 5.1 -0.4 L5.3 -1.85 5.85 -1.75 6.25 -1.85 Q7.1 -2.45 6.8 -3.6 L6.6 -3.8 5.5 -4.1 5.55 -6.2 M12.5 7.45 L12.45 7.65 12.6 8.05 Q13.15 10.65 13.2 13.25 L11.8 11.55 Q9.3 8.65 6.05 7.05 L3.95 6.2 Q8.3 6.45 12.5 7.45 M1.8 6.15 L1.8 6.3 -1.25 7.65 Q-8.05 10.45 -12.1 16.25 L-12.15 15.4 -12.4 12.55 -12.6 7.75 -10.85 7.15 -10.4 7.05 -0.15 6.15 1.8 6.15" fill="#ffffff" fill-rule="evenodd" stroke="none"/>
    <path d="M8.15 -12.95 L7.45 -13.65 7.3 -13.95 Q2.3 -18.3 -4.25 -16.65 L-4.8 -16.5 -4.9 -16.45 Q-7.7 -15.1 -9.3 -12.65 -10.05 -11.35 -10.4 -9.8 L-11.05 -8.25 -11.15 -7.85 -12.0 -3.95 -12.1 -3.3 -12.65 2.4 Q-10.0 1.05 -6.95 1.05 L-6.35 0.95 1.15 1.7 4.15 1.4 Q7.15 1.6 10.0 2.35 L12.0 3.05 11.55 -1.3 11.4 -2.05 Q10.8 -5.85 9.7 -9.5 9.3 -10.95 8.55 -12.2 L8.5 -12.4 8.15 -12.95 M12.2 -5.0 Q13.15 -0.05 13.4 5.05 14.5 6.8 13.95 8.9 L13.95 9.3 14.1 10.5 Q14.75 12.7 14.4 14.8 L14.35 16.4 14.3 16.55 14.2 16.6 14.1 16.65 13.15 15.15 13.15 15.0 13.05 14.95 12.75 14.55 12.7 14.45 12.65 14.25 Q9.15 9.65 4.15 6.75 L4.2 6.65 Q-1.2 8.3 -6.2 11.55 -9.8 13.9 -11.85 17.7 L-11.85 17.85 -11.7 18.15 -11.85 18.3 -11.95 18.65 -12.05 18.7 -12.3 18.8 -12.65 18.65 -12.75 18.2 -12.8 18.15 -13.0 17.3 -13.05 17.3 -13.3 17.05 Q-14.25 13.0 -13.95 8.8 -15.3 6.85 -14.65 4.2 L-14.55 3.9 -14.25 3.75 -13.9 1.4 Q-13.65 -3.05 -12.8 -7.45 -12.5 -9.2 -11.8 -10.9 L-10.15 -14.25 -10.1 -14.3 -9.85 -14.3 Q-8.0 -17.15 -4.75 -18.55 L-4.5 -18.6 -4.75 -18.4 -3.8 -18.85 Q-2.05 -19.0 -0.45 -18.8 6.0 -18.55 9.7 -13.15 L10.2 -12.3 Q11.75 -9.8 12.0 -6.65 L12.2 -5.0 M12.0 3.55 L8.0 2.6 4.65 2.2 3.5 2.15 Q6.6 2.85 9.65 3.9 10.9 4.3 12.05 4.95 L12.0 3.55 M11.95 5.4 Q6.8 2.9 0.95 2.5 L-2.05 2.3 Q-4.3 2.15 -6.45 2.35 L-7.75 2.3 -9.45 2.5 -10.25 2.55 -11.65 2.85 Q-13.05 3.3 -13.95 4.45 L-13.95 4.55 -14.1 5.05 -14.15 6.05 -14.15 6.4 -14.1 6.55 -14.05 6.7 -14.0 6.8 -13.85 6.85 -13.8 7.05 Q-12.7 7.1 -11.8 6.55 L-8.95 5.95 -0.85 5.2 -0.15 5.15 Q5.85 5.2 11.65 6.55 L12.45 6.85 12.6 6.75 12.9 6.8 12.95 6.75 13.1 6.7 13.15 6.65 13.15 6.6 Q13.05 5.6 11.95 5.4 M12.5 7.45 Q8.3 6.45 3.95 6.2 L6.05 7.05 Q9.3 8.65 11.8 11.55 L13.2 13.25 Q13.15 10.65 12.6 8.05 L12.45 7.65 12.5 7.45 M1.8 6.3 L2.15 6.15 1.8 6.15 -0.15 6.15 -10.4 7.05 -10.85 7.15 -12.6 7.75 -12.4 12.55 -12.15 15.4 -12.1 16.25 Q-8.05 10.45 -1.25 7.65 L1.8 6.3" fill="#000000" fill-rule="evenodd" stroke="none"/>
    <path d="M5.55 -6.2 L5.5 -4.1 6.6 -3.8 6.8 -3.6 Q7.1 -2.45 6.25 -1.85 L5.85 -1.75 5.3 -1.85 5.1 -0.4 Q4.95 0.6 4.1 0.05 3.35 0.2 2.95 -0.35 2.75 -0.5 2.8 -0.8 L3.05 -2.35 1.85 -2.6 Q1.3 -2.7 1.3 -3.25 1.3 -4.15 1.9 -4.7 L2.1 -4.8 3.35 -4.55 3.55 -6.25 3.75 -6.5 4.0 -6.6 5.5 -6.35 5.55 -6.2 M11.95 5.4 Q13.05 5.6 13.15 6.6 L13.15 6.65 13.1 6.7 12.95 6.75 12.9 6.8 12.6 6.75 12.45 6.85 11.65 6.55 Q5.85 5.2 -0.15 5.15 L-0.85 5.2 -8.95 5.95 -11.8 6.55 Q-12.7 7.1 -13.8 7.05 L-13.85 6.85 -14.0 6.8 -14.05 6.7 -14.1 6.55 -14.15 6.4 -14.15 6.05 -14.1 5.05 -13.95 4.55 -13.95 4.45 Q-13.05 3.3 -11.65 2.85 L-10.25 2.55 -9.45 2.5 -7.75 2.3 -6.45 2.35 Q-4.3 2.15 -2.05 2.3 L0.95 2.5 Q6.8 2.9 11.95 5.4 M12.0 3.55 L12.05 4.95 Q10.9 4.3 9.65 3.9 6.6 2.85 3.5 2.15 L4.65 2.2 8.0 2.6 12.0 3.55" fill="#ff0000" fill-rule="evenodd" stroke="none"/>
  </g>
</svg>
