<?xml version="1.0" encoding="UTF-8" standalone="no"?>
<svg xmlns:xlink="http://www.w3.org/1999/xlink" height="48.8px" width="37.0px" xmlns="http://www.w3.org/2000/svg">
  <g transform="matrix(1.0, 0.0, 0.0, 1.0, 18.45, 24.4)">
    <path d="M15.3 5.35 L16.3 5.45 16.35 5.45 16.35 4.85 16.4 3.65 16.4 2.5 16.45 1.3 16.5 0.1 16.55 -1.1 16.6 -2.3 16.65 -3.5 16.7 -4.7 16.7 -5.9 16.7 -7.7 16.8 -9.6 16.8 -10.8 16.85 -12.6 16.95 -14.45 16.95 -15.65 16.9 -16.85 16.9 -17.7 17.0 -18.75 16.35 -19.05 15.65 -19.35 14.95 -19.65 14.25 -19.95 13.55 -20.15 12.85 -20.45 12.15 -20.65 11.4 -20.9 10.7 -21.05 9.95 -21.2 9.25 -21.4 8.45 -21.6 7.75 -21.7 6.95 -21.85 6.2 -21.95 5.4 -22.1 4.4 -22.15 3.3 -22.25 2.3 -22.25 1.2 -22.3 0.2 -22.25 -0.9 -22.25 -3.0 -22.15 -5.05 -21.9 -6.05 -21.7 -8.15 -21.35 -10.2 -20.9 -11.3 -20.7 -12.0 -20.5 -14.2 -20.0 -14.5 -19.8 -14.95 -19.4 -16.8 -19.1 -16.85 -17.9 -16.85 -14.55 -16.8 -13.45 -16.8 -12.35 -16.8 -11.25 -16.8 -10.15 -16.7 -8.95 -16.7 -7.85 -16.7 -6.7 -16.7 -5.6 -16.65 -4.4 -16.65 -3.3 -16.65 -2.2 -16.6 -1.1 -16.55 -0.2 -16.55 0.7 -16.55 1.6 -16.55 2.4 -16.45 3.3 -16.45 4.2 -16.45 5.1 -16.45 5.25 -14.75 5.15 -14.6 5.15 -14.2 5.15 -14.2 5.1 -11.3 4.85 -10.9 4.8 -9.7 4.9 -9.7 4.8 -7.2 4.7 -6.05 4.75 -6.05 3.7 -6.05 3.35 -6.05 -2.85 -6.05 -3.75 -6.05 -4.65 -6.05 -5.35 -6.25 -18.9 -6.25 -20.0 -5.95 -21.4 -3.65 -20.0 -2.5 -19.2 1.9 -15.75 Q3.3 -17.5 5.05 -18.9 L6.9 -20.3 8.0 -20.35 8.05 -18.55 8.4 -12.5 8.45 -3.45 8.45 -3.15 8.45 -1.7 8.45 -1.5 8.5 4.4 11.0 5.0 14.75 5.3 15.3 5.35 M-3.3 -24.15 L-0.9 -24.3 0.35 -24.35 0.95 -24.4 1.6 -24.35 2.2 -24.35 4.6 -24.25 7.0 -23.95 8.15 -23.75 8.75 -23.6 10.5 -23.25 12.75 -22.55 13.9 -22.1 17.35 -20.5 18.0 -20.55 18.05 -19.9 18.35 -19.35 18.35 -19.15 18.1 -18.8 18.25 -16.6 18.3 -14.5 18.4 -12.3 18.4 -10.2 18.45 -8.0 18.45 -5.9 18.4 -3.7 18.3 -0.9 18.3 0.9 18.25 2.1 18.25 3.3 18.25 3.95 18.25 5.75 18.2 8.15 18.25 8.85 18.25 9.45 18.3 11.85 18.35 14.25 18.4 16.65 18.4 18.05 18.5 18.15 18.5 18.4 18.4 18.6 18.35 19.9 16.15 20.75 15.15 21.05 13.05 21.6 10.95 22.15 8.85 22.65 6.75 23.15 3.6 23.85 1.4 24.25 0.3 24.4 -0.45 24.15 -0.55 24.1 -2.55 23.6 -4.55 23.0 -5.55 22.7 -6.55 22.4 -8.55 21.8 -10.5 21.25 -12.5 20.6 -16.9 19.15 -17.05 18.65 -17.3 16.85 -17.4 15.55 -17.55 14.25 -17.65 13.45 -17.85 11.1 -18.05 8.7 -18.2 6.3 -18.3 3.9 -18.4 1.5 -18.35 -0.9 Q-18.25 -2.8 -18.4 -4.5 L-18.4 -5.75 -18.4 -6.55 -18.35 -7.35 -18.35 -8.15 -18.35 -9.85 -18.35 -11.55 -18.35 -12.45 -18.35 -13.25 -18.35 -14.9 -18.35 -16.6 -18.3 -18.3 -17.85 -20.65 -17.1 -21.0 -15.3 -21.75 -13.6 -22.1 -12.0 -22.5 -10.3 -22.9 -8.65 -23.3 -6.85 -23.65 -5.1 -23.95 -3.3 -24.15 M-4.95 -4.7 L-4.95 -4.3 -4.9 4.55 -5.0 6.15 -4.95 6.2 -5.8 6.3 -6.8 6.45 -8.0 6.45 -9.05 6.55 -9.6 6.6 -9.6 6.4 -12.25 6.45 -14.75 6.6 -15.45 6.6 Q-14.8 7.25 -14.55 8.4 L-14.25 10.3 Q-13.8 13.55 -15.05 16.55 L-14.6 16.6 -8.7 16.6 -8.35 16.55 -5.85 16.6 -4.75 16.75 -3.7 16.8 -3.45 16.85 -3.45 16.7 -3.45 16.6 -3.4 16.5 -3.35 16.4 -3.2 16.35 -3.05 16.3 -2.8 16.5 -2.7 16.6 -2.7 16.65 -2.45 18.85 -2.2 21.4 -2.1 22.2 -2.1 22.3 -0.2 23.05 -0.05 22.95 0.0 22.95 0.45 23.0 1.45 23.05 1.5 23.05 1.55 23.05 Q2.75 22.95 3.9 22.35 L4.5 22.15 4.55 22.05 4.6 21.0 4.8 17.45 Q4.8 17.2 4.95 17.05 L5.05 16.9 5.1 16.9 5.15 16.9 5.2 16.9 5.25 16.85 5.5 17.0 5.65 16.9 5.75 17.0 5.95 16.9 6.85 16.85 9.25 16.95 9.75 16.85 10.45 16.85 14.45 17.05 16.6 17.35 16.25 16.7 Q14.45 13.35 14.9 9.5 15.05 8.25 15.65 7.2 L15.3 7.1 14.7 6.95 12.05 6.45 11.55 6.4 11.6 6.6 10.75 6.45 8.85 6.35 8.6 6.35 8.0 6.3 7.9 6.25 7.75 5.95 7.7 5.85 7.7 5.75 7.7 5.4 7.7 5.35 7.7 5.05 7.7 4.95 7.6 4.9 7.55 -2.25 7.55 -4.2 7.7 -19.75 2.45 -14.8 1.65 -14.6 -5.1 -19.75 -4.95 -4.7 M7.4 13.4 L6.55 12.45 6.5 12.15 6.55 11.95 Q8.0 11.0 9.5 10.0 L10.05 9.7 12.1 9.0 12.3 9.1 12.45 9.35 12.5 9.45 12.65 9.55 Q13.4 11.8 11.95 13.4 L11.3 13.95 Q10.5 14.55 9.6 14.5 L9.35 14.45 8.55 14.2 7.4 13.4 M16.4 8.25 L16.4 7.65 Q15.35 10.45 16.0 13.6 L16.6 15.4 16.55 15.1 16.55 14.0 16.5 12.85 16.5 11.75 16.4 10.55 16.4 9.45 16.4 8.25 M0.85 6.7 L0.9 6.65 1.1 6.75 1.1 6.85 1.15 6.9 1.15 7.05 1.15 7.4 1.3 9.0 1.4 9.75 1.4 9.9 1.55 10.95 1.6 11.15 1.6 11.2 1.6 11.25 1.6 11.3 1.6 11.4 1.35 12.0 1.3 12.05 0.75 12.15 0.3 12.1 -0.3 11.9 -0.35 11.75 -0.25 11.6 -0.2 11.5 -0.2 11.45 0.5 10.5 0.6 9.95 0.6 7.4 0.6 7.35 0.6 7.2 0.8 6.9 0.8 6.7 0.85 6.7 M6.2 18.35 L6.1 21.3 6.45 21.25 8.05 21.05 9.65 20.75 10.45 20.65 12.05 20.4 13.65 20.1 14.2 19.95 14.2 20.0 14.45 19.9 15.2 19.6 Q16.0 19.45 16.8 19.6 L16.75 18.5 16.75 18.15 15.65 18.3 14.35 18.15 12.1 17.95 6.6 18.15 6.2 18.15 6.2 18.35 M-4.1 10.95 Q-2.85 11.65 -3.65 12.75 -4.3 13.7 -5.4 14.1 L-6.3 14.25 -7.65 14.25 -8.1 14.2 -8.2 14.2 -8.3 14.2 -8.5 14.15 -8.85 14.05 Q-9.2 13.9 -9.45 13.55 -11.0 11.55 -11.0 9.0 L-10.8 8.85 -10.55 8.75 -9.45 8.95 Q-6.65 9.55 -4.1 10.95 M-14.6 18.1 L-14.55 18.15 -13.9 18.4 -13.2 18.7 -12.5 18.9 -11.7 19.2 -11.0 19.4 -9.6 19.9 -8.1 20.4 -7.35 20.65 -5.85 21.1 -4.45 21.55 -3.75 21.7 -3.35 21.85 Q-3.7 20.1 -3.7 18.35 L-4.35 18.3 -5.25 18.25 -14.55 17.8 -15.35 17.65 -15.4 17.8 -14.6 18.1 M-16.35 10.3 L-16.35 11.1 -16.25 12.8 -16.05 14.05 -15.75 15.1 -15.7 15.25 -15.35 14.1 -15.15 13.1 Q-14.85 9.85 -16.35 7.1 L-16.35 8.6 -16.35 10.3" fill="#000000" fill-rule="evenodd" stroke="none"/>
    <path d="M9.35 14.45 L9.1 14.5 Q8.05 14.15 7.4 13.4 L8.55 14.2 9.35 14.45 M5.25 16.85 L5.2 16.9 5.2 16.85 5.25 16.85 5.95 16.9 5.75 17.0 5.65 16.9 5.5 17.0 5.25 16.85 M5.15 16.9 L5.1 16.9 5.05 16.9 4.95 17.05 4.95 17.0 5.0 16.9 5.05 16.85 5.15 16.85 5.15 16.9 M-2.45 18.85 L-2.7 16.65 -2.65 16.65 -2.55 17.6 -2.45 18.85 M-3.45 16.7 L-3.45 16.85 -3.7 16.8 -4.75 16.75 -3.45 16.7" fill="#66cc66" fill-rule="evenodd" stroke="none"/>
    <path d="M-4.95 -4.3 L1.2 -8.7 7.55 -2.25 7.6 4.9 7.7 4.95 7.7 5.05 7.7 5.35 7.7 5.4 7.7 5.75 7.7 5.85 7.75 5.95 7.9 6.25 8.0 6.3 8.6 6.35 8.85 6.35 10.75 6.45 11.6 6.6 11.55 6.4 12.05 6.45 14.7 6.95 15.3 7.1 15.65 7.2 Q15.05 8.25 14.9 9.5 14.45 13.35 16.25 16.7 L16.6 17.35 14.45 17.05 10.45 16.85 9.75 16.85 9.25 16.95 6.85 16.85 5.95 16.9 5.25 16.85 5.2 16.85 5.2 16.9 5.15 16.9 5.15 16.85 5.05 16.85 5.0 16.9 4.95 17.0 4.95 17.05 Q4.8 17.2 4.8 17.45 L4.6 21.0 4.55 22.05 4.5 22.15 3.9 22.35 Q2.75 22.95 1.55 23.05 L1.5 23.05 1.45 23.05 0.45 23.0 0.0 22.95 -0.05 22.95 -0.2 23.05 -2.1 22.3 -2.1 22.2 -2.2 21.4 -2.45 18.85 -2.55 17.6 -2.65 16.65 -2.7 16.65 -2.7 16.6 -2.8 16.5 -3.05 16.3 -3.2 16.35 -3.35 16.4 -3.4 16.5 -3.45 16.6 -3.45 16.7 -4.75 16.75 -5.85 16.6 -8.35 16.55 -8.7 16.6 -14.6 16.6 -15.05 16.55 Q-13.8 13.55 -14.25 10.3 L-14.55 8.4 Q-14.8 7.25 -15.45 6.6 L-14.75 6.6 -12.25 6.45 -9.6 6.4 -9.6 6.6 -9.05 6.55 -8.0 6.45 -6.8 6.45 -5.8 6.3 -4.95 6.2 -5.0 6.15 -4.9 4.55 -4.95 -4.3 M7.55 -4.2 L1.0 -10.2 -4.95 -6.0 -4.95 -4.7 -5.1 -19.75 1.65 -14.6 2.45 -14.8 7.7 -19.75 7.55 -4.2 M9.35 14.45 L9.6 14.5 Q10.5 14.55 11.3 13.95 L11.95 13.4 Q13.4 11.8 12.65 9.55 L12.5 9.45 12.45 9.35 12.3 9.1 12.1 9.0 10.05 9.7 9.5 10.0 Q8.0 11.0 6.55 11.95 L6.5 12.15 6.55 12.45 7.4 13.4 Q8.05 14.15 9.1 14.5 L9.35 14.45 M0.85 6.7 L0.75 6.65 0.65 6.7 0.65 6.9 0.45 7.2 0.45 7.35 0.45 7.4 0.45 9.95 0.35 10.5 -0.35 11.45 -0.35 11.5 -0.4 11.6 -0.5 11.75 -0.45 11.9 0.15 12.1 0.3 12.1 0.6 12.15 0.75 12.15 1.3 12.05 1.35 12.0 1.6 11.4 1.6 11.3 1.6 11.25 1.6 11.2 1.6 11.15 1.55 10.95 1.4 9.9 1.4 9.75 1.3 9.0 1.15 7.4 1.15 7.05 1.15 6.9 1.1 6.85 1.1 6.75 0.9 6.65 0.85 6.7 M-4.1 10.95 Q-6.65 9.55 -9.45 8.95 L-10.55 8.75 -10.8 8.85 -11.0 9.0 Q-11.0 11.55 -9.45 13.55 -9.2 13.9 -8.85 14.05 L-8.5 14.15 -8.3 14.2 -8.2 14.2 -8.1 14.2 -7.65 14.25 -6.3 14.25 -5.4 14.1 Q-4.3 13.7 -3.65 12.75 -2.85 11.65 -4.1 10.95" fill="#ffffff" fill-rule="evenodd" stroke="none"/>
    <path d="M-4.95 -4.3 L-4.95 -4.7 -4.95 -6.0 1.0 -10.2 7.55 -4.2 7.55 -2.25 1.2 -8.7 -4.95 -4.3" fill="#999999" fill-rule="evenodd" stroke="none"/>
    <path d="M14.75 5.3 L11.0 5.0 8.5 4.4 8.45 -1.5 9.35 -0.55 14.75 5.3 M8.45 -3.45 L8.4 -12.5 8.05 -18.55 14.3 -17.9 Q14.35 -8.9 15.1 0.2 L15.3 4.65 15.3 3.95 10.35 -1.3 9.85 -1.95 8.45 -3.45 M5.05 -18.9 Q3.3 -17.5 1.9 -15.75 L-2.5 -19.2 5.05 -18.9 M-6.25 -18.9 L-6.05 -5.35 -6.05 -4.65 -10.65 -0.25 -14.75 4.1 -14.75 1.35 -14.8 -3.15 Q-14.85 -10.3 -14.25 -17.4 -10.3 -18.5 -6.25 -18.9 M-6.05 -2.85 L-6.05 3.35 -6.05 3.7 -6.05 4.75 -7.2 4.7 -9.7 4.8 -9.7 4.9 -10.9 4.8 -11.3 4.85 -14.2 5.1 -14.15 5.05 -13.05 3.95 -10.0 1.0 -6.45 -2.5 -6.05 -2.85 M16.4 8.25 L16.4 9.45 16.4 10.55 16.5 11.75 16.5 12.85 16.55 14.0 16.55 15.1 16.6 15.4 16.0 13.6 Q15.35 10.45 16.4 7.65 L16.4 8.25 M6.2 18.35 L6.2 18.15 6.6 18.15 12.1 17.95 14.35 18.15 15.65 18.3 16.75 18.15 16.75 18.5 16.8 19.6 Q16.0 19.45 15.2 19.6 L14.45 19.9 14.2 20.0 14.2 19.95 13.65 20.1 12.05 20.4 10.45 20.65 9.65 20.75 8.05 21.05 6.45 21.25 6.1 21.3 6.2 18.35 M-16.35 10.3 L-16.35 8.6 -16.35 7.1 Q-14.85 9.85 -15.15 13.1 L-15.35 14.1 -15.7 15.25 -15.75 15.1 -16.05 14.05 -16.25 12.8 -16.35 11.1 -16.35 10.3 M-14.6 18.1 L-15.4 17.8 -15.35 17.65 -14.55 17.8 -5.25 18.25 -4.35 18.3 -3.7 18.35 Q-3.7 20.1 -3.35 21.85 L-3.75 21.7 -4.45 21.55 -5.85 21.1 -7.35 20.65 -8.1 20.4 -9.6 19.9 -11.0 19.4 -11.7 19.2 -12.5 18.9 -13.2 18.7 -13.9 18.4 -14.55 18.15 -14.6 18.1" fill="#ff0000" fill-rule="evenodd" stroke="none"/>
    <path d="M-14.75 5.15 L-16.45 5.25 -16.45 5.1 -16.45 4.2 -16.45 3.3 -16.55 2.4 -16.55 1.6 -16.55 0.7 -16.55 -0.2 -16.6 -1.1 -16.65 -2.2 -16.65 -3.3 -16.65 -4.4 -16.7 -5.6 -16.7 -6.7 -16.7 -7.85 -16.7 -8.95 -16.8 -10.15 -16.8 -11.25 -16.8 -12.35 -16.8 -13.45 -16.85 -14.55 -16.85 -17.9 -16.8 -19.1 -14.95 -19.4 -14.5 -19.8 -14.2 -20.0 -12.0 -20.5 -11.3 -20.7 -10.2 -20.9 -8.15 -21.35 -6.05 -21.7 -5.05 -21.9 -3.0 -22.15 -0.9 -22.25 0.2 -22.25 1.2 -22.3 2.3 -22.25 3.3 -22.25 4.4 -22.15 5.4 -22.1 6.2 -21.95 6.95 -21.85 7.75 -21.7 8.45 -21.6 9.25 -21.4 9.95 -21.2 10.7 -21.05 11.4 -20.9 12.15 -20.65 12.85 -20.45 13.55 -20.15 14.25 -19.95 14.95 -19.65 15.65 -19.35 16.35 -19.05 17.0 -18.75 16.9 -17.7 16.9 -16.85 16.95 -15.65 16.95 -14.45 16.85 -12.6 16.8 -10.8 16.8 -9.6 16.7 -7.7 16.7 -5.9 16.7 -4.7 16.65 -3.5 16.6 -2.3 16.55 -1.1 16.5 0.1 16.45 1.3 16.4 2.5 16.4 3.65 16.35 4.85 16.35 5.45 16.3 5.45 15.3 5.35 15.3 4.65 15.1 0.2 Q14.35 -8.9 14.3 -17.9 L8.05 -18.55 8.0 -20.35 6.9 -20.3 5.05 -18.9 -2.5 -19.2 -3.65 -20.0 -5.95 -21.4 -6.25 -20.0 -6.25 -18.9 Q-10.3 -18.5 -14.25 -17.4 -14.85 -10.3 -14.8 -3.15 L-14.75 1.35 -14.75 4.1 -14.75 5.15" fill="#fe7a7a" fill-rule="evenodd" stroke="none"/>
    <path d="M15.3 5.35 L14.75 5.3 9.35 -0.55 8.45 -1.5 8.45 -1.7 8.45 -3.15 8.45 -3.45 9.85 -1.95 10.35 -1.3 15.3 3.95 15.3 4.65 15.3 5.35 M-6.05 -4.65 L-6.05 -3.75 -6.05 -2.85 -6.45 -2.5 -10.0 1.0 -13.05 3.95 -14.15 5.05 -14.2 5.1 -14.2 5.15 -14.6 5.15 -14.75 5.15 -14.75 4.1 -10.65 -0.25 -6.05 -4.65" fill="#d30101" fill-rule="evenodd" stroke="none"/>
  </g>
</svg>
