<?xml version="1.0" encoding="UTF-8" standalone="no"?>
<svg xmlns:xlink="http://www.w3.org/1999/xlink" height="50.75px" width="37.25px" xmlns="http://www.w3.org/2000/svg">
  <g transform="matrix(1.0, 0.0, 0.0, 1.0, 14.65, 44.35)">
    <path d="M21.55 -40.35 L21.75 -39.4 22.15 -39.05 22.45 -31.4 22.6 -25.95 22.6 -21.6 22.4 -10.4 22.3 -5.7 22.2 -1.4 21.95 -0.5 Q21.75 -0.15 22.15 -0.2 L9.45 6.4 9.15 6.05 8.35 5.85 5.45 4.75 Q-2.25 1.9 -9.9 -1.4 L-11.4 -2.05 -13.8 -3.3 -14.65 -40.45 -13.95 -40.9 Q-10.5 -42.25 -6.75 -42.95 L-0.95 -44.05 5.85 -44.35 9.1 -44.15 12.85 -43.45 Q17.6 -42.5 21.55 -40.35 M20.65 -38.05 L20.75 -38.85 Q19.0 -39.8 17.15 -40.4 L14.75 -41.2 12.3 -41.85 9.75 -42.35 6.0 -42.65 2.2 -42.55 0.2 -42.35 -2.95 -41.8 -7.1 -40.85 -10.5 -40.0 -12.35 -39.55 -12.4 -12.3 -11.65 -12.05 -10.4 -12.3 -10.0 -12.35 -9.75 -12.4 -9.3 -12.5 -8.1 -12.7 -7.65 -12.75 -6.35 -12.95 Q-2.8 -12.95 0.8 -13.1 L1.95 -13.05 1.95 -14.1 1.95 -14.45 1.95 -21.55 1.95 -23.15 1.75 -37.8 2.05 -39.2 4.35 -37.8 Q7.25 -35.85 9.9 -33.55 12.05 -36.2 14.9 -38.1 L16.3 -38.15 16.45 -20.95 16.45 -19.5 16.5 -13.4 20.9 -12.4 20.95 -13.7 20.95 -15.6 20.65 -38.05 M15.55 -22.0 L15.7 -37.55 10.45 -32.6 9.65 -32.4 2.9 -37.55 3.05 -22.5 3.05 -22.1 3.1 -13.25 3.0 -11.65 3.05 -11.6 2.2 -11.5 1.2 -11.35 0.0 -11.35 -1.05 -11.25 -3.15 -11.15 -7.35 -11.05 -8.35 -10.95 -9.5 -10.85 -9.0 -10.4 Q-8.25 -9.65 -7.85 -8.7 L-7.55 -7.85 -7.35 -7.05 -7.3 -6.1 -7.3 -5.1 Q-7.25 -3.8 -8.0 -2.65 L-8.3 -2.25 -6.25 -1.4 -4.9 -0.9 -4.75 -0.9 -4.5 -0.75 -4.35 -0.75 -3.1 -0.8 4.95 -1.15 5.05 -1.15 5.35 -1.15 5.45 -0.2 5.6 3.5 9.5 5.25 12.75 3.5 12.75 2.0 12.8 1.8 Q12.8 0.55 12.95 -0.75 L12.95 -0.8 13.0 -0.9 13.05 -0.95 13.15 -0.95 13.2 -0.9 13.2 -0.95 13.25 -0.95 15.35 -0.75 15.35 -0.8 20.5 -0.5 20.9 -11.15 19.7 -11.2 18.75 -11.35 16.85 -11.45 16.6 -11.45 16.0 -11.5 15.9 -11.55 15.75 -11.85 15.7 -11.95 15.7 -12.05 15.7 -12.4 15.7 -12.45 15.7 -12.75 15.7 -12.85 15.6 -12.9 15.55 -20.05 15.55 -22.0 M16.7 -12.7 L16.85 -12.7 16.7 -12.7 M9.95 -10.6 L10.15 -10.9 10.15 -11.1 10.25 -11.15 10.45 -11.05 10.45 -10.95 10.5 -10.9 10.5 -10.75 10.5 -10.4 10.65 -8.8 10.75 -8.05 10.75 -7.9 10.95 -6.6 10.95 -6.55 10.95 -6.5 10.95 -6.4 Q10.9 -5.65 10.1 -5.65 L9.65 -5.7 9.05 -5.9 9.0 -6.05 9.1 -6.2 9.15 -6.3 9.15 -6.35 9.85 -7.3 9.95 -7.85 9.95 -10.4 9.95 -10.45 9.95 -10.6 M0.5 -8.0 Q4.8 -6.3 1.2 -3.65 -0.3 -2.55 -1.35 -4.1 -2.85 -6.25 -0.65 -7.75 L0.45 -7.95 0.5 -8.0 M3.55 -0.15 L2.85 -0.15 2.85 -0.1 2.7 -0.1 -2.5 0.1 -2.55 0.1 -2.4 0.25 -2.2 0.35 -2.25 0.35 -1.2 0.75 -1.15 0.75 2.0 1.95 3.35 2.5 4.6 3.05 4.35 -0.1 3.55 -0.15 M16.95 -7.95 L17.0 -8.0 Q21.3 -6.3 17.7 -3.65 16.2 -2.55 15.15 -4.1 13.65 -6.25 15.85 -7.75 L16.95 -7.95 M15.35 2.05 Q15.6 1.85 15.9 1.8 16.55 1.65 16.8 1.35 L18.45 0.5 17.55 0.4 14.25 0.05 14.15 0.0 13.85 0.0 13.75 1.15 13.7 2.8 13.7 3.0 15.35 2.1 15.35 2.05 M-11.35 -11.0 L-12.4 -10.8 -12.4 -10.4 -12.45 -4.8 -12.55 -4.2 -9.15 -2.6 Q-7.35 -6.4 -9.9 -9.6 L-10.6 -10.4 -11.35 -11.0" fill="#000000" fill-rule="evenodd" stroke="none"/>
    <path d="M-9.75 -12.4 L-10.0 -12.35 -10.4 -12.3 -11.65 -12.05 -12.4 -12.3 -12.35 -39.55 -10.5 -40.0 -7.1 -40.85 -2.95 -41.8 0.2 -42.35 2.2 -42.55 6.0 -42.65 9.75 -42.35 12.3 -41.85 14.75 -41.2 17.15 -40.4 Q19.0 -39.8 20.75 -38.85 L20.65 -38.05 16.3 -38.15 14.9 -38.1 4.35 -37.8 2.05 -39.2 1.75 -37.8 -9.7 -38.0 -9.75 -12.6 -9.75 -12.4 M3.05 -22.5 L2.9 -37.55 9.65 -32.4 10.45 -32.6 15.7 -37.55 15.55 -22.0 9.0 -28.0 3.05 -23.8 3.05 -22.5 M15.55 -20.05 L15.6 -12.9 15.7 -12.85 15.7 -12.75 15.7 -12.45 15.7 -12.4 15.7 -12.05 15.7 -11.95 15.75 -11.85 15.9 -11.55 16.0 -11.5 16.6 -11.45 16.85 -11.45 18.75 -11.35 19.7 -11.2 20.9 -11.15 20.5 -0.5 15.35 -0.8 15.35 -0.75 13.25 -0.95 13.2 -0.95 13.2 -0.9 13.15 -0.95 13.05 -0.95 13.0 -0.9 12.95 -0.8 12.95 -0.75 Q12.8 0.55 12.8 1.8 L12.75 2.0 12.75 3.5 9.5 5.25 5.6 3.5 5.45 -0.2 5.35 -1.15 5.05 -1.15 4.95 -1.15 -3.1 -0.8 -4.35 -0.75 -4.5 -0.75 -4.75 -0.9 -4.9 -0.9 -6.25 -1.4 -8.3 -2.25 -8.0 -2.65 Q-7.25 -3.8 -7.3 -5.1 L-7.3 -6.1 -7.35 -7.05 -7.55 -7.85 -7.85 -8.7 Q-8.25 -9.65 -9.0 -10.4 L-9.5 -10.85 -8.35 -10.95 -7.35 -11.05 -3.15 -11.15 -1.05 -11.25 0.0 -11.35 1.2 -11.35 2.2 -11.5 3.05 -11.6 3.0 -11.65 3.1 -13.25 3.05 -22.1 9.2 -26.5 15.55 -20.05 M16.7 -12.7 L16.85 -12.7 16.7 -12.7 M0.5 -8.0 L0.45 -7.95 -0.65 -7.75 Q-2.85 -6.25 -1.35 -4.1 -0.3 -2.55 1.2 -3.65 4.8 -6.3 0.5 -8.0 M9.95 -10.6 L9.95 -10.45 9.95 -10.4 9.95 -7.85 9.85 -7.3 9.15 -6.35 9.15 -6.3 9.1 -6.2 9.0 -6.05 9.05 -5.9 9.65 -5.7 10.1 -5.65 Q10.9 -5.65 10.95 -6.4 L10.95 -6.5 10.95 -6.55 10.95 -6.6 10.75 -7.9 10.75 -8.05 10.65 -8.8 10.5 -10.4 10.5 -10.75 10.5 -10.9 10.45 -10.95 10.45 -11.05 10.25 -11.15 10.15 -11.1 10.15 -10.9 9.95 -10.6 M16.95 -7.95 L15.85 -7.75 Q13.65 -6.25 15.15 -4.1 16.2 -2.55 17.7 -3.65 21.3 -6.3 17.0 -8.0 L16.95 -7.95" fill="#ffffff" fill-rule="evenodd" stroke="none"/>
    <path d="M-9.75 -12.4 L-9.75 -12.6 1.95 -23.15 1.95 -21.55 -8.1 -12.7 -9.3 -12.5 -9.75 -12.4 M20.95 -15.6 L20.95 -13.7 16.45 -19.5 16.45 -20.95 20.95 -15.6" fill="#999999" fill-rule="evenodd" stroke="none"/>
    <path d="M15.55 -22.0 L15.55 -20.05 9.2 -26.5 3.05 -22.1 3.05 -22.5 3.05 -23.8 9.0 -28.0 15.55 -22.0" fill="#cccccc" fill-rule="evenodd" stroke="none"/>
    <path d="M-9.75 -12.6 L-9.7 -38.0 1.75 -37.8 1.95 -23.15 -9.75 -12.6 M4.35 -37.8 L14.9 -38.1 Q12.05 -36.2 9.9 -33.55 7.25 -35.85 4.35 -37.8 M16.3 -38.15 L20.65 -38.05 20.95 -15.6 16.45 -20.95 16.3 -38.15 M20.95 -13.7 L20.9 -12.4 16.5 -13.4 16.45 -19.5 20.95 -13.7 M1.95 -21.55 L1.95 -14.45 1.95 -14.1 1.95 -13.05 0.8 -13.1 Q-2.8 -12.95 -6.35 -12.95 L-7.65 -12.75 -8.1 -12.7 1.95 -21.55 M3.55 -0.15 L4.35 -0.1 4.6 3.05 3.35 2.5 2.0 1.95 -1.15 0.75 -1.2 0.75 -2.25 0.35 -2.2 0.35 -2.4 0.25 -2.55 0.1 -2.5 0.1 2.7 -0.1 2.85 -0.1 2.85 -0.15 3.55 -0.15 M15.35 2.05 L15.35 2.1 13.7 3.0 13.7 2.8 13.75 1.15 13.85 0.0 14.15 0.0 14.25 0.05 17.55 0.4 18.45 0.5 16.8 1.35 Q16.55 1.65 15.9 1.8 15.6 1.85 15.35 2.05 M-11.35 -11.0 L-10.6 -10.4 -9.9 -9.6 Q-7.35 -6.4 -9.15 -2.6 L-12.55 -4.2 -12.45 -4.8 -12.4 -10.4 -12.4 -10.8 -11.35 -11.0" fill="#999da6" fill-rule="evenodd" stroke="none"/>
  </g>
</svg>
