<?xml version="1.0" encoding="UTF-8" standalone="no"?>
<svg xmlns:xlink="http://www.w3.org/1999/xlink" height="31.9px" width="6.5px" xmlns="http://www.w3.org/2000/svg">
  <g transform="matrix(1.0, 0.0, 0.0, 1.0, 3.85, 15.3)">
    <path d="M1.15 -11.35 L1.15 -13.15 1.15 -13.9 -3.1 -13.75 -2.5 15.3 1.3 15.1 1.25 14.1 0.95 14.2 Q-0.1 14.65 -1.2 14.2 L-1.35 14.05 -1.35 13.85 -1.6 -11.35 1.15 -11.35 M2.45 16.6 L-3.85 16.6 -3.85 -15.3 2.45 -15.3 2.65 13.75 2.6 13.85 2.5 14.05 2.45 14.1 2.45 16.6 M1.2 12.9 L1.15 -10.6 -0.95 -10.35 -0.25 13.35 1.2 12.9" fill="#000000" fill-rule="evenodd" stroke="none"/>
    <path d="M1.15 -11.35 L-1.6 -11.35 -1.35 13.85 -1.35 14.05 -1.2 14.2 Q-0.1 14.65 0.95 14.2 L1.25 14.1 1.3 15.1 -2.5 15.3 -3.1 -13.75 1.15 -13.9 1.15 -13.15 1.15 -11.35 M1.2 12.9 L-0.25 13.35 -0.95 -10.35 1.15 -10.6 1.2 12.9" fill="#999da6" fill-rule="evenodd" stroke="none"/>
  </g>
</svg>
