<?xml version="1.0" encoding="UTF-8" standalone="no"?>
<svg xmlns:xlink="http://www.w3.org/1999/xlink" height="36.8px" width="34.35px" xmlns="http://www.w3.org/2000/svg">
  <g transform="matrix(1.0, 0.0, 0.0, 1.0, 18.0, 19.05)">
    <path d="M-5.8 -17.2 L-5.65 -17.35 Q-1.0 -18.4 3.45 -16.7 L4.8 -15.75 Q4.6 -14.9 4.05 -14.2 0.15 -9.3 -4.65 -5.25 L-6.35 -3.8 Q-8.35 -1.95 -10.8 -0.85 -12.5 -0.1 -13.5 1.1 L-13.8 -0.6 -13.8 -0.8 Q-13.55 -2.05 -13.9 -3.15 L-14.05 -3.5 -14.35 -4.3 Q-15.0 -5.95 -16.45 -6.1 L-16.0 -7.2 Q-15.65 -7.95 -15.6 -8.6 L-15.8 -8.7 -14.6 -11.05 -12.0 -13.65 Q-10.55 -15.0 -8.8 -15.95 L-7.45 -16.9 -7.05 -16.65 -7.0 -16.6 -6.75 -16.45 -6.55 -16.45 -6.0 -17.05 -5.8 -17.2 M-17.0 -8.7 L-16.75 -9.2 -16.85 -8.7 -17.0 -8.7 M-16.5 -9.7 L-15.7 -10.95 Q-13.15 -14.5 -9.65 -17.1 L-8.8 -17.05 -8.9 -17.0 Q-13.55 -14.15 -16.5 -9.7 M-12.45 15.55 Q-12.4 14.15 -12.75 12.8 L-13.3 12.5 Q-14.45 12.9 -15.35 13.8 L-15.05 12.75 -15.0 12.7 -14.85 12.75 -14.6 12.6 Q-8.3 9.5 -3.15 4.45 -0.8 2.2 1.2 -0.35 L3.5 -3.45 Q6.45 -7.55 7.75 -12.35 L8.0 -12.85 8.0 -13.0 8.0 -13.4 10.1 -15.15 Q11.2 -16.0 12.6 -16.3 L12.35 -15.9 11.05 -13.6 Q10.6 -13.0 10.7 -12.25 L12.45 -11.15 14.7 -9.45 Q13.65 -8.8 12.4 -8.65 L11.75 -8.15 11.75 -7.8 11.75 -7.6 11.8 -7.45 12.5 -6.65 13.15 -5.85 13.25 -5.65 11.95 -5.6 Q11.3 -5.55 11.25 -4.9 L11.25 -4.7 11.35 -4.55 11.5 -3.35 11.4 -2.5 11.4 -2.35 11.5 -2.3 Q11.35 -1.05 11.65 0.1 L11.55 0.45 Q11.3 1.15 11.7 1.8 L12.1 1.95 12.2 2.0 12.05 2.25 Q11.6 3.0 11.6 3.75 L12.65 4.45 12.7 5.05 12.6 5.55 11.7 6.65 11.65 7.0 11.6 7.5 11.7 7.65 11.95 8.15 Q10.8 7.85 10.3 8.6 L10.4 8.9 Q10.75 9.6 10.5 10.3 L6.95 10.45 6.9 10.5 6.8 10.6 3.85 10.7 3.8 11.05 3.75 11.2 3.5 11.5 3.4 11.65 3.2 11.55 2.85 11.5 2.7 11.3 2.7 11.15 2.65 11.0 2.6 11.0 2.6 10.8 2.5 10.45 2.45 10.3 2.3 10.1 2.3 9.75 2.3 9.65 Q2.0 9.2 1.4 8.9 0.25 9.55 -0.75 10.25 -1.1 9.25 -2.0 9.65 -3.4 11.3 -4.35 13.2 L-4.55 13.2 -4.65 13.1 -4.75 12.95 -5.15 11.4 -6.15 11.35 -8.25 14.25 -9.55 12.15 -9.85 12.0 -10.05 12.05 -10.45 12.2 -10.55 12.35 Q-11.15 14.15 -12.25 15.65 L-12.45 15.55 M4.65 10.25 L3.75 10.55 3.8 10.65 4.65 10.25" fill="#996633" fill-rule="evenodd" stroke="none"/>
    <path d="M-5.8 -17.2 L-6.0 -17.05 -6.55 -16.45 -6.75 -16.45 -7.0 -16.6 -7.05 -16.65 -7.45 -16.9 -8.8 -15.95 Q-10.55 -15.0 -12.0 -13.65 L-14.6 -11.05 -15.8 -8.7 -15.6 -8.6 Q-15.65 -7.95 -16.0 -7.2 L-16.45 -6.1 Q-15.0 -5.95 -14.35 -4.3 L-14.05 -3.5 -13.9 -3.15 Q-13.55 -2.05 -13.8 -0.8 L-13.8 -0.6 -13.5 1.1 Q-12.5 -0.1 -10.8 -0.85 -8.35 -1.95 -6.35 -3.8 L-4.65 -5.25 Q0.15 -9.3 4.05 -14.2 4.6 -14.9 4.8 -15.75 L3.45 -16.7 Q-1.0 -18.4 -5.65 -17.35 L-5.8 -17.2 M-9.65 -17.1 L-8.4 -17.95 -7.45 -17.55 -7.25 -17.6 -7.0 -17.45 -6.95 -17.35 -6.95 -17.3 -6.85 -17.25 Q-6.4 -18.0 -5.45 -18.35 L-2.45 -19.05 Q2.95 -18.95 7.05 -15.7 L7.1 -15.55 7.45 -15.35 7.65 -15.2 7.8 -15.0 11.8 -17.15 14.2 -17.0 13.6 -15.65 12.25 -13.25 12.05 -12.9 14.85 -10.75 Q15.85 -10.1 16.35 -9.05 L16.3 -8.9 16.2 -8.75 16.1 -8.6 15.4 -8.4 13.2 -7.5 13.6 -6.9 14.75 -5.6 14.9 -5.05 14.8 -4.85 14.7 -4.7 14.5 -4.6 14.3 -4.55 13.45 -4.4 12.7 -4.35 12.7 -4.15 12.75 -3.85 12.8 -3.0 12.75 -2.65 12.7 -2.55 Q12.65 -1.2 12.95 0.1 L13.0 0.4 Q14.5 1.25 13.2 2.85 L13.1 3.0 13.1 3.2 13.15 3.25 13.65 3.7 13.6 3.8 13.55 4.0 13.7 4.4 13.75 4.6 Q13.8 6.05 12.75 7.05 L12.6 7.2 Q13.0 7.8 13.0 8.45 L13.0 8.6 12.7 9.1 12.6 9.2 11.45 9.3 Q11.75 11.9 8.9 11.25 7.6 10.95 6.6 11.7 L4.55 11.45 4.35 11.6 Q4.3 11.95 4.5 12.3 L4.55 12.45 4.5 12.8 4.4 12.95 Q2.8 12.85 1.95 11.4 L1.85 11.45 1.6 11.55 Q1.25 10.95 1.3 10.2 L-1.35 12.2 -1.8 11.9 -1.85 11.55 -1.85 11.2 -2.95 12.95 -3.7 14.05 -4.6 14.6 Q-5.65 14.05 -5.9 12.85 L-7.45 15.3 -7.55 15.45 Q-9.15 15.75 -9.85 13.75 -11.1 15.3 -11.8 17.35 L-11.85 17.5 Q-12.05 17.7 -12.35 17.7 L-12.55 17.75 Q-13.2 17.3 -13.5 16.4 L-13.6 14.2 -13.7 13.85 Q-14.6 14.9 -15.95 15.35 L-16.35 15.05 Q-16.6 12.8 -15.3 10.9 L-15.15 10.75 Q-16.35 11.2 -17.5 11.9 L-18.0 11.6 Q-17.55 9.3 -16.05 7.25 -14.55 5.15 -14.3 2.9 -14.2 2.05 -14.55 1.35 L-14.4 0.35 -14.35 0.0 -14.5 -2.75 Q-15.3 -3.3 -15.7 -4.15 L-16.0 -4.85 Q-16.5 -4.25 -17.25 -4.35 L-17.6 -4.45 Q-17.95 -5.25 -17.6 -6.15 L-17.1 -7.45 -17.5 -7.5 -17.0 -8.7 -16.85 -8.7 -16.75 -9.2 -16.5 -9.7 Q-13.55 -14.15 -8.9 -17.0 L-8.8 -17.05 -9.65 -17.1 M-8.95 -0.55 Q-10.95 0.8 -13.2 1.8 L-13.45 1.7 Q-13.35 3.3 -13.55 4.95 -13.55 5.15 -13.7 5.35 L-16.2 9.95 -13.8 10.1 -13.95 10.55 -12.25 9.9 Q-11.65 9.8 -11.1 9.4 -4.4 4.6 0.65 -1.8 L3.9 -6.35 Q5.85 -9.4 7.15 -12.75 L7.5 -13.05 7.55 -13.5 7.45 -13.55 6.95 -14.15 6.95 -14.2 6.65 -14.3 6.25 -14.45 6.15 -14.6 6.05 -14.8 6.0 -14.95 5.35 -15.4 Q4.6 -12.75 2.45 -10.7 L-0.75 -7.45 Q-3.0 -5.0 -5.6 -2.95 L-8.95 -0.55 M-12.25 15.65 Q-11.15 14.15 -10.55 12.35 L-10.45 12.2 -10.05 12.05 -9.85 12.0 -9.55 12.15 -8.25 14.25 -6.15 11.35 -5.15 11.4 -4.75 12.95 -4.65 13.1 -4.55 13.2 -4.35 13.2 Q-3.4 11.3 -2.0 9.65 -1.1 9.25 -0.75 10.25 0.25 9.55 1.4 8.9 2.0 9.2 2.3 9.65 L2.3 9.75 2.3 10.1 2.45 10.3 2.5 10.45 2.6 10.8 2.6 11.0 2.65 11.0 2.7 11.15 2.7 11.3 2.85 11.5 3.2 11.55 3.4 11.65 3.5 11.5 3.75 11.2 3.8 11.05 3.85 10.7 6.8 10.6 6.9 10.5 6.95 10.45 10.5 10.3 Q10.75 9.6 10.4 8.9 L10.3 8.6 Q10.8 7.85 11.95 8.15 L11.7 7.65 11.6 7.5 11.65 7.0 11.7 6.65 12.6 5.55 12.7 5.05 12.65 4.45 11.6 3.75 Q11.6 3.0 12.05 2.25 L12.2 2.0 12.1 1.95 11.7 1.8 Q11.3 1.15 11.55 0.45 L11.65 0.1 Q11.35 -1.05 11.5 -2.3 L11.4 -2.35 11.4 -2.5 11.5 -3.35 11.35 -4.55 11.25 -4.7 11.25 -4.9 Q11.3 -5.55 11.95 -5.6 L13.25 -5.65 13.15 -5.85 12.5 -6.65 11.8 -7.45 11.75 -7.6 11.75 -7.8 11.75 -8.15 12.4 -8.65 Q13.65 -8.8 14.7 -9.45 L12.45 -11.15 10.7 -12.25 Q10.6 -13.0 11.05 -13.6 L12.35 -15.9 12.6 -16.3 Q11.2 -16.0 10.1 -15.15 L8.0 -13.4 8.0 -13.0 8.0 -12.85 7.75 -12.35 Q6.45 -7.55 3.5 -3.45 L1.2 -0.35 Q-0.8 2.2 -3.15 4.45 -8.3 9.5 -14.6 12.6 L-14.85 12.75 -15.0 12.7 -15.05 12.75 -15.35 13.8 Q-14.45 12.9 -13.3 12.5 L-12.75 12.8 Q-12.4 14.15 -12.45 15.55 L-12.4 15.85 -12.25 15.65 M4.65 10.25 L3.8 10.65 3.75 10.55 4.65 10.25" fill="#000000" fill-rule="evenodd" stroke="none"/>
    <path d="M-8.95 -0.55 L-5.6 -2.95 Q-3.0 -5.0 -0.75 -7.45 L2.45 -10.7 Q4.6 -12.75 5.35 -15.4 L6.0 -14.95 6.05 -14.8 6.15 -14.6 6.25 -14.45 6.65 -14.3 6.95 -14.2 6.95 -14.15 7.45 -13.55 7.55 -13.5 7.5 -13.05 7.15 -12.75 Q5.85 -9.4 3.9 -6.35 L0.65 -1.8 Q-4.4 4.6 -11.1 9.4 -11.65 9.8 -12.25 9.9 L-13.95 10.55 -13.8 10.1 -16.2 9.95 -13.7 5.35 Q-13.55 5.15 -13.55 4.95 -13.35 3.3 -13.45 1.7 L-13.2 1.8 Q-10.95 0.8 -8.95 -0.55" fill="#999966" fill-rule="evenodd" stroke="none"/>
  </g>
</svg>
