<?xml version="1.0" encoding="UTF-8" standalone="no"?>
<svg xmlns:xlink="http://www.w3.org/1999/xlink" height="42.9px" width="36.65px" xmlns="http://www.w3.org/2000/svg">
  <g transform="matrix(1.0, 0.0, 0.0, 1.0, 18.25, 18.65)">
    <path d="M-7.4 -16.7 L-7.6 -16.7 -6.35 -17.55 -5.4 -17.15 -5.2 -17.2 -4.95 -17.05 -4.9 -16.95 -4.9 -16.9 -4.8 -16.85 Q-4.35 -17.6 -3.4 -17.95 L-0.4 -18.65 Q5.0 -18.55 9.1 -15.3 L9.15 -15.15 9.5 -14.95 9.7 -14.8 9.85 -14.6 13.85 -16.75 16.25 -16.6 15.65 -15.25 14.3 -12.85 14.1 -12.5 16.9 -10.35 Q17.9 -9.7 18.4 -8.65 L18.35 -8.5 18.25 -8.35 18.15 -8.2 17.45 -8.0 15.25 -7.1 15.65 -6.5 16.8 -5.2 16.95 -4.65 16.85 -4.45 16.75 -4.3 16.55 -4.2 16.35 -4.15 15.5 -4.0 14.75 -3.95 14.75 -3.75 14.8 -3.45 14.85 -2.6 14.8 -2.25 14.75 -2.15 Q14.7 -0.8 15.0 0.5 L15.05 0.8 Q16.55 1.65 15.25 3.25 L15.15 3.4 15.15 3.6 15.2 3.65 15.7 4.1 15.65 4.2 15.6 4.4 15.75 4.8 15.8 5.0 Q15.85 6.45 14.8 7.45 L14.65 7.6 Q15.05 8.2 15.05 8.85 L15.05 9.0 15.0 9.1 14.1 9.1 13.75 9.5 11.1 10.25 10.35 11.65 9.35 12.5 9.15 13.25 9.1 13.6 9.1 14.0 8.45 14.4 5.0 14.85 4.6 15.25 4.6 16.35 4.6 17.1 4.25 17.5 Q1.65 17.3 -0.75 16.1 L-1.4 17.6 -2.0 18.75 -2.0 19.1 -1.9 19.5 -2.05 19.85 -2.4 20.25 -2.4 20.6 -2.4 21.0 -2.55 21.3 -3.0 21.6 -4.4 21.5 -5.95 19.75 -6.5 19.25 -6.85 20.0 -6.9 20.35 -7.0 20.75 -7.4 21.1 -7.4 21.5 -7.4 21.85 -7.55 22.2 -8.0 22.5 Q-9.45 21.7 -10.55 20.4 L-10.9 20.0 -11.55 21.0 -12.4 22.1 -12.6 23.25 -12.75 24.25 -13.75 24.25 Q-14.0 22.35 -14.7 20.5 L-14.9 19.0 -15.65 18.85 Q-16.0 19.7 -16.6 20.4 L-17.25 21.1 -17.9 21.1 -18.25 20.75 -17.8 16.55 -17.55 13.8 Q-17.9 13.55 -17.5 12.85 L-17.35 12.85 -16.8 10.75 -16.9 10.65 -17.25 10.25 Q-17.35 8.15 -16.75 6.15 L-16.15 4.6 Q-16.15 4.0 -16.65 3.6 L-16.95 3.4 -17.25 3.1 -17.0 2.5 -16.95 2.4 -16.65 2.0 -16.0 0.3 -16.0 0.2 -15.95 0.1 -15.65 -0.65 -15.85 -0.55 -14.7 -4.05 -14.65 -4.1 -14.45 -3.3 -14.15 -3.9 -14.05 -3.95 -14.65 -4.2 -14.75 -4.25 -14.8 -4.55 Q-15.0 -5.55 -14.6 -6.45 L-14.5 -6.65 -14.35 -7.8 Q-12.8 -9.8 -11.65 -12.05 L-10.85 -12.7 -9.75 -13.2 -9.4 -13.25 Q-11.7 -11.95 -12.65 -9.15 L-12.75 -8.75 -13.5 -8.0 Q-13.55 -7.2 -13.9 -6.5 L-14.15 -5.15 -13.3 -4.8 -13.0 -4.5 Q-14.45 -1.4 -15.3 1.9 L-15.25 2.85 -14.2 2.2 -13.95 2.1 -9.45 -0.25 -8.8 -0.4 -8.75 -0.45 Q-6.3 -1.55 -4.3 -3.4 L-2.6 -4.85 Q2.2 -8.9 6.1 -13.8 6.65 -14.5 6.85 -15.35 L5.5 -16.3 Q1.05 -18.0 -3.6 -16.95 L-3.75 -16.8 -3.95 -16.65 -4.1 -16.45 -4.5 -16.05 -4.7 -16.05 -4.95 -16.2 -5.0 -16.25 -5.4 -16.5 -6.75 -15.55 Q-8.5 -14.6 -9.95 -13.25 L-10.25 -13.0 -10.25 -14.1 -6.85 -16.6 -6.75 -16.65 -6.85 -16.65 -7.4 -16.7 M12.15 -14.75 L10.05 -13.0 10.05 -12.6 10.05 -12.45 9.8 -11.95 Q8.5 -7.15 5.55 -3.05 L3.25 0.05 -1.1 4.85 Q-3.35 7.05 -5.85 8.9 -9.8 13.05 -15.6 13.75 L-16.3 17.25 -16.9 18.85 Q-16.05 17.8 -14.7 17.2 L-14.25 17.1 -13.85 19.7 -13.5 21.25 Q-12.3 21.1 -12.2 19.6 -12.15 19.0 -11.75 18.5 L-10.75 18.0 Q-10.0 18.55 -9.5 19.4 L-8.9 20.25 Q-8.1 20.05 -7.75 19.2 L-7.25 18.0 -6.25 17.5 Q-5.15 18.3 -4.45 19.4 L-4.0 20.1 -3.65 19.75 -3.0 19.0 -3.0 18.6 -3.0 18.25 Q-2.2 17.5 -1.9 16.4 L-1.5 15.25 -1.0 15.0 Q1.0 16.05 3.25 15.75 L3.35 15.1 3.35 14.75 3.85 13.95 4.0 13.6 Q6.6 13.4 7.85 12.75 L8.15 12.0 8.3 11.6 8.35 11.25 9.6 10.5 9.8 9.75 9.85 9.35 9.85 9.0 Q11.1 7.75 13.5 7.85 L13.65 7.9 13.7 7.4 13.75 7.05 14.65 5.95 14.75 5.45 14.7 4.85 13.65 4.15 Q13.65 3.4 14.1 2.65 L14.25 2.4 14.15 2.35 13.75 2.2 Q13.35 1.55 13.6 0.85 L13.7 0.5 Q13.4 -0.65 13.55 -1.9 L13.45 -1.95 13.45 -2.1 13.55 -2.95 13.4 -4.15 13.3 -4.3 13.3 -4.5 Q13.35 -5.15 14.0 -5.2 L15.3 -5.25 15.2 -5.45 14.55 -6.25 13.85 -7.05 13.8 -7.2 13.8 -7.4 13.8 -7.75 Q14.0 -8.15 14.45 -8.25 15.7 -8.4 16.75 -9.05 L14.5 -10.75 12.75 -11.85 Q12.65 -12.6 13.1 -13.2 L14.4 -15.5 14.65 -15.9 Q13.25 -15.6 12.15 -14.75 M-14.95 3.3 L-14.9 3.35 Q-14.65 5.2 -15.55 6.8 -15.95 7.45 -15.9 8.25 L-15.0 9.0 -15.35 12.35 Q-11.4 11.25 -7.9 9.0 L-7.85 8.95 Q-1.9 4.4 2.7 -1.4 L5.95 -5.95 Q7.9 -9.0 9.2 -12.35 L9.55 -12.65 9.6 -13.1 9.5 -13.15 9.0 -13.75 9.0 -13.8 8.7 -13.9 8.3 -14.05 8.2 -14.2 8.1 -14.4 8.05 -14.55 7.4 -15.0 Q6.65 -12.35 4.5 -10.3 L1.3 -7.05 Q-0.95 -4.6 -3.55 -2.55 L-6.9 -0.15 -10.25 1.8 -10.25 1.75 Q-11.45 2.45 -13.2 2.75 L-14.8 3.15 -14.85 3.2 -15.0 3.25 -14.95 3.3" fill="#000000" fill-rule="evenodd" stroke="none"/>
    <path d="M-17.0 2.5 L-16.9 2.2 Q-16.35 1.55 -16.4 0.6 L-16.0 0.3 -16.65 2.0 -16.95 2.4 -17.0 2.5 M-16.0 0.2 L-16.0 -0.15 -16.0 -0.45 -15.85 -0.55 -15.65 -0.65 -15.95 0.1 -16.0 0.2 M-14.65 -4.1 L-14.75 -4.25 -14.9 -4.4 -14.8 -4.55 -14.75 -4.25 -14.65 -4.2 -14.05 -3.95 -14.15 -3.9 -14.45 -3.3 -14.65 -4.1 M-14.5 -6.65 L-14.5 -6.9 -14.5 -7.65 -14.35 -7.8 -14.5 -6.65 M-10.85 -12.7 Q-10.45 -13.25 -10.55 -14.05 L-9.15 -15.2 Q-8.2 -15.85 -7.4 -16.7 L-6.85 -16.65 -6.75 -16.65 -6.85 -16.6 -10.25 -14.1 -10.25 -13.0 -9.95 -13.25 Q-8.5 -14.6 -6.75 -15.55 L-5.4 -16.5 -5.0 -16.25 -4.95 -16.2 -4.7 -16.05 -4.5 -16.05 -4.1 -16.45 -3.95 -16.65 -3.75 -16.8 -3.6 -16.95 Q1.05 -18.0 5.5 -16.3 L6.85 -15.35 Q6.65 -14.5 6.1 -13.8 2.2 -8.9 -2.6 -4.85 L-4.3 -3.4 Q-6.3 -1.55 -8.75 -0.45 L-8.8 -0.4 -9.45 -0.25 -13.95 2.1 -14.05 1.9 -14.2 2.2 -15.25 2.85 -15.3 1.9 Q-14.45 -1.4 -13.0 -4.5 L-13.3 -4.8 -14.15 -5.15 -13.9 -6.5 Q-13.55 -7.2 -13.5 -8.0 L-12.75 -8.75 -12.65 -9.15 Q-11.7 -11.95 -9.4 -13.25 L-9.75 -13.2 -10.85 -12.7 M12.15 -14.75 Q13.25 -15.6 14.65 -15.9 L14.4 -15.5 13.1 -13.2 Q12.65 -12.6 12.75 -11.85 L14.5 -10.75 16.75 -9.05 Q15.7 -8.4 14.45 -8.25 14.0 -8.15 13.8 -7.75 L13.8 -7.4 13.8 -7.2 13.85 -7.05 14.55 -6.25 15.2 -5.45 15.3 -5.25 14.0 -5.2 Q13.35 -5.15 13.3 -4.5 L13.3 -4.3 13.4 -4.15 13.55 -2.95 13.45 -2.1 13.45 -1.95 13.55 -1.9 Q13.4 -0.65 13.7 0.5 L13.6 0.85 Q13.35 1.55 13.75 2.2 L14.15 2.35 14.25 2.4 14.1 2.65 Q13.65 3.4 13.65 4.15 L14.7 4.85 14.75 5.45 14.65 5.95 13.75 7.05 13.7 7.4 13.65 7.9 13.5 7.85 Q11.1 7.75 9.85 9.0 L9.85 9.35 9.8 9.75 9.6 10.5 8.35 11.25 8.3 11.6 8.15 12.0 7.85 12.75 Q6.6 13.4 4.0 13.6 L3.85 13.95 3.35 14.75 3.35 15.1 3.25 15.75 Q1.0 16.05 -1.0 15.0 L-1.5 15.25 -1.9 16.4 Q-2.2 17.5 -3.0 18.25 L-3.0 18.6 -3.0 19.0 -3.65 19.75 -4.0 20.1 -4.45 19.4 Q-5.15 18.3 -6.25 17.5 L-7.25 18.0 -7.75 19.2 Q-8.1 20.05 -8.9 20.25 L-9.5 19.4 Q-10.0 18.55 -10.75 18.0 L-11.75 18.5 Q-12.15 19.0 -12.2 19.6 -12.3 21.1 -13.5 21.25 L-13.85 19.7 -14.25 17.1 -14.7 17.2 Q-16.05 17.8 -16.9 18.85 L-16.3 17.25 -15.6 13.75 Q-9.8 13.05 -5.85 8.9 -3.35 7.05 -1.1 4.85 L3.25 0.05 5.55 -3.05 Q8.5 -7.15 9.8 -11.95 L10.05 -12.45 10.05 -12.6 10.05 -13.0 12.15 -14.75 M-14.85 3.2 L-14.95 3.3 -15.0 3.25 -14.85 3.2" fill="#996633" fill-rule="evenodd" stroke="none"/>
    <path d="M-14.85 3.2 L-14.8 3.15 -13.2 2.75 Q-11.45 2.45 -10.25 1.75 L-10.25 1.8 -6.9 -0.15 -3.55 -2.55 Q-0.95 -4.6 1.3 -7.05 L4.5 -10.3 Q6.65 -12.35 7.4 -15.0 L8.05 -14.55 8.1 -14.4 8.2 -14.2 8.3 -14.05 8.7 -13.9 9.0 -13.8 9.0 -13.75 9.5 -13.15 9.6 -13.1 9.55 -12.65 9.2 -12.35 Q7.9 -9.0 5.95 -5.95 L2.7 -1.4 Q-1.9 4.4 -7.85 8.95 L-7.9 9.0 Q-11.4 11.25 -15.35 12.35 L-15.0 9.0 -15.9 8.25 Q-15.95 7.45 -15.55 6.8 -14.65 5.2 -14.9 3.35 L-14.95 3.3 -14.85 3.2" fill="#999966" fill-rule="evenodd" stroke="none"/>
  </g>
</svg>
