<?xml version="1.0" encoding="UTF-8" standalone="no"?>
<svg xmlns:xlink="http://www.w3.org/1999/xlink" height="51.4px" width="60.3px" xmlns="http://www.w3.org/2000/svg">
  <g transform="matrix(1.0, 0.0, 0.0, 1.0, 30.05, 42.75)">
    <path d="M29.5 -33.4 L30.1 -33.15 Q31.0 -21.05 26.5 -9.5 L26.35 -9.15 Q22.7 -6.15 19.05 -8.15 L16.85 1.2 16.75 1.45 16.7 1.65 16.5 2.4 Q13.2 3.6 10.2 5.35 L7.75 6.7 3.3 8.45 1.6 8.6 1.15 8.25 -0.35 7.65 -1.15 7.25 -8.75 3.4 -12.45 1.45 -12.5 1.6 -12.7 1.35 -12.7 1.3 -13.05 1.1 Q-14.5 0.85 -16.1 -0.7 -18.55 -3.1 -19.85 -6.2 -21.2 -7.1 -21.0 -8.9 L-21.45 -9.65 -21.5 -10.0 -21.45 -10.35 -21.4 -10.4 Q-24.1 -11.95 -25.95 -13.95 L-26.25 -13.9 Q-31.1 -15.9 -29.75 -21.65 -27.05 -33.4 -19.5 -42.75 L-18.8 -42.75 -18.95 -42.5 -18.75 -42.5 -18.4 -42.15 -18.25 -29.4 -18.25 -29.0 -17.6 -28.1 Q-15.15 -31.3 -10.45 -32.0 L-2.5 -33.5 Q9.1 -35.05 17.5 -28.0 L18.6 -26.5 Q19.45 -26.15 19.9 -25.4 L23.25 -25.15 29.5 -33.4 M2.9 -5.45 Q4.55 -4.9 4.05 -3.3 L3.6 -2.9 Q1.8 -2.75 2.0 -4.25 L2.25 -4.95 2.9 -5.45 M17.6 -9.7 L20.8 -21.25 20.85 -21.3 20.25 -22.1 18.25 -24.4 Q17.25 -25.5 16.6 -26.9 7.9 -33.05 -3.2 -31.65 -8.95 -30.9 -13.95 -28.15 -15.5 -27.3 -16.85 -27.25 -15.6 -25.95 -13.9 -25.15 -13.65 -24.6 -13.7 -24.0 L-13.75 -23.65 Q-12.45 -17.55 -16.2 -13.1 -14.3 -11.55 -12.05 -10.1 -10.25 -12.5 -6.75 -13.95 -3.6 -15.25 -0.5 -15.75 10.4 -16.3 15.55 -7.2 L15.6 -6.9 16.4 -5.4 17.5 -9.25 17.35 -9.65 17.6 -9.7 M10.5 -4.45 Q10.25 -6.0 11.8 -6.1 13.3 -5.15 11.8 -4.2 L11.4 -4.05 Q10.8 -4.05 10.5 -4.45 M15.05 -1.45 L15.1 -1.75 Q15.55 -3.35 14.95 -4.95 12.4 -12.05 4.4 -13.65 -1.9 -14.95 -7.6 -12.15 -12.05 -9.95 -12.05 -5.0 L-12.25 -0.5 -12.0 -0.15 -11.95 -0.05 -10.95 0.4 -10.75 0.6 -10.8 0.65 Q-7.65 2.05 -4.45 3.55 L-1.9 4.1 0.0 4.4 Q4.2 4.8 8.5 4.5 L11.05 3.15 10.85 3.1 12.75 2.2 12.6 2.4 12.85 2.25 12.95 2.1 Q14.0 1.8 14.8 1.0 L14.95 -0.05 15.05 -1.45 M20.95 -23.2 L22.5 -20.5 22.2 -20.25 21.85 -20.15 19.5 -10.05 23.5 -9.75 Q26.15 -14.1 27.3 -19.5 28.35 -24.3 28.6 -29.25 26.45 -26.95 24.5 -23.25 L20.7 -23.65 20.95 -23.2 M10.85 1.6 L10.25 1.1 10.2 0.9 10.25 0.55 Q10.65 -0.15 11.4 -0.3 12.7 -0.15 12.1 1.25 11.75 2.05 10.85 1.6 M3.4 1.8 Q3.8 2.25 3.35 3.15 L3.3 3.25 2.65 3.3 Q2.2 3.45 1.85 3.05 1.55 2.6 1.7 2.2 L1.7 1.95 2.15 1.5 2.3 1.45 2.35 1.45 2.45 1.4 2.9 1.4 3.4 1.8 M4.75 6.5 L6.55 5.55 4.85 5.5 -0.7 5.35 2.6 7.0 4.75 6.5 M-19.75 -27.9 L-19.65 -41.25 -25.5 -30.1 Q-28.45 -24.1 -28.25 -17.4 -27.55 -16.2 -26.0 -15.5 L-25.8 -15.15 -25.75 -15.15 Q-22.65 -17.75 -19.95 -21.35 L-17.65 -24.6 -17.1 -25.5 -19.75 -27.9 M-21.65 -12.65 L-18.1 -22.05 -18.0 -22.4 Q-20.7 -17.6 -25.6 -15.05 -23.55 -14.0 -21.65 -12.65 M-20.45 -11.8 L-18.05 -13.4 -17.85 -13.75 -17.5 -13.95 Q-14.75 -16.75 -14.7 -21.5 L-14.5 -23.15 -16.5 -24.95 Q-17.7 -18.4 -20.75 -12.05 L-20.45 -11.8 M-15.0 -8.5 Q-16.8 -8.8 -17.25 -10.25 L-17.0 -10.5 -16.9 -10.6 -16.5 -10.65 -16.25 -10.65 -14.7 -9.45 -14.4 -9.15 -14.6 -8.8 -15.0 -8.5 M-18.65 -10.75 Q-16.7 -7.45 -14.0 -4.6 -13.85 -7.2 -12.65 -9.15 L-17.05 -12.15 -18.65 -10.8 -18.65 -10.75 M-18.65 -6.65 L-18.75 -6.45 Q-16.9 -3.2 -13.8 -1.15 L-14.0 -3.05 Q-17.1 -5.85 -19.05 -9.45 L-18.7 -7.35 -18.65 -6.65 M-7.6 -7.1 L-6.85 -7.9 -6.6 -8.1 Q-4.8 -7.45 -6.0 -6.05 -6.25 -5.7 -6.7 -5.75 L-7.4 -6.15 -7.55 -6.55 -7.6 -7.1 M-6.95 -1.6 L-6.75 -1.5 Q-5.9 -0.05 -7.45 0.4 -8.15 0.6 -8.45 -0.05 -8.8 -0.75 -8.2 -1.35 L-7.45 -1.8 -6.95 -1.6" fill="#000000" fill-rule="evenodd" stroke="none"/>
    <path d="M17.6 -9.7 L17.35 -9.65 17.5 -9.25 16.4 -5.4 15.6 -6.9 15.55 -7.2 Q10.4 -16.3 -0.5 -15.75 -3.6 -15.25 -6.75 -13.95 -10.25 -12.5 -12.05 -10.1 -14.3 -11.55 -16.2 -13.1 -12.45 -17.55 -13.75 -23.65 L-13.7 -24.0 Q-13.65 -24.6 -13.9 -25.15 -15.6 -25.95 -16.85 -27.25 -15.5 -27.3 -13.95 -28.15 -8.95 -30.9 -3.2 -31.65 7.9 -33.05 16.6 -26.9 17.25 -25.5 18.25 -24.4 L20.25 -22.1 20.85 -21.3 20.8 -21.25 17.6 -9.7 M-18.65 -6.65 L-18.7 -7.35 -19.05 -9.45 Q-17.1 -5.85 -14.0 -3.05 L-13.8 -1.15 Q-16.9 -3.2 -18.75 -6.45 L-18.65 -6.65" fill="#996633" fill-rule="evenodd" stroke="none"/>
    <path d="M2.9 -5.45 L2.25 -4.95 2.0 -4.25 Q1.8 -2.75 3.6 -2.9 L4.05 -3.3 Q4.55 -4.9 2.9 -5.45 M-18.65 -10.75 L-18.65 -10.8 -17.05 -12.15 -12.65 -9.15 Q-13.85 -7.2 -14.0 -4.6 -16.7 -7.45 -18.65 -10.75 M-15.0 -8.5 L-14.6 -8.8 -14.4 -9.15 -14.7 -9.45 -16.25 -10.65 -16.5 -10.65 -16.9 -10.6 -17.0 -10.5 -17.25 -10.25 Q-16.8 -8.8 -15.0 -8.5 M-20.45 -11.8 L-20.75 -12.05 Q-17.7 -18.4 -16.5 -24.95 L-14.5 -23.15 -14.7 -21.5 Q-14.75 -16.75 -17.5 -13.95 L-17.85 -13.75 -18.05 -13.4 -20.45 -11.8 M-21.65 -12.65 Q-23.55 -14.0 -25.6 -15.05 -20.7 -17.6 -18.0 -22.4 L-18.1 -22.05 -21.65 -12.65 M-19.75 -27.9 L-17.1 -25.5 -17.65 -24.6 -19.95 -21.35 Q-22.65 -17.75 -25.75 -15.15 L-25.8 -15.15 -26.0 -15.5 Q-27.55 -16.2 -28.25 -17.4 -28.45 -24.1 -25.5 -30.1 L-19.65 -41.25 -19.75 -27.9 M4.75 6.5 L2.6 7.0 -0.7 5.35 4.85 5.5 6.55 5.55 4.75 6.5 M3.4 1.8 L2.9 1.4 2.45 1.4 2.35 1.45 2.3 1.45 2.15 1.5 1.7 1.95 1.7 2.2 Q1.55 2.6 1.85 3.05 2.2 3.45 2.65 3.3 L3.3 3.25 3.35 3.15 Q3.8 2.25 3.4 1.8 M10.85 1.6 Q11.75 2.05 12.1 1.25 12.7 -0.15 11.4 -0.3 10.65 -0.15 10.25 0.55 L10.2 0.9 10.25 1.1 10.85 1.6 M20.95 -23.2 L20.7 -23.65 24.5 -23.25 Q26.45 -26.95 28.6 -29.25 28.35 -24.3 27.3 -19.5 26.15 -14.1 23.5 -9.75 L19.5 -10.05 21.85 -20.15 22.2 -20.25 22.5 -20.5 20.95 -23.2 M15.05 -1.45 L14.95 -0.05 14.8 1.0 Q14.0 1.8 12.95 2.1 L12.85 2.25 12.6 2.4 12.75 2.2 10.85 3.1 11.05 3.15 8.5 4.5 Q4.2 4.8 0.0 4.4 L-1.9 4.1 -4.45 3.55 Q-7.65 2.05 -10.8 0.65 L-10.75 0.6 -10.95 0.4 -11.95 -0.05 -12.0 -0.15 -12.25 -0.5 -12.05 -5.0 Q-12.05 -9.95 -7.6 -12.15 -1.9 -14.95 4.4 -13.65 12.4 -12.05 14.95 -4.95 15.55 -3.35 15.1 -1.75 L15.05 -1.45 M10.5 -4.45 Q10.8 -4.05 11.4 -4.05 L11.8 -4.2 Q13.3 -5.15 11.8 -6.1 10.25 -6.0 10.5 -4.45 M-6.95 -1.6 L-7.45 -1.8 -8.2 -1.35 Q-8.8 -0.75 -8.45 -0.05 -8.15 0.6 -7.45 0.4 -5.9 -0.05 -6.75 -1.5 L-6.95 -1.6 M-7.6 -7.1 L-7.55 -6.55 -7.4 -6.15 -6.7 -5.75 Q-6.25 -5.7 -6.0 -6.05 -4.8 -7.45 -6.6 -8.1 L-6.85 -7.9 -7.6 -7.1" fill="#999966" fill-rule="evenodd" stroke="none"/>
  </g>
</svg>
