<?xml version="1.0" encoding="UTF-8" standalone="no"?>
<svg xmlns:xlink="http://www.w3.org/1999/xlink" height="66.2px" width="50.45px" xmlns="http://www.w3.org/2000/svg">
  <g transform="matrix(1.0, 0.0, 0.0, 1.0, 29.5, 37.75)">
    <path d="M13.8 26.9 L12.65 28.45 Q8.7 26.6 4.75 25.0 3.8 23.45 2.5 22.15 -1.55 19.35 -6.55 18.7 -12.0 18.0 -15.95 14.85 L-16.2 15.05 -16.6 15.25 -17.5 14.8 Q-17.2 12.8 -17.8 11.25 L-18.2 2.4 Q-20.2 2.35 -21.95 1.2 L-22.1 1.25 Q-26.45 1.1 -28.6 -2.25 L-28.6 -2.6 -28.5 -3.35 -29.2 -4.8 -29.5 -5.25 Q-29.3 -17.2 -27.35 -28.85 -26.5 -33.7 -24.0 -37.75 L-23.6 -37.75 -23.35 -37.75 -22.9 -37.35 -22.5 -37.0 -22.4 -36.25 -22.35 -35.5 -22.1 -35.1 -21.85 -34.75 Q-20.8 -27.6 -17.9 -20.85 -15.6 -22.6 -12.55 -23.2 L-12.5 -23.25 -10.15 -23.95 Q-7.45 -25.1 -4.65 -25.9 L-4.6 -26.0 Q3.15 -26.45 9.9 -23.6 11.95 -29.5 13.25 -35.6 L13.9 -36.05 14.15 -36.1 14.6 -35.7 14.9 -35.35 Q17.1 -25.2 17.6 -14.75 L17.65 -14.0 17.3 -13.7 Q19.05 -9.7 19.55 -5.15 21.7 3.45 20.6 12.6 L18.6 19.05 Q16.55 22.9 14.1 26.5 L14.0 26.5 12.75 26.1 13.0 25.8 13.5 25.5 14.45 23.9 Q10.75 23.75 6.95 23.85 9.15 25.6 12.35 26.25 13.1 26.4 13.65 26.9 L13.8 26.9 M-23.75 -34.75 Q-27.45 -23.4 -28.3 -11.25 -28.7 -5.5 -24.8 -1.95 -24.1 -1.35 -23.1 -1.1 L-22.25 -0.75 Q-21.1 -0.85 -19.4 0.05 -17.95 0.85 -16.15 0.6 L-15.9 0.6 Q-12.95 -6.3 -14.6 -14.0 L-14.75 -14.6 Q-14.4 -6.2 -20.1 -0.5 -15.7 -7.1 -15.15 -15.2 -16.1 -14.95 -17.5 -15.6 L-17.7 -16.35 -17.75 -16.75 Q-21.9 -25.1 -23.6 -34.35 L-23.75 -34.75 M-14.6 -20.85 L-15.85 -20.6 -16.5 -19.85 -16.6 -18.35 -16.25 -17.25 -16.45 -17.1 -14.35 -16.6 -14.1 -16.2 -14.1 -16.15 Q-10.5 -15.05 -8.7 -11.6 L-8.5 -11.25 -8.55 -10.1 -8.35 -10.1 -8.0 -9.75 Q-7.35 -3.6 -11.0 -0.4 L-7.1 -0.65 -7.1 -0.75 -1.35 0.25 -1.35 -0.85 -1.0 -1.25 0.0 -5.7 Q0.1 -6.35 0.65 -6.85 3.85 -16.85 15.65 -17.0 14.65 -18.15 16.65 -17.3 L13.0 -20.75 Q8.75 -23.5 3.4 -23.7 L1.9 -23.75 Q-4.5 -23.85 -10.5 -22.3 -12.05 -21.25 -14.6 -20.85 M-14.1 -0.6 L-14.8 0.35 Q-11.3 -0.7 -10.15 -4.55 -9.5 -6.7 -9.2 -8.9 -9.55 -9.3 -9.7 -10.05 L-10.35 -12.0 -13.9 -14.5 Q-12.1 -7.9 -14.0 -1.0 L-14.1 -0.6 M14.0 -33.25 L10.9 -23.75 10.75 -23.35 10.0 -23.55 Q12.65 -22.45 15.2 -20.8 L15.4 -20.65 15.4 -20.7 15.65 -20.75 15.85 -20.55 Q15.6 -26.65 14.2 -32.85 L14.0 -33.25 M14.95 -14.35 L14.55 -14.4 14.45 -14.75 14.3 -14.85 Q14.15 -14.65 14.0 -14.85 L13.95 -15.0 13.4 -15.1 Q5.6 -15.25 2.6 -8.35 L2.5 -8.0 2.25 -7.6 2.0 -7.25 2.0 -6.85 2.0 -6.5 Q-0.5 1.4 0.15 10.2 L0.25 10.15 0.15 10.3 0.3 12.25 Q0.55 14.5 1.25 16.7 4.95 14.9 9.9 14.5 L10.9 14.4 Q14.5 14.55 17.65 16.0 18.55 12.75 18.9 9.35 L19.0 9.15 19.0 9.1 19.05 2.05 18.75 -2.85 18.75 -2.9 18.65 -3.55 Q18.1 -6.55 17.0 -9.05 L15.6 -14.15 14.95 -14.35 M4.9 -1.75 L5.15 -1.75 6.35 -0.6 6.65 -0.25 Q5.85 1.0 4.4 1.5 L3.15 0.9 3.05 0.5 3.0 -0.25 Q3.4 -1.2 4.35 -1.65 L4.5 -1.75 4.9 -1.75 M13.15 -1.5 Q13.5 -2.75 14.85 -2.9 L14.9 -3.0 15.5 -2.75 16.2 -0.85 16.25 -0.5 Q15.4 0.9 13.75 0.0 13.45 -0.5 13.3 -1.1 L13.15 -1.5 M13.5 10.15 Q14.25 9.3 15.4 9.25 L15.65 9.25 16.0 9.65 Q16.35 10.55 16.25 11.5 L16.15 11.9 Q14.8 13.0 13.5 11.25 L13.5 10.5 13.5 10.15 M3.15 10.4 Q3.9 9.7 4.85 9.6 L4.9 9.5 5.35 9.55 6.0 9.75 Q6.65 11.15 5.8 12.45 L5.5 13.0 5.35 13.1 4.9 13.25 Q3.85 12.85 3.15 11.9 L3.05 11.15 3.15 10.4 M0.05 17.75 L-0.2 17.7 -0.4 17.75 -1.1 18.0 -0.5 17.65 Q-8.25 16.15 -15.75 13.9 L-15.75 14.15 -15.75 14.5 -15.75 14.55 -15.6 14.5 -15.35 14.5 Q-7.4 17.7 0.9 20.05 L0.65 19.45 0.15 18.65 0.15 18.25 0.15 17.9 0.05 17.75 M1.75 18.25 L2.75 19.8 3.35 20.75 Q4.6 19.75 6.25 19.6 L6.5 19.55 6.9 19.4 16.15 19.5 16.4 19.75 17.45 16.75 Q9.4 14.45 1.35 17.1 L1.75 18.25 M5.0 21.75 L6.6 23.5 7.9 23.0 14.8 23.2 16.1 20.45 16.0 20.4 Q10.05 19.65 4.4 21.2 L4.05 21.3 5.0 21.75 M-5.0 3.65 Q-5.9 3.1 -6.75 3.5 L-7.1 3.9 -7.25 5.0 -7.25 5.4 -6.5 6.15 Q-4.9 6.95 -4.1 5.5 -4.25 4.4 -5.0 3.65 M-1.4 0.5 L-13.35 1.15 -15.7 2.05 -16.2 2.2 -16.35 2.4 -16.85 2.5 -16.75 2.3 -17.15 2.35 -16.4 6.85 -16.35 6.8 -16.1 6.65 Q-8.8 8.8 -1.35 10.1 -1.75 5.6 -1.45 1.0 L-1.4 0.5 M-3.1 6.15 Q-5.5 8.65 -8.0 5.9 L-8.0 4.75 -8.0 4.0 -6.85 2.65 -6.6 2.5 Q-3.05 2.45 -3.1 5.75 L-3.1 6.15 M-0.35 17.15 L-1.25 11.25 Q-8.9 9.95 -16.3 7.8 -16.0 10.15 -15.85 12.6 -7.9 14.35 -0.35 17.15" fill="#000000" fill-rule="evenodd" stroke="none"/>
    <path d="M14.1 26.5 L13.8 26.9 13.65 26.9 Q13.1 26.4 12.35 26.25 9.15 25.6 6.95 23.85 10.75 23.75 14.45 23.9 L13.5 25.5 13.0 25.8 12.75 26.1 14.0 26.5 14.1 26.5 M-23.75 -34.75 L-23.6 -34.35 Q-21.9 -25.1 -17.75 -16.75 L-17.7 -16.35 -17.5 -15.6 Q-16.1 -14.95 -15.15 -15.2 -15.7 -7.1 -20.1 -0.5 -14.4 -6.2 -14.75 -14.6 L-14.6 -14.0 Q-12.95 -6.3 -15.9 0.6 L-16.15 0.6 Q-17.95 0.85 -19.4 0.05 -21.1 -0.85 -22.25 -0.75 L-23.1 -1.1 Q-24.1 -1.35 -24.8 -1.95 -28.7 -5.5 -28.3 -11.25 -27.45 -23.4 -23.75 -34.75 M14.0 -33.25 L14.2 -32.85 Q15.6 -26.65 15.85 -20.55 L15.65 -20.75 15.4 -20.7 15.4 -20.65 15.2 -20.8 Q12.65 -22.45 10.0 -23.55 L10.75 -23.35 10.9 -23.75 14.0 -33.25 M-14.1 -0.6 L-14.0 -1.0 Q-12.1 -7.9 -13.9 -14.5 L-10.35 -12.0 -9.7 -10.05 Q-9.55 -9.3 -9.2 -8.9 -9.5 -6.7 -10.15 -4.55 -11.3 -0.7 -14.8 0.35 L-14.1 -0.6 M14.95 -14.35 L15.6 -14.15 17.0 -9.05 Q18.1 -6.55 18.65 -3.55 L18.75 -2.9 18.75 -2.85 19.05 2.05 19.0 9.1 19.0 9.15 18.9 9.35 Q18.55 12.75 17.65 16.0 14.5 14.55 10.9 14.4 L9.9 14.5 Q4.95 14.9 1.25 16.7 0.55 14.5 0.3 12.25 L0.15 10.3 0.25 10.15 0.15 10.2 Q-0.5 1.4 2.0 -6.5 L2.0 -6.85 2.0 -7.25 2.25 -7.6 2.5 -8.0 2.6 -8.35 Q5.6 -15.25 13.4 -15.1 L13.95 -15.0 14.0 -14.85 Q14.15 -14.65 14.3 -14.85 L14.45 -14.75 14.55 -14.4 14.95 -14.35 M3.15 10.4 L3.05 11.15 3.15 11.9 Q3.85 12.85 4.9 13.25 L5.35 13.1 5.5 13.0 5.8 12.45 Q6.65 11.15 6.0 9.75 L5.35 9.55 4.9 9.5 4.85 9.6 Q3.9 9.7 3.15 10.4 M13.5 10.15 L13.5 10.5 13.5 11.25 Q14.8 13.0 16.15 11.9 L16.25 11.5 Q16.35 10.55 16.0 9.65 L15.65 9.25 15.4 9.25 Q14.25 9.3 13.5 10.15 M13.15 -1.5 L13.3 -1.1 Q13.45 -0.5 13.75 0.0 15.4 0.9 16.25 -0.5 L16.2 -0.85 15.5 -2.75 14.9 -3.0 14.85 -2.9 Q13.5 -2.75 13.15 -1.5 M4.9 -1.75 L4.5 -1.75 4.35 -1.65 Q3.4 -1.2 3.0 -0.25 L3.05 0.5 3.15 0.9 4.4 1.5 Q5.85 1.0 6.65 -0.25 L6.35 -0.6 5.15 -1.75 4.9 -1.75 M5.0 21.75 L4.05 21.3 4.4 21.2 Q10.05 19.65 16.0 20.4 L16.1 20.45 14.8 23.2 7.9 23.0 6.6 23.5 5.0 21.75 M1.75 18.25 L1.35 17.1 Q9.4 14.45 17.45 16.75 L16.4 19.75 16.15 19.5 6.9 19.4 6.5 19.55 6.25 19.6 Q4.6 19.75 3.35 20.75 L2.75 19.8 1.75 18.25 M-3.1 6.15 L-3.1 5.75 Q-3.05 2.45 -6.6 2.5 L-6.85 2.65 -8.0 4.0 -8.0 4.75 -8.0 5.9 Q-5.5 8.65 -3.1 6.15 M-1.4 0.5 L-1.45 1.0 Q-1.75 5.6 -1.35 10.1 -8.8 8.8 -16.1 6.65 L-16.35 6.8 -16.4 6.85 -17.15 2.35 -16.75 2.3 -16.85 2.5 -16.35 2.4 -16.2 2.2 -15.7 2.05 -13.35 1.15 -1.4 0.5" fill="#999966" fill-rule="evenodd" stroke="none"/>
    <path d="M-14.6 -20.85 Q-12.05 -21.25 -10.5 -22.3 -4.5 -23.85 1.9 -23.75 L3.4 -23.7 Q8.75 -23.5 13.0 -20.75 L16.65 -17.3 Q14.65 -18.15 15.65 -17.0 3.85 -16.85 0.65 -6.85 0.1 -6.35 0.0 -5.7 L-1.0 -1.25 -1.35 -0.85 -1.35 0.25 -7.1 -0.75 -7.1 -0.65 -11.0 -0.4 Q-7.35 -3.6 -8.0 -9.75 L-8.35 -10.1 -8.55 -10.1 -8.5 -11.25 -8.7 -11.6 Q-10.5 -15.05 -14.1 -16.15 L-14.1 -16.2 -14.35 -16.6 -16.45 -17.1 -16.25 -17.25 -16.6 -18.35 -16.5 -19.85 -15.85 -20.6 -14.6 -20.85 M0.05 17.75 L0.15 17.9 0.15 18.25 0.15 18.65 0.65 19.45 0.9 20.05 Q-7.4 17.7 -15.35 14.5 L-15.6 14.5 -15.75 14.55 -15.75 14.5 -15.75 14.15 -15.75 13.9 Q-8.25 16.15 -0.5 17.65 L-1.1 18.0 -0.4 17.75 -0.2 17.7 0.05 17.75 M-5.0 3.65 Q-4.25 4.4 -4.1 5.5 -4.9 6.95 -6.5 6.15 L-7.25 5.4 -7.25 5.0 -7.1 3.9 -6.75 3.5 Q-5.9 3.1 -5.0 3.65 M-0.35 17.15 Q-7.9 14.35 -15.85 12.6 -16.0 10.15 -16.3 7.8 -8.9 9.95 -1.25 11.25 L-0.35 17.15" fill="#996633" fill-rule="evenodd" stroke="none"/>
  </g>
</svg>
