<?xml version="1.0" encoding="UTF-8" standalone="no"?>
<svg xmlns:xlink="http://www.w3.org/1999/xlink" height="67.2px" width="62.45px" xmlns="http://www.w3.org/2000/svg">
  <g transform="matrix(1.0, 0.0, 0.0, 1.0, 33.4, 61.0)">
    <path d="M26.35 -53.6 L26.95 -49.9 Q27.85 -43.3 27.6 -36.5 27.35 -30.1 26.65 -23.8 25.45 -23.3 24.4 -22.5 24.25 -25.3 23.7 -28.05 23.0 -29.65 21.9 -31.05 L21.9 -31.15 Q22.15 -34.0 21.9 -36.7 L21.95 -36.75 22.1 -36.8 22.2 -36.9 22.25 -37.05 22.3 -37.25 Q21.1 -39.2 19.1 -40.5 L21.3 -40.5 Q21.85 -40.55 22.2 -40.9 23.8 -42.25 24.1 -44.65 L25.55 -57.3 26.35 -53.6 M14.15 2.35 L10.25 4.45 7.3 4.55 Q5.35 3.6 3.6 2.15 L3.3 1.95 3.35 1.9 5.0 1.45 7.1 1.25 Q10.4 1.2 13.6 2.2 L14.15 2.35 M12.35 -4.6 L12.4 -4.6 12.35 -4.65 12.35 -4.6 M11.3 -10.75 L11.4 -9.75 Q11.7 -9.35 12.2 -9.25 12.9 -9.15 13.45 -9.55 15.35 -11.25 12.95 -12.4 12.0 -12.25 11.35 -11.45 L11.3 -10.75 M1.4 -0.45 Q2.0 -0.9 2.8 -1.05 L4.45 -1.35 10.5 -1.65 13.5 -1.35 17.9 -0.45 16.95 0.85 15.1 1.85 Q13.8 1.3 12.4 1.05 L5.0 0.35 2.6 1.0 2.4 1.1 1.05 -0.25 1.4 -0.45 M5.05 -2.25 Q2.35 -2.55 0.45 -0.95 L0.15 -1.3 -1.15 -3.2 -0.8 -3.45 Q1.25 -4.8 3.75 -5.25 11.05 -6.5 18.35 -5.25 L20.0 -4.95 20.25 -5.1 20.3 -5.1 Q19.5 -3.0 18.3 -1.05 L15.35 -1.9 8.0 -2.7 5.9 -2.3 5.05 -2.25 M2.4 -10.0 Q3.5 -12.3 0.7 -12.25 -0.5 -11.95 -0.35 -10.6 -0.2 -8.9 1.35 -9.2 2.05 -9.35 2.4 -10.0 M1.9 -23.5 Q0.7 -23.35 0.0 -22.3 L0.0 -21.25 Q0.1 -20.7 0.6 -20.4 3.05 -19.0 3.6 -21.55 L3.5 -21.7 3.4 -21.9 3.35 -22.05 3.35 -22.2 Q3.3 -23.6 1.9 -23.5 M11.95 -22.2 Q11.95 -20.25 14.2 -20.8 L14.3 -20.95 Q15.5 -23.15 13.1 -23.9 12.45 -23.9 12.2 -23.25 L11.95 -22.2 M20.75 -30.25 Q21.5 -29.35 21.85 -28.25 L22.3 -27.4 22.85 -23.55 22.2 -24.1 Q21.05 -24.0 20.85 -22.85 20.45 -20.9 22.35 -21.1 22.55 -21.1 22.65 -21.25 L22.95 -21.7 22.95 -18.3 Q22.8 -15.2 22.2 -12.2 L21.75 -12.35 21.75 -12.3 Q20.95 -12.25 20.6 -11.5 L20.6 -11.0 Q20.6 -10.45 20.75 -10.0 21.2 -9.5 21.6 -9.4 L20.6 -5.95 20.55 -5.7 18.4 -5.85 14.9 -6.5 7.75 -6.7 5.65 -6.55 Q1.85 -6.1 -1.4 -4.3 L-1.65 -4.1 -2.2 -5.15 Q-4.6 -10.2 -4.5 -15.75 -4.45 -18.25 -3.85 -20.6 -2.75 -24.75 -0.4 -28.5 3.5 -34.65 10.7 -34.9 L13.05 -34.8 14.95 -34.55 Q18.15 -33.9 20.05 -31.3 L20.05 -31.15 20.1 -31.0 20.15 -30.8 20.75 -30.25 M-18.95 -25.7 Q-17.8 -31.95 -17.5 -38.2 L-16.75 -34.5 Q-15.7 -28.2 -15.2 -21.85 L-15.1 -21.75 -15.55 -21.75 -20.35 -21.75 Q-19.3 -23.6 -18.95 -25.7 M-16.2 -37.9 Q-16.4 -39.25 -17.0 -40.35 -15.05 -40.3 -13.9 -39.15 L-13.3 -38.4 -13.3 -38.25 -13.3 -37.9 -13.2 -37.75 -12.4 -36.05 -12.3 -34.5 Q-11.5 -28.25 -12.75 -22.15 L-13.9 -22.4 -14.15 -22.4 -15.3 -31.3 -16.2 -37.9 M-26.8 -58.8 Q-26.35 -58.15 -26.1 -56.9 L-24.65 -49.8 Q-23.8 -46.5 -23.5 -43.15 -23.35 -41.65 -22.1 -41.15 -20.85 -40.65 -19.4 -40.5 L-18.45 -40.4 -18.75 -33.7 Q-19.25 -27.55 -21.25 -21.85 L-25.9 -22.6 Q-29.25 -23.4 -31.3 -25.8 -31.8 -29.3 -31.7 -32.9 -31.55 -39.55 -30.4 -46.1 -29.3 -52.7 -26.8 -58.8 M-5.45 -20.65 Q-6.35 -15.25 -5.15 -10.1 L-13.3 -12.5 -13.0 -19.7 -6.7 -20.4 Q-6.05 -20.5 -5.45 -20.75 L-5.45 -20.65 M-9.75 -17.85 L-9.95 -17.8 Q-10.55 -17.45 -11.2 -17.2 -12.3 -16.05 -11.6 -14.75 -10.7 -13.0 -8.95 -13.35 -8.15 -13.5 -7.85 -14.25 -6.85 -17.05 -9.75 -17.85" fill="#999966" fill-rule="evenodd" stroke="none"/>
    <path d="M26.35 -53.6 L25.55 -57.3 24.1 -44.65 Q23.8 -42.25 22.2 -40.9 21.85 -40.55 21.3 -40.5 L19.1 -40.5 Q21.1 -39.2 22.3 -37.25 L22.25 -37.05 22.2 -36.9 22.1 -36.8 21.95 -36.75 21.9 -36.7 Q22.15 -34.0 21.9 -31.15 L21.9 -31.05 Q23.0 -29.65 23.7 -28.05 24.25 -25.3 24.4 -22.5 25.45 -23.3 26.65 -23.8 27.35 -30.1 27.6 -36.5 27.85 -43.3 26.95 -49.9 L26.35 -53.6 M25.35 -60.15 L25.75 -60.25 26.25 -59.95 26.35 -59.8 Q28.15 -53.55 28.7 -47.1 29.25 -40.5 28.9 -33.75 L28.45 -28.15 Q28.1 -25.45 28.05 -22.75 26.45 -21.9 24.65 -21.15 L24.45 -21.15 Q24.55 -15.2 23.35 -9.4 22.0 -3.05 17.75 1.8 L16.15 3.05 Q13.15 4.7 10.05 5.95 L8.0 6.1 Q6.05 5.7 4.45 4.5 L3.45 3.75 -0.55 2.7 Q-5.6 0.55 -10.9 -1.05 -12.65 -1.55 -14.15 -2.6 L-14.2 -3.1 -14.15 -3.45 Q-14.9 -9.55 -14.65 -15.85 L-14.65 -16.5 -14.2 -19.8 -14.3 -19.95 -14.3 -20.1 Q-23.95 -19.1 -32.0 -24.3 L-32.5 -25.0 Q-33.25 -28.2 -33.35 -31.6 -33.55 -36.8 -32.55 -41.8 L-31.95 -44.95 -30.3 -53.95 Q-29.7 -56.85 -28.15 -59.35 -27.4 -60.6 -26.1 -61.0 -25.7 -61.0 -25.4 -60.7 L-25.25 -60.55 Q-24.25 -54.15 -22.75 -47.85 L-21.65 -42.5 Q-17.6 -41.8 -13.9 -40.55 L-12.9 -40.2 Q-12.35 -41.1 -10.85 -41.25 -8.7 -41.45 -6.75 -42.3 L-5.6 -42.75 Q0.0 -44.3 5.9 -44.05 L6.4 -44.1 Q12.7 -44.1 18.05 -41.1 19.0 -41.7 20.4 -41.8 L21.95 -42.05 Q23.5 -48.25 23.9 -54.7 L24.15 -58.6 25.35 -60.15 M20.9 -32.2 L21.0 -37.0 21.05 -37.3 Q17.6 -40.5 12.9 -41.65 L6.25 -42.5 Q-0.35 -42.55 -6.6 -40.7 L-7.25 -40.45 Q-9.5 -39.55 -11.85 -38.9 L-11.9 -38.85 Q-9.95 -34.0 -10.4 -28.5 -10.7 -24.55 -11.95 -20.85 L-5.6 -22.15 -5.6 -22.2 -5.1 -22.25 Q-4.55 -24.45 -3.45 -26.5 -1.9 -29.4 0.35 -31.8 3.8 -35.6 8.8 -36.4 14.85 -36.95 19.5 -33.5 L20.6 -32.55 20.9 -32.2 M20.75 -30.25 L20.15 -30.8 20.1 -31.0 20.05 -31.15 20.05 -31.3 Q18.15 -33.9 14.95 -34.55 L13.05 -34.8 10.7 -34.9 Q3.5 -34.65 -0.4 -28.5 -2.75 -24.75 -3.85 -20.6 -4.45 -18.25 -4.5 -15.75 -4.6 -10.2 -2.2 -5.15 L-1.65 -4.1 -1.4 -4.3 Q1.85 -6.1 5.65 -6.55 L7.75 -6.7 14.9 -6.5 18.4 -5.85 20.55 -5.7 20.6 -5.95 21.6 -9.4 Q21.2 -9.5 20.75 -10.0 20.6 -10.45 20.6 -11.0 L20.6 -11.5 Q20.95 -12.25 21.75 -12.3 L21.75 -12.35 22.2 -12.2 Q22.8 -15.2 22.95 -18.3 L22.95 -21.7 22.65 -21.25 Q22.55 -21.1 22.35 -21.1 20.45 -20.9 20.85 -22.85 21.05 -24.0 22.2 -24.1 L22.85 -23.55 22.3 -27.4 21.85 -28.25 Q21.5 -29.35 20.75 -30.25 M11.95 -22.2 L12.2 -23.25 Q12.45 -23.9 13.1 -23.9 15.5 -23.15 14.3 -20.95 L14.2 -20.8 Q11.95 -20.25 11.95 -22.2 M1.9 -23.5 Q3.3 -23.6 3.35 -22.2 L3.35 -22.05 3.4 -21.9 3.5 -21.7 3.6 -21.55 Q3.05 -19.0 0.6 -20.4 0.1 -20.7 0.0 -21.25 L0.0 -22.3 Q0.7 -23.35 1.9 -23.5 M2.4 -10.0 Q2.05 -9.35 1.35 -9.2 -0.2 -8.9 -0.35 -10.6 -0.5 -11.95 0.7 -12.25 3.5 -12.3 2.4 -10.0 M5.05 -2.25 L5.9 -2.3 8.0 -2.7 15.35 -1.9 18.3 -1.05 Q19.5 -3.0 20.3 -5.1 L20.25 -5.1 20.0 -4.95 18.35 -5.25 Q11.05 -6.5 3.75 -5.25 1.25 -4.8 -0.8 -3.45 L-1.15 -3.2 0.15 -1.3 0.45 -0.95 Q2.35 -2.55 5.05 -2.25 M1.4 -0.45 L1.05 -0.25 2.4 1.1 2.6 1.0 5.0 0.35 12.4 1.05 Q13.8 1.3 15.1 1.85 L16.95 0.85 17.9 -0.45 13.5 -1.35 10.5 -1.65 4.45 -1.35 2.8 -1.05 Q2.0 -0.9 1.4 -0.45 M11.3 -10.75 L11.35 -11.45 Q12.0 -12.25 12.95 -12.4 15.35 -11.25 13.45 -9.55 12.9 -9.15 12.2 -9.25 11.7 -9.35 11.4 -9.75 L11.3 -10.75 M12.35 -4.6 L12.35 -4.65 12.4 -4.6 12.35 -4.6 M14.15 2.35 L13.6 2.2 Q10.4 1.2 7.1 1.25 L5.0 1.45 3.35 1.9 3.3 1.95 3.6 2.15 Q5.35 3.6 7.3 4.55 L10.25 4.45 14.15 2.35 M0.4 1.1 L0.5 1.15 0.45 1.1 -0.3 0.3 -1.7 -1.4 -1.75 -1.4 Q-6.95 -2.6 -12.05 -4.4 L-13.0 -4.7 -12.8 -3.6 Q-7.1 -1.2 -1.15 0.65 L0.4 1.1 M-26.8 -58.8 Q-29.3 -52.7 -30.4 -46.1 -31.55 -39.55 -31.7 -32.9 -31.8 -29.3 -31.3 -25.8 -29.25 -23.4 -25.9 -22.6 L-21.25 -21.85 Q-19.25 -27.55 -18.75 -33.7 L-18.45 -40.4 -19.4 -40.5 Q-20.85 -40.65 -22.1 -41.15 -23.35 -41.65 -23.5 -43.15 -23.8 -46.5 -24.65 -49.8 L-26.1 -56.9 Q-26.35 -58.15 -26.8 -58.8 M-16.2 -37.9 L-15.3 -31.3 -14.15 -22.4 -13.9 -22.4 -12.75 -22.15 Q-11.5 -28.25 -12.3 -34.5 L-12.4 -36.05 -13.2 -37.75 -13.3 -37.9 -13.3 -38.25 -13.3 -38.4 -13.9 -39.15 Q-15.05 -40.3 -17.0 -40.35 -16.4 -39.25 -16.2 -37.9 M-18.95 -25.7 Q-19.3 -23.6 -20.35 -21.75 L-15.55 -21.75 -15.1 -21.75 -15.2 -21.85 Q-15.7 -28.2 -16.75 -34.5 L-17.5 -38.2 Q-17.8 -31.95 -18.95 -25.7 M-5.45 -20.65 L-5.4 -20.75 -5.45 -20.75 Q-6.05 -20.5 -6.7 -20.4 L-13.0 -19.7 -13.3 -12.5 -5.15 -10.1 Q-6.35 -15.25 -5.45 -20.65 M-9.75 -17.85 Q-6.85 -17.05 -7.85 -14.25 -8.15 -13.5 -8.95 -13.35 -10.7 -13.0 -11.6 -14.75 -12.3 -16.05 -11.2 -17.2 -10.55 -17.45 -9.95 -17.8 L-9.75 -17.85 M-9.75 -16.6 L-10.25 -16.45 -10.5 -16.45 -10.7 -16.2 -10.9 -15.95 -10.9 -15.85 -10.9 -15.7 -10.9 -15.45 -10.0 -14.5 -9.75 -14.25 -9.25 -14.35 -8.85 -14.55 Q-8.65 -15.1 -8.75 -15.65 L-8.9 -16.3 Q-9.1 -16.55 -9.45 -16.65 L-9.75 -16.6 M-13.2 -6.25 Q-8.3 -5.0 -3.6 -2.95 L-2.45 -2.55 -3.95 -5.85 -4.9 -9.0 -4.95 -9.15 Q-9.05 -10.05 -13.2 -11.25 L-13.3 -11.3 -13.3 -7.85 -13.2 -6.25" fill="#000000" fill-rule="evenodd" stroke="none"/>
    <path d="M20.9 -32.2 L20.6 -32.55 19.5 -33.5 Q14.85 -36.95 8.8 -36.4 3.8 -35.6 0.35 -31.8 -1.9 -29.4 -3.45 -26.5 -4.55 -24.45 -5.1 -22.25 L-5.6 -22.2 -5.6 -22.15 -11.95 -20.85 Q-10.7 -24.55 -10.4 -28.5 -9.95 -34.0 -11.9 -38.85 L-11.85 -38.9 Q-9.5 -39.55 -7.25 -40.45 L-6.6 -40.7 Q-0.35 -42.55 6.25 -42.5 L12.9 -41.65 Q17.6 -40.5 21.05 -37.3 L21.0 -37.0 20.9 -32.2 M0.45 1.1 L0.4 1.1 -1.15 0.65 Q-7.1 -1.2 -12.8 -3.6 L-13.0 -4.7 -12.05 -4.4 Q-6.95 -2.6 -1.75 -1.4 L-1.7 -1.4 -0.3 0.3 0.45 1.1 M-5.45 -20.75 L-5.4 -20.75 -5.45 -20.65 -5.45 -20.75 M-13.2 -6.25 L-13.3 -7.85 -13.3 -11.3 -13.2 -11.25 Q-9.05 -10.05 -4.95 -9.15 L-4.9 -9.0 -3.95 -5.85 -2.45 -2.55 -3.6 -2.95 Q-8.3 -5.0 -13.2 -6.25 M-9.75 -16.6 L-9.45 -16.65 Q-9.1 -16.55 -8.9 -16.3 L-8.75 -15.65 Q-8.65 -15.1 -8.85 -14.55 L-9.25 -14.35 -9.75 -14.25 -10.0 -14.5 -10.9 -15.45 -10.9 -15.7 -10.9 -15.85 -10.9 -15.95 -10.7 -16.2 -10.5 -16.45 -10.25 -16.45 -9.75 -16.6" fill="#996633" fill-rule="evenodd" stroke="none"/>
  </g>
</svg>
