<?xml version="1.0" encoding="UTF-8" standalone="no"?>
<svg xmlns:xlink="http://www.w3.org/1999/xlink" height="69.2px" width="78.2px" xmlns="http://www.w3.org/2000/svg">
  <g transform="matrix(1.0, 0.0, 0.0, 1.0, 38.9, 41.95)">
    <path d="M32.0 -36.35 L30.55 -29.25 Q29.7 -25.95 29.4 -22.6 29.25 -21.1 28.0 -20.6 26.75 -20.1 25.3 -19.95 L24.35 -19.85 24.65 -13.15 Q25.15 -7.0 27.2 -1.3 L31.8 -2.05 Q35.15 -2.85 37.2 -5.25 37.7 -8.75 37.6 -12.35 37.45 -19.0 36.3 -25.55 35.2 -32.15 32.7 -38.25 32.25 -37.6 32.0 -36.35 M31.15 -40.0 L31.3 -40.15 Q31.6 -40.45 32.0 -40.45 33.3 -40.05 34.05 -38.8 35.6 -36.3 36.2 -33.4 L37.85 -24.4 38.45 -21.25 Q39.45 -16.25 39.25 -11.05 39.15 -7.65 38.4 -4.45 L37.9 -3.75 Q31.7 0.25 24.6 0.6 L24.6 0.5 20.75 0.5 20.2 0.45 20.2 0.5 19.8 0.5 19.8 0.0 18.25 -0.05 18.25 0.95 18.2 2.15 18.2 3.35 18.2 4.0 18.2 5.8 18.15 8.2 18.2 8.9 18.2 9.5 18.25 11.9 18.3 14.3 18.35 16.7 18.25 20.35 17.55 20.7 17.1 20.45 15.1 21.1 13.0 21.65 10.9 22.2 8.8 22.7 7.35 23.05 6.2 24.05 6.25 24.1 6.15 24.1 Q3.55 26.0 0.35 27.25 L0.2 27.15 0.05 27.25 Q-4.65 25.45 -8.0 22.05 L-8.6 21.85 -10.55 21.3 -12.55 20.65 -16.95 19.2 -17.1 18.7 -17.35 16.9 -17.45 15.6 -17.6 14.3 -17.7 13.5 -17.9 11.15 -18.1 8.75 -18.25 6.35 -18.35 3.95 -18.45 1.55 -18.4 -0.85 -18.35 -1.55 -19.4 -1.5 -19.4 -1.0 -19.8 -1.0 -19.8 -1.05 -20.3 -1.0 -24.2 -1.0 -24.2 -0.9 Q-31.3 -1.25 -37.5 -5.25 L-38.0 -5.95 Q-38.75 -9.15 -38.85 -12.55 -39.05 -17.75 -38.05 -22.75 L-37.45 -25.9 -35.8 -34.9 Q-35.2 -37.8 -33.65 -40.3 -32.9 -41.55 -31.6 -41.95 -31.2 -41.95 -30.9 -41.65 L-30.75 -41.5 Q-29.75 -35.1 -28.25 -28.8 L-27.15 -23.45 -20.35 -21.8 -18.85 -21.85 -18.85 -21.9 -17.2 -21.85 -17.2 -20.9 -17.15 -20.95 -15.35 -21.7 -13.65 -22.05 -12.05 -22.45 -10.35 -22.85 -8.7 -23.25 -6.9 -23.6 -5.15 -23.9 -3.35 -24.1 -0.95 -24.25 0.3 -24.3 0.9 -24.35 1.55 -24.3 2.15 -24.3 4.55 -24.2 6.95 -23.9 8.1 -23.7 8.7 -23.55 10.45 -23.2 12.7 -22.5 13.85 -22.05 17.3 -20.45 17.95 -20.5 17.95 -20.35 19.25 -20.4 19.25 -20.35 20.75 -20.3 27.55 -21.95 28.65 -27.3 Q30.15 -33.6 31.15 -40.0 M16.3 -19.0 L15.6 -19.3 14.9 -19.6 14.2 -19.9 13.5 -20.1 12.8 -20.4 12.1 -20.6 11.35 -20.85 10.65 -21.0 9.9 -21.15 9.2 -21.35 8.4 -21.55 7.7 -21.65 6.9 -21.8 6.15 -21.9 5.35 -22.05 4.35 -22.1 3.25 -22.2 2.25 -22.2 1.15 -22.25 0.15 -22.2 -0.95 -22.2 -3.05 -22.1 -5.1 -21.85 -6.1 -21.65 -8.2 -21.3 -10.25 -20.85 -11.35 -20.65 -12.05 -20.45 -14.25 -19.95 -14.55 -19.75 -15.0 -19.35 Q-15.85 -18.95 -16.85 -19.05 L-16.9 -17.85 -16.9 -14.5 -16.85 -13.4 -16.85 -12.3 -16.85 -11.2 -16.85 -10.1 -16.75 -8.9 -16.75 -7.8 -16.75 -6.65 -16.75 -5.55 -16.7 -4.35 -16.7 -3.25 -16.7 -2.15 -16.65 -1.05 -16.65 -0.85 -16.35 -0.8 -15.25 -0.6 -14.85 -3.6 Q-14.55 -5.3 -13.9 -6.8 L-14.45 -6.4 -14.55 -6.6 -14.1 -7.4 Q-13.75 -7.9 -13.7 -8.5 L-13.7 -8.9 Q-12.05 -11.85 -9.15 -13.85 -5.95 -16.05 -2.45 -16.65 8.3 -17.65 13.55 -9.0 L13.8 -8.65 13.75 -8.25 13.75 -8.0 Q14.8 -6.0 15.25 -3.6 L15.6 -1.1 16.5 -1.05 16.55 -2.25 16.6 -3.45 16.65 -4.65 16.65 -5.85 16.65 -7.65 16.75 -9.55 16.75 -10.75 16.8 -12.55 16.9 -14.4 16.9 -15.6 16.85 -16.8 16.85 -17.65 16.95 -18.7 16.3 -19.0 M19.8 -18.75 L18.05 -18.65 18.2 -16.55 18.25 -14.45 18.35 -12.25 18.35 -10.15 18.4 -7.95 18.4 -5.85 18.35 -3.65 18.3 -1.35 19.8 -1.35 19.8 -1.85 20.05 -1.85 21.2 -10.75 22.1 -17.35 Q22.3 -18.7 22.9 -19.8 L22.35 -19.75 22.4 -19.55 20.05 -18.8 19.8 -18.6 19.8 -18.75 M0.55 -4.25 L1.3 -4.15 1.65 -3.75 Q2.05 -2.3 0.9 -1.15 L0.55 -0.75 0.05 -0.65 Q-0.8 -0.9 -1.35 -1.65 L-1.3 -2.75 -1.2 -3.5 Q-0.7 -3.95 0.05 -4.05 L0.55 -4.25 M8.2 -2.0 L8.3 -2.75 8.65 -3.15 9.5 -3.3 9.55 -3.4 10.0 -3.35 10.65 -3.15 11.15 -2.35 11.3 -2.0 Q10.65 -0.5 9.05 0.1 L8.4 -0.15 Q8.05 -1.05 8.2 -2.0 M11.5 -10.1 L11.3 -10.5 10.75 -10.85 10.05 -11.25 Q4.15 -17.45 -4.6 -14.4 L-4.95 -14.25 -5.7 -14.25 Q-8.1 -12.75 -10.05 -10.75 L-11.65 -9.05 Q-15.9 -0.1 -13.45 9.35 L-13.4 9.5 -13.4 9.55 Q-12.6 12.65 -11.05 15.8 L-10.95 16.1 -10.85 16.3 -10.25 16.3 -10.15 16.35 -10.0 16.3 Q-6.5 16.35 -3.5 15.6 3.75 14.85 10.55 17.25 L10.65 17.2 11.35 16.1 11.45 15.8 Q15.45 7.65 14.65 -0.15 L14.35 -0.4 14.45 -0.7 14.55 -0.8 Q13.95 -5.25 11.8 -9.6 L11.55 -9.75 11.5 -10.1 M16.35 2.55 L16.4 1.35 16.45 0.5 15.75 0.4 Q15.95 4.45 15.1 8.35 L16.35 8.45 16.35 8.3 16.35 7.2 16.3 6.0 16.3 4.9 16.35 3.7 16.35 2.55 M23.4 -17.65 L22.65 -13.95 Q21.6 -7.65 21.1 -1.3 L21.05 -1.25 21.15 -1.2 21.45 -1.2 26.25 -1.2 Q25.2 -3.05 24.85 -5.15 23.7 -11.4 23.4 -17.65 M10.65 10.25 L10.5 11.0 10.3 11.75 9.55 12.35 Q8.6 12.5 8.0 11.75 L7.65 11.35 7.65 10.6 7.65 10.25 8.5 9.7 8.55 9.6 Q9.45 9.5 10.25 9.95 L10.65 10.25 M16.45 11.8 L16.35 10.6 16.35 10.0 Q15.6 10.0 14.85 9.5 13.95 12.75 12.35 15.85 L12.35 16.25 12.35 16.5 Q14.3 15.8 16.5 15.65 L16.55 15.65 16.5 15.15 16.5 14.05 16.45 12.9 16.45 11.8 M1.8 11.0 Q1.35 12.15 0.05 12.35 L-0.45 12.3 -1.1 12.1 -1.3 11.35 -1.35 10.6 -0.95 10.25 -0.6 9.85 0.0 9.7 0.05 9.6 1.6 10.7 1.8 11.0 M4.25 23.75 L-4.25 23.4 0.2 26.3 4.15 23.8 4.25 23.75 M7.4 21.0 Q0.05 19.55 -7.6 20.35 L-7.2 20.75 -5.15 22.65 Q-4.65 22.35 -4.0 22.2 L-4.0 22.1 Q0.4 22.25 4.6 23.45 L7.15 21.2 7.4 21.0 M9.55 20.85 L9.6 20.8 10.4 20.7 12.0 20.45 13.6 20.15 14.15 20.0 14.15 20.05 14.4 19.95 15.15 19.65 Q15.95 19.5 16.75 19.65 L16.7 18.55 16.65 17.45 16.6 16.35 16.6 16.3 Q14.9 17.75 11.7 17.8 L9.55 20.85 M7.8 20.55 L10.45 17.5 10.4 17.45 Q1.75 15.85 -7.55 16.5 L-10.1 16.4 -10.0 16.5 -10.45 16.85 -8.1 19.8 3.0 19.0 Q5.6 19.3 7.8 20.55 M-32.3 -39.75 Q-34.8 -33.65 -35.9 -27.05 -37.05 -20.5 -37.2 -13.85 -37.3 -10.25 -36.8 -6.75 -34.75 -4.35 -31.4 -3.55 L-26.75 -2.8 Q-24.75 -8.5 -24.25 -14.65 L-23.95 -21.35 -24.9 -21.45 Q-26.35 -21.6 -27.6 -22.1 -28.85 -22.6 -29.0 -24.1 -29.3 -27.45 -30.15 -30.75 L-31.6 -37.85 Q-31.85 -39.1 -32.3 -39.75 M-21.7 -18.85 L-20.8 -12.25 -19.65 -3.35 -19.4 -3.35 -19.4 -2.85 -18.35 -2.85 -18.45 -4.45 -18.45 -5.7 -18.45 -6.5 -18.4 -7.3 -18.4 -8.1 -18.4 -9.8 -18.4 -11.5 -18.4 -12.4 -18.4 -13.2 -18.4 -14.85 -18.4 -16.55 -18.35 -18.25 -18.0 -20.15 -19.4 -20.25 -19.4 -20.1 -19.6 -20.3 Q-20.8 -20.55 -22.0 -21.05 L-21.95 -21.25 -22.5 -21.3 Q-21.9 -20.2 -21.7 -18.85 M-23.0 -19.15 Q-23.3 -12.9 -24.45 -6.65 -24.8 -4.55 -25.85 -2.7 L-21.05 -2.7 -20.7 -2.7 -20.65 -2.75 -20.7 -2.8 Q-21.2 -9.15 -22.25 -15.45 L-23.0 -19.15 M-12.35 -1.5 L-12.35 -1.9 Q-11.6 -3.0 -10.5 -3.3 L-10.45 -3.4 -9.85 -3.15 Q-9.3 -2.2 -9.1 -1.25 L-9.1 -0.9 Q-10.1 0.65 -12.1 -0.4 -12.5 -0.85 -12.35 -1.5 M-7.55 11.65 L-7.95 12.25 -10.1 12.1 Q-10.5 11.65 -10.4 11.0 L-10.35 10.25 Q-9.65 9.25 -8.45 9.2 L-8.45 9.1 -7.6 9.75 -7.2 10.1 Q-7.0 10.95 -7.55 11.65 M-16.6 2.45 L-16.5 3.35 -16.5 4.25 -16.5 5.15 -16.5 5.95 -16.45 6.85 -16.4 8.0 -16.25 8.0 Q-15.4 8.35 -14.6 8.75 -15.55 4.75 -15.3 0.6 L-16.6 0.6 -16.6 0.75 -16.6 1.65 -16.6 2.45 M-14.65 18.15 L-14.6 18.2 -13.95 18.45 -13.25 18.75 -12.55 18.95 -11.75 19.25 -11.05 19.45 -9.85 19.9 -11.45 17.5 -11.5 17.5 Q-13.8 17.05 -15.6 15.85 -15.35 16.9 -15.45 17.85 L-14.65 18.15 M-16.4 10.35 L-16.4 11.15 -16.3 12.85 -16.1 14.1 -15.95 14.5 -15.75 14.5 Q-13.95 15.7 -11.95 16.1 L-11.95 15.85 Q-13.5 12.85 -14.35 9.8 -15.35 9.9 -16.4 9.4 L-16.4 10.35" fill="#000000" fill-rule="evenodd" stroke="none"/>
    <path d="M32.0 -36.35 Q32.25 -37.6 32.7 -38.25 35.2 -32.15 36.3 -25.55 37.45 -19.0 37.6 -12.35 37.7 -8.75 37.2 -5.25 35.15 -2.85 31.8 -2.05 L27.2 -1.3 Q25.15 -7.0 24.65 -13.15 L24.35 -19.85 25.3 -19.95 Q26.75 -20.1 28.0 -20.6 29.25 -21.1 29.4 -22.6 29.7 -25.95 30.55 -29.25 L32.0 -36.35 M19.8 -18.75 L19.8 -18.6 20.05 -18.8 22.4 -19.55 22.35 -19.75 22.9 -19.8 Q22.3 -18.7 22.1 -17.35 L21.2 -10.75 20.05 -1.85 19.8 -1.85 19.8 -1.35 18.3 -1.35 18.35 -3.65 18.4 -5.85 18.4 -7.95 18.35 -10.15 18.35 -12.25 18.25 -14.45 18.2 -16.55 18.05 -18.65 19.8 -18.75 M11.5 -10.1 L11.55 -9.75 11.8 -9.6 Q13.95 -5.25 14.55 -0.8 L14.45 -0.7 14.35 -0.4 14.65 -0.15 Q15.45 7.65 11.45 15.8 L11.35 16.1 10.65 17.2 10.55 17.25 Q3.75 14.85 -3.5 15.6 -6.5 16.35 -10.0 16.3 L-10.15 16.35 -10.25 16.3 -10.85 16.3 -10.95 16.1 -11.05 15.8 Q-12.6 12.65 -13.4 9.55 L-13.4 9.5 -13.45 9.35 Q-15.9 -0.1 -11.65 -9.05 L-10.05 -10.75 Q-8.1 -12.75 -5.7 -14.25 L-4.95 -14.25 -4.6 -14.4 Q4.15 -17.45 10.05 -11.25 L10.75 -10.85 11.3 -10.5 11.5 -10.1 M8.2 -2.0 Q8.05 -1.05 8.4 -0.15 L9.05 0.1 Q10.65 -0.5 11.3 -2.0 L11.15 -2.35 10.65 -3.15 10.0 -3.35 9.55 -3.4 9.5 -3.3 8.65 -3.15 8.3 -2.75 8.2 -2.0 M0.55 -4.25 L0.05 -4.05 Q-0.7 -3.95 -1.2 -3.5 L-1.3 -2.75 -1.35 -1.65 Q-0.8 -0.9 0.05 -0.65 L0.55 -0.75 0.9 -1.15 Q2.05 -2.3 1.65 -3.75 L1.3 -4.15 0.55 -4.25 M23.4 -17.65 Q23.7 -11.4 24.85 -5.15 25.2 -3.05 26.25 -1.2 L21.45 -1.2 21.15 -1.2 21.05 -1.25 21.1 -1.3 Q21.6 -7.65 22.65 -13.95 L23.4 -17.65 M16.35 2.55 L16.35 3.7 16.3 4.9 16.3 6.0 16.35 7.2 16.35 8.3 16.35 8.45 15.1 8.35 Q15.95 4.45 15.75 0.4 L16.45 0.5 16.4 1.35 16.35 2.55 M10.65 10.25 L10.25 9.95 Q9.45 9.5 8.55 9.6 L8.5 9.7 7.65 10.25 7.65 10.6 7.65 11.35 8.0 11.75 Q8.6 12.5 9.55 12.35 L10.3 11.75 10.5 11.0 10.65 10.25 M7.4 21.0 L7.15 21.2 4.6 23.45 Q0.4 22.25 -4.0 22.1 L-4.0 22.2 Q-4.65 22.35 -5.15 22.65 L-7.2 20.75 -7.6 20.35 Q0.05 19.55 7.4 21.0 M4.25 23.75 L4.15 23.8 0.2 26.3 -4.25 23.4 4.25 23.75 M1.8 11.0 L1.6 10.7 0.05 9.6 0.0 9.7 -0.6 9.85 -0.95 10.25 -1.35 10.6 -1.3 11.35 -1.1 12.1 -0.45 12.3 0.05 12.35 Q1.35 12.15 1.8 11.0 M-16.6 2.45 L-16.6 1.65 -16.6 0.75 -16.6 0.6 -15.3 0.6 Q-15.55 4.75 -14.6 8.75 -15.4 8.35 -16.25 8.0 L-16.4 8.0 -16.45 6.85 -16.5 5.95 -16.5 5.15 -16.5 4.25 -16.5 3.35 -16.6 2.45 M-7.55 11.65 Q-7.0 10.95 -7.2 10.1 L-7.6 9.75 -8.45 9.1 -8.45 9.2 Q-9.65 9.25 -10.35 10.25 L-10.4 11.0 Q-10.5 11.65 -10.1 12.1 L-7.95 12.25 -7.55 11.65 M-12.35 -1.5 Q-12.5 -0.85 -12.1 -0.4 -10.1 0.65 -9.1 -0.9 L-9.1 -1.25 Q-9.3 -2.2 -9.85 -3.15 L-10.45 -3.4 -10.5 -3.3 Q-11.6 -3.0 -12.35 -1.9 L-12.35 -1.5 M-23.0 -19.15 L-22.25 -15.45 Q-21.2 -9.15 -20.7 -2.8 L-20.65 -2.75 -20.7 -2.7 -21.05 -2.7 -25.85 -2.7 Q-24.8 -4.55 -24.45 -6.65 -23.3 -12.9 -23.0 -19.15 M-21.7 -18.85 Q-21.9 -20.2 -22.5 -21.3 L-21.95 -21.25 -22.0 -21.05 Q-20.8 -20.55 -19.6 -20.3 L-19.4 -20.1 -19.4 -20.25 -18.0 -20.15 -18.35 -18.25 -18.4 -16.55 -18.4 -14.85 -18.4 -13.2 -18.4 -12.4 -18.4 -11.5 -18.4 -9.8 -18.4 -8.1 -18.4 -7.3 -18.45 -6.5 -18.45 -5.7 -18.45 -4.45 -18.35 -2.85 -19.4 -2.85 -19.4 -3.35 -19.65 -3.35 -20.8 -12.25 -21.7 -18.85 M-32.3 -39.75 Q-31.85 -39.1 -31.6 -37.85 L-30.15 -30.75 Q-29.3 -27.45 -29.0 -24.1 -28.85 -22.6 -27.6 -22.1 -26.35 -21.6 -24.9 -21.45 L-23.95 -21.35 -24.25 -14.65 Q-24.75 -8.5 -26.75 -2.8 L-31.4 -3.55 Q-34.75 -4.35 -36.8 -6.75 -37.3 -10.25 -37.2 -13.85 -37.05 -20.5 -35.9 -27.05 -34.8 -33.65 -32.3 -39.75 M7.8 20.55 Q5.6 19.3 3.0 19.0 L-8.1 19.8 -10.45 16.85 -10.0 16.5 -10.1 16.4 -7.55 16.5 Q1.75 15.85 10.4 17.45 L10.45 17.5 7.8 20.55" fill="#999966" fill-rule="evenodd" stroke="none"/>
    <path d="M16.3 -19.0 L16.95 -18.7 16.85 -17.65 16.85 -16.8 16.9 -15.6 16.9 -14.4 16.8 -12.55 16.75 -10.75 16.75 -9.55 16.65 -7.65 16.65 -5.85 16.65 -4.65 16.6 -3.45 16.55 -2.25 16.5 -1.05 15.6 -1.1 15.25 -3.6 Q14.8 -6.0 13.75 -8.0 L13.75 -8.25 13.8 -8.65 13.55 -9.0 Q8.3 -17.65 -2.45 -16.65 -5.95 -16.05 -9.15 -13.85 -12.05 -11.85 -13.7 -8.9 L-13.7 -8.5 Q-13.75 -7.9 -14.1 -7.4 L-14.55 -6.6 -14.45 -6.4 -13.9 -6.8 Q-14.55 -5.3 -14.85 -3.6 L-15.25 -0.6 -16.35 -0.8 -16.65 -0.85 -16.65 -1.05 -16.7 -2.15 -16.7 -3.25 -16.7 -4.35 -16.75 -5.55 -16.75 -6.65 -16.75 -7.8 -16.75 -8.9 -16.85 -10.1 -16.85 -11.2 -16.85 -12.3 -16.85 -13.4 -16.9 -14.5 -16.9 -17.85 -16.85 -19.05 Q-15.85 -18.95 -15.0 -19.35 L-14.55 -19.75 -14.25 -19.95 -12.05 -20.45 -11.35 -20.65 -10.25 -20.85 -8.2 -21.3 -6.1 -21.65 -5.1 -21.85 -3.05 -22.1 -0.95 -22.2 0.15 -22.2 1.15 -22.25 2.25 -22.2 3.25 -22.2 4.35 -22.1 5.35 -22.05 6.15 -21.9 6.9 -21.8 7.7 -21.65 8.4 -21.55 9.2 -21.35 9.9 -21.15 10.65 -21.0 11.35 -20.85 12.1 -20.6 12.8 -20.4 13.5 -20.1 14.2 -19.9 14.9 -19.6 15.6 -19.3 16.3 -19.0 M16.45 11.8 L16.45 12.9 16.5 14.05 16.5 15.15 16.55 15.65 16.5 15.65 Q14.3 15.8 12.35 16.5 L12.35 16.25 12.35 15.85 Q13.95 12.75 14.85 9.5 15.6 10.0 16.35 10.0 L16.35 10.6 16.45 11.8 M9.55 20.85 L11.7 17.8 Q14.9 17.75 16.6 16.3 L16.6 16.35 16.65 17.45 16.7 18.55 16.75 19.65 Q15.95 19.5 15.15 19.65 L14.4 19.95 14.15 20.05 14.15 20.0 13.6 20.15 12.0 20.45 10.4 20.7 9.6 20.8 9.55 20.85 M-16.4 10.35 L-16.4 9.4 Q-15.35 9.9 -14.35 9.8 -13.5 12.85 -11.95 15.85 L-11.95 16.1 Q-13.95 15.7 -15.75 14.5 L-15.95 14.5 -16.1 14.1 -16.3 12.85 -16.4 11.15 -16.4 10.35 M-14.65 18.15 L-15.45 17.85 Q-15.35 16.9 -15.6 15.85 -13.8 17.05 -11.5 17.5 L-11.45 17.5 -9.85 19.9 -11.05 19.45 -11.75 19.25 -12.55 18.95 -13.25 18.75 -13.95 18.45 -14.6 18.2 -14.65 18.15" fill="#996633" fill-rule="evenodd" stroke="none"/>
  </g>
</svg>
