<?xml version="1.0" encoding="UTF-8" standalone="no"?>
<svg xmlns:xlink="http://www.w3.org/1999/xlink" height="65.2px" width="80.7px" xmlns="http://www.w3.org/2000/svg">
  <g transform="matrix(1.0, 0.0, 0.0, 1.0, 40.55, 40.8)">
    <path d="M32.85 -36.2 L31.4 -29.1 Q30.55 -25.8 30.25 -22.45 30.1 -20.95 28.85 -20.45 27.6 -19.95 26.15 -19.8 L25.2 -19.7 25.5 -13.0 Q26.0 -6.85 28.05 -1.15 L32.65 -1.9 Q36.0 -2.7 38.05 -5.1 38.55 -8.6 38.45 -12.2 38.3 -18.85 37.15 -25.4 36.05 -32.0 33.55 -38.1 33.1 -37.45 32.85 -36.2 M-18.85 -19.05 L-18.85 -20.7 -18.35 -20.7 -17.8 -20.65 -17.1 -21.0 -15.3 -21.75 -13.6 -22.1 -12.0 -22.5 -10.3 -22.9 -8.65 -23.3 -6.85 -23.65 -5.1 -23.95 -3.3 -24.15 -0.9 -24.3 0.35 -24.35 0.95 -24.4 1.6 -24.35 2.2 -24.35 4.6 -24.25 7.0 -23.95 8.15 -23.75 8.75 -23.6 10.5 -23.25 12.75 -22.55 13.9 -22.1 17.35 -20.5 18.0 -20.55 18.05 -20.2 20.1 -20.25 20.1 -20.2 21.6 -20.15 28.4 -21.8 29.5 -27.15 Q31.0 -33.45 32.0 -39.85 L32.15 -40.0 Q32.45 -40.3 32.85 -40.3 34.15 -39.9 34.9 -38.65 36.45 -36.15 37.05 -33.25 L38.7 -24.25 39.3 -21.1 Q40.3 -16.1 40.1 -10.9 40.0 -7.5 39.25 -4.3 L38.75 -3.6 Q32.55 0.4 25.45 0.75 L25.45 0.65 21.6 0.65 21.05 0.6 21.05 0.65 20.65 0.65 20.65 0.15 18.3 0.05 18.3 0.9 18.25 2.1 18.25 3.3 18.25 3.95 18.25 5.75 18.2 8.15 18.25 8.85 18.25 9.45 18.3 11.85 18.35 14.25 18.4 16.65 18.3 20.3 17.6 20.65 17.15 20.4 15.15 21.05 13.05 21.6 10.95 22.15 8.85 22.65 6.75 23.15 3.6 23.85 1.4 24.25 0.3 24.4 -0.45 24.15 -0.55 24.1 -2.55 23.6 -4.55 23.0 -5.55 22.7 -6.55 22.4 -8.55 21.8 -10.5 21.25 -12.5 20.6 -16.9 19.15 -17.05 18.65 -17.3 16.85 -17.35 16.15 -17.5 16.0 -17.4 15.5 -17.55 14.25 -17.65 13.45 -17.85 11.1 -18.05 8.7 -18.2 6.3 -18.3 3.9 -18.35 2.7 -18.4 1.5 -18.35 -0.45 -18.85 -0.45 -18.85 -1.65 -18.35 -1.65 -18.3 -1.65 -18.35 -3.8 -18.4 -4.5 -18.4 -5.75 -18.4 -6.55 -18.35 -7.25 -18.35 -7.35 -18.35 -8.15 -18.35 -9.85 -18.35 -11.55 -18.35 -12.45 -18.35 -13.25 -18.35 -14.9 -18.35 -16.6 -18.35 -17.0 -18.3 -18.3 -18.2 -19.15 -18.35 -19.1 -18.85 -19.05 M18.1 -18.6 L17.95 -18.6 17.95 -16.1 17.95 -14.4 17.95 -12.75 17.95 -11.95 17.95 -11.05 17.95 -9.35 17.95 -7.65 17.95 -6.85 17.95 -6.75 18.0 -6.05 18.0 -5.25 18.0 -4.0 17.95 -3.3 17.95 -1.15 18.3 -1.15 20.65 -1.2 20.65 -1.7 20.9 -1.7 22.05 -10.6 22.95 -17.2 Q23.15 -18.55 23.75 -19.65 L23.2 -19.6 23.25 -19.4 20.9 -18.65 20.65 -18.45 20.65 -18.6 Q19.35 -18.45 18.1 -18.6 M16.35 -19.05 L15.65 -19.35 14.95 -19.65 14.25 -19.95 13.55 -20.15 12.85 -20.45 12.15 -20.65 11.4 -20.9 10.7 -21.05 9.95 -21.2 9.25 -21.4 8.45 -21.6 7.75 -21.7 6.95 -21.85 6.2 -21.95 5.4 -22.1 4.4 -22.15 3.3 -22.25 2.3 -22.25 1.2 -22.3 0.2 -22.25 -0.9 -22.25 -3.0 -22.15 -5.05 -21.9 -6.05 -21.7 -8.15 -21.35 -10.2 -20.9 -11.3 -20.7 -12.0 -20.5 -14.2 -20.0 -14.5 -19.8 -14.95 -19.4 -16.8 -19.1 -16.85 -17.9 -16.85 -14.55 -16.8 -13.45 -16.8 -12.35 -16.8 -11.25 -16.8 -10.15 -16.7 -8.95 -16.7 -7.85 -16.7 -6.7 -16.7 -5.6 -16.65 -4.4 -16.65 -3.3 -16.65 -2.2 -16.6 -1.15 -2.0 -2.4 16.5 -0.2 16.55 -1.1 16.6 -2.3 16.65 -3.5 16.7 -4.7 16.7 -5.9 16.7 -7.7 16.8 -9.6 16.8 -10.8 16.85 -12.6 16.95 -14.45 16.95 -15.65 16.9 -16.85 17.0 -18.6 17.0 -18.75 16.35 -19.05 M-16.55 -0.4 L-16.55 -0.2 -16.55 0.7 -16.55 1.6 -16.55 2.4 -16.45 3.3 -16.45 4.2 -16.45 5.1 -16.45 5.15 -14.5 4.6 -14.05 4.45 -14.0 4.35 Q0.2 4.1 14.1 6.65 L16.4 7.15 16.35 5.95 16.35 4.85 16.4 3.65 16.4 2.5 16.45 1.3 16.5 0.25 10.75 0.05 Q4.45 -1.15 -2.0 -1.25 L-8.05 -0.95 -16.55 -0.4 M24.25 -17.5 L23.5 -13.8 Q22.45 -7.5 21.95 -1.15 L21.9 -1.1 22.0 -1.05 22.3 -1.05 27.1 -1.05 Q26.05 -2.9 25.7 -5.0 24.55 -11.25 24.25 -17.5 M-14.6 18.1 L-13.9 18.4 -13.2 18.7 -12.5 18.9 -12.3 19.0 -11.7 19.2 -11.0 19.4 -9.6 19.9 -8.1 20.4 -7.35 20.65 -5.85 21.1 -4.45 21.55 -3.75 21.7 -2.8 22.05 -0.2 23.05 Q0.15 22.8 0.55 22.6 L1.35 22.2 2.2 21.95 3.15 21.7 4.05 21.65 4.85 21.5 5.65 21.4 6.45 21.25 8.05 21.05 9.65 20.75 10.45 20.65 12.05 20.4 13.65 20.1 14.4 19.95 14.45 19.9 15.2 19.6 Q16.0 19.45 16.8 19.6 L16.75 18.5 16.7 17.4 Q8.05 19.5 -0.55 20.65 L-3.9 20.35 -15.4 16.85 -15.4 17.8 -14.6 18.1 M-15.85 5.9 L-16.45 5.7 -16.45 5.9 -16.4 6.8 -16.35 8.6 -16.35 10.3 -16.35 11.1 -16.25 12.8 -16.05 14.05 -15.75 15.1 -15.65 15.5 Q-9.9 17.55 -3.8 19.25 L-2.25 19.55 Q3.45 20.05 9.1 18.55 L16.0 16.6 16.65 16.8 16.65 16.3 16.55 15.1 16.55 14.0 16.5 12.85 16.5 11.75 16.4 10.55 16.4 9.45 16.4 8.25 16.4 7.4 4.5 6.05 Q-5.05 5.45 -14.5 6.1 L-15.85 5.9" fill="#000000" fill-rule="evenodd" stroke="none"/>
    <path d="M16.35 -19.05 L17.0 -18.75 17.0 -18.6 16.9 -16.85 16.95 -15.65 16.95 -14.45 16.85 -12.6 16.8 -10.8 16.8 -9.6 16.7 -7.7 16.7 -5.9 16.7 -4.7 16.65 -3.5 16.6 -2.3 16.55 -1.1 16.5 -0.2 -2.0 -2.4 -16.6 -1.15 -16.65 -2.2 -16.65 -3.3 -16.65 -4.4 -16.7 -5.6 -16.7 -6.7 -16.7 -7.85 -16.7 -8.95 -16.8 -10.15 -16.8 -11.25 -16.8 -12.35 -16.8 -13.45 -16.85 -14.55 -16.85 -17.9 -16.8 -19.1 -14.95 -19.4 -14.5 -19.8 -14.2 -20.0 -12.0 -20.5 -11.3 -20.7 -10.2 -20.9 -8.15 -21.35 -6.05 -21.7 -5.05 -21.9 -3.0 -22.15 -0.9 -22.25 0.2 -22.25 1.2 -22.3 2.3 -22.25 3.3 -22.25 4.4 -22.15 5.4 -22.1 6.2 -21.95 6.95 -21.85 7.75 -21.7 8.45 -21.6 9.25 -21.4 9.95 -21.2 10.7 -21.05 11.4 -20.9 12.15 -20.65 12.85 -20.45 13.55 -20.15 14.25 -19.95 14.95 -19.65 15.65 -19.35 16.35 -19.05 M-15.85 5.9 L-14.5 6.1 Q-5.05 5.45 4.5 6.05 L16.4 7.4 16.4 8.25 16.4 9.45 16.4 10.55 16.5 11.75 16.5 12.85 16.55 14.0 16.55 15.1 16.65 16.3 16.65 16.8 16.0 16.6 9.1 18.55 Q3.45 20.05 -2.25 19.55 L-3.8 19.25 Q-9.9 17.55 -15.65 15.5 L-15.75 15.1 -16.05 14.05 -16.25 12.8 -16.35 11.1 -16.35 10.3 -16.35 8.6 -16.4 6.8 -16.45 5.9 -16.45 5.7 -15.85 5.9 M-14.6 18.1 L-15.4 17.8 -15.4 16.85 -3.9 20.35 -0.55 20.65 Q8.05 19.5 16.7 17.4 L16.75 18.5 16.8 19.6 Q16.0 19.45 15.2 19.6 L14.45 19.9 14.4 19.95 13.65 20.1 12.05 20.4 10.45 20.65 9.65 20.75 8.05 21.05 6.45 21.25 5.65 21.4 4.85 21.5 4.05 21.65 3.15 21.7 2.2 21.95 1.35 22.2 0.55 22.6 Q0.15 22.8 -0.2 23.05 L-2.8 22.05 -3.75 21.7 -4.45 21.55 -5.85 21.1 -7.35 20.65 -8.1 20.4 -9.6 19.9 -11.0 19.4 -11.7 19.2 -12.3 19.0 -12.5 18.9 -13.2 18.7 -13.9 18.4 -14.6 18.1" fill="#996633" fill-rule="evenodd" stroke="none"/>
    <path d="M32.85 -36.2 Q33.1 -37.45 33.55 -38.1 36.05 -32.0 37.15 -25.4 38.3 -18.85 38.45 -12.2 38.55 -8.6 38.05 -5.1 36.0 -2.7 32.65 -1.9 L28.05 -1.15 Q26.0 -6.85 25.5 -13.0 L25.2 -19.7 26.15 -19.8 Q27.6 -19.95 28.85 -20.45 30.1 -20.95 30.25 -22.45 30.55 -25.8 31.4 -29.1 L32.85 -36.2 M-18.85 -19.05 L-18.35 -19.1 -18.2 -19.15 -18.3 -18.3 -18.35 -17.0 -18.35 -16.6 -18.35 -14.9 -18.35 -13.25 -18.35 -12.45 -18.35 -11.55 -18.35 -9.85 -18.35 -8.15 -18.35 -7.35 -18.35 -7.25 -18.4 -6.55 -18.4 -5.75 -18.4 -4.5 -18.35 -3.8 -18.3 -1.65 -18.35 -1.65 -18.85 -1.65 -18.85 -19.05 M18.1 -18.6 Q19.35 -18.45 20.65 -18.6 L20.65 -18.45 20.9 -18.65 23.25 -19.4 23.2 -19.6 23.75 -19.65 Q23.15 -18.55 22.95 -17.2 L22.05 -10.6 20.9 -1.7 20.65 -1.7 20.65 -1.2 18.3 -1.15 17.95 -1.15 17.95 -3.3 18.0 -4.0 18.0 -5.25 18.0 -6.05 17.95 -6.75 17.95 -6.85 17.95 -7.65 17.95 -9.35 17.95 -11.05 17.95 -11.95 17.95 -12.75 17.95 -14.4 17.95 -16.1 17.95 -18.6 18.1 -18.6 M24.25 -17.5 Q24.55 -11.25 25.7 -5.0 26.05 -2.9 27.1 -1.05 L22.3 -1.05 22.0 -1.05 21.9 -1.1 21.95 -1.15 Q22.45 -7.5 23.5 -13.8 L24.25 -17.5 M-16.55 -0.4 L-8.05 -0.95 -2.0 -1.25 Q4.45 -1.15 10.75 0.05 L16.5 0.25 16.45 1.3 16.4 2.5 16.4 3.65 16.35 4.85 16.35 5.95 16.4 7.15 14.1 6.65 Q0.2 4.1 -14.0 4.35 L-14.05 4.45 -14.5 4.6 -16.45 5.15 -16.45 5.1 -16.45 4.2 -16.45 3.3 -16.55 2.4 -16.55 1.6 -16.55 0.7 -16.55 -0.2 -16.55 -0.4" fill="#999966" fill-rule="evenodd" stroke="none"/>
    <path d="M-37.55 -25.9 Q-38.7 -19.35 -38.85 -12.7 -38.95 -9.1 -38.45 -5.6 -36.4 -3.2 -33.05 -2.4 L-28.4 -1.65 Q-26.4 -7.35 -25.9 -13.5 L-25.6 -20.2 -26.55 -20.3 Q-28.0 -20.45 -29.25 -20.95 -30.5 -21.45 -30.65 -22.95 -30.95 -26.3 -31.8 -29.6 L-33.25 -36.7 Q-33.5 -37.95 -33.95 -38.6 -36.45 -32.5 -37.55 -25.9 M-18.85 -1.65 L-18.85 -0.45 -21.05 -0.35 -21.05 0.15 -21.45 0.15 -21.45 0.1 -21.95 0.15 -25.85 0.15 -25.85 0.25 Q-32.95 -0.1 -39.15 -4.1 L-39.65 -4.8 Q-40.4 -8.0 -40.5 -11.4 -40.7 -16.6 -39.7 -21.6 L-39.1 -24.75 -37.45 -33.75 Q-36.85 -36.65 -35.3 -39.15 -34.55 -40.4 -33.25 -40.8 -32.85 -40.8 -32.55 -40.5 L-32.4 -40.35 Q-31.4 -33.95 -29.9 -27.65 L-28.8 -22.3 -22.0 -20.65 -20.5 -20.7 -20.5 -20.75 -18.85 -20.7 -18.85 -19.05 -21.05 -19.1 -21.05 -18.95 -21.25 -19.15 -23.65 -19.9 -23.6 -20.1 -24.15 -20.15 Q-23.55 -19.05 -23.35 -17.7 L-22.45 -11.1 -21.3 -2.2 -21.05 -2.2 -21.05 -1.7 -18.85 -1.65 M-24.65 -18.0 Q-24.95 -11.75 -26.1 -5.5 -26.45 -3.4 -27.5 -1.55 L-22.7 -1.55 -22.35 -1.55 -22.3 -1.6 -22.35 -1.65 Q-22.85 -8.0 -23.9 -14.3 L-24.65 -18.0" fill="#000000" fill-rule="evenodd" stroke="none"/>
    <path d="M-37.55 -25.9 Q-36.45 -32.5 -33.95 -38.6 -33.5 -37.95 -33.25 -36.7 L-31.8 -29.6 Q-30.95 -26.3 -30.65 -22.95 -30.5 -21.45 -29.25 -20.95 -28.0 -20.45 -26.55 -20.3 L-25.6 -20.2 -25.9 -13.5 Q-26.4 -7.35 -28.4 -1.65 L-33.05 -2.4 Q-36.4 -3.2 -38.45 -5.6 -38.95 -9.1 -38.85 -12.7 -38.7 -19.35 -37.55 -25.9 M-18.85 -19.05 L-18.85 -1.65 -21.05 -1.7 -21.05 -2.2 -21.3 -2.2 -22.45 -11.1 -23.35 -17.7 Q-23.55 -19.05 -24.15 -20.15 L-23.6 -20.1 -23.65 -19.9 -21.25 -19.15 -21.05 -18.95 -21.05 -19.1 -18.85 -19.05 M-24.65 -18.0 L-23.9 -14.3 Q-22.85 -8.0 -22.35 -1.65 L-22.3 -1.6 -22.35 -1.55 -22.7 -1.55 -27.5 -1.55 Q-26.45 -3.4 -26.1 -5.5 -24.95 -11.75 -24.65 -18.0" fill="#999966" fill-rule="evenodd" stroke="none"/>
  </g>
</svg>
