<?xml version="1.0" encoding="UTF-8" standalone="no"?>
<svg xmlns:xlink="http://www.w3.org/1999/xlink" height="35.75px" width="34.7px" xmlns="http://www.w3.org/2000/svg">
  <g transform="matrix(1.0, 0.0, 0.0, 1.0, 20.6, 20.25)">
    <path d="M-12.3 -7.0 Q-13.65 -2.15 -13.7 3.25 -10.5 2.1 -6.8 2.0 L5.5 1.1 Q8.2 1.45 10.75 2.5 L11.3 2.75 11.4 0.6 11.35 -5.0 11.2 -5.35 10.85 -5.75 Q10.45 -8.75 9.3 -11.55 8.4 -13.7 6.8 -15.15 7.8 -10.55 7.25 -5.65 L8.55 -6.25 9.25 -6.4 Q8.7 -5.6 7.55 -4.85 L8.7 -3.85 9.0 -3.5 8.4 -3.05 8.1 -3.15 7.0 -3.95 Q6.7 -1.85 6.75 0.35 6.55 1.2 5.75 1.1 6.35 -1.6 6.55 -4.25 L6.15 -4.05 4.25 -2.9 3.25 -3.15 Q4.55 -4.2 6.0 -5.0 4.75 -6.55 4.35 -8.7 L4.6 -8.75 Q5.45 -7.15 6.65 -5.8 6.85 -10.95 5.75 -16.0 L5.1 -16.4 Q0.9 -19.9 -4.5 -17.75 L-4.65 -17.75 -5.25 -17.45 -5.8 -17.0 -6.0 -17.0 -6.3 -16.95 -7.5 -16.75 -11.0 -17.15 -17.5 -16.65 Q-19.65 -11.95 -19.25 -6.5 -19.0 -2.65 -17.8 0.9 -17.55 1.65 -16.85 2.0 L-16.5 2.2 -16.0 2.45 -14.6 3.35 -14.25 -2.15 -13.7 -5.05 -13.75 -5.0 -14.25 -4.9 -13.05 -7.8 -12.9 -7.7 -12.85 -7.65 Q-11.7 -10.75 -9.3 -13.4 L-8.9 -13.65 Q-11.05 -10.7 -12.3 -7.35 L-12.2 -7.3 -12.2 -7.2 -12.3 -7.0 M11.6 -9.4 Q12.55 -6.65 12.6 -3.75 L12.6 3.0 12.45 3.35 12.1 3.75 12.1 4.1 12.1 4.5 12.1 4.85 12.1 5.6 12.1 6.0 12.75 7.55 13.5 10.5 13.6 11.25 14.0 11.6 14.1 12.0 14.1 12.35 14.1 12.75 14.1 13.5 Q8.85 15.2 3.6 12.0 3.5 11.85 3.35 11.85 L2.5 11.95 2.0 12.25 1.85 12.5 Q-3.0 10.9 -7.65 12.95 -9.4 13.7 -11.0 14.75 -11.85 15.3 -12.9 15.5 L-13.1 15.1 -13.15 14.75 -13.15 14.35 -13.4 14.0 -13.75 13.6 -14.15 13.25 -14.6 7.55 -14.75 7.6 -14.6 7.45 -14.6 5.0 Q-15.05 4.8 -15.45 4.55 -15.9 4.05 -16.75 3.7 -21.15 0.3 -20.5 -6.15 L-20.0 -13.65 Q-19.95 -16.3 -17.9 -18.0 L-17.5 -18.1 -15.75 -18.45 -15.0 -18.65 Q-10.85 -18.9 -7.2 -17.45 L-6.7 -18.05 -6.65 -18.25 Q-6.5 -19.15 -5.55 -19.35 L-2.0 -20.25 Q8.2 -19.8 11.2 -10.1 L11.25 -9.75 11.6 -9.4 M-2.0 5.0 L10.85 5.4 10.85 5.1 10.85 3.6 10.85 3.25 11.25 2.85 11.25 2.8 Q0.85 1.6 -10.05 3.6 L-13.35 4.15 -12.9 4.5 -13.1 4.8 Q-13.25 5.0 -13.55 5.05 L-13.7 5.1 -13.6 7.05 -11.45 6.35 -8.5 5.7 -2.0 5.0 M-12.85 12.35 L-12.55 12.75 -12.35 13.1 -12.15 13.5 -11.5 13.6 Q-6.1 9.15 0.35 11.25 L0.95 11.05 1.75 10.7 2.1 10.5 2.5 10.35 3.75 10.5 Q5.1 11.45 6.55 12.0 5.45 9.35 5.75 5.9 L-6.15 6.35 -13.6 7.35 -13.0 12.0 -12.85 12.35 M12.7 12.25 L12.5 11.85 12.4 11.5 12.35 10.75 12.35 10.35 12.1 10.0 11.85 9.6 11.85 8.85 11.7 8.15 10.85 6.6 10.85 5.85 10.85 5.65 6.15 5.9 Q6.25 8.85 6.65 11.75 L6.65 12.0 Q9.45 13.05 12.75 12.65 L12.85 12.6 12.7 12.25" fill="#000000" fill-rule="evenodd" stroke="none"/>
    <path d="M-6.3 -16.95 L-6.0 -17.0 -5.8 -17.0 -5.25 -17.45 -4.65 -17.75 -4.5 -17.75 Q0.9 -19.9 5.1 -16.4 L5.75 -16.0 Q6.85 -10.95 6.65 -5.8 5.45 -7.15 4.6 -8.75 L4.35 -8.7 Q4.75 -6.55 6.0 -5.0 4.55 -4.2 3.25 -3.15 L4.25 -2.9 6.15 -4.05 6.55 -4.25 Q6.35 -1.6 5.75 1.1 6.55 1.2 6.75 0.35 6.7 -1.85 7.0 -3.95 L8.1 -3.15 8.4 -3.05 9.0 -3.5 8.7 -3.85 7.55 -4.85 Q8.7 -5.6 9.25 -6.4 L8.55 -6.25 7.25 -5.65 Q7.8 -10.55 6.8 -15.15 8.4 -13.7 9.3 -11.55 10.45 -8.75 10.85 -5.75 L11.2 -5.35 11.35 -5.0 11.4 0.6 11.3 2.75 10.75 2.5 Q8.2 1.45 5.5 1.1 L-6.8 2.0 Q-10.5 2.1 -13.7 3.25 -13.65 -2.15 -12.3 -7.0 L-12.25 -7.05 -6.3 -16.95 M-16.0 2.45 L-16.5 2.2 -16.0 2.45 M12.75 12.65 Q9.45 13.05 6.65 12.0 L6.65 11.75 Q6.25 8.85 6.15 5.9 L10.85 5.65 10.85 5.85 10.85 6.6 11.7 8.15 11.85 8.85 11.85 9.6 12.1 10.0 12.35 10.35 12.35 10.75 12.4 11.5 12.5 11.85 12.7 12.25 12.75 12.65 M-12.85 12.35 L-13.0 12.0 -13.6 7.35 -6.15 6.35 5.75 5.9 Q5.45 9.35 6.55 12.0 5.1 11.45 3.75 10.5 L2.5 10.35 2.1 10.5 1.75 10.7 0.95 11.05 0.35 11.25 Q-6.1 9.15 -11.5 13.6 L-12.15 13.5 -12.35 13.1 -12.55 12.75 -12.85 12.35" fill="#926647" fill-rule="evenodd" stroke="none"/>
    <path d="M-6.3 -16.95 L-12.25 -7.05 -12.3 -7.0 -12.2 -7.2 -12.2 -7.3 -12.3 -7.35 Q-11.05 -10.7 -8.9 -13.65 L-9.3 -13.4 Q-11.7 -10.75 -12.85 -7.65 L-12.9 -7.7 -13.05 -7.8 -14.25 -4.9 -13.75 -5.0 -13.7 -5.05 -14.25 -2.15 -14.6 3.35 -16.0 2.45 -16.5 2.2 -16.85 2.0 Q-17.55 1.65 -17.8 0.9 -19.0 -2.65 -19.25 -6.5 -19.65 -11.95 -17.5 -16.65 L-11.0 -17.15 -7.5 -16.75 -6.3 -16.95 M-2.0 5.0 L-8.5 5.7 -11.45 6.35 -13.6 7.05 -13.7 5.1 -13.55 5.05 Q-13.25 5.0 -13.1 4.8 L-12.9 4.5 -13.35 4.15 -10.05 3.6 Q0.85 1.6 11.25 2.8 L11.25 2.85 10.85 3.25 10.85 3.6 10.85 5.1 10.85 5.4 -2.0 5.0" fill="#666633" fill-rule="evenodd" stroke="none"/>
  </g>
</svg>
