<?xml version="1.0" encoding="UTF-8" standalone="no"?>
<svg xmlns:xlink="http://www.w3.org/1999/xlink" height="44.35px" width="35.5px" xmlns="http://www.w3.org/2000/svg">
  <g transform="matrix(1.0, 0.0, 0.0, 1.0, 18.5, 21.6)">
    <path d="M4.15 -8.2 L5.25 -8.2 3.9 -4.85 1.55 -0.1 0.25 2.95 Q-2.2 3.8 -4.75 4.1 L-5.25 4.15 Q-8.8 4.45 -12.3 4.2 L-15.15 3.7 -15.4 6.9 Q-8.95 6.45 -2.55 5.25 L0.8 4.55 Q6.1 3.4 10.75 0.65 12.65 -0.45 14.3 -1.95 L14.4 -1.95 14.45 -4.25 Q14.55 -6.3 14.25 -8.2 L15.05 -8.2 Q15.45 -5.25 15.3 -2.2 L15.05 1.0 15.15 1.0 15.35 1.05 15.55 1.05 15.65 0.95 15.8 0.85 15.95 0.8 Q16.9 1.55 17.0 3.0 L16.9 5.4 16.8 5.45 16.7 5.5 16.55 5.55 12.25 5.4 Q10.8 7.95 10.05 10.8 9.85 11.45 10.05 12.1 8.1 16.0 4.15 17.75 L2.85 18.25 Q-0.65 19.35 -4.0 20.75 L-6.2 21.4 -11.5 22.35 -13.3 22.65 -18.3 22.45 -18.5 22.3 Q-17.4 19.35 -16.85 16.2 -16.65 15.15 -16.05 14.35 L-16.25 13.8 -16.25 12.95 -16.3 12.95 -16.5 12.8 -16.25 12.4 -16.25 7.5 -16.45 7.35 -16.4 7.1 -16.3 6.95 -16.2 6.95 -16.2 6.15 -15.8 3.45 -16.9 2.95 -17.0 2.85 -17.1 2.7 -17.15 2.55 -17.15 2.3 -17.15 2.15 -17.15 2.05 Q-17.5 -0.05 -17.2 -2.2 L-16.0 -8.2 -15.2 -8.2 Q-16.3 -3.55 -16.6 1.25 L-16.6 1.35 -16.5 1.5 -16.4 1.8 -16.35 2.05 -16.35 2.15 Q-14.45 3.4 -12.0 3.45 L-6.6 3.45 Q-3.4 3.35 -0.3 2.15 L1.6 -1.8 Q3.1 -4.95 4.15 -8.2 M0.05 -8.2 L0.8 -8.2 -0.2 -5.4 -1.05 -3.1 -1.9 -0.85 -1.9 -0.75 -1.95 -0.5 -2.0 -0.2 -2.05 0.05 Q-3.3 0.7 -4.7 1.15 L-9.0 1.35 -10.4 1.25 -12.35 0.85 Q-7.8 1.35 -3.4 0.0 -2.5 -0.3 -2.45 -1.15 L-2.3 -1.3 -2.2 -1.4 Q-1.9 -3.5 -1.0 -5.45 -0.4 -6.6 -0.05 -7.85 L0.05 -8.2 M15.8 2.1 Q15.0 2.2 14.65 1.7 L12.85 4.25 16.1 4.4 Q16.2 3.4 15.85 2.45 L15.8 2.1 M14.55 1.2 L14.4 -1.5 Q12.15 1.05 8.95 2.5 4.3 4.7 -0.8 5.7 L-11.1 7.55 -15.45 7.65 -15.3 12.1 -15.15 12.1 Q-5.8 12.9 2.8 9.05 6.4 7.45 9.85 5.45 L12.3 3.65 Q13.55 2.6 14.4 1.25 L14.55 1.2 M8.05 7.25 Q3.7 10.0 -1.25 11.55 -7.6 13.6 -14.35 13.15 L-15.2 13.1 -15.2 13.2 -15.15 14.0 -15.45 14.45 -17.0 19.95 -17.35 21.7 Q-9.4 22.1 -2.1 19.05 L-0.35 18.45 Q3.05 17.45 6.05 15.5 L7.3 14.45 8.8 12.45 8.8 12.3 8.85 12.15 8.85 12.05 Q9.5 8.6 11.25 5.6 L9.05 6.75 8.05 7.25" fill="#000000" fill-rule="evenodd" stroke="none"/>
    <path d="M5.25 -8.2 L14.25 -8.2 Q14.55 -6.3 14.45 -4.25 L14.4 -1.95 14.3 -1.95 Q12.65 -0.45 10.75 0.65 6.1 3.4 0.8 4.55 L-2.55 5.25 Q-8.95 6.45 -15.4 6.9 L-15.15 3.7 -12.3 4.2 Q-8.8 4.45 -5.25 4.15 L-4.75 4.1 Q-2.2 3.8 0.25 2.95 L1.55 -0.1 3.9 -4.85 5.25 -8.2 M15.8 2.1 L15.85 2.45 Q16.2 3.4 16.1 4.4 L12.85 4.25 14.65 1.7 Q15.0 2.2 15.8 2.1 M8.05 7.25 L9.05 6.75 11.25 5.6 Q9.5 8.6 8.85 12.05 L8.85 12.15 8.8 12.3 8.8 12.45 7.3 14.45 6.05 15.5 Q3.05 17.45 -0.35 18.45 L-2.1 19.05 Q-9.4 22.1 -17.35 21.7 L-17.0 19.95 -15.45 14.45 -15.15 14.0 -15.2 13.2 -15.2 13.1 -14.35 13.15 Q-7.6 13.6 -1.25 11.55 3.7 10.0 8.05 7.25" fill="#926647" fill-rule="evenodd" stroke="none"/>
    <path d="M0.8 -8.2 L4.15 -8.2 Q3.1 -4.95 1.6 -1.8 L-0.3 2.15 Q-3.4 3.35 -6.6 3.45 L-12.0 3.45 Q-14.45 3.4 -16.35 2.15 L-16.35 2.05 -16.4 1.8 -16.5 1.5 -16.6 1.35 -16.6 1.25 Q-16.3 -3.55 -15.2 -8.2 L0.05 -8.2 -0.05 -7.85 Q-0.4 -6.6 -1.0 -5.45 -1.9 -3.5 -2.2 -1.4 L-2.3 -1.3 -2.45 -1.15 Q-2.5 -0.3 -3.4 0.0 -7.8 1.35 -12.35 0.85 L-10.4 1.25 -9.0 1.35 -4.7 1.15 Q-3.3 0.7 -2.05 0.05 L-2.0 -0.2 -1.95 -0.5 -1.9 -0.75 -1.9 -0.85 -1.05 -3.1 -0.2 -5.4 0.8 -8.2 M14.55 1.2 L14.4 1.25 Q13.55 2.6 12.3 3.65 L9.85 5.45 Q6.4 7.45 2.8 9.05 -5.8 12.9 -15.15 12.1 L-15.3 12.1 -15.45 7.65 -11.1 7.55 -0.8 5.7 Q4.3 4.7 8.95 2.5 12.15 1.05 14.4 -1.5 L14.55 1.2" fill="#666633" fill-rule="evenodd" stroke="none"/>
    <path d="M5.25 -8.2 Q6.25 -11.35 6.4 -14.7 6.5 -16.05 5.95 -17.1 L6.6 -17.0 Q8.9 -16.6 10.85 -15.3 L11.9 -14.25 Q13.65 -11.4 14.25 -8.2 L5.25 -8.2" fill="#926647" fill-rule="evenodd" stroke="none"/>
    <path d="M14.25 -8.2 Q13.65 -11.4 11.9 -14.25 L10.85 -15.3 Q8.9 -16.6 6.6 -17.0 L5.95 -17.1 Q6.5 -16.05 6.4 -14.7 6.25 -11.35 5.25 -8.2 L4.15 -8.2 5.1 -11.6 5.6 -14.75 Q5.7 -16.6 4.3 -17.9 L4.15 -17.85 3.85 -17.8 2.7 -13.8 0.8 -8.2 0.05 -8.2 Q1.4 -13.05 3.1 -17.8 L3.3 -18.7 Q2.4 -19.6 1.0 -20.1 L-2.65 -20.75 Q-7.35 -21.1 -11.35 -19.0 L-11.6 -18.75 Q-13.65 -14.0 -15.0 -8.95 L-15.2 -8.2 -16.0 -8.2 -14.95 -11.95 Q-13.7 -15.95 -12.0 -19.75 -9.7 -21.1 -7.0 -21.3 L-4.6 -21.55 Q0.2 -21.9 3.85 -19.0 L4.05 -18.85 4.1 -18.85 4.2 -18.85 4.4 -18.9 5.35 -18.05 Q8.7 -17.75 11.45 -15.75 13.8 -14.0 14.45 -11.15 L15.05 -8.2 14.25 -8.2" fill="#000000" fill-rule="evenodd" stroke="none"/>
    <path d="M-15.2 -8.2 L-15.0 -8.95 Q-13.65 -14.0 -11.6 -18.75 L-11.35 -19.0 Q-7.35 -21.1 -2.65 -20.75 L1.0 -20.1 Q2.4 -19.6 3.3 -18.7 L3.1 -17.8 Q1.4 -13.05 0.05 -8.2 L-15.2 -8.2 M0.8 -8.2 L2.7 -13.8 3.85 -17.8 4.15 -17.85 4.3 -17.9 Q5.7 -16.6 5.6 -14.75 L5.1 -11.6 4.15 -8.2 0.8 -8.2" fill="#666633" fill-rule="evenodd" stroke="none"/>
  </g>
</svg>
