<?xml version="1.0" encoding="UTF-8" standalone="no"?>
<svg xmlns:xlink="http://www.w3.org/1999/xlink" height="55.65px" width="47.35px" xmlns="http://www.w3.org/2000/svg">
  <g transform="matrix(1.0, 0.0, 0.0, 1.0, 24.9, 31.9)">
    <path d="M14.5 -16.8 Q18.4 -14.4 20.45 -9.55 21.75 -6.4 22.25 -3.2 L22.35 -3.2 22.3 -2.8 Q23.0 2.95 20.9 8.8 L20.65 9.2 20.4 9.55 Q19.95 12.0 19.1 14.2 L19.1 14.55 19.0 14.8 19.0 14.55 Q17.1 18.95 13.3 22.35 L13.0 22.15 12.9 22.3 11.8 22.35 Q8.7 23.4 5.6 23.7 3.25 23.85 0.95 23.65 -2.95 23.2 -6.8 21.6 -11.35 19.9 -15.8 17.65 L-16.7 17.0 -16.75 17.0 -16.75 16.95 Q-17.05 16.6 -16.95 16.25 L-17.75 15.1 -17.75 11.75 -17.75 11.35 -17.1 10.85 -17.75 10.25 -17.75 9.85 -17.75 9.5 -18.15 9.1 -18.65 4.25 -18.7 4.05 -18.7 4.25 -20.4 -1.15 Q-21.85 -13.65 -24.45 -25.9 L-24.85 -29.1 -24.85 -31.0 Q-24.8 -31.85 -23.95 -31.9 -12.35 -26.95 -1.3 -20.95 L-0.9 -20.65 -0.2 -20.9 0.95 -20.8 5.6 -20.0 Q9.4 -19.1 12.95 -17.35 L13.2 -17.5 13.25 -17.6 14.6 -16.9 14.5 -16.8 M20.5 2.9 L20.7 0.25 20.6 -2.2 20.35 -4.35 20.15 -4.65 20.2 -5.15 19.3 -8.5 Q17.15 -13.4 12.8 -16.05 L11.0 -16.45 Q9.95 -16.75 8.9 -17.3 L7.0 -18.0 5.6 -18.3 0.95 -18.9 Q-4.8 -19.3 -10.5 -17.95 L-11.55 -18.0 Q-7.15 -19.8 -2.2 -20.45 L-9.4 -21.45 Q-10.95 -21.6 -12.4 -21.0 L-14.4 -20.4 Q-11.65 -22.15 -8.35 -22.6 -15.35 -26.15 -22.55 -29.5 -22.2 -22.1 -20.75 -14.9 -19.3 -7.2 -18.85 0.4 L-18.85 0.45 -18.8 0.45 -18.7 0.35 Q-18.4 4.15 -17.55 7.9 L-17.5 8.25 -16.9 9.0 -16.85 9.35 -16.75 9.75 -15.35 11.25 -15.35 11.6 -15.35 11.85 Q-7.45 16.3 0.95 19.5 L2.65 20.1 0.95 19.9 Q-5.5 18.8 -11.0 14.75 -12.75 13.4 -14.9 13.25 L-16.5 11.9 -16.75 12.1 Q-17.0 14.1 -16.3 16.0 -8.05 20.0 0.95 21.8 L4.45 22.4 5.5 22.35 5.6 22.35 11.6 21.9 12.15 21.95 12.15 21.55 15.2 17.75 15.95 16.65 16.45 15.85 16.9 15.0 16.6 14.85 15.15 15.8 15.0 15.8 15.35 15.35 17.5 11.8 18.15 10.55 18.1 10.4 18.4 9.65 18.45 9.85 18.9 8.75 19.0 8.5 19.35 7.1 19.05 7.3 18.55 7.65 17.3 8.45 15.85 9.25 14.35 9.95 13.45 10.35 9.6 11.75 9.3 11.8 9.6 11.65 11.55 10.35 13.55 8.95 19.85 4.05 19.95 3.95 19.95 3.9 18.95 2.5 18.75 2.3 17.6 0.95 Q15.8 -0.9 13.45 -2.4 L11.55 -3.5 12.0 -3.45 13.4 -2.75 Q15.75 -1.55 17.6 0.05 L18.85 1.3 19.45 2.0 20.15 2.9 20.4 3.25 20.4 3.3 20.45 3.2 20.5 2.9 M-1.75 -20.55 L-1.6 -20.5 -1.15 -20.6 -1.75 -20.55" fill="#000000" fill-rule="evenodd" stroke="none"/>
    <path d="M-18.85 0.4 Q-19.3 -7.2 -20.75 -14.9 -22.2 -22.1 -22.55 -29.5 -15.35 -26.15 -8.35 -22.6 -11.65 -22.15 -14.4 -20.4 L-12.4 -21.0 Q-10.95 -21.6 -9.4 -21.45 L-2.2 -20.45 Q-7.15 -19.8 -11.55 -18.0 L-10.5 -17.95 Q-4.8 -19.3 0.95 -18.9 L5.6 -18.3 7.0 -18.0 8.9 -17.3 Q9.95 -16.75 11.0 -16.45 L12.8 -16.05 Q17.15 -13.4 19.3 -8.5 L20.2 -5.15 20.15 -4.65 20.35 -4.35 20.6 -2.2 20.7 0.25 20.5 2.9 20.15 2.9 19.45 2.0 18.85 1.3 17.6 0.05 Q15.75 -1.55 13.4 -2.75 L12.0 -3.45 11.55 -3.5 13.45 -2.4 Q15.8 -0.9 17.6 0.95 L18.75 2.3 18.95 2.5 19.95 3.9 19.95 3.95 19.85 4.05 13.55 8.95 11.55 10.35 9.6 11.65 9.3 11.8 9.6 11.75 13.45 10.35 14.35 9.95 15.85 9.25 17.3 8.45 18.55 7.65 19.05 7.3 19.35 7.1 19.0 8.5 18.9 8.75 18.45 9.85 18.4 9.65 18.1 10.4 18.15 10.55 17.5 11.8 15.35 15.35 15.0 15.8 15.15 15.8 16.6 14.85 16.9 15.0 16.45 15.85 15.95 16.65 15.2 17.75 12.15 21.55 12.15 21.95 11.6 21.9 5.6 22.35 5.5 22.35 4.45 22.4 0.95 21.8 Q-8.05 20.0 -16.3 16.0 -17.0 14.1 -16.75 12.1 L-16.5 11.9 -14.9 13.25 Q-12.75 13.4 -11.0 14.75 -5.5 18.8 0.95 19.9 L2.65 20.1 0.95 19.5 Q-7.45 16.3 -15.35 11.85 L-15.35 11.6 -15.35 11.25 -16.75 9.75 -16.85 9.35 -16.9 9.0 -17.5 8.25 -17.55 7.9 Q-18.4 4.15 -18.7 0.35 L-18.85 0.4" fill="#926647" fill-rule="evenodd" stroke="none"/>
    <path d="M-18.85 0.4 L-18.7 0.35 -18.8 0.45 -18.85 0.4" fill="#996633" fill-rule="evenodd" stroke="none"/>
  </g>
</svg>
