<?xml version="1.0" encoding="UTF-8" standalone="no"?>
<svg xmlns:xlink="http://www.w3.org/1999/xlink" height="55.7px" width="39.2px" xmlns="http://www.w3.org/2000/svg">
  <g transform="matrix(1.0, 0.0, 0.0, 1.0, 17.8, 47.0)">
    <path d="M19.35 -23.8 L19.6 -24.15 Q23.2 -15.9 19.65 -7.15 15.6 2.85 6.05 7.75 3.35 9.1 0.5 8.55 -9.6 6.55 -15.3 -1.95 L-15.4 -2.0 -15.45 -2.15 -15.65 -2.5 -15.65 -3.15 Q-17.5 -5.35 -17.3 -8.4 L-17.25 -9.15 -17.5 -9.5 -17.75 -9.9 Q-18.4 -22.25 -10.5 -31.25 L-10.3 -31.25 Q-7.0 -39.05 -3.2 -46.6 L-3.0 -46.9 -2.9 -46.95 -2.25 -47.0 -1.9 -46.65 -2.0 -46.35 -0.5 -46.5 -0.25 -46.5 Q6.6 -41.4 12.45 -35.1 15.4 -31.95 17.25 -28.15 L18.85 -24.0 18.5 -23.9 18.0 -24.0 15.5 -28.55 14.35 -29.3 Q12.65 -30.65 10.6 -31.45 5.3 -33.5 -0.55 -32.5 L-7.75 -31.65 -5.55 -32.35 Q-1.55 -33.55 2.5 -33.5 8.95 -34.2 13.8 -31.1 L11.5 -34.15 Q7.05 -35.9 2.25 -36.65 L6.0 -37.0 Q8.35 -36.5 10.4 -35.45 5.05 -41.6 -2.15 -46.0 -5.0 -38.85 -8.5 -32.05 L-9.75 -29.75 -9.9 -29.4 Q-10.4 -29.4 -10.55 -30.15 -16.0 -21.55 -16.25 -10.75 L-16.25 -10.5 -15.9 -9.8 -15.75 -9.65 -15.75 -9.55 Q-12.5 -3.4 -6.75 0.85 L-6.65 1.0 -6.7 1.1 Q-10.7 -0.35 -13.75 -4.0 L-14.85 -5.4 -15.55 -6.45 -15.25 -5.3 -15.25 -5.25 -15.05 -4.75 -14.4 -3.65 -14.4 -3.55 Q-11.3 1.45 -5.85 4.55 L-4.15 5.45 Q-2.05 6.45 0.0 6.8 L1.8 7.0 3.7 2.9 Q-0.3 4.45 -5.25 3.5 L-5.25 3.35 Q-0.7 3.4 3.1 1.75 L-0.7 -4.4 -0.25 -4.4 1.0 -3.65 1.6 -3.25 4.3 1.1 Q5.75 -3.6 5.85 -8.65 L5.85 -9.0 6.5 -9.45 6.75 -9.5 7.1 -9.15 Q7.3 -4.3 5.95 0.15 7.85 -1.1 9.5 -2.9 L9.6 -2.95 10.0 -3.0 10.25 -3.0 10.6 -2.65 Q8.25 0.5 5.25 2.15 L5.15 2.5 6.45 4.7 7.05 5.65 8.25 5.0 Q10.35 3.75 12.1 1.95 18.75 -5.05 20.45 -14.45 21.2 -18.5 19.55 -22.2 19.1 -23.25 19.35 -23.8 M2.8 7.0 L5.0 6.45 5.9 6.15 4.5 3.95 3.05 6.6 2.8 7.0" fill="#000000" fill-rule="evenodd" stroke="none"/>
    <path d="M18.85 -24.0 L19.35 -23.8 Q19.1 -23.25 19.55 -22.2 21.2 -18.5 20.45 -14.45 18.75 -5.05 12.1 1.95 10.35 3.75 8.25 5.0 L7.05 5.65 6.45 4.7 5.15 2.5 5.25 2.15 Q8.25 0.5 10.6 -2.65 L10.25 -3.0 10.0 -3.0 9.6 -2.95 9.5 -2.9 Q7.85 -1.1 5.95 0.15 7.3 -4.3 7.1 -9.15 L6.75 -9.5 6.5 -9.45 5.85 -9.0 5.85 -8.65 Q5.75 -3.6 4.3 1.1 L1.6 -3.25 1.0 -3.65 -0.25 -4.4 -0.7 -4.4 3.1 1.75 Q-0.7 3.4 -5.25 3.35 L-5.25 3.5 Q-0.3 4.45 3.7 2.9 L1.8 7.0 0.0 6.8 Q-2.05 6.45 -4.15 5.45 L-5.85 4.55 Q-11.3 1.45 -14.4 -3.55 L-14.4 -3.65 -15.05 -4.75 -15.25 -5.25 -15.25 -5.3 -14.85 -5.4 -13.75 -4.0 Q-10.7 -0.35 -6.7 1.1 L-6.65 1.0 -6.75 0.85 Q-12.5 -3.4 -15.75 -9.55 L-15.75 -9.65 -15.9 -9.8 -16.25 -10.5 -16.25 -10.75 Q-16.0 -21.55 -10.55 -30.15 -10.4 -29.4 -9.9 -29.4 L-9.75 -29.75 -8.5 -32.05 Q-5.0 -38.85 -2.15 -46.0 5.05 -41.6 10.4 -35.45 8.35 -36.5 6.0 -37.0 L2.25 -36.65 Q7.05 -35.9 11.5 -34.15 L13.8 -31.1 Q8.95 -34.2 2.5 -33.5 -1.55 -33.55 -5.55 -32.35 L-7.75 -31.65 -0.55 -32.5 Q5.3 -33.5 10.6 -31.45 12.65 -30.65 14.35 -29.3 L15.5 -28.55 18.0 -24.0 18.5 -23.9 18.85 -24.0 M2.8 7.0 L3.05 6.6 4.5 3.95 5.9 6.15 5.0 6.45 2.8 7.0" fill="#926647" fill-rule="evenodd" stroke="none"/>
  </g>
</svg>
