<?xml version="1.0" encoding="UTF-8" standalone="no"?>
<svg xmlns:xlink="http://www.w3.org/1999/xlink" height="60.4px" width="37.5px" xmlns="http://www.w3.org/2000/svg">
  <g transform="matrix(1.0, 0.0, 0.0, 1.0, 18.8, 34.65)">
    <path d="M1.8 -32.7 L1.35 -33.0 Q-4.8 -26.95 -9.15 -19.7 -7.1 -19.85 -5.15 -20.5 -2.75 -21.3 -0.5 -21.5 3.15 -21.35 6.7 -20.25 L7.0 -20.0 -6.65 -19.3 Q-8.15 -19.0 -9.35 -19.3 -11.85 -15.1 -13.75 -10.5 L-13.9 -10.45 -15.65 -5.35 -13.95 -8.1 -13.9 -8.15 Q-21.3 4.5 -14.75 17.45 -11.5 18.05 -8.45 19.35 L-8.25 19.6 Q-11.35 19.1 -14.45 18.0 L-14.4 18.1 -14.4 18.15 Q-10.3 21.8 -4.9 23.35 L-4.5 23.6 Q2.9 25.7 9.5 22.0 11.2 20.25 13.35 19.0 L14.3 16.95 12.75 18.25 12.35 18.6 Q10.9 19.65 10.1 18.35 L12.1 17.85 14.8 15.65 Q19.25 3.95 15.0 -8.3 L14.55 -10.05 12.2 -16.15 11.85 -17.05 Q9.3 -23.35 5.1 -28.65 L4.5 -29.0 4.3 -29.4 4.25 -29.75 4.25 -30.15 1.8 -32.7 M1.75 -34.65 Q12.35 -24.15 15.7 -9.2 L15.8 -8.8 Q21.65 4.05 15.8 17.45 L15.2 18.75 15.55 18.95 15.75 19.1 13.95 20.5 Q13.15 21.5 12.3 21.7 9.45 23.65 6.4 25.2 L5.45 25.5 -4.9 25.0 Q-10.45 22.65 -14.65 18.5 L-14.75 18.6 -15.1 18.05 -15.5 17.6 -15.7 17.4 -16.15 16.9 Q-16.45 16.6 -15.9 16.75 L-15.7 16.95 Q-20.35 8.4 -18.0 0.1 -16.65 -6.8 -13.35 -13.55 L-13.0 -13.65 Q-11.8 -16.75 -10.25 -19.65 -6.5 -26.75 -0.9 -32.9 L-0.65 -33.25 Q0.3 -34.3 1.5 -34.6 L1.75 -34.65 M12.1 -16.15 Q1.75 -18.8 -9.25 -16.5 L-9.25 -16.65 -7.25 -17.3 Q-4.1 -18.25 -1.0 -18.4 5.45 -18.95 11.35 -16.5 L12.1 -16.15 M8.5 -2.25 L8.6 -2.25 Q4.15 1.3 0.2 5.7 L0.25 6.5 Q4.55 11.5 7.1 17.95 L7.0 18.1 Q4.05 12.45 0.25 7.8 L0.6 17.6 0.6 18.0 -0.25 19.5 -1.0 19.25 -1.15 7.25 Q-4.4 11.0 -7.2 15.3 L-7.5 15.6 Q-6.3 10.95 -2.55 6.85 L-1.5 5.7 Q-4.1 2.8 -7.0 0.25 L-6.75 0.25 Q-3.7 2.4 -1.15 5.0 L-0.7 -10.4 Q-0.65 -11.2 0.1 -11.25 0.0 -3.65 0.2 3.95 L6.1 -1.9 8.5 -2.25" fill="#000000" fill-rule="evenodd" stroke="none"/>
    <path d="M1.8 -32.7 L4.25 -30.15 4.25 -29.75 4.3 -29.4 4.5 -29.0 5.1 -28.65 Q9.3 -23.35 11.85 -17.05 L12.2 -16.15 14.55 -10.05 15.0 -8.3 Q19.25 3.95 14.8 15.65 L12.1 17.85 10.1 18.35 Q10.9 19.65 12.35 18.6 L12.75 18.25 14.3 16.95 13.35 19.0 Q11.2 20.25 9.5 22.0 2.9 25.7 -4.5 23.6 L-4.9 23.35 Q-10.3 21.8 -14.4 18.15 L-14.4 18.1 -14.45 18.0 Q-11.35 19.1 -8.25 19.6 L-8.45 19.35 Q-11.5 18.05 -14.75 17.45 -21.3 4.5 -13.9 -8.15 L-13.95 -8.1 -15.65 -5.35 -13.9 -10.45 -13.75 -10.5 Q-11.85 -15.1 -9.35 -19.3 -8.15 -19.0 -6.65 -19.3 L7.0 -20.0 6.7 -20.25 Q3.15 -21.35 -0.5 -21.5 -2.75 -21.3 -5.15 -20.5 -7.1 -19.85 -9.15 -19.7 -4.8 -26.95 1.35 -33.0 L1.8 -32.7 M8.5 -2.25 L6.1 -1.9 0.2 3.95 Q0.0 -3.65 0.1 -11.25 -0.65 -11.2 -0.7 -10.4 L-1.15 5.0 Q-3.7 2.4 -6.75 0.25 L-7.0 0.25 Q-4.1 2.8 -1.5 5.7 L-2.55 6.85 Q-6.3 10.95 -7.5 15.6 L-7.2 15.3 Q-4.4 11.0 -1.15 7.25 L-1.0 19.25 -0.25 19.5 0.6 18.0 0.6 17.6 0.25 7.8 Q4.05 12.45 7.0 18.1 L7.1 17.95 Q4.55 11.5 0.25 6.5 L0.2 5.7 Q4.15 1.3 8.6 -2.25 L8.5 -2.25 M12.1 -16.15 L11.35 -16.5 Q5.45 -18.95 -1.0 -18.4 -4.1 -18.25 -7.25 -17.3 L-9.25 -16.65 -9.25 -16.5 Q1.75 -18.8 12.1 -16.15" fill="#926647" fill-rule="evenodd" stroke="none"/>
  </g>
</svg>
