<?xml version="1.0" encoding="UTF-8" standalone="no"?>
<svg xmlns:xlink="http://www.w3.org/1999/xlink" height="57.4px" width="37.55px" xmlns="http://www.w3.org/2000/svg">
  <g transform="matrix(1.0, 0.0, 0.0, 1.0, 18.8, 31.65)">
    <path d="M-17.65 2.65 L-18.55 2.65 -18.0 0.3 Q-16.65 -6.05 -13.35 -12.25 L-13.0 -12.35 Q-11.8 -15.2 -10.25 -17.85 -6.5 -24.4 -0.9 -30.05 L-0.65 -30.35 Q0.3 -31.35 1.5 -31.6 L1.75 -31.65 Q12.35 -22.0 15.7 -8.25 L15.8 -7.9 Q18.35 -2.7 18.7 2.65 L17.05 2.65 Q16.9 -2.35 15.0 -7.4 L14.55 -9.05 12.2 -14.65 11.85 -15.45 Q9.3 -21.25 5.1 -26.15 L4.5 -26.45 4.3 -26.8 4.25 -27.15 4.25 -27.5 1.8 -29.85 1.35 -30.15 Q-3.95 -25.35 -7.9 -19.75 L-9.5 -18.65 Q-9.7 -17.9 -10.1 -17.3 -11.8 -14.7 -12.6 -11.9 L-13.75 -9.45 -13.9 -9.4 -15.65 -4.75 -13.95 -7.25 -13.9 -7.3 Q-17.05 -2.35 -17.65 2.65 -18.55 10.0 -14.75 17.45 -11.5 18.05 -8.45 19.35 L-8.25 19.6 Q-11.35 19.1 -14.45 18.0 L-14.4 18.1 -14.4 18.15 Q-10.3 21.8 -4.9 23.35 L-4.5 23.6 Q2.9 25.7 9.5 22.0 11.2 20.25 13.35 19.0 L14.3 16.95 12.75 18.25 12.35 18.6 Q10.9 19.65 10.1 18.35 L12.1 17.85 14.8 15.65 Q17.25 9.2 17.05 2.65 L18.7 2.65 Q19.1 9.95 15.8 17.45 L15.2 18.75 15.55 18.95 15.75 19.1 13.95 20.5 Q13.15 21.5 12.3 21.7 9.45 23.65 6.4 25.2 L5.45 25.5 -4.9 25.0 Q-10.45 22.65 -14.65 18.5 L-14.75 18.6 -15.1 18.05 -15.5 17.6 -15.7 17.4 -16.15 16.9 Q-16.45 16.6 -15.9 16.75 L-15.7 16.95 Q-19.65 9.7 -18.55 2.65 L-17.65 2.65 M8.55 -1.8 L8.5 -1.85 8.6 -1.85 8.55 -1.8 M6.9 -15.6 L6.85 -15.9 7.2 -15.55 6.9 -15.6 M12.0 -14.7 L12.1 -14.65 12.0 -14.65 12.0 -14.7 M7.1 17.95 L7.0 18.1 7.0 18.05 7.1 17.95 M-6.85 0.55 L-7.0 0.45 -6.75 0.45 -6.85 0.55 M-7.2 15.3 L-7.5 15.6 -7.4 15.25 -7.2 15.3" fill="#000000" fill-rule="evenodd" stroke="none"/>
    <path d="M17.05 2.65 L-17.65 2.65 Q-17.05 -2.35 -13.9 -7.3 L-13.95 -7.25 -15.65 -4.75 -13.9 -9.4 -13.75 -9.45 -12.6 -11.9 Q-11.8 -14.7 -10.1 -17.3 -9.7 -17.9 -9.5 -18.65 L-7.9 -19.75 Q-3.95 -25.35 1.35 -30.15 L1.8 -29.85 4.25 -27.5 4.25 -27.15 4.3 -26.8 4.5 -26.45 5.1 -26.15 Q9.3 -21.25 11.85 -15.45 L12.2 -14.65 14.55 -9.05 15.0 -7.4 Q16.9 -2.35 17.05 2.65 17.25 9.2 14.8 15.65 L12.1 17.85 10.1 18.35 Q10.9 19.65 12.35 18.6 L12.75 18.25 14.3 16.95 13.35 19.0 Q11.2 20.25 9.5 22.0 2.9 25.7 -4.5 23.6 L-4.9 23.35 Q-10.3 21.8 -14.4 18.15 L-14.4 18.1 -14.45 18.0 Q-11.35 19.1 -8.25 19.6 L-8.45 19.35 Q-11.5 18.05 -14.75 17.45 -18.55 10.0 -17.65 2.65 L17.05 2.65 M12.0 -14.7 L12.0 -14.65 12.1 -14.65 12.0 -14.7 M6.9 -15.6 L7.2 -15.55 6.85 -15.9 6.9 -15.6 M8.55 -1.8 L8.6 -1.85 8.5 -1.85 8.55 -1.8 M-7.2 15.3 L-7.4 15.25 -7.5 15.6 -7.2 15.3 M-6.85 0.55 L-6.75 0.45 -7.0 0.45 -6.85 0.55 M7.1 17.95 L7.0 18.05 7.0 18.1 7.1 17.95" fill="#926647" fill-rule="evenodd" stroke="none"/>
  </g>
</svg>
