<?xml version="1.0" encoding="UTF-8" standalone="no"?>
<svg xmlns:xlink="http://www.w3.org/1999/xlink" height="30.85px" width="27.15px" xmlns="http://www.w3.org/2000/svg">
  <g transform="matrix(1.0, 0.0, 0.0, 1.0, 13.6, 15.45)">
    <path d="M7.05 -13.5 L7.55 -13.15 7.7 -13.1 8.05 -13.0 8.3 -12.7 9.2 -11.75 9.75 -11.1 9.8 -11.1 9.8 -11.05 10.25 -10.5 10.1 -10.95 Q10.0 -11.1 10.25 -11.05 15.35 -4.85 12.6 2.8 L12.55 3.0 12.55 4.75 12.55 4.95 12.9 5.5 12.65 5.9 11.8 6.25 11.9 6.4 Q13.55 8.15 13.1 10.4 L12.95 10.95 11.7 12.05 11.7 12.1 11.5 13.45 -6.15 14.4 -9.9 14.9 -11.8 15.35 Q-12.75 15.6 -13.5 15.0 L-13.6 11.6 -13.6 11.45 -12.05 1.05 -12.2 1.65 Q-12.2 -2.2 -10.7 -6.3 L-9.05 -9.6 Q-7.95 -11.25 -6.5 -12.6 -4.8 -13.35 -3.15 -14.25 L-1.9 -14.8 0.25 -15.45 Q3.95 -15.55 6.95 -13.45 L7.05 -13.5 M11.8 3.55 L11.75 3.55 6.8 2.65 1.5 2.85 -0.5 2.95 -6.55 2.6 -6.5 2.25 3.75 1.8 5.75 1.75 6.75 1.65 Q7.45 -3.3 5.6 -8.05 5.45 -8.35 5.8 -8.3 L6.35 -7.6 6.55 -7.35 Q8.45 -2.9 7.55 1.65 9.9 1.7 11.95 2.75 L12.0 2.45 12.0 2.25 12.05 2.25 Q12.7 -1.45 12.05 -5.1 10.95 -8.1 9.05 -10.7 L8.95 -10.75 Q8.45 -10.9 8.1 -11.3 L7.55 -12.1 Q2.55 -15.8 -3.3 -13.2 L-5.0 -12.0 Q-7.5 -10.95 -8.75 -8.35 -10.6 -4.4 -11.7 -0.25 -12.55 6.4 -12.5 13.1 L-12.55 14.05 -6.05 12.75 -0.4 12.35 0.9 12.3 7.0 11.95 6.8 10.4 -3.6 10.5 -4.75 10.45 -4.8 10.05 5.25 9.35 6.95 9.3 Q7.55 7.75 6.7 6.3 L6.6 6.15 Q0.35 5.6 -5.8 6.05 L-6.1 5.35 -5.95 5.3 -5.25 5.2 Q-2.4 5.35 0.5 5.15 L3.55 5.0 6.75 5.35 6.75 5.3 6.75 5.15 7.15 4.8 7.25 4.65 7.25 4.15 7.25 3.85 6.6 3.0 6.5 2.85 6.6 2.75 6.9 2.7 Q7.9 3.4 7.75 4.65 L7.75 4.8 7.5 5.15 7.3 5.3 7.3 5.4 10.9 5.9 10.9 5.55 Q11.35 5.2 11.9 5.05 L11.95 3.55 11.8 3.55 M12.25 8.95 Q11.3 7.85 11.05 6.65 L7.45 6.2 Q8.2 7.65 7.55 9.2 L7.55 9.35 Q9.8 9.45 12.0 10.2 L12.2 9.1 12.25 8.95 M10.9 12.0 L10.8 11.95 Q10.9 10.85 12.0 10.45 L12.0 10.3 7.6 10.4 7.6 11.5 7.55 11.85 7.5 11.95 10.65 12.3 10.9 12.0 M-10.65 6.2 L-10.65 6.25 -10.85 6.25 -10.65 6.2" fill="#000000" fill-rule="evenodd" stroke="none"/>
    <path d="M11.95 3.55 L11.9 5.05 Q11.35 5.2 10.9 5.55 L10.9 5.9 7.3 5.4 7.3 5.3 7.5 5.15 7.75 4.8 7.75 4.65 Q7.9 3.4 6.9 2.7 L6.6 2.75 6.5 2.85 6.6 3.0 7.25 3.85 7.25 4.15 7.25 4.65 7.15 4.8 6.75 5.15 6.75 5.3 6.75 5.35 3.55 5.0 0.5 5.15 Q-2.4 5.35 -5.25 5.2 L-5.95 5.3 -6.1 5.35 -5.8 6.05 Q0.35 5.6 6.6 6.15 L6.7 6.3 Q7.55 7.75 6.95 9.3 L5.25 9.35 -4.8 10.05 -4.75 10.45 -3.6 10.5 6.8 10.4 7.0 11.95 0.9 12.3 -0.4 12.35 -6.05 12.75 -12.55 14.05 -12.5 13.1 Q-12.55 6.4 -11.7 -0.25 -10.6 -4.4 -8.75 -8.35 -7.5 -10.95 -5.0 -12.0 L-3.3 -13.2 Q2.55 -15.8 7.55 -12.1 L8.1 -11.3 Q8.45 -10.9 8.95 -10.75 L9.05 -10.7 Q10.95 -8.1 12.05 -5.1 12.7 -1.45 12.05 2.25 L12.0 2.25 12.0 2.45 11.95 2.75 Q9.9 1.7 7.55 1.65 8.45 -2.9 6.55 -7.35 L6.35 -7.6 5.8 -8.3 Q5.45 -8.35 5.6 -8.05 7.45 -3.3 6.75 1.65 L5.75 1.75 3.75 1.8 -6.5 2.25 -6.55 2.6 -0.5 2.95 1.5 2.85 6.8 2.65 11.75 3.55 11.8 3.55 11.95 3.55 M10.9 12.0 L10.65 12.3 7.5 11.95 7.55 11.85 7.6 11.5 7.6 10.4 12.0 10.3 12.0 10.45 Q10.9 10.85 10.8 11.95 L10.9 12.0 M12.25 8.95 L12.2 9.1 12.0 10.2 Q9.8 9.45 7.55 9.35 L7.55 9.2 Q8.2 7.65 7.45 6.2 L11.05 6.65 Q11.3 7.85 12.25 8.95 M-10.65 6.2 L-10.85 6.25 -10.65 6.25 -10.65 6.2" fill="#70546f" fill-rule="evenodd" stroke="none"/>
  </g>
</svg>
