<?xml version="1.0" encoding="UTF-8" standalone="no"?>
<svg xmlns:xlink="http://www.w3.org/1999/xlink" height="58.15px" width="49.5px" xmlns="http://www.w3.org/2000/svg">
  <g transform="matrix(1.0, 0.0, 0.0, 1.0, 26.8, 33.1)">
    <path d="M1.15 -32.25 L1.15 -31.85 Q5.15 -26.6 8.35 -20.6 11.85 -18.8 14.65 -15.35 L16.7 -12.05 Q19.1 -7.05 20.0 -2.0 24.3 4.6 21.7 11.7 21.05 13.6 19.0 13.6 L18.0 16.5 17.1 18.35 17.1 18.4 16.75 18.85 16.25 19.55 16.3 19.65 16.15 19.7 Q14.25 21.95 11.75 23.3 L9.0 24.7 8.5 24.85 8.0 24.6 5.05 25.0 Q-4.05 25.45 -12.3 22.15 L-13.15 21.65 -15.45 20.6 -15.5 20.6 Q-18.85 19.05 -20.95 15.95 L-20.85 16.6 -20.8 16.8 Q-21.75 15.45 -22.1 13.9 L-22.2 13.4 -22.25 13.0 -22.35 13.0 Q-24.3 11.35 -25.6 9.25 -25.65 8.45 -26.15 7.75 L-26.5 7.35 Q-27.65 1.7 -24.1 -2.25 L-23.5 -4.45 -23.65 -4.5 -23.8 -4.7 -23.25 -5.3 -22.4 -7.5 -22.2 -7.9 -22.25 -8.05 -19.8 -11.25 Q-15.65 -16.6 -9.9 -19.75 L-8.8 -20.5 -8.05 -21.2 -3.6 -30.0 Q-2.35 -32.3 0.0 -33.1 L0.75 -33.0 1.15 -32.6 1.15 -32.25 M0.0 -31.1 L-0.6 -31.1 Q-3.3 -26.2 -6.55 -21.7 L-3.95 -22.35 Q1.8 -23.15 6.4 -21.45 L0.35 -30.7 0.0 -31.1 M18.65 7.8 Q19.05 3.75 18.15 -0.7 16.75 -7.25 13.75 -13.2 L13.15 -14.55 13.0 -14.5 12.4 -14.75 Q11.15 -17.55 8.1 -18.45 6.95 -18.85 6.0 -19.6 L3.5 -19.85 2.0 -20.1 2.1 -20.15 2.0 -20.15 -4.45 -20.45 -8.8 -18.8 -9.5 -17.95 -9.75 -17.9 -9.65 -18.4 -9.95 -18.2 Q-18.1 -14.0 -21.5 -5.6 L-20.9 -5.5 -21.35 -4.85 -21.7 -4.95 -21.55 -4.55 -21.5 -4.55 -21.95 -3.65 -22.1 -4.0 -22.2 -3.7 -23.2 0.15 Q-24.2 5.2 -22.3 9.75 -22.25 4.9 -21.05 0.1 L-20.15 -2.35 Q-15.15 -12.95 -4.5 -17.15 7.1 -18.65 12.7 -9.15 16.5 -2.75 18.05 4.45 L18.4 7.75 18.2 10.85 18.4 9.0 18.4 9.05 18.4 9.1 18.45 9.25 18.5 9.05 18.65 7.8 M-21.35 11.8 L-5.6 13.1 Q3.7 13.75 13.0 13.4 L15.05 13.15 Q16.15 13.0 17.1 13.15 18.3 7.25 16.45 1.2 13.9 -7.25 7.75 -13.25 5.7 -15.25 2.85 -15.65 -9.35 -17.3 -15.4 -7.55 L-18.25 -2.7 -20.1 1.9 Q-21.45 6.35 -21.4 10.95 L-21.2 11.4 -21.4 11.6 -21.4 11.7 -21.35 11.8 M-24.4 -0.65 L-24.3 -1.2 -24.55 -0.7 Q-26.2 2.35 -25.4 6.25 L-25.35 6.6 -24.05 9.1 -23.35 10.1 -23.75 8.95 -24.1 5.25 -24.6 4.5 -24.6 4.1 Q-24.5 3.4 -24.7 2.75 L-24.4 -0.65 M-5.25 10.1 L-16.3 8.95 Q-18.45 8.7 -20.0 7.5 L-20.1 7.1 -20.1 6.75 -20.0 6.35 -19.7 6.15 -19.5 6.0 -19.0 5.9 -18.5 5.8 -18.5 5.75 11.1 6.85 15.0 6.5 15.6 6.8 15.85 7.1 15.95 7.5 15.85 7.85 15.6 8.25 Q7.05 10.8 -2.15 10.35 L-5.25 10.1 M-18.85 15.2 L-18.7 15.5 Q-17.45 16.2 -16.6 17.35 L-16.5 17.5 Q-2.55 20.65 12.0 19.4 L13.4 19.25 16.15 16.65 16.25 16.35 16.25 16.1 16.45 15.7 16.95 13.95 Q1.4 16.7 -14.25 13.85 L-20.55 13.05 -19.55 14.4 -18.85 15.2 M-5.35 22.5 L-2.95 22.7 -2.85 22.75 -2.65 22.9 Q3.25 23.6 9.55 22.3 L12.2 20.25 Q0.3 21.65 -11.2 19.35 -13.95 18.8 -16.25 17.9 L-15.95 18.5 Q-13.5 19.85 -11.0 20.85 L-10.95 20.85 -10.95 20.75 -10.95 20.7 -10.05 21.15 -9.9 21.25 -9.85 21.25 -9.35 21.45 -9.25 21.45 -9.2 21.55 Q-7.5 22.3 -5.7 22.65 L-5.35 22.55 -5.35 22.5 M20.4 1.5 Q20.75 7.25 19.15 13.15 23.05 7.65 20.4 1.5" fill="#000000" fill-rule="evenodd" stroke="none"/>
    <path d="M-21.4 11.6 L-21.2 11.4 -21.4 10.95 Q-21.45 6.35 -20.1 1.9 L-18.25 -2.7 -15.4 -7.55 Q-9.35 -17.3 2.85 -15.65 5.7 -15.25 7.75 -13.25 13.9 -7.25 16.45 1.2 18.3 7.25 17.1 13.15 16.15 13.0 15.05 13.15 L13.0 13.4 Q3.7 13.75 -5.6 13.1 L-21.35 11.8 -21.4 11.6 M-11.0 20.85 Q-13.5 19.85 -15.95 18.5 L-16.25 17.9 Q-13.95 18.8 -11.2 19.35 0.3 21.65 12.2 20.25 L9.55 22.3 Q3.25 23.6 -2.65 22.9 L-2.85 22.75 -2.95 22.7 -5.35 22.5 -5.7 22.65 Q-7.5 22.3 -9.2 21.55 L-9.25 21.45 -9.35 21.45 -9.85 21.25 -9.9 21.25 -10.05 21.15 -10.95 20.7 -10.95 20.75 -10.95 20.85 -11.0 20.85 M-18.85 15.2 L-19.55 14.4 -20.55 13.05 -14.25 13.85 Q1.4 16.7 16.95 13.95 L16.45 15.7 16.25 16.1 16.25 16.35 16.15 16.65 13.4 19.25 12.0 19.4 Q-2.55 20.65 -16.5 17.5 L-16.6 17.35 Q-17.45 16.2 -18.7 15.5 L-18.85 15.2 M-5.25 10.1 L-2.15 10.35 Q7.05 10.8 15.6 8.25 L15.85 7.85 15.95 7.5 15.85 7.1 15.6 6.8 15.0 6.5 11.1 6.85 -18.5 5.75 -18.5 5.8 -19.0 5.9 -19.5 6.0 -19.7 6.15 -20.0 6.35 -20.1 6.75 -20.1 7.1 -20.0 7.5 Q-18.45 8.7 -16.3 8.95 L-5.25 10.1" fill="#999999" fill-rule="evenodd" stroke="none"/>
    <path d="M0.0 -31.1 L0.35 -30.7 6.4 -21.45 Q1.8 -23.15 -3.95 -22.35 L-6.55 -21.7 Q-3.3 -26.2 -0.6 -31.1 L0.0 -31.1 M2.0 -20.1 L3.5 -19.85 6.0 -19.6 Q6.95 -18.85 8.1 -18.45 11.15 -17.55 12.4 -14.75 L13.0 -14.5 13.15 -14.55 13.75 -13.2 Q16.75 -7.25 18.15 -0.7 19.05 3.75 18.65 7.8 L18.4 7.75 18.05 4.45 Q16.5 -2.75 12.7 -9.15 7.1 -18.65 -4.5 -17.15 -15.15 -12.95 -20.15 -2.35 L-21.05 0.1 Q-22.25 4.9 -22.3 9.75 -24.2 5.2 -23.2 0.15 L-22.2 -3.7 -21.95 -3.65 -21.5 -4.55 -21.55 -4.55 -21.7 -4.95 -21.35 -4.85 -20.9 -5.5 -21.5 -5.6 Q-18.1 -14.0 -9.95 -18.2 L-9.75 -17.9 -9.5 -17.95 -8.8 -18.8 -4.45 -20.45 2.0 -20.15 2.0 -20.1" fill="#878787" fill-rule="evenodd" stroke="none"/>
    <path d="M-24.55 -0.7 L-24.4 -0.65 -24.7 2.75 Q-24.5 3.4 -24.6 4.1 L-24.6 4.5 -24.1 5.25 -23.75 8.95 -24.05 9.1 -25.35 6.6 -25.4 6.25 Q-26.2 2.35 -24.55 -0.7 M20.4 1.5 Q23.05 7.65 19.15 13.15 20.75 7.25 20.4 1.5" fill="#70546f" fill-rule="evenodd" stroke="none"/>
  </g>
</svg>
