<?xml version="1.0" encoding="UTF-8" standalone="no"?>
<svg xmlns:xlink="http://www.w3.org/1999/xlink" height="54.45px" width="42.9px" xmlns="http://www.w3.org/2000/svg">
  <g transform="matrix(1.0, 0.0, 0.0, 1.0, 20.7, 46.5)">
    <path d="M1.25 -46.5 Q6.7 -40.8 9.3 -33.4 L9.5 -33.0 9.3 -32.9 13.15 -31.6 14.1 -31.0 Q18.0 -28.55 20.85 -25.05 L21.8 -21.05 22.2 -18.5 21.45 -10.9 Q20.8 -5.65 18.55 -1.8 L18.75 -1.75 18.75 -1.4 18.6 -1.0 18.5 -0.75 17.75 -0.5 Q16.15 1.7 13.95 3.45 L14.5 3.5 13.55 3.75 Q10.35 6.1 5.85 7.4 L0.45 7.8 Q-9.6 6.5 -15.95 -0.65 L-16.0 -0.4 -16.1 -0.8 -16.75 -1.6 -17.25 -2.3 -18.25 -2.9 -19.2 -5.3 -19.2 -5.35 -19.05 -5.3 -19.1 -5.9 Q-22.45 -14.8 -18.8 -23.7 -17.75 -26.25 -15.7 -28.2 -11.3 -32.3 -5.8 -33.7 -4.1 -39.75 -0.5 -45.35 L0.5 -46.4 1.0 -46.5 1.25 -46.5 M1.0 -44.65 Q-2.55 -39.85 -4.25 -34.05 L-3.0 -34.25 Q2.9 -34.5 8.4 -33.1 5.75 -39.15 1.35 -44.25 L1.0 -44.65 M9.75 -31.8 Q3.2 -33.7 -3.75 -32.65 L-4.9 -32.35 -5.25 -32.0 -5.95 -32.1 Q-16.1 -29.05 -18.65 -19.05 -18.2 -17.7 -17.0 -16.6 -16.0 -18.6 -14.5 -20.4 -9.25 -26.75 -0.75 -26.6 L1.5 -26.75 Q14.1 -28.0 19.9 -17.45 L20.5 -16.55 20.45 -18.75 Q20.3 -21.6 19.55 -24.3 L19.0 -25.0 Q15.85 -30.0 9.75 -31.8 M19.85 -10.85 L19.85 -10.9 19.75 -10.9 Q19.4 -12.7 18.35 -14.25 14.4 -20.15 7.25 -21.65 -1.05 -23.45 -7.7 -18.75 -12.7 -15.2 -14.9 -9.55 -15.75 -7.3 -15.7 -4.75 L-15.65 -4.05 Q-4.6 -0.3 7.2 -0.95 L11.0 -1.6 Q13.9 -2.4 16.45 -2.2 18.9 -6.3 19.85 -10.85 M20.05 -11.8 L20.45 -15.55 Q14.15 -27.0 0.3 -25.5 -4.5 -25.0 -8.85 -23.05 -13.9 -20.8 -16.1 -15.8 -17.8 -12.1 -18.15 -8.15 L-16.55 -4.55 Q-16.65 -8.9 -14.55 -12.9 -10.55 -20.45 -2.5 -23.25 9.05 -24.75 17.0 -17.15 19.35 -14.9 20.05 -11.8 M10.5 3.25 L11.6 3.3 Q13.45 2.1 14.85 0.25 2.5 3.2 -10.1 0.35 L-13.75 -0.7 -12.85 0.2 -9.1 2.9 -8.5 3.2 Q-1.0 4.4 6.45 3.5 L10.5 3.25 M-18.85 -18.1 Q-19.5 -15.15 -19.1 -12.25 L-18.9 -11.0 Q-18.45 -13.75 -17.2 -16.2 -18.35 -17.0 -18.85 -18.1 M8.1 4.8 Q0.65 5.7 -6.65 4.1 0.55 7.05 8.1 4.8" fill="#000000" fill-rule="evenodd" stroke="none"/>
    <path d="M19.75 -10.9 L19.85 -10.85 Q18.9 -6.3 16.45 -2.2 13.9 -2.4 11.0 -1.6 L7.2 -0.95 Q-4.6 -0.3 -15.65 -4.05 L-15.7 -4.75 Q-15.75 -7.3 -14.9 -9.55 -12.7 -15.2 -7.7 -18.75 -1.05 -23.45 7.25 -21.65 14.4 -20.15 18.35 -14.25 19.4 -12.7 19.75 -10.9 M10.5 3.25 L6.45 3.5 Q-1.0 4.4 -8.5 3.2 L-9.1 2.9 -12.85 0.2 -13.75 -0.7 -10.1 0.35 Q2.5 3.2 14.85 0.25 13.45 2.1 11.6 3.3 L10.5 3.25" fill="#999999" fill-rule="evenodd" stroke="none"/>
    <path d="M1.0 -44.65 L1.35 -44.25 Q5.75 -39.15 8.4 -33.1 2.9 -34.5 -3.0 -34.25 L-4.25 -34.05 Q-2.55 -39.85 1.0 -44.65 M20.05 -11.8 Q19.35 -14.9 17.0 -17.15 9.05 -24.75 -2.5 -23.25 -10.55 -20.45 -14.55 -12.9 -16.65 -8.9 -16.55 -4.55 L-18.15 -8.15 Q-17.8 -12.1 -16.1 -15.8 -13.9 -20.8 -8.85 -23.05 -4.5 -25.0 0.3 -25.5 14.15 -27.0 20.45 -15.55 L20.05 -11.8 M8.1 4.8 Q0.55 7.05 -6.65 4.1 0.65 5.7 8.1 4.8" fill="#878787" fill-rule="evenodd" stroke="none"/>
    <path d="M9.75 -31.8 Q15.85 -30.0 19.0 -25.0 L19.55 -24.3 Q20.3 -21.6 20.45 -18.75 L20.5 -16.55 19.9 -17.45 Q14.1 -28.0 1.5 -26.75 L-0.75 -26.6 Q-9.25 -26.75 -14.5 -20.4 -16.0 -18.6 -17.0 -16.6 -18.2 -17.7 -18.65 -19.05 -16.1 -29.05 -5.95 -32.1 L-5.25 -32.0 -4.9 -32.35 -3.75 -32.65 Q3.2 -33.7 9.75 -31.8 M-18.85 -18.1 Q-18.35 -17.0 -17.2 -16.2 -18.45 -13.75 -18.9 -11.0 L-19.1 -12.25 Q-19.5 -15.15 -18.85 -18.1" fill="#70546f" fill-rule="evenodd" stroke="none"/>
  </g>
</svg>
