<?xml version="1.0" encoding="UTF-8" standalone="no"?>
<svg xmlns:xlink="http://www.w3.org/1999/xlink" height="58.2px" width="49.4px" xmlns="http://www.w3.org/2000/svg">
  <g transform="matrix(1.0, 0.0, 0.0, 1.0, 26.7, 33.1)">
    <path d="M0.0 -33.1 L0.75 -33.0 1.15 -32.6 1.35 -32.0 4.85 -26.35 Q6.65 -23.5 9.05 -21.45 13.0 -18.15 15.75 -13.65 18.25 -9.45 19.65 -4.5 20.25 -2.4 21.15 -0.35 22.6 2.8 22.7 6.5 22.75 9.2 21.8 11.75 21.1 13.65 19.0 13.6 L17.55 17.4 Q17.1 18.6 16.25 19.6 L15.2 20.8 Q12.4 23.55 8.5 24.85 L8.0 24.6 -1.6 24.9 Q-4.75 24.55 -8.05 23.6 L-12.2 21.95 -14.3 21.05 Q-18.5 19.55 -20.95 15.95 L-20.8 16.8 -22.25 13.0 -22.35 13.0 -24.05 11.2 Q-24.85 10.25 -25.25 9.1 -25.6 8.25 -26.5 7.35 L-26.6 6.3 Q-27.2 1.5 -24.15 -2.0 -23.75 -3.15 -23.65 -4.45 L-23.8 -4.7 -23.4 -5.35 -22.05 -7.8 -19.75 -11.2 Q-15.65 -16.4 -9.85 -19.7 -8.8 -20.25 -8.2 -21.25 L-3.55 -30.0 Q-2.35 -32.2 0.0 -33.1 M0.0 -31.1 L-0.6 -31.1 Q-2.9 -26.95 -5.55 -23.05 -8.65 -17.65 -7.85 -11.4 L-7.85 -11.35 -7.8 -11.2 -8.1 -10.8 Q-6.3 -9.15 -3.45 -9.25 L-3.0 -9.25 Q2.0 -8.95 6.7 -10.25 7.25 -18.1 3.3 -25.15 L0.15 -30.95 0.0 -31.1 M12.4 -14.75 Q11.55 -16.75 9.55 -17.85 L9.1 -18.05 8.3 -18.8 8.3 -18.75 7.95 -18.6 7.8 -18.5 Q7.65 -17.8 7.8 -17.1 8.25 -14.9 8.35 -12.7 7.95 -10.9 7.2 -9.2 7.05 -8.85 6.55 -8.75 -0.25 -7.2 -7.05 -8.75 -9.15 -9.25 -9.4 -11.25 L-9.45 -11.45 Q-9.55 -15.2 -8.75 -18.75 L-9.65 -18.3 -9.95 -18.2 Q-13.95 -16.1 -17.2 -12.75 -20.8 -8.95 -22.05 -3.95 L-22.2 -3.7 -22.2 -3.6 Q-19.15 -4.7 -15.7 -5.0 L2.4 -6.2 Q9.0 -6.0 15.3 -3.8 17.0 -3.2 18.25 -1.95 L18.1 -2.45 16.1 -7.9 13.15 -14.55 12.4 -14.75 M18.35 9.65 L18.45 9.2 18.65 7.8 Q19.6 3.05 18.4 -1.5 L18.15 -1.45 Q13.35 -4.4 7.6 -5.05 0.5 -5.8 -6.65 -4.8 L-9.0 -4.6 Q-15.15 -4.35 -21.25 -3.15 L-21.55 -2.85 -22.5 -2.45 -23.1 0.15 Q-24.25 6.2 -21.5 11.55 L-20.45 13.35 Q-20.35 8.75 -18.9 4.5 L-18.7 4.4 -17.55 4.2 -17.3 4.15 -12.95 3.65 Q-8.3 3.45 -3.7 3.6 L4.85 4.1 Q9.2 4.45 12.65 6.85 L12.65 7.05 12.65 7.2 12.95 7.95 13.6 10.7 Q14.5 14.55 14.6 18.55 17.65 15.15 18.25 10.55 L18.25 10.35 18.25 10.4 18.35 9.65 M10.4 6.55 Q5.9 4.5 0.95 4.85 -1.85 5.0 -4.6 4.75 -10.45 4.25 -16.25 4.95 L-18.2 5.5 -18.35 6.15 -18.75 8.45 Q-19.4 11.6 -19.35 14.85 L-16.1 17.95 -15.95 18.5 -13.55 19.85 Q-9.95 21.9 -5.7 22.65 L-5.35 22.5 3.7 23.1 Q9.4 23.5 13.55 19.6 L14.05 19.15 13.95 17.3 Q13.6 12.05 11.85 7.2 L10.4 6.55 M20.4 1.5 Q20.75 7.25 19.15 13.15 23.05 7.65 20.4 1.5 M-8.0 -19.05 L-8.5 -15.1 -8.45 -15.05 Q-8.4 -17.1 -7.9 -19.1 L-8.0 -19.05 M-23.75 8.95 L-24.6 4.5 -24.4 -0.1 Q-25.7 2.25 -25.35 5.1 L-25.35 5.3 -25.45 5.5 -24.7 7.9 -24.05 9.1 -23.35 10.1 -23.75 8.95" fill="#000000" fill-rule="evenodd" stroke="none"/>
    <path d="M0.0 -31.1 L0.15 -30.95 3.3 -25.15 Q7.25 -18.1 6.7 -10.25 2.0 -8.95 -3.0 -9.25 L-3.45 -9.25 Q-6.3 -9.15 -8.1 -10.8 L-7.8 -11.2 -7.85 -11.35 -7.85 -11.4 Q-8.65 -17.65 -5.55 -23.05 -2.9 -26.95 -0.6 -31.1 L0.0 -31.1 M-8.0 -19.05 L-7.9 -19.1 Q-8.4 -17.1 -8.45 -15.05 L-8.5 -15.1 -8.0 -19.05" fill="#878787" fill-rule="evenodd" stroke="none"/>
    <path d="M18.25 10.35 L18.25 10.55 Q17.65 15.15 14.6 18.55 14.5 14.55 13.6 10.7 L12.95 7.95 12.65 7.2 12.65 7.05 12.65 6.85 Q9.2 4.45 4.85 4.1 L-3.7 3.6 Q-8.3 3.45 -12.95 3.65 L-17.3 4.15 -17.55 4.2 -18.7 4.4 -18.9 4.5 Q-20.35 8.75 -20.45 13.35 L-21.5 11.55 Q-24.25 6.2 -23.1 0.15 L-22.5 -2.45 -21.55 -2.85 -21.25 -3.15 Q-15.15 -4.35 -9.0 -4.6 L-6.65 -4.8 Q0.5 -5.8 7.6 -5.05 13.35 -4.4 18.15 -1.45 L18.4 -1.5 Q19.6 3.05 18.65 7.8 L18.45 9.2 18.35 9.65 18.25 10.35 M12.4 -14.75 L13.15 -14.55 16.1 -7.9 18.1 -2.45 18.25 -1.95 Q17.0 -3.2 15.3 -3.8 9.0 -6.0 2.4 -6.2 L-15.7 -5.0 Q-19.15 -4.7 -22.2 -3.6 L-22.2 -3.7 -22.05 -3.95 Q-20.8 -8.95 -17.2 -12.75 -13.95 -16.1 -9.95 -18.2 L-9.65 -18.3 -8.75 -18.75 Q-9.55 -15.2 -9.45 -11.45 L-9.4 -11.25 Q-9.15 -9.25 -7.05 -8.75 -0.25 -7.2 6.55 -8.75 7.05 -8.85 7.2 -9.2 7.95 -10.9 8.35 -12.7 8.25 -14.9 7.8 -17.1 7.65 -17.8 7.8 -18.5 L7.95 -18.6 8.3 -18.75 8.3 -18.8 9.1 -18.05 9.55 -17.85 Q11.55 -16.75 12.4 -14.75 M10.4 6.55 L11.85 7.2 Q13.6 12.05 13.95 17.3 L14.05 19.15 13.55 19.6 Q9.4 23.5 3.7 23.1 L-5.35 22.5 -5.7 22.65 Q-9.95 21.9 -13.55 19.85 L-15.95 18.5 -16.1 17.95 -19.35 14.85 Q-19.4 11.6 -18.75 8.45 L-18.35 6.15 -18.2 5.5 -16.25 4.95 Q-10.45 4.25 -4.6 4.75 -1.85 5.0 0.95 4.85 5.9 4.5 10.4 6.55 M20.4 1.5 Q23.05 7.65 19.15 13.15 20.75 7.25 20.4 1.5 M-24.05 9.1 L-24.7 7.9 -25.45 5.5 -25.35 5.3 -25.35 5.1 Q-25.7 2.25 -24.4 -0.1 L-24.6 4.5 -23.75 8.95 -24.05 9.1" fill="#70546f" fill-rule="evenodd" stroke="none"/>
  </g>
</svg>
