<?xml version="1.0" encoding="UTF-8" standalone="no"?>
<svg xmlns:xlink="http://www.w3.org/1999/xlink" height="54.45px" width="45.15px" xmlns="http://www.w3.org/2000/svg">
  <g transform="matrix(1.0, 0.0, 0.0, 1.0, 22.0, 31.65)">
    <path d="M-6.95 -23.1 L-8.3 -23.7 Q-13.15 -25.8 -17.45 -28.8 L-18.65 -29.55 -18.85 -23.7 -18.75 -18.9 -18.7 -16.45 -18.6 -12.0 Q-14.6 -19.65 -6.85 -22.9 L-6.65 -23.0 -6.95 -23.1 M-17.45 -30.1 Q-12.6 -26.7 -7.05 -24.4 L-5.2 -23.55 -1.25 -24.6 Q10.35 -26.25 17.35 -17.6 L19.4 -14.3 Q24.15 -4.55 22.9 5.5 L22.9 5.6 22.9 5.7 Q22.3 9.95 20.7 14.25 20.25 15.5 19.45 16.6 L18.95 17.3 19.0 17.4 18.85 17.45 Q14.75 22.4 7.75 22.75 -1.35 23.2 -9.6 19.9 -10.0 19.5 -10.45 19.4 -14.0 18.3 -15.5 15.05 L-15.75 14.65 -16.3 14.2 -17.5 13.15 Q-23.2 5.9 -21.7 -2.9 L-20.8 -6.7 -20.95 -6.75 -21.1 -6.95 -20.55 -7.55 -19.7 -9.75 -19.5 -10.15 Q-20.0 -12.8 -19.95 -15.55 L-20.0 -20.35 -19.9 -25.25 -19.9 -30.0 Q-19.95 -30.9 -19.4 -31.55 L-19.3 -31.6 -19.1 -31.65 -18.8 -31.55 -17.55 -30.2 -17.45 -30.1 M4.7 -22.4 L-1.75 -22.7 Q-14.3 -18.9 -18.8 -7.85 L-18.35 -7.75 -18.5 -7.5 Q-11.9 -5.45 -5.0 -5.1 L-3.4 -4.85 Q-2.45 -7.95 -0.65 -10.75 2.4 -15.65 6.75 -19.3 L9.2 -21.0 9.85 -21.3 9.0 -21.75 8.8 -21.7 8.15 -21.65 4.7 -22.35 4.8 -22.4 4.7 -22.4 M-1.15 20.9 L-1.25 20.8 -1.3 20.45 -1.35 20.25 Q-4.25 15.7 -4.8 10.3 -5.15 6.8 -4.85 3.4 L-7.1 3.15 Q-7.0 6.7 -10.25 9.15 -12.85 11.15 -15.85 9.6 -19.45 7.7 -20.4 3.9 L-20.55 3.05 -20.65 0.65 -20.6 0.35 Q-20.15 -2.85 -16.9 -4.65 L-15.65 -5.25 -15.0 -5.25 -15.6 -5.35 -16.8 -5.6 -19.05 -6.25 -19.2 -5.8 -19.4 -6.25 -20.5 -2.1 -20.85 0.45 -20.85 0.6 -20.85 0.65 -20.75 3.1 -20.65 3.8 Q-20.3 6.25 -19.1 8.6 L-19.1 8.65 -18.95 8.45 -18.55 9.2 -18.7 9.4 -16.85 12.15 -16.15 12.95 -16.0 13.25 Q-14.75 13.95 -13.9 15.1 -13.5 15.65 -13.25 16.25 L-9.75 18.0 Q-8.1 19.05 -6.15 19.75 L-4.6 20.2 -1.3 21.0 -1.0 21.1 -1.15 20.9 M-12.8 -4.1 L-13.55 -4.2 -13.9 -4.25 Q-18.4 -4.15 -19.25 -0.15 L-19.4 0.6 Q-19.75 3.4 -18.55 5.5 -17.8 6.8 -16.45 7.8 -13.85 9.8 -11.2 8.3 -7.9 6.5 -8.2 2.7 -8.45 -1.0 -11.2 -2.55 -11.8 -3.45 -12.85 -3.9 L-12.4 -4.0 -12.55 -4.05 -12.8 -4.1 M-3.6 -4.1 L-12.6 -4.8 Q-9.05 -3.7 -7.65 0.5 L-7.25 1.9 -7.15 1.9 Q-5.7 1.7 -4.75 2.4 -4.5 -0.55 -3.8 -3.4 L-3.6 -4.1 M1.35 4.45 L1.6 4.35 1.8 4.25 2.0 4.15 8.15 4.65 21.4 5.15 Q21.7 1.3 20.85 -2.95 19.4 -9.75 16.2 -15.95 L14.9 -17.9 Q8.5 -15.5 5.2 -9.4 1.8 -3.05 1.25 4.25 L1.25 4.5 1.3 4.45 1.35 4.45 M4.0 20.85 L3.9 20.6 3.25 19.45 3.25 19.25 3.25 19.05 3.2 18.9 3.0 18.7 2.65 17.15 Q2.4 16.35 1.75 15.7 0.25 11.65 0.2 7.3 L0.15 7.15 0.15 6.95 0.15 6.75 0.15 6.6 0.15 6.4 0.15 6.2 0.15 5.85 0.0 5.65 -0.05 5.45 -0.1 5.25 -0.05 5.1 0.05 4.9 0.15 4.75 0.3 4.7 Q0.65 -1.25 2.75 -6.9 3.8 -9.7 5.55 -12.1 8.85 -16.75 14.15 -18.6 12.45 -19.9 10.6 -20.9 4.7 -17.6 1.1 -11.8 -2.9 -5.4 -3.9 2.0 -4.9 9.55 -2.05 16.6 -1.05 19.1 0.65 21.15 L0.7 21.4 Q2.35 21.55 3.8 20.9 L4.05 20.9 4.0 20.85 M20.5 9.9 L20.7 9.15 21.1 7.6 20.5 7.7 10.85 8.0 7.25 7.95 1.2 7.55 Q1.3 9.8 1.8 11.95 L4.0 12.1 4.75 12.3 Q12.35 12.75 19.7 11.2 L20.0 11.15 20.55 11.25 20.5 9.9 M3.7 17.75 L3.95 18.15 4.15 18.5 4.25 18.7 4.25 18.9 4.25 19.05 5.05 20.3 5.4 20.9 Q9.5 20.75 13.85 19.65 L14.8 19.1 15.75 18.75 16.55 17.7 16.0 17.75 Q16.15 17.6 16.35 17.5 10.05 18.75 3.65 17.6 L3.7 17.75 M2.0 12.95 Q2.4 14.6 3.1 16.3 10.2 17.6 17.25 16.35 L17.5 16.3 17.6 16.2 19.85 13.1 20.45 11.75 Q13.5 13.75 6.0 13.5 L4.0 13.55 2.0 12.95" fill="#000000" fill-rule="evenodd" stroke="none"/>
    <path d="M1.25 4.25 Q1.8 -3.05 5.2 -9.4 8.5 -15.5 14.9 -17.9 L16.2 -15.95 Q19.4 -9.75 20.85 -2.95 21.7 1.3 21.4 5.15 L8.15 4.65 2.0 4.15 1.8 4.25 1.6 4.35 1.35 4.45 1.25 4.25 M20.5 9.9 L20.55 11.25 20.0 11.15 19.7 11.2 Q12.35 12.75 4.75 12.3 L4.0 12.1 1.8 11.95 Q1.3 9.8 1.2 7.55 L7.25 7.95 10.85 8.0 20.5 7.7 21.1 7.6 20.7 9.15 20.5 9.9 M2.0 12.95 L4.0 13.55 6.0 13.5 Q13.5 13.75 20.45 11.75 L19.85 13.1 17.6 16.2 17.5 16.3 17.25 16.35 Q10.2 17.6 3.1 16.3 2.4 14.6 2.0 12.95 M3.7 17.75 L3.65 17.6 Q10.05 18.75 16.35 17.5 16.15 17.6 16.0 17.75 L16.55 17.7 15.75 18.75 14.8 19.1 13.85 19.65 Q9.5 20.75 5.4 20.9 L5.05 20.3 4.25 19.05 4.25 18.9 4.25 18.7 4.15 18.5 3.95 18.15 3.7 17.75" fill="#999999" fill-rule="evenodd" stroke="none"/>
    <path d="M-6.85 -22.9 Q-14.6 -19.65 -18.6 -12.0 L-18.7 -16.45 -18.75 -18.9 -18.85 -23.7 -18.65 -29.55 -17.45 -28.8 Q-13.15 -25.8 -8.3 -23.7 L-6.95 -23.1 -6.85 -22.9 M3.8 20.9 Q2.35 21.55 0.7 21.4 L0.65 21.15 Q-1.05 19.1 -2.05 16.6 -4.9 9.55 -3.9 2.0 -2.9 -5.4 1.1 -11.8 4.7 -17.6 10.6 -20.9 12.45 -19.9 14.15 -18.6 8.85 -16.75 5.55 -12.1 3.8 -9.7 2.75 -6.9 0.65 -1.25 0.3 4.7 L0.15 4.75 0.05 4.9 -0.05 5.1 -0.1 5.25 -0.05 5.45 0.0 5.65 0.15 5.85 0.15 6.2 0.15 6.4 0.15 6.6 0.15 6.75 0.15 6.95 0.15 7.15 0.2 7.3 Q0.25 11.65 1.75 15.7 2.4 16.35 2.65 17.15 L3.0 18.7 3.2 18.9 3.25 19.05 3.25 19.25 3.25 19.45 3.9 20.6 4.0 20.85 3.8 20.9" fill="#878787" fill-rule="evenodd" stroke="none"/>
    <path d="M4.7 -22.35 L8.15 -21.65 8.8 -21.7 9.0 -21.75 9.85 -21.3 9.2 -21.0 6.75 -19.3 Q2.4 -15.65 -0.65 -10.75 -2.45 -7.95 -3.4 -4.85 L-5.0 -5.1 Q-11.9 -5.45 -18.5 -7.5 L-18.35 -7.75 -18.8 -7.85 Q-14.3 -18.9 -1.75 -22.7 L4.7 -22.4 4.7 -22.35 M-15.65 -5.25 L-16.9 -4.65 Q-20.15 -2.85 -20.6 0.35 L-20.65 0.65 -20.55 3.05 -20.4 3.9 Q-19.45 7.7 -15.85 9.6 -12.85 11.15 -10.25 9.15 -7.0 6.7 -7.1 3.15 L-4.85 3.4 Q-5.15 6.8 -4.8 10.3 -4.25 15.7 -1.35 20.25 L-1.3 20.45 -1.25 20.8 -1.15 20.9 -1.3 21.0 -4.6 20.2 -6.15 19.75 Q-8.1 19.05 -9.75 18.0 L-13.25 16.25 Q-13.5 15.65 -13.9 15.1 -14.75 13.95 -16.0 13.25 L-16.15 12.95 -16.85 12.15 -18.7 9.4 -18.55 9.2 -18.95 8.45 -19.1 8.65 -19.1 8.6 Q-20.3 6.25 -20.65 3.8 L-20.75 3.1 -20.85 0.65 -20.85 0.6 -20.85 0.45 -20.5 -2.1 -19.4 -6.25 -19.2 -5.8 -19.05 -6.25 -16.8 -5.6 -15.6 -5.35 -15.65 -5.25 M-12.85 -3.9 Q-11.8 -3.45 -11.2 -2.55 -8.45 -1.0 -8.2 2.7 -7.9 6.5 -11.2 8.3 -13.85 9.8 -16.45 7.8 -17.8 6.8 -18.55 5.5 -19.75 3.4 -19.4 0.6 L-19.25 -0.15 Q-18.4 -4.15 -13.9 -4.25 L-13.55 -4.2 -12.8 -4.1 -12.85 -3.9 M-3.6 -4.1 L-3.8 -3.4 Q-4.5 -0.55 -4.75 2.4 -5.7 1.7 -7.15 1.9 L-7.25 1.9 -7.65 0.5 Q-9.05 -3.7 -12.6 -4.8 L-3.6 -4.1" fill="#70546f" fill-rule="evenodd" stroke="none"/>
  </g>
</svg>
