<?xml version="1.0" encoding="UTF-8" standalone="no"?>
<svg xmlns:xlink="http://www.w3.org/1999/xlink" height="54.45px" width="45.15px" xmlns="http://www.w3.org/2000/svg">
  <g transform="matrix(1.0, 0.0, 0.0, 1.0, 17.25, 49.9)">
    <path d="M24.15 -32.55 Q30.95 -18.55 25.45 -4.0 25.0 -2.75 24.2 -1.65 L23.7 -0.95 23.75 -0.85 23.6 -0.8 Q19.5 4.15 12.5 4.5 3.4 4.95 -4.85 1.65 -5.25 1.25 -5.7 1.15 -9.25 0.05 -10.75 -3.2 L-11.0 -3.6 -11.55 -4.05 -12.75 -5.1 Q-18.45 -12.35 -16.95 -21.15 L-16.05 -24.95 -16.2 -25.0 -16.35 -25.2 -15.8 -25.8 -14.95 -28.0 -14.75 -28.4 Q-15.25 -31.05 -15.2 -33.8 L-15.25 -38.6 -15.15 -43.5 -15.15 -48.25 Q-15.2 -49.15 -14.65 -49.8 L-14.55 -49.85 -14.35 -49.9 -14.05 -49.8 -12.8 -48.45 -12.7 -48.35 Q-7.85 -44.95 -2.3 -42.65 L-0.45 -41.8 3.5 -42.85 Q15.1 -44.5 22.1 -35.85 L24.15 -32.55 M1.9 1.3 L0.5 -0.35 -0.15 -1.25 -0.9 -2.1 -0.9 -2.3 -1.55 -3.45 -2.3 -4.9 -3.35 -10.3 -3.4 -10.6 -3.35 -11.2 -3.5 -11.25 -3.7 -13.45 -3.5 -13.6 -3.3 -13.6 -3.2 -15.85 -2.35 -21.45 Q-0.55 -26.35 2.75 -30.25 5.95 -34.05 9.95 -36.65 L10.0 -36.65 12.55 -37.45 13.1 -37.6 14.75 -38.0 15.2 -38.1 15.5 -38.1 17.0 -38.3 17.3 -38.25 17.5 -38.25 17.4 -38.35 17.55 -38.6 17.55 -38.7 Q16.4 -40.5 14.05 -40.1 L13.55 -39.95 11.75 -39.85 Q8.95 -39.7 6.75 -37.8 2.15 -33.75 -1.75 -28.85 -3.55 -26.6 -4.65 -24.05 L-4.5 -24.0 -4.6 -23.85 -4.7 -23.85 Q-5.8 -21.3 -6.2 -18.4 L-6.55 -17.15 -6.55 -16.7 -6.75 -16.45 -6.75 -16.1 -6.75 -13.85 -6.65 -13.7 Q-6.6 -10.8 -6.0 -7.95 L-5.85 -7.25 -5.9 -7.1 -5.8 -6.85 -5.6 -5.95 -5.3 -5.7 Q-4.45 -3.1 -3.1 -0.65 L-2.45 0.15 -2.5 0.25 -2.6 0.65 -2.45 0.75 -2.4 0.75 -1.8 0.95 -1.75 1.05 Q-0.05 1.8 1.75 2.15 L2.1 2.05 2.05 1.6 2.05 1.5 1.9 1.3 M9.55 -40.65 L3.0 -40.95 Q-9.55 -37.15 -14.05 -26.1 L-5.6 -24.25 Q-3.1 -30.55 2.25 -35.6 L5.4 -38.35 Q7.3 -39.9 9.55 -40.65 M25.95 -11.45 Q26.65 -16.05 25.6 -21.2 24.15 -28.0 20.95 -34.2 20.05 -35.9 18.55 -37.35 L12.9 -36.8 Q11.1 -36.25 9.5 -35.3 L9.5 -35.35 8.85 -34.95 4.65 -31.45 4.45 -31.25 2.55 -28.85 Q0.05 -25.3 -1.6 -21.2 -2.5 -17.7 -2.7 -14.1 L-2.7 -13.55 2.75 -13.2 3.05 -13.2 17.8 -11.85 25.6 -11.65 25.85 -11.45 25.9 -11.25 25.95 -11.45 M1.15 -1.0 L1.35 -0.55 1.8 -0.1 2.15 0.25 2.2 0.25 2.5 0.5 2.5 0.55 4.6 2.25 4.8 2.4 Q11.45 3.2 18.6 1.4 L19.55 0.85 20.5 0.5 21.3 -0.55 Q14.9 0.15 8.25 -0.4 L4.1 -1.0 3.5 -1.05 2.85 -1.25 2.6 -1.15 0.35 -2.05 1.0 -1.35 1.15 -1.0 M1.5 -2.35 Q11.65 0.4 21.85 -1.3 L24.3 -5.7 Q13.75 -3.05 2.45 -4.35 0.5 -4.6 -1.3 -5.25 L-0.65 -3.75 -0.6 -3.75 -0.45 -3.4 -0.15 -2.8 1.45 -2.25 1.5 -2.3 1.5 -2.35 M25.5 -9.2 Q11.15 -8.05 -2.65 -11.0 -2.5 -8.8 -1.85 -6.75 10.9 -3.95 24.45 -6.0 L25.5 -9.2 M-3.55 -41.95 Q-8.4 -44.05 -12.7 -47.05 L-13.9 -47.8 -14.1 -41.95 -14.0 -37.15 -13.95 -34.7 -13.85 -30.25 Q-9.8 -38.0 -1.9 -41.25 L-2.2 -41.35 -3.55 -41.95 M-14.1 -25.05 Q-11.7 -22.1 -11.05 -18.35 L-10.85 -18.1 -10.75 -17.2 -9.5 -17.55 -9.5 -17.6 -7.45 -17.2 -7.3 -18.1 Q-6.8 -21.1 -5.7 -23.9 -10.05 -24.15 -14.25 -25.45 L-14.1 -25.05 M-14.65 -24.5 L-15.75 -20.35 Q-16.9 -14.7 -14.35 -9.65 L-14.35 -9.6 -14.1 -9.9 Q-10.95 -15.55 -13.45 -21.3 L-13.75 -21.7 -14.0 -23.05 -14.65 -24.5 M-3.5 0.25 L-3.5 -0.1 Q-8.45 -7.2 -7.6 -16.0 L-10.75 -16.6 Q-10.75 -13.45 -12.35 -10.6 L-12.75 -9.85 -13.25 -9.6 -13.95 -8.85 -12.1 -6.1 -11.4 -5.3 -11.25 -5.0 -9.15 -3.15 -8.5 -2.0 Q-6.05 -0.65 -3.55 0.35 L-3.5 0.35 -3.5 0.25" fill="#000000" fill-rule="evenodd" stroke="none"/>
    <path d="M1.9 1.3 L2.05 1.5 2.05 1.6 1.9 1.3 M17.4 -38.35 L17.5 -38.25 17.3 -38.25 17.4 -38.35 M25.85 -11.45 L25.6 -11.65 17.8 -11.85 3.05 -13.2 2.75 -13.2 -2.7 -13.55 -2.7 -14.1 Q-2.5 -17.7 -1.6 -21.2 0.05 -25.3 2.55 -28.85 L4.45 -31.25 4.65 -31.45 8.85 -34.95 9.5 -35.35 9.5 -35.3 Q11.1 -36.25 12.9 -36.8 L18.55 -37.35 Q20.05 -35.9 20.95 -34.2 24.15 -28.0 25.6 -21.2 26.65 -16.05 25.95 -11.45 L25.85 -11.45 M25.5 -9.2 L24.45 -6.0 Q10.9 -3.95 -1.85 -6.75 -2.5 -8.8 -2.65 -11.0 11.15 -8.05 25.5 -9.2 M1.5 -2.35 L1.5 -2.3 1.45 -2.25 -0.15 -2.8 -0.45 -3.4 -0.6 -3.75 -0.65 -3.75 -1.3 -5.25 Q0.5 -4.6 2.45 -4.35 13.75 -3.05 24.3 -5.7 L21.85 -1.3 Q11.65 0.4 1.5 -2.35 M1.15 -1.0 L1.0 -1.35 0.35 -2.05 2.6 -1.15 2.85 -1.25 3.5 -1.05 4.1 -1.0 8.25 -0.4 Q14.9 0.15 21.3 -0.55 L20.5 0.5 19.55 0.85 18.6 1.4 Q11.45 3.2 4.8 2.4 L4.6 2.25 2.5 0.55 2.5 0.5 2.2 0.25 2.15 0.25 1.8 -0.1 1.35 -0.55 1.15 -1.0" fill="#999999" fill-rule="evenodd" stroke="none"/>
    <path d="M17.3 -38.25 L17.0 -38.3 15.5 -38.1 15.2 -38.1 14.75 -38.0 13.1 -37.6 12.55 -37.45 10.0 -36.65 9.95 -36.65 Q5.95 -34.05 2.75 -30.25 -0.55 -26.35 -2.35 -21.45 L-3.2 -15.85 -3.3 -13.6 -3.5 -13.6 -3.7 -13.45 -3.5 -11.25 -3.35 -11.2 -3.4 -10.6 -3.35 -10.3 -2.3 -4.9 -1.55 -3.45 -0.9 -2.3 -0.9 -2.1 -0.15 -1.25 0.5 -0.35 1.9 1.3 2.05 1.6 2.1 2.05 1.75 2.15 Q-0.05 1.8 -1.75 1.05 L-1.8 0.95 -2.4 0.75 -2.45 0.75 -2.6 0.65 -2.5 0.25 -2.45 0.15 -3.1 -0.65 Q-4.45 -3.1 -5.3 -5.7 L-5.6 -5.95 -5.8 -6.85 -5.9 -7.1 -5.85 -7.25 -6.0 -7.95 Q-6.6 -10.8 -6.65 -13.7 L-6.75 -13.85 -6.75 -16.1 -6.75 -16.45 -6.55 -16.7 -6.55 -17.15 -6.2 -18.4 Q-5.8 -21.3 -4.7 -23.85 L-4.6 -23.85 -4.5 -24.0 -4.65 -24.05 Q-3.55 -26.6 -1.75 -28.85 2.15 -33.75 6.75 -37.8 8.95 -39.7 11.75 -39.85 L13.55 -39.95 14.05 -40.1 Q16.4 -40.5 17.55 -38.7 L17.55 -38.6 17.4 -38.35 17.3 -38.25 M-3.55 -41.95 L-2.2 -41.35 -1.9 -41.25 Q-9.8 -38.0 -13.85 -30.25 L-13.95 -34.7 -14.0 -37.15 -14.1 -41.95 -13.9 -47.8 -12.7 -47.05 Q-8.4 -44.05 -3.55 -41.95" fill="#878787" fill-rule="evenodd" stroke="none"/>
    <path d="M9.55 -40.65 Q7.3 -39.9 5.4 -38.35 L2.25 -35.6 Q-3.1 -30.55 -5.6 -24.25 L-14.05 -26.1 Q-9.55 -37.15 3.0 -40.95 L9.55 -40.65 M-3.55 0.35 Q-6.05 -0.65 -8.5 -2.0 L-9.15 -3.15 -11.25 -5.0 -11.4 -5.3 -12.1 -6.1 -13.95 -8.85 -13.25 -9.6 -12.75 -9.85 -12.35 -10.6 Q-10.75 -13.45 -10.75 -16.6 L-7.6 -16.0 Q-8.45 -7.2 -3.5 -0.1 L-3.5 0.25 -3.55 0.35 M-14.65 -24.5 L-14.0 -23.05 -13.75 -21.7 -13.45 -21.3 Q-10.95 -15.55 -14.1 -9.9 L-14.35 -9.6 -14.35 -9.65 Q-16.9 -14.7 -15.75 -20.35 L-14.65 -24.5 M-14.1 -25.05 L-14.25 -25.45 Q-10.05 -24.15 -5.7 -23.9 -6.8 -21.1 -7.3 -18.1 L-7.45 -17.2 -9.5 -17.6 -9.5 -17.55 -10.75 -17.2 -10.85 -18.1 -11.05 -18.35 Q-11.7 -22.1 -14.1 -25.05" fill="#70546f" fill-rule="evenodd" stroke="none"/>
  </g>
</svg>
