<?xml version="1.0" encoding="UTF-8" standalone="no"?>
<svg xmlns:xlink="http://www.w3.org/1999/xlink" height="28.8px" width="21.5px" xmlns="http://www.w3.org/2000/svg">
  <g transform="matrix(1.0, 0.0, 0.0, 1.0, 11.0, 13.8)">
    <path d="M9.0 -12.95 L9.25 -13.0 9.55 -13.2 10.5 -12.2 10.45 -12.1 10.3 -11.45 10.15 -10.8 10.2 -10.55 Q10.45 -9.95 10.3 -9.35 L10.2 -8.95 10.15 -6.15 10.15 -0.5 Q9.7 6.6 9.85 13.6 1.25 15.05 -7.75 15.0 -8.75 15.0 -9.5 14.4 -9.8 10.35 -10.35 6.4 -11.4 -1.7 -10.75 -9.6 L-10.55 -9.95 -10.55 -10.3 -10.6 -10.5 -10.65 -10.8 -10.55 -11.05 -10.45 -11.15 -10.25 -11.3 -10.25 -11.35 Q-1.65 -14.8 7.15 -13.35 L8.6 -12.85 9.0 -12.95 M8.95 -11.55 Q4.45 -13.9 -1.0 -12.5 L-9.3 -10.2 -9.4 -9.9 -9.55 -9.55 Q-10.15 0.85 -9.1 11.4 L-8.75 12.8 Q-5.75 14.5 -1.75 13.4 L-0.05 13.15 Q4.3 13.2 8.5 12.25 8.35 2.7 8.6 -6.8 L8.6 -7.1 8.8 -7.45 8.7 -8.3 8.6 -8.6 8.95 -9.8 8.85 -10.65 8.75 -10.95 8.8 -11.3 8.95 -11.55 M-6.7 -6.25 L-6.75 -6.25 -7.05 -6.4 -7.15 -6.7 -7.15 -6.95 -7.1 -7.25 -6.55 -7.8 -6.3 -8.1 -6.15 -8.3 -5.95 -8.45 -4.65 -9.05 -4.2 -9.35 Q1.55 -11.35 6.95 -9.55 L7.3 -9.35 7.25 -9.15 7.0 -8.95 6.9 -8.95 6.2 8.7 6.2 9.0 5.6 9.55 5.65 9.6 Q2.9 11.5 -1.2 11.0 L-2.8 10.85 -2.9 11.25 -3.0 10.8 -5.4 10.6 -6.35 10.4 Q-7.6 4.7 -7.45 -1.2 L-7.65 -1.35 -7.55 -1.7 -7.45 -1.85 -7.2 -5.2 -7.15 -5.8 -6.85 -6.05 -6.7 -6.15 -6.65 -2.1 -3.5 -2.0 -2.75 -1.85 Q-2.55 2.7 -2.5 7.5 L-2.6 9.7 2.75 9.55 Q1.8 6.35 2.15 2.4 2.35 0.5 2.0 -1.35 L2.1 -1.65 2.45 -1.9 2.5 -2.0 5.0 -1.55 5.65 -1.5 6.35 -8.55 6.35 -8.85 6.55 -9.05 6.4 -9.1 Q-0.6 -11.15 -6.35 -6.35 L-6.7 -6.25 M2.75 -0.6 L2.75 4.65 2.75 8.4 3.1 8.75 3.2 9.5 4.8 9.15 5.0 9.15 Q4.9 8.75 5.25 8.45 5.25 4.0 5.55 -0.45 L3.1 -0.55 2.75 -0.6 M-6.6 -1.05 Q-6.45 3.9 -5.85 8.9 L-5.8 9.15 -3.2 9.65 Q-3.7 6.6 -3.5 3.0 L-3.4 -0.75 -6.6 -1.05" fill="#000000" fill-rule="evenodd" stroke="none"/>
    <path d="M-6.7 -6.15 L-6.85 -6.05 -7.15 -5.8 -7.2 -5.2 -7.45 -1.85 -7.55 -1.7 -7.65 -1.35 -7.45 -1.2 Q-7.6 4.7 -6.35 10.4 L-5.4 10.6 -3.0 10.8 -2.9 11.25 -2.8 10.85 -1.2 11.0 Q2.9 11.5 5.65 9.6 L5.6 9.55 6.2 9.0 6.2 8.7 6.9 -8.95 7.0 -8.95 7.25 -9.15 7.3 -9.35 6.95 -9.55 Q1.55 -11.35 -4.2 -9.35 L-4.65 -9.05 -5.95 -8.45 -6.15 -8.3 -6.3 -8.1 -6.55 -7.8 -7.1 -7.25 -7.15 -6.95 -7.15 -6.7 -7.05 -6.4 -6.75 -6.25 -6.7 -6.25 -6.7 -6.15 M8.95 -11.55 L8.8 -11.3 8.75 -10.95 8.85 -10.65 8.95 -9.8 8.6 -8.6 8.7 -8.3 8.8 -7.45 8.6 -7.1 8.6 -6.8 Q8.35 2.7 8.5 12.25 4.3 13.2 -0.05 13.15 L-1.75 13.4 Q-5.75 14.5 -8.75 12.8 L-9.1 11.4 Q-10.15 0.85 -9.55 -9.55 L-9.4 -9.9 -9.3 -10.2 -1.0 -12.5 Q4.45 -13.9 8.95 -11.55" fill="#999999" fill-rule="evenodd" stroke="none"/>
    <path d="M-6.7 -6.15 L-6.7 -6.25 -6.35 -6.35 Q-0.6 -11.15 6.4 -9.1 L6.35 -8.85 6.35 -8.55 5.65 -1.5 5.0 -1.55 2.5 -2.0 2.45 -1.9 2.1 -1.65 2.0 -1.35 Q2.35 0.5 2.15 2.4 1.8 6.35 2.75 9.55 L-2.6 9.7 -2.5 7.5 Q-2.55 2.7 -2.75 -1.85 L-3.5 -2.0 -6.65 -2.1 -6.7 -6.15 M-6.6 -1.05 L-3.4 -0.75 -3.5 3.0 Q-3.7 6.6 -3.2 9.65 L-5.8 9.15 -5.85 8.9 Q-6.45 3.9 -6.6 -1.05 M2.75 -0.6 L3.1 -0.55 5.55 -0.45 Q5.25 4.0 5.25 8.45 4.9 8.75 5.0 9.15 L4.8 9.15 3.2 9.5 3.1 8.75 2.75 8.4 2.75 4.65 2.75 -0.6" fill="#70546f" fill-rule="evenodd" stroke="none"/>
  </g>
</svg>
