<?xml version="1.0" encoding="UTF-8" standalone="no"?>
<svg xmlns:xlink="http://www.w3.org/1999/xlink" height="35.4px" width="27.15px" xmlns="http://www.w3.org/2000/svg">
  <g transform="matrix(1.0, 0.0, 0.0, 1.0, 13.6, 17.7)">
    <path d="M1.75 -16.35 L1.75 -17.65 Q4.55 -17.35 6.95 -15.45 L7.05 -15.45 7.55 -15.05 7.7 -15.0 8.05 -14.9 8.3 -14.55 9.2 -13.45 9.75 -12.75 9.8 -12.7 10.25 -12.05 10.1 -12.55 Q10.0 -12.75 10.25 -12.65 15.35 -5.55 12.6 3.2 L12.55 3.4 12.55 5.45 12.55 5.7 12.9 6.3 12.65 6.75 11.8 7.15 11.9 7.35 Q13.55 9.35 13.1 11.95 L12.95 12.55 11.7 13.8 11.7 13.9 11.5 15.45 -6.15 16.5 -7.7 16.75 -7.75 17.0 -8.65 17.0 -8.65 16.9 -9.9 17.1 -11.8 17.6 Q-12.75 17.9 -13.5 17.2 L-13.6 13.3 -13.6 13.15 -12.15 1.9 -12.05 1.2 -12.2 1.9 Q-12.2 -0.9 -11.6 -3.8 L-10.75 -3.8 -11.7 -0.3 Q-12.55 7.3 -12.5 15.05 L-12.55 16.1 -8.8 15.35 -9.35 7.2 -10.85 7.2 -9.35 6.85 -9.5 -3.8 -8.95 -3.8 -8.7 2.9 -8.5 6.65 -5.95 6.1 -4.9 5.85 -5.25 3.05 -8.6 2.9 -5.3 2.4 -5.4 1.8 -6.15 -3.8 -4.95 -3.8 -3.9 2.25 1.0 2.05 -0.05 -3.8 1.3 -3.8 2.05 2.05 3.75 2.1 5.75 2.0 6.75 1.9 Q7.45 -3.8 5.6 -9.2 5.45 -9.6 5.8 -9.5 L6.35 -8.7 6.55 -8.4 Q8.45 -3.35 7.55 1.9 9.9 1.95 11.95 3.15 L12.0 2.8 12.0 2.6 12.05 2.55 Q12.7 -1.7 12.05 -5.85 10.95 -9.3 9.05 -12.3 L8.95 -12.3 8.1 -12.95 7.55 -13.85 Q4.8 -16.2 1.75 -16.35 M-3.8 3.15 L-3.5 5.6 -1.0 5.35 1.4 5.55 1.15 3.35 -0.5 3.4 -3.8 3.15 M-6.85 11.75 L-4.1 11.45 -4.75 6.85 -6.2 6.95 -8.25 7.1 -8.5 7.15 -7.9 15.15 -6.05 14.65 -3.65 14.15 -4.0 12.0 -6.85 11.8 -6.85 11.75 M-3.1 11.35 L1.65 10.95 1.5 6.7 -3.4 6.75 -3.1 11.35 M-3.05 13.0 Q-2.55 13.45 -2.55 14.1 L-0.4 14.15 0.9 14.1 1.65 14.0 1.65 12.0 -3.05 12.05 -3.05 12.6 -3.05 13.0 M11.95 4.1 L11.95 4.05 11.8 4.1 11.75 4.1 Q9.35 3.25 6.8 3.05 L2.15 3.2 2.25 5.6 10.9 6.75 10.9 6.35 Q11.35 5.95 11.9 5.8 L11.95 4.1 M12.2 10.45 L12.25 10.25 Q11.3 9.0 11.05 7.6 L2.3 6.75 2.25 10.9 5.25 10.75 Q8.75 10.45 12.0 11.65 L12.2 10.45 M12.0 11.8 L2.2 12.0 2.1 13.75 2.1 13.9 Q6.45 13.3 10.65 14.1 L10.9 13.75 10.8 13.7 Q10.9 12.45 12.0 12.0 L12.0 11.8" fill="#000000" fill-rule="evenodd" stroke="none"/>
    <path d="M1.75 -16.35 Q4.8 -16.2 7.55 -13.85 L8.1 -12.95 8.95 -12.3 9.05 -12.3 Q10.95 -9.3 12.05 -5.85 12.7 -1.7 12.05 2.55 L12.0 2.6 12.0 2.8 11.95 3.15 Q9.9 1.95 7.55 1.9 8.45 -3.35 6.55 -8.4 L6.35 -8.7 5.8 -9.5 Q5.45 -9.6 5.6 -9.2 7.45 -3.8 6.75 1.9 L5.75 2.0 3.75 2.1 2.05 2.05 1.3 -3.8 1.75 -3.8 1.75 -16.35 M-6.15 -3.8 L-5.4 1.8 -5.3 2.4 -8.6 2.9 -5.25 3.05 -4.9 5.85 -5.95 6.1 -8.5 6.65 -8.7 2.9 -8.95 -3.8 -6.15 -3.8 M-9.5 -3.8 L-9.35 6.85 -10.85 7.2 -9.35 7.2 -8.8 15.35 -12.55 16.1 -12.5 15.05 Q-12.55 7.3 -11.7 -0.3 L-10.75 -3.8 -9.5 -3.8 M-6.85 11.75 L-6.85 11.8 -4.0 12.0 -3.65 14.15 -6.05 14.65 -7.9 15.15 -8.5 7.15 -8.25 7.1 -6.2 6.95 -4.75 6.85 -4.1 11.45 -6.85 11.75 M11.8 4.1 L11.95 4.1 11.9 5.8 Q11.35 5.95 10.9 6.35 L10.9 6.75 2.25 5.6 2.15 3.2 6.8 3.05 Q9.35 3.25 11.75 4.1 L11.8 4.1 M12.0 11.8 L12.0 12.0 Q10.9 12.45 10.8 13.7 L10.9 13.75 10.65 14.1 Q6.45 13.3 2.1 13.9 L2.1 13.75 2.2 12.0 12.0 11.8 M12.2 10.45 L12.0 11.65 Q8.75 10.45 5.25 10.75 L2.25 10.9 2.3 6.75 11.05 7.6 Q11.3 9.0 12.25 10.25 L12.2 10.45" fill="#3f4756" fill-rule="evenodd" stroke="none"/>
    <path d="M-0.05 -3.8 L1.0 2.05 -3.9 2.25 -4.95 -3.8 -0.05 -3.8 M-3.8 3.15 L-0.5 3.4 1.15 3.35 1.4 5.55 -1.0 5.35 -3.5 5.6 -3.8 3.15 M-3.05 13.0 L-3.05 12.6 -3.05 12.05 1.65 12.0 1.65 14.0 0.9 14.1 -0.4 14.15 -2.55 14.1 Q-2.55 13.45 -3.05 13.0 M-3.1 11.35 L-3.4 6.75 1.5 6.7 1.65 10.95 -3.1 11.35" fill="#603535" fill-rule="evenodd" stroke="none"/>
    <path d="M-10.75 -3.8 L-11.6 -3.8 -10.7 -7.2 Q-10.1 -9.25 -9.05 -11.0 -7.95 -12.9 -6.5 -14.45 -4.8 -15.3 -3.15 -16.3 L-1.9 -16.95 0.25 -17.7 1.75 -17.65 1.75 -16.35 Q-0.4 -16.45 -2.7 -15.4 L-3.3 -15.1 -3.35 -15.1 Q-4.25 -14.6 -5.0 -13.75 -6.3 -13.15 -7.2 -12.05 L-7.3 -11.95 -8.75 -9.55 -9.45 -7.65 -10.75 -3.8 M1.3 -3.8 L-0.05 -3.8 -0.9 -7.1 -1.3 -7.9 -1.7 -10.5 -1.8 -11.25 -2.05 -11.65 -2.3 -12.0 -2.3 -12.4 -2.3 -12.75 -3.2 -13.95 -3.3 -14.25 -3.2 -14.85 -3.2 -14.9 Q-3.05 -15.1 -2.65 -15.1 L-2.4 -15.15 Q-1.65 -14.5 -1.25 -13.65 L-1.05 -13.25 -1.05 -12.9 -1.05 -12.5 -0.8 -12.15 -0.55 -11.75 1.3 -3.8 M-4.95 -3.8 L-6.15 -3.8 -6.55 -5.75 Q-7.25 -9.25 -7.0 -11.75 -5.8 -7.8 -4.95 -3.8 M-8.95 -3.8 L-9.5 -3.8 -9.4 -7.65 -9.0 -7.75 -8.95 -3.8" fill="#000000" fill-rule="evenodd" stroke="none"/>
    <path d="M1.75 -16.35 L1.75 -3.8 1.3 -3.8 -0.55 -11.75 -0.8 -12.15 -1.05 -12.5 -1.05 -12.9 -1.05 -13.25 -1.25 -13.65 Q-1.65 -14.5 -2.4 -15.15 L-2.65 -15.1 -2.7 -15.4 Q-0.4 -16.45 1.75 -16.35 M-6.15 -3.8 L-8.95 -3.8 -9.0 -7.75 -9.4 -7.65 -9.5 -3.8 -10.75 -3.8 -9.45 -7.65 -8.75 -9.55 -7.3 -11.95 -7.0 -11.75 Q-7.25 -9.25 -6.55 -5.75 L-6.15 -3.8" fill="#3f4756" fill-rule="evenodd" stroke="none"/>
    <path d="M-0.05 -3.8 L-4.95 -3.8 Q-5.8 -7.8 -7.0 -11.75 L-7.2 -12.05 Q-6.3 -13.15 -5.0 -13.75 -4.25 -14.6 -3.35 -15.1 L-3.2 -14.9 -3.2 -14.85 -3.3 -14.25 -3.2 -13.95 -2.3 -12.75 -2.3 -12.4 -2.3 -12.0 -2.05 -11.65 -1.8 -11.25 -1.7 -10.5 -1.3 -7.9 -0.9 -7.1 -0.05 -3.8" fill="#603535" fill-rule="evenodd" stroke="none"/>
    <path d="M-7.3 -11.95 L-7.2 -12.05 -7.0 -11.75 -7.3 -11.95 M-3.35 -15.1 L-3.3 -15.1 -2.7 -15.4 -2.65 -15.1 Q-3.05 -15.1 -3.2 -14.9 L-3.35 -15.1" fill="#666666" fill-rule="evenodd" stroke="none"/>
  </g>
</svg>
