<?xml version="1.0" encoding="UTF-8" standalone="no"?>
<svg xmlns:xlink="http://www.w3.org/1999/xlink" height="42.15px" width="32.65px" xmlns="http://www.w3.org/2000/svg">
  <g transform="matrix(1.0, 0.0, 0.0, 1.0, 16.35, 21.0)">
    <path d="M6.3 -17.85 L8.95 -18.35 8.75 -18.05 9.5 -17.6 9.6 -17.55 9.75 -17.4 11.6 -15.7 11.65 -15.75 11.65 -15.7 Q14.75 -12.35 15.65 -7.0 L16.0 -2.55 16.05 -2.35 16.0 -2.25 16.0 -2.15 16.1 -2.45 16.25 -2.5 16.15 -1.45 16.05 -1.2 16.3 -0.7 Q16.1 2.85 15.3 6.25 L15.2 6.5 Q13.6 7.0 12.2 8.05 11.55 11.0 9.2 12.9 L8.35 13.65 Q7.5 14.5 6.95 15.55 -3.85 21.85 -16.2 21.05 L-16.3 17.95 -16.3 17.7 -15.9 17.15 -15.45 14.85 -15.45 14.6 -15.1 14.05 -14.85 14.35 Q-16.25 7.95 -15.4 1.3 -14.7 -3.8 -13.0 -8.75 -11.75 -12.4 -9.55 -14.9 L-10.25 -15.1 -5.05 -16.05 -5.1 -16.9 -5.0 -19.85 -4.9 -20.1 -3.0 -21.0 0.0 -20.9 0.65 -20.75 1.0 -19.25 1.15 -17.1 4.35 -17.5 6.5 -17.8 6.3 -17.85 M15.2 0.0 L15.2 -2.1 Q13.7 -3.8 11.5 -4.6 L11.15 -4.9 11.65 -5.25 11.7 -5.35 Q13.75 -5.1 15.05 -3.85 14.35 -9.0 11.55 -13.55 L10.95 -14.4 Q8.0 -8.6 6.2 -1.8 L1.15 16.5 0.95 16.85 4.2 15.45 Q7.0 14.1 8.4 11.3 10.85 10.3 11.15 7.7 L12.7 6.0 Q13.75 5.9 14.35 5.25 L14.6 3.3 14.1 2.9 13.9 2.65 13.15 2.45 12.8 2.2 Q11.2 2.2 10.05 1.6 L12.05 1.3 Q13.7 1.25 14.85 2.05 L15.3 0.05 15.35 0.0 15.2 0.0 M-7.85 19.2 Q-3.7 18.5 0.4 17.05 L-0.1 16.6 Q-0.25 15.95 0.15 15.5 L0.5 15.1 Q4.05 1.15 8.95 -12.5 L9.6 -13.85 10.55 -14.95 8.05 -17.0 Q1.05 -6.1 -3.5 7.0 -4.1 9.75 -4.95 12.5 L-5.05 12.8 -4.65 10.35 -5.4 12.7 -6.35 15.55 Q-6.85 17.05 -6.75 18.6 L-7.85 19.1 -8.25 18.75 -8.25 17.6 -8.25 16.85 -7.6 16.1 -7.25 14.55 -7.1 13.85 -3.55 4.85 Q-2.45 -1.35 -1.95 -7.3 -1.95 -2.25 -2.7 2.7 L3.6 -12.5 Q4.65 -14.95 6.45 -16.8 L-4.0 -15.4 -4.0 -15.1 -4.2 -14.85 -4.75 -14.6 -4.95 -15.3 -7.3 -15.1 Q-12.35 -10.75 -13.8 -3.95 L-14.35 -0.6 Q-13.3 -1.95 -11.65 -2.3 L-11.15 -2.35 -13.25 -0.55 Q-14.45 0.3 -14.6 1.7 L-14.7 3.6 -14.7 5.2 Q-14.0 4.25 -12.7 3.5 L-12.6 3.45 -12.35 3.45 -12.2 3.45 -11.95 3.7 Q-14.75 5.8 -14.65 9.35 L-14.6 9.6 -14.65 9.6 -14.5 14.15 Q-14.5 14.6 -14.75 14.85 L-14.8 14.6 -14.8 14.85 Q-14.6 16.6 -15.35 18.2 L-15.25 19.5 -15.3 19.75 -15.25 19.75 -15.2 19.75 -7.85 19.2 M0.15 -19.6 Q-1.8 -20.65 -4.0 -19.25 L-4.0 -18.1 -4.0 -16.25 0.5 -17.0 Q-0.05 -18.2 0.15 -19.6" fill="#000000" fill-rule="evenodd" stroke="none"/>
    <path d="M4.35 -17.5 L6.3 -17.85 6.5 -17.8 4.35 -17.5 M15.3 0.05 L14.85 2.05 Q13.7 1.25 12.05 1.3 L10.05 1.6 Q11.2 2.2 12.8 2.2 L13.15 2.45 13.9 2.65 14.1 2.9 14.6 3.3 14.35 5.25 Q13.75 5.9 12.7 6.0 L11.15 7.7 Q10.85 10.3 8.4 11.3 7.0 14.1 4.2 15.45 L0.95 16.85 1.15 16.5 6.2 -1.8 Q8.0 -8.6 10.95 -14.4 L11.55 -13.55 Q14.35 -9.0 15.05 -3.85 13.75 -5.1 11.7 -5.35 L11.65 -5.25 11.15 -4.9 11.5 -4.6 Q13.7 -3.8 15.2 -2.1 L15.2 0.0 15.3 0.05 M-5.05 12.8 L-5.4 12.7 -4.65 10.35 -5.05 12.8 M-7.85 19.1 L-7.85 19.2 -15.2 19.75 -15.25 19.75 -15.25 19.5 -15.35 18.2 Q-14.6 16.6 -14.8 14.85 L-14.75 14.85 Q-14.5 14.6 -14.5 14.15 L-14.65 9.6 -14.6 9.6 -14.65 9.35 Q-14.75 5.8 -11.95 3.7 L-12.2 3.45 -12.35 3.45 -12.6 3.45 -12.7 3.5 Q-14.0 4.25 -14.7 5.2 L-14.7 3.6 -14.6 1.7 Q-14.45 0.3 -13.25 -0.55 L-11.15 -2.35 -11.65 -2.3 Q-13.3 -1.95 -14.35 -0.6 L-13.8 -3.95 Q-12.35 -10.75 -7.3 -15.1 L-4.95 -15.3 -4.75 -14.6 -4.2 -14.85 -4.0 -15.1 -4.0 -15.4 6.45 -16.8 Q4.65 -14.95 3.6 -12.5 L-2.7 2.7 Q-1.95 -2.25 -1.95 -7.3 -2.45 -1.35 -3.55 4.85 L-7.1 13.85 -7.25 14.55 -7.6 16.1 -8.25 16.85 -8.25 17.6 -8.25 18.75 -7.85 19.1 M0.15 -19.6 Q-0.05 -18.2 0.5 -17.0 L-4.0 -16.25 -4.0 -18.1 -4.0 -19.25 Q-1.8 -20.65 0.15 -19.6" fill="#3f4756" fill-rule="evenodd" stroke="none"/>
    <path d="M-5.05 12.8 L-4.95 12.5 Q-4.1 9.75 -3.5 7.0 1.05 -6.1 8.05 -17.0 L10.55 -14.95 9.6 -13.85 8.95 -12.5 Q4.05 1.15 0.5 15.1 L0.15 15.5 Q-0.25 15.95 -0.1 16.6 L0.4 17.05 Q-3.7 18.5 -7.85 19.2 L-7.85 19.1 -6.75 18.6 Q-6.85 17.05 -6.35 15.55 L-5.4 12.7 -5.05 12.8" fill="#603535" fill-rule="evenodd" stroke="none"/>
  </g>
</svg>
