<?xml version="1.0" encoding="UTF-8" standalone="no"?>
<svg xmlns:xlink="http://www.w3.org/1999/xlink" height="46.7px" width="40.85px" xmlns="http://www.w3.org/2000/svg">
  <g transform="matrix(1.0, 0.0, 0.0, 1.0, 19.7, 38.55)">
    <path d="M11.3 -34.55 Q3.3 -37.75 -4.7 -35.8 -6.5 -35.35 -8.05 -34.35 -13.25 -31.05 -14.85 -24.9 -15.75 -21.55 -14.3 -18.55 -13.15 -16.1 -10.5 -14.75 -0.3 -9.5 10.75 -11.1 L13.35 -11.75 Q16.05 -12.8 17.75 -14.75 L19.05 -17.95 18.9 -20.6 17.85 -24.65 18.2 -25.35 18.55 -25.1 Q16.55 -29.2 13.55 -32.9 12.65 -34.05 11.3 -34.55 M14.9 -32.75 L17.5 -28.75 Q19.15 -26.4 19.95 -23.9 L20.25 -23.6 Q21.9 -18.85 20.55 -13.7 20.05 -11.7 19.15 -9.8 L18.0 -8.45 15.8 -1.8 15.65 -1.45 15.7 -1.05 15.8 -0.7 Q12.4 3.8 7.4 6.2 L6.9 6.85 Q5.95 7.0 5.3 7.6 L5.15 7.75 Q0.3 8.9 -3.6 6.55 -6.9 5.95 -9.8 3.5 L-11.35 2.3 -14.55 0.1 Q-15.95 -2.85 -17.9 -5.35 L-17.85 -5.7 -17.8 -6.05 -18.15 -6.9 -17.95 -8.35 -18.7 -9.4 -18.45 -9.35 -17.9 -8.9 Q-17.7 -11.3 -17.75 -13.65 -21.15 -18.95 -18.65 -25.9 -16.3 -32.6 -9.95 -35.05 -8.65 -36.2 -6.95 -36.95 -3.55 -38.45 -0.05 -38.55 7.2 -37.6 13.35 -34.25 14.3 -33.7 14.9 -32.75 M15.1 -14.35 L15.25 -14.0 15.0 -13.3 14.85 -13.05 14.35 -13.0 13.55 -13.75 Q13.55 -14.45 14.1 -14.65 L14.6 -14.75 15.1 -14.35 M5.05 -3.25 Q0.9 -3.2 -2.95 -4.15 L-2.6 -1.9 Q1.0 -1.05 4.75 -0.9 L5.05 -3.25 M8.15 -0.9 L10.1 -1.0 Q8.55 0.3 6.55 0.95 L5.45 0.85 5.0 3.3 5.0 3.45 6.55 3.45 6.7 3.45 6.9 3.45 6.9 3.55 Q6.3 4.45 4.65 4.85 L4.35 5.75 6.05 5.1 6.95 3.95 Q10.1 -0.2 12.25 -4.55 9.35 -3.4 5.9 -3.25 L5.6 -3.25 5.6 -0.85 8.15 -0.9 M12.9 -4.85 Q13.0 -0.25 9.5 3.65 L8.65 4.6 Q14.35 -0.5 17.1 -7.6 15.2 -5.9 12.9 -4.85 M17.5 -10.65 L18.45 -13.5 Q15.4 -9.4 9.2 -9.0 -1.15 -8.35 -10.6 -12.7 -16.15 -15.2 -16.0 -20.75 -15.85 -27.5 -11.85 -32.85 -16.55 -30.5 -17.7 -25.25 -19.55 -20.15 -17.85 -16.1 -17.8 -16.4 -17.4 -16.25 L-17.3 -14.95 Q-15.55 -11.9 -11.6 -9.55 -3.3 -4.5 6.45 -5.15 13.45 -5.65 17.5 -10.65 M4.5 0.7 Q0.85 0.15 -2.5 -1.0 L-2.6 2.15 2.55 3.3 3.9 3.45 3.95 3.35 4.5 0.7 M3.6 4.7 Q0.35 4.05 -2.7 2.9 L-3.0 4.6 -3.05 4.7 Q-1.8 5.45 -0.55 5.85 L1.95 6.15 3.25 6.05 3.6 4.7 M-11.65 -28.85 L-11.6 -28.9 -11.1 -28.5 -10.85 -28.15 -11.0 -27.45 -11.25 -27.05 -11.85 -26.9 Q-12.85 -27.2 -12.7 -28.05 L-12.6 -28.4 -12.25 -28.75 -11.65 -28.85 M-7.5 -18.95 Q-6.7 -18.6 -6.5 -17.75 L-6.5 -17.4 -7.05 -16.8 -7.35 -16.55 -7.9 -16.45 Q-8.9 -16.75 -8.95 -17.65 -9.05 -18.65 -8.05 -18.85 L-7.5 -18.95 M-13.0 -8.9 Q-15.6 -10.7 -17.15 -12.85 -17.1 -11.15 -17.2 -9.4 L-17.25 -9.0 -16.6 -8.15 -16.5 -7.75 Q-13.6 -5.2 -11.15 -2.15 -11.75 -4.65 -11.05 -7.6 L-13.0 -8.9 M-11.15 -0.7 Q-13.7 -3.1 -15.85 -5.7 -14.1 -1.0 -9.85 1.75 L-6.2 3.6 -5.15 4.1 -5.15 4.0 -6.9 1.35 Q-8.3 -1.1 -8.75 -3.8 L-8.9 -3.9 -8.75 -3.95 -9.0 -6.45 -10.7 -7.4 Q-11.45 -3.0 -9.55 0.8 L-9.1 1.6 -9.0 1.9 -9.75 1.0 -10.65 -0.75 -11.15 -0.7 M-3.45 -4.3 Q-6.15 -5.05 -8.7 -6.25 L-7.8 -3.55 -3.35 -2.1 -3.45 -4.3 M-7.7 -3.2 L-5.65 1.2 -5.45 1.1 -3.45 1.9 -3.35 -1.3 Q-5.6 -2.15 -7.7 -3.2 M-5.2 1.95 L-3.8 4.2 -3.7 4.3 -3.5 2.6 -4.6 2.15 -5.05 1.95 -5.3 1.8 -5.2 1.95" fill="#000000" fill-rule="evenodd" stroke="none"/>
    <path d="M11.3 -34.55 Q12.65 -34.05 13.55 -32.9 16.55 -29.2 18.55 -25.1 L18.2 -25.35 17.85 -24.65 18.9 -20.6 19.05 -17.95 17.75 -14.75 Q16.05 -12.8 13.35 -11.75 L10.75 -11.1 Q-0.3 -9.5 -10.5 -14.75 -13.15 -16.1 -14.3 -18.55 -15.75 -21.55 -14.85 -24.9 -13.25 -31.05 -8.05 -34.35 -6.5 -35.35 -4.7 -35.8 3.3 -37.75 11.3 -34.55 M15.1 -14.35 L14.6 -14.75 14.1 -14.65 Q13.55 -14.45 13.55 -13.75 L14.35 -13.0 14.85 -13.05 15.0 -13.3 15.25 -14.0 15.1 -14.35 M17.5 -10.65 Q13.45 -5.65 6.45 -5.15 -3.3 -4.5 -11.6 -9.55 -15.55 -11.9 -17.3 -14.95 L-17.4 -16.25 Q-17.8 -16.4 -17.85 -16.1 -19.55 -20.15 -17.7 -25.25 -16.55 -30.5 -11.85 -32.85 -15.85 -27.5 -16.0 -20.75 -16.15 -15.2 -10.6 -12.7 -1.15 -8.35 9.2 -9.0 15.4 -9.4 18.45 -13.5 L17.5 -10.65 M12.9 -4.85 Q15.2 -5.9 17.1 -7.6 14.35 -0.5 8.65 4.6 L9.5 3.65 Q13.0 -0.25 12.9 -4.85 M-11.15 -0.7 L-10.65 -0.75 -9.75 1.0 -9.0 1.9 -9.1 1.6 -9.55 0.8 Q-11.45 -3.0 -10.7 -7.4 L-9.0 -6.45 -8.75 -3.95 -8.9 -3.9 -8.75 -3.8 Q-8.3 -1.1 -6.9 1.35 L-5.15 4.0 -5.15 4.1 -6.2 3.6 -9.85 1.75 Q-14.1 -1.0 -15.85 -5.7 -13.7 -3.1 -11.15 -0.7 M-13.0 -8.9 L-11.05 -7.6 Q-11.75 -4.65 -11.15 -2.15 -13.6 -5.2 -16.5 -7.75 L-16.6 -8.15 -17.25 -9.0 -17.2 -9.4 Q-17.1 -11.15 -17.15 -12.85 -15.6 -10.7 -13.0 -8.9 M-7.5 -18.95 L-8.05 -18.85 Q-9.05 -18.65 -8.95 -17.65 -8.9 -16.75 -7.9 -16.45 L-7.35 -16.55 -7.05 -16.8 -6.5 -17.4 -6.5 -17.75 Q-6.7 -18.6 -7.5 -18.95 M-11.65 -28.85 L-12.25 -28.75 -12.6 -28.4 -12.7 -28.05 Q-12.85 -27.2 -11.85 -26.9 L-11.25 -27.05 -11.0 -27.45 -10.85 -28.15 -11.1 -28.5 -11.6 -28.9 -11.65 -28.85" fill="#3f4756" fill-rule="evenodd" stroke="none"/>
    <path d="M8.15 -0.9 L5.6 -0.85 5.6 -3.25 5.9 -3.25 Q9.35 -3.4 12.25 -4.55 10.1 -0.2 6.95 3.95 L6.05 5.1 4.35 5.75 4.65 4.85 Q6.3 4.45 6.9 3.55 L6.9 3.45 6.7 3.45 6.55 3.45 5.0 3.45 5.0 3.3 5.45 0.85 6.55 0.95 Q8.55 0.3 10.1 -1.0 L8.15 -0.9 M5.05 -3.25 L4.75 -0.9 Q1.0 -1.05 -2.6 -1.9 L-2.95 -4.15 Q0.9 -3.2 5.05 -3.25 M3.6 4.7 L3.25 6.05 1.95 6.15 -0.55 5.85 Q-1.8 5.45 -3.05 4.7 L-3.0 4.6 -2.7 2.9 Q0.35 4.05 3.6 4.7 M4.5 0.7 L3.95 3.35 3.9 3.45 2.55 3.3 -2.6 2.15 -2.5 -1.0 Q0.85 0.15 4.5 0.7 M-7.7 -3.2 Q-5.6 -2.15 -3.35 -1.3 L-3.45 1.9 -5.45 1.1 -5.65 1.2 -7.7 -3.2 M-3.45 -4.3 L-3.35 -2.1 -7.8 -3.55 -8.7 -6.25 Q-6.15 -5.05 -3.45 -4.3 M-4.6 2.15 L-3.5 2.6 -3.7 4.3 -3.8 4.2 -5.2 1.95 -4.6 2.15" fill="#494a4b" fill-rule="evenodd" stroke="none"/>
  </g>
</svg>
