<?xml version="1.0" encoding="UTF-8" standalone="no"?>
<svg xmlns:xlink="http://www.w3.org/1999/xlink" height="50.85px" width="47.85px" xmlns="http://www.w3.org/2000/svg">
  <g transform="matrix(1.0, 0.0, 0.0, 1.0, 19.75, 43.35)">
    <path d="M22.4 -32.5 L22.7 -31.9 23.0 -31.35 23.7 -29.65 24.15 -28.55 24.6 -28.55 24.75 -28.35 24.45 -28.3 28.1 -25.3 27.85 -24.75 24.25 -25.2 24.75 -1.0 24.75 -0.6 Q20.9 3.25 15.9 5.05 L15.8 5.1 Q13.9 6.4 11.45 7.25 L11.25 7.5 11.0 7.4 9.2 7.1 9.0 7.25 8.95 7.0 Q7.85 6.6 7.05 5.95 4.85 5.15 2.65 4.5 L2.05 3.85 -16.6 -0.85 Q-16.2 -2.45 -15.1 -3.85 L-14.0 -4.6 Q-13.6 -5.1 -13.75 -5.7 L-13.35 -6.1 -13.25 -6.5 -13.6 -6.65 -13.6 -7.2 -13.25 -7.15 -13.6 -7.95 Q-14.1 -14.95 -14.05 -22.0 -15.85 -21.9 -17.65 -22.5 L-19.35 -22.35 -19.75 -22.7 -19.65 -23.05 -19.0 -24.05 -19.25 -24.1 -19.0 -24.1 -18.4 -24.85 -19.0 -24.35 Q-17.8 -26.6 -15.2 -27.2 L-14.85 -27.45 -14.95 -27.8 -15.25 -28.2 Q-15.85 -32.05 -13.45 -35.1 -9.65 -39.95 -3.9 -42.2 L-1.0 -43.35 10.45 -42.7 Q13.9 -42.4 16.65 -40.3 17.55 -39.6 18.0 -38.45 L18.55 -38.0 Q20.05 -36.55 21.15 -34.7 L21.5 -33.85 22.4 -32.5 M20.45 -32.8 L19.15 -34.95 18.05 -36.85 17.95 -37.0 17.35 -37.3 Q16.65 -37.7 16.5 -38.45 13.8 -40.7 10.45 -41.35 -3.15 -43.9 -12.0 -34.1 -13.35 -32.6 -13.35 -30.6 L-13.3 -27.45 -12.85 -27.45 Q-3.3 -27.25 5.5 -29.45 L19.3 -28.65 21.85 -28.6 21.85 -28.7 21.85 -29.1 21.85 -30.2 21.85 -30.6 21.65 -30.95 20.45 -32.8 M21.15 -26.5 L21.75 -26.6 21.95 -26.15 24.3 -25.9 26.05 -25.6 24.5 -26.85 22.9 -28.05 19.95 -27.7 10.45 -28.1 Q5.65 -28.75 0.95 -27.95 -6.6 -26.7 -14.2 -26.2 L-15.45 -25.35 -17.1 -24.15 -14.65 -24.25 3.95 -25.2 12.1 -25.7 13.9 -25.85 15.5 -25.95 16.5 -26.05 16.5 -26.1 17.0 -26.3 17.25 -26.35 17.25 -26.15 20.8 -26.2 20.95 -26.35 21.15 -26.5 M23.85 -25.15 L22.35 -24.9 Q23.55 -20.8 22.95 -16.05 L22.45 -11.55 22.6 -11.55 22.75 -11.35 22.45 -11.35 22.0 -6.7 Q21.55 -1.25 18.8 2.3 L23.25 -1.35 23.7 -16.6 23.85 -25.15 M4.0 -31.95 L4.6 -31.65 4.9 -31.35 4.8 -30.6 4.65 -30.2 4.0 -29.95 Q3.0 -30.1 3.0 -30.95 L3.1 -31.3 3.4 -31.7 4.0 -31.9 4.0 -31.95 M18.5 -31.85 L19.05 -31.5 19.25 -31.2 19.25 -31.05 19.1 -30.45 19.0 -30.2 18.5 -30.1 17.6 -30.7 Q17.5 -31.35 18.05 -31.65 L18.5 -31.85 M16.55 -20.4 L9.5 -20.7 Q9.4 -16.4 9.45 -12.1 L9.75 -12.1 11.5 -12.45 16.45 -12.45 16.55 -20.4 M8.9 -23.7 L8.9 -23.95 9.0 -24.35 9.0 -24.55 5.5 -24.25 3.0 -23.95 2.8 -23.9 2.9 -19.3 Q4.75 -20.3 6.75 -20.8 L8.5 -21.35 9.05 -21.4 9.1 -22.3 9.2 -23.8 8.95 -23.7 8.9 -23.7 M9.75 -24.6 L9.75 -23.9 9.6 -23.85 9.55 -22.4 9.55 -21.5 16.55 -21.2 16.55 -24.85 12.0 -24.7 9.75 -24.6 M3.05 -14.0 L3.35 -11.65 8.65 -12.05 9.0 -20.65 Q5.95 -20.25 2.9 -19.0 L2.85 -18.45 Q2.8 -16.25 3.05 -14.0 M1.4 2.25 L1.65 2.1 2.25 2.0 2.8 2.75 3.5 2.95 3.5 3.25 5.65 4.0 5.25 2.9 Q3.9 0.3 3.4 -2.75 2.45 -10.6 1.95 -18.5 1.8 -21.3 2.7 -23.9 L-0.9 -23.5 Q-1.6 -10.95 0.85 1.55 L0.75 1.9 Q-0.4 1.25 -0.8 -1.05 L-1.3 -4.4 Q-4.35 -4.2 -7.85 -5.3 L-11.75 -6.2 -11.75 -5.95 -12.25 -5.2 -12.25 -4.85 -12.25 -4.5 -14.6 -1.85 1.4 2.4 1.4 2.25 M5.65 -0.1 Q5.6 0.95 6.25 1.75 L6.65 2.15 6.7 2.4 6.75 2.55 6.75 2.9 Q7.35 4.0 8.65 4.4 L8.85 4.3 8.65 4.0 8.6 1.8 8.55 -2.35 5.5 -3.25 8.55 -3.15 8.65 -11.3 3.35 -11.4 Q4.05 -6.1 5.15 -0.85 L5.4 -0.5 5.65 -0.1 M9.75 -2.95 Q12.95 -2.4 15.95 -2.85 L16.4 -11.25 9.45 -11.3 9.75 -2.95 M19.3 -3.8 Q20.45 -7.45 21.0 -11.3 L17.4 -11.25 17.0 -3.05 19.3 -3.8 M15.9 -2.1 Q13.05 -1.5 9.8 -2.1 L10.05 1.95 10.2 4.35 10.2 5.1 10.35 5.1 Q12.9 5.05 15.1 3.7 L15.1 3.55 Q15.05 3.15 15.5 2.75 L15.8 -0.7 15.9 -2.1 M16.85 -1.1 L16.55 2.25 16.9 2.25 18.25 -0.85 19.15 -3.3 16.95 -2.4 16.85 -1.1 M17.45 -12.35 L21.05 -11.85 21.35 -16.85 21.35 -18.75 Q19.4 -19.65 17.45 -20.15 L17.45 -12.35 M17.45 -20.95 Q19.45 -20.4 21.35 -19.35 L20.95 -24.8 17.35 -24.85 17.45 -20.95 M-11.5 -29.95 L-11.4 -30.3 -11.1 -30.7 -10.5 -30.9 -10.5 -30.95 -9.9 -30.65 -9.6 -30.35 -9.7 -29.6 -9.85 -29.2 -10.5 -28.95 Q-11.5 -29.1 -11.5 -29.95 M-10.9 -23.3 L-10.95 -23.3 -10.9 -23.2 -10.75 -22.85 Q-12.2 -22.2 -13.65 -22.0 L-12.5 -8.95 -12.5 -8.6 -12.0 -7.85 -11.85 -7.1 Q-6.45 -6.75 -1.4 -4.95 -2.55 -14.25 -1.2 -23.5 -6.05 -23.1 -10.75 -23.3 L-10.9 -23.3" fill="#000000" fill-rule="evenodd" stroke="none"/>
    <path d="M21.15 -26.5 L20.95 -26.35 20.8 -26.2 17.25 -26.15 17.25 -26.35 17.0 -26.3 16.5 -26.1 16.5 -26.05 15.5 -25.95 13.9 -25.85 12.1 -25.7 3.95 -25.2 -14.65 -24.25 -17.1 -24.15 -15.45 -25.35 -14.2 -26.2 Q-6.6 -26.7 0.95 -27.95 5.65 -28.75 10.45 -28.1 L19.95 -27.7 22.9 -28.05 24.5 -26.85 26.05 -25.6 24.3 -25.9 21.95 -26.15 21.75 -26.6 21.15 -26.5 M20.45 -32.8 L21.65 -30.95 21.85 -30.6 21.85 -30.2 21.85 -29.1 21.85 -28.7 21.85 -28.6 19.3 -28.65 5.5 -29.45 Q-3.3 -27.25 -12.85 -27.45 L-13.3 -27.45 -13.35 -30.6 Q-13.35 -32.6 -12.0 -34.1 -3.15 -43.9 10.45 -41.35 13.8 -40.7 16.5 -38.45 16.65 -37.7 17.35 -37.3 L17.95 -37.0 18.05 -36.85 19.15 -34.95 20.45 -32.8 M23.85 -25.15 L23.7 -16.6 23.25 -1.35 18.8 2.3 Q21.55 -1.25 22.0 -6.7 L22.45 -11.35 22.75 -11.35 22.6 -11.55 22.45 -11.55 22.95 -16.05 Q23.55 -20.8 22.35 -24.9 L23.85 -25.15 M18.5 -31.85 L18.05 -31.65 Q17.5 -31.35 17.6 -30.7 L18.5 -30.1 19.0 -30.2 19.1 -30.45 19.25 -31.05 19.25 -31.2 19.05 -31.5 18.5 -31.85 M4.0 -31.95 L4.0 -31.9 3.4 -31.7 3.1 -31.3 3.0 -30.95 Q3.0 -30.1 4.0 -29.95 L4.65 -30.2 4.8 -30.6 4.9 -31.35 4.6 -31.65 4.0 -31.95 M1.4 2.4 L-14.6 -1.85 -12.25 -4.5 -12.25 -4.85 -12.25 -5.2 -11.75 -5.95 -11.75 -6.2 -7.85 -5.3 Q-4.35 -4.2 -1.3 -4.4 L-0.8 -1.05 Q-0.4 1.25 0.75 1.9 L0.85 1.55 Q-1.6 -10.95 -0.9 -23.5 L2.7 -23.9 Q1.8 -21.3 1.95 -18.5 2.45 -10.6 3.4 -2.75 3.9 0.3 5.25 2.9 L5.65 4.0 3.5 3.25 3.5 2.95 2.8 2.75 2.25 2.0 1.65 2.1 1.4 2.25 1.4 2.4 M-11.5 -29.95 Q-11.5 -29.1 -10.5 -28.95 L-9.85 -29.2 -9.7 -29.6 -9.6 -30.35 -9.9 -30.65 -10.5 -30.95 -10.5 -30.9 -11.1 -30.7 -11.4 -30.3 -11.5 -29.95 M-10.75 -23.3 Q-6.05 -23.1 -1.2 -23.5 -2.55 -14.25 -1.4 -4.95 -6.45 -6.75 -11.85 -7.1 L-12.0 -7.85 -12.5 -8.6 -12.5 -8.95 -13.65 -22.0 Q-12.2 -22.2 -10.75 -22.85 L-10.75 -23.3" fill="#3f4756" fill-rule="evenodd" stroke="none"/>
    <path d="M8.9 -23.7 L8.95 -23.7 9.2 -23.8 9.1 -22.3 9.05 -21.4 8.5 -21.35 6.75 -20.8 Q4.75 -20.3 2.9 -19.3 L2.8 -23.9 3.0 -23.95 5.5 -24.25 9.0 -24.55 9.0 -24.35 8.9 -23.95 8.9 -23.7 M16.55 -20.4 L16.45 -12.45 11.5 -12.45 9.75 -12.1 9.45 -12.1 Q9.4 -16.4 9.5 -20.7 L16.55 -20.4 M9.75 -24.6 L12.0 -24.7 16.55 -24.85 16.55 -21.2 9.55 -21.5 9.55 -22.4 9.6 -23.85 9.75 -23.9 9.75 -24.6 M3.05 -14.0 Q2.8 -16.25 2.85 -18.45 L2.9 -19.0 Q5.95 -20.25 9.0 -20.65 L8.65 -12.05 3.35 -11.65 3.05 -14.0 M17.45 -20.95 L17.35 -24.85 20.95 -24.8 21.35 -19.35 Q19.45 -20.4 17.45 -20.95 M17.45 -12.35 L17.45 -20.15 Q19.4 -19.65 21.35 -18.75 L21.35 -16.85 21.05 -11.85 17.45 -12.35 M16.85 -1.1 L16.95 -2.4 19.15 -3.3 18.25 -0.85 16.9 2.25 16.55 2.25 16.85 -1.1 M15.9 -2.1 L15.8 -0.7 15.5 2.75 Q15.05 3.15 15.1 3.55 L15.1 3.7 Q12.9 5.05 10.35 5.1 L10.2 5.1 10.2 4.35 10.05 1.95 9.8 -2.1 Q13.05 -1.5 15.9 -2.1 M19.3 -3.8 L17.0 -3.05 17.4 -11.25 21.0 -11.3 Q20.45 -7.45 19.3 -3.8 M9.75 -2.95 L9.45 -11.3 16.4 -11.25 15.95 -2.85 Q12.95 -2.4 9.75 -2.95 M5.65 -0.1 L5.4 -0.5 5.15 -0.85 Q4.05 -6.1 3.35 -11.4 L8.65 -11.3 8.55 -3.15 5.5 -3.25 8.55 -2.35 8.6 1.8 8.65 4.0 8.85 4.3 8.65 4.4 Q7.35 4.0 6.75 2.9 L6.75 2.55 6.7 2.4 6.65 2.15 6.25 1.75 Q5.6 0.95 5.65 -0.1" fill="#494a4b" fill-rule="evenodd" stroke="none"/>
    <path d="M-10.9 -23.2 L-10.9 -23.3 -10.75 -23.3 -10.75 -22.85 -10.9 -23.2" fill="#006699" fill-rule="evenodd" stroke="none"/>
  </g>
</svg>
