<?xml version="1.0" encoding="UTF-8" standalone="no"?>
<svg xmlns:xlink="http://www.w3.org/1999/xlink" height="51.05px" width="49.7px" xmlns="http://www.w3.org/2000/svg">
  <g transform="matrix(1.0, 0.0, 0.0, 1.0, 24.5, 23.35)">
    <path d="M14.4 -18.0 Q15.85 -16.55 16.9 -14.7 L17.2 -13.85 18.05 -12.5 18.35 -11.9 18.6 -11.35 19.5 -8.65 19.6 -8.55 20.1 -8.55 20.25 -8.35 19.9 -8.3 22.5 -6.1 22.5 -6.05 23.75 -5.05 24.7 -4.75 25.2 -4.45 24.7 -4.2 24.45 -4.2 Q22.45 -5.2 20.2 -5.2 L19.4 -5.45 19.4 -5.55 18.95 -5.5 18.15 18.6 18.1 18.95 17.35 19.6 17.05 19.45 Q15.2 21.75 12.1 23.7 9.5 25.3 6.45 25.8 L6.0 26.1 Q-0.05 28.75 -5.35 27.0 L-5.45 27.1 -5.5 26.95 -7.4 26.1 Q-13.25 24.2 -16.4 19.6 L-16.4 19.55 -16.5 19.6 -16.6 19.25 -17.35 17.95 -17.05 17.65 Q-19.45 8.15 -19.3 -1.95 L-19.35 -1.95 Q-20.85 -1.95 -22.4 -2.5 L-24.1 -2.35 -24.5 -2.7 -24.35 -3.05 -23.7 -4.05 -23.95 -4.1 -23.7 -4.1 -23.05 -4.85 -23.65 -4.35 Q-22.4 -6.6 -19.8 -7.2 L-19.4 -7.45 -19.5 -7.8 -19.75 -8.2 Q-20.2 -12.05 -17.7 -15.1 -13.7 -19.95 -7.85 -22.2 L-4.9 -23.35 6.5 -22.7 Q9.95 -22.4 12.6 -20.3 13.45 -19.6 13.9 -18.45 L14.4 -18.0 M17.4 -8.7 L17.35 -8.7 17.35 -9.1 17.4 -10.2 17.45 -10.6 17.25 -10.95 14.9 -14.95 13.85 -16.85 13.8 -17.0 13.2 -17.3 Q12.5 -17.7 12.4 -18.45 9.75 -20.7 6.45 -21.35 -7.05 -23.9 -16.3 -14.1 -17.7 -12.6 -17.75 -10.6 L-17.85 -7.45 -17.4 -7.45 Q-7.85 -7.25 1.05 -9.45 L17.35 -8.6 17.55 -8.6 17.4 -8.7 M10.1 -12.65 L10.7 -12.3 11.0 -12.0 10.95 -11.25 10.8 -10.65 Q10.65 -10.55 10.55 -10.55 L10.0 -10.4 9.05 -11.0 9.0 -11.75 9.1 -12.15 9.65 -12.45 10.1 -12.65 M2.75 -4.55 L-0.95 -4.4 -5.65 -4.0 -6.2 1.75 -1.95 1.1 2.85 1.25 2.65 -3.75 2.75 -4.55 M10.1 -4.75 L10.05 -5.15 10.75 -5.5 8.7 -5.4 5.9 -4.75 5.8 -4.75 3.5 -4.6 3.9 1.25 10.5 1.45 10.1 -4.75 M10.1 -6.15 L10.6 -6.3 10.85 -6.4 12.25 -6.3 12.4 -6.25 17.65 -6.05 17.8 -6.05 17.8 -6.1 18.6 -6.4 18.6 -6.5 18.95 -6.15 18.95 -6.05 20.9 -6.05 18.4 -8.05 16.15 -7.8 15.4 -7.75 15.4 -7.7 5.95 -8.1 Q1.15 -8.75 -3.6 -7.95 -11.2 -6.7 -18.8 -6.2 L-21.75 -4.15 -19.2 -4.25 -19.2 -4.4 -19.1 -4.5 -19.05 -4.5 -18.4 -4.45 -18.4 -4.3 7.85 -5.75 10.1 -6.15 M18.65 -9.45 L18.9 -9.15 19.05 -9.0 18.65 -9.85 18.65 -9.45 M14.55 -6.75 L14.55 -6.45 14.15 -6.45 14.15 -6.65 14.55 -6.75 M14.2 -5.2 L14.2 -5.25 13.75 -5.25 13.9 -5.2 13.6 -5.25 13.45 -5.25 11.5 -5.5 11.2 -5.5 11.45 -5.25 Q13.0 6.1 11.0 17.35 L11.1 17.35 11.0 17.4 10.05 21.75 10.0 22.1 9.0 23.45 12.65 21.65 12.7 20.6 12.7 20.2 13.1 19.85 Q14.25 7.3 14.2 -5.2 M14.6 -5.25 Q15.35 7.85 13.95 20.95 L16.7 19.25 Q17.0 6.9 17.75 -5.4 L14.6 -5.25 M21.45 -5.6 L21.3 -5.7 21.0 -5.7 21.45 -5.6 M10.5 1.65 L3.9 2.0 4.0 9.5 4.5 9.45 6.75 9.25 10.35 9.45 10.5 1.65 M2.9 2.05 L-4.95 2.7 -6.25 2.8 -6.55 10.25 2.9 9.55 2.9 2.05 M3.65 17.95 L9.45 17.5 Q10.1 13.55 10.35 9.65 L4.0 10.25 3.75 16.45 3.65 17.95 M2.85 24.0 L2.8 25.1 2.35 25.45 1.75 25.45 2.4 19.1 -6.15 19.5 -5.5 25.0 -5.5 25.35 -5.0 26.1 -5.0 26.15 Q-1.85 27.1 2.65 25.6 6.05 24.45 8.4 21.85 L8.55 20.7 8.55 20.35 8.85 19.95 9.1 19.6 9.4 17.8 3.55 18.95 2.85 24.0 M2.85 10.35 L-6.55 11.3 -6.2 18.55 2.5 18.0 2.85 10.35 M-22.2 -3.85 L-21.4 -3.6 -20.4 -3.65 -22.2 -3.85 M-12.9 -10.3 L-12.6 -10.0 -12.6 -9.25 -12.8 -8.65 -13.05 -8.55 -13.55 -8.4 -14.55 -9.0 -14.55 -9.75 -14.5 -10.15 -13.95 -10.45 -13.45 -10.65 -12.9 -10.3 M-11.85 21.7 L-12.5 19.05 -12.85 19.0 -12.9 18.85 -12.55 18.85 Q-14.85 8.0 -13.8 -3.25 L-15.45 -3.3 -15.6 -3.3 -15.7 -3.3 -15.6 -3.2 -15.5 -2.85 -16.45 -2.45 Q-15.85 6.95 -15.85 16.4 L-15.45 18.55 Q-13.95 20.5 -12.05 21.95 L-10.9 22.75 -11.85 21.7 M-17.0 -2.35 L-18.25 -2.15 Q-17.65 5.5 -16.4 13.1 -16.55 6.75 -17.05 0.45 -17.2 -1.05 -17.0 -2.35 M-12.9 -3.25 Q-13.7 8.05 -11.1 18.8 L-6.75 18.55 -7.25 11.35 -8.55 11.5 Q-10.6 11.75 -12.05 10.85 L-7.25 10.3 Q-7.3 6.6 -7.0 2.85 -10.05 3.05 -12.75 2.85 L-12.5 2.8 -9.0 2.25 -8.2 2.1 -6.95 1.85 -6.55 -2.4 -6.1 -3.95 -11.15 -3.3 -11.5 -3.25 -12.9 -3.25 M-10.55 20.95 Q-9.65 22.9 -8.35 24.15 L-7.55 24.5 Q-6.85 24.8 -6.65 25.45 L-5.7 25.9 -6.65 19.45 -11.0 19.2 -10.55 20.95" fill="#000000" fill-rule="evenodd" stroke="none"/>
    <path d="M17.35 -8.6 L1.05 -9.45 Q-7.85 -7.25 -17.4 -7.45 L-17.85 -7.45 -17.75 -10.6 Q-17.7 -12.6 -16.3 -14.1 -7.05 -23.9 6.45 -21.35 9.75 -20.7 12.4 -18.45 12.5 -17.7 13.2 -17.3 L13.8 -17.0 13.85 -16.85 14.9 -14.95 17.25 -10.95 17.45 -10.6 17.4 -10.2 17.35 -9.1 17.35 -8.7 17.4 -8.7 17.35 -8.6 M10.1 -12.65 L9.65 -12.45 9.1 -12.15 9.0 -11.75 9.05 -11.0 10.0 -10.4 10.55 -10.55 Q10.65 -10.55 10.8 -10.65 L10.95 -11.25 11.0 -12.0 10.7 -12.3 10.1 -12.65 M10.1 -6.15 L7.85 -5.75 -18.4 -4.3 -18.4 -4.45 -19.05 -4.5 -19.1 -4.5 -19.2 -4.4 -19.2 -4.25 -21.75 -4.15 -18.8 -6.2 Q-11.2 -6.7 -3.6 -7.95 1.15 -8.75 5.95 -8.1 L15.4 -7.7 15.4 -7.75 16.15 -7.8 18.4 -8.05 20.9 -6.05 18.95 -6.05 18.95 -6.15 18.6 -6.5 18.6 -6.4 17.8 -6.1 17.8 -6.05 17.65 -6.05 12.4 -6.25 12.25 -6.3 10.85 -6.4 10.6 -6.3 10.1 -6.15 M14.55 -6.75 L14.15 -6.65 14.15 -6.45 14.55 -6.45 14.55 -6.75 M14.2 -5.2 Q14.25 7.3 13.1 19.85 L12.7 20.2 12.7 20.6 12.65 21.65 9.0 23.45 10.0 22.1 10.05 21.75 11.0 17.4 11.1 17.35 11.0 17.35 Q13.0 6.1 11.45 -5.25 L11.5 -5.5 13.45 -5.25 13.6 -5.25 13.9 -5.2 14.2 -5.2 M14.6 -5.25 L17.75 -5.4 Q17.0 6.9 16.7 19.25 L13.95 20.95 Q15.35 7.85 14.6 -5.25 M-12.05 21.95 Q-13.95 20.5 -15.45 18.55 L-15.85 16.4 Q-15.85 6.95 -16.45 -2.45 L-15.5 -2.85 -15.6 -3.2 -15.7 -3.3 -15.6 -3.3 -15.45 -3.3 -13.8 -3.25 Q-14.85 8.0 -12.55 18.85 L-12.9 18.85 -12.85 19.0 -12.5 19.05 -11.85 21.7 -12.05 21.95 M-12.9 -10.3 L-13.45 -10.65 -13.95 -10.45 -14.5 -10.15 -14.55 -9.75 -14.55 -9.0 -13.55 -8.4 -13.05 -8.55 -12.8 -8.65 -12.6 -9.25 -12.6 -10.0 -12.9 -10.3 M-17.0 -2.35 Q-17.2 -1.05 -17.05 0.45 -16.55 6.75 -16.4 13.1 -17.65 5.5 -18.25 -2.15 L-17.0 -2.35" fill="#3f4756" fill-rule="evenodd" stroke="none"/>
    <path d="M2.75 -4.55 L2.65 -3.75 2.85 1.25 -1.95 1.1 -6.2 1.75 -5.65 -4.0 -0.95 -4.4 2.75 -4.55 M10.1 -4.75 L10.5 1.45 3.9 1.25 3.5 -4.6 5.8 -4.75 5.9 -4.75 8.7 -5.4 10.75 -5.5 10.05 -5.15 10.1 -4.75 M2.85 10.35 L2.5 18.0 -6.2 18.55 -6.55 11.3 2.85 10.35 M2.85 24.0 L3.55 18.95 9.4 17.8 9.1 19.6 8.85 19.95 8.55 20.35 8.55 20.7 8.4 21.85 Q6.05 24.45 2.65 25.6 -1.85 27.1 -5.0 26.15 L-5.0 26.1 -5.5 25.35 -5.5 25.0 -6.15 19.5 2.4 19.1 1.75 25.45 2.35 25.45 2.8 25.1 2.85 24.0 M3.65 17.95 L3.75 16.45 4.0 10.25 10.35 9.65 Q10.1 13.55 9.45 17.5 L3.65 17.95 M2.9 2.05 L2.9 9.55 -6.55 10.25 -6.25 2.8 -4.95 2.7 2.9 2.05 M10.5 1.65 L10.35 9.45 6.75 9.25 4.5 9.45 4.0 9.5 3.9 2.0 10.5 1.65 M-10.55 20.95 L-11.0 19.2 -6.65 19.45 -5.7 25.9 -6.65 25.45 Q-6.85 24.8 -7.55 24.5 L-8.35 24.15 Q-9.65 22.9 -10.55 20.95 M-12.9 -3.25 L-11.5 -3.25 -11.15 -3.3 -6.1 -3.95 -6.55 -2.4 -6.95 1.85 -8.2 2.1 -9.0 2.25 -12.5 2.8 -12.75 2.85 Q-10.05 3.05 -7.0 2.85 -7.3 6.6 -7.25 10.3 L-12.05 10.85 Q-10.6 11.75 -8.55 11.5 L-7.25 11.35 -6.75 18.55 -11.1 18.8 Q-13.7 8.05 -12.9 -3.25" fill="#494a4b" fill-rule="evenodd" stroke="none"/>
  </g>
</svg>
