<?xml version="1.0" encoding="UTF-8" standalone="no"?>
<svg xmlns:xlink="http://www.w3.org/1999/xlink" height="48.65px" width="47.25px" xmlns="http://www.w3.org/2000/svg">
  <g transform="matrix(1.0, 0.0, 0.0, 1.0, 23.0, 24.9)">
    <path d="M18.65 -10.25 L18.6 -10.25 18.6 -10.65 18.6 -11.75 18.6 -12.15 18.4 -12.5 15.9 -16.5 14.8 -18.4 14.7 -18.55 14.1 -18.85 Q13.4 -19.25 13.25 -20.0 10.55 -22.25 7.2 -22.9 -6.4 -25.45 -15.25 -15.65 -16.6 -14.15 -16.6 -12.15 L-16.55 -9.0 -16.1 -9.0 Q-6.55 -8.8 2.25 -11.0 L18.6 -10.15 18.85 -10.15 18.65 -10.25 M22.65 -7.2 L19.65 -7.0 Q21.55 7.75 18.5 22.05 L17.85 23.1 11.5 23.3 10.0 23.45 8.5 23.4 8.5 23.45 7.65 23.75 7.6 23.6 Q-1.3 23.95 -9.75 20.7 L-8.2 20.45 -19.85 17.6 Q-19.45 16.0 -18.35 14.6 L-17.25 13.85 Q-16.85 13.35 -17.0 12.75 L-16.6 12.35 -16.55 12.2 -16.5 12.15 -16.4 11.75 Q-16.4 10.6 -16.9 9.9 -17.35 3.2 -17.3 -3.55 -19.1 -3.45 -20.9 -4.05 L-22.6 -3.9 -23.0 -4.25 -22.9 -4.6 -22.25 -5.6 -22.5 -5.65 -22.25 -5.65 -21.65 -6.4 -22.25 -5.9 Q-21.05 -8.15 -18.45 -8.75 L-18.1 -9.0 -18.2 -9.35 -18.5 -9.75 Q-19.1 -13.6 -16.7 -16.65 -12.9 -21.5 -7.15 -23.75 L-4.25 -24.9 7.2 -24.25 Q10.65 -23.95 13.4 -21.85 14.3 -21.15 14.75 -20.0 L15.3 -19.55 Q16.8 -18.1 17.9 -16.25 L18.25 -15.4 19.15 -14.05 19.45 -13.45 19.75 -12.9 20.75 -10.2 20.85 -10.1 21.35 -10.1 21.5 -9.9 21.2 -9.85 24.25 -7.3 22.75 -7.2 22.7 -7.25 19.65 -9.6 Q13.6 -8.75 7.2 -9.65 2.4 -10.3 -2.3 -9.5 L-17.45 -7.75 -20.35 -5.7 5.75 -7.05 6.1 -7.15 6.1 -7.05 9.45 -7.3 9.5 -7.4 9.6 -7.45 10.25 -7.5 10.4 -7.35 10.65 -7.4 11.5 -7.45 11.95 -7.45 12.25 -7.5 13.25 -7.6 Q16.5 -7.95 19.75 -7.5 L19.85 -7.6 22.65 -7.2 M11.05 -13.7 L11.35 -13.4 11.3 -12.65 11.1 -12.25 10.5 -12.0 Q9.5 -12.15 9.5 -13.0 L9.55 -13.35 9.85 -13.75 10.45 -13.95 10.5 -14.0 11.05 -13.7 M5.7 -5.6 L5.75 -5.75 5.75 -6.1 -0.25 -5.5 -0.45 -5.45 -0.4 -5.05 -0.7 -5.0 -0.55 -5.45 -3.9 -5.1 -3.95 -5.1 -7.35 -4.85 Q-10.7 -4.7 -14.0 -4.85 L-14.15 -4.85 -14.2 -4.85 -14.15 -4.75 -14.0 -4.4 Q-15.45 -3.75 -16.9 -3.55 -16.25 2.95 -15.75 9.5 L-15.75 9.85 -15.7 9.9 -15.8 10.2 Q-16.05 11.8 -15.9 13.0 L-15.25 13.05 -14.85 13.0 -14.25 12.95 Q-3.65 14.15 6.95 16.1 L6.9 13.35 Q5.55 4.0 5.75 -5.6 L5.7 -5.6 M6.5 -6.15 L6.5 -5.7 6.2 -5.65 7.55 16.25 7.7 16.25 8.0 16.45 7.6 16.5 7.6 16.85 7.5 17.1 7.4 16.5 7.35 16.5 8.0 22.05 11.25 21.6 Q11.75 20.4 11.65 19.1 L11.6 19.1 11.25 18.7 Q8.95 6.4 9.4 -6.3 L6.5 -6.15 M19.85 -11.0 L20.15 -10.7 20.3 -10.55 19.85 -11.4 19.85 -11.0 M18.35 -6.9 L14.65 -6.6 14.5 -6.65 13.1 -6.45 12.35 -6.4 10.6 -6.35 Q10.5 1.0 11.3 8.3 L11.5 8.1 15.15 7.65 14.85 0.4 10.75 -0.15 14.85 -0.7 14.75 -6.0 Q14.75 -6.25 15.1 -6.15 L15.5 -0.8 16.5 -1.0 18.85 -0.4 18.4 -6.65 18.35 -6.9 M15.55 0.4 L16.05 7.55 18.1 7.25 18.6 7.25 16.1 8.5 16.55 15.25 17.7 14.85 18.35 14.7 Q19.15 7.45 18.9 0.15 L15.55 0.4 M11.4 9.1 Q11.9 13.55 12.7 18.0 L12.75 18.35 12.25 19.1 12.05 19.1 13.0 21.75 15.5 21.55 Q15.5 20.95 16.0 20.45 L15.65 16.3 Q14.2 16.35 12.3 15.5 L12.25 15.35 15.6 15.45 15.2 8.75 11.4 9.1 M7.35 16.2 L7.35 16.1 7.35 16.2 M6.95 16.5 Q2.05 16.6 -3.8 15.35 -9.75 14.1 -15.9 14.45 L-17.85 16.6 -11.2 18.4 -8.25 20.2 -8.05 20.45 -5.05 20.75 0.2 21.7 7.4 22.1 6.95 16.5 M16.6 16.1 L16.9 20.85 16.85 21.2 16.45 21.5 17.35 21.45 18.3 15.05 Q17.55 15.8 16.6 16.1 M-6.95 -12.8 L-6.65 -12.5 -6.6 -11.75 -6.75 -11.15 -7.0 -11.05 -7.5 -10.9 -8.5 -11.5 -8.55 -12.25 -8.5 -12.65 -8.0 -12.95 -7.5 -13.15 -6.95 -12.8 M-18.95 -5.2 L-20.75 -5.4 -19.95 -5.15 -18.95 -5.2" fill="#000000" fill-rule="evenodd" stroke="none"/>
    <path d="M18.6 -10.15 L2.25 -11.0 Q-6.55 -8.8 -16.1 -9.0 L-16.55 -9.0 -16.6 -12.15 Q-16.6 -14.15 -15.25 -15.65 -6.4 -25.45 7.2 -22.9 10.55 -22.25 13.25 -20.0 13.4 -19.25 14.1 -18.85 L14.7 -18.55 14.8 -18.4 15.9 -16.5 18.4 -12.5 18.6 -12.15 18.6 -11.75 18.6 -10.65 18.6 -10.25 18.65 -10.25 18.6 -10.15 M22.7 -7.25 L22.65 -7.2 19.85 -7.6 19.75 -7.5 Q16.5 -7.95 13.25 -7.6 L12.25 -7.5 11.95 -7.45 11.5 -7.45 10.65 -7.4 10.4 -7.35 10.25 -7.5 9.6 -7.45 9.5 -7.4 9.45 -7.3 6.1 -7.05 6.1 -7.15 5.75 -7.05 -20.35 -5.7 -17.45 -7.75 -2.3 -9.5 Q2.4 -10.3 7.2 -9.65 13.6 -8.75 19.65 -9.6 L22.7 -7.25 M5.7 -5.6 L5.75 -5.6 Q5.55 4.0 6.9 13.35 L6.95 16.1 Q-3.65 14.15 -14.25 12.95 L-14.85 13.0 -15.25 13.05 -15.9 13.0 Q-16.05 11.8 -15.8 10.2 L-15.7 9.9 -15.75 9.85 -15.75 9.5 Q-16.25 2.95 -16.9 -3.55 -15.45 -3.75 -14.0 -4.4 L-14.15 -4.75 -14.2 -4.85 -14.15 -4.85 -14.0 -4.85 Q-10.7 -4.7 -7.35 -4.85 L-3.95 -5.1 -3.9 -5.1 -0.55 -5.45 -0.7 -5.0 -0.4 -5.05 -0.45 -5.45 -0.25 -5.5 5.75 -6.1 5.75 -5.75 5.7 -5.6 M11.05 -13.7 L10.5 -14.0 10.45 -13.95 9.85 -13.75 9.55 -13.35 9.5 -13.0 Q9.5 -12.15 10.5 -12.0 L11.1 -12.25 11.3 -12.65 11.35 -13.4 11.05 -13.7 M6.5 -6.15 L9.4 -6.3 Q8.95 6.4 11.25 18.7 L11.6 19.1 11.65 19.1 Q11.75 20.4 11.25 21.6 L8.0 22.05 7.35 16.5 7.4 16.5 7.5 17.1 7.6 16.85 7.6 16.5 8.0 16.45 7.7 16.25 7.55 16.25 6.2 -5.65 6.5 -5.7 6.5 -6.15 M6.95 16.5 L7.4 22.1 0.2 21.7 -5.05 20.75 -8.05 20.45 -8.25 20.2 -11.2 18.4 -17.85 16.6 -15.9 14.45 Q-9.75 14.1 -3.8 15.35 2.05 16.6 6.95 16.5 M7.35 16.2 L7.35 16.1 7.35 16.2 M-6.95 -12.8 L-7.5 -13.15 -8.0 -12.95 -8.5 -12.65 -8.55 -12.25 -8.5 -11.5 -7.5 -10.9 -7.0 -11.05 -6.75 -11.15 -6.6 -11.75 -6.65 -12.5 -6.95 -12.8" fill="#3f4756" fill-rule="evenodd" stroke="none"/>
    <path d="M11.4 9.1 L15.2 8.75 15.6 15.45 12.25 15.35 12.3 15.5 Q14.2 16.35 15.65 16.3 L16.0 20.45 Q15.5 20.95 15.5 21.55 L13.0 21.75 12.05 19.1 12.25 19.1 12.75 18.35 12.7 18.0 Q11.9 13.55 11.4 9.1 M15.55 0.4 L18.9 0.15 Q19.15 7.45 18.35 14.7 L17.7 14.85 16.55 15.25 16.1 8.5 18.6 7.25 18.1 7.25 16.05 7.55 15.55 0.4 M18.35 -6.9 L18.4 -6.65 18.85 -0.4 16.5 -1.0 15.5 -0.8 15.1 -6.15 Q14.75 -6.25 14.75 -6.0 L14.85 -0.7 10.75 -0.15 14.85 0.4 15.15 7.65 11.5 8.1 11.3 8.3 Q10.5 1.0 10.6 -6.35 L12.35 -6.4 13.1 -6.45 14.5 -6.65 14.65 -6.6 18.35 -6.9 M16.6 16.1 Q17.55 15.8 18.3 15.05 L17.35 21.45 16.45 21.5 16.85 21.2 16.9 20.85 16.6 16.1" fill="#494a4b" fill-rule="evenodd" stroke="none"/>
  </g>
</svg>
