<?xml version="1.0" encoding="UTF-8" standalone="no"?>
<svg xmlns:xlink="http://www.w3.org/1999/xlink" height="47.0px" width="47.1px" xmlns="http://www.w3.org/2000/svg">
  <g transform="matrix(1.0, 0.0, 0.0, 1.0, 25.55, 22.85)">
    <path d="M-18.5 18.5 L-18.5 18.45 -18.0 18.0 -17.85 17.65 -18.05 14.95 -10.0 15.95 Q3.5 17.1 15.4 11.75 L15.35 17.2 15.15 17.4 Q13.65 18.55 11.95 19.2 -1.3 24.25 -15.25 20.0 L-15.6 19.8 Q-16.9 19.1 -18.5 18.5 M16.05 -8.1 L-0.3 -8.95 Q-9.1 -6.75 -18.65 -6.95 L-19.1 -6.95 -19.15 -10.1 Q-19.15 -12.1 -17.8 -13.6 -8.95 -23.4 4.65 -20.85 8.0 -20.2 10.7 -17.95 10.85 -17.2 11.55 -16.8 L12.15 -16.5 12.25 -16.35 13.35 -14.45 15.85 -10.45 16.05 -10.1 16.05 -9.7 16.05 -8.6 16.05 -8.2 16.1 -8.2 16.05 -8.1 M-16.6 -9.95 L-16.9 -10.3 -17.5 -10.6 -17.95 -10.4 -18.5 -10.1 -18.55 -9.7 -18.5 -8.95 -17.5 -8.35 -17.0 -8.5 -16.75 -8.6 Q-16.6 -8.9 -16.6 -9.25 L-16.6 -9.95 M-19.2 -2.1 L-18.85 -2.15 -16.85 -2.2 -16.55 -2.35 -16.7 -2.7 -16.55 -2.8 Q-11.85 -2.6 -7.0 -3.0 L-7.05 -2.65 -6.75 -2.7 -6.7 -3.0 -3.1 -3.4 -3.25 -2.95 -2.95 -3.0 -2.8 -3.45 -2.25 -3.5 Q-2.55 5.8 -0.7 14.7 L-2.0 14.65 Q-10.25 14.35 -18.1 14.4 L-19.2 -2.1 M-1.95 -11.0 L-2.5 -11.35 -2.95 -11.15 Q-3.45 -10.85 -3.35 -10.2 L-2.5 -9.6 -2.0 -9.7 -1.9 -10.0 -1.75 -10.7 -1.95 -11.0 M5.55 -4.7 L6.1 -5.15 6.2 -5.2 -22.9 -3.65 -20.0 -5.7 -4.85 -7.45 Q-0.15 -8.25 4.65 -7.6 L10.7 -7.15 11.0 -7.2 12.1 -7.15 17.1 -7.55 20.25 -5.1 18.7 -5.4 16.85 -5.85 15.75 -5.7 15.75 -5.85 15.65 -5.7 5.55 -4.6 5.55 -4.7 M3.2 -4.05 L3.3 -3.9 3.2 -3.85 3.2 -3.7 3.95 -3.85 3.95 -4.1 14.9 -4.6 Q13.95 -2.75 14.35 0.15 15.2 5.95 15.4 11.7 10.05 13.8 4.15 14.45 L-0.45 14.7 -1.8 -3.55 3.2 -4.05 M13.0 -9.35 L13.5 -9.5 13.75 -9.6 13.9 -10.25 13.85 -10.95 13.6 -11.3 13.0 -11.6 12.55 -11.4 12.0 -11.1 11.95 -10.7 12.0 -9.95 13.0 -9.35" fill="#3f4756" fill-rule="evenodd" stroke="none"/>
    <path d="M-18.5 18.45 L-19.1 18.0 -19.55 14.6 -19.85 14.4 -19.55 14.4 Q-20.45 6.15 -19.95 -2.05 L-21.65 -1.55 -23.45 -2.0 -25.15 -1.85 -25.55 -2.2 -25.45 -2.55 -24.8 -3.55 -25.05 -3.6 -24.8 -3.6 -24.2 -4.35 -24.8 -3.85 Q-23.6 -6.1 -21.0 -6.7 L-20.65 -6.95 -20.75 -7.3 -21.05 -7.7 Q-21.65 -11.55 -19.25 -14.6 -15.45 -19.45 -9.7 -21.7 L-6.8 -22.85 4.65 -22.2 Q8.1 -21.9 10.85 -19.8 11.75 -19.1 12.2 -17.95 L12.75 -17.5 Q14.25 -16.05 15.35 -14.2 L15.7 -13.35 16.6 -12.0 16.9 -11.4 17.2 -10.85 18.2 -8.15 18.3 -8.05 18.8 -8.05 18.95 -7.85 18.65 -7.8 18.8 -7.65 21.55 -5.4 20.8 -4.55 18.45 -4.7 18.5 -4.15 18.05 -4.35 18.05 -4.65 17.35 -4.55 16.9 -4.7 15.8 -4.65 Q15.95 4.4 17.2 13.65 L17.25 14.0 16.75 14.75 16.75 16.65 16.75 17.0 16.5 17.25 16.6 17.4 Q8.2 25.4 -4.15 23.95 -11.2 23.15 -17.55 20.6 -18.5 20.2 -19.0 19.25 L-18.5 18.5 Q-16.9 19.1 -15.6 19.8 L-15.25 20.0 Q-1.3 24.25 11.95 19.2 13.65 18.55 15.15 17.4 L15.35 17.2 15.4 11.75 Q3.5 17.1 -10.0 15.95 L-18.05 14.95 -17.85 17.65 -18.0 18.0 -18.5 18.45 M-21.5 -3.15 L-23.3 -3.35 -22.5 -3.1 -21.5 -3.15 M-16.6 -9.95 L-16.6 -9.25 Q-16.6 -8.9 -16.75 -8.6 L-17.0 -8.5 -17.5 -8.35 -18.5 -8.95 -18.55 -9.7 -18.5 -10.1 -17.95 -10.4 -17.5 -10.6 -16.9 -10.3 -16.6 -9.95 M16.1 -8.2 L16.05 -8.2 16.05 -8.6 16.05 -9.7 16.05 -10.1 15.85 -10.45 13.35 -14.45 12.25 -16.35 12.15 -16.5 11.55 -16.8 Q10.85 -17.2 10.7 -17.95 8.0 -20.2 4.65 -20.85 -8.95 -23.4 -17.8 -13.6 -19.15 -12.1 -19.15 -10.1 L-19.1 -6.95 -18.65 -6.95 Q-9.1 -6.75 -0.3 -8.95 L16.05 -8.1 16.3 -8.1 16.1 -8.2 M-19.2 -2.1 L-18.1 14.4 Q-10.25 14.35 -2.0 14.65 L-0.7 14.7 Q-2.55 5.8 -2.25 -3.5 L-2.8 -3.45 -3.0 -3.4 -2.95 -3.0 -3.25 -2.95 -3.1 -3.4 -6.7 -3.0 -6.75 -2.7 -7.05 -2.65 -7.0 -3.0 Q-11.85 -2.6 -16.55 -2.8 L-16.7 -2.8 -16.75 -2.8 -16.7 -2.7 -16.55 -2.35 -16.85 -2.2 -18.85 -2.15 -19.2 -2.15 -19.2 -2.1 M-1.95 -11.0 L-1.75 -10.7 -1.9 -10.0 -2.0 -9.7 -2.5 -9.6 -3.35 -10.2 Q-3.45 -10.85 -2.95 -11.15 L-2.5 -11.35 -1.95 -11.0 M5.55 -4.6 L15.65 -5.7 15.75 -5.85 15.75 -5.7 16.85 -5.85 18.7 -5.4 20.25 -5.1 17.1 -7.55 12.1 -7.15 11.0 -7.2 10.7 -7.15 4.65 -7.6 Q-0.15 -8.25 -4.85 -7.45 L-20.0 -5.7 -22.9 -3.65 6.2 -5.2 6.1 -5.15 5.55 -4.7 5.45 -4.6 5.55 -4.6 M3.3 -3.9 L3.45 -4.05 3.2 -4.05 -1.8 -3.55 -0.45 14.7 4.15 14.45 Q10.05 13.8 15.4 11.7 15.2 5.95 14.35 0.15 13.95 -2.75 14.9 -4.6 L3.95 -4.1 3.95 -3.85 3.2 -3.7 3.2 -3.85 3.3 -3.9 M17.6 -8.65 L17.75 -8.5 17.3 -9.35 17.3 -8.95 17.6 -8.65 M13.0 -9.35 L12.0 -9.95 11.95 -10.7 12.0 -11.1 12.55 -11.4 13.0 -11.6 13.6 -11.3 13.85 -10.95 13.9 -10.25 13.75 -9.6 13.5 -9.5 13.0 -9.35" fill="#000000" fill-rule="evenodd" stroke="none"/>
  </g>
</svg>
