<?xml version="1.0" encoding="UTF-8" standalone="no"?>
<svg xmlns:xlink="http://www.w3.org/1999/xlink" height="88.95px" width="64.75px" xmlns="http://www.w3.org/2000/svg">
  <g transform="matrix(1.0, 0.0, 0.0, 1.0, 34.6, 41.8)">
    <path d="M27.9 12.35 Q28.25 17.45 27.55 22.65 27.15 25.35 26.4 27.95 25.7 30.25 24.35 32.2 22.3 35.0 19.8 37.5 14.3 43.15 6.5 44.5 L3.65 45.2 -4.25 45.15 Q-11.4 45.05 -17.65 42.05 -24.55 38.65 -29.1 32.5 -31.35 29.35 -31.65 25.4 L-32.15 19.95 Q-32.5 15.4 -32.0 10.6 L-28.45 11.4 -27.6 11.6 Q-28.8 18.05 -28.0 24.85 -27.75 27.2 -26.7 29.2 -22.35 37.5 -12.95 40.15 L-12.3 39.5 -12.15 39.2 -19.2 33.45 -20.45 31.75 Q-23.7 24.3 -23.1 15.95 L-22.5 12.5 -21.75 12.65 Q-7.95 14.8 6.05 13.95 L8.55 13.95 21.5 13.5 21.55 16.4 Q21.2 21.8 21.65 27.2 L22.25 27.4 22.75 27.1 22.9 26.85 Q23.05 23.85 23.45 20.95 23.95 17.1 24.0 13.1 L27.9 12.35" fill="#ff0000" fill-rule="evenodd" stroke="none"/>
    <path d="M-22.5 12.5 L-23.1 15.95 Q-23.7 24.3 -20.45 31.75 L-19.2 33.45 -12.15 39.2 -12.3 39.5 -12.95 40.15 Q-22.35 37.5 -26.7 29.2 -27.75 27.2 -28.0 24.85 -28.8 18.05 -27.6 11.6 L-22.5 12.5" fill="#d80101" fill-rule="evenodd" stroke="none"/>
    <path d="M7.4 -24.2 Q6.5 -20.5 2.0 -21.65 L1.5 -22.4 1.4 -22.7 Q1.4 -23.35 1.95 -23.8 L2.45 -24.3 5.55 -25.1 Q6.5 -25.2 7.15 -24.5 L7.4 -24.2 M16.15 6.5 L13.75 4.85 13.1 4.25 13.0 3.9 12.95 3.55 12.95 3.2 11.6 1.8 11.8 1.7 Q17.1 3.25 21.55 7.05 L23.1 8.45 23.4 8.8 23.45 9.45 23.5 10.15 23.75 10.5 23.95 10.85 24.0 13.1 Q23.95 17.1 23.45 20.95 23.05 23.85 22.9 26.85 L22.75 27.1 22.25 27.4 21.65 27.2 Q21.2 21.8 21.55 16.4 L21.5 13.5 20.95 10.5 Q18.7 8.35 16.15 6.5" fill="#ffffff" fill-rule="evenodd" stroke="none"/>
    <path d="M8.65 -30.25 L10.4 -30.75 12.2 -27.95 12.95 -21.35 12.5 -20.65 12.5 -19.6 7.2 -17.3 9.4 -4.85 Q19.8 -1.0 28.9 5.5 L29.95 14.1 Q30.9 22.6 27.7 30.3 25.65 35.05 22.0 38.8 19.6 41.3 16.75 42.95 11.9 45.7 6.6 46.55 L-2.0 47.0 Q-12.2 48.0 -21.0 42.9 -26.9 39.4 -30.4 33.5 L-31.9 30.3 Q-36.45 18.3 -33.3 5.55 -23.9 -0.9 -13.5 -5.1 L-11.55 -17.5 -16.9 -19.9 -16.9 -20.6 -17.35 -21.3 -16.85 -25.5 -16.75 -26.85 Q-16.5 -29.2 -14.8 -30.7 L-12.7 -30.15 -10.75 -29.7 Q-1.8 -28.05 7.15 -29.9 L8.65 -30.25 M9.7 -28.4 L7.1 -27.75 Q1.75 -26.7 -3.4 -26.75 -8.8 -27.0 -14.1 -28.35 L-14.7 -24.65 Q-14.9 -22.8 -14.45 -20.75 L-14.1 -20.4 -8.3 -19.2 Q0.75 -17.75 9.7 -20.45 L10.05 -20.8 10.35 -22.95 Q10.65 -25.75 9.7 -28.4 M26.9 7.85 Q23.4 4.25 18.9 1.85 13.95 -0.8 8.6 -2.6 5.6 -9.6 5.65 -17.2 L2.15 -16.85 -2.35 -16.4 -10.0 -17.15 -10.2 -13.35 Q-10.65 -7.5 -13.15 -2.3 -17.2 -1.2 -21.0 0.65 -27.1 3.5 -31.75 8.45 L-31.75 8.5 -32.0 10.6 Q-32.5 15.4 -32.15 19.95 L-31.65 25.4 Q-31.35 29.35 -29.1 32.5 -24.55 38.65 -17.65 42.05 -11.4 45.05 -4.25 45.15 L3.65 45.2 6.5 44.5 Q14.3 43.15 19.8 37.5 22.3 35.0 24.35 32.2 25.7 30.25 26.4 27.95 27.15 25.35 27.55 22.65 28.25 17.45 27.9 12.35 L27.4 8.4 26.9 7.85" fill="#525252" fill-rule="evenodd" stroke="none"/>
    <path d="M-22.05 6.25 L-20.4 5.4 Q-14.35 2.55 -8.85 -1.0 -7.35 -2.0 -7.2 -3.8 -6.9 -8.4 -4.95 -11.8 L-4.5 -11.45 Q-4.15 -5.1 -4.7 1.35 -4.8 2.95 -6.4 3.7 L-9.5 5.25 -10.4 5.7 -9.65 5.3 -10.65 5.2 -16.3 5.8 -20.1 6.15 -22.05 6.25" fill="#bababa" fill-opacity="0.6" fill-rule="evenodd" stroke="none"/>
    <path d="M26.9 7.85 L27.4 8.4 27.9 12.35 24.0 13.1 23.95 10.85 23.75 10.5 23.5 10.15 23.45 9.45 23.4 8.8 23.1 8.45 21.55 7.05 26.9 7.85 M-32.0 10.6 L-31.75 8.5 -26.9 7.4 -22.6 6.55 Q-25.95 8.5 -28.45 11.4 L-32.0 10.6 M-9.5 5.25 L-8.8 5.2 16.15 6.5 Q18.7 8.35 20.95 10.5 L21.5 13.5 8.55 13.95 6.05 13.95 Q-7.95 14.8 -21.75 12.65 L-21.15 12.25 -10.4 5.7 -9.5 5.25" fill="#e20101" fill-rule="evenodd" stroke="none"/>
    <path d="M-22.6 6.55 L-22.05 6.25 -20.1 6.15 -16.3 5.8 -10.65 5.2 -9.65 5.3 -10.4 5.7 -21.15 12.25 -21.75 12.65 -22.5 12.5 -27.6 11.6 -28.45 11.4 Q-25.95 8.5 -22.6 6.55" fill="#b40101" fill-rule="evenodd" stroke="none"/>
    <path d="M9.7 -28.4 Q10.65 -25.75 10.35 -22.95 L10.05 -20.8 9.7 -20.45 Q0.75 -17.75 -8.3 -19.2 L-14.1 -20.4 -14.45 -20.75 Q-14.9 -22.8 -14.7 -24.65 L-14.1 -28.35 Q-8.8 -27.0 -3.4 -26.75 1.75 -26.7 7.1 -27.75 L9.7 -28.4 M7.4 -24.2 L7.15 -24.5 Q6.5 -25.2 5.55 -25.1 L2.45 -24.3 1.95 -23.8 Q1.4 -23.35 1.4 -22.7 L1.5 -22.4 2.0 -21.65 Q6.5 -20.5 7.4 -24.2 M-31.75 8.5 L-31.75 8.45 Q-27.1 3.5 -21.0 0.65 -17.2 -1.2 -13.15 -2.3 -10.65 -7.5 -10.2 -13.35 L-10.0 -17.15 -2.35 -16.4 2.15 -16.85 5.65 -17.2 Q5.6 -9.6 8.6 -2.6 13.95 -0.8 18.9 1.85 23.4 4.25 26.9 7.85 L21.55 7.05 Q17.1 3.25 11.8 1.7 L11.6 1.8 12.95 3.2 12.95 3.55 13.0 3.9 13.1 4.25 13.75 4.85 16.15 6.5 -8.8 5.2 -9.5 5.25 -6.4 3.7 Q-4.8 2.95 -4.7 1.35 -4.15 -5.1 -4.5 -11.45 L-4.95 -11.8 Q-6.9 -8.4 -7.2 -3.8 -7.35 -2.0 -8.85 -1.0 -14.35 2.55 -20.4 5.4 L-22.05 6.25 -22.6 6.55 -26.9 7.4 -31.75 8.5" fill="#ffffff" fill-opacity="0.49803922" fill-rule="evenodd" stroke="none"/>
    <path d="M-12.7 -30.15 L-12.6 -30.45 -12.95 -32.15 Q-13.3 -34.4 -13.2 -36.7 L-13.2 -37.75 Q-9.4 -40.3 -4.6 -41.3 L-1.85 -41.8 Q3.95 -41.9 8.9 -38.7 L9.15 -38.45 9.15 -35.95 8.65 -30.25 7.15 -29.9 7.1 -31.0 7.15 -36.45 -10.9 -35.9 -10.65 -34.25 Q-9.8 -31.6 -10.75 -29.7 L-12.7 -30.15 M7.05 -36.6 L7.15 -36.55 7.15 -36.95 7.2 -37.25 Q-1.95 -42.3 -10.85 -36.7 L-10.9 -36.15 5.55 -36.8 7.05 -36.6" fill="#542810" fill-rule="evenodd" stroke="none"/>
    <path d="M-10.75 -29.7 Q-9.8 -31.6 -10.65 -34.25 L-10.9 -35.9 7.15 -36.45 7.1 -31.0 7.15 -29.9 Q-1.8 -28.05 -10.75 -29.7 M7.05 -36.6 L5.55 -36.8 -10.9 -36.15 -10.85 -36.7 Q-1.95 -42.3 7.2 -37.25 L7.15 -36.95 7.15 -36.55 7.05 -36.6" fill="#b45721" fill-rule="evenodd" stroke="none"/>
  </g>
</svg>
