<?xml version="1.0" encoding="UTF-8" standalone="no"?>
<svg xmlns:xlink="http://www.w3.org/1999/xlink" height="38.85px" width="35.05px" xmlns="http://www.w3.org/2000/svg">
  <g transform="matrix(1.0, 0.0, 0.0, 1.0, 16.95, 19.4)">
    <path d="M11.15 -12.1 Q12.15 -11.6 13.1 -10.75 14.75 -9.3 14.95 -7.05 15.15 -4.85 13.7 -3.4 L13.2 -2.95 13.0 -3.2 12.35 -3.55 12.15 -3.45 11.15 -12.1 M1.2 11.5 Q-3.05 9.9 -7.05 7.9 -7.85 -0.2 -8.9 -8.3 L-12.1 -3.1 -11.1 5.7 -15.2 3.1 Q-11.85 -4.45 -6.85 -11.35 -6.8 -11.2 -6.75 -11.3 -6.55 -11.25 -6.4 -11.4 -6.5 -13.3 -5.4 -15.5 -4.4 -17.5 -2.3 -17.7 L-1.4 -17.7 0.7 0.9 Q1.25 6.2 1.2 11.5" fill="#cccc99" fill-rule="evenodd" stroke="none"/>
    <path d="M-1.4 -17.7 L0.0 -17.4 Q2.25 -16.65 3.75 -14.75 L5.2 -12.7 5.8 -12.5 6.9 -13.0 Q9.2 -13.1 11.15 -12.1 L12.15 -3.45 11.5 -3.15 2.25 11.85 1.2 11.5 Q1.25 6.2 0.7 0.9 L-1.4 -17.7 M-7.05 7.9 L-9.15 6.8 -10.7 5.9 -11.1 5.7 -12.1 -3.1 -8.9 -8.3 Q-7.85 -0.2 -7.05 7.9" fill="#d6d5ad" fill-rule="evenodd" stroke="none"/>
    <path d="M11.8 -1.9 L11.9 -1.85 12.7 -1.3 12.6 -1.35 12.2 -1.0 12.1 -0.6 12.15 -0.3 12.3 0.0 12.45 0.25 12.6 0.5 2.95 14.35 2.55 13.35 3.1 13.5 3.35 13.05 3.05 12.35 11.8 -1.9 M13.0 -1.5 L15.05 -3.05 14.85 -1.3 13.0 -1.5 M8.55 7.6 L10.15 5.3 11.15 3.85 Q12.55 1.8 14.45 0.05 L10.15 5.3 10.6 5.6 9.1 8.0 9.0 7.9 8.55 7.6 M5.25 14.05 L3.45 16.9 3.35 16.85 3.1 14.9 4.05 13.7 5.25 12.1 Q5.0 12.95 4.9 13.85 L5.25 14.05 M-0.15 12.4 L1.35 12.95 2.45 13.35 2.05 15.4 0.7 14.9 -1.8 13.9 -0.15 13.75 0.25 13.85 0.7 13.6 0.75 13.2 0.75 12.9 0.4 12.75 0.0 12.65 -0.15 12.4 M-15.15 6.2 L-15.4 6.0 -15.2 6.2 -15.35 6.15 -15.85 4.65 -15.75 4.55 -11.75 6.9 -15.15 6.2 M-3.2 13.8 L2.0 16.05 2.0 17.65 1.0 17.65 Q-6.65 14.65 -13.5 9.85 L-13.0 9.75 -12.7 9.65 -12.15 10.0 -10.8 10.3 -8.3 11.95 Q-5.75 13.45 -3.2 13.8" fill="#93934a" fill-rule="evenodd" stroke="none"/>
    <path d="M12.7 -1.3 L13.0 -1.5 14.85 -1.3 14.7 -0.4 12.6 0.55 12.6 0.5 12.45 0.25 12.3 0.0 12.15 -0.3 12.1 -0.6 12.2 -1.0 12.6 -1.35 12.7 -1.3 M9.1 8.0 L8.9 8.25 8.9 8.3 5.25 14.05 4.9 13.85 Q5.0 12.95 5.25 12.1 L8.15 8.2 8.55 7.6 9.0 7.9 9.1 8.0 M-0.15 12.4 L0.0 12.65 0.4 12.75 0.75 12.9 0.75 13.2 0.7 13.6 0.25 13.85 -0.15 13.75 -1.8 13.9 -4.8 12.5 Q-10.35 9.85 -15.15 6.2 L-11.75 6.9 Q-7.9 9.05 -3.9 10.8 L-0.15 12.4 M-15.2 6.2 Q-13.55 7.8 -11.45 9.15 -7.45 11.75 -3.2 13.8 -5.75 13.45 -8.3 11.95 L-10.8 10.3 -12.15 10.0 -12.7 9.65 -13.0 9.75 -13.5 9.85 -14.4 9.2 -15.35 6.15 -15.2 6.2" fill="#cc0000" fill-rule="evenodd" stroke="none"/>
    <path d="M11.15 -12.1 Q9.2 -13.1 6.9 -13.0 L5.8 -12.5 5.2 -12.7 3.75 -14.75 Q2.25 -16.65 0.0 -17.4 L-1.4 -17.7 -2.3 -17.7 Q-4.4 -17.5 -5.4 -15.5 -6.5 -13.3 -6.4 -11.4 -6.55 -11.25 -6.75 -11.3 -6.8 -11.2 -6.85 -11.35 -11.85 -4.45 -15.2 3.1 L-11.1 5.7 -10.7 5.9 -9.15 6.8 -7.05 7.9 Q-3.05 9.9 1.2 11.5 L2.25 11.85 11.5 -3.15 12.15 -3.45 12.35 -3.55 13.0 -3.2 12.25 -2.4 13.2 -2.95 13.7 -3.4 Q15.15 -4.85 14.95 -7.05 14.75 -9.3 13.1 -10.75 12.15 -11.6 11.15 -12.1 M5.9 -13.65 L6.55 -14.4 Q12.35 -14.65 15.45 -9.95 17.25 -7.1 15.9 -4.2 L16.25 -1.15 18.1 -2.0 16.25 -1.05 Q15.25 2.7 11.95 4.9 L11.4 6.15 Q7.2 12.45 3.8 19.25 L3.35 19.45 Q-6.2 16.2 -14.45 10.3 L-15.15 10.25 -16.95 4.4 Q-13.15 -3.8 -7.8 -11.7 L-7.1 -12.0 Q-7.9 -15.55 -5.6 -18.4 -3.15 -19.65 -0.55 -19.35 1.05 -19.1 2.1 -18.25 4.3 -16.45 5.9 -13.65 M11.9 -1.85 L11.9 -2.0 11.8 -1.9 3.05 12.35 3.35 13.05 3.1 13.5 2.55 13.35 2.95 14.35 12.6 0.5 12.6 0.55 14.7 -0.4 14.85 -1.3 15.05 -3.05 13.0 -1.5 12.7 -1.3 11.9 -1.85 M9.1 8.0 L10.6 5.6 10.15 5.3 14.45 0.05 Q12.55 1.8 11.15 3.85 L10.15 5.3 8.55 7.6 8.15 8.2 5.25 12.1 4.05 13.7 3.1 14.9 3.35 16.85 3.4 16.95 3.45 16.9 5.25 14.05 8.9 8.3 8.9 8.25 9.1 8.0 M-1.8 13.9 L0.7 14.9 2.05 15.4 2.45 13.35 1.35 12.95 -0.15 12.4 -3.9 10.8 Q-7.9 9.05 -11.75 6.9 L-15.75 4.55 -15.85 4.65 -15.35 6.15 -14.4 9.2 -13.5 9.85 Q-6.65 14.65 1.0 17.65 L2.0 17.65 2.0 16.05 -3.2 13.8 Q-7.45 11.75 -11.45 9.15 -13.55 7.8 -15.2 6.2 L-15.4 6.0 -15.15 6.2 Q-10.35 9.85 -4.8 12.5 L-1.8 13.9" fill="#3a3429" fill-rule="evenodd" stroke="none"/>
  </g>
</svg>
