<?xml version="1.0" encoding="UTF-8" standalone="no"?>
<svg xmlns:xlink="http://www.w3.org/1999/xlink" height="39.45px" width="26.6px" xmlns="http://www.w3.org/2000/svg">
  <g transform="matrix(1.0, 0.0, 0.0, 1.0, 13.3, 19.75)">
    <path d="M1.7 -19.05 Q2.4 -20.1 3.95 -19.6 L5.2 -19.2 6.45 -18.25 7.25 -18.15 6.75 -10.95 6.8 -10.95 7.3 -10.45 7.6 -10.2 8.6 -9.85 8.8 -9.65 8.45 -6.8 8.25 -5.85 8.55 -5.85 Q11.95 -2.15 13.0 2.85 13.95 7.45 11.9 11.7 8.3 19.2 0.15 19.7 -9.7 19.45 -12.6 10.25 -14.6 4.0 -10.85 -1.3 -6.45 -7.45 0.65 -7.2 -0.1 -8.95 0.6 -11.15 1.15 -11.8 1.95 -12.0 L2.05 -18.25 1.65 -18.85 1.7 -19.05 M3.95 -17.9 L3.1 -17.8 3.2 -15.1 5.85 -14.95 5.85 -17.65 3.95 -17.9 M3.9 -14.45 L3.25 -14.7 3.3 -11.95 3.85 -11.7 5.05 -11.25 Q5.65 -11.0 5.7 -11.85 L5.8 -14.2 4.7 -14.1 3.9 -14.45 M2.6 -5.3 Q1.8 -5.55 1.3 -6.1 L1.25 -6.2 0.85 -6.1 Q-2.4 -5.8 -5.2 -4.2 -12.9 0.25 -11.2 8.8 -9.55 16.85 -1.2 17.65 L2.4 17.4 Q8.75 15.9 10.85 9.7 L11.35 7.3 Q11.9 0.65 7.9 -4.7 L7.5 -4.6 4.7 -4.5 2.6 -5.3 M6.1 -9.45 L5.75 -9.4 2.55 -10.6 1.95 -10.25 1.9 -10.1 1.65 -7.45 1.65 -7.2 Q4.25 -5.9 6.8 -6.2 L7.15 -8.55 7.15 -8.8 6.5 -9.55 6.1 -9.45" fill="#000000" fill-rule="evenodd" stroke="none"/>
    <path d="M3.9 -14.45 L4.7 -14.1 5.8 -14.2 5.7 -11.85 Q5.65 -11.0 5.05 -11.25 L3.85 -11.7 3.3 -11.95 3.25 -14.7 3.9 -14.45 M3.95 -17.9 L5.85 -17.65 5.85 -14.95 3.2 -15.1 3.1 -17.8 3.95 -17.9" fill="#ffffff" fill-rule="evenodd" stroke="none"/>
    <path d="M6.1 -9.45 L6.5 -9.55 7.15 -8.8 7.15 -8.55 6.8 -6.2 Q4.25 -5.9 1.65 -7.2 L1.65 -7.45 1.9 -10.1 1.95 -10.25 2.55 -10.6 5.75 -9.4 6.1 -9.45 M2.6 -5.3 L4.7 -4.5 7.5 -4.6 7.9 -4.7 Q11.9 0.65 11.35 7.3 L10.85 9.7 Q8.75 15.9 2.4 17.4 L-1.2 17.65 Q-9.55 16.85 -11.2 8.8 -12.9 0.25 -5.2 -4.2 -2.4 -5.8 0.85 -6.1 L1.25 -6.2 1.3 -6.1 Q1.8 -5.55 2.6 -5.3 M8.6 6.85 L8.2 6.3 8.05 6.45 8.3 7.2 Q7.85 8.45 7.0 9.45 5.45 11.2 3.45 12.4 1.7 13.45 -0.4 13.4 -3.5 13.35 -2.4 15.8 L0.75 15.6 Q7.4 13.65 8.7 7.05 L8.6 6.85 M0.55 -1.15 Q-0.75 -2.5 -2.75 -2.7 L-3.15 -2.75 Q-7.0 -2.15 -7.15 1.85 -7.3 5.05 -4.15 6.05 -1.3 7.0 0.7 4.5 3.15 1.55 0.55 -1.15" fill="#333333" fill-rule="evenodd" stroke="none"/>
    <path d="M0.55 -1.15 Q3.15 1.55 0.7 4.5 -1.3 7.0 -4.15 6.05 -7.3 5.05 -7.15 1.85 -7.0 -2.15 -3.15 -2.75 L-2.75 -2.7 Q-0.75 -2.5 0.55 -1.15 M-2.05 3.9 Q-0.9 3.4 -0.85 2.25 -0.6 -1.1 -3.85 -0.5 -5.65 0.5 -5.55 2.65 -4.6 4.95 -2.05 3.9" fill="#505050" fill-rule="evenodd" stroke="none"/>
    <path d="M-2.05 3.9 Q-4.6 4.95 -5.55 2.65 -5.65 0.5 -3.85 -0.5 -0.6 -1.1 -0.85 2.25 -0.9 3.4 -2.05 3.9" fill="#6c6c6c" fill-rule="evenodd" stroke="none"/>
    <path d="M8.6 6.85 L8.7 7.05 Q7.4 13.65 0.75 15.6 L-2.4 15.8 Q-3.5 13.35 -0.4 13.4 1.7 13.45 3.45 12.4 5.45 11.2 7.0 9.45 7.85 8.45 8.3 7.2 L8.05 6.45 8.2 6.3 8.6 6.85" fill="#222222" fill-rule="evenodd" stroke="none"/>
  </g>
</svg>
