<?xml version="1.0" encoding="UTF-8" standalone="no"?>
<svg xmlns:xlink="http://www.w3.org/1999/xlink" height="50.8px" width="40.8px" xmlns="http://www.w3.org/2000/svg">
  <g transform="matrix(1.0, 0.0, 0.0, 1.0, 19.85, 21.85)">
    <path d="M11.6 -13.95 Q9.65 -16.25 8.1 -18.8 L7.9 -18.75 Q8.9 -15.9 10.35 -13.2 11.3 -11.35 12.5 -9.6 13.7 -10.1 14.7 -10.75 L11.6 -13.95 M19.4 -20.9 L20.2 -19.6 Q21.45 -16.9 20.65 -13.9 L20.3 -12.85 Q19.05 -11.4 16.9 -10.3 L11.75 -7.65 11.8 -7.5 10.85 -7.05 10.65 -7.05 -2.15 -0.05 -1.85 14.35 -1.75 14.5 -1.65 15.55 -1.8 15.6 -1.55 21.4 -1.55 23.2 -2.9 25.8 -5.75 28.9 -5.8 28.95 -9.2 28.4 -12.75 24.95 Q-16.3 19.75 -17.2 13.3 L-17.8 10.6 -18.6 7.45 -18.65 7.35 Q-20.65 -1.45 -19.3 -9.45 L-18.85 -9.75 -18.75 -9.75 -18.7 -10.25 Q-12.45 -15.4 -3.85 -18.05 L-3.7 -18.1 -0.6 -18.95 2.05 -19.8 Q10.6 -23.25 19.4 -20.9 M19.1 -16.8 L19.35 -17.9 Q19.4 -18.25 19.05 -18.4 14.5 -20.65 9.45 -19.45 L9.4 -19.2 9.55 -18.85 12.75 -15.4 16.15 -11.85 16.45 -12.1 18.7 -15.5 19.1 -16.8 M3.75 -13.2 Q2.1 -15.2 0.85 -17.35 L-2.3 -16.5 Q0.3 -13.25 3.35 -10.3 L3.4 -10.25 3.75 -9.95 6.15 -7.7 6.65 -7.25 8.95 -8.25 Q6.0 -10.55 3.75 -13.2 M8.05 -14.1 Q7.1 -16.3 6.55 -18.6 L3.35 -17.9 2.15 -17.65 5.6 -13.55 Q7.85 -11.1 10.55 -8.85 L11.05 -9.05 Q9.25 -11.5 8.05 -14.1 M1.2 -10.3 L0.85 -10.7 Q-1.6 -13.25 -3.35 -16.2 -10.95 -13.8 -17.05 -9.4 L-17.25 -9.25 -17.55 -9.05 -17.8 -9.15 -18.1 -9.25 -18.25 -8.8 -17.75 -8.45 Q-18.5 -0.95 -16.8 6.8 -13.05 6.9 -9.3 7.85 -6.75 8.45 -4.15 9.5 -4.55 4.5 -3.95 -0.3 L-3.95 -0.35 -3.85 -0.9 -3.75 -1.05 -3.5 -1.25 -2.95 -1.65 Q0.85 -4.45 5.3 -6.6 L5.05 -6.8 4.85 -6.95 1.2 -10.3 M-10.35 11.55 Q-7.05 12.1 -3.75 13.5 L-4.05 11.05 -8.95 9.5 -9.05 9.5 -9.1 9.45 -16.55 7.9 -15.7 11.05 -10.35 11.55 M-9.85 13.25 Q-12.55 12.6 -15.25 12.3 L-14.9 13.45 -13.9 16.65 Q-11.1 15.75 -8.05 15.6 L-3.9 15.65 -3.35 15.7 -3.45 15.2 -3.85 15.05 Q-6.1 14.2 -8.35 13.65 L-9.85 13.25 M-9.5 17.35 L-13.35 17.85 -13.3 18.05 -9.4 18.35 -4.45 19.3 -3.0 19.75 Q-2.95 18.55 -3.15 17.25 L-3.8 17.2 -9.5 17.35 M-12.65 19.3 L-13.3 19.05 -13.15 19.5 Q-11.75 24.25 -7.8 27.05 L-7.65 27.15 -7.45 27.3 Q-7.15 27.5 -6.9 27.3 -4.0 24.9 -3.25 21.55 L-8.9 20.15 -12.65 19.3" fill="#000000" fill-rule="evenodd" stroke="none"/>
    <path d="M19.1 -16.8 L17.3 -16.55 13.75 -15.75 12.75 -15.4 9.55 -18.85 9.45 -19.45 Q14.5 -20.65 19.05 -18.4 19.4 -18.25 19.35 -17.9 L19.1 -16.8 M0.85 -10.7 L0.85 -10.65 0.25 -10.4 Q-10.25 -5.2 -9.45 6.2 L-9.3 7.85 Q-13.05 6.9 -16.8 6.8 -18.5 -0.95 -17.75 -8.45 L-17.55 -9.05 -17.25 -9.25 -17.05 -9.4 Q-10.95 -13.8 -3.35 -16.2 -1.6 -13.25 0.85 -10.7 M-12.65 19.3 L-8.9 20.15 Q-9.15 23.35 -8.0 26.5 L-7.8 27.05 Q-11.75 24.25 -13.15 19.5 L-12.65 19.3" fill="#ecb65e" fill-rule="evenodd" stroke="none"/>
    <path d="M12.75 -15.4 L13.75 -15.75 17.3 -16.55 19.1 -16.8 18.7 -15.5 16.45 -12.1 16.15 -11.85 12.75 -15.4 M0.85 -10.65 L1.2 -10.3 4.85 -6.95 5.05 -6.8 5.3 -6.6 Q0.85 -4.45 -2.95 -1.65 L-3.5 -1.25 -3.75 -1.05 -3.85 -0.9 -3.95 -0.35 -3.95 -0.3 Q-4.55 4.5 -4.15 9.5 -6.75 8.45 -9.3 7.85 L-9.45 6.2 Q-10.25 -5.2 0.25 -10.4 L0.85 -10.65 M-8.9 20.15 L-3.25 21.55 Q-4.0 24.9 -6.9 27.3 -7.15 27.5 -7.45 27.3 L-7.65 27.15 -7.8 27.05 -8.0 26.5 Q-9.15 23.35 -8.9 20.15" fill="#e69e28" fill-rule="evenodd" stroke="none"/>
    <path d="M10.35 -13.2 L11.6 -13.95 14.7 -10.75 Q13.7 -10.1 12.5 -9.6 11.3 -11.35 10.35 -13.2 M3.35 -10.3 L3.15 -10.75 Q2.4 -12.25 3.75 -13.2 6.0 -10.55 8.95 -8.25 L6.65 -7.25 6.15 -7.7 3.75 -9.95 3.4 -10.25 3.35 -10.3 M8.05 -14.1 Q9.25 -11.5 11.05 -9.05 L10.55 -8.85 Q7.85 -11.1 5.6 -13.55 6.25 -14.4 7.4 -14.4 L7.4 -14.45 8.05 -14.1 M-9.1 9.45 L-9.05 9.5 -8.95 9.5 -4.05 11.05 -3.75 13.5 Q-7.05 12.1 -10.35 11.55 -10.55 10.5 -9.7 9.35 L-9.65 9.35 -9.1 9.45 M-9.85 13.25 L-8.35 13.65 Q-6.1 14.2 -3.85 15.05 L-3.45 15.2 -3.35 15.7 -3.9 15.65 -8.05 15.6 -9.45 15.7 Q-10.25 14.7 -9.85 13.25 M-9.4 18.35 L-9.5 17.35 -3.8 17.2 -3.15 17.25 Q-2.95 18.55 -3.0 19.75 L-4.45 19.3 -9.4 18.35" fill="#cccccc" fill-rule="evenodd" stroke="none"/>
    <path d="M11.6 -13.95 L10.35 -13.2 Q8.9 -15.9 7.9 -18.75 L8.1 -18.8 Q9.65 -16.25 11.6 -13.95 M3.35 -10.3 Q0.3 -13.25 -2.3 -16.5 L0.85 -17.35 Q2.1 -15.2 3.75 -13.2 2.4 -12.25 3.15 -10.75 L3.35 -10.3 M5.6 -13.55 L2.15 -17.65 3.35 -17.9 6.55 -18.6 Q7.1 -16.3 8.05 -14.1 L7.4 -14.45 7.4 -14.4 Q6.25 -14.4 5.6 -13.55 M-9.1 9.45 L-9.65 9.35 -9.7 9.35 Q-10.55 10.5 -10.35 11.55 L-15.7 11.05 -16.55 7.9 -9.1 9.45 M-8.05 15.6 Q-11.1 15.75 -13.9 16.65 L-14.9 13.45 -15.25 12.3 Q-12.55 12.6 -9.85 13.25 -10.25 14.7 -9.45 15.7 L-8.05 15.6 M-9.4 18.35 L-13.3 18.05 -13.35 17.85 -9.5 17.35 -9.4 18.35" fill="#ffffff" fill-rule="evenodd" stroke="none"/>
    <path d="M9.45 -19.45 L9.55 -18.85 9.4 -19.2 9.45 -19.45 M-17.75 -8.45 L-18.25 -8.8 -18.1 -9.25 -17.8 -9.15 -17.55 -9.05 -17.75 -8.45 M-13.15 19.5 L-13.3 19.05 -12.65 19.3 -13.15 19.5" fill="#cc9966" fill-rule="evenodd" stroke="none"/>
    <path d="M0.85 -10.7 L1.2 -10.3 0.85 -10.65 0.85 -10.7" fill="#ff974a" fill-rule="evenodd" stroke="none"/>
  </g>
</svg>
