<?xml version="1.0" encoding="UTF-8" standalone="no"?>
<svg xmlns:xlink="http://www.w3.org/1999/xlink" height="41.55px" width="58.85px" xmlns="http://www.w3.org/2000/svg">
  <g transform="matrix(1.0, 0.0, 0.0, 1.0, 30.3, 21.2)">
    <path d="M-4.65 5.9 L-2.65 4.2 -2.05 3.85 -1.65 3.55 -1.25 3.35 1.45 -1.1 1.55 -1.25 1.8 -1.35 1.85 -1.55 1.85 -1.8 Q2.65 -3.95 2.3 -6.1 L2.8 -6.9 12.4 -1.15 9.6 0.45 7.05 -1.05 6.95 -1.35 6.85 -1.6 5.1 -2.65 4.75 -2.85 4.5 -2.6 4.45 -2.35 9.15 0.65 0.0 5.5 -0.4 5.45 -0.1 5.55 -3.05 7.0 -4.65 5.95 -4.65 5.9 M18.75 2.75 L21.1 4.15 21.05 4.2 22.2 5.15 25.0 6.8 22.5 8.15 21.9 7.7 21.95 7.7 22.05 7.5 22.05 6.9 21.9 6.85 21.55 6.9 21.45 7.4 20.65 6.9 16.15 4.25 16.9 3.8 18.75 2.75 M27.55 8.65 L27.65 8.75 Q28.0 10.3 27.85 11.75 L27.75 11.4 27.7 11.1 27.6 10.8 27.4 10.7 27.2 10.6 26.95 10.65 26.4 11.25 Q25.95 12.25 25.9 13.35 L25.45 16.05 22.65 17.8 21.6 18.2 17.1 16.6 14.1 15.55 16.85 14.15 21.05 16.35 21.35 16.3 21.6 16.25 21.8 16.35 22.2 16.55 22.5 16.55 22.85 16.2 22.95 16.2 23.1 16.25 23.35 16.25 23.65 15.9 25.15 13.85 25.25 11.8 25.15 10.75 24.65 10.15 27.55 8.65 M11.15 14.15 L8.3 12.55 8.2 12.5 7.85 12.6 4.6 10.9 4.55 10.85 7.55 9.2 14.05 12.65 14.05 12.7 11.15 14.15 M24.15 10.35 L24.35 10.75 24.55 10.9 24.6 11.5 24.6 11.65 24.75 11.8 24.9 11.95 Q24.8 13.9 23.5 15.5 L22.3 15.85 22.05 15.9 21.85 15.8 21.7 15.7 21.4 15.75 21.1 15.75 19.4 14.75 19.0 14.55 18.4 14.6 18.15 14.55 17.15 13.95 23.05 10.9 24.15 10.35 M14.5 12.45 L7.7 8.65 8.15 8.9 15.8 4.45 21.85 8.5 14.5 12.45 M14.85 7.0 Q13.95 7.2 14.0 8.15 L14.15 8.4 Q14.85 10.25 16.4 9.2 L16.55 8.8 16.6 8.5 16.35 8.05 Q15.8 7.1 14.85 7.0" fill="#767485" fill-rule="evenodd" stroke="none"/>
    <path d="M1.5 -5.55 L1.7 -6.1 2.25 -8.05 Q4.65 -6.7 7.1 -5.3 L12.4 -2.1 13.55 -1.45 14.55 -0.85 14.7 -0.85 16.1 0.1 16.85 0.55 18.85 1.85 20.65 2.85 Q23.85 4.5 26.55 6.9 L27.3 7.55 27.85 8.05 28.05 8.35 28.4 8.65 28.55 11.65 28.0 15.05 Q25.95 19.15 22.2 20.2 L22.1 20.3 22.05 20.25 21.8 20.3 21.75 20.35 21.7 20.35 21.6 20.35 21.45 20.25 21.5 20.25 Q13.55 16.6 5.75 12.55 -0.1 9.45 -5.95 6.65 L-5.55 6.35 -5.6 6.25 -5.65 6.15 -4.2 4.6 -2.6 3.4 -2.55 3.35 -1.65 2.8 -1.55 2.75 -1.6 2.7 -4.6 0.95 -14.0 -4.7 -18.4 -7.45 -19.0 -7.35 -20.15 -7.3 -23.65 -7.05 -24.85 -6.9 -26.3 -6.65 -27.45 -7.3 -29.05 -8.2 -29.45 -8.15 -29.95 -8.25 -30.05 -8.35 -30.2 -8.5 -30.3 -8.65 Q-28.5 -12.45 -26.2 -16.0 L-25.35 -17.3 -25.2 -17.7 Q-24.6 -20.05 -22.9 -21.2 L-21.85 -20.7 -20.95 -20.1 -20.6 -19.85 -20.4 -19.75 -20.1 -19.1 -19.85 -18.55 -17.4 -15.45 -16.7 -14.3 Q-16.05 -13.2 -15.65 -11.95 L-15.6 -11.95 -15.2 -11.75 -14.85 -12.05 -1.65 -4.2 1.2 -2.5 Q1.55 -3.95 1.55 -5.45 L1.5 -5.55 M12.4 -1.15 L2.8 -6.9 2.3 -6.1 Q2.65 -3.95 1.85 -1.8 L1.85 -1.55 1.8 -1.35 1.55 -1.25 1.45 -1.1 -1.25 3.35 -1.65 3.55 -2.05 3.85 -2.65 4.2 -4.65 5.9 -4.7 5.95 -4.65 5.95 -3.05 7.0 -1.65 7.85 -1.55 7.75 4.55 10.9 4.6 10.9 7.85 12.6 8.2 12.5 8.3 12.55 11.15 14.15 13.5 15.35 14.45 15.8 18.75 17.95 21.25 19.05 22.1 19.7 Q23.1 18.85 24.45 18.15 L25.9 16.8 26.15 16.5 27.3 14.3 27.85 12.15 27.85 11.8 27.85 11.75 Q28.0 10.3 27.65 8.75 L27.55 8.65 27.5 8.6 27.3 8.5 27.1 8.35 26.95 8.15 26.95 8.05 25.0 6.8 22.2 5.15 21.05 4.2 21.1 4.15 18.75 2.75 12.45 -1.1 12.4 -1.15 M-0.1 5.55 L-0.4 5.45 0.0 5.5 0.3 5.55 6.8 8.15 7.7 8.65 14.5 12.45 17.15 13.95 18.15 14.55 18.4 14.6 19.0 14.55 19.4 14.75 21.1 15.75 21.4 15.75 21.7 15.7 21.85 15.8 22.05 15.9 22.3 15.85 23.5 15.5 Q24.8 13.9 24.9 11.95 L24.75 11.8 24.6 11.65 24.6 11.5 24.55 10.9 24.35 10.75 24.15 10.35 24.1 10.25 21.85 8.5 15.8 4.45 12.9 2.7 11.7 2.1 11.35 1.9 10.9 1.65 9.15 0.65 4.45 -2.35 4.5 -2.6 4.75 -2.85 5.1 -2.65 6.85 -1.6 6.95 -1.35 7.05 -1.05 9.6 0.45 16.15 4.25 20.65 6.9 21.45 7.4 21.85 7.65 21.9 7.7 22.5 8.15 24.65 10.15 25.15 10.75 25.25 11.8 25.15 13.85 23.65 15.9 23.35 16.25 23.1 16.25 22.95 16.2 22.85 16.2 22.5 16.55 22.2 16.55 21.8 16.35 21.6 16.25 21.35 16.3 21.05 16.35 16.85 14.15 16.15 13.75 14.1 12.7 14.05 12.65 7.55 9.2 7.15 9.0 6.9 8.85 0.35 5.75 -0.1 5.55 M-14.2 -6.25 L-12.5 -5.15 Q-8.25 -2.5 -4.05 0.0 L-1.95 1.3 -1.6 1.5 Q-1.25 1.55 -1.0 1.8 L-0.9 1.85 Q0.3 0.2 0.9 -1.55 L0.3 -1.9 -1.05 -2.65 -2.2 -3.25 -12.75 -9.3 -14.2 -10.15 -14.55 -10.35 -14.8 -10.5 -14.85 -10.65 -15.45 -10.95 -16.45 -10.2 -16.55 -10.15 Q-16.9 -9.1 -17.55 -8.3 L-15.75 -7.2 Q-15.1 -6.4 -14.15 -6.35 L-14.2 -6.25 M-22.75 -20.25 L-25.8 -14.6 -29.05 -9.3 -26.65 -7.8 -26.0 -7.55 -24.55 -7.75 -23.85 -7.85 -19.85 -8.3 -18.7 -8.35 -18.05 -8.45 Q-17.55 -10.2 -16.25 -11.5 L-16.35 -11.75 -17.75 -14.4 Q-18.85 -16.25 -20.3 -17.85 L-20.4 -17.95 -20.9 -18.95 Q-21.45 -19.75 -22.45 -20.1 L-22.75 -20.25 M-20.85 -15.8 L-18.9 -12.95 -18.45 -12.3 -18.3 -12.1 -18.6 -11.1 -18.7 -10.8 -19.15 -10.25 Q-20.4 -9.1 -22.4 -9.65 L-23.65 -9.85 -23.9 -9.85 -24.4 -9.8 -24.8 -9.7 -24.9 -9.8 -25.05 -10.1 -24.75 -10.9 Q-23.55 -13.8 -21.85 -16.1 L-21.55 -16.5 -21.4 -16.45 -20.95 -15.9 -20.85 -15.8 M-21.5 -15.35 L-23.4 -11.25 -23.9 -10.3 -23.75 -10.35 -20.7 -10.2 -20.35 -10.15 Q-19.65 -10.5 -19.35 -11.3 L-19.3 -11.65 -19.2 -12.0 Q-20.1 -13.6 -21.3 -15.0 L-21.5 -15.35" fill="#000000" fill-rule="evenodd" stroke="none"/>
    <path d="M27.85 11.8 L27.85 12.15 27.3 14.3 26.15 16.5 25.9 16.8 24.45 18.15 Q23.1 18.85 22.1 19.7 L21.25 19.05 18.75 17.95 14.45 15.8 13.5 15.35 14.1 15.55 17.1 16.6 21.6 18.2 22.65 17.8 25.45 16.05 25.9 13.35 Q25.95 12.25 26.4 11.25 L26.95 10.65 27.2 10.6 27.4 10.7 27.6 10.8 27.7 11.1 27.75 11.4 27.85 11.75 27.85 11.8 M24.8 7.75 L25.25 7.9 25.6 8.2 25.45 9.05 25.5 9.1 Q25.05 9.7 24.5 9.55 L24.3 9.5 Q23.95 9.25 24.0 8.8 L24.05 8.3 24.8 7.75 M21.45 7.4 L21.55 6.9 21.9 6.85 22.05 6.9 22.05 7.5 21.95 7.7 21.9 7.7 21.85 7.65 21.45 7.4 M20.45 11.1 Q20.0 11.6 19.45 11.55 L19.25 11.45 19.05 11.0 19.0 10.7 19.15 10.35 Q19.55 9.75 20.1 9.9 20.65 10.05 20.5 10.8 L20.45 11.1 M14.85 7.0 Q15.8 7.1 16.35 8.05 L16.6 8.5 16.55 8.8 16.4 9.2 Q14.85 10.25 14.15 8.4 L14.0 8.15 Q13.95 7.2 14.85 7.0" fill="#663300" fill-rule="evenodd" stroke="none"/>
    <path d="M-3.05 7.0 L-0.1 5.55 0.35 5.75 6.9 8.85 7.15 9.0 7.55 9.2 4.55 10.85 4.55 10.9 -1.55 7.75 -1.65 7.85 -3.05 7.0 M0.0 5.5 L9.15 0.65 10.9 1.65 11.35 1.9 11.7 2.1 12.9 2.7 15.8 4.45 8.15 8.9 7.7 8.65 6.8 8.15 0.3 5.55 0.0 5.5 M9.6 0.45 L12.4 -1.15 12.45 -1.1 18.75 2.75 16.9 3.8 16.15 4.25 9.6 0.45 M25.0 6.8 L26.95 8.05 26.95 8.15 27.1 8.35 27.3 8.5 27.5 8.6 27.55 8.65 24.65 10.15 22.5 8.15 25.0 6.8 M13.5 15.35 L11.15 14.15 14.05 12.7 14.1 12.7 16.15 13.75 16.85 14.15 14.1 15.55 13.5 15.35 M24.8 7.75 L24.05 8.3 24.0 8.8 Q23.95 9.25 24.3 9.5 L24.5 9.55 Q25.05 9.7 25.5 9.1 L25.45 9.05 25.6 8.2 25.25 7.9 24.8 7.75 M20.45 11.1 L20.5 10.8 Q20.65 10.05 20.1 9.9 19.55 9.75 19.15 10.35 L19.0 10.7 19.05 11.0 19.25 11.45 19.45 11.55 Q20.0 11.6 20.45 11.1 M24.15 10.35 L23.05 10.9 17.15 13.95 14.5 12.45 21.85 8.5 24.1 10.25 24.15 10.35" fill="#a5a4b0" fill-rule="evenodd" stroke="none"/>
    <path d="M-4.65 5.9 L-4.65 5.95 -4.7 5.95 -4.65 5.9 M21.1 4.15 L21.05 4.2 21.1 4.15 M27.85 11.75 L27.85 11.8 27.85 11.75 M4.6 10.9 L4.55 10.9 4.55 10.85 4.6 10.9 M0.35 5.75 L-0.1 5.55 0.35 5.75 M14.1 12.7 L14.05 12.7 14.05 12.65 14.1 12.7" fill="#605e6c" fill-rule="evenodd" stroke="none"/>
    <path d="M-1.05 -2.65 L0.3 -1.9 0.9 -1.55 Q0.3 0.2 -0.9 1.85 L-1.0 1.8 Q-1.25 1.55 -1.6 1.5 L-1.95 1.3 -4.05 0.0 Q-8.25 -2.5 -12.5 -5.15 L-14.2 -6.25 -3.3 -1.35 -1.85 -0.7 -1.05 -2.65" fill="#c2874b" fill-rule="evenodd" stroke="none"/>
    <path d="M-1.05 -2.65 L-1.85 -0.7 -3.3 -1.35 -14.2 -6.25 -14.15 -6.35 Q-15.1 -6.4 -15.75 -7.2 L-17.55 -8.3 Q-16.9 -9.1 -16.55 -10.15 L-16.45 -10.2 -15.45 -10.95 -14.85 -10.65 -14.8 -10.5 -14.55 -10.35 -14.2 -10.15 -12.75 -9.3 -2.2 -3.25 -1.05 -2.65 M-20.85 -15.8 L-20.95 -15.9 -21.4 -16.45 -21.55 -16.5 -21.85 -16.1 Q-23.55 -13.8 -24.75 -10.9 L-25.05 -10.1 -24.9 -9.8 -24.8 -9.7 -24.4 -9.8 -23.9 -9.85 -23.65 -9.85 -22.4 -9.65 Q-20.4 -9.1 -19.15 -10.25 L-18.7 -10.8 -18.6 -11.1 -18.3 -12.1 -18.45 -12.3 -18.9 -12.95 -20.85 -15.8 M-22.75 -20.25 L-22.45 -20.1 Q-21.45 -19.75 -20.9 -18.95 L-20.4 -17.95 -20.3 -17.85 Q-18.85 -16.25 -17.75 -14.4 L-16.35 -11.75 -16.25 -11.5 Q-17.55 -10.2 -18.05 -8.45 L-18.7 -8.35 -19.85 -8.3 -23.85 -7.85 -24.55 -7.75 -26.0 -7.55 -26.65 -7.8 -29.05 -9.3 -25.8 -14.6 -22.75 -20.25" fill="#cc9966" fill-rule="evenodd" stroke="none"/>
  </g>
</svg>
