<?xml version="1.0" encoding="UTF-8" standalone="no"?>
<svg xmlns:xlink="http://www.w3.org/1999/xlink" height="110.35px" width="43.55px" xmlns="http://www.w3.org/2000/svg">
  <g transform="matrix(1.0, 0.0, 0.0, 1.0, 21.05, 93.15)">
    <path d="M22.3 -77.15 Q20.9 -75.15 19.1 -73.35 L17.75 -72.05 17.6 -71.9 17.2 -71.45 16.95 -67.9 16.5 -67.45 Q15.85 -66.05 15.5 -64.6 15.8 -62.75 15.5 -60.65 L15.5 -60.4 14.85 -58.55 14.5 -58.55 13.4 -55.9 12.9 -54.2 Q9.55 -53.95 6.15 -54.8 L6.4 -56.5 5.95 -56.35 5.4 -49.65 4.55 -40.1 4.7 0.25 0.15 0.35 0.05 0.5 -0.1 0.6 -0.4 0.65 Q-1.55 0.4 -2.45 -0.35 L-2.45 -17.5 Q-2.3 -26.3 -2.85 -34.95 -3.4 -43.9 -4.5 -52.8 L-4.8 -56.1 Q-6.95 -56.55 -9.05 -57.65 L-10.2 -58.2 Q-12.15 -59.0 -14.2 -59.3 L-18.45 -59.5 -14.55 -62.85 Q-15.45 -65.9 -15.6 -68.95 L-21.05 -72.45 -14.5 -75.45 Q-13.85 -77.9 -12.35 -79.95 L-14.85 -87.8 -14.75 -88.2 -14.3 -88.6 -8.2 -84.0 -6.55 -85.25 -7.0 -89.5 -3.1 -86.65 -0.95 -86.95 -0.85 -86.95 1.2 -93.15 4.8 -86.65 9.65 -84.35 14.8 -88.9 14.5 -81.2 Q15.6 -80.3 16.2 -78.95 19.3 -78.85 22.2 -78.0 L22.35 -77.85 22.35 -77.65 22.5 -77.65 22.35 -77.45 22.35 -77.4 22.3 -77.15 M0.45 -89.05 L-0.35 -86.5 4.05 -86.75 1.35 -91.95 0.7 -89.85 0.45 -89.05 M10.3 -79.45 L10.35 -79.3 10.0 -79.2 Q8.45 -80.6 8.15 -82.7 L9.1 -83.75 7.75 -84.35 7.0 -84.6 6.9 -84.5 2.9 -85.1 -2.0 -85.25 1.3 -81.75 0.85 -81.55 -2.25 -84.4 -5.9 -87.75 -5.1 -82.0 -5.0 -81.35 -4.8 -80.0 -4.3 -77.8 Q-1.15 -77.2 0.95 -79.0 L1.6 -79.65 Q1.9 -79.4 0.7 -78.3 -1.75 -75.8 -5.05 -77.15 L-6.05 -81.8 -6.3 -83.2 -7.1 -82.65 -7.65 -82.3 -9.55 -80.65 -10.75 -79.35 Q-13.0 -76.5 -13.55 -72.65 L-13.75 -70.8 -14.15 -70.5 -13.35 -63.55 -12.85 -63.25 -11.1 -60.15 -8.5 -59.0 -3.0 -57.4 -2.75 -57.0 -2.7 -56.95 -3.1 -56.75 -3.15 -56.35 -1.85 -42.95 -0.95 -1.25 1.25 -0.55 2.05 -0.5 3.4 -0.65 3.45 -18.95 3.45 -46.5 3.4 -47.0 2.6 -46.85 2.5 -46.7 2.45 -46.55 1.85 -44.85 1.0 -41.3 1.9 -46.25 1.95 -46.5 2.6 -47.5 4.35 -47.7 4.05 -48.65 4.55 -54.15 4.25 -55.3 4.7 -56.9 5.65 -57.1 5.75 -57.15 6.0 -57.3 6.05 -57.35 6.25 -57.65 6.2 -57.85 6.1 -58.25 6.05 -58.45 6.0 -58.65 5.7 -59.85 5.65 -59.95 5.65 -60.05 5.65 -60.3 5.35 -61.3 5.2 -61.65 5.15 -61.7 4.9 -62.05 3.8 -63.05 Q1.95 -64.35 -0.65 -64.35 L-4.85 -64.85 -2.3 -65.15 0.6 -65.2 Q3.8 -65.2 5.3 -62.5 L5.65 -61.8 5.95 -61.55 6.15 -61.3 6.15 -60.95 6.15 -60.85 6.15 -60.65 6.3 -60.45 6.3 -60.4 6.45 -60.15 6.65 -59.0 7.0 -59.55 7.05 -59.8 7.1 -60.0 7.25 -60.2 7.55 -60.35 7.55 -60.4 7.7 -60.35 Q6.85 -59.45 6.95 -58.55 L6.85 -58.5 6.95 -58.25 7.15 -57.55 7.15 -57.35 Q7.1 -57.25 7.05 -57.3 L7.0 -57.15 7.1 -55.65 9.35 -55.45 9.3 -55.85 10.1 -55.6 10.1 -55.5 10.1 -55.45 11.15 -55.45 11.1 -55.6 11.7 -55.9 11.65 -55.7 11.65 -55.45 11.9 -55.5 13.0 -58.0 12.9 -57.95 12.85 -57.95 13.2 -58.65 13.25 -58.5 14.3 -59.75 Q14.3 -61.55 14.65 -63.35 L14.6 -63.45 14.6 -64.2 14.65 -65.0 14.65 -64.95 14.7 -65.2 15.45 -66.6 Q16.45 -68.35 15.9 -69.6 L15.9 -69.15 15.9 -70.0 15.9 -70.25 15.85 -70.4 15.75 -70.85 15.7 -71.1 15.95 -71.25 15.95 -71.9 15.95 -77.15 15.6 -77.7 15.0 -77.85 14.95 -77.9 14.25 -79.55 14.05 -79.8 14.05 -79.6 14.0 -79.55 13.9 -79.35 Q13.15 -78.95 13.45 -79.5 L13.95 -87.3 9.2 -82.65 10.3 -79.45 M-9.15 -71.4 L-9.6 -71.2 -10.9 -70.55 -12.95 -69.25 -9.9 -66.55 Q-10.0 -66.45 -10.05 -66.5 L-10.8 -66.85 -12.55 -68.1 -13.9 -68.9 -12.65 -70.05 -11.3 -71.0 -11.15 -71.1 -9.2 -72.1 -8.7 -71.75 Q-8.5 -71.45 -9.15 -71.4 M16.6 -77.5 L16.6 -77.45 17.3 -72.65 21.5 -77.35 16.6 -77.5 M3.05 7.65 L3.65 7.65 3.7 7.25 3.7 5.6 2.5 5.6 -0.35 5.7 -2.6 5.9 -2.8 10.25 -2.0 11.1 -0.1 10.5 0.35 10.05 1.4 10.05 3.8 10.05 3.9 9.5 3.4 9.1 3.55 8.5 1.95 8.45 -0.25 8.45 -1.85 8.5 -0.3 8.1 3.05 7.65 M4.85 8.3 L4.95 9.7 4.95 10.35 4.3 11.2 1.15 17.05 0.65 17.2 -4.0 10.55 -3.75 5.4 -3.45 5.15 Q0.4 4.0 4.65 4.55 L4.5 7.9 4.7 8.1 4.85 8.3 M2.45 12.2 L2.95 11.25 2.4 11.0 1.6 10.8 0.7 10.8 -1.8 11.5 -0.1 14.45 0.45 15.6 2.45 12.2 M-12.65 -83.9 L-11.95 -81.55 -11.5 -80.05 -8.1 -83.25 -13.75 -87.35 -12.65 -83.9 M-16.75 -60.0 L-12.05 -60.15 -13.85 -62.7 -16.75 -60.0 M-14.85 -69.4 L-14.45 -73.9 -14.25 -74.75 -19.9 -72.7 -14.85 -69.4" fill="#000000" fill-rule="evenodd" stroke="none"/>
    <path d="M0.45 -89.05 L0.45 -88.4 0.65 -88.1 1.0 -87.75 1.55 -87.75 1.95 -88.1 2.1 -88.4 2.15 -88.75 1.9 -90.1 1.35 -90.3 1.3 -90.25 0.7 -89.85 1.35 -91.95 4.05 -86.75 -0.35 -86.5 0.45 -89.05 M6.9 -84.5 Q5.45 -82.9 5.55 -80.6 5.65 -78.9 6.9 -78.05 L6.85 -78.1 5.55 -77.65 9.95 -77.0 13.75 -75.55 14.8 -71.9 15.1 -71.3 15.75 -70.3 15.9 -70.0 15.9 -69.15 15.9 -69.0 15.7 -69.1 14.95 -69.4 14.6 -69.2 Q13.85 -68.9 13.35 -68.2 L13.35 -67.5 Q13.3 -66.9 13.4 -66.35 L13.65 -66.1 Q14.05 -65.5 14.7 -65.2 L14.65 -64.95 13.75 -62.45 Q12.75 -62.0 12.3 -60.95 L11.9 -60.1 11.5 -59.95 11.15 -59.7 11.05 -59.85 10.65 -60.05 9.75 -60.4 9.75 -60.35 9.45 -60.3 9.25 -60.15 9.0 -59.9 8.9 -59.7 9.0 -59.35 8.4 -60.3 8.3 -60.3 7.7 -60.35 7.55 -60.4 7.55 -60.35 7.25 -60.2 7.1 -60.0 7.05 -59.8 7.0 -59.55 6.65 -59.0 6.45 -60.15 6.3 -60.4 6.3 -60.45 6.15 -60.65 6.15 -60.85 6.15 -60.95 6.15 -61.3 5.95 -61.55 5.65 -61.8 5.3 -62.5 Q3.8 -65.2 0.6 -65.2 L-2.3 -65.15 -3.45 -65.6 -5.1 -64.8 -3.9 -61.0 Q-9.65 -60.8 -10.8 -66.7 L-10.8 -66.85 -10.05 -66.5 Q-10.0 -66.45 -9.9 -66.55 L-12.95 -69.25 -10.9 -70.55 Q-10.1 -70.05 -9.7 -70.95 L-9.6 -71.2 -9.15 -71.4 -8.15 -67.45 -1.7 -68.4 -0.45 -68.45 Q-0.8 -71.3 0.3 -73.85 L0.85 -75.05 1.15 -75.6 1.9 -77.2 1.85 -77.7 2.35 -78.45 1.3 -81.75 -2.0 -85.25 2.9 -85.1 6.9 -84.5 M14.25 -79.55 L14.1 -79.55 14.0 -79.55 14.05 -79.6 14.05 -79.8 14.25 -79.55 M13.45 -79.5 L10.3 -79.45 9.2 -82.65 13.95 -87.3 13.45 -79.5 M2.35 -83.35 L1.75 -82.7 Q1.25 -81.95 1.55 -81.1 3.7 -79.15 4.8 -81.65 L4.8 -82.0 Q4.55 -83.4 3.15 -83.55 L3.1 -83.5 2.55 -83.4 2.35 -83.35 M0.95 -79.0 Q-1.15 -77.2 -4.3 -77.8 L-4.8 -80.0 Q-4.5 -80.85 -5.0 -81.35 L-5.1 -82.0 -5.0 -81.45 Q-4.35 -80.8 -3.6 -80.3 -1.2 -81.15 -2.0 -83.6 L-2.25 -84.4 0.85 -81.55 0.95 -79.0 M10.85 -79.55 L12.3 -83.95 10.35 -79.6 10.85 -79.55 M10.6 -73.45 L10.25 -71.9 Q9.9 -69.85 8.9 -68.05 7.75 -67.8 7.25 -66.9 8.35 -65.8 10.3 -66.5 10.7 -66.05 11.3 -65.9 L11.6 -66.1 11.95 -66.5 Q11.7 -67.4 10.9 -67.9 L10.9 -68.1 10.5 -69.25 10.55 -69.7 10.75 -71.9 10.6 -73.45 M12.85 -57.95 L12.9 -57.95 13.0 -58.0 11.9 -55.5 11.65 -55.45 11.65 -55.7 11.7 -55.9 11.75 -57.05 12.0 -57.15 12.65 -58.1 12.85 -57.95 M11.1 -55.6 L11.15 -55.45 10.1 -55.45 10.1 -55.5 10.1 -55.6 Q9.9 -57.3 9.3 -58.7 L9.3 -58.85 9.3 -59.35 9.45 -59.55 9.7 -59.8 10.6 -59.4 10.75 -58.5 10.75 -58.35 Q10.75 -56.85 11.1 -55.6 M9.3 -55.85 L9.35 -55.45 7.1 -55.65 7.0 -57.15 7.05 -57.3 Q7.1 -57.25 7.15 -57.35 L7.15 -57.55 6.95 -58.25 6.85 -58.5 6.95 -58.55 7.35 -59.15 7.6 -59.65 8.15 -59.65 8.3 -59.55 8.7 -58.65 9.25 -56.05 9.3 -55.85 M6.0 -70.8 L5.65 -71.15 4.7 -71.85 3.4 -71.8 Q0.9 -70.35 2.4 -67.8 2.6 -67.4 3.05 -67.25 4.45 -66.7 5.65 -67.7 L6.45 -68.75 6.5 -69.4 6.3 -70.55 6.0 -70.8 M4.55 -54.15 L4.05 -48.65 4.35 -47.7 2.6 -47.5 1.95 -46.5 1.85 -46.15 1.9 -46.25 1.0 -41.3 1.85 -44.85 2.7 -29.7 2.05 -0.5 1.25 -0.55 1.25 -1.9 1.0 -9.25 0.7 -18.0 0.4 -26.9 0.05 -35.9 -0.45 -44.15 -1.35 -52.6 -1.4 -52.85 -1.4 -54.45 1.5 -57.65 2.35 -57.4 4.55 -54.15 M2.6 -46.85 L3.4 -47.0 3.45 -46.5 2.6 -46.85 M-8.5 -59.0 L-11.1 -60.15 -12.85 -63.25 -13.35 -63.55 -14.15 -70.5 -13.75 -70.8 -13.55 -72.65 Q-13.0 -76.5 -10.75 -79.35 L-9.55 -80.65 -7.65 -82.3 -7.1 -82.65 -6.3 -83.2 -6.05 -81.8 Q-7.7 -81.25 -8.85 -79.8 L-10.35 -77.25 Q-12.55 -73.9 -12.65 -70.05 L-13.9 -68.9 -12.55 -68.1 Q-12.65 -63.8 -10.05 -60.7 L-9.05 -59.65 -8.75 -59.3 -8.5 -59.0 M-11.3 -71.0 L-11.25 -71.7 -11.15 -71.1 -11.3 -71.0 M3.0 -53.55 L2.45 -53.8 Q2.05 -53.8 1.75 -53.3 1.45 -52.85 1.45 -52.2 1.45 -51.55 1.75 -51.05 L2.45 -50.6 2.75 -50.65 3.15 -51.05 Q3.45 -51.55 3.45 -52.2 L3.15 -53.3 3.0 -53.55 M2.5 5.6 L1.8 5.6 Q1.4 7.05 2.45 7.6 L2.85 7.6 3.05 7.65 -0.3 8.1 -0.35 5.7 2.5 5.6 M-0.25 8.45 L1.95 8.45 Q1.3 9.05 1.4 10.05 L0.35 10.05 -0.1 10.5 -0.25 8.45 M1.6 10.8 Q1.2 11.35 1.6 12.25 L2.05 12.4 Q2.25 12.3 2.4 12.25 L2.45 12.2 0.45 15.6 -0.1 14.45 0.7 10.8 1.6 10.8 M-12.65 -83.9 L-13.75 -87.35 -8.1 -83.25 -11.5 -80.05 -11.95 -81.55 Q-10.95 -82.1 -10.35 -83.0 L-10.35 -83.35 -10.7 -84.35 -11.25 -84.6 -11.3 -84.5 Q-12.1 -84.35 -12.65 -83.9 M-14.85 -69.4 L-19.9 -72.7 -14.25 -74.75 -14.45 -73.9 -14.85 -69.4 M-16.75 -60.0 L-13.85 -62.7 -12.05 -60.15 -16.75 -60.0" fill="#f3b524" fill-rule="evenodd" stroke="none"/>
    <path d="M0.85 -81.55 L1.3 -81.75 2.35 -78.45 1.85 -77.7 1.9 -77.2 0.85 -75.05 0.3 -73.85 -1.4 -70.05 -1.7 -68.4 -8.15 -67.45 -9.15 -71.4 Q-8.5 -71.45 -8.7 -71.75 L-9.2 -72.1 -11.15 -71.1 -11.25 -71.7 -11.3 -71.0 -12.65 -70.05 Q-12.55 -73.9 -10.35 -77.25 L-8.85 -79.8 Q-7.7 -81.25 -6.05 -81.8 L-5.05 -77.15 Q-1.75 -75.8 0.7 -78.3 1.9 -79.4 1.6 -79.65 L0.95 -79.0 0.85 -81.55 M-9.6 -71.2 L-9.7 -70.95 Q-10.1 -70.05 -10.9 -70.55 L-9.6 -71.2 M-10.8 -66.85 L-10.8 -66.7 Q-9.65 -60.8 -3.9 -61.0 L-5.1 -64.8 -3.45 -65.6 -2.3 -65.15 -4.85 -64.85 -0.65 -64.35 Q1.95 -64.35 3.8 -63.05 L4.9 -62.05 5.15 -61.7 5.2 -61.65 5.35 -61.3 5.65 -60.3 5.65 -60.05 5.65 -59.95 5.7 -59.85 6.0 -58.65 6.05 -58.45 6.1 -58.25 6.2 -57.85 6.25 -57.65 6.05 -57.35 6.0 -57.3 5.75 -57.15 5.65 -57.1 4.7 -56.9 4.25 -55.3 4.55 -54.15 2.35 -57.4 1.5 -57.65 -1.4 -54.45 -1.4 -52.85 -1.35 -52.6 -0.45 -44.15 0.05 -35.9 0.4 -26.9 0.7 -18.0 1.0 -9.25 1.25 -1.9 1.25 -0.55 -0.95 -1.25 -1.85 -42.95 -3.15 -56.35 -3.1 -56.75 -2.7 -56.95 -2.75 -57.0 -3.0 -57.4 -8.5 -59.0 -8.75 -59.3 -9.05 -59.65 -10.05 -60.7 Q-12.65 -63.8 -12.55 -68.1 L-10.8 -66.85 M7.7 -60.35 L8.3 -60.3 8.4 -60.3 9.0 -59.35 8.9 -59.7 9.0 -59.9 9.25 -60.15 9.45 -60.3 9.75 -60.35 9.75 -60.4 10.65 -60.05 11.05 -59.85 11.15 -59.7 11.5 -59.95 11.9 -60.1 12.35 -60.0 12.75 -59.8 13.1 -58.85 13.1 -58.8 13.2 -58.7 13.2 -58.65 12.85 -57.95 12.65 -58.1 12.45 -58.65 12.35 -59.1 Q12.0 -59.6 11.3 -59.25 11.7 -58.2 11.75 -57.05 L11.7 -55.9 11.1 -55.6 Q10.75 -56.85 10.75 -58.35 L10.75 -58.5 10.6 -59.4 9.7 -59.8 9.45 -59.55 9.3 -59.35 9.3 -58.85 9.3 -58.7 Q9.9 -57.3 10.1 -55.6 L9.3 -55.85 9.25 -56.05 8.7 -58.65 8.3 -59.55 8.15 -59.65 7.6 -59.65 7.35 -59.15 6.95 -58.55 Q6.85 -59.45 7.7 -60.35 M-4.8 -80.0 L-5.0 -81.35 Q-4.5 -80.85 -4.8 -80.0 M15.75 -68.4 L15.65 -68.35 Q15.05 -67.4 15.05 -66.3 L14.9 -66.1 14.1 -66.9 14.1 -67.35 14.1 -67.8 14.25 -68.05 Q14.85 -68.75 15.75 -68.4 M5.65 -69.95 L5.7 -69.85 5.7 -69.4 5.7 -68.95 5.65 -68.85 4.7 -68.05 3.1 -68.05 2.4 -68.75 3.55 -71.0 5.0 -70.8 5.65 -69.95 M-0.3 8.1 L-1.85 8.5 -0.25 8.45 -0.1 10.5 -2.0 11.1 -2.8 10.25 -2.6 5.9 -0.35 5.7 -0.3 8.1 M0.7 10.8 L-0.1 14.45 -1.8 11.5 0.7 10.8" fill="#945216" fill-rule="evenodd" stroke="none"/>
    <path d="M6.9 -84.5 L7.0 -84.6 7.75 -84.35 9.1 -83.75 8.15 -82.7 Q8.45 -80.6 10.0 -79.2 L10.35 -79.3 10.3 -79.45 13.45 -79.5 Q13.15 -78.95 13.9 -79.35 L14.0 -79.55 14.1 -79.55 14.25 -79.55 14.95 -77.9 15.0 -77.85 15.6 -77.7 15.95 -77.15 15.95 -71.9 15.95 -71.25 15.7 -71.1 15.75 -70.85 15.85 -70.4 15.9 -70.25 15.9 -70.0 15.75 -70.3 15.1 -71.3 14.8 -71.9 13.75 -75.55 9.95 -77.0 5.55 -77.65 6.85 -78.1 6.9 -78.05 Q5.65 -78.9 5.55 -80.6 5.45 -82.9 6.9 -84.5 M11.9 -60.1 L12.3 -60.95 Q12.75 -62.0 13.75 -62.45 L14.65 -64.95 14.65 -65.0 14.6 -64.2 14.6 -63.45 14.65 -63.35 Q14.3 -61.55 14.3 -59.75 L13.25 -58.5 13.2 -58.65 13.2 -58.7 13.1 -58.8 13.1 -58.85 12.75 -59.8 12.35 -60.0 11.9 -60.1 M10.85 -79.55 L10.35 -79.6 12.3 -83.95 10.85 -79.55 M16.6 -77.5 L21.5 -77.35 17.3 -72.65 16.6 -77.45 16.6 -77.5 M1.95 -46.5 L1.9 -46.25 1.85 -46.15 1.95 -46.5 M1.85 -44.85 L2.45 -46.55 2.5 -46.7 2.6 -46.85 3.45 -46.5 3.45 -18.95 2.85 -27.3 2.85 -27.35 2.7 -29.7 1.85 -44.85 M3.0 -53.55 L3.15 -53.3 3.45 -52.2 Q3.45 -51.55 3.15 -51.05 L2.75 -50.65 2.45 -50.6 1.75 -51.05 Q1.45 -51.55 1.45 -52.2 1.45 -52.85 1.75 -53.3 2.05 -53.8 2.45 -53.8 L3.0 -53.55 M11.75 -57.05 Q11.7 -58.2 11.3 -59.25 12.0 -59.6 12.35 -59.1 L12.45 -58.65 12.65 -58.1 12.0 -57.15 11.75 -57.05" fill="#f8f7f7" fill-rule="evenodd" stroke="none"/>
    <path d="M1.9 -77.2 L1.15 -75.6 0.85 -75.05 1.9 -77.2 M0.3 -73.85 Q-0.8 -71.3 -0.45 -68.45 L-1.7 -68.4 -1.4 -70.05 0.3 -73.85 M14.7 -65.2 Q14.05 -65.5 13.65 -66.1 L13.4 -66.35 Q13.3 -66.9 13.35 -67.5 L13.35 -68.2 Q13.85 -68.9 14.6 -69.2 L14.95 -69.4 15.7 -69.1 15.9 -69.0 15.9 -69.15 15.9 -69.6 Q16.45 -68.35 15.45 -66.6 L14.7 -65.2 M15.75 -68.4 Q14.85 -68.75 14.25 -68.05 L14.1 -67.8 14.1 -67.35 14.1 -66.9 14.9 -66.1 15.05 -66.3 Q15.05 -67.4 15.65 -68.35 L15.75 -68.4 M5.65 -69.95 L5.0 -70.8 3.55 -71.0 2.4 -68.75 3.1 -68.05 4.7 -68.05 5.65 -68.85 5.7 -68.95 5.7 -69.4 5.7 -69.85 5.65 -69.95 M6.0 -70.8 L6.3 -70.55 6.5 -69.4 6.45 -68.75 5.65 -67.7 Q4.45 -66.7 3.05 -67.25 2.6 -67.4 2.4 -67.8 0.9 -70.35 3.4 -71.8 L4.7 -71.85 5.65 -71.15 6.0 -70.8" fill="#60300a" fill-rule="evenodd" stroke="none"/>
    <path d="M10.6 -73.45 L10.75 -71.9 10.55 -69.7 10.5 -69.25 10.9 -68.1 10.9 -67.9 Q11.7 -67.4 11.95 -66.5 L11.6 -66.1 11.3 -65.9 Q10.7 -66.05 10.3 -66.5 8.35 -65.8 7.25 -66.9 7.75 -67.8 8.9 -68.05 9.9 -69.85 10.25 -71.9 L10.6 -73.45" fill="#e07914" fill-rule="evenodd" stroke="none"/>
    <path d="M3.45 -18.95 L3.4 -0.65 2.05 -0.5 2.7 -29.7 2.85 -27.35 2.85 -27.3 3.45 -18.95 M2.5 5.6 L3.7 5.6 3.7 7.25 3.65 7.65 3.05 7.65 2.85 7.6 2.45 7.6 Q1.4 7.05 1.8 5.6 L2.5 5.6 M1.95 8.45 L3.55 8.5 3.4 9.1 3.9 9.5 3.8 10.05 1.4 10.05 Q1.3 9.05 1.95 8.45 M2.45 12.2 L2.4 12.25 Q2.25 12.3 2.05 12.4 L1.6 12.25 Q1.2 11.35 1.6 10.8 L2.4 11.0 2.95 11.25 2.45 12.2" fill="#ffffff" fill-rule="evenodd" stroke="none"/>
    <path d="M0.7 -89.85 L1.3 -90.25 1.35 -90.3 1.9 -90.1 2.15 -88.75 2.1 -88.4 1.95 -88.1 1.55 -87.75 1.0 -87.75 0.65 -88.1 0.45 -88.4 0.45 -89.05 0.7 -89.85 M2.35 -83.35 L2.55 -83.4 3.1 -83.5 3.15 -83.55 Q4.55 -83.4 4.8 -82.0 L4.8 -81.65 Q3.7 -79.15 1.55 -81.1 1.25 -81.95 1.75 -82.7 L2.35 -83.35 M-5.1 -82.0 L-5.9 -87.75 -2.25 -84.4 -2.0 -83.6 Q-1.2 -81.15 -3.6 -80.3 -4.35 -80.8 -5.0 -81.45 L-5.1 -82.0 M-11.95 -81.55 L-12.65 -83.9 Q-12.1 -84.35 -11.3 -84.5 L-11.25 -84.6 -10.7 -84.35 -10.35 -83.35 -10.35 -83.0 Q-10.95 -82.1 -11.95 -81.55" fill="#996666" fill-rule="evenodd" stroke="none"/>
  </g>
</svg>
