<?xml version="1.0" encoding="UTF-8" standalone="no"?>
<svg xmlns:xlink="http://www.w3.org/1999/xlink" height="65.0px" width="45.1px" xmlns="http://www.w3.org/2000/svg">
  <g transform="matrix(1.0, 0.0, 0.0, 1.0, 11.15, 9.55)">
    <path d="M7.35 -7.7 Q9.2 -5.95 11.2 -4.35 15.1 -1.05 18.05 3.05 L18.15 3.8 Q24.95 8.45 29.05 15.6 L31.15 20.1 Q36.2 32.9 32.15 45.75 L31.55 45.75 Q25.25 54.45 14.35 55.35 9.25 55.95 5.35 53.1 3.2 51.55 1.65 49.35 -3.2 42.6 -3.5 34.35 L-2.75 33.05 Q-5.65 28.75 -8.05 24.1 -9.4 21.6 -10.15 18.85 -11.8 12.6 -10.75 6.25 -9.45 -1.35 -4.55 -7.25 -2.85 -9.3 -0.35 -9.5 L2.6 -9.3 Q5.55 -9.35 7.35 -7.7 M7.25 -0.45 Q7.7 -0.45 8.05 -0.1 L8.35 0.65 8.05 1.45 7.25 1.75 Q6.8 1.75 6.5 1.45 6.15 1.1 6.15 0.65 6.15 0.2 6.5 -0.1 6.8 -0.45 7.25 -0.45 M24.1 11.7 L23.7 11.85 Q14.4 18.25 6.65 26.8 8.6 25.65 10.6 24.65 14.9 22.35 19.35 24.1 L19.45 23.75 19.35 23.65 19.8 23.4 Q22.2 22.05 24.65 21.7 L29.15 20.8 Q27.3 15.85 24.1 11.7 M23.55 10.95 L18.8 5.85 Q11.1 10.85 5.25 18.3 L5.3 17.55 5.0 18.15 -1.35 29.5 -2.5 30.3 -1.5 32.4 Q1.5 29.6 5.2 27.55 L6.2 27.05 Q13.15 17.6 23.55 11.0 L23.55 10.95 M23.55 11.0 L23.8 11.3 23.55 11.0 M22.7 24.0 L22.35 24.3 21.9 24.3 21.4 24.4 21.25 24.6 Q21.15 24.75 21.2 24.85 L22.0 25.55 18.8 25.65 Q17.05 25.35 15.35 25.7 L11.0 26.5 Q4.6 28.1 0.35 33.0 -2.35 36.2 -1.15 40.35 0.6 46.3 4.75 51.0 6.25 52.8 8.6 53.05 14.8 54.1 20.5 51.7 27.3 48.85 31.55 42.8 32.9 32.45 29.75 22.55 26.05 22.4 22.7 24.0 M14.65 1.9 Q1.75 9.8 -4.3 23.6 L-5.15 25.7 -2.85 29.05 Q2.8 16.0 13.9 6.7 L16.25 4.75 14.65 1.9 M9.65 3.6 L14.0 0.95 Q8.8 -6.75 -0.1 -7.65 L-2.5 -7.6 Q-9.9 -0.45 -9.55 10.0 -9.3 17.65 -6.1 24.4 L-6.0 24.35 Q-2.65 14.0 5.65 6.8 L9.65 3.6 M-3.3 11.4 L-2.55 11.85 -2.3 12.25 -2.65 13.55 -3.3 13.75 -4.45 12.9 -3.95 11.6 -3.3 11.4" fill="#000000" fill-rule="evenodd" stroke="none"/>
    <path d="M23.55 11.0 L23.8 11.3 23.55 11.0" fill="#999999" fill-rule="evenodd" stroke="none"/>
    <path d="M5.25 18.3 L5.0 18.15 5.3 17.55 5.25 18.3" fill="#333333" fill-rule="evenodd" stroke="none"/>
    <path d="M23.55 11.0 L23.55 10.95 23.55 11.0" fill="#3f4756" fill-rule="evenodd" stroke="none"/>
    <path d="M7.25 -0.45 Q6.8 -0.45 6.5 -0.1 6.15 0.2 6.15 0.65 6.15 1.1 6.5 1.45 6.8 1.75 7.25 1.75 L8.05 1.45 8.35 0.65 8.05 -0.1 Q7.7 -0.45 7.25 -0.45 M9.65 3.6 L5.65 6.8 Q-2.65 14.0 -6.0 24.35 L-6.1 24.4 Q-9.3 17.65 -9.55 10.0 -9.9 -0.45 -2.5 -7.6 L-0.1 -7.65 Q8.8 -6.75 14.0 0.95 L9.65 3.6 M14.65 1.9 L16.25 4.75 13.9 6.7 Q2.8 16.0 -2.85 29.05 L-5.15 25.7 -4.3 23.6 Q1.75 9.8 14.65 1.9 M22.7 24.0 Q26.05 22.4 29.75 22.55 32.9 32.45 31.55 42.8 27.3 48.85 20.5 51.7 14.8 54.1 8.6 53.05 6.25 52.8 4.75 51.0 0.6 46.3 -1.15 40.35 -2.35 36.2 0.35 33.0 4.6 28.1 11.0 26.5 L15.35 25.7 Q17.05 25.35 18.8 25.65 L22.0 25.55 21.2 24.85 Q21.15 24.75 21.25 24.6 L21.4 24.4 21.9 24.3 22.35 24.3 22.7 24.0 M-3.3 11.4 L-3.95 11.6 -4.45 12.9 -3.3 13.75 -2.65 13.55 -2.3 12.25 -2.55 11.85 -3.3 11.4" fill="#555555" fill-rule="evenodd" stroke="none"/>
    <path d="M24.1 11.7 Q27.3 15.85 29.15 20.8 L24.65 21.7 Q22.2 22.05 19.8 23.4 L19.35 23.65 19.45 23.75 19.35 24.1 Q14.9 22.35 10.6 24.65 8.6 25.65 6.65 26.8 14.4 18.25 23.7 11.85 L24.1 11.7 M23.55 10.95 L23.55 11.0 Q13.15 17.6 6.2 27.05 L5.2 27.55 Q1.5 29.6 -1.5 32.4 L-2.5 30.3 -1.35 29.5 5.0 18.15 5.25 18.3 Q11.1 10.85 18.8 5.85 L23.55 10.95" fill="#2d2d2d" fill-rule="evenodd" stroke="none"/>
  </g>
</svg>
