<?xml version="1.0" encoding="UTF-8" standalone="no"?>
<svg xmlns:xlink="http://www.w3.org/1999/xlink" height="42.8px" width="39.65px" xmlns="http://www.w3.org/2000/svg">
  <g transform="matrix(1.0, 0.0, 0.0, 1.0, 19.8, 21.4)">
    <path d="M7.6 -12.65 L7.85 -12.65 8.1 -12.5 Q12.2 -8.45 17.2 -5.6 L19.5 -4.1 19.75 -3.4 19.85 -2.85 Q9.0 4.15 -1.6 12.15 L-11.75 20.15 -12.25 20.4 -12.75 20.7 -13.1 20.95 -13.5 21.3 -14.2 21.4 -14.7 21.0 -15.15 20.5 -14.9 20.1 -14.7 19.7 -14.5 19.25 -14.3 18.85 -14.15 18.45 Q-6.85 9.0 0.15 -0.8 4.15 -6.5 7.15 -12.6 L7.6 -12.65 M7.15 -10.55 Q-1.9 4.4 -12.35 18.35 L-12.7 18.75 Q1.75 7.05 18.0 -3.0 L7.15 -10.55 M-1.95 -19.85 L-1.35 -19.35 -1.0 -18.95 Q-6.9 -7.45 -12.1 4.8 L-16.9 16.8 -17.2 17.25 -17.45 17.75 -17.65 18.15 -17.8 18.65 -18.4 19.1 -19.0 19.0 -19.65 18.8 -19.65 18.3 -19.65 17.85 -19.7 17.4 -19.75 16.95 -19.8 16.5 Q-18.2 4.7 -17.05 -7.3 -16.4 -14.25 -16.9 -21.05 L-16.55 -21.3 -16.3 -21.4 -16.0 -21.4 Q-10.45 -19.95 -4.7 -20.0 L-1.95 -19.85 M-15.85 -19.25 Q-16.2 -1.75 -18.3 15.55 L-18.4 16.05 Q-11.7 -1.3 -2.7 -18.15 L-15.85 -19.25" fill="#000000" fill-rule="evenodd" stroke="none"/>
    <path d="M7.15 -10.55 L18.0 -3.0 Q1.75 7.05 -12.7 18.75 L-12.35 18.35 Q-1.9 4.4 7.15 -10.55 M-15.85 -19.25 L-2.7 -18.15 Q-11.7 -1.3 -18.4 16.05 L-18.3 15.55 Q-16.2 -1.75 -15.85 -19.25" fill="#ffffff" fill-rule="evenodd" stroke="none"/>
  </g>
</svg>
