<?xml version="1.0" encoding="UTF-8" standalone="no"?>
<svg xmlns:xlink="http://www.w3.org/1999/xlink" height="70.8px" width="50.65px" xmlns="http://www.w3.org/2000/svg">
  <g transform="matrix(1.0, 0.0, 0.0, 1.0, 40.8, 51.65)">
    <path d="M-7.95 -22.3 L-7.35 -22.45 Q-6.4 -22.95 -5.55 -23.6 L-3.65 -25.2 -2.6 -25.25 3.0 -29.8 -0.6 -29.45 0.8 -30.6 Q3.15 -32.35 5.8 -33.6 4.1 -38.6 1.2 -42.95 L-1.35 -46.2 Q-2.55 -47.55 -4.15 -48.15 -8.55 -49.9 -13.45 -49.4 L-18.15 -48.1 Q-23.45 -45.95 -27.4 -41.65 L-27.75 -41.45 Q-32.25 -37.35 -34.65 -31.5 -39.15 -20.45 -38.8 -8.55 -29.8 -12.3 -24.35 -20.4 -25.85 -22.45 -26.5 -24.85 -26.65 -25.45 -26.25 -26.1 L-26.05 -24.4 -25.0 -23.6 Q-24.15 -23.0 -23.15 -22.5 -22.2 -21.1 -20.4 -20.5 -16.4 -19.15 -12.55 -21.05 L-13.95 -21.05 Q-16.1 -21.4 -17.85 -22.5 L-15.7 -22.1 Q-8.3 -21.5 -4.05 -27.45 L-4.75 -26.05 Q-5.95 -23.75 -7.95 -22.35 L-8.05 -22.25 -7.95 -22.3 M0.75 -47.95 L2.75 -45.3 Q5.7 -41.15 7.55 -36.35 L7.6 -30.95 Q5.3 -27.85 2.25 -25.65 0.4 -24.3 -1.6 -23.6 L-4.15 -20.75 Q1.75 -20.1 6.0 -15.9 7.25 -14.7 7.45 -13.75 L8.25 -13.3 Q9.1 -11.0 9.55 -8.4 10.25 -4.5 9.35 -0.8 6.15 12.25 -6.2 17.5 -15.4 21.3 -24.0 16.3 L-23.9 16.2 Q-30.25 13.45 -36.45 9.75 L-37.35 8.95 Q-40.9 3.55 -40.8 -2.5 L-40.7 -7.75 Q-40.5 -20.0 -36.7 -32.3 L-35.55 -35.1 Q-33.85 -38.2 -31.75 -41.1 L-29.25 -43.85 Q-23.05 -48.95 -15.25 -51.05 -11.2 -52.25 -7.1 -51.05 -2.9 -49.85 0.75 -47.95 M0.05 -13.45 L0.35 -12.7 Q0.35 -12.25 0.05 -11.95 -0.25 -11.65 -0.7 -11.65 -1.15 -11.65 -1.45 -11.95 -1.75 -12.25 -1.75 -12.7 L-1.45 -13.45 -0.7 -13.75 Q-0.25 -13.75 0.05 -13.45 M7.95 -8.0 Q7.8 -9.45 7.1 -10.55 2.95 -16.85 -4.25 -19.2 L-4.45 -17.0 Q-5.2 -9.5 -8.0 -2.55 L-7.45 -2.35 -7.0 -1.8 -6.9 -1.3 -8.7 -0.9 Q-12.35 7.55 -18.8 14.95 L-16.95 16.55 Q-6.5 17.4 1.15 10.05 8.85 2.65 7.95 -8.0 M-24.0 -6.25 L-22.25 -4.9 Q-19.55 -3.1 -16.25 -2.85 L-15.6 -4.05 Q-12.5 -10.5 -11.0 -17.45 L-12.7 -17.0 Q-15.95 -16.45 -19.1 -16.95 -20.8 -11.2 -24.0 -6.25 M-21.2 -17.7 Q-22.8 -18.55 -24.05 -20.0 L-24.35 -18.95 Q-25.55 -14.9 -29.2 -12.6 -33.6 -9.0 -38.8 -6.95 -39.5 0.4 -36.95 7.4 -31.95 11.5 -26.0 13.45 L-17.1 -1.25 Q-21.3 -2.55 -24.25 -5.9 L-27.65 -1.3 Q-30.6 2.55 -34.35 5.8 -35.95 7.1 -37.15 5.55 -24.45 -2.7 -20.15 -17.25 L-21.2 -17.7 M-10.7 11.3 Q-10.4 11.6 -10.4 12.05 -10.4 12.5 -10.7 12.85 L-11.5 13.15 -12.25 12.85 -12.6 12.05 Q-12.6 11.6 -12.25 11.3 -11.95 10.95 -11.5 10.95 -11.05 10.95 -10.7 11.3 M-4.5 -1.2 Q-4.0 -1.2 -3.65 -0.85 -3.3 -0.5 -3.3 0.0 -3.3 0.5 -3.65 0.85 -4.0 1.2 -4.5 1.2 -5.0 1.2 -5.35 0.85 L-5.7 0.0 -5.35 -0.85 Q-5.0 -1.2 -4.5 -1.2 M-10.6 -0.65 L-14.9 -0.75 Q-18.8 7.05 -25.5 13.6 L-20.15 14.7 Q-14.6 7.45 -10.6 -0.65 M-4.95 -19.4 L-6.1 -19.6 -10.05 -17.75 Q-10.8 -9.9 -14.0 -2.65 L-9.7 -2.45 Q-5.15 -10.4 -4.95 -19.4" fill="#000000" fill-rule="evenodd" stroke="none"/>
    <path d="M-27.4 -41.65 Q-23.45 -45.95 -18.15 -48.1 L-13.45 -49.4 Q-8.55 -49.9 -4.15 -48.15 -2.55 -47.55 -1.35 -46.2 L1.2 -42.95 Q4.1 -38.6 5.8 -33.6 3.15 -32.35 0.8 -30.6 L-0.6 -29.45 3.0 -29.8 -2.6 -25.25 -3.65 -25.2 -5.55 -23.6 Q-6.4 -22.95 -7.35 -22.45 L-7.95 -22.3 -7.95 -22.35 Q-5.95 -23.75 -4.75 -26.05 L-4.05 -27.45 Q-8.3 -21.5 -15.7 -22.1 L-17.85 -22.5 Q-16.1 -21.4 -13.95 -21.05 L-12.55 -21.05 Q-16.4 -19.15 -20.4 -20.5 -22.2 -21.1 -23.15 -22.5 -24.15 -23.0 -25.0 -23.6 L-26.05 -24.4 -26.25 -26.1 Q-26.65 -25.45 -26.5 -24.85 -25.85 -22.45 -24.35 -20.4 -29.8 -12.3 -38.8 -8.55 -39.15 -20.45 -34.65 -31.5 -32.25 -37.35 -27.75 -41.45 L-27.65 -41.4 -27.6 -41.45 -27.55 -41.5 -27.35 -41.7 -27.4 -41.65 M7.95 -8.0 Q8.85 2.65 1.15 10.05 -6.5 17.4 -16.95 16.55 L-18.8 14.95 Q-12.35 7.55 -8.7 -0.9 L-6.9 -1.3 -7.0 -1.8 -7.45 -2.35 -8.0 -2.55 Q-5.2 -9.5 -4.45 -17.0 L-4.25 -19.2 Q2.95 -16.85 7.1 -10.55 7.8 -9.45 7.95 -8.0 M0.05 -13.45 Q-0.25 -13.75 -0.7 -13.75 L-1.45 -13.45 -1.75 -12.7 Q-1.75 -12.25 -1.45 -11.95 -1.15 -11.65 -0.7 -11.65 -0.25 -11.65 0.05 -11.95 0.35 -12.25 0.35 -12.7 L0.05 -13.45 M-4.95 -19.4 Q-5.15 -10.4 -9.7 -2.45 L-14.0 -2.65 Q-10.8 -9.9 -10.05 -17.75 L-6.1 -19.6 -4.95 -19.4 M-10.6 -0.65 Q-14.6 7.45 -20.15 14.7 L-25.5 13.6 Q-18.8 7.05 -14.9 -0.75 L-10.6 -0.65 M-4.5 -1.2 Q-5.0 -1.2 -5.35 -0.85 L-5.7 0.0 -5.35 0.85 Q-5.0 1.2 -4.5 1.2 -4.0 1.2 -3.65 0.85 -3.3 0.5 -3.3 0.0 -3.3 -0.5 -3.65 -0.85 -4.0 -1.2 -4.5 -1.2 M-10.7 11.3 Q-11.05 10.95 -11.5 10.95 -11.95 10.95 -12.25 11.3 -12.6 11.6 -12.6 12.05 L-12.25 12.85 -11.5 13.15 -10.7 12.85 Q-10.4 12.5 -10.4 12.05 -10.4 11.6 -10.7 11.3" fill="#555555" fill-rule="evenodd" stroke="none"/>
    <path d="M-21.2 -17.7 L-20.15 -17.25 Q-24.45 -2.7 -37.15 5.55 -35.95 7.1 -34.35 5.8 -30.6 2.55 -27.65 -1.3 L-24.25 -5.9 Q-21.3 -2.55 -17.1 -1.25 L-26.0 13.45 Q-31.95 11.5 -36.95 7.4 -39.5 0.4 -38.8 -6.95 -33.6 -9.0 -29.2 -12.6 -25.55 -14.9 -24.35 -18.95 L-24.05 -20.0 Q-22.8 -18.55 -21.2 -17.7 M-24.0 -6.25 Q-20.8 -11.2 -19.1 -16.95 -15.95 -16.45 -12.7 -17.0 L-11.0 -17.45 Q-12.5 -10.5 -15.6 -4.05 L-16.25 -2.85 Q-19.55 -3.1 -22.25 -4.9 L-24.0 -6.25" fill="#2d2d2d" fill-rule="evenodd" stroke="none"/>
  </g>
</svg>
