<?xml version="1.0" encoding="UTF-8" standalone="no"?>
<svg xmlns:xlink="http://www.w3.org/1999/xlink" height="51.0px" width="53.85px" xmlns="http://www.w3.org/2000/svg">
  <g transform="matrix(1.0, 0.0, 0.0, 1.0, 27.0, 25.5)">
    <path d="M1.55 -23.35 L2.15 -23.5 -7.15 -23.9 Q-2.25 -22.45 2.35 -19.85 15.85 -12.2 19.7 2.8 24.05 -2.0 24.5 -8.45 25.0 -16.2 20.65 -22.7 L2.7 -23.3 2.75 -22.05 1.5 -22.05 1.25 -23.0 1.55 -23.35 M10.95 -19.95 L11.25 -19.15 10.95 -18.3 Q10.6 -18.0 10.1 -18.0 9.6 -18.0 9.3 -18.3 8.95 -18.65 8.95 -19.15 8.95 -19.65 9.3 -19.95 9.6 -20.3 10.1 -20.3 10.6 -20.3 10.95 -19.95 M7.5 -0.2 L2.6 -5.0 Q-5.05 -12.1 -15.1 -13.7 L-16.6 -6.9 Q-8.0 -6.25 -0.3 -2.2 7.05 1.55 10.85 8.6 L15.15 6.55 Q14.95 3.25 13.95 0.0 12.85 -3.35 10.55 -6.4 1.7 -18.25 -13.1 -19.55 L-14.8 -14.65 -14.4 -14.7 Q-3.25 -13.35 4.95 -5.3 L7.8 -2.5 Q11.8 1.9 13.0 7.5 11.55 6.95 11.15 5.7 10.05 2.25 7.5 -0.2 M19.6 -7.85 L20.2 -7.6 20.45 -7.0 20.2 -6.4 Q19.95 -6.15 19.6 -6.15 19.25 -6.15 19.0 -6.4 18.75 -6.65 18.75 -7.0 L19.0 -7.6 19.6 -7.85 M25.0 -2.25 Q23.25 2.15 20.25 6.1 L11.85 10.9 Q10.75 15.6 9.2 20.0 8.45 22.15 7.0 23.9 -10.1 28.4 -26.1 20.4 -28.4 11.65 -24.85 3.95 L-24.85 3.25 -22.45 1.05 -14.75 -20.35 -15.1 -20.6 -14.4 -21.8 -13.8 -21.95 -12.25 -24.5 Q5.9 -27.25 23.5 -22.4 29.35 -12.85 25.0 -2.25 M18.95 3.55 Q16.75 -6.65 9.35 -14.0 1.85 -21.35 -8.25 -23.7 L-11.75 -21.55 Q-5.35 -20.05 0.35 -16.9 14.15 -9.35 16.0 6.0 L18.95 3.55 M8.95 13.45 L9.8 9.25 Q6.0 2.9 -1.0 -0.15 -3.05 -1.05 -5.0 -2.1 -10.7 -5.0 -16.95 -5.65 -18.7 0.25 -22.95 4.1 -23.05 4.65 -23.3 5.2 -26.25 11.1 -24.85 17.95 L-23.0 19.0 Q-8.9 26.25 6.15 21.45 L8.95 13.45" fill="#000000" fill-rule="evenodd" stroke="none"/>
    <path d="M10.95 -19.95 Q10.6 -20.3 10.1 -20.3 9.6 -20.3 9.3 -19.95 8.95 -19.65 8.95 -19.15 8.95 -18.65 9.3 -18.3 9.6 -18.0 10.1 -18.0 10.6 -18.0 10.95 -18.3 L11.25 -19.15 10.95 -19.95 M1.55 -23.35 L1.25 -23.0 1.5 -22.05 2.75 -22.05 2.7 -23.3 20.65 -22.7 Q25.0 -16.2 24.5 -8.45 24.05 -2.0 19.7 2.8 15.85 -12.2 2.35 -19.85 -2.25 -22.45 -7.15 -23.9 L2.15 -23.5 1.55 -23.35 M19.6 -7.85 L19.0 -7.6 18.75 -7.0 Q18.75 -6.65 19.0 -6.4 19.25 -6.15 19.6 -6.15 19.95 -6.15 20.2 -6.4 L20.45 -7.0 20.2 -7.6 19.6 -7.85 M8.95 13.45 L6.15 21.45 Q-8.9 26.25 -23.0 19.0 L-24.85 17.95 Q-26.25 11.1 -23.3 5.2 -23.05 4.65 -22.95 4.1 -18.7 0.25 -16.95 -5.65 -10.7 -5.0 -5.0 -2.1 -3.05 -1.05 -1.0 -0.15 6.0 2.9 9.8 9.25 L8.95 13.45 M18.95 3.55 L16.0 6.0 Q14.15 -9.35 0.35 -16.9 -5.35 -20.05 -11.75 -21.55 L-8.25 -23.7 Q1.85 -21.35 9.35 -14.0 16.75 -6.65 18.95 3.55" fill="#555555" fill-rule="evenodd" stroke="none"/>
    <path d="M7.5 -0.2 Q10.05 2.25 11.15 5.7 11.55 6.95 13.0 7.5 11.8 1.9 7.8 -2.5 L4.95 -5.3 Q-3.25 -13.35 -14.4 -14.7 L-14.8 -14.65 -13.1 -19.55 Q1.7 -18.25 10.55 -6.4 12.85 -3.35 13.95 0.0 14.95 3.25 15.15 6.55 L10.85 8.6 Q7.05 1.55 -0.3 -2.2 -8.0 -6.25 -16.6 -6.9 L-15.1 -13.7 Q-5.05 -12.1 2.6 -5.0 L7.5 -0.2" fill="#2d2d2d" fill-rule="evenodd" stroke="none"/>
  </g>
</svg>
