<?xml version="1.0" encoding="UTF-8" standalone="no"?>
<svg xmlns:xlink="http://www.w3.org/1999/xlink" height="86.7px" width="87.4px" xmlns="http://www.w3.org/2000/svg">
  <g transform="matrix(1.0, 0.0, 0.0, 1.0, 38.85, 42.15)">
    <path d="M19.0 25.25 Q20.9 23.55 23.2 23.0 26.2 22.25 29.0 20.75 L31.3 19.0 Q38.3 11.55 43.9 3.1 L44.4 2.6 46.55 -12.35 45.75 -12.3 42.6 -14.45 Q38.15 -17.4 33.45 -20.0 L20.25 -17.35 15.25 -16.75 14.1 -16.75 15.6 -17.15 17.3 -17.6 17.85 -17.8 Q18.15 -17.85 18.4 -18.05 L19.35 -18.6 33.7 -21.75 34.1 -20.95 40.0 -17.6 Q43.5 -15.6 46.6 -13.05 L47.4 -20.55 Q45.75 -23.85 43.3 -26.95 40.85 -29.95 37.8 -32.1 34.2 -34.65 30.0 -36.15 16.7 -41.1 2.35 -41.0 -3.45 -38.65 -9.1 -35.95 -12.9 -34.05 -16.0 -31.35 -19.7 -28.15 -22.4 -24.2 L-10.5 -22.35 Q1.8 -20.25 13.7 -16.75 8.0 -16.9 2.45 -18.25 -10.2 -21.15 -23.25 -22.6 L-23.35 -22.65 -31.95 -8.8 -32.3 -8.45 Q-31.55 -11.75 -29.8 -14.75 -25.75 -21.65 -20.85 -28.35 -19.15 -30.6 -16.85 -32.1 -7.8 -38.25 2.75 -42.05 L3.6 -41.5 16.5 -42.1 Q22.2 -41.7 27.8 -39.75 38.7 -35.9 46.15 -27.0 49.1 -23.5 48.45 -18.95 48.2 -18.55 48.2 -18.15 48.25 -7.85 46.4 2.05 L46.35 3.2 43.5 6.8 32.2 20.2 32.05 20.95 31.55 20.85 31.5 20.85 30.15 21.7 28.55 22.5 Q23.95 24.65 19.1 26.0 L19.2 29.45 17.95 30.5 Q16.75 31.45 15.4 31.7 L15.0 32.85 14.5 33.95 13.75 35.05 10.95 37.7 10.75 37.65 10.6 37.45 9.4 38.8 Q6.2 41.6 2.2 42.9 -3.25 44.7 -9.15 44.55 -24.5 44.15 -37.8 36.45 L-38.45 34.7 -38.85 35.9 -37.5 23.85 -37.8 24.25 -37.05 18.3 -37.35 17.8 -36.9 17.35 -33.35 -5.2 Q-33.0 -7.15 -31.6 -8.45 L-35.7 17.7 Q-26.0 22.95 -15.0 24.6 L14.25 -16.15 14.95 -16.0 Q2.55 0.65 -8.65 17.95 -11.6 22.55 -15.6 25.35 L-15.15 24.75 Q-26.05 23.75 -35.85 19.0 L-36.4 22.6 -35.3 24.65 -26.4 27.85 Q-19.75 30.15 -12.85 31.2 -8.25 31.6 -3.65 31.0 0.35 31.2 4.15 29.8 11.05 27.5 16.5 23.95 L16.3 23.55 16.95 22.75 14.65 15.75 Q17.45 18.7 17.9 23.3 L19.15 24.3 Q19.65 24.7 18.95 25.15 L18.95 25.3 19.0 25.25 M-36.5 24.45 L-36.8 24.2 -36.8 24.45 -37.25 27.95 -35.6 28.5 Q-36.65 29.15 -35.1 29.7 -33.9 30.1 -32.8 30.8 -25.9 35.25 -17.8 36.1 L-9.55 37.1 Q0.75 37.75 11.05 36.0 L11.5 35.2 Q13.45 33.6 14.8 31.35 L15.2 30.75 14.7 30.9 Q7.65 32.45 0.65 32.8 L-1.6 33.55 -0.3 32.8 Q-14.9 33.3 -29.45 28.4 -33.6 27.0 -36.5 24.45 M-37.25 28.85 L-38.25 33.85 -38.2 33.85 Q-35.7 36.3 -32.6 38.0 -30.6 39.05 -28.4 39.65 -22.05 41.5 -15.3 42.7 -1.55 44.9 9.7 36.9 -10.15 41.15 -29.2 34.15 -33.85 32.4 -37.1 29.1 L-37.25 28.85 M17.95 29.05 L18.4 25.35 17.7 25.2 17.1 24.6 Q10.15 29.1 2.5 32.05 9.15 32.1 15.45 30.65 L17.95 29.05" fill="#000000" fill-rule="evenodd" stroke="none"/>
    <path d="M-37.25 28.85 L-37.1 29.1 Q-33.85 32.4 -29.2 34.15 -10.15 41.15 9.7 36.9 -1.55 44.9 -15.3 42.7 -22.05 41.5 -28.4 39.65 -30.6 39.05 -32.6 38.0 -35.7 36.3 -38.2 33.85 L-38.25 33.85 -37.25 28.85 M17.95 29.05 L15.45 30.65 Q9.15 32.1 2.5 32.05 10.15 29.1 17.1 24.6 L17.7 25.2 18.4 25.35 17.95 29.05" fill="#666666" fill-rule="evenodd" stroke="none"/>
    <path d="M-36.8 24.45 L-36.5 24.45 Q-33.6 27.0 -29.45 28.4 -14.9 33.3 -0.3 32.8 L-1.6 33.55 0.65 32.8 Q7.65 32.45 14.7 30.9 L14.8 31.35 Q13.45 33.6 11.5 35.2 L11.05 36.0 Q0.75 37.75 -9.55 37.1 L-17.8 36.1 Q-25.9 35.25 -32.8 30.8 -33.9 30.1 -35.1 29.7 -36.65 29.15 -35.6 28.5 L-37.25 27.95 -36.8 24.45" fill="#333333" fill-rule="evenodd" stroke="none"/>
    <path d="M-31.95 -8.8 L-23.35 -22.65 -23.25 -22.6 Q-10.2 -21.15 2.45 -18.25 8.0 -16.9 13.7 -16.75 1.8 -20.25 -10.5 -22.35 L-22.4 -24.2 Q-19.7 -28.15 -16.0 -31.35 -12.9 -34.05 -9.1 -35.95 -3.45 -38.65 2.35 -41.0 16.7 -41.1 30.0 -36.15 34.2 -34.65 37.8 -32.1 40.85 -29.95 43.3 -26.95 45.75 -23.85 47.4 -20.55 L46.6 -13.05 Q43.5 -15.6 40.0 -17.6 L34.1 -20.95 33.7 -21.75 19.35 -18.6 18.4 -18.05 Q18.15 -17.85 17.85 -17.8 L17.3 -17.6 15.6 -17.15 14.1 -16.75 15.25 -16.75 20.25 -17.35 33.45 -20.0 Q38.15 -17.4 42.6 -14.45 L45.75 -12.3 46.55 -12.35 44.4 2.6 43.9 3.1 Q38.3 11.55 31.3 19.0 L29.0 20.75 Q26.2 22.25 23.2 23.0 20.9 23.55 19.0 25.25 L18.95 25.15 Q19.65 24.7 19.15 24.3 L17.9 23.3 Q17.45 18.7 14.65 15.75 L16.95 22.75 16.3 23.55 16.5 23.95 Q11.05 27.5 4.15 29.8 0.35 31.2 -3.65 31.0 -8.25 31.6 -12.85 31.2 -19.75 30.15 -26.4 27.85 L-35.3 24.65 -36.4 22.6 -35.85 19.0 Q-26.05 23.75 -15.15 24.75 L-15.6 25.35 Q-11.6 22.55 -8.65 17.95 2.55 0.65 14.95 -16.0 L14.25 -16.15 -15.0 24.6 Q-26.0 22.95 -35.7 17.7 L-31.6 -8.45 -31.95 -8.8" fill="#2d2d2d" fill-rule="evenodd" stroke="none"/>
  </g>
</svg>
