<?xml version="1.0" encoding="UTF-8" standalone="no"?>
<svg xmlns:xlink="http://www.w3.org/1999/xlink" height="193.25px" width="583.2px" xmlns="http://www.w3.org/2000/svg">
  <g transform="matrix(1.0, 0.0, 0.0, 1.0, 443.65, 99.45)">
    <path d="M-336.35 -37.25 Q-339.7 -38.65 -342.35 -38.0 L-342.85 -37.25 Q-339.45 -33.3 -335.1 -35.25 L-336.1 -36.8 -336.35 -37.25 M-342.65 -39.5 L-335.1 -37.65 -334.0 -37.0 -333.95 -33.5 Q-339.65 -32.5 -344.05 -36.5 L-342.65 -39.5 M-284.25 -91.4 L-282.5 -92.0 Q-271.8 -91.95 -261.25 -91.4 L-284.25 -91.4" fill="#3c4444" fill-rule="evenodd" stroke="none"/>
    <path d="M-193.7 23.9 L-194.25 23.4 -193.2 24.25 -193.7 23.9" fill="#495651" fill-rule="evenodd" stroke="none"/>
    <path d="M-232.1 92.3 L-231.6 92.75 -232.7 93.75 -247.3 81.15 Q-271.25 60.05 -294.8 38.45 -310.6 23.9 -326.7 9.7 L-326.8 9.0 Q-344.1 -6.25 -360.7 -22.15 -386.1 -46.45 -413.05 -68.9 -427.25 -80.7 -441.05 -92.75 L-440.95 -93.35 -443.65 -95.0 -443.35 -96.0 -437.65 -96.0 -437.65 -96.7 -393.0 -96.4 Q-389.15 -99.05 -383.95 -99.1 L-355.15 -99.45 Q-337.2 -99.65 -320.8 -94.75 L-327.85 -94.95 -363.7 -96.7 Q-376.6 -97.9 -388.95 -94.5 L-362.45 -70.05 Q-327.95 -38.55 -292.8 -8.05 L-267.15 13.55 -264.55 15.65 Q-242.85 14.5 -221.25 14.5 L-204.05 15.65 -211.25 9.8 Q-224.2 -0.85 -236.4 -12.15 L-264.1 -37.3 Q-277.8 -49.5 -292.25 -61.15 -306.2 -72.4 -319.2 -84.7 -322.9 -88.2 -326.25 -92.0 -327.25 -93.2 -327.85 -94.75 L-176.9 -93.75 -176.05 -94.15 -157.0 -94.75 Q-131.85 -95.55 -106.85 -95.3 L-100.55 -95.2 -87.9 -95.1 -70.8 -94.6 -69.6 -93.8 -69.0 -93.15 -38.6 -65.85 Q-10.35 -40.4 18.7 -15.95 L34.45 -2.55 Q59.65 18.95 83.95 41.5 L90.4 47.55 103.5 59.55 Q120.0 74.6 135.9 90.35 L139.55 91.25 136.2 92.0 136.05 93.25 134.5 91.85 125.5 92.3 Q101.15 93.35 76.75 93.15 L70.65 93.05 58.45 92.9 Q45.45 92.25 32.65 92.4 L-121.8 92.75 -135.0 93.4 Q-155.4 93.95 -175.8 92.45 L-178.75 92.2 -178.75 93.0 -180.0 93.0 -183.85 89.25 Q-197.9 75.55 -212.9 62.85 L-240.25 39.85 Q-254.65 27.85 -266.6 15.6 L-266.55 15.6 -266.6 15.55 Q-290.4 -2.45 -312.25 -22.75 L-317.15 -27.25 Q-338.35 -28.3 -358.8 -26.5 L-359.0 -26.1 -359.55 -25.75 -362.55 -26.05 -341.4 -6.8 -309.6 21.75 -311.05 21.45 -310.05 22.3 -237.25 87.9 -232.1 92.3 M-324.0 -33.6 L-388.95 -93.9 -391.7 -94.7 Q-415.35 -94.0 -439.15 -95.2 L-440.2 -95.25 -366.45 -29.55 -364.4 -28.1 -355.65 -28.75 Q-337.15 -30.25 -319.05 -29.0 L-324.0 -33.6 M-229.05 87.95 Q-253.85 63.65 -280.65 40.15 -307.3 16.8 -333.5 -7.3 L-351.05 -23.65 Q-352.55 -25.0 -351.1 -25.25 -324.7 -2.0 -298.3 22.35 L-277.75 40.95 -234.95 79.0 Q-231.05 83.4 -227.3 88.05 L-225.8 90.25 -226.7 90.5 -229.05 87.95 M-261.25 -91.4 Q-271.8 -91.95 -282.5 -92.0 L-284.25 -91.4 -325.55 -91.65 -294.05 -64.65 -261.5 -36.8 Q-247.95 -25.05 -234.75 -12.95 L-209.7 9.4 -192.5 23.7 -188.9 27.1 -193.2 24.25 -194.25 23.4 -193.7 23.9 -189.45 27.5 -40.55 28.0 -46.6 22.5 -73.7 -1.0 -100.9 -24.55 Q-115.8 -37.65 -130.3 -51.05 L-160.55 -78.9 -174.45 -92.15 -261.25 -91.4 M-69.1 -91.5 L-108.8 -93.75 Q-128.35 -94.5 -147.95 -93.65 L-173.45 -92.3 Q-119.65 -43.75 -64.85 4.0 -49.6 17.3 -34.0 29.5 L-35.0 29.75 29.1 86.4 32.65 89.5 132.65 90.1 129.2 86.9 85.9 46.85 Q60.25 23.25 34.05 0.1 12.75 -17.5 -8.0 -35.9 L-60.4 -82.95 Q-64.4 -86.6 -67.45 -89.95 L-68.95 -91.6 -69.05 -91.75 -69.1 -91.5 M-123.9 88.65 L-123.2 89.75 -119.8 91.45 31.75 91.55 -37.75 29.8 -187.1 29.75 -125.05 88.3 -123.9 88.65 M-190.25 29.75 L-204.35 17.0 Q-222.7 15.7 -241.15 16.15 L-264.35 16.95 -228.85 46.1 Q-205.55 65.5 -183.5 86.6 -181.0 89.0 -178.8 91.75 L-124.9 90.4 -186.9 32.75 -189.7 31.5 -190.25 29.75" fill="#3a3a3a" fill-rule="evenodd" stroke="none"/>
    <path d="M-237.25 87.9 L-310.05 22.3 -309.6 21.75 -341.4 -6.8 -362.55 -26.05 -359.55 -25.75 -359.0 -26.1 -358.8 -26.5 Q-338.35 -28.3 -317.15 -27.25 L-312.25 -22.75 Q-290.4 -2.45 -266.6 15.55 L-266.6 15.6 Q-254.65 27.85 -240.25 39.85 L-212.9 62.85 Q-197.9 75.55 -183.85 89.25 -205.4 89.05 -227.3 88.05 -231.05 83.4 -234.95 79.0 L-277.75 40.95 -298.3 22.35 Q-324.7 -2.0 -351.1 -25.25 -352.55 -25.0 -351.05 -23.65 L-333.5 -7.3 Q-307.3 16.8 -280.65 40.15 -253.85 63.65 -229.05 87.95 L-237.25 87.9 M-327.85 -94.75 Q-327.25 -93.2 -326.25 -92.0 -322.9 -88.2 -319.2 -84.7 -306.2 -72.4 -292.25 -61.15 -277.8 -49.5 -264.1 -37.3 L-236.4 -12.15 Q-224.2 -0.85 -211.25 9.8 -229.75 11.4 -248.15 10.9 -253.45 10.75 -258.6 12.15 -263.05 13.15 -267.6 13.15 L-267.15 13.55 -292.8 -8.05 Q-327.95 -38.55 -362.45 -70.05 L-388.95 -94.5 Q-376.6 -97.9 -363.7 -96.7 L-327.85 -94.95 -327.85 -94.75 M-366.45 -29.55 L-440.2 -95.25 -439.15 -95.2 Q-415.35 -94.0 -391.7 -94.7 L-388.95 -93.9 -324.0 -33.6 -350.25 -31.9 -358.2 -31.0 -359.95 -32.25 -361.4 -31.65 -361.85 -31.2 -362.2 -30.5 -366.45 -29.55 M-342.65 -39.5 L-344.05 -36.5 Q-339.65 -32.5 -333.95 -33.5 L-334.0 -37.0 -335.1 -37.65 -342.65 -39.5 M-284.25 -91.4 L-261.25 -91.4 -174.45 -92.15 -160.55 -78.9 -130.3 -51.05 Q-115.8 -37.65 -100.9 -24.55 L-73.7 -1.0 -46.6 22.5 -86.2 23.8 Q-105.45 25.25 -124.65 23.95 -144.35 22.45 -164.05 23.2 -178.3 24.15 -192.5 23.7 L-209.7 9.4 -234.75 -12.95 Q-247.95 -25.05 -261.5 -36.8 L-294.05 -64.65 -325.55 -91.65 -284.25 -91.4 M29.1 86.4 L-35.0 29.75 -34.0 29.5 Q-49.6 17.3 -64.85 4.0 -119.65 -43.75 -173.45 -92.3 L-147.95 -93.65 Q-128.35 -94.5 -108.8 -93.75 L-69.1 -91.5 -68.95 -91.6 -67.45 -89.95 Q-64.4 -86.6 -60.4 -82.95 L-8.0 -35.9 Q12.75 -17.5 34.05 0.1 60.25 23.25 85.9 46.85 L129.2 86.9 Q115.15 87.65 101.05 86.2 69.3 82.9 38.0 86.45 L37.45 85.8 Q35.7 83.95 33.0 84.45 L33.0 84.6 31.75 84.8 31.25 84.95 29.9 85.95 29.1 86.4 M-123.9 88.65 L-125.05 88.3 -187.1 29.75 -37.75 29.8 31.75 91.55 -119.8 91.45 -123.2 89.75 -123.9 88.65 M-190.25 29.75 L-189.7 31.5 -186.9 32.75 -124.9 90.4 -178.8 91.75 Q-181.0 89.0 -183.5 86.6 -205.55 65.5 -228.85 46.1 L-264.35 16.95 -241.15 16.15 Q-222.7 15.7 -204.35 17.0 L-190.25 29.75" fill="#454545" fill-rule="evenodd" stroke="none"/>
    <path d="M-232.1 92.3 L-237.25 87.9 -229.05 87.95 -226.7 90.5 -225.8 90.25 -227.3 88.05 Q-205.4 89.05 -183.85 89.25 L-180.0 93.0 -178.75 93.0 -178.75 92.2 -175.8 92.45 -175.8 93.5 -196.35 93.8 -232.1 92.3 M-211.25 9.8 L-204.05 15.65 -221.25 14.5 Q-242.85 14.5 -264.55 15.65 L-267.15 13.55 -267.6 13.15 Q-263.05 13.15 -258.6 12.15 -253.45 10.75 -248.15 10.9 -229.75 11.4 -211.25 9.8 M-366.45 -29.55 L-362.2 -30.5 -361.85 -31.2 -361.4 -31.65 -359.95 -32.25 -358.2 -31.0 -350.25 -31.9 -324.0 -33.6 -319.05 -29.0 Q-337.15 -30.25 -355.65 -28.75 L-364.4 -28.1 -366.45 -29.55 M-336.35 -37.25 L-336.1 -36.8 -335.1 -35.25 Q-339.45 -33.3 -342.85 -37.25 L-342.35 -38.0 Q-339.7 -38.65 -336.35 -37.25 M-46.6 22.5 L-40.55 28.0 -189.45 27.5 -193.7 23.9 -193.2 24.25 -188.9 27.1 -192.5 23.7 Q-178.3 24.15 -164.05 23.2 -144.35 22.45 -124.65 23.95 -105.45 25.25 -86.2 23.8 L-46.6 22.5 M29.1 86.4 L29.9 85.95 31.25 84.95 31.75 84.8 33.0 84.6 33.0 84.45 Q35.7 83.95 37.45 85.8 L38.0 86.45 Q69.3 82.9 101.05 86.2 115.15 87.65 129.2 86.9 L132.65 90.1 32.65 89.5 29.1 86.4" fill="#5a5a5a" fill-rule="evenodd" stroke="none"/>
  </g>
</svg>
