<?xml version="1.0" encoding="UTF-8" standalone="no"?>
<svg xmlns:xlink="http://www.w3.org/1999/xlink" height="47.25px" width="91.45px" xmlns="http://www.w3.org/2000/svg">
  <g transform="matrix(1.0, 0.0, 0.0, 1.0, 10.45, 17.05)">
    <path d="M0.1 -12.1 L-1.15 -11.5 -0.25 -11.8 Q-5.25 -9.7 -7.9 -4.9 -9.1 -2.75 -8.7 -0.1 L-8.7 1.05 -8.75 3.85 Q-7.8 7.7 -4.9 10.8 2.5 18.6 13.25 20.45 11.3 10.8 14.35 1.55 16.0 -3.45 18.15 -7.85 19.65 -10.95 22.3 -13.2 16.0 -16.1 9.15 -14.85 4.45 -14.05 0.1 -12.1 M15.1 -11.4 L15.35 -11.75 16.2 -12.05 17.5 -11.1 17.15 -9.85 16.55 -9.65 15.75 -10.0 15.1 -11.4 M25.7 -8.4 L24.1 -7.8 Q18.9 5.9 20.95 20.15 L22.35 22.35 22.95 23.65 27.95 24.35 Q25.05 23.6 23.35 21.2 23.55 19.25 24.05 17.45 24.6 15.4 25.8 16.15 L24.95 18.05 25.1 18.85 24.65 19.95 Q26.2 22.25 28.6 23.6 L28.5 24.4 31.15 24.45 31.15 24.0 30.5 23.05 30.5 20.65 Q30.15 20.15 30.1 19.65 29.5 15.9 29.35 12.1 28.95 0.45 32.7 -10.8 L33.2 -11.35 31.5 -11.05 Q28.4 -10.45 25.7 -8.4 M24.1 -9.25 L24.25 -9.4 26.7 -11.0 Q24.9 -11.9 23.05 -12.85 L21.4 -10.8 Q19.0 -7.4 17.25 -3.75 15.5 1.0 14.7 6.15 14.3 8.55 14.25 10.95 14.15 15.85 14.55 20.7 L19.65 21.45 19.7 20.95 19.35 20.35 Q17.95 5.5 23.5 -8.25 L23.6 -8.45 23.35 -8.55 24.1 -9.25 M38.0 -11.0 L33.6 -11.4 Q28.9 3.25 30.95 18.75 L31.75 19.7 31.75 22.1 32.25 22.55 32.25 24.95 35.9 25.25 Q34.75 7.0 40.95 -10.15 L38.0 -11.0 M27.85 -11.65 L34.4 -13.3 Q47.75 -10.95 59.25 -3.45 60.3 -4.75 62.0 -4.45 L73.45 -5.95 77.05 -3.9 Q78.8 0.65 79.75 5.55 L80.5 9.6 Q82.05 18.05 78.8 26.35 78.45 27.3 77.45 27.75 75.0 28.85 72.25 29.55 62.85 31.9 55.8 25.45 47.15 27.8 38.3 27.3 L24.45 25.7 Q23.25 25.45 22.65 24.9 L20.55 22.85 Q15.8 22.95 11.2 21.75 4.95 20.25 -0.1 16.6 L-4.75 12.6 Q-8.9 8.45 -10.1 3.1 L-10.45 2.85 -9.7 -4.2 Q-9.4 -5.9 -8.4 -7.25 -2.25 -15.5 8.15 -16.75 19.15 -18.25 27.85 -11.65 M9.05 15.4 L8.7 14.9 8.6 14.45 9.85 13.8 10.5 14.8 9.05 15.4 M10.95 0.4 Q11.3 0.75 11.3 1.25 L10.95 2.15 Q10.6 2.5 10.1 2.5 9.6 2.5 9.25 2.15 8.9 1.75 8.9 1.25 8.9 0.75 9.25 0.4 9.6 0.0 10.1 0.0 10.6 0.0 10.95 0.4 M76.25 6.1 L76.5 5.75 Q79.5 11.0 74.9 15.35 L73.8 15.3 73.5 14.95 Q77.0 12.55 76.5 8.35 L76.25 6.1 M59.55 -2.95 Q57.8 -3.05 55.8 -4.1 48.75 -7.85 41.4 -10.0 40.7 -5.85 39.4 -1.4 35.7 11.35 36.85 24.8 L35.95 25.25 38.4 25.4 38.85 25.45 Q45.6 25.75 52.2 24.4 55.6 23.8 57.95 22.1 L58.15 22.05 Q63.0 23.3 67.45 21.6 L67.7 26.35 67.15 23.05 67.1 22.9 Q62.95 24.25 58.6 23.65 L57.7 24.5 57.6 24.65 56.9 24.85 Q59.25 26.85 62.25 27.6 70.0 29.45 77.15 25.75 80.5 16.7 79.1 6.95 L77.95 1.95 77.45 3.85 77.35 4.0 77.2 4.15 76.95 4.3 76.6 3.95 Q77.55 1.1 77.0 -1.7 L76.75 -2.2 Q71.5 -5.7 65.6 -3.25 L62.75 -2.3 Q60.85 -1.85 59.55 -2.95" fill="#000000" fill-rule="evenodd" stroke="none"/>
    <path d="M0.1 -12.1 L0.15 -12.0 -0.25 -11.8 -1.15 -11.5 0.1 -12.1" fill="#926647" fill-rule="evenodd" stroke="none"/>
    <path d="M-0.25 -11.8 L0.15 -12.0 0.1 -12.1 Q4.45 -14.05 9.15 -14.85 16.0 -16.1 22.3 -13.2 19.65 -10.95 18.15 -7.85 16.0 -3.45 14.35 1.55 11.3 10.8 13.25 20.45 2.5 18.6 -4.9 10.8 -7.8 7.7 -8.75 3.85 L-8.7 1.05 -8.7 -0.1 Q-9.1 -2.75 -7.9 -4.9 -5.25 -9.7 -0.25 -11.8 M15.1 -11.4 L15.75 -10.0 16.55 -9.65 17.15 -9.85 17.5 -11.1 16.2 -12.05 15.35 -11.75 15.1 -11.4 M24.1 -9.25 L23.35 -8.55 23.6 -8.45 23.5 -8.25 Q17.95 5.5 19.35 20.35 L19.7 20.95 19.65 21.45 14.55 20.7 Q14.15 15.85 14.25 10.95 14.3 8.55 14.7 6.15 15.5 1.0 17.25 -3.75 19.0 -7.4 21.4 -10.8 L23.05 -12.85 Q24.9 -11.9 26.7 -11.0 L24.25 -9.4 24.1 -9.25 M59.55 -2.95 Q60.85 -1.85 62.75 -2.3 L65.6 -3.25 Q71.5 -5.7 76.75 -2.2 L77.0 -1.7 Q77.55 1.1 76.6 3.95 L76.95 4.3 77.2 4.15 77.35 4.0 77.45 3.85 77.95 1.95 79.1 6.95 Q80.5 16.7 77.15 25.75 70.0 29.45 62.25 27.6 59.25 26.85 56.9 24.85 L57.6 24.65 57.7 24.5 58.6 23.65 Q62.95 24.25 67.1 22.9 L67.15 23.05 67.7 26.35 67.45 21.6 Q63.0 23.3 58.15 22.05 L57.95 22.1 Q55.6 23.8 52.2 24.4 45.6 25.75 38.85 25.45 L38.4 25.4 35.95 25.25 36.85 24.8 Q35.7 11.35 39.4 -1.4 40.7 -5.85 41.4 -10.0 48.75 -7.85 55.8 -4.1 57.8 -3.05 59.55 -2.95 M76.25 6.1 L76.5 8.35 Q77.0 12.55 73.5 14.95 L73.8 15.3 74.9 15.35 Q79.5 11.0 76.5 5.75 L76.25 6.1 M10.95 0.4 Q10.6 0.0 10.1 0.0 9.6 0.0 9.25 0.4 8.9 0.75 8.9 1.25 8.9 1.75 9.25 2.15 9.6 2.5 10.1 2.5 10.6 2.5 10.95 2.15 L11.3 1.25 Q11.3 0.75 10.95 0.4 M9.05 15.4 L10.5 14.8 9.85 13.8 8.6 14.45 8.7 14.9 9.05 15.4" fill="#555555" fill-rule="evenodd" stroke="none"/>
    <path d="M25.7 -8.4 Q28.4 -10.45 31.5 -11.05 L33.2 -11.35 32.7 -10.8 Q28.95 0.45 29.35 12.1 29.5 15.9 30.1 19.65 30.15 20.15 30.5 20.65 L30.5 23.05 31.15 24.0 31.15 24.45 28.5 24.4 28.6 23.6 Q26.2 22.25 24.65 19.95 L25.1 18.85 24.95 18.05 25.8 16.15 Q24.6 15.4 24.05 17.45 23.55 19.25 23.35 21.2 25.05 23.6 27.95 24.35 L22.95 23.65 22.35 22.35 20.95 20.15 Q18.9 5.9 24.1 -7.8 L25.7 -8.4 M38.0 -11.0 L40.95 -10.15 Q34.75 7.0 35.9 25.25 L32.25 24.95 32.25 22.55 31.75 22.1 31.75 19.7 30.95 18.75 Q28.9 3.25 33.6 -11.4 L38.0 -11.0" fill="#2d2d2d" fill-rule="evenodd" stroke="none"/>
  </g>
</svg>
