<?xml version="1.0" encoding="UTF-8" standalone="no"?>
<svg xmlns:xlink="http://www.w3.org/1999/xlink" height="60.15px" width="68.5px" xmlns="http://www.w3.org/2000/svg">
  <g transform="matrix(1.0, 0.0, 0.0, 1.0, 16.6, 14.7)">
    <path d="M11.05 -6.75 Q7.75 -10.3 3.2 -11.8 L-3.75 -12.05 Q-11.8 -9.85 -14.3 -1.45 -15.65 3.05 -14.55 7.6 -13.55 11.9 -12.0 15.85 L-11.9 16.3 -11.85 16.35 -10.4 13.25 Q-9.55 11.6 -8.35 10.25 -3.85 5.45 2.45 2.95 9.35 0.15 16.15 2.15 L15.8 1.0 Q14.3 -3.4 11.05 -6.75 M2.15 -14.05 Q12.9 -10.9 17.0 -0.5 L17.4 2.2 Q17.55 4.0 18.05 4.85 L23.7 6.6 24.3 6.4 24.5 6.85 Q26.4 7.3 28.3 8.1 32.25 9.85 34.85 13.3 L35.5 12.85 Q40.2 12.75 44.7 13.7 48.0 14.5 50.35 16.8 51.05 17.55 51.25 18.45 53.35 28.9 48.9 38.9 L48.0 39.9 Q42.95 42.2 37.3 42.25 31.5 42.65 25.95 44.05 14.85 47.0 3.95 43.8 -4.35 41.35 -8.7 34.15 L-8.6 33.45 -9.5 32.55 Q-13.85 25.3 -13.1 16.75 -14.6 15.3 -15.2 13.05 -16.4 8.85 -16.6 4.65 -16.95 -4.35 -10.55 -10.8 -5.15 -16.25 2.15 -14.05 M49.95 20.45 Q48.7 16.2 44.05 15.6 40.2 14.45 36.25 14.9 35.55 15.05 34.7 15.55 29.75 18.55 28.0 24.5 27.45 26.3 27.25 28.2 27.05 30.45 25.9 32.05 L25.7 31.85 Q25.5 30.8 25.6 29.85 26.45 20.35 33.55 14.2 L28.25 10.1 Q20.3 17.4 14.2 26.95 9.65 34.1 7.55 42.15 L7.85 42.9 Q15.4 44.4 22.8 42.6 27.2 41.6 31.7 41.55 40.7 41.45 48.2 37.25 50.2 30.3 50.3 23.2 50.35 21.75 49.95 20.45 M8.8 -2.55 Q9.15 -3.0 9.7 -3.0 10.25 -3.0 10.65 -2.55 11.0 -2.1 11.0 -1.45 11.0 -0.8 10.65 -0.35 10.25 0.1 9.7 0.1 9.15 0.1 8.8 -0.35 8.4 -0.8 8.4 -1.45 8.4 -2.1 8.8 -2.55 M23.4 8.15 Q22.25 9.45 20.7 10.55 4.9 21.3 -1.3 39.45 L6.2 42.5 6.3 41.75 6.45 41.5 Q12.25 22.6 27.65 9.75 L23.4 8.15 M16.7 5.0 L16.45 3.4 Q10.0 2.0 3.7 4.2 1.55 4.95 -0.35 6.1 -3.6 8.05 -6.3 10.65 -10.0 14.25 -11.9 19.1 L-11.6 22.2 Q-11.0 27.25 -8.3 31.65 -6.45 24.7 -1.65 19.4 L4.9 12.15 Q9.75 6.8 16.7 5.0 M16.15 6.7 L11.7 9.2 Q8.65 11.05 6.15 13.45 L-0.05 19.55 Q-6.5 26.05 -6.5 34.8 L-2.45 38.7 Q4.4 19.15 21.95 7.8 L16.15 6.7 M-9.3 6.45 Q-9.0 6.8 -9.0 7.3 -9.0 7.8 -9.3 8.2 -9.65 8.55 -10.1 8.55 -10.55 8.55 -10.85 8.2 L-11.2 7.3 Q-11.2 6.8 -10.85 6.45 -10.55 6.05 -10.1 6.05 -9.65 6.05 -9.3 6.45 M0.75 0.95 L0.15 2.4 Q-0.95 2.8 -1.55 1.9 L-1.55 0.95 0.0 -0.05 0.75 0.95" fill="#000000" fill-rule="evenodd" stroke="none"/>
    <path d="M11.05 -6.75 Q14.3 -3.4 15.8 1.0 L16.15 2.15 Q9.35 0.15 2.45 2.95 -3.85 5.45 -8.35 10.25 -9.55 11.6 -10.4 13.25 L-11.85 16.35 -11.9 16.3 -12.0 15.85 Q-13.55 11.9 -14.55 7.6 -15.65 3.05 -14.3 -1.45 -11.8 -9.85 -3.75 -12.05 L3.2 -11.8 Q7.75 -10.3 11.05 -6.75 M8.8 -2.55 Q8.4 -2.1 8.4 -1.45 8.4 -0.8 8.8 -0.35 9.15 0.1 9.7 0.1 10.25 0.1 10.65 -0.35 11.0 -0.8 11.0 -1.45 11.0 -2.1 10.65 -2.55 10.25 -3.0 9.7 -3.0 9.15 -3.0 8.8 -2.55 M49.95 20.45 Q50.35 21.75 50.3 23.2 50.2 30.3 48.2 37.25 40.7 41.45 31.7 41.55 27.2 41.6 22.8 42.6 15.4 44.4 7.85 42.9 L7.55 42.15 Q9.65 34.1 14.2 26.95 20.3 17.4 28.25 10.1 L33.55 14.2 Q26.45 20.35 25.6 29.85 25.5 30.8 25.7 31.85 L25.9 32.05 Q27.05 30.45 27.25 28.2 27.45 26.3 28.0 24.5 29.75 18.55 34.7 15.55 35.55 15.05 36.25 14.9 40.2 14.45 44.05 15.6 48.7 16.2 49.95 20.45 M16.7 5.0 Q9.75 6.8 4.9 12.15 L-1.65 19.4 Q-6.45 24.7 -8.3 31.65 -11.0 27.25 -11.6 22.2 L-11.9 19.1 Q-10.0 14.25 -6.3 10.65 -3.6 8.05 -0.35 6.1 1.55 4.95 3.7 4.2 10.0 2.0 16.45 3.4 L16.7 5.0 M0.75 0.95 L0.0 -0.05 -1.55 0.95 -1.55 1.9 Q-0.95 2.8 0.15 2.4 L0.75 0.95 M-9.3 6.45 Q-9.65 6.05 -10.1 6.05 -10.55 6.05 -10.85 6.45 -11.2 6.8 -11.2 7.3 L-10.85 8.2 Q-10.55 8.55 -10.1 8.55 -9.65 8.55 -9.3 8.2 -9.0 7.8 -9.0 7.3 -9.0 6.8 -9.3 6.45" fill="#555555" fill-rule="evenodd" stroke="none"/>
    <path d="M23.4 8.15 L27.65 9.75 Q12.25 22.6 6.45 41.5 L6.3 41.75 6.2 42.5 -1.3 39.45 Q4.9 21.3 20.7 10.55 22.25 9.45 23.4 8.15 M16.15 6.7 L21.95 7.8 Q4.4 19.15 -2.45 38.7 L-6.5 34.8 Q-6.5 26.05 -0.05 19.55 L6.15 13.45 Q8.65 11.05 11.7 9.2 L16.15 6.7" fill="#2d2d2d" fill-rule="evenodd" stroke="none"/>
  </g>
</svg>
