<?xml version="1.0" encoding="UTF-8" standalone="no"?>
<svg xmlns:xlink="http://www.w3.org/1999/xlink" height="87.2px" width="81.3px" xmlns="http://www.w3.org/2000/svg">
  <g transform="matrix(1.0, 0.0, 0.0, 1.0, 23.85, 64.5)">
    <path d="M47.05 -53.85 Q50.8 -50.65 53.5 -46.45 54.75 -44.5 55.35 -42.15 57.65 -33.55 57.0 -24.9 L57.45 -25.8 Q55.6 -14.95 48.25 -7.0 L45.9 -5.0 Q41.75 -2.25 36.95 -1.25 L36.25 4.1 32.55 4.45 32.8 8.65 32.35 9.4 31.6 9.25 Q32.25 11.85 31.0 14.0 30.25 15.35 28.65 15.85 28.15 15.9 27.65 16.45 L26.25 18.45 25.35 18.3 Q6.85 25.85 -12.2 20.45 -16.4 19.15 -20.3 16.55 L-20.9 15.35 -20.35 15.65 -20.5 1.3 -21.65 0.0 -20.95 -0.6 Q-23.95 -15.05 -23.85 -29.7 -23.8 -32.9 -22.8 -36.0 -19.85 -45.4 -14.95 -53.9 L-14.15 -53.95 Q-8.35 -60.95 0.85 -62.6 11.35 -64.35 22.0 -64.45 33.4 -65.0 42.4 -57.75 L47.05 -53.85 M12.25 -63.7 Q5.6 -63.25 -0.95 -61.2 -8.45 -58.75 -13.55 -52.75 -15.15 -50.85 -16.4 -48.65 -19.6 -43.0 -20.8 -36.6 L-18.35 -30.0 6.55 -24.25 Q19.45 -27.2 31.65 -32.4 33.85 -33.35 35.95 -34.55 L55.8 -31.25 Q54.6 -44.05 45.75 -53.35 43.2 -55.95 40.0 -57.65 26.95 -65.15 12.25 -63.7 M18.25 -11.05 L22.5 -4.85 21.5 -3.95 35.8 -1.25 35.75 -2.55 36.7 -2.8 36.85 -2.2 Q43.7 -4.4 48.8 -9.4 L38.65 -9.35 35.45 -32.65 Q21.05 -24.95 5.1 -23.95 L5.75 -24.1 Q-7.7 -24.7 -20.0 -30.05 L-21.5 -34.45 Q-22.4 -28.7 -22.1 -23.0 -21.55 -11.2 -19.7 0.0 L-3.8 7.4 -1.0 6.1 -0.55 6.6 -0.35 6.45 Q11.0 2.2 20.55 -5.1 L17.5 -10.55 18.25 -11.05 M-1.65 8.05 Q6.4 10.5 15.05 10.95 23.7 11.4 30.55 8.05 L31.4 8.3 31.6 4.45 Q21.85 4.4 12.4 2.8 L35.35 2.55 35.8 -0.85 Q28.25 -1.05 21.3 -3.8 L17.65 -1.15 Q8.9 5.4 -1.6 7.8 L-2.2 7.9 -1.65 8.05 M55.75 -30.8 L55.2 -30.4 36.2 -33.0 39.25 -10.8 49.45 -10.5 Q51.15 -13.7 53.2 -16.7 57.7 -23.1 55.85 -30.8 L55.85 -30.9 55.75 -30.8 M53.25 -36.8 Q44.0 -42.25 34.05 -46.45 44.3 -43.5 53.55 -38.0 54.15 -37.6 53.8 -37.05 L53.25 -36.8 M24.8 16.25 Q8.65 19.9 -7.05 14.5 -13.75 12.1 -19.25 7.7 L-19.35 16.1 Q1.3 25.2 22.35 17.25 L24.8 16.3 25.5 15.95 24.8 16.25 M-19.2 6.35 Q-1.2 18.55 20.2 16.0 24.0 15.55 27.45 14.5 30.95 13.25 30.7 9.6 24.85 12.6 18.35 11.85 -1.7 11.5 -19.55 2.1 L-19.3 6.35 -19.3 6.4 -19.2 6.35" fill="#000000" fill-rule="evenodd" stroke="none"/>
    <path d="M18.25 -11.05 L17.5 -10.55 20.55 -5.1 Q11.0 2.2 -0.35 6.45 L-0.55 6.6 -1.0 6.1 -3.8 7.4 -19.7 0.0 Q-21.55 -11.2 -22.1 -23.0 -22.4 -28.7 -21.5 -34.45 L-20.0 -30.05 Q-7.7 -24.7 5.75 -24.1 L5.1 -23.95 Q21.05 -24.95 35.45 -32.65 L38.65 -9.35 48.8 -9.4 Q43.7 -4.4 36.85 -2.2 L36.7 -2.8 35.75 -2.55 35.8 -1.25 21.5 -3.95 22.5 -4.85 18.25 -11.05 M12.25 -63.7 Q26.95 -65.15 40.0 -57.65 43.2 -55.95 45.75 -53.35 54.6 -44.05 55.8 -31.25 L35.95 -34.55 Q33.85 -33.35 31.65 -32.4 19.45 -27.2 6.55 -24.25 L-18.35 -30.0 -20.8 -36.6 Q-19.6 -43.0 -16.4 -48.65 -15.15 -50.85 -13.55 -52.75 -8.45 -58.75 -0.95 -61.2 5.6 -63.25 12.25 -63.7 M53.25 -36.8 L53.8 -37.05 Q54.15 -37.6 53.55 -38.0 44.3 -43.5 34.05 -46.45 44.0 -42.25 53.25 -36.8 M-19.3 6.35 L-19.55 2.1 Q-1.7 11.5 18.35 11.85 24.85 12.6 30.7 9.6 30.95 13.25 27.45 14.5 24.0 15.55 20.2 16.0 -1.2 18.55 -19.2 6.35 L-19.3 6.35" fill="#333333" fill-rule="evenodd" stroke="none"/>
    <path d="M-1.6 7.8 Q8.9 5.4 17.65 -1.15 L21.3 -3.8 Q28.25 -1.05 35.8 -0.85 L35.35 2.55 12.4 2.8 Q21.85 4.4 31.6 4.45 L31.4 8.3 30.55 8.05 Q23.7 11.4 15.05 10.95 6.4 10.5 -1.65 8.05 L-1.6 7.8 M55.85 -30.8 Q57.7 -23.1 53.2 -16.7 51.15 -13.7 49.45 -10.5 L39.25 -10.8 36.2 -33.0 55.2 -30.4 55.75 -30.8 55.85 -30.8 M24.8 16.3 L22.35 17.25 Q1.3 25.2 -19.35 16.1 L-19.25 7.7 Q-13.75 12.1 -7.05 14.5 8.65 19.9 24.8 16.25 L24.8 16.3" fill="#555555" fill-rule="evenodd" stroke="none"/>
  </g>
</svg>
