<?xml version="1.0" encoding="UTF-8" standalone="no"?>
<svg xmlns:xlink="http://www.w3.org/1999/xlink" height="94.8px" width="47.15px" xmlns="http://www.w3.org/2000/svg">
  <g transform="matrix(1.0, 0.0, 0.0, 1.0, 12.0, 79.45)">
    <path d="M13.75 -76.9 Q20.3 -70.65 25.45 -63.0 L26.6 -60.45 Q27.1 -58.25 26.45 -56.0 35.95 -45.15 35.1 -30.7 34.85 -26.6 32.3 -23.5 28.15 -18.35 26.8 -11.7 26.3 -9.35 25.35 -7.15 20.25 4.85 10.3 13.05 8.1 14.8 5.2 15.1 -3.7 16.55 -8.8 9.55 -10.05 7.8 -10.65 5.7 -13.85 -5.65 -9.6 -16.85 -8.15 -20.7 -7.55 -24.65 -5.8 -36.5 0.4 -46.6 -9.05 -51.05 -9.2 -61.6 -9.25 -64.8 -7.9 -67.35 -3.7 -75.45 4.85 -78.95 9.85 -80.6 13.75 -76.9 M17.9 -59.05 L18.45 -59.0 19.05 -58.45 16.55 -54.75 Q19.05 -50.6 14.9 -47.6 12.05 -45.5 8.55 -45.15 5.35 -44.8 2.15 -45.9 L-0.65 -38.8 Q7.3 -29.85 18.7 -25.95 L29.45 -22.05 Q34.45 -30.7 32.55 -40.4 30.75 -49.8 23.65 -56.05 L23.0 -58.7 24.2 -59.35 Q18.6 -69.25 10.55 -77.25 1.3 -77.4 -3.9 -69.65 -7.15 -64.75 -6.55 -59.0 -6.25 -56.4 -5.0 -54.35 -2.55 -50.25 1.85 -48.35 L2.6 -48.7 3.4 -47.5 Q8.15 -46.35 12.6 -48.85 14.75 -50.0 15.9 -51.9 L15.0 -53.3 9.4 -49.95 Q7.8 -49.05 5.95 -49.05 L6.7 -50.95 Q11.8 -53.5 16.1 -57.25 L17.9 -59.05 M2.4 -1.05 Q1.35 -1.15 1.3 -2.05 1.65 -2.75 2.4 -2.7 L2.4 -2.75 2.95 -2.45 3.1 -2.15 2.95 -1.45 2.9 -1.2 2.4 -1.05 M12.25 -4.1 L21.2 -4.3 24.25 -9.85 Q12.85 -8.8 3.5 -15.25 -1.2 -18.5 -4.7 -22.95 L-7.55 -15.85 Q-4.15 -11.7 0.45 -8.9 5.5 -5.9 11.4 -5.0 L12.25 -4.1 M10.5 -2.75 Q-0.15 -6.05 -7.95 -14.35 -10.6 -4.5 -8.25 5.1 -7.4 8.7 -4.4 10.6 0.85 13.95 6.35 11.1 14.85 6.85 19.65 -1.5 L11.2 -1.8 10.5 -2.75 M26.65 -16.1 Q7.95 -16.9 -3.35 -31.25 L-4.1 -26.5 -3.65 -25.9 -3.9 -25.4 -3.1 -23.9 Q0.4 -18.15 6.8 -15.75 15.55 -10.2 25.55 -13.0 L26.65 -16.1 M28.05 -20.65 Q11.05 -25.45 -1.05 -37.8 L-2.65 -32.1 -2.25 -31.75 -2.15 -31.05 0.25 -28.55 Q12.25 -19.9 27.05 -17.35 L28.05 -20.65 M11.5 1.55 L12.05 1.9 12.25 2.15 12.1 2.9 12.0 3.1 11.5 3.25 Q10.45 3.2 10.45 2.3 10.75 1.55 11.5 1.65 L11.5 1.55 M-5.4 -8.15 Q-5.4 -7.75 -5.65 -7.45 L-6.3 -7.2 -6.9 -7.45 -7.2 -8.15 -6.9 -8.8 -6.3 -9.1 -5.65 -8.8 Q-5.4 -8.55 -5.4 -8.15" fill="#000000" fill-rule="evenodd" stroke="none"/>
    <path d="M10.5 -2.75 L11.2 -1.8 19.65 -1.5 Q14.85 6.85 6.35 11.1 0.85 13.95 -4.4 10.6 -7.4 8.7 -8.25 5.1 -10.6 -4.5 -7.95 -14.35 -0.15 -6.05 10.5 -2.75 M12.25 -4.1 L11.4 -5.0 Q5.5 -5.9 0.45 -8.9 -4.15 -11.7 -7.55 -15.85 L-4.7 -22.95 Q-1.2 -18.5 3.5 -15.25 12.85 -8.8 24.25 -9.85 L21.2 -4.3 12.25 -4.1 M2.4 -1.05 L2.9 -1.2 2.95 -1.45 3.1 -2.15 2.95 -2.45 2.4 -2.75 2.4 -2.7 Q1.65 -2.75 1.3 -2.05 1.35 -1.15 2.4 -1.05 M17.9 -59.05 L16.1 -57.25 Q11.8 -53.5 6.7 -50.95 L5.95 -49.05 Q7.8 -49.05 9.4 -49.95 L15.0 -53.3 15.9 -51.9 Q14.75 -50.0 12.6 -48.85 8.15 -46.35 3.4 -47.5 L2.6 -48.7 1.85 -48.35 Q-2.55 -50.25 -5.0 -54.35 -6.25 -56.4 -6.55 -59.0 -7.15 -64.75 -3.9 -69.65 1.3 -77.4 10.55 -77.25 18.6 -69.25 24.2 -59.35 L23.0 -58.7 23.65 -56.05 Q30.75 -49.8 32.55 -40.4 34.45 -30.7 29.45 -22.05 L18.7 -25.95 Q7.3 -29.85 -0.65 -38.8 L2.15 -45.9 Q5.35 -44.8 8.55 -45.15 12.05 -45.5 14.9 -47.6 19.05 -50.6 16.55 -54.75 L19.05 -58.45 18.45 -59.0 17.9 -59.05 M-5.4 -8.15 Q-5.4 -8.55 -5.65 -8.8 L-6.3 -9.1 -6.9 -8.8 -7.2 -8.15 -6.9 -7.45 -6.3 -7.2 -5.65 -7.45 Q-5.4 -7.75 -5.4 -8.15 M11.5 1.55 L11.5 1.65 Q10.75 1.55 10.45 2.3 10.45 3.2 11.5 3.25 L12.0 3.1 12.1 2.9 12.25 2.15 12.05 1.9 11.5 1.55" fill="#555555" fill-rule="evenodd" stroke="none"/>
    <path d="M28.05 -20.65 L27.05 -17.35 Q12.25 -19.9 0.25 -28.55 L-2.15 -31.05 -2.25 -31.75 -2.65 -32.1 -1.05 -37.8 Q11.05 -25.45 28.05 -20.65 M26.65 -16.1 L25.55 -13.0 Q15.55 -10.2 6.8 -15.75 0.4 -18.15 -3.1 -23.9 L-3.9 -25.4 -3.65 -25.9 -4.1 -26.5 -3.35 -31.25 Q7.95 -16.9 26.65 -16.1" fill="#2d2d2d" fill-rule="evenodd" stroke="none"/>
  </g>
</svg>
