<?xml version="1.0" encoding="UTF-8" standalone="no"?>
<svg xmlns:xlink="http://www.w3.org/1999/xlink" height="112.85px" width="43.85px" xmlns="http://www.w3.org/2000/svg">
  <g transform="matrix(1.0, 0.0, 0.0, 1.0, 21.9, 99.4)">
    <path d="M11.5 -89.25 L11.55 -88.05 11.55 -86.1 Q11.95 -75.95 14.95 -66.35 L14.75 -65.9 14.75 -65.85 14.85 -65.5 Q19.4 -56.65 21.6 -46.9 22.05 -44.7 21.9 -42.45 21.7 -39.45 21.05 -36.55 L20.85 -35.75 20.8 -35.45 20.6 -34.7 Q19.05 -29.15 15.9 -24.15 13.2 -19.9 9.05 -16.9 L8.8 -16.85 8.55 -16.8 7.5 -15.95 4.6 -15.2 4.55 -15.15 Q4.55 -7.9 1.9 -1.25 L1.7 -1.05 Q1.6 -0.55 1.1 -0.4 -1.6 0.3 -2.95 -1.8 L-3.0 -1.95 Q-4.45 -3.7 -4.35 -6.1 L-4.35 -6.85 -5.0 -13.85 -4.95 -15.05 -5.0 -15.45 -5.7 -15.75 -6.45 -16.15 -6.7 -16.15 -6.95 -16.2 Q-11.2 -19.85 -14.8 -24.15 -16.4 -26.1 -17.45 -28.2 -21.75 -34.2 -21.85 -41.8 -22.25 -51.8 -17.35 -60.0 -13.15 -67.15 -12.05 -75.45 L-11.9 -76.85 Q-10.65 -85.8 -10.0 -94.9 L-9.7 -97.45 -9.55 -97.6 -9.25 -97.65 -9.15 -98.15 -8.9 -98.35 -8.55 -98.3 -8.5 -98.25 -8.35 -98.1 -8.2 -97.95 -8.2 -97.85 -8.0 -97.8 -6.8 -96.95 Q-6.7 -96.85 -6.55 -96.85 -6.0 -95.65 -5.0 -94.75 -2.45 -88.15 -2.35 -81.25 L-2.3 -81.0 -1.4 -72.45 Q-0.95 -66.9 -1.8 -61.4 -2.35 -57.9 -3.35 -54.55 -4.2 -48.2 -6.3 -42.2 L-6.45 -42.0 -6.45 -41.9 Q-6.35 -38.05 -3.45 -35.55 L-1.5 -36.55 -1.55 -36.75 -1.25 -37.15 -1.0 -37.2 -0.9 -37.2 -0.7 -37.0 -0.7 -36.85 -0.7 -36.75 2.15 -36.6 4.45 -35.9 6.45 -38.15 6.7 -38.45 4.7 -49.4 Q3.6 -55.1 3.3 -60.8 L3.3 -61.5 Q2.9 -66.25 2.8 -71.0 2.75 -73.05 2.85 -75.0 L2.75 -75.9 Q2.3 -85.75 5.75 -94.7 6.9 -97.55 8.95 -99.4 11.4 -97.0 11.5 -93.3 L11.5 -89.25 M10.3 -86.25 L10.2 -87.0 10.15 -87.4 9.75 -91.6 9.4 -95.55 9.3 -95.7 9.15 -95.9 9.1 -96.45 9.1 -96.65 8.95 -96.35 8.85 -96.25 8.75 -96.15 8.75 -95.95 8.75 -95.75 8.65 -95.6 8.55 -95.55 8.25 -95.5 8.1 -95.25 8.0 -95.1 8.0 -95.05 7.95 -95.05 7.95 -94.8 7.9 -94.95 7.9 -95.7 7.7 -95.15 7.35 -94.25 6.45 -91.5 6.4 -91.25 6.3 -91.0 6.1 -90.15 5.9 -89.4 5.5 -87.8 5.0 -85.45 4.95 -85.0 4.9 -84.7 4.45 -81.7 4.1 -78.45 3.9 -75.35 3.85 -69.9 3.85 -69.2 3.85 -69.0 3.9 -67.75 3.95 -66.9 4.05 -65.15 4.1 -64.5 4.1 -64.15 4.25 -62.55 4.3 -62.1 Q4.7 -56.65 5.6 -51.25 L6.1 -49.0 6.15 -48.85 Q7.3 -45.3 7.9 -41.65 L7.95 -41.2 8.05 -39.45 Q8.0 -38.05 7.5 -36.75 L7.25 -36.15 6.5 -34.95 5.35 -33.8 4.65 -33.35 4.0 -33.0 4.1 -32.2 4.25 -30.85 4.05 -30.7 4.1 -19.75 4.05 -17.55 4.05 -16.5 4.1 -16.5 4.55 -16.6 4.65 -16.65 7.15 -17.65 Q9.2 -18.75 10.8 -20.65 L11.25 -21.2 15.1 -26.5 16.5 -28.55 16.55 -28.85 16.75 -29.15 19.55 -34.15 19.8 -34.65 Q21.2 -40.6 19.9 -46.75 L19.55 -47.9 18.45 -52.55 18.0 -54.1 17.1 -56.7 16.25 -58.75 15.95 -59.45 14.3 -63.25 Q12.15 -68.45 11.35 -74.0 L11.25 -74.7 11.0 -77.8 10.5 -84.4 10.4 -85.15 10.3 -86.25 M3.15 -34.55 L0.25 -34.9 0.1 -35.05 0.05 -35.1 -0.7 -35.25 Q-0.9 -35.45 -0.9 -35.8 L-0.95 -35.95 -1.4 -35.1 -1.45 -34.9 Q-2.0 -35.25 -2.6 -34.9 L-2.75 -34.8 -2.9 -34.65 -3.2 -34.5 -3.1 -33.95 -3.0 -32.95 -3.0 -32.65 -3.05 -31.1 1.55 -32.05 3.35 -31.45 3.3 -31.6 3.3 -32.8 3.3 -33.05 3.25 -33.15 3.3 -33.2 3.3 -33.25 3.3 -33.65 3.3 -33.75 3.3 -34.5 3.15 -34.55 M-0.7 -16.1 L3.05 -16.3 3.25 -16.35 3.2 -19.55 3.15 -26.85 3.1 -30.35 Q2.4 -31.1 1.3 -31.0 L-0.65 -30.55 -3.25 -30.0 -3.6 -29.75 -3.9 -29.85 -4.3 -29.8 -4.55 -29.7 -3.9 -19.9 -3.85 -17.7 -3.85 -16.45 -3.6 -16.4 -3.3 -16.35 -0.7 -16.1 M-0.2 -25.6 L0.85 -25.15 1.05 -25.1 1.35 -25.2 1.45 -25.15 1.5 -25.15 1.55 -25.1 1.65 -25.0 2.25 -24.65 Q3.35 -21.75 0.7 -20.45 L-0.5 -20.4 -0.55 -20.4 -1.6 -20.85 -1.7 -20.7 -1.8 -20.65 -1.7 -20.9 Q-3.15 -21.95 -2.6 -24.15 L-1.85 -25.4 -1.7 -25.4 -1.0 -25.55 -0.75 -25.65 -0.2 -25.6 M1.85 -23.9 L1.8 -24.1 1.35 -24.55 -1.25 -21.25 Q-0.35 -20.6 1.0 -20.95 2.4 -22.15 1.85 -23.9 M-0.8 -1.35 L0.8 -1.4 1.2 -1.9 1.35 -2.15 1.7 -5.85 2.55 -12.1 2.55 -12.45 2.75 -13.4 2.75 -13.75 2.9 -13.95 3.0 -14.25 3.0 -14.75 2.85 -14.75 2.7 -14.75 -0.1 -14.85 -1.9 -14.9 -3.25 -15.0 -4.0 -15.0 -3.95 -14.75 -2.05 -2.55 -2.0 -2.2 Q-1.5 -1.55 -0.8 -1.35 M1.6 3.7 L1.8 3.6 2.1 3.75 2.2 3.85 2.55 4.15 2.6 4.25 2.5 4.3 2.65 4.35 2.9 5.8 3.05 6.4 3.35 6.55 Q5.5 7.9 4.6 10.3 L3.45 12.25 3.4 12.3 3.35 12.35 Q1.9 13.85 -0.5 13.35 -1.5 13.1 -2.25 12.3 -4.5 10.9 -4.45 8.05 L-4.5 7.5 Q-4.55 5.65 -3.55 4.2 L-3.35 4.05 -3.1 4.05 -2.85 4.05 -2.65 4.15 1.35 3.7 1.6 3.7 M1.3 4.65 L-2.05 4.95 -2.55 6.45 -2.65 7.15 Q-2.85 8.9 -2.25 10.5 L-2.1 10.85 Q-0.8 12.9 1.6 12.65 3.9 10.85 3.5 8.25 3.25 7.1 2.05 7.05 L1.8 7.05 0.75 7.0 Q-0.15 7.55 -0.5 8.5 L-0.6 9.2 -0.55 9.4 -0.5 9.55 0.0 9.85 Q0.8 9.95 1.5 9.45 L1.55 9.25 1.55 9.1 1.5 8.9 1.75 8.95 2.15 9.55 Q1.25 10.85 -0.25 10.6 -2.75 8.45 0.1 6.5 0.75 6.05 1.5 6.0 L1.3 4.65 M-7.85 -95.15 L-7.85 -95.2 -7.85 -95.4 -8.0 -95.6 -8.1 -95.75 -8.1 -95.95 -8.1 -96.05 -8.1 -96.15 -8.3 -96.35 -8.4 -96.5 -8.5 -96.65 -8.5 -96.45 -8.5 -96.4 -8.55 -95.9 -8.7 -95.7 -8.8 -95.55 Q-9.1 -91.45 -9.55 -87.4 L-10.1 -81.2 -10.15 -80.85 -10.95 -73.1 -11.1 -72.1 -11.35 -70.8 -11.3 -70.85 Q-11.95 -67.95 -12.95 -65.1 L-13.7 -63.25 -14.05 -62.5 -14.05 -62.45 -14.85 -60.6 -15.35 -59.45 -16.45 -56.7 -17.8 -52.55 Q-19.1 -48.0 -19.6 -43.3 L-19.7 -39.7 -19.55 -38.1 -19.05 -35.45 -18.85 -34.7 -18.4 -33.75 -17.55 -32.95 -17.4 -32.9 Q-16.95 -31.3 -16.15 -29.8 L-15.95 -29.1 -15.9 -28.65 -15.9 -28.55 -15.7 -28.2 -12.45 -23.55 -10.65 -21.2 -10.5 -21.0 Q-8.2 -18.15 -4.9 -16.9 L-4.8 -16.85 -4.8 -17.7 -4.85 -17.9 -4.85 -18.25 -5.0 -19.65 -5.05 -19.9 -5.05 -20.1 -4.85 -20.3 -4.8 -20.35 Q-5.0 -24.8 -5.5 -29.2 L-5.4 -30.7 -4.2 -30.9 -4.2 -31.9 -4.2 -33.1 -4.2 -33.45 Q-6.0 -34.6 -6.9 -36.75 L-7.0 -37.05 Q-7.75 -39.05 -7.35 -41.2 -6.75 -45.15 -5.5 -49.0 L-4.95 -51.25 -4.2 -56.7 -3.75 -61.35 -3.7 -62.1 Q-3.45 -64.45 -3.35 -66.9 -3.2 -69.9 -3.2 -72.85 L-3.25 -74.15 Q-3.35 -77.65 -3.75 -81.1 L-3.8 -81.7 -4.75 -87.25 -6.65 -94.0 -6.85 -94.5 -6.85 -94.55 -6.9 -94.65 -7.25 -95.7 -7.3 -95.7 -7.3 -95.15 -7.3 -95.1 -7.35 -94.8 -7.7 -95.0 -7.75 -94.95 -7.85 -95.15 -7.8 -94.95 -7.85 -94.95 -7.85 -95.05 -7.85 -95.15 M-1.55 -24.9 Q-2.2 -24.0 -2.2 -22.85 L-2.2 -22.5 -1.5 -21.45 Q-0.65 -23.25 0.85 -24.8 L-0.75 -25.15 -1.25 -25.0 -1.55 -24.9" fill="#000000" fill-rule="evenodd" stroke="none"/>
    <path d="M8.65 -95.6 L8.75 -95.75 8.75 -95.95 8.75 -96.15 8.85 -96.25 8.95 -96.35 9.1 -96.65 9.1 -96.45 9.15 -95.9 9.3 -95.7 9.4 -95.55 9.75 -91.6 10.15 -87.4 10.2 -87.0 10.3 -86.25 10.05 -86.15 9.75 -86.25 9.65 -86.3 9.4 -86.3 9.4 -86.05 9.3 -85.55 9.2 -85.4 9.1 -85.35 8.75 -85.15 8.6 -85.2 8.45 -93.45 8.45 -94.25 8.45 -95.05 8.45 -95.2 8.45 -95.4 8.65 -95.6 M10.4 -85.15 L10.5 -84.4 11.0 -77.8 11.25 -74.7 11.35 -74.0 11.25 -71.1 11.05 -67.7 10.95 -67.6 10.7 -67.35 Q9.0 -74.1 8.75 -81.15 L8.65 -83.05 9.4 -83.6 10.35 -84.4 10.45 -84.5 10.4 -85.15 M3.9 -67.75 L3.85 -69.0 3.85 -69.2 3.85 -69.9 3.9 -75.35 3.95 -76.15 4.15 -76.4 4.65 -76.45 4.7 -76.5 4.7 -76.55 Q5.15 -76.35 5.55 -76.1 L5.7 -75.9 5.8 -75.35 5.8 -74.9 6.0 -74.45 6.25 -73.6 6.35 -70.5 4.95 -67.25 4.75 -66.8 4.7 -66.8 4.35 -67.0 4.05 -67.2 4.05 -67.45 3.95 -67.7 3.9 -67.75 M4.9 -84.7 L4.95 -85.0 5.0 -85.45 5.5 -87.8 5.9 -89.4 6.1 -90.15 6.3 -91.0 6.4 -91.25 6.4 -90.8 6.4 -90.05 6.4 -88.5 6.4 -85.75 6.25 -85.75 Q5.7 -84.7 4.9 -84.7 M8.2 -58.75 Q9.05 -56.4 10.55 -54.45 L10.65 -54.2 10.4 -53.85 9.65 -54.0 9.2 -54.3 9.05 -54.15 8.45 -53.45 8.05 -53.25 Q7.2 -53.5 6.95 -54.45 L6.9 -54.9 6.65 -55.2 6.5 -55.4 Q6.4 -56.6 6.65 -57.7 L7.0 -58.7 7.35 -58.9 7.75 -59.0 8.2 -58.75 M15.65 -46.75 Q16.0 -45.7 14.75 -45.3 L14.05 -45.75 14.05 -46.25 14.05 -46.5 14.3 -46.75 14.55 -47.0 15.05 -47.1 15.05 -47.15 15.45 -46.95 15.65 -46.75 M-7.35 -94.8 L-7.3 -95.1 -7.2 -95.05 -7.0 -94.9 -6.9 -94.65 -6.85 -94.55 -6.85 -94.5 -6.65 -94.0 -4.75 -87.25 -5.05 -87.0 -5.05 -86.75 -5.05 -86.55 -5.15 -86.25 -5.35 -86.05 -5.9 -85.9 -6.15 -86.15 -6.55 -87.25 -6.55 -90.45 -6.55 -90.8 -6.55 -91.25 -6.6 -91.5 -7.5 -94.25 -7.6 -94.5 -7.6 -94.9 -7.35 -94.8 M-10.95 -73.1 L-10.15 -80.85 -10.1 -81.2 -10.1 -81.4 -9.65 -81.6 -8.65 -82.0 -8.65 -82.05 -8.2 -81.9 -8.1 -81.6 -8.1 -81.55 -8.1 -81.15 -8.1 -80.9 -8.15 -80.9 -8.35 -80.7 -8.7 -80.45 Q-8.8 -79.55 -9.35 -78.75 L-9.55 -78.45 Q-9.5 -75.75 -10.6 -73.65 L-10.95 -73.1 M-5.55 -78.4 L-5.45 -78.9 -5.3 -79.0 -4.95 -79.15 -4.55 -78.95 Q-3.9 -77.8 -4.0 -76.45 L-4.05 -76.2 -4.45 -75.7 -4.65 -75.55 -4.95 -75.45 -5.65 -75.9 -5.55 -78.4 M-7.75 -60.65 Q-7.15 -61.6 -5.95 -61.85 L-5.9 -61.85 -5.55 -61.35 -5.45 -61.1 Q-6.0 -59.95 -6.9 -58.95 L-6.95 -58.85 -7.3 -58.75 -8.1 -59.4 -7.75 -60.65 M-6.8 -52.1 L-6.6 -51.8 -6.55 -51.6 Q-6.85 -50.4 -7.8 -51.25 -7.75 -52.0 -6.95 -52.1 L-6.8 -52.1 M-14.4 -35.3 L-14.5 -35.05 -14.6 -34.95 Q-14.75 -34.8 -15.0 -34.7 -15.55 -34.9 -15.9 -35.4 -16.1 -35.9 -15.9 -36.4 L-15.75 -36.8 -15.65 -36.85 -15.3 -36.95 -14.9 -36.8 -14.4 -35.3" fill="#996666" fill-rule="evenodd" stroke="none"/>
    <path d="M8.65 -95.6 L8.45 -95.4 8.45 -95.2 8.45 -95.05 8.45 -94.25 8.45 -93.45 8.6 -85.2 8.65 -83.05 8.75 -81.15 Q9.0 -74.1 10.7 -67.35 L10.95 -66.5 11.2 -65.5 12.25 -62.2 13.1 -59.75 Q14.3 -56.35 16.15 -53.2 19.6 -47.0 19.85 -39.8 L19.85 -39.05 Q19.85 -36.8 19.45 -34.7 20.65 -38.8 20.2 -43.3 L20.15 -43.65 19.55 -47.6 19.55 -47.9 19.9 -46.75 Q21.2 -40.6 19.8 -34.65 L19.55 -34.15 16.75 -29.15 16.55 -28.85 16.65 -29.35 16.75 -29.8 Q18.55 -33.2 18.65 -37.2 18.8 -41.7 18.1 -46.05 L17.85 -46.45 Q16.8 -50.4 14.85 -53.9 L14.15 -55.2 13.9 -55.6 11.3 -62.1 Q9.25 -68.65 8.5 -75.3 L8.4 -76.5 Q7.75 -83.2 8.1 -90.0 L8.2 -94.8 8.2 -94.9 7.95 -94.8 7.95 -95.05 8.0 -95.05 8.0 -95.1 8.1 -95.25 8.25 -95.5 8.55 -95.55 8.65 -95.6 M6.4 -91.25 L6.45 -91.5 7.35 -94.25 7.7 -95.15 7.6 -94.4 Q7.35 -91.5 7.35 -88.45 L7.3 -73.7 7.3 -72.65 Q7.35 -65.75 9.0 -59.15 9.6 -56.65 11.2 -54.65 L11.35 -54.35 12.3 -51.25 Q13.45 -46.0 11.15 -40.65 13.9 -41.4 14.15 -44.4 L14.6 -44.65 15.1 -43.9 Q15.7 -35.45 9.25 -30.45 L13.25 -30.6 13.7 -31.55 13.8 -31.65 14.05 -31.7 14.3 -31.6 Q14.4 -28.9 13.0 -26.45 10.6 -21.85 6.65 -19.15 5.55 -18.4 4.45 -18.2 L4.1 -18.15 4.1 -19.35 4.35 -19.45 5.3 -19.8 Q7.3 -20.45 8.8 -22.15 11.75 -25.55 13.35 -29.8 10.3 -28.45 7.65 -30.55 11.45 -32.2 13.2 -36.4 14.3 -39.2 14.3 -42.2 12.6 -39.75 10.0 -39.85 L10.05 -40.2 10.1 -40.4 Q12.6 -45.2 11.8 -50.15 11.5 -52.2 10.65 -54.2 L10.55 -54.45 Q9.05 -56.4 8.2 -58.75 L7.5 -61.25 Q6.55 -65.8 6.35 -70.5 L6.25 -73.6 6.3 -76.0 6.4 -82.25 6.4 -85.75 6.4 -88.5 6.4 -90.05 6.4 -90.8 6.4 -91.25 M-7.85 -95.15 L-7.75 -94.95 -7.6 -94.5 -7.5 -94.25 -6.6 -91.5 -6.55 -91.25 -6.55 -90.8 -6.55 -90.45 -6.55 -87.25 -6.45 -76.0 Q-6.2 -68.45 -7.65 -61.25 L-7.75 -60.65 -8.1 -59.4 Q-9.0 -56.65 -10.7 -54.45 -11.9 -51.65 -12.1 -48.9 -12.45 -44.6 -10.25 -40.4 L-10.15 -40.2 -10.1 -39.85 Q-12.75 -39.75 -14.45 -42.2 -14.45 -39.2 -13.3 -36.4 -11.6 -32.2 -7.8 -30.55 -10.45 -28.45 -13.5 -29.8 L-13.45 -29.65 -13.45 -29.55 -11.65 -25.9 -11.35 -25.4 -8.95 -22.15 Q-7.45 -20.45 -5.45 -19.8 L-5.0 -19.65 -4.85 -18.25 Q-5.85 -18.5 -6.8 -19.15 L-8.4 -20.4 Q-10.45 -22.15 -12.0 -24.5 L-13.15 -26.45 Q-14.6 -28.9 -14.45 -31.6 L-14.2 -31.7 -13.95 -31.65 -13.85 -31.55 -13.4 -30.6 -9.4 -30.45 Q-15.85 -35.45 -15.25 -43.9 L-14.75 -44.65 -14.3 -44.4 Q-14.05 -41.4 -11.3 -40.65 -14.35 -47.7 -11.35 -54.65 -9.75 -56.65 -9.1 -59.15 -7.35 -66.25 -7.45 -73.7 L-7.5 -80.35 -7.8 -76.5 Q-8.45 -69.2 -10.7 -62.1 -12.1 -57.75 -14.25 -53.9 -16.2 -50.4 -17.25 -46.45 L-17.5 -46.05 -17.6 -45.45 Q-18.05 -42.5 -18.05 -39.45 L-18.05 -37.2 Q-18.0 -34.95 -17.4 -32.9 L-17.55 -32.95 -18.4 -33.75 -18.85 -34.7 -19.05 -35.45 -18.9 -34.9 -18.85 -34.7 -19.05 -35.9 -19.25 -39.05 -18.9 -43.3 Q-18.15 -48.55 -15.5 -53.2 L-14.7 -54.7 Q-13.4 -57.15 -12.45 -59.75 -11.3 -63.1 -10.3 -66.5 -9.05 -71.3 -8.5 -76.2 L-8.5 -76.25 -8.1 -80.9 -8.1 -81.15 -8.1 -81.55 -8.1 -81.6 Q-7.8 -88.3 -7.85 -94.95 L-7.8 -94.95 -7.85 -95.15" fill="#999999" fill-rule="evenodd" stroke="none"/>
    <path d="M16.55 -28.85 L16.5 -28.55 15.1 -26.5 11.25 -21.2 10.8 -20.65 Q9.2 -18.75 7.15 -17.65 L4.65 -16.65 4.55 -16.6 4.1 -16.5 4.05 -16.5 4.05 -17.55 4.1 -19.75 4.05 -30.7 4.25 -30.85 4.1 -32.2 4.0 -33.0 4.65 -33.35 5.35 -33.8 6.5 -34.95 7.25 -36.15 7.5 -36.75 Q8.0 -38.05 8.05 -39.45 L7.95 -41.2 7.9 -41.65 11.8 -50.15 Q12.6 -45.2 10.1 -40.4 L10.05 -40.2 10.0 -39.85 Q12.6 -39.75 14.3 -42.2 14.3 -39.2 13.2 -36.4 11.45 -32.2 7.65 -30.55 10.3 -28.45 13.35 -29.8 11.75 -25.55 8.8 -22.15 7.3 -20.45 5.3 -19.8 L4.35 -19.45 4.1 -19.35 4.1 -18.15 4.45 -18.2 Q5.55 -18.4 6.65 -19.15 10.6 -21.85 13.0 -26.45 14.4 -28.9 14.3 -31.6 L14.05 -31.7 13.8 -31.65 13.7 -31.55 13.25 -30.6 9.25 -30.45 Q15.7 -35.45 15.1 -43.9 L14.6 -44.65 14.15 -44.4 Q13.9 -41.4 11.15 -40.65 13.45 -46.0 12.3 -51.25 L14.15 -55.2 14.85 -53.9 Q16.8 -50.4 17.85 -46.45 L18.1 -46.05 Q18.8 -41.7 18.65 -37.2 18.55 -33.2 16.75 -29.8 L16.65 -29.35 16.55 -28.85 M4.05 -65.15 L3.95 -66.9 3.9 -67.75 3.95 -67.7 4.05 -67.45 4.05 -67.2 4.35 -67.0 4.7 -66.8 4.75 -66.8 4.95 -67.25 4.05 -65.15 M3.9 -75.35 L4.1 -78.45 4.65 -79.1 6.4 -82.25 6.3 -76.0 6.25 -73.6 6.0 -74.45 5.8 -74.9 5.8 -75.35 5.7 -75.9 5.55 -76.1 Q5.15 -76.35 4.7 -76.55 L4.7 -76.5 4.65 -76.45 4.15 -76.4 3.95 -76.15 3.9 -75.35 M7.7 -95.15 L7.9 -95.7 7.9 -94.95 7.95 -94.8 8.2 -94.8 8.1 -90.0 Q7.75 -83.2 8.4 -76.5 L8.5 -75.3 7.3 -72.65 7.3 -73.7 7.35 -88.45 Q7.35 -91.5 7.6 -94.4 L7.7 -95.15 M15.65 -46.75 L15.45 -46.95 15.05 -47.15 15.05 -47.1 14.55 -47.0 14.3 -46.75 14.05 -46.5 14.05 -46.25 14.05 -45.75 14.75 -45.3 Q16.0 -45.7 15.65 -46.75 M-0.65 -30.55 L1.3 -31.0 Q2.4 -31.1 3.1 -30.35 L3.15 -26.85 3.2 -19.55 3.25 -16.35 3.05 -16.3 -0.7 -16.1 -0.5 -20.35 -0.5 -20.4 0.7 -20.45 Q3.35 -21.75 2.25 -24.65 L1.65 -25.0 1.55 -25.1 1.5 -25.15 1.45 -25.15 1.35 -25.2 1.05 -25.1 0.85 -25.15 -0.2 -25.6 -0.05 -30.65 -0.65 -30.55 M1.85 -23.9 Q2.4 -22.15 1.0 -20.95 -0.35 -20.6 -1.25 -21.25 L1.35 -24.55 1.8 -24.1 1.85 -23.9 M-7.3 -95.1 L-7.3 -95.15 -7.3 -95.7 -7.25 -95.7 -6.9 -94.65 -7.0 -94.9 -7.2 -95.05 -7.3 -95.1 M-4.75 -87.25 L-3.8 -81.7 -3.75 -81.1 Q-3.35 -77.65 -3.25 -74.15 L-3.2 -72.85 Q-3.2 -69.9 -3.35 -66.9 -3.45 -64.45 -3.7 -62.1 L-3.75 -61.35 -4.2 -56.7 -4.8 -56.2 Q-8.15 -53.45 -11.1 -50.1 L-12.1 -48.9 Q-11.9 -51.65 -10.7 -54.45 -9.0 -56.65 -8.1 -59.4 L-7.3 -58.75 -6.95 -58.85 -6.9 -58.95 Q-6.0 -59.95 -5.45 -61.1 L-5.55 -61.35 -5.9 -61.85 -5.95 -61.85 Q-7.15 -61.6 -7.75 -60.65 L-7.65 -61.25 Q-6.2 -68.45 -6.45 -76.0 L-6.55 -87.25 -6.15 -86.15 -5.9 -85.9 -5.35 -86.05 -5.15 -86.25 -5.05 -86.55 -5.05 -86.75 -5.05 -87.0 -4.75 -87.25 M-4.2 -33.1 L-4.2 -31.9 -4.2 -30.9 -5.4 -30.7 -5.5 -29.2 Q-5.0 -24.8 -4.8 -20.35 L-4.85 -20.3 -5.05 -20.1 -5.05 -19.9 -5.0 -19.65 -5.45 -19.8 Q-7.45 -20.45 -8.95 -22.15 L-11.35 -25.4 -4.2 -33.1 M-4.85 -18.25 L-4.85 -17.9 -4.8 -17.7 -4.8 -16.85 -4.9 -16.9 Q-8.2 -18.15 -10.5 -21.0 L-10.65 -21.2 -12.45 -23.55 -15.7 -28.2 -15.9 -28.55 -15.9 -28.65 -15.95 -29.1 -16.15 -29.8 Q-16.95 -31.3 -17.4 -32.9 -18.0 -34.95 -18.05 -37.2 L-18.05 -39.45 Q-18.05 -42.5 -17.6 -45.45 L-17.5 -46.05 -17.25 -46.45 Q-16.2 -50.4 -14.25 -53.9 -12.1 -57.75 -10.7 -62.1 -8.45 -69.2 -7.8 -76.5 L-7.5 -80.35 -7.45 -73.7 Q-7.35 -66.25 -9.1 -59.15 -9.75 -56.65 -11.35 -54.65 -14.35 -47.7 -11.3 -40.65 -14.05 -41.4 -14.3 -44.4 L-14.75 -44.65 -15.25 -43.9 Q-15.85 -35.45 -9.4 -30.45 L-13.4 -30.6 -13.85 -31.55 -13.95 -31.65 -14.2 -31.7 -14.45 -31.6 Q-14.6 -28.9 -13.15 -26.45 L-12.0 -24.5 Q-10.45 -22.15 -8.4 -20.4 L-6.8 -19.15 Q-5.85 -18.5 -4.85 -18.25 M-17.8 -52.55 L-16.45 -56.7 -15.35 -59.45 -14.85 -60.6 -14.05 -62.45 -14.05 -62.5 -13.7 -63.25 -12.95 -65.1 Q-11.95 -67.95 -11.3 -70.85 L-11.1 -71.15 -8.5 -76.2 Q-9.05 -71.3 -10.3 -66.5 -11.3 -63.1 -12.45 -59.75 -13.4 -57.15 -14.7 -54.7 L-15.35 -54.35 -17.8 -52.55 M-5.55 -78.4 L-5.65 -75.9 -4.95 -75.45 -4.65 -75.55 -4.45 -75.7 -4.05 -76.2 -4.0 -76.45 Q-3.9 -77.8 -4.55 -78.95 L-4.95 -79.15 -5.3 -79.0 -5.45 -78.9 -5.55 -78.4 M-14.4 -35.3 L-14.9 -36.8 -15.3 -36.95 -15.65 -36.85 -15.75 -36.8 -15.9 -36.4 Q-16.1 -35.9 -15.9 -35.4 -15.55 -34.9 -15.0 -34.7 -14.75 -34.8 -14.6 -34.95 L-14.5 -35.05 -14.4 -35.3 M-1.55 -24.9 L-1.25 -25.0 -0.75 -25.15 0.85 -24.8 Q-0.65 -23.25 -1.5 -21.45 L-2.2 -22.5 -2.2 -22.85 Q-2.2 -24.0 -1.55 -24.9" fill="#cccccc" fill-rule="evenodd" stroke="none"/>
    <path d="M8.6 -85.2 L8.75 -85.15 9.1 -85.35 9.2 -85.4 9.3 -85.55 9.4 -86.05 9.4 -86.3 9.65 -86.3 9.75 -86.25 10.05 -86.15 10.3 -86.25 10.4 -85.15 10.45 -84.5 10.35 -84.4 9.4 -83.6 8.65 -83.05 8.6 -85.2 M4.1 -78.45 L4.45 -81.7 4.9 -84.7 Q5.7 -84.7 6.25 -85.75 L6.4 -85.75 6.4 -82.25 4.65 -79.1 4.1 -78.45 M-0.65 -30.55 L-0.05 -30.65 -0.2 -25.6 -0.75 -25.65 -1.0 -25.55 -1.7 -25.4 -1.85 -25.4 -2.6 -24.15 Q-3.15 -21.95 -1.7 -20.9 L-1.8 -20.65 -1.7 -20.7 -1.6 -20.85 -0.55 -20.4 -0.5 -20.4 -0.5 -20.35 -0.7 -16.1 -3.3 -16.35 -3.6 -16.4 -3.85 -16.45 -3.85 -17.7 -3.9 -19.9 -4.55 -29.7 -4.3 -29.8 -3.9 -29.85 -3.6 -29.75 -3.25 -30.0 -0.65 -30.55 M-10.1 -81.2 L-9.55 -87.4 Q-9.1 -91.45 -8.8 -95.55 L-8.7 -95.7 -8.55 -95.9 -8.5 -96.4 -8.5 -96.45 -8.5 -96.65 -8.4 -96.5 -8.3 -96.35 -8.1 -96.15 -8.1 -96.05 -8.1 -95.95 -8.1 -95.75 -8.0 -95.6 -7.85 -95.4 -7.85 -95.2 -7.85 -95.15 -7.85 -95.05 -7.85 -94.95 Q-7.8 -88.3 -8.1 -81.6 L-8.2 -81.9 -8.65 -82.05 -8.65 -82.0 -9.65 -81.6 -10.1 -81.4 -10.1 -81.2 M-11.3 -70.85 L-11.35 -70.8 -11.1 -72.1 -10.95 -73.1 -10.6 -73.65 Q-9.5 -75.75 -9.55 -78.45 L-9.35 -78.75 Q-8.8 -79.55 -8.7 -80.45 L-8.35 -80.7 -8.15 -80.9 -8.1 -80.9 -8.5 -76.25 -8.5 -76.2 -11.1 -71.15 -11.3 -70.85" fill="#9c9c9c" fill-rule="evenodd" stroke="none"/>
    <path d="M11.35 -74.0 Q12.15 -68.45 14.3 -63.25 L15.95 -59.45 16.25 -58.75 17.1 -56.7 18.0 -54.1 18.45 -52.55 19.55 -47.9 19.55 -47.6 20.15 -43.65 20.2 -43.3 Q20.65 -38.8 19.45 -34.7 19.85 -36.8 19.85 -39.05 L19.85 -39.8 Q19.6 -47.0 16.15 -53.2 14.3 -56.35 13.1 -59.75 L12.25 -62.2 11.2 -65.5 10.95 -66.5 10.7 -67.35 10.95 -67.6 11.05 -67.7 11.25 -71.1 11.35 -74.0 M7.9 -41.65 Q7.3 -45.3 6.15 -48.85 L6.1 -49.0 5.6 -51.25 Q4.7 -56.65 4.3 -62.1 L4.25 -62.55 4.1 -64.15 4.1 -64.5 4.05 -65.15 4.95 -67.25 6.35 -70.5 Q6.55 -65.8 7.5 -61.25 L8.2 -58.75 7.75 -59.0 7.35 -58.9 7.0 -58.7 6.65 -57.7 Q6.4 -56.6 6.5 -55.4 L6.65 -55.2 6.9 -54.9 6.95 -54.45 Q7.2 -53.5 8.05 -53.25 L8.45 -53.45 9.05 -54.15 9.2 -54.3 9.65 -54.0 10.4 -53.85 10.65 -54.2 Q11.5 -52.2 11.8 -50.15 L7.9 -41.65 M12.3 -51.25 L11.35 -54.35 11.2 -54.65 Q9.6 -56.65 9.0 -59.15 7.35 -65.75 7.3 -72.65 L8.5 -75.3 Q9.25 -68.65 11.3 -62.1 L13.9 -55.6 14.15 -55.2 12.3 -51.25 M-4.2 -56.7 L-4.95 -51.25 -5.5 -49.0 Q-6.75 -45.15 -7.35 -41.2 -7.75 -39.05 -7.0 -37.05 L-6.9 -36.75 Q-6.0 -34.6 -4.2 -33.45 L-4.2 -33.1 -11.35 -25.4 -11.65 -25.9 -13.45 -29.55 -13.45 -29.65 -13.5 -29.8 Q-10.45 -28.45 -7.8 -30.55 -11.6 -32.2 -13.3 -36.4 -14.45 -39.2 -14.45 -42.2 -12.75 -39.75 -10.1 -39.85 L-10.15 -40.2 -10.25 -40.4 Q-12.45 -44.6 -12.1 -48.9 L-11.1 -50.1 Q-8.15 -53.45 -4.8 -56.2 L-4.2 -56.7 M-19.05 -35.45 L-19.55 -38.1 -19.7 -39.7 -19.6 -43.3 Q-19.1 -48.0 -17.8 -52.55 L-15.35 -54.35 -14.7 -54.7 -15.5 -53.2 Q-18.15 -48.55 -18.9 -43.3 L-19.25 -39.05 -19.05 -35.9 -18.85 -34.7 -18.9 -34.9 -19.05 -35.45 M-6.8 -52.1 L-6.95 -52.1 Q-7.75 -52.0 -7.8 -51.25 -6.85 -50.4 -6.55 -51.6 L-6.6 -51.8 -6.8 -52.1" fill="#e7e7e7" fill-rule="evenodd" stroke="none"/>
    <path d="M3.15 -34.55 L3.3 -34.5 3.3 -33.75 3.3 -33.65 3.3 -33.25 3.3 -33.2 3.25 -33.15 3.3 -33.05 3.3 -32.8 3.3 -31.6 3.35 -31.45 1.55 -32.05 -3.05 -31.1 -3.0 -32.65 -3.0 -32.95 -3.1 -33.95 -3.2 -34.5 -2.9 -34.65 -2.75 -34.8 -2.6 -34.9 Q-2.0 -35.25 -1.45 -34.9 L-1.4 -35.1 -0.95 -35.95 -0.9 -35.8 Q-0.9 -35.45 -0.7 -35.25 L0.05 -35.1 0.1 -35.05 0.25 -34.9 3.15 -34.55 M-0.1 -14.85 Q-0.2 -9.25 -0.6 -3.65 L-0.7 -2.65 -0.8 -1.35 Q-1.5 -1.55 -2.0 -2.2 L-2.05 -2.55 -3.95 -14.75 -4.0 -15.0 -3.25 -15.0 -1.9 -14.9 -0.1 -14.85 M1.3 4.65 L1.5 6.0 Q0.75 6.05 0.1 6.5 -2.75 8.45 -0.25 10.6 1.25 10.85 2.15 9.55 L1.75 8.95 1.5 8.9 1.55 9.1 1.55 9.25 1.5 9.45 Q0.8 9.95 0.0 9.85 L-0.5 9.55 -0.55 9.4 -0.6 9.2 -0.5 8.5 Q-0.15 7.55 0.75 7.0 L1.8 7.05 2.05 7.05 Q3.25 7.1 3.5 8.25 3.9 10.85 1.6 12.65 -0.8 12.9 -2.1 10.85 L-2.25 10.5 Q-2.85 8.9 -2.65 7.15 L-2.55 6.45 -2.05 4.95 1.3 4.65" fill="#865a2f" fill-rule="evenodd" stroke="none"/>
    <path d="M-0.1 -14.85 L2.7 -14.75 2.85 -14.75 3.0 -14.75 3.0 -14.25 2.9 -13.95 2.75 -13.75 2.75 -13.4 2.55 -12.45 2.55 -12.1 1.7 -5.85 1.35 -2.15 1.2 -1.9 0.8 -1.4 -0.8 -1.35 -0.7 -2.65 -0.6 -3.65 Q-0.2 -9.25 -0.1 -14.85" fill="#694625" fill-rule="evenodd" stroke="none"/>
    <path d="M-7.75 -94.95 L-7.7 -95.0 -7.35 -94.8 -7.6 -94.9 -7.6 -94.5 -7.75 -94.95" fill="#474747" fill-rule="evenodd" stroke="none"/>
  </g>
</svg>
