<?xml version="1.0" encoding="UTF-8" standalone="no"?>
<svg xmlns:xlink="http://www.w3.org/1999/xlink" height="52.15px" width="71.25px" xmlns="http://www.w3.org/2000/svg">
  <g transform="matrix(1.0, 0.0, 0.0, 1.0, 54.65, 37.7)">
    <path d="M7.8 -21.45 L2.1 -26.35 Q-11.0 -25.5 -17.75 -14.65 L-19.15 -12.05 Q-21.95 -6.2 -20.5 -0.35 L-20.0 1.0 Q-14.65 -13.9 0.0 -20.45 2.75 -22.0 5.8 -21.7 L7.8 -21.45 M5.8 -15.75 Q5.45 -16.1 5.45 -16.6 5.45 -17.1 5.8 -17.4 6.1 -17.75 6.6 -17.75 7.1 -17.75 7.45 -17.4 L7.75 -16.6 7.45 -15.75 Q7.1 -15.45 6.6 -15.45 6.1 -15.45 5.8 -15.75 M16.2 -6.1 Q17.35 -1.0 15.35 3.65 14.8 4.95 13.85 6.05 6.65 14.4 -4.4 14.45 -9.05 14.45 -13.3 12.9 L-9.95 13.25 Q-17.8 11.5 -22.15 5.05 L-27.85 11.1 -37.5 11.1 -38.65 9.95 Q-44.85 8.8 -49.7 4.45 L-49.95 -0.7 -54.55 -5.25 Q-54.9 -7.7 -54.05 -10.05 -52.7 -13.8 -50.65 -17.5 -48.85 -20.85 -45.15 -21.9 -42.95 -22.65 -41.0 -24.05 -36.15 -27.7 -31.55 -31.7 -24.7 -37.6 -15.85 -37.7 L-12.25 -36.45 Q-7.5 -34.55 -3.15 -31.75 L5.25 -25.9 Q9.05 -23.1 11.55 -19.0 13.5 -15.7 14.65 -11.95 L16.2 -6.1 M8.5 -20.75 Q-1.6 -19.55 -8.85 -12.75 -16.75 -5.35 -19.5 5.05 -14.0 12.4 -4.8 12.6 L-0.55 12.5 Q7.4 10.2 12.9 3.95 15.35 -2.15 14.0 -9.0 12.7 -15.5 8.5 -20.75 M-48.8 -14.9 Q-50.55 -11.8 -51.8 -8.5 -52.25 -7.3 -52.25 -5.9 L-50.4 -4.1 -48.3 -3.6 -47.65 -2.95 Q-48.35 0.1 -46.65 2.55 -45.5 4.15 -43.8 5.3 -37.9 9.45 -30.65 9.3 -28.65 8.9 -27.15 7.5 -25.0 5.55 -23.3 2.85 -28.55 -6.0 -27.5 -16.2 L-27.35 -20.6 Q-27.6 -27.5 -24.15 -33.5 L-48.55 -16.25 -48.8 -14.9 M-8.75 -32.55 L-15.45 -34.5 -22.4 -34.15 Q-25.45 -28.6 -26.5 -22.35 L-27.05 -18.15 Q-26.65 -19.6 -25.6 -20.8 -22.8 -23.95 -19.25 -26.45 -14.4 -29.95 -8.75 -32.55 M-19.8 -25.15 Q-26.35 -21.4 -26.15 -14.0 -25.95 -7.1 -23.0 -0.8 -23.05 -9.95 -17.7 -17.1 -15.05 -20.6 -11.55 -23.25 -5.6 -27.65 1.65 -26.7 L-6.75 -31.65 -19.8 -25.15 M-4.05 -12.95 Q-3.75 -12.65 -3.75 -12.2 -3.75 -11.75 -4.05 -11.4 -4.4 -11.1 -4.9 -11.1 -5.4 -11.1 -5.7 -11.4 L-6.05 -12.2 -5.7 -12.95 Q-5.4 -13.3 -4.9 -13.3 -4.4 -13.3 -4.05 -12.95 M-14.25 -0.75 Q-13.95 -0.45 -13.95 0.0 -13.95 0.45 -14.25 0.75 -14.55 1.05 -15.0 1.05 L-15.75 0.75 -16.05 0.0 -15.75 -0.75 -15.0 -1.05 -14.25 -0.75" fill="#000000" fill-rule="evenodd" stroke="none"/>
    <path d="M5.8 -15.75 Q6.1 -15.45 6.6 -15.45 7.1 -15.45 7.45 -15.75 L7.75 -16.6 7.45 -17.4 Q7.1 -17.75 6.6 -17.75 6.1 -17.75 5.8 -17.4 5.45 -17.1 5.45 -16.6 5.45 -16.1 5.8 -15.75 M7.8 -21.45 L5.8 -21.7 Q2.75 -22.0 0.0 -20.45 -14.65 -13.9 -20.0 1.0 L-20.5 -0.35 Q-21.95 -6.2 -19.15 -12.05 L-17.75 -14.65 Q-11.0 -25.5 2.1 -26.35 L7.8 -21.45 M-48.8 -14.9 L-48.55 -16.25 -24.15 -33.5 Q-27.6 -27.5 -27.35 -20.6 L-27.5 -16.2 Q-28.55 -6.0 -23.3 2.85 -25.0 5.55 -27.15 7.5 -28.65 8.9 -30.65 9.3 -37.9 9.45 -43.8 5.3 -45.5 4.15 -46.65 2.55 -48.35 0.1 -47.65 -2.95 L-48.3 -3.6 -50.4 -4.1 -52.25 -5.9 Q-52.25 -7.3 -51.8 -8.5 -50.55 -11.8 -48.8 -14.9 M8.5 -20.75 Q12.7 -15.5 14.0 -9.0 15.35 -2.15 12.9 3.95 7.4 10.2 -0.55 12.5 L-4.8 12.6 Q-14.0 12.4 -19.5 5.05 -16.75 -5.35 -8.85 -12.75 -1.6 -19.55 8.5 -20.75 M-14.25 -0.75 L-15.0 -1.05 -15.75 -0.75 -16.05 0.0 -15.75 0.75 -15.0 1.05 Q-14.55 1.05 -14.25 0.75 -13.95 0.45 -13.95 0.0 -13.95 -0.45 -14.25 -0.75 M-4.05 -12.95 Q-4.4 -13.3 -4.9 -13.3 -5.4 -13.3 -5.7 -12.95 L-6.05 -12.2 -5.7 -11.4 Q-5.4 -11.1 -4.9 -11.1 -4.4 -11.1 -4.05 -11.4 -3.75 -11.75 -3.75 -12.2 -3.75 -12.65 -4.05 -12.95" fill="#555555" fill-rule="evenodd" stroke="none"/>
    <path d="M-19.8 -25.15 L-6.75 -31.65 1.65 -26.7 Q-5.6 -27.65 -11.55 -23.25 -15.05 -20.6 -17.7 -17.1 -23.05 -9.95 -23.0 -0.8 -25.95 -7.1 -26.15 -14.0 -26.35 -21.4 -19.8 -25.15 M-8.75 -32.55 Q-14.4 -29.95 -19.25 -26.45 -22.8 -23.95 -25.6 -20.8 -26.65 -19.6 -27.05 -18.15 L-26.5 -22.35 Q-25.45 -28.6 -22.4 -34.15 L-15.45 -34.5 -8.75 -32.55" fill="#2d2d2d" fill-rule="evenodd" stroke="none"/>
  </g>
</svg>
