<?xml version="1.0" encoding="UTF-8" standalone="no"?>
<svg xmlns:xlink="http://www.w3.org/1999/xlink" height="53.3px" width="114.8px" xmlns="http://www.w3.org/2000/svg">
  <g transform="matrix(1.0, 0.0, 0.0, 1.0, 52.0, 28.5)">
    <path d="M14.0 -28.35 L19.6 -22.65 23.7 -22.2 24.5 -19.4 24.95 -19.0 26.3 -18.25 27.65 -17.8 30.4 -16.8 32.05 -17.0 32.65 -16.4 35.65 -16.85 Q38.95 -17.0 41.3 -14.7 41.9 -14.05 42.15 -13.15 52.7 -14.45 59.15 -6.0 64.0 0.4 62.4 8.55 61.0 15.65 56.55 21.05 55.45 22.4 53.55 23.0 47.1 25.2 40.05 24.7 L32.7 24.25 Q22.1 25.2 11.85 22.95 L12.5 22.55 Q-19.25 25.2 -50.65 19.45 L-51.1 19.0 -52.0 17.25 Q-51.8 2.75 -45.3 -10.25 L-45.5 -10.8 -43.5 -13.35 -44.6 -12.75 Q-44.3 -14.2 -43.35 -15.05 -34.95 -22.55 -24.8 -26.45 -16.9 -29.4 -8.6 -27.5 L-9.0 -27.0 -6.85 -26.55 Q-4.0 -28.3 -1.0 -28.35 5.8 -28.5 12.6 -28.2 L13.15 -28.5 14.0 -28.35 M5.9 -27.85 L-4.25 -24.35 2.75 -19.75 5.85 -21.0 Q11.4 -23.45 17.1 -23.75 L13.6 -26.7 5.9 -27.85 M17.7 -23.15 L17.9 -23.05 17.7 -23.25 Q2.5 -20.15 -10.75 -11.95 -19.45 -6.6 -24.55 2.1 L-27.15 6.4 Q-20.6 11.05 -13.45 14.6 L-4.55 18.65 -13.3 16.0 Q-20.7 13.05 -27.0 7.95 L-28.2 7.95 Q-29.3 7.75 -30.2 8.4 -32.85 10.3 -35.9 10.8 L-28.5 6.7 -24.4 0.05 Q-21.45 -4.55 -17.2 -8.25 -8.7 -15.6 1.85 -19.4 L-4.8 -24.15 -11.75 -21.75 -21.25 -18.1 -23.4 -17.15 Q-15.1 -22.0 -5.9 -24.9 L-6.3 -25.35 -5.6 -25.0 5.2 -27.9 -1.95 -28.1 -2.7 -27.4 Q-4.25 -26.05 -6.3 -25.35 L-10.55 -26.15 -10.45 -26.55 Q-16.85 -27.95 -23.25 -26.55 -25.4 -26.05 -27.0 -24.8 -34.5 -19.15 -42.55 -13.95 L-43.2 -12.7 -30.4 -12.6 -26.3 -15.35 -29.95 -11.9 -43.25 -12.6 -44.15 -10.8 -39.45 7.55 -43.45 19.75 8.2 22.1 Q9.05 2.9 23.05 -10.3 L20.85 -8.75 Q13.25 -3.05 8.25 5.05 L10.25 1.4 10.35 1.3 Q15.45 -6.6 23.5 -11.5 L30.45 -15.75 30.2 -16.1 23.85 -17.65 23.4 -18.45 Q4.15 -10.3 -2.6 9.45 -1.8 0.0 4.95 -7.0 12.7 -15.0 23.2 -19.5 L23.05 -21.25 19.35 -21.85 17.7 -23.15 M33.95 -14.45 Q26.0 -12.55 20.9 -6.05 18.1 -2.45 15.7 1.8 10.3 11.25 9.3 22.15 L14.25 22.2 Q15.0 9.55 23.25 -0.35 30.4 -8.85 41.05 -11.75 L40.4 -11.9 41.1 -12.6 39.9 -13.95 Q37.2 -15.15 33.95 -14.45 M56.15 19.85 Q59.55 12.85 60.45 5.15 61.4 -2.55 55.95 -7.95 L53.7 -9.65 Q46.45 -13.2 39.05 -10.35 32.5 -7.95 27.45 -3.4 18.8 4.6 16.4 16.15 L15.25 22.75 Q36.1 25.25 56.35 20.35 L56.6 20.25 56.15 19.85 M-49.75 18.85 L-44.3 19.65 -40.6 6.85 -40.55 6.45 Q-43.85 -1.1 -44.9 -9.2 L-44.9 -9.25 -44.9 -9.2 Q-50.05 2.25 -50.95 14.8 -51.1 17.05 -49.7 18.5 L-49.9 18.85 -49.75 18.85" fill="#000000" fill-rule="evenodd" stroke="none"/>
    <path d="M5.9 -27.85 L13.6 -26.7 17.1 -23.75 Q11.4 -23.45 5.85 -21.0 L2.75 -19.75 -4.25 -24.35 5.9 -27.85 M17.7 -23.25 L17.7 -23.15 19.35 -21.85 Q4.75 -15.15 -5.1 -2.7 L-7.7 0.9 Q-11.0 6.0 -12.5 11.75 L-13.5 13.25 -13.45 14.6 Q-20.6 11.05 -27.15 6.4 L-24.55 2.1 Q-19.45 -6.6 -10.75 -11.95 2.5 -20.15 17.7 -23.25 M33.95 -14.45 Q37.2 -15.15 39.9 -13.95 L41.1 -12.6 40.4 -11.9 41.05 -11.75 Q30.4 -8.85 23.25 -0.35 15.0 9.55 14.25 22.2 L9.3 22.15 Q10.3 11.25 15.7 1.8 18.1 -2.45 20.9 -6.05 26.0 -12.55 33.95 -14.45 M30.2 -16.1 L30.45 -15.75 23.5 -11.5 Q26.65 -13.95 30.2 -16.1 M10.25 1.4 L8.25 5.05 Q13.25 -3.05 20.85 -8.75 L23.05 -10.3 Q9.05 2.9 8.2 22.1 L-43.45 19.75 -39.45 7.55 -44.15 -10.8 -43.25 -12.6 -29.95 -11.9 -26.3 -15.35 -23.4 -17.15 -21.25 -18.1 -11.75 -21.75 -4.8 -24.15 1.85 -19.4 Q-8.7 -15.6 -17.2 -8.25 -21.45 -4.55 -24.4 0.05 L-28.5 6.7 -35.9 10.8 Q-32.85 10.3 -30.2 8.4 -29.3 7.75 -28.2 7.95 L-27.0 7.95 Q-20.7 13.05 -13.3 16.0 -7.4 19.5 -0.3 18.6 L1.5 18.25 Q3.5 8.8 10.25 1.4 M-49.7 18.5 Q-51.1 17.05 -50.95 14.8 -50.05 2.25 -44.9 -9.2 L-44.9 -9.25 -44.9 -9.2 Q-43.85 -1.1 -40.55 6.45 L-40.6 6.85 -44.3 19.65 -49.75 18.85 -49.7 18.5" fill="#333333" fill-rule="evenodd" stroke="none"/>
    <path d="M-13.45 14.6 L-13.5 13.25 -12.5 11.75 Q-11.0 6.0 -7.7 0.9 L-5.1 -2.7 Q4.75 -15.15 19.35 -21.85 L23.05 -21.25 23.2 -19.5 Q12.7 -15.0 4.95 -7.0 -1.8 0.0 -2.6 9.45 4.15 -10.3 23.4 -18.45 L23.85 -17.65 30.2 -16.1 Q26.65 -13.95 23.5 -11.5 15.45 -6.6 10.35 1.3 L10.25 1.4 Q3.5 8.8 1.5 18.25 L-0.3 18.6 Q-7.4 19.5 -13.3 16.0 L-4.55 18.65 -13.45 14.6 M-26.3 -15.35 L-30.4 -12.6 -43.2 -12.7 -42.55 -13.95 Q-34.5 -19.15 -27.0 -24.8 -25.4 -26.05 -23.25 -26.55 -16.85 -27.95 -10.45 -26.55 L-10.55 -26.15 -6.3 -25.35 Q-4.25 -26.05 -2.7 -27.4 L-1.95 -28.1 5.2 -27.9 -5.6 -25.0 -6.3 -25.35 -5.9 -24.9 Q-15.1 -22.0 -23.4 -17.15 L-26.3 -15.35 M56.35 20.35 Q36.1 25.25 15.25 22.75 L16.4 16.15 Q18.8 4.6 27.45 -3.4 32.5 -7.95 39.05 -10.35 46.45 -13.2 53.7 -9.65 L55.95 -7.95 Q61.4 -2.55 60.45 5.15 59.55 12.85 56.15 19.85 L56.35 20.35" fill="#555555" fill-rule="evenodd" stroke="none"/>
  </g>
</svg>
