<?xml version="1.0" encoding="UTF-8" standalone="no"?>
<svg xmlns:xlink="http://www.w3.org/1999/xlink" height="41.95px" width="70.25px" xmlns="http://www.w3.org/2000/svg">
  <g transform="matrix(1.0, 0.0, 0.0, 1.0, 35.15, 20.9)">
    <path d="M3.4 -0.6 L2.85 -0.9 2.55 -1.25 2.55 -1.6 2.7 -1.9 5.05 -2.6 7.75 -2.95 Q11.35 -3.55 15.0 -2.1 L9.9 -6.35 Q5.95 -9.55 1.0 -10.5 -11.8 -12.35 -23.85 -8.6 L-24.05 -8.6 -24.0 -8.8 -25.45 -7.9 Q-32.5 -1.6 -32.3 7.85 L-32.75 8.95 -30.35 9.1 Q-26.65 8.6 -24.4 11.15 L-21.05 8.95 -20.2 9.6 Q-20.65 11.45 -22.3 12.75 L-26.9 16.75 -24.35 17.45 Q-19.25 19.2 -14.1 18.65 L-9.8 13.4 -7.8 13.3 Q-6.65 13.65 -6.2 14.8 -5.55 16.45 -4.4 17.35 L6.5 15.8 6.05 12.2 Q7.25 11.35 8.6 11.5 12.45 12.25 15.95 13.5 L17.75 12.2 Q18.1 11.65 18.6 11.55 22.15 10.35 25.9 11.0 L26.5 9.6 Q17.95 -2.15 3.4 -0.6 M5.6 -10.8 Q13.2 -8.45 16.95 -1.35 L21.35 1.05 Q21.3 -2.65 19.05 -5.5 15.05 -10.6 8.8 -12.95 -5.45 -18.4 -19.3 -11.95 -6.85 -14.55 5.6 -10.8 M-10.05 -17.0 L-10.0 -16.85 -9.95 -16.85 -4.25 -17.35 Q10.6 -18.05 20.5 -6.9 23.8 -3.1 22.85 2.15 25.6 4.25 27.95 7.2 L28.7 8.45 Q33.8 5.15 31.85 -0.85 30.75 -4.2 28.55 -7.0 21.05 -16.5 8.8 -18.1 -0.8 -19.4 -10.1 -17.3 L-10.3 -17.25 -10.05 -17.0 M11.1 -19.85 Q25.75 -16.9 33.55 -4.55 35.7 -0.55 34.85 3.85 33.85 8.95 28.85 10.75 L27.75 13.0 19.45 13.85 18.0 15.3 18.0 16.0 16.8 17.0 15.5 16.25 Q12.3 14.45 8.85 14.2 L8.85 15.65 8.7 17.4 8.4 18.05 Q1.15 18.4 -5.75 19.95 L-6.3 19.75 -6.45 19.05 -7.2 18.25 -7.65 17.25 -8.1 15.8 -9.65 17.05 Q-11.45 18.7 -12.4 20.85 -21.4 21.85 -29.8 18.3 L-29.9 16.85 -26.25 12.75 Q-28.75 11.75 -31.75 11.55 -33.85 11.95 -35.15 10.4 -34.45 5.25 -33.0 0.35 -30.2 -9.05 -21.9 -14.55 -18.0 -17.2 -13.45 -18.65 -1.3 -22.45 11.1 -19.85 M-10.85 -17.1 L-15.05 -15.85 -10.2 -16.85 -10.85 -17.1 M-22.75 -10.55 L-21.15 -12.3 -23.95 -9.9 -22.75 -10.55" fill="#000000" fill-rule="evenodd" stroke="none"/>
    <path d="M-22.75 -10.55 L-23.95 -9.9 -21.15 -12.3 -22.75 -10.55 M-10.85 -17.1 L-10.2 -16.85 -15.05 -15.85 -10.85 -17.1" fill="#666666" fill-rule="evenodd" stroke="none"/>
    <path d="M5.6 -10.8 Q-6.85 -14.55 -19.3 -11.95 -5.45 -18.4 8.8 -12.95 15.05 -10.6 19.05 -5.5 21.3 -2.65 21.35 1.05 L16.95 -1.35 Q13.2 -8.45 5.6 -10.8" fill="#2d2d2d" fill-rule="evenodd" stroke="none"/>
    <path d="M3.4 -0.6 Q17.95 -2.15 26.5 9.6 L25.9 11.0 Q22.15 10.35 18.6 11.55 18.1 11.65 17.75 12.2 L15.95 13.5 Q12.45 12.25 8.6 11.5 7.25 11.35 6.05 12.2 L6.5 15.8 -4.4 17.35 Q-5.55 16.45 -6.2 14.8 -6.65 13.65 -7.8 13.3 L-9.8 13.4 -14.1 18.65 Q-19.25 19.2 -24.35 17.45 L-26.9 16.75 -22.3 12.75 Q-20.65 11.45 -20.2 9.6 L-21.05 8.95 -24.4 11.15 Q-26.65 8.6 -30.35 9.1 L-32.75 8.95 -32.3 7.85 Q-32.5 -1.6 -25.45 -7.9 L-24.0 -8.8 -24.05 -8.6 -23.85 -8.6 Q-11.8 -12.35 1.0 -10.5 5.95 -9.55 9.9 -6.35 L15.0 -2.1 Q11.35 -3.55 7.75 -2.95 L5.05 -2.6 2.7 -1.9 2.55 -1.6 2.55 -1.25 2.85 -0.9 3.4 -0.6 M-10.1 -17.3 Q-0.8 -19.4 8.8 -18.1 21.05 -16.5 28.55 -7.0 30.75 -4.2 31.85 -0.85 33.8 5.15 28.7 8.45 L27.95 7.2 Q25.6 4.25 22.85 2.15 23.8 -3.1 20.5 -6.9 10.6 -18.05 -4.25 -17.35 L-9.95 -16.85 -10.0 -16.85 -10.05 -17.0 -10.1 -17.3" fill="#555555" fill-rule="evenodd" stroke="none"/>
  </g>
</svg>
