<?xml version="1.0" encoding="UTF-8" standalone="no"?>
<svg xmlns:xlink="http://www.w3.org/1999/xlink" height="54.6px" width="92.4px" xmlns="http://www.w3.org/2000/svg">
  <g transform="matrix(1.0, 0.0, 0.0, 1.0, 11.7, 12.3)">
    <path d="M9.15 -3.8 Q9.15 -4.25 9.5 -4.55 L10.3 -4.85 11.15 -4.55 11.45 -3.8 11.15 -3.05 Q10.8 -2.75 10.3 -2.75 9.8 -2.75 9.5 -3.05 9.15 -3.35 9.15 -3.8 M14.25 -1.85 Q8.95 3.35 6.7 10.85 L5.8 11.55 5.2 20.4 9.8 23.5 9.85 22.35 Q11.9 6.3 25.5 -2.25 L19.15 -5.75 Q16.4 -4.0 14.25 -1.85 M20.2 -7.25 Q22.7 -5.85 25.35 -4.85 27.45 -4.05 29.65 -3.55 39.35 -1.5 45.9 5.05 L46.95 4.8 47.25 4.3 47.55 2.9 49.2 -2.1 50.4 -4.7 60.15 -6.6 63.5 -3.95 58.7 5.05 59.7 8.45 Q66.4 2.35 75.35 1.7 L80.7 9.2 Q80.15 11.95 77.55 13.1 72.55 15.4 67.25 17.15 L77.25 20.95 77.7 28.05 73.9 30.7 66.55 30.0 61.8 27.6 59.9 31.15 Q64.0 36.0 62.3 42.3 L53.5 42.3 51.85 35.9 Q42.4 38.0 32.75 37.0 23.9 36.55 18.25 29.6 -1.45 23.05 -11.6 4.8 -12.25 -1.6 -9.1 -7.25 -7.35 -10.4 -3.9 -11.3 3.0 -13.2 10.0 -11.5 L13.35 -10.5 Q16.9 -9.15 20.2 -7.25 M9.9 -8.75 Q1.1 -11.5 -5.35 -5.7 -6.65 -4.6 -7.35 -2.95 -9.7 2.4 -6.55 7.55 L-4.05 11.45 Q-1.4 15.45 2.5 18.2 L3.75 10.3 4.7 9.7 Q9.2 0.25 17.75 -6.3 L9.9 -8.75 M52.05 -2.55 L47.3 7.25 45.9 7.2 44.6 5.9 43.3 5.0 42.1 4.25 Q34.3 11.3 30.25 20.9 27.75 26.9 28.1 33.45 L27.9 33.7 Q33.2 35.55 39.65 34.55 L40.15 35.8 52.55 31.4 54.9 39.9 60.6 40.15 60.6 35.9 57.75 30.95 61.55 25.45 69.75 27.85 75.8 27.6 75.8 23.35 72.25 20.0 65.85 19.55 64.4 18.1 64.4 15.95 77.7 9.55 73.7 4.55 Q70.05 4.85 66.8 6.1 63.1 7.65 59.9 10.05 60.15 11.6 59.45 13.05 57.25 17.9 51.9 19.25 50.6 19.5 49.2 18.8 54.65 17.45 56.75 12.3 58.4 8.15 56.8 3.85 L61.35 -3.25 52.05 -2.55 M20.4 18.3 Q23.85 6.9 34.35 0.5 31.45 -0.35 28.55 -0.55 25.15 -0.85 22.75 1.75 19.45 5.35 16.55 9.2 11.2 16.3 12.6 25.15 L15.9 26.7 Q17.95 27.75 19.75 29.2 23.0 31.8 27.1 33.4 26.6 28.85 27.65 24.35 30.65 11.6 41.25 3.75 L35.65 1.0 Q33.15 3.05 30.75 5.25 21.2 14.1 20.5 27.0 L20.05 27.3 19.4 27.05 Q19.1 22.65 20.4 18.3 M2.15 8.2 L2.4 9.0 2.15 9.85 Q1.85 10.15 1.45 10.15 1.05 10.15 0.8 9.85 0.5 9.5 0.5 9.0 0.5 8.5 0.8 8.2 1.05 7.85 1.45 7.85 1.85 7.85 2.15 8.2 M5.4 1.65 L5.65 1.95 5.7 2.65 5.55 3.3 Q3.9 3.95 3.4 2.45 3.55 1.35 4.85 1.4 L4.85 1.35 5.4 1.65" fill="#000000" fill-rule="evenodd" stroke="none"/>
    <path d="M9.15 -3.8 Q9.15 -3.35 9.5 -3.05 9.8 -2.75 10.3 -2.75 10.8 -2.75 11.15 -3.05 L11.45 -3.8 11.15 -4.55 10.3 -4.85 9.5 -4.55 Q9.15 -4.25 9.15 -3.8 M14.25 -1.85 Q16.4 -4.0 19.15 -5.75 L25.5 -2.25 Q11.9 6.3 9.85 22.35 L9.8 23.5 5.2 20.4 5.8 11.55 6.7 10.85 Q8.95 3.35 14.25 -1.85 M52.05 -2.55 L61.35 -3.25 56.8 3.85 Q58.4 8.15 56.75 12.3 54.65 17.45 49.2 18.8 50.6 19.5 51.9 19.25 57.25 17.9 59.45 13.05 60.15 11.6 59.9 10.05 63.1 7.65 66.8 6.1 70.05 4.85 73.7 4.55 L77.7 9.55 64.4 15.95 64.4 18.1 65.85 19.55 72.25 20.0 75.8 23.35 75.8 27.6 69.75 27.85 61.55 25.45 57.75 30.95 60.6 35.9 60.6 40.15 54.9 39.9 52.55 31.4 40.15 35.8 39.65 34.55 Q33.2 35.55 27.9 33.7 L28.1 33.45 Q27.75 26.9 30.25 20.9 34.3 11.3 42.1 4.25 L43.3 5.0 44.6 5.9 45.9 7.2 47.3 7.25 52.05 -2.55 M9.9 -8.75 L17.75 -6.3 Q9.2 0.25 4.7 9.7 L3.75 10.3 2.5 18.2 Q-1.4 15.45 -4.05 11.45 L-6.55 7.55 Q-9.7 2.4 -7.35 -2.95 -6.65 -4.6 -5.35 -5.7 1.1 -11.5 9.9 -8.75 M5.4 1.65 L4.85 1.35 4.85 1.4 Q3.55 1.35 3.4 2.45 3.9 3.95 5.55 3.3 L5.7 2.65 5.65 1.95 5.4 1.65 M2.15 8.2 Q1.85 7.85 1.45 7.85 1.05 7.85 0.8 8.2 0.5 8.5 0.5 9.0 0.5 9.5 0.8 9.85 1.05 10.15 1.45 10.15 1.85 10.15 2.15 9.85 L2.4 9.0 2.15 8.2" fill="#555555" fill-rule="evenodd" stroke="none"/>
    <path d="M20.4 18.3 Q19.1 22.65 19.4 27.05 L20.05 27.3 20.5 27.0 Q21.2 14.1 30.75 5.25 33.15 3.05 35.65 1.0 L41.25 3.75 Q30.65 11.6 27.65 24.35 26.6 28.85 27.1 33.4 23.0 31.8 19.75 29.2 17.95 27.75 15.9 26.7 L12.6 25.15 Q11.2 16.3 16.55 9.2 19.45 5.35 22.75 1.75 25.15 -0.85 28.55 -0.55 31.45 -0.35 34.35 0.5 23.85 6.9 20.4 18.3" fill="#2d2d2d" fill-rule="evenodd" stroke="none"/>
  </g>
</svg>
