<?xml version="1.0" encoding="UTF-8" standalone="no"?>
<svg xmlns:xlink="http://www.w3.org/1999/xlink" height="498.6px" width="129.55px" xmlns="http://www.w3.org/2000/svg">
  <g transform="matrix(1.0, 0.0, 0.0, 1.0, 58.95, 488.7)">
    <path d="M63.6 -375.15 Q61.95 -399.05 62.15 -424.45 62.35 -447.1 63.5 -469.45 L64.25 -470.2 64.25 -471.7 64.25 -472.45 65.4 -473.15 Q61.95 -475.95 57.8 -477.65 41.2 -484.25 23.0 -484.4 L15.75 -484.4 Q-9.85 -484.45 -35.45 -483.0 -39.95 -482.75 -43.65 -480.1 -45.45 -478.8 -47.55 -477.85 -49.25 -416.45 -47.85 -401.65 -46.45 -386.9 -47.75 -372.9 -41.25 -375.9 -36.75 -381.8 L-22.65 -400.5 Q-15.7 -409.85 -9.05 -419.55 -5.2 -425.2 -0.8 -430.4 5.2 -437.6 6.25 -446.7 L8.0 -447.2 8.75 -446.45 Q10.05 -441.05 11.9 -435.85 13.7 -430.65 16.05 -425.85 18.35 -421.0 21.4 -416.45 38.05 -391.6 62.95 -374.5 L63.1 -374.4 63.45 -375.15 63.6 -375.05 63.6 -375.15 M67.2 -472.3 Q64.85 -444.1 65.25 -414.7 65.6 -390.6 64.25 -366.7 L64.1 -368.35 63.9 -364.7 Q63.35 -354.35 63.1 -343.9 62.45 -317.85 59.35 -292.2 57.65 -291.75 56.7 -290.65 53.05 -286.2 51.45 -281.45 54.35 -274.55 52.7 -267.05 L53.6 -266.0 56.5 -265.25 56.4 -251.55 Q64.6 -248.85 70.6 -242.65 62.85 -240.0 55.75 -235.85 L55.0 -226.9 64.85 -220.55 64.65 -218.4 Q58.85 -216.95 53.95 -213.75 L53.8 -211.15 51.5 -211.25 51.2 -165.45 Q52.35 -165.0 53.5 -164.4 56.55 -162.7 56.7 -159.2 L57.25 -160.9 Q59.35 -131.3 58.85 -102.05 L59.4 -102.25 59.05 -101.85 59.2 -101.55 Q59.35 -90.85 59.95 -80.2 62.05 -44.45 58.95 -9.1 L60.2 -8.85 60.5 -7.1 Q57.5 -5.8 54.45 -4.65 49.85 -2.8 45.1 -1.5 24.4 3.65 3.8 9.75 2.1 10.25 0.75 8.9 L-1.15 8.95 Q-22.7 0.0 -45.15 -6.55 L-47.9 -8.9 Q-48.0 -32.1 -47.6 -55.3 -47.45 -62.95 -47.6 -70.6 -47.7 -77.7 -46.95 -84.75 -45.7 -96.7 -45.25 -108.7 L-43.95 -135.4 Q-43.4 -144.8 -41.6 -153.95 -40.55 -159.45 -34.6 -158.65 L-34.75 -160.65 Q-36.3 -173.35 -37.15 -186.1 L-37.55 -192.7 Q-37.9 -199.25 -37.2 -205.65 -36.4 -213.3 -37.95 -220.9 L-37.5 -221.1 -37.75 -227.8 -37.15 -228.15 Q-47.45 -232.1 -58.4 -233.35 L-58.95 -234.15 -58.4 -235.75 -39.0 -248.8 -39.0 -253.0 -39.75 -253.15 -40.3 -253.7 Q-42.45 -258.5 -46.65 -262.9 -43.05 -265.0 -38.75 -264.9 L-36.0 -267.7 Q-36.95 -276.2 -34.7 -284.25 L-36.25 -283.95 -37.55 -284.95 -39.25 -284.95 Q-41.3 -289.95 -44.95 -293.9 -46.1 -295.1 -46.1 -296.7 -46.05 -298.95 -46.4 -301.25 -51.4 -335.85 -50.75 -370.95 L-49.1 -372.2 -50.25 -426.7 Q-50.75 -452.55 -50.85 -478.45 -50.85 -480.45 -50.0 -481.95 L-49.7 -482.1 -48.5 -482.2 -47.8 -481.5 Q-44.05 -485.0 -39.0 -486.55 L-32.0 -488.7 Q-8.1 -488.6 15.75 -487.6 32.9 -486.9 50.0 -484.5 61.95 -482.8 68.5 -473.7 L68.0 -472.95 67.4 -472.4 67.2 -472.3 M15.25 -421.6 Q11.9 -427.45 9.3 -433.75 L7.25 -437.95 Q-10.6 -412.75 -29.45 -388.25 -32.15 -384.75 -35.15 -381.55 L-36.25 -380.2 Q-37.8 -378.25 -38.65 -375.95 L-38.95 -375.2 -39.25 -374.2 Q-43.5 -371.55 -48.0 -370.05 L-48.15 -370.0 -48.1 -369.25 -47.2 -351.85 Q-46.35 -331.95 -45.95 -311.95 -45.85 -307.1 -45.1 -302.45 L-44.6 -299.85 -44.6 -299.75 -44.45 -299.9 Q-36.05 -307.0 -25.6 -310.2 -25.8 -320.0 -24.5 -329.95 -24.45 -330.4 -23.75 -330.2 -24.65 -320.6 -24.5 -310.55 -20.55 -311.7 -16.3 -312.3 L-15.5 -312.45 Q6.7 -314.9 28.05 -311.05 L29.35 -322.5 Q30.95 -340.0 30.55 -357.95 30.55 -358.4 31.25 -358.2 31.7 -340.15 30.55 -322.2 L29.95 -313.95 29.75 -313.2 Q29.9 -311.95 31.0 -310.95 L30.65 -310.55 30.9 -310.5 Q37.0 -309.3 43.0 -307.55 52.05 -304.9 58.2 -298.05 L58.15 -309.65 58.15 -311.85 58.15 -313.75 58.15 -315.0 58.15 -316.2 Q58.35 -334.3 59.5 -352.4 L59.5 -352.45 59.5 -353.0 Q60.1 -363.15 62.65 -372.7 50.9 -379.95 41.05 -389.15 26.05 -403.05 15.4 -421.35 L15.25 -421.6 M-37.05 -368.45 L-34.25 -369.45 -32.55 -368.55 -31.7 -367.95 -27.7 -362.6 -27.6 -362.3 -27.55 -362.15 -27.45 -361.85 -27.4 -361.55 -27.3 -361.2 -27.15 -360.45 -27.0 -358.65 Q-26.65 -349.5 -36.3 -350.75 -41.5 -351.55 -42.6 -356.8 L-42.65 -357.15 -42.7 -357.35 -42.7 -357.55 -42.75 -357.85 -42.55 -358.25 -41.3 -356.05 -41.25 -356.0 -40.95 -355.55 Q-38.7 -352.5 -35.15 -353.3 L-35.05 -353.35 -33.6 -353.7 -33.55 -353.75 Q-26.2 -356.15 -30.4 -363.35 L-30.55 -361.05 Q-31.0 -357.0 -33.75 -354.2 L-35.2 -353.9 -36.7 -353.9 Q-39.05 -354.3 -40.65 -355.85 L-40.95 -356.15 -41.0 -356.2 -34.5 -356.45 Q-31.65 -360.3 -32.05 -364.95 L-33.75 -364.9 -35.0 -364.7 -33.25 -366.95 -34.0 -367.7 Q-35.55 -368.15 -36.95 -367.2 L-38.3 -366.15 -37.05 -368.45 M-3.75 -401.3 L-4.5 -406.2 -5.0 -406.95 -4.3 -407.05 -3.6 -408.9 Q-1.75 -413.55 2.5 -415.95 L5.0 -415.7 6.75 -413.95 7.3 -413.9 10.0 -413.7 Q13.6 -407.85 13.25 -401.7 5.35 -393.95 -3.5 -399.45 L-3.75 -401.3 M7.0 -411.95 L4.25 -413.7 2.5 -413.45 Q-1.0 -410.05 -2.75 -405.7 L7.5 -405.45 10.2 -407.85 8.3 -412.65 7.0 -411.95 M-3.25 -403.0 Q-2.55 -401.4 -0.8 -400.6 6.1 -397.3 11.5 -403.2 L10.65 -406.2 8.25 -403.2 -3.0 -403.2 -3.4 -404.25 -3.5 -403.7 -3.25 -403.0 M40.2 -369.45 L41.0 -370.4 Q44.4 -374.2 48.75 -374.45 L49.15 -374.0 53.75 -372.45 53.5 -370.95 Q58.55 -362.65 53.45 -356.2 L52.6 -355.25 51.65 -354.3 50.55 -353.35 50.0 -352.95 Q42.05 -351.8 37.5 -358.45 L37.45 -358.65 37.45 -358.85 37.4 -359.2 37.35 -359.55 37.35 -359.8 37.3 -360.25 37.3 -360.5 37.3 -360.65 37.3 -360.85 37.3 -361.0 37.3 -361.3 37.3 -361.45 37.3 -361.65 39.6 -368.6 40.25 -369.45 40.2 -369.45 M50.5 -371.45 L45.05 -371.75 Q42.0 -367.5 43.0 -362.45 47.3 -357.8 53.05 -360.2 54.3 -366.55 50.5 -371.45 M41.75 -361.7 L42.0 -369.2 41.1 -368.05 Q39.05 -365.25 38.25 -361.95 39.05 -359.7 40.8 -358.05 44.4 -354.5 49.5 -355.7 L52.1 -357.7 48.5 -357.55 Q44.7 -358.7 41.75 -361.7 M2.0 -389.7 L2.15 -389.15 Q2.0 -388.85 1.5 -388.7 -2.4 -389.7 -0.9 -391.4 L-0.75 -391.45 1.2 -390.35 2.0 -389.7 M2.6 -298.9 Q11.2 -299.7 19.65 -298.95 20.1 -299.4 20.75 -299.7 21.4 -301.55 23.25 -302.45 25.55 -305.25 28.75 -307.4 L28.6 -307.85 Q14.05 -310.55 -1.0 -309.95 L-15.75 -308.85 -23.7 -307.85 -16.65 -295.75 -12.6 -296.8 Q-5.1 -298.6 2.6 -298.9 M23.0 -300.7 L22.5 -298.7 Q33.0 -297.5 43.3 -294.0 50.15 -291.75 51.15 -284.85 L56.25 -293.45 56.0 -296.45 53.8 -298.3 Q48.2 -302.95 41.2 -304.95 35.55 -306.55 29.85 -307.6 27.45 -304.35 24.2 -301.55 L23.0 -300.7 M48.25 -286.45 Q45.75 -289.35 42.75 -291.5 39.1 -294.1 35.05 -295.45 32.3 -296.4 29.35 -296.8 L22.15 -297.0 Q21.7 -294.05 21.9 -290.95 L21.95 -289.75 22.0 -288.1 Q35.9 -285.6 49.0 -279.95 L48.25 -286.45 M53.4 -252.55 L54.15 -262.35 50.8 -264.4 50.55 -264.55 49.25 -265.5 47.9 -266.4 47.9 -266.35 Q41.4 -270.4 33.55 -271.15 L21.95 -272.15 4.35 -273.2 4.3 -272.8 3.5 -271.2 Q4.5 -265.65 4.65 -259.95 4.7 -257.3 4.25 -254.7 3.15 -259.45 2.5 -265.9 2.25 -268.5 2.5 -271.2 -1.3 -271.6 -5.0 -269.95 L-6.05 -270.65 -6.25 -271.2 -4.65 -272.6 Q-15.35 -271.4 -25.7 -267.95 -24.7 -254.5 -26.7 -241.25 L-27.0 -240.7 Q-26.35 -253.8 -26.45 -267.7 L-28.0 -267.2 -33.0 -265.3 -33.05 -264.95 -33.45 -264.4 Q-33.95 -263.95 -34.55 -263.7 L-36.0 -263.45 Q-35.85 -255.55 -38.05 -248.2 -32.5 -244.25 -31.8 -237.45 -31.15 -231.35 -35.35 -228.2 L-35.05 -223.1 -27.6 -224.0 1.5 -225.9 6.55 -225.95 17.8 -225.75 18.0 -225.95 23.5 -225.7 23.7 -225.45 27.75 -225.2 37.5 -224.4 46.8 -223.3 52.15 -222.55 54.2 -234.35 54.3 -234.95 53.45 -234.5 51.45 -235.55 Q48.9 -236.9 48.0 -239.75 46.55 -244.3 48.35 -247.85 49.65 -250.5 52.7 -252.6 L53.4 -252.4 53.4 -252.55 M40.95 -235.3 Q45.2 -233.8 48.75 -230.7 L48.5 -230.6 43.1 -229.15 42.75 -229.1 40.45 -228.95 40.25 -228.95 37.4 -229.15 35.25 -229.5 34.8 -229.6 33.15 -231.25 34.05 -233.9 34.6 -235.6 36.75 -236.4 Q38.95 -236.05 40.95 -235.3 M1.6 -274.7 L7.85 -274.85 26.7 -274.05 Q38.9 -272.55 49.8 -267.6 L51.4 -276.3 Q36.8 -283.0 20.9 -284.95 L20.55 -284.95 20.5 -284.95 19.5 -284.7 19.6 -285.05 16.2 -285.25 15.6 -285.4 15.55 -284.35 15.35 -283.25 15.0 -282.7 14.8 -283.55 14.5 -285.65 9.35 -286.55 Q4.3 -287.35 -8.3 -284.95 -20.9 -282.6 -33.05 -274.9 L-32.95 -267.55 Q-23.65 -273.95 -12.2 -273.95 L1.6 -274.7 M20.1 -288.9 L20.1 -291.45 20.0 -295.2 19.15 -296.75 19.1 -296.9 17.5 -296.8 Q6.8 -297.85 -3.65 -296.75 -20.6 -294.4 -33.95 -285.05 L-33.85 -284.75 -33.9 -284.55 -34.15 -284.35 -33.9 -279.85 -33.25 -279.2 -33.15 -277.9 Q-23.4 -284.4 -12.25 -287.5 -0.85 -290.45 10.85 -289.6 L19.4 -288.55 20.1 -288.45 20.1 -288.9 M5.55 -277.25 Q4.9 -279.3 5.55 -282.15 5.65 -282.65 6.25 -282.45 L6.7 -281.7 7.0 -280.95 6.5 -277.85 6.4 -276.45 6.25 -275.7 Q5.8 -276.4 5.55 -277.25 M17.3 -238.55 L17.4 -229.45 17.25 -228.7 Q16.75 -233.95 16.55 -239.3 16.2 -247.1 16.4 -255.05 16.65 -263.4 17.5 -271.95 17.55 -272.4 18.25 -272.2 L17.55 -256.65 Q17.3 -247.7 17.3 -238.55 M22.1 -260.25 L24.25 -262.95 Q25.35 -264.05 26.6 -264.1 36.5 -262.8 42.4 -254.4 41.7 -250.2 38.6 -247.4 34.85 -243.95 30.9 -244.0 L24.85 -246.1 23.2 -247.3 Q22.1 -248.2 21.55 -249.35 18.9 -255.2 22.1 -260.25 M33.4 -246.15 L35.35 -246.25 Q36.95 -248.15 37.9 -250.5 L38.95 -252.75 Q34.35 -258.55 28.85 -262.35 L26.65 -262.0 Q22.85 -258.45 22.65 -255.25 L22.65 -255.2 Q22.4 -251.5 27.0 -248.35 29.95 -246.3 33.4 -246.15 M34.8 -232.3 L35.35 -231.25 42.6 -232.3 36.05 -235.05 34.8 -232.3 M12.2 -236.1 L11.1 -239.4 7.45 -240.45 5.1 -238.3 5.1 -236.65 Q8.35 -233.3 12.2 -236.1 M3.3 -238.6 L3.3 -239.2 7.3 -242.45 7.85 -242.45 Q12.85 -241.8 14.55 -237.05 14.25 -235.85 13.2 -235.0 L12.3 -234.3 Q8.15 -231.4 3.3 -234.85 L3.3 -238.6 M39.3 -222.7 L35.45 -223.0 24.2 -222.35 24.0 -218.2 23.65 -217.65 22.5 -217.2 22.25 -218.0 21.85 -222.3 18.45 -222.25 18.65 -219.7 Q19.05 -216.9 17.75 -214.45 L17.85 -214.3 18.15 -214.3 19.05 -214.25 23.85 -214.1 Q31.55 -213.9 38.95 -214.0 L50.75 -214.4 51.5 -219.15 Q47.85 -221.0 43.8 -221.9 L39.3 -222.7 M3.95 -214.7 L16.55 -214.35 16.65 -221.45 16.7 -222.3 9.8 -222.55 3.15 -222.8 Q-16.05 -223.15 -35.05 -219.85 L-35.6 -218.95 -36.15 -218.8 -35.25 -215.5 3.95 -214.7 M12.7 -201.95 L12.6 -207.25 Q12.55 -209.75 13.2 -211.55 L7.25 -211.8 4.95 -211.9 -10.8 -212.2 -19.75 -212.15 Q-19.9 -199.1 -20.85 -186.1 L-21.55 -177.5 -21.75 -176.7 -21.6 -186.1 -21.5 -195.45 Q-21.4 -204.55 -20.1 -212.15 L-25.75 -212.1 -34.7 -211.9 -33.05 -161.95 -32.35 -160.85 -32.15 -156.5 -26.7 -154.85 -24.6 -154.2 Q-13.3 -151.1 -1.55 -150.6 5.9 -150.2 13.25 -150.75 L12.9 -186.1 12.7 -201.95 M-21.7 -163.8 L-23.8 -162.6 -24.5 -162.45 -24.1 -163.95 Q-23.85 -164.85 -22.95 -164.75 L-22.5 -164.7 -21.6 -164.0 -21.5 -163.95 -21.7 -163.8 M21.45 -201.95 L21.2 -201.05 21.0 -200.5 20.0 -200.25 18.25 -201.5 18.25 -201.95 Q18.25 -202.9 19.1 -203.4 L20.0 -203.75 21.15 -203.1 21.5 -202.5 21.45 -201.95 M14.55 -201.95 L14.85 -186.1 Q15.05 -170.25 14.9 -154.25 14.9 -152.6 15.05 -150.95 L22.2 -151.75 31.55 -153.45 34.85 -154.25 Q42.0 -156.0 48.2 -158.3 L49.45 -211.3 32.25 -211.4 32.0 -207.95 Q31.75 -204.85 32.75 -201.95 31.9 -201.5 31.35 -201.95 30.85 -202.4 30.6 -203.45 30.0 -206.0 30.25 -208.7 L29.7 -209.35 28.75 -209.95 28.25 -210.2 25.25 -209.95 25.3 -208.45 Q25.4 -205.5 24.0 -203.45 22.95 -204.45 22.9 -206.2 L22.55 -211.45 14.3 -211.55 14.55 -201.95 M49.15 -243.7 Q49.2 -241.25 51.1 -238.65 L53.45 -238.1 61.75 -242.35 61.7 -242.35 64.65 -243.9 52.55 -250.4 Q48.95 -247.25 49.15 -243.7 M54.7 -220.9 Q54.4 -219.15 54.25 -217.4 56.75 -218.95 59.6 -220.0 57.55 -222.6 54.75 -224.9 L54.3 -221.45 54.7 -220.9 M54.35 -160.5 L52.15 -163.15 50.95 -163.5 50.0 -158.15 Q45.75 -155.55 41.15 -153.8 L40.65 -153.6 36.9 -152.4 36.05 -152.2 Q24.7 -149.05 13.4 -148.05 L13.25 -148.0 13.25 -148.05 Q-10.85 -145.95 -34.85 -153.6 L-34.7 -156.55 -38.5 -155.05 Q-21.55 -138.05 0.4 -128.6 L0.45 -128.6 0.6 -128.75 0.8 -129.0 Q5.1 -129.9 9.05 -131.9 L14.2 -134.6 21.1 -138.0 Q26.95 -140.75 32.55 -143.95 L33.05 -144.25 Q44.0 -150.6 53.8 -158.7 54.6 -159.35 54.35 -160.5 M54.15 -120.0 L55.9 -121.7 55.35 -135.75 Q54.65 -146.75 56.3 -157.6 L46.85 -150.4 Q40.25 -145.55 33.3 -141.4 L33.8 -119.4 34.0 -119.5 35.2 -119.1 35.5 -118.75 33.85 -117.7 34.1 -110.4 34.2 -110.4 Q34.95 -110.4 35.5 -109.85 L35.55 -109.8 36.0 -108.65 Q36.0 -108.0 35.6 -107.5 L35.5 -107.4 Q34.95 -106.9 34.2 -106.9 L34.25 -105.2 34.0 -104.7 33.8 -106.95 Q33.3 -107.05 32.95 -107.4 32.4 -107.95 32.4 -108.65 32.4 -109.35 32.95 -109.85 L33.5 -110.25 33.0 -117.2 25.5 -112.7 25.5 -111.7 25.5 -110.95 Q23.6 -109.8 23.5 -111.5 L20.75 -109.9 20.7 -109.9 16.85 -107.7 16.85 -107.65 12.15 -105.05 Q8.05 -102.75 3.75 -100.75 L3.7 -100.05 3.5 -99.5 Q2.1 -98.75 1.5 -99.65 L1.65 -81.7 Q2.95 -82.8 4.4 -83.7 L8.6 -86.05 9.4 -86.4 10.05 -86.7 10.6 -86.95 Q12.9 -87.9 15.1 -89.1 L20.45 -92.4 21.6 -93.2 Q28.5 -98.05 35.05 -103.25 45.0 -111.2 54.15 -119.95 L54.15 -120.0 M32.55 -194.95 Q32.55 -195.4 33.25 -195.2 33.7 -192.65 33.55 -189.95 L33.5 -189.2 34.25 -187.7 32.75 -188.45 Q32.35 -191.65 32.55 -194.95 M22.0 -177.5 Q19.65 -176.55 18.25 -178.5 18.05 -179.75 19.1 -180.4 L20.0 -180.75 22.15 -180.0 22.5 -179.5 22.55 -178.8 22.0 -177.5 M1.4 -186.1 L2.25 -186.2 2.2 -186.1 Q-0.75 -179.4 -4.8 -173.2 -1.35 -169.8 0.9 -165.3 L1.5 -164.45 1.35 -163.9 Q1.0 -163.6 0.5 -163.45 L-6.15 -171.25 -8.35 -168.3 -9.0 -167.7 -6.75 -171.95 -8.8 -174.15 -11.0 -169.75 -11.5 -168.95 -12.5 -168.7 -9.6 -175.05 -10.0 -175.45 -10.2 -175.85 Q-9.7 -176.25 -9.0 -176.4 L-6.35 -182.8 Q-6.25 -183.1 -5.75 -183.2 -6.65 -179.5 -8.05 -175.95 L-5.65 -173.95 1.35 -186.05 1.4 -186.1 M19.3 -161.95 L20.0 -162.0 20.5 -162.0 22.15 -160.4 22.5 -159.75 21.95 -159.1 21.0 -158.5 19.25 -159.0 18.95 -160.55 Q18.9 -161.15 19.0 -161.75 L19.3 -161.95 M26.8 -137.75 L23.35 -135.95 Q25.05 -125.3 25.45 -114.4 L32.6 -118.85 32.9 -119.0 Q32.3 -129.9 32.5 -140.95 L26.8 -137.75 M0.05 -126.45 L0.0 -126.5 Q-7.1 -129.1 -13.65 -132.7 -13.35 -123.5 -13.7 -114.25 L-14.0 -113.7 Q-14.8 -123.25 -14.5 -133.2 L-15.8 -133.95 Q-20.45 -136.7 -24.8 -139.75 -25.4 -129.7 -25.45 -119.5 L-25.5 -118.75 Q-25.5 -118.4 -25.65 -118.2 -13.05 -110.2 -0.35 -102.8 -0.7 -111.25 -0.1 -119.6 L0.5 -126.35 0.05 -126.45 M8.5 -117.7 Q7.3 -118.55 7.8 -119.85 L8.25 -120.2 8.55 -119.5 9.0 -118.7 8.5 -117.7 M1.75 -101.25 L1.6 -100.75 1.5 -100.7 1.5 -100.4 Q12.55 -106.6 23.55 -113.25 24.1 -123.95 22.8 -135.65 12.35 -130.5 1.3 -126.3 L1.5 -101.7 1.75 -101.25 M29.3 -86.0 L31.15 -86.7 Q34.7 -88.1 38.25 -89.65 40.65 -91.7 44.15 -92.45 L49.0 -95.0 Q52.85 -97.1 56.3 -99.65 L56.15 -106.95 55.9 -120.0 52.3 -115.1 Q53.6 -106.15 51.6 -97.3 L51.25 -96.5 Q49.75 -100.05 50.45 -105.6 L51.8 -114.55 Q45.9 -107.6 37.6 -102.5 36.05 -101.55 34.6 -100.45 L31.55 -98.1 Q26.75 -94.1 21.55 -90.75 L15.25 -87.05 10.35 -84.6 9.75 -84.35 9.2 -84.1 8.7 -83.9 Q5.15 -82.3 2.4 -79.6 L2.35 -79.55 2.0 -79.25 1.65 -78.9 1.6 -77.65 2.55 -78.6 2.9 -78.85 2.95 -78.9 9.35 -80.15 10.4 -80.4 10.85 -80.5 15.65 -81.7 16.6 -81.95 16.85 -82.05 21.05 -83.25 29.3 -86.0 M52.75 -146.75 L52.6 -145.3 52.25 -144.5 51.0 -144.0 Q48.35 -143.7 48.0 -146.0 L48.15 -146.7 48.75 -147.5 50.0 -147.85 50.0 -148.0 52.15 -147.3 52.75 -146.75 M51.3 -123.9 L52.0 -124.15 Q53.75 -124.25 54.4 -122.65 L54.5 -122.15 53.9 -121.15 53.45 -120.7 Q51.15 -119.9 50.2 -122.0 49.9 -123.4 51.3 -123.9 M48.0 -45.95 Q43.6 -65.95 44.25 -88.2 L44.25 -88.95 Q41.9 -90.15 38.75 -87.7 L38.3 -80.25 38.0 -79.7 Q37.0 -83.45 37.15 -87.7 L37.15 -87.8 37.15 -87.75 30.55 -84.95 27.95 -83.95 21.45 -81.55 20.85 -81.35 15.75 -79.7 11.8 -78.55 11.05 -78.35 10.75 -78.25 10.35 -78.15 11.1 -77.35 11.25 -76.7 Q9.25 -48.25 7.85 -18.7 L7.75 -17.05 7.25 -12.75 7.2 -13.45 7.0 -16.0 6.9 -17.6 6.85 -17.6 Q6.15 -28.85 7.2 -41.3 L10.25 -78.15 8.95 -77.8 1.75 -76.15 1.75 -68.05 1.65 -61.05 1.6 -49.6 1.6 -45.9 Q1.75 -33.3 0.85 -20.75 0.15 -10.85 0.65 -1.05 L1.05 5.25 2.55 6.8 13.2 3.8 17.65 2.5 Q17.65 0.85 17.25 -0.75 L17.5 -0.95 Q20.5 -3.3 24.55 -4.0 L26.25 -4.25 25.85 -4.0 24.8 -3.35 24.45 -3.15 19.1 -0.05 18.5 0.5 18.5 2.0 18.5 2.25 18.6 2.25 24.95 0.4 56.55 -8.6 57.6 -42.55 57.05 -42.9 56.4 -63.65 55.95 -64.05 56.0 -69.75 56.3 -99.2 Q54.2 -97.2 51.7 -95.5 48.7 -93.5 45.5 -91.75 44.8 -69.25 48.15 -46.8 L48.2 -46.65 48.35 -45.45 48.25 -44.7 48.0 -45.95 M31.95 -18.6 Q32.5 -27.45 33.9 -36.15 L34.25 -36.2 Q33.4 -26.1 32.85 -15.8 L32.55 -10.75 32.5 -10.0 33.05 -9.3 33.5 -8.75 33.0 -8.75 31.5 -8.75 31.95 -18.6 M5.9 -93.05 Q6.35 -93.5 7.0 -93.5 7.65 -93.5 8.1 -93.05 L8.4 -92.7 8.55 -91.95 8.55 -91.7 8.1 -90.85 Q7.65 -90.4 7.0 -90.4 6.35 -90.4 5.9 -90.85 5.45 -91.3 5.45 -91.95 5.45 -92.6 5.9 -93.05 M-25.2 -117.2 L-26.15 -117.85 -26.5 -117.75 Q-26.9 -129.25 -26.35 -140.85 -33.8 -146.25 -40.45 -152.65 L-42.4 -117.05 -38.5 -112.7 -38.4 -114.25 Q-38.35 -114.7 -37.75 -114.5 L-37.5 -111.6 -31.6 -105.75 Q-24.0 -98.45 -15.05 -93.25 -9.2 -89.8 -4.3 -85.2 L-0.3 -81.15 0.25 -80.55 0.3 -82.05 Q0.35 -91.15 -0.2 -100.05 L-0.2 -100.55 Q-11.95 -107.95 -23.05 -115.7 L-25.2 -117.2 M-6.75 -370.2 Q-7.45 -366.8 -8.7 -363.45 L-9.0 -362.7 -10.5 -361.7 -7.35 -369.8 Q-7.25 -370.1 -6.75 -370.2 M-15.9 -368.55 L-16.5 -367.7 Q-16.15 -366.5 -17.1 -366.0 -17.25 -365.95 -17.5 -366.2 -17.85 -368.05 -16.35 -369.05 L-15.75 -369.2 Q-15.75 -368.85 -15.9 -368.55 M-25.55 -307.4 Q-35.4 -304.75 -43.0 -297.2 L-37.95 -288.35 -37.0 -288.2 -34.2 -285.3 -31.7 -288.6 Q-30.6 -289.9 -29.15 -290.65 -23.35 -293.75 -17.2 -295.6 -21.0 -299.65 -24.0 -306.2 L-25.5 -306.2 -25.55 -307.4 M-39.15 -256.95 L-39.55 -262.55 -43.9 -262.2 -39.15 -256.95 M-8.65 -260.2 L-7.0 -260.0 Q-0.9 -254.3 -4.9 -247.55 L-5.5 -246.6 Q-9.55 -240.7 -15.7 -243.8 L-16.4 -244.15 -16.85 -244.45 -17.05 -244.6 -17.3 -244.8 -17.65 -245.05 -17.8 -245.15 -17.95 -245.3 -18.1 -245.45 -20.25 -250.25 -20.05 -252.3 -20.1 -252.25 -20.0 -252.75 Q-18.05 -262.0 -8.65 -260.2 M-8.75 -245.95 L-6.8 -247.15 Q-5.55 -250.0 -6.05 -253.1 L-6.3 -255.3 Q-8.7 -259.55 -13.5 -258.55 -19.15 -254.8 -17.65 -249.3 -17.25 -247.85 -16.35 -246.3 -15.95 -245.6 -15.1 -245.45 L-15.0 -245.4 -14.85 -245.4 -14.7 -245.35 Q-11.45 -244.75 -8.75 -245.95 M-48.9 -238.05 L-52.8 -235.2 -35.9 -231.35 -35.75 -231.3 -35.6 -231.25 -35.45 -231.6 Q-35.05 -232.95 -34.9 -234.25 -34.25 -239.25 -37.3 -243.6 -38.15 -244.75 -39.4 -245.0 L-48.9 -238.05 M-25.75 -211.2 Q-26.8 -206.85 -26.75 -202.2 L-27.0 -201.7 Q-28.4 -206.4 -26.15 -211.05 L-25.75 -211.2 M-7.75 -165.2 L-1.3 -159.85 -0.75 -159.2 Q-4.8 -160.5 -8.25 -165.15 L-7.75 -165.2 M-15.0 -155.7 Q-13.85 -157.2 -9.95 -158.35 L-6.75 -159.2 Q-8.45 -156.65 -12.7 -156.1 L-15.0 -155.7 M-34.25 -143.25 L-36.0 -142.0 -38.0 -143.25 -37.9 -144.75 -37.75 -145.5 Q-36.85 -146.0 -36.05 -146.6 L-36.0 -146.75 -34.75 -146.25 -34.15 -144.0 -34.25 -143.25 M-38.85 -118.6 Q-38.4 -119.1 -37.7 -119.1 -37.0 -119.1 -36.5 -118.6 -36.05 -118.1 -36.05 -117.4 -36.05 -116.7 -36.5 -116.2 -37.0 -115.7 -37.7 -115.7 -38.4 -115.7 -38.85 -116.2 -39.35 -116.7 -39.35 -117.4 -39.35 -118.1 -38.85 -118.6 M-31.0 -102.35 L-37.3 -108.45 Q-36.95 -101.3 -37.5 -94.05 -30.25 -88.35 -21.15 -85.7 L-4.25 -80.25 -1.3 -79.15 -0.7 -78.95 0.2 -78.6 -0.65 -79.25 0.2 -80.2 -0.6 -80.6 -4.3 -82.6 Q-18.9 -90.85 -31.0 -102.35 M-21.85 -103.35 L-22.55 -103.15 -24.35 -104.05 Q-25.15 -105.4 -24.0 -106.4 L-23.3 -106.95 Q-21.55 -106.8 -20.85 -105.3 L-20.75 -104.8 -21.4 -103.75 -21.85 -103.35 M-38.7 -109.8 L-42.55 -113.7 -43.2 -98.55 -42.45 -98.45 Q-40.35 -96.3 -38.0 -94.45 -39.1 -101.65 -38.7 -109.8 M-6.65 -90.15 Q-7.4 -90.15 -7.9 -90.75 -8.45 -91.4 -8.45 -92.25 -8.45 -93.1 -7.9 -93.7 -7.4 -94.35 -6.65 -94.35 -5.9 -94.35 -5.35 -93.7 -4.85 -93.1 -4.85 -92.25 -4.85 -91.4 -5.35 -90.75 -5.9 -90.15 -6.65 -90.15 M-1.75 -16.5 L-1.45 -37.15 -1.0 -51.2 -0.3 -68.0 0.2 -77.95 -1.75 -78.05 -4.25 -78.35 Q-11.75 -79.35 -18.8 -82.5 L-20.55 -83.3 Q-22.05 -76.0 -21.3 -68.25 -21.1 -66.2 -21.95 -64.7 -22.85 -70.35 -22.55 -76.5 L-22.45 -80.2 Q-23.1 -81.55 -24.45 -82.55 L-25.2 -83.2 -26.45 -83.2 Q-26.0 -81.35 -26.45 -79.4 -26.85 -77.85 -27.7 -76.45 L-29.15 -85.45 Q-29.35 -86.8 -28.85 -87.35 -34.45 -90.15 -39.85 -93.2 L-43.3 -96.15 -43.9 -82.55 -43.4 -82.0 -44.65 -68.95 -44.75 -67.0 -44.9 -46.2 -44.45 -46.2 Q-41.9 -43.9 -38.85 -42.25 L-38.45 -41.7 -38.65 -41.15 -39.45 -40.7 -41.25 -42.15 -42.45 -42.95 -43.35 -42.15 -43.7 -41.45 -44.45 -40.7 -44.85 -40.3 -44.8 -37.45 -44.7 -24.3 -45.1 -9.75 -2.75 4.4 -2.75 4.0 -2.65 -5.6 -2.75 -5.75 Q-2.7 -8.35 -3.0 -11.0 L-3.25 -13.25 -4.45 -12.4 -5.25 -11.75 -7.4 -11.8 -7.75 -12.25 Q-4.85 -13.85 -2.6 -16.1 L-2.0 -16.5 -1.75 -16.45 -1.75 -16.5 M-29.95 -19.05 Q-25.2 -25.3 -17.35 -30.05 L-16.7 -30.25 -29.65 -18.75 -30.1 -18.35 -30.95 -17.75 -29.95 -19.05 M-16.45 -36.7 Q-21.45 -35.4 -25.8 -32.35 L-26.95 -31.75 Q-24.9 -34.3 -20.2 -36.7 L-18.95 -37.45 -16.8 -37.05 -16.45 -36.7" fill="#333333" fill-rule="evenodd" stroke="none"/>
    <path d="M-32.55 -368.55 L-32.6 -368.55 -31.7 -367.95 -32.55 -368.55 M52.6 -355.25 L53.45 -356.2 52.6 -355.25 M19.4 -288.55 L20.1 -288.9 20.1 -288.45 19.4 -288.55 M33.4 -246.15 Q29.95 -246.3 27.0 -248.35 22.4 -251.5 22.65 -255.2 L23.0 -255.2 Q31.55 -256.4 33.8 -248.7 L34.0 -247.95 33.4 -246.15 M61.7 -242.35 L61.75 -242.35 53.45 -238.1 51.1 -238.65 Q49.2 -241.25 49.15 -243.7 55.6 -243.65 61.7 -242.35 M0.8 -129.0 L0.6 -128.75 0.55 -128.85 0.8 -129.0 M54.15 -120.0 L54.15 -119.95 53.45 -120.7 54.15 -120.0 M-41.0 -356.2 L-40.95 -356.15 -40.65 -355.85 -40.95 -355.55 -41.25 -356.0 -41.3 -356.05 -41.0 -356.2 M-35.2 -353.9 L-33.75 -354.2 -33.55 -353.75 -33.6 -353.7 -35.05 -353.35 -35.15 -353.3 -35.2 -353.9 M-39.15 -256.95 L-43.9 -262.2 -39.55 -262.55 -39.15 -256.95 M-17.65 -249.3 L-16.45 -250.4 -15.75 -250.95 -15.2 -251.1 -14.0 -251.35 -14.0 -251.45 Q-11.95 -251.3 -10.55 -249.9 L-10.0 -249.2 Q-9.15 -247.6 -8.75 -245.95 -11.45 -244.75 -14.7 -245.35 L-14.85 -245.4 -15.0 -245.4 -15.1 -245.45 Q-15.95 -245.6 -16.35 -246.3 -17.25 -247.85 -17.65 -249.3 M-48.9 -238.05 L-48.55 -238.25 -39.95 -237.15 -38.95 -237.2 -37.7 -236.75 Q-35.7 -236.1 -34.9 -234.25 -35.05 -232.95 -35.45 -231.6 L-35.75 -231.3 -35.9 -231.35 -52.8 -235.2 -48.9 -238.05" fill="#666666" fill-rule="evenodd" stroke="none"/>
    <path d="M22.65 -255.2 L22.65 -255.25 23.0 -255.2 22.65 -255.2 M-35.75 -231.3 L-35.45 -231.6 -35.6 -231.25 -35.75 -231.3" fill="#ffffff" fill-rule="evenodd" stroke="none"/>
    <path d="M15.2 -421.55 L15.25 -421.6 15.4 -421.35 15.2 -421.55 M30.9 -310.5 L30.65 -310.55 31.0 -310.95 30.9 -310.5 M-48.1 -369.25 L-48.15 -370.0 -48.0 -370.05 -48.1 -369.25 M-3.25 -403.0 L-3.5 -403.7 -3.4 -404.25 -3.0 -403.2 -3.25 -403.0 M41.75 -361.7 Q44.7 -358.7 48.5 -357.55 L52.1 -357.7 49.5 -355.7 Q44.4 -354.5 40.8 -358.05 39.05 -359.7 38.25 -361.95 39.05 -365.25 41.1 -368.05 L42.0 -369.2 41.75 -361.7 M15.55 -284.35 L15.6 -285.4 16.2 -285.25 16.0 -285.0 15.55 -284.35 M50.0 -158.15 L50.95 -163.5 52.15 -163.15 54.35 -160.5 54.35 -160.45 50.0 -158.15 M0.6 -128.75 L0.45 -128.6 0.4 -128.6 0.55 -128.85 0.6 -128.75 M36.05 -152.2 L36.9 -152.4 40.65 -153.6 41.15 -153.8 40.65 -153.6 39.0 -152.8 36.3 -151.6 36.05 -152.2 M-42.55 -358.25 L-42.75 -357.85 -42.75 -358.7 -42.55 -358.25" fill="#5a5a5a" fill-rule="evenodd" stroke="none"/>
    <path d="M37.15 -87.7 L37.15 -87.75 37.15 -87.8 37.15 -87.7 M18.6 2.25 L18.5 2.25 18.5 2.0 18.6 2.25" fill="#7b4f4f" fill-rule="evenodd" stroke="none"/>
    <path d="M48.25 -286.45 L49.0 -279.95 Q35.9 -285.6 22.0 -288.1 L21.95 -289.75 21.9 -290.95 Q21.7 -294.05 22.15 -297.0 L29.35 -296.8 Q32.3 -296.4 35.05 -295.45 39.1 -294.1 42.75 -291.5 45.75 -289.35 48.25 -286.45 M46.8 -223.3 L37.5 -224.4 Q39.2 -225.9 40.45 -228.95 L42.75 -229.1 Q44.25 -227.85 47.0 -227.5 L47.0 -227.45 46.8 -223.3 M27.75 -225.2 L23.7 -225.45 23.5 -225.7 18.0 -225.95 17.8 -225.75 6.55 -225.95 Q8.45 -226.9 10.75 -229.2 L11.2 -230.0 Q12.35 -232.45 12.3 -234.3 L13.2 -235.0 Q14.25 -235.85 14.55 -237.05 12.85 -241.8 7.85 -242.45 L7.3 -242.45 3.3 -239.2 3.3 -238.6 Q0.75 -237.4 -1.0 -234.7 -2.45 -232.45 -1.45 -230.05 -0.25 -227.05 1.5 -225.9 L-27.6 -224.0 Q-28.35 -238.0 -27.7 -252.2 -27.35 -259.8 -28.0 -267.2 L-26.45 -267.7 Q-26.35 -253.8 -27.0 -240.7 L-26.7 -241.25 Q-24.7 -254.5 -25.7 -267.95 -15.35 -271.4 -4.65 -272.6 L-6.25 -271.2 -6.05 -270.65 -5.0 -269.95 Q-1.3 -271.6 2.5 -271.2 2.25 -268.5 2.5 -265.9 3.15 -259.45 4.25 -254.7 4.7 -257.3 4.65 -259.95 4.5 -265.65 3.5 -271.2 L4.3 -272.8 4.35 -273.2 21.95 -272.15 33.55 -271.15 Q41.4 -270.4 47.9 -266.35 L47.65 -247.4 Q42.2 -243.45 41.0 -235.75 L40.95 -235.3 Q38.95 -236.05 36.75 -236.4 L34.6 -235.6 34.05 -233.9 Q30.2 -232.1 27.5 -228.2 L27.5 -227.45 27.6 -225.95 27.75 -225.2 M17.55 -256.65 L18.25 -272.2 Q17.55 -272.4 17.5 -271.95 16.65 -263.4 16.4 -255.05 16.2 -247.1 16.55 -239.3 16.75 -233.95 17.25 -228.7 L17.4 -229.45 17.3 -238.55 Q20.4 -236.1 23.4 -239.5 25.95 -242.4 29.75 -243.45 L31.4 -244.0 30.9 -244.0 Q34.85 -243.95 38.6 -247.4 41.7 -250.2 42.4 -254.4 36.5 -262.8 26.6 -264.1 25.35 -264.05 24.25 -262.95 L22.1 -260.25 Q19.4 -258.9 17.55 -256.65 M38.95 -214.0 Q31.55 -213.9 23.85 -214.1 L19.05 -214.25 18.15 -214.3 17.85 -214.3 17.75 -214.45 Q19.05 -216.9 18.65 -219.7 L18.45 -222.25 21.85 -222.3 22.25 -218.0 22.5 -217.2 23.65 -217.65 24.0 -218.2 24.2 -222.35 35.45 -223.0 39.3 -222.7 Q39.5 -218.35 38.95 -214.0 M3.15 -222.8 L9.8 -222.55 16.7 -222.3 16.65 -221.45 16.55 -214.35 3.95 -214.7 Q4.3 -219.3 3.15 -222.8 M12.7 -201.95 L12.9 -186.1 13.25 -150.75 Q5.9 -150.2 -1.55 -150.6 -13.3 -151.1 -24.6 -154.2 L-26.7 -154.85 -21.7 -163.8 -21.5 -163.95 -21.6 -164.0 -9.25 -186.1 -0.45 -201.8 12.7 -201.95 M18.25 -201.95 L18.25 -201.5 20.0 -200.25 21.0 -200.5 21.2 -201.05 21.45 -201.95 31.35 -201.95 Q31.9 -201.5 32.75 -201.95 L38.25 -201.95 38.0 -195.45 37.55 -186.1 37.4 -175.95 Q37.5 -163.55 31.55 -153.45 L22.2 -151.75 15.05 -150.95 Q14.9 -152.6 14.9 -154.25 15.05 -170.25 14.85 -186.1 L14.55 -201.95 18.25 -201.95 M19.3 -161.95 L19.0 -161.75 Q18.9 -161.15 18.95 -160.55 L19.25 -159.0 21.0 -158.5 21.95 -159.1 22.5 -159.75 22.15 -160.4 20.5 -162.0 20.0 -162.0 19.3 -161.95 M1.4 -186.1 L1.35 -186.05 -5.65 -173.95 -8.05 -175.95 Q-6.65 -179.5 -5.75 -183.2 -6.25 -183.1 -6.35 -182.8 L-9.0 -176.4 Q-9.7 -176.25 -10.2 -175.85 L-10.0 -175.45 -9.6 -175.05 -12.5 -168.7 -11.5 -168.95 -11.0 -169.75 -8.8 -174.15 -6.75 -171.95 -9.0 -167.7 -8.35 -168.3 -6.15 -171.25 0.5 -163.45 Q1.0 -163.6 1.35 -163.9 L1.5 -164.45 0.9 -165.3 Q-1.35 -169.8 -4.8 -173.2 -0.75 -179.4 2.2 -186.1 L2.25 -186.2 1.4 -186.1 M22.0 -177.5 L22.55 -178.8 22.5 -179.5 22.15 -180.0 20.0 -180.75 19.1 -180.4 Q18.05 -179.75 18.25 -178.5 19.65 -176.55 22.0 -177.5 M32.55 -194.95 Q32.35 -191.65 32.75 -188.45 L34.25 -187.7 33.5 -189.2 33.55 -189.95 Q33.7 -192.65 33.25 -195.2 32.55 -195.4 32.55 -194.95 M16.6 -81.95 L15.65 -81.7 10.85 -80.5 10.4 -80.4 9.35 -80.15 2.95 -78.9 2.9 -78.85 2.55 -78.6 1.6 -77.65 1.65 -78.9 2.0 -79.25 2.35 -79.55 2.4 -79.6 Q5.15 -82.3 8.7 -83.9 L9.2 -84.1 9.75 -84.35 10.35 -84.6 15.25 -87.05 21.55 -90.75 Q26.75 -94.1 31.55 -98.1 L34.6 -100.45 Q36.05 -101.55 37.6 -102.5 45.9 -107.6 51.8 -114.55 L50.45 -105.6 Q49.75 -100.05 51.25 -96.5 L51.6 -97.3 Q53.6 -106.15 52.3 -115.1 L55.9 -120.0 56.15 -106.95 56.3 -99.65 Q52.85 -97.1 49.0 -95.0 L44.15 -92.45 Q40.65 -91.7 38.25 -89.65 34.7 -88.1 31.15 -86.7 L29.3 -86.0 29.85 -86.7 Q32.3 -89.25 31.75 -92.0 L31.2 -92.65 30.0 -93.25 Q27.55 -92.55 25.25 -90.25 19.4 -89.15 16.25 -83.75 L16.35 -83.05 16.6 -81.95 M37.15 -87.7 Q37.0 -83.45 38.0 -79.7 L38.3 -80.25 38.75 -87.7 Q41.9 -90.15 44.25 -88.95 L44.25 -88.2 Q43.6 -65.95 48.0 -45.95 46.8 -38.85 51.0 -33.0 L50.5 -31.55 Q48.45 -26.35 47.5 -21.0 L48.05 -20.3 Q49.3 -18.55 51.0 -17.25 41.3 -10.65 32.5 -3.0 L31.6 -3.0 31.5 -3.25 Q32.6 -6.1 33.0 -8.75 L33.5 -8.75 33.05 -9.3 Q33.5 -12.7 32.85 -15.8 33.4 -26.1 34.25 -36.2 L33.9 -36.15 Q32.5 -27.45 31.95 -18.6 30.5 -22.05 27.5 -25.0 28.1 -26.55 28.05 -28.0 27.85 -40.9 28.25 -54.25 L27.5 -55.0 26.35 -54.8 25.75 -54.25 25.8 -52.0 Q26.2 -35.25 18.5 -22.0 L19.6 -20.55 Q21.05 -18.65 23.0 -17.45 27.9 -14.35 25.6 -8.3 24.75 -6.05 24.55 -4.0 20.5 -3.3 17.5 -0.95 L17.8 -1.15 17.0 -1.75 18.15 -3.15 Q21.8 -7.1 19.5 -11.5 14.45 -13.75 9.25 -13.5 L9.0 -14.3 Q8.85 -16.1 7.75 -17.05 L7.85 -18.7 Q9.25 -48.25 11.25 -76.7 L11.1 -77.35 10.35 -78.15 10.75 -78.25 11.05 -78.35 11.8 -78.55 Q12.9 -76.35 15.5 -78.0 L18.0 -77.5 17.95 -76.25 Q17.85 -75.1 18.25 -74.0 19.35 -72.55 21.0 -72.0 21.5 -72.15 21.85 -72.45 L22.75 -73.5 22.65 -75.0 21.45 -81.55 27.95 -83.95 30.55 -84.95 37.15 -87.75 37.15 -87.7 M48.15 -46.8 Q44.8 -69.25 45.5 -91.75 48.7 -93.5 51.7 -95.5 54.2 -97.2 56.3 -99.2 L56.0 -69.75 54.75 -65.25 Q52.75 -58.5 49.9 -52.15 48.65 -49.4 48.15 -46.8 M24.95 0.4 L18.6 2.25 18.5 2.0 18.5 0.5 19.1 -0.05 24.45 -3.15 Q24.4 -1.25 24.95 0.4 M0.85 -20.75 Q1.75 -33.3 1.6 -45.9 L1.6 -49.6 1.65 -61.05 1.75 -68.05 1.75 -76.15 8.95 -77.8 10.25 -78.15 7.2 -41.3 Q6.15 -28.85 6.85 -17.6 L5.25 -18.0 5.2 -18.5 5.0 -19.25 4.45 -19.85 2.0 -21.25 0.9 -20.9 0.85 -20.75 M40.0 -43.75 Q36.55 -43.1 34.75 -39.5 34.65 -38.25 35.15 -37.1 L36.25 -35.0 Q39.4 -32.4 42.75 -34.0 L43.25 -34.75 Q47.3 -41.4 40.0 -43.75 M36.5 -57.5 L36.0 -58.25 Q34.9 -59.75 33.0 -59.5 L32.1 -59.15 30.5 -58.0 30.45 -56.5 Q30.35 -54.6 30.75 -52.75 L33.0 -51.5 34.0 -51.85 34.75 -52.25 35.4 -53.8 36.5 -57.5 M36.4 -69.45 Q35.75 -71.1 34.0 -71.5 L34.0 -71.4 33.05 -71.2 32.5 -71.0 32.0 -70.55 Q29.8 -69.1 29.5 -66.75 29.5 -66.4 29.65 -66.1 L30.25 -65.25 Q30.4 -64.5 30.8 -63.95 30.9 -63.75 31.25 -63.75 34.7 -65.4 36.5 -68.75 L36.4 -69.45 M0.65 -1.05 Q4.6 3.35 11.0 2.75 L13.2 3.8 2.55 6.8 1.05 5.25 0.65 -1.05 M-8.65 -260.2 Q-18.05 -262.0 -20.0 -252.75 L-20.1 -252.25 -20.05 -252.3 -20.25 -250.25 -18.1 -245.45 -17.95 -245.3 -17.8 -245.15 -17.65 -245.05 -17.3 -244.8 -17.05 -244.6 -16.85 -244.45 -16.4 -244.15 -15.7 -243.8 Q-9.55 -240.7 -5.5 -246.6 L-4.9 -247.55 Q-0.9 -254.3 -7.0 -260.0 L-8.65 -260.2 M-15.0 -155.7 L-12.7 -156.1 Q-8.45 -156.65 -6.75 -159.2 L-9.95 -158.35 Q-13.85 -157.2 -15.0 -155.7 M-7.75 -165.2 L-8.25 -165.15 Q-4.8 -160.5 -0.75 -159.2 L-1.3 -159.85 -7.75 -165.2 M-1.75 -16.5 L-1.75 -16.45 -2.0 -16.5 -1.75 -16.5" fill="#613f3f" fill-rule="evenodd" stroke="none"/>
    <path d="M47.9 -266.35 L47.9 -266.4 49.25 -265.5 50.55 -264.55 50.8 -264.4 54.15 -262.35 53.4 -252.55 52.7 -252.6 Q49.65 -250.5 48.35 -247.85 46.55 -244.3 48.0 -239.75 48.9 -236.9 51.45 -235.55 L53.45 -234.5 54.2 -234.35 52.15 -222.55 46.8 -223.3 47.0 -227.45 47.0 -227.5 Q44.25 -227.85 42.75 -229.1 L43.1 -229.15 48.5 -230.6 48.75 -230.7 Q45.2 -233.8 40.95 -235.3 L41.0 -235.75 Q42.2 -243.45 47.65 -247.4 L47.9 -266.35 M37.5 -224.4 L27.75 -225.2 27.6 -225.95 27.5 -227.45 27.5 -228.2 Q30.2 -232.1 34.05 -233.9 L33.15 -231.25 34.8 -229.6 35.25 -229.5 37.4 -229.15 40.25 -228.95 40.45 -228.95 Q39.2 -225.9 37.5 -224.4 M6.55 -225.95 L1.5 -225.9 Q-0.25 -227.05 -1.45 -230.05 -2.45 -232.45 -1.0 -234.7 0.75 -237.4 3.3 -238.6 L3.3 -234.85 Q8.15 -231.4 12.3 -234.3 12.35 -232.45 11.2 -230.0 L10.75 -229.2 Q8.45 -226.9 6.55 -225.95 M-27.6 -224.0 L-35.05 -223.1 -35.35 -228.2 Q-31.15 -231.35 -31.8 -237.45 -32.5 -244.25 -38.05 -248.2 -35.85 -255.55 -36.0 -263.45 L-34.55 -263.7 Q-33.95 -263.95 -33.45 -264.4 L-33.05 -264.95 -33.0 -265.3 -28.0 -267.2 Q-27.35 -259.8 -27.7 -252.2 -28.35 -238.0 -27.6 -224.0 M19.4 -288.55 L10.85 -289.6 Q-0.85 -290.45 -12.25 -287.5 -23.4 -284.4 -33.15 -277.9 L-33.25 -279.2 -33.9 -279.85 -34.15 -284.35 -33.9 -284.55 -33.85 -284.75 -33.95 -285.05 Q-20.6 -294.4 -3.65 -296.75 6.8 -297.85 17.5 -296.8 L19.1 -296.9 19.15 -296.75 20.0 -295.2 20.1 -291.45 20.1 -288.9 19.4 -288.55 M17.55 -256.65 Q19.4 -258.9 22.1 -260.25 18.9 -255.2 21.55 -249.35 22.1 -248.2 23.2 -247.3 L24.85 -246.1 30.9 -244.0 31.4 -244.0 29.75 -243.45 Q25.95 -242.4 23.4 -239.5 20.4 -236.1 17.3 -238.55 17.3 -247.7 17.55 -256.65 M38.95 -214.0 Q39.5 -218.35 39.3 -222.7 L43.8 -221.9 Q47.85 -221.0 51.5 -219.15 L50.75 -214.4 38.95 -214.0 M3.15 -222.8 Q4.3 -219.3 3.95 -214.7 L-35.25 -215.5 -36.15 -218.8 -35.6 -218.95 -35.05 -219.85 Q-16.05 -223.15 3.15 -222.8 M-26.7 -154.85 L-32.15 -156.5 -32.35 -160.85 -33.05 -161.95 -34.7 -211.9 -25.75 -212.1 -20.1 -212.15 Q-21.4 -204.55 -21.5 -195.45 L-21.6 -186.1 -21.75 -176.7 -21.55 -177.5 -20.85 -186.1 Q-19.9 -199.1 -19.75 -212.15 L-10.8 -212.2 4.95 -211.9 7.25 -211.8 13.2 -211.55 Q12.55 -209.75 12.6 -207.25 L12.7 -201.95 -0.45 -201.8 -9.25 -186.1 -21.6 -164.0 -22.5 -164.7 -22.95 -164.75 Q-23.85 -164.85 -24.1 -163.95 L-24.5 -162.45 -23.8 -162.6 -21.7 -163.8 -26.7 -154.85 M18.25 -201.95 L14.55 -201.95 14.3 -211.55 22.55 -211.45 22.9 -206.2 Q22.95 -204.45 24.0 -203.45 25.4 -205.5 25.3 -208.45 L25.25 -209.95 28.25 -210.2 28.75 -209.95 29.7 -209.35 30.25 -208.7 Q30.0 -206.0 30.6 -203.45 30.85 -202.4 31.35 -201.95 L21.45 -201.95 21.5 -202.5 21.15 -203.1 20.0 -203.75 19.1 -203.4 Q18.25 -202.9 18.25 -201.95 M31.55 -153.45 Q37.5 -163.55 37.4 -175.95 L37.55 -186.1 38.0 -195.45 38.25 -201.95 32.75 -201.95 Q31.75 -204.85 32.0 -207.95 L32.25 -211.4 49.45 -211.3 48.2 -158.3 Q42.0 -156.0 34.85 -154.25 L31.55 -153.45 M-25.75 -211.2 L-26.15 -211.05 Q-28.4 -206.4 -27.0 -201.7 L-26.75 -202.2 Q-26.8 -206.85 -25.75 -211.2 M-31.0 -102.35 Q-18.9 -90.85 -4.3 -82.6 L-0.6 -80.6 0.2 -80.2 -0.65 -79.25 0.2 -78.6 -0.7 -78.95 -1.3 -79.15 -4.25 -80.25 -21.15 -85.7 Q-30.25 -88.35 -37.5 -94.05 -36.95 -101.3 -37.3 -108.45 L-31.0 -102.35 M-38.7 -109.8 Q-39.1 -101.65 -38.0 -94.45 -40.35 -96.3 -42.45 -98.45 L-43.2 -98.55 -42.55 -113.7 -38.7 -109.8 M-44.7 -24.3 L-44.8 -37.45 -44.85 -40.3 -44.45 -40.7 -43.7 -41.45 -43.35 -42.15 -42.45 -42.95 -41.25 -42.15 -39.45 -40.7 -38.65 -41.15 -38.45 -41.7 -38.85 -42.25 Q-41.9 -43.9 -44.45 -46.2 L-44.9 -46.2 -44.75 -67.0 -44.65 -68.95 -43.4 -82.0 -43.9 -82.55 -43.3 -96.15 -39.85 -93.2 Q-34.45 -90.15 -28.85 -87.35 -29.35 -86.8 -29.15 -85.45 L-27.7 -76.45 Q-26.85 -77.85 -26.45 -79.4 -26.0 -81.35 -26.45 -83.2 L-25.2 -83.2 -24.45 -82.55 Q-23.1 -81.55 -22.45 -80.2 L-22.55 -76.5 Q-22.85 -70.35 -21.95 -64.7 -21.1 -66.2 -21.3 -68.25 -22.05 -76.0 -20.55 -83.3 L-18.8 -82.5 Q-11.75 -79.35 -4.25 -78.35 L-1.75 -78.05 0.2 -77.95 -0.3 -68.0 -1.0 -51.2 -1.45 -37.15 -1.75 -16.5 -2.0 -16.5 -2.6 -16.1 Q-4.85 -13.85 -7.75 -12.25 L-7.4 -11.8 -5.25 -11.75 -4.45 -12.4 -3.25 -13.25 -3.0 -11.0 Q-2.7 -8.35 -2.75 -5.75 L-2.65 -5.6 -2.75 4.0 Q-5.8 1.9 -8.9 -0.05 L-8.55 -0.55 -7.75 -2.0 Q-7.85 -2.4 -8.1 -2.65 -9.35 -3.9 -8.5 -5.0 L-7.5 -6.5 -7.6 -7.2 Q-9.15 -11.7 -14.25 -13.75 L-14.5 -14.5 -14.75 -15.25 -15.0 -15.25 -15.3 -15.15 -15.75 -14.0 -16.95 -12.5 Q-18.7 -10.15 -18.5 -7.25 L-14.7 -3.5 Q-18.9 -5.85 -23.25 -8.0 -23.05 -9.2 -23.5 -10.25 -25.15 -14.55 -29.25 -17.0 L-29.4 -17.75 -29.5 -18.5 -29.65 -18.75 -16.7 -30.25 -17.35 -30.05 Q-25.2 -25.3 -29.95 -19.05 L-30.05 -19.15 -32.0 -20.5 Q-34.35 -19.0 -36.65 -18.7 L-36.25 -19.25 -35.65 -24.5 -32.75 -45.5 Q-21.95 -45.35 -23.0 -56.25 L-23.55 -56.85 -26.0 -58.25 -26.0 -58.15 -27.75 -57.75 Q-28.85 -56.9 -29.45 -55.6 -30.05 -54.25 -31.4 -53.95 -36.75 -52.8 -40.0 -50.0 L-39.8 -49.45 -37.5 -47.0 Q-37.3 -44.4 -37.65 -41.7 L-40.0 -19.25 -39.7 -18.85 -41.95 -19.75 -42.8 -22.0 -43.45 -23.5 -44.7 -24.3 M-8.5 -48.75 L-8.9 -48.65 -10.0 -47.75 -9.95 -47.0 Q-9.85 -45.0 -11.0 -43.25 L-10.95 -42.5 Q-9.7 -31.95 -15.0 -22.25 L-13.0 -21.0 -11.5 -21.75 -11.15 -22.45 Q-2.7 -35.2 -8.5 -48.75 M-5.5 -70.75 Q-6.45 -71.0 -6.6 -70.45 -8.95 -62.05 -10.5 -54.25 -8.3 -55.0 -6.75 -57.25 L-6.5 -58.0 Q-5.15 -64.5 -5.5 -70.75 M-36.3 -63.75 Q-37.15 -65.35 -39.0 -65.75 -39.65 -65.65 -40.1 -64.8 -41.0 -63.2 -41.0 -61.25 L-40.15 -60.6 -39.0 -60.0 -38.0 -60.25 -36.85 -61.6 -36.0 -63.0 -36.3 -63.75 M-35.6 -78.45 Q-36.55 -80.7 -39.0 -80.5 L-39.95 -80.15 Q-41.7 -79.35 -42.2 -77.5 L-42.0 -76.0 Q-41.75 -74.6 -40.75 -73.75 L-39.5 -73.75 -38.8 -74.55 -38.5 -75.25 -37.0 -75.8 Q-35.75 -76.4 -35.5 -77.75 L-35.6 -78.45 M-16.45 -36.7 L-16.8 -37.05 -18.95 -37.45 -20.2 -36.7 Q-24.9 -34.3 -26.95 -31.75 L-25.8 -32.35 Q-21.45 -35.4 -16.45 -36.7" fill="#563838" fill-rule="evenodd" stroke="none"/>
    <path d="M62.95 -374.5 Q38.05 -391.6 21.4 -416.45 18.35 -421.0 16.05 -425.85 13.7 -430.65 11.9 -435.85 10.05 -441.05 8.75 -446.45 L8.0 -447.2 6.25 -446.7 Q5.2 -437.6 -0.8 -430.4 -5.2 -425.2 -9.05 -419.55 -15.7 -409.85 -22.65 -400.5 L-36.75 -381.8 Q-41.25 -375.9 -47.75 -372.9 -46.45 -386.9 -47.85 -401.65 -49.25 -416.45 -47.55 -477.85 -45.45 -478.8 -43.65 -480.1 -39.95 -482.75 -35.45 -483.0 -9.85 -484.45 15.75 -484.4 L23.0 -484.4 Q41.2 -484.25 57.8 -477.65 61.95 -475.95 65.4 -473.15 L64.25 -472.45 64.25 -471.7 64.25 -470.2 63.5 -469.45 Q62.35 -447.1 62.15 -424.45 61.95 -399.05 63.6 -375.15 L63.45 -375.15 62.95 -374.5 M-36.25 -380.2 Q-36.4 -375.9 -36.2 -371.5 L-36.1 -368.85 -37.05 -368.45 -38.3 -366.15 Q-41.7 -363.25 -42.75 -358.7 L-42.75 -357.85 -42.7 -357.55 -42.7 -357.35 -42.65 -357.15 -42.6 -356.8 Q-41.5 -351.55 -36.3 -350.75 -26.65 -349.5 -27.0 -358.65 L-27.15 -360.45 -27.3 -361.2 -27.4 -361.55 -27.45 -361.85 -27.55 -362.15 -27.6 -362.3 -27.7 -362.6 -31.7 -367.95 -32.6 -368.55 Q-18.05 -384.8 -3.75 -401.3 L-3.5 -399.45 Q5.35 -393.95 13.25 -401.7 13.6 -407.85 10.0 -413.7 L7.3 -413.9 15.2 -421.55 15.4 -421.35 Q26.05 -403.05 41.05 -389.15 38.6 -385.35 35.5 -381.85 14.35 -357.8 -8.7 -335.4 L-19.6 -324.45 -10.5 -325.3 -8.0 -325.45 Q11.25 -326.55 29.35 -322.5 L28.05 -311.05 Q6.7 -314.9 -15.5 -312.45 L-16.3 -312.3 Q-20.55 -311.7 -24.5 -310.55 -24.65 -320.6 -23.75 -330.2 -24.45 -330.4 -24.5 -329.95 -25.8 -320.0 -25.6 -310.2 -36.05 -307.0 -44.45 -299.9 L-44.6 -299.85 -45.1 -302.45 Q-45.85 -307.1 -45.95 -311.95 -46.35 -331.95 -47.2 -351.85 L-48.1 -369.25 -48.0 -370.05 Q-43.5 -371.55 -39.25 -374.2 L-38.95 -375.2 -38.65 -375.95 Q-37.8 -378.25 -36.25 -380.2 M59.5 -352.4 Q58.35 -334.3 58.15 -316.2 L58.15 -315.0 58.15 -313.75 58.15 -311.85 58.15 -309.65 58.2 -298.05 Q52.05 -304.9 43.0 -307.55 37.0 -309.3 30.9 -310.5 L31.0 -310.95 Q29.9 -311.95 29.75 -313.2 L29.95 -313.95 30.55 -322.2 35.05 -321.1 Q40.35 -319.65 45.35 -317.4 L51.45 -314.25 Q54.85 -333.4 59.5 -352.4 M-3.0 -403.2 L8.25 -403.2 10.65 -406.2 11.5 -403.2 Q6.1 -397.3 -0.8 -400.6 -2.55 -401.4 -3.25 -403.0 L-3.0 -403.2 M40.2 -369.45 L40.25 -369.45 39.6 -368.6 37.3 -361.65 37.3 -361.45 37.3 -361.3 37.3 -361.0 37.3 -360.85 37.3 -360.65 37.3 -360.5 37.3 -360.25 37.35 -359.8 37.35 -359.55 37.4 -359.2 37.45 -358.85 37.45 -358.65 37.5 -358.45 Q42.05 -351.8 50.0 -352.95 L50.55 -353.35 51.65 -354.3 52.6 -355.25 53.45 -356.2 Q53.2 -354.6 52.2 -352.6 50.8 -349.8 47.95 -348.3 40.05 -344.2 35.15 -350.9 32.0 -355.25 33.0 -360.95 34.2 -367.55 40.2 -369.45 M2.0 -389.7 L1.2 -390.35 -0.75 -391.45 -0.9 -391.4 Q-2.4 -389.7 1.5 -388.7 2.0 -388.85 2.15 -389.15 L2.0 -389.7 M2.6 -298.9 Q-5.1 -298.6 -12.6 -296.8 L-16.65 -295.75 -23.7 -307.85 -15.75 -308.85 -1.0 -309.95 Q14.05 -310.55 28.6 -307.85 L28.75 -307.4 Q25.55 -305.25 23.25 -302.45 21.4 -301.55 20.75 -299.7 20.1 -299.4 19.65 -298.95 11.2 -299.7 2.6 -298.9 M23.0 -300.7 L24.2 -301.55 Q27.45 -304.35 29.85 -307.6 35.55 -306.55 41.2 -304.95 48.2 -302.95 53.8 -298.3 L56.0 -296.45 56.25 -293.45 51.15 -284.85 Q50.15 -291.75 43.3 -294.0 33.0 -297.5 22.5 -298.7 L23.0 -300.7 M1.6 -274.7 L-12.2 -273.95 Q-23.65 -273.95 -32.95 -267.55 L-33.05 -274.9 Q-20.9 -282.6 -8.3 -284.95 4.3 -287.35 9.35 -286.55 L14.5 -285.65 14.8 -283.55 Q13.75 -282.5 12.5 -281.7 L6.5 -277.85 7.0 -280.95 6.7 -281.7 6.25 -282.45 Q5.65 -282.65 5.55 -282.15 4.9 -279.3 5.55 -277.25 L1.6 -274.7 M-40.65 -355.85 Q-39.05 -354.3 -36.7 -353.9 L-35.2 -353.9 -35.15 -353.3 Q-38.7 -352.5 -40.95 -355.55 L-40.65 -355.85 M-33.75 -354.2 Q-31.0 -357.0 -30.55 -361.05 L-30.4 -363.35 Q-26.2 -356.15 -33.55 -353.75 L-33.75 -354.2 M-15.9 -368.55 Q-15.75 -368.85 -15.75 -369.2 L-16.35 -369.05 Q-17.85 -368.05 -17.5 -366.2 -17.25 -365.95 -17.1 -366.0 -16.15 -366.5 -16.5 -367.7 L-15.9 -368.55 M-6.75 -370.2 Q-7.25 -370.1 -7.35 -369.8 L-10.5 -361.7 -9.0 -362.7 -8.7 -363.45 Q-7.45 -366.8 -6.75 -370.2 M-25.55 -307.4 L-25.5 -306.2 -24.0 -306.2 Q-21.0 -299.65 -17.2 -295.6 -23.35 -293.75 -29.15 -290.65 -30.6 -289.9 -31.7 -288.6 L-34.2 -285.3 -37.0 -288.2 -37.95 -288.35 -43.0 -297.2 Q-35.4 -304.75 -25.55 -307.4" fill="#4a4a4a" fill-rule="evenodd" stroke="none"/>
    <path d="M14.2 -134.6 L9.05 -131.9 Q5.1 -129.9 0.8 -129.0 L0.55 -128.85 0.4 -128.6 Q-21.55 -138.05 -38.5 -155.05 L-34.7 -156.55 -34.85 -153.6 Q-10.85 -145.95 13.25 -148.05 L13.25 -148.0 13.4 -148.05 Q24.7 -149.05 36.05 -152.2 L36.3 -151.6 39.0 -152.8 Q26.75 -143.55 14.2 -134.6 M0.05 -126.45 L0.5 -126.35 -0.1 -119.6 Q-0.7 -111.25 -0.35 -102.8 -13.05 -110.2 -25.65 -118.2 -25.5 -118.4 -25.5 -118.75 L-25.45 -119.5 Q-25.4 -129.7 -24.8 -139.75 -20.45 -136.7 -15.8 -133.95 L-14.5 -133.2 Q-14.8 -123.25 -14.0 -113.7 L-13.7 -114.25 Q-13.35 -123.5 -13.65 -132.7 -7.1 -129.1 0.0 -126.5 L0.05 -126.45 M-23.05 -115.7 Q-11.95 -107.95 -0.2 -100.55 L-0.2 -100.05 Q0.35 -91.15 0.3 -82.05 L0.25 -80.55 -0.3 -81.15 -4.3 -85.2 Q-9.2 -89.8 -15.05 -93.25 -24.0 -98.45 -31.6 -105.75 L-37.5 -111.6 -37.75 -114.5 Q-38.35 -114.7 -38.4 -114.25 L-38.5 -112.7 -42.4 -117.05 -40.45 -152.65 Q-33.8 -146.25 -26.35 -140.85 -26.9 -129.25 -26.5 -117.75 L-26.15 -117.85 -25.2 -117.2 -25.95 -116.9 -27.0 -116.25 -27.15 -115.5 Q-27.3 -113.45 -26.25 -111.75 L-25.0 -111.25 -23.85 -111.9 -22.75 -113.0 -22.8 -113.7 Q-22.6 -114.85 -23.05 -115.7 M-34.25 -143.25 L-34.15 -144.0 -34.75 -146.25 -36.0 -146.75 -36.05 -146.6 Q-36.85 -146.0 -37.75 -145.5 L-37.9 -144.75 -38.0 -143.25 -36.0 -142.0 -34.25 -143.25 M-38.85 -118.6 Q-39.35 -118.1 -39.35 -117.4 -39.35 -116.7 -38.85 -116.2 -38.4 -115.7 -37.7 -115.7 -37.0 -115.7 -36.5 -116.2 -36.05 -116.7 -36.05 -117.4 -36.05 -118.1 -36.5 -118.6 -37.0 -119.1 -37.7 -119.1 -38.4 -119.1 -38.85 -118.6 M-21.85 -103.35 L-21.4 -103.75 -20.75 -104.8 -20.85 -105.3 Q-21.55 -106.8 -23.3 -106.95 L-24.0 -106.4 Q-25.15 -105.4 -24.35 -104.05 L-22.55 -103.15 -21.85 -103.35 M-6.65 -90.15 Q-5.9 -90.15 -5.35 -90.75 -4.85 -91.4 -4.85 -92.25 -4.85 -93.1 -5.35 -93.7 -5.9 -94.35 -6.65 -94.35 -7.4 -94.35 -7.9 -93.7 -8.45 -93.1 -8.45 -92.25 -8.45 -91.4 -7.9 -90.75 -7.4 -90.15 -6.65 -90.15" fill="#505050" fill-rule="evenodd" stroke="none"/>
    <path d="M54.35 -160.5 Q54.6 -159.35 53.8 -158.7 44.0 -150.6 33.05 -144.25 L32.55 -143.95 Q26.95 -140.75 21.1 -138.0 L14.2 -134.6 Q26.75 -143.55 39.0 -152.8 L40.65 -153.6 41.15 -153.8 Q45.75 -155.55 50.0 -158.15 L54.35 -160.45 54.35 -160.5 M20.75 -109.9 L23.5 -111.5 Q23.6 -109.8 25.5 -110.95 L25.5 -111.7 25.5 -112.7 33.0 -117.2 33.5 -110.25 32.95 -109.85 Q32.4 -109.35 32.4 -108.65 32.4 -107.95 32.95 -107.4 33.3 -107.05 33.8 -106.95 L34.0 -104.7 34.25 -105.2 34.2 -106.9 Q34.95 -106.9 35.5 -107.4 L35.6 -107.5 Q36.0 -108.0 36.0 -108.65 L35.55 -109.8 35.5 -109.85 Q34.95 -110.4 34.2 -110.4 L34.1 -110.4 33.85 -117.7 35.5 -118.75 35.2 -119.1 34.0 -119.5 33.8 -119.4 33.3 -141.4 Q40.25 -145.55 46.85 -150.4 L56.3 -157.6 Q54.65 -146.75 55.35 -135.75 L55.9 -121.7 54.15 -120.0 53.45 -120.7 54.15 -119.95 Q45.0 -111.2 35.05 -103.25 28.5 -98.05 21.6 -93.2 L20.45 -92.4 15.1 -89.1 Q12.9 -87.9 10.6 -86.95 L10.05 -86.7 9.4 -86.4 8.6 -86.05 4.4 -83.7 Q2.95 -82.8 1.65 -81.7 L1.5 -99.65 Q2.1 -98.75 3.5 -99.5 L3.7 -100.05 3.75 -100.75 Q8.05 -102.75 12.15 -105.05 L16.85 -107.65 Q16.6 -102.25 13.0 -98.0 14.35 -94.65 18.25 -96.5 L18.75 -97.25 21.0 -101.0 21.0 -101.75 Q20.8 -103.15 19.75 -104.0 L20.1 -104.8 20.0 -105.5 19.65 -106.3 19.25 -107.75 19.7 -107.65 Q21.45 -106.6 22.25 -108.5 L22.1 -109.05 20.75 -109.9 M26.8 -137.75 L32.5 -140.95 Q32.3 -129.9 32.9 -119.0 L32.6 -118.85 25.45 -114.4 Q25.05 -125.3 23.35 -135.95 L26.8 -137.75 M1.75 -101.25 L1.5 -101.7 1.3 -126.3 Q12.35 -130.5 22.8 -135.65 24.1 -123.95 23.55 -113.25 12.55 -106.6 1.5 -100.4 L1.5 -100.7 1.6 -100.75 1.75 -101.25 M8.5 -117.7 L9.0 -118.7 8.55 -119.5 8.25 -120.2 7.8 -119.85 Q7.3 -118.55 8.5 -117.7 M52.75 -146.75 L52.15 -147.3 50.0 -148.0 50.0 -147.85 48.75 -147.5 48.15 -146.7 48.0 -146.0 Q48.35 -143.7 51.0 -144.0 L52.25 -144.5 52.6 -145.3 52.75 -146.75 M44.15 -124.4 L44.5 -125.0 44.35 -125.75 44.25 -126.5 44.6 -127.3 44.75 -128.75 44.2 -129.4 43.0 -130.0 Q40.7 -129.25 38.5 -127.25 39.5 -124.35 43.0 -123.75 43.65 -124.0 44.15 -124.4 M51.3 -123.9 Q49.9 -123.4 50.2 -122.0 51.15 -119.9 53.45 -120.7 L53.9 -121.15 54.5 -122.15 54.4 -122.65 Q53.75 -124.25 52.0 -124.15 L51.3 -123.9 M41.9 -115.05 L41.25 -117.25 40.85 -117.15 Q40.2 -115.6 41.0 -114.25 L42.25 -114.25 41.9 -115.05 M5.9 -93.05 Q5.45 -92.6 5.45 -91.95 5.45 -91.3 5.9 -90.85 6.35 -90.4 7.0 -90.4 7.65 -90.4 8.1 -90.85 L8.55 -91.7 8.55 -91.95 8.4 -92.7 8.1 -93.05 Q7.65 -93.5 7.0 -93.5 6.35 -93.5 5.9 -93.05" fill="#626262" fill-rule="evenodd" stroke="none"/>
    <path d="M22.65 -255.25 Q22.85 -258.45 26.65 -262.0 L28.85 -262.35 Q34.35 -258.55 38.95 -252.75 L37.9 -250.5 Q36.95 -248.15 35.35 -246.25 L33.4 -246.15 34.0 -247.95 33.8 -248.7 Q31.55 -256.4 23.0 -255.2 L22.65 -255.25 M34.8 -232.3 L36.05 -235.05 42.6 -232.3 35.35 -231.25 34.8 -232.3 M12.2 -236.1 Q8.35 -233.3 5.1 -236.65 L5.1 -238.3 7.45 -240.45 11.1 -239.4 12.2 -236.1 M49.15 -243.7 Q48.95 -247.25 52.55 -250.4 L64.65 -243.9 61.7 -242.35 Q55.6 -243.65 49.15 -243.7 M54.7 -220.9 L54.3 -221.45 54.75 -224.9 Q57.55 -222.6 59.6 -220.0 56.75 -218.95 54.25 -217.4 54.4 -219.15 54.7 -220.9 M-8.75 -245.95 Q-9.15 -247.6 -10.0 -249.2 L-10.55 -249.9 Q-11.95 -251.3 -14.0 -251.45 L-14.0 -251.35 -15.2 -251.1 -15.75 -250.95 -16.45 -250.4 -17.65 -249.3 Q-19.15 -254.8 -13.5 -258.55 -8.7 -259.55 -6.3 -255.3 L-6.05 -253.1 Q-5.55 -250.0 -6.8 -247.15 L-8.75 -245.95 M-34.9 -234.25 Q-35.7 -236.1 -37.7 -236.75 L-38.95 -237.2 -39.95 -237.15 -48.55 -238.25 -48.9 -238.05 -39.4 -245.0 Q-38.15 -244.75 -37.3 -243.6 -34.25 -239.25 -34.9 -234.25" fill="#bfbfbf" fill-rule="evenodd" stroke="none"/>
    <path d="M-36.25 -380.2 L-35.15 -381.55 Q-32.15 -384.75 -29.45 -388.25 -10.6 -412.75 7.25 -437.95 L9.3 -433.75 Q11.9 -427.45 15.25 -421.6 L15.2 -421.55 7.3 -413.9 6.75 -413.95 5.0 -415.7 2.5 -415.95 Q-1.75 -413.55 -3.6 -408.9 L-4.3 -407.05 -5.0 -406.95 -4.5 -406.2 -3.75 -401.3 Q-18.05 -384.8 -32.6 -368.55 L-32.55 -368.55 -34.25 -369.45 -37.05 -368.45 -36.1 -368.85 -36.2 -371.5 Q-36.4 -375.9 -36.25 -380.2 M41.05 -389.15 Q50.9 -379.95 62.65 -372.7 60.1 -363.15 59.5 -353.0 L59.5 -352.45 59.5 -352.4 Q54.85 -333.4 51.45 -314.25 L45.35 -317.4 Q40.35 -319.65 35.05 -321.1 L30.55 -322.2 Q31.7 -340.15 31.25 -358.2 30.55 -358.4 30.55 -357.95 30.95 -340.0 29.35 -322.5 11.25 -326.55 -8.0 -325.45 L-10.5 -325.3 -19.6 -324.45 -8.7 -335.4 Q14.35 -357.8 35.5 -381.85 38.6 -385.35 41.05 -389.15 M7.0 -411.95 L8.3 -412.65 10.2 -407.85 7.5 -405.45 -2.75 -405.7 Q-1.0 -410.05 2.5 -413.45 L4.25 -413.7 7.0 -411.95 M53.45 -356.2 Q58.55 -362.65 53.5 -370.95 L53.75 -372.45 49.15 -374.0 48.75 -374.45 Q44.4 -374.2 41.0 -370.4 L40.2 -369.45 Q34.2 -367.55 33.0 -360.95 32.0 -355.25 35.15 -350.9 40.05 -344.2 47.95 -348.3 50.8 -349.8 52.2 -352.6 53.2 -354.6 53.45 -356.2 M50.5 -371.45 Q54.3 -366.55 53.05 -360.2 47.3 -357.8 43.0 -362.45 42.0 -367.5 45.05 -371.75 L50.5 -371.45 M16.2 -285.25 L19.6 -285.05 19.5 -284.7 20.5 -284.95 20.55 -284.95 20.9 -284.95 Q36.8 -283.0 51.4 -276.3 L49.8 -267.6 Q38.9 -272.55 26.7 -274.05 L7.85 -274.85 1.6 -274.7 5.55 -277.25 Q5.8 -276.4 6.25 -275.7 L6.4 -276.45 6.5 -277.85 12.5 -281.7 Q13.75 -282.5 14.8 -283.55 L15.0 -282.7 15.35 -283.25 15.55 -284.35 16.0 -285.0 16.2 -285.25 M-38.3 -366.15 L-36.95 -367.2 Q-35.55 -368.15 -34.0 -367.7 L-33.25 -366.95 -35.0 -364.7 -33.75 -364.9 -32.05 -364.95 Q-31.65 -360.3 -34.5 -356.45 L-41.0 -356.2 -41.3 -356.05 -42.55 -358.25 -42.75 -358.7 Q-41.7 -363.25 -38.3 -366.15" fill="#555555" fill-rule="evenodd" stroke="none"/>
    <path d="M16.85 -107.65 L16.85 -107.7 20.7 -109.9 20.75 -109.9 22.1 -109.05 22.25 -108.5 Q21.45 -106.6 19.7 -107.65 L19.25 -107.75 19.65 -106.3 20.0 -105.5 20.1 -104.8 19.75 -104.0 Q20.8 -103.15 21.0 -101.75 L21.0 -101.0 18.75 -97.25 18.25 -96.5 Q14.35 -94.65 13.0 -98.0 16.6 -102.25 16.85 -107.65 M29.3 -86.0 L21.05 -83.25 16.85 -82.05 16.6 -81.95 16.35 -83.05 16.25 -83.75 Q19.4 -89.15 25.25 -90.25 27.55 -92.55 30.0 -93.25 L31.2 -92.65 31.75 -92.0 Q32.3 -89.25 29.85 -86.7 L29.3 -86.0 M44.15 -124.4 Q43.65 -124.0 43.0 -123.75 39.5 -124.35 38.5 -127.25 40.7 -129.25 43.0 -130.0 L44.2 -129.4 44.75 -128.75 44.6 -127.3 44.25 -126.5 44.35 -125.75 44.5 -125.0 44.15 -124.4 M41.9 -115.05 L42.25 -114.25 41.0 -114.25 Q40.2 -115.6 40.85 -117.15 L41.25 -117.25 41.9 -115.05 M21.45 -81.55 L22.65 -75.0 22.75 -73.5 21.85 -72.45 Q21.5 -72.15 21.0 -72.0 19.35 -72.55 18.25 -74.0 17.85 -75.1 17.95 -76.25 L18.0 -77.5 15.5 -78.0 Q12.9 -76.35 11.8 -78.55 L15.75 -79.7 20.85 -81.35 21.45 -81.55 M7.75 -17.05 Q8.85 -16.1 9.0 -14.3 L9.25 -13.5 Q14.45 -13.75 19.5 -11.5 21.8 -7.1 18.15 -3.15 L17.0 -1.75 17.8 -1.15 17.5 -0.95 17.25 -0.75 Q17.65 0.85 17.65 2.5 L13.2 3.8 11.0 2.75 Q4.6 3.35 0.65 -1.05 0.15 -10.85 0.85 -20.75 L0.9 -20.9 2.0 -21.25 4.45 -19.85 5.0 -19.25 5.2 -18.5 5.25 -18.0 6.85 -17.6 6.9 -17.6 7.0 -16.0 7.2 -13.45 7.25 -12.75 7.75 -17.05 M24.55 -4.0 Q24.75 -6.05 25.6 -8.3 27.9 -14.35 23.0 -17.45 21.05 -18.65 19.6 -20.55 L18.5 -22.0 Q26.2 -35.25 25.8 -52.0 L25.75 -54.25 26.35 -54.8 27.5 -55.0 28.25 -54.25 Q27.85 -40.9 28.05 -28.0 28.1 -26.55 27.5 -25.0 30.5 -22.05 31.95 -18.6 L31.5 -8.75 33.0 -8.75 Q32.6 -6.1 31.5 -3.25 L31.6 -3.0 32.5 -3.0 Q41.3 -10.65 51.0 -17.25 49.3 -18.55 48.05 -20.3 L47.5 -21.0 Q48.45 -26.35 50.5 -31.55 L51.0 -33.0 Q46.8 -38.85 48.0 -45.95 L48.25 -44.7 48.35 -45.45 48.2 -46.65 48.15 -46.8 Q48.65 -49.4 49.9 -52.15 52.75 -58.5 54.75 -65.25 L56.0 -69.75 55.95 -64.05 56.4 -63.65 57.05 -42.9 57.6 -42.55 56.55 -8.6 24.95 0.4 Q24.4 -1.25 24.45 -3.15 L24.8 -3.35 25.85 -4.0 26.25 -4.25 24.55 -4.0 M32.85 -15.8 Q33.5 -12.7 33.05 -9.3 L32.5 -10.0 32.55 -10.75 32.85 -15.8 M-23.05 -115.7 Q-22.6 -114.85 -22.8 -113.7 L-22.75 -113.0 -23.85 -111.9 -25.0 -111.25 -26.25 -111.75 Q-27.3 -113.45 -27.15 -115.5 L-27.0 -116.25 -25.95 -116.9 -25.2 -117.2 -23.05 -115.7 M36.4 -69.45 L36.5 -68.75 Q34.7 -65.4 31.25 -63.75 30.9 -63.75 30.8 -63.95 30.4 -64.5 30.25 -65.25 L29.65 -66.1 Q29.5 -66.4 29.5 -66.75 29.8 -69.1 32.0 -70.55 L32.5 -71.0 33.05 -71.2 34.0 -71.4 34.0 -71.5 Q35.75 -71.1 36.4 -69.45 M36.5 -57.5 L35.4 -53.8 34.75 -52.25 34.0 -51.85 33.0 -51.5 30.75 -52.75 Q30.35 -54.6 30.45 -56.5 L30.5 -58.0 32.1 -59.15 33.0 -59.5 Q34.9 -59.75 36.0 -58.25 L36.5 -57.5 M40.0 -43.75 Q47.3 -41.4 43.25 -34.75 L42.75 -34.0 Q39.4 -32.4 36.25 -35.0 L35.15 -37.1 Q34.65 -38.25 34.75 -39.5 36.55 -43.1 40.0 -43.75 M-2.75 4.0 L-2.75 4.4 -45.1 -9.75 -44.7 -24.3 -43.45 -23.5 -42.8 -22.0 -41.95 -19.75 -39.7 -18.85 -40.0 -19.25 -37.65 -41.7 Q-37.3 -44.4 -37.5 -47.0 L-39.8 -49.45 -40.0 -50.0 Q-36.75 -52.8 -31.4 -53.95 -30.05 -54.25 -29.45 -55.6 -28.85 -56.9 -27.75 -57.75 L-26.0 -58.15 -26.0 -58.25 -23.55 -56.85 -23.0 -56.25 Q-21.95 -45.35 -32.75 -45.5 L-35.65 -24.5 -36.25 -19.25 -36.65 -18.7 Q-34.35 -19.0 -32.0 -20.5 L-30.05 -19.15 -29.95 -19.05 -30.95 -17.75 -30.1 -18.35 -29.65 -18.75 -29.5 -18.5 -29.4 -17.75 -29.25 -17.0 Q-25.15 -14.55 -23.5 -10.25 -23.05 -9.2 -23.25 -8.0 -18.9 -5.85 -14.7 -3.5 L-18.5 -7.25 Q-18.7 -10.15 -16.95 -12.5 L-15.75 -14.0 -15.3 -15.15 -15.0 -15.25 -14.75 -15.25 -14.5 -14.5 -14.25 -13.75 Q-9.15 -11.7 -7.6 -7.2 L-7.5 -6.5 -8.5 -5.0 Q-9.35 -3.9 -8.1 -2.65 -7.85 -2.4 -7.75 -2.0 L-8.55 -0.55 -8.9 -0.05 Q-5.8 1.9 -2.75 4.0 M-35.6 -78.45 L-35.5 -77.75 Q-35.75 -76.4 -37.0 -75.8 L-38.5 -75.25 -38.8 -74.55 -39.5 -73.75 -40.75 -73.75 Q-41.75 -74.6 -42.0 -76.0 L-42.2 -77.5 Q-41.7 -79.35 -39.95 -80.15 L-39.0 -80.5 Q-36.55 -80.7 -35.6 -78.45 M-36.3 -63.75 L-36.0 -63.0 -36.85 -61.6 -38.0 -60.25 -39.0 -60.0 -40.15 -60.6 -41.0 -61.25 Q-41.0 -63.2 -40.1 -64.8 -39.65 -65.65 -39.0 -65.75 -37.15 -65.35 -36.3 -63.75 M-5.5 -70.75 Q-5.15 -64.5 -6.5 -58.0 L-6.75 -57.25 Q-8.3 -55.0 -10.5 -54.25 -8.95 -62.05 -6.6 -70.45 -6.45 -71.0 -5.5 -70.75 M-8.5 -48.75 Q-2.7 -35.2 -11.15 -22.45 L-11.5 -21.75 -13.0 -21.0 -15.0 -22.25 Q-9.7 -31.95 -10.95 -42.5 L-11.0 -43.25 Q-9.85 -45.0 -9.95 -47.0 L-10.0 -47.75 -8.9 -48.65 -8.5 -48.75" fill="#543030" fill-rule="evenodd" stroke="none"/>
  </g>
</svg>
