<?xml version="1.0" encoding="UTF-8" standalone="no"?>
<svg xmlns:xlink="http://www.w3.org/1999/xlink" height="46.15px" width="104.2px" xmlns="http://www.w3.org/2000/svg">
  <g transform="matrix(1.0, 0.0, 0.0, 1.0, 10.5, 20.75)">
    <path d="M9.25 -0.85 Q9.6 -1.2 10.1 -1.2 10.6 -1.2 10.95 -0.85 L11.3 0.0 10.95 0.85 Q10.6 1.2 10.1 1.2 9.6 1.2 9.25 0.85 8.9 0.5 8.9 0.0 8.9 -0.5 9.25 -0.85 M18.0 -6.65 L15.6 -0.15 Q11.75 10.85 14.75 22.15 L19.9 22.45 Q19.35 17.75 19.25 13.1 19.15 6.4 20.85 0.1 22.45 -5.9 26.05 -10.85 L22.2 -13.45 Q19.5 -10.4 18.0 -6.65 M13.2 -9.35 L13.95 -10.3 14.9 -10.3 15.55 -9.35 14.6 -8.55 13.2 -9.35 M34.55 -11.3 L27.5 -9.4 Q25.95 -7.25 24.7 -4.9 17.95 8.2 22.25 22.0 L31.2 22.85 Q30.35 5.45 34.55 -11.3 M9.15 -16.85 Q19.65 -18.0 28.3 -11.85 43.1 -15.65 57.45 -10.0 60.0 -12.55 63.35 -13.5 L66.45 -14.1 73.45 -20.75 80.4 -17.85 Q82.8 -16.85 84.9 -15.15 L84.8 -14.55 84.65 -14.15 84.45 -13.7 84.05 -13.3 83.55 -12.7 83.2 -12.15 Q86.35 -12.65 89.2 -11.25 L90.55 -10.1 Q93.85 -5.4 93.7 0.2 L89.55 0.1 88.5 1.0 Q90.1 2.5 91.2 4.3 92.45 6.35 91.45 8.6 90.35 11.05 88.5 13.0 L80.95 12.65 78.4 11.05 Q74.8 9.25 70.65 9.5 L66.55 12.75 60.35 17.35 Q57.8 19.0 54.95 20.35 38.8 28.3 21.2 23.75 18.75 24.95 16.05 24.45 1.9 21.7 -7.2 10.8 -8.25 9.5 -8.9 8.0 -12.95 -1.35 -6.65 -9.4 L-6.65 -9.85 -4.9 -11.25 Q1.35 -15.85 9.15 -16.85 M61.6 -5.6 L60.85 -5.7 Q51.5 -10.15 41.15 -11.2 45.15 -4.4 45.25 3.6 45.35 13.2 42.75 22.25 54.3 19.4 64.1 12.45 66.65 10.65 69.4 9.3 76.3 5.7 82.3 10.8 L87.3 10.9 90.05 6.75 84.8 0.5 86.15 -0.25 89.05 -1.1 91.85 -1.7 91.0 -4.6 Q90.1 -7.35 88.5 -9.8 L80.5 -10.35 82.5 -14.5 74.4 -18.25 Q71.05 -15.2 67.35 -12.85 65.55 -11.65 63.55 -12.1 L59.4 -8.75 61.95 -6.45 61.6 -5.6 M40.65 -11.2 L35.0 -11.35 Q31.4 5.6 32.55 22.95 L40.85 22.6 Q45.75 5.6 40.65 -11.2 M12.9 21.75 Q10.65 13.25 12.5 4.6 14.65 -5.75 20.9 -13.9 8.35 -17.1 -3.2 -10.7 -4.15 -10.15 -4.8 -9.3 -11.2 -1.45 -6.8 7.85 L-5.45 9.95 Q1.95 18.35 12.9 21.75 M7.8 10.95 L8.15 10.7 8.9 10.3 9.9 11.05 Q10.8 11.85 10.3 12.85 L9.55 13.2 Q7.75 12.8 7.8 10.95" fill="#000000" fill-rule="evenodd" stroke="none"/>
    <path d="M34.55 -11.3 Q30.35 5.45 31.2 22.85 L22.25 22.0 Q17.95 8.2 24.7 -4.9 25.95 -7.25 27.5 -9.4 L34.55 -11.3 M40.65 -11.2 Q45.75 5.6 40.85 22.6 L32.55 22.95 Q31.4 5.6 35.0 -11.35 L40.65 -11.2" fill="#2d2d2d" fill-rule="evenodd" stroke="none"/>
    <path d="M13.2 -9.35 L14.6 -8.55 15.55 -9.35 14.9 -10.3 13.95 -10.3 13.2 -9.35 M18.0 -6.65 Q19.5 -10.4 22.2 -13.45 L26.05 -10.85 Q22.45 -5.9 20.85 0.1 19.15 6.4 19.25 13.1 19.35 17.75 19.9 22.45 L14.75 22.15 Q11.75 10.85 15.6 -0.15 L18.0 -6.65 M9.25 -0.85 Q8.9 -0.5 8.9 0.0 8.9 0.5 9.25 0.85 9.6 1.2 10.1 1.2 10.6 1.2 10.95 0.85 L11.3 0.0 10.95 -0.85 Q10.6 -1.2 10.1 -1.2 9.6 -1.2 9.25 -0.85 M61.6 -5.6 L61.95 -6.45 59.4 -8.75 63.55 -12.1 Q65.55 -11.65 67.35 -12.85 71.05 -15.2 74.4 -18.25 L82.5 -14.5 80.5 -10.35 88.5 -9.8 Q90.1 -7.35 91.0 -4.6 L91.85 -1.7 89.05 -1.1 86.15 -0.25 84.8 0.5 90.05 6.75 87.3 10.9 82.3 10.8 Q76.3 5.7 69.4 9.3 66.65 10.65 64.1 12.45 54.3 19.4 42.75 22.25 45.35 13.2 45.25 3.6 45.15 -4.4 41.15 -11.2 51.5 -10.15 60.85 -5.7 L61.6 -5.6 M7.8 10.95 Q7.75 12.8 9.55 13.2 L10.3 12.85 Q10.8 11.85 9.9 11.05 L8.9 10.3 8.15 10.7 7.8 10.95 M12.9 21.75 Q1.95 18.35 -5.45 9.95 L-6.8 7.85 Q-11.2 -1.45 -4.8 -9.3 -4.15 -10.15 -3.2 -10.7 8.35 -17.1 20.9 -13.9 14.65 -5.75 12.5 4.6 10.65 13.25 12.9 21.75" fill="#555555" fill-rule="evenodd" stroke="none"/>
  </g>
</svg>
