<?xml version="1.0" encoding="UTF-8" standalone="no"?>
<svg xmlns:xlink="http://www.w3.org/1999/xlink" height="89.9px" width="81.75px" xmlns="http://www.w3.org/2000/svg">
  <g transform="matrix(1.0, 0.0, 0.0, 1.0, 32.85, 72.15)">
    <path d="M47.25 -51.9 Q48.7 -47.0 48.9 -42.05 49.05 -37.85 47.2 -34.3 45.1 -24.6 39.8 -16.05 38.35 -13.65 36.0 -12.2 L32.7 -10.2 Q32.25 -7.9 31.25 -5.85 29.45 -2.25 30.8 1.65 L30.1 3.1 28.7 3.6 Q26.7 7.1 23.1 9.0 16.6 12.6 9.6 15.15 -2.6 19.8 -14.9 16.1 -24.2 13.2 -29.3 4.95 L-28.2 5.35 -31.0 1.05 Q-35.05 -21.05 -30.3 -43.3 -28.15 -53.4 -22.2 -61.75 L-22.5 -60.8 Q-10.45 -69.15 3.65 -71.55 L9.4 -72.15 Q13.85 -72.2 18.25 -71.1 32.55 -68.5 43.1 -58.6 46.05 -55.85 47.25 -51.9 M44.75 -54.65 L44.65 -54.95 Q36.3 -64.05 24.45 -67.65 23.35 -67.9 22.3 -68.3 7.55 -72.7 -7.2 -67.35 -15.45 -64.3 -22.6 -59.0 L-22.5 -50.5 27.95 -47.0 Q32.45 -53.2 38.85 -57.5 L44.4 -54.9 44.5 -54.6 40.8 -56.55 Q34.1 -53.75 29.75 -47.8 L28.8 -46.85 29.45 -46.0 28.7 -45.5 28.3 -45.65 Q19.5 -24.3 13.4 -1.9 -3.8 1.7 -21.1 -2.3 -23.6 -2.95 -24.8 -1.6 L-25.6 -1.4 Q-26.85 -5.75 -26.55 -11.0 -26.35 -14.8 -26.45 -18.6 -26.8 -36.0 -24.0 -53.25 -26.65 -28.35 -25.1 -3.4 L5.5 -1.8 Q9.25 -1.8 12.85 -2.85 18.3 -25.05 28.1 -45.75 L26.0 -46.3 14.3 -47.35 Q-3.3 -48.1 -21.1 -48.2 L-21.65 -48.6 -23.85 -48.85 -24.0 -49.45 -23.55 -50.1 -23.95 -55.7 -23.9 -56.7 -24.3 -55.7 Q-33.1 -36.4 -31.3 -15.05 -30.65 -7.45 -28.65 0.05 -10.4 7.85 9.05 3.75 15.65 2.25 21.95 0.1 25.55 -1.05 29.1 -2.35 L30.8 -9.5 22.3 -2.05 21.6 -1.9 29.95 -11.35 26.15 -18.75 31.15 -11.25 Q34.3 -12.65 36.45 -15.3 42.0 -22.4 45.1 -31.0 L46.25 -34.5 46.8 -35.3 44.75 -54.65 M26.4 -0.15 Q15.15 3.95 3.35 5.55 -6.5 6.5 -16.15 4.45 -22.3 3.05 -28.3 0.6 L-28.35 1.7 -28.1 2.85 -27.65 3.95 -26.7 5.6 -26.65 5.65 Q-11.4 12.3 5.05 9.55 L8.5 9.4 Q20.1 8.55 29.35 1.6 L28.9 -1.35 26.4 -0.15 M-2.9 16.35 Q4.45 15.9 11.55 13.1 18.85 10.25 25.0 5.65 14.75 10.7 3.0 10.8 L-1.15 11.05 Q-14.35 12.5 -25.7 6.9 -17.9 17.25 -2.9 16.35" fill="#000000" fill-rule="evenodd" stroke="none"/>
    <path d="M44.5 -54.6 L44.75 -54.65 46.8 -35.3 46.25 -34.5 45.1 -31.0 Q42.0 -22.4 36.45 -15.3 34.3 -12.65 31.15 -11.25 L26.15 -18.75 29.95 -11.35 21.6 -1.9 22.3 -2.05 30.8 -9.5 29.1 -2.35 Q25.55 -1.05 21.95 0.1 15.65 2.25 9.05 3.75 -10.4 7.85 -28.65 0.05 -30.65 -7.45 -31.3 -15.05 -33.1 -36.4 -24.3 -55.7 L-23.95 -55.7 -23.55 -50.1 -24.0 -49.45 -23.85 -48.85 -21.65 -48.6 -21.1 -48.2 Q-3.3 -48.1 14.3 -47.35 L26.0 -46.3 28.1 -45.75 Q18.3 -25.05 12.85 -2.85 9.25 -1.8 5.5 -1.8 L-25.1 -3.4 Q-26.65 -28.35 -24.0 -53.25 -26.8 -36.0 -26.45 -18.6 -26.35 -14.8 -26.55 -11.0 -26.85 -5.75 -25.6 -1.4 L-24.8 -1.6 Q-23.6 -2.95 -21.1 -2.3 -3.8 1.7 13.4 -1.9 19.5 -24.3 28.3 -45.65 L28.7 -45.5 29.45 -46.0 28.8 -46.85 29.75 -47.8 Q34.1 -53.75 40.8 -56.55 L44.5 -54.6 M44.65 -54.95 L44.4 -54.9 38.85 -57.5 Q32.45 -53.2 27.95 -47.0 L-22.5 -50.5 -22.6 -59.0 Q-15.45 -64.3 -7.2 -67.35 7.55 -72.7 22.3 -68.3 23.35 -67.9 24.45 -67.65 36.3 -64.05 44.65 -54.95 M26.4 -0.15 L28.9 -1.35 29.35 1.6 Q20.1 8.55 8.5 9.4 L5.05 9.55 Q-11.4 12.3 -26.65 5.65 L-26.7 5.6 -27.65 3.95 -28.1 2.85 -28.35 1.7 -28.3 0.6 Q-22.3 3.05 -16.15 4.45 -6.5 6.5 3.35 5.55 15.15 3.95 26.4 -0.15" fill="#333333" fill-rule="evenodd" stroke="none"/>
    <path d="M-2.9 16.35 Q-17.9 17.25 -25.7 6.9 -14.35 12.5 -1.15 11.05 L3.0 10.8 Q14.75 10.7 25.0 5.65 18.85 10.25 11.55 13.1 4.45 15.9 -2.9 16.35" fill="#555555" fill-rule="evenodd" stroke="none"/>
  </g>
</svg>
