<?xml version="1.0" encoding="UTF-8" standalone="no"?>
<svg xmlns:xlink="http://www.w3.org/1999/xlink" height="92.65px" width="100.75px" xmlns="http://www.w3.org/2000/svg">
  <g transform="matrix(1.0, 0.0, 0.0, 1.0, 53.15, 61.05)">
    <path d="M6.85 30.3 Q-7.6 31.55 -18.3 21.85 L-19.0 22.05 Q-23.35 18.5 -26.65 14.05 -31.55 7.45 -32.85 -0.6 -33.3 -3.3 -33.2 -5.95 -33.05 -9.4 -34.3 -12.55 L-43.0 -14.5 Q-40.1 -20.95 -35.5 -26.2 L-35.3 -31.4 -35.6 -27.8 Q-35.6 -31.85 -36.45 -35.65 -37.1 -38.6 -38.6 -41.35 L-39.15 -41.2 -43.55 -49.4 -43.05 -51.05 -53.0 -56.55 -53.15 -57.35 Q-38.4 -60.1 -23.4 -61.05 L-20.15 -54.2 -12.0 -52.35 -8.3 -50.9 Q-1.9 -47.6 4.85 -45.6 7.95 -44.75 10.75 -43.2 14.85 -40.95 19.45 -40.5 27.3 -34.9 33.65 -27.75 L39.85 -20.6 Q49.25 -9.65 47.25 4.55 L46.4 5.45 44.5 8.5 Q42.65 11.8 40.05 14.3 31.35 22.85 21.05 28.85 13.4 33.3 5.2 30.55 L6.85 30.4 Q11.65 30.0 16.2 28.6 L12.75 28.5 11.65 27.25 Q6.1 25.05 0.8 22.4 -2.7 24.65 -6.55 26.45 L-0.15 21.95 Q-5.95 19.1 -11.35 15.6 L-15.8 12.25 -19.7 8.4 -19.15 7.55 Q-18.05 -4.3 -14.4 -15.45 L-14.25 -15.45 -14.35 -12.7 -9.15 -25.05 3.7 -29.6 6.7 -38.15 4.15 -42.3 2.15 -43.0 5.05 -42.85 2.5 -44.4 Q-4.7 -44.55 -11.65 -42.9 L-17.5 -41.4 Q-25.9 -39.05 -31.35 -32.45 L-32.1 -31.15 Q-34.85 -26.05 -34.45 -20.2 -32.1 -26.9 -26.25 -31.2 L-25.2 -30.65 -27.8 -28.3 Q-30.25 -25.9 -32.1 -22.95 L-32.0 -23.25 -32.55 -22.35 -32.85 -21.85 -33.1 -21.45 -33.15 -21.4 -34.2 -19.4 -33.9 -14.9 -33.75 -13.5 -33.25 -13.55 -33.05 -13.8 -32.95 -13.75 Q-32.6 -12.35 -32.7 -10.95 L-31.75 -14.15 Q-29.3 -21.4 -23.95 -27.05 L-23.5 -32.75 -23.3 -35.25 -23.15 -31.5 -23.05 -28.95 -23.0 -27.45 -22.5 -27.3 -22.65 -27.15 -22.8 -27.0 -22.45 -26.95 Q-18.2 -28.0 -15.6 -25.6 L-23.8 -25.85 -23.8 -25.95 -23.85 -25.9 -25.0 -24.45 -26.3 -22.8 Q-28.8 -19.6 -30.25 -15.8 -33.85 -9.65 -31.9 -2.75 -28.15 10.4 -19.1 20.95 L-6.55 26.45 Q-0.1 28.85 6.85 30.3 M16.3 -39.3 Q10.65 -41.2 4.55 -42.2 L7.75 -37.95 Q22.3 -33.75 34.35 -24.9 28.1 -31.9 20.15 -37.25 L16.3 -39.3 M-8.5 -3.65 L13.6 9.55 16.0 6.45 14.0 9.8 Q24.2 15.4 35.45 16.55 42.3 10.3 45.95 2.05 L46.25 1.7 43.9 -11.7 43.25 -12.15 Q40.15 -20.0 33.15 -24.95 21.1 -33.5 7.1 -36.55 L4.3 -29.65 5.6 -29.85 -8.5 -23.65 Q-12.75 -17.55 -13.7 -10.1 L-13.15 -9.3 -13.15 -8.45 -8.5 -3.7 -8.55 -3.7 -8.5 -3.65 M1.8 -12.7 L16.85 -2.85 16.85 1.65 16.05 1.45 15.9 -1.65 3.3 -11.5 2.85 -11.35 Q1.1 -11.75 1.8 -12.7 M29.7 17.7 L13.65 10.3 Q9.8 15.5 4.7 19.55 L1.3 22.05 5.75 23.65 9.85 25.1 Q11.25 25.6 12.55 26.4 L13.55 27.15 21.0 26.85 21.95 26.4 Q28.9 23.25 33.85 17.95 L29.7 17.7 M27.95 0.7 L36.95 2.35 27.6 3.2 Q25.05 3.65 23.15 2.6 L27.95 0.7 M13.2 10.05 Q1.4 4.35 -8.9 -3.65 L-10.15 -3.55 -10.25 -4.25 -14.25 -7.95 -14.25 -8.75 -14.8 -9.55 -14.8 -9.9 Q-15.35 -6.85 -16.2 -3.8 -17.65 1.15 -18.15 6.3 L-18.35 7.95 Q-10.7 16.85 0.3 21.6 7.4 16.55 13.2 10.05 M-21.7 -54.75 L-23.95 -60.1 Q-35.2 -59.65 -46.1 -56.9 L-49.3 -56.15 -42.65 -51.8 -41.1 -53.0 -38.1 -52.45 -38.9 -52.0 -38.15 -51.55 -37.25 -49.55 -38.0 -48.35 -38.35 -47.95 -38.75 -47.55 -39.2 -47.25 -41.2 -47.0 -39.15 -43.25 Q-35.45 -43.25 -32.75 -45.5 -28.6 -48.85 -23.7 -51.45 L-20.9 -52.9 -21.4 -54.1 -38.1 -51.6 Q-32.75 -53.7 -26.95 -54.25 L-21.7 -54.45 -21.55 -54.45 -21.7 -54.75 M-42.2 -48.6 Q-40.35 -47.35 -38.75 -49.0 L-38.5 -49.3 Q-38.85 -50.95 -40.25 -52.0 L-41.65 -51.9 -42.35 -49.05 -42.2 -48.6 M-8.8 -49.15 L-6.75 -48.65 -8.7 -49.4 Q-18.8 -54.1 -27.3 -47.35 -32.55 -43.15 -34.25 -36.75 -29.8 -42.8 -22.65 -45.55 -15.9 -48.1 -8.8 -49.15 M-34.75 -28.4 Q-29.45 -38.15 -18.8 -42.2 -9.35 -45.8 0.65 -45.4 L-6.0 -47.45 Q-16.7 -48.3 -26.2 -43.05 -34.85 -38.25 -34.75 -28.4 M-35.9 -23.95 L-35.85 -24.05 -35.9 -23.95 -41.75 -16.3 -34.45 -13.45 -35.9 -23.95" fill="#000000" fill-rule="evenodd" stroke="none"/>
    <path d="M-21.7 -54.45 L-26.95 -54.25 Q-32.75 -53.7 -38.1 -51.6 L-21.4 -54.1 -20.9 -52.9 -23.7 -51.45 Q-28.6 -48.85 -32.75 -45.5 -35.45 -43.25 -39.15 -43.25 L-41.2 -47.0 -39.2 -47.25 -38.75 -47.55 -38.35 -47.95 -38.0 -48.35 -37.25 -49.55 -38.15 -51.55 -38.9 -52.0 -38.1 -52.45 -41.1 -53.0 -42.65 -51.8 -49.3 -56.15 -46.1 -56.9 Q-35.2 -59.65 -23.95 -60.1 L-21.7 -54.75 -21.7 -54.45 M-42.2 -48.6 L-42.35 -49.05 -41.65 -51.9 -40.25 -52.0 Q-38.85 -50.95 -38.5 -49.3 L-38.75 -49.0 Q-40.35 -47.35 -42.2 -48.6 M-35.9 -23.95 L-34.45 -13.45 -41.75 -16.3 -35.9 -23.95" fill="#666666" fill-rule="evenodd" stroke="none"/>
    <path d="M6.85 30.3 Q-0.1 28.85 -6.55 26.45 L-19.1 20.95 Q-28.15 10.4 -31.9 -2.75 -33.85 -9.65 -30.25 -15.8 -27.2 -20.0 -25.0 -24.45 L-23.85 -25.9 -23.8 -25.85 -15.6 -25.6 Q-18.2 -28.0 -22.45 -26.95 L-22.65 -27.15 -22.5 -27.3 -23.0 -27.45 -23.05 -28.95 -22.5 -30.5 -23.15 -31.5 -23.3 -35.25 -23.5 -32.75 -23.5 -33.5 -26.0 -35.5 -31.35 -32.45 Q-25.9 -39.05 -17.5 -41.4 L-11.65 -42.9 Q-4.7 -44.55 2.5 -44.4 L5.05 -42.85 2.15 -43.0 4.15 -42.3 6.7 -38.15 3.7 -29.6 -9.15 -25.05 -14.35 -12.7 -14.25 -15.45 -14.4 -15.45 Q-18.05 -4.3 -19.15 7.55 L-19.7 8.4 -15.8 12.25 -11.35 15.6 Q-5.95 19.1 -0.15 21.95 L-6.55 26.45 Q-2.7 24.65 0.8 22.4 6.1 25.05 11.65 27.25 L12.75 28.5 16.2 28.6 Q11.65 30.0 6.85 30.4 L6.85 30.3 M-31.75 -14.15 L-32.7 -10.95 Q-32.6 -12.35 -32.95 -13.75 L-31.75 -14.15 M-33.05 -13.8 L-33.25 -13.55 -33.75 -13.5 -33.9 -14.9 -33.85 -14.3 -33.05 -13.8 M-33.1 -21.45 L-32.85 -21.85 -32.55 -22.35 -32.0 -23.25 -32.1 -22.95 -33.1 -21.45 M-8.5 -3.7 L-13.15 -8.45 -13.15 -9.3 -13.7 -10.1 Q-12.75 -17.55 -8.5 -23.65 L5.6 -29.85 4.3 -29.65 7.1 -36.55 Q21.1 -33.5 33.15 -24.95 40.15 -20.0 43.25 -12.15 L43.9 -11.7 46.25 1.7 45.95 2.05 Q42.3 10.3 35.45 16.55 24.2 15.4 14.0 9.8 L16.0 6.45 13.6 9.55 -8.5 -3.65 -8.5 -3.7 M16.3 -39.3 L20.15 -37.25 Q28.1 -31.9 34.35 -24.9 22.3 -33.75 7.75 -37.95 L4.55 -42.2 Q10.65 -41.2 16.3 -39.3 M1.8 -12.7 Q1.1 -11.75 2.85 -11.35 L3.3 -11.5 15.9 -1.65 16.05 1.45 16.85 1.65 16.85 -2.85 1.8 -12.7 M27.95 0.7 L23.15 2.6 Q25.05 3.65 27.6 3.2 L36.95 2.35 27.95 0.7 M-8.8 -49.15 L-8.7 -49.4 -6.75 -48.65 -8.8 -49.15 M-34.75 -28.4 Q-34.85 -38.25 -26.2 -43.05 -16.7 -48.3 -6.0 -47.45 L0.65 -45.4 Q-9.35 -45.8 -18.8 -42.2 -29.45 -38.15 -34.75 -28.4" fill="#333333" fill-rule="evenodd" stroke="none"/>
    <path d="M-30.25 -15.8 Q-28.8 -19.6 -26.3 -22.8 L-25.0 -24.45 Q-27.2 -20.0 -30.25 -15.8 M-23.05 -28.95 L-23.15 -31.5 -22.5 -30.5 -23.05 -28.95 M-23.5 -32.75 L-23.95 -27.05 Q-29.3 -21.4 -31.75 -14.15 L-32.95 -13.75 -33.05 -13.8 -33.85 -14.3 -33.9 -14.9 -34.2 -19.4 -33.15 -21.4 -33.1 -21.45 -32.1 -22.95 Q-30.25 -25.9 -27.8 -28.3 L-25.2 -30.65 -26.25 -31.2 Q-32.1 -26.9 -34.45 -20.2 -34.85 -26.05 -32.1 -31.15 L-31.35 -32.45 -26.0 -35.5 -23.5 -33.5 -23.5 -32.75 M29.7 17.7 L33.85 17.95 Q28.9 23.25 21.95 26.4 L21.0 26.85 13.55 27.15 12.55 26.4 Q11.25 25.6 9.85 25.1 L5.75 23.65 1.3 22.05 4.7 19.55 Q9.8 15.5 13.65 10.3 L29.7 17.7 M13.2 10.05 Q7.4 16.55 0.3 21.6 -10.7 16.85 -18.35 7.95 L-18.15 6.3 Q-17.65 1.15 -16.2 -3.8 -15.35 -6.85 -14.8 -9.9 L-14.8 -9.55 -14.25 -8.75 -14.25 -7.95 -10.25 -4.25 -10.15 -3.55 -8.9 -3.65 Q1.4 4.35 13.2 10.05 M-8.7 -49.4 L-8.8 -49.15 Q-15.9 -48.1 -22.65 -45.55 -29.8 -42.8 -34.25 -36.75 -32.55 -43.15 -27.3 -47.35 -18.8 -54.1 -8.7 -49.4" fill="#555555" fill-rule="evenodd" stroke="none"/>
  </g>
</svg>
