<?xml version="1.0" encoding="UTF-8" standalone="no"?>
<svg xmlns:xlink="http://www.w3.org/1999/xlink" height="62.3px" width="68.2px" xmlns="http://www.w3.org/2000/svg">
  <g transform="matrix(1.0, 0.0, 0.0, 1.0, 55.3, 52.3)">
    <path d="M8.65 -15.3 L9.9 -13.9 Q12.1 -11.35 12.4 -8.05 L12.8 -7.75 Q13.0 -4.75 12.7 -1.8 12.45 0.4 11.25 2.3 8.4 6.65 4.65 9.95 -12.0 10.7 -26.05 1.8 -35.65 -4.35 -43.05 -12.55 -45.15 -14.95 -47.95 -16.85 -51.15 -19.05 -53.15 -22.15 -56.3 -27.05 -54.8 -32.8 L-53.4 -38.85 Q-52.25 -44.35 -48.85 -48.5 -47.2 -50.6 -44.65 -51.15 -33.45 -53.85 -22.8 -50.15 -19.25 -42.7 -18.9 -34.5 L-12.85 -30.9 -10.1 -29.05 Q-6.25 -26.35 -2.1 -24.2 4.3 -20.9 8.65 -15.3 M8.1 -12.5 Q4.1 -16.95 -1.0 -20.45 L-2.75 -21.6 Q-10.7 -18.7 -14.75 -11.4 -18.95 -3.85 -16.85 4.45 -9.85 7.0 -2.5 7.9 1.0 8.0 4.3 6.55 7.2 5.3 9.25 2.8 10.95 0.7 11.2 -1.95 11.8 -8.1 8.1 -12.5 M-53.35 -30.8 Q-53.8 -28.6 -53.15 -26.35 -51.85 -21.95 -47.95 -19.05 -44.15 -16.3 -40.5 -13.05 -39.8 -12.4 -39.75 -11.6 L-36.05 -8.05 Q-34.45 -16.25 -29.75 -22.65 -24.8 -29.3 -16.85 -30.95 L-20.4 -33.4 -20.7 -34.35 Q-20.4 -35.35 -20.6 -36.35 -21.85 -42.85 -24.35 -49.15 L-27.5 -49.65 Q-36.85 -51.65 -45.7 -48.85 -47.95 -47.2 -49.15 -44.45 -52.0 -37.9 -53.35 -30.8 M-9.25 -25.85 L-13.75 -29.1 Q-20.75 -25.5 -24.9 -18.75 -29.6 -11.1 -29.15 -2.6 L-23.5 1.8 Q-24.5 -4.9 -23.1 -11.7 -22.7 -13.65 -21.8 -15.3 -17.8 -23.0 -9.25 -25.85 M-14.65 -29.65 L-15.95 -30.4 Q-27.55 -26.35 -32.25 -15.25 -33.8 -11.45 -34.8 -7.55 L-35.2 -7.35 -31.25 -4.2 Q-29.5 -21.2 -14.65 -29.65 M-14.65 -2.0 L-14.0 -2.3 Q-13.6 -2.3 -13.3 -2.0 -13.05 -1.75 -13.05 -1.35 -13.05 -0.95 -13.3 -0.65 -13.6 -0.4 -14.0 -0.4 -14.4 -0.4 -14.65 -0.65 L-14.95 -1.35 -14.65 -2.0 M-10.8 -11.3 L-10.5 -11.95 -9.9 -12.25 -9.25 -11.95 Q-9.0 -11.7 -9.0 -11.3 -9.0 -10.9 -9.25 -10.6 -9.55 -10.35 -9.9 -10.35 L-10.5 -10.6 -10.8 -11.3 M-2.4 -17.4 L-2.4 -17.15 Q-2.7 -16.6 -3.15 -16.15 L-4.4 -17.4 -3.6 -18.3 -2.4 -17.4 M-2.95 -21.8 L-6.65 -23.9 -7.9 -24.0 Q-11.55 -23.6 -14.45 -21.3 -21.6 -15.75 -22.0 -6.5 L-21.95 1.0 -21.65 1.35 -21.6 1.9 Q-20.1 2.75 -18.65 3.55 L-19.05 -2.35 Q-18.05 -6.75 -16.05 -10.7 L-13.2 -16.15 Q-9.75 -22.6 -2.95 -21.8" fill="#000000" fill-rule="evenodd" stroke="none"/>
    <path d="M8.1 -12.5 Q11.8 -8.1 11.2 -1.95 10.95 0.7 9.25 2.8 7.2 5.3 4.3 6.55 1.0 8.0 -2.5 7.9 -9.85 7.0 -16.85 4.45 -18.95 -3.85 -14.75 -11.4 -10.7 -18.7 -2.75 -21.6 L-1.0 -20.45 Q4.1 -16.95 8.1 -12.5 M-53.35 -30.8 Q-52.0 -37.9 -49.15 -44.45 -47.95 -47.2 -45.7 -48.85 -36.85 -51.65 -27.5 -49.65 L-24.35 -49.15 Q-21.85 -42.85 -20.6 -36.35 -20.4 -35.35 -20.7 -34.35 L-20.4 -33.4 -16.85 -30.95 Q-24.8 -29.3 -29.75 -22.65 -34.45 -16.25 -36.05 -8.05 L-39.75 -11.6 Q-39.8 -12.4 -40.5 -13.05 -44.15 -16.3 -47.95 -19.05 -51.85 -21.95 -53.15 -26.35 -53.8 -28.6 -53.35 -30.8 M-2.95 -21.8 Q-9.75 -22.6 -13.2 -16.15 L-16.05 -10.7 Q-18.05 -6.75 -19.05 -2.35 L-18.65 3.55 Q-20.1 2.75 -21.6 1.9 L-21.65 1.35 -21.95 1.0 -22.0 -6.5 Q-21.6 -15.75 -14.45 -21.3 -11.55 -23.6 -7.9 -24.0 L-6.65 -23.9 -2.95 -21.8 M-2.4 -17.4 L-3.6 -18.3 -4.4 -17.4 -3.15 -16.15 Q-2.7 -16.6 -2.4 -17.15 L-2.4 -17.4 M-10.8 -11.3 L-10.5 -10.6 -9.9 -10.35 Q-9.55 -10.35 -9.25 -10.6 -9.0 -10.9 -9.0 -11.3 -9.0 -11.7 -9.25 -11.95 L-9.9 -12.25 -10.5 -11.95 -10.8 -11.3 M-14.65 -2.0 L-14.95 -1.35 -14.65 -0.65 Q-14.4 -0.4 -14.0 -0.4 -13.6 -0.4 -13.3 -0.65 -13.05 -0.95 -13.05 -1.35 -13.05 -1.75 -13.3 -2.0 -13.6 -2.3 -14.0 -2.3 L-14.65 -2.0" fill="#555555" fill-rule="evenodd" stroke="none"/>
    <path d="M-14.65 -29.65 Q-29.5 -21.2 -31.25 -4.2 L-35.2 -7.35 -34.8 -7.55 Q-33.8 -11.45 -32.25 -15.25 -27.55 -26.35 -15.95 -30.4 L-14.65 -29.65 M-9.25 -25.85 Q-17.8 -23.0 -21.8 -15.3 -22.7 -13.65 -23.1 -11.7 -24.5 -4.9 -23.5 1.8 L-29.15 -2.6 Q-29.6 -11.1 -24.9 -18.75 -20.75 -25.5 -13.75 -29.1 L-9.25 -25.85" fill="#2d2d2d" fill-rule="evenodd" stroke="none"/>
  </g>
</svg>
