<?xml version="1.0" encoding="UTF-8" standalone="no"?>
<svg xmlns:xlink="http://www.w3.org/1999/xlink" height="25.85px" width="32.0px" xmlns="http://www.w3.org/2000/svg">
  <g transform="matrix(1.0, 0.0, 0.0, 1.0, 16.0, 12.9)">
    <path d="M9.35 -6.4 L8.45 -6.3 6.35 -5.7 8.55 -9.2 Q11.2 -10.9 13.75 -10.1 L13.85 -8.25 14.0 -7.45 12.6 -4.0 Q11.55 -5.9 9.35 -6.4 M5.25 -4.05 L6.1 -5.3 Q9.4 -5.55 12.2 -3.2 L10.55 -0.25 Q8.5 -3.1 4.95 -3.4 L5.25 -4.05" fill="#666666" fill-rule="evenodd" stroke="none"/>
    <path d="M9.35 -6.4 Q11.55 -5.9 12.6 -4.0 L14.0 -7.45 13.85 -8.25 13.75 -10.1 Q11.2 -10.9 8.55 -9.2 L6.35 -5.7 8.45 -6.3 9.35 -6.4 M0.4 -0.1 L0.2 0.65 -0.15 1.55 0.4 1.6 0.95 1.65 1.6 1.9 2.8 4.35 2.95 5.05 3.75 6.25 4.0 6.65 4.0 7.3 4.25 7.65 4.4 8.0 4.35 8.35 Q7.4 4.65 10.05 0.55 L8.5 -0.5 6.3 -2.0 3.05 -2.35 1.15 -0.8 0.4 -0.1 M5.25 -4.05 L4.95 -3.4 Q8.5 -3.1 10.55 -0.25 L12.2 -3.2 Q9.4 -5.55 6.1 -5.3 L5.25 -4.05 M6.1 -8.55 Q8.35 -12.0 12.15 -12.9 16.0 -12.9 15.9 -9.45 L16.0 -9.2 Q13.65 2.15 4.8 9.1 L4.2 9.55 4.05 10.8 4.0 11.2 3.2 12.25 3.1 12.4 Q0.75 13.25 -1.6 12.8 -2.15 11.9 -2.5 12.25 -2.9 12.6 -3.35 12.65 L-7.95 12.8 -8.35 12.4 -9.1 8.85 Q-10.05 8.55 -10.65 7.75 L-10.55 7.05 Q-11.75 6.75 -12.7 5.4 -14.05 3.45 -15.1 1.2 -17.4 -3.7 -13.8 -7.5 -13.1 -8.25 -12.2 -8.45 -8.65 -8.7 -7.85 -5.25 -7.0 -1.35 -4.95 2.0 L-1.1 1.55 -1.15 1.45 -1.2 1.1 Q1.2 -3.1 4.75 -6.8 L6.1 -8.55 M0.15 3.6 Q-4.75 2.4 -9.3 4.5 L-9.45 4.6 -9.65 4.65 -9.7 4.7 -9.45 4.7 -9.3 4.85 -9.05 5.05 -8.95 5.9 -8.9 6.25 Q-8.15 6.95 -7.7 7.85 L-8.0 8.55 -7.45 10.25 -7.3 10.65 -4.65 11.05 -4.55 9.85 -4.5 9.45 -3.85 8.8 -2.0 8.95 -1.05 10.55 2.15 10.4 Q2.1 9.55 2.35 8.85 2.05 7.15 1.25 5.5 1.1 5.2 1.1 4.8 L0.5 4.05 0.15 3.6 M-9.65 -5.55 Q-10.75 -7.9 -12.9 -6.05 -14.35 -4.85 -14.25 -2.95 -13.95 1.35 -11.1 4.35 L-10.5 4.95 -10.1 4.55 -9.8 4.35 Q-8.05 3.05 -6.0 2.35 -7.6 0.5 -8.5 -2.05 L-9.65 -5.55" fill="#000000" fill-rule="evenodd" stroke="none"/>
    <path d="M0.4 -0.1 L1.15 -0.8 3.05 -2.35 6.3 -2.0 8.5 -0.5 10.05 0.55 Q7.4 4.65 4.35 8.35 L4.4 8.0 4.25 7.65 4.0 7.3 4.0 6.65 3.75 6.25 2.95 5.05 2.8 4.35 1.6 1.9 0.95 1.65 0.4 1.6 -0.15 1.55 0.2 0.65 0.4 -0.1 M-9.65 -5.55 L-8.5 -2.05 Q-7.6 0.5 -6.0 2.35 -8.05 3.05 -9.8 4.35 L-10.1 4.55 -10.5 4.95 -11.1 4.35 Q-13.95 1.35 -14.25 -2.95 -14.35 -4.85 -12.9 -6.05 -10.75 -7.9 -9.65 -5.55 M0.15 3.6 L0.5 4.05 1.1 4.8 Q1.1 5.2 1.25 5.5 2.05 7.15 2.35 8.85 2.1 9.55 2.15 10.4 L-1.05 10.55 -2.0 8.95 -3.85 8.8 -4.5 9.45 -4.55 9.85 -4.65 11.05 -7.3 10.65 -7.45 10.25 -8.0 8.55 -7.7 7.85 Q-8.15 6.95 -8.9 6.25 L-8.95 5.9 -9.05 5.05 -9.3 4.85 -9.45 4.7 -9.7 4.7 -9.65 4.65 -9.45 4.6 -9.3 4.5 Q-4.75 2.4 0.15 3.6" fill="#333333" fill-rule="evenodd" stroke="none"/>
  </g>
</svg>
