<?xml version="1.0" encoding="UTF-8" standalone="no"?>
<svg xmlns:xlink="http://www.w3.org/1999/xlink" height="37.4px" width="64.35px" xmlns="http://www.w3.org/2000/svg">
  <g transform="matrix(1.0, 0.0, 0.0, 1.0, 30.75, 17.35)">
    <path d="M14.35 -0.9 L14.8 -1.75 30.5 -10.6 -1.4 -16.4 Q-11.0 -11.95 -20.85 -7.8 -21.4 -7.5 -22.0 -7.35 -24.5 -7.25 -26.65 -6.5 -27.75 -6.2 -28.6 -5.45 L-29.2 -4.5 -29.4 -3.35 Q-29.55 -1.65 -28.1 -0.45 -24.45 2.65 -19.85 2.45 -15.85 2.35 -11.95 1.35 -7.7 0.2 -5.0 3.5 -3.95 4.75 -2.5 5.6 -0.5 6.8 1.5 7.25 7.4 8.5 12.5 5.2 14.3 3.95 14.55 1.85 L14.8 -0.2 14.35 -0.9 M14.8 -14.65 L25.95 -12.6 32.5 -11.05 33.3 -6.25 32.6 -5.35 33.2 -4.7 33.6 0.5 29.5 3.9 20.65 11.7 Q18.7 13.5 17.2 15.7 15.95 17.65 13.75 18.5 0.95 23.0 -9.45 14.4 L-9.55 14.3 -12.45 15.0 Q-20.85 16.2 -28.45 12.75 L-28.7 12.2 -29.05 11.25 Q-30.75 3.25 -30.75 -4.85 L-30.0 -5.8 -29.2 -6.7 Q-28.05 -7.9 -26.35 -8.55 L-21.55 -8.75 -21.0 -9.05 -14.05 -12.05 -5.6 -15.75 -3.25 -16.85 -1.15 -17.35 4.25 -16.3 14.8 -14.65 M21.4 9.6 Q26.5 4.25 32.25 -0.55 L32.35 -1.95 32.5 -4.3 Q28.5 -3.05 25.6 -0.15 L21.95 2.7 Q20.3 3.95 19.0 5.5 L17.8 7.05 16.8 7.3 17.15 10.55 17.5 13.85 19.9 11.25 21.4 9.6 M16.8 7.3 L22.35 1.95 Q27.2 -2.55 32.25 -5.75 L31.45 -10.4 15.75 -0.85 16.8 7.3 M13.6 10.75 L16.05 8.2 15.45 3.45 12.4 6.2 5.3 8.65 Q-1.0 8.8 -5.85 4.9 L-8.6 2.3 Q-15.3 3.95 -22.2 3.75 -25.8 3.3 -28.55 1.0 L-29.4 0.3 -28.9 3.9 -28.8 4.85 Q-25.0 7.55 -20.45 8.5 L-13.85 9.0 -9.75 8.4 -9.75 6.8 -9.75 5.55 -9.45 6.95 -9.15 8.5 -8.35 9.5 Q-5.7 11.5 -2.35 12.5 L-0.85 12.8 5.1 12.9 5.1 12.95 5.7 12.9 5.75 12.9 13.6 10.75 M13.65 17.05 Q16.2 14.6 16.1 11.1 L16.1 8.7 13.1 11.4 Q10.4 12.95 7.25 13.25 L5.85 13.4 4.9 13.5 -0.8 13.4 -2.75 12.75 -2.8 12.7 -2.85 12.7 -6.45 11.5 -8.95 10.0 -8.9 12.0 -8.9 12.9 Q-4.05 17.7 2.95 18.45 L3.5 18.5 6.1 18.65 13.65 17.05 M-9.6 11.65 L-9.7 10.15 -12.3 10.45 Q-18.6 10.6 -24.15 7.75 L-26.6 6.45 -28.8 5.0 -28.65 6.05 -28.2 9.25 -27.8 12.1 Q-21.95 13.95 -15.6 13.25 L-10.35 12.75 -9.55 13.0 -9.6 11.65" fill="#000000" fill-rule="evenodd" stroke="none"/>
    <path d="M32.35 -1.95 L32.25 -0.55 Q26.5 4.25 21.4 9.6 L21.4 9.55 Q22.25 8.15 21.05 6.75 22.7 5.05 22.95 3.15 L25.15 0.45 32.35 -1.95 M19.9 11.25 L17.5 13.85 17.15 10.55 19.05 8.55 Q19.25 9.8 19.6 11.05 L19.7 11.15 19.9 11.25 M16.8 7.3 L15.75 -0.85 31.45 -10.4 32.25 -5.75 Q27.2 -2.55 22.35 1.95 L16.8 7.3 M13.6 10.75 L12.4 6.2 15.45 3.45 16.05 8.2 13.6 10.75 M5.3 8.65 L4.7 8.65 Q4.75 10.8 5.1 12.9 L-0.85 12.8 Q-2.95 9.2 -7.25 9.35 L-8.35 9.5 -9.15 8.5 -8.6 7.65 -9.45 6.95 -9.75 5.55 -9.75 6.8 Q-11.45 6.8 -12.65 7.45 -13.85 8.1 -13.85 9.0 L-20.45 8.5 Q-24.9 6.95 -28.0 3.65 L-28.9 3.9 -29.4 0.3 -28.55 1.0 Q-25.8 3.3 -22.2 3.75 -15.3 3.95 -8.6 2.3 L-5.85 4.9 Q-1.0 8.8 5.3 8.65 M13.1 11.4 L16.1 8.7 16.1 11.1 Q16.2 14.6 13.65 17.05 L13.1 11.4 M6.1 18.65 L3.5 18.5 2.9 14.9 3.05 14.85 Q4.95 15.1 4.9 13.5 L5.85 13.4 6.1 18.65 M2.95 18.45 Q-4.05 17.7 -8.9 12.9 L-8.9 12.0 Q-6.25 12.9 -4.5 13.7 L-4.5 13.9 -3.1 15.25 -1.9 15.1 -1.65 14.1 -2.35 13.5 -0.8 13.4 Q-0.75 14.1 0.2 14.7 1.0 15.25 1.75 15.05 L2.1 18.3 2.95 18.45 M-12.3 10.45 L-12.3 11.25 -11.95 11.7 -9.6 11.65 -9.55 13.0 -10.35 12.75 -15.6 13.25 Q-21.95 13.95 -27.8 12.1 L-28.2 9.25 -27.35 8.85 Q-26.15 8.0 -26.35 7.0 L-26.45 6.75 -26.6 6.45 -24.15 7.75 Q-18.6 10.6 -12.3 10.45 M-26.0 8.55 L-26.25 9.15 -26.0 9.75 -25.45 10.0 -24.85 9.75 -24.65 9.15 -24.85 8.55 Q-25.1 8.3 -25.45 8.3 -25.8 8.3 -26.0 8.55" fill="#93934a" fill-rule="evenodd" stroke="none"/>
    <path d="M14.35 -0.9 L14.8 -0.2 14.55 1.85 Q14.3 3.95 12.5 5.2 7.4 8.5 1.5 7.25 -0.5 6.8 -2.5 5.6 -3.95 4.75 -5.0 3.5 -7.7 0.2 -11.95 1.35 -15.85 2.35 -19.85 2.45 -24.45 2.65 -28.1 -0.45 -29.55 -1.65 -29.4 -3.35 L-29.2 -4.5 -28.6 -5.45 Q-27.75 -6.2 -26.65 -6.5 -24.5 -7.25 -22.0 -7.35 -21.4 -7.5 -20.85 -7.8 -11.0 -11.95 -1.4 -16.4 L30.5 -10.6 14.8 -1.75 14.35 -0.9 M18.0 -11.45 Q14.55 -11.65 11.3 -12.55 5.05 -14.2 -1.35 -13.05 -5.35 -12.3 -9.1 -10.95 L-11.9 -9.65 Q-15.15 -8.0 -15.9 -4.4 -16.25 -2.8 -14.85 -1.95 -13.1 -0.9 -11.1 -0.4 -4.9 0.9 1.7 0.7 L6.6 -0.6 Q12.35 -2.75 17.55 -6.3 L21.85 -9.75 Q20.2 -11.1 18.0 -11.45 M9.45 1.4 L7.45 2.85 6.3 3.5 Q3.75 4.55 1.4 2.95 L2.5 3.7 Q6.05 5.45 9.9 3.35 L10.45 2.0 9.45 1.4" fill="#cccc99" fill-rule="evenodd" stroke="none"/>
    <path d="M9.45 1.4 L10.45 2.0 9.9 3.35 Q6.05 5.45 2.5 3.7 L1.4 2.95 Q3.75 4.55 6.3 3.5 L7.45 2.85 9.45 1.4" fill="#ffffff" fill-rule="evenodd" stroke="none"/>
    <path d="M25.15 0.45 L22.95 3.15 Q22.7 5.05 21.05 6.75 22.25 8.15 21.4 9.55 L21.4 9.6 19.9 11.25 19.7 11.15 19.6 11.05 Q19.25 9.8 19.05 8.55 L17.15 10.55 16.8 7.3 17.8 7.05 19.0 5.5 19.35 5.95 20.55 5.75 21.95 4.25 21.95 2.7 25.6 -0.15 25.15 0.45 M20.25 8.25 L20.45 8.3 20.8 8.3 21.2 7.45 21.1 7.25 20.15 6.4 19.75 6.45 19.75 6.5 19.55 6.75 19.45 7.0 19.6 7.4 Q19.75 7.95 20.25 8.25 M-6.45 11.5 L-2.85 12.7 -3.1 12.8 -3.9 12.75 -4.0 12.8 -4.15 12.9 -4.2 13.0 -3.95 13.45 -3.65 14.2 -3.25 14.5 -3.0 14.7 -2.65 14.65 -2.45 14.45 -2.55 14.55 -2.05 14.25 -2.05 13.85 -2.05 13.75 -2.35 13.5 -2.15 13.5 Q-2.3 13.0 -2.75 12.75 L-0.8 13.4 -2.35 13.5 -1.65 14.1 -1.9 15.1 -3.1 15.25 -4.5 13.9 -4.5 13.7 Q-6.25 12.9 -8.9 12.0 L-6.45 11.5 M-28.9 3.9 L-28.0 3.65 Q-24.9 6.95 -20.45 8.5 -25.0 7.55 -28.8 4.85 L-28.9 3.9 M-13.85 9.0 Q-13.85 8.1 -12.65 7.45 -11.45 6.8 -9.75 6.8 L-9.75 8.4 -13.85 9.0 M-9.45 6.95 L-8.6 7.65 -9.15 8.5 -9.45 6.95 M-12.3 10.45 L-9.7 10.15 -9.6 11.65 -11.95 11.7 -12.3 11.25 -12.3 10.45 M-28.2 9.25 L-28.65 6.05 -28.55 6.7 -28.5 6.75 -27.9 6.8 -28.1 6.95 -28.15 7.2 -28.05 7.4 -27.95 7.55 -27.15 7.5 -27.0 7.3 -26.5 7.2 -26.35 7.0 Q-26.15 8.0 -27.35 8.85 L-28.2 9.25 M-26.0 8.55 Q-25.8 8.3 -25.45 8.3 -25.1 8.3 -24.85 8.55 L-24.65 9.15 -24.85 9.75 -25.45 10.0 -26.0 9.75 -26.25 9.15 -26.0 8.55" fill="#cc0000" fill-rule="evenodd" stroke="none"/>
    <path d="M32.35 -1.95 L25.15 0.45 25.6 -0.15 Q28.5 -3.05 32.5 -4.3 L32.35 -1.95 M19.0 5.5 Q20.3 3.95 21.95 2.7 L21.95 4.25 20.55 5.75 19.35 5.95 19.0 5.5 M3.5 18.5 L2.95 18.45 2.1 18.3 1.75 15.05 Q1.0 15.25 0.2 14.7 -0.75 14.1 -0.8 13.4 L4.9 13.5 Q4.95 15.1 3.05 14.85 L2.9 14.9 3.5 18.5 M-8.9 12.0 L-8.95 10.0 -6.45 11.5 -8.9 12.0 M-8.35 9.5 L-7.25 9.35 Q-2.95 9.2 -0.85 12.8 L-2.35 12.5 Q-5.7 11.5 -8.35 9.5" fill="#6b5738" fill-rule="evenodd" stroke="none"/>
    <path d="M12.4 6.2 L13.6 10.75 5.75 12.9 5.7 12.9 5.1 12.95 5.1 12.9 Q4.75 10.8 4.7 8.65 L5.3 8.65 12.4 6.2 M13.1 11.4 L13.65 17.05 6.1 18.65 5.85 13.4 7.25 13.25 Q10.4 12.95 13.1 11.4" fill="#b5b46f" fill-rule="evenodd" stroke="none"/>
    <path d="M18.0 -11.45 Q20.2 -11.1 21.85 -9.75 L17.55 -6.3 Q12.35 -2.75 6.6 -0.6 L1.7 0.7 Q-4.9 0.9 -11.1 -0.4 -13.1 -0.9 -14.85 -1.95 -16.25 -2.8 -15.9 -4.4 -15.15 -8.0 -11.9 -9.65 L-9.1 -10.95 Q-5.35 -12.3 -1.35 -13.05 5.05 -14.2 11.3 -12.55 14.55 -11.65 18.0 -11.45" fill="#d6d5ad" fill-rule="evenodd" stroke="none"/>
    <path d="M20.25 8.25 Q19.75 7.95 19.6 7.4 L19.45 7.0 19.55 6.75 19.75 6.5 19.75 6.45 20.15 6.4 21.1 7.25 21.2 7.45 20.8 8.3 20.45 8.3 20.25 8.25 M-2.85 12.7 L-2.8 12.7 -2.75 12.75 Q-2.3 13.0 -2.15 13.5 L-2.35 13.5 -2.05 13.75 -2.05 13.85 -2.05 14.25 -2.55 14.55 -2.45 14.45 -2.65 14.65 -3.0 14.7 -3.25 14.5 -3.65 14.2 -3.95 13.45 -4.2 13.0 -4.15 12.9 -4.0 12.8 -3.9 12.75 -3.1 12.8 -2.85 12.7 M-28.65 6.05 L-28.8 5.0 -26.6 6.45 -26.45 6.75 -26.35 7.0 -26.5 7.2 -27.0 7.3 -27.15 7.5 -27.95 7.55 -28.05 7.4 -28.15 7.2 -28.1 6.95 -27.9 6.8 -28.5 6.75 -28.55 6.7 -28.65 6.05" fill="#fe9696" fill-rule="evenodd" stroke="none"/>
  </g>
</svg>
