<?xml version="1.0" encoding="UTF-8" standalone="no"?>
<svg xmlns:xlink="http://www.w3.org/1999/xlink" height="39.7px" width="21.5px" xmlns="http://www.w3.org/2000/svg">
  <g transform="matrix(1.0, 0.0, 0.0, 1.0, 10.75, 34.8)">
    <path d="M3.25 -12.55 L3.9 -12.45 4.05 -11.45 Q4.7 -6.45 3.7 -1.85 L3.75 -1.85 3.7 -1.7 3.65 -1.7 Q2.9 1.7 1.25 4.9 -7.2 4.8 -9.25 -4.0 L-9.25 -4.5 -9.25 -4.7 Q-9.1 -5.35 -9.1 -6.15 L-9.0 -12.5 Q-9.0 -13.4 -9.55 -14.1 L-9.25 -14.9 -10.45 -16.9 -10.45 -17.4 -10.4 -21.15 -10.75 -21.15 Q-9.95 -23.05 -10.1 -25.15 -10.5 -29.95 -10.05 -34.55 -7.95 -35.05 -6.0 -34.55 L-5.75 -33.7 Q-4.9 -30.85 -5.15 -27.8 L-1.2 -28.1 Q0.15 -27.2 1.45 -27.8 L1.55 -28.55 Q2.2 -31.55 2.45 -34.55 L3.45 -34.65 3.45 -34.6 3.9 -34.45 4.1 -34.35 4.4 -34.05 6.1 -32.05 6.0 -30.1 Q5.55 -25.6 5.6 -21.15 L10.65 -20.2 10.7 -19.2 Q10.9 -17.35 10.35 -15.7 L3.9 -14.75 3.55 -14.3 3.5 -14.2 3.2 -12.6 1.15 -3.85 0.15 -3.7 -2.8 -4.5 Q-4.85 -5.15 -6.5 -6.15 L-7.75 -6.25 -7.25 -3.85 -7.15 -3.8 Q-3.25 -0.9 1.55 -1.45 3.05 -6.9 3.25 -12.55 M9.3 -19.15 Q6.2 -18.35 4.65 -20.1 L2.25 -20.45 2.1 -20.65 2.0 -20.85 2.2 -21.25 2.35 -21.4 2.65 -21.5 3.6 -21.55 3.6 -21.5 4.1 -21.4 4.2 -22.8 Q4.8 -27.2 4.75 -31.7 L4.25 -32.2 3.45 -32.7 3.4 -31.7 Q3.2 -28.9 2.45 -26.3 L2.25 -26.3 1.9 -23.8 1.75 -23.0 Q1.5 -20.0 1.65 -16.85 -0.2 -15.7 -2.4 -16.4 L-3.6 -17.65 -3.75 -17.6 Q-5.9 -17.2 -7.5 -18.75 L-7.55 -18.9 Q-8.55 -23.45 -6.45 -27.8 L-6.25 -27.85 Q-6.05 -30.8 -7.65 -33.05 L-9.25 -32.55 -9.3 -24.15 -9.4 -22.8 Q-9.0 -20.3 -9.15 -17.7 L-8.45 -17.2 -8.4 -16.7 -8.25 -16.2 -7.8 -15.7 -7.85 -15.25 -8.05 -14.5 -7.8 -14.55 -7.5 -14.2 Q-7.1 -13.55 -7.15 -12.75 -7.95 -9.95 -7.85 -7.4 L-7.8 -7.35 -7.7 -7.35 -7.4 -7.25 0.45 -5.8 Q1.4 -9.45 1.25 -13.25 1.85 -14.15 2.1 -15.25 L2.7 -15.7 Q2.65 -16.25 3.1 -16.7 L9.35 -17.7 9.35 -18.7 9.35 -19.0 9.3 -19.15 M0.4 -17.7 L0.4 -18.0 Q0.45 -19.5 -0.05 -20.9 L0.05 -21.1 Q0.45 -23.75 1.25 -26.3 L-1.7 -26.35 Q-2.75 -22.6 -2.65 -18.65 L-2.8 -18.55 Q-1.55 -17.45 0.4 -17.7 M0.2 2.75 L1.4 -0.95 Q-3.85 0.25 -7.2 -3.75 -6.0 0.0 -2.5 3.1 L-0.05 3.1 0.2 2.75 M-2.55 -26.35 L-6.05 -26.3 Q-7.05 -22.85 -6.25 -19.5 -4.85 -19.2 -4.0 -18.45 L-4.15 -18.85 -3.75 -19.25 Q-4.0 -23.0 -2.55 -26.35" fill="#000000" fill-rule="evenodd" stroke="none"/>
    <path d="M9.35 -18.7 L9.35 -17.7 3.1 -16.7 Q2.65 -16.25 2.7 -15.7 L2.1 -15.25 Q1.85 -14.15 1.25 -13.25 1.4 -9.45 0.45 -5.8 L-7.4 -7.25 -7.7 -7.35 -7.8 -7.35 -7.85 -7.4 Q-7.95 -9.95 -7.15 -12.75 -7.1 -13.55 -7.5 -14.2 L-7.8 -14.55 -8.05 -14.5 -7.85 -15.25 -7.8 -15.7 -8.25 -16.2 -8.4 -16.7 -8.45 -17.2 -9.15 -17.7 Q-9.0 -20.3 -9.4 -22.8 L-9.3 -24.15 -9.25 -32.55 -7.65 -33.05 Q-6.05 -30.8 -6.25 -27.85 L-6.45 -27.8 Q-8.55 -23.45 -7.55 -18.9 L-7.5 -18.75 Q-5.9 -17.2 -3.75 -17.6 L-3.6 -17.65 -2.4 -16.4 Q-0.2 -15.7 1.65 -16.85 1.5 -20.0 1.75 -23.0 L1.9 -23.8 2.25 -26.3 2.45 -26.3 Q3.2 -28.9 3.4 -31.7 L3.45 -32.7 4.25 -32.2 4.75 -31.7 Q4.8 -27.2 4.2 -22.8 L4.1 -21.4 3.6 -21.5 3.6 -21.55 2.65 -21.5 2.35 -21.4 2.2 -21.25 2.0 -20.85 2.1 -20.65 2.25 -20.45 4.65 -20.1 Q6.2 -18.35 9.3 -19.15 L9.35 -18.7 M0.4 -17.7 Q-1.55 -17.45 -2.8 -18.55 L-2.65 -18.65 Q-2.75 -22.6 -1.7 -26.35 L1.25 -26.3 Q0.45 -23.75 0.05 -21.1 L-0.05 -20.9 Q0.45 -19.5 0.4 -18.0 L0.4 -17.7 M-2.55 -26.35 Q-4.0 -23.0 -3.75 -19.25 L-4.15 -18.85 -4.0 -18.45 Q-4.85 -19.2 -6.25 -19.5 -7.05 -22.85 -6.05 -26.3 L-2.55 -26.35" fill="#333333" fill-rule="evenodd" stroke="none"/>
    <path d="M3.25 -12.55 Q3.05 -6.9 1.55 -1.45 -3.25 -0.9 -7.15 -3.8 L-7.25 -3.85 -7.75 -6.25 -6.5 -6.15 Q-4.85 -5.15 -2.8 -4.5 L0.15 -3.7 1.15 -3.85 3.2 -12.6 3.25 -12.55 M0.2 2.75 L-0.05 3.1 -2.5 3.1 Q-6.0 0.0 -7.2 -3.75 -3.85 0.25 1.4 -0.95 L0.2 2.75" fill="#666666" fill-rule="evenodd" stroke="none"/>
  </g>
</svg>
