<?xml version="1.0" encoding="UTF-8" standalone="no"?>
<svg xmlns:xlink="http://www.w3.org/1999/xlink" height="18.9px" width="18.3px" xmlns="http://www.w3.org/2000/svg">
  <g transform="matrix(1.0, 0.0, 0.0, 1.0, 9.15, 9.45)">
    <path d="M0.7 -7.8 L-3.2 -2.8 Q0.25 -2.0 3.4 -0.5 L3.75 -0.2 4.75 -1.35 4.75 -2.45 4.75 -3.0 2.35 -6.3 Q1.15 -6.65 1.05 -7.8 1.05 -8.2 0.7 -7.8 M1.1 -9.45 L2.0 -9.25 5.85 -4.3 6.2 -3.75 6.2 -2.1 6.2 -1.0 8.05 0.1 8.35 1.2 8.4 1.75 9.05 2.9 9.15 3.4 Q8.65 4.75 6.95 4.7 L8.05 5.25 Q8.25 6.45 7.35 8.0 L6.75 9.1 1.1 9.45 0.0 9.25 -9.15 1.55 Q-4.45 -4.05 1.05 -9.3 L1.1 -9.45 M6.05 5.95 L4.0 5.05 Q4.9 3.25 6.95 2.1 L2.55 1.4 3.2 0.5 2.75 0.1 Q-0.6 -1.55 -4.2 -1.4 L-4.3 -1.35 -5.75 0.45 -6.25 1.0 Q-2.65 8.15 5.65 7.45 L6.1 6.3 6.05 5.95" fill="#000000" fill-rule="evenodd" stroke="none"/>
    <path d="M0.7 -7.8 Q1.05 -8.2 1.05 -7.8 1.15 -6.65 2.35 -6.3 L4.75 -3.0 4.75 -2.45 4.75 -1.35 3.75 -0.2 3.4 -0.5 Q0.25 -2.0 -3.2 -2.8 L0.7 -7.8" fill="#666666" fill-rule="evenodd" stroke="none"/>
    <path d="M6.05 5.95 L6.1 6.3 5.65 7.45 Q-2.65 8.15 -6.25 1.0 L-5.75 0.45 -4.3 -1.35 -4.2 -1.4 Q-0.6 -1.55 2.75 0.1 L3.2 0.5 2.55 1.4 6.95 2.1 Q4.9 3.25 4.0 5.05 L6.05 5.95" fill="#333333" fill-rule="evenodd" stroke="none"/>
  </g>
</svg>
