<?xml version="1.0" encoding="UTF-8" standalone="no"?>
<svg xmlns:xlink="http://www.w3.org/1999/xlink" height="19.75px" width="22.8px" xmlns="http://www.w3.org/2000/svg">
  <g transform="matrix(1.0, 0.0, 0.0, 1.0, 4.4, 3.85)">
    <path d="M0.45 -2.2 Q3.35 -2.45 5.25 -0.45 L5.4 -0.3 3.85 0.3 Q0.85 1.7 -0.4 4.8 -0.25 5.35 -0.45 5.9 L-0.55 6.1 -1.2 5.45 -2.75 3.0 -2.75 2.75 Q-3.6 -1.45 0.45 -2.2 M6.45 0.55 L6.75 1.05 7.3 1.8 7.3 2.1 7.3 2.3 Q2.3 4.7 1.3 9.85 L1.3 9.8 1.05 9.0 0.65 8.4 0.3 7.05 -0.15 6.3 0.1 5.65 0.15 5.4 1.65 3.15 Q2.55 1.65 4.25 1.3 L6.45 0.55" fill="#666666" fill-rule="evenodd" stroke="none"/>
    <path d="M0.45 -2.2 Q-3.6 -1.45 -2.75 2.75 L-2.75 3.0 -1.2 5.45 -0.55 6.1 -0.45 5.9 Q-0.25 5.35 -0.4 4.8 0.85 1.7 3.85 0.3 L5.4 -0.3 5.25 -0.45 Q3.35 -2.45 0.45 -2.2 M-0.3 -3.85 Q5.55 -4.2 8.5 0.4 L8.65 0.55 Q14.25 -2.6 17.2 3.05 19.85 8.05 16.6 12.65 15.6 14.1 13.8 14.8 6.65 17.75 1.45 12.75 -0.65 10.75 -1.1 8.05 -3.7 5.75 -4.25 2.55 -4.65 0.4 -3.95 -1.55 L-2.9 -2.6 Q-1.7 -3.55 -0.3 -3.85 M16.35 5.2 L16.25 4.95 16.0 4.65 Q14.75 0.2 10.45 2.2 9.9 2.45 9.5 3.0 L8.5 3.65 7.95 3.45 7.8 3.2 7.6 2.85 Q3.4 5.7 2.05 10.75 6.05 15.3 12.8 13.15 15.65 12.2 16.35 9.35 16.85 7.25 16.35 5.2 M6.45 0.55 L4.25 1.3 Q2.55 1.65 1.65 3.15 L0.15 5.4 0.1 5.65 -0.15 6.3 0.3 7.05 0.65 8.4 1.05 9.0 1.3 9.8 1.3 9.85 Q2.3 4.7 7.3 2.3 L7.3 2.1 7.3 1.8 6.75 1.05 6.45 0.55" fill="#000000" fill-rule="evenodd" stroke="none"/>
    <path d="M16.35 5.2 Q16.85 7.25 16.35 9.35 15.65 12.2 12.8 13.15 6.05 15.3 2.05 10.75 3.4 5.7 7.6 2.85 L7.8 3.2 7.95 3.45 8.5 3.65 9.5 3.0 Q9.9 2.45 10.45 2.2 14.75 0.2 16.0 4.65 L16.25 4.95 16.35 5.2" fill="#333333" fill-rule="evenodd" stroke="none"/>
  </g>
</svg>
