<?xml version="1.0" encoding="UTF-8" standalone="no"?>
<svg xmlns:xlink="http://www.w3.org/1999/xlink" height="17.55px" width="18.35px" xmlns="http://www.w3.org/2000/svg">
  <g transform="matrix(1.0, 0.0, 0.0, 1.0, 9.2, 8.8)">
    <path d="M2.45 -3.9 L1.65 -4.15 1.7 -4.3 1.55 -4.6 0.4 -6.7 Q4.45 -6.2 8.0 -3.35 L5.3 -0.65 5.15 -1.95 Q4.05 -3.4 2.45 -3.9" fill="#666666" fill-rule="evenodd" stroke="none"/>
    <path d="M3.1 -1.5 L2.6 -2.1 2.45 -2.2 Q1.5 -2.4 0.65 -2.9 -0.65 -3.7 -1.75 -4.75 L-1.6 -4.85 -0.6 -4.95 -0.2 -5.05 0.2 -4.85 -0.6 -6.75 Q-3.55 -6.95 -6.75 -5.85 -7.6 -3.8 -7.55 -1.5 -7.6 1.95 -5.7 4.85 L-5.55 5.15 -4.9 5.55 -4.1 6.15 1.15 6.4 2.15 6.15 2.45 5.85 2.7 5.5 3.05 3.45 3.25 0.15 3.25 -1.2 3.1 -1.5 M2.45 -3.9 Q4.05 -3.4 5.15 -1.95 L5.3 -0.65 8.0 -3.35 Q4.45 -6.2 0.4 -6.7 L1.55 -4.6 1.7 -4.3 1.65 -4.15 2.45 -3.9 M9.15 -2.2 Q7.6 0.0 5.3 1.7 L4.8 6.35 4.7 6.75 Q-0.4 10.75 -5.75 6.65 -8.9 4.3 -9.15 0.25 -9.4 -3.2 -8.65 -6.4 L-8.35 -6.75 -7.3 -7.75 -5.45 -8.15 -3.3 -8.75 Q4.3 -9.4 8.9 -3.75 L9.15 -3.4 8.9 -3.15 9.05 -2.55 9.15 -2.2" fill="#000000" fill-rule="evenodd" stroke="none"/>
    <path d="M3.1 -1.5 L3.25 -1.2 3.25 0.15 3.05 3.45 2.7 5.5 2.45 5.85 2.15 6.15 1.15 6.4 -4.1 6.15 -4.9 5.55 -5.55 5.15 -5.7 4.85 Q-7.6 1.95 -7.55 -1.5 -7.6 -3.8 -6.75 -5.85 -3.55 -6.95 -0.6 -6.75 L0.2 -4.85 -0.2 -5.05 -0.6 -4.95 -1.6 -4.85 -1.75 -4.75 Q-0.65 -3.7 0.65 -2.9 1.5 -2.4 2.45 -2.2 L2.6 -2.1 3.1 -1.5" fill="#333333" fill-rule="evenodd" stroke="none"/>
  </g>
</svg>
