<?xml version="1.0" encoding="UTF-8" standalone="no"?>
<svg xmlns:xlink="http://www.w3.org/1999/xlink" height="83.65px" width="85.75px" xmlns="http://www.w3.org/2000/svg">
  <g transform="matrix(1.0, 0.0, 0.0, 1.0, 66.5, 41.0)">
    <path d="M10.5 -38.6 L10.05 -38.9 10.0 -39.1 10.5 -39.5 -14.1 -37.85 -30.8 -35.9 -51.0 -33.2 -60.0 -32.4 -63.05 -31.75 Q-64.05 -31.4 -64.95 -30.85 L-64.6 -22.35 -64.2 -15.1 -63.75 -6.3 -63.2 8.85 -61.95 34.0 -61.85 38.65 -62.15 38.7 -62.0 39.65 -61.8 40.3 -61.8 40.6 -61.8 40.75 -60.35 40.95 -60.1 41.25 -60.0 41.45 -31.5 37.65 -6.15 34.15 17.0 31.3 Q17.1 22.85 17.55 14.55 L17.4 9.05 17.1 -16.15 16.95 -31.9 16.8 -32.5 17.3 -35.35 Q17.4 -37.45 16.8 -39.35 13.6 -39.9 10.5 -38.6 M11.95 -40.4 Q12.85 -40.9 13.85 -41.0 L17.65 -40.9 18.15 -40.8 Q19.2 -35.55 18.8 -30.1 17.95 -17.55 18.4 -4.9 L19.05 11.75 19.1 11.85 19.05 12.85 19.1 13.95 19.25 17.9 17.65 32.0 17.45 32.0 Q5.7 34.2 -6.15 35.5 L-25.0 37.8 Q-35.05 39.15 -44.9 41.0 -52.95 42.5 -60.95 42.65 L-61.75 42.55 Q-62.55 42.3 -62.55 41.55 L-62.5 41.5 -63.15 41.45 -63.3 41.15 -63.35 40.5 -63.7 40.2 Q-63.55 38.85 -63.8 37.65 L-63.9 37.05 -63.65 36.9 -63.15 36.85 -63.1 36.85 -63.35 33.7 -63.65 26.45 -63.95 17.65 -64.8 2.55 Q-65.55 -10.0 -65.85 -22.65 -66.0 -27.1 -66.5 -31.45 -59.2 -35.5 -50.25 -34.8 L-47.3 -34.95 -33.95 -36.75 -5.75 -39.65 10.7 -40.8 11.95 -40.4 M0.45 -14.05 L0.45 -20.35 Q0.45 -25.35 0.7 -30.2 L-0.25 -30.05 -3.95 -29.45 -5.35 -29.25 Q-4.2 -26.3 -4.45 -23.0 L-4.45 -22.6 -4.8 -22.45 -5.8 -23.55 -5.8 -23.45 -6.75 -23.25 -6.6 -26.95 -6.95 -28.8 -6.95 -29.0 -13.05 -28.1 -12.55 -16.6 Q-12.2 -7.1 -12.15 2.65 L-12.1 9.15 -12.15 17.65 -12.2 18.95 -8.9 17.95 -7.8 17.7 -7.8 17.65 -7.3 17.55 -7.3 16.9 -7.5 3.85 -6.85 4.0 Q-6.2 3.65 -6.0 3.15 L-5.75 2.45 Q-5.85 11.85 -5.15 21.05 L-2.95 21.0 -1.35 20.95 -0.75 20.9 -0.5 17.75 0.05 9.15 Q0.45 1.1 0.45 -7.0 L0.45 -10.05 0.45 -14.05 M2.3 -30.5 Q2.7 -18.75 2.55 -6.9 L2.4 0.0 2.05 16.65 2.05 16.75 2.15 16.65 Q2.4 8.3 2.9 0.05 L3.3 -6.05 3.9 -13.85 4.45 -21.4 Q4.7 -26.2 4.2 -30.8 L2.3 -30.5 M12.85 -32.35 L13.5 -32.4 13.9 -32.0 Q13.7 -16.65 14.2 -1.05 L14.6 12.85 Q14.75 19.8 13.65 26.35 L12.7 27.0 12.3 26.75 11.95 27.1 Q0.6 26.35 -10.9 28.65 -23.3 31.15 -35.9 32.0 L-45.55 33.25 -54.4 35.1 -55.3 35.25 -56.05 35.85 -56.7 35.6 -56.95 34.85 -57.65 33.85 -57.25 33.65 Q-58.0 30.75 -58.1 27.65 -58.75 12.2 -58.75 -3.3 L-58.55 -23.25 -58.55 -23.4 Q-57.5 -23.8 -56.5 -24.4 L-56.5 -24.05 -56.45 -24.05 Q-47.5 -25.55 -38.5 -27.5 L-30.15 -28.7 Q-15.15 -29.75 -0.4 -32.2 L10.6 -33.85 12.2 -33.65 13.5 -33.45 13.85 -33.0 14.05 -32.65 12.85 -32.4 5.85 -31.1 Q6.3 -17.95 5.4 -4.75 L5.1 -0.6 4.7 4.4 3.85 18.3 3.9 18.3 Q7.85 20.5 11.9 22.5 L12.25 6.95 11.8 -4.6 Q10.95 -18.7 12.7 -32.25 L12.85 -32.35 M5.3 24.6 L8.2 25.25 11.7 25.75 11.8 24.7 11.65 24.75 Q7.35 22.75 3.75 19.9 L3.75 20.0 3.4 20.35 Q2.7 20.85 2.0 20.85 L2.0 21.45 1.9 21.55 -0.25 23.0 Q-2.35 23.95 -4.6 23.35 L-6.5 22.6 -7.1 22.25 -7.2 20.1 -7.2 20.05 -9.75 20.4 Q-11.2 21.6 -12.2 21.1 L-12.25 22.1 -11.85 23.3 Q-11.8 23.5 -11.9 23.7 L-12.2 23.9 -12.55 24.05 Q-15.4 25.3 -18.65 25.2 L-20.75 25.0 -20.95 22.35 -21.0 21.65 -22.55 21.85 -25.9 22.25 -26.4 22.05 -26.6 21.95 -26.6 22.05 -26.75 25.9 -26.8 26.6 -31.8 26.9 Q-33.55 26.4 -34.95 24.95 L-35.8 24.1 -36.0 22.05 Q-38.45 23.3 -40.75 22.9 L-40.85 27.65 -41.75 28.4 Q-46.5 31.8 -50.4 27.95 L-50.75 28.05 -51.8 27.4 -51.8 27.35 -51.8 23.85 Q-53.9 24.65 -56.15 24.35 L-55.9 27.95 -55.45 32.85 Q-50.85 31.0 -44.95 31.15 L-42.8 31.0 -39.95 30.5 -39.4 30.4 -31.15 29.15 -30.25 29.05 -23.75 28.2 -16.85 27.5 -14.45 27.25 -10.0 26.85 -6.3 26.35 -1.85 25.8 5.3 24.6 M-42.8 -24.2 L-42.15 -23.9 Q-40.15 -8.9 -40.4 6.6 L-40.7 20.95 Q-39.25 19.95 -37.15 19.9 L-35.35 20.75 Q-34.5 20.95 -34.1 20.35 L-33.45 24.2 -32.65 24.55 -28.4 24.75 Q-28.1 9.2 -28.65 -6.2 -28.9 -15.1 -28.5 -23.9 L-28.4 -25.65 -28.45 -26.15 -31.75 -25.8 -32.45 -25.7 -32.65 -25.7 -34.45 -25.5 -35.4 -26.05 Q-36.35 -25.8 -37.05 -25.25 L-37.75 -25.2 -42.85 -24.5 -43.7 -24.3 -43.7 -24.35 -45.05 -24.0 -47.35 -23.45 -48.2 -23.2 -49.3 -22.85 -49.2 -22.15 -49.25 -22.6 -50.25 -23.15 -51.0 -23.0 -52.2 -22.25 -56.65 -21.8 Q-57.5 -8.1 -57.1 5.85 -56.85 14.45 -56.25 22.95 -54.75 21.65 -52.35 21.7 L-52.1 21.7 -49.8 21.8 -49.9 27.0 -49.9 27.15 -49.45 27.0 Q-48.5 27.65 -47.55 27.95 -45.55 28.5 -43.55 27.35 L-42.7 26.7 Q-42.3 11.45 -42.4 -3.8 -42.5 -13.65 -43.9 -22.95 L-44.0 -23.65 -43.8 -23.75 Q-43.6 -23.9 -43.35 -24.0 L-42.8 -24.2 M-14.8 -25.65 L-14.5 -27.9 -14.95 -27.85 -16.05 -27.7 -18.6 -27.35 -20.9 -27.05 Q-20.05 -12.85 -19.95 1.5 L-20.05 -1.55 -20.05 -5.3 -20.45 -18.55 Q-21.1 -19.65 -22.2 -20.5 L-22.65 -20.35 -22.35 -26.85 -26.25 -26.4 -26.8 -26.35 -26.8 -26.05 -26.45 -25.25 -26.4 -25.2 -26.3 -24.85 Q-27.45 -9.4 -26.7 6.1 -26.4 13.1 -26.55 20.05 L-26.55 20.25 -26.2 20.05 -24.85 19.6 Q-22.9 19.15 -21.1 19.55 L-21.2 18.45 -19.8 18.9 -19.45 18.7 -19.35 20.25 -19.3 20.4 Q-19.2 20.55 -19.25 20.75 L-19.3 20.95 -19.15 23.0 -17.6 23.25 Q-15.95 23.25 -14.25 22.25 -14.25 6.85 -14.65 -8.7 L-15.05 -18.65 Q-15.2 -22.1 -14.8 -25.65" fill="#333333" fill-rule="evenodd" stroke="none"/>
    <path d="M12.85 -32.4 L12.85 -32.35 12.7 -32.25 Q10.95 -18.7 11.8 -4.6 L12.25 6.95 Q9.05 1.0 5.4 -4.75 6.3 -17.95 5.85 -31.1 L12.85 -32.4 M1.9 21.55 L1.8 21.65 3.25 22.9 5.3 24.6 -1.85 25.8 -3.95 23.55 -4.0 23.5 -4.6 23.35 Q-2.35 23.95 -0.25 23.0 L1.9 21.55 M-12.55 24.05 L-10.0 26.85 -14.45 27.25 -16.85 27.5 -18.65 25.2 Q-15.4 25.3 -12.55 24.05 M-7.2 20.05 L-7.2 20.1 -7.2 20.05 M-41.75 28.4 L-39.95 30.5 -42.8 31.0 -44.95 31.15 Q-50.85 31.0 -55.45 32.85 L-55.9 27.95 -55.35 27.85 -52.25 27.4 -51.8 27.35 -51.8 27.4 -50.75 28.05 -50.4 27.95 Q-46.5 31.8 -41.75 28.4 M-30.25 29.05 L-31.8 26.9 -26.8 26.6 -26.75 25.9 -23.75 28.2 -30.25 29.05 M-22.55 21.85 L-21.0 21.65 -20.95 22.35 -21.45 21.75 -22.55 21.85" fill="#563838" fill-rule="evenodd" stroke="none"/>
    <path d="M-42.85 -24.5 L-42.8 -24.2 -42.85 -24.5" fill="#766363" fill-rule="evenodd" stroke="none"/>
    <path d="M0.45 -14.05 L0.0 -21.15 0.0 -25.55 0.3 -30.15 -0.25 -30.05 0.7 -30.2 Q0.45 -25.35 0.45 -20.35 L0.45 -14.05 M-3.95 -29.45 Q-4.15 -23.65 -3.65 -17.85 -2.9 -9.05 -2.85 -0.2 L-2.8 8.7 -2.95 21.0 -5.15 21.05 Q-5.85 11.85 -5.75 2.45 L-5.55 -4.75 -4.95 -12.65 Q-4.4 -17.75 -5.15 -22.3 L-4.8 -22.45 -4.45 -22.6 -4.45 -23.0 Q-4.2 -26.3 -5.35 -29.25 L-3.95 -29.45 M-42.85 -24.5 L-42.8 -24.2 -43.35 -24.0 Q-43.6 -23.9 -43.8 -23.75 L-43.75 -24.0 -43.7 -24.3 -42.85 -24.5 M-47.35 -23.45 Q-47.65 -21.7 -47.55 -19.95 L-47.2 -9.2 -47.0 8.65 Q-47.0 17.5 -47.45 26.3 L-47.55 27.95 Q-48.5 27.65 -49.45 27.0 L-49.9 27.0 -49.8 21.8 -49.7 2.45 -49.75 -0.5 Q-49.8 -4.5 -49.35 -8.4 L-49.2 -22.15 -49.3 -22.85 -48.2 -23.2 -47.35 -23.45 M-43.55 27.35 L-43.25 13.9 Q-43.1 4.95 -43.4 -3.95 L-43.95 -21.8 -43.9 -22.95 Q-42.5 -13.65 -42.4 -3.8 -42.3 11.45 -42.7 26.7 L-43.55 27.35 M-14.95 -27.85 L-14.5 -27.9 -14.8 -25.65 -14.95 -27.85 M-17.6 23.25 L-19.15 23.0 -19.3 20.95 -19.25 20.75 Q-19.2 20.55 -19.3 20.4 L-19.35 20.25 -19.45 18.7 Q-19.95 10.8 -19.95 2.8 L-19.95 1.5 Q-20.05 -12.85 -20.9 -27.05 L-18.6 -27.35 -18.4 -21.5 -17.75 -3.65 Q-17.3 5.3 -17.7 14.25 -17.9 18.8 -17.6 23.25 M-34.1 20.35 Q-35.3 12.8 -35.3 4.9 -35.25 -10.4 -34.75 -25.5 L-34.45 -25.5 -32.65 -25.7 -32.5 -22.1 Q-31.95 -13.15 -32.3 -4.25 -32.65 4.65 -32.65 13.65 L-32.65 19.2 -32.65 24.55 -33.45 24.2 -34.1 20.35" fill="#645555" fill-rule="evenodd" stroke="none"/>
    <path d="M-37.15 19.9 Q-39.25 19.95 -40.7 20.95 L-40.4 6.6 Q-40.15 -8.9 -42.15 -23.9 L-42.8 -24.2 -42.85 -24.5 -37.75 -25.2 -37.05 -25.25 -36.75 -25.3 -37.1 -6.85 Q-37.3 6.65 -36.15 19.95 L-37.15 19.9 M-52.1 21.7 L-52.35 21.7 Q-54.75 21.65 -56.25 22.95 -56.85 14.45 -57.1 5.85 -57.5 -8.1 -56.65 -21.8 L-52.2 -22.25 -50.65 -22.55 -51.5 -3.55 -51.8 21.7 -52.1 21.7 M-21.2 18.45 L-21.1 19.55 Q-22.9 19.15 -24.85 19.6 L-26.2 20.05 -26.55 20.05 Q-26.4 13.1 -26.7 6.1 -27.45 -9.4 -26.3 -24.85 L-26.4 -25.2 -26.45 -25.25 -26.8 -26.05 -26.8 -26.35 -26.25 -26.4 -22.35 -26.85 -22.65 -20.35 -22.55 -17.4 Q-22.2 -11.65 -22.15 -5.95 -21.95 6.35 -21.2 18.45 M-12.55 -16.6 Q-10.0 -12.65 -9.5 -7.2 -9.2 -3.8 -7.8 -0.95 -9.1 4.4 -12.1 9.15 L-12.15 2.65 Q-12.2 -7.1 -12.55 -16.6 M-7.8 17.65 L-7.3 16.9 -7.3 17.55 -7.8 17.65" fill="#ce3178" fill-rule="evenodd" stroke="none"/>
    <path d="M2.3 -30.5 L4.2 -30.8 Q4.7 -26.2 4.45 -21.4 L3.9 -13.85 3.3 -6.05 2.9 0.05 Q2.4 8.3 2.15 16.65 L2.05 16.75 2.05 16.65 2.4 0.0 2.55 -6.9 Q2.7 -18.75 2.3 -30.5 M-37.15 19.9 L-36.15 19.95 Q-37.3 6.65 -37.1 -6.85 L-36.75 -25.3 -37.05 -25.25 Q-36.35 -25.8 -35.4 -26.05 L-34.45 -25.5 -34.75 -25.5 Q-35.25 -10.4 -35.3 4.9 -35.3 12.8 -34.1 20.35 -34.5 20.95 -35.35 20.75 L-37.15 19.9 M-52.2 -22.25 L-51.0 -23.0 -50.25 -23.15 -49.25 -22.6 -49.2 -22.15 -49.35 -8.4 Q-49.8 -4.5 -49.75 -0.5 L-49.7 2.45 -49.8 21.8 -52.1 21.7 -51.8 21.7 -51.5 -3.55 -50.65 -22.55 -52.2 -22.25 M-19.45 18.7 L-19.8 18.9 -21.2 18.45 Q-21.95 6.35 -22.15 -5.95 -22.2 -11.65 -22.55 -17.4 L-22.65 -20.35 -22.2 -20.5 Q-21.1 -19.65 -20.45 -18.55 L-20.05 -5.3 -20.05 -1.55 -19.95 1.5 -19.95 2.8 Q-19.95 10.8 -19.45 18.7 M-4.8 -22.45 L-5.15 -22.3 Q-4.4 -17.75 -4.95 -12.65 L-5.55 -4.75 -5.75 2.45 -6.0 3.15 Q-6.2 3.65 -6.85 4.0 L-7.5 3.85 -7.3 16.9 -7.8 17.65 -7.8 17.7 -8.9 17.95 -12.2 18.95 -12.15 17.65 -12.1 9.15 Q-9.1 4.4 -7.8 -0.95 -9.2 -3.8 -9.5 -7.2 -10.0 -12.65 -12.55 -16.6 L-13.05 -28.1 -6.95 -29.0 -6.95 -28.8 -6.6 -26.95 -6.75 -23.25 -5.8 -23.45 -5.8 -23.55 -4.8 -22.45" fill="#a62867" fill-rule="evenodd" stroke="none"/>
    <path d="M12.25 6.95 L11.9 22.5 Q7.85 20.5 3.9 18.3 L3.85 18.3 4.7 4.4 5.1 -0.6 5.4 -4.75 Q9.05 1.0 12.25 6.95 M5.3 24.6 L3.25 22.9 1.8 21.65 1.9 21.55 2.0 21.45 2.0 20.85 Q2.7 20.85 3.4 20.35 L3.75 20.0 3.75 19.9 Q7.35 22.75 11.65 24.75 L11.8 24.7 11.7 25.75 8.2 25.25 5.3 24.6 M-4.6 23.35 L-4.0 23.5 -3.95 23.55 -1.85 25.8 -6.3 26.35 -10.0 26.85 -12.55 24.05 -12.2 23.9 -11.9 23.7 Q-11.8 23.5 -11.85 23.3 L-12.25 22.1 -12.2 21.1 Q-11.2 21.6 -9.75 20.4 L-7.2 20.05 -7.2 20.1 -7.1 22.25 -6.5 22.6 -4.6 23.35 M-41.75 28.4 L-40.85 27.65 -40.75 22.9 Q-38.45 23.3 -36.0 22.05 L-35.8 24.1 -34.95 24.95 Q-33.55 26.4 -31.8 26.9 L-30.25 29.05 -31.15 29.15 -39.4 30.4 -39.95 30.5 -41.75 28.4 M-26.75 25.9 L-26.6 22.05 -26.4 22.05 -25.9 22.25 -22.55 21.85 -21.45 21.75 -20.95 22.35 -20.75 25.0 -18.65 25.2 -16.85 27.5 -23.75 28.2 -26.75 25.9 M-55.9 27.95 L-56.15 24.35 Q-53.9 24.65 -51.8 23.85 L-51.8 27.35 -52.25 27.4 -55.35 27.85 -55.9 27.95" fill="#853f3f" fill-rule="evenodd" stroke="none"/>
    <path d="M-0.25 -30.05 L0.3 -30.15 0.0 -25.55 0.0 -21.15 0.45 -14.05 0.45 -10.05 0.45 -7.0 Q0.45 1.1 0.05 9.15 L-0.5 17.75 -0.75 20.9 -1.35 20.95 -2.95 21.0 -2.8 8.7 -2.85 -0.2 Q-2.9 -9.05 -3.65 -17.85 -4.15 -23.65 -3.95 -29.45 L-0.25 -30.05 M-43.7 -24.3 L-43.75 -24.0 -43.8 -23.75 -44.0 -23.65 -43.9 -22.95 -43.95 -21.8 -43.4 -3.95 Q-43.1 4.95 -43.25 13.9 L-43.55 27.35 Q-45.55 28.5 -47.55 27.95 L-47.45 26.3 Q-47.0 17.5 -47.0 8.65 L-47.2 -9.2 -47.55 -19.95 Q-47.65 -21.7 -47.35 -23.45 L-45.05 -24.0 -43.7 -24.35 -43.7 -24.3 M-14.95 -27.85 L-14.8 -25.65 Q-15.2 -22.1 -15.05 -18.65 L-14.65 -8.7 Q-14.25 6.85 -14.25 22.25 -15.95 23.25 -17.6 23.25 -17.9 18.8 -17.7 14.25 -17.3 5.3 -17.75 -3.65 L-18.4 -21.5 -18.6 -27.35 -16.05 -27.7 -14.95 -27.85 M-32.65 24.55 L-32.65 19.2 -32.65 13.65 Q-32.65 4.65 -32.3 -4.25 -31.95 -13.15 -32.5 -22.1 L-32.65 -25.7 -32.45 -25.7 -31.75 -25.8 -28.45 -26.15 -28.4 -25.65 -28.5 -23.9 Q-28.9 -15.1 -28.65 -6.2 -28.1 9.2 -28.4 24.75 L-32.65 24.55" fill="#463e3e" fill-rule="evenodd" stroke="none"/>
  </g>
</svg>
