<?xml version="1.0" encoding="UTF-8" standalone="no"?>
<svg xmlns:xlink="http://www.w3.org/1999/xlink" height="105.7px" width="114.9px" xmlns="http://www.w3.org/2000/svg">
  <g transform="matrix(1.0, 0.0, 0.0, 1.0, 57.45, 52.85)">
    <path d="M7.0 -52.6 Q18.2 -52.1 29.35 -52.25 L34.1 -48.65 37.3 -45.75 44.1 -39.5 45.0 -38.5 Q50.9 -31.75 57.45 -25.85 L57.45 22.2 56.65 22.65 56.05 22.3 Q46.3 37.3 33.2 50.35 L32.45 50.95 32.7 51.35 32.25 51.9 31.45 52.4 Q7.5 52.1 -16.55 52.85 L-34.55 52.85 -34.9 52.75 -35.65 52.0 -35.45 51.65 -55.55 25.85 -55.8 26.0 -57.45 25.75 -57.45 -3.6 -56.65 -16.8 -57.45 -17.0 -57.45 -19.55 Q-44.05 -36.5 -28.5 -52.05 L-28.1 -52.45 -27.95 -52.6 -27.7 -52.85 -25.4 -52.85 -25.3 -52.7 -24.95 -52.85 1.95 -52.85 7.0 -52.6 M26.85 -48.55 Q26.1 -49.8 24.35 -50.0 22.5 -49.85 21.2 -48.75 L20.7 -48.8 Q19.5 -48.1 18.6 -46.9 L18.4 -46.65 18.4 -46.45 18.3 -45.55 18.4 -44.4 Q20.0 -42.1 22.0 -41.75 L23.45 -41.8 Q24.65 -42.0 26.0 -42.9 28.7 -44.7 27.35 -47.7 L26.85 -48.55 M25.75 -40.25 Q31.3 -36.2 36.05 -30.8 39.85 -26.45 44.05 -22.5 45.3 -26.7 49.7 -28.15 L49.8 -28.35 Q45.9 -31.6 42.5 -35.65 36.4 -42.85 29.15 -48.25 L28.95 -49.35 28.0 -49.1 Q29.15 -47.4 29.0 -44.75 28.95 -42.95 27.45 -41.65 L26.1 -40.65 25.55 -40.4 25.75 -40.25 M39.05 -23.4 Q36.5 -25.6 34.3 -28.2 L34.05 -28.5 33.05 -29.65 31.8 -31.05 Q27.85 -35.25 23.35 -38.6 23.2 -39.05 23.2 -39.45 20.45 -38.65 17.45 -38.95 L15.25 -39.15 13.55 -39.3 3.4 -40.05 2.0 -40.1 1.7 -40.15 Q-4.65 -40.45 -17.15 -40.45 L-21.4 -40.35 Q-29.45 -30.8 -37.65 -21.4 L-43.1 -15.3 -43.2 4.0 -43.2 5.15 -43.2 6.05 -43.25 12.0 -43.3 18.95 Q-38.95 23.5 -35.05 28.45 L-33.7 30.2 -29.3 36.35 -28.55 37.45 -27.0 39.9 Q-25.65 39.05 -23.4 39.2 L-13.1 39.55 -12.05 39.6 -5.3 39.75 -2.65 39.8 -1.8 39.85 3.7 39.9 13.8 39.45 16.6 39.15 17.15 39.1 17.35 39.05 Q20.85 38.6 23.95 39.75 L25.85 38.65 25.9 38.65 34.1 28.85 35.55 27.05 35.9 26.65 36.15 26.3 36.6 25.75 37.2 25.0 43.9 16.4 43.75 14.3 43.6 12.4 43.35 8.7 43.35 8.65 43.35 8.25 43.25 6.45 Q42.95 -0.4 43.2 -7.25 L43.3 -9.65 43.45 -12.65 43.5 -13.6 43.55 -13.9 43.95 -18.95 44.0 -19.3 43.9 -19.45 43.8 -19.7 39.2 -23.25 39.05 -23.4 M-19.9 -42.25 L1.6 -42.25 18.75 -41.75 Q17.75 -42.6 17.05 -43.75 16.5 -47.15 18.65 -49.0 L-19.9 -50.6 Q-16.2 -47.55 -18.8 -43.6 -19.3 -42.85 -19.95 -42.25 L-20.0 -42.25 -19.9 -42.25 M51.4 -27.05 L50.95 -27.05 Q45.7 -26.05 45.2 -21.4 L45.3 -21.3 45.25 -20.65 Q45.25 -19.1 46.0 -18.6 L46.0 -18.45 Q46.3 -18.2 46.75 -18.05 51.15 -16.45 54.05 -20.3 L54.7 -21.45 54.85 -23.1 54.55 -24.2 54.2 -25.0 51.4 -27.05 M51.55 -16.55 Q48.15 -15.35 46.0 -16.9 L46.0 15.0 Q48.1 13.55 50.5 13.05 L52.0 12.7 Q53.45 13.25 54.35 14.15 53.25 -2.0 54.45 -18.2 53.35 -17.15 51.55 -16.55 M46.2 16.5 L46.05 16.35 45.7 16.45 45.45 16.55 45.15 17.0 Q44.75 17.65 44.85 18.25 44.55 18.75 44.65 19.3 45.2 23.8 49.4 24.15 L50.9 23.9 Q54.35 22.2 54.55 18.65 54.7 15.15 51.7 14.1 48.35 14.35 46.2 16.5 M46.4 24.75 Q43.85 22.8 43.55 19.85 36.7 30.0 27.9 38.95 29.65 39.4 31.1 40.4 32.0 41.05 32.45 42.15 34.3 47.0 30.6 50.0 L30.8 50.1 Q41.1 38.15 51.0 25.45 48.55 26.4 46.4 24.75 M27.05 39.8 L26.6 40.3 26.0 40.8 Q24.7 41.2 24.0 41.9 L23.4 41.9 Q21.75 43.85 22.15 47.05 L22.2 47.25 23.8 48.65 Q26.35 48.6 28.7 49.3 L30.35 48.6 Q30.95 48.3 31.15 47.65 32.5 43.55 29.55 40.55 L28.05 40.25 27.6 40.2 27.45 40.05 27.15 39.85 27.05 39.8 M20.75 45.2 Q21.05 43.3 21.95 41.9 4.4 41.7 -13.2 42.3 L-24.65 42.3 -24.45 43.75 Q-24.35 46.95 -26.35 49.1 L4.6 49.85 21.4 48.85 22.05 48.8 21.15 47.5 Q20.55 46.4 20.75 45.2 M-26.5 -50.45 Q-29.65 -47.55 -26.85 -43.65 -24.75 -40.75 -21.4 -42.7 -18.4 -44.45 -19.4 -47.35 -20.1 -49.5 -22.25 -50.55 L-26.5 -50.45 M-49.55 -22.65 L-49.6 -22.8 -49.6 -22.85 -49.95 -22.9 -50.7 -22.7 -53.9 -19.1 -53.9 -14.9 -53.25 -14.3 Q-49.35 -11.8 -46.7 -15.2 -45.45 -16.85 -44.95 -18.7 -44.65 -19.95 -45.65 -20.8 -47.35 -22.2 -49.5 -22.45 L-49.55 -22.65 M-47.95 -12.65 Q-49.65 -11.5 -51.7 -12.1 -53.0 -12.5 -53.9 -13.1 L-54.15 17.85 Q-52.1 14.9 -48.45 14.35 -47.0 14.3 -45.9 14.8 L-45.9 -2.9 -45.3 -13.4 -45.9 -13.6 -45.9 -14.3 -47.95 -12.65 M-43.5 -18.65 Q-34.15 -30.15 -23.5 -40.85 -27.3 -40.55 -28.95 -44.3 -29.65 -45.8 -29.4 -47.3 -39.25 -35.7 -49.55 -24.0 -44.6 -23.5 -43.5 -18.65 M-32.35 49.25 L-29.3 48.95 -28.55 49.0 -27.9 48.6 Q-26.35 47.6 -26.0 45.75 -25.75 44.45 -25.85 43.5 -25.6 41.1 -28.55 40.95 L-28.6 40.95 -28.75 40.8 -30.05 40.65 Q-35.0 41.2 -34.85 45.85 L-34.4 47.2 Q-33.45 48.65 -32.35 49.25 M-35.05 42.05 Q-34.55 41.2 -33.6 40.7 -31.85 39.8 -30.05 39.6 L-29.65 39.65 -43.6 21.75 Q-44.15 23.0 -45.35 24.15 -46.75 25.45 -48.55 25.95 L-51.95 26.05 Q-43.15 35.65 -36.05 46.35 -36.45 44.35 -35.05 42.05 M-52.55 24.05 Q-49.35 26.3 -46.6 23.5 -45.4 22.3 -44.95 20.85 -43.45 17.35 -47.25 15.3 L-47.6 15.45 -48.0 15.7 -47.85 15.55 -48.6 15.5 -48.85 15.55 Q-54.5 17.25 -53.5 22.6 -53.35 23.5 -52.55 24.05 M-33.9 49.65 L-33.75 49.85 -33.7 49.8 -33.9 49.65" fill="#333333" fill-rule="evenodd" stroke="none"/>
    <path d="M26.85 -48.55 L27.35 -47.7 Q28.7 -44.7 26.0 -42.9 24.65 -42.0 23.45 -41.8 L22.0 -41.75 Q20.0 -42.1 18.4 -44.4 L18.3 -45.55 18.4 -46.45 18.4 -46.65 18.6 -46.9 Q19.5 -48.1 20.7 -48.8 L21.2 -48.75 Q22.5 -49.85 24.35 -50.0 26.1 -49.8 26.85 -48.55 M3.15 -12.1 L3.5 -11.5 Q4.65 -8.25 7.7 -9.75 10.6 -11.2 12.3 -13.55 11.65 -10.85 12.85 -8.1 14.8 -3.4 20.1 -2.65 L21.55 -2.3 Q15.55 -0.45 14.2 5.1 15.35 9.3 17.65 13.0 12.3 10.5 7.6 13.85 L7.0 14.65 4.8 19.95 Q1.45 15.4 -4.45 15.55 -6.65 15.6 -8.6 16.65 -6.55 11.65 -11.35 9.7 L-16.25 7.6 Q-10.35 5.8 -12.25 0.45 -12.75 -1.0 -13.75 -2.15 -8.15 -2.25 -6.65 -7.8 L-6.45 -9.65 -6.1 -11.3 Q-4.25 -9.75 -2.05 -8.8 L-0.25 -8.6 0.75 -8.85 Q1.75 -10.5 3.15 -11.95 L3.15 -12.1 M51.4 -27.05 L54.2 -25.0 54.55 -24.2 54.85 -23.1 54.7 -21.45 54.05 -20.3 Q51.15 -16.45 46.75 -18.05 46.3 -18.2 46.0 -18.45 L46.0 -18.6 Q45.25 -19.1 45.25 -20.65 L45.3 -21.3 45.2 -21.4 Q45.7 -26.05 50.95 -27.05 L51.4 -27.05 M46.2 16.5 Q48.35 14.35 51.7 14.1 54.7 15.15 54.55 18.65 54.35 22.2 50.9 23.9 L49.4 24.15 Q45.2 23.8 44.65 19.3 44.55 18.75 44.85 18.25 44.75 17.65 45.15 17.0 L45.45 16.55 45.7 16.45 46.05 16.35 46.2 16.5 M27.05 39.8 L27.15 39.85 27.45 40.05 27.6 40.2 28.05 40.25 29.55 40.55 Q32.5 43.55 31.15 47.65 30.95 48.3 30.35 48.6 L28.7 49.3 Q26.35 48.6 23.8 48.65 L22.2 47.25 22.15 47.05 Q21.75 43.85 23.4 41.9 L24.0 41.9 Q24.7 41.2 26.0 40.8 L26.6 40.3 27.05 39.8 M-49.55 -22.65 L-49.5 -22.45 Q-47.35 -22.2 -45.65 -20.8 -44.65 -19.95 -44.95 -18.7 -45.45 -16.85 -46.7 -15.2 -49.35 -11.8 -53.25 -14.3 L-53.9 -14.9 -53.9 -19.1 -50.7 -22.7 -49.95 -22.9 -49.6 -22.85 -49.6 -22.8 -49.55 -22.65 M-26.5 -50.45 L-22.25 -50.55 Q-20.1 -49.5 -19.4 -47.35 -18.4 -44.45 -21.4 -42.7 -24.75 -40.75 -26.85 -43.65 -29.65 -47.55 -26.5 -50.45 M-32.35 49.25 Q-33.45 48.65 -34.4 47.2 L-34.85 45.85 Q-35.0 41.2 -30.05 40.65 L-28.75 40.8 -28.6 40.95 -28.55 40.95 Q-25.6 41.1 -25.85 43.5 -25.75 44.45 -26.0 45.75 -26.35 47.6 -27.9 48.6 L-28.55 49.0 -29.3 48.95 -32.35 49.25 M-52.55 24.05 Q-53.35 23.5 -53.5 22.6 -54.5 17.25 -48.85 15.55 L-48.6 15.5 -47.85 15.55 -48.0 15.7 -47.6 15.45 -47.25 15.3 Q-43.45 17.35 -44.95 20.85 -45.4 22.3 -46.6 23.5 -49.35 26.3 -52.55 24.05" fill="#ffffff" fill-rule="evenodd" stroke="none"/>
    <path d="M26.1 -40.65 L27.45 -41.65 Q28.95 -42.95 29.0 -44.75 29.15 -47.4 28.0 -49.1 L28.95 -49.35 29.15 -48.25 Q36.4 -42.85 42.5 -35.65 45.9 -31.6 49.8 -28.35 L49.7 -28.15 Q45.3 -26.7 44.05 -22.5 39.85 -26.45 36.05 -30.8 31.3 -36.2 25.75 -40.25 L26.1 -40.65 M-19.95 -42.25 Q-19.3 -42.85 -18.8 -43.6 -16.2 -47.55 -19.9 -50.6 L18.65 -49.0 Q16.5 -47.15 17.05 -43.75 17.75 -42.6 18.75 -41.75 L1.6 -42.25 -19.9 -42.25 -19.95 -42.25 M51.55 -16.55 Q53.35 -17.15 54.45 -18.2 53.25 -2.0 54.35 14.15 53.45 13.25 52.0 12.7 L50.5 13.05 Q48.1 13.55 46.0 15.0 L46.0 -16.9 Q48.15 -15.35 51.55 -16.55 M46.4 24.75 Q48.55 26.4 51.0 25.45 41.1 38.15 30.8 50.1 L30.6 50.0 Q34.3 47.0 32.45 42.15 32.0 41.05 31.1 40.4 29.65 39.4 27.9 38.95 36.7 30.0 43.55 19.85 43.85 22.8 46.4 24.75 M20.75 45.2 Q20.55 46.4 21.15 47.5 L22.05 48.8 21.4 48.85 4.6 49.85 -26.35 49.1 Q-24.35 46.95 -24.45 43.75 L-24.65 42.3 -13.2 42.3 Q4.4 41.7 21.95 41.9 21.05 43.3 20.75 45.2 M-43.5 -18.65 Q-44.6 -23.5 -49.55 -24.0 -39.25 -35.7 -29.4 -47.3 -29.65 -45.8 -28.95 -44.3 -27.3 -40.55 -23.5 -40.85 -34.15 -30.15 -43.5 -18.65 M-47.95 -12.65 L-45.9 -14.3 -45.9 -13.6 -45.3 -13.4 -45.9 -2.9 -45.9 14.8 Q-47.0 14.3 -48.45 14.35 -52.1 14.9 -54.15 17.85 L-53.9 -13.1 Q-53.0 -12.5 -51.7 -12.1 -49.65 -11.5 -47.95 -12.65 M-35.05 42.05 Q-36.45 44.35 -36.05 46.35 -43.15 35.65 -51.95 26.05 L-48.55 25.95 Q-46.75 25.45 -45.35 24.15 -44.15 23.0 -43.6 21.75 L-29.65 39.65 -30.05 39.6 Q-31.85 39.8 -33.6 40.7 -34.55 41.2 -35.05 42.05 M-33.9 49.65 L-33.7 49.8 -33.75 49.85 -33.9 49.65" fill="#666666" fill-rule="evenodd" stroke="none"/>
    <path d="M13.55 -39.3 L15.25 -39.15 17.45 -38.95 Q20.45 -38.65 23.2 -39.45 23.2 -39.05 23.35 -38.6 27.85 -35.25 31.8 -31.05 L33.05 -29.65 34.05 -28.5 34.3 -28.2 Q36.5 -25.6 39.05 -23.4 L39.05 -23.2 39.1 -22.95 39.2 -23.25 43.8 -19.7 43.9 -19.45 43.95 -18.95 43.55 -13.9 43.5 -13.6 43.45 -12.65 43.4 -11.75 38.2 -12.65 Q34.15 -13.1 30.65 -15.1 28.95 -16.05 29.15 -17.95 29.6 -23.1 32.1 -27.85 L32.55 -28.7 32.9 -29.6 Q29.95 -29.0 26.7 -27.65 21.8 -25.65 17.5 -28.3 16.65 -28.8 16.25 -29.75 14.1 -34.35 13.55 -39.3 M-43.2 4.0 L-43.1 -15.3 -37.65 -21.4 Q-29.45 -30.8 -21.4 -40.35 L-17.15 -40.45 Q-4.65 -40.45 1.7 -40.15 L2.0 -40.1 3.4 -40.05 1.85 -37.95 Q0.35 -35.7 -1.75 -34.05 -4.05 -30.45 -8.4 -31.45 L-8.95 -31.7 Q-13.35 -35.0 -17.4 -38.45 -17.65 -32.1 -18.2 -25.8 -18.25 -25.15 -18.65 -24.55 -22.1 -19.6 -28.4 -19.05 L-38.6 -19.6 Q-34.0 -14.9 -32.7 -8.55 -32.35 -6.7 -33.2 -4.95 -36.6 1.9 -43.2 6.05 L-43.2 5.15 -43.2 4.0 M30.75 -17.05 L30.85 -16.95 30.8 -17.25 30.85 -17.7 30.8 -17.75 30.75 -17.05 M43.3 -9.65 L43.2 -7.25 Q42.95 -0.4 43.25 6.45 L43.35 8.25 43.35 8.65 39.0 2.85 38.25 1.35 37.75 0.6 Q36.85 -2.0 38.5 -4.05 L43.3 -9.65 M43.6 12.4 L43.75 14.3 43.9 16.4 37.2 25.0 36.6 25.75 36.15 26.3 35.9 26.65 Q35.95 24.4 36.3 22.25 L36.8 18.25 Q38.9 14.3 43.35 12.45 L43.6 12.4 M35.55 27.05 L34.1 28.85 25.9 38.65 25.85 38.65 23.95 39.75 Q20.85 38.6 17.35 39.05 L17.15 39.1 16.6 39.15 13.8 39.45 3.7 39.9 -1.8 39.85 -1.8 39.8 -2.65 39.8 -5.3 39.75 2.1 36.0 Q7.05 33.25 11.6 36.3 L13.55 37.9 Q14.4 37.95 14.95 38.6 L15.35 39.05 Q18.45 33.6 22.75 29.05 23.0 28.8 23.4 28.65 29.0 26.3 35.55 27.05 M-12.05 39.6 L-13.1 39.55 -23.4 39.2 Q-25.65 39.05 -27.0 39.9 L-28.55 37.45 -29.3 36.35 -24.9 35.25 -24.65 35.1 Q-23.0 34.25 -21.35 33.95 L-20.15 34.2 -17.8 33.7 -16.7 33.85 Q-12.75 35.7 -12.05 39.6 M-33.7 30.2 L-35.05 28.45 Q-38.95 23.5 -43.3 18.95 L-43.25 12.0 -43.25 10.75 Q-40.65 12.65 -38.45 15.0 -37.15 16.35 -36.25 17.95 -33.4 23.2 -33.65 29.15 L-33.7 30.2" fill="#ff872f" fill-rule="evenodd" stroke="none"/>
    <path d="M13.55 -39.3 Q14.1 -34.35 16.25 -29.75 16.65 -28.8 17.5 -28.3 21.8 -25.65 26.7 -27.65 29.95 -29.0 32.9 -29.6 L32.55 -28.7 32.1 -27.85 Q29.6 -23.1 29.15 -17.95 28.95 -16.05 30.65 -15.1 34.15 -13.1 38.2 -12.65 L43.4 -11.75 43.45 -12.65 43.3 -9.65 38.5 -4.05 Q36.85 -2.0 37.75 0.6 L38.25 1.35 39.0 2.85 43.35 8.65 43.35 8.7 43.6 12.4 43.35 12.45 Q38.9 14.3 36.8 18.25 L36.3 22.25 Q35.95 24.4 35.9 26.65 L35.55 27.05 Q29.0 26.3 23.4 28.65 23.0 28.8 22.75 29.05 18.45 33.6 15.35 39.05 L14.95 38.6 Q14.4 37.95 13.55 37.9 L11.6 36.3 Q7.05 33.25 2.1 36.0 L-5.3 39.75 -12.05 39.6 Q-12.75 35.7 -16.7 33.85 L-17.8 33.7 -20.15 34.2 -21.35 33.95 Q-23.0 34.25 -24.65 35.1 L-24.9 35.25 -29.3 36.35 -33.7 30.2 -33.65 29.15 Q-33.4 23.2 -36.25 17.95 -37.15 16.35 -38.45 15.0 -40.65 12.65 -43.25 10.75 L-43.25 12.0 -43.2 6.05 Q-36.6 1.9 -33.2 -4.95 -32.35 -6.7 -32.7 -8.55 -34.0 -14.9 -38.6 -19.6 L-28.4 -19.05 Q-22.1 -19.6 -18.65 -24.55 -18.25 -25.15 -18.2 -25.8 -17.65 -32.1 -17.4 -38.45 -13.35 -35.0 -8.95 -31.7 L-8.4 -31.45 Q-4.05 -30.45 -1.75 -34.05 0.35 -35.7 1.85 -37.95 L3.4 -40.05 13.55 -39.3 M39.2 -23.25 L39.1 -22.95 39.05 -23.2 39.05 -23.4 39.2 -23.25 M-43.2 4.0 L-43.2 5.15 -43.2 4.0 M15.95 -20.85 L15.2 -21.05 Q9.65 -23.55 9.8 -30.05 5.95 -24.35 -0.7 -21.65 L-0.7 -21.5 -0.85 -21.25 -1.25 -21.1 Q-6.9 -22.4 -10.6 -27.0 -10.45 -24.5 -10.75 -22.0 L-11.25 -16.95 Q-11.4 -15.2 -13.15 -14.7 -19.4 -12.9 -26.0 -13.9 L-27.95 -13.8 Q-26.35 -12.5 -25.15 -10.85 -22.2 -6.7 -21.45 -1.8 -21.35 -1.1 -21.6 -0.5 -24.55 5.8 -31.95 7.2 L-35.2 7.9 Q-30.5 8.6 -26.4 10.9 -22.65 13.0 -21.45 16.95 -19.7 22.75 -22.6 28.15 L-21.8 27.7 Q-16.35 23.55 -9.85 24.8 -8.35 25.1 -7.5 26.35 -4.65 30.3 -3.35 35.05 -2.2 28.2 4.45 27.3 6.4 27.05 8.2 27.75 12.15 29.3 14.75 32.6 L14.0 25.45 Q13.85 22.9 16.2 21.85 22.8 18.85 29.35 22.0 26.65 18.2 26.05 13.65 26.0 12.9 26.35 12.4 29.8 7.55 35.5 6.6 32.85 3.15 30.8 -0.7 30.35 -1.5 30.4 -2.35 30.8 -7.5 36.35 -8.75 L29.95 -9.3 Q25.45 -9.8 22.4 -12.65 L22.4 -13.15 Q22.35 -17.65 25.3 -21.25 L15.95 -20.85 M30.75 -17.05 L30.8 -17.75 30.85 -17.7 30.8 -17.25 30.85 -16.95 30.75 -17.05 M-1.8 39.85 L-2.65 39.8 -1.8 39.8 -1.8 39.85" fill="#ffbb2f" fill-rule="evenodd" stroke="none"/>
    <path d="M15.95 -20.85 L25.3 -21.25 Q22.35 -17.65 22.4 -13.15 L22.4 -12.65 Q25.45 -9.8 29.95 -9.3 L36.35 -8.75 Q30.8 -7.5 30.4 -2.35 30.35 -1.5 30.8 -0.7 32.85 3.15 35.5 6.6 29.8 7.55 26.35 12.4 26.0 12.9 26.05 13.65 26.65 18.2 29.35 22.0 22.8 18.85 16.2 21.85 13.85 22.9 14.0 25.45 L14.75 32.6 Q12.15 29.3 8.2 27.75 6.4 27.05 4.45 27.3 -2.2 28.2 -3.35 35.05 -4.65 30.3 -7.5 26.35 -8.35 25.1 -9.85 24.8 -16.35 23.55 -21.8 27.7 L-22.6 28.15 Q-19.7 22.75 -21.45 16.95 -22.65 13.0 -26.4 10.9 -30.5 8.6 -35.2 7.9 L-31.95 7.2 Q-24.55 5.8 -21.6 -0.5 -21.35 -1.1 -21.45 -1.8 -22.2 -6.7 -25.15 -10.85 -26.35 -12.5 -27.95 -13.8 L-26.0 -13.9 Q-19.4 -12.9 -13.15 -14.7 -11.4 -15.2 -11.25 -16.95 L-10.75 -22.0 Q-10.45 -24.5 -10.6 -27.0 -6.9 -22.4 -1.25 -21.1 L-0.85 -21.25 -0.7 -21.5 -0.7 -21.65 Q5.95 -24.35 9.8 -30.05 9.65 -23.55 15.2 -21.05 L15.95 -20.85 M3.15 -12.1 L3.15 -11.95 Q1.75 -10.5 0.75 -8.85 L-0.25 -8.6 -2.05 -8.8 Q-4.25 -9.75 -6.1 -11.3 L-6.45 -9.65 -6.65 -7.8 Q-8.15 -2.25 -13.75 -2.15 -12.75 -1.0 -12.25 0.45 -10.35 5.8 -16.25 7.6 L-11.35 9.7 Q-6.55 11.65 -8.6 16.65 -6.65 15.6 -4.45 15.55 1.45 15.4 4.8 19.95 L7.0 14.65 7.6 13.85 Q12.3 10.5 17.65 13.0 15.35 9.3 14.2 5.1 15.55 -0.45 21.55 -2.3 L20.1 -2.65 Q14.8 -3.4 12.85 -8.1 11.65 -10.85 12.3 -13.55 10.6 -11.2 7.7 -9.75 4.65 -8.25 3.5 -11.5 L3.15 -12.1" fill="#ffef2f" fill-rule="evenodd" stroke="none"/>
    <path d="M43.95 -18.95 L43.9 -19.45 44.0 -19.3 43.95 -18.95" fill="#5e7b4f" fill-rule="evenodd" stroke="none"/>
  </g>
</svg>
