<?xml version="1.0" encoding="UTF-8" standalone="no"?>
<svg xmlns:xlink="http://www.w3.org/1999/xlink" height="105.4px" width="111.55px" xmlns="http://www.w3.org/2000/svg">
  <g transform="matrix(1.0, 0.0, 0.0, 1.0, 52.4, 63.0)">
    <path d="M5.0 -52.15 L9.6 -52.3 12.65 -52.25 Q19.2 -52.6 25.25 -54.35 L26.0 -53.8 26.25 -53.5 Q25.15 -49.2 20.85 -46.55 19.25 -45.55 18.1 -44.05 16.5 -41.9 14.6 -40.15 L14.75 -40.0 Q12.45 -34.35 5.8 -33.2 -1.15 -31.95 -4.55 -38.25 -9.1 -46.7 -1.5 -52.2 -0.7 -52.75 0.3 -52.9 L0.85 -53.0 Q3.4 -53.35 5.0 -52.15 M39.65 -37.3 L39.15 -38.4 38.45 -39.6 Q30.9 -44.2 25.55 -37.35 19.85 -30.05 24.3 -21.85 26.2 -18.35 29.95 -17.3 L35.35 -17.5 32.75 -17.5 Q32.0 -17.5 31.4 -18.05 25.65 -23.6 27.6 -31.55 L28.1 -33.7 Q31.35 -38.4 37.05 -38.55 38.5 -38.15 39.65 -37.3 M40.05 -38.85 Q40.85 -37.8 40.7 -36.55 L40.8 -36.3 41.6 -35.3 41.7 -35.0 Q49.15 -28.3 55.9 -20.9 L55.95 -20.65 Q53.95 -18.6 50.45 -18.6 L44.05 -18.2 37.7 -17.6 Q33.85 -13.75 27.75 -16.7 22.8 -19.1 21.6 -24.35 19.3 -34.0 26.95 -40.6 29.15 -42.5 31.75 -43.05 37.15 -42.85 40.05 -38.85 M28.65 -28.6 Q28.4 -22.75 33.05 -19.25 L38.1 -19.65 39.1 -19.75 52.7 -21.5 37.05 -37.15 Q29.0 -36.2 28.65 -28.6 M15.45 -44.0 Q19.25 -48.55 23.2 -51.7 13.0 -50.0 2.65 -49.2 L2.35 -49.05 2.35 -48.75 2.25 -48.45 Q-0.7 -46.25 0.8 -42.95 2.55 -39.05 7.15 -38.7 L10.2 -38.55 Q13.0 -41.1 15.45 -44.0 M5.05 -26.05 Q6.05 -25.5 6.3 -24.45 L6.1 -23.85 5.9 -23.6 Q-0.85 -21.5 -7.7 -19.8 -14.4 -18.15 -21.15 -17.0 -26.8 -19.6 -27.8 -25.9 -28.85 -32.25 -23.1 -34.5 L-21.15 -35.1 -12.25 -32.75 Q-16.3 -38.4 -23.75 -36.75 -30.9 -35.15 -30.95 -28.1 -31.0 -22.45 -27.5 -18.2 -24.5 -14.55 -19.7 -13.6 -15.15 -12.65 -13.15 -17.4 L-12.5 -18.3 -12.0 -18.3 -11.7 -18.0 Q-12.0 -17.0 -12.6 -16.15 L-14.8 -12.8 -14.95 -12.55 Q-20.0 -10.6 -25.05 -13.85 -32.6 -18.7 -32.3 -27.7 -32.25 -29.9 -31.5 -31.85 -29.1 -38.15 -22.35 -38.55 -13.85 -39.4 -11.05 -32.35 -5.0 -30.5 0.95 -28.05 L5.05 -26.05 M6.55 -34.8 Q10.9 -35.75 13.2 -39.0 L10.3 -37.05 Q9.4 -36.55 8.15 -36.6 1.0 -37.2 -0.95 -43.55 L-1.1 -44.65 Q-1.1 -46.2 -0.3 -47.4 L-0.5 -48.95 -0.6 -49.55 Q1.2 -50.95 3.25 -51.65 0.2 -52.85 -2.95 -49.55 -5.5 -46.85 -5.0 -43.05 -4.1 -36.5 2.15 -34.85 4.3 -34.3 6.55 -34.8 M10.2 -16.2 L9.05 -16.3 8.8 -16.6 8.75 -16.8 8.65 -16.85 7.85 -16.8 Q4.2 -13.6 7.9 -10.3 9.55 -8.85 11.4 -9.95 13.55 -11.25 15.9 -12.0 15.3 -13.4 12.95 -14.6 11.55 -15.35 10.2 -16.2 M19.8 -13.35 Q21.6 -15.3 24.0 -15.35 28.05 -15.25 30.1 -11.8 L30.25 -11.5 30.15 -11.2 30.05 -10.6 29.8 -10.0 Q29.2 -10.6 28.6 -11.65 28.1 -12.7 27.0 -13.35 L26.25 -13.85 Q20.55 -14.05 18.25 -8.35 14.4 1.45 21.7 9.4 22.45 10.25 23.6 10.3 26.6 10.45 28.65 9.05 26.05 9.2 23.45 8.95 L22.8 8.65 Q16.95 3.05 19.1 -5.05 20.55 -10.7 26.05 -12.1 35.9 -5.95 45.15 1.45 L47.1 2.9 47.4 3.35 47.05 3.9 46.8 4.15 Q41.2 6.85 35.05 8.2 L30.85 8.9 Q28.3 12.35 22.85 11.35 19.05 10.65 17.45 7.0 15.2 1.85 15.65 -3.75 15.9 -7.5 17.8 -10.6 L10.05 -8.05 8.45 -8.2 Q3.2 -10.65 5.0 -16.2 6.45 -18.3 9.0 -18.2 9.7 -18.2 10.2 -18.45 L19.1 -12.5 19.8 -13.35 M3.3 -9.5 Q3.55 -8.2 4.1 -7.05 L4.3 -6.75 4.25 -6.45 4.2 -5.8 4.2 -5.2 3.95 -4.95 Q10.45 1.45 15.55 9.05 L15.7 9.35 15.6 9.65 15.45 9.95 15.3 10.15 Q13.3 11.25 11.05 11.0 L-0.3 10.3 Q-2.75 10.25 -4.65 9.5 -8.2 9.3 -10.9 5.3 L-11.55 3.95 Q-14.1 -4.7 -7.7 -10.45 -6.3 -11.7 -4.45 -11.9 L-3.25 -12.1 Q-0.15 -12.5 2.35 -10.7 L2.85 -10.4 3.3 -9.5 M0.4 -8.25 L3.1 -5.8 3.15 -5.9 Q1.95 -11.75 -4.4 -10.2 -10.2 -8.8 -10.9 -2.9 -11.3 0.1 -10.45 2.65 -10.75 1.1 -10.5 -0.6 -9.7 -6.7 -3.05 -7.4 -1.4 -7.55 0.0 -8.15 L0.4 -8.2 0.4 -8.25 M25.25 -10.4 Q18.35 -5.65 20.95 2.65 21.85 5.55 24.35 7.5 L30.8 6.8 32.05 6.6 Q37.95 5.45 43.55 3.15 42.25 1.1 39.6 -0.65 32.15 -5.6 25.25 -10.4 M41.2 17.05 Q38.65 12.25 33.6 14.3 30.75 15.45 29.55 18.25 27.2 24.0 31.35 28.45 32.35 29.5 33.65 30.05 36.5 31.2 38.95 30.8 34.75 30.45 32.55 26.55 L32.15 25.9 Q31.45 23.1 32.4 20.45 33.0 18.65 34.1 17.05 L34.2 16.15 Q34.75 15.65 35.5 15.6 L36.25 15.55 36.45 15.55 36.55 15.85 36.55 16.05 Q48.15 18.4 58.9 23.15 59.4 23.8 58.9 24.4 49.4 26.1 40.0 29.7 L39.85 30.55 Q38.85 31.25 38.25 32.25 34.3 32.55 30.45 29.7 28.35 28.1 27.8 25.3 26.0 15.45 35.4 12.0 39.85 12.45 42.05 16.15 L42.35 16.45 42.35 16.75 42.15 17.05 41.2 17.05 M42.75 29.05 L43.35 28.95 43.4 29.05 42.4 29.35 42.75 29.05 M11.0 28.95 Q4.0 29.65 -2.85 31.35 L-4.85 31.7 Q-7.05 33.1 -9.75 33.65 -17.75 30.85 -16.9 23.1 -16.2 16.9 -9.65 15.55 L-8.1 15.25 Q-3.05 15.5 -1.65 20.05 L-1.6 20.2 Q5.25 23.65 11.55 27.95 L11.6 28.15 11.25 28.75 11.0 28.95 M6.95 27.35 Q-0.25 22.5 -7.9 19.5 -10.6 20.6 -12.0 23.15 L-12.2 23.5 Q-12.7 28.55 -7.65 29.15 L-4.35 29.35 -1.9 29.2 1.1 28.65 6.95 27.35 M37.65 28.65 L37.85 28.45 38.05 28.15 54.35 23.15 Q44.85 19.35 35.0 17.9 30.7 24.35 37.1 28.45 L37.65 28.65 M37.35 37.0 L37.5 37.35 37.45 37.6 37.35 37.9 37.25 38.15 Q33.85 39.35 30.35 40.2 28.6 42.8 24.25 42.35 20.7 41.95 20.0 38.45 18.65 31.45 25.25 29.9 27.55 30.1 29.1 31.65 L29.3 31.9 29.4 32.65 Q33.75 33.5 37.1 36.75 L37.35 37.0 M24.95 34.95 Q23.9 40.0 29.35 38.85 L29.95 38.75 31.15 38.4 32.0 38.0 34.1 36.7 Q30.3 33.85 25.75 34.05 L25.15 34.7 24.95 34.95 M21.25 36.7 Q21.55 42.55 27.2 40.85 26.2 40.9 25.35 40.35 24.05 39.5 23.3 38.15 L23.4 36.3 Q23.75 33.35 26.45 32.35 L28.45 32.5 Q24.5 29.5 22.05 33.5 21.15 34.95 21.25 36.7 M0.1 -5.8 L-0.1 -6.0 -0.2 -6.05 -1.2 -6.1 Q-8.05 -6.0 -8.85 -0.1 -9.45 4.15 -6.4 6.7 L-6.2 7.0 -6.1 7.2 -2.35 7.95 -0.05 8.25 Q6.25 9.0 12.75 8.55 7.2 0.75 0.1 -5.8 M-34.0 -59.6 L-36.35 -60.7 -43.65 -60.5 Q-48.45 -57.8 -50.0 -52.4 L-50.65 -48.9 Q-51.85 -38.7 -42.0 -35.2 -39.35 -34.25 -36.45 -34.5 -32.35 -34.9 -30.7 -38.55 -29.9 -40.3 -29.65 -42.1 L-34.15 -39.1 Q-35.7 -38.2 -37.45 -38.6 -43.65 -40.0 -45.65 -45.5 -47.5 -50.75 -44.65 -55.25 L-44.7 -55.55 -44.7 -55.85 -44.65 -56.15 -44.4 -56.3 -43.35 -57.0 -43.0 -57.3 -41.95 -58.35 Q-40.65 -59.4 -39.05 -59.6 L-34.0 -59.6 M-32.55 -59.6 L-15.75 -59.35 Q-10.7 -59.2 -6.15 -57.65 L-5.9 -57.3 -6.0 -57.0 -6.2 -56.7 -6.5 -56.45 -11.45 -55.25 Q-19.15 -52.05 -25.05 -46.15 L-28.2 -43.25 Q-27.8 -37.6 -33.45 -33.8 -35.0 -32.75 -37.0 -32.5 -44.0 -31.65 -48.7 -36.75 -52.5 -40.75 -52.3 -46.4 -52.05 -53.4 -47.7 -59.1 -46.5 -60.65 -44.7 -61.6 -42.5 -62.75 -40.25 -63.0 -35.4 -63.15 -32.55 -59.6 M-13.8 -56.75 Q-26.5 -57.8 -39.25 -57.4 L-41.15 -55.75 -41.4 -55.45 Q-46.4 -52.55 -44.6 -46.4 -44.1 -44.75 -42.9 -43.55 -38.65 -39.45 -33.55 -41.5 L-32.25 -42.45 -29.6 -45.0 -28.7 -45.8 Q-22.0 -51.9 -14.25 -56.5 L-13.8 -56.75 M-41.7 -26.85 L-40.85 -26.35 Q-39.6 -25.55 -38.95 -24.35 -39.2 -23.25 -38.3 -21.25 L-37.85 -19.45 -37.15 -17.75 Q-36.5 -15.8 -37.7 -14.2 -38.5 -13.2 -39.4 -12.5 -40.1 -11.3 -41.15 -10.25 -44.4 -6.95 -48.25 -9.45 -54.2 -13.35 -51.6 -20.3 -49.75 -25.25 -44.75 -27.05 L-41.7 -26.85 M-44.65 -25.8 L-44.85 -25.75 Q-52.7 -21.75 -50.3 -13.35 -49.8 -11.7 -48.3 -10.8 -44.45 -8.6 -41.95 -11.35 L-45.75 -11.5 -47.35 -13.35 -48.0 -13.95 Q-49.85 -19.85 -45.05 -22.9 L-43.5 -24.0 -43.1 -24.05 -43.1 -24.1 Q-41.25 -23.45 -39.85 -22.15 -40.4 -23.85 -41.5 -25.45 L-44.65 -25.8 M-44.95 -22.0 Q-48.0 -19.1 -46.5 -14.95 L-46.45 -14.65 -45.55 -13.75 -45.25 -13.45 Q-42.25 -12.75 -40.25 -14.1 L-38.85 -15.6 Q-39.0 -16.7 -39.4 -17.7 -40.25 -20.1 -42.3 -21.9 L-44.95 -22.0 M-11.2 -30.25 Q-15.5 -31.55 -19.9 -32.45 -20.9 -32.65 -21.65 -33.4 L-22.75 -33.4 Q-29.1 -28.6 -24.2 -21.8 L-22.15 -19.45 Q-9.35 -20.5 2.85 -24.85 -3.7 -27.95 -10.55 -30.05 L-11.2 -30.25 M-33.55 -5.4 Q-31.6 -6.25 -29.7 -6.4 -25.65 -6.9 -23.6 -3.45 L-22.8 -2.1 Q-23.35 -8.35 -29.85 -9.1 L-31.9 -8.9 Q-38.25 -7.05 -41.05 -0.95 -45.0 7.5 -38.8 14.1 -37.85 15.2 -36.4 15.3 -31.6 15.75 -28.5 13.5 L-33.7 12.7 Q-35.7 12.4 -36.8 10.65 -40.8 4.25 -37.1 -2.15 -35.8 -4.4 -33.55 -5.4 M-27.15 -3.85 L-27.25 -3.8 -27.65 -3.7 -28.15 -3.9 -28.45 -4.2 -28.55 -4.5 -28.55 -4.7 -29.3 -4.85 -30.2 -4.9 Q-38.55 -2.55 -37.45 5.85 -36.8 10.45 -32.4 11.15 L-27.65 11.8 -26.8 11.9 -25.55 12.0 Q-21.2 12.3 -16.75 11.9 L-26.2 -3.0 -26.95 -4.0 -27.15 -3.85 M-21.7 -0.3 L-13.2 13.4 -13.45 14.0 -13.6 14.2 -26.85 13.65 Q-29.8 16.65 -35.4 16.5 -39.6 16.4 -41.75 12.85 -44.5 8.25 -43.6 2.9 -42.0 -6.95 -32.45 -9.95 L-29.3 -10.8 Q-21.55 -8.75 -21.65 -0.85 L-21.65 -0.5 -21.7 -0.3 M-13.8 22.85 Q-12.15 19.95 -9.25 18.65 -7.8 18.0 -6.5 17.8 L-2.9 19.5 Q-5.8 15.0 -11.4 17.7 -16.7 20.25 -15.35 26.1 -14.4 30.15 -10.05 31.65 L-7.5 31.6 Q-10.85 30.9 -12.95 27.6 -13.95 26.05 -13.85 24.1 L-13.8 22.85" fill="#333333" fill-rule="evenodd" stroke="none"/>
    <path d="M15.45 -44.0 Q13.0 -41.1 10.2 -38.55 L7.15 -38.7 Q2.55 -39.05 0.8 -42.95 -0.7 -46.25 2.25 -48.45 L2.35 -48.75 2.35 -49.05 2.65 -49.2 Q13.0 -50.0 23.2 -51.7 19.25 -48.55 15.45 -44.0 M28.65 -28.6 Q29.0 -36.2 37.05 -37.15 L52.7 -21.5 39.1 -19.75 38.1 -19.65 33.05 -19.25 Q28.4 -22.75 28.65 -28.6 M10.2 -16.2 Q11.55 -15.35 12.95 -14.6 15.3 -13.4 15.9 -12.0 13.55 -11.25 11.4 -9.95 9.55 -8.85 7.9 -10.3 4.2 -13.6 7.85 -16.8 L8.65 -16.85 8.75 -16.8 8.8 -16.6 9.05 -16.3 10.2 -16.2 M25.25 -10.4 Q32.15 -5.6 39.6 -0.65 42.25 1.1 43.55 3.15 37.95 5.45 32.05 6.6 L30.8 6.8 24.35 7.5 Q21.85 5.55 20.95 2.65 18.35 -5.65 25.25 -10.4 M37.65 28.65 L37.1 28.45 Q30.7 24.35 35.0 17.9 44.85 19.35 54.35 23.15 L38.05 28.15 37.85 28.45 37.65 28.65 M6.95 27.35 L1.1 28.65 -1.9 29.2 -4.35 29.35 -7.65 29.15 Q-12.7 28.55 -12.2 23.5 L-12.0 23.15 Q-10.6 20.6 -7.9 19.5 -0.25 22.5 6.95 27.35 M24.95 34.95 L25.15 34.7 25.75 34.05 Q30.3 33.85 34.1 36.7 L32.0 38.0 31.15 38.4 29.95 38.75 29.35 38.85 Q23.9 40.0 24.95 34.95 M0.1 -5.8 Q7.2 0.75 12.75 8.55 6.25 9.0 -0.05 8.25 L-2.35 7.95 -6.1 7.2 -6.2 7.0 -6.4 6.7 Q-9.45 4.15 -8.85 -0.1 -8.05 -6.0 -1.2 -6.1 L-0.2 -6.05 -0.1 -6.0 0.1 -5.8 M-13.8 -56.75 L-14.25 -56.5 Q-22.0 -51.9 -28.7 -45.8 L-29.6 -45.0 -32.25 -42.45 -33.55 -41.5 Q-38.65 -39.45 -42.9 -43.55 -44.1 -44.75 -44.6 -46.4 -46.4 -52.55 -41.4 -55.45 L-41.15 -55.75 -39.25 -57.4 Q-26.5 -57.8 -13.8 -56.75 M-11.2 -30.25 L-10.55 -30.05 Q-3.7 -27.95 2.85 -24.85 -9.35 -20.5 -22.15 -19.45 L-24.2 -21.8 Q-29.1 -28.6 -22.75 -33.4 L-21.65 -33.4 Q-20.9 -32.65 -19.9 -32.45 -15.5 -31.55 -11.2 -30.25 M-44.95 -22.0 L-42.3 -21.9 Q-40.25 -20.1 -39.4 -17.7 -39.0 -16.7 -38.85 -15.6 L-40.25 -14.1 Q-42.25 -12.75 -45.25 -13.45 L-45.55 -13.75 -46.45 -14.65 -46.5 -14.95 Q-48.0 -19.1 -44.95 -22.0 M-27.15 -3.85 L-26.95 -4.0 -26.2 -3.0 -16.75 11.9 Q-21.2 12.3 -25.55 12.0 L-26.8 11.9 -27.65 11.8 -32.4 11.15 Q-36.8 10.45 -37.45 5.85 -38.55 -2.55 -30.2 -4.9 L-29.3 -4.85 -28.55 -4.7 -28.55 -4.5 -28.45 -4.2 -28.15 -3.9 -27.65 -3.7 -27.25 -3.8 -27.15 -3.85" fill="#645555" fill-rule="evenodd" stroke="none"/>
  </g>
</svg>
