<?xml version="1.0" encoding="UTF-8" standalone="no"?>
<svg xmlns:xlink="http://www.w3.org/1999/xlink" height="46.95px" width="241.45px" xmlns="http://www.w3.org/2000/svg">
  <g transform="matrix(1.0, 0.0, 0.0, 1.0, 120.75, 23.45)">
    <path d="M29.2 -23.05 Q24.7 -21.1 20.3 -19.0 -4.65 -7.05 -28.35 7.05 L-33.25 10.0 Q-37.7 12.7 -42.75 14.45 -45.45 15.35 -47.3 16.7 L-64.35 17.85 Q-71.5 17.9 -71.15 10.95 -64.15 5.3 -55.35 5.3 -41.45 5.3 -28.35 7.05 L-25.05 3.9 -30.35 2.55 -30.9 1.65 Q-47.5 4.45 -64.4 4.35 L-70.2 4.8 Q-79.2 5.85 -84.65 -0.8 L-83.9 -3.05 -71.65 -1.8 Q-70.65 -3.9 -68.5 -4.45 -57.2 -7.1 -45.05 -7.85 L-45.15 -11.05 Q-32.55 -16.25 -17.4 -15.05 L-17.4 -17.3 Q-15.65 -20.15 -12.3 -20.7 8.2 -24.5 29.2 -23.05 M-1.75 18.1 L1.1 16.8 0.6 17.3 Q-0.45 18.35 -1.75 18.1 M4.9 15.05 L20.3 7.5 Q40.85 -3.05 60.9 -14.1 L83.3 -12.2 70.25 -4.8 Q44.8 8.95 18.65 21.35 14.45 21.15 10.35 19.95 L9.75 18.95 Q8.15 18.7 6.95 17.45 L5.45 15.75 4.9 15.05 M95.25 -10.3 L97.1 -9.65 Q108.65 -5.25 103.55 5.95 L118.95 8.5 120.55 9.45 Q121.05 11.0 119.9 11.95 116.4 14.95 110.95 14.55 L98.1 12.65 Q83.65 9.9 71.75 15.8 L80.1 16.75 Q84.1 17.35 87.55 19.15 92.1 21.6 85.65 22.85 77.1 24.45 68.6 22.2 L66.1 20.2 67.1 17.5 Q54.75 19.55 42.25 19.5 55.75 12.75 69.4 6.25 83.65 -0.6 95.25 -10.3 M-109.65 6.95 L-110.65 8.2 Q-115.9 9.8 -120.4 6.7 L-120.75 5.9 -120.4 4.45 -119.35 3.85 -117.3 3.1 Q-111.55 0.75 -109.4 5.95 L-107.9 6.95 -109.65 6.95 M-94.4 6.7 L-89.4 4.45 -87.15 4.35 Q-83.35 4.25 -80.9 6.7 -87.6 11.35 -94.4 6.7" fill="#603535" fill-rule="evenodd" stroke="none"/>
    <path d="M29.2 -23.05 L32.3 -22.8 38.95 -22.4 Q48.2 -22.6 47.5 -14.8 L60.9 -14.1 Q40.85 -3.05 20.3 7.5 L4.9 15.05 3.65 13.3 3.35 13.85 1.15 16.8 1.1 16.8 -1.75 18.1 -2.2 17.95 -4.15 17.2 -3.7 15.75 Q-11.35 13.1 -19.45 14.65 -24.7 15.5 -28.45 12.7 -29.2 13.2 -30.0 13.35 -38.5 15.6 -47.3 16.7 -45.45 15.35 -42.75 14.45 -37.7 12.7 -33.25 10.0 L-28.35 7.05 Q-4.65 -7.05 20.3 -19.0 24.7 -21.1 29.2 -23.05 M83.3 -12.2 L90.05 -11.45 95.25 -10.3 Q83.65 -0.6 69.4 6.25 55.75 12.75 42.25 19.5 L29.2 18.85 28.35 20.2 21.6 21.35 21.4 21.35 18.65 21.35 Q44.8 8.95 70.25 -4.8 L83.3 -12.2" fill="#6c3e3e" fill-rule="evenodd" stroke="none"/>
  </g>
</svg>
