<?xml version="1.0" encoding="UTF-8" standalone="no"?>
<svg xmlns:xlink="http://www.w3.org/1999/xlink" height="17.25px" width="15.2px" xmlns="http://www.w3.org/2000/svg">
  <g transform="matrix(1.0, 0.0, 0.0, 1.0, 7.2, 8.8)">
    <path d="M0.8 -4.8 L0.5 -5.1 0.5 -5.2 0.5 -5.35 Q0.25 -5.7 0.15 -6.25 0.05 -6.95 -0.65 -7.25 L-1.5 -7.65 Q-3.15 -8.25 -4.5 -7.35 -6.5 -5.9 -6.15 -3.5 L-5.8 -2.3 -5.6 -1.7 -3.5 -3.5 Q-1.9 -4.5 -0.1 -4.75 L0.8 -4.75 0.85 -4.75 0.8 -4.8 M1.2 -5.4 Q2.35 -4.6 3.15 -3.3 3.85 -2.1 4.1 -0.7 5.8 -0.65 7.4 0.0 L7.65 0.3 Q8.15 2.3 7.9 4.3 7.7 5.75 6.9 7.0 6.75 8.0 5.65 8.3 L4.7 8.45 1.8 8.3 1.15 8.4 -2.25 8.15 Q-4.0 7.95 -4.5 6.4 L-6.0 0.85 -6.4 -1.55 Q-7.0 -2.35 -7.15 -3.4 -7.55 -6.4 -5.05 -8.15 -4.4 -8.65 -3.6 -8.8 -0.8 -9.0 0.8 -6.85 L1.15 -6.1 1.2 -5.4 M3.0 -1.55 L0.4 -1.2 -2.8 0.0 Q-3.5 0.35 -4.05 0.95 L-4.9 1.95 -4.3 4.05 -3.5 6.5 -3.35 6.7 -3.3 6.75 -2.85 7.05 0.5 7.4 1.85 7.5 Q2.05 7.5 2.2 7.65 L4.95 7.45 5.6 7.25 5.9 7.1 5.95 6.85 6.05 6.65 Q7.4 4.45 7.0 1.85 L6.75 0.7 Q5.65 0.15 4.25 0.3 3.65 0.4 3.35 -0.05 L3.0 -1.55 M1.55 -4.05 Q-1.1 -4.45 -3.4 -2.9 L-5.7 -1.0 -5.15 1.0 -5.0 0.8 -3.45 -0.45 Q-1.9 -1.35 -0.15 -1.75 L1.85 -2.2 2.75 -2.1 1.55 -4.05" fill="#000000" fill-rule="evenodd" stroke="none"/>
    <path d="M3.0 -1.55 L3.35 -0.05 Q3.65 0.4 4.25 0.3 5.65 0.15 6.75 0.7 L7.0 1.85 Q7.4 4.45 6.05 6.65 L5.95 6.85 5.9 7.1 5.6 7.25 4.95 7.45 2.2 7.65 Q2.05 7.5 1.85 7.5 L0.5 7.4 -2.85 7.05 -3.3 6.75 -3.35 6.7 -3.5 6.5 -4.3 4.05 -4.9 1.95 -4.05 0.95 Q-3.5 0.35 -2.8 0.0 L0.4 -1.2 3.0 -1.55" fill="#333333" fill-rule="evenodd" stroke="none"/>
    <path d="M0.8 -4.75 L-0.1 -4.75 Q-1.9 -4.5 -3.5 -3.5 L-5.6 -1.7 -5.8 -2.3 -6.15 -3.5 Q-6.5 -5.9 -4.5 -7.35 -3.15 -8.25 -1.5 -7.65 L-0.65 -7.25 Q0.05 -6.95 0.15 -6.25 0.25 -5.7 0.5 -5.35 L0.5 -5.2 0.5 -5.1 0.8 -4.8 0.8 -4.75 M1.55 -4.05 L2.75 -2.1 1.85 -2.2 -0.15 -1.75 Q-1.9 -1.35 -3.45 -0.45 L-5.0 0.8 -5.15 1.0 -5.7 -1.0 -3.4 -2.9 Q-1.1 -4.45 1.55 -4.05" fill="#666666" fill-rule="evenodd" stroke="none"/>
  </g>
</svg>
