<?xml version="1.0" encoding="UTF-8" standalone="no"?>
<svg xmlns:xlink="http://www.w3.org/1999/xlink" height="13.5px" width="26.3px" xmlns="http://www.w3.org/2000/svg">
  <g transform="matrix(1.0, 0.0, 0.0, 1.0, 13.15, 6.75)">
    <path d="M11.8 -0.1 Q12.6 0.9 12.6 2.2 L12.75 2.65 Q13.35 4.0 13.05 5.35 L12.4 5.7 2.2 6.25 1.9 6.05 1.55 5.3 1.55 5.25 0.3 5.35 0.3 5.5 0.4 5.7 0.45 5.85 0.45 6.0 0.2 6.4 -0.35 6.75 -8.85 6.7 -11.2 6.6 Q-12.05 6.55 -12.5 5.85 L-12.7 5.55 -12.8 4.9 -13.15 1.25 Q-13.15 -0.35 -12.75 -1.8 L-12.65 -1.95 -12.5 -2.3 -12.4 -2.6 -12.4 -2.75 -10.95 -4.25 Q-8.7 -5.8 -5.85 -6.4 L-5.1 -6.6 Q1.0 -7.25 6.35 -4.55 9.55 -2.95 11.8 -0.1" fill="#000000" fill-rule="evenodd" stroke="none"/>
  </g>
</svg>
