<?xml version="1.0" encoding="UTF-8" standalone="no"?>
<svg xmlns:xlink="http://www.w3.org/1999/xlink" height="8.45px" width="15.2px" xmlns="http://www.w3.org/2000/svg">
  <g transform="matrix(1.0, 0.0, 0.0, 1.0, 7.6, 4.2)">
    <path d="M3.45 -3.25 L3.65 -3.3 4.0 -3.4 5.3 -3.35 5.6 -3.0 Q6.35 -2.05 6.2 -0.95 4.8 -0.15 3.65 -0.7 L2.8 -1.35 2.7 -1.95 2.75 -2.4 2.9 -2.4 2.95 -2.7 3.05 -2.85 2.9 -2.85 3.05 -3.1 3.45 -3.25 M4.7 0.55 L4.55 0.9 3.65 0.75 -2.5 0.55 -3.0 0.65 -3.5 0.7 -4.0 0.75 Q-5.5 0.85 -6.55 1.8 L-6.55 1.45 -6.5 0.5 -6.5 -0.3 -6.45 -1.4 -5.7 -1.55 1.95 -2.3 2.05 -1.6 Q2.5 -0.05 3.65 0.35 L4.75 0.45 4.7 0.55 M5.75 2.8 L5.75 2.95 3.65 3.1 -5.9 3.35 -6.45 3.25 -6.55 2.6 -6.4 2.55 Q-5.95 2.3 -5.45 2.2 -0.95 1.0 3.65 1.5 L4.6 1.6 4.6 1.7 4.75 1.85 5.4 2.5 5.65 2.65 5.75 2.8" fill="#666666" fill-rule="evenodd" stroke="none"/>
    <path d="M3.45 -3.25 L3.05 -3.1 2.9 -2.85 3.05 -2.85 2.95 -2.7 2.9 -2.4 2.75 -2.4 2.7 -1.95 2.8 -1.35 3.65 -0.7 Q4.8 -0.15 6.2 -0.95 6.35 -2.05 5.6 -3.0 L5.3 -3.35 4.0 -3.4 3.65 -3.3 3.45 -3.25 M4.2 -4.2 Q5.3 -4.3 6.25 -3.75 L6.45 -3.6 Q7.75 -1.85 6.55 -0.25 L6.1 0.15 6.05 0.25 6.0 0.4 5.95 0.6 5.75 0.9 5.9 1.15 6.65 2.05 6.85 2.3 7.3 2.95 7.6 3.6 7.6 3.9 7.5 4.1 7.4 4.25 -7.15 4.25 -7.2 4.2 -7.25 4.0 -7.3 3.85 -7.5 3.55 -7.55 2.45 -7.6 1.45 -7.55 0.05 -7.55 -1.85 Q-6.9 -2.8 -5.7 -2.75 L-0.45 -3.0 1.65 -2.9 2.15 -2.9 2.35 -3.2 Q2.9 -3.9 3.65 -4.1 L4.2 -4.2 M4.75 0.45 L3.65 0.35 Q2.5 -0.05 2.05 -1.6 L1.95 -2.3 -5.7 -1.55 -6.45 -1.4 -6.5 -0.3 -6.5 0.5 -6.55 1.45 -6.55 1.8 Q-5.5 0.85 -4.0 0.75 L-3.5 0.7 -3.0 0.65 -2.5 0.55 3.65 0.75 4.55 0.9 4.7 0.55 4.75 0.45 M5.75 2.95 L5.8 2.95 5.75 2.8 5.65 2.65 5.4 2.5 4.75 1.85 4.6 1.7 4.6 1.6 3.65 1.5 Q-0.95 1.0 -5.45 2.2 -5.95 2.3 -6.4 2.55 L-6.55 2.5 -6.55 2.6 -6.45 3.25 -5.9 3.35 3.65 3.1 5.75 2.95" fill="#000000" fill-rule="evenodd" stroke="none"/>
  </g>
</svg>
