<?xml version="1.0" encoding="UTF-8" standalone="no"?>
<svg xmlns:xlink="http://www.w3.org/1999/xlink" height="15.05px" width="10.65px" xmlns="http://www.w3.org/2000/svg">
  <g transform="matrix(1.0, 0.0, 0.0, 1.0, 5.35, 3.5)">
    <path d="M2.2 -3.2 L2.55 -3.1 Q3.8 -1.9 3.65 -0.5 L5.05 -0.1 Q6.1 4.8 2.9 9.05 L1.45 10.75 Q-0.15 12.45 -1.7 10.45 -4.4 7.0 -5.15 2.8 L-5.35 0.15 -5.05 -0.6 -2.2 -1.2 -2.25 -1.65 Q-1.05 -3.85 1.45 -3.45 L2.2 -3.2 M1.2 -2.55 L0.95 -2.6 0.7 -2.6 -0.45 -2.5 Q-2.35 -0.85 -0.35 0.4 0.35 0.85 1.25 0.75 L2.15 0.55 2.25 0.35 2.45 -0.05 2.45 -0.1 2.45 -0.3 2.6 -0.35 2.6 -0.4 2.7 -0.6 Q2.7 -1.25 2.25 -1.7 L1.2 -2.55 M-2.2 -0.6 L-4.25 0.3 Q-4.4 3.25 -3.35 5.8 L-1.85 6.65 -0.95 6.95 Q1.75 7.05 3.75 5.4 4.25 3.7 4.2 1.8 L4.25 0.9 3.3 0.65 3.05 1.05 2.8 1.45 Q-1.1 3.25 -2.1 -0.4 L-2.15 -0.6 -2.2 -0.6 M1.75 7.35 L-1.35 7.6 -2.7 7.1 -0.55 9.95 0.0 10.5 0.4 10.5 Q2.35 8.8 3.3 6.65 L1.75 7.35" fill="#000000" fill-rule="evenodd" stroke="none"/>
    <path d="M-2.1 -0.4 Q-1.1 3.25 2.8 1.45 L3.05 1.05 3.3 0.65 4.25 0.9 4.2 1.8 Q4.25 3.7 3.75 5.4 1.75 7.05 -0.95 6.95 L-1.85 6.65 -3.35 5.8 Q-4.4 3.25 -4.25 0.3 L-2.2 -0.6 -2.1 -0.4 M1.2 -2.55 L2.25 -1.7 Q2.7 -1.25 2.7 -0.6 L2.6 -0.4 2.6 -0.35 2.45 -0.3 2.45 -0.1 2.45 -0.05 2.25 0.35 2.15 0.55 1.25 0.75 Q0.35 0.85 -0.35 0.4 -2.35 -0.85 -0.45 -2.5 L0.7 -2.6 0.95 -2.6 1.2 -2.55 M1.75 7.35 L3.3 6.65 Q2.35 8.8 0.4 10.5 L0.0 10.5 -0.55 9.95 -2.7 7.1 -1.35 7.6 1.75 7.35" fill="#666666" fill-rule="evenodd" stroke="none"/>
  </g>
</svg>
