<?xml version="1.0" encoding="UTF-8" standalone="no"?>
<svg xmlns:xlink="http://www.w3.org/1999/xlink" height="13.2px" width="14.6px" xmlns="http://www.w3.org/2000/svg">
  <g transform="matrix(1.0, 0.0, 0.0, 1.0, 7.3, 6.6)">
    <path d="M6.5 -2.8 Q7.25 -0.45 7.3 2.05 7.3 3.85 6.5 5.45 -0.05 7.6 -6.3 5.8 -7.7 2.9 -7.1 -0.55 -6.8 -2.2 -6.8 -3.95 -3.9 -6.8 0.35 -6.6 3.05 -6.2 5.55 -5.2 L5.85 -4.95 5.6 -4.6 5.35 -4.45 5.0 -4.35 5.35 -3.95 6.5 -2.8 M3.25 -4.95 L2.2 -5.2 0.0 -5.2 Q-2.65 -4.85 -5.0 -3.75 L-5.4 -3.45 Q-5.5 -1.9 -5.75 -0.4 L-6.05 3.3 -5.4 4.05 -5.05 4.45 -4.65 5.2 5.35 4.05 Q5.8 3.2 5.8 2.2 5.8 0.2 5.1 -1.55 L4.15 -2.75 Q3.15 -3.7 3.25 -4.95" fill="#000000" fill-rule="evenodd" stroke="none"/>
    <path d="M3.25 -4.95 Q3.15 -3.7 4.15 -2.75 L5.1 -1.55 Q5.8 0.2 5.8 2.2 5.8 3.2 5.35 4.05 L-4.65 5.2 -5.05 4.45 -5.4 4.05 -6.05 3.3 -5.75 -0.4 Q-5.5 -1.9 -5.4 -3.45 L-5.0 -3.75 Q-2.65 -4.85 0.0 -5.2 L2.2 -5.2 3.25 -4.95" fill="#333333" fill-rule="evenodd" stroke="none"/>
  </g>
</svg>
