<?xml version="1.0" encoding="UTF-8" standalone="no"?>
<svg xmlns:xlink="http://www.w3.org/1999/xlink" height="13.65px" width="33.35px" xmlns="http://www.w3.org/2000/svg">
  <g transform="matrix(1.0, 0.0, 0.0, 1.0, 2.55, 5.0)">
    <path d="M27.6 -4.2 L27.75 -3.95 28.2 -3.3 28.45 -2.9 28.5 -2.65 28.5 -2.45 28.5 -2.25 28.75 -2.05 28.8 -1.8 28.8 -1.6 28.8 -1.4 29.0 -1.15 Q29.5 -0.75 29.6 -0.1 L29.65 0.15 29.7 0.35 30.4 1.1 30.45 1.45 30.65 1.65 30.8 1.85 30.7 2.05 30.55 2.25 30.45 2.25 30.45 4.75 30.45 5.4 29.65 6.25 Q28.0 7.65 25.4 7.75 L23.5 7.9 16.35 8.15 14.3 8.3 13.9 8.4 12.75 8.6 9.2 8.4 5.35 7.45 Q2.85 6.75 1.35 4.95 L1.3 5.05 Q0.0 5.45 -1.2 3.85 L-2.55 1.55 -2.55 0.5 -2.55 -0.4 -2.55 -1.05 -2.45 -1.2 -2.05 -1.9 -1.7 -2.15 -1.25 -2.75 0.55 -3.5 0.9 -3.65 1.9 -3.6 2.0 -3.5 Q5.9 -5.4 10.6 -4.25 L12.75 -3.55 13.9 -3.1 16.35 -1.8 16.7 -1.9 16.8 -2.1 17.1 -2.75 17.4 -3.3 18.7 -3.85 22.35 -4.9 Q24.9 -5.3 27.25 -4.3 L27.6 -4.2 M11.7 7.15 L12.75 7.2 13.9 7.2 14.35 7.15 Q16.25 5.95 18.35 6.75 L22.15 6.95 25.05 6.15 28.75 5.4 Q28.8 5.0 29.1 4.75 29.25 3.15 29.0 1.55 L28.9 1.1 28.95 0.85 28.9 0.8 27.75 -2.05 27.65 -2.45 Q27.1 -3.5 25.95 -3.65 21.85 -4.35 18.15 -2.45 L18.0 -2.25 17.8 -1.85 17.55 -1.15 17.3 -0.95 17.15 -0.75 17.0 -0.5 16.65 -0.4 13.9 -1.75 12.75 -2.2 12.5 -2.25 Q10.6 2.0 12.0 6.5 L12.05 6.7 11.7 7.05 11.35 6.9 Q10.65 4.5 10.7 2.0 10.8 -0.35 11.85 -2.45 L8.45 -3.05 Q6.35 1.4 8.0 6.2 L8.1 6.4 7.95 6.6 7.9 6.65 8.05 6.7 11.7 7.15 M5.95 -3.05 L4.9 -3.15 3.15 -2.7 2.35 -2.4 1.95 -2.3 1.45 -2.4 1.45 -2.35 1.3 -2.3 1.25 -2.35 1.15 -2.35 1.15 -2.9 Q-1.0 -2.15 -1.45 0.15 L-1.55 1.2 Q-0.75 2.55 0.5 3.5 L1.15 4.2 1.15 3.15 1.45 3.2 Q2.2 4.4 3.3 5.25 L7.35 6.55 Q5.5 1.65 7.75 -3.05 L5.95 -3.05" fill="#000000" fill-rule="evenodd" stroke="none"/>
    <path d="M11.7 7.05 L12.05 6.7 12.0 6.5 Q10.6 2.0 12.5 -2.25 L12.75 -2.2 13.9 -1.75 16.65 -0.4 17.0 -0.5 17.15 -0.75 17.3 -0.95 17.55 -1.15 17.8 -1.85 18.0 -2.25 18.15 -2.45 Q21.85 -4.35 25.95 -3.65 27.1 -3.5 27.65 -2.45 L27.75 -2.05 28.9 0.8 28.95 0.85 28.9 1.1 29.0 1.55 Q29.25 3.15 29.1 4.75 28.8 5.0 28.75 5.4 L25.05 6.15 22.15 6.95 18.35 6.75 Q16.25 5.95 14.35 7.15 L13.9 7.2 12.75 7.2 11.7 7.15 11.7 7.05" fill="#333333" fill-rule="evenodd" stroke="none"/>
    <path d="M11.7 7.05 L11.7 7.15 8.05 6.7 7.95 6.6 8.1 6.4 8.0 6.2 Q6.35 1.4 8.45 -3.05 L11.85 -2.45 Q10.8 -0.35 10.7 2.0 10.65 4.5 11.35 6.9 L11.7 7.05 M5.95 -3.05 L7.75 -3.05 Q5.5 1.65 7.35 6.55 L3.3 5.25 Q2.2 4.4 1.45 3.2 L1.15 3.15 1.15 4.2 0.5 3.5 Q-0.75 2.55 -1.55 1.2 L-1.45 0.15 Q-1.0 -2.15 1.15 -2.9 L1.15 -2.35 1.25 -2.35 1.3 -2.3 1.45 -2.35 1.45 -2.4 1.95 -2.3 2.35 -2.4 3.15 -2.7 4.9 -3.15 5.95 -3.05" fill="#666666" fill-rule="evenodd" stroke="none"/>
  </g>
</svg>
