<?xml version="1.0" encoding="UTF-8" standalone="no"?>
<svg xmlns:xlink="http://www.w3.org/1999/xlink" height="8.45px" width="15.15px" xmlns="http://www.w3.org/2000/svg">
  <g transform="matrix(1.0, 0.0, 0.0, 1.0, 7.55, 4.2)">
    <path d="M0.75 -3.6 L1.2 -2.9 1.3 -2.9 1.4 -2.95 1.4 -2.85 5.1 -2.85 5.9 -2.5 5.9 -2.35 5.8 0.5 5.8 0.85 5.8 0.9 5.75 0.9 5.9 1.15 6.25 1.55 6.65 2.05 6.85 2.3 7.3 2.95 7.6 3.6 7.6 3.9 7.5 4.1 7.4 4.25 -7.0 4.25 -7.0 4.2 -7.4 3.8 -6.55 2.45 Q-6.2 1.3 -6.55 0.15 -6.9 -1.0 -7.55 -1.75 L-7.55 -1.85 Q-6.9 -2.8 -5.7 -2.75 L-3.5 -2.7 -3.4 -3.05 -3.15 -3.3 -3.15 -3.4 Q-2.45 -4.15 -1.5 -4.2 -0.4 -4.3 0.55 -3.75 L0.75 -3.6 M4.75 0.45 L4.7 0.45 4.75 0.35 4.95 -0.35 4.95 -0.65 5.2 -2.0 2.55 -2.15 2.55 -2.0 1.95 -2.1 1.8 -2.05 1.45 -2.1 Q1.55 -1.15 0.85 -0.25 L0.5 0.1 0.4 0.0 0.35 -0.05 -0.15 0.05 -1.05 0.1 -1.25 0.0 -2.25 -0.35 -2.8 -0.7 -3.05 -0.95 -3.15 -1.05 -3.15 -1.1 -3.45 -1.7 -5.7 -1.55 -6.25 -1.45 Q-5.55 -0.5 -5.45 0.9 L-5.45 1.1 -4.0 0.75 -3.5 0.7 -3.0 0.65 -2.5 0.55 4.55 0.9 4.7 0.55 4.75 0.45 M0.4 -2.1 L-0.05 -2.95 -0.1 -3.0 -0.4 -3.35 -1.7 -3.4 -2.25 -3.25 -2.4 -3.15 -2.6 -2.75 -2.7 -2.4 -2.65 -1.7 -2.6 -1.55 -2.45 -1.3 -2.4 -1.25 -1.6 -0.55 -1.45 -0.5 0.1 -0.7 0.5 -0.95 0.4 -2.1 M5.75 2.8 L5.65 2.65 5.4 2.5 4.75 1.85 4.6 1.7 4.6 1.6 Q-0.55 0.9 -5.45 2.2 L-6.15 3.35 -5.9 3.35 3.65 3.1 5.75 2.95 5.8 2.95 5.75 2.8" fill="#000000" fill-rule="evenodd" stroke="none"/>
    <path d="M4.7 0.55 L4.55 0.9 -2.5 0.55 -3.0 0.65 -3.5 0.7 -4.0 0.75 -5.45 1.1 -5.45 0.9 Q-5.55 -0.5 -6.25 -1.45 L-5.7 -1.55 -3.45 -1.7 -3.15 -1.1 -3.15 -1.05 -3.05 -0.95 -2.8 -0.7 -2.25 -0.35 -1.25 0.0 -1.05 0.1 -0.15 0.05 0.35 -0.05 0.4 0.0 0.5 0.1 0.85 -0.25 Q1.55 -1.15 1.45 -2.1 L1.8 -2.05 1.95 -2.1 2.55 -2.0 2.55 -2.15 5.2 -2.0 4.95 -0.65 4.95 -0.35 4.75 0.35 4.7 0.45 4.75 0.45 4.7 0.55 M0.4 -2.1 L0.5 -0.95 0.1 -0.7 -1.45 -0.5 -1.6 -0.55 -2.4 -1.25 -2.45 -1.3 -2.6 -1.55 -2.65 -1.7 -2.7 -2.4 -2.6 -2.75 -2.4 -3.15 -2.25 -3.25 -1.7 -3.4 -0.4 -3.35 -0.1 -3.0 -0.05 -2.95 0.4 -2.1 M5.75 2.95 L3.65 3.1 -5.9 3.35 -6.15 3.35 -5.45 2.2 Q-0.55 0.9 4.6 1.6 L4.6 1.7 4.75 1.85 5.4 2.5 5.65 2.65 5.75 2.8 5.75 2.95" fill="#666666" fill-rule="evenodd" stroke="none"/>
  </g>
</svg>
