<?xml version="1.0" encoding="UTF-8" standalone="no"?>
<svg xmlns:xlink="http://www.w3.org/1999/xlink" height="72.25px" width="42.75px" xmlns="http://www.w3.org/2000/svg">
  <g transform="matrix(1.0, 0.0, 0.0, 1.0, 24.7, 46.65)">
    <path d="M-17.6 -42.9 Q-15.8 -36.4 -13.05 -30.0 -12.15 -27.75 -11.7 -25.4 -6.05 -18.0 -8.45 -9.15 -15.85 -5.55 -22.55 -10.0 -23.5 -14.85 -22.95 -19.75 -21.6 -31.65 -17.6 -42.9 M15.45 -4.55 L15.45 -3.45 13.3 -2.45 11.45 -1.8 9.4 -1.0 5.15 0.95 -0.35 3.45 Q-1.55 4.0 -2.6 4.7 L-2.95 4.9 -2.95 4.75 Q-4.1 5.45 -5.25 6.25 L-5.3 6.4 Q-6.7 7.0 -7.9 7.9 L-9.15 7.3 -9.6 7.15 -9.3 6.65 -5.95 5.0 -5.8 5.05 Q-3.35 3.7 -0.7 2.6 L-0.35 2.55 4.4 0.3 Q8.7 -1.75 13.15 -3.45 L14.0 -3.8 15.45 -4.55 M-11.85 18.1 L-13.0 17.9 -13.85 13.95 -13.85 13.5 -13.7 13.45 -13.5 13.45 -13.2 14.0 -13.1 14.15 -11.9 15.5 -11.7 15.7 Q-11.5 16.55 -11.75 17.45 L-11.95 17.75 -11.85 18.1 M-6.9 -9.0 Q-4.85 -16.05 -7.8 -22.5 L0.7 -21.8 1.05 -21.8 Q6.9 -22.2 12.9 -21.0 L13.2 -20.9 Q12.9 -15.75 12.85 -10.6 L12.8 -10.6 11.25 -10.55 10.85 -10.5 3.2 -10.15 -1.3 -9.8 -1.7 -9.7 -6.9 -9.0 M16.25 -26.6 L15.35 -26.9 11.9 -28.3 Q12.1 -31.1 12.95 -33.75 13.9 -36.8 14.95 -38.75 15.1 -35.75 15.55 -32.75 L16.25 -26.6 M16.8 -4.55 L16.85 -4.45 16.8 -3.7 16.8 -4.55" fill="#404040" fill-rule="evenodd" stroke="none"/>
    <path d="M16.4 18.15 L16.7 24.4 16.75 24.5 16.75 24.75 16.75 24.9 16.75 24.95 16.55 25.2 16.5 25.3 16.25 25.6 15.8 25.55 15.7 25.6 14.55 25.4 14.45 25.3 12.25 25.3 Q4.45 23.05 -3.5 21.75 L-3.6 21.7 -4.45 21.55 Q-10.75 20.45 -16.4 18.2 L-17.0 17.75 -16.85 17.5 -16.65 17.4 -16.95 16.95 -17.05 16.6 -17.0 16.35 -16.85 16.05 -17.05 15.95 -17.3 15.0 -18.4 4.9 -18.85 0.25 Q-18.9 -1.0 -19.2 -2.0 L-19.0 -6.35 Q-20.9 -6.9 -22.75 -7.9 -23.7 -7.95 -24.15 -8.6 -25.3 -16.9 -24.0 -25.3 -22.45 -35.75 -18.25 -45.35 L-18.15 -45.95 -17.95 -46.45 -17.9 -46.5 -17.45 -46.55 -17.45 -46.65 -17.0 -46.6 -16.5 -46.35 Q-15.5 -40.05 -13.55 -33.75 L-13.4 -33.15 -13.25 -33.05 -12.85 -32.85 -12.3 -31.3 -12.15 -30.75 -12.15 -30.7 -11.6 -30.45 -11.3 -29.85 Q-9.4 -31.0 -6.55 -30.85 L-6.25 -30.8 -3.4 -30.85 -1.8 -30.95 Q4.95 -30.5 11.25 -28.45 12.2 -34.65 14.25 -40.5 L14.35 -40.8 14.8 -40.95 14.8 -41.0 15.45 -40.85 15.7 -40.2 15.75 -39.65 15.95 -39.25 16.2 -38.95 Q16.2 -33.1 17.2 -27.3 L17.2 -26.7 17.35 -26.4 17.5 -26.2 17.65 -26.05 17.7 -25.85 18.05 -25.5 17.7 -25.25 18.05 -21.85 Q17.65 -20.6 17.6 -19.1 17.35 -14.0 17.25 -8.8 L17.2 -8.85 16.95 4.1 16.65 6.95 16.75 9.0 16.75 9.05 16.7 9.15 16.7 9.25 16.75 9.45 16.8 9.55 16.85 9.7 16.8 11.7 16.55 11.7 16.3 16.65 16.4 18.15 M-17.6 -42.9 L-17.6 -42.95 -17.6 -42.9 Q-21.6 -31.65 -22.95 -19.75 -23.5 -14.85 -22.55 -10.0 -15.85 -5.55 -8.45 -9.15 -6.05 -18.0 -11.7 -25.4 -12.15 -27.75 -13.05 -30.0 -15.8 -36.4 -17.6 -42.9 M15.85 -20.25 L16.0 -25.25 15.75 -25.4 13.85 -25.95 14.0 -26.55 Q4.1 -29.6 -5.9 -29.0 L-10.6 -28.25 -10.45 -27.85 -10.1 -26.7 -10.05 -26.4 Q-8.7 -24.5 -7.8 -22.5 -4.85 -16.05 -6.9 -9.0 L-7.25 -7.85 Q-7.45 -7.45 -8.0 -7.2 -13.05 -5.05 -17.9 -6.05 L-16.85 2.2 -16.0 15.65 -15.6 16.3 -15.6 16.55 -15.6 16.85 -13.5 17.7 -13.8 17.75 -13.0 17.9 -11.85 18.1 Q-4.1 19.55 3.55 21.45 L3.6 19.85 3.6 19.05 4.7 19.2 4.65 21.7 7.3 22.35 Q7.3 20.75 7.45 19.2 L7.5 18.4 8.55 18.55 8.65 22.5 8.6 22.65 8.8 22.7 11.25 23.45 11.3 23.45 Q11.0 21.45 11.2 19.3 L11.3 18.15 12.55 18.25 12.5 21.35 12.45 22.5 12.6 22.8 12.9 23.15 12.9 23.45 12.9 23.65 14.3 23.9 14.8 23.95 15.1 23.95 15.25 24.05 15.4 24.1 Q15.25 20.0 15.45 16.0 L15.15 15.65 15.55 12.4 15.55 12.2 13.9 13.0 Q8.65 15.3 2.2 14.75 1.4 14.65 0.9 14.1 L0.65 13.75 0.1 13.15 0.1 13.0 -0.2 12.5 -0.35 12.35 -0.35 12.2 -0.7 11.4 -0.85 10.95 -1.15 10.65 -1.2 10.2 -1.45 9.55 Q-1.55 9.05 -1.9 8.65 L-1.9 8.45 -1.9 8.15 -1.9 7.8 -1.8 7.7 -1.65 7.5 -1.3 7.45 Q-0.15 7.2 0.6 7.75 L10.7 10.5 14.6 10.7 15.35 10.75 15.55 10.05 15.45 -1.85 15.45 -3.45 15.45 -4.55 15.5 -10.4 15.8 -19.7 15.85 -20.25 M16.25 -26.6 L15.55 -32.75 Q15.1 -35.75 14.95 -38.75 13.9 -36.8 12.95 -33.75 12.1 -31.1 11.9 -28.3 L15.35 -26.9 16.25 -26.6 M17.0 -9.5 L16.9 -9.5 16.9 -9.45 17.0 -9.5 17.1 -9.5 17.0 -9.5 M16.8 -4.55 L16.8 -3.7 16.85 -4.45 16.8 -4.55 M12.75 11.5 L12.8 11.55 12.9 11.5 12.75 11.5 M8.65 2.85 L8.6 2.75 8.65 2.75 8.65 2.85 M1.55 9.3 L1.45 9.25 1.15 9.35 Q0.75 9.5 0.8 9.9 1.55 11.2 2.85 12.15 5.8 14.35 7.95 11.95 L7.75 11.5 7.7 11.35 7.8 11.3 7.7 11.3 7.65 11.05 Q5.9 10.3 4.0 10.05 L3.35 9.85 3.25 9.8 2.0 9.4 1.5 9.25 1.55 9.3 M5.4 16.55 L5.4 16.6 5.0 16.6 5.4 16.55 M7.8 16.3 L7.4 16.35 7.8 16.3 M-9.15 7.3 L-7.9 7.9 Q-4.35 9.85 -6.1 14.15 -6.65 15.5 -8.0 16.25 L-9.15 16.8 -10.25 16.35 -11.2 16.1 -11.7 15.7 -11.9 15.5 -13.1 14.15 -13.2 14.0 -13.5 13.45 Q-14.65 10.85 -11.95 8.1 -11.55 7.65 -10.8 7.45 L-9.85 7.1 -9.15 7.3 M-8.9 8.15 L-10.15 8.15 Q-14.25 9.85 -11.75 13.6 L-10.8 14.75 Q-6.3 15.4 -7.05 10.9 -7.15 10.35 -7.55 9.9 L-8.65 8.2 -8.9 8.15 M-14.9 17.55 L-14.7 17.6 -14.9 17.5 -14.9 17.55" fill="#000000" fill-rule="evenodd" stroke="none"/>
    <path d="M16.95 4.1 L16.85 9.7 16.8 9.55 16.75 9.45 16.7 9.25 16.7 9.15 16.75 9.05 16.75 9.0 16.65 6.95 16.95 4.1 M16.8 11.7 L16.8 12.35 16.6 16.45 16.55 18.2 16.4 18.15 16.3 16.65 16.55 11.7 16.8 11.7 M-10.45 -27.85 L-10.6 -28.25 -5.9 -29.0 Q4.1 -29.6 14.0 -26.55 L13.85 -25.95 15.75 -25.4 16.0 -25.25 15.85 -20.25 15.55 -20.35 13.55 -20.8 Q13.55 -22.95 13.2 -25.0 L1.1 -27.65 Q-4.75 -28.85 -10.45 -27.85 M15.5 -10.4 L15.45 -4.55 14.0 -3.8 13.15 -3.45 12.95 -6.3 Q12.8 -8.45 12.8 -10.6 L12.85 -10.6 15.5 -10.4 M15.45 -3.45 L15.45 -1.85 15.55 10.05 15.35 10.75 14.6 10.7 13.8 10.65 13.6 6.55 13.3 -2.45 15.45 -3.45 M13.9 13.0 L15.55 12.2 15.55 12.4 15.15 15.65 15.45 16.0 Q15.25 20.0 15.4 24.1 L15.25 24.05 15.1 23.95 14.8 23.95 14.3 23.9 13.9 13.0" fill="#6a6a6a" fill-rule="evenodd" stroke="none"/>
    <path d="M15.85 -20.25 L15.8 -19.7 15.5 -10.4 12.85 -10.6 Q12.9 -15.75 13.2 -20.9 L12.9 -21.0 Q6.9 -22.2 1.05 -21.8 L0.7 -21.8 -7.8 -22.5 Q-8.7 -24.5 -10.05 -26.4 L-10.1 -26.7 -10.45 -27.85 Q-4.75 -28.85 1.1 -27.65 L13.2 -25.0 Q13.55 -22.95 13.55 -20.8 L15.55 -20.35 15.85 -20.25 M14.6 10.7 L10.7 10.5 0.6 7.75 Q-0.15 7.2 -1.3 7.45 L-1.65 7.5 -1.8 7.7 -1.9 7.8 -1.9 8.15 -1.9 8.45 -1.9 8.65 Q-1.55 9.05 -1.45 9.55 L-1.2 10.2 -1.15 10.65 -0.85 10.95 -0.7 11.4 -0.35 12.2 -0.35 12.35 -0.2 12.5 0.1 13.0 0.1 13.15 0.65 13.75 0.9 14.1 Q1.4 14.65 2.2 14.75 8.65 15.3 13.9 13.0 L14.3 23.9 12.9 23.65 12.9 23.45 12.9 23.15 12.6 22.8 12.45 22.5 12.5 21.35 12.55 18.25 11.3 18.15 11.2 19.3 Q11.0 21.45 11.3 23.45 L11.25 23.45 8.8 22.7 8.65 22.5 8.55 18.55 7.5 18.4 7.45 19.2 Q7.3 20.75 7.3 22.35 L4.65 21.7 4.7 19.2 3.6 19.05 3.6 19.85 3.55 21.45 Q-4.1 19.55 -11.85 18.1 L-11.95 17.75 -11.75 17.45 Q-11.5 16.55 -11.7 15.7 L-11.2 16.1 -10.25 16.35 -9.15 16.8 -8.0 16.25 Q-6.65 15.5 -6.1 14.15 -4.35 9.85 -7.9 7.9 -6.7 7.0 -5.3 6.4 L-5.25 6.25 Q-4.1 5.45 -2.95 4.75 L-2.95 4.9 -2.6 4.7 Q-1.55 4.0 -0.35 3.45 L5.15 0.95 9.4 -1.0 11.45 -1.8 13.3 -2.45 13.6 6.55 13.8 10.65 14.6 10.7 M-13.0 17.9 L-13.8 17.75 -13.5 17.7 -15.6 16.85 -15.6 16.55 -15.6 16.3 -16.0 15.65 -16.85 2.2 -17.9 -6.05 Q-13.05 -5.05 -8.0 -7.2 -7.45 -7.45 -7.25 -7.85 L-6.9 -9.0 -1.7 -9.7 -1.3 -9.8 3.2 -10.15 10.85 -10.5 11.25 -10.55 12.8 -10.6 Q12.8 -8.45 12.95 -6.3 L13.15 -3.45 Q8.7 -1.75 4.4 0.3 L-0.35 2.55 -0.7 2.6 Q-3.35 3.7 -5.8 5.05 L-5.95 5.0 -9.3 6.65 -9.6 7.15 -9.15 7.3 -9.85 7.1 -10.8 7.45 Q-11.55 7.65 -11.95 8.1 -14.65 10.85 -13.5 13.45 L-13.7 13.45 -13.85 13.5 -13.85 13.95 -13.0 17.9 M-2.65 -2.85 L-2.8 -2.85 -2.65 -2.8 -2.6 -2.8 -2.6 -2.85 -2.65 -3.05 -2.65 -2.85 M17.0 -9.5 L16.9 -9.45 16.9 -9.5 17.0 -9.5 M8.65 2.85 L8.65 2.75 8.6 2.75 8.65 2.85 M7.8 16.3 L7.4 16.35 7.8 16.3 M5.4 16.55 L5.0 16.6 5.4 16.6 5.4 16.55 M-8.9 8.15 L-8.65 8.2 -7.55 9.9 Q-7.15 10.35 -7.05 10.9 -6.3 15.4 -10.8 14.75 L-11.75 13.6 Q-14.25 9.85 -10.15 8.15 L-8.9 8.15" fill="#4a4a4a" fill-rule="evenodd" stroke="none"/>
    <path d="M1.55 9.3 L1.5 9.25 2.0 9.4 3.25 9.8 3.35 9.85 4.0 10.05 Q5.9 10.3 7.65 11.05 L7.7 11.3 7.8 11.3 7.7 11.35 7.75 11.5 7.95 11.95 Q5.8 14.35 2.85 12.15 1.55 11.2 0.8 9.9 0.75 9.5 1.15 9.35 L1.45 9.25 1.55 9.3" fill="#ff0000" fill-rule="evenodd" stroke="none"/>
  </g>
</svg>
