<?xml version="1.0" encoding="UTF-8" standalone="no"?>
<svg xmlns:xlink="http://www.w3.org/1999/xlink" height="43.4px" width="97.75px" xmlns="http://www.w3.org/2000/svg">
  <g transform="matrix(1.0, 0.0, 0.0, 1.0, 48.9, 39.85)">
    <path d="M47.2 -22.25 Q48.5 -17.4 48.65 -12.3 L48.85 -1.6 48.6 -1.2 48.3 -0.8 48.3 0.05 48.25 0.85 48.05 1.55 Q39.5 2.7 31.8 1.4 L32.0 1.4 13.1 1.2 Q12.3 0.95 11.25 1.2 L11.25 1.15 11.2 1.15 8.65 0.9 9.15 1.15 10.05 1.5 8.9 2.4 8.5 2.9 Q-1.9 4.4 -12.1 2.35 L-14.4 2.1 -14.95 1.7 -17.45 1.45 -20.05 1.5 -23.45 1.2 -23.45 1.3 -23.4 1.6 -24.15 1.6 -24.45 1.6 -24.55 1.1 -26.2 0.45 -26.35 0.6 -26.65 0.6 -27.05 0.6 -48.5 0.6 -48.9 0.2 Q-46.7 -4.6 -43.35 -9.05 -41.15 -12.05 -36.7 -12.45 -35.6 -12.5 -34.9 -12.9 L-34.8 -12.85 Q-34.25 -15.95 -32.4 -18.6 L-32.4 -19.35 Q-33.5 -21.7 -35.5 -23.7 L-37.65 -25.95 Q-38.45 -28.95 -35.6 -31.1 L-32.7 -33.65 -32.55 -33.75 -32.15 -33.85 -32.15 -33.9 Q-27.7 -31.9 -23.9 -28.7 L-23.6 -28.4 -23.45 -28.35 -22.5 -28.15 -22.2 -27.7 -22.1 -27.3 -22.2 -27.0 -23.2 -26.1 -23.6 -25.25 -24.3 -24.0 -24.15 -23.6 -24.05 -23.3 -19.3 -22.25 -6.05 -21.7 Q-3.8 -24.5 -0.6 -25.7 L-0.25 -26.1 2.55 -31.9 2.9 -32.6 2.25 -32.4 Q2.85 -33.45 3.75 -34.15 L5.15 -36.4 5.15 -36.8 5.15 -37.2 Q8.95 -39.7 13.5 -39.75 L14.05 -39.85 Q18.95 -39.75 23.35 -38.6 L23.55 -38.75 Q38.7 -35.15 46.95 -22.65 L47.2 -22.25 M44.45 -6.55 L44.2 -6.15 43.9 -5.75 43.9 -4.5 43.85 -4.1 43.3 -2.5 Q45.1 -1.35 47.0 -0.25 47.7 -3.9 47.65 -7.8 47.6 -12.85 46.95 -17.7 L46.75 -18.05 46.4 -18.5 Q44.0 -27.45 35.7 -32.1 L40.1 -27.7 Q46.0 -20.8 44.65 -11.95 44.25 -9.3 44.45 -6.55 M41.3 -3.8 L42.0 -3.35 42.05 -3.6 42.4 -4.1 Q45.15 -14.1 41.05 -23.3 37.7 -30.75 30.5 -34.6 L27.6 -35.95 Q17.05 -40.2 6.35 -36.4 L6.35 -36.0 6.25 -35.55 6.05 -35.3 Q7.65 -35.7 9.7 -35.35 L10.75 -35.45 Q29.1 -34.45 35.6 -18.0 37.65 -12.85 38.2 -7.4 L38.25 -2.95 40.5 -3.15 40.7 -3.5 Q40.9 -3.75 41.3 -3.8 M42.05 -1.6 L38.1 -1.15 Q38.8 -0.15 40.2 0.25 L40.7 0.45 45.45 0.15 42.1 -1.35 42.05 -1.6 M-32.0 -32.15 L-34.95 -29.3 -36.1 -27.6 Q-35.25 -25.0 -33.1 -23.05 L-30.75 -20.6 -30.75 -20.35 Q-29.05 -20.85 -27.45 -21.55 L-27.3 -21.4 -25.2 -22.95 -25.55 -23.45 Q-25.6 -24.15 -25.25 -24.8 L-24.3 -26.35 Q-26.0 -29.35 -29.4 -30.9 -30.3 -31.35 -31.05 -32.15 L-32.0 -32.15 M-20.5 -21.45 Q-23.15 -21.35 -25.55 -20.45 L-26.1 -20.45 -26.1 -20.35 -26.75 -20.2 -27.2 -20.05 -27.75 -19.2 Q-28.65 -17.7 -29.8 -16.3 L-30.1 -15.05 -30.45 -13.3 -31.6 -9.7 -31.9 -9.35 -32.35 -8.85 -32.55 -8.5 -32.35 -8.1 -32.0 -7.65 Q-31.05 -4.95 -28.65 -3.0 L-27.85 -2.35 -28.15 -7.4 Q-28.2 -11.6 -25.6 -15.1 -23.45 -18.05 -20.85 -20.6 L-20.5 -21.35 -20.4 -21.45 -20.5 -21.45 M-19.85 -19.65 L-20.2 -19.35 -20.55 -18.95 -20.9 -18.55 -21.1 -18.35 -21.25 -18.15 -21.45 -17.9 -21.6 -17.7 -25.65 -11.65 -26.35 -10.25 -26.35 -9.55 -26.35 -8.6 -26.35 -8.2 -26.35 -4.9 -26.4 -4.5 Q-26.55 -2.75 -25.8 -1.2 L-24.8 -0.9 Q-25.8 -10.65 -20.0 -18.9 L-19.65 -19.4 -19.5 -19.6 -19.35 -19.7 -18.95 -19.75 -18.65 -19.75 -18.1 -19.35 Q-19.9 -17.15 -21.15 -14.75 L-21.15 -14.7 Q-22.6 -12.0 -23.25 -9.1 L-23.65 -7.05 Q-24.1 -4.0 -23.7 -0.7 L-22.75 -0.55 -20.25 -0.3 -21.2 -1.4 Q-24.65 -6.3 -20.25 -10.6 L-18.95 -11.7 Q-18.8 -16.15 -15.75 -20.1 L-19.45 -19.8 -19.85 -19.65 M-6.5 -21.1 L-14.65 -20.2 Q-17.4 -16.45 -18.45 -12.05 -16.9 -13.05 -15.1 -13.45 -12.8 -13.2 -10.9 -11.9 -10.75 -16.05 -7.45 -18.75 L-7.5 -19.6 -6.5 -21.1 M-4.35 -21.4 L-4.45 -21.35 -6.0 -19.2 Q-6.5 -17.85 -5.45 -16.75 L-4.65 -15.5 Q-1.9 -14.5 0.65 -14.45 -0.4 -20.2 2.75 -24.95 L0.1 -24.45 0.05 -24.45 0.0 -24.45 Q-2.55 -23.6 -4.4 -21.45 L-4.35 -21.4 M4.15 -26.35 Q5.05 -27.75 7.75 -27.45 L8.3 -27.15 8.55 -27.3 Q26.05 -26.1 32.95 -11.05 33.45 -10.05 33.45 -8.75 33.5 -5.35 33.1 -2.05 L36.6 -2.75 36.6 -3.0 37.05 -3.4 Q37.45 -14.0 31.85 -23.0 30.25 -25.6 27.85 -27.6 17.4 -36.35 4.45 -33.0 L2.5 -29.45 1.15 -26.2 2.8 -26.5 3.2 -26.1 3.6 -26.15 3.6 -26.2 3.65 -26.2 4.2 -26.25 4.9 -26.4 4.15 -26.35 M4.0 -25.6 L3.65 -25.45 3.6 -25.35 3.35 -25.1 Q0.5 -20.05 1.65 -14.45 5.9 -14.75 9.55 -17.95 10.35 -18.65 10.7 -19.75 L11.05 -20.6 Q10.75 -24.35 8.45 -25.65 6.25 -25.8 4.0 -25.6 M12.45 -20.85 L12.55 -20.45 Q11.15 -16.3 7.7 -14.45 18.4 -10.6 27.95 -3.7 L31.0 -1.5 32.05 -1.8 Q32.1 -6.2 31.45 -10.6 30.85 -14.9 27.5 -17.75 19.65 -24.45 10.3 -25.5 11.95 -23.65 12.45 -20.85 M-46.6 -1.6 Q-38.1 -1.2 -28.95 -1.3 L-31.55 -4.0 -33.9 -6.85 -34.0 -7.25 -34.0 -7.35 -34.9 -7.95 Q-35.15 -9.85 -34.95 -11.65 -38.85 -9.75 -42.25 -7.1 -43.65 -5.95 -44.55 -4.3 -45.35 -2.85 -46.6 -1.6 M34.55 1.05 L38.5 0.6 37.5 -0.15 36.6 -0.9 36.6 -1.05 32.95 -1.0 32.85 -0.2 34.55 1.0 34.55 1.05 M32.05 -1.05 L31.65 -1.05 32.05 -0.75 32.05 -1.05 M11.45 -11.35 Q9.95 -5.45 12.0 0.5 21.25 0.75 30.7 0.05 21.6 -6.85 11.55 -11.5 8.9 -12.75 6.25 -13.8 L6.2 -13.8 Q6.2 -13.15 5.6 -12.55 L5.25 -12.2 Q5.15 -9.25 5.35 -6.3 L7.35 -5.0 Q9.5 -3.4 9.0 -0.8 L8.7 0.4 10.95 0.5 Q8.8 -4.65 10.2 -10.4 10.3 -11.35 11.45 -11.35 M3.1 -13.1 L1.95 -13.0 1.15 -12.45 1.15 -12.55 Q0.8 -10.5 0.6 -8.3 2.65 -7.75 4.5 -6.8 3.55 -10.1 4.9 -13.4 L3.1 -13.1 M1.05 -12.8 L1.0 -12.95 0.9 -12.95 1.05 -12.8 M-0.2 -12.75 L-0.1 -12.95 -0.15 -12.95 -5.05 -13.85 Q-6.95 -15.55 -7.35 -17.95 -9.25 -14.8 -9.45 -10.55 L-9.45 -10.3 -7.45 -8.95 -6.15 -9.1 -5.75 -9.15 0.0 -8.5 Q-0.5 -10.45 -0.2 -12.75 M5.55 -5.75 L5.4 -5.9 5.4 -5.6 5.25 -4.9 Q4.9 -5.6 4.7 -6.25 2.95 -7.05 0.3 -7.05 L-3.4 -7.45 -6.55 -7.4 -8.35 -6.8 -9.05 -6.55 -9.7 -6.85 Q-11.95 -4.8 -12.6 -1.45 L-12.75 0.2 -12.35 0.6 Q-2.9 3.3 6.8 1.15 L7.15 0.5 6.65 0.3 7.25 0.35 7.9 -0.5 Q7.85 -4.15 5.55 -5.75 M-12.2 -9.85 Q-15.3 -8.15 -16.55 -4.9 L-17.3 -3.25 -17.1 -2.45 -16.8 -1.6 -16.75 -1.2 -15.05 0.1 -14.25 0.3 -14.1 0.5 -14.1 -0.8 -13.95 -1.95 Q-13.65 -2.8 -13.7 -3.65 L-12.75 -5.3 -12.2 -6.55 -12.1 -6.95 -12.05 -7.4 -8.75 -8.75 -10.1 -9.45 -10.15 -9.45 -10.8 -9.7 -10.8 -9.85 -12.2 -9.85 M-12.35 -11.1 L-10.9 -10.8 -10.9 -11.15 -12.2 -11.25 -12.65 -11.6 -13.3 -12.05 Q-19.7 -12.0 -20.9 -6.4 -21.05 -5.55 -21.55 -4.75 -21.0 -1.5 -17.9 -0.7 L-17.75 -0.65 -17.85 -0.8 -18.05 -1.55 -18.4 -2.0 Q-18.3 -5.45 -16.0 -8.15 -14.3 -10.1 -12.35 -11.1" fill="#251f1f" fill-rule="evenodd" stroke="none"/>
    <path d="M42.05 -1.6 L42.1 -1.35 45.45 0.15 40.7 0.45 40.2 0.25 Q38.8 -0.15 38.1 -1.15 L42.05 -1.6 M41.3 -3.8 Q40.9 -3.75 40.7 -3.5 L40.5 -3.15 38.25 -2.95 38.2 -7.4 Q37.65 -12.85 35.6 -18.0 29.1 -34.45 10.75 -35.45 L9.7 -35.35 Q7.65 -35.7 6.05 -35.3 L6.25 -35.55 6.35 -36.0 6.35 -36.4 Q17.05 -40.2 27.6 -35.95 L30.5 -34.6 Q37.7 -30.75 41.05 -23.3 45.15 -14.1 42.4 -4.1 L42.05 -3.6 42.0 -3.35 41.3 -3.8 M44.45 -6.55 Q44.25 -9.3 44.65 -11.95 46.0 -20.8 40.1 -27.7 L35.7 -32.1 Q44.0 -27.45 46.4 -18.5 L46.75 -18.05 46.95 -17.7 Q47.6 -12.85 47.65 -7.8 47.7 -3.9 47.0 -0.25 45.1 -1.35 43.3 -2.5 L43.85 -4.1 43.9 -4.5 43.9 -5.75 44.2 -6.15 44.45 -6.55 M-25.65 -11.65 L-21.6 -17.7 -21.45 -17.9 -21.25 -18.15 -21.1 -18.35 -20.9 -18.55 -20.55 -18.95 -20.2 -19.35 -19.85 -19.65 -19.65 -19.4 -20.0 -18.9 Q-25.8 -10.65 -24.8 -0.9 L-25.8 -1.2 Q-26.55 -2.75 -26.4 -4.5 L-26.35 -4.9 -26.35 -8.2 -26.35 -8.6 -26.35 -9.55 -25.85 -11.2 -25.65 -11.65 M-23.65 -7.05 L-23.25 -9.1 Q-22.6 -12.0 -21.15 -14.7 L-23.0 -9.3 -23.65 -7.05 M5.4 -5.6 L5.55 -5.75 Q7.85 -4.15 7.9 -0.5 L7.25 0.35 6.65 0.3 7.15 0.5 6.8 1.15 Q-2.9 3.3 -12.35 0.6 L-12.75 0.2 -12.6 -1.45 Q-11.95 -4.8 -9.7 -6.85 L-9.05 -6.55 -8.35 -6.8 -6.55 -7.4 -3.4 -7.45 0.3 -7.05 Q2.95 -7.05 4.7 -6.25 4.9 -5.6 5.25 -4.9 L5.4 -5.6" fill="#333333" fill-rule="evenodd" stroke="none"/>
    <path d="M-32.0 -32.15 L-31.05 -32.15 Q-30.3 -31.35 -29.4 -30.9 -26.0 -29.35 -24.3 -26.35 L-25.25 -24.8 Q-25.6 -24.15 -25.55 -23.45 L-25.2 -22.95 -27.3 -21.4 -27.45 -21.55 Q-29.05 -20.85 -30.75 -20.35 L-30.75 -20.6 -33.1 -23.05 Q-35.25 -25.0 -36.1 -27.6 L-34.95 -29.3 -32.0 -32.15 M-46.6 -1.6 Q-45.35 -2.85 -44.55 -4.3 -43.65 -5.95 -42.25 -7.1 -38.85 -9.75 -34.95 -11.65 -35.15 -9.85 -34.9 -7.95 L-34.0 -7.35 -34.0 -7.25 -33.9 -6.85 -31.55 -4.0 -28.95 -1.3 Q-38.1 -1.2 -46.6 -1.6 M-12.2 -9.85 L-10.8 -9.85 -10.8 -9.7 -10.15 -9.45 -10.1 -9.45 -8.75 -8.75 -12.05 -7.4 -12.1 -6.95 -12.2 -6.55 -12.75 -5.3 -13.7 -3.65 Q-13.65 -2.8 -13.95 -1.95 L-14.1 -0.8 -14.1 0.5 -14.25 0.3 -15.05 0.1 -16.75 -1.2 -16.8 -1.6 -17.1 -2.45 -17.3 -3.25 -16.55 -4.9 Q-15.3 -8.15 -12.2 -9.85 M-12.2 -11.25 L-12.35 -11.1 Q-14.3 -10.1 -16.0 -8.15 -18.3 -5.45 -18.4 -2.0 L-18.05 -1.55 -17.85 -0.8 -17.9 -0.7 Q-21.0 -1.5 -21.55 -4.75 -21.05 -5.55 -20.9 -6.4 -19.7 -12.0 -13.3 -12.05 L-12.65 -11.6 -12.2 -11.25" fill="#666666" fill-rule="evenodd" stroke="none"/>
    <path d="M-20.5 -21.35 L-20.85 -20.6 Q-23.45 -18.05 -25.6 -15.1 -28.2 -11.6 -28.15 -7.4 L-27.85 -2.35 -28.65 -3.0 Q-31.05 -4.95 -32.0 -7.65 L-32.35 -8.1 -32.55 -8.5 -32.35 -8.85 -31.9 -9.35 -31.6 -9.7 -30.45 -13.3 -30.1 -15.05 -29.8 -16.3 Q-28.65 -17.7 -27.75 -19.2 L-27.2 -20.05 -26.75 -20.2 -26.1 -20.35 -26.1 -20.45 -25.55 -20.45 Q-23.15 -21.35 -20.5 -21.45 L-20.5 -21.35 M-25.65 -11.65 L-25.85 -11.2 -26.35 -9.55 -26.35 -10.25 -25.65 -11.65 M-19.65 -19.4 L-19.85 -19.65 -19.45 -19.8 -15.75 -20.1 Q-18.8 -16.15 -18.95 -11.7 L-20.25 -10.6 Q-24.65 -6.3 -21.2 -1.4 L-20.25 -0.3 -22.75 -0.55 -23.7 -0.7 Q-24.1 -4.0 -23.65 -7.05 L-23.0 -9.3 -21.15 -14.7 -21.15 -14.75 Q-19.9 -17.15 -18.1 -19.35 L-18.65 -19.75 -18.95 -19.75 -19.35 -19.7 -19.5 -19.6 -19.65 -19.4 M4.2 -26.25 L3.65 -26.2 3.6 -26.2 3.6 -26.15 3.2 -26.1 2.8 -26.5 1.15 -26.2 2.5 -29.45 4.45 -33.0 Q17.4 -36.35 27.85 -27.6 30.25 -25.6 31.85 -23.0 37.45 -14.0 37.05 -3.4 L36.6 -3.0 36.6 -2.75 33.1 -2.05 Q33.5 -5.35 33.45 -8.75 33.45 -10.05 32.95 -11.05 26.05 -26.1 8.55 -27.3 L8.3 -27.15 7.75 -27.45 Q5.05 -27.75 4.15 -26.35 L4.2 -26.25 M-4.35 -21.4 L-4.4 -21.45 Q-2.55 -23.6 0.0 -24.45 L0.05 -24.45 0.1 -24.45 2.75 -24.95 Q-0.4 -20.2 0.65 -14.45 -1.9 -14.5 -4.65 -15.5 L-5.45 -16.75 Q-6.5 -17.85 -6.0 -19.2 L-4.45 -21.35 -4.35 -21.4 M-6.5 -21.1 L-7.5 -19.6 -7.45 -18.75 Q-10.75 -16.05 -10.9 -11.9 -12.8 -13.2 -15.1 -13.45 -16.9 -13.05 -18.45 -12.05 -17.4 -16.45 -14.65 -20.2 L-6.5 -21.1 M3.6 -25.35 L4.0 -25.6 Q6.25 -25.8 8.45 -25.65 10.75 -24.35 11.05 -20.6 L10.7 -19.75 Q10.35 -18.65 9.55 -17.95 5.9 -14.75 1.65 -14.45 0.5 -20.05 3.35 -25.1 L3.6 -25.35 M12.45 -20.85 Q11.95 -23.65 10.3 -25.5 19.65 -24.45 27.5 -17.75 30.85 -14.9 31.45 -10.6 32.1 -6.2 32.05 -1.8 L31.0 -1.5 27.95 -3.7 Q18.4 -10.6 7.7 -14.45 11.15 -16.3 12.55 -20.45 L12.45 -20.85 M34.55 1.0 L32.85 -0.2 32.95 -1.0 36.6 -1.05 36.6 -0.9 37.5 -0.15 38.5 0.6 34.55 1.05 34.55 1.0 M3.1 -13.1 L4.9 -13.4 Q3.55 -10.1 4.5 -6.8 2.65 -7.75 0.6 -8.3 0.8 -10.5 1.15 -12.55 L1.15 -12.45 1.95 -13.0 3.1 -13.1 M11.45 -11.35 Q10.3 -11.35 10.2 -10.4 8.8 -4.65 10.95 0.5 L8.7 0.4 9.0 -0.8 Q9.5 -3.4 7.35 -5.0 L5.35 -6.3 Q5.15 -9.25 5.25 -12.2 L5.6 -12.55 Q6.2 -13.15 6.2 -13.8 L6.25 -13.8 Q8.9 -12.75 11.55 -11.5 21.6 -6.85 30.7 0.05 21.25 0.75 12.0 0.5 9.95 -5.45 11.45 -11.35 M-0.15 -12.95 L-0.2 -12.75 Q-0.5 -10.45 0.0 -8.5 L-5.75 -9.15 -6.15 -9.1 -7.45 -8.95 -9.45 -10.3 -9.45 -10.55 Q-9.25 -14.8 -7.35 -17.95 -6.95 -15.55 -5.05 -13.85 L-0.15 -12.95" fill="#51684d" fill-rule="evenodd" stroke="none"/>
  </g>
</svg>
