<?xml version="1.0" encoding="UTF-8" standalone="no"?>
<svg xmlns:xlink="http://www.w3.org/1999/xlink" height="58.1px" width="147.45px" xmlns="http://www.w3.org/2000/svg">
  <g transform="matrix(1.0, 0.0, 0.0, 1.0, 73.7, 29.05)">
    <path d="M-63.7 -19.0 L-64.5 -19.45 -69.9 -22.55 -70.8 -23.1 -73.7 -24.95 -69.0 -25.8 -59.9 -27.1 -50.1 -27.75 -38.7 -28.15 -23.1 -28.55 -7.2 -29.05 -3.8 -29.05 7.5 -28.9 13.55 -28.75 21.15 -27.65 30.15 -26.0 Q39.7 -24.2 49.0 -21.15 55.6 -19.0 61.8 -15.1 62.05 -14.95 62.35 -14.75 65.6 -12.1 68.45 -8.7 76.9 1.25 69.85 12.75 L68.95 14.15 68.95 14.2 68.55 14.55 62.35 19.2 61.7 19.55 61.15 19.85 60.8 20.05 60.5 20.25 Q51.65 24.85 42.3 26.75 L38.75 27.45 Q29.2 29.1 19.55 29.05 L11.7 29.05 7.55 29.0 -4.55 28.0 -4.5 28.0 14.4 26.5 Q37.95 25.45 58.4 11.75 63.25 8.5 65.15 2.75 64.5 -1.85 57.0 -8.45 49.5 -15.1 33.05 -19.6 16.6 -24.15 -0.8 -25.15 -29.5 -26.85 -57.55 -20.6 L-63.7 -19.0 M-1.8 -28.25 L-1.75 -28.25 -1.8 -28.25" fill="#ffffff" fill-opacity="0.7058824" fill-rule="evenodd" stroke="none"/>
    <path d="M-63.7 -19.0 L-57.55 -20.6 Q-29.5 -26.85 -0.8 -25.15 16.6 -24.15 33.05 -19.6 49.5 -15.1 57.0 -8.45 64.5 -1.85 65.15 2.75 63.25 8.5 58.4 11.75 37.95 25.45 14.4 26.5 L-4.5 28.0 -4.55 28.0 -5.9 27.75 -6.8 28.1 -7.3 28.05 -7.5 27.9 -7.7 27.55 -7.7 27.45 1.55 25.2 4.15 24.4 Q10.6 22.55 16.8 19.75 19.75 18.4 20.4 14.65 20.8 11.8 19.05 10.4 14.75 6.8 9.65 5.85 L-3.85 3.9 Q-11.9 3.1 -20.0 3.5 L-20.45 3.5 -22.3 3.15 -23.6 2.65 -31.1 -2.05 Q-32.2 -1.1 -34.0 -2.95 L-35.7 -4.3 Q-45.95 -10.55 -56.5 -15.45 -60.15 -17.1 -63.7 -19.0 M68.95 14.15 L69.85 12.75 Q76.9 1.25 68.45 -8.7 65.6 -12.1 62.35 -14.75 63.5 -14.1 64.7 -13.55 73.1 -9.5 73.7 1.9 74.1 9.3 69.45 13.7 L68.95 14.15" fill="#ffffff" fill-opacity="0.49803922" fill-rule="evenodd" stroke="none"/>
    <path d="M-7.3 28.05 L-6.8 28.1 -7.1 28.2 -7.3 28.05" fill="#ffffff" fill-rule="evenodd" stroke="none"/>
  </g>
</svg>
