<?xml version="1.0" encoding="UTF-8" standalone="no"?>
<svg xmlns:xlink="http://www.w3.org/1999/xlink" height="24.55px" width="114.4px" xmlns="http://www.w3.org/2000/svg">
  <g transform="matrix(1.0, 0.0, 0.0, 1.0, 57.2, 12.3)">
    <path d="M14.7 -11.7 L14.75 -11.7 14.7 -11.7 M-47.8 -5.1 L-54.3 -7.9 -57.2 -9.25 -52.5 -9.9 -43.4 -10.85 -33.6 -11.35 -22.2 -11.65 -6.6 -11.95 9.3 -12.3 12.7 -12.3 14.75 -12.3 24.0 -12.2 30.05 -12.05 37.65 -11.25 46.65 -10.05 46.65 -9.7 Q-0.95 -11.3 -47.8 -5.1" fill="#ffffff" fill-opacity="0.7058824" fill-rule="evenodd" stroke="none"/>
    <path d="M-47.8 -5.1 Q-0.95 -11.3 46.65 -9.7 L49.65 -9.6 57.2 -8.25 Q49.5 -5.7 41.9 -2.35 27.4 4.05 14.0 12.25 L12.65 12.15 Q4.6 11.55 -3.5 11.85 L-3.95 11.85 -5.8 11.6 -7.1 11.2 Q-10.85 9.4 -14.6 7.75 -15.7 8.45 -17.5 7.05 -18.25 6.5 -19.2 6.05 -29.45 1.45 -40.0 -2.2 L-47.8 -5.1" fill="#ffffff" fill-opacity="0.3254902" fill-rule="evenodd" stroke="none"/>
    <path d="M46.65 -9.7 L46.65 -10.05 49.65 -9.6 46.65 -9.7" fill="#ffffff" fill-rule="evenodd" stroke="none"/>
  </g>
</svg>
