<?xml version="1.0" encoding="UTF-8" standalone="no"?>
<svg xmlns:xlink="http://www.w3.org/1999/xlink" height="74.55px" width="71.8px" xmlns="http://www.w3.org/2000/svg">
  <g transform="matrix(1.0, 0.0, 0.0, 1.0, 37.1, 45.75)">
    <path d="M32.15 -40.8 L26.45 -23.8 18.75 -22.2 18.7 -2.9 32.25 -5.4 Q34.75 -19.6 32.9 -33.9 32.45 -37.35 32.15 -40.8 M32.05 -44.85 L32.15 -45.0 33.05 -45.25 Q34.45 -31.9 34.7 -18.3 34.85 -11.15 33.55 -4.5 L33.2 -4.1 18.65 -1.4 18.65 9.6 20.2 10.7 Q21.65 14.1 20.25 17.5 L20.0 17.8 Q19.3 18.25 18.55 18.5 L17.8 18.7 Q15.15 21.2 12.25 22.8 L8.15 25.15 1.55 28.8 -15.4 20.2 -17.05 19.05 -18.7 17.25 -19.15 16.8 Q-20.5 12.9 -19.05 9.15 L-18.6 8.7 -17.9 8.3 -17.95 -1.25 -35.4 -4.6 -35.8 -5.0 Q-38.0 -19.05 -36.5 -33.35 -35.9 -39.35 -35.45 -45.3 L-35.3 -45.75 -34.4 -45.5 Q-31.7 -38.3 -29.8 -30.85 -29.0 -27.85 -27.0 -25.55 -26.75 -25.2 -26.3 -25.1 -22.8 -23.95 -19.2 -23.4 -13.25 -28.2 -5.5 -28.75 L-0.7 -29.1 Q6.75 -29.2 13.85 -26.95 L17.95 -25.65 18.7 -22.95 24.6 -24.6 Q26.4 -26.5 27.1 -28.85 L31.9 -44.1 32.05 -44.85 M-18.05 -21.5 L-16.25 5.25 -16.25 5.7 -16.1 8.05 -16.6 8.4 -16.45 10.8 -16.4 11.45 -16.4 10.8 -16.0 18.5 -12.65 20.0 Q-6.8 22.4 -1.4 25.7 L-0.25 26.45 -0.25 27.05 0.55 27.35 1.25 27.2 1.3 27.15 3.75 25.95 4.05 25.85 14.65 19.5 17.65 17.65 17.9 17.6 17.7 14.9 17.5 -4.2 17.75 -23.25 17.75 -24.25 15.75 -25.2 Q8.6 -28.2 1.4 -27.7 L0.65 -27.7 0.65 -27.95 Q-9.65 -28.25 -18.15 -22.55 L-18.05 -21.5 M18.85 11.05 L18.65 10.9 18.65 11.05 18.9 17.0 19.4 16.7 19.5 11.8 18.85 11.05 M-34.4 -41.3 Q-34.7 -37.85 -35.15 -34.45 -37.0 -20.2 -34.5 -5.9 -25.95 -5.25 -18.0 -2.25 L-19.05 -22.65 -22.85 -22.8 Q-25.9 -23.15 -28.7 -24.3 L-34.4 -41.3 M-18.0 9.45 L-18.7 10.2 Q-18.6 13.0 -17.85 15.75 L-17.35 17.15 -18.0 9.45" fill="#000000" fill-rule="evenodd" stroke="none"/>
    <path d="M32.15 -40.8 Q32.45 -37.35 32.9 -33.9 34.75 -19.6 32.25 -5.4 L18.7 -2.9 18.75 -22.2 26.45 -23.8 32.15 -40.8 M-16.25 5.25 L-16.05 5.6 -16.25 5.7 -16.25 5.25 M-12.65 20.0 L-12.45 -18.85 -8.1 -23.0 -0.05 -24.3 0.0 -23.65 Q6.95 -23.4 11.3 -17.9 12.15 -16.8 12.4 -15.45 13.2 -11.7 13.45 -7.85 L14.25 5.4 14.65 19.5 4.05 25.85 3.75 25.95 1.3 27.15 1.25 27.2 0.55 27.35 -0.25 27.05 -0.25 26.45 -1.4 25.7 Q-6.8 22.4 -12.65 20.0 M-34.4 -41.3 L-28.7 -24.3 Q-25.9 -23.15 -22.85 -22.8 L-19.05 -22.65 -18.0 -2.25 Q-25.95 -5.25 -34.5 -5.9 -37.0 -20.2 -35.15 -34.45 -34.7 -37.85 -34.4 -41.3" fill="#404040" fill-rule="evenodd" stroke="none"/>
    <path d="M0.65 -27.7 L0.1 -27.35 0.0 -26.1 Q-9.5 -25.6 -18.05 -21.5 L-18.15 -22.55 Q-9.65 -28.25 0.65 -27.95 L0.65 -27.7 M17.75 -23.25 Q9.8 -25.7 1.55 -26.45 L1.45 -27.7 1.4 -27.7 Q8.6 -28.2 15.75 -25.2 L17.75 -24.25 17.75 -23.25" fill="#6a6a6a" fill-rule="evenodd" stroke="none"/>
    <path d="M-18.05 -21.5 Q-9.5 -25.6 0.0 -26.1 L0.1 -27.35 0.65 -27.7 1.4 -27.7 1.45 -27.7 1.55 -26.45 Q9.8 -25.7 17.75 -23.25 L17.5 -4.2 17.7 14.9 17.9 17.6 17.65 17.65 14.65 19.5 14.25 5.4 13.45 -7.85 Q13.2 -11.7 12.4 -15.45 12.15 -16.8 11.3 -17.9 6.95 -23.4 0.0 -23.65 L-0.05 -24.3 -8.1 -23.0 -12.45 -18.85 -12.65 20.0 -16.0 18.5 -16.4 10.8 -16.45 10.8 -16.6 8.4 -16.1 8.05 -16.25 5.7 -16.05 5.6 -16.25 5.25 -18.05 -21.5 M18.65 11.05 L18.85 11.05 19.5 11.8 19.4 16.7 18.9 17.0 18.65 11.05 M-18.0 9.45 L-17.35 17.15 -17.85 15.75 Q-18.6 13.0 -18.7 10.2 L-18.0 9.45" fill="#4a4a4a" fill-rule="evenodd" stroke="none"/>
  </g>
</svg>
