<?xml version="1.0" encoding="UTF-8" standalone="no"?>
<svg xmlns:xlink="http://www.w3.org/1999/xlink" height="14.35px" width="46.55px" xmlns="http://www.w3.org/2000/svg">
  <g transform="matrix(1.0, 0.0, 0.0, 1.0, 4.25, 5.7)">
    <path d="M12.85 -5.7 Q20.5 -5.8 27.9 -3.95 L28.8 -4.1 Q35.65 -7.45 40.95 -3.45 L41.4 -1.9 42.25 2.2 Q42.45 3.8 41.75 5.2 L40.85 6.7 Q39.4 7.45 37.8 7.65 31.7 8.3 25.95 6.8 16.85 10.2 7.45 7.3 7.0 6.95 6.55 6.7 4.0 5.3 0.95 5.3 L0.7 5.2 Q-1.25 5.05 -2.75 3.9 L-3.55 3.2 -3.75 2.8 -3.85 2.5 -4.15 2.05 Q-4.55 0.4 -3.4 -0.8 -1.45 -2.8 1.4 -3.2 L6.1 -3.3 6.85 -3.75 Q8.5 -4.7 10.35 -5.0 11.8 -5.2 12.85 -5.7 M-2.3 1.8 L-1.5 3.05 -1.15 3.3 Q1.1 4.1 3.6 4.2 L4.2 4.3 4.8 4.15 5.35 3.95 6.1 4.05 6.65 4.75 7.7 5.6 7.95 5.8 Q12.05 7.1 16.1 7.05 14.1 4.6 14.85 1.4 L15.35 -0.45 Q16.3 -2.2 17.75 -3.3 L12.7 -3.7 11.75 -2.75 11.45 -2.45 Q9.65 1.15 10.85 4.6 L10.95 5.8 Q8.3 2.2 10.9 -2.45 L11.6 -3.45 6.95 -2.05 6.35 -1.8 5.7 -2.05 5.7 -2.45 5.7 -2.8 Q0.5 -3.75 -3.15 -0.3 L-3.25 0.05 -3.2 0.45 -3.15 0.8 -2.3 1.8 M16.55 7.05 Q21.05 6.85 25.45 5.05 32.25 7.05 39.35 5.7 40.7 3.85 40.25 1.6 39.95 -0.1 39.2 -1.6 L38.45 -3.2 Q33.9 -4.25 29.7 -2.3 L29.55 -1.95 29.45 -1.7 18.4 -3.25 Q17.35 -2.25 16.65 -0.85 L16.35 -0.45 Q15.7 1.8 16.1 4.05 16.35 5.25 16.95 6.3 L16.8 6.7 16.55 6.95 16.35 7.05 16.55 7.05" fill="#000000" fill-rule="evenodd" stroke="none"/>
    <path d="M-2.3 1.8 L-3.15 0.8 -3.2 0.45 -3.25 0.05 -3.15 -0.3 Q0.5 -3.75 5.7 -2.8 L5.7 -2.45 5.7 -2.05 6.35 -1.8 6.95 -2.05 11.6 -3.45 10.9 -2.45 Q8.3 2.2 10.95 5.8 L10.85 4.6 Q9.65 1.15 11.45 -2.45 L11.75 -2.75 12.7 -3.7 17.75 -3.3 Q16.3 -2.2 15.35 -0.45 L14.85 1.4 Q14.1 4.6 16.1 7.05 12.05 7.1 7.95 5.8 L7.7 5.6 6.65 4.75 6.1 4.05 5.35 3.95 4.8 4.15 4.2 4.3 3.6 4.2 Q1.1 4.1 -1.15 3.3 L-1.5 3.05 -2.3 1.8" fill="#666666" fill-rule="evenodd" stroke="none"/>
    <path d="M16.55 6.95 L16.8 6.7 16.95 6.3 Q16.35 5.25 16.1 4.05 15.7 1.8 16.35 -0.45 L16.65 -0.85 Q17.35 -2.25 18.4 -3.25 L29.45 -1.7 29.55 -1.95 29.7 -2.3 Q33.9 -4.25 38.45 -3.2 L39.2 -1.6 Q39.95 -0.1 40.25 1.6 40.7 3.85 39.35 5.7 32.25 7.05 25.45 5.05 21.05 6.85 16.55 7.05 L16.55 6.95" fill="#333333" fill-rule="evenodd" stroke="none"/>
  </g>
</svg>
