<?xml version="1.0" encoding="UTF-8" standalone="no"?>
<svg xmlns:xlink="http://www.w3.org/1999/xlink" height="18.9px" width="33.1px" xmlns="http://www.w3.org/2000/svg">
  <g transform="matrix(1.0, 0.0, 0.0, 1.0, 29.05, 13.95)">
    <path d="M-19.75 -9.0 L-19.5 -8.85 -19.25 -8.9 Q-17.85 -10.4 -16.2 -11.5 -13.95 -13.05 -11.3 -12.45 -9.05 -11.95 -7.15 -10.9 L-7.15 -10.75 -6.65 -10.55 -4.9 -10.15 -4.0 -9.85 Q-4.0 -8.95 -4.3 -8.1 L-5.5 -4.8 Q-6.85 -1.35 -10.05 -0.15 L-10.9 -1.0 -10.95 -1.2 -11.0 -1.35 -11.2 -1.75 -11.5 -1.75 -14.4 -1.85 -14.4 -2.05 -15.4 -2.0 -15.75 -1.0 Q-16.4 0.35 -17.6 1.4 -20.25 3.65 -23.45 3.5 L-24.7 2.25 Q-27.2 0.15 -27.95 -2.9 L-27.85 -3.05 -27.65 -3.8 -27.3 -4.2 Q-25.25 -7.2 -22.05 -9.0 L-20.25 -8.65 Q-20.1 -8.65 -20.05 -8.75 L-19.8 -9.0 -19.75 -9.0" fill="#333333" fill-rule="evenodd" stroke="none"/>
    <path d="M-19.8 -9.0 L-20.05 -8.75 Q-20.1 -8.65 -20.25 -8.65 L-22.05 -9.0 Q-25.25 -7.2 -27.3 -4.2 L-27.65 -3.8 -27.85 -3.05 -27.95 -2.9 Q-27.2 0.15 -24.7 2.25 L-23.45 3.5 Q-20.25 3.65 -17.6 1.4 -16.4 0.35 -15.75 -1.0 L-15.4 -2.0 -14.4 -2.05 -14.4 -1.85 -11.5 -1.75 -11.2 -1.75 -11.0 -1.35 -10.95 -1.2 -10.9 -1.0 -10.05 -0.15 Q-6.85 -1.35 -5.5 -4.8 L-4.3 -8.1 Q-4.0 -8.95 -4.0 -9.85 L-4.9 -10.15 -6.65 -10.55 -7.15 -10.75 -7.15 -10.9 Q-9.05 -11.95 -11.3 -12.45 -13.95 -13.05 -16.2 -11.5 -17.85 -10.4 -19.25 -8.9 L-19.5 -8.85 -19.75 -9.0 -20.0 -9.3 Q-17.15 -13.5 -12.0 -13.95 -8.85 -13.6 -6.75 -11.5 L-6.65 -11.5 -6.65 -11.55 Q0.35 -11.1 2.2 -4.6 L2.35 -3.35 2.55 -3.2 3.15 -2.45 3.3 -2.25 Q3.2 -1.85 3.4 -1.5 L3.8 -0.65 4.0 -0.1 4.0 0.1 4.05 0.1 Q4.3 2.8 1.75 4.1 L1.6 4.2 1.15 4.35 -3.0 4.5 -4.9 3.85 -8.5 2.8 -8.7 2.45 -8.8 2.3 Q-9.05 2.1 -9.35 2.0 L-9.9 1.75 Q-10.65 1.3 -10.95 0.5 L-11.4 0.35 -11.65 -0.05 -11.75 -0.2 -11.95 -0.55 Q-13.35 -0.45 -14.55 -1.05 L-14.6 -0.95 -14.6 -0.05 Q-18.05 3.8 -22.95 4.7 L-23.6 4.55 Q-28.35 1.6 -29.05 -3.65 -26.8 -7.15 -23.35 -9.6 L-22.4 -10.1 Q-22.0 -10.15 -21.75 -9.85 L-21.7 -9.8 Q-20.45 -9.8 -19.8 -9.0 M-5.35 -3.4 Q-6.55 -1.5 -8.25 -0.1 -8.85 0.4 -9.45 0.55 L-8.05 1.55 -7.8 1.8 -7.35 1.95 Q-2.3 -1.8 -0.75 -7.95 -1.9 -9.1 -3.7 -9.75 -3.45 -6.5 -5.35 -3.4 M-6.8 2.15 L-6.55 2.2 Q-5.8 2.45 -5.15 2.8 L-2.8 2.95 -1.05 3.6 -0.75 3.7 -0.7 3.65 0.35 3.6 Q1.5 3.45 2.2 2.55 L2.55 2.05 2.65 2.2 3.15 1.4 2.9 0.25 2.35 -1.6 2.3 -1.95 2.15 -2.1 Q1.7 -2.35 1.5 -2.75 L1.35 -2.95 Q1.15 -5.9 -0.5 -7.7 -0.55 -3.7 -3.65 -0.6 L-6.8 2.1 -6.9 2.1 -6.8 2.15" fill="#000000" fill-rule="evenodd" stroke="none"/>
    <path d="M-6.8 2.1 L-3.65 -0.6 Q-0.55 -3.7 -0.5 -7.7 1.15 -5.9 1.35 -2.95 L1.5 -2.75 Q1.7 -2.35 2.15 -2.1 L2.3 -1.95 2.35 -1.6 2.9 0.25 3.15 1.4 2.65 2.2 2.55 2.05 2.2 2.55 Q1.5 3.45 0.35 3.6 L-0.7 3.65 -0.75 3.7 -1.05 3.6 -2.8 2.95 -5.15 2.8 Q-5.8 2.45 -6.55 2.2 L-6.8 2.15 -6.8 2.1 M-5.35 -3.4 Q-3.45 -6.5 -3.7 -9.75 -1.9 -9.1 -0.75 -7.95 -2.3 -1.8 -7.35 1.95 L-7.8 1.8 -8.05 1.55 -9.45 0.55 Q-8.85 0.4 -8.25 -0.1 -6.55 -1.5 -5.35 -3.4" fill="#666666" fill-rule="evenodd" stroke="none"/>
  </g>
</svg>
