<?xml version="1.0" encoding="UTF-8" standalone="no"?>
<svg xmlns:xlink="http://www.w3.org/1999/xlink" height="67.75px" width="68.45px" xmlns="http://www.w3.org/2000/svg">
  <g transform="matrix(1.0, 0.0, 0.0, 1.0, 31.25, 61.15)">
    <path d="M36.05 -45.4 L36.6 -45.65 37.2 -45.4 36.35 -38.6 Q34.45 -28.0 30.5 -18.05 L21.55 -17.7 17.45 -4.3 16.7 -1.1 Q16.25 1.55 13.55 2.8 L13.3 3.85 12.35 4.8 Q11.05 5.95 9.3 6.35 6.8 7.05 4.8 5.85 0.0 6.5 -4.7 5.25 -12.7 3.3 -18.8 -3.0 L-20.25 -3.0 Q-21.0 -4.65 -21.15 -6.45 -21.3 -7.8 -20.9 -9.0 -19.6 -13.25 -18.5 -18.0 -23.65 -17.55 -26.9 -21.95 L-31.25 -28.5 Q-28.6 -45.75 -18.25 -60.05 L-16.3 -61.15 -15.65 -61.05 -15.3 -60.65 -15.75 -58.15 -17.45 -39.35 -14.85 -37.8 -14.35 -37.15 -14.05 -38.35 Q-13.05 -41.5 -10.15 -42.8 2.7 -48.3 15.5 -42.3 L20.65 -39.9 Q25.65 -37.35 26.25 -31.8 L27.9 -31.9 36.05 -45.4 M35.75 -42.35 L35.7 -42.65 35.6 -42.45 Q32.55 -36.2 28.8 -30.45 27.35 -30.0 26.2 -30.75 L25.6 -28.3 Q24.8 -26.2 23.6 -24.6 L22.0 -19.1 28.7 -19.6 29.15 -19.95 Q33.25 -30.9 35.75 -42.35 M17.95 -23.85 Q20.5 -24.8 22.85 -26.35 L24.3 -31.75 Q24.1 -36.95 19.0 -39.6 10.75 -43.9 1.6 -43.8 L-0.9 -43.7 Q-7.4 -43.15 -12.35 -39.0 -13.05 -36.0 -11.7 -33.3 -10.6 -30.95 -8.75 -29.5 -1.45 -23.6 7.9 -22.5 L8.2 -22.5 8.5 -22.45 14.25 -22.85 Q16.15 -23.2 17.95 -23.85 M18.3 -12.45 L20.15 -18.1 20.5 -19.15 21.65 -22.75 Q18.95 -20.8 14.9 -20.6 L7.7 -20.85 7.1 -19.1 5.2 -12.7 5.0 -11.85 4.75 -10.85 2.1 3.45 4.05 3.1 4.75 3.55 4.8 3.25 Q9.85 1.65 14.55 -0.45 L14.65 -0.5 14.55 -0.55 15.65 -4.0 16.05 -5.35 18.3 -12.45 M4.55 -12.75 L6.35 -18.9 7.0 -20.95 Q-2.25 -22.45 -10.1 -28.45 -11.35 -29.4 -12.2 -30.7 -11.9 -28.95 -12.05 -27.25 -12.4 -23.85 -14.6 -20.7 L-16.85 -18.3 -16.95 -18.3 -16.85 -18.2 -17.7 -13.75 -17.45 -13.7 -17.0 -12.9 -16.75 -10.95 -17.1 -4.8 -18.0 -3.7 -14.75 -1.3 -14.5 -1.7 -13.15 -3.0 -11.2 -2.9 -10.75 -1.9 Q-7.8 -0.6 -5.8 2.0 L-5.0 2.45 0.1 3.15 0.2 2.9 0.55 2.55 4.15 -11.4 4.3 -11.95 4.55 -12.75 M11.6 3.1 Q12.15 2.55 11.4 2.3 L6.1 3.6 6.45 4.7 Q9.45 5.35 11.6 3.1 M-16.7 -56.3 Q-16.45 -57.65 -17.2 -58.5 L-20.7 -52.6 Q-26.95 -41.85 -29.55 -29.45 -27.05 -23.5 -21.35 -20.7 -18.75 -19.45 -16.65 -21.2 -15.65 -22.05 -14.9 -23.15 -12.9 -26.05 -13.35 -29.65 L-13.8 -30.35 Q-13.3 -32.35 -14.6 -33.55 L-15.3 -35.7 -18.9 -38.25 -18.1 -47.35 Q-17.6 -51.95 -16.7 -56.3 M-18.35 -11.2 L-18.9 -10.6 Q-20.35 -8.2 -19.8 -5.15 L-19.7 -5.05 -18.9 -4.7 -18.7 -5.1 Q-17.55 -8.05 -18.25 -11.05 L-18.3 -11.25 -18.35 -11.2 M-6.45 2.45 L-7.85 1.4 Q-9.45 -0.3 -11.65 -0.65 L-11.2 0.45 Q-9.55 3.15 -6.45 2.45" fill="#000000" fill-rule="evenodd" stroke="none"/>
    <path d="M35.6 -42.45 L35.75 -42.35 Q33.25 -30.9 29.15 -19.95 L28.7 -19.6 22.0 -19.1 23.6 -24.6 Q24.8 -26.2 25.6 -28.3 L26.2 -30.75 Q27.35 -30.0 28.8 -30.45 32.55 -36.2 35.6 -42.45 M16.05 -5.35 L15.65 -4.0 Q12.85 -4.7 10.55 -7.1 8.4 -9.4 5.4 -10.5 L4.75 -10.85 5.0 -11.85 5.4 -11.65 5.3 -11.6 5.4 -11.55 Q10.55 -8.4 16.05 -5.35 M6.35 -18.9 L4.55 -12.75 Q-0.5 -13.7 -5.25 -15.85 -10.1 -18.05 -14.6 -20.7 -12.4 -23.85 -12.05 -27.25 L-10.55 -26.35 Q-2.45 -21.55 6.35 -18.9 M4.3 -11.95 L4.15 -11.4 Q-6.05 -9.65 -16.75 -10.95 L-17.0 -12.9 4.3 -11.95 M-16.7 -56.3 Q-17.6 -51.95 -18.1 -47.35 L-18.9 -38.25 -15.3 -35.7 -14.6 -33.55 Q-13.3 -32.35 -13.8 -30.35 L-13.35 -29.65 Q-12.9 -26.05 -14.9 -23.15 -15.65 -22.05 -16.65 -21.2 -18.75 -19.45 -21.35 -20.7 -27.05 -23.5 -29.55 -29.45 -26.95 -41.85 -20.7 -52.6 L-17.2 -58.5 Q-16.45 -57.65 -16.7 -56.3" fill="#404040" fill-rule="evenodd" stroke="none"/>
    <path d="M20.5 -19.15 L20.15 -18.1 18.3 -12.45 18.05 -11.7 Q11.6 -11.5 5.2 -12.7 L7.1 -19.1 Q13.85 -18.75 20.5 -19.15 M4.55 -12.75 L4.3 -11.95 -17.0 -12.9 -17.45 -13.7 -17.7 -13.75 -16.85 -18.2 -16.85 -18.3 -14.6 -20.7 Q-10.1 -18.05 -5.25 -15.85 -0.5 -13.7 4.55 -12.75 M4.15 -11.4 L0.55 2.55 0.2 2.9 0.1 3.15 -5.0 2.45 -5.8 2.0 Q-7.8 -0.6 -10.75 -1.9 L-11.2 -2.9 -13.15 -3.0 -14.5 -1.7 -14.75 -1.3 -18.0 -3.7 -17.1 -4.8 -16.75 -10.95 Q-6.05 -9.65 4.15 -11.4 M-12.05 -27.25 Q-11.9 -28.95 -12.2 -30.7 -11.35 -29.4 -10.1 -28.45 -2.25 -22.45 7.0 -20.95 L6.35 -18.9 Q-2.45 -21.55 -10.55 -26.35 L-12.05 -27.25 M-18.25 -11.05 Q-17.55 -8.05 -18.7 -5.1 L-18.9 -4.7 -19.7 -5.05 -19.8 -5.15 Q-20.35 -8.2 -18.9 -10.6 L-18.35 -11.2 -18.25 -11.05" fill="#4a4a4a" fill-rule="evenodd" stroke="none"/>
    <path d="M1.6 -43.8 Q10.75 -43.9 19.0 -39.6 24.1 -36.95 24.3 -31.75 L22.85 -26.35 Q20.5 -24.8 17.95 -23.85 13.8 -30.75 8.55 -36.9 5.3 -40.8 1.6 -43.8 M18.3 -12.45 L16.05 -5.35 Q10.55 -8.4 5.4 -11.55 L5.4 -11.65 5.0 -11.85 5.2 -12.7 Q11.6 -11.5 18.05 -11.7 L18.3 -12.45 M15.65 -4.0 L14.55 -0.55 14.55 -0.45 Q9.85 1.65 4.8 3.25 L4.75 3.55 4.05 3.1 2.1 3.45 4.75 -10.85 5.4 -10.5 Q8.4 -9.4 10.55 -7.1 12.85 -4.7 15.65 -4.0 M7.1 -19.1 L7.7 -20.85 14.9 -20.6 Q18.95 -20.8 21.65 -22.75 L20.5 -19.15 Q13.85 -18.75 7.1 -19.1" fill="#6a6a6a" fill-rule="evenodd" stroke="none"/>
    <path d="M11.6 3.1 Q9.45 5.35 6.45 4.7 L6.1 3.6 11.4 2.3 Q12.15 2.55 11.6 3.1 M-6.45 2.45 Q-9.55 3.15 -11.2 0.45 L-11.65 -0.65 Q-9.45 -0.3 -7.85 1.4 L-6.45 2.45" fill="#ff0000" fill-rule="evenodd" stroke="none"/>
    <path d="M17.95 -23.85 Q16.15 -23.2 14.25 -22.85 L8.5 -22.45 8.2 -22.5 7.9 -22.5 Q-1.45 -23.6 -8.75 -29.5 -10.6 -30.95 -11.7 -33.3 -13.05 -36.0 -12.35 -39.0 -7.4 -43.15 -0.9 -43.7 L1.6 -43.8 Q5.3 -40.8 8.55 -36.9 13.8 -30.75 17.95 -23.85" fill="#5a5a5a" fill-rule="evenodd" stroke="none"/>
  </g>
</svg>
