<?xml version="1.0" encoding="UTF-8" standalone="no"?>
<svg xmlns:xlink="http://www.w3.org/1999/xlink" height="36.35px" width="30.1px" xmlns="http://www.w3.org/2000/svg">
  <g transform="matrix(1.0, 0.0, 0.0, 1.0, 15.05, 18.2)">
    <path d="M-8.3 11.1 L-10.1 11.1 Q-12.05 11.0 -13.35 12.0 L-13.35 11.15 Q-12.65 10.95 -12.3 10.5 L-12.4 10.2 -12.65 9.05 -12.9 8.8 -13.55 8.65 -13.9 8.05 -12.4 7.05 -12.35 6.8 Q-12.25 6.2 -12.4 5.7 L-13.55 4.75 -13.6 4.6 Q-13.85 4.15 -13.7 3.75 -13.15 3.45 -12.85 2.95 L-12.95 2.7 -13.1 2.2 -12.15 -2.1 Q-11.7 -3.7 -11.55 -5.4 L-11.2 -5.95 -11.2 -6.5 -11.15 -6.75 -11.1 -7.05 -11.0 -7.6 -10.6 -8.1 Q-10.3 -9.6 -9.5 -10.95 -6.85 -15.25 -2.05 -16.85 L2.8 -17.0 Q5.75 -16.15 8.6 -14.55 10.2 -13.65 11.3 -12.1 L12.15 -11.05 Q11.9 -10.9 12.0 -10.5 L12.1 -9.95 12.4 -9.65 Q13.1 -9.15 13.35 -8.45 L13.35 -7.1 Q13.35 -3.05 13.8 0.9 L13.4 1.0 10.9 1.25 10.8 1.4 10.65 1.7 10.65 1.85 9.95 1.75 Q7.8 0.55 5.05 0.6 L2.25 0.7 2.2 0.7 0.8 0.65 Q-3.0 0.7 -6.0 2.55 L-6.7 2.7 -6.95 2.75 -7.15 2.95 -7.25 3.2 -7.4 3.45 -7.2 3.6 -8.45 4.35 -8.5 4.55 -8.55 4.95 -8.5 5.15 Q-8.3 5.65 -7.8 5.55 L-0.3 4.75 -4.25 5.35 Q-0.5 5.65 3.8 5.35 L6.35 5.5 6.4 7.5 4.95 7.35 Q1.45 7.15 -2.05 7.35 L-4.9 7.15 -8.15 7.45 Q-8.8 7.55 -8.95 8.15 L-9.0 8.55 -9.0 8.95 -8.85 9.15 -8.65 9.35 -8.5 9.6 -8.35 9.8 -8.45 10.2 -8.3 11.1 M9.15 -10.25 L8.8 -10.15 Q8.05 -5.7 7.85 -1.0 L8.6 -0.95 8.7 -1.3 Q9.55 -5.8 9.15 -10.25 M12.75 6.45 L13.5 7.15 13.65 7.65 13.7 8.55 13.4 8.7 12.85 8.95 Q10.3 8.05 7.65 7.65 L7.5 5.7 7.6 5.7 12.75 6.45 M4.55 12.75 L7.25 12.65 12.2 13.5 12.25 13.8 12.35 14.35 12.35 14.6 12.5 15.45 12.6 15.75 12.7 15.9 Q8.8 15.15 5.05 14.0 L4.25 13.85 -5.4 14.3 Q-9.4 15.35 -13.1 15.65 L-13.25 15.4 -13.4 14.85 -13.55 14.45 -13.5 14.15 -13.4 13.0 -13.35 13.0 Q-4.45 11.3 4.55 12.75" fill="#555555" fill-rule="evenodd" stroke="none"/>
    <path d="M9.95 1.75 L10.65 1.85 10.65 1.7 10.8 1.4 10.9 1.25 13.4 1.0 13.8 0.9 Q13.35 -3.05 13.35 -7.1 L13.35 -8.45 Q13.1 -9.15 12.4 -9.65 L12.1 -9.95 12.0 -10.5 Q11.9 -10.9 12.15 -11.05 L11.3 -12.1 Q10.2 -13.65 8.6 -14.55 5.75 -16.15 2.8 -17.0 L-2.05 -16.85 Q-6.85 -15.25 -9.5 -10.95 -10.3 -9.6 -10.6 -8.1 L-11.0 -7.6 -11.1 -7.05 -11.15 -6.75 -11.2 -6.5 -11.2 -5.95 -11.55 -5.4 Q-11.7 -3.7 -12.15 -2.1 L-13.1 2.2 -12.95 2.7 -12.85 2.95 Q-13.15 3.45 -13.7 3.75 -13.85 4.15 -13.6 4.6 L-13.55 4.75 -12.4 5.7 Q-12.25 6.2 -12.35 6.8 L-12.4 7.05 -13.9 8.05 -13.55 8.65 -12.9 8.8 -12.65 9.05 -12.4 10.2 -12.3 10.5 Q-12.65 10.95 -13.35 11.15 L-13.35 12.0 Q-12.05 11.0 -10.1 11.1 L-8.3 11.1 -7.55 11.05 -2.7 10.45 6.55 11.35 6.55 11.3 6.45 8.95 -3.65 7.9 -4.5 7.55 -2.05 7.35 Q1.45 7.15 4.95 7.35 L6.4 7.5 6.35 5.5 3.8 5.35 Q-0.5 5.65 -4.25 5.35 L-0.3 4.75 -0.1 4.75 3.1 4.45 6.0 4.3 6.35 4.3 6.35 2.45 6.4 2.25 Q4.4 1.5 2.2 1.6 L-4.65 2.55 Q-5.3 3.4 -6.4 3.55 L-7.2 3.6 -7.4 3.45 -7.25 3.2 -7.15 2.95 -6.95 2.75 -6.7 2.7 -6.0 2.55 Q-3.0 0.7 0.8 0.65 L2.2 0.7 2.25 0.7 3.9 0.75 4.3 0.75 9.95 1.75 M3.05 -18.05 Q10.05 -16.8 13.2 -10.65 L14.65 -9.85 14.8 -9.65 Q14.55 -4.35 15.05 0.9 L14.8 2.25 14.35 2.5 14.75 4.2 14.8 5.3 14.6 5.55 14.3 5.8 14.55 6.1 14.7 6.4 14.7 6.65 14.6 6.95 14.55 7.2 14.8 8.35 14.8 9.15 Q14.45 9.7 13.75 9.9 L13.4 10.1 Q13.25 10.45 13.25 10.9 L13.25 11.15 13.5 11.45 13.6 12.3 13.6 12.85 13.4 13.05 13.8 14.8 Q13.95 15.85 14.45 16.8 14.75 17.4 14.45 17.9 L14.35 18.05 14.0 18.15 Q4.95 13.9 -4.5 15.55 L-11.9 17.0 Q-12.85 17.2 -13.8 17.0 L-14.05 16.7 -14.05 16.45 -14.15 15.9 -14.35 15.05 -14.35 14.85 -14.5 14.75 Q-14.6 13.05 -14.85 11.4 L-14.85 10.85 -14.35 10.35 -14.7 9.75 -14.65 9.2 -14.65 8.9 -14.9 8.65 Q-15.1 8.05 -14.85 7.5 L-14.8 7.25 -13.5 6.45 Q-14.35 6.05 -14.85 5.3 L-14.8 5.05 -14.7 4.75 -15.05 4.2 -15.0 3.65 -15.0 3.35 -13.55 2.25 -13.35 -0.2 Q-12.85 -3.05 -12.6 -5.95 L-12.25 -6.45 -12.25 -7.05 -12.25 -7.3 -12.25 -7.6 -12.2 -8.15 -11.8 -8.65 -11.75 -9.2 -11.7 -9.5 -11.65 -9.75 -11.4 -10.0 Q-7.25 -19.15 2.85 -18.1 L3.05 -18.05 M9.15 -10.25 Q9.55 -5.8 8.7 -1.3 L8.6 -0.95 7.85 -1.0 Q8.05 -5.7 8.8 -10.15 L9.15 -10.25 M13.4 3.45 L12.6 3.15 Q10.2 3.9 7.4 2.65 L7.45 4.35 11.85 5.55 11.9 5.4 12.15 5.1 Q12.95 5.05 13.7 4.55 L13.55 4.0 13.4 3.45 M12.75 6.45 L7.6 5.7 7.5 5.7 7.65 7.65 Q10.3 8.05 12.85 8.95 L13.4 8.7 13.7 8.55 13.65 7.65 13.5 7.15 12.75 6.45 M12.3 10.1 L12.3 9.9 7.8 9.15 8.0 11.15 8.05 11.45 8.05 11.5 12.4 12.1 12.4 12.05 12.15 11.75 12.15 11.35 12.15 11.2 Q12.1 10.7 12.4 10.35 L12.3 10.1 M4.55 12.75 Q-4.45 11.3 -13.35 13.0 L-13.4 13.0 -13.5 14.15 -13.55 14.45 -13.4 14.85 -13.25 15.4 -13.1 15.65 Q-9.4 15.35 -5.4 14.3 L4.25 13.85 5.05 14.0 Q8.8 15.15 12.7 15.9 L12.6 15.75 12.5 15.45 12.35 14.6 12.35 14.35 12.25 13.8 12.2 13.5 7.25 12.65 4.55 12.75" fill="#000000" fill-rule="evenodd" stroke="none"/>
    <path d="M-8.3 11.1 L-8.45 10.2 -8.35 9.8 -8.5 9.6 -8.65 9.35 -8.85 9.15 -9.0 8.95 -9.0 8.55 -8.95 8.15 Q-8.8 7.55 -8.15 7.45 L-4.9 7.15 -2.05 7.35 -4.5 7.55 -3.65 7.9 6.45 8.95 6.55 11.3 6.55 11.35 -2.7 10.45 -7.55 11.05 -8.3 11.1 M-0.3 4.75 L-7.8 5.55 Q-8.3 5.65 -8.5 5.15 L-8.55 4.95 -8.5 4.55 -8.45 4.35 -7.2 3.6 -6.4 3.55 Q-5.3 3.4 -4.65 2.55 L2.2 1.6 Q4.4 1.5 6.4 2.25 L6.35 2.45 6.35 4.3 6.0 4.3 3.1 4.45 -0.1 4.75 -0.3 4.75 M2.25 0.7 L5.05 0.6 Q7.8 0.55 9.95 1.75 L4.3 0.75 3.9 0.75 2.25 0.7 M13.4 3.45 L13.55 4.0 13.7 4.55 Q12.95 5.05 12.15 5.1 L11.9 5.4 11.85 5.55 7.45 4.35 7.4 2.65 Q10.2 3.9 12.6 3.15 L13.4 3.45 M12.3 10.1 L12.4 10.35 Q12.1 10.7 12.15 11.2 L12.15 11.35 12.15 11.75 12.4 12.05 12.4 12.1 8.05 11.5 8.05 11.45 8.0 11.15 7.8 9.15 12.3 9.9 12.3 10.1" fill="#2d2d2d" fill-rule="evenodd" stroke="none"/>
  </g>
</svg>
