<?xml version="1.0" encoding="UTF-8" standalone="no"?>
<svg xmlns:xlink="http://www.w3.org/1999/xlink" height="74.65px" width="71.95px" xmlns="http://www.w3.org/2000/svg">
  <g transform="matrix(1.0, 0.0, 0.0, 1.0, 37.65, 48.85)">
    <path d="M32.1 -48.35 L32.5 -48.25 32.65 -48.05 32.75 -47.85 33.45 -35.8 33.85 -30.7 Q34.4 -26.05 34.25 -21.3 34.1 -14.3 33.0 -7.5 32.7 -7.0 32.1 -7.0 L29.95 -6.9 24.05 -5.75 18.1 -4.4 18.05 0.9 Q18.0 3.75 18.1 6.6 18.95 6.8 19.65 7.7 L19.9 7.85 Q20.45 10.3 20.3 12.95 L20.15 14.1 Q18.8 15.85 17.15 15.7 15.25 17.9 12.25 19.2 L11.65 19.5 11.65 19.75 11.2 19.85 11.15 19.85 Q7.8 22.55 3.9 24.15 L1.45 25.6 1.0 25.8 Q-6.55 21.85 -14.15 18.35 L-17.75 16.25 -17.65 16.1 -17.75 16.05 -19.25 14.25 -19.7 13.8 Q-20.3 11.7 -20.35 9.45 L-20.3 7.55 Q-20.15 5.75 -18.45 5.3 L-18.65 0.15 Q-18.7 -1.0 -18.4 -2.05 L-18.5 -4.25 -20.6 -4.7 -27.4 -6.25 -33.3 -7.4 -35.45 -7.5 Q-36.05 -7.5 -36.35 -8.0 -37.45 -14.8 -37.6 -21.8 -37.75 -26.55 -37.2 -31.2 L-36.8 -36.3 -36.1 -48.35 -36.0 -48.55 -35.85 -48.75 -35.45 -48.85 -34.95 -48.5 -34.8 -48.35 -34.8 -48.15 -34.8 -48.0 -34.7 -47.8 -34.55 -47.6 -30.45 -33.8 Q-29.55 -30.8 -27.7 -28.4 L-26.9 -27.95 -21.45 -26.7 -19.75 -26.4 -19.75 -26.5 Q-16.4 -29.45 -11.95 -30.6 L-6.05 -31.75 -1.6 -32.25 -1.25 -32.3 Q6.2 -32.25 13.35 -30.1 L17.35 -28.6 17.4 -28.65 17.7 -28.7 17.85 -27.8 17.9 -27.75 17.9 -27.55 18.15 -25.95 18.15 -26.2 23.55 -27.45 24.35 -27.9 Q26.2 -30.3 27.1 -33.3 L31.2 -47.1 31.35 -47.3 31.45 -47.5 31.45 -47.65 31.45 -47.85 31.6 -48.0 32.1 -48.35 M31.6 -43.8 Q30.9 -42.25 30.5 -40.6 28.7 -33.55 25.9 -26.8 22.15 -25.4 18.2 -25.2 18.55 -21.55 18.3 -17.75 L18.15 -14.0 18.15 -5.9 Q24.85 -7.65 31.7 -8.4 L32.7 -15.55 Q33.1 -18.05 33.1 -20.65 L32.75 -30.1 31.6 -43.8 M17.2 -24.65 L17.2 -27.25 Q13.2 -29.35 8.55 -30.2 L0.85 -30.95 1.0 -27.15 Q1.2 -21.85 1.0 -16.5 L1.0 -15.5 0.95 -14.9 0.75 -6.4 0.75 -5.45 0.75 -1.6 0.75 8.3 5.75 8.15 5.8 8.1 6.1 8.05 6.25 8.15 11.55 7.9 Q13.15 7.85 14.55 7.2 L14.95 7.25 15.0 7.3 Q15.35 7.0 15.75 6.95 L16.25 7.25 16.4 7.45 15.8 11.75 15.7 12.1 15.35 12.2 Q12.85 14.55 9.6 13.6 L4.6 12.2 Q2.9 11.7 1.55 10.45 L0.85 10.25 0.75 10.2 0.75 10.25 0.75 13.3 0.6 24.15 0.8 24.25 3.15 23.15 3.25 16.55 3.25 15.95 4.5 16.1 5.1 22.1 5.1 22.15 5.15 22.15 7.05 21.1 Q6.75 19.3 6.85 17.4 L6.9 16.3 8.05 16.35 Q8.0 18.4 8.3 20.4 L10.15 19.3 10.2 17.3 10.25 16.3 11.35 16.35 11.4 17.3 11.4 18.45 11.45 18.5 13.2 17.35 16.55 15.05 17.1 14.65 17.25 14.65 17.35 14.6 Q16.7 11.25 16.8 7.7 L16.9 1.9 16.95 1.9 16.95 0.55 16.95 -7.2 16.95 -13.1 17.1 -22.1 17.2 -24.65 M0.15 -4.9 L0.15 -5.15 0.15 -6.1 0.05 -15.25 -0.05 -20.05 -0.05 -20.65 -0.05 -21.1 -0.05 -21.65 -0.05 -26.85 -0.05 -27.55 0.1 -30.95 -6.05 -30.6 Q-12.9 -29.65 -18.3 -25.85 L-18.7 -25.55 -18.4 -21.9 -17.9 -13.8 -17.85 -11.95 -17.8 -10.65 -17.7 -9.1 -16.9 0.9 -16.8 2.25 -16.8 2.7 -16.65 5.05 -17.1 5.35 -17.15 5.35 -17.15 5.4 -17.1 5.45 -17.0 5.6 -17.15 5.8 -17.0 7.8 -16.95 8.45 -16.95 7.8 -16.8 7.75 Q-16.45 11.6 -16.55 15.5 -16.05 15.55 -15.45 15.95 L-12.3 17.7 -9.55 19.05 -9.6 18.6 -9.65 17.55 -8.5 17.6 -8.3 18.95 -8.25 19.7 -6.35 20.65 Q-6.4 19.2 -6.6 17.8 L-6.55 16.85 -5.55 16.9 Q-4.95 18.15 -5.1 19.55 L-5.15 20.45 -5.15 20.5 -4.9 20.65 -4.9 20.8 -4.9 21.4 -3.2 22.25 -3.2 21.9 -3.35 21.7 -3.45 21.5 -3.7 16.6 -3.6 15.6 -2.6 15.65 -2.0 22.05 -1.95 22.85 0.35 24.05 0.35 22.75 0.1 22.95 0.2 20.7 0.3 20.65 0.2 11.0 Q-1.35 12.2 -3.7 12.35 L-3.8 12.35 -5.35 12.7 -5.4 12.7 Q-9.35 14.15 -13.45 13.65 L-13.7 13.45 -14.05 12.5 -15.55 8.95 -15.7 8.55 -15.65 7.8 -15.55 7.45 -15.35 7.35 -15.1 7.3 -15.1 7.25 -14.95 7.3 -14.95 7.15 -14.85 6.95 -14.7 6.8 -14.6 6.75 -14.35 6.7 Q-7.25 8.45 0.0 8.3 L0.2 8.3 0.15 -4.9 M14.0 8.2 L13.6 8.4 13.15 8.35 6.5 8.95 6.25 9.25 6.2 9.4 Q7.45 10.95 9.45 11.8 L10.5 12.0 Q13.75 12.05 14.05 8.8 L13.95 8.65 13.85 8.5 14.0 8.25 14.0 8.2 M18.3 8.05 L18.1 7.9 18.1 8.05 18.35 14.0 18.85 13.7 19.0 9.95 18.95 8.8 18.3 8.05 M-19.6 -25.65 L-21.45 -25.7 Q-25.45 -25.85 -29.25 -27.3 -32.05 -34.05 -33.85 -41.1 -34.25 -42.75 -34.95 -44.3 L-36.1 -30.6 -36.45 -21.15 Q-36.45 -18.55 -36.05 -16.05 L-35.05 -8.9 Q-28.05 -8.15 -21.15 -6.35 L-20.4 -6.1 -18.55 -5.25 -18.6 -5.7 -18.95 -12.1 Q-19.45 -18.85 -19.55 -25.65 L-19.6 -25.65 M-5.7 9.95 L-5.85 9.8 -6.2 9.55 -6.15 9.5 -9.25 8.95 -11.75 8.65 -12.65 8.6 -12.95 8.55 -12.8 8.7 Q-13.2 8.95 -12.75 9.6 L-11.6 10.95 Q-8.8 13.6 -5.75 10.95 L-5.75 10.75 -5.7 10.3 -5.7 9.95 M-18.55 6.45 L-19.1 7.0 -19.25 7.2 Q-19.3 10.1 -18.5 12.8 L-17.9 14.15 -18.4 6.45 -18.55 6.45" fill="#000000" fill-rule="evenodd" stroke="none"/>
    <path d="M31.6 -43.8 L32.75 -30.1 33.1 -20.65 Q33.1 -18.05 32.7 -15.55 L31.7 -8.4 Q24.85 -7.65 18.15 -5.9 L18.15 -14.0 18.3 -17.75 Q18.55 -21.55 18.2 -25.2 22.15 -25.4 25.9 -26.8 28.7 -33.55 30.5 -40.6 30.9 -42.25 31.6 -43.8 M16.95 0.55 L16.95 1.9 16.9 1.9 11.0 -0.8 0.75 -5.45 0.75 -6.4 11.85 -1.7 16.95 0.55 M0.15 -6.1 L0.15 -5.15 0.15 -4.9 -2.15 -4.2 -2.2 -4.25 -9.35 -1.1 -12.8 0.45 -13.55 0.85 -16.8 2.7 -16.8 2.25 -16.9 0.9 -16.15 0.55 Q-9.65 -2.4 -3.05 -4.95 L0.15 -6.1 M0.05 -15.25 L-9.35 -13.05 -17.8 -10.65 -17.85 -11.95 -17.9 -13.8 -18.4 -21.9 -18.45 -23.05 Q-12.85 -25.25 -6.9 -26.4 L-0.05 -27.55 -0.05 -26.85 -0.05 -21.65 -0.05 -21.1 -0.05 -20.65 -0.05 -20.05 0.05 -15.25 M-19.6 -25.65 L-19.55 -25.65 Q-19.45 -18.85 -18.95 -12.1 L-18.6 -5.7 -18.55 -5.25 -20.4 -6.1 -21.15 -6.35 Q-28.05 -8.15 -35.05 -8.9 L-36.05 -16.05 Q-36.45 -18.55 -36.45 -21.15 L-36.1 -30.6 -34.95 -44.3 Q-34.25 -42.75 -33.85 -41.1 -32.05 -34.05 -29.25 -27.3 -25.45 -25.85 -21.45 -25.7 L-19.6 -25.65" fill="#404040" fill-rule="evenodd" stroke="none"/>
    <path d="M1.0 -27.15 L0.85 -30.95 8.55 -30.2 Q13.2 -29.35 17.2 -27.25 L17.2 -24.65 14.95 -25.25 Q8.0 -26.7 1.0 -27.15 M16.95 -13.1 L16.95 -7.2 16.95 0.55 11.85 -1.7 0.75 -6.4 0.95 -14.9 9.25 -14.15 15.45 -13.3 16.95 -13.1 M16.9 1.9 L16.8 7.7 Q16.7 11.25 17.35 14.6 L17.25 14.65 17.1 14.65 16.55 15.05 13.2 17.35 11.45 18.5 11.4 18.45 11.4 17.3 11.35 16.35 10.25 16.3 10.2 17.3 10.15 19.3 8.3 20.4 Q8.0 18.4 8.05 16.35 L6.9 16.3 6.85 17.4 Q6.75 19.3 7.05 21.1 L5.15 22.15 5.1 22.1 4.5 16.1 3.25 15.95 3.25 16.55 3.15 23.15 0.8 24.25 0.6 24.15 0.75 13.3 0.75 10.25 0.85 10.25 1.55 10.45 Q2.9 11.7 4.6 12.2 L9.6 13.6 Q12.85 14.55 15.35 12.2 L15.7 12.1 15.8 11.75 16.4 7.45 16.25 7.25 15.75 6.95 Q15.35 7.0 15.0 7.3 L14.95 7.25 14.55 7.2 Q13.15 7.85 11.55 7.9 L6.25 8.15 6.1 8.05 5.8 8.1 5.75 8.15 0.75 8.3 0.75 -1.6 0.75 -5.45 11.0 -0.8 16.9 1.9 M18.1 8.05 L18.3 8.05 18.95 8.8 19.0 9.95 18.85 13.7 18.35 14.0 18.1 8.05" fill="#6a6a6a" fill-rule="evenodd" stroke="none"/>
    <path d="M1.0 -27.15 Q8.0 -26.7 14.95 -25.25 L17.2 -24.65 17.1 -22.1 16.95 -13.1 15.45 -13.3 9.25 -14.15 0.95 -14.9 1.0 -15.5 1.0 -16.5 Q1.2 -21.85 1.0 -27.15 M0.15 -6.1 L-3.05 -4.95 Q-9.65 -2.4 -16.15 0.55 L-16.9 0.9 -17.7 -9.1 -17.8 -10.65 -9.35 -13.05 0.05 -15.25 0.15 -6.1 M-16.8 2.7 L-13.55 0.85 -12.8 0.45 -9.35 -1.1 -2.2 -4.25 -2.15 -4.2 0.15 -4.9 0.2 8.3 0.0 8.3 Q-7.25 8.45 -14.35 6.7 L-14.6 6.75 -14.7 6.8 -14.85 6.95 -14.95 7.15 -14.95 7.3 -15.1 7.25 -15.1 7.3 -15.35 7.35 -15.55 7.45 -15.65 7.8 -15.7 8.55 -15.55 8.95 -14.05 12.5 -13.7 13.45 -13.45 13.65 Q-9.35 14.15 -5.4 12.7 L-5.35 12.7 -3.8 12.35 -3.7 12.35 Q-1.35 12.2 0.2 11.0 L0.3 20.65 0.2 20.7 0.1 22.95 0.35 22.75 0.35 24.05 -1.95 22.85 -2.0 22.05 -2.6 15.65 -3.6 15.6 -3.7 16.6 -3.45 21.5 -3.35 21.7 -3.2 21.9 -3.2 22.25 -4.9 21.4 -4.9 20.8 -4.9 20.65 -5.15 20.5 -5.15 20.45 -5.1 19.55 Q-4.95 18.15 -5.55 16.9 L-6.55 16.85 -6.6 17.8 Q-6.4 19.2 -6.35 20.65 L-8.25 19.7 -8.3 18.95 -8.5 17.6 -9.65 17.55 -9.6 18.6 -9.55 19.05 -12.3 17.7 -15.45 15.95 Q-16.05 15.55 -16.55 15.5 -16.45 11.6 -16.8 7.75 L-16.95 7.8 -17.0 7.8 -17.15 5.8 -17.0 5.6 -17.1 5.45 -17.15 5.4 -17.15 5.35 -17.1 5.35 -16.65 5.05 -16.8 2.7 M-18.4 -21.9 L-18.7 -25.55 -18.3 -25.85 Q-12.9 -29.65 -6.05 -30.6 L0.1 -30.95 -0.05 -27.55 -6.9 -26.4 Q-12.85 -25.25 -18.45 -23.05 L-18.4 -21.9 M-18.55 6.45 L-18.4 6.45 -17.9 14.15 -18.5 12.8 Q-19.3 10.1 -19.25 7.2 L-19.1 7.0 -18.55 6.45" fill="#4a4a4a" fill-rule="evenodd" stroke="none"/>
    <path d="M14.0 8.25 L13.85 8.5 13.95 8.65 14.05 8.8 Q13.75 12.05 10.5 12.0 L9.45 11.8 Q7.45 10.95 6.2 9.4 L6.25 9.25 6.5 8.95 13.15 8.35 13.6 8.4 14.0 8.2 14.0 8.25 M-5.7 9.95 L-5.7 10.3 -5.75 10.75 -5.75 10.95 Q-8.8 13.6 -11.6 10.95 L-12.75 9.6 Q-13.2 8.95 -12.8 8.7 L-12.95 8.55 -12.65 8.6 -11.75 8.65 -9.25 8.95 -6.15 9.5 -6.2 9.55 -5.85 9.8 -5.7 9.95" fill="#ff0000" fill-rule="evenodd" stroke="none"/>
  </g>
</svg>
