<?xml version="1.0" encoding="UTF-8" standalone="no"?>
<svg xmlns:xlink="http://www.w3.org/1999/xlink" height="20.9px" width="43.65px" xmlns="http://www.w3.org/2000/svg">
  <g transform="matrix(1.0, 0.0, 0.0, 1.0, 6.8, 14.45)">
    <path d="M2.65 -5.6 L5.75 -5.8 5.85 -5.8 6.0 -5.85 7.7 -5.5 8.3 -5.3 8.65 -5.65 Q9.9 -6.8 11.6 -7.05 L13.55 -7.4 13.75 -7.45 13.8 -7.45 14.1 -7.5 15.0 -7.8 22.35 -7.45 22.6 -7.4 22.1 -8.3 22.25 -9.8 22.25 -10.2 22.75 -10.95 26.0 -11.05 26.35 -11.45 Q26.25 -13.0 27.6 -13.95 L30.25 -14.45 Q30.95 -11.95 29.75 -9.55 L29.6 -9.3 32.1 -12.05 Q35.3 -12.75 36.85 -9.8 35.6 -8.25 33.5 -7.2 31.0 -4.6 29.85 -1.2 L29.6 -0.05 29.5 0.3 29.0 0.85 28.1 1.7 27.85 1.95 25.8 1.95 Q18.35 8.25 8.5 5.7 L8.65 5.6 6.85 5.5 Q2.15 7.1 -3.1 4.9 -5.45 3.95 -6.75 1.7 -7.15 -0.85 -5.3 -2.35 -2.3 -4.8 1.45 -5.35 L1.5 -5.45 2.45 -5.45 2.65 -5.6 M10.25 3.55 Q11.0 -0.4 9.45 -4.0 L9.3 -4.3 9.2 -4.5 8.95 -4.25 7.8 -4.55 7.8 -4.6 Q4.7 -5.1 1.85 -4.5 L1.7 -4.45 0.95 -4.2 0.8 -4.2 Q-2.05 -3.4 -4.6 -1.35 -5.55 -0.55 -5.4 0.7 -3.0 3.6 0.95 4.35 L5.3 4.55 5.5 4.45 5.85 4.35 7.95 4.55 8.05 4.65 9.7 4.75 10.0 4.55 10.3 3.6 10.3 3.55 10.25 3.55 M9.6 -4.95 L9.5 -4.8 9.8 -4.35 Q11.85 -1.25 11.5 2.55 L11.5 2.95 11.3 3.25 Q11.2 3.6 11.4 4.3 L11.25 4.7 11.6 5.05 11.75 5.05 11.8 5.1 12.0 5.05 12.6 5.05 12.8 5.1 Q13.5 5.35 14.15 5.1 L14.4 5.35 15.0 3.55 Q16.4 -1.6 13.7 -5.9 L10.0 -5.3 9.8 -5.1 9.6 -4.95 M15.9 3.95 L15.75 4.2 15.75 4.3 15.75 4.4 15.6 4.45 15.55 4.55 15.55 4.65 15.55 4.9 15.85 5.0 16.0 4.95 Q19.15 4.1 21.95 2.75 23.65 1.95 25.1 0.8 L25.5 0.8 25.75 0.8 25.8 0.9 27.5 0.55 27.85 0.2 27.9 0.2 28.4 -0.1 28.45 -0.3 28.6 -0.5 28.7 -0.5 28.75 -0.75 Q29.85 -2.8 30.2 -5.1 30.9 -6.4 32.25 -7.05 L32.4 -7.45 32.5 -7.8 35.25 -9.7 Q35.0 -10.45 34.25 -10.8 L33.1 -10.8 32.0 -10.05 Q31.55 -9.55 31.6 -8.95 L29.5 -7.55 28.5 -8.2 Q28.05 -10.3 29.5 -11.95 L29.5 -12.3 29.5 -12.7 28.0 -12.8 27.6 -12.45 27.6 -11.75 Q27.0 -10.65 26.75 -9.45 L23.75 -9.45 24.35 -7.95 Q24.3 -7.05 23.5 -6.95 L23.75 -6.45 23.45 -6.1 23.0 -5.8 15.8 -6.1 15.4 -6.3 15.3 -6.2 15.25 -6.0 15.4 -5.85 15.6 -5.7 Q17.5 -1.45 16.15 3.1 L16.1 3.3 15.95 3.9 15.9 3.95" fill="#000000" fill-rule="evenodd" stroke="none"/>
    <path d="M10.3 3.6 L10.0 4.55 9.7 4.75 8.05 4.65 7.95 4.55 5.85 4.35 5.5 4.45 5.3 4.55 0.95 4.35 Q-3.0 3.6 -5.4 0.7 -5.55 -0.55 -4.6 -1.35 -2.05 -3.4 0.8 -4.2 L0.95 -4.2 1.7 -4.45 1.85 -4.5 Q4.7 -5.1 7.8 -4.6 L7.8 -4.55 8.95 -4.25 9.2 -4.5 9.3 -4.3 9.45 -4.0 Q11.0 -0.4 10.25 3.55 L10.3 3.6 M9.6 -4.95 L9.8 -5.1 10.0 -5.3 13.7 -5.9 Q16.4 -1.6 15.0 3.55 L14.4 5.35 14.15 5.1 Q13.5 5.35 12.8 5.1 L12.6 5.05 12.0 5.05 11.8 5.1 11.75 5.05 11.6 5.05 11.25 4.7 11.4 4.3 Q11.2 3.6 11.3 3.25 L11.5 2.95 11.5 2.55 Q11.85 -1.25 9.8 -4.35 L9.5 -4.8 9.6 -4.95" fill="#666666" fill-rule="evenodd" stroke="none"/>
    <path d="M15.95 3.9 L16.1 3.3 16.15 3.1 Q17.5 -1.45 15.6 -5.7 L15.4 -5.85 15.25 -6.0 15.3 -6.2 15.4 -6.3 15.8 -6.1 23.0 -5.8 23.45 -6.1 23.75 -6.45 23.5 -6.95 Q24.3 -7.05 24.35 -7.95 L23.75 -9.45 26.75 -9.45 Q27.0 -10.65 27.6 -11.75 L27.6 -12.45 28.0 -12.8 29.5 -12.7 29.5 -12.3 29.5 -11.95 Q28.05 -10.3 28.5 -8.2 L29.5 -7.55 31.6 -8.95 Q31.55 -9.55 32.0 -10.05 L33.1 -10.8 34.25 -10.8 Q35.0 -10.45 35.25 -9.7 L32.5 -7.8 32.4 -7.45 32.25 -7.05 Q30.9 -6.4 30.2 -5.1 29.85 -2.8 28.75 -0.75 L28.7 -0.5 28.6 -0.5 28.45 -0.3 28.4 -0.1 27.9 0.2 27.85 0.2 27.5 0.55 25.8 0.9 25.75 0.8 25.5 0.8 25.1 0.8 Q23.65 1.95 21.95 2.75 19.15 4.1 16.0 4.95 L15.85 5.0 15.55 4.9 15.55 4.65 15.55 4.55 15.6 4.45 15.75 4.4 15.75 4.3 15.75 4.2 15.9 3.95 15.95 3.9" fill="#333333" fill-rule="evenodd" stroke="none"/>
  </g>
</svg>
