<?xml version="1.0" encoding="UTF-8" standalone="no"?>
<svg xmlns:xlink="http://www.w3.org/1999/xlink" height="27.05px" width="19.3px" xmlns="http://www.w3.org/2000/svg">
  <g transform="matrix(1.0, 0.0, 0.0, 1.0, 8.65, 3.5)">
    <path d="M4.05 -0.2 Q4.35 0.6 4.1 1.5 L4.05 1.65 Q7.0 5.2 6.3 10.1 L6.0 11.55 5.95 11.95 5.35 12.0 5.65 12.1 7.95 12.2 8.3 12.5 8.7 12.6 9.05 12.6 10.45 12.5 10.55 12.75 10.65 13.25 10.65 13.35 10.5 13.65 10.35 15.85 10.0 16.3 9.65 16.7 7.3 16.5 5.1 16.45 Q5.5 18.8 6.75 21.05 L6.7 22.15 5.95 22.4 3.75 22.65 Q3.15 20.85 1.6 19.55 L1.5 19.5 1.2 18.95 0.95 18.85 0.7 19.05 -0.1 23.2 -0.5 23.45 -0.85 23.5 -1.2 23.55 -1.55 23.45 -2.0 23.1 -2.35 23.25 -2.7 23.25 -3.15 23.2 -3.95 19.4 -4.65 19.9 -6.05 21.1 -7.25 19.75 Q-7.75 19.1 -8.5 18.75 L-8.65 18.0 -6.85 16.55 -5.9 15.05 Q-6.5 12.65 -5.6 11.25 L-5.5 10.9 Q-7.0 7.1 -5.7 3.5 L-5.2 2.05 Q-4.85 1.05 -4.15 0.45 L-3.65 -0.2 -3.5 -0.4 -3.45 -0.45 -3.2 -0.5 -2.65 -1.4 -1.95 -2.2 -0.8 -3.3 -0.6 -3.35 -0.5 -3.4 -0.4 -3.4 -0.4 -3.45 0.15 -3.5 Q1.15 -3.6 2.0 -3.1 L3.0 -2.25 3.15 -2.15 3.25 -2.0 3.6 -1.45 4.05 -0.2 M3.35 -0.5 L3.1 -1.05 2.85 -1.25 2.8 -1.45 2.8 -1.5 1.25 -2.6 0.6 -2.8 0.55 -2.8 -0.1 -2.65 0.1 -2.5 0.25 -2.25 Q-0.8 -1.9 -1.6 -1.2 L-2.1 -0.45 -2.15 -0.35 -2.1 -0.3 -2.3 -0.1 -2.85 0.55 -2.9 0.55 -3.0 1.0 -3.2 1.05 Q-3.9 2.2 -4.25 3.45 L-4.1 3.35 Q1.9 2.1 5.1 6.3 4.75 4.5 3.85 2.75 L3.6 2.4 3.5 2.3 3.55 2.2 3.25 1.55 3.6 1.3 3.65 1.2 3.65 1.1 3.55 0.15 Q3.4 -0.1 3.4 -0.3 L3.35 -0.5 M4.4 12.1 Q4.55 11.95 4.85 11.95 L5.25 10.1 5.05 8.0 5.2 7.7 1.15 7.0 Q-1.0 6.6 -2.95 7.4 L-4.75 8.0 -4.55 9.45 -4.6 9.6 -4.9 9.4 -4.15 11.2 -4.2 11.4 -4.35 11.6 -4.45 11.6 -4.55 11.65 -4.65 12.0 -4.45 12.8 Q-4.25 13.9 -4.5 15.2 -5.0 16.25 -5.85 17.0 L-6.9 18.0 -6.8 18.35 -6.4 19.05 -6.05 19.4 -5.7 19.25 -5.35 18.95 -5.0 18.5 -4.6 18.45 -4.25 18.4 Q-3.55 18.25 -2.85 18.4 L-2.2 22.3 -1.85 22.4 Q-1.65 22.5 -1.4 22.7 L-1.05 22.7 -0.7 22.4 Q-0.85 20.2 -0.1 18.6 0.05 18.4 0.25 18.35 L0.65 18.3 1.4 18.25 Q2.75 19.05 3.55 20.45 L4.2 21.85 4.55 21.85 4.95 21.8 5.7 21.75 Q6.25 20.15 4.65 18.1 L4.35 17.75 4.3 16.75 4.35 16.0 4.7 15.55 5.05 15.45 5.45 15.65 5.7 15.9 6.05 15.85 6.45 15.85 7.95 15.55 8.3 15.7 8.75 15.9 9.0 15.75 9.45 15.45 9.5 13.1 9.1 13.1 8.75 13.15 8.35 13.15 Q8.15 13.0 8.0 12.95 L7.6 12.75 6.5 12.75 Q5.25 12.75 4.2 12.35 L4.4 12.1 M5.2 6.9 L3.5 5.25 Q2.1 4.0 0.25 3.85 L-4.5 4.15 Q-4.9 5.75 -4.8 7.5 -4.05 7.0 -3.15 6.8 L-2.25 6.4 Q1.65 6.15 5.3 7.45 L5.2 6.9" fill="#000000" fill-rule="evenodd" stroke="none"/>
    <path d="M3.35 -0.5 L3.4 -0.3 Q3.4 -0.1 3.55 0.15 L3.65 1.1 3.65 1.2 3.6 1.3 3.25 1.55 3.55 2.2 3.5 2.3 3.6 2.4 3.85 2.75 Q4.75 4.5 5.1 6.3 1.9 2.1 -4.1 3.35 L-4.25 3.45 Q-3.9 2.2 -3.2 1.05 L-3.0 1.0 -2.9 0.55 -2.85 0.55 -2.3 -0.1 -2.1 -0.3 -2.15 -0.35 -2.1 -0.45 -1.6 -1.2 Q-0.8 -1.9 0.25 -2.25 L0.1 -2.5 -0.1 -2.65 0.55 -2.8 0.6 -2.8 1.25 -2.6 2.8 -1.5 2.8 -1.45 2.85 -1.25 3.1 -1.05 3.35 -0.5 M5.2 6.9 L5.3 7.45 Q1.65 6.15 -2.25 6.4 L-3.15 6.8 Q-4.05 7.0 -4.8 7.5 -4.9 5.75 -4.5 4.15 L0.25 3.85 Q2.1 4.0 3.5 5.25 L5.2 6.9" fill="#666666" fill-rule="evenodd" stroke="none"/>
    <path d="M4.2 12.35 Q5.25 12.75 6.5 12.75 L7.6 12.75 8.0 12.95 Q8.15 13.0 8.35 13.15 L8.75 13.15 9.1 13.1 9.5 13.1 9.45 15.45 9.0 15.75 8.75 15.9 8.3 15.7 7.95 15.55 6.45 15.85 6.05 15.85 5.7 15.9 5.45 15.65 5.05 15.45 4.7 15.55 4.35 16.0 4.3 16.75 4.35 17.75 4.65 18.1 Q6.25 20.15 5.7 21.75 L4.95 21.8 4.55 21.85 4.2 21.85 3.55 20.45 Q2.75 19.05 1.4 18.25 L0.65 18.3 0.25 18.35 Q0.05 18.4 -0.1 18.6 -0.85 20.2 -0.7 22.4 L-1.05 22.7 -1.4 22.7 Q-1.65 22.5 -1.85 22.4 L-2.2 22.3 -2.85 18.4 Q-3.55 18.25 -4.25 18.4 L-4.6 18.45 -5.0 18.5 -5.35 18.95 -5.7 19.25 -6.05 19.4 -6.4 19.05 -6.8 18.35 -6.9 18.0 -5.85 17.0 Q-5.0 16.25 -4.5 15.2 -4.25 13.9 -4.45 12.8 L-4.65 12.0 -4.55 11.65 -4.45 11.6 -4.35 11.6 -4.2 11.4 -4.15 11.2 -4.9 9.4 -4.6 9.6 -4.55 9.45 -4.75 8.0 -2.95 7.4 Q-1.0 6.6 1.15 7.0 L5.2 7.7 5.05 8.0 5.25 10.1 4.85 11.95 Q4.55 11.95 4.4 12.1 L4.15 12.1 4.2 12.35" fill="#333333" fill-rule="evenodd" stroke="none"/>
  </g>
</svg>
