<?xml version="1.0" encoding="UTF-8" standalone="no"?>
<svg xmlns:xlink="http://www.w3.org/1999/xlink" height="23.85px" width="17.5px" xmlns="http://www.w3.org/2000/svg">
  <g transform="matrix(1.0, 0.0, 0.0, 1.0, 9.5, 11.15)">
    <path d="M6.2 -8.05 L6.25 -7.65 4.9 -5.6 Q7.05 -5.45 8.0 -3.5 7.9 -1.95 6.65 -0.9 5.6 0.0 4.1 -0.2 3.15 1.1 3.65 2.6 L4.1 3.2 Q5.15 4.15 5.85 5.3 6.5 6.25 6.65 7.45 6.95 9.65 5.8 11.1 2.45 13.45 0.35 12.4 L-7.15 10.35 Q-8.15 10.0 -8.95 9.2 -10.55 4.15 -7.6 -0.35 L-5.05 -4.35 Q-3.5 -6.85 -2.1 -9.45 L1.7 -11.15 2.4 -10.8 2.05 -9.0 Q3.15 -9.75 4.2 -9.9 L5.15 -9.75 Q6.0 -9.15 6.2 -8.05 M1.0 -7.5 Q0.75 -8.2 0.8 -9.0 L-1.0 -8.6 -1.95 -5.45 Q-4.6 -3.25 -6.55 0.1 -7.2 1.25 -7.45 2.65 L-7.75 6.15 -7.7 7.9 -7.15 8.4 -3.65 8.95 Q-0.05 6.6 0.55 2.5 L0.55 1.9 0.75 1.3 2.2 -1.05 2.7 -1.1 3.0 -1.6 5.25 -1.75 6.2 -3.55 Q4.75 -4.95 2.6 -4.55 L2.35 -4.55 4.85 -7.65 4.7 -8.65 1.15 -7.4 1.0 -7.5 M1.95 3.35 Q0.9 6.65 -1.55 9.0 L-3.2 10.5 1.2 10.75 2.8 10.6 4.3 9.4 4.8 8.3 Q5.2 6.5 3.55 5.4 L1.95 3.35" fill="#000000" fill-rule="evenodd" stroke="none"/>
    <path d="M1.0 -7.5 L1.15 -7.4 4.7 -8.65 4.85 -7.65 2.35 -4.55 2.6 -4.55 Q4.75 -4.95 6.2 -3.55 L5.25 -1.75 3.0 -1.6 2.7 -1.1 2.2 -1.05 0.75 1.3 0.55 1.9 0.55 2.5 Q-0.05 6.6 -3.65 8.95 L-7.15 8.4 -7.7 7.9 -7.75 6.15 -7.45 2.65 Q-7.2 1.25 -6.55 0.1 -4.6 -3.25 -1.95 -5.45 L-1.0 -8.6 0.8 -9.0 Q0.75 -8.2 1.0 -7.5" fill="#333333" fill-rule="evenodd" stroke="none"/>
    <path d="M1.95 3.35 L3.55 5.4 Q5.2 6.5 4.8 8.3 L4.3 9.4 2.8 10.6 1.2 10.75 -3.2 10.5 -1.55 9.0 Q0.9 6.65 1.95 3.35" fill="#666666" fill-rule="evenodd" stroke="none"/>
  </g>
</svg>
