<?xml version="1.0" encoding="UTF-8" standalone="no"?>
<svg xmlns:xlink="http://www.w3.org/1999/xlink" height="24.35px" width="29.3px" xmlns="http://www.w3.org/2000/svg">
  <g transform="matrix(1.0, 0.0, 0.0, 1.0, 2.65, 19.55)">
    <path d="M16.2 -19.5 Q18.65 -19.8 18.6 -17.75 L18.4 -14.4 Q18.25 -12.75 17.75 -11.2 L17.8 -11.2 18.05 -11.2 18.35 -11.3 Q20.0 -12.8 22.25 -13.5 L25.1 -14.0 Q25.7 -14.05 26.1 -13.55 27.4 -11.95 25.55 -10.45 22.7 -8.05 19.65 -6.2 20.15 -3.65 19.15 -1.3 L18.85 -0.95 Q15.65 1.15 12.0 0.25 11.6 1.1 10.5 1.6 6.5 3.5 2.45 4.75 L1.7 4.7 Q-1.05 3.55 -2.6 1.1 -2.9 -1.75 -1.25 -3.65 L-1.3 -3.75 Q-0.6 -4.6 0.65 -5.15 L0.95 -5.35 Q1.9 -5.9 2.9 -6.15 L3.05 -6.15 6.75 -7.4 Q9.65 -8.3 12.25 -9.8 L12.55 -10.25 14.4 -17.5 14.45 -18.35 15.25 -19.1 16.2 -19.5 M5.05 -5.4 L5.2 -5.4 5.3 -5.4 Q5.4 -5.35 5.55 -5.25 L5.65 -5.15 5.55 -4.85 5.45 -4.7 Q4.6 -1.15 6.75 1.65 L10.7 -0.15 9.5 -0.9 8.25 -2.0 8.2 -2.4 8.25 -2.55 Q9.5 -3.4 10.75 -1.9 11.4 -1.05 12.5 -0.9 14.85 -0.45 16.95 -1.45 17.85 -1.85 18.55 -2.55 L18.85 -5.7 18.8 -5.7 18.45 -5.85 18.25 -5.95 18.15 -6.1 Q18.15 -7.3 19.55 -7.85 20.15 -8.1 20.7 -8.5 23.15 -10.2 25.2 -12.3 L22.6 -12.35 20.05 -11.0 18.75 -10.15 17.2 -8.85 16.85 -8.95 16.7 -9.1 16.6 -9.25 17.5 -16.5 17.8 -18.05 17.75 -18.2 17.6 -18.35 Q16.65 -18.6 15.9 -18.0 L15.7 -17.85 Q15.1 -14.1 14.05 -10.45 L13.9 -9.45 Q16.55 -9.1 17.05 -6.75 L17.1 -6.35 16.8 -4.0 Q13.7 -2.55 10.35 -3.9 L10.15 -4.35 9.95 -4.65 10.15 -6.35 10.4 -7.3 8.15 -6.65 5.0 -5.55 3.5 -5.0 1.05 -3.5 Q-1.05 -2.3 -1.05 0.0 -1.05 1.45 0.25 2.25 L2.3 3.4 5.75 2.05 Q3.65 -1.25 4.75 -4.95 L5.0 -5.35 5.05 -5.4 M10.95 -6.3 L10.85 -5.15 11.05 -4.9 11.1 -4.75 Q13.3 -4.1 15.55 -4.75 15.85 -5.2 15.8 -5.75 L15.85 -6.9 Q14.85 -8.45 13.0 -8.25 12.3 -7.85 11.4 -7.6 L11.25 -7.55 10.95 -6.3" fill="#000000" fill-rule="evenodd" stroke="none"/>
    <path d="M5.0 -5.55 L8.15 -6.65 10.4 -7.3 10.15 -6.35 9.95 -4.65 10.15 -4.35 10.35 -3.9 Q13.7 -2.55 16.8 -4.0 L17.1 -6.35 17.05 -6.75 Q16.55 -9.1 13.9 -9.45 L14.05 -10.45 Q15.1 -14.1 15.7 -17.85 L15.9 -18.0 Q16.65 -18.6 17.6 -18.35 L17.75 -18.2 17.8 -18.05 17.5 -16.5 16.6 -9.25 16.7 -9.1 16.85 -8.95 17.2 -8.85 18.75 -10.15 20.05 -11.0 22.6 -12.35 25.2 -12.3 Q23.15 -10.2 20.7 -8.5 20.15 -8.1 19.55 -7.85 18.15 -7.3 18.15 -6.1 L18.25 -5.95 18.45 -5.85 18.8 -5.7 18.85 -5.7 18.55 -2.55 Q17.85 -1.85 16.95 -1.45 14.85 -0.45 12.5 -0.9 11.4 -1.05 10.75 -1.9 9.5 -3.4 8.25 -2.55 L8.2 -2.4 8.25 -2.0 9.5 -0.9 10.7 -0.15 6.75 1.65 Q4.6 -1.15 5.45 -4.7 L5.55 -4.85 5.65 -5.15 5.55 -5.25 Q5.4 -5.35 5.3 -5.4 L5.2 -5.4 5.05 -5.4 5.0 -5.55 M10.95 -6.3 L11.25 -7.55 11.4 -7.6 Q12.3 -7.85 13.0 -8.25 14.85 -8.45 15.85 -6.9 L15.8 -5.75 Q15.85 -5.2 15.55 -4.75 13.3 -4.1 11.1 -4.75 L11.05 -4.9 10.85 -5.15 10.95 -6.3" fill="#333333" fill-rule="evenodd" stroke="none"/>
    <path d="M5.0 -5.55 L5.05 -5.4 5.0 -5.35 4.75 -4.95 Q3.65 -1.25 5.75 2.05 L2.3 3.4 0.25 2.25 Q-1.05 1.45 -1.05 0.0 -1.05 -2.3 1.05 -3.5 L3.5 -5.0 5.0 -5.55" fill="#666666" fill-rule="evenodd" stroke="none"/>
  </g>
</svg>
