<?xml version="1.0" encoding="UTF-8" standalone="no"?>
<svg xmlns:xlink="http://www.w3.org/1999/xlink" height="104.25px" width="33.8px" xmlns="http://www.w3.org/2000/svg">
  <g transform="matrix(1.0, 0.0, 0.0, 1.0, 17.1, 90.4)">
    <path d="M13.2 -68.4 L9.95 -40.05 Q8.65 -29.2 7.8 -18.25 7.3 -11.45 6.3 -4.8 L6.85 -3.3 7.25 -1.25 7.4 -1.05 7.45 -0.9 8.6 -0.4 8.8 1.1 8.75 2.4 8.5 2.5 7.65 2.75 6.9 2.8 6.7 2.8 5.6 2.7 5.5 2.65 3.85 2.25 -1.7 0.2 -2.65 -0.25 -5.25 -1.9 -6.45 -2.7 -6.35 -3.25 Q-6.1 -4.3 -5.5 -4.9 L-5.4 -4.85 -5.25 -5.1 -4.8 -5.35 -4.7 -5.35 -4.9 -5.65 -4.85 -6.8 -4.8 -7.5 -4.95 -7.85 -5.2 -8.25 Q-6.75 -17.7 -7.8 -27.35 -8.8 -37.0 -9.95 -46.5 L-11.6 -57.4 -12.35 -58.0 Q-12.9 -61.45 -12.0 -64.75 L-11.8 -65.5 Q-14.45 -67.9 -17.0 -70.75 L-17.05 -71.9 -17.1 -72.65 -14.9 -74.65 -15.1 -75.0 -15.35 -75.4 Q-16.2 -79.85 -15.6 -84.4 L-15.1 -85.9 Q-14.45 -86.0 -14.5 -85.15 L-14.5 -84.75 Q-13.85 -83.25 -12.75 -82.25 L-12.55 -82.15 -12.0 -82.15 Q-11.55 -85.35 -10.5 -88.4 L-10.3 -89.15 Q-9.6 -89.4 -9.3 -90.05 L-9.1 -90.4 -8.65 -90.25 Q-8.5 -89.6 -9.1 -89.05 L-9.35 -88.75 Q-9.45 -86.4 -8.9 -84.25 L-8.7 -83.65 -7.8 -83.65 -7.6 -84.0 -7.45 -84.4 -0.85 -84.9 -0.85 -87.5 -0.85 -88.25 -1.2 -89.05 -1.25 -89.4 -0.65 -89.9 0.2 -89.4 Q2.35 -86.85 4.0 -83.75 5.3 -84.35 6.4 -85.65 L5.55 -86.4 6.65 -85.95 6.7 -86.0 7.1 -86.15 6.9 -85.8 Q8.75 -84.8 10.55 -82.75 L12.05 -86.0 12.4 -86.75 12.8 -86.95 12.8 -87.0 13.85 -86.9 14.0 -86.5 14.15 -85.75 14.45 -85.4 14.6 -83.15 14.55 -81.65 14.75 -81.8 15.7 -82.9 16.35 -83.0 16.65 -82.65 Q17.0 -75.8 14.6 -69.8 L13.95 -68.4 Q13.75 -68.25 13.65 -68.25 13.4 -68.25 13.25 -68.4 14.85 -72.5 15.45 -76.9 L15.7 -79.25 15.6 -80.75 15.45 -80.5 14.75 -79.5 14.45 -79.45 13.75 -79.5 Q13.35 -81.85 13.6 -84.35 13.65 -85.0 13.3 -85.5 12.1 -85.2 11.5 -82.65 L10.75 -81.3 10.55 -81.15 9.7 -81.25 9.5 -81.5 9.45 -81.6 9.05 -82.3 Q8.05 -84.05 6.65 -85.4 L5.5 -83.7 4.85 -82.75 4.05 -82.6 4.75 -82.4 Q8.2 -81.3 11.45 -79.35 L11.85 -79.0 12.4 -79.0 12.9 -78.6 13.65 -77.9 13.7 -77.5 13.8 -76.0 13.8 -75.85 13.85 -75.5 13.85 -75.25 13.85 -74.9 13.8 -74.8 13.6 -74.4 13.45 -74.15 12.2 -71.9 12.0 -71.5 10.75 -70.6 Q4.95 -66.85 -1.9 -68.6 L-6.3 -69.6 -8.05 -69.9 -11.5 -70.5 -11.8 -70.9 -12.2 -71.3 -13.15 -72.25 -13.25 -72.4 -13.25 -72.75 -13.25 -73.15 -13.7 -73.85 -13.8 -74.0 -13.8 -73.95 -14.65 -72.8 -15.15 -72.3 -16.15 -71.5 Q-14.9 -68.35 -12.15 -67.15 L-10.9 -66.75 Q-10.65 -63.6 -11.45 -60.35 L-11.5 -59.65 -11.0 -58.9 Q-10.7 -58.4 -10.75 -57.75 L-10.8 -57.0 -10.6 -56.15 -9.8 -52.0 Q-8.95 -47.35 -8.25 -42.5 L-7.65 -37.85 -5.5 -18.75 Q-4.7 -11.55 -2.7 -4.9 L-2.65 -4.85 -2.6 -4.8 -1.8 -4.15 -0.4 -3.95 1.6 -4.0 Q3.3 -4.15 5.0 -4.75 L4.6 -31.65 Q4.55 -41.75 2.1 -51.4 L1.65 -52.25 Q-0.95 -48.55 -1.15 -42.9 L-1.3 -33.3 -1.25 -25.4 -1.75 -29.05 Q-3.05 -40.8 0.25 -52.1 0.5 -53.2 1.25 -53.5 L2.25 -53.4 2.55 -53.0 3.15 -52.25 Q5.95 -38.5 5.75 -24.15 L5.1 -4.75 5.6 -4.95 5.75 -8.9 Q6.3 -16.2 7.15 -23.45 L9.35 -44.65 9.8 -50.3 10.0 -52.75 10.4 -56.8 10.85 -60.0 Q11.35 -63.6 12.2 -67.05 L12.3 -67.4 12.45 -68.15 Q12.7 -69.15 13.3 -69.25 L13.2 -68.4 M2.3 -81.65 L1.85 -81.7 -0.25 -81.85 -0.55 -81.85 -1.4 -81.95 -4.15 -82.15 Q-8.45 -81.55 -11.65 -79.05 -12.35 -78.5 -12.6 -77.5 -12.8 -76.65 -13.25 -76.0 -13.35 -75.2 -13.0 -74.55 L-12.55 -73.75 -12.5 -73.4 -12.45 -73.0 -11.45 -72.1 -11.2 -71.9 -6.6 -70.95 -2.4 -70.5 6.55 -70.8 6.9 -70.85 7.7 -70.95 Q9.05 -71.15 10.0 -71.9 10.9 -72.65 11.45 -73.9 12.05 -74.3 12.4 -75.0 L12.6 -75.4 12.6 -76.15 12.6 -76.9 Q8.15 -81.25 2.3 -81.65 M3.6 -2.5 L6.4 -1.35 6.0 -3.0 5.85 -4.3 4.15 -2.8 3.6 -2.5 M7.25 1.35 L7.25 0.6 Q4.35 -0.5 1.35 -2.0 -1.15 -1.85 -3.85 -3.4 L-4.1 -3.85 -4.25 -3.9 -4.3 -3.9 -4.6 -3.85 -4.8 -3.6 -4.9 -3.4 -4.6 -2.35 -2.5 -1.15 2.15 0.4 6.55 1.6 7.25 1.5 7.25 1.35 M5.9 5.9 L6.1 8.0 6.2 7.95 6.2 9.5 6.25 9.85 5.75 11.0 Q6.1 11.8 5.6 12.5 3.75 13.45 1.5 13.85 -0.8 13.25 -2.75 12.25 -2.65 10.45 -3.0 8.75 L-3.25 6.6 Q-3.2 5.35 -2.4 4.5 -1.85 3.95 -1.1 3.95 1.9 3.75 4.7 4.9 L5.15 5.25 Q5.75 5.3 5.9 5.9 M2.15 5.05 L-0.7 4.95 -0.75 5.0 -1.0 5.25 -1.1 5.3 Q-1.45 5.75 -1.45 6.3 L-1.25 8.35 -1.2 9.15 -1.25 9.35 -1.25 10.75 -1.25 11.0 Q1.55 12.45 4.25 11.0 L4.25 10.6 4.25 10.25 4.85 9.5 4.85 8.25 4.8 8.1 4.7 7.65 4.55 5.9 Q3.5 5.2 2.15 5.05 M-9.8 -87.65 L-9.85 -88.25 -10.05 -87.75 Q-11.0 -85.05 -11.25 -82.15 L-11.25 -81.95 -11.1 -82.15 -8.9 -82.55 -8.4 -82.65 -8.9 -82.75 Q-9.8 -85.1 -9.8 -87.65 M-14.15 -75.75 L-14.2 -76.5 -13.3 -79.05 -12.5 -80.8 -14.3 -82.5 Q-15.45 -79.05 -14.2 -75.75 L-14.15 -75.65 -14.15 -75.75 M-0.15 -83.75 L-0.7 -83.55 -0.15 -83.45 3.25 -82.85 Q1.95 -85.7 0.0 -87.75 L0.05 -84.9 -0.15 -83.75 M-7.05 -82.95 L-6.0 -83.2 -6.95 -83.15 -7.05 -82.95" fill="#000000" fill-rule="evenodd" stroke="none"/>
    <path d="M12.2 -67.05 Q11.35 -63.6 10.85 -60.0 L10.9 -60.55 7.75 -64.25 7.55 -64.65 6.5 -68.6 4.25 -68.15 Q5.6 -63.6 8.2 -59.85 L9.9 -57.5 10.4 -56.8 10.0 -52.75 9.8 -50.3 8.95 -53.0 Q6.25 -60.3 0.0 -61.15 -1.9 -60.95 -3.35 -59.45 -5.75 -57.0 -6.55 -53.5 -7.85 -48.05 -8.25 -42.5 -8.95 -47.35 -9.8 -52.0 -8.95 -56.8 -7.65 -61.35 -6.55 -65.4 -6.3 -69.6 L-1.9 -68.6 Q4.95 -66.85 10.75 -70.6 L10.75 -70.25 12.15 -67.2 12.2 -67.1 12.2 -67.05 M9.35 -44.65 L7.15 -23.45 Q6.3 -16.2 5.75 -8.9 L5.6 -4.95 5.1 -4.75 5.75 -24.15 Q5.95 -38.5 3.15 -52.25 L2.55 -53.0 2.25 -53.4 1.25 -53.5 Q0.5 -53.2 0.25 -52.1 -3.05 -40.8 -1.75 -29.05 L-1.85 -29.6 Q-2.5 -23.65 -1.9 -17.5 L-0.4 -3.95 -1.8 -4.15 -2.6 -4.8 -3.0 -7.5 -4.35 -16.6 Q-6.1 -27.5 -6.4 -38.65 L-6.55 -41.6 Q-7.25 -50.95 -2.15 -57.45 -0.2 -60.0 2.5 -58.05 4.4 -56.7 5.75 -54.45 8.35 -49.85 9.35 -44.65 M-1.3 -33.3 L-1.15 -42.9 Q-0.95 -48.55 1.65 -52.25 L2.1 -51.4 Q4.55 -41.75 4.6 -31.65 L5.0 -4.75 Q3.3 -4.15 1.6 -4.0 L1.6 -4.1 Q-0.9 -18.5 -0.35 -33.25 L-0.65 -33.65 -1.15 -33.6 -1.25 -33.5 -1.3 -33.3 M-10.6 -56.15 L-10.8 -57.0 -10.75 -57.75 Q-10.7 -58.4 -11.0 -58.9 L-11.5 -59.65 -11.45 -60.35 Q-10.65 -63.6 -10.9 -66.75 L-12.15 -67.15 -11.95 -68.95 -11.9 -71.0 -12.2 -71.3 -11.8 -70.9 -11.5 -70.5 -8.05 -69.9 Q-7.9 -67.6 -8.5 -65.5 -9.8 -60.9 -10.6 -56.15 M-15.15 -72.3 L-14.65 -72.8 Q-14.7 -72.2 -14.9 -71.65 L-15.1 -72.25 -15.15 -72.3 M13.6 -74.4 L13.8 -74.8 13.8 -74.75 13.75 -74.4 13.6 -74.4 M5.5 -83.7 L6.65 -85.4 Q8.05 -84.05 9.05 -82.3 7.35 -83.2 5.5 -83.7 M10.75 -81.3 L11.5 -82.65 Q12.1 -85.2 13.3 -85.5 13.65 -85.0 13.6 -84.35 13.35 -81.85 13.75 -79.5 L14.45 -79.45 14.75 -79.5 15.45 -80.5 15.6 -80.75 15.7 -79.25 15.45 -76.9 Q13.3 -79.6 10.75 -81.3 M-1.4 -81.95 L-0.55 -81.85 -0.25 -81.85 1.85 -81.7 2.3 -81.65 Q4.35 -80.95 5.75 -78.75 6.65 -77.35 6.4 -75.5 6.05 -74.35 5.1 -74.15 L4.55 -73.9 Q0.7 -73.5 -3.1 -73.75 L-4.2 -75.3 -4.5 -76.0 Q-1.9 -79.8 1.7 -77.15 -1.25 -78.5 -3.85 -75.9 L-3.5 -75.15 -3.25 -74.75 4.55 -75.4 4.75 -75.75 5.05 -76.15 Q5.35 -76.95 4.95 -77.65 L4.6 -78.4 Q-2.25 -82.1 -7.9 -76.25 L-8.0 -75.15 -8.0 -74.4 Q-5.45 -71.3 -1.8 -70.45 L-2.4 -70.5 -6.6 -70.95 -9.45 -73.65 -9.45 -75.15 -9.45 -76.65 Q-6.4 -81.3 -1.4 -81.95 M10.0 -71.9 Q9.05 -71.15 7.7 -70.95 L6.9 -70.85 6.55 -70.8 9.85 -71.85 10.0 -71.9 M2.15 5.05 Q3.5 5.2 4.55 5.9 L4.7 7.65 4.8 8.1 4.85 8.25 4.85 9.5 4.25 10.25 4.25 10.6 4.25 11.0 Q1.55 12.45 -1.25 11.0 L-1.25 10.75 -1.25 9.35 -1.2 9.15 -1.25 8.35 -1.45 6.3 Q-1.45 5.75 -1.1 5.3 L-1.0 5.25 -0.75 5.0 -0.7 4.95 2.15 5.05 M-10.05 -87.75 L-9.8 -87.65 Q-9.8 -85.1 -8.9 -82.75 L-8.9 -82.55 -11.1 -82.15 -11.25 -82.15 Q-11.0 -85.05 -10.05 -87.75 M-14.2 -75.75 Q-15.45 -79.05 -14.3 -82.5 L-12.5 -80.8 -13.3 -79.05 -14.2 -76.5 -14.15 -75.75 -14.2 -75.75 M-0.15 -83.45 L-0.15 -83.75 0.05 -84.9 0.0 -87.75 Q1.95 -85.7 3.25 -82.85 L-0.15 -83.45" fill="#c0954e" fill-rule="evenodd" stroke="none"/>
    <path d="M13.25 -68.4 L13.2 -68.4 13.3 -69.25 Q12.7 -69.15 12.45 -68.15 L12.3 -67.4 12.2 -67.05 12.2 -67.1 12.15 -67.2 10.75 -70.25 10.75 -70.6 12.0 -71.5 12.2 -71.9 13.45 -74.15 13.6 -74.4 13.75 -74.4 13.8 -74.75 13.8 -74.8 13.85 -74.9 13.85 -75.25 13.85 -75.5 13.8 -75.85 13.8 -76.0 13.7 -77.5 13.65 -77.9 12.9 -78.6 12.4 -79.0 11.85 -79.0 11.45 -79.35 Q8.2 -81.3 4.75 -82.4 L4.85 -82.75 5.5 -83.7 Q7.35 -83.2 9.05 -82.3 L9.45 -81.6 9.5 -81.5 9.7 -81.25 10.55 -81.15 10.75 -81.3 Q13.3 -79.6 15.45 -76.9 14.85 -72.5 13.25 -68.4 M10.85 -60.0 L10.4 -56.8 9.9 -57.5 8.2 -59.85 Q5.6 -63.6 4.25 -68.15 L6.5 -68.6 7.55 -64.65 7.75 -64.25 10.9 -60.55 10.85 -60.0 M9.8 -50.3 L9.35 -44.65 Q8.35 -49.85 5.75 -54.45 4.4 -56.7 2.5 -58.05 -0.2 -60.0 -2.15 -57.45 -7.25 -50.95 -6.55 -41.6 L-6.4 -38.65 Q-6.1 -27.5 -4.35 -16.6 L-3.0 -7.5 -2.6 -4.8 -2.65 -4.85 -2.7 -4.9 Q-4.7 -11.55 -5.5 -18.75 L-7.65 -37.85 -8.25 -42.5 Q-7.85 -48.05 -6.55 -53.5 -5.75 -57.0 -3.35 -59.45 -1.9 -60.95 0.0 -61.15 6.25 -60.3 8.95 -53.0 L9.8 -50.3 M-1.75 -29.05 L-1.25 -25.4 -1.3 -33.3 -1.25 -33.5 -1.15 -33.6 -0.65 -33.65 -0.35 -33.25 Q-0.9 -18.5 1.6 -4.1 L1.6 -4.0 -0.4 -3.95 -1.9 -17.5 Q-2.5 -23.65 -1.85 -29.6 L-1.75 -29.05 M-9.8 -52.0 L-10.6 -56.15 Q-9.8 -60.9 -8.5 -65.5 -7.9 -67.6 -8.05 -69.9 L-6.3 -69.6 Q-6.55 -65.4 -7.65 -61.35 -8.95 -56.8 -9.8 -52.0 M-12.15 -67.15 Q-14.9 -68.35 -16.15 -71.5 L-15.15 -72.3 -15.1 -72.25 -14.9 -71.65 Q-14.7 -72.2 -14.65 -72.8 L-13.8 -73.95 -13.7 -73.85 -13.25 -73.15 -13.25 -72.75 -13.25 -72.4 -13.15 -72.25 -12.2 -71.3 -11.9 -71.0 -11.95 -68.95 -12.15 -67.15" fill="#a57c3a" fill-rule="evenodd" stroke="none"/>
    <path d="M-1.4 -81.95 Q-6.4 -81.3 -9.45 -76.65 L-9.45 -75.15 -9.45 -73.65 -6.6 -70.95 -11.2 -71.9 -11.45 -72.1 -12.45 -73.0 -12.5 -73.4 -12.55 -73.75 -13.0 -74.55 Q-13.35 -75.2 -13.25 -76.0 -12.8 -76.65 -12.6 -77.5 -12.35 -78.5 -11.65 -79.05 -8.45 -81.55 -4.15 -82.15 L-1.4 -81.95 M-2.4 -70.5 L-1.8 -70.45 Q-5.45 -71.3 -8.0 -74.4 L-8.0 -75.15 -7.9 -76.25 Q-2.25 -82.1 4.6 -78.4 L4.95 -77.65 Q5.35 -76.95 5.05 -76.15 L4.75 -75.75 4.55 -75.4 -3.25 -74.75 -3.5 -75.15 -3.85 -75.9 Q-1.25 -78.5 1.7 -77.15 -1.9 -79.8 -4.5 -76.0 L-4.2 -75.3 -3.1 -73.75 Q0.7 -73.5 4.55 -73.9 L5.1 -74.15 Q6.05 -74.35 6.4 -75.5 6.65 -77.35 5.75 -78.75 4.35 -80.95 2.3 -81.65 8.15 -81.25 12.6 -76.9 L12.6 -76.15 12.6 -75.4 12.4 -75.0 Q12.05 -74.3 11.45 -73.9 10.9 -72.65 10.0 -71.9 L9.85 -71.85 6.55 -70.8 -2.4 -70.5" fill="#d6b989" fill-rule="evenodd" stroke="none"/>
    <path d="M3.6 -2.5 L4.15 -2.8 5.85 -4.3 6.0 -3.0 6.4 -1.35 3.6 -2.5 M7.25 1.35 L7.25 1.5 6.55 1.6 2.15 0.4 -2.5 -1.15 -4.6 -2.35 -4.9 -3.4 -4.8 -3.6 -4.6 -3.85 -4.3 -3.9 -4.25 -3.9 -4.1 -3.85 -3.85 -3.4 Q-1.15 -1.85 1.35 -2.0 4.35 -0.5 7.25 0.6 L7.25 1.35" fill="#996600" fill-rule="evenodd" stroke="none"/>
  </g>
</svg>
