<?xml version="1.0" encoding="UTF-8" standalone="no"?>
<svg xmlns:xlink="http://www.w3.org/1999/xlink" height="22.6px" width="20.7px" xmlns="http://www.w3.org/2000/svg">
  <g transform="matrix(1.0, 0.0, 0.0, 1.0, 4.55, 4.5)">
    <path d="M-1.3 9.7 L-2.3 6.3 -1.95 6.0 Q1.6 3.6 5.85 3.25 L6.05 3.85 6.35 5.75 3.4 6.65 Q0.4 7.45 -1.3 9.7 M5.6 2.4 L4.05 2.35 1.1 2.85 Q-1.15 3.35 -2.65 4.75 L-3.3 0.1 -3.1 -0.2 -1.15 -2.85 -0.65 -3.05 Q3.55 -1.9 5.7 1.75 L5.6 2.35 5.6 2.4" fill="#666666" fill-rule="evenodd" stroke="none"/>
    <path d="M7.55 2.25 L7.9 3.45 Q8.15 4.0 8.05 4.6 L8.05 4.9 Q12.65 5.95 15.25 9.85 16.7 12.05 15.85 14.7 15.3 16.4 14.25 17.8 7.2 18.65 0.6 17.1 L-0.15 16.55 -1.45 14.7 -2.05 12.9 -2.1 12.9 -2.65 12.55 -2.8 12.35 -2.45 11.6 Q-4.1 6.2 -4.55 0.55 -4.7 -1.1 -3.5 -2.45 L-1.45 -4.5 Q4.3 -3.05 7.4 1.95 L7.55 2.25 M5.6 2.4 L5.6 2.35 5.7 1.75 Q3.55 -1.9 -0.65 -3.05 L-1.15 -2.85 -3.1 -0.2 -3.3 0.1 -2.65 4.75 Q-1.15 3.35 1.1 2.85 L4.05 2.35 5.6 2.4 M-1.3 9.7 Q0.4 7.45 3.4 6.65 L6.35 5.75 6.05 3.85 5.85 3.25 Q1.6 3.6 -1.95 6.0 L-2.3 6.3 -1.3 9.7 M6.45 6.5 L0.75 9.4 Q-0.3 9.95 -0.7 11.15 L-0.7 11.25 Q0.1 13.35 1.2 15.35 L1.6 15.95 Q7.35 16.9 13.35 16.05 14.15 14.65 14.15 13.1 14.15 12.65 14.4 12.25 12.6 7.0 6.6 6.75 L6.55 6.45 6.45 6.5" fill="#000000" fill-rule="evenodd" stroke="none"/>
    <path d="M6.6 6.75 Q12.6 7.0 14.4 12.25 14.15 12.65 14.15 13.1 14.15 14.65 13.35 16.05 7.35 16.9 1.6 15.95 L1.2 15.35 Q0.1 13.35 -0.7 11.25 L-0.7 11.15 Q-0.3 9.95 0.75 9.4 L6.45 6.5 6.6 6.75" fill="#333333" fill-rule="evenodd" stroke="none"/>
  </g>
</svg>
