<?xml version="1.0" encoding="UTF-8" standalone="no"?>
<svg xmlns:xlink="http://www.w3.org/1999/xlink" height="25.1px" width="19.5px" xmlns="http://www.w3.org/2000/svg">
  <g transform="matrix(1.0, 0.0, 0.0, 1.0, 9.7, 12.55)">
    <path d="M-3.0 -9.2 L-0.75 -11.2 Q-0.1 -11.75 0.7 -11.95 3.3 -13.2 6.0 -11.85 9.1 -10.2 9.75 -6.85 9.9 -5.8 9.35 -4.6 7.85 -1.55 4.4 -0.7 1.8 5.3 -2.4 10.4 -5.15 13.75 -8.75 11.9 L-9.25 10.75 Q-10.2 7.95 -9.05 5.45 L-2.8 -6.75 -3.0 -9.2 M0.9 3.3 L3.4 -0.45 3.45 -0.45 3.35 -0.45 3.5 -1.8 7.6 -3.2 Q8.5 -4.95 8.05 -7.25 7.6 -9.25 5.75 -10.2 0.9 -12.8 -1.95 -8.0 L-1.8 -7.85 Q-1.65 -4.35 -3.75 -1.35 L-2.9 -0.95 Q-0.05 0.3 0.85 3.3 L0.85 3.45 0.9 3.3 M-7.6 5.65 L-7.5 6.05 -8.35 9.45 -7.25 11.25 -7.05 11.35 Q-4.0 10.3 -1.9 7.6 L-5.2 1.6 -7.6 5.65 M0.35 4.15 L-0.05 4.2 0.0 4.05 0.05 3.75 Q-1.0 0.5 -3.85 -1.1 L-5.05 1.3 -3.65 2.5 Q-1.75 4.4 -1.65 7.25 L0.35 4.15" fill="#000000" fill-rule="evenodd" stroke="none"/>
    <path d="M0.85 3.3 Q-0.05 0.3 -2.9 -0.95 L-3.75 -1.35 Q-1.65 -4.35 -1.8 -7.85 L-1.95 -8.0 Q0.9 -12.8 5.75 -10.2 7.6 -9.25 8.05 -7.25 8.5 -4.95 7.6 -3.2 L3.5 -1.8 3.35 -0.45 3.45 -0.45 3.4 -0.45 0.9 3.3 0.85 3.3" fill="#333333" fill-rule="evenodd" stroke="none"/>
    <path d="M0.35 4.15 L-1.65 7.25 Q-1.75 4.4 -3.65 2.5 L-5.05 1.3 -3.85 -1.1 Q-1.0 0.5 0.05 3.75 L0.0 4.05 -0.05 4.2 0.35 4.15 M-7.6 5.65 L-5.2 1.6 -1.9 7.6 Q-4.0 10.3 -7.05 11.35 L-7.25 11.25 -8.35 9.45 -7.5 6.05 -7.6 5.65" fill="#666666" fill-rule="evenodd" stroke="none"/>
  </g>
</svg>
