<?xml version="1.0" encoding="UTF-8" standalone="no"?>
<svg xmlns:xlink="http://www.w3.org/1999/xlink" height="16.2px" width="16.6px" xmlns="http://www.w3.org/2000/svg">
  <g transform="matrix(1.0, 0.0, 0.0, 1.0, 8.3, 8.1)">
    <path d="M-0.1 -4.7 L-0.3 -3.95 -0.35 -1.15 Q1.85 2.8 -0.1 6.9 L2.15 5.9 Q3.25 5.3 3.85 4.3 4.75 2.65 6.35 1.55 L6.7 0.2 7.3 -3.05 Q7.75 -5.3 6.1 -6.8 3.45 -7.4 1.2 -6.25 -0.05 -5.6 -0.1 -4.7 M-2.15 -1.8 Q-4.1 -3.1 -6.55 -2.55 L-6.65 1.25 Q-6.5 3.25 -5.25 4.9 L-4.0 3.55 Q-1.85 1.3 -2.15 -1.8 M-5.75 -4.45 L-1.55 -3.2 -1.65 -4.7 -1.3 -5.45 Q-0.3 -7.1 1.65 -7.65 L6.25 -7.9 7.85 -6.65 Q9.25 -1.2 6.5 3.55 L6.05 3.7 Q4.95 6.4 2.1 7.55 -0.9 8.8 -3.95 7.25 -5.85 6.35 -7.1 4.8 L-7.4 4.05 -7.7 3.5 Q-8.55 0.55 -8.15 -2.55 L-5.75 -4.45 M-0.65 -0.9 L-1.05 -0.7 -1.45 -1.2 Q-1.85 2.7 -4.95 5.2 L-1.35 6.85 -0.85 5.9 Q0.9 2.6 -0.55 -0.9 L-0.55 -0.95 -0.65 -0.9" fill="#000000" fill-rule="evenodd" stroke="none"/>
    <path d="M-0.1 -4.7 Q-0.05 -5.6 1.2 -6.25 3.45 -7.4 6.1 -6.8 7.75 -5.3 7.3 -3.05 L6.7 0.2 6.35 1.55 Q4.75 2.65 3.85 4.3 3.25 5.3 2.15 5.9 L-0.1 6.9 Q1.85 2.8 -0.35 -1.15 L-0.3 -3.95 -0.1 -4.7" fill="#333333" fill-rule="evenodd" stroke="none"/>
    <path d="M-2.15 -1.8 Q-1.85 1.3 -4.0 3.55 L-5.25 4.9 Q-6.5 3.25 -6.65 1.25 L-6.55 -2.55 Q-4.1 -3.1 -2.15 -1.8 M-0.55 -0.9 Q0.9 2.6 -0.85 5.9 L-1.35 6.85 -4.95 5.2 Q-1.85 2.7 -1.45 -1.2 L-1.05 -0.7 -0.65 -0.9 -0.55 -0.9" fill="#666666" fill-rule="evenodd" stroke="none"/>
  </g>
</svg>
