<?xml version="1.0" encoding="UTF-8" standalone="no"?>
<svg xmlns:xlink="http://www.w3.org/1999/xlink" height="15.65px" width="19.55px" xmlns="http://www.w3.org/2000/svg">
  <g transform="matrix(1.0, 0.0, 0.0, 1.0, 9.8, 7.8)">
    <path d="M-0.75 -5.65 L-3.35 -6.5 -3.9 -6.8 Q-9.35 -6.15 -8.4 -0.55 -7.7 3.45 -4.05 2.85 -2.05 -0.9 -0.5 -5.2 L-0.75 -5.65 M0.6 -6.4 L0.95 -6.15 Q8.6 -6.35 9.7 0.7 L9.7 2.65 Q9.55 3.5 9.0 4.2 L9.0 4.45 9.0 4.7 8.4 5.5 8.0 6.0 7.7 6.5 Q4.6 9.05 2.05 6.8 L-0.7 4.5 -1.75 3.75 -2.3 4.05 -2.85 4.55 Q-6.05 5.15 -8.25 3.0 L-8.7 2.65 -8.8 2.4 -8.9 1.9 Q-9.9 0.05 -9.8 -2.15 -9.65 -6.7 -5.25 -7.75 -1.85 -8.15 0.6 -6.4 M0.0 -4.9 L-0.25 -4.95 Q-1.15 -0.8 -3.6 2.75 L-2.9 2.55 -1.85 2.25 -1.15 2.55 Q1.95 -0.65 1.25 -4.9 L0.0 -4.9 M-0.55 2.9 L1.0 4.2 Q1.5 4.85 2.3 5.1 L2.45 5.4 2.75 5.85 3.25 6.4 Q5.5 6.7 7.1 4.85 L7.55 4.35 7.6 4.1 7.8 3.3 8.3 2.6 8.3 2.35 8.35 1.8 8.65 1.05 8.6 0.8 8.4 0.3 8.3 -0.7 Q6.2 -4.4 2.0 -4.85 3.2 -0.5 -0.4 2.7 L-0.55 2.85 -0.55 2.9" fill="#000000" fill-rule="evenodd" stroke="none"/>
    <path d="M-0.75 -5.65 L-0.5 -5.2 Q-2.05 -0.9 -4.05 2.85 -7.7 3.45 -8.4 -0.55 -9.35 -6.15 -3.9 -6.8 L-3.35 -6.5 -0.75 -5.65 M0.0 -4.9 L1.25 -4.9 Q1.95 -0.65 -1.15 2.55 L-1.85 2.25 -2.9 2.55 -3.6 2.75 Q-1.15 -0.8 -0.25 -4.95 L0.0 -4.9" fill="#666666" fill-rule="evenodd" stroke="none"/>
    <path d="M-0.4 2.7 Q3.2 -0.5 2.0 -4.85 6.2 -4.4 8.3 -0.7 L8.4 0.3 8.6 0.8 8.65 1.05 8.35 1.8 8.3 2.35 8.3 2.6 7.8 3.3 7.6 4.1 7.55 4.35 7.1 4.85 Q5.5 6.7 3.25 6.4 L2.75 5.85 2.45 5.4 2.3 5.1 Q1.5 4.85 1.0 4.2 L-0.55 2.9 -0.4 2.7" fill="#333333" fill-rule="evenodd" stroke="none"/>
  </g>
</svg>
