<?xml version="1.0" encoding="UTF-8" standalone="no"?>
<svg xmlns:xlink="http://www.w3.org/1999/xlink" height="18.5px" width="29.1px" xmlns="http://www.w3.org/2000/svg">
  <g transform="matrix(1.0, 0.0, 0.0, 1.0, 2.2, 16.6)">
    <path d="M20.15 -16.55 L20.5 -16.6 Q23.65 -16.55 25.45 -13.8 27.05 -11.35 26.9 -8.4 L26.8 -8.25 26.15 -7.5 25.9 -7.35 25.8 -7.2 25.75 -7.05 24.6 -6.45 21.8 -4.3 17.5 -1.55 Q10.85 2.55 3.0 1.75 -0.3 1.4 -2.2 -0.95 -1.85 -4.65 1.9 -6.2 L3.75 -6.95 13.1 -10.85 Q13.45 -13.9 16.55 -15.7 18.2 -16.65 20.15 -16.55 M8.75 -7.6 L7.9 -7.3 5.85 -6.55 Q5.0 -2.75 7.6 0.55 L10.35 0.05 Q9.8 -0.45 9.4 -1.25 7.8 -4.35 8.75 -7.6 M5.6 -6.4 Q0.7 -5.05 -0.2 -3.65 -1.15 -2.25 -0.8 -1.45 0.95 0.45 3.85 0.6 L6.9 0.6 Q5.45 -0.9 5.15 -3.15 4.9 -4.95 5.6 -6.4 M13.05 -9.95 L9.3 -7.8 Q8.85 -3.55 11.8 -0.3 14.9 -1.3 17.75 -3.15 19.6 -4.35 21.2 -5.9 L22.35 -6.8 Q23.0 -7.25 23.6 -7.3 L23.7 -7.4 24.85 -7.95 24.95 -8.1 25.45 -8.7 25.6 -8.85 Q25.5 -13.1 21.6 -14.85 L20.1 -15.2 Q16.4 -15.4 14.85 -12.15 L13.45 -9.7 13.05 -9.4 13.05 -9.95" fill="#000000" fill-rule="evenodd" stroke="none"/>
    <path d="M13.05 -9.95 L13.05 -9.4 13.45 -9.7 14.85 -12.15 Q16.4 -15.4 20.1 -15.2 L21.6 -14.85 Q25.5 -13.1 25.6 -8.85 L25.45 -8.7 24.95 -8.1 24.85 -7.95 23.7 -7.4 23.6 -7.3 Q23.0 -7.25 22.35 -6.8 L21.2 -5.9 Q19.6 -4.35 17.75 -3.15 14.9 -1.3 11.8 -0.3 8.85 -3.55 9.3 -7.8 L13.05 -9.95" fill="#333333" fill-rule="evenodd" stroke="none"/>
    <path d="M5.6 -6.4 Q4.9 -4.95 5.15 -3.15 5.45 -0.9 6.9 0.6 L3.85 0.6 Q0.95 0.45 -0.8 -1.45 -1.15 -2.25 -0.2 -3.65 0.7 -5.05 5.6 -6.4 M8.75 -7.6 Q7.8 -4.35 9.4 -1.25 9.8 -0.45 10.35 0.05 L7.6 0.55 Q5.0 -2.75 5.85 -6.55 L7.9 -7.3 8.75 -7.6" fill="#666666" fill-rule="evenodd" stroke="none"/>
  </g>
</svg>
