<?xml version="1.0" encoding="UTF-8" standalone="no"?>
<svg xmlns:xlink="http://www.w3.org/1999/xlink" height="13.15px" width="27.75px" xmlns="http://www.w3.org/2000/svg">
  <g transform="matrix(1.0, 0.0, 0.0, 1.0, 3.0, 6.0)">
    <path d="M2.5 -2.95 Q5.8 -3.2 9.1 -2.15 12.75 -2.9 16.2 -4.4 L16.2 -4.6 Q17.15 -5.75 18.75 -5.85 L19.5 -6.0 Q25.05 -5.15 24.75 0.25 24.7 1.5 23.95 2.6 20.15 5.15 15.75 6.35 L11.25 7.1 Q5.05 7.5 -0.35 4.95 -1.9 4.25 -2.7 2.85 -3.85 -0.95 -0.4 -2.7 L0.55 -3.1 2.5 -2.95 M0.25 -1.2 Q-2.3 -0.3 -1.4 2.25 1.5 5.2 5.75 5.4 4.65 2.0 5.9 -1.05 L1.55 -1.75 0.25 -1.2 M7.8 -0.75 L6.75 -1.0 Q5.95 2.05 6.8 5.2 L6.9 5.4 10.45 5.35 Q9.55 4.1 9.35 2.4 9.15 0.9 9.3 -0.6 L7.8 -0.75 M18.5 -3.95 Q17.85 -3.65 17.3 -3.65 15.55 -1.95 12.65 -1.5 L10.05 -0.9 Q10.2 2.35 11.55 5.3 L16.4 4.9 18.15 4.3 22.5 1.6 22.7 1.25 23.0 0.85 23.15 0.65 23.15 0.45 23.15 0.25 23.25 0.05 23.4 -0.15 Q23.25 -4.05 19.25 -4.1 L18.5 -3.95" fill="#000000" fill-rule="evenodd" stroke="none"/>
    <path d="M18.5 -3.95 L19.25 -4.1 Q23.25 -4.05 23.4 -0.15 L23.25 0.05 23.15 0.25 23.15 0.45 23.15 0.65 23.0 0.85 22.7 1.25 22.5 1.6 18.15 4.3 16.4 4.9 11.55 5.3 Q10.2 2.35 10.05 -0.9 L12.65 -1.5 Q15.55 -1.95 17.3 -3.65 17.85 -3.65 18.5 -3.95" fill="#333333" fill-rule="evenodd" stroke="none"/>
    <path d="M7.8 -0.75 L9.3 -0.6 Q9.15 0.9 9.35 2.4 9.55 4.1 10.45 5.35 L6.9 5.4 6.8 5.2 Q5.95 2.05 6.75 -1.0 L7.8 -0.75 M0.25 -1.2 L1.55 -1.75 5.9 -1.05 Q4.65 2.0 5.75 5.4 1.5 5.2 -1.4 2.25 -2.3 -0.3 0.25 -1.2" fill="#666666" fill-rule="evenodd" stroke="none"/>
  </g>
</svg>
