<?xml version="1.0" encoding="UTF-8" standalone="no"?>
<svg xmlns:xlink="http://www.w3.org/1999/xlink" height="20.75px" width="26.8px" xmlns="http://www.w3.org/2000/svg">
  <g transform="matrix(1.0, 0.0, 0.0, 1.0, 1.9, 2.5)">
    <path d="M0.45 -0.4 L0.1 -0.25 Q-1.4 3.15 1.8 5.5 L6.95 9.25 7.2 8.95 7.35 8.7 7.35 8.5 7.35 8.3 Q9.6 5.2 9.9 1.6 L9.85 1.5 9.65 1.25 9.7 1.1 Q6.2 -0.5 2.25 -0.8 L0.45 -0.4 M24.9 12.3 L24.4 15.25 24.1 15.65 24.0 15.85 23.65 16.25 Q23.25 18.5 21.25 18.25 18.15 17.8 15.7 16.05 9.95 14.0 5.15 10.15 L1.3 7.15 Q-1.4 5.15 -1.85 2.05 -2.2 -0.25 -0.5 -1.65 0.65 -2.55 2.1 -2.5 9.7 -1.8 15.7 2.85 L17.35 4.35 17.75 4.9 18.35 5.3 18.55 5.45 18.65 5.6 Q23.3 5.45 24.55 9.5 25.0 10.8 24.9 12.3 M20.3 7.65 Q17.7 7.7 16.2 5.8 L14.6 4.1 Q14.8 5.55 14.05 7.25 13.25 9.15 11.95 10.7 L10.9 11.7 10.85 11.9 Q12.9 13.2 15.1 14.3 16.75 14.7 18.3 15.55 L18.65 15.85 18.7 16.05 18.75 16.25 22.1 16.45 22.15 16.3 22.2 16.1 Q22.35 15.4 22.9 14.9 L22.95 14.7 22.95 14.55 22.95 14.15 Q24.5 10.3 21.35 7.95 L20.3 7.65 M10.85 1.65 Q11.05 5.5 8.3 8.8 L8.15 8.9 7.45 9.05 7.25 9.25 7.05 9.3 7.25 9.45 9.9 11.3 9.9 11.25 10.1 11.25 10.15 11.2 10.15 11.15 10.2 11.15 Q12.15 9.45 13.1 6.85 13.75 5.0 13.5 3.25 L10.85 1.65" fill="#000000" fill-rule="evenodd" stroke="none"/>
    <path d="M20.3 7.65 L21.35 7.95 Q24.5 10.3 22.95 14.15 L22.95 14.55 22.95 14.7 22.9 14.9 Q22.35 15.4 22.2 16.1 L22.15 16.3 22.1 16.45 18.75 16.25 18.7 16.05 18.65 15.85 18.3 15.55 Q16.75 14.7 15.1 14.3 12.9 13.2 10.85 11.9 L10.9 11.7 11.95 10.7 Q13.25 9.15 14.05 7.25 14.8 5.55 14.6 4.1 L16.2 5.8 Q17.7 7.7 20.3 7.65" fill="#333333" fill-rule="evenodd" stroke="none"/>
    <path d="M0.45 -0.4 L2.25 -0.8 Q6.2 -0.5 9.7 1.1 L9.65 1.25 9.85 1.5 9.9 1.6 Q9.6 5.2 7.35 8.3 L7.35 8.5 7.35 8.7 7.2 8.95 6.95 9.25 1.8 5.5 Q-1.4 3.15 0.1 -0.25 L0.45 -0.4 M10.85 1.65 L13.5 3.25 Q13.75 5.0 13.1 6.85 12.15 9.45 10.2 11.15 L10.15 11.15 10.15 11.2 10.1 11.25 9.9 11.25 9.9 11.3 7.25 9.45 7.05 9.3 7.25 9.25 7.45 9.05 8.15 8.9 8.3 8.8 Q11.05 5.5 10.85 1.65" fill="#666666" fill-rule="evenodd" stroke="none"/>
  </g>
</svg>
