<?xml version="1.0" encoding="UTF-8" standalone="no"?>
<svg xmlns:xlink="http://www.w3.org/1999/xlink" height="12.4px" width="31.35px" xmlns="http://www.w3.org/2000/svg">
  <g transform="matrix(1.0, 0.0, 0.0, 1.0, 2.85, 4.35)">
    <path d="M2.85 -4.35 Q10.35 -4.0 17.75 -2.5 L19.95 -1.75 23.4 -2.05 Q28.35 -1.3 28.5 2.75 28.6 5.9 25.6 7.6 L24.15 8.0 21.35 7.75 19.15 7.9 15.35 7.6 12.4 7.3 12.25 7.3 Q9.2 6.9 6.2 6.1 L1.95 4.65 Q-0.8 3.5 -2.25 1.25 L-2.5 0.9 -2.85 -0.35 -2.85 -0.5 -2.85 -1.45 -2.6 -2.25 -2.65 -2.4 -2.65 -2.5 -2.65 -2.7 -0.95 -3.75 0.4 -4.15 2.85 -4.35 M0.65 -2.65 L-0.15 -2.4 -1.0 -2.0 Q-1.85 0.0 0.15 1.7 2.9 4.1 6.9 4.9 L7.55 5.05 Q9.75 1.6 8.85 -2.65 4.7 -2.95 0.65 -2.65 M14.4 -1.95 Q16.0 2.45 13.45 6.2 16.6 6.55 19.75 6.15 L22.25 6.4 22.65 6.8 Q24.5 6.9 25.65 5.7 L26.4 4.55 Q27.6 1.8 24.9 -0.2 L24.25 -0.4 19.75 -0.65 Q19.45 -0.7 19.25 -0.85 L17.55 -1.2 16.15 -1.6 14.4 -1.95 M9.85 -2.55 Q10.85 1.6 8.65 5.25 L11.3 5.85 12.45 6.0 Q14.75 2.2 13.35 -2.1 L9.85 -2.55" fill="#000000" fill-rule="evenodd" stroke="none"/>
    <path d="M14.4 -1.95 L16.15 -1.6 17.55 -1.2 19.25 -0.85 Q19.45 -0.7 19.75 -0.65 L24.25 -0.4 24.9 -0.2 Q27.6 1.8 26.4 4.55 L25.65 5.7 Q24.5 6.9 22.65 6.8 L22.25 6.4 19.75 6.15 Q16.6 6.55 13.45 6.2 16.0 2.45 14.4 -1.95" fill="#333333" fill-rule="evenodd" stroke="none"/>
    <path d="M0.65 -2.65 Q4.7 -2.95 8.85 -2.65 9.75 1.6 7.55 5.05 L6.9 4.9 Q2.9 4.1 0.15 1.7 -1.85 0.0 -1.0 -2.0 L-0.15 -2.4 0.65 -2.65 M9.85 -2.55 L13.35 -2.1 Q14.75 2.2 12.45 6.0 L11.3 5.85 8.65 5.25 Q10.85 1.6 9.85 -2.55" fill="#666666" fill-rule="evenodd" stroke="none"/>
  </g>
</svg>
