<?xml version="1.0" encoding="UTF-8" standalone="no"?>
<svg xmlns:xlink="http://www.w3.org/1999/xlink" height="115.85px" width="104.0px" xmlns="http://www.w3.org/2000/svg">
  <g transform="matrix(1.0, 0.0, 0.0, 1.0, 51.0, 108.5)">
    <path d="M12.65 -93.3 Q8.1 -95.85 4.1 -99.3 L3.7 -99.15 2.2 -98.1 2.25 -97.95 2.25 -97.85 2.3 -97.15 1.8 -96.75 1.45 -95.25 Q0.65 -92.85 0.65 -90.3 L-1.45 -88.55 Q-7.4 -84.25 -11.6 -78.1 L-11.1 -71.05 -10.5 -66.2 -10.5 -66.15 -10.55 -65.35 -10.4 -65.4 -10.25 -65.5 -9.8 -65.6 -9.0 -64.85 Q-7.35 -59.9 -6.15 -54.75 L-6.1 -54.2 -3.6 -54.95 -2.95 -55.75 -2.45 -56.35 Q1.05 -57.2 4.15 -59.15 L5.15 -58.45 Q3.6 -54.6 -1.55 -53.5 -2.75 -51.65 -4.9 -51.15 L-4.95 -50.5 -3.55 -49.35 -2.75 -48.65 -2.35 -47.15 -2.1 -46.3 -0.2 -44.05 -0.15 -43.3 -0.1 -42.5 Q4.9 -35.0 11.25 -29.05 L10.85 -27.45 10.65 -26.85 Q-0.4 -27.85 -8.95 -36.55 L-9.0 -36.6 Q-10.4 -42.75 -9.2 -48.9 -10.2 -49.55 -10.9 -50.7 L-11.3 -52.2 Q-11.75 -42.15 -11.7 -32.05 -11.7 -22.1 -11.2 -12.15 2.85 -3.55 18.8 -0.8 L19.65 -2.2 19.85 -2.6 22.95 -2.8 27.6 -3.35 Q28.4 -3.45 29.1 -4.15 L29.2 -4.95 29.1 -8.1 28.4 -9.05 28.0 -9.6 Q28.05 -10.9 27.75 -12.0 26.55 -16.7 24.85 -21.1 25.95 -24.1 26.4 -27.2 L26.65 -25.6 Q26.65 -24.8 26.9 -23.95 27.1 -16.6 29.5 -9.95 L30.75 -10.05 Q32.6 -11.45 33.55 -13.4 L33.45 -14.2 33.15 -16.0 Q32.9 -18.2 33.3 -20.25 L33.35 -20.55 34.2 -23.35 34.4 -23.75 34.35 -24.55 34.3 -25.35 39.05 -31.45 41.8 -35.2 41.75 -34.85 41.55 -33.25 39.65 -31.55 Q37.95 -26.3 36.7 -20.9 36.4 -19.85 36.45 -18.6 L36.0 -17.8 35.55 -17.0 Q35.5 -16.6 35.6 -16.3 L36.15 -15.45 36.35 -14.65 36.3 -13.1 37.1 -12.35 37.35 -11.55 37.5 -10.0 38.3 -9.25 38.8 -6.65 39.55 -4.05 39.6 -3.95 Q40.05 -2.6 39.3 -1.4 L38.55 -1.65 37.6 -0.55 38.5 -0.6 Q40.65 -2.55 44.0 -2.25 L46.05 -1.75 46.35 -1.5 45.8 -0.45 52.6 0.3 52.85 0.5 53.0 0.9 52.95 1.25 52.75 1.85 Q36.3 3.0 20.0 2.1 L19.0 1.75 18.9 1.5 19.35 1.1 Q14.2 0.3 9.0 -1.5 7.15 -1.45 5.5 0.2 L4.85 0.95 Q-1.2 -2.8 -8.1 -6.3 L-8.6 -6.35 Q-14.2 -7.0 -15.75 -12.35 L-16.3 -13.1 -17.1 -13.85 -17.1 -14.65 -19.6 -18.65 -20.4 -18.9 -30.95 -11.55 -31.2 -11.35 Q-32.6 -9.8 -34.3 -8.7 L-34.3 -7.1 -34.1 -5.55 -30.7 -4.2 -30.5 -4.25 Q-29.95 -4.1 -29.6 -3.75 L-26.8 -2.6 -26.25 -2.65 -22.9 -2.05 Q-21.3 -1.4 -19.5 -1.45 -18.45 -1.5 -18.25 -0.5 L-15.55 -0.65 -15.2 -0.7 Q-10.7 -0.85 -6.35 -0.5 L1.25 0.6 -5.75 1.55 -6.05 1.55 -12.4 2.0 -26.75 2.65 -35.65 3.5 -44.0 4.3 -50.6 3.9 -51.0 3.5 Q-46.1 0.85 -39.25 1.6 L-39.15 0.1 -39.0 -0.25 Q-37.8 -0.8 -36.7 -1.5 L-41.7 -1.7 -42.9 -2.0 Q-43.8 -3.0 -43.75 -4.35 L-43.65 -5.95 -41.85 -8.55 -41.35 -9.25 Q-38.95 -19.25 -35.2 -28.8 L-33.95 -31.85 -33.55 -32.8 -32.9 -34.4 -39.9 -47.0 -41.35 -49.8 Q-41.7 -50.45 -41.7 -51.2 L-40.7 -52.25 -40.6 -53.65 Q-39.15 -55.95 -37.35 -57.85 L-37.2 -58.7 -37.0 -60.25 -35.45 -62.45 Q-36.7 -56.35 -38.4 -50.4 L-38.35 -49.6 -38.3 -48.8 -38.25 -48.05 Q-33.9 -42.05 -28.8 -36.8 L-28.75 -35.25 -28.85 -33.65 -29.25 -32.75 Q-29.45 -31.45 -30.4 -30.35 L-30.35 -29.55 -30.3 -28.75 -30.75 -27.95 -31.2 -27.15 -31.15 -25.6 -31.25 -23.95 -31.65 -23.05 Q-31.85 -21.8 -32.8 -20.65 L-32.75 -19.9 -32.7 -19.1 -33.35 -17.45 -33.5 -15.9 Q-32.6 -15.6 -32.05 -15.9 -24.0 -20.65 -16.65 -26.55 -14.65 -25.9 -13.15 -27.3 -12.65 -29.65 -12.7 -32.0 -12.75 -34.4 -13.35 -36.85 -13.9 -38.8 -13.7 -40.65 -12.85 -49.05 -14.6 -57.2 -17.05 -68.9 -13.95 -79.1 L-13.1 -81.6 Q-8.9 -86.75 -6.7 -92.45 L-7.25 -92.25 Q-10.15 -88.35 -13.15 -85.8 L-13.6 -85.9 Q-13.9 -85.55 -14.35 -85.3 L-15.75 -84.7 -15.65 -85.45 Q-14.7 -87.8 -14.5 -89.8 L-14.45 -90.65 Q-6.6 -98.05 -1.45 -107.85 L0.05 -108.4 0.05 -108.5 1.05 -108.45 2.3 -108.15 7.15 -102.45 Q12.85 -96.05 19.1 -90.25 L18.7 -90.4 Q15.6 -91.65 12.65 -93.3 M33.05 -49.05 L35.0 -49.35 35.55 -45.5 35.1 -44.75 34.25 -43.4 30.3 -36.95 29.6 -38.95 Q29.1 -40.15 29.05 -41.35 L29.9 -43.8 Q30.7 -46.1 30.35 -48.55 L33.05 -49.05 M35.5 -5.75 L36.25 -5.75 36.25 -5.95 35.5 -5.75 M12.1 5.6 Q7.9 8.1 3.05 6.2 L3.0 6.0 3.05 5.65 Q4.1 4.0 6.0 3.85 9.2 2.75 11.5 4.6 L12.1 5.6 M4.25 1.85 Q3.55 3.0 3.7 4.1 -1.65 3.45 -7.4 4.05 -7.8 3.3 -8.5 3.0 L-5.3 3.05 Q-1.7 2.8 1.9 1.7 L4.25 1.85 M-16.2 -89.1 L-15.35 -89.85 -15.3 -89.85 -16.2 -89.1 M-18.95 -86.85 L-19.5 -86.4 -19.5 -86.25 -19.6 -86.3 -20.8 -85.4 -21.05 -84.65 -21.75 -82.85 -22.5 -82.75 -21.3 -85.1 -18.95 -86.85 M-25.4 -6.1 L-26.15 -6.35 -26.95 -7.1 Q-29.2 -6.75 -30.5 -8.4 L-30.4 -9.2 -29.9 -10.6 -26.0 -11.95 -24.45 -11.75 -23.9 -11.2 -23.7 -11.0 -23.7 -10.95 -23.35 -10.25 -23.9 -9.55 -24.55 -8.95 -24.8 -8.8 -23.9 -8.55 -13.7 -3.85 -12.6 -3.2 -11.6 -2.6 Q-18.35 -3.45 -25.4 -6.1 M-14.45 5.95 L-15.0 6.6 Q-17.95 7.4 -21.0 7.35 L-25.75 6.85 -25.95 6.45 -26.1 5.75 -26.0 5.0 -25.7 4.7 Q-24.7 4.0 -23.55 3.8 L-23.5 3.75 Q-18.1 2.4 -14.35 5.35 L-14.25 5.6 -14.45 5.95" fill="#66ccff" fill-rule="evenodd" stroke="none"/>
    <path d="M-10.5 -66.15 L-10.5 -66.2 -11.1 -71.05 -11.6 -78.1 Q-7.4 -84.25 -1.45 -88.55 L0.65 -90.3 Q0.65 -92.85 1.45 -95.25 L1.8 -96.75 2.3 -97.15 2.25 -97.85 2.25 -97.95 2.2 -98.1 3.7 -99.15 4.1 -99.3 Q8.1 -95.85 12.65 -93.3 L12.55 -93.2 12.05 -92.7 11.75 -91.9 10.8 -88.35 11.75 -70.65 12.55 -60.25 Q14.6 -54.0 17.35 -47.9 L17.5 -46.35 17.8 -44.8 Q19.05 -43.55 20.9 -43.4 L21.25 -42.7 Q27.6 -31.65 33.3 -20.25 32.9 -18.2 33.15 -16.0 L33.45 -14.2 33.55 -13.4 Q32.6 -11.45 30.75 -10.05 L29.5 -9.95 Q27.1 -16.6 26.9 -23.95 26.65 -24.8 26.65 -25.6 L26.4 -27.2 Q25.95 -24.1 24.85 -21.1 26.55 -16.7 27.75 -12.0 28.05 -10.9 28.0 -9.6 L28.4 -9.05 29.1 -8.1 29.2 -4.95 29.1 -4.15 Q28.4 -3.45 27.6 -3.35 L22.95 -2.8 19.85 -2.6 18.45 -2.6 Q16.25 -6.95 16.3 -12.0 L16.2 -14.05 Q4.7 -18.95 -6.1 -25.65 L-9.0 -33.7 -8.95 -36.55 Q-0.4 -27.85 10.65 -26.85 L10.85 -27.45 11.25 -29.05 Q4.9 -35.0 -0.1 -42.5 L-0.15 -43.3 -0.2 -44.05 -2.1 -46.3 -2.35 -47.15 -2.75 -48.65 -3.55 -49.35 -4.95 -50.5 -4.9 -51.15 Q-2.75 -51.65 -1.55 -53.5 3.6 -54.6 5.15 -58.45 L4.15 -59.15 Q1.05 -57.2 -2.45 -56.35 L-2.95 -55.75 -3.6 -54.95 -6.1 -54.2 -6.15 -54.75 Q-7.35 -59.9 -9.0 -64.85 L-9.8 -65.6 -10.25 -65.5 -10.4 -65.4 -10.5 -66.15 M-14.5 -89.8 Q-14.7 -87.8 -15.65 -85.45 L-15.75 -84.7 -14.35 -85.3 Q-13.9 -85.55 -13.6 -85.9 L-13.15 -85.8 Q-10.15 -88.35 -7.25 -92.25 L-6.7 -92.45 Q-8.9 -86.75 -13.1 -81.6 L-13.95 -79.1 Q-17.05 -68.9 -14.6 -57.2 -12.85 -49.05 -13.7 -40.65 -13.9 -38.8 -13.35 -36.85 -12.75 -34.4 -12.7 -32.0 -12.65 -29.65 -13.15 -27.3 -14.65 -25.9 -16.65 -26.55 -24.0 -20.65 -32.05 -15.9 -32.6 -15.6 -33.5 -15.9 L-33.35 -17.45 -32.7 -19.1 -32.75 -19.9 -32.8 -20.65 Q-31.85 -21.8 -31.65 -23.05 L-31.25 -23.95 -31.15 -25.6 -31.2 -27.15 -30.75 -27.95 -30.3 -28.75 -30.35 -29.55 -30.4 -30.35 Q-29.45 -31.45 -29.25 -32.75 L-28.85 -33.65 -28.75 -35.25 -28.8 -36.8 Q-33.9 -42.05 -38.25 -48.05 L-38.3 -48.8 -38.35 -49.6 -38.4 -50.4 Q-36.7 -56.35 -35.45 -62.45 L-34.4 -63.9 -35.1 -61.7 -33.05 -60.55 -32.1 -60.95 -31.6 -61.4 -31.3 -62.2 Q-23.65 -76.55 -14.5 -89.8 M41.8 -35.2 L39.05 -31.45 Q37.1 -37.65 34.25 -43.4 L35.1 -44.75 35.55 -45.5 35.0 -49.35 33.05 -49.05 Q29.45 -52.2 25.65 -55.0 L24.95 -61.4 Q22.25 -63.8 19.95 -66.6 L21.1 -68.25 Q21.15 -70.05 22.0 -71.65 L22.1 -72.3 23.35 -74.15 21.3 -87.3 21.55 -88.05 27.75 -82.75 27.6 -82.95 29.0 -81.8 29.05 -81.75 29.25 -81.75 30.05 -81.0 30.05 -80.95 32.05 -79.4 32.65 -79.0 33.35 -77.9 Q39.4 -61.25 42.8 -43.6 L43.75 -38.15 42.75 -36.6 41.9 -35.65 41.9 -35.6 41.85 -35.2 41.8 -35.2 M29.3 -77.0 L28.3 -77.25 24.15 -68.7 23.85 -67.9 33.1 -60.4 33.05 -60.9 33.5 -60.75 34.55 -61.5 34.25 -62.3 Q31.15 -69.55 29.3 -77.0 M29.25 -73.8 L29.4 -74.0 Q29.85 -71.05 29.6 -68.05 L29.6 -68.3 29.25 -73.8 M-21.15 -54.75 L-21.6 -54.65 -22.6 -54.15 -22.55 -53.35 Q-21.9 -46.2 -21.9 -39.1 L-21.1 -37.6 -21.35 -36.8 -21.4 -34.4 -24.3 -33.4 Q-26.1 -31.75 -27.1 -29.55 L-27.05 -28.75 -26.9 -26.35 -24.8 -25.2 -23.15 -26.65 -23.0 -27.5 -23.0 -28.25 Q-19.1 -29.45 -17.25 -32.85 -17.15 -37.3 -19.75 -40.6 L-19.75 -41.4 Q-19.85 -48.35 -21.15 -54.75" fill="#b9ebff" fill-rule="evenodd" stroke="none"/>
    <path d="M12.65 -93.3 Q15.6 -91.65 18.7 -90.4 L19.1 -90.25 20.4 -89.1 20.45 -89.05 21.05 -88.6 21.1 -88.45 21.55 -88.05 21.3 -87.3 23.35 -74.15 22.1 -72.3 22.0 -71.65 Q21.15 -70.05 21.1 -68.25 L19.95 -66.6 Q22.25 -63.8 24.95 -61.4 L25.65 -55.0 Q29.45 -52.2 33.05 -49.05 L30.35 -48.55 Q30.7 -46.1 29.9 -43.8 L29.05 -41.35 Q29.1 -40.15 29.6 -38.95 L30.3 -36.95 34.25 -43.4 Q37.1 -37.65 39.05 -31.45 L34.3 -25.35 34.35 -24.55 34.4 -23.75 34.2 -23.35 33.35 -20.55 33.3 -20.25 Q27.6 -31.65 21.25 -42.7 L20.9 -43.4 Q19.05 -43.55 17.8 -44.8 L17.5 -46.35 17.35 -47.9 Q14.6 -54.0 12.55 -60.25 L11.75 -70.65 10.8 -88.35 11.75 -91.9 12.05 -92.7 12.55 -93.2 12.65 -93.3 M-14.45 -90.65 L-14.5 -89.8 Q-23.65 -76.55 -31.3 -62.2 L-31.6 -61.4 -32.1 -60.95 -33.05 -60.55 -35.1 -61.7 -34.4 -63.9 Q-30.55 -69.55 -26.95 -75.3 L-22.5 -82.75 -21.75 -82.85 -21.05 -84.65 -20.8 -85.4 -19.6 -86.3 -19.5 -86.25 -19.5 -86.4 -18.95 -86.85 -16.2 -89.1 -15.3 -89.85 -14.65 -90.5 -14.45 -90.65 M29.3 -77.0 Q31.15 -69.55 34.25 -62.3 L34.55 -61.5 33.5 -60.75 33.05 -60.9 33.1 -60.4 23.85 -67.9 24.15 -68.7 28.3 -77.25 29.3 -77.0 M29.25 -73.8 L29.6 -68.3 29.6 -68.05 Q29.85 -71.05 29.4 -74.0 L29.25 -73.8 M-21.15 -54.75 Q-19.85 -48.35 -19.75 -41.4 L-19.75 -40.6 Q-17.15 -37.3 -17.25 -32.85 -19.1 -29.45 -23.0 -28.25 L-23.0 -27.5 -23.15 -26.65 -24.8 -25.2 -26.9 -26.35 -27.05 -28.75 -27.1 -29.55 Q-26.1 -31.75 -24.3 -33.4 L-21.4 -34.4 -21.35 -36.8 -21.1 -37.6 -21.9 -39.1 Q-21.9 -46.2 -22.55 -53.35 L-22.6 -54.15 -21.6 -54.65 -21.15 -54.75" fill="#ffffff" fill-rule="evenodd" stroke="none"/>
    <path d="M-5.75 1.55 L1.25 0.6 -6.35 -0.5 -8.6 -6.35 -8.1 -6.3 Q-1.2 -2.8 4.85 0.95 L4.25 1.85 1.9 1.7 Q-1.7 2.8 -5.3 3.05 L-5.75 1.55 M-15.2 -0.7 L-15.55 -0.65 -15.85 -2.3 -15.6 -2.35 -15.2 -0.7 M-26.25 -2.65 L-26.8 -2.6 -29.6 -3.75 Q-29.95 -4.1 -30.5 -4.25 L-30.7 -4.2 -34.1 -5.55 -34.3 -7.1 -34.3 -8.7 Q-32.6 -9.8 -31.2 -11.35 L-30.95 -11.55 -20.4 -18.9 -19.6 -18.65 -20.35 -18.9 Q-22.2 -16.75 -23.0 -14.0 L-23.9 -11.2 -24.45 -11.75 -26.0 -11.95 -29.9 -10.6 -30.4 -9.2 -30.5 -8.4 Q-29.2 -6.75 -26.95 -7.1 L-26.15 -6.35 -25.4 -6.1 -26.25 -2.65 M19.85 -2.6 L19.65 -2.2 18.8 -0.8 Q2.85 -3.55 -11.2 -12.15 -11.7 -22.1 -11.7 -32.05 -11.75 -42.15 -11.3 -52.2 L-10.9 -50.7 Q-10.2 -49.55 -9.2 -48.9 -10.4 -42.75 -9.0 -36.6 L-8.95 -36.55 -9.0 -33.7 -6.1 -25.65 Q4.7 -18.95 16.2 -14.05 L16.3 -12.0 Q16.25 -6.95 18.45 -2.6 L19.85 -2.6 M-10.4 -65.4 L-10.55 -65.35 -10.5 -66.15 -10.4 -65.4 M-24.55 -8.95 L-24.65 -8.8 -23.9 -8.55 -24.8 -8.8 -24.55 -8.95" fill="#01aef8" fill-rule="evenodd" stroke="none"/>
    <path d="M-12.4 2.0 L-6.05 1.55 -5.75 1.55 -5.3 3.05 -8.5 3.0 -8.7 2.95 -12.4 2.0 M-6.35 -0.5 Q-10.7 -0.85 -15.2 -0.7 L-15.6 -2.35 -15.85 -2.3 -15.55 -0.65 -18.25 -0.5 Q-18.45 -1.5 -19.5 -1.45 -21.3 -1.4 -22.9 -2.05 L-26.25 -2.65 -25.4 -6.1 Q-18.35 -3.45 -11.6 -2.6 L-12.6 -3.2 -13.7 -3.85 -23.9 -8.55 -24.65 -8.8 -24.55 -8.95 -23.9 -9.55 -23.35 -10.25 -23.7 -10.95 -23.7 -11.0 -23.9 -11.2 -23.0 -14.0 Q-22.2 -16.75 -20.35 -18.9 L-19.6 -18.65 -17.1 -14.65 -17.1 -13.85 -16.3 -13.1 -15.75 -12.35 Q-14.2 -7.0 -8.6 -6.35 L-6.35 -0.5" fill="#01a3d8" fill-rule="evenodd" stroke="none"/>
  </g>
</svg>
