<?xml version="1.0" encoding="UTF-8" standalone="no"?>
<svg xmlns:xlink="http://www.w3.org/1999/xlink" height="20.8px" width="52.8px" xmlns="http://www.w3.org/2000/svg">
  <g transform="matrix(1.0, 0.0, 0.0, 1.0, 29.0, 10.6)">
    <path d="M8.8 -2.65 L0.1 -2.65 0.1 -1.55 -1.7 -1.25 -4.05 0.6 -4.4 2.4 -4.05 2.9 -3.9 2.95 -2.5 5.4 -1.45 6.8 Q-0.95 7.45 -0.85 8.15 L-0.85 8.45 -0.55 8.85 -0.7 8.85 -0.55 9.55 -0.55 9.75 Q-0.9 10.1 -1.3 10.2 L-27.8 10.2 -28.1 10.1 -29.0 10.15 -28.75 7.25 -28.25 6.15 -27.1 3.25 Q-26.7 2.7 -26.4 1.95 L-25.65 0.15 -25.6 -0.4 -22.45 -6.95 -22.35 -6.95 -22.0 -7.4 -21.15 -8.1 Q-19.25 -9.6 -16.8 -10.45 L-16.3 -10.6 -0.6 -10.25 0.8 -10.1 2.2 -10.2 4.85 -9.35 11.3 -9.85 Q16.55 -9.95 21.15 -8.15 L21.15 -7.9 Q24.35 -6.1 23.7 -1.35 23.4 0.85 21.15 0.35 18.6 -0.3 16.15 0.4 11.7 1.6 8.9 -1.3 8.7 -2.05 8.8 -2.65 M-25.55 4.5 Q-19.15 3.05 -12.6 3.3 L-14.15 1.35 -14.05 -1.6 -12.85 -2.75 -18.95 -2.05 -19.05 -2.05 -22.45 -1.7 -25.6 4.05 -25.7 4.5 -25.55 4.5 M-10.55 -2.95 Q-12.1 -2.5 -12.6 -1.4 L-12.65 -1.2 -12.8 -1.1 -12.8 -0.75 -12.85 0.2 -12.8 0.65 -12.8 0.75 -12.75 0.8 Q-12.4 2.4 -10.75 3.05 L-10.15 3.2 Q-7.35 3.9 -5.5 1.85 L-5.5 1.8 -5.05 1.2 Q-4.55 0.2 -5.0 -1.1 L-5.7 -2.1 Q-7.4 -3.45 -9.65 -3.2 L-10.55 -2.95 M-8.0 5.0 L-8.95 4.9 Q-10.45 4.75 -11.75 3.95 -18.75 5.55 -26.0 5.15 L-26.45 7.85 -26.45 7.9 -25.8 7.65 -2.6 8.4 -3.65 7.4 -3.75 6.65 -5.8 4.05 -6.45 4.55 -7.2 4.9 -8.0 5.0" fill="#000000" fill-rule="evenodd" stroke="none"/>
    <path d="M-10.55 -2.95 L-9.65 -3.2 Q-7.4 -3.45 -5.7 -2.1 L-5.0 -1.1 Q-4.55 0.2 -5.05 1.2 L-5.5 1.8 -5.5 1.85 Q-7.35 3.9 -10.15 3.2 L-10.75 3.05 Q-12.4 2.4 -12.75 0.8 L-12.8 0.75 -12.8 0.65 -12.85 0.2 -12.8 -0.75 -12.8 -1.1 -12.65 -1.2 -12.6 -1.4 Q-12.1 -2.5 -10.55 -2.95 M-25.6 4.05 L-22.45 -1.7 -19.05 -2.05 -18.95 -2.05 -12.85 -2.75 -14.05 -1.6 -14.15 1.35 -12.6 3.3 Q-19.15 3.05 -25.55 4.5 L-25.6 4.05 M-8.0 5.0 L-7.2 4.9 -6.45 4.55 -5.8 4.05 -3.75 6.65 -3.65 7.4 -2.6 8.4 -25.8 7.65 -26.45 7.9 -26.45 7.85 -26.0 5.15 Q-18.75 5.55 -11.75 3.95 -10.45 4.75 -8.95 4.9 L-8.0 5.0" fill="#666666" fill-rule="evenodd" stroke="none"/>
  </g>
</svg>
