<?xml version="1.0" encoding="UTF-8" standalone="no"?>
<svg xmlns:xlink="http://www.w3.org/1999/xlink" height="14.7px" width="28.45px" xmlns="http://www.w3.org/2000/svg">
  <g transform="matrix(1.0, 0.0, 0.0, 1.0, 17.05, 3.85)">
    <path d="M2.5 -3.8 L2.65 -3.75 3.55 -3.85 5.1 -3.4 5.45 -3.55 7.05 -1.8 7.55 -0.9 7.85 -0.15 7.95 0.75 7.55 3.05 7.9 3.55 8.05 3.6 9.45 6.05 10.5 7.45 Q11.0 8.1 11.1 8.8 L11.1 9.1 11.4 9.5 11.25 9.5 11.4 10.2 11.4 10.4 10.65 10.85 -15.85 10.85 -16.15 10.75 -17.05 10.8 -16.65 6.25 -16.2 4.7 Q-15.0 4.05 -14.45 2.6 -13.45 0.0 -12.0 -2.35 -11.5 -3.15 -10.65 -3.25 -6.65 -4.1 -2.6 -3.4 L-1.7 -3.5 0.9 -3.15 2.5 -3.8 M-13.6 5.15 Q-7.2 3.7 -0.65 3.95 L-2.2 2.0 -2.1 -0.95 -0.9 -2.1 -10.5 -1.05 -13.65 4.7 -13.75 5.15 -13.6 5.15 M6.15 4.7 L5.5 5.2 4.75 5.55 3.95 5.65 3.0 5.55 Q1.5 5.4 0.2 4.6 -6.8 6.2 -14.05 5.8 L-14.5 8.5 -14.5 8.55 -13.85 8.3 9.35 9.05 8.3 8.05 8.2 7.3 6.15 4.7 M2.3 -2.55 L1.4 -2.3 Q-0.25 -1.8 -0.7 -0.55 L-0.85 -0.45 -0.85 -0.1 -0.9 0.85 -0.85 1.3 -0.85 1.4 -0.8 1.45 Q-0.45 3.05 1.2 3.7 L1.8 3.85 Q4.6 4.55 6.45 2.5 L6.45 2.45 Q7.5 1.25 6.95 -0.45 L6.25 -1.45 Q4.55 -2.8 2.3 -2.55" fill="#000000" fill-rule="evenodd" stroke="none"/>
    <path d="M2.3 -2.55 Q4.55 -2.8 6.25 -1.45 L6.95 -0.45 Q7.5 1.25 6.45 2.45 L6.45 2.5 Q4.6 4.55 1.8 3.85 L1.2 3.7 Q-0.45 3.05 -0.8 1.45 L-0.85 1.4 -0.85 1.3 -0.9 0.85 -0.85 -0.1 -0.85 -0.45 -0.7 -0.55 Q-0.25 -1.8 1.4 -2.3 L2.3 -2.55 M6.15 4.7 L8.2 7.3 8.3 8.05 9.35 9.05 -13.85 8.3 -14.5 8.55 -14.5 8.5 -14.05 5.8 Q-6.8 6.2 0.2 4.6 1.5 5.4 3.0 5.55 L3.95 5.65 4.75 5.55 5.5 5.2 6.15 4.7 M-13.65 4.7 L-10.5 -1.05 -0.9 -2.1 -2.1 -0.95 -2.2 2.0 -0.65 3.95 Q-7.2 3.7 -13.6 5.15 L-13.65 4.7" fill="#666666" fill-rule="evenodd" stroke="none"/>
  </g>
</svg>
