<?xml version="1.0" encoding="UTF-8" standalone="no"?>
<svg xmlns:xlink="http://www.w3.org/1999/xlink" height="82.6px" width="85.3px" xmlns="http://www.w3.org/2000/svg">
  <g transform="matrix(1.0, 0.0, 0.0, 1.0, 35.05, 62.3)">
    <path d="M33.85 -55.95 Q36.15 -55.0 38.25 -53.7 L37.65 -54.2 41.6 -52.2 Q46.5 -48.55 48.85 -42.8 49.75 -40.6 50.0 -38.15 50.9 -30.2 48.3 -22.95 L47.75 -22.4 47.55 -22.3 47.65 -23.6 Q43.35 -13.15 34.65 -5.7 L34.65 -5.75 34.0 -4.8 32.05 -4.45 31.95 0.15 31.4 0.95 31.5 1.8 30.55 2.9 29.25 2.9 Q28.4 5.55 28.0 8.2 27.8 9.75 27.95 11.2 L28.25 13.15 28.25 14.0 Q11.5 22.8 -7.15 19.35 -15.6 17.85 -23.9 15.35 L-24.4 15.1 -24.4 13.45 -23.95 13.05 -22.65 7.95 -23.3 7.4 Q-23.3 5.6 -22.1 4.2 -21.35 3.3 -21.55 2.05 L-21.65 0.9 -22.35 0.3 -21.9 -0.8 Q-29.9 -9.15 -33.3 -20.85 -35.8 -29.35 -34.7 -38.8 -34.25 -42.6 -33.25 -46.15 L-32.15 -50.55 Q-14.45 -63.9 7.7 -62.05 21.4 -61.45 33.85 -55.95 M48.0 -25.45 L48.25 -27.5 Q49.1 -34.4 48.8 -41.25 L48.25 -42.05 48.25 -43.7 Q44.5 -47.6 40.25 -50.75 L35.95 -53.6 Q30.25 -57.0 23.65 -58.5 9.65 -61.25 -4.8 -60.15 -20.2 -59.35 -31.95 -49.25 L-31.65 -48.9 Q-34.75 -36.55 -32.9 -24.25 L-27.65 -23.0 -27.3 -22.7 Q-25.9 -24.6 -24.15 -26.15 -15.1 -34.35 -4.8 -40.55 L-1.15 -40.3 24.75 -38.2 24.8 -43.55 25.65 -38.1 Q35.25 -37.8 44.4 -34.8 L47.9 -25.4 47.95 -25.25 48.0 -25.45 M-32.9 -24.25 L-32.9 -24.2 -32.9 -24.25 M23.3 -44.8 L23.15 -43.15 Q13.45 -46.55 3.45 -48.5 0.25 -49.25 -2.2 -50.7 L1.0 -50.25 Q12.45 -48.55 23.3 -44.8 M39.55 -45.6 L36.65 -45.2 Q31.9 -44.6 27.7 -42.35 L27.8 -43.55 29.8 -44.6 Q34.7 -47.55 39.55 -45.6 M25.55 -25.6 Q25.55 -31.25 24.9 -36.8 L4.3 -39.3 -2.35 -38.95 Q-1.15 -33.95 -1.0 -28.6 L-0.35 -23.05 Q0.15 -20.5 0.0 -17.8 0.15 -16.95 1.3 -17.6 L24.2 -15.1 Q25.5 -20.15 25.55 -25.6 M33.35 -5.7 L33.15 -6.0 Q41.8 -14.2 47.25 -24.9 45.15 -28.7 43.5 -32.7 43.35 -29.7 41.65 -26.7 38.15 -20.7 36.05 -14.1 35.95 -13.6 36.35 -13.1 L35.8 -12.55 24.75 -14.1 24.2 -11.6 Q23.75 -9.65 22.9 -7.8 L22.45 -7.0 Q21.55 -6.2 20.55 -5.9 22.7 -9.9 23.95 -14.15 L18.8 -14.6 16.15 -14.9 -0.25 -15.85 Q-2.2 -27.05 -3.15 -38.4 L-3.25 -38.7 -5.15 -38.05 -7.55 -36.9 Q-19.0 -30.6 -27.15 -20.8 L-27.75 -20.95 -28.1 -21.25 -27.6 -22.15 Q-31.2 -21.25 -32.7 -23.55 -29.6 -12.6 -22.25 -3.4 L-20.9 -1.6 Q-17.7 -4.25 -15.05 -7.65 L-14.65 -8.05 Q-16.85 -12.55 -21.05 -15.75 L-21.25 -16.3 -21.2 -16.55 -21.1 -16.65 -20.8 -16.7 -20.7 -16.7 Q-16.05 -13.15 -12.5 -8.75 L-12.3 -8.45 Q2.75 -5.55 18.1 -4.55 25.85 -4.05 33.4 -5.4 L33.7 -5.45 33.35 -5.7 M30.55 -3.85 L30.75 -4.25 30.55 -4.2 Q11.55 -1.55 -6.9 -6.65 L-12.3 -8.15 -16.1 -3.7 -20.35 0.6 Q-16.5 2.25 -12.0 3.1 L-2.5 4.5 26.45 6.05 27.95 2.85 Q8.0 2.75 -11.55 -1.4 -12.0 -1.45 -12.35 -1.75 8.55 0.95 29.6 1.1 L30.25 -0.2 30.5 -1.8 30.55 -3.4 30.55 -3.85 M24.9 -15.05 L34.85 -14.3 42.8 -33.9 Q42.1 -34.6 40.95 -34.75 L25.8 -36.7 Q26.85 -25.9 24.9 -15.05 M-20.0 2.9 L-20.0 3.5 -20.1 3.95 -20.35 4.45 Q-21.05 5.15 -21.1 6.05 L-20.7 6.45 -20.8 7.0 -20.45 7.3 Q2.1 17.1 25.9 10.4 L26.1 8.25 23.05 8.5 Q1.45 6.75 -20.0 2.9 M-21.25 8.95 L-22.2 13.85 -16.65 15.3 Q4.65 20.65 25.75 13.7 L25.95 12.4 Q1.65 19.0 -21.25 8.95" fill="#000000" fill-rule="evenodd" stroke="none"/>
    <path d="M-32.9 -24.25 Q-34.75 -36.55 -31.65 -48.9 L-31.95 -49.25 Q-20.2 -59.35 -4.8 -60.15 9.65 -61.25 23.65 -58.5 30.25 -57.0 35.95 -53.6 L40.25 -50.75 Q44.5 -47.6 48.25 -43.7 L48.25 -42.05 48.8 -41.25 Q49.1 -34.4 48.25 -27.5 L48.0 -25.45 47.9 -25.4 44.4 -34.8 Q35.25 -37.8 25.65 -38.1 L24.8 -43.55 24.75 -38.2 -1.15 -40.3 -4.8 -40.55 Q-15.1 -34.35 -24.15 -26.15 -25.9 -24.6 -27.3 -22.7 L-27.65 -23.0 -32.9 -24.25 M39.55 -45.6 Q34.7 -47.55 29.8 -44.6 L27.8 -43.55 27.7 -42.35 Q31.9 -44.6 36.65 -45.2 L39.55 -45.6 M23.3 -44.8 Q12.45 -48.55 1.0 -50.25 L-2.2 -50.7 Q0.25 -49.25 3.45 -48.5 13.45 -46.55 23.15 -43.15 L23.3 -44.8 M-3.15 -38.4 Q-2.2 -27.05 -0.25 -15.85 L16.15 -14.9 18.8 -14.6 23.95 -14.15 Q22.7 -9.9 20.55 -5.9 21.55 -6.2 22.45 -7.0 L22.9 -7.8 Q23.75 -9.65 24.2 -11.6 L24.75 -14.1 35.8 -12.55 36.35 -13.1 Q35.95 -13.6 36.05 -14.1 38.15 -20.7 41.65 -26.7 43.35 -29.7 43.5 -32.7 45.15 -28.7 47.25 -24.9 41.8 -14.2 33.15 -6.0 L33.35 -5.7 33.4 -5.4 Q25.85 -4.05 18.1 -4.55 2.75 -5.55 -12.3 -8.45 L-12.5 -8.75 Q-16.05 -13.15 -20.7 -16.7 L-20.8 -16.7 -21.1 -16.65 -21.2 -16.55 -21.25 -16.3 -21.05 -15.75 Q-16.85 -12.55 -14.65 -8.05 L-15.05 -7.65 Q-17.7 -4.25 -20.9 -1.6 L-22.25 -3.4 Q-29.6 -12.6 -32.7 -23.55 -31.2 -21.25 -27.6 -22.15 L-28.1 -21.25 -27.75 -20.95 -27.15 -20.8 Q-19.0 -30.6 -7.55 -36.9 L-5.15 -38.05 -3.25 -38.7 -3.15 -38.4 M-20.0 2.9 Q1.45 6.75 23.05 8.5 L26.1 8.25 25.9 10.4 Q2.1 17.1 -20.45 7.3 L-20.8 7.0 -20.7 6.45 -21.1 6.05 Q-21.05 5.15 -20.35 4.45 L-20.1 3.95 -20.0 3.5 -20.0 2.9" fill="#333333" fill-rule="evenodd" stroke="none"/>
    <path d="M48.0 -25.45 L47.95 -25.25 47.9 -25.4 48.0 -25.45" fill="#666666" fill-rule="evenodd" stroke="none"/>
    <path d="M25.55 -25.6 Q25.5 -20.15 24.2 -15.1 L1.3 -17.6 Q0.15 -16.95 0.0 -17.8 0.15 -20.5 -0.35 -23.05 L-1.0 -28.6 Q-1.15 -33.95 -2.35 -38.95 L4.3 -39.3 24.9 -36.8 Q25.55 -31.25 25.55 -25.6 M-3.25 -38.7 L-3.15 -38.4 -3.25 -38.7 M30.55 -3.85 L30.55 -3.4 30.5 -1.8 30.25 -0.2 29.6 1.1 Q8.55 0.95 -12.35 -1.75 -12.0 -1.45 -11.55 -1.4 8.0 2.75 27.95 2.85 L26.45 6.05 -2.5 4.5 -12.0 3.1 Q-16.5 2.25 -20.35 0.6 L-16.1 -3.7 -12.3 -8.15 -6.9 -6.65 Q11.55 -1.55 30.55 -4.2 L30.55 -3.85 M24.9 -15.05 Q26.85 -25.9 25.8 -36.7 L40.95 -34.75 Q42.1 -34.6 42.8 -33.9 L34.85 -14.3 24.9 -15.05 M-21.25 8.95 Q1.65 19.0 25.95 12.4 L25.75 13.7 Q4.65 20.65 -16.65 15.3 L-22.2 13.85 -21.25 8.95" fill="#555555" fill-rule="evenodd" stroke="none"/>
  </g>
</svg>
