<?xml version="1.0" encoding="UTF-8" standalone="no"?>
<svg xmlns:xlink="http://www.w3.org/1999/xlink" height="31.9px" width="11.6px" xmlns="http://www.w3.org/2000/svg">
  <g transform="matrix(1.0, 0.0, 0.0, 1.0, 3.85, 15.3)">
    <path d="M1.15 -11.35 L-1.6 -11.35 -1.35 13.85 -1.35 14.05 -1.2 14.2 Q-0.1 14.65 0.95 14.2 L1.25 14.1 1.3 15.1 -2.5 15.3 -3.1 -13.75 1.15 -13.9 1.15 -13.15 1.15 -11.35 M2.5 -11.0 L5.7 -1.45 5.85 -1.25 6.7 0.65 6.45 1.05 Q4.4 7.0 2.65 12.85 L2.5 -11.0 M1.2 12.9 L-0.25 13.35 -0.95 -10.35 1.15 -10.6 1.2 12.9" fill="#555555" fill-rule="evenodd" stroke="none"/>
    <path d="M4.55 -9.1 L7.75 0.9 7.7 1.45 Q5.6 8.5 3.15 15.25 L2.45 16.15 2.45 16.6 -3.85 16.6 -3.85 -15.3 2.45 -15.3 2.45 -13.6 Q3.7 -11.55 4.55 -9.1 M1.15 -11.35 L1.15 -13.15 1.15 -13.9 -3.1 -13.75 -2.5 15.3 1.3 15.1 1.25 14.1 0.95 14.2 Q-0.1 14.65 -1.2 14.2 L-1.35 14.05 -1.35 13.85 -1.6 -11.35 1.15 -11.35 M2.5 -11.0 L2.65 12.85 Q4.4 7.0 6.45 1.05 L6.7 0.65 5.85 -1.25 5.7 -1.45 2.5 -11.0 M1.2 12.9 L1.15 -10.6 -0.95 -10.35 -0.25 13.35 1.2 12.9" fill="#000000" fill-rule="evenodd" stroke="none"/>
  </g>
</svg>
