<?xml version="1.0" encoding="UTF-8" standalone="no"?>
<svg xmlns:xlink="http://www.w3.org/1999/xlink" height="32.25px" width="31.9px" xmlns="http://www.w3.org/2000/svg">
  <g transform="matrix(1.0, 0.0, 0.0, 1.0, 15.85, 16.25)">
    <path d="M4.2 -7.0 Q2.4 -6.0 0.25 -6.4 L-5.8 -9.4 -8.6 -5.9 Q-7.95 -4.75 -7.65 -3.45 -7.35 -2.25 -7.95 -1.2 -9.55 1.65 -13.15 2.0 L-13.55 5.25 -9.35 7.45 -9.65 8.05 Q-10.65 9.6 -12.45 9.9 L-12.2 11.55 Q-5.75 14.2 0.9 12.8 L3.45 11.85 7.75 8.8 Q14.35 3.4 13.75 -4.85 L13.3 -5.45 13.3 -6.15 Q10.85 -9.75 11.25 -14.05 L6.7 -14.25 5.3 -7.7 4.2 -7.0 M2.4 -8.3 L3.9 -9.5 4.5 -16.25 12.55 -16.25 13.6 -9.95 14.75 -8.35 Q16.2 -5.7 16.05 -2.4 15.8 4.3 11.15 8.85 7.95 12.05 4.0 14.4 1.95 15.65 -0.35 15.8 -7.3 16.7 -14.15 13.3 L-14.55 9.15 -13.15 8.0 -15.7 6.5 -15.85 5.55 -14.85 0.75 -9.0 -1.9 -8.75 -2.3 -8.8 -2.75 -8.95 -3.15 -9.35 -3.65 -10.65 -5.05 Q-10.2 -9.0 -6.45 -10.85 L-5.0 -10.95 Q-1.25 -9.95 2.4 -8.3" fill="#000000" fill-rule="evenodd" stroke="none"/>
    <path d="M4.2 -7.0 L5.3 -7.7 6.7 -14.25 11.25 -14.05 Q10.85 -9.75 13.3 -6.15 L13.3 -5.45 13.75 -4.85 Q14.35 3.4 7.75 8.8 L3.45 11.85 0.9 12.8 Q-5.75 14.2 -12.2 11.55 L-12.45 9.9 Q-10.65 9.6 -9.65 8.05 L-9.35 7.45 -13.55 5.25 -13.15 2.0 Q-9.55 1.65 -7.95 -1.2 -7.35 -2.25 -7.65 -3.45 -7.95 -4.75 -8.6 -5.9 L-5.8 -9.4 0.25 -6.4 Q2.4 -6.0 4.2 -7.0" fill="#555555" fill-rule="evenodd" stroke="none"/>
  </g>
</svg>
