<?xml version="1.0" encoding="UTF-8" standalone="no"?>
<svg xmlns:xlink="http://www.w3.org/1999/xlink" height="71.4px" width="50.8px" xmlns="http://www.w3.org/2000/svg">
  <g transform="matrix(1.0, 0.0, 0.0, 1.0, 32.9, 13.95)">
    <path d="M10.5 18.15 L12.6 10.2 Q14.25 3.25 12.3 -3.2 11.55 -5.75 9.8 -8.0 6.75 -11.85 1.7 -12.4 -10.2 -12.35 -17.2 -2.5 L-16.65 -1.9 -17.0 -1.0 -18.25 -1.0 -19.3 0.65 Q-14.55 0.6 -10.0 1.9 3.7 5.7 10.3 18.25 L10.4 18.4 10.5 18.15 M-13.1 -9.15 Q-10.0 -11.6 -6.25 -12.95 2.55 -15.95 9.85 -10.1 13.7 -4.25 14.45 2.95 15.6 13.4 9.95 22.0 L11.35 24.05 12.1 24.25 12.5 25.6 13.4 25.4 15.0 25.9 Q15.9 26.25 16.7 26.9 17.75 29.35 17.9 32.3 18.05 34.65 16.2 35.55 17.1 37.5 17.45 39.45 17.9 41.95 16.55 44.15 13.55 45.35 11.1 47.7 L10.5 47.7 9.85 46.9 8.85 46.4 8.8 48.0 Q8.4 53.3 3.9 56.15 -0.25 58.8 -4.2 55.95 L-4.1 52.5 Q-5.65 54.6 -8.5 54.9 -14.8 56.1 -19.45 51.85 L-19.25 49.6 -22.45 46.4 Q-22.2 41.95 -25.9 39.35 -30.35 36.15 -32.3 31.15 L-32.8 31.65 -32.4 30.75 -32.9 27.75 Q-32.95 26.7 -32.55 25.85 -28.45 17.3 -24.0 8.9 L-22.95 8.0 Q-21.25 -2.5 -13.1 -9.15 M-6.25 -0.85 Q-5.85 -0.85 -5.55 -0.55 -5.25 -0.3 -5.25 0.1 -5.25 0.5 -5.55 0.8 -5.85 1.05 -6.25 1.05 L-6.95 0.8 -7.25 0.1 -6.95 -0.55 -6.25 -0.85 M-18.2 25.3 L-16.4 23.35 -16.4 21.85 Q-14.2 20.55 -11.9 20.85 -19.35 18.25 -27.15 17.6 -30.1 22.2 -31.5 27.25 L-31.65 28.9 -31.55 29.4 Q-27.8 26.6 -23.1 25.3 L-18.65 24.35 -18.15 24.75 -18.3 25.2 Q-24.9 26.15 -30.8 29.65 L-31.35 30.0 Q-28.6 36.75 -22.4 40.85 L-21.45 41.35 -20.7 42.85 Q-20.95 44.7 -20.05 46.15 L-19.45 46.4 -19.3 46.8 -16.7 48.7 -16.5 46.15 -15.75 46.05 -15.35 46.4 -14.8 50.2 -14.35 50.6 Q-15.35 51.4 -16.5 51.2 L-17.4 50.9 Q-15.75 53.65 -12.45 53.05 L-7.0 52.5 -4.45 49.45 -2.7 49.45 Q-2.25 51.95 -2.7 54.4 0.95 55.85 4.4 53.75 7.1 49.9 6.8 45.4 L7.8 44.3 11.1 45.55 Q13.6 44.4 15.3 42.25 15.6 37.55 13.0 33.5 12.15 26.05 6.2 21.95 0.45 21.5 -4.95 23.85 L-6.65 23.95 -15.25 23.35 Q-17.3 25.4 -18.8 27.8 L-19.3 27.9 -18.2 25.3 M-22.7 8.7 Q-24.25 13.4 -26.95 17.25 -19.05 16.9 -11.9 19.75 L-7.15 21.25 Q-2.05 22.15 2.75 19.75 L2.35 19.55 2.0 18.8 -0.7 17.1 Q-10.7 10.85 -22.45 8.8 L-22.45 8.4 -22.4 8.25 -22.35 8.15 -22.3 8.05 -22.1 7.75 -21.6 7.65 Q-8.3 9.1 2.25 17.5 L2.75 17.9 2.9 18.3 3.0 18.65 4.05 19.5 6.3 19.7 8.55 21.05 8.7 20.8 9.95 19.15 Q6.6 13.25 1.05 9.0 -8.2 1.95 -20.1 2.05 -21.6 4.85 -22.6 7.95 L-22.6 8.05 -22.55 8.1 -22.55 8.2 -22.6 8.3 -22.5 8.3 -22.6 8.4 -22.7 8.7 M13.25 27.5 L13.05 27.55 14.3 31.85 15.1 32.6 14.65 32.85 15.5 34.15 15.95 33.6 15.9 32.35 15.05 28.3 13.25 27.5 M8.05 8.8 Q8.75 8.8 9.15 9.35 L9.25 9.6 9.05 10.2 8.9 10.5 8.55 10.7 Q7.75 10.8 7.4 10.2 7.05 9.5 7.7 9.0 L8.05 8.8" fill="#000000" fill-rule="evenodd" stroke="none"/>
    <path d="M-22.55 8.2 L-22.55 8.1 -22.6 8.05 -22.35 8.15 -22.4 8.25 -22.45 8.25 -22.55 8.2" fill="#666666" fill-rule="evenodd" stroke="none"/>
    <path d="M-22.6 8.4 L-22.5 8.3 -22.45 8.25 -22.4 8.25 -22.45 8.4 -22.6 8.4" fill="#333333" fill-rule="evenodd" stroke="none"/>
    <path d="M-22.7 8.7 L-22.6 8.4 -22.45 8.4 -22.45 8.8 -22.7 8.7" fill="#3f4756" fill-rule="evenodd" stroke="none"/>
    <path d="M-22.6 8.05 L-22.6 7.95 -22.3 8.05 -22.35 8.15 -22.6 8.05" fill="#603535" fill-rule="evenodd" stroke="none"/>
    <path d="M10.3 18.25 Q3.7 5.7 -10.0 1.9 -14.55 0.6 -19.3 0.65 L-18.25 -1.0 -17.0 -1.0 -16.65 -1.9 -17.2 -2.5 Q-10.2 -12.35 1.7 -12.4 6.75 -11.85 9.8 -8.0 11.55 -5.75 12.3 -3.2 14.25 3.25 12.6 10.2 L10.5 18.15 10.3 18.25 M-6.25 -0.85 L-6.95 -0.55 -7.25 0.1 -6.95 0.8 -6.25 1.05 Q-5.85 1.05 -5.55 0.8 -5.25 0.5 -5.25 0.1 -5.25 -0.3 -5.55 -0.55 -5.85 -0.85 -6.25 -0.85 M-18.2 25.3 L-19.3 27.9 -18.8 27.8 Q-17.3 25.4 -15.25 23.35 L-6.65 23.95 -4.95 23.85 Q0.45 21.5 6.2 21.95 12.15 26.05 13.0 33.5 15.6 37.55 15.3 42.25 13.6 44.4 11.1 45.55 L7.8 44.3 6.8 45.4 Q7.1 49.9 4.4 53.75 0.95 55.85 -2.7 54.4 -2.25 51.95 -2.7 49.45 L-4.45 49.45 -7.0 52.5 -12.45 53.05 Q-15.75 53.65 -17.4 50.9 L-16.5 51.2 Q-15.35 51.4 -14.35 50.6 L-14.8 50.2 -15.35 46.4 -15.75 46.05 -16.5 46.15 -16.7 48.7 -19.3 46.8 -19.45 46.4 -20.05 46.15 Q-20.95 44.7 -20.7 42.85 L-21.45 41.35 -22.4 40.85 Q-28.6 36.75 -31.35 30.0 L-30.8 29.65 Q-24.9 26.15 -18.3 25.2 L-18.2 25.3 M-22.6 7.95 Q-21.6 4.85 -20.1 2.05 -8.2 1.95 1.05 9.0 6.6 13.25 9.95 19.15 L8.7 20.8 8.55 21.05 6.3 19.7 4.05 19.5 3.0 18.65 2.9 18.3 2.75 17.9 2.25 17.5 Q-8.3 9.1 -21.6 7.65 L-22.1 7.75 -22.3 8.05 -22.6 7.95 M8.05 8.8 L7.7 9.0 Q7.05 9.5 7.4 10.2 7.75 10.8 8.55 10.7 L8.9 10.5 9.05 10.2 9.25 9.6 9.15 9.35 Q8.75 8.8 8.05 8.8 M13.25 27.5 L15.05 28.3 15.9 32.35 15.95 33.6 15.5 34.15 14.65 32.85 15.1 32.6 14.3 31.85 13.05 27.55 13.25 27.5" fill="#555555" fill-rule="evenodd" stroke="none"/>
    <path d="M-18.3 25.2 L-18.15 24.75 -18.65 24.35 -23.1 25.3 Q-27.8 26.6 -31.55 29.4 L-31.65 28.9 -31.5 27.25 Q-30.1 22.2 -27.15 17.6 -19.35 18.25 -11.9 20.85 -14.2 20.55 -16.4 21.85 L-16.4 23.35 -18.2 25.3 -18.3 25.2 M-22.45 8.8 Q-10.7 10.85 -0.7 17.1 L2.0 18.8 2.35 19.55 2.75 19.75 Q-2.05 22.15 -7.15 21.25 L-11.9 19.75 Q-19.05 16.9 -26.95 17.25 -24.25 13.4 -22.7 8.7 L-22.45 8.8" fill="#2d2d2d" fill-rule="evenodd" stroke="none"/>
  </g>
</svg>
