<?xml version="1.0" encoding="UTF-8" standalone="no"?>
<svg xmlns:xlink="http://www.w3.org/1999/xlink" height="55.55px" width="65.35px" xmlns="http://www.w3.org/2000/svg">
  <g transform="matrix(1.0, 0.0, 0.0, 1.0, 1.35, 38.25)">
    <path d="M33.0 -37.6 Q33.3 -38.5 33.8 -38.15 34.9 -33.1 33.85 -28.0 L40.6 -28.4 Q48.2 -27.9 55.4 -25.3 60.95 -23.45 64.0 -19.45 L60.25 -19.65 Q52.65 -16.3 46.2 -11.2 32.15 0.05 23.75 15.95 L23.85 16.6 23.35 16.55 22.85 17.3 22.65 15.55 Q19.9 11.95 16.2 9.2 10.7 5.2 4.45 2.7 2.65 1.9 0.85 2.05 L0.35 2.2 -0.5 1.6 -1.2 1.6 -1.35 -1.8 -0.9 -2.05 0.9 -2.95 Q6.05 -4.15 10.7 -6.75 16.45 -10.1 20.75 -15.0 24.4 -19.2 26.85 -23.95 29.55 -29.2 31.85 -34.65 L33.0 -37.6 M29.5 -16.45 L32.4 -20.85 Q32.9 -21.65 34.4 -22.0 L44.85 -22.95 Q52.85 -23.0 60.65 -20.95 57.4 -23.65 53.45 -25.0 43.9 -28.2 33.8 -26.9 L33.6 -26.85 33.45 -26.65 33.35 -26.5 33.1 -26.55 Q32.75 -26.6 32.5 -26.75 L33.25 -34.95 27.75 -22.8 Q25.5 -18.25 22.2 -14.5 18.35 -10.1 13.4 -7.0 L10.8 -5.6 Q5.25 -2.8 -0.6 -1.05 L-0.5 0.15 -0.45 0.35 -0.35 0.1 Q7.7 -1.35 15.5 -4.05 L18.95 -4.7 20.8 -2.55 22.1 0.15 Q24.0 5.95 23.6 12.2 25.4 5.45 24.95 -1.4 L24.8 -3.15 23.4 -8.2 29.5 -16.45 M45.9 -21.75 Q39.3 -21.7 32.95 -20.5 29.85 -13.85 24.85 -8.3 L25.65 -1.45 Q26.3 6.4 24.15 14.15 L28.3 7.2 Q31.9 1.3 36.6 -4.1 45.65 -14.45 58.1 -20.3 52.05 -21.75 45.9 -21.75 M22.7 13.9 L22.35 6.1 Q21.7 0.4 18.35 -3.7 L1.9 0.85 Q4.4 1.5 6.85 2.45 16.2 6.1 22.7 13.9" fill="#000000" fill-rule="evenodd" stroke="none"/>
    <path d="M27.75 -22.8 L33.25 -34.95 32.5 -26.75 Q32.75 -26.6 33.1 -26.55 L33.35 -26.5 33.45 -26.65 33.6 -26.85 33.8 -26.9 Q43.9 -28.2 53.45 -25.0 57.4 -23.65 60.65 -20.95 52.85 -23.0 44.85 -22.95 L34.4 -22.0 Q32.9 -21.65 32.4 -20.85 L29.5 -16.45 27.75 -22.8 M24.8 -3.15 L24.95 -1.4 Q25.4 5.45 23.6 12.2 24.0 5.95 22.1 0.15 L20.8 -2.55 24.8 -3.15 M15.5 -4.05 Q7.7 -1.35 -0.35 0.1 L-0.5 0.15 -0.6 -1.05 Q5.25 -2.8 10.8 -5.6 L13.4 -7.0 Q13.6 -6.0 13.95 -5.0 L15.5 -4.05" fill="#404040" fill-rule="evenodd" stroke="none"/>
    <path d="M29.5 -16.45 L23.4 -8.2 24.8 -3.15 20.8 -2.55 18.95 -4.7 15.5 -4.05 13.95 -5.0 Q13.6 -6.0 13.4 -7.0 18.35 -10.1 22.2 -14.5 25.5 -18.25 27.75 -22.8 L29.5 -16.45 M45.9 -21.75 Q52.05 -21.75 58.1 -20.3 45.65 -14.45 36.6 -4.1 31.9 1.3 28.3 7.2 L24.15 14.15 Q26.3 6.4 25.65 -1.45 L24.85 -8.3 Q29.85 -13.85 32.95 -20.5 39.3 -21.7 45.9 -21.75" fill="#4a4a4a" fill-rule="evenodd" stroke="none"/>
    <path d="M18.35 -3.7 Q21.7 0.4 22.35 6.1 L22.7 13.9 Q16.2 6.1 6.85 2.45 4.4 1.5 1.9 0.85 L18.35 -3.7" fill="#4a4a4a" fill-rule="evenodd" stroke="none"/>
  </g>
</svg>
