<?xml version="1.0" encoding="UTF-8" standalone="no"?>
<svg xmlns:xlink="http://www.w3.org/1999/xlink" height="41.75px" width="32.65px" xmlns="http://www.w3.org/2000/svg">
  <g transform="matrix(1.0, 0.0, 0.0, 1.0, 16.35, 20.6)">
    <path d="M2.05 -20.6 Q13.7 -18.35 15.65 -7.0 L16.0 -2.55 16.05 -2.35 16.0 -2.25 16.0 -2.15 16.1 -2.45 16.25 -2.5 16.15 -1.45 16.05 -1.2 16.3 -0.7 Q16.1 2.85 15.3 6.25 L15.2 6.5 Q13.6 7.0 12.2 8.05 11.55 11.0 9.2 12.9 L8.35 13.65 Q7.5 14.5 6.95 15.55 -3.85 21.85 -16.2 21.05 L-16.3 17.95 -16.3 17.7 -15.9 17.15 -15.45 14.85 -15.45 14.6 -15.1 14.05 -14.85 14.35 Q-16.25 7.95 -15.4 1.3 -14.7 -3.8 -13.0 -8.75 -9.7 -18.55 0.8 -20.35 L2.05 -20.6 M11.25 -4.95 L11.65 -5.25 11.7 -5.35 13.85 -4.7 14.35 -4.4 15.05 -3.85 14.95 -4.45 Q14.2 -9.25 11.55 -13.55 9.95 -16.2 7.05 -17.55 0.4 -20.7 -5.6 -16.45 -12.1 -11.85 -13.8 -3.95 L-14.1 -2.4 -14.35 -0.6 Q-13.3 -1.95 -11.65 -2.3 L-11.15 -2.35 -13.25 -0.55 Q-14.45 0.3 -14.6 1.7 L-14.7 3.6 -14.7 5.2 Q-14.0 4.25 -12.7 3.5 L-12.6 3.45 -12.35 3.45 -12.2 3.45 -11.95 3.7 -12.0 3.75 -12.1 3.8 -13.25 4.95 -13.55 5.35 Q-14.55 6.75 -14.65 8.65 L-14.65 9.35 -14.6 9.6 -14.65 9.6 -14.5 14.15 Q-14.5 14.6 -14.75 14.85 L-14.8 14.6 -14.8 14.85 -14.75 15.6 Q-14.75 16.95 -15.35 18.2 L-15.25 19.5 -15.3 19.75 -15.25 19.75 Q-5.3 19.85 4.2 15.45 7.0 14.1 8.4 11.3 9.25 10.95 9.85 10.4 L11.15 7.95 11.15 7.7 12.7 6.0 Q13.75 5.9 14.35 5.25 L14.45 4.6 14.6 3.3 14.1 2.9 13.9 2.65 13.15 2.45 12.8 2.2 Q11.2 2.2 10.05 1.6 L12.05 1.3 Q13.7 1.25 14.85 2.05 L15.3 0.05 15.35 0.0 15.2 0.0 15.2 -2.1 Q13.7 -3.8 11.5 -4.6 L11.15 -4.9 11.25 -4.95 M-5.05 12.8 L-4.15 7.85 Q-2.55 0.1 -1.95 -7.3 -1.95 2.85 -4.95 12.5 L-5.05 12.8" fill="#000000" fill-rule="evenodd" stroke="none"/>
    <path d="M11.25 -4.95 L11.0 -4.95 11.0 -4.85 Q9.85 -5.0 9.3 -3.95 L9.05 -3.2 8.75 -1.75 Q9.15 -1.0 9.7 -0.4 10.65 0.6 11.8 1.3 L12.05 1.3 10.05 1.6 Q11.2 2.2 12.8 2.2 L13.15 2.45 13.9 2.65 14.1 2.9 14.6 3.3 14.45 4.6 12.0 5.0 Q9.15 5.0 6.35 6.45 5.15 7.1 5.5 8.5 7.2 10.1 9.35 10.8 L9.85 10.4 Q9.25 10.95 8.4 11.3 7.0 14.1 4.2 15.45 -5.3 19.85 -15.25 19.75 L-15.25 19.5 -15.35 18.2 Q-14.75 16.95 -14.75 15.6 L-8.0 12.25 -6.85 10.95 -6.5 10.25 -6.65 9.6 Q-7.95 7.05 -11.0 7.25 L-11.0 7.4 Q-13.05 7.85 -14.65 8.65 -14.55 6.75 -13.55 5.35 -11.0 4.7 -8.25 1.5 L-7.55 0.25 -7.0 -1.25 -7.3 -1.95 Q-8.4 -4.25 -11.0 -3.95 L-11.0 -3.85 -12.2 -3.6 -13.0 -3.2 -14.1 -2.4 -13.8 -3.95 Q-12.1 -11.85 -5.6 -16.45 0.4 -20.7 7.05 -17.55 9.95 -16.2 11.55 -13.55 14.2 -9.25 14.95 -4.45 L13.85 -4.7 11.7 -5.35 11.65 -5.25 11.25 -4.95 M-5.05 12.8 L-4.95 12.5 Q-1.95 2.85 -1.95 -7.3 -2.55 0.1 -4.15 7.85 L-5.05 12.8" fill="#555555" fill-rule="evenodd" stroke="none"/>
    <path d="M12.05 1.3 L11.8 1.3 Q10.65 0.6 9.7 -0.4 9.15 -1.0 8.75 -1.75 L9.05 -3.2 9.3 -3.95 Q9.85 -5.0 11.0 -4.85 L11.0 -4.95 11.25 -4.95 11.15 -4.9 11.5 -4.6 Q13.7 -3.8 15.2 -2.1 L15.2 0.0 15.3 0.05 14.85 2.05 Q13.7 1.25 12.05 1.3 M13.85 -4.7 L14.95 -4.45 15.05 -3.85 14.35 -4.4 13.85 -4.7 M-14.1 -2.4 L-13.0 -3.2 -12.2 -3.6 -11.0 -3.85 -11.0 -3.95 Q-8.4 -4.25 -7.3 -1.95 L-7.0 -1.25 -7.55 0.25 -8.25 1.5 Q-11.0 4.7 -13.55 5.35 L-13.25 4.95 -12.1 3.8 -12.0 3.75 -11.95 3.7 -12.2 3.45 -12.35 3.45 -12.6 3.45 -12.7 3.5 Q-14.0 4.25 -14.7 5.2 L-14.7 3.6 -14.6 1.7 Q-14.45 0.3 -13.25 -0.55 L-11.15 -2.35 -11.65 -2.3 Q-13.3 -1.95 -14.35 -0.6 L-14.1 -2.4 M-14.65 8.65 Q-13.05 7.85 -11.0 7.4 L-11.0 7.25 Q-7.95 7.05 -6.65 9.6 L-6.5 10.25 -6.85 10.95 -8.0 12.25 -14.75 15.6 -14.8 14.85 -14.75 14.85 Q-14.5 14.6 -14.5 14.15 L-14.65 9.6 -14.6 9.6 -14.65 9.35 -14.65 8.65 M9.85 10.4 L9.35 10.8 Q7.2 10.1 5.5 8.5 5.15 7.1 6.35 6.45 9.15 5.0 12.0 5.0 L14.45 4.6 14.35 5.25 Q13.75 5.9 12.7 6.0 L11.15 7.7 11.15 7.95 9.85 10.4" fill="#2d2d2d" fill-rule="evenodd" stroke="none"/>
  </g>
</svg>
